<?xml version="1.0" encoding="iso-8859-1"?>
<!-- Generator: Adobe Illustrator 26.0.3, SVG Export Plug-In . SVG Version: 6.00 Build 0)  -->
<!DOCTYPE svg PUBLIC "-//W3C//DTD SVG 1.1//EN" "http://www.w3.org/Graphics/SVG/1.1/DTD/svg11.dtd" [
	<!ENTITY ns_extend "http://ns.adobe.com/Extensibility/1.0/">
	<!ENTITY ns_ai "http://ns.adobe.com/AdobeIllustrator/10.0/">
	<!ENTITY ns_graphs "http://ns.adobe.com/Graphs/1.0/">
	<!ENTITY ns_vars "http://ns.adobe.com/Variables/1.0/">
	<!ENTITY ns_imrep "http://ns.adobe.com/ImageReplacement/1.0/">
	<!ENTITY ns_sfw "http://ns.adobe.com/SaveForWeb/1.0/">
	<!ENTITY ns_custom "http://ns.adobe.com/GenericCustomNamespace/1.0/">
	<!ENTITY ns_adobe_xpath "http://ns.adobe.com/XPath/1.0/">
]>
<svg version="1.1" xmlns:x="&ns_extend;" xmlns:i="&ns_ai;" xmlns:graph="&ns_graphs;"
	 xmlns="http://www.w3.org/2000/svg" xmlns:xlink="http://www.w3.org/1999/xlink" x="0px" y="0px" viewBox="0 0 5000 3307.7"
	 style="enable-background:new 0 0 5000 3307.7;" xml:space="preserve">
<style type="text/css">
	.st0{fill:url(#SVGID_1_);}
	.st1{fill:#910299;}
	.st2{fill:url(#SVGID_00000161616747819849904490000001073719267802507197_);}
	.st3{fill:#5092C1;}
	.st4{fill:#FFFFFF;}
	.st5{fill:#D2D3D5;}
	.st6{fill:#E0707E;}
	.st7{fill:#FDB813;}
	.st8{fill:#03BC8F;}
	.st9{fill:#0D2A4A;}
	.st10{fill:#A8A9AB;}
	.st11{fill:#5DA5D3;}
	.st12{fill:#0875BC;}
	.st13{fill:#183055;}
	.st14{fill:#50C6F3;}
	.st15{fill:#165278;}
	.st16{fill:url(#SVGID_00000024680174820735946080000015880738573807156381_);}
	.st17{fill:#284C82;}
	.st18{clip-path:url(#SVGID_00000134964443030274745180000006001133520030804395_);}
	.st19{fill:#FFCACB;}
	.st20{fill:#262653;}
	.st21{fill:#DCA8BB;}
	.st22{fill:#73017C;}
	.st23{fill:#ECB47E;}
	.st24{fill:#274E84;}
	.st25{fill:#EBEBEB;}
	.st26{fill:#C7DCE4;}
	.st27{fill:#77A1AA;}
	.st28{fill:#8EB2BC;}
	.st29{fill:#DCD7CB;}
</style>
<metadata>
	<sfw  xmlns="&ns_sfw;">
		<slices></slices>
		<sliceSourceBounds  bottomLeftOrigin="true" height="3429.7" width="5003.5" x="-2133.8" y="-2060.3"></sliceSourceBounds>
	</sfw>
</metadata>
<g id="Background">
	<linearGradient id="SVGID_1_" gradientUnits="userSpaceOnUse" x1="2498.2263" y1="3307.6772" x2="2498.2263" y2="-9.094947e-13">
		<stop  offset="0.2489" style="stop-color:#5DA5D3"/>
		<stop  offset="0.9476" style="stop-color:#83D2E1"/>
	</linearGradient>
	<rect x="-3.5" class="st0" width="5003.5" height="3307.7"/>
</g>
<g id="soft_shapes">
	<rect x="-3.5" y="2198.2" class="st1" width="5003.5" height="1109.5"/>
	
		<linearGradient id="SVGID_00000010272898079268947470000017606389550974337466_" gradientUnits="userSpaceOnUse" x1="-3.5474" y1="1653.8386" x2="2593.7456" y2="1653.8386">
		<stop  offset="0.2489" style="stop-color:#5DA5D3"/>
		<stop  offset="0.9476" style="stop-color:#83D2E1"/>
	</linearGradient>
	<path style="fill:url(#SVGID_00000010272898079268947470000017606389550974337466_);" d="M2593.7,3307.7
		c0,0-488-616.4-1224.8-493.2c-736.8,123.2-1117.7-308-1081.4-798.2s203.2-829.2,839.1-1053.1S2129.8,151,2144.9,0H-3.5v3307.7
		H2593.7z"/>
</g>
<g id="Room">
	<g>
		<path class="st3" d="M2066.4,711.7l-90.1,90.3c-7,7-11,16.5-11,26.5v534.3c0,14.5,11.8,26.3,26.3,26.3H2416V730.9L2066.4,711.7z"
			/>
		<rect x="2077.7" y="733.2" class="st4" width="810.3" height="467.5"/>
		<g>
			<rect x="2085.2" y="742.5" class="st5" width="789.7" height="32.2"/>
			<g>
				<circle class="st6" cx="2099.1" cy="755.3" r="3"/>
				<circle class="st7" cx="2109.2" cy="755.3" r="3"/>
				<circle class="st8" cx="2119.3" cy="755.3" r="3"/>
			</g>
			<rect x="2133.9" y="758.6" class="st4" width="691.3" height="10.9"/>
		</g>
		<g>
			<path class="st5" d="M2892.6,1301.1h-821.7c-8,0-14.5-6.5-14.5-14.5v-78h850.7v78C2907.1,1294.6,2900.6,1301.1,2892.6,1301.1z"/>
			<rect x="2334.7" y="1390.2" class="st9" width="291" height="3"/>
			<path class="st10" d="M2474.6,1301.1H2383c0,0-1.5,40.5-5.6,60.7c-4.1,20.2-6.7,20.2-21.4,22.1s-21.4,2.2-21.4,2.2v5.6h139.9
				h10.8l91.3-90.7H2474.6z"/>
			<path class="st5" d="M2625.7,1386.1c0,0-6.7-0.4-21.4-2.2c-14.6-1.9-17.2-1.9-21.4-22.1c-4.1-20.2-5.6-60.7-5.6-60.7h-0.7
				l-91.3,90.7h140.3V1386.1z"/>
			<rect x="2334.7" y="1386.1" class="st5" width="276.5" height="3"/>
			<path class="st9" d="M2883.3,707.3h-803c-13.2,0-23.8,10.7-23.8,23.8V1222h850.7V731.2C2907.1,718,2896.4,707.3,2883.3,707.3z
				 M2868.9,1187.2h-776.6V748.9h776.6V1187.2z"/>
			<circle class="st9" cx="2480.2" cy="1260.2" r="16.7"/>
		</g>
	</g>
	<g>
		<g>
			<path class="st11" d="M3009.3,1396.3h-877.7c-18.9,50.7-67.3,155-167.8,241.2c-138.4,118.6-187.8,186.2-106.2,456.3h1151.7
				c72.8,0,131.8-59,131.8-131.8v-433.8C3141.1,1455.3,3082.1,1396.3,3009.3,1396.3z"/>
		</g>
		<g>
			<path class="st12" d="M1963.9,1637.5c100.5-86.2,148.9-190.5,167.8-241.2h-309c-72.8,0-131.8,59-131.8,131.8V1962
				c0,72.8,59,131.8,131.8,131.8h34.9C1776.1,1823.7,1825.5,1756.1,1963.9,1637.5z"/>
		</g>
		<g>
			<path class="st12" d="M2999.8,2096.3H1832.2c-79.3,0-143.9-64.5-143.9-143.9v-414.7c0-79.3,64.5-143.9,143.9-143.9h1167.5
				c79.3,0,143.9,64.5,143.9,143.9v414.7C3143.6,2031.7,3079.1,2096.3,2999.8,2096.3z M1832.2,1398.8
				c-76.6,0-138.9,62.3-138.9,138.9v414.7c0,76.6,62.3,138.9,138.9,138.9h1167.5c76.6,0,138.9-62.3,138.9-138.9v-414.7
				c0-76.6-62.3-138.9-138.9-138.9H1832.2z"/>
		</g>
	</g>
	<g>
		<polygon class="st13" points="3667.2,537.6 3645.7,862.2 3683.1,862.2 		"/>
		<polygon class="st3" points="3667.2,874.1 3667.2,496.5 3961.3,496.5 3961.3,879.4 		"/>
		<path class="st9" d="M3617.9,725.3c-11.1-4.2-20.5,8.2-26.4,19c-3.3,6-5.8,11.6-7.6,16c0.8-16,2-40.8,2.7-63.5
			c6.5-5.7,31.8-28.2,37.3-35.7c6.3-8.6,12.5-16.3-0.8-21.3c-13.3-5-24.5,9.8-31.4,22.7c-1.7,3.1-3.1,6-4.5,8.9
			c0.1-3.7,0.1-7.2,0.1-10.4c1.6-7.6,8.2-40.2,7.6-49.5c-0.6-10.6-0.7-20.3-16.5-18.2c-15.7,2.1-15,20.4-11.8,35
			c3.2,14.6,7.7,26.2,9.8,31.6c0.1,0.2,0.2,0.4,0.3,0.6c0,5.3,0,11.5-0.2,18.5c-4.8-9.4-10.6-20.1-13.5-23.8
			c-5.6-7-10.5-13.7-17.4-4.1c-6.9,9.6,2.6,22,11.5,30.4c7.7,7.3,14.8,12.6,18.9,15.6c-0.7,20.7-1.7,43.2-2.5,59
			c-2.4-13.4-6.1-33.1-8.7-39.5c-4-9.9-7.3-19.2-18.5-10.6c-11.3,8.6-4.6,25.9,2.6,38.6c7.3,12.7,14.6,22,17.9,26.3
			c1.6,2.1,3.9,2.9,5.8,2.6c-0.1,1.9-0.2,2.9-0.2,3c-0.2,2.9,2.1,5.4,5,5.6c0.1,0,0.2,0,0.3,0c2.8,0,5.1-2.2,5.3-5
			c0-0.3,0.1-1,0.1-2.1c0.8,0.2,1.8,0,2.7-0.8c0,0,27.3-23.8,32.7-31S3629,729.4,3617.9,725.3z"/>
		<path class="st1" d="M3497,769c18.6,93.6,36.5,105.1,36.5,105.1h86.2c14.5-46.8,22.8-87.8,26-105.1H3497z"/>
		<path class="st4" d="M3645.7,769c-3.2,17.3-11.5,58.3-26,105.1h8.4c21-41.8,29.3-105.1,29.3-105.1H3645.7z"/>
		<path class="st9" d="M3408.1,741.5c0,0,9.1-35,59.3-51.7c0,0,4.6,31.2-20.5,58.5h-38.8V741.5z"/>
		<path class="st9" d="M3349.6,748.3c0,0-20.5-41,15.2-97.3c0,0,34.2,31.2,16,97.3H3349.6z"/>
		<path class="st9" d="M3390.6,739.2c0,0,16-24.3,17.5-49.4s-3.8-54-8.7-68.4c0,0,24.7,13.7,22.4,64.6c-2.3,50.9-2.3,50.9-2.3,50.9
			L3390.6,739.2z"/>
		<g>
			<path class="st9" d="M3408.1,744.5c-1.5,0-2.9-1.2-3-2.7c-9.6-96.5-82.6-159.2-83.3-159.9c-1.3-1.1-1.4-3-0.4-4.3
				c1.1-1.3,3-1.4,4.3-0.4c0.8,0.6,75.5,65,85.4,163.9c0.2,1.7-1.1,3.2-2.7,3.3C3408.3,744.5,3408.2,744.5,3408.1,744.5z"/>
		</g>
		<g>
			<path class="st14" d="M3336.6,589.9c4.4,0,7.1-0.3,7.1-0.3c-5.3-76.1-88.2-83.5-88.2-83.5c0.2,2,0.4,4.2,0.7,6.4
				C3275.9,516.2,3329.7,531.8,3336.6,589.9z"/>
			<path class="st9" d="M3336.6,589.9c-6.9-58.1-60.6-73.7-80.4-77.5c1.9,15.9,6.5,36.1,25.2,57.4
				C3297.1,587.9,3323.9,590,3336.6,589.9z"/>
		</g>
		<path class="st9" d="M3414,571.8c0,0-0.4,50.4-46,57.3c0,0-4.8-24.6,8.8-38.6S3404,573.5,3414,571.8z"/>
		<path class="st9" d="M3291.1,614.3c0,0,43.5-25.5,72.8,10c0,0-18.6,16.8-37.6,12.3C3307.2,632.1,3297.7,622,3291.1,614.3z"/>
		<path class="st9" d="M3366.2,671.3c0,0-18-41.2-57.9-45.5c0,0-5.5,33.9,23,47.2C3359.8,686.3,3366.2,671.3,3366.2,671.3z"/>
		<polygon class="st3" points="3275.9,736.3 3237,881.2 3361.6,889.4 3313,777 		"/>
		<path class="st3" d="M3153.1,889.4l-36.2,67.8c-3.4,6.3,1.2,14,8.4,14h913.2c3.1,0,6-1.5,7.8-4.1l54.1-77.7H3153.1z"/>
		<path class="st15" d="M4096.8,904.6h-955.9c-2,0-3.6-1.6-3.6-3.6v-23.3c0-2,1.6-3.6,3.6-3.6h955.9c2,0,3.6,1.6,3.6,3.6V901
			C4100.4,903,4098.8,904.6,4096.8,904.6z"/>
		<polygon class="st15" points="3247.2,889.4 3273.7,1053 3294.9,1053 3321.4,889.4 		"/>
		<polygon class="st15" points="3907,889.4 3933.5,1053 3954.7,1053 3981.2,889.4 		"/>
		<path class="st14" d="M3275.9,736.3c27.4,122.8,53.9,137.8,53.9,137.8H3457c21.3-61.3,33.6-115.1,38.3-137.8H3275.9z"/>
		<path class="st4" d="M3495.3,736.3c-4.7,22.7-17,76.5-38.3,137.8h12.4c30.9-54.8,43.3-137.8,43.3-137.8H3495.3z"/>
		<path class="st4" d="M3859.6,715h-93.2c-7.9,0-14.4-6.5-14.4-14.4v-93.2c0-7.9,6.5-14.4,14.4-14.4h93.2c7.9,0,14.4,6.5,14.4,14.4
			v93.2C3874,708.5,3867.5,715,3859.6,715z"/>
		<rect x="3717.5" y="760.2" class="st4" width="180.2" height="21.9"/>
		<rect x="3717.5" y="794.3" class="st4" width="180.2" height="21.9"/>
	</g>
	
		<linearGradient id="SVGID_00000116947675255201916280000016979949331074302386_" gradientUnits="userSpaceOnUse" x1="4796.2686" y1="2197.4106" x2="4796.2686" y2="8.2648">
		<stop  offset="0.2489" style="stop-color:#5DA5D3"/>
		<stop  offset="0.9476" style="stop-color:#83D2E1"/>
	</linearGradient>
	<polygon style="fill:url(#SVGID_00000116947675255201916280000016979949331074302386_);" points="4956.9,8.3 4592.5,2197.4 
		5000,2197.4 5000,8.3 	"/>
	<g>
		<g>
			<g>
				<path class="st9" d="M4179.6,2019.5l-14.7-1.2c20.8-261.5-4.9-545.8-5.1-548.6l14.7-1.4
					C4174.7,1471.2,4200.6,1756.7,4179.6,2019.5z"/>
			</g>
			<g>
				<path class="st9" d="M4182.9,1504c-14.9,6.1-35.9,13.4-76.8-75.3c-40.9-88.7-44.6-113.4-60.3-132.8
					c-15.7-19.4-115.6-163.4-171-191.5c0,0,57.5-11.8,102.7,22.1c0,0-7,6.6-3.9,7.6c1.9,0.6,6.4-4.1,6.4-4.1s81.6,86.6,108.9,124.1
					c0,0-11,22-6.5,32.7c4.5,10.7,17.9-19.6,17.9-19.6s69.9,91.7,86.7,134C4203.6,1443.8,4217.6,1489.8,4182.9,1504z"/>
			</g>
			<g>
				<path class="st17" d="M4351.6,1683.3c0,0,53.9,8.1,107.9-42.1c0,0-16.5-20.2-8.4-27.7c8.2-7.5,26.6,11.9,26.6,11.9
					s28.1-40.8,46.2-54.7s39-28.6,59.3-28.4c0,0-38.5-3.8-37.8-11.2c0.7-7.3,65.5-34.3,120.1,3.6c0,0-6.8-43.3-58.8-42.9
					c0,0,2.5-15.5,9.8-24c0,0-20.1-12.5-41.5-11.2c0,0-7,14.7-15.4,24.1c-8.3,9.4-16,2.1-13.1-17.1c0,0-36.8,25.1-73.5,21.4
					c0,0-5.9,12.4-18.2,15.8c0,0-2.1-6.7-0.4-14.9c0,0-21.5,30.3-38,37.9c-16.5,7.6-63.7,26.1-76.8,55.4
					C4326.6,1608.5,4315.8,1651.9,4351.6,1683.3z"/>
			</g>
			<g>
				<path class="st9" d="M4510.4,1516.4c0,0-8.3,5.1-22,15.1c-13.7,10-32.9,25.1-54.1,45.2c-21.1,20.1-44.5,45.3-64.8,75.9
					c-10.1,15.3-19.5,31.9-27.3,49.6c-7.8,17.8-13,36.6-20.4,54.4c-7.1,17.8-15.1,35.4-23.5,52.4c-8.3,17.1-17.1,33.6-25.9,49.5
					c-17.5,31.7-35.1,60.7-50.6,85.2c-15.5,24.5-29,44.6-38.5,58.6c-9.6,13.9-15.1,21.8-15.1,21.8l13.1,9.2c0,0,5.4-8.1,14.8-22.4
					c9.3-14.3,22.4-34.8,37.5-59.9c15-25,32.1-54.6,49-87c16.9-32.4,33.9-67.5,47.7-104.3c7.1-18.2,11.9-37.1,19-54.5
					c7.1-17.5,15.8-34,25.4-49.3c19.1-30.7,41.4-56.4,61.7-77.1c20.4-20.7,39.1-36.2,52.4-46.7
					C4502.3,1521.7,4510.4,1516.4,4510.4,1516.4z"/>
			</g>
			<g>
				<path class="st17" d="M4270.4,1529.3c0,0,99.6-59,157.4-170.9c0,0-36.9-19.7-33.2-28.3c3.7-8.6,30.7,1.2,39.3,0
					c8.6-1.2,41.8-24.6,70.1-88.5c0,0-35.7-4.9-33.2-14.8s14.1-12.3,39.6-7.4c0,0,24.3-55.3,36.6-70.1c0,0-17.2-4.9-16-11.1
					c1.2-6.1,44.3-16,44.3-16s-67.6-19.7-164.7,23.4c0,0,3.7,22.1-8.6,23.4c-12.3,1.2-12.3-14.8-12.3-14.8s-49.7,25.8-62.3,49.2
					c-12.7,23.4-6.5,83.6-13.9,89.7s-22.1,1.2-30.7-9.8c0,0-30.7,14.8-36.9,102C4239.7,1472.7,4270.4,1529.3,4270.4,1529.3z"/>
			</g>
			<g>
				<path class="st9" d="M4496.5,1149.4c0,0-12.4,8.9-32.2,26.7c-10,8.8-21.6,20-34.6,33.3c-6.4,6.7-13.1,14-20.1,21.7
					c-6.7,8-14.2,16-21.1,25.1c-7,9-14.5,18.3-21.6,28.5c-3.6,5-7.3,10.1-10.9,15.4c-3.5,5.4-7,10.8-10.6,16.3
					c-7.4,10.8-13.6,22.9-20.6,34.8c-3.3,6-6.2,12.4-9.4,18.7c-3,6.4-6.6,12.6-9.2,19.3c-5.5,13.3-11.6,26.6-16,40.7
					c-2.3,7-4.8,14-7.1,21.2c-2.1,7.1-4.2,14.2-6.3,21.4c-8.3,28.7-16.5,58.1-23.8,87.7c-7.3,29.6-14,59.4-19.1,89
					c-5.3,29.6-9,58.9-13.4,86.8c-4.4,27.9-9.6,55-14.3,80.6c-4.8,25.6-9.4,49.8-13.6,72.2c-8.6,44.7-16.4,81.7-22.3,107.5
					c-5.9,25.8-10.1,40.1-10.1,40.1l13.6,3.9c0,0,4.3-14.8,10.3-40.8c6-26,13.8-63.2,22.4-108c4.3-22.4,8.8-46.7,13.4-72.4
					c4.5-25.8,9.5-52.7,13.8-81.1c4.2-28.3,7.8-57.4,12.8-86.7c4.9-29.3,11-58.9,18-88.4c6.9-29.5,14.7-58.7,22.6-87.5
					c2-7.2,4-14.4,6-21.5c2.1-7,4.5-13.9,6.7-20.8c4.1-13.9,10-27,15.2-40.1c2.4-6.6,5.9-12.7,8.8-19c3.1-6.2,5.8-12.5,9.1-18.5
					c3.3-5.9,6.5-11.8,9.8-17.6c3.1-5.9,6.4-11.5,9.9-17c3.4-5.5,6.8-11,10.1-16.3c3.4-5.3,7-10.3,10.4-15.4
					c6.7-10.2,13.9-19.5,20.7-28.6c6.8-9.1,13.8-17.4,20.1-25.6c6.7-7.9,13-15.4,19.1-22.3c12.4-13.7,23.4-25.4,32.8-34.7
					c9.3-9.4,17.1-16.4,22.3-21.3C4493.6,1151.9,4496.5,1149.4,4496.5,1149.4z"/>
			</g>
			<g>
				<path class="st17" d="M4133.9,1507.2c-22.6,1.1-54.1,1.2-68.8-95.9c-14.8-97.1-8.6-121.7-20.9-145.1s-81.1-191.8-142.6-236
					c0,0,68.8,7.4,110.6,44.3c0,0-8.6,9.8-2.5,18.4c6.1,8.6,17.2-11.1,17.2-11.1s73.8,114.3,93.4,158.6c0,0-24.6,17.3-23.4,29
					c1.2,11.6,28.3,0,28.3,0s46.1,98.9,49.5,144.4C4178.2,1459.2,4186.8,1504.7,4133.9,1507.2z"/>
			</g>
			<g>
				<path class="st17" d="M4165.9,2013.7l-14.7-0.1c2.4-248.8-21.9-526.3-22.1-529.1l14.7-1.3
					C4144,1485.9,4168.3,1764.2,4165.9,2013.7z"/>
			</g>
			<g>
				<path class="st9" d="M4080.8,1721.1c0,0-76.5-36.9-87.6-102.3c-11.1-65.5-12.9-119.6-38.7-149.7c0,0,9.2-3.1,23,0
					c0,0-33.2-21.8-40.6-38.4c-7.4-16.6-50.7-75.6-201-82.1c0,0,72.8-26.7,131.8,0c0,0,8.3-4.8-11.1-25c0,0,44.3-1.8,88.5,14.8
					c0,0-2.8,37.8,6.5,37.8c9.2,0,7.4-33.2,7.4-33.2s44.8,10.1,80.5,41.5c0,0-16.9,42.4-13.2,45.2s23-20.3,26.7-30.4
					c0,0,33.2,37.2,50.7,84.5l-35,55.6l46.1-33.4c0,0,27.6,51.3,30.8,104.2S4126.9,1710,4080.8,1721.1z"/>
			</g>
			<g>
				<path class="st17" d="M4033.8,1522.3c0,0,7.6,29.9,18.3,74.7c5.6,22.4,11.4,48.7,18,76.7c6.3,28.1,12.8,58.2,18.7,88.3
					c5.9,30.2,11.5,60.4,16,88.8c2.4,14.2,4.5,27.9,6.3,41c1.8,13.1,3.8,25.4,5.2,36.8c1.5,11.4,2.8,21.9,4,31.1
					c1,9.3,1.8,17.4,2.6,24.1c1.4,13.3,2.2,21,2.2,21l14.7-1.4c0,0-0.9-7.7-2.5-21.1c-0.8-6.7-1.8-14.9-2.9-24.2
					c-1.3-9.3-2.8-19.8-4.4-31.3c-1.5-11.5-3.7-23.8-5.9-36.9c-2.1-13.1-4.6-26.8-7.4-41.1c-5.2-28.4-11.6-58.6-18.2-88.7
					c-6.6-30.1-13.9-60.1-20.9-88.1c-3.6-14-6.9-27.5-10.6-40.3c-3.6-12.7-6.9-24.8-10.1-35.9
					C4044.1,1551.3,4033.8,1522.3,4033.8,1522.3z"/>
			</g>
			<g>
				<path class="st9" d="M4093.7,2028.7c0,0-28.6-198.8-34.1-226.5s-88.5-117.1-154-127.2c-65.5-10.1-114.3-10.1-142,8.8
					c0,0,26.7-42.9,101.4-35.5l-15.7-9.2c0,0,37.8,6.5,58.1,6.5s23.7,12.9,33.5,12.9c9.8,0,27.3,6.5,37.5,18.4
					c0,0,107,36,97.7,123.5l27.7,228.3H4093.7z"/>
			</g>
		</g>
		<g>
			<g>
				<path class="st14" d="M4380.2,1963.3c-50.9,228-100.1,255.9-100.1,255.9h-236.3c-39.6-113.9-62.4-213.8-71.2-255.9H4380.2z"/>
			</g>
			<g>
				<path class="st4" d="M3972.6,1963.3c8.8,42.1,31.6,142,71.2,255.9h-23c-57.4-101.7-80.4-255.9-80.4-255.9H3972.6z"/>
			</g>
		</g>
	</g>
</g>
<g id="Bed">
	<g>
		<defs>
			<rect id="SVGID_00000062896608309419041160000008653277052684272053_" x="-3.5" width="5003.5" height="3307.7"/>
		</defs>
		<clipPath id="SVGID_00000050629196278116417190000017573113198989353616_">
			<use xlink:href="#SVGID_00000062896608309419041160000008653277052684272053_"  style="overflow:visible;"/>
		</clipPath>
		<g style="clip-path:url(#SVGID_00000050629196278116417190000017573113198989353616_);">
			<g>
				<path class="st19" d="M3494,1682.9c0,0-18.7-80.3,12.5-101.9l98.5-68.1c17.9-12.4,22.4-37,10-54.9l-33.3-48.1
					c-12.4-17.9-37-22.4-54.9-10l-98.5,68.1c-31.2,21.6-100.3,148-100.3,148"/>
			</g>
			<g>
				<path class="st20" d="M3887.6,1413.1c-23.6,39.4-63.2,67.1-88.1,105.7c-7.8,12.2-14.1,25.3-22.4,37.1
					c-27,38.8-73.7,60.8-120.7,66c-14.7,1.6-29.6,1.8-44.1,5c-32,7.2-60.1,30.2-73.4,60.2c-7.2,16.3-10.4,34.7-20.9,49.2
					c-14,19.4-39.1,43.9-82.1,37c13.9-101.2,42.4-174,42.4-174l95.1-65.9c156.4-92.7,34.2-115.6,34.2-115.6l162.3,54.7
					c-0.6-16.4-7.6-31.7-13.7-46.9L3887.6,1413.1z"/>
			</g>
			<g>
				<path class="st21" d="M3487.4,1510.6L3487.4,1510.6c21.6,31.2,64.4,39,95.6,17.4l130.9-90.6l-78.2-113l-130.9,90.6
					C3473.6,1436.5,3465.8,1479.4,3487.4,1510.6"/>
			</g>
			<g>
				<path class="st4" d="M1229.8,1962.6c0,0,13-125.9,39.1-225.8c26.1-99.9,8.7-225.8,291-256.2c282.3-30.4,694.9-78.2,1024.9-95.5
					s694.9-30.4,760-26.1c65.1,4.3,109.2,21.1,182.4,264.9c73.2,243.8,136.4,315.4,136.4,315.4l-410-24.5H1546.9L1229.8,1962.6z"/>
			</g>
			<path class="st22" d="M4328.8,2574.4H848.4c-21.7,0-39.4-17.7-39.4-39.4v-254.5c0-21.7,17.7-39.4,39.4-39.4h3480.4
				c21.7,0,39.4,17.7,39.4,39.4V2535C4368.1,2556.6,4350.4,2574.4,4328.8,2574.4z"/>
			<g>
				<path class="st4" d="M4001.3,1378c0,0-266.2-6.5-480.1,226.4l57.7,201.9h215.3l148.2-67.1l54.8-154.3L4001.3,1378z"/>
			</g>
			<g>
				<path class="st23" d="M3815.5,1442.1c-16.7,11.6-20.9,34.6-9.3,51.3c11.6,16.7,34.6,20.9,51.3,9.3c16.7-11.6,20.9-34.6,9.3-51.3
					C3855.2,1434.7,3832.2,1430.5,3815.5,1442.1"/>
			</g>
			<g>
				<path class="st19" d="M3522.6,1486.2L3522.6,1486.2c50.6,73.1,150.9,91.4,224,40.8l109.9-76c43.6-30.2,54.5-90,24.3-133.7
					l-73.9-106.8c-30.2-43.6-90-54.5-133.6-24.3l-109.9,76C3490.3,1312.8,3472,1413.1,3522.6,1486.2"/>
			</g>
			<g>
				<path class="st4" d="M3605.3,1391.3c-4.8-6.9-15.1-7-19.8,0c-10,14.9-10.5,35,0.3,50.6c9.8,14.1,26.3,20.9,42.2,19
					c10.7-1.3,15.9-13.7,9.8-22.6L3605.3,1391.3z"/>
			</g>
			<g>
				<path class="st20" d="M3674,1345.6l-30.2-43.6c-0.4-0.6-0.3-1.5,0.4-2l9.1-6.3c0.6-0.4,1.5-0.3,2,0.4l30.2,43.6
					c0.4,0.6,0.3,1.5-0.4,2l-9.1,6.3C3675.3,1346.4,3674.4,1346.2,3674,1345.6z"/>
			</g>
			<g>
				<path class="st20" d="M3741.3,1442.9l-30.2-43.6c-0.4-0.6-0.3-1.5,0.4-2l9.1-6.3c0.6-0.4,1.5-0.3,2,0.4l30.2,43.6
					c0.4,0.6,0.3,1.5-0.4,2l-9.1,6.3C3742.7,1443.7,3741.8,1443.6,3741.3,1442.9z"/>
			</g>
			<g>
				<path class="st24" d="M1056.1,2027.8c0,0-95.5-7.4-108.6,94c-13,101.4,0,205.7,0,205.7h3318V937.7c0,0,17.4-95.5-125.9-95.5
					c-143.3,0-130.3,130.3-130.3,130.3l-21.7,1107.4L1056.1,2027.8z"/>
			</g>
			<g>
				<path class="st20" d="M999.7,2301.4h2966.2c0,0-4.3-178.1-130.3-178.1c-125.9,0-2718.6,0-2718.6,0S1008.4,2092.9,999.7,2301.4z"
					/>
			</g>
			<g>
				<path class="st20" d="M4226.4,920.3c0,0-173.7-47.8-173.7,104.2s0,1276.8,0,1276.8h173.7V920.3z"/>
			</g>
			<g>
				<path class="st4" d="M1051.8,2079.9h1194.3l1420.1,221.5l325.7-495.1h-373.5H1238.5h-99.9c0,0-86.9,13-86.9,143.3
					S1051.8,2079.9,1051.8,2079.9z"/>
			</g>
			<g>
				<polygon class="st25" points="3991.9,1806.3 3991.9,2084.2 3809.1,2084.2 				"/>
			</g>
			<g>
				<g>
					<rect x="878.1" y="2327.4" class="st20" width="3428.1" height="69.5"/>
				</g>
				<g>
					<rect x="1025.7" y="2362.2" class="st20" width="86.9" height="139"/>
				</g>
				<g>
					<rect x="4126.9" y="2362.2" class="st20" width="86.9" height="139"/>
				</g>
			</g>
			<g>
				<path class="st25" d="M3918.1,1524.5c-21.1,29.4-89.6,128.5-135.2,152.2c-45.6,23.7-155.2,55.5-196.5,62.4l18.9,67.1
					c0,0,146.6,6.5,219.9-48.9s128.7-128.7,131.9-193.8C3960.4,1498.5,3939.6,1494.7,3918.1,1524.5z"/>
			</g>
			<g>
				<path class="st26" d="M3743.8,1806.3c0,0,215-6.4,255.7-335.4l-7.6,335.4H3743.8z"/>
			</g>
			<g>
				<polygon class="st4" points="3503.5,1549.7 3596.3,1854.1 3535.9,1854.1 3450.1,1607.3 				"/>
			</g>
			<g>
				<path class="st4" d="M3926.2,1435.6c0,0-132.7,73.8-339.2,105c0,0-17,50.1-6.9,63s112,17.3,159.3,0
					c47.2-17.3,102.6-50,119.7-63.3C3876.2,1526.8,3926.2,1435.6,3926.2,1435.6z"/>
			</g>
			<g>
				<path class="st25" d="M1253.4,1806.3h-40.3c0,0-26.6,143.3-26.6,199.8l2497.2-17.4c0,0-109.7-287.6-117.3-317
					c-9.6-37.3-45-67.3-45-67.3l6,19.5l91.2,304l-86.9-4.3c0,0-86.9-296-125.9-373.8s-52.1-123.7-217.1-118.1
					c-165,5.6-295.3,75.1-460.3,57.7c-165-17.4-264.9-26.1-412.6,17.4c-147.7,43.4-360.5,65.1-486.4,65.1s-364.8-32.1-456,146.8
					c-91.2,178.9-104.2,235.4-104.2,235.4l-39.1,8.7L1253.4,1806.3z"/>
			</g>
			<g>
				<path class="st20" d="M3720.6,1308.7c-0.6,0-1.3-0.3-1.7-0.9l-28.7-41.3c-0.6-0.9-0.4-2.2,0.5-2.8c0.9-0.6,2.2-0.4,2.8,0.5
					l28.7,41.3c0.6,0.9,0.4,2.2-0.5,2.8C3721.4,1308.6,3721,1308.7,3720.6,1308.7z"/>
			</g>
			<g>
				<path class="st20" d="M3788.6,1418.4c-0.7,0-1.4-0.4-1.7-1l-22.4-37.5c-0.6-1-0.3-2.2,0.7-2.8c1-0.6,2.2-0.3,2.8,0.7l22.4,37.5
					c0.6,1,0.3,2.2-0.7,2.8C3789.4,1418.3,3789,1418.4,3788.6,1418.4z"/>
			</g>
			<path class="st20" d="M3957.8,1297.8c3.9-22-4.4-44.1-12.6-64.9c-3.4-8.6-6.9-17.3-11.3-25.5c-6.2-11.5-14.3-22-23.2-31.6
				c-41.6-45.2-104.6-73.9-165-62.9c-42,7.6-78.9,33-120.7,41.9c-13.1,2.8-26.6,4-39.6,7.3c-42.5,10.8-77,44.2-96.9,83.3
				c-6.2,12.3-11.2,25.2-18.8,36.6c-16.7,25.5-45.9,42.3-76.4,44.1c-16.6,0.9-33.5-2.3-49.5,2.1c-21.5,5.8-34.8,1.8-40.7,30
				c122.7-3.5,157.4,87.6,157.4,87.6l35.6-24.7c-8.8-103.1,56.9-151.6,56.9-151.6l32.1-22.2c33.9-16.6,53.9-5,94.9-4.4
				c45.4,0.7,84.7-25.1,115.9-13.6c24.9,9.2,28,26.5,28.3,33.2c-0.2,24.2-7.3,68.8,7.6,103.7c0,0-12.4-47.8,4.6-76
				c0,0-10.7,21.8,0,55.3c0,0-1.7-15.8,9.6-21.2c11.4-5.4,14.2,21.2,8.1,47.6s6.1,74.8-83.9,126.4c0,0,37.9-11,74.8-24.6
				c-3.8,2.7-5.3,5.2-2.7,7.5c16.7,7.5,26.5-3.1,38.8-11.2c29.8-19.7,60.9-41.1,72.3-79.2c7-23.3,5.8-51.2-0.6-79.4
				C3955.3,1307.1,3957,1302.5,3957.8,1297.8z"/>
		</g>
		<g style="clip-path:url(#SVGID_00000050629196278116417190000017573113198989353616_);">
			<g>
				<g>
					<path class="st9" d="M621.9,3148.2l-20.7-1.7c29.4-368.6-6.9-769.4-7.2-773.4l20.7-1.9C615.1,2375.3,651.4,2777.8,621.9,3148.2
						z"/>
				</g>
				<g>
					<path class="st9" d="M626.5,2421.6c-21,8.6-50.7,18.9-108.3-106.2s-62.9-159.9-85-187.2c-22.1-27.3-163-230.4-241.1-269.9
						c0,0,81-16.6,144.7,31.2c0,0-9.9,9.3-5.5,10.7c2.7,0.9,9-5.7,9-5.7s115,122.1,153.5,175c0,0-15.5,31-9.1,46.1
						c6.4,15.1,25.2-27.6,25.2-27.6s98.5,129.2,122.2,188.9C655.7,2336.6,675.5,2401.4,626.5,2421.6z"/>
				</g>
				<g>
					<path class="st17" d="M864.4,2674.2c0,0,75.9,11.4,152.2-59.4c0,0-23.3-28.4-11.8-39c11.5-10.6,37.5,16.8,37.5,16.8
						s39.7-57.5,65.1-77.1c25.5-19.7,54.9-40.3,83.6-40c0,0-54.3-5.4-53.3-15.7c1-10.3,92.3-48.3,169.3,5c0,0-9.6-61-82.8-60.5
						c0,0,3.5-21.9,13.8-33.9c0,0-28.3-17.6-58.5-15.8c0,0-9.9,20.8-21.7,34c-11.8,13.2-22.5,3-18.5-24c0,0-51.8,35.4-103.6,30.2
						c0,0-8.3,17.5-25.7,22.3c0,0-3-9.4-0.5-21c0,0-30.4,42.7-53.6,53.5s-89.9,36.8-108.3,78.1
						C829.1,2568.8,813.9,2630,864.4,2674.2z"/>
				</g>
				<g>
					<path class="st9" d="M1088.3,2438.9c0,0-11.7,7.1-31.1,21.3c-19.3,14.2-46.4,35.3-76.2,63.7c-29.7,28.4-62.7,63.9-91.3,107.1
						c-14.3,21.6-27.5,45-38.5,70c-11,25.2-18.4,51.6-28.8,76.7c-10.1,25-21.3,49.9-33.2,73.9c-11.7,24.1-24.1,47.4-36.5,69.8
						c-24.7,44.7-49.5,85.6-71.3,120.2c-21.9,34.6-40.8,62.9-54.3,82.6c-13.6,19.5-21.3,30.7-21.3,30.7l18.5,12.9
						c0,0,7.6-11.5,20.9-31.6c13.1-20.2,31.6-49.1,52.8-84.4c21.2-35.3,45.2-77,69.1-122.6c23.9-45.7,47.7-95.2,67.3-147
						c10-25.7,16.8-52.4,26.7-76.9c10-24.6,22.3-47.9,35.7-69.5c26.9-43.3,58.3-79.6,87-108.7c28.8-29.1,55.1-51.1,73.9-65.8
						C1076.8,2446.4,1088.3,2438.9,1088.3,2438.9z"/>
				</g>
				<g>
					<path class="st17" d="M749.9,2457.1c0,0,140.4-83.2,221.8-240.9c0,0-52-27.7-46.8-39.9c5.2-12.1,43.3,1.7,55.5,0
						c12.1-1.7,58.9-34.7,98.8-124.8c0,0-50.3-6.9-46.8-20.8c3.5-13.9,19.9-17.3,55.9-10.4c0,0,34.2-78,51.6-98.8
						c0,0-24.3-6.9-22.5-15.6c1.7-8.7,62.4-22.5,62.4-22.5s-95.3-27.7-232.2,32.9c0,0,5.2,31.2-12.1,32.9
						c-17.3,1.7-17.3-20.8-17.3-20.8s-70,36.4-87.9,69.3s-9.2,117.8-19.6,126.5c-10.4,8.7-31.2,1.7-43.3-13.9
						c0,0-43.3,20.8-52,143.8S749.9,2457.1,749.9,2457.1z"/>
				</g>
				<g>
					<path class="st9" d="M1068.6,1921.6c0,0-17.4,12.5-45.3,37.6c-14.1,12.4-30.5,28.2-48.7,47c-9.1,9.4-18.4,19.7-28.4,30.5
						c-9.4,11.2-20,22.6-29.8,35.4c-9.9,12.7-20.5,25.8-30.4,40.1c-5,7.1-10.3,14.2-15.4,21.6c-4.9,7.5-9.9,15.2-14.9,23
						c-10.5,15.3-19.2,32.3-29,49.1c-4.7,8.5-8.8,17.5-13.3,26.3c-4.2,9-9.3,17.7-12.9,27.2c-7.7,18.7-16.4,37.4-22.5,57.4
						c-3.3,9.9-6.8,19.8-10,29.9c-2.9,10-5.9,20.1-8.9,30.2c-11.7,40.5-23.3,81.9-33.6,123.6c-10.3,41.7-19.7,83.7-26.9,125.4
						c-7.5,41.7-12.7,83-18.9,122.4c-6.2,39.3-13.6,77.6-20.1,113.7c-6.8,36.1-13.3,70.2-19.2,101.7c-12.1,63-23.1,115.2-31.5,151.5
						c-8.4,36.4-14.3,56.6-14.3,56.6l19.2,5.5c0,0,6.1-20.9,14.5-57.5c8.5-36.7,19.5-89.1,31.6-152.2c6.1-31.6,12.5-65.8,18.9-102
						c6.3-36.3,13.4-74.3,19.5-114.3c6-39.9,10.9-80.9,18-122.2c6.9-41.3,15.5-83.1,25.3-124.6c9.7-41.6,20.7-82.8,31.9-123.3
						c2.8-10.1,5.7-20.2,8.5-30.3c3-9.9,6.3-19.6,9.5-29.3c5.7-19.6,14-38.1,21.4-56.6c3.4-9.3,8.3-18,12.4-26.8
						c4.3-8.8,8.2-17.6,12.8-26.1c4.6-8.4,9.2-16.7,13.8-24.9c4.3-8.3,9.1-16.3,14-24c4.8-7.8,9.5-15.4,14.2-23
						c4.8-7.5,9.9-14.6,14.7-21.7c9.5-14.4,19.6-27.6,29.2-40.4c9.5-12.8,19.4-24.5,28.4-36c9.4-11.1,18.3-21.7,27-31.4
						c17.4-19.3,33-35.8,46.3-49c13.1-13.3,24.1-23.2,31.4-30C1064.5,1925,1068.6,1921.6,1068.6,1921.6z"/>
				</g>
				<g>
					<path class="st17" d="M557.5,2425.9c-31.9,1.5-76.3,1.7-97.1-135.2s-12.1-171.6-29.5-204.5c-17.3-32.9-114.4-270.4-201-332.7
						c0,0,97.1,10.4,156,62.4c0,0-12.1,13.9-3.5,26c8.7,12.1,24.3-15.6,24.3-15.6s104,161.2,131.7,223.6c0,0-34.7,24.4-32.9,40.8
						s39.9,0,39.9,0s65,139.4,69.8,203.5S632.1,2422.5,557.5,2425.9z"/>
				</g>
				<g>
					<path class="st17" d="M602.6,3140.1l-20.8-0.2c3.4-350.7-30.8-742-31.2-745.9l20.7-1.8C571.7,2396,606,2788.3,602.6,3140.1z"/>
				</g>
				<g>
					<path class="st9" d="M482.6,2727.5c0,0-107.9-52-123.5-144.3c-15.6-92.3-18.2-168.5-54.6-211c0,0,13-4.3,32.5,0
						c0,0-46.8-30.8-57.2-54.2s-71.5-106.6-283.4-115.7c0,0,102.7-37.7,185.9,0c0,0,11.7-6.8-15.6-35.2c0,0,62.4-2.5,124.8,20.9
						c0,0-3.9,53.3,9.1,53.3s10.4-46.8,10.4-46.8s63.1,14.3,113.4,58.5c0,0-23.8,59.8-18.6,63.7c5.2,3.9,32.5-28.6,37.7-42.9
						c0,0,46.8,52.4,71.5,119.1l-49.4,78.4l65.1-47c0,0,38.9,72.3,43.4,146.8C578.6,2645.7,547.6,2711.9,482.6,2727.5z"/>
				</g>
				<g>
					<path class="st17" d="M416.3,2447.3c0,0,10.7,42.1,25.8,105.4c7.9,31.6,16.1,68.6,25.4,108.2c8.9,39.6,18.1,82,26.4,124.5
						c8.4,42.5,16.2,85.1,22.6,125.2c3.3,20,6.4,39.4,8.9,57.8c2.6,18.4,5.3,35.8,7.3,51.9c2.1,16.1,4,30.8,5.7,43.9
						c1.4,13.1,2.6,24.5,3.6,33.9c2,18.8,3.1,29.5,3.1,29.5l20.7-2c0,0-1.3-10.8-3.5-29.8c-1.1-9.5-2.5-21-4.1-34.1
						c-1.9-13.1-4-28-6.3-44.1c-2.1-16.2-5.2-33.6-8.3-52c-3-18.5-6.5-37.9-10.4-57.9c-7.4-40.1-16.3-82.7-25.7-125.1
						c-9.4-42.4-19.6-84.7-29.4-124.2c-5.1-19.7-9.8-38.8-14.9-56.8c-5-18-9.8-35-14.2-50.7C430.8,2488.2,416.3,2447.3,416.3,2447.3
						z"/>
				</g>
				<g>
					<path class="st9" d="M500.8,3161.2c0,0-40.3-280.3-48.1-319.3c-7.8-39-124.8-165.1-217.1-179.4s-161.2-14.2-200.2,12.4
						c0,0,37.7-60.5,143-50.1l-22.1-13c0,0,53.3,9.1,81.9,9.1s33.5,18.2,47.3,18.2s38.5,9.1,52.8,26c0,0,150.8,50.7,137.8,174.2
						l39,321.9H500.8z"/>
				</g>
			</g>
			<g>
				<g>
					<path class="st14" d="M904.6,3068.9c-71.7,321.5-141.1,360.8-141.1,360.8H430.5c-55.9-160.6-88-301.4-100.4-360.8H904.6z"/>
				</g>
				<g>
					<path class="st4" d="M330.1,3068.9c12.4,59.4,44.5,200.2,100.4,360.8h-32.4c-81-143.4-113.3-360.8-113.3-360.8H330.1z"/>
				</g>
			</g>
		</g>
	</g>
</g>
<g id="cat">
	<g>
		<g>
			<path class="st27" d="M1755.8,1320.7c0,0-40.4-18.6-114.9-11.4c-74.6,7.2-136.7,32.8-130.7,94.4c6,61.7,56.5,75.7,87.1,72.8
				c30.5-3,215.5-20.8,215.5-20.8l-11.1-115.1L1755.8,1320.7z"/>
		</g>
		<g>
			<path class="st28" d="M1960.5,1396.9c-4.7-48.3-47.6-83.7-96-79c-48.3,4.7-83.7,47.6-79,96c1.6,16.1,7.4,30.7,16.2,42.9l151-14.6
				C1959.1,1428.4,1962.1,1412.9,1960.5,1396.9z"/>
		</g>
		<g>
			<path class="st9" d="M1851.4,1428.8c-1.2,0-2.4-0.5-3.2-1.6c-9.1-13.6-29.9-13-30.2-12.9c0,0,0,0,0,0l0,0c-2,0.1-3.7-1.5-3.8-3.5
				c-0.1-2,1.5-3.7,3.5-3.8c0.7-0.2,25.2-0.9,36.6,16.2c1.1,1.7,0.7,3.9-1,5C1852.7,1428.6,1852.1,1428.8,1851.4,1428.8z"/>
		</g>
		<g>
			<path class="st9" d="M1901.5,1424c-0.5,0-1-0.1-1.5-0.3c-1.9-0.8-2.7-2.9-1.9-4.7c7.9-19,31.8-22.7,32.8-22.9
				c1.9-0.5,3.8,1.1,4.1,3c0.3,2-1.1,3.8-3,4.1c-0.2,0-20.9,3.3-27.2,18.5C1904.1,1423.1,1902.8,1423.9,1901.5,1424z"/>
		</g>
		<g>
			<path class="st9" d="M1892.2,1444.4c-0.8-8.4-8.3-14.6-16.7-13.8c-8.4,0.8-14.6,8.3-13.8,16.7c0.1,1.2,0.4,2.4,0.8,3.5l29.6-2.9
				C1892.3,1446.8,1892.4,1445.6,1892.2,1444.4z"/>
		</g>
		<g>
			<path class="st9" d="M1825.9,1447.7c-1.5-15.8-15.6-27.4-31.4-25.9c-15.8,1.5-27.4,15.6-25.9,31.4c0.2,2.3,0.8,4.4,1.5,6.5
				l55.6-5.4C1826,1452.2,1826.1,1450,1825.9,1447.7z"/>
		</g>
		<g>
			<path class="st9" d="M1992.8,1431.5c-1.5-15.8-15.6-27.4-31.4-25.9c-15.8,1.5-27.4,15.6-25.9,31.4c0.2,2.3,0.8,4.4,1.5,6.5
				l55.6-5.4C1992.9,1436,1993,1433.8,1992.8,1431.5z"/>
		</g>
		<g>
			<path class="st9" d="M1786.5,1389.8c0,0-35.6-21.8-37.3-75.6c0,0,45.2-5.8,71.9,20.2C1821.2,1334.4,1796.5,1355.4,1786.5,1389.8z
				"/>
		</g>
		<g>
			<path class="st9" d="M1952.9,1373.7c0,0,30.8-28.3,22.1-81.4c0,0-45.5,2.9-66.7,33.6C1908.2,1325.9,1936.4,1341.9,1952.9,1373.7z
				"/>
		</g>
		<g>
			<path class="st9" d="M1754.8,1461c-1.9,0.1-3.6-1.3-3.7-3.3c-0.6-6-2.7-10.4-6.6-13.7c-7.4-6.1-19.3-6-25.8-5.4
				c-14.7,1.4-28.8,5.6-29,5.7c-1.2,0.3-2.4,0.1-3.4-0.7c-0.9-0.8-1.4-2-1.3-3.2c0.1-0.5,5.4-48.6-17-76.9
				c-22.2-28-90.9-22.1-91.5-22c-2,0.1-3.8-1.3-3.9-3.3c-0.2-2,1.3-3.7,3.3-3.9c3-0.3,73.3-6.3,97.9,24.7c19.9,25.2,19.8,63.1,19,77
				c5.6-1.4,15.2-3.6,25.3-4.6c9.2-0.8,22.2-0.4,31.1,7c5.4,4.4,8.5,10.7,9.2,18.6c0.2,2-1.3,3.8-3.3,4
				C1755,1461,1754.9,1461,1754.8,1461z"/>
		</g>
		<g>
			<path class="st9" d="M1549.1,1466.9c0,0-37.8,27.9-34,67.3c3.8,39.3,47.3,48.2,82,44.8c34.6-3.4,56.1-26.2,71-56.7
				c14.8-30.5,42.1-27,51-24.5c11,3.1,21.3,11.6,24.1,40.9c2.4,25.2-36.5,75.8-129.3,84.8c-92.8,9-127.8-40.4-132.7-90.9
				s49.8-85.4,49.8-85.4L1549.1,1466.9z"/>
		</g>
	</g>
</g>
<g id="Computer_screen">
	<g>
		<rect x="2225.6" y="1039.2" class="st9" width="40.6" height="82.2"/>
		<rect x="2290.8" y="1012.9" class="st9" width="40.6" height="108.5"/>
		<rect x="2356" y="996.5" class="st9" width="40.6" height="124.9"/>
		<rect x="2421.2" y="946.5" class="st9" width="40.6" height="174.8"/>
		<rect x="2486.3" y="963.1" class="st9" width="40.6" height="158.2"/>
		<rect x="2551.5" y="913" class="st9" width="40.6" height="208.4"/>
		<rect x="2616.7" y="897.9" class="st9" width="40.6" height="223.5"/>
		<rect x="2681.9" y="878" class="st7" width="40.6" height="243.4"/>
	</g>
</g>
<g id="Money">
	<g>
		<path class="st20" d="M3146.5,695.8l126.3-55c0,0-77.2-152.1-168.4-186l-133.3,49.1C2971.1,503.9,3060,529.7,3146.5,695.8z"/>
		<g>
			<path class="st29" d="M3137,581.7c-3.3,2.2-6.8,2.8-10.6,1.9c-3.8-1-7.4-3.6-11-7.8l-7.4,5l-3-4.5l7.2-4.8
				c-3.7-5.7-5.9-10.9-6.7-15.6l7.2-4.8c0.4,2.6,1.1,5.4,2.2,8.5s2.3,5.6,3.7,7.7l12.8-8.6l-0.9-3.6c-1.1-4.7-1.2-8.6-0.3-11.6
				c0.8-3.1,2.7-5.6,5.7-7.5c3.1-2.1,6.5-2.6,10.2-1.5c3.7,1.1,7.1,3.6,10.4,7.5l5.7-3.8l3,4.5l-5.6,3.8c2.9,4.7,4.9,9.7,6,15
				l-7.9,1.7c-1-4.5-2.5-8.6-4.6-12.4l-12.4,8.3l0.8,3.3c1.2,5.4,1.5,9.6,0.8,12.5C3141.4,577.5,3139.7,579.9,3137,581.7z
				 M3141.3,543.7c-1.3,0.9-2.1,2-2.4,3.4c-0.3,1.4-0.2,3.4,0.4,6.1l10.6-7.1c-1.5-1.6-3-2.7-4.5-3
				C3143.9,542.6,3142.5,542.9,3141.3,543.7z M3131.1,573.9c1.3-0.9,2.1-2.1,2.3-3.6s0-3.6-0.6-6.3l-10.9,7.3
				C3125.2,575,3128.3,575.8,3131.1,573.9z"/>
		</g>
	</g>
	<g>
		<path class="st20" d="M1304,522.2l8.1-137.5c0,0-170.5,0.1-242,66.2l-16.5,141.1C1053.6,591.9,1116.8,524.3,1304,522.2z"/>
		<g>
			<path class="st29" d="M1198,479.1c0.5,3.9-0.6,7.4-3.1,10.3c-2.6,2.9-6.5,5-11.9,6.3l1.1,8.9l-5.4,0.7l-1.1-8.6
				c-6.8,0.7-12.4,0.4-17-1.1l-1.1-8.6c2.5,0.9,5.3,1.5,8.6,1.9s6.1,0.5,8.6,0.2l-1.9-15.3l-3.6-0.8c-4.7-1.2-8.2-2.8-10.5-4.9
				c-2.3-2.1-3.7-5-4.2-8.5c-0.5-3.8,0.6-7,3.3-9.8c2.6-2.8,6.4-4.7,11.4-5.9l-0.8-6.9l5.4-0.7l0.8,6.7c5.5-0.5,10.9,0,16.1,1.4
				l-2.1,7.8c-4.5-1.2-8.8-1.7-13.1-1.5l1.8,14.9l3.2,0.8c5.4,1.4,9.2,3,11.5,5C1196.3,473.3,1197.6,475.9,1198,479.1z M1166,458.1
				c0.2,1.6,0.8,2.8,1.9,3.7s3,1.7,5.6,2.4l-1.6-12.7c-2.1,0.6-3.7,1.5-4.7,2.6C1166.3,455.3,1165.9,456.6,1166,458.1z
				 M1188.4,480.9c-0.2-1.6-0.9-2.8-2.1-3.7c-1.2-0.9-3.2-1.6-5.9-2.3l1.6,13C1186.7,486.6,1188.8,484.2,1188.4,480.9z"/>
		</g>
	</g>
	<g>
		<path class="st20" d="M2035.9,2687.1l45.8-129.9c0,0-163.9-47.1-250.9-3.4l-54.9,131.1C1775.9,2684.8,1855.3,2637.3,2035.9,2687.1
			z"/>
		<g>
			<path class="st29" d="M1945.9,2616.3c-0.6,3.9-2.6,6.9-5.9,9c-3.3,2.1-7.7,3-13.2,2.7l-1.4,8.8l-5.4-0.9l1.4-8.6
				c-6.7-1.2-12-3.1-16-5.7l1.4-8.6c2.1,1.5,4.7,2.9,7.7,4.2c3,1.3,5.7,2.1,8.2,2.5l2.4-15.2l-3.2-1.8c-4.2-2.4-7.1-5-8.7-7.7
				c-1.7-2.7-2.2-5.8-1.7-9.3c0.6-3.7,2.5-6.6,5.8-8.5c3.3-1.9,7.5-2.8,12.5-2.5l1.1-6.8l5.4,0.9l-1.1,6.7c5.5,1.1,10.5,3,15.1,5.8
				l-4.2,7c-4-2.4-8-4-12.2-5l-2.4,14.8l2.9,1.7c4.8,2.8,8.1,5.5,9.7,8C1945.8,2610.3,1946.4,2613.2,1945.9,2616.3z M1921,2587.4
				c-0.2,1.5,0,2.9,0.8,4.1c0.8,1.2,2.4,2.5,4.7,3.9l2-12.6c-2.2,0-4,0.4-5.3,1.2C1922,2584.7,1921.2,2585.9,1921,2587.4z
				 M1936.2,2615.4c0.3-1.6-0.1-3-1-4.1c-0.9-1.2-2.6-2.5-5-3.8l-2.1,13C1933,2620.4,1935.7,2618.8,1936.2,2615.4z"/>
		</g>
	</g>
	<g>
		<path class="st20" d="M1643.2,2918l20.7-323.6c0,0-401.3-1.9-570.4,152.7l-40.5,332C1053,3079.1,1202.4,2920.6,1643.2,2918z"/>
		<g>
			<path class="st29" d="M1394.1,2815.2c1.1,9.3-1.4,17.3-7.5,24.2c-6.1,6.8-15.5,11.7-28.1,14.6l2.4,20.9l-12.8,1.5l-2.4-20.3
				c-15.9,1.6-29.2,0.7-40-2.7l-2.4-20.3c5.8,2,12.5,3.6,20.1,4.5c7.6,1,14.3,1.1,20.1,0.5l-4.2-35.9l-8.4-2
				c-11-2.8-19.2-6.7-24.7-11.8s-8.7-11.7-9.7-20c-1-8.8,1.6-16.5,7.8-23c6.2-6.5,15.2-11.1,26.8-13.7l-1.9-16.1l12.8-1.5l1.9,15.9
				c13.1-1.1,25.7,0.1,37.9,3.6l-5,18.4c-10.5-2.8-20.8-4-30.8-3.6l4.1,35l7.6,1.9c12.7,3.3,21.7,7.2,27,11.8
				S1393.2,2807.8,1394.1,2815.2z M1319.2,2765.5c0.4,3.7,1.9,6.6,4.5,8.7c2.6,2.2,7,4.1,13.2,5.8l-3.5-29.9
				c-5,1.4-8.8,3.4-11.2,6.1C1319.8,2758.9,1318.8,2762,1319.2,2765.5z M1371.6,2819.3c-0.4-3.7-2.1-6.6-5-8.7
				c-2.9-2.1-7.5-3.9-13.8-5.4l3.6,30.7C1367.4,2832.8,1372.5,2827.3,1371.6,2819.3z"/>
		</g>
	</g>
	<g>
		<path class="st20" d="M3679.7,2704.3l99.4-95.3c0,0-125.1-115.9-222.4-116.1l-108.1,92.3C3448.7,2585.2,3541,2578.5,3679.7,2704.3
			z"/>
		<g>
			<path class="st29" d="M3631.2,2600.6c-2.3,3.2-5.4,5-9.3,5.4s-8.2-0.8-13-3.5l-5.2,7.2l-4.4-3.2l5.1-7
				c-5.4-4.1-9.4-8.2-11.7-12.3l5.1-7c1.2,2.3,2.9,4.7,5,7.2c2.1,2.5,4.1,4.5,6.2,5.9l9-12.5l-2.1-3.1c-2.6-4-4.1-7.6-4.4-10.8
				s0.6-6.2,2.7-9c2.2-3.1,5.2-4.7,9.1-5s7.9,0.9,12.3,3.4l4-5.6l4.4,3.2l-4,5.5c4.4,3.4,8,7.4,10.9,12l-6.8,4.3
				c-2.5-3.9-5.4-7.2-8.6-10l-8.8,12.1l1.8,2.8c3,4.7,4.7,8.5,5.1,11.5C3633.9,2595.2,3633.1,2598,3631.2,2600.6z M3622.1,2563.5
				c-0.9,1.3-1.3,2.6-1.1,4c0.2,1.4,1,3.3,2.5,5.6l7.5-10.4c-2-1-3.7-1.5-5.2-1.3C3624.2,2561.6,3623,2562.3,3622.1,2563.5z
				 M3623,2595.4c0.9-1.3,1.2-2.7,1-4.2c-0.3-1.5-1.2-3.4-2.8-5.7l-7.7,10.6C3617.9,2598.4,3621,2598.2,3623,2595.4z"/>
		</g>
	</g>
	<g>
		<path class="st20" d="M3471.3,1768.5l33.3,133.7c0,0,162.7-51,211.3-135.3l-26.4-139.6C3689.5,1627.2,3649.4,1710.6,3471.3,1768.5
			z"/>
		<g>
			<path class="st29" d="M3585.4,1778c-1.6-3.6-1.7-7.2-0.1-10.8s4.8-6.7,9.5-9.5l-3.7-8.1l5-2.3l3.6,7.9c6.2-2.7,11.8-4,16.5-4
				l3.6,7.9c-2.6-0.1-5.5,0.2-8.7,0.8s-5.9,1.4-8.2,2.4l6.3,14l3.7-0.3c4.8-0.3,8.6,0.3,11.5,1.6c2.9,1.3,5,3.6,6.5,6.8
				c1.6,3.4,1.5,6.9-0.2,10.3c-1.7,3.4-4.7,6.4-9.1,9l2.8,6.3l-5,2.3l-2.8-6.2c-5.2,2.1-10.4,3.3-15.8,3.4l-0.4-8.1
				c4.6-0.2,8.9-1.1,12.9-2.5l-6.2-13.6l-3.3,0.2c-5.6,0.3-9.7-0.1-12.5-1.3C3588.7,1783,3586.7,1780.9,3585.4,1778z M3622.1,1788.5
				c-0.6-1.4-1.6-2.4-2.9-3c-1.3-0.5-3.3-0.8-6.1-0.6l5.3,11.7c1.9-1.2,3.1-2.5,3.7-3.9C3622.7,1791.2,3622.7,1789.8,3622.1,1788.5z
				 M3594,1773.4c0.7,1.4,1.7,2.4,3.1,2.9c1.4,0.5,3.5,0.6,6.3,0.4l-5.4-12C3593.9,1767.5,3592.6,1770.3,3594,1773.4z"/>
		</g>
	</g>
	<g>
		<path class="st20" d="M2758.9,179.8c0,0-9.7,42.4,20.3,77.7s84.8,77.7,84.8,77.7l-98,7.9c0,0-95.4-43.3-83-171.3L2758.9,179.8z"/>
		<g>
			<path class="st29" d="M2747.8,248.6c2.8-1,5.5-0.7,8.1,0.8c2.5,1.5,4.7,4.1,6.4,7.9l6.4-2.1l1.3,3.9l-6.2,2.1
				c1.6,4.9,2.1,9.1,1.8,12.7l-6.2,2.1c0.3-2,0.3-4.2,0.1-6.6s-0.6-4.6-1.2-6.4l-11,3.7l-0.1,2.8c-0.2,3.6-0.8,6.5-2.1,8.5
				c-1.2,2.1-3.1,3.5-5.6,4.4c-2.7,0.9-5.3,0.6-7.7-0.9s-4.5-4-6.1-7.5l-4.9,1.7l-1.3-3.9l4.9-1.6c-1.2-4-1.7-8.1-1.4-12.1l6.1,0.3
				c-0.2,3.5,0.1,6.8,0.9,9.9l10.7-3.6l0.1-2.5c0.2-4.2,0.8-7.3,1.9-9.3S2745.5,249.4,2747.8,248.6z M2737.1,275.4
				c1.1-0.4,1.9-1,2.4-2s0.8-2.5,0.9-4.5l-9.2,3.1c0.8,1.5,1.6,2.5,2.6,3.1S2736,275.8,2737.1,275.4z M2750.5,255.4
				c-1.1,0.4-1.9,1.1-2.4,2.1s-0.7,2.6-0.8,4.7l9.4-3.1C2755,255.9,2753,254.6,2750.5,255.4z"/>
		</g>
	</g>
	<g>
		<path class="st20" d="M1923.2,885.2c0,0,29.1,129.8,170.9,135.1l95.4-43.7c0,0-87.4-14.6-120.6-54.3
			c-33.1-39.7-35.8-74.2-35.8-74.2L1923.2,885.2z"/>
		<g>
			<path class="st29" d="M2030.5,934.5c2.6-1.5,5.3-1.9,8.1-1s5.5,3,8,6.3l5.8-3.5l2.1,3.5l-5.6,3.4c2.6,4.4,4.1,8.5,4.5,12.1
				l-5.6,3.4c-0.2-2-0.6-4.1-1.3-6.5c-0.7-2.3-1.5-4.3-2.5-6l-10,6l0.5,2.7c0.6,3.6,0.6,6.5-0.2,8.8c-0.8,2.3-2.3,4.1-4.6,5.5
				c-2.5,1.5-5,1.7-7.8,0.8c-2.7-1-5.2-3-7.5-6l-4.5,2.7l-2.1-3.5l4.4-2.6c-2-3.7-3.3-7.5-4-11.6l6-1c0.6,3.4,1.6,6.6,3,9.5l9.7-5.8
				l-0.4-2.5c-0.7-4.2-0.8-7.3-0.1-9.5C2027.1,937.4,2028.4,935.7,2030.5,934.5z M2025.8,962.9c1-0.6,1.7-1.4,2-2.5s0.3-2.6,0-4.6
				l-8.3,5c1.1,1.3,2.1,2.1,3.2,2.5C2023.8,963.6,2024.9,963.5,2025.8,962.9z M2034.7,940.5c-1,0.6-1.7,1.5-1.9,2.6
				c-0.2,1.1-0.2,2.7,0.2,4.8l8.5-5.1C2039.2,940,2036.9,939.2,2034.7,940.5z"/>
		</g>
	</g>
	<g>
		<path class="st20" d="M1172.1,870.8c0,0,89.1,98.8,215.2,33.8l61.6-84.9c0,0-83.3,30.2-131.7,11.9s-67.6-47.1-67.6-47.1
			L1172.1,870.8z"/>
		<g>
			<path class="st29" d="M1289.8,861c1.5-2.6,3.7-4.2,6.5-4.8c2.9-0.6,6.2-0.1,10,1.6l3.3-5.9l3.6,2l-3.2,5.7
				c4.4,2.6,7.7,5.4,9.8,8.3l-3.2,5.7c-1.1-1.6-2.6-3.3-4.3-5c-1.8-1.7-3.5-3-5.1-4l-5.8,10.1l1.8,2.1c2.3,2.8,3.7,5.4,4.1,7.7
				c0.5,2.3,0,4.7-1.3,7c-1.4,2.5-3.5,4-6.4,4.5c-2.8,0.5-6,0-9.5-1.6l-2.6,4.5l-3.6-2l2.5-4.4c-3.6-2.2-6.6-4.9-9.1-8.1l4.8-3.8
				c2.2,2.7,4.6,5,7.3,6.8l5.6-9.8l-1.6-2c-2.7-3.3-4.2-6-4.7-8.2C1288.2,865.3,1288.5,863.1,1289.8,861z M1299.6,888.1
				c0.6-1,0.8-2.1,0.5-3.1c-0.2-1-1-2.4-2.3-4l-4.8,8.4c1.6,0.6,2.9,0.8,4,0.6C1298.2,889.7,1299.1,889.1,1299.6,888.1z
				 M1296.3,864.3c-0.6,1-0.7,2.1-0.4,3.2s1.2,2.4,2.5,4l4.9-8.6C1300,861.6,1297.6,862,1296.3,864.3z"/>
		</g>
	</g>
	<g>
		<path class="st20" d="M1796.5,377.3c0,0,67.1-30,93.6-4.4s40.6,69.8,40.6,91l65.4-39.7c0,0,7.9-57.4-41.5-97.2
			s-89.2-12.4-89.2-12.4L1796.5,377.3z"/>
		<g>
			<path class="st29" d="M1929.1,370.2c-2.2,2-4.8,2.9-7.7,2.6c-2.9-0.3-5.9-1.8-9.1-4.6l-5,4.5l-2.8-3l4.8-4.4
				c-3.4-3.8-5.7-7.5-6.8-10.9l4.8-4.4c0.6,1.9,1.4,3.9,2.6,6.1c1.2,2.2,2.4,3.9,3.6,5.3l8.6-7.8l-1.1-2.6c-1.3-3.4-1.9-6.3-1.6-8.6
				c0.3-2.4,1.4-4.5,3.4-6.3c2.1-1.9,4.6-2.7,7.5-2.3c2.9,0.4,5.7,1.9,8.6,4.4l3.8-3.5l2.8,3l-3.8,3.5c2.7,3.2,4.8,6.7,6.2,10.5
				l-5.7,2.2c-1.2-3.3-2.9-6.2-4.8-8.7l-8.3,7.6l0.9,2.3c1.5,3.9,2.2,7,2,9.3S1930.9,368.6,1929.1,370.2z M1928,341.4
				c-0.9,0.8-1.3,1.7-1.4,2.8c-0.1,1.1,0.2,2.6,1,4.5l7.1-6.5c-1.3-1.1-2.5-1.6-3.7-1.8C1929.9,340.3,1928.9,340.6,1928,341.4z
				 M1923.9,365.1c0.9-0.8,1.3-1.8,1.3-2.9c0-1.1-0.4-2.7-1.2-4.6l-7.3,6.7C1919.6,366.6,1922,366.9,1923.9,365.1z"/>
		</g>
	</g>
	<g>
		<path class="st20" d="M2446.3,1873.3c0,0-30.1,67.1-66.9,65.6c-36.8-1.5-76.8-25-90.9-40.8l-22.3,73.2c0,0,32.3,48.1,95.7,44.9
			c63.4-3.3,74.8-50.2,74.8-50.2L2446.3,1873.3z"/>
		<g>
			<path class="st29" d="M2352,1966.9c0.3-3,1.6-5.3,4-7.1c2.4-1.7,5.7-2.6,9.8-2.6l0.7-6.7l4.1,0.4l-0.7,6.5
				c5.1,0.6,9.2,1.8,12.3,3.6l-0.7,6.5c-1.7-1-3.7-2-6-2.8c-2.3-0.8-4.4-1.3-6.3-1.6l-1.2,11.6l2.5,1.2c3.2,1.6,5.6,3.4,6.9,5.4
				s1.9,4.3,1.7,6.9c-0.3,2.8-1.6,5.1-4,6.7s-5.5,2.4-9.3,2.4l-0.5,5.2l-4.1-0.4l0.5-5.1c-4.2-0.6-8-1.8-11.6-3.7l2.8-5.4
				c3.1,1.6,6.2,2.7,9.4,3.3l1.1-11.2l-2.3-1.1c-3.8-1.9-6.3-3.8-7.6-5.6C2352.3,1971.4,2351.8,1969.3,2352,1966.9z M2372.1,1987.7
				c0.1-1.2-0.1-2.2-0.8-3c-0.7-0.9-1.9-1.8-3.7-2.7l-1,9.6c1.7-0.1,3-0.5,3.9-1.1C2371.4,1989.7,2371.9,1988.8,2372.1,1987.7z
				 M2359.4,1967.2c-0.1,1.2,0.2,2.2,1,3.1s2.1,1.7,4,2.7l1-9.9C2361.6,1963.3,2359.6,1964.6,2359.4,1967.2z"/>
		</g>
	</g>
</g>
</svg>
