<?xml version="1.0" encoding="iso-8859-1"?>
<!-- Generator: Adobe Illustrator 26.0.3, SVG Export Plug-In . SVG Version: 6.00 Build 0)  -->
<!DOCTYPE svg PUBLIC "-//W3C//DTD SVG 1.1//EN" "http://www.w3.org/Graphics/SVG/1.1/DTD/svg11.dtd" [
	<!ENTITY ns_extend "http://ns.adobe.com/Extensibility/1.0/">
	<!ENTITY ns_ai "http://ns.adobe.com/AdobeIllustrator/10.0/">
	<!ENTITY ns_graphs "http://ns.adobe.com/Graphs/1.0/">
	<!ENTITY ns_vars "http://ns.adobe.com/Variables/1.0/">
	<!ENTITY ns_imrep "http://ns.adobe.com/ImageReplacement/1.0/">
	<!ENTITY ns_sfw "http://ns.adobe.com/SaveForWeb/1.0/">
	<!ENTITY ns_custom "http://ns.adobe.com/GenericCustomNamespace/1.0/">
	<!ENTITY ns_adobe_xpath "http://ns.adobe.com/XPath/1.0/">
]>
<svg version="1.1" id="Layer_1" xmlns:x="&ns_extend;" xmlns:i="&ns_ai;" xmlns:graph="&ns_graphs;"
	 xmlns="http://www.w3.org/2000/svg" xmlns:xlink="http://www.w3.org/1999/xlink" x="0px" y="0px" viewBox="0 0 3000 2000"
	 style="enable-background:new 0 0 3000 2000;" xml:space="preserve">
<style type="text/css">
	.st0{fill:#EDDCC3;}
	.st1{fill:#1B5B44;}
	.st2{opacity:9.000000e-02;fill:#32323F;}
	.st3{fill:#329B73;}
	.st4{fill:none;stroke:#1B5B44;stroke-width:15.3607;stroke-miterlimit:10;}
	.st5{fill:#419F81;}
	.st6{fill:#3EB58A;}
	.st7{fill:none;stroke:#1B5B44;stroke-width:11.9472;stroke-miterlimit:10;}
	.st8{opacity:0.1;fill:#1F1F39;}
	.st9{fill:#FFFFFF;}
	.st10{fill:#F5B1B4;}
	.st11{fill:#0267A5;}
	.st12{opacity:0.28;fill:#1F1F39;}
	.st13{opacity:0.35;fill:#1F1F39;}
	.st14{fill:#3B3B4C;}
	.st15{fill:#EFAEA6;}
	.st16{fill:#F9B232;}
	.st17{fill:#1F1F39;}
	.st18{opacity:0.25;fill:#1F1F39;}
	.st19{opacity:9.000000e-02;fill:#1F1F39;}
	.st20{fill:#AFB7BA;}
	.st21{fill:#939FA3;}
	.st22{fill:none;stroke:#FCFCFC;stroke-width:9;stroke-linecap:round;stroke-linejoin:round;}
	
		.st23{fill:none;stroke:#FCFCFC;stroke-width:9;stroke-linecap:round;stroke-linejoin:round;stroke-dasharray:17.7918,23.3516,22.2397,17.7918;}
	
		.st24{fill:none;stroke:#FCFCFC;stroke-width:9;stroke-linecap:round;stroke-linejoin:round;stroke-dasharray:23.3516,22.2397,17.7918,23.3516,22.2397,17.7918;}
</style>
<metadata>
	<sfw  xmlns="&ns_sfw;">
		<slices></slices>
		<sliceSourceBounds  bottomLeftOrigin="true" height="2000" width="3000" x="-0.4" y="-2000.4"></sliceSourceBounds>
	</sfw>
</metadata>
<rect x="-0.4" y="0.4" class="st0" width="3000" height="2000"/>
<path class="st1" d="M1165.4,680.6"/>
<path class="st2" d="M2479.8,1273.7c5.6,138.8-458.2,255.2-975.4,349.2c-503.3,91.4-852.2-19.2-857.8-158
	c-5.6-138.8,404.2-268,915.3-288.5S2474.2,1134.9,2479.8,1273.7z"/>
<g>
	<path class="st3" d="M750.5,1010.5c-31.4,157.6-39.4,226.6,5.8,282.6c45.1,56,262.4,354.5,386.3,311.9s1261.3-227,1318.2-332.9
		c27-50.3,3.6-209.7,3.6-209.7l-484.1-216.6L750.5,1010.5z"/>
	<path class="st4" d="M1546.6,1248.3c83.1,16.5,169.1,13.4,208.7-27.3c39.6-40.7,10.4-94.5-65.2-120.2
		c-75.6-25.6-174.6-20.9-234.1,35.4C1413.9,1176,1459.4,1231,1546.6,1248.3z"/>
	<g>
		<g>
			<path class="st1" d="M1625.1,1185.6C1625.2,1185.6,1625.2,1185.5,1625.1,1185.6c6.8-2.2,17.8-5.8,26.2-6.6
				c7.9-0.7,13.5,1.1,11,8.9c0,0,0,0,0,0.1c-2.1,6.2-8.8,10.2-17.1,13.3c-18.7,7-45.5,9.2-46.2,20.5c15.9,19.8,46.7,13.9,72.5-1.1
				c5.7-3.3,11.1-7.1,16-11.1c31.4-25.5,44-61.7-17.9-62.7c-8.3-2.8-28.7,4.3-47.3,9.8c-10.1,3-19.6,5.6-26.4,5.9
				c-6.8,0.3-10.7-1.6-9.6-7.6c0-0.1,0-0.1,0-0.2c3.2-4.3,9.5-8.6,17-12.4c0,0,0,0,0,0c11.2-5.7,25.1-10.3,35.5-11.8
				c9.7-20.5-26-24.9-48.9-12.6c-4.5,1.5-8.7,3-12.6,4.7c-7.2,3.1-13.3,6.5-18.5,10.1l0,0
				C1511.5,1165.9,1545.4,1216.6,1625.1,1185.6z"/>
		</g>
		<path class="st1" d="M1539.1,1116.6c-3.2-14,16.1-13.9,19.2-9.1c3.1,4.8,153.9,112.1,141.8,119.4c-12.1,7.3-15.9,2.7-40.1-14.5
			C1633.5,1193.3,1539.1,1116.6,1539.1,1116.6z"/>
	</g>
	
		<ellipse transform="matrix(0.2202 -0.9755 0.9755 0.2202 -239.0271 2302.8494)" class="st1" cx="1320.8" cy="1300.9" rx="46" ry="79"/>
	<path class="st4" d="M1517,1209.2c79.4,21.4,164.5,23.2,209.2-15.6c44.7-38.8,23.5-94.7-47.4-124.9c-70.8-30.2-168.9-31-235.3,22.3
		C1396.5,1128.7,1433.6,1186.7,1517,1209.2z"/>
	<g>
		<g>
			<path class="st1" d="M1603.1,1150.4C1603.1,1150.4,1603.1,1150.4,1603.1,1150.4c7-1.9,18.3-4.8,26.7-5.1
				c7.9-0.3,13.2,1.9,9.6,9.6c0,0,0,0,0,0.1c-3,6.1-10.1,9.8-18.6,12.4c-19.4,6-46,6.7-48.3,18c12.8,20.9,44,16.7,71.4,3
				c6-3,11.9-6.5,17.3-10.3c34.5-23.9,51.9-59.7-8.9-64.3c-7.8-3.3-28.9,2.7-47.9,7.2c-10.4,2.5-20.1,4.5-26.8,4.4
				c-6.7-0.1-10.3-2.3-8.4-8.3c0-0.1,0-0.1,0.1-0.2c3.8-4.1,10.5-8.2,18.4-11.6c0,0,0,0,0,0c11.8-5.2,26.2-9,36.6-9.8
				c12.4-20.1-22.1-26.6-46.3-15.5c-4.6,1.2-9,2.6-13.1,4c-7.5,2.7-14,5.8-19.6,9.1l0,0C1494,1124,1520.3,1177.1,1603.1,1150.4z"/>
		</g>
		<path class="st1" d="M1528.1,1075.9c-1.2-14.3,17.8-13.1,20.2-8.1c2.4,5,135.7,121.8,122.8,128.4c-12.9,6.7-16.1,1.8-37.4-17
			C1610.2,1158.6,1528.1,1075.9,1528.1,1075.9z"/>
	</g>
	
		<ellipse transform="matrix(0.2518 -0.9678 0.9678 0.2518 -245.7168 2180.7766)" class="st1" cx="1287.5" cy="1249.3" rx="47.4" ry="76.7"/>
	<g>
		<g>
			<path class="st5" d="M909.2,1176.5c3-0.8,8-2.2,11.7-2.4c3.5-0.2,5.8,0.8,4.3,4.2c0,0,0,0,0,0c-1.2,2.7-4.3,4.3-8.1,5.5
				c-8.5,2.7-20.3,3.2-21.1,8.1c5.9,9.1,19.6,7.1,31.6,1c2.6-1.3,5.2-2.9,7.5-4.6c15-10.7,22.3-26.4-4.6-28.2
				c-3.5-1.4-12.7,1.3-21.1,3.4c-4.6,1.1-8.8,2.1-11.8,2.1c-3,0-4.6-0.9-3.8-3.6c0,0,0-0.1,0-0.1c1.6-1.8,4.6-3.6,8-5.2
				c5.2-2.3,11.5-4,16-4.5c5.3-8.9-10-11.6-20.6-6.6c-2.1,0.6-4,1.2-5.7,1.8c-3.3,1.2-6.1,2.6-8.6,4.1
				C860.8,1165.4,873,1188.6,909.2,1176.5z"/>
		</g>
		<path class="st5" d="M875.3,1144.1c-0.7-6.3,7.7-5.8,8.8-3.6c1.1,2.2,61.2,52.9,55.5,55.9c-5.6,3-7.1,0.9-16.7-7.3
			C912.4,1180.1,875.3,1144.1,875.3,1144.1z"/>
	</g>
	<path class="st6" d="M1983.2,792.3c0,0,195,125.8,346.8,207.4c53.8,28.9,102.2,52.4,134.5,62.6c-60.7,37-162.6,75.3-294.5,114.6
		c-251.9,75.1-613.6,153.9-1009,235.6c0,0-130.6-35.2-323.8-282.4c-27.8-35.4-56.7-75.1-86.7-119.7c835.8-121.6,401.3-52.8,457-60.9
		C1518.1,904.5,1818,852.8,1983.2,792.3z"/>
	<path class="st7" d="M843.1,1023.2c28.3,41.7,55.6,78.4,81.5,110.8c60.3,75.4,113.6,127.3,156.9,162.7
		c75.4,61.7,120.6,73.6,120.6,73.6c60.5-12.5,120-25,178.3-37.4c332.8-70.5,625.2-138.3,811.8-202.3
		c67.7-23.2,121.4-45.9,158.2-68.1c-29.5-9.2-74.4-30.6-124-57c-71.1-37.8-152-85.8-211.5-122c-51-31-86.3-53.4-86.3-53.4
		c-31.9,11.6-74.2,23.7-123.8,36.1c-207.5,51.6-541.5,106.5-764.5,135.9C952.5,1013.7,882,1021.3,843.1,1023.2z"/>
	<path class="st1" d="M1786.4,871.9c93.8,47.3,133.1,37.4,251,20.7c-60.9-37-103.1-63.8-103.1-63.8
		C1896.2,842.6,1845.7,857.1,1786.4,871.9z"/>
	<path class="st1" d="M2192.2,1130.6c67.7-23.2,121.4-45.9,158.2-68.1c-29.5-9.2-74.4-30.6-124-57
		C2187.6,1051.6,2172.5,1091.6,2192.2,1130.6z"/>
	<path class="st1" d="M1081.4,1296.7c75.4,61.7,120.6,73.6,120.6,73.6c60.5-12.5,120-25,178.3-37.4
		C1308.3,1293.4,1217,1275.1,1081.4,1296.7z"/>
	<path class="st4" d="M1519.9,1154.7c72.1,29,154.1,38.8,206.3,3.8c52.2-35,44.5-93.4-17.3-130.5c-61.8-37.1-156.6-47.1-233.2,0.5
		C1421.5,1062.2,1444.2,1124.2,1519.9,1154.7z"/>
	<g>
		<g>
			<path class="st1" d="M1616.8,1103.4C1616.8,1103.4,1616.8,1103.4,1616.8,1103.4c7.2-1.2,18.9-3.2,27-2.7
				c7.7,0.5,12.3,3.1,7.1,10.6c0,0,0,0,0,0.1c-4.3,5.9-12,8.9-20.9,10.8c-20.2,4.2-46.2,2.5-50.9,13.6c7.7,22.3,38.9,21,68.6,9.7
				c6.5-2.5,13-5.4,19.2-8.7c38.9-20.9,64-55.4,6.1-65.7c-6.8-4-28.6,0-48.1,2.8c-10.6,1.5-20.5,2.7-27,2c-6.5-0.7-9.5-3.2-6.2-9.1
				c0-0.1,0.1-0.1,0.1-0.2c4.6-3.8,12.1-7.2,20.5-10c0,0,0,0,0,0c12.6-4.1,27.4-6.6,37.7-6.5c16.6-19.1-15.3-28.9-41.4-19.9
				c-4.8,0.8-9.3,1.7-13.6,2.8c-7.9,2-14.9,4.5-21.1,7.4l0,0C1517.1,1066.6,1530.4,1122.6,1616.8,1103.4z"/>
		</g>
		<path class="st1" d="M1561.1,1021.2c2.1-14.6,20.3-11.5,21.4-6.3s103.7,135.6,89.6,141.2c-14,5.5-16,0.3-32.3-20.6
			C1621.8,1112.4,1561.1,1021.2,1561.1,1021.2z"/>
	</g>
	<g>
		<g>
			<path class="st5" d="M1925.7,874.4c2.8-0.9,7.4-2.3,10.8-2.6c3.3-0.3,5.6,0.5,4.5,3.7c0,0,0,0,0,0c-0.9,2.5-3.7,4.2-7.2,5.4
				c-7.8,2.8-18.8,3.6-19.2,8.3c6.3,8.3,19.1,5.9,29.9-0.2c2.4-1.3,4.7-2.9,6.7-4.5c13.2-10.4,18.8-25.4-6.7-26
				c-3.4-1.2-11.9,1.6-19.6,3.9c-4.2,1.2-8.1,2.2-10.9,2.3c-2.8,0.1-4.4-0.7-3.9-3.2c0,0,0,0,0-0.1c1.4-1.8,4-3.5,7.1-5.1
				c4.7-2.3,10.5-4.2,14.8-4.7c4.2-8.4-10.5-10.4-20-5.4c-1.9,0.6-3.6,1.2-5.2,1.9l0,0c-3,1.2-5.5,2.6-7.7,4.1
				C1879,865.8,1892.5,887,1925.7,874.4z"/>
		</g>
		<path class="st5" d="M1890.9,845.5c-1.2-5.8,6.8-5.7,8-3.7c1.2,2,62.3,47,57.2,50c-5.1,3-6.6,1-16.4-6.2
			C1929,877.7,1890.9,845.5,1890.9,845.5z"/>
	</g>
	<g>
		<g>
			<path class="st5" d="M2265.4,1069.1C2265.4,1069.1,2265.4,1069.1,2265.4,1069.1c2.9-0.7,7.6-1.8,11.1-1.9c3.3,0,5.4,0.9,3.7,4.1
				l0,0c-1.4,2.5-4.4,4-8,5c-8.1,2.3-19.1,2.4-20.2,7c3.1,5.6,9.4,7,16.7,5.9c4.1-0.6,8.5-2.1,12.6-4c1.9-0.9,3.7-1.8,5.5-2.9
				c0,0,0,0,0,0c0.6-0.4,1.2-0.8,1.9-1.2c14.7-9.6,22.7-24.3-2.2-26.8c-3.1-1.4-11.9,0.8-19.8,2.5c-4.3,0.9-8.4,1.7-11.1,1.6
				c-2.7-0.1-4.1-1-3.2-3.5l0,0c0,0,0,0,0-0.1c1.6-1.7,4.5-3.3,7.8-4.6c5-2,11-3.5,15.3-3.7c5.5-8.2-8.5-11.2-18.7-6.8
				c-1.9,0.5-3.7,1-5.5,1.5c-3.1,1-5.9,2.3-8.3,3.6C2221.2,1057.2,2230.8,1079.4,2265.4,1069.1z"/>
		</g>
		<path class="st5" d="M2236.2,1037.5c-0.2-6,7.6-5.3,8.5-3.2c0.9,2.1,53,51.8,47.6,54.4s-6.6,0.6-15-7.4
			C2268.1,1072.6,2236.2,1037.5,2236.2,1037.5z"/>
	</g>
	
		<ellipse transform="matrix(0.2954 -0.9554 0.9554 0.2954 -213.6258 2057.7317)" class="st1" cx="1288.2" cy="1173.7" rx="74.8" ry="109"/>
	
		<ellipse transform="matrix(0.2627 -0.9649 0.9649 0.2627 428.845 2579.7046)" class="st1" cx="1902.3" cy="1009.3" rx="69" ry="109.3"/>
	<path class="st1" d="M840.9,1024.1c72.8-9.9,138.2-17.6,196.9-23.5c-13.1,63.5-49.9,96.8-116.9,126.4
		C888.4,1080.1,859.8,1043.2,840.9,1024.1z"/>
	<g>
		<g>
			<path class="st5" d="M938.2,1064.8c3.1-0.6,8.2-1.5,11.9-1.3c3.4,0.2,5.5,1.3,3.3,4.6c0,0,0,0,0,0c-1.8,2.6-5.2,4-9.1,4.8
				c-8.8,2-20.4,1.3-22.4,6.2c3.6,9.8,17.4,9,30.4,4c2.8-1.1,5.7-2.4,8.3-3.9c17-9.4,27.7-24.6,2-28.9c-3-1.7-12.6,0.1-21.2,1.4
				c-4.7,0.7-9,1.2-11.9,1c-2.9-0.3-4.2-1.4-2.8-4c0,0,0-0.1,0-0.1c2-1.7,5.3-3.2,9-4.5c5.5-1.9,12-3,16.6-3
				c7.1-8.5-7.1-12.6-18.5-8.6c-2.1,0.4-4.1,0.8-6,1.3c-3.5,0.9-6.6,2.1-9.2,3.4C893.8,1049,900.3,1073.6,938.2,1064.8z"/>
		</g>
		<path class="st5" d="M912.8,1028.9c0.8-6.4,8.8-5.2,9.4-2.9c0.6,2.3,47.2,59.2,41,61.6s-7,0.2-14.5-8.9
			C940.5,1068.7,912.8,1028.9,912.8,1028.9z"/>
	</g>
	<g>
		<g>
			<path class="st5" d="M1213.1,1335.7c2.5-0.5,6.6-1.2,9.5-1c2.7,0.1,4.4,1,2.6,3.7c0,0,0,0,0,0c-1.4,2.1-4.1,3.2-7.3,3.9
				c-7.1,1.6-16.3,1-17.8,5c2.9,7.8,13.9,7.2,24.3,3.2c2.3-0.9,4.5-2,6.7-3.1c13.5-7.5,22.1-19.7,1.6-23.1
				c-2.4-1.4-10.1,0.1-16.9,1.1c-3.7,0.6-7.2,1-9.5,0.8l0,0c-2.3-0.2-3.4-1.1-2.3-3.2c0,0,0,0,0-0.1c1.6-1.4,4.2-2.6,7.2-3.6
				c4.4-1.5,9.6-2.4,13.2-2.4c5.7-6.8-5.6-10.1-14.7-6.9c-1.7,0.3-3.3,0.6-4.8,1.1c-2.8,0.7-5.2,1.6-7.4,2.7
				C1177.6,1323.1,1182.8,1342.7,1213.1,1335.7z"/>
		</g>
		<path class="st5" d="M1192.7,1307c0.6-5.1,7-4.1,7.5-2.3c0.5,1.8,37.7,47.2,32.8,49.2c-4.9,2-5.6,0.2-11.6-7.1
			C1214.9,1338.8,1192.7,1307,1192.7,1307z"/>
	</g>
	<path class="st8" d="M1983.2,792.3c0,0,195,125.8,346.8,207.4c-289.1-53.6-752.3-36.1-1185.8-36.4
		C1454.9,918.9,1818,852.8,1983.2,792.3z"/>
	<path class="st1" d="M1199.7,1447.7c988.3-199.3,1210.7-326.7,1210.7-326.7C2288.9,1197.7,1199.7,1447.7,1199.7,1447.7z"/>
	<path class="st1" d="M1223.1,1559.5c990.4-191.8,1214.9-317.7,1214.9-317.7C2315.2,1317.8,1223.1,1559.5,1223.1,1559.5z"/>
	<path class="st1" d="M1245.9,1459.1c990.4-191.8,1214.9-317.7,1214.9-317.7C2338,1217.4,1245.9,1459.1,1245.9,1459.1z"/>
	<path class="st1" d="M1222.4,1494.6c540.6-88.8,666.3-153.8,666.3-153.8C1819.7,1380.2,1222.4,1494.6,1222.4,1494.6z"/>
	<path class="st1" d="M1235.6,1512.7c540.6-88.8,666.3-153.8,666.3-153.8C1832.8,1398.3,1235.6,1512.7,1235.6,1512.7z"/>
	<path class="st1" d="M1752.5,1425.9c532-120,649.2-191.5,649.2-191.5C2337.8,1277.3,1752.5,1425.9,1752.5,1425.9z"/>
	<path class="st1" d="M1740.5,1397.5c532-120,649.2-191.5,649.2-191.5C2325.9,1248.9,1740.5,1397.5,1740.5,1397.5z"/>
	<path class="st9" d="M1871.9,1459.1c-2.3,14.9-238.5,69.7-246.4,53.6s14.7-188.4,3-199.5c-11.7-11.2-359.3-356.9-330.9-378.7
		c42.9-32.9,257-56.9,259.8-42.1c2.8,14.8,306,327.1,315.5,363.7C1882.5,1292.5,1874.1,1444.2,1871.9,1459.1z"/>
	<path class="st1" d="M761.7,1106.4c16.3,57.1,251.5,312.4,324.8,334.6C903.9,1314.6,761.7,1106.4,761.7,1106.4z"/>
	<path class="st1" d="M745.3,1230.2c16.3,57.1,251.5,312.4,324.8,334.6C887.5,1438.4,745.3,1230.2,745.3,1230.2z"/>
	<path class="st1" d="M768.8,1173.5c16.3,57.1,251.5,312.4,324.8,334.6C915.7,1374,768.8,1173.5,768.8,1173.5z"/>
	<path class="st1" d="M765.9,1141.4c61.1,96.4,251.5,312.4,324.8,334.6C908.1,1349.7,765.9,1141.4,765.9,1141.4z"/>
	<path class="st1" d="M741.5,1186c61.1,96.4,233.5,293.5,324.8,334.6C883.6,1394.6,741.5,1186,741.5,1186z"/>
	<path class="st1" d="M775.9,1090.4c61.1,96.4,233.5,293.5,324.8,334.6C917.9,1299,775.9,1090.4,775.9,1090.4z"/>
</g>
<g>
	<path class="st10" d="M889.1,1385.8c24.6,36.8,80.6,105.3,79.1,114.1c-1.5,8.8-15.4,72.1-7.7,76.8c10.8,6.8,47.3-64.5,63.4-85.5
		c10-13.1-5.7-12-23.7-31.2c-18-19.2-60.9-97-69-113.6C923,1329.8,864.5,1349.1,889.1,1385.8z"/>
	<path class="st10" d="M684.4,1273.5c-11.6,15-48.6,99-57.9,124.4c-9.3,25.4-1.7,30.9-17.9,35.7c-18.8,5.5-99.6-32.5-96-50.7
		c1.8-9.1,57.5,3.1,66.7,2.5c22.5-1.5,7-29.7,63.8-143.8C650.7,1226.3,690.3,1265.8,684.4,1273.5z"/>
	<path class="st11" d="M939.4,1250.4c-63.8-4.7,33.1,121.4,63.4,191.1c-23.7,29.1-32.2,34.9-58.1,42
		c-24.7-36.7-168.6-242.2-97.6-297.7c6.4-5,14.3-8.6,23.4-11.4c10.4-3.1,22.4-5.1,35.5-6.6c39.9-4.4,90.1-3.8,136.3-15.8
		c31.9-8.2,61.9-22.4,85.5-48.3c0,0,9.2-11.9,25.7-23.3c25-17.2,66.8-33.1,118.1-3.3c11.3,6.6,13.9,16.3,23.9,32.4
		C1344.2,1225.2,1185.6,1268.5,939.4,1250.4z"/>
	<path class="st11" d="M960.3,1182.7c-17.4-4.5-35.5-9.5-54.2-14.8c-8.1-2.3-16.4-4.7-24.8-7.1c-4.2-1.2-8.6-1.8-13.1-1.7
		c-74.6,0.5-198.9,158.4-213.4,211.1c-31.5,20.7-59.4-14.1-76.5-21.8c-4.5-43.5,152.6-243.9,237.6-275.6
		c60.8-22.7,251.2,27.9,292.1,22c11.6-1.7,27.5-8.1,45.5-14.2c45.6-15.4,104.5-28.7,140.3,42.5
		C1298.6,1234.3,1186.8,1241.8,960.3,1182.7z"/>
	<path class="st12" d="M1199.2,789.7c-0.2-3.7-0.6-7.8-1.3-12.4c-0.2-1.6-0.5-3.3-0.8-5c1.5-1.5,3.3-2.8,4.9-3.1
		c2.2-0.4,5.6-1.9,7.6-4.3c3.4-4.1,10.3,0,7.4,7C1215.9,774.6,1208.1,785,1199.2,789.7z"/>
	<path class="st13" d="M1042.3,1152.1c-46.2,11.9-96.3,11.3-136.3,15.8c-8.1-2.3-16.4-4.7-24.8-7.1c-4.2-1.2-8.6-1.8-13.1-1.7
		c29-14.2,56.3-14.1,107.6-10.3C1002.9,1150.8,1023.8,1146.6,1042.3,1152.1z"/>
	<path class="st14" d="M992.2,1049.7c67.1,36.8,159.5,95.6,134.5,106.2c-25,10.6-94.5,47.1-108.4,39.7
		c-13.9-7.3-133.8-104.6-126-112.7C900.1,1074.8,992.2,1049.7,992.2,1049.7z"/>
	<g>
		<path class="st15" d="M1052.6,1062.5c-7.5,4.7-4.5,5.3-13.6,12.6c-9.1,7.2-17.6,17.3-23.6,17.7c-7.3,0.4-12.9,0.5-5.7-5.9
			c2.3-2.1-11.6-1.2-17.8-1.3c-6.2-0.1-8.3-12.8-6.8-19.5c1.5-6.7,16.4-10.4,26.5-15.6c10.1-5.2,26-8.1,30.8-9.5
			C1047.3,1039.5,1052.6,1062.5,1052.6,1062.5z"/>
		<g>
			<path class="st15" d="M1169.9,1121.5c-8,3.2-6.8,0.5-17.6,3.5c-10.8,3-21.4,5.1-27.2,8.4c-6.2,3.6-7.1,11.1,13.6,7
				c3-0.6-14.3,7.9-22.5,13.9c-4.8,3.6-13.7,11.1-7.6,13.8c6.1,2.7,38-2.4,47.8-7.4s21-15.8,24.8-18.9
				C1185,1138.8,1169.9,1121.5,1169.9,1121.5z"/>
			<path class="st16" d="M1304.3,844.7c-11.8-13.9-55.9-48.2-71.9-49.5c-16-1.3-48.6,14.5-48.6,14.5c-36.5,12.1-50,42.5-56.2,75.6
				c-3.7,4.5-6.6,9-8.1,13.2c-4.3,12.2-1.9,24.2,2.4,35.2c-2.3,25.4-4.7,47.6-15.5,58.2c-18.8,18.6-82.6,39.3-80.4,49.9
				c0.2,1,0.5,2,0.9,2.9c3.7,9.9,14.6,18.6,20,22.4c1.9,1.4,3.2,2.1,3.2,2.1s66.1-23.6,96.2-44.3c1.7,15.5,1.9,31.8-2.2,45.7
				c-4.1,13.9-1.3,30.9,40.2,33.2c-14,7.8-23.3,12.8-23.2,13.4c0.2,1.8,0.8,3.8,1.5,6.1c2.8,8.1,8.4,18.5,12.4,23.8
				c1.9,2.5,3.4,3.9,4.1,3.4c6.7-5.3,185.1-102,196.2-131.7C1386.6,988.9,1337.3,883.6,1304.3,844.7z M1189.9,836.2
				c0.3-0.2,0.5-0.3,0.5-0.3c-0.1,0.1-0.7,0.4-1.7,1C1189.1,836.7,1189.5,836.4,1189.9,836.2z M1318.3,1010.8
				c-4.2,10.7-23.3,25.9-46.8,41.5c-1.7-6.1-2.8-13.2-2.9-21.1c0-17-1.5-36.8,3.4-56.6c3.4-14,10.1-28.1,22.6-41.2
				c0,0,0.1-0.1,0.1-0.1C1315.4,968.8,1326.8,989.3,1318.3,1010.8z"/>
			<path class="st16" d="M1304.3,844.7c-11.8-13.9-55.9-48.2-71.9-49.5c-16-1.3-48.6,14.5-48.6,14.5c-36.5,12.1-50,42.5-56.2,75.6
				c-3.7,4.5-6.6,9-8.1,13.2c-4.3,12.2-1.9,24.2,2.4,35.2c-2.3,25.4-4.7,47.6-15.5,58.2c-18.8,18.6-82.6,39.3-80.4,49.9
				c0.2,1,0.5,2,0.9,2.9c3.7,9.9,14.6,18.6,20,22.4c1.9,1.4,3.2,2.1,3.2,2.1s66.1-23.6,96.2-44.3c1.7,15.5,1.9,31.8-2.2,45.7
				c-4.1,13.9-1.3,30.9,40.2,33.2c-14,7.8-23.3,12.8-23.2,13.4c0.2,1.8,0.8,3.8,1.5,6.1c2.8,8.1,8.4,18.5,12.4,23.8
				c1.9,2.5,3.4,3.9,4.1,3.4c6.7-5.3,185.1-102,196.2-131.7C1386.6,988.9,1337.3,883.6,1304.3,844.7z M1189.9,836.2
				c0.3-0.2,0.5-0.3,0.5-0.3c-0.1,0.1-0.7,0.4-1.7,1C1189.1,836.7,1189.5,836.4,1189.9,836.2z M1318.3,1010.8
				c-4.2,10.7-23.3,25.9-46.8,41.5c-1.7-6.1-2.8-13.2-2.9-21.1c0-17-1.5-36.8,3.4-56.6c3.4-14,10.1-28.1,22.6-41.2
				c0,0,0.1-0.1,0.1-0.1C1315.4,968.8,1326.8,989.3,1318.3,1010.8z"/>
		</g>
	</g>
	<path class="st10" d="M1189.9,766.2c6.1,27.9,10.2,39.5,5.6,47.4c-4.5,7.8-9.6,26.7-0.7,26.4c4.4-0.2,30.5-11.8,40.1-18.6
		c9.5-6.8,11.2-12.6,11.2-12.6s-16.4-42.9-30.5-72.5C1201.5,706.5,1189.9,766.2,1189.9,766.2z"/>
	<path class="st10" d="M1246,808.7c0,0-1.6,5.8-11.2,12.6c-9.5,6.8-35.6,18.5-40.1,18.6c-9,0.3-3.9-18.6,0.7-26.4
		c1.8-3.2,2.3-6.9,1.8-12.2c-0.6-6.2-2.6-14.4-5.3-25.9c-0.7-2.9-1.3-6-2.1-9.3c0,0,11.7-59.7,25.7-30
		C1229.6,765.8,1246,808.7,1246,808.7z"/>
	<path class="st17" d="M895.9,1085.5c-16.1-45-17.5-88.3-1.4-84c38.4,10.4,139,87.6,137.9,106.3s-10.3,85.3-10.3,85.3L895.9,1085.5z
		"/>
	<path class="st18" d="M1146.4,1025c-1.6,1.1-5.9,3.8-7.7,4.9c-2-10.2-1.3-48.4-0.5-57.1C1140.3,987.6,1144,1002.8,1146.4,1025z"/>
	<path class="st18" d="M1294.7,933.3c-12.6,13.1-19.2,27.2-22.6,41.2c-2.1-17.1-6.4-62.4,6.3-56.1
		C1287.3,922.9,1291.4,927.2,1294.7,933.3z"/>
	<path class="st18" d="M1197,800c-0.6-6.2-2.5-12.9-5.1-24.5c5.1-7.5,11.4-12.9,14.4-6.1C1211.6,780.8,1209.1,789.7,1197,800z"/>
	<g>
		<path class="st10" d="M1148.9,728.4c2.9,24.9-4.2,39.9,4.6,38.3c6.7-1.1,13.6,49.8,33.4,33.8c19.7-15.9,33.1-35.8,23.8-60.4
			c-9.2-24.6-14-39.3-14-39.3L1148.9,728.4z"/>
		<path class="st17" d="M1148.6,738.2c11.8,8.5,25,9.1,31.1,11.7c3.4,1.5,9.6-2.1,10-5.8c0.5-4.2,5.5-7.1,11.8-6.3
			c7.6,0.9,4.7,10.7,3.8,16.9c-0.7,4.6,2.7,10,6.6,12.5c15,9.5,11.8,52.1,104.5,30.5c23.2-5.6,45.7-15.4,65-26.7
			c39-22.8,65.6-51.8,61.5-64.5c-3-9.2-27.7-14.3-43.1-12.5c-15.4,1.8-16.2,12.8-28.3,13.8c-13.8,1.1-11-33.9-46.6-19.8
			c-35.6,14.1-34.2,23-47.6,22.7c-13.4-0.3-56.9-54-97.3-32.9c-28,14.7-34.5,33.5-35.9,43.7C1143.7,725.7,1145.1,735.6,1148.6,738.2
			z"/>
	</g>
</g>
<path class="st19" d="M1871.9,1459.1c-2.3,14.9-238.5,69.7-246.4,53.6s14.7-188.4,3-199.5c73-19.8,202.9-46.9,244.5-57.2
	C1882.5,1292.5,1874.1,1444.2,1871.9,1459.1z"/>
<g>
	<path class="st20" d="M1877.1,478.2c-2.5,1.3-4.8,4.2-8.1-5.1c-3.8-10.9-25.3-43.3-23.5-44.1c4-1.7,213.5-71,213.5-71L1877.1,478.2
		z"/>
	<path class="st21" d="M1879,431.5c-6.3,3.3-6.9,2.7-6.2,10.7c1.5,17.3-2.4,38.5,1.8,37.3c4.2-1.2,184.4-121.5,184.4-121.5
		S1881.8,430.1,1879,431.5z"/>
	<path class="st9" d="M2059,358C2059,358,2059,358,2059,358L2059,358c-0.1,0.1-3.3,2.9-8.5,7.4c-25.7,22.4-101.5,87.5-112.7,87.8
		c-3.2,0.1-7.3-0.3-12-1c-2.2-0.3-4.6-0.8-7-1.2c-0.2,0-0.3-0.1-0.5-0.1c-19.8-4-44-11.8-45.5-15.1c0-0.1-0.1-0.2-0.1-0.3
		c0-0.2,0.3-0.6,1-1.1c0,0,0,0,0,0c0.8-0.6,2.1-1.3,3.8-2.2c0,0,0,0,0,0c0.4-0.2,0.8-0.4,1.3-0.7c0,0,0.1,0,0.1,0
		C1911,415.3,2054.5,359.7,2059,358C2058.9,358,2058.9,358,2059,358C2059,358,2059,358,2059,358C2059,358,2059,358,2059,358
		C2059,358,2059,358,2059,358z"/>
	<path class="st9" d="M2059.1,358c-39.9,4.5-271.7,53.7-251.1,62.1c20.5,8.4,31.8,8.1,37.6,8.9C1847.4,429.2,2059.1,358,2059.1,358z
		"/>
</g>
<g>
	<g>
		<g>
			<path class="st22" d="M1069.3,600.9c3.8,0.6,7.7,1.1,11.5,1.7"/>
			<path class="st23" d="M1102.9,605.2c23.8,2.4,48,3.7,72.1,4"/>
			<path class="st24" d="M1183.9,609.2c221.1-0.2,440.5-88,419-187.1c-13.3-61.4-76.6-84.1-131.4-63.8
				c-56.5,21-84.3,70.5-67.1,122.8c20,60.9,145.1,104.7,404.7-9.3"/>
			<path class="st22" d="M1817.3,468.3c3.5-1.6,7.1-3.2,10.6-4.8"/>
		</g>
	</g>
</g>
</svg>
