<?xml version="1.0" encoding="iso-8859-1"?>
<!-- Generator: Adobe Illustrator 26.0.3, SVG Export Plug-In . SVG Version: 6.00 Build 0)  -->
<!DOCTYPE svg PUBLIC "-//W3C//DTD SVG 1.1//EN" "http://www.w3.org/Graphics/SVG/1.1/DTD/svg11.dtd" [
	<!ENTITY ns_extend "http://ns.adobe.com/Extensibility/1.0/">
	<!ENTITY ns_ai "http://ns.adobe.com/AdobeIllustrator/10.0/">
	<!ENTITY ns_graphs "http://ns.adobe.com/Graphs/1.0/">
	<!ENTITY ns_vars "http://ns.adobe.com/Variables/1.0/">
	<!ENTITY ns_imrep "http://ns.adobe.com/ImageReplacement/1.0/">
	<!ENTITY ns_sfw "http://ns.adobe.com/SaveForWeb/1.0/">
	<!ENTITY ns_custom "http://ns.adobe.com/GenericCustomNamespace/1.0/">
	<!ENTITY ns_adobe_xpath "http://ns.adobe.com/XPath/1.0/">
]>
<svg version="1.1" id="Layer_1" xmlns:x="&ns_extend;" xmlns:i="&ns_ai;" xmlns:graph="&ns_graphs;"
	 xmlns="http://www.w3.org/2000/svg" xmlns:xlink="http://www.w3.org/1999/xlink" x="0px" y="0px" viewBox="0 0 3200 2000"
	 style="enable-background:new 0 0 3200 2000;" xml:space="preserve">
<style type="text/css">
	.st0{fill:#FFFFFF;}
	.st1{fill:#F5F5F0;}
	.st2{fill:#75A2A5;}
	.st3{fill:#669396;}
	.st4{fill:#A26258;}
	.st5{fill:#F1DCC1;}
	.st6{fill:#002237;}
	.st7{fill:#E1A185;}
	.st8{fill:#EBAB8F;}
	.st9{fill:#293440;}
	.st10{fill:#773C36;}
	.st11{fill:#CD886C;}
	.st12{fill:#F0DCC1;}
	.st13{fill:#291723;}
	.st14{fill:#382632;}
	.st15{fill:#955853;}
	.st16{opacity:0.1;fill:#660914;}
	.st17{opacity:0.15;fill:#660914;}
	.st18{fill:#333333;}
	.st19{fill:#A96C67;}
	.st20{fill:#AF9499;}
	.st21{fill:#F3EED4;}
	.st22{fill:#B0959A;}
	.st23{fill:#232323;}
	.st24{fill:#1E1E1E;}
	.st25{fill:#4C3A46;}
	.st26{fill:#002725;}
	.st27{fill:#6A4D36;}
	.st28{fill:#755841;}
	.st29{fill:#DDE7F2;}
	.st30{fill:#D3DDE8;}
	.st31{fill:#CCCCCC;}
	.st32{fill:#E6E6E6;}
	.st33{fill:#2E1C28;}
	.st34{fill:#F5E6D5;}
	.st35{fill:#DA6249;}
	.st36{fill:#733C0A;}
	.st37{fill:#693214;}
	.st38{fill:#7D4614;}
	.st39{fill:#331F18;}
	.st40{fill:#D79276;}
	.st41{fill:#D28D71;}
	.st42{opacity:0.17;fill:#223854;}
	.st43{fill:#DC977B;}
	.st44{fill:#1F2245;}
	.st45{fill:#2E3155;}
	.st46{fill:#DDC8AD;}
	.st47{fill:#FFEBD5;}
	.st48{fill:#543E37;}
	.st49{fill:#9C8186;}
	.st50{opacity:0.1;fill:#1A1E28;}
	.st51{fill:#1A1E28;}
	.st52{fill:#151923;}
	.st53{fill:#D68B4C;}
	.st54{fill:#C77C33;}
</style>
<metadata>
	<sfw  xmlns="&ns_sfw;">
		<slices></slices>
		<sliceSourceBounds  bottomLeftOrigin="true" height="2000" width="3200" x="0" y="-2000"></sliceSourceBounds>
	</sfw>
</metadata>
<g>
	<rect class="st0" width="3200" height="2000"/>
	<g>
		<path class="st1" d="M569.8,861.9c5.6,405.7-331.5,469.1-289.1,672.7c42.4,203.5,465.2,284.4,764.7,238.1s544.8-196.2,1239.3-62.7
			s782.2-179.7,343.1-673.7c-287.4-323.4-370.6-341.5-860.8-458.5C1025.9,400.8,565.9,579,569.8,861.9z"/>
		<g>
			<g>
				<g>
					<path class="st2" d="M722.8,1429.7c-44-5.4-62.4,85.6-76.1,63c-13.7-22.6,63.4-214.6,13.9-203.8
						c-49.5,10.7-54.4,102.1-67.3,100.8c-12.9-1.3,20.1-145.8-10.7-217.2c-30.8-71.3-91-26.8-85.2,47.3
						c5.8,74,58.4,138.3,45.3,141.6c-13.1,3.3-24.1-19.6-43.7-27.9c-19.6-8.3-27,40.7,28.7,104c55.7,63.3,59.8,166.8,35.2,118.6
						c-24.5-48.2-119.6-130-108-32.8c9.6,80.2,109.5,197,144.3,235.5c7.2-0.5,16.2-0.7,27.1-0.3c9.1-19.8,29.2-63.2,65.6-137.2
						C744.8,1513.6,766.8,1435.1,722.8,1429.7z"/>
					<g>
						<path class="st3" d="M713.8,1463.9c-0.6-0.4-1.4-0.3-1.8,0.3c-53.7,77.2-85,179.7-93.6,210.5c1.5-116-7.4-149-20.8-198.9
							c-4.5-16.9-9.7-36-15.1-61c-23.6-109.1-39.6-246.6-39.7-248c-0.1-0.7-0.7-1.3-1.5-1.2c-0.7,0.1-1.2,0.7-1.2,1.5
							c0.2,1.4,16.2,139.1,39.8,248.3c0.2,0.8,0.4,1.7,0.5,2.5c-3.5-0.3-12.4-1.7-24.1-7.6c-14-7.1-35.1-22.3-55.9-54.6
							c-0.4-0.6-1.2-0.8-1.8-0.4c-0.6,0.4-0.8,1.2-0.4,1.8c21.1,32.9,42.7,48.4,57.1,55.6c13,6.5,22.6,7.6,25.7,7.8
							c5,22.5,9.8,40.2,14,56c15.7,58.3,25.1,93.5,19,266.3c0,0.7,0.5,1.3,1.3,1.4c0,0,0,0,0,0c0.7,0,1.3-0.6,1.3-1.3
							c0.8-21.3,1.3-40.5,1.6-58c0.1-0.1,0.2-0.3,0.3-0.5c0.3-1.3,32.3-127.7,95.6-218.7C714.6,1465.1,714.4,1464.3,713.8,1463.9z"
							/>
						<path class="st3" d="M616,1448.7C615.9,1448.7,615.9,1448.7,616,1448.7c-0.7,0-1.2-0.6-1.1-1.2c3.8-63.7,38.7-135.1,39-135.8
							c0.3-0.6,1-0.8,1.5-0.5c0.6,0.3,0.8,1,0.5,1.5c-0.3,0.7-35,71.7-38.8,134.9C617.1,1448.3,616.6,1448.7,616,1448.7z"/>
					</g>
				</g>
				<path class="st4" d="M655.9,1760.2c0,0-4.3-2.4-39.4-2.4c-35.1,0-39.4,2.4-39.4,2.4c-0.2,2.5-0.4,5.2-0.4,7.8v14.1
					c0,25.8,11.9,47,26.5,47h26.5c14.6,0,26.5-21.1,26.5-47v-14.1C656.3,1765.4,656.1,1762.8,655.9,1760.2z"/>
			</g>
			<g>
				<g>
					<path class="st5" d="M2036.4,1174.7c0,0,115.3-47.3,209.1-127.3c47.9,21.9,114.8,41.3,172.8,41.3
						c189.5,0,349.9-135.6,349.9-299.1c0-206.2-188.1-314.7-377.6-314.7c-189.5,0-366.1,145.3-366.1,308.8
						c0,64.9,37.8,143.5,78.9,192.3L2036.4,1174.7z M2510,775.5c0-24.7,20.1-44.8,44.8-44.8c24.7,0,44.8,20.1,44.8,44.8
						c0,24.7-20.1,44.8-44.8,44.8C2530.1,820.3,2510,800.3,2510,775.5z M2359.4,775.5c0-24.7,20.1-44.8,44.8-44.8
						c24.7,0,44.8,20.1,44.8,44.8c0,24.7-20.1,44.8-44.8,44.8C2379.4,820.3,2359.4,800.3,2359.4,775.5z M2208.8,775.5
						c0-24.7,20.1-44.8,44.8-44.8c24.7,0,44.8,20.1,44.8,44.8c0,24.7-20.1,44.8-44.8,44.8C2228.8,820.3,2208.8,800.3,2208.8,775.5z"
						/>
				</g>
			</g>
			<g>
				<g>
					<g>
						<g>
							<g>
								<g>
									<path class="st6" d="M2572.1,1829.9c-1,3.7-1.1,6.4,1,8c4.2,3.1,8.8-6.4,10.2-12.7c0.6-2.7,1.2-6.8,1.7-11.6
										c0.6,1,1.1,2.1,1.4,4.6c1.8,11.9-0.7,6.7-1,10.1c-0.3,3.4-0.7,8.7-1.5,11s-10.6,6.2-12.3,3.6
										C2570.1,1840.4,2568.1,1833.4,2572.1,1829.9z"/>
									<path class="st7" d="M2586.7,1675c5.9,0.2,11,0.1,15.5-0.2c-1,23.3-6.2,48.4-8.4,66.7c-1.8,14.8-7.2,57.8-8.5,70.6
										c-0.6,5.4-1.1,10-1.8,13c-1.5,6.3-6,15.7-10.2,12.7c-4.2-3.1,0.5-10.4,2.5-21.4c0.3-1.4,0.4-2.8,0.4-4.3
										c0.2-20.1-13.7-75.1-17.8-116.7c-0.9-9.4-1.2-17.5-1.1-24.3C2561.7,1672.7,2570.4,1674.4,2586.7,1675z"/>
								</g>
								<g>
									<path class="st6" d="M2652.6,1837.5c2.8,1,7.7-2.3,7.7-9.1c0-6.8-6.6-16.4-7.9-18.5c-0.2-0.3-0.4-0.8-0.5-1.5
										c2.6,0.6,9.2,8,8.4,11.2c-0.9,3.7,2,5.6,3.1,12.9c1.1,7.3-8.3,12.8-10.7,11.5c-2.4-1.3-3.2-11.4-3.2-11.5
										C2650.7,1835.3,2651.8,1837.2,2652.6,1837.5z"/>
									<path class="st8" d="M2586.7,1675c19.1,0.7,30.2-1.9,36.1-4c-2.3,6-4.1,11.1-4.1,12.7c0,4.6,20.1,23.4,24,46.5
										c3.2,18.4,6.9,68.4,8.9,77.3c0.3,1.2,0.5,2.1,0.8,2.5c1.2,2.1,7.9,11.7,7.9,18.5s-4.9,10.1-7.7,9.1c-2.8-1-7.5-19-8.4-25.3
										c-0.1-0.6-0.5-1.6-1-2.8c-9.9-20.2-62.1-107.4-62.7-119.8c-0.2-4.2-0.5-9.5-0.9-15
										C2581.8,1674.8,2584.1,1674.9,2586.7,1675z"/>
								</g>
							</g>
							<path class="st9" d="M2553.5,1492l43.3,1.6l43.6,1.3c25.1,72.9-14.2,175-14.2,175s-9.2,7-39,5.8s-32.5-5.8-32.5-5.8
								S2528.4,1564.9,2553.5,1492z"/>
						</g>
						<g>
							<path class="st10" d="M2664.5,1401.3c0,0-27.9-17.7-51.7-19.3s-32.8-0.7-40.9,3.5c-4.6,2.4-8.3,4.6-10.7,6.1
								c-12-14.3-3-30.5,0.7-50.7c4-21.6-7.8-24.8,1.8-39.5c9.7-14.7,31.6-14.9,39.7-7.1c8.1,7.8,16.3,2.8,28.2,15.7
								c11.9,12.9-1.6,21.6,18,37.6C2667.9,1362.6,2666.1,1386.9,2664.5,1401.3L2664.5,1401.3z"/>
							<g>
								<path class="st7" d="M2589.3,1362.6c0,0-14.7,3.2-16.6-11.7c-2-14.9,3.9-32.2,3.9-32.2s10.6,16.1,31.2,15.4
									c0,0,4.2-5.9,7.8-2.8c3.7,3,5.4,6.9-4.2,20.1s-0.4,29.4-0.4,29.4s-25.6,31.6-23.9-0.1L2589.3,1362.6z"/>
								<path class="st11" d="M2589.3,1362.6c0,0,5.5-0.9,10.2-3.1c0,0-3.9,3.8-10.5,5.5L2589.3,1362.6z"/>
							</g>
						</g>
						<g>
							<path class="st12" d="M2460,1412.9l66.4,23.4c0,0,2.3,1.7,15.4-21.6c19.9-35.4,45.2-34.1,45.2-34.1
								c-1.7,31.7,23.9,0.1,23.9,0.1l0,0l0,0c0,0,35.1,2.7,54.5,21.4c19.5,18.6,56.2,53.7,53.3,71.1c-2.9,17.4-65.2,40.4-65.2,40.4
								l-4.6-11.3c0,0,33-23.4,35.9-34.7c2.8-11.4-31.4-34-36.4-35.2c-5-1.2-10,14.5-11.9,28.8c-1.9,14.3,3.9,33.7,3.9,33.7
								l-86.9-2.9c0,0,11.1-30.1,6.4-50.8c-8.9,12-24.1,24.8-33.1,24.3c-7.8-0.5-72.9-45.1-72.9-45.1L2460,1412.9z"/>
							<g>
								<path class="st8" d="M2454,1420.4c0,0-3.2-1.4-7.9-4.3s-9.6-10.7-6.7-15.4c1.5-2.5,9.2,6.7,11.4,7.1c1.7,0.3-3.2-6-1.6-6.6
									c1.6-0.6,6.6,5.2,8.3,7.4c1.6,2.2,2.6,4.4,2.6,4.4L2454,1420.4z"/>
								<path id="XMLID_1_" class="st8" d="M2625.9,1493.8c11.6-5,23.1,8.5,23.1,8.5l0,0l4.6,11.3l-3.9,2.3
									c-4.6,3.9-13.2-5.3-16.4-8.1c-3.2-2.8-6.7-0.6-9.3-1.2S2618.2,1497.1,2625.9,1493.8z"/>
							</g>
						</g>
					</g>
				</g>
				<g>
					<g>
						<g>
							<g>
								<path d="M2177.5,1835.8c1.8,3.4,4.1,9.1,3.8,9.8c-0.5,1.1-17.9,0.3-18.1-0.6c-0.1-0.6,1.6-6.1,2.7-9.5L2177.5,1835.8z"/>
								<path id="XMLID_7_" d="M2253.7,1831.7c0,0-0.5,9.8-0.2,10.4c0.3,0.6,22.1,1,23.7,0.8c1.5-0.2,1.2-2.7,0.9-3.1
									c-0.3-0.4-7.1-5-8.8-5.9c-1.7-0.9-3.2-2.3-3.2-2.3H2253.7z"/>
								<path class="st13" d="M2197.6,1549c21,2.3,48.1,2.1,78.7-6c2.3,20,4.1,61.1-5.7,128.7c0,0-0.5,138.1-4.5,160h-12.4
									c0,0-28.9-68.7-26.8-151.7C2226.9,1680,2211.2,1607.8,2197.6,1549z"/>
								<path class="st14" d="M2158.2,1540.4c11.8,4.1,42.2,12.7,82.6,8.9c-4,33.3-14.5,113.7-25.6,148.7
									c-20.7,65.1-37.8,137.9-37.8,137.9l-11.6-0.3c0,0-8.4-98-4.1-147.3C2161.8,1688.3,2155.1,1614.6,2158.2,1540.4z"/>
							</g>
						</g>
						<g>
							<g>
								<g>
									<path class="st8" d="M2293.9,1414.9c3.7,6.7,6.9,13,9,18.4c0,0,65.6-37.2,82.3-45.6l0,0c0.1-0.5,0.9-5.8,3.2-8.7
										c2.4-3,4.6-7.1,5.6-5.8c0.9,1.3-1.6,5.2-1,5.7c0.3,0.3,3.2-2,5.5-4.1c1.1-0.9,2.3-2,2.9-3c0,0,0,0,0,0c0,0,0-0.1,0.1-0.1
										c1.4-2.3,0.5-2.7,2.1-4.2c1.7-1.5,2.3,1.4,2.4,1.4c0.7,2.2,1.1,5.7,0.3,7.8c-1.2,2.9-2.1,10-13.4,17.4l0,0l-7.1,8.4
										c0,0-63.5,67.1-83.4,69.4c-8.2,0.9-24-14.4-39-34.6L2293.9,1414.9z"/>
									<path class="st15" d="M2187.8,1429.8l-38.3-7.9c22.6-75.8,53.1-77.9,53.1-77.9c-0.9,10.8,17.6,13.7,20.4,14
										c2.2,0.2,9-10.1,9-10.1c24.2,1.5,61.9,67,61.9,67l-28,20.5l0.7,6.2c0.1,0.4,14.6,100.5,14.6,100.5
										c-73.6,21.2-128.3-3.3-128.3-3.3l1.8-52.3L2187.8,1429.8z"/>
									<path class="st8" d="M2149.5,1421.9l38.3,7.9c-4.3,10.7-8.9,20.5-13.2,27.6c0,0,69.1,30,85.9,38.3l0,0c0,0,5-2.8,8.9-2.7
										c3.9,0.1,8.5-0.6,8,1c-0.5,1.6-5.1,1.9-5.2,2.6c-0.1,0.5,3.5,1.3,6.6,1.9c1.4,0.4,3,0.6,4.2,0.5c0,0,0,0,0,0
										c0,0,0.1,0,0.1,0c2.7-0.3,2.5-1.3,4.6-0.9c2.2,0.4,0.3,2.7,0.4,2.7c-1.4,1.9-3.9,4.3-6.1,4.9c-3.1,0.8-9.3,4.3-22-0.3l0,0
										l-10.9-0.6c0,0-91.8-10.4-105.6-24.9C2137.2,1473.6,2141,1448.5,2149.5,1421.9z"/>
								</g>
								<g>
									<path class="st16" d="M2204,1371.1L2204,1371.1c0,0-2.4,47.4-22.7,85.1c0,0,16.8,11.5,33.2,18.7c-20.7-9.1-40-17.5-40-17.5
										C2186.6,1437.4,2201.3,1396.7,2204,1371.1z"/>
									<path class="st17" d="M2253.6,1377.1L2253.6,1377.1c0,0,9.7,20.5,15.2,56.1l-3,2.2
										C2263.2,1412.7,2259.6,1392.7,2253.6,1377.1z"/>
								</g>
							</g>
							<g>
								<g>
									<g>
										<path class="st7" d="M2234.8,1320.7c-11.3,1.1-17.5,3.5-17.8-1.2c-0.2-3.8-1-16.2-1.2-20.8l0.3-0.3
											c12.8,3.9,25.5-5.8,27.4-7.3c0.1,0,0.2,0,0.3,0c0.2,1.7,1.7,16.7,1.9,29.1C2245.3,1320.2,2240.2,1320.2,2234.8,1320.7z"/>
										<path class="st7" d="M2199.8,1301.6c3.1-2.3,5.7-1.2,7.4,0.3c0,0,0,0,0,0c1,1.3,1.9,3,2.7,5.1c2.6,7.1,3.5,17.8,3,25.6
											c-0.3,5.5,8.2,8.4,17.2,8.8l1.8,6.5c0,0-6.8,10.3-9,10.1c-2.8-0.3-21.3-3.2-20.4-14c0.3-3.1,0.5-6,0.7-8.8
											c0.8-11.3,0.7-19.4-2.9-22.6C2195.9,1308.8,2197.6,1303.3,2199.8,1301.6z"/>
									</g>
									<path class="st11" d="M2221.8,1342.9c-10.6-1.5-8.7-8.5-8.7-8.5s0,0,0,0c1.4,4.4,9,6.8,17,7.1l0.5,1.7
										C2228.4,1343.2,2225.8,1343.4,2221.8,1342.9z"/>
									<path class="st11" d="M2227.2,1298.9c8.3-1.6,15-6.7,16.3-7.7c0.1,0,0.2,0,0.3,0c0,0.3,0.1,1,0.2,2.1
										c-1.7,0.2-3.5,0.8-6.8,3.1C2234.6,1298,2230.8,1298.7,2227.2,1298.9z"/>
								</g>
								<path class="st18" d="M2197.9,1278.3c13.7-1.2,31.5-19.9,46.3-14.3c14.3,5.5,11.8,25.7-0.4,27.1c-0.1,0-0.2,0-0.3,0
									c-1.9,1.5-14.6,11.1-27.4,7.3l-0.3,0.3c0.3,4.5,1,16.9,1.2,20.8c0.2,4.7,7.6-0.5,18.9-1.6c5.4-0.5,9.4,2.3,9.7,2.3
									c0,0,0,0,0,0s5.8,15.1,2.9,17.5c-3.5,2.8-11.1,4.1-18.3,3.8c-9-0.4-17.6-3.3-17.2-8.8c0.5-7.8-0.4-18.5-3-25.6
									c-0.7-2-1.6-3.8-2.7-5.1c0,0,0,0,0,0c-1.7-1.5-4.3-2.7-7.4-0.3c-2.2,1.7-3.9,7.2,0.5,11c3.7,3.2,3.8,11.3,2.9,22.6
									c-1.7-2.5-3.9-5.9-5.4-7.8c-2.5-3.3,0.1-17.6-5-22.7C2187.7,1299.6,2186,1279.4,2197.9,1278.3z"/>
							</g>
						</g>
					</g>
				</g>
				<g>
					<g>
						<g>
							<g>
								<path class="st5" d="M648.1,1082v-41.6c0-14.2,1.5-28,4.3-41.4h-2c-14.8,0-26.9,12.1-26.9,26.9v65
									c0,14.8,12.1,26.9,26.9,26.9h0.9C649.2,1106.2,648.1,1094.2,648.1,1082z"/>
								<g>
									<g>
										<g>
											<path class="st15" d="M1744.6,601.4c0,0-392.6,227.8-689.1,227.8v232v232c296.6,0,689.1,245,689.1,245l-14.7-477
												L1744.6,601.4z"/>
											<g>
												<g>
													<path class="st19" d="M1737.4,1560.6c-9.5,0-47.5-9-86.6-141.8c-27.6-93.6-42.8-217.6-42.8-348.9
														c0-131.4,15.2-255.3,42.8-348.9c39.8-135.1,79.2-141.9,86.7-141.9c7.1,0,46.8,6.8,86.6,141.9
														c27.6,93.6,42.8,217.6,42.8,348.9c0,131.4-15.2,255.3-42.8,348.9C1784.9,1551.5,1746.8,1560.6,1737.4,1560.6z"/>
													<path class="st14" d="M1744.6,1537.4c-8.2,0-41-7.9-74.8-134.6c-23.8-89.4-36.9-207.6-36.9-333
														c0-125.4,13.1-243.6,36.9-333c34.4-128.9,68.3-135.4,74.8-135.4c6.1,0,40.3,6.5,74.7,135.4
														c23.8,89.4,36.9,207.6,36.9,333c0,125.4-13.1,243.6-36.9,333C1785.5,1529.6,1752.7,1537.4,1744.6,1537.4z"/>
												</g>
												<g>
													<path class="st20" d="M1728.1,940.2l-81.7-18.1c-2.4-0.5-4.7-0.9-7.1-1.2c-4.2,47.4-6.4,97.6-6.4,148.9
														c0,51.3,2.2,101.4,6.4,148.9c2.3-0.3,4.7-0.7,7.1-1.2l81.7-18.1c30.3-6.7,52.9-42.2,52.9-79.6v-100.1
														C1780.9,982.4,1758.4,946.9,1728.1,940.2z"/>
													<path class="st21" d="M1767,1027.3c-2.8-32.8-8.6-55.5-15.4-55.5c-9.4,0-17.1,43.9-17.1,98c0,54.1,7.7,98,17.1,98
														c6.8,0,12.6-22.7,15.4-55.5V1027.3z"/>
												</g>
											</g>
										</g>
										<g>
											<g>
												<path class="st22" d="M983,827.8v466.9l-51.8,1l-8.2,0.2l-50.2,1c-1,0-1.9,0-2.9,0c-0.2,0-0.4,0-0.5,0
													c-0.2,0-0.5,0-0.7,0c-0.2,0-0.4,0-0.6,0c-0.1,0-0.2,0-0.3,0c-0.6,0-1.2,0-1.8,0c-0.3,0-0.6,0-0.9,0
													c-0.6,0-1.2,0-1.8-0.1c-0.7,0-1.4-0.1-2.1-0.1c-0.8,0-1.6-0.1-2.5-0.1c-0.4,0-0.8,0-1.3-0.1c-0.7,0-1.4-0.1-2-0.1
													c-0.3,0-0.6,0-0.9-0.1c-0.1,0-0.3,0-0.4,0c-0.1,0-0.2,0-0.4,0c-0.2,0-0.4,0-0.5,0c-0.8,0-1.5-0.1-2.3-0.2
													c-0.6,0-1.2-0.1-1.9-0.2c-0.8-0.1-1.5-0.2-2.3-0.2c-0.5,0-1.1-0.1-1.6-0.2c-0.7-0.1-1.4-0.2-2.1-0.2v0
													c-0.4,0-0.7-0.1-1.1-0.1c-3.8-0.5-7.7-1.1-11.5-1.8c-0.7-0.1-1.3-0.2-2-0.4c-0.2,0-0.4-0.1-0.6-0.1
													c-0.7-0.1-1.3-0.3-2-0.4c-3-0.6-6-1.3-9-2c-0.7-0.2-1.3-0.3-2-0.5c-0.1,0-0.3-0.1-0.4-0.1c-0.7-0.2-1.3-0.3-2-0.5
													c-2.2-0.6-4.4-1.2-6.6-1.8c-1.5-0.4-2.9-0.9-4.3-1.3c-0.7-0.2-1.4-0.5-2.2-0.7c-0.7-0.2-1.4-0.5-2.1-0.7
													c-1.4-0.5-2.9-1-4.3-1.5c-0.7-0.3-1.4-0.5-2.1-0.8c-1.4-0.5-2.8-1.1-4.2-1.6c-0.7-0.3-1.4-0.6-2.1-0.8
													c-0.7-0.3-1.4-0.6-2.1-0.8c-4.1-1.7-8.2-3.5-12.2-5.5c-0.7-0.3-1.3-0.7-2-1c-0.7-0.3-1.3-0.7-2-1c-0.7-0.3-1.3-0.7-2-1
													c-2.7-1.4-5.3-2.9-8-4.4c-65.8-37.7-110-106.2-110-184.2v-41.6c0-118.2,101.7-214.9,226.1-214.9L983,827.8z"/>
												<polygon class="st5" points="983,1294.7 1055.5,1293.2 1055.5,829.2 983,827.7 												"/>
											</g>
										</g>
									</g>
									<g>
										<path class="st23" d="M1085.3,1849.4l-127.9,17.2c-0.1,0-0.2,0-0.3,0c-0.7,0-2.3-0.5-4.4-2.5c-2.7-2.6-4.9-6.5-6.1-11
											c-10.7-38.7-24.1-102.1-38.1-174.5c-2.1-10.9-4.2-21.9-6.3-33.1c-1.4-7.3-2.7-14.7-4.1-22.1c-0.4-2.3-0.9-4.7-1.3-7
											c-5.7-31-11.3-62.7-16.8-94.1c-0.4-2.3-0.8-4.7-1.2-7c-5.6-32.1-10.9-63.9-15.9-94c-0.4-2.3-0.8-4.7-1.2-7
											c-5-30.6-9.6-59.4-13.6-85.3c-0.4-2.9-0.9-5.8-1.3-8.7c-0.4-2.3-0.7-4.7-1.1-7c-0.9-6-1.8-12-2.7-18v0
											c2.4,0.3,4.9,0.6,7.3,0.8c3.5,0.3,7.1,0.6,10.7,0.8c0.7,0,1.4,0.1,2.1,0.1c0.6,0,1.2,0,1.8,0.1c0.3,0,0.6,0,0.9,0
											c0.6,0,1.2,0,1.8,0c0.1,0,0.2,0,0.3,0c0.2,0,0.4,0,0.6,0c0.2,0,0.5,0,0.7,0c0.2,0,0.4,0,0.5,0c1,0,1.9,0,2.9,0l50.2-1
											l8.2-0.2l112.4-2.3c0,1.1,0,2.2,0,3.3c2,140.3,32.3,437.4,48,535.3C1093.1,1840.9,1088.8,1848.2,1085.3,1849.4z"/>
										<path class="st24" d="M1044.5,1352.9c-10.4-2.4-21.9-5.2-34.7-8.5c-22.3-5.8-51.7-8.8-80.9-10.2c-2.7-0.1-5.5-0.3-8.2-0.4
											c-26.5-1.1-52.3-0.9-71.7-0.5c-0.2-1.5-0.5-3-0.7-4.5c-0.4-2.9-0.9-5.8-1.3-8.7c-0.4-2.3-0.7-4.7-1.1-7
											c-0.9-6-1.8-12-2.7-18v0c1,0.1,2.1,0.3,3.1,0.4c0.4,0,0.7,0.1,1.1,0.1c1,0.1,2,0.2,3,0.3c0.2,0,0.3,0,0.5,0
											c0.8,0.1,1.5,0.1,2.3,0.2c0.2,0,0.4,0,0.5,0c0.1,0,0.2,0,0.4,0s0.3,0,0.4,0c1,0.1,1.9,0.1,2.9,0.2c0.4,0,0.8,0.1,1.3,0.1
											c0.8,0,1.6,0.1,2.5,0.1c0.7,0,1.4,0.1,2.1,0.1c0.6,0,1.2,0,1.8,0.1c0.3,0,0.6,0,0.9,0c0.6,0,1.2,0,1.8,0
											c0.1,0,0.2,0,0.3,0c0.2,0,0.4,0,0.6,0c0.2,0,0.5,0,0.7,0c0.2,0,0.4,0,0.5,0c1,0,1.9,0,2.9,0l50.2-1l8.2-0.2l112.4-2.3
											c0,1.1,0,2.2,0,3.3C1043.9,1315.8,1044.1,1334.5,1044.5,1352.9z"/>
									</g>
								</g>
							</g>
							<g>
								<path class="st25" d="M833.2,1847.4l5.3-85.2H672.8l-6.2,85.2h-8.3L726.5,911l8.2,0.6l-5.1,69.8h157.2l4.4-70.3l8.2,0.5
									l-57.9,935.9H833.2z M673.3,1755.6h165.6l5.6-90H679.8L673.3,1755.6z M680.3,1658.8h164.5l5.6-90H686.9L680.3,1658.8z
									 M687.4,1562h163.5l5.6-90H693.9L687.4,1562z M694.4,1465.3h162.4l5.6-90H700.9L694.4,1465.3z M701.4,1368.5h161.4l5.6-90
									H708L701.4,1368.5z M708.5,1271.7h160.3l5.6-90H715L708.5,1271.7z M715.5,1174.9h159.3l5.6-90H722.1L715.5,1174.9z
									 M722.6,1078.2h158.2l5.6-90H729.1L722.6,1078.2z"/>
							</g>
						</g>
						<g>
							<g>
								<g>
									<path class="st26" d="M1975.9,1689l11.6-4.6c0,0,1,1.4,3.3,0.7c2.2-0.7,6.1-8,11.5-10.8c5.4-2.8,11.8-3,14.2,0.2
										c1.4,1.8-30.3,21.7-34.3,22.9C1978.1,1698.5,1977.3,1692.3,1975.9,1689z"/>
									<path class="st27" d="M1876.5,1484.3c9.3,3.3,18.8,10.1,26.9,23c25,40.1,84.2,177.1,84.2,177.1l-11.3,5.5
										c0,0-56.9-55.9-99.9-125.1c-0.4-24.3-1.8-44.9-4.8-55.7c-3.7-13.2-15.4-20.7-29.3-24.7c0,0,0.1,0,0.1,0H1876.5z"/>
								</g>
								<g>
									<path class="st26" d="M1861.3,1721.4l11.2-0.7c0,0,2,6,4.2,6.7s13.5-6.5,19.3-5.5c5.8,1,6.4,4.4,6.9,6.6
										s-39.1,6.9-42.7,5.1C1859.4,1733.3,1860.7,1723.1,1861.3,1721.4z"/>
									<path class="st28" d="M1872.5,1720.8L1872.5,1720.8l-11.3,0.7v0c-40.6-162.7-19.2-179.8-27.6-182.6c-4.2-1.4-33,0.6-63.5,0
										c-7.4-0.2-15-0.5-22.3-1.1h0c-1.1-0.1-2.1-0.2-3.2-0.3c-0.4,0-0.8-0.1-1.2-0.1c-1.7-0.2-3.3-0.3-4.9-0.5c0,0,0,0,0,0
										c-4.1-1.6-9.6-5-16-12.1c-9.6-10.6-21.4-29.4-33.9-62.8c0.7,0.3,1.3,0.6,2,0.9c0,0,0.1,0,0.1,0.1
										c20.9,9.2,46.2,16.1,51.6,18.3l0.5,0.2c0,0,0,0,0,0c0,0,0.1,0,0.1,0c0.3,0.1,0.4,0.2,0.4,0.3c0,0.1,0,0.1-0.1,0.1
										c-0.1,0.1-0.2,0.1-0.3,0.2c-1.9,0.7-10.1,0.1-11.6,0.1c-1.7,0-2.9,1.2-1.6,1.7c0.6,0.2,6.5,0.3,13.2,0.2
										c9.2,0,19.7-0.2,19.7-0.2c10.8,0,20.5-0.1,29.1-0.1v0c3.3,0,6.5,0,9.5,0c18.5,0,31.6,0,41.1,0.5c1.9,0.1,3.7,0.2,5.3,0.3
										c0.2,0.1,0.4,0.2,0.7,0.3c10.4,4.5,21.1,12.8,24,23.4c3.1,11,4.5,32.5,4.8,57.8v0C1878.1,1631,1872.5,1720.8,1872.5,1720.8
										z"/>
								</g>
							</g>
							<g>
								<path class="st12" d="M1766.3,1277.5c0.1-0.3,0.1-0.6,0.2-1c0.1-0.3,0.1-0.7,0.2-1c0.1-0.3,0.1-0.7,0.1-1.1
									c0-0.4,0.1-0.7,0.1-1.1c0.1-0.7,0.1-1.4,0.2-2.1c0-0.4,0.1-0.8,0.1-1.2c0-0.4,0.1-0.8,0.1-1.3c0,0-11.9-13.7-14-20.3
									c0,0-5.3,17.2-17,19c-1,0.2-2,0.2-3.1,0.1c0,0-2.2-7.5-8.3-5.1c-6.1,2.4-7.5,13-0.5,16.7c2.5,1.3,3,5.2,2.6,9.7
									c0,0.3,0,0.6-0.1,0.9c0,0.1,0,0.1,0,0.2c-0.1,0.7-0.2,1.4-0.3,2.2c-0.1,0.4-0.1,0.8-0.2,1.2c-32.2-6.4-27-36.2-9.8-55.7
									c-3.7-2.7-8.7-4.1-14,0.3c-10.9,9-2.3,57.7-19.6,68.3c-7.7,4.7-21,2.5-33.2-1.7c-1.2-7.8-2.4-15.7-3.4-23.7
									c12.7-5,26.1-13.3,28.2-27.8c3.8-27,30.8-60,55.3-26.5c1.7-1,3.5-2,5.2-2.8c10.1-4.5,21-4.8,30.4,2.5
									C1796.1,1249.7,1774.4,1271.1,1766.3,1277.5z"/>
								<g>
									<path class="st7" d="M1745.9,1298.9c0,0,19.6,3.8,21.4-30.1c0,0-11.9-13.7-14-20.3c0,0-6.3,20.3-20.2,19.1
										c0,0-2.2-7.5-8.3-5.1c-6.1,2.4-7.5,13-0.5,16.7c7,3.7-1.7,27.7-1.7,27.7s4.4,26.4,16.2,24.6c11.8-1.9,6.1-20.4,6.1-20.4
										L1745.9,1298.9z"/>
									<path class="st11" d="M1745.9,1298.9l-0.5,5.8c-10.4-5.8-10.2-12.5-10.2-12.5C1742.1,1298.6,1745.9,1298.9,1745.9,1298.9z"
										/>
								</g>
							</g>
							<g>
								<g>
									<path class="st29" d="M1830.6,1407.2c-1,0-2.1,0-3.3,0c-2.8,0-5.9-0.1-9.2-0.1c-12.9-0.1-27.7-0.1-29.2,0.3
										c-2.7,0.8-4.9,1.5-6.5,4.4c-1.6,2.9-27.7,69.7-28.6,70.1c-0.5,0.2-6.1,0.2-10.7,0.1c-0.1,0-0.2,0-0.3,0c-0.1,0-0.2,0-0.4,0
										c-0.6-0.2-1.2-0.3-1.8-0.5c-16.6-4.8-35.2-10.7-50.4-18.5c-0.7-0.4-1.2-0.5-1.9-0.9l-0.1-0.2c-6-16.1-12.3-35.5-18.5-59
										c-2.3-8.8-4.6-17.9-6.7-27.2c0,0,0,0,0,0c1.3-4.3,2.8-8.6,4.5-12.7c11.2-30.7,31.2-57.8,55-56c0,0,2.5,15.1,8.8,21.6
										c0.3,0.3,0.5,0.5,0.8,0.8c0.3,0.2,0.5,0.4,0.8,0.7c0.4,0.3,0.8,0.6,1.3,0.8c0.3,0.1,0.6,0.3,0.9,0.4c0.9,0.3,1.9,0.5,3,0.4
										c0.2,0,0.4,0,0.6-0.1c11.8-1.9,6.1-20.4,6.1-20.4l0.3-3.6c11.3,3.1,33.3,13.3,50.1,47.2c7.8,15.8,17.3,29.8,25.9,40.9
										c2.4,3.1,4.7,6,7,8.6c0.6,0.7,1.2,1.4,1.8,2.1C1830.2,1406.7,1830.4,1406.9,1830.6,1407.2z"/>
									<g>
										<g>
											<g>
												<path class="st30" d="M1756.2,1473.8c0,0-61.3-41.8-66.9-51c-5.5-9.2,13.4-61.9,15.6-61.3c2.2,0.6-15.9,49.4-8.6,61.1
													c9,14.3,60,51.1,60,51.1L1756.2,1473.8z"/>
												<path class="st30" d="M1788.1,1406.8c-0.7,0.1-2.2,0.7-3.4,1.6c-2.2-10.6-8.7-43.1-4.9-39.8c0,0,2.5,20,13.1,38
													C1791.3,1406.6,1788.8,1406.6,1788.1,1406.8z"/>
											</g>
										</g>
										<path class="st8" d="M1754,1481.7l-11.3-0.2l-0.5-0.2l14.3-7.5c0,0,0.1,0,0.2,0.1L1754,1481.7z"/>
									</g>
								</g>
								<g>
									<path class="st31" d="M1730,1481.5h23.7c0-0.6,0.1-1.2,0.4-1.9l27.6-67.8c1.2-2.9,4.8-5.3,7.9-5.3h122.8
										c3.2,0,4.8,2.4,3.6,5.3l-27.6,67.8c-1.2,2.9-4.8,5.3-7.9,5.3h-106.2h-16.6H1730c-1,0-1.7-0.8-1.7-1.7
										C1728.3,1482.2,1729.1,1481.5,1730,1481.5z"/>
									<circle class="st32" cx="1837.8" cy="1445.7" r="13"/>
								</g>
							</g>
						</g>
					</g>
					<g>
						<g>
							<g>
								<g>
									<path class="st8" d="M1024.7,475.8c-0.8-0.6-1.4-0.7-2-0.5c-0.2,0.1-0.4,0.2-0.6,0.4c-0.5,0.5-0.9,1.5-1.3,2.7
										c-0.4,1.7-2.4,3.4-4.3,4.1c-0.1,0-0.1,0-0.2,0.1c-0.1,0-0.2,0-0.2,0.1c-0.1,0-0.2,0-0.2,0.1c-0.8,0.2-1.5,0.1-2-0.1
										c-2.4-1.2,0.9-7.9,2.4-11c0.2-0.5,0.4-0.9,0.6-1.1c0,0,0,0,0,0c0.8-1.8,3.9-2.1,6.6-3.5c-2.6-0.7-5.1,0.3-7.3,0.7
										c-2.6,0.4-2.9,1.1-5.3,1.4c-2.5,0.3-3,0-3,0l-5.2,15.5l2.9,0.8l14.4,9.2c0,0,1.4,0.8,3,0.7c1.7-0.1,1.8-1.6,1.8-1.6
										s1.9,0.5,2.9-0.1c1.5-0.8,1-2,2.2-2.1c3.7-0.5,3.2-2.6,3.2-2.6s1.2-0.3,2-0.6c0.8-0.4,1.5-1.4,1.5-2.3
										c-0.1-0.8-0.6-1.7-0.7-1.9C1035.7,483.7,1026.7,477.2,1024.7,475.8z"/>
									<path class="st7" d="M1035.4,468.3c-0.8,0.1-1.4,0.3-4.9-0.9c-3.6-1.1-4-2.4-6.8-0.8c-2.8,1.5-6.1,1.8-7,3.6
										c-0.9,1.9-5.9,10.8-3.1,12.2c2.1,1.1,6.6-1.4,7.3-4c0.7-2.6,1.7-4.1,3.7-2.7c2,1.4,11.1,7.9,11.1,7.9l3.2-1.3L1035.4,468.3
										z"/>
									<path class="st7" d="M1020.7,494.7c0,0-2,2.2-3.4,1.2c-1.4-1-1.2-1.5-1.5-1.7c-0.4-0.2-2-0.2-2.6-1c-0.6-0.9-0.3-1-0.6-1.1
										c-0.3-0.2-2,0.6-3.4-0.8c-1.4-1.4-0.6-2.2-0.9-2.8c-0.4-0.5-2.7-0.1-3.3-1.8c-0.6-1.7,0.2-3.1,0.7-3.3
										c0.4-0.1,2.4,0,3.3,1.2c0.9,1.2,1.1,2.1,1.4,2.4c0.3,0.3,2,0.1,3,0.9c1,0.8,1.3,1.5,1.6,1.8c0.3,0.2,1.6,0.1,2.5,1
										c0.9,0.9,0.8,2,1.3,2.5C1019.1,493.5,1019.9,492.5,1020.7,494.7z"/>
								</g>
								<g>
									<g>
										<g>
											<g>
												<path id="XMLID_83_" d="M1183.5,825.7c0,0,1.5,17.4,0.9,18.5c-0.6,1.1-37.9,1.9-40.6,1.5c-2.7-0.4-2.2-4.8-1.6-5.5
													c0.6-0.7,14.2-9.1,17.3-10.6c3.1-1.6,5.4-3.1,5.4-3.1L1183.5,825.7z"/>
												<path class="st33" d="M1164.3,520.8l-1.3,306.4l21.3-1.1l48.3-292.8C1187.7,534.5,1164.3,520.8,1164.3,520.8z"/>
											</g>
											<g>
												<path d="M1274.5,828.2l-21.1,0.9c-3.1,6.2-6.7,15.3-6.1,16.6c0.9,2,31.5,0.5,31.9-1.1
													C1279.4,843.6,1276.5,834.4,1274.5,828.2z"/>
												<path class="st14" d="M1194.5,530.5c12.1,125.6,58.5,299,58.5,299l22.1-1l2.1-300.6l0-0.3
													C1241.2,535.5,1213.4,534,1194.5,530.5z"/>
											</g>
										</g>
										<g>
											<g>
												<path class="st34" d="M1179.6,330.4c0,0-17.3,97.1-10.3,192.8v0c7.5,3.2,23.5,8.6,47.5,9.9c0,0,0,0,0,0
													c-18.8-117.3-4.8-216.2-4.5-217.9c0,0,0,0,0,0l-27.8,16.1L1179.6,330.4z"/>
												<path id="XMLID_82_" class="st35" d="M1182.3,348.7c-1.3-1.4-2-3.6-1.8-6.1c0.3-3.9,2.8-6.8,5.4-6.5
													c2.6,0.3,4.5,3.7,4.2,7.6c-0.2,2.4-1.2,4.3-2.6,5.4c0.3,2.7,0.4,6.1,0.2,9.5c-0.7,9.9,1.3,87.9,1.2,94.5
													c-0.1,6.6,1.4,24.3-7.8,24c0,0-8.8,1.2-8.8-23.3C1172.3,435.8,1178.3,364.5,1182.3,348.7z"/>
											</g>
											<g>
												<g>
													<g id="XMLID_69_">
														<path id="XMLID_76_" class="st36" d="M1284,543.1l2.9,9.7c1,3.2,4.4,5.1,7.6,4.1l25.9-7.8c3.2-1,5.1-4.4,4.1-7.6
															l-2.9-9.7c-1-3.2-4.4-5.1-7.6-4.1l-25.9,7.8C1284.9,536.4,1283.1,539.9,1284,543.1z M1287.6,542
															c-0.4-1.3,0.3-2.7,1.6-3.1l25.9-7.8c1.3-0.4,2.7,0.3,3.1,1.6l2.9,9.7c0.4,1.3-0.4,2.7-1.6,3.1l-25.9,7.8
															c-1.3,0.4-2.7-0.4-3.1-1.6L1287.6,542z"/>
														<path id="XMLID_74_" class="st37" d="M1265.4,641.3c1.1,3.7,4.7,5.9,7.9,5l114.2-34.4c3.2-1,5-4.8,3.8-8.5l-21.5-71.5
															c-1.1-3.7-4.7-5.9-7.9-5l-114.2,34.4c-3.2,1-5,4.8-3.8,8.5L1265.4,641.3z"/>
														<path id="XMLID_72_" class="st36" d="M1247.8,561.3l114.2-34.4c3.2-1,6.7,0.9,7.6,4.1l10.5,35c1,3.2-0.9,6.7-4.1,7.6
															l-114.2,34.4c-3.2,1-6.7-0.9-7.6-4.1l-10.5-35C1242.7,565.7,1244.5,562.3,1247.8,561.3z"/>
														<path id="XMLID_70_" class="st38" d="M1306.3,596c0.3,1,1.4,1.6,2.4,1.3l22.4-6.8c1-0.3,1.5-1.4,1.2-2.4l-2.7-9
															c-0.3-1-1.4-1.6-2.4-1.3l-22.4,6.8c-1,0.3-1.5,1.4-1.2,2.4L1306.3,596z"/>
													</g>
													<path class="st8" d="M1312.9,533.6c-0.4-1.9-3.4-9.2-5.2-13.6c-1.4,0.8-4,1.8-8.9,2.9c-3.9,0.9-6.8,1.2-8.8,1.3
														c-1.1,4.6-2.4,11-1.3,11c1.9,0,5.3-2.7,6.1-0.9c1.4,3.4-2.3,2.3-2,4.9c0.2,2,1.6,3.8,6.6,3.4
														C1304.5,542.2,1313.7,537.3,1312.9,533.6z"/>
												</g>
												<g>
													<path class="st14" d="M1292.1,424.4c-14.6-107.1-78.4-108.7-79.8-109.3l0,0c0,0,0,0,0,0c-0.3,1.8-14.3,100.7,4.5,217.9
														c0.5,3.1,1,6.1,1.5,9.2l62.7-10.9l-6.7-53.9l13.9,48.3c0,0,3,0.8,11.2-1c8.3-1.9,9.4-3.6,9.4-3.6v0L1292.1,424.4z"/>
													<path class="st33" d="M1274.3,477.4l6.7,54l-62.7,10.9c0,0,47.5-8.2,49.3-20.9c4.3-30.1-35.3-166.7-35.3-166.7
														L1274.3,477.4z"/>
												</g>
											</g>
											<g>
												<path class="st14" d="M1179.6,330.4l-2.9-0.5c0,0,0,0,0,0c-16.6,8.5-27.5,77.9-44.4,96.1
													c-17.9,19.3-96.8,42.3-96.8,42.3l3.5,14.1c0,0,89.6-6,121.5-22l-0.3,1.4l-7.2,64.9l16.9,3.9c-0.2-2.5-0.4-4.9-0.6-7.4
													C1162.3,427.5,1179.6,330.4,1179.6,330.4z"/>
												<path class="st33" d="M1170.8,354.4L1170.8,354.4c0,0-7.8,24.9-10.5,63.2c-2.6,38.2-3,39-4.4,41.5
													c-1.4,2.6-11.1,7.2-11.2,7.3c6.1-1.8,11.5-3.8,15.7-6C1161.5,418.5,1166.7,379,1170.8,354.4z"/>
											</g>
										</g>
									</g>
									<g>
										<path class="st7" d="M1207.6,300.2c-6-1-10.8-3.6-14.7-12.7c-6.1-14.2-11.5-1.2-12.5,0.2c-1,1.4-4.5,1.4-4.7-2.7
											s0.6-14.4,3.9-17.3c3.4-2.9,2.1-6.4-6.1-3.5c-4.1,1.5-7.6,2.9-10.6,3.1c-0.4,0.5-1.5,2.5-4,10.6
											c-3.3,10.7-3.4,22.9-3.4,22.9s-4.6,3.5-3.2,11.1c1,5,9.6,10.1,21.1,6.4l3.5,11.8l7.5,1.2l27.8-16.1L1207.6,300.2z"/>
										<path class="st39" d="M1207.2,298.8c0,0-4.1-17.8-5.2-23.6c-1.1-5.8,0.4-7.7-1.5-10c0,0-10.2-8.7-24.2-8.8
											c-13-0.2-25.6,1-20.7,7.6c4.9,5.6,10.2,2.9,17.9,0.2c8.2-2.9,9.5,0.6,6.1,3.5c-3.4,2.9-4.2,13.2-3.9,17.3
											c0.2,4.1,3.7,4.2,4.7,2.7c1-1.4,6.4-14.4,12.5-0.2c3.9,9.1,8.7,11.7,14.7,12.7L1207.2,298.8z"/>
										<path id="XMLID_67_" class="st40" d="M1161.3,271.7c0,0-5.8,9.3-7.6,15.8c-1.8,6.5,4.8,6,4.8,6L1161.3,271.7z"/>
										<path id="XMLID_65_" class="st41" d="M1173.4,318.2c5.7-2.5,11.1-5.2,13.8-7.2l0,0l-12.2,12.7L1173.4,318.2
											C1173.4,318.2,1173.4,318.2,1173.4,318.2z"/>
									</g>
								</g>
							</g>
							<g>
								<g>
									<g>
										<path id="XMLID_64_" d="M893.3,826c0,0-0.1,16.2,0.5,17.3c0.6,1.1,37.6,1.3,40.3,0.8c2.4-0.5,1.7-2.5,1.1-3.2
											c-3.7-3.7-13.3-9-16.3-10.6c-3-1.5-4.7-5.5-4.7-5.5L893.3,826z"/>
										<path d="M821,830.5l20.2,0.2c3.5,7,7.3,13.5,6.7,15c-1,2.2-29.9,2-31.2,0.8C814.4,844.4,818.7,837.5,821,830.5z"/>
									</g>
									<g>
										<g>
											<path class="st37" d="M990.9,624.7l-11.1-67c-0.6-3.5-3.6-5.9-6.7-5.4l-36.6,6l-1-6.3c-0.5-3-3.4-5.1-6.5-4.6l-6.2,1
												l-0.1,3.4l6.9-1.1c1.2-0.2,2.4,0.6,2.6,1.8l1,6.3l-11.2,1.8l-2.8,82.2l67.2-11C989.4,631.4,991.4,628.1,990.9,624.7z"/>
											<path class="st8" d="M928.5,552.8c-0.3-2.8-5.3-17.2-5.3-17.2l-0.2,0l-0.8,22.5C925.7,556.7,928.7,554.7,928.5,552.8z"/>
										</g>
										<g>
											<g>
												<g>
													<path class="st13" d="M923.1,538.2L923.1,538.2l-0.3,10.3l-0.1,3.4l-0.2,6.1l-0.1,2.6l-6.3,267.1h-23.4l-19.6-171.9v0
														l-5.9-43.7l6.1-40.4l1.2-8l2.9-19.3c0.1,0,0.2,0,0.4,0h0.1c6.3-0.2,12.7-0.6,19.1-1.3c1.1-0.1,2.2-0.2,3.3-0.4
														c7.7-1,15.3-2.4,22.6-4.4C923,538.2,923.1,538.2,923.1,538.2z"/>
												</g>
											</g>
											<g>
												<g>
													<path class="st33" d="M897,543L897,543l-4,18.7l-19.9,94l-31.3,175.5h-22l-8.4-106l-6-160.1l-0.5-12.7l-0.7-19.1
														c1.9,3.8,35.6,11.9,73.6,11c0.3,0,0.6,0,1,0C884.7,544.1,890.9,543.7,897,543z"/>
												</g>
											</g>
										</g>
									</g>
								</g>
								<g>
									<path class="st34" d="M1007.8,468.9c0,0-64.5-29.2-72-34.3c-3.3-2.2-12.9-18.3-22.6-35.7c-5.7-33.7-11.2-57-11.2-57l0,0
										L865.2,327c0,0-25.8,25.3-34.4,48.4c-23.9,63.9-26.6,152.9-26.6,158c0,5.1,67.1,19.9,120.6,5.2c0,0,0,0,0,0
										c0.8-24.3-0.6-50.2-3-75c8.7,3.1,31.3,10.2,80.7,20.9L1007.8,468.9z"/>
									<g>
										<path class="st14" d="M896.1,367.8c2.7,5.1,5.9,11,9.3,17.2c-2-11.5-3.9-20.9-5.2-25.6c4.4-8.2-1.7-10.8-4-10.3
											c-2.3,0.6-7.4,4.1-0.4,11.1C895.8,362.5,895.9,365.1,896.1,367.8z"/>
										<g>
											<path class="st14" d="M917.2,461.7c-4.1-3.5-9.3-6.8-13.6-11.5c0.8,14.2,1.4,24.2,1.6,26.6c0.6,7.3,0.9,27.3,7.7,26.2
												c0,0,6.6,0.6,4.7-26.8C917.3,472.8,917.9,467.9,917.2,461.7z"/>
											<path class="st42" d="M917.2,461.7c-20.7-15.3-46.1-46-57.9-60.9c7.6,11.9,32.8,50.1,56.3,67.5c0,0-0.1,0.3,6.9,2.6
												c-0.1-2.4-0.6-5-0.7-7.4C916.2,461.6,917.2,461.7,917.2,461.7z"/>
										</g>
									</g>
								</g>
								<g>
									<g>
										<g>
											<path class="st8" d="M902.8,310.5c0.6,2.8,6.1,4.9,11.2,5.1c5.2,0.2,9.8-5,9.8-5s0,0,0,0c0,0,0,0,0,0l0,0v0
												c0,0,0.6-11.8-2.1-22.3c-1.9-7.4-2.9-9.6-3.3-10.3l0,0c-4.1-0.8-9.9-6.5-13.7-3.4c-1.5,1.2-0.3,6.3,0.2,7.7
												C905.9,285.3,902.2,307.7,902.8,310.5z"/>
											<path class="st8" d="M889.4,318.3c2.5-3.5,11-10.1,10.9-19.9c-0.1-9.8-8.7-8.8-11.3-4c-2.6,4.8,0.6,6.9-2.3,10.6
												c-3,3.6-13.5,3.2-13.5,3.2l0,0l-7.9,18.8l36.7,14.9l3-13.5c0,0,0,0,0.1,0C896,325.1,888,320.2,889.4,318.3z"/>
										</g>
										<path id="XMLID_63_" class="st39" d="M876,278.2c1.4-5.1,0-7.2,8.6-10.2c8.6-3.1,15.3-4.9,26.6-4.7c0,0,14.7-0.9,16.2,3.4
											c1.5,4.4-2.8,9.1-6.8,11.1c-4,2-11.3-7-15.9-3.2c-1.5,1.2-0.3,6.3,0.2,7.7c1,2.9-2.7,25.3-2.1,28.1
											c0.6,2.8,6.1,4.9,11.2,5.1c5.2,0.2,9.8-5,9.8-5s10,14.5,0.3,19.9c-8.4,4.6-37.2-8.7-34.7-12.2c2.5-3.5,11-10.1,10.9-19.9
											c-0.1-9.8-8.7-8.8-11.3-4c-2.6,4.8,0.6,6.9-2.3,10.6c-3,3.6-13.5,3.2-13.5,3.2S874.3,284.4,876,278.2z"/>
										<path id="XMLID_62_" class="st43" d="M919.8,281.9c0,0,5.3,10.6,6.9,17.5c1.5,6.9-5.3,6-5.3,6L919.8,281.9z"/>
									</g>
									<path class="st41" d="M890,320.3l13.6,14l1.3-5.9C904.9,328.3,895.7,325.2,890,320.3z"/>
								</g>
							</g>
						</g>
					</g>
				</g>
				<g>
					<g>
						<g>
							<path id="XMLID_193_" d="M1305.2,1831.3c0,0-0.6,10-0.2,10.7s22.5,1.1,24.1,0.8c1.6-0.2,1.3-2.7,0.9-3.1
								c-0.3-0.4-7.2-5.1-9-6c-1.8-0.9-2.6-1.2-2.6-1.2L1305.2,1831.3z"/>
							<path class="st44" d="M1275.5,1542.3c-5.4,0.6-11.9,0.3-18.6-0.5l48.4,289.5l13.2,1.2c0,0,6.3-297.9,6.3-297.7
								c0,0-1.2,0-3.5,0C1310.9,1536.9,1291.8,1540.6,1275.5,1542.3z"/>
						</g>
						<g>
							<path d="M1229,1833.8c1.9,3.5,4.2,9.3,3.8,10c-0.5,1.1-18.3,0.3-18.5-0.7c-0.1-0.6,1.6-6.2,2.8-9.7L1229,1833.8z"/>
							<path class="st45" d="M1275.5,1542.3c-23.8,2.4-66.8-11.6-66.8-11.6s-0.2-0.2-0.5-0.4l8.9,303.5l12.5,1
								c0,0,49.9-168,63.8-294.8C1287.4,1540.9,1281.3,1541.7,1275.5,1542.3z"/>
						</g>
					</g>
					<g>
						<g>
							<path class="st7" d="M1290.8,1294.6c0,0,12.9,37,2,43c-9.7,5.3-15,1.2-15,1.2l4.7,11.8c0,0,6.7,7,2,8.1
								c-4.7,1-31.1-4.4-32.1-12.4c-1-8.1,0.9-23.6-3.2-29.3c-4-5.7-6.9-5.9-4.4-13.1c2.5-7.1,9.8-4.5,10.6,3c0,0,6,0.7,5.4-4.4
								C1258.2,1280.8,1268.9,1301.3,1290.8,1294.6z"/>
							<path class="st18" d="M1302,1274.8c-6.4-20.8-23-10.3-29.4-5.5c-6.4,4.8-19.3-3.4-29,2.5c-9.6,5.9-7.7,17.4-7.7,17.4
								s-7.1,5.2-7.1,10.3c0,5.1,6.2,10.3,8.8,11.7c0,0,2.6,18.3,14.5,25l0,0c0-7.4-0.1-15.5-2.8-19.2c-4-5.7-6.9-5.9-4.4-13.1
								c2.5-7.1,9.8-4.5,10.6,3c0,0,6,0.7,5.4-4.4c-2.7-21.7,8-1.2,30-7.8C1290.8,1294.6,1308.4,1295.6,1302,1274.8z"/>
						</g>
						<path class="st11" d="M1268.9,1333.8c4.7,3.5,8.9,5,8.9,5l2.3,5.7C1273.2,1342.1,1268.9,1333.8,1268.9,1333.8z"/>
					</g>
					<g>
						<g>
							<g>
								<g>
									<g>
										<g>
											<path class="st5" d="M1413.9,1250.3c0,0-20,26.1-39.9,34.3l6.4,15.6l6.4,15.6c19.9-8.2,53-2.7,53-2.7l-14.2-31.6
												L1413.9,1250.3z"/>
											<path class="st46" d="M1425.6,1281.5l-11.7-31.2c0,0-1.4,1.8-3.8,4.7c-0.3,7.5,1.2,23.8,13.9,51.2
												c0.9,1.9-19.6,0.5-37.6,8.3l0.5,1.3c19.9-8.2,53-2.7,53-2.7L1425.6,1281.5z"/>
											<g>
												<g>
													<path class="st47" d="M1440,1314.8c-0.6,0.3-3.4,0.7-9.7-7.1c-4.4-5.5-8.9-13.4-12.5-22.2c-3.6-8.8-6-17.5-6.8-24.6
														c-1.1-10.2,1.4-11.7,1.9-11.9c0.5-0.2,3.3-0.8,9.7,7.1c4.4,5.5,8.9,13.4,12.5,22.2c3.6,8.8,6,17.5,6.8,24.6
														C1442.9,1312.9,1440.6,1314.5,1440,1314.8z"/>
													<path class="st48" d="M1439.8,1313.1c-0.6,0.2-3,0.6-8.8-7c-4.1-5.3-8.2-12.9-11.7-21.3c-3.5-8.4-5.9-16.7-6.7-23.3
														c-1.3-9.6,0.8-11,1.3-11.1c0.4-0.2,2.9-0.7,8.8,7c4.1,5.3,8.2,12.9,11.7,21.3c3.5,8.4,5.9,16.7,6.7,23.3
														C1442.3,1311.4,1440.4,1312.9,1439.8,1313.1z"/>
												</g>
												<g>
													<path class="st22" d="M1422.2,1273.5l-6,1.1c-0.2,0-0.3,0.1-0.5,0.1c1,3.3,2.3,6.7,3.7,10.2c1.4,3.4,3,6.7,4.6,9.8
														c0.1-0.1,0.3-0.2,0.4-0.3l5-3.5c1.8-1.3,2.4-4.3,1.3-6.8l-2.8-6.7C1426.9,1274.8,1424.4,1273.1,1422.2,1273.5z"/>
													<path class="st49" d="M1427.2,1278.2c-1.1-2.1-2.1-3.5-2.6-3.3c-0.6,0.3,0.1,3.4,1.6,7c1.5,3.6,3.2,6.4,3.9,6.1
														c0.5-0.2,0.2-1.9-0.5-4.1L1427.2,1278.2z"/>
												</g>
											</g>
										</g>
										<g>
											<g>
												<path class="st22" d="M1374,1284.7l-12.4,4.8c-8.3,3.4-12.5,12.7-9.2,20.7l1.2,2.8c3.3,7.9,12.8,11.6,21.1,8.1l12.1-5.3
													L1374,1284.7z"/>
												<polygon class="st49" points="1382,1317.9 1386.9,1315.8 1374,1284.7 1369.1,1286.6 												"/>
											</g>
											<path class="st50" d="M1374.7,1321.1l12.1-5.3l-0.5-1.3l0,0c0,0-15,7.8-22,7.4
												C1367.7,1322.7,1371.3,1322.5,1374.7,1321.1z"/>
										</g>
									</g>
									<g>
										<path class="st51" d="M1397.4,1339.5c-3.8-6.2-7.4-14.2-11.3-23.4l-11.4,5c-0.7,0.3-1.4,0.5-2,0.7
											c10,16.6,11.6,14,16.5,20.4c0.2,0.3,0.5,0.5,0.7,0.6c0.2,0.1,0.3,0.1,0.4,0c0,0,0,0,0,0l7.1-1.9
											C1397.7,1340.7,1397.7,1340.1,1397.4,1339.5z"/>
										<path class="st52" d="M1374.7,1321.1c-0.7,0.3-1.4,0.5-2,0.7c0.5,0.8,1,1.6,1.4,2.4c2.8-1.2,7.8-3.2,11.1-3.7
											c1-0.1,1.8-0.3,2.6-0.4c-0.6-1.3-1.1-2.6-1.7-4L1374.7,1321.1z"/>
									</g>
								</g>
								<path class="st40" d="M1391.5,1334.7c0,0,2-0.8,2.4-2c0.5-1.2-0.4-1.6-0.4-1.9c0-0.3,0.5-1,0-2s-0.8-0.9-1.3-1.3
									c0,0,0.2-0.6,0-1.4c-0.3-0.8-1.4-1.5-1.8-1.6c0,0,0.1-1.2-0.8-1.9c-0.9-0.7-1.8-0.5-2.1-0.3c-0.3,0.2-3.3,2.9-4.4,4.4
									c-1.1,1.5-1.1,2.8-1,3.1c0.1,0.3,0.4,0.5,0.5,0.6c0.1,0.1,0.2,0.7,0.3,1.1s0.9,0.8,1.1,0.8s0.5,1,0.9,1.2s0.7,0.3,1,0.3
									s0.2,0.6,1.2,0.8C1388.1,1335,1389.2,1335,1391.5,1334.7z"/>
							</g>
							<path class="st7" d="M1377,1338.2l8.9,5.1c-0.1-1.7-0.2-3-0.2-3h0h0c0.3-0.9,0.4-1.7,0.4-1.7c-4.2-2.8-7.4-9.2-5.1-9.7
								c2.3-0.5,7,0.6,5-2.8c-1.2-2-10.5-1.4-10.6,2.1C1375.2,1333.2,1377,1338.2,1377,1338.2z"/>
						</g>
						<g>
							<g>
								<path class="st53" d="M1385.5,1341.3l-8.5-3.1c0,0-10.4,72.4-22.8,71.9c-12.4-0.5-42.4-56.3-71.6-59.5c0,0,6.7,7,2,8.1
									c-4.5,1-28.9-3.9-31.8-11.4c-53.5,15.8-44.6,184.1-44.6,184.1s29.2,11.9,57.3,12.4s59.3-9.1,59.3-9.1
									c-4.1-35.4-5.7-69.2-8.7-98.2c11.6,11,24.4,18.2,36.5,17.3C1405.9,1449.9,1385.5,1341.3,1385.5,1341.3z"/>
								<path class="st54" d="M1298.3,1365.6c0,0,15.5,12.1,21,61.6c0.8,7.2,3.4,13.1,7.3,17.9c-3.6-2.5-7.1-5.4-10.6-8.7
									C1312.9,1406.4,1308.4,1381.6,1298.3,1365.6z"/>
							</g>
							<g>
								<path class="st7" d="M1370.7,1455.4c3.6-1.4,7.6-3.9,7.8-2.2s-4,3.7-3.8,4.4c0.1,0.5,3.8-0.1,6.8-0.8c1.5-0.2,3-0.6,4.1-1.2
									c0,0,0,0,0,0c0,0,0.1,0,0.1-0.1c2.4-1.3,1.8-2.2,3.9-2.6c2.2-0.5,1.3,2.4,1.4,2.4c-0.5,2.3-1.9,5.5-3.7,6.9
									c-2.6,1.9-6.9,7.6-20.5,8.4l-3.4-9.3C1363.5,1461.4,1367,1456.8,1370.7,1455.4z"/>
								<path class="st54" d="M1243.2,1352.1c21.6-19.2,31.2,70.1,25.8,107.5c0,0,75.8,0.7,94.5,1.8l3.4,9.3l-10.3,3.7
									c0,0-89,26.4-107.5,18.4C1230.6,1484.8,1221.6,1371.3,1243.2,1352.1z"/>
							</g>
						</g>
					</g>
				</g>
			</g>
		</g>
	</g>
</g>
</svg>
