<?xml version="1.0" encoding="utf-8"?>
<!-- Generator: Adobe Illustrator 26.0.3, SVG Export Plug-In . SVG Version: 6.00 Build 0)  -->
<!DOCTYPE svg PUBLIC "-//W3C//DTD SVG 1.1//EN" "http://www.w3.org/Graphics/SVG/1.1/DTD/svg11.dtd" [
	<!ENTITY ns_extend "http://ns.adobe.com/Extensibility/1.0/">
	<!ENTITY ns_ai "http://ns.adobe.com/AdobeIllustrator/10.0/">
	<!ENTITY ns_graphs "http://ns.adobe.com/Graphs/1.0/">
	<!ENTITY ns_vars "http://ns.adobe.com/Variables/1.0/">
	<!ENTITY ns_imrep "http://ns.adobe.com/ImageReplacement/1.0/">
	<!ENTITY ns_sfw "http://ns.adobe.com/SaveForWeb/1.0/">
	<!ENTITY ns_custom "http://ns.adobe.com/GenericCustomNamespace/1.0/">
	<!ENTITY ns_adobe_xpath "http://ns.adobe.com/XPath/1.0/">
]>
<svg version="1.1" id="Layer_1" xmlns:x="&ns_extend;" xmlns:i="&ns_ai;" xmlns:graph="&ns_graphs;"
	 xmlns="http://www.w3.org/2000/svg" xmlns:xlink="http://www.w3.org/1999/xlink" x="0px" y="0px" viewBox="0 0 3000 2000"
	 style="enable-background:new 0 0 3000 2000;" xml:space="preserve">
<style type="text/css">
	.st0{clip-path:url(#SVGID_00000153672920753824053200000003383151308777087154_);fill:#EDDCC3;}
	.st1{clip-path:url(#SVGID_00000153672920753824053200000003383151308777087154_);}
	.st2{fill:#004F77;}
	.st3{fill:#1681B7;}
	.st4{fill:#603A3E;}
	.st5{fill:#0067A7;}
	.st6{clip-path:url(#SVGID_00000153672920753824053200000003383151308777087154_);fill:#FFFFFF;}
	.st7{fill:#FFFFFF;}
	.st8{opacity:0.2;clip-path:url(#SVGID_00000153672920753824053200000003383151308777087154_);fill:#1F1F3B;}
	.st9{clip-path:url(#SVGID_00000153672920753824053200000003383151308777087154_);fill:#1F1F3B;}
	.st10{clip-path:url(#SVGID_00000153672920753824053200000003383151308777087154_);fill:#3B3B4D;}
	.st11{opacity:0.62;clip-path:url(#SVGID_00000153672920753824053200000003383151308777087154_);fill:#1F1F3B;}
	.st12{opacity:0.46;clip-path:url(#SVGID_00000153672920753824053200000003383151308777087154_);fill:#1F1F3B;}
	.st13{opacity:0.43;clip-path:url(#SVGID_00000153672920753824053200000003383151308777087154_);fill:#1F1F3B;}
	.st14{clip-path:url(#SVGID_00000153672920753824053200000003383151308777087154_);fill:#EFAEA6;}
	.st15{opacity:0.14;clip-path:url(#SVGID_00000153672920753824053200000003383151308777087154_);fill:#1F1F3B;}
	.st16{fill:#EFAEA6;}
	.st17{fill:#1F1F3B;}
	.st18{clip-path:url(#SVGID_00000153672920753824053200000003383151308777087154_);fill:#0069A8;}
	.st19{opacity:0.12;clip-path:url(#SVGID_00000153672920753824053200000003383151308777087154_);fill:#1F1F39;}
	.st20{opacity:0.26;clip-path:url(#SVGID_00000153672920753824053200000003383151308777087154_);fill:#1F1F39;}
	.st21{fill:#0069A8;}
	.st22{opacity:0.26;fill:#1F1F39;}
	.st23{fill:#F4AD00;}
</style>
<metadata>
	<sfw  xmlns="&ns_sfw;">
		<slices></slices>
		<sliceSourceBounds  bottomLeftOrigin="true" height="2074.9" width="3000" x="-0.2" y="-2074.5"></sliceSourceBounds>
	</sfw>
</metadata>
<g>
	<defs>
		<rect id="SVGID_1_" x="-0.2" y="-0.3" width="3000" height="2000"/>
	</defs>
	<clipPath id="SVGID_00000173871835457054100890000007029042425611045532_">
		<use xlink:href="#SVGID_1_"  style="overflow:visible;"/>
	</clipPath>
	
		<rect x="-0.2" y="-0.3" style="clip-path:url(#SVGID_00000173871835457054100890000007029042425611045532_);fill:#EDDCC3;" width="3000" height="2000"/>
	<g style="clip-path:url(#SVGID_00000173871835457054100890000007029042425611045532_);">
		<path class="st2" d="M592.2,2071.4c29.1-3.5,23.5-4.1,38.3-28.6c14.8-24.6,43.7-64,44.4-83.3c0.7-19.4,0.8-116.3-8.2-115.5
			c-6.9,0.6-85.8,112.9-85.8,112.9L592.2,2071.4z"/>
		<path class="st3" d="M611.6,1951.3c40.4-79.8,68.5-105.6,52.7-108.1c-17.4-2.7-179-5.6-188.3,2.9c-9.3,8.5-77.3,92.3-84.7,108.3
			c-7.3,16,164.5,44.7,164.5,44.7L611.6,1951.3z"/>
		<path class="st4" d="M394.8,1951.3c18.1-3.1,210.1-7.4,216.8,0s21.3,108.4,0,116.9c-21.3,8.5-206.1,8.5-216.8,0
			C384.2,2059.7,380.2,1953.8,394.8,1951.3z"/>
		<path class="st5" d="M394.8,1951.3c18.1-3.1,210.1-7.4,216.8,0s21.3,108.4,0,116.9c-21.3,8.5-206.1,8.5-216.8,0
			C384.2,2059.7,380.2,1953.8,394.8,1951.3z"/>
	</g>
	<path style="clip-path:url(#SVGID_00000173871835457054100890000007029042425611045532_);fill:#FFFFFF;" d="M849.4,971.4
		c-49,3.3-95.8-1-143.8-11.9c-7.4-1.7-15.2-3.9-20.2-10.1c-7.6-9.4-5.3-25.1,2.9-33.9c8.2-8.7,20.5-11.4,31.8-10.2
		c7.3,0.8,14.7,2.9,21.7,0.7c8.8-2.8,14.6-11.6,20.4-19.3c5.9-7.7,13.8-15.2,22.9-14c6.8,0.9,12.1,6.5,18.2,10
		c6,3.5,14.8,3.9,18.3-2.6c7.4-13.9-3-51.8,35.2-51.8c55.1,0,46.1,38.2,52.7,46.3c10,12.3,27.9,9.6,42.5,5.4
		c14.6-4.2,31.9-8.1,43.1,2.9c9.7,9.5,10.7,27,21.1,35.7c11,9.3,26.7,4.3,40,0.2c13.4-4.2,30.6-5.7,38.3,7c6.5,10.6,1.7,26-7.6,33.8
		c-9.2,7.8-21.4,9.7-33,10.5C978.4,975.2,909.9,967.4,849.4,971.4z"/>
	<path style="clip-path:url(#SVGID_00000173871835457054100890000007029042425611045532_);fill:#FFFFFF;" d="M1707.3,1724.5
		c-23.1,0-70.6,46.8-2.7,54.3s169.6,4,210.7,4.2c67.2,0.3,83.8-2.9,83.3-34.2c-0.3-18.1-8.9-29.9-44.3-34.6
		c-36.8-4.9-18-51.7-63-50.3c-38.3,1.2-42.2,62.4-77.2,47.4c-35-15-27.7,25.9-53.3,33.4C1732.6,1752.9,1730.4,1724.5,1707.3,1724.5z
		"/>
	<g style="clip-path:url(#SVGID_00000173871835457054100890000007029042425611045532_);">
		<path class="st2" d="M847.6,1907.8c29.1-3.5,23.5-4.1,38.3-28.6c14.8-24.6,43.7-64,44.4-83.3s0.8-116.3-8.2-115.5
			c-6.9,0.6-85.8,112.9-85.8,112.9L847.6,1907.8z"/>
		<path class="st3" d="M867,1787.7c40.4-79.8,68.5-105.6,52.7-108.1c-17.4-2.7-179-5.6-188.3,2.9c-9.3,8.5-77.3,92.3-84.7,108.3
			s164.5,44.7,164.5,44.7L867,1787.7z"/>
		<path class="st4" d="M650.2,1787.7c18.1-3.1,210.1-7.4,216.8,0c6.6,7.4,21.3,108.4,0,116.9c-21.3,8.5-206.1,8.5-216.8,0
			C639.6,1896.1,635.6,1790.2,650.2,1787.7z"/>
		<path class="st5" d="M650.2,1787.7c18.1-3.1,210.1-7.4,216.8,0c6.6,7.4,21.3,108.4,0,116.9c-21.3,8.5-206.1,8.5-216.8,0
			C639.6,1896.1,635.6,1790.2,650.2,1787.7z"/>
		<g>
			<path class="st7" d="M726.5,1820.5c6.5,18.1-8.6,13.1-18.8,13.7v11H724c0.4,0.7,0.7,1.7,1,2.8c3.5,14.4-9.2,10.1-17.2,10.7v20.6
				c-5.7,1.9-14.1,1.4-13-7.2c0,0,0-42.5,0-42.5c0-5,2.2-9.1,6.9-9.1C701.7,1820.5,726.5,1820.5,726.5,1820.5z"/>
			<path class="st7" d="M741.7,1822.3c13.9-7.5,20.4-0.2,22.2,15c3,12.9,6.1,27.8,8.8,40.5c-2.4,3.4-8.8,4.1-12,1.5
				c-2.3-2.3-2.6-8.6-3.5-11.7h-13.5c-1.7,3.9-0.1,11.8-4.6,13c-4.6,1.2-10.5-0.3-10.2-6.1C731.6,1857.4,737.3,1838.8,741.7,1822.3z
				 M750.7,1834.9c-1.5,5.9-3.5,13-4.7,19.4h9.2c-1.2-6.3-2.8-13.4-4.1-19.4H750.7z"/>
			<path class="st7" d="M791.9,1879.4c-5.7,1.9-14.1,1.4-13-7.2c0,0,0-51.6,0-51.6c5.7-1.8,14.1-1.5,13,7.2
				C791.9,1827.8,791.9,1879.4,791.9,1879.4z"/>
			<path class="st7" d="M808.5,1880.1c-13,2.4-4.8-53.1-6.9-59.6c5.7-1.8,14.1-1.5,13,7.2c0,0,0,38.6,0,38.6h17.1
				c1.6,3,2.1,9.7,0.1,12.2C830.4,1881.6,811.1,1879.5,808.5,1880.1z"/>
		</g>
	</g>
	<g style="clip-path:url(#SVGID_00000173871835457054100890000007029042425611045532_);">
		<path class="st2" d="M1091,1722.9c29.1-3.5,23.5-4.1,38.3-28.6c14.8-24.6,43.7-64,44.4-83.3s0.8-116.3-8.2-115.5
			c-6.9,0.6-85.8,112.9-85.8,112.9L1091,1722.9z"/>
		<path class="st3" d="M1110.4,1602.8c40.4-79.8,68.5-105.6,52.7-108.1c-17.4-2.7-179-5.6-188.3,2.9c-9.3,8.5-77.3,92.3-84.7,108.3
			s164.5,44.7,164.5,44.7L1110.4,1602.8z"/>
		<path class="st4" d="M893.6,1602.8c18.1-3.1,210.1-7.4,216.8,0s21.3,108.4,0,116.9c-21.3,8.5-206.1,8.5-216.8,0
			C883,1711.2,879,1605.3,893.6,1602.8z"/>
		<path class="st5" d="M893.6,1602.8c18.1-3.1,210.1-7.4,216.8,0s21.3,108.4,0,116.9c-21.3,8.5-206.1,8.5-216.8,0
			C883,1711.2,879,1605.3,893.6,1602.8z"/>
		<g>
			<path class="st7" d="M970,1635.6c6.5,18.1-8.6,13.1-18.8,13.7v11h16.3c0.4,0.7,0.7,1.7,1,2.8c3.5,14.4-9.2,10.1-17.2,10.7v20.6
				c-5.7,1.9-14.1,1.4-13-7.2c0,0,0-42.5,0-42.5c0-5,2.2-9.1,6.9-9.1C945.1,1635.6,970,1635.6,970,1635.6z"/>
			<path class="st7" d="M985.1,1637.4c13.9-7.5,20.4-0.2,22.2,15c3,12.9,6.1,27.8,8.8,40.5c-2.4,3.4-8.8,4.1-12,1.5
				c-2.3-2.3-2.6-8.6-3.5-11.7h-13.5c-1.7,3.9-0.1,11.8-4.6,13c-4.6,1.2-10.5-0.3-10.2-6.1C975.1,1672.5,980.7,1653.9,985.1,1637.4z
				 M994.1,1650c-1.5,5.9-3.5,13-4.7,19.4h9.2c-1.2-6.3-2.8-13.4-4.1-19.4H994.1z"/>
			<path class="st7" d="M1035.3,1694.5c-5.7,1.9-14.1,1.4-13-7.2c0,0,0-51.6,0-51.6c5.7-1.8,14.1-1.5,13,7.2
				C1035.3,1642.9,1035.3,1694.5,1035.3,1694.5z"/>
			<path class="st7" d="M1051.9,1695.2c-13,2.4-4.8-53.1-6.9-59.6c5.7-1.8,14.1-1.5,13,7.2c0,0,0,38.6,0,38.6h17.1
				c1.6,3,2.1,9.7,0.1,12.2C1073.8,1696.8,1054.5,1694.6,1051.9,1695.2z"/>
		</g>
	</g>
	<g style="clip-path:url(#SVGID_00000173871835457054100890000007029042425611045532_);">
		<path class="st2" d="M1363.2,1543.7c29.1-3.5,23.5-4.1,38.3-28.6c14.8-24.6,43.7-64,44.4-83.3c0.7-19.4,0.8-116.3-8.2-115.5
			c-6.9,0.6-85.8,112.9-85.8,112.9L1363.2,1543.7z"/>
		<path class="st3" d="M1382.6,1423.6c40.4-79.8,68.5-105.6,52.7-108.1c-17.4-2.7-179-5.6-188.3,2.9c-9.3,8.5-77.3,92.3-84.7,108.3
			c-7.3,16,164.5,44.7,164.5,44.7L1382.6,1423.6z"/>
		<path class="st4" d="M1165.8,1423.6c18.1-3.1,210.1-7.4,216.8,0s21.3,108.4,0,116.9c-21.3,8.5-206.1,8.5-216.8,0
			C1155.2,1532,1151.2,1426.2,1165.8,1423.6z"/>
		<path class="st5" d="M1165.8,1423.6c18.1-3.1,210.1-7.4,216.8,0s21.3,108.4,0,116.9c-21.3,8.5-206.1,8.5-216.8,0
			C1155.2,1532,1151.2,1426.2,1165.8,1423.6z"/>
		<g>
			<path class="st7" d="M1242.2,1456.5c6.5,18.1-8.6,13.1-18.8,13.7v11h16.3c0.4,0.7,0.7,1.7,1,2.8c3.5,14.4-9.2,10.1-17.2,10.7
				v20.6c-5.7,1.9-14.1,1.4-13-7.2c0,0,0-42.5,0-42.5c0-5,2.2-9.1,6.9-9.1H1242.2z"/>
			<path class="st7" d="M1257.4,1458.2c13.9-7.5,20.4-0.2,22.2,15c3,12.9,6.1,27.8,8.8,40.5c-2.4,3.4-8.8,4.1-12,1.5
				c-2.3-2.3-2.6-8.6-3.5-11.7h-13.5c-1.7,3.9-0.1,11.8-4.6,13c-4.6,1.2-10.5-0.3-10.2-6.1
				C1247.3,1493.3,1252.9,1474.7,1257.4,1458.2z M1266.3,1470.8c-1.5,5.9-3.5,13-4.7,19.4h9.2c-1.2-6.3-2.8-13.4-4.1-19.4H1266.3z"
				/>
			<path class="st7" d="M1307.5,1515.3c-5.7,1.9-14.1,1.4-13-7.2c0,0,0-51.6,0-51.6c5.7-1.8,14.1-1.5,13,7.2
				C1307.5,1463.7,1307.5,1515.3,1307.5,1515.3z"/>
			<path class="st7" d="M1324.1,1516c-13,2.4-4.8-53.1-6.9-59.6c5.7-1.8,14.1-1.5,13,7.2c0,0,0,38.6,0,38.6h17.1
				c1.6,3,2.1,9.7,0.1,12.2C1346,1517.6,1326.7,1515.4,1324.1,1516z"/>
		</g>
	</g>
	<g style="clip-path:url(#SVGID_00000173871835457054100890000007029042425611045532_);">
		<path class="st2" d="M1623.7,1376.2c29.1-3.5,23.5-4.1,38.3-28.6c14.8-24.6,43.7-64,44.4-83.3c0.7-19.4,0.8-116.3-8.2-115.5
			c-6.9,0.6-85.8,112.9-85.8,112.9L1623.7,1376.2z"/>
		<path class="st3" d="M1643.1,1256.1c40.4-79.8,68.5-105.6,52.7-108.1c-17.4-2.7-179-5.6-188.3,2.9s-77.3,92.3-84.7,108.3
			c-7.3,16,164.5,44.7,164.5,44.7L1643.1,1256.1z"/>
		<path class="st4" d="M1426.4,1256.1c18.1-3.1,210.1-7.4,216.8,0c6.6,7.4,21.3,108.4,0,116.9c-21.3,8.5-206.1,8.5-216.8,0
			C1415.7,1364.4,1411.7,1258.6,1426.4,1256.1z"/>
		<path class="st5" d="M1426.4,1256.1c18.1-3.1,210.1-7.4,216.8,0c6.6,7.4,21.3,108.4,0,116.9c-21.3,8.5-206.1,8.5-216.8,0
			C1415.7,1364.4,1411.7,1258.6,1426.4,1256.1z"/>
		<g>
			<path class="st7" d="M1502.7,1288.9c6.5,18.1-8.6,13.1-18.8,13.7v11h16.3c0.4,0.7,0.7,1.7,1,2.8c3.5,14.4-9.2,10.1-17.2,10.7
				v20.6c-5.7,1.9-14.1,1.4-13-7.2c0,0,0-42.5,0-42.5c0-5,2.2-9.1,6.9-9.1C1477.9,1288.9,1502.7,1288.9,1502.7,1288.9z"/>
			<path class="st7" d="M1517.9,1290.7c13.9-7.5,20.4-0.2,22.2,15c3,12.9,6.1,27.8,8.8,40.5c-2.4,3.4-8.8,4.1-12,1.5
				c-2.3-2.3-2.6-8.6-3.5-11.7H1520c-1.7,3.9-0.1,11.8-4.6,13c-4.6,1.2-10.5-0.3-10.2-6.1
				C1507.8,1325.7,1513.5,1307.1,1517.9,1290.7z M1526.8,1303.3c-1.5,5.9-3.5,13-4.7,19.4h9.2c-1.2-6.3-2.8-13.4-4.1-19.4H1526.8z"
				/>
			<path class="st7" d="M1568,1347.8c-5.7,1.9-14.1,1.4-13-7.2c0,0,0-51.6,0-51.6c5.7-1.8,14.1-1.5,13,7.2
				C1568,1296.1,1568,1347.8,1568,1347.8z"/>
			<path class="st7" d="M1584.6,1348.4c-13,2.4-4.8-53.1-6.9-59.6c5.7-1.8,14.1-1.5,13,7.2c0,0,0,38.6,0,38.6h17.1
				c1.6,3,2.1,9.7,0.1,12.2C1606.6,1350,1587.2,1347.8,1584.6,1348.4z"/>
		</g>
	</g>
	<g style="clip-path:url(#SVGID_00000173871835457054100890000007029042425611045532_);">
		<path class="st2" d="M1872.3,1219.9c29.1-3.5,23.5-4.1,38.3-28.6c14.8-24.6,43.7-64,44.4-83.3c0.7-19.4,0.8-116.3-8.2-115.5
			c-6.9,0.6-85.8,112.9-85.8,112.9L1872.3,1219.9z"/>
		<path class="st3" d="M1891.7,1099.8c40.4-79.8,68.5-105.6,52.7-108.1c-17.4-2.7-179-5.6-188.3,2.9c-9.3,8.5-77.3,92.3-84.7,108.3
			c-7.3,16,164.5,44.7,164.5,44.7L1891.7,1099.8z"/>
		<path class="st4" d="M1674.9,1099.8c18.1-3.1,210.1-7.4,216.8,0c6.6,7.4,21.3,108.4,0,116.9c-21.3,8.5-206.1,8.5-216.8,0
			C1664.3,1208.2,1660.3,1102.3,1674.9,1099.8z"/>
		<path class="st5" d="M1674.9,1099.8c18.1-3.1,210.1-7.4,216.8,0c6.6,7.4,21.3,108.4,0,116.9c-21.3,8.5-206.1,8.5-216.8,0
			C1664.3,1208.2,1660.3,1102.3,1674.9,1099.8z"/>
		<g>
			<path class="st7" d="M1751.2,1132.6c6.5,18.1-8.6,13.1-18.8,13.7v11h16.3c0.4,0.7,0.7,1.7,1,2.8c3.5,14.4-9.2,10.1-17.2,10.7
				v20.6c-5.7,1.9-14.1,1.4-13-7.2c0,0,0-42.5,0-42.5c0-5,2.2-9.1,6.9-9.1C1726.4,1132.6,1751.2,1132.6,1751.2,1132.6z"/>
			<path class="st7" d="M1766.4,1134.4c13.9-7.5,20.4-0.2,22.2,15c3,12.9,6.1,27.8,8.8,40.5c-2.4,3.4-8.8,4.1-12,1.5
				c-2.3-2.3-2.6-8.6-3.5-11.7h-13.5c-1.7,3.9-0.1,11.8-4.6,13c-4.6,1.2-10.5-0.3-10.2-6.1C1756.4,1169.5,1762,1150.9,1766.4,1134.4
				z M1775.4,1147c-1.5,5.9-3.5,13-4.7,19.4h9.2c-1.2-6.3-2.8-13.4-4.1-19.4H1775.4z"/>
			<path class="st7" d="M1816.6,1191.5c-5.7,1.9-14.1,1.4-13-7.2c0,0,0-51.6,0-51.6c5.7-1.8,14.1-1.5,13,7.2
				C1816.6,1139.9,1816.6,1191.5,1816.6,1191.5z"/>
			<path class="st7" d="M1833.2,1192.2c-13,2.4-4.8-53.1-6.9-59.6c5.7-1.8,14.1-1.5,13,7.2c0,0,0,38.6,0,38.6h17.1
				c1.6,3,2.1,9.7,0.1,12.2C1855.1,1193.8,1835.8,1191.6,1833.2,1192.2z"/>
		</g>
	</g>
	<path style="opacity:0.2;clip-path:url(#SVGID_00000173871835457054100890000007029042425611045532_);fill:#1F1F3B;" d="
		M1919.3,1048.5c-1.8,3.9-6.4,12-8.3,16.3c-19.3,1.5-57.5-1-85.9-1c-40.9,0-104.3-1.3-122.6-4.1c1.8-3,7.2-9.3,9.2-12.3
		c19.4-2.3,76.4-1.1,113.5-1.1C1856.5,1046.3,1899.6,1046.8,1919.3,1048.5z"/>
	<path style="clip-path:url(#SVGID_00000173871835457054100890000007029042425611045532_);fill:#FFFFFF;" d="M1870.5,1031.5
		c0.9-9.1,0.2-32.3,0.2-32.3l-25.3-0.9l1.4,34.8l16.7,11.1L1870.5,1031.5z"/>
	<path style="clip-path:url(#SVGID_00000173871835457054100890000007029042425611045532_);fill:#1F1F3B;" d="M1872.6,1023.9
		c2.1-1.6,6.9,4.1,7.9,7.9c2.2,8.8,30.4,9.9,35.5,10.7c2.6,0.4,6.8,13.3-6.1,13.3c-11.2,0-46.9-0.1-59.1-0.2c-2.6,0-4.8-1.7-5.4-4.1
		c-2.2-8.5-2.5-28.4,0.9-28.7C1850.8,1023.9,1864.5,1030.2,1872.6,1023.9z"/>
	<path style="clip-path:url(#SVGID_00000173871835457054100890000007029042425611045532_);fill:#FFFFFF;" d="M1773.4,1031.6
		c1-9.1,0.4-32.3,0.4-32.3l-25.3-1l1.2,34.8l16.6,11.2L1773.4,1031.6z"/>
	<path style="clip-path:url(#SVGID_00000173871835457054100890000007029042425611045532_);fill:#1F1F3B;" d="M1776.2,1021.2
		c2.7,0.2,2.2,2.7,3.2,6.6c2.2,8.8,34.3,14.5,39.3,15.4c2.6,0.4,6.6,13.4-6.3,13.2c-11.2-0.1-46.9-0.5-59.1-0.7
		c-2.6,0-4.8-1.7-5.4-4.1c-2.1-8.5-2.9-31.9,0.5-32.1C1753,1020.5,1763.8,1020.4,1776.2,1021.2z"/>
	<path style="clip-path:url(#SVGID_00000173871835457054100890000007029042425611045532_);fill:#3B3B4D;" d="M1737.2,729.1
		c0.3,4.1,0.7,8.6,1.3,13.6c2.2,18.5,6.8,80.8,5.6,120.4c-1.1,39.4,2.4,131.6,2.4,145.7c12,5.2,19.4,3.6,36.5,0
		c0,0,3-76.1,6.4-142.7c2.7-54.1,3.5-48.7,13.5-117.5l0,0c0.1,0.3,2.5,7,6.1,17.3c7.5,22,20.1,60.5,26.2,88.4
		c9.4,43.5,4.5,156.8,8.4,160.7c11.7,6.9,31.6,7.6,36.9-2c0,0,2.2-140.1-1.9-162.1c-2.8-14.9-26.7-161.2-32.1-200.5
		c0,0-105.3-23-108.5,13c-0.4,4.9-0.6,9.3-0.5,13.4c0.1,5.6-0.2,10.8-0.5,16.4C1736.5,702.7,1736,713.3,1737.2,729.1z"/>
	<path style="opacity:0.62;clip-path:url(#SVGID_00000173871835457054100890000007029042425611045532_);fill:#1F1F3B;" d="
		M1802.9,748.7L1802.9,748.7c0.1,0.3,4.7,13.4,8.3,23.7l-6.2-43.8C1805,728.6,1803.9,734.9,1802.9,748.7z"/>
	<path style="opacity:0.46;clip-path:url(#SVGID_00000173871835457054100890000007029042425611045532_);fill:#1F1F3B;" d="
		M1786,728.6C1786,728.6,1786.1,728.7,1786,728.6c0.2,0,0.3,0,0.3-0.1C1786.3,728.6,1786,728.6,1786,728.6z"/>
	<path style="opacity:0.43;clip-path:url(#SVGID_00000173871835457054100890000007029042425611045532_);fill:#1F1F3B;" d="
		M1736.5,703.8c0.9-0.2,44.1-2.6,49.6-23c0,0-36.8-7.5-48-6.3C1737.6,683.7,1736.5,697.2,1736.5,703.8z"/>
	<path style="clip-path:url(#SVGID_00000173871835457054100890000007029042425611045532_);fill:#EFAEA6;" d="M1921.9,561.6l-15-15.2
		c4.5-8.3,23-20.4,28.5-27c6-7.2,20.1-8.9,20.1-8.9l-3.6,20.3l-1.2,1.2c0,0-9.4,13.3-10.6,21.1c-0.7,4.5-4.6,9.4-3.9,17.3
		C1936.6,576.2,1921.9,561.6,1921.9,561.6z"/>
	<path style="opacity:0.14;clip-path:url(#SVGID_00000173871835457054100890000007029042425611045532_);fill:#1F1F3B;" d="
		M1948.8,534.9c0,0-5.9,8.6-7.8,14.6c-14-1.3-12.7-17.3-8.1-18.8c2.9-1,11.9-1.9,11.9-1.9L1948.8,534.9z"/>
	<g style="clip-path:url(#SVGID_00000173871835457054100890000007029042425611045532_);">
		<path class="st16" d="M1976.1,517.3c-3.3,7.2-3.2,24.4-7.9,21.8s-7,15.2-12,12.6c-12.2-6.3-21.8-21.5-20.1-28.1
			c1.7-6.6,11.6-22.3,11.6-22.3L1976.1,517.3z"/>
		<path class="st17" d="M1960,517c3.5,2.5,3.2,3.5,6.5,3.7c3.4,0.2,0.8-6,6.2-4.1c5.4,1.9,11,4.6,14.7-0.7c5.3-7.7-2.6-10.5-7.7-12
			c-3.2-1-0.4-7.6-6.3-10.6c-4.6-2.3-5.6,0.6-9.8-1.2c-2.6-1.1-5.1-7.8-10.5-6.9c-10.1,1.5-8,11.4-17.1,13.9
			c-10.6,2.9-2.9,26.1-0.1,25.4c3.3-0.8,4.1-9.6,7.2-10c4.7-0.7,3.5,2.3,4.8,6.4c1.4,4.4,6.7,7.5,6.2,0.3S1956.8,514.7,1960,517z"/>
	</g>
	<path style="clip-path:url(#SVGID_00000173871835457054100890000007029042425611045532_);fill:#FFFFFF;" d="M1919.7,529.3
		c8.8,3.3,0.8,16.1,7.8,22c3.7,3.1,4.1,0.8,7.2,0.3c1.9-0.3,3.9-0.8,4.4,2.4c9.7,64.3-97.2,132-97.3,142
		c-0.1,8.2-39.8-2.4-55.9-21.2c-22.1-25.9,0.5-53.8,5.2-58.9c4.8-5,90.2-87.2,90.2-87.2S1900,531.4,1919.7,529.3z"/>
	<path style="clip-path:url(#SVGID_00000173871835457054100890000007029042425611045532_);fill:#0069A8;" d="M2062.6,655.6
		c-4-2.9-64.6-14.4-72.1-19.7c-7.3-5.3-28-51.5-51.4-81.8c0,0-5.5,5.7-15.2,23.7c-12.9,23.8-36.3,30.5-52.8,58.7
		c-21.3,36.4-55.7,49.8-52.9,63.6c1.7,8,23.2,23.6,37.5,21c22.5-4.1,31.3-48.6,37.6-59.9c2.5-4.4,5.4-10.6,8.6-16.9
		c4-7.8,6-17.7,20.6-18.7c11.3-0.8,26.4,25.7,45,42.3c10,9,76.3,13.7,83.4,16.6C2060.7,688.5,2071.2,661.8,2062.6,655.6z"/>
	<path style="opacity:0.12;clip-path:url(#SVGID_00000173871835457054100890000007029042425611045532_);fill:#1F1F39;" d="
		M2062.6,655.6c-4-2.9-64.6-14.4-72.1-19.7c-7.3-5.3-28-51.5-51.4-81.8c0,0-5.5,5.7-15.2,23.7c-12.9,23.8-36.3,30.5-52.8,58.7
		c-21.3,36.4-55.7,49.8-52.9,63.6c1.7,8,23.2,23.6,37.5,21c22.5-4.1,31.3-48.6,37.6-59.9c2.5-4.4,5.4-10.6,8.6-16.9
		c4-7.8,6-17.7,20.6-18.7c11.3-0.8,26.4,25.7,45,42.3c10,9,76.3,13.7,83.4,16.6C2060.7,688.5,2071.2,661.8,2062.6,655.6z"/>
	<path style="clip-path:url(#SVGID_00000173871835457054100890000007029042425611045532_);fill:#0069A8;" d="M1919.7,529.3
		L1919.7,529.3c-4.4,7.2-20.7,32.6-39.4,57.3c-5.3,7-10.8,13.9-16.2,20.4c-5.1,6-12,12.7-19.1,19.1c-9,8.1-18.3,15.7-25,20.8
		c-16.9,13-20.4,26.9-28.4,33.6c-2.2,1.8-4.7,3.1-7.8,3.7c-18.2,3.5-56-9.5-48.6-24.9c7-14.5,29.9-27.5,49.5-44.8l0,0
		c3.6-3.2,7-6.2,10.1-9.1c4.5-4.3,8.2-8.2,10.4-11.3c0.2-0.3,0.4-0.6,0.6-0.8c0.9-1.3,1.7-2.5,2.5-3.6c0.9-1.4,1.8-2.6,2.6-3.8
		c0.9-1.4,1.8-2.7,2.6-4c0.2-0.3,0.3-0.5,0.5-0.8c0.2-0.4,0.4-0.7,0.7-1c2.7-4.2,5.3-8,9.4-13.6c0.3-0.5,0.7-1,1.1-1.5
		c2.3-3.1,5.2-6.8,8.7-11.3c7.9-9.9,19.5-21.3,29.6-27.6c3.8-2.4,7.5-4.1,10.6-4.6C1900.7,516.4,1919.7,529.3,1919.7,529.3z"/>
	<path style="opacity:0.26;clip-path:url(#SVGID_00000173871835457054100890000007029042425611045532_);fill:#1F1F39;" d="
		M1880.2,586.6c-5.3,7-10.8,13.9-16.2,20.4c-5.1,6-12,12.7-19.1,19.1c9.2-15.9,24.6-59.4,24.6-59.4L1880.2,586.6z"/>
	<g style="clip-path:url(#SVGID_00000173871835457054100890000007029042425611045532_);">
		<path class="st2" d="M2154.7,860c29.2-2.4,23.7-3.2,39.4-27.1c15.7-24,46.1-62.2,47.6-81.5c1.5-19.3,5.3-116.2-3.8-115.7
			c-6.9,0.3-90.1,109.5-90.1,109.5L2154.7,860z"/>
		<path class="st3" d="M2178.7,740.8c43.4-78.2,72.5-102.9,56.8-105.9c-17.3-3.3-178.6-12.5-188.3-4.4
			c-9.6,8.1-80.8,89.2-88.8,104.9c-7.9,15.7,162.6,51,162.6,51L2178.7,740.8z"/>
		<path class="st4" d="M1962.1,732.4c18.2-2.4,210.2,0.7,216.6,8.4s17.1,109.1-4.5,116.8c-21.6,7.7-206.3,0.5-216.6-8.4
			C1947.3,840.3,1947.4,734.4,1962.1,732.4z"/>
		<path class="st5" d="M1962.1,732.4c18.2-2.4,210.2,0.7,216.6,8.4s17.1,109.1-4.5,116.8c-21.6,7.7-206.3,0.5-216.6-8.4
			C1947.3,840.3,1947.4,734.4,1962.1,732.4z"/>
		<g>
			<path class="st7" d="M2037.1,768.2c5.8,18.4-9.1,12.7-19.4,13l-0.4,11l16.3,0.6c0.4,0.7,0.7,1.7,0.9,2.9
				c2.9,14.5-9.5,9.7-17.6,10l-0.8,20.6c-5.7,1.7-14.2,0.9-12.7-7.7c0,0,1.6-42.5,1.6-42.5c0.2-5,2.5-9,7.3-8.8
				C2012.3,767.2,2037.1,768.2,2037.1,768.2z"/>
			<path class="st7" d="M2052.2,770.5c14.2-6.9,20.3,0.6,21.6,15.8c2.5,13,5.1,28,7.2,40.8c-2.5,3.3-9,3.8-12,1
				c-2.2-2.4-2.3-8.7-3-11.9l-13.5-0.5c-1.8,3.8-0.6,11.8-5.1,12.8c-4.6,1-10.5-0.7-10-6.5C2040.8,805.2,2047.1,786.8,2052.2,770.5z
				 M2060.6,783.5c-1.7,5.9-4,12.9-5.4,19.2l9.2,0.4c-1-6.4-2.3-13.5-3.3-19.5L2060.6,783.5z"/>
			<path class="st7" d="M2100.1,829.5c-5.7,1.7-14.2,0.9-12.7-7.7c0,0,2-51.6,2-51.6c5.8-1.6,14.1-0.9,12.7,7.7
				C2102.1,777.9,2100.1,829.5,2100.1,829.5z"/>
			<path class="st7" d="M2116.7,830.8c-13.1,1.8-2.7-53.2-4.6-59.9c5.8-1.6,14.1-0.9,12.7,7.7c0,0-1.5,38.6-1.5,38.6l17,0.7
				c1.4,3.1,1.7,9.8-0.3,12.2C2138.5,833.2,2119.3,830.3,2116.7,830.8z"/>
		</g>
	</g>
	<g style="clip-path:url(#SVGID_00000173871835457054100890000007029042425611045532_);">
		<path class="st16" d="M1956.2,705.6c12.7,38,21.7,16.7,25.8,24c3.3,6-4.7,4.6-0.8,11.4c4.7,8.3,17.5,7.6,4.2,23.6
			c-9.4,11.3-28.6-11.8-42.1-39c-6.9-14-8.6-19.1-3.1-21.9C1945.7,701,1954.7,700.9,1956.2,705.6z"/>
		<path class="st21" d="M1912,539.5c-0.3,3.4-2.9,23.8-2.4,36.8c0.1,2,0.2,4,0.3,6.1c0.4,7.8,0.8,16.1,1.3,23.8
			c0,0.4,0.1,0.9,0.1,1.3c0.9,15,1.7,31.8,2.5,35.3c3.7,17.4,55.4,72.2,55.5,79.2c0.1,4.3-24.9,18.8-28.6,13.7
			c-5.5-7.6-51.8-65.6-57.5-78c-7-15.1-19.7-47.7-12.1-110c0,0-0.4-3.3,1.1-7c1.6-4,6.6-9,11.4-13.9c0.1-0.1,0.1-0.1,0.2-0.2
			C1893.1,517.2,1912.9,529.7,1912,539.5z"/>
	</g>
	<g style="clip-path:url(#SVGID_00000173871835457054100890000007029042425611045532_);">
		<path class="st22" d="M1924.5,555.1c-1-0.1-1.9,0.5-2.7,1c-1,0.7-1.7,1.4-2.1,0.8c-0.6-0.8-12.5,7.5-25.4,9.3
			c-4.1,0.6-9.4,0.6-13.4-0.7c-1.6-0.5-38.2-11.6-44.6-15c8.4-9.8,14.7-16.2,19.4-17.5c5.7,4.5,18,15.6,22.6,18.5
			c2.3,1.5,4.4,2.5,6.4,3c0.9,0.2,1.7,0.4,2.6,0.6c3.8,0.7,7.7,0.8,11.4,0.6c7.1-0.5,13.7-2.5,19-4.4c2.9-1.1,3.4-1.8,6.1-1.1
			c0,0,0.1,0,0.1,0C1924.4,552.3,1925.8,555.2,1924.5,555.1z"/>
		<path class="st23" d="M1708.3,498.1c-0.9,2.9,0.9,9.1,5.2,13.1c1,0.9,3.9,2.6,8.1,4.8c14.3,7.4,42.8,20.2,52.4,22.5
			c10,2.4,20.8,0.9,30.7-0.8c10.1-1.7,19.3-3.6,25.8-1.8c12.5,3.6,34.9,19.8,49.8,25.2c0.5,0.2,1,0.3,1.5,0.5
			c16.6,5.3,37.2-8.5,38-7.4c0.6,0.8,1.1,1.5,2.1,2c0.5,0.2,1,0.4,1.7,0.5c1.6,0.2,2.8-2.6,3.3-4.3c0.5-1.7,0.4-4.7-3.1-5.9
			c-2.6-0.9-3.3,0.1-6.1,1.1c-7.1,2.6-16.6,5.2-26.4,4.3c-2.2-0.2-4.4-0.6-6.7-1.1c-11-2.9-29-24.2-46.2-30
			c-1.6-0.5-3.2-0.9-4.7-1.2c-18.4-2.8-29.5,10.4-55.6,4.9c-26.1-5.5-48.5-26.1-56.2-27.6C1714.2,495.3,1709.2,495.2,1708.3,498.1z"
			/>
	</g>
</g>
</svg>
