<?xml version="1.0" encoding="utf-8"?>
<!-- Generator: Adobe Illustrator 26.2.1, SVG Export Plug-In . SVG Version: 6.00 Build 0)  -->
<!DOCTYPE svg PUBLIC "-//W3C//DTD SVG 1.1//EN" "http://www.w3.org/Graphics/SVG/1.1/DTD/svg11.dtd" [
	<!ENTITY ns_extend "http://ns.adobe.com/Extensibility/1.0/">
	<!ENTITY ns_ai "http://ns.adobe.com/AdobeIllustrator/10.0/">
	<!ENTITY ns_graphs "http://ns.adobe.com/Graphs/1.0/">
	<!ENTITY ns_vars "http://ns.adobe.com/Variables/1.0/">
	<!ENTITY ns_imrep "http://ns.adobe.com/ImageReplacement/1.0/">
	<!ENTITY ns_sfw "http://ns.adobe.com/SaveForWeb/1.0/">
	<!ENTITY ns_custom "http://ns.adobe.com/GenericCustomNamespace/1.0/">
	<!ENTITY ns_adobe_xpath "http://ns.adobe.com/XPath/1.0/">
]>
<svg version="1.1" id="_x2014_ÎÓÈ_x5F_1" xmlns:x="&ns_extend;" xmlns:i="&ns_ai;" xmlns:graph="&ns_graphs;"
	 xmlns="http://www.w3.org/2000/svg" xmlns:xlink="http://www.w3.org/1999/xlink" x="0px" y="0px" viewBox="0 0 5000 2000"
	 style="enable-background:new 0 0 5000 2000;" xml:space="preserve">
<style type="text/css">
	._x005B_œÓ_x0020_ÛÏÓÎ˜‡ÌË˛_x005D_{fill:#FFFFFF;stroke:#000000;stroke-miterlimit:10;}
	.ƒÊ‡È‚_GS{fill:#A6D0E4;}
	.st0{fill:#FFFFFF;}
	.st1{fill:#E6F0F0;}
	.st2{fill:#C6831B;}
	.st3{fill:#F8AE23;}
	.st4{fill:#FCEE21;}
	.st5{fill:#F5D6C6;}
	.st6{fill:#FFC19A;}
	.st7{fill:#F4B594;}
	.st8{fill:#DB2027;}
	.st9{fill:#ED4E49;}
	.st10{fill:none;}
	.st11{fill:#F7AD23;}
	.st12{fill:#F0F0F0;}
	.st13{fill:#FEDBCC;}
	.st14{fill:#1B1D29;}
	.st15{fill:#2B2B2B;}
	.st16{fill:#FFC099;}
	.st17{fill:#1FAAB0;}
	.st18{fill:#C5821B;}
	.st19{fill:#FFDF80;}
	.st20{fill:#FFD047;}
	.st21{fill:#865912;}
	.st22{fill:#F1E5DB;}
	.st23{fill:#66851C;}
	.st24{fill:#BECE69;}
	.st25{fill:#F2F2F2;}
	.st26{fill:#18898D;}
	.st27{fill:#20B7BD;}
	.st28{fill:#A15A45;}
	.st29{fill:#B0634B;}
	.st30{fill:#E8F0F2;}
	.st31{fill:#A60102;}
	.st32{fill:#FFC49F;}
	.st33{fill:#333333;}
	.st34{fill:#F5B695;}
	.st35{fill:#FDC59F;}
	.st36{fill:#934720;}
	.st37{fill:#724333;}
	.st38{fill:#F0AA82;}
	.st39{fill:#9CD9D9;}
	.st40{fill:#0E4C71;}
	.st41{fill:#FFD147;}
	.st42{fill:#075380;}
	.st43{fill:#D1EAEE;}
	.st44{fill:#00436D;}
</style>
<metadata>
	<sfw  xmlns="&ns_sfw;">
		<slices></slices>
		<sliceSourceBounds  bottomLeftOrigin="true" height="2000" width="5000" x="0" y="-2000"></sliceSourceBounds>
	</sfw>
</metadata>
<rect class="st0" width="5000" height="2000"/>
<g>
	<ellipse class="st1" cx="2500" cy="1838.3" rx="2128.7" ry="70"/>
	<g>
		<g>
			<path class="st2" d="M3033.2,1829.7c42.2,4.7,103.4,7.6,171.6,7.6c68.3,0,129.4-3,171.6-7.6c36.6-4.1,59.1-9.4,59.1-15.3v30.6
				c0,12.7-103.3,22.9-230.7,22.9c-127.4,0-230.7-10.3-230.7-22.9v-30.6C2974.1,1820.3,2996.6,1825.6,3033.2,1829.7z"/>
			<path class="st3" d="M3204.8,1791.4c127.4,0,230.7,10.3,230.7,22.9c0,5.9-22.5,11.2-59.1,15.3c-42.2,4.7-103.4,7.6-171.6,7.6
				c-68.3,0-129.4-3-171.6-7.6c-36.6-4.1-59.1-9.4-59.1-15.3C2974.1,1801.7,3077.4,1791.4,3204.8,1791.4z"/>
			<path class="st4" d="M3204.8,1797.5c104.8,0,189.7,6.6,189.7,14.8c0,3.8-18.5,7.2-48.6,9.9c-34.7,3-85,4.9-141.1,4.9
				c-56.1,0-106.4-1.9-141.1-4.9c-30.1-2.6-48.6-6.1-48.6-9.9C3015.1,1804.2,3100.1,1797.5,3204.8,1797.5z"/>
		</g>
		<g>
			<path class="st2" d="M3052.2,1791.7c42.2,4.7,103.4,7.6,171.6,7.6c68.3,0,129.4-3,171.6-7.6c36.6-4.1,59.1-9.4,59.1-15.3v30.6
				c0,12.7-103.3,22.9-230.7,22.9c-127.4,0-230.7-10.3-230.7-22.9v-30.6C2993.1,1782.3,3015.6,1787.6,3052.2,1791.7z"/>
			<path class="st3" d="M3223.8,1753.4c127.4,0,230.7,10.3,230.7,22.9c0,5.9-22.5,11.2-59.1,15.3c-42.2,4.7-103.4,7.6-171.6,7.6
				c-68.3,0-129.4-3-171.6-7.6c-36.6-4.1-59.1-9.4-59.1-15.3C2993.1,1763.7,3096.4,1753.4,3223.8,1753.4z"/>
			<path class="st4" d="M3223.8,1759.5c104.8,0,189.7,6.6,189.7,14.8c0,3.8-18.5,7.2-48.6,9.9c-34.7,3-85,4.9-141.1,4.9
				c-56.1,0-106.4-1.9-141.1-4.9c-30.1-2.6-48.6-6.1-48.6-9.9C3034.1,1766.2,3119.1,1759.5,3223.8,1759.5z"/>
		</g>
		<g>
			<path class="st2" d="M3039.2,1753.7c42.2,4.7,103.4,7.6,171.6,7.6c68.3,0,129.4-3,171.6-7.6c36.6-4.1,59.1-9.4,59.1-15.3v30.6
				c0,12.7-103.3,22.9-230.7,22.9c-127.4,0-230.7-10.3-230.7-22.9v-30.6C2980.1,1744.3,3002.6,1749.6,3039.2,1753.7z"/>
			<path class="st3" d="M3210.8,1715.4c127.4,0,230.7,10.3,230.7,22.9c0,5.9-22.5,11.2-59.1,15.3c-42.2,4.7-103.4,7.6-171.6,7.6
				c-68.3,0-129.4-3-171.6-7.6c-36.6-4.1-59.1-9.4-59.1-15.3C2980.1,1725.7,3083.4,1715.4,3210.8,1715.4z"/>
			<path class="st4" d="M3210.8,1721.5c104.8,0,189.7,6.6,189.7,14.8c0,3.8-18.5,7.2-48.6,9.9c-34.7,3-85,4.9-141.1,4.9
				c-56.1,0-106.4-1.9-141.1-4.9c-30.1-2.6-48.6-6.1-48.6-9.9C3021.1,1728.2,3106.1,1721.5,3210.8,1721.5z"/>
		</g>
		<g>
			<path class="st2" d="M3033.2,1702.7c42.2,4.7,103.4,7.6,171.6,7.6c68.3,0,129.4-3,171.6-7.6c36.6-4.1,59.1-9.4,59.1-15.3v30.6
				c0,12.7-103.3,22.9-230.7,22.9c-127.4,0-230.7-10.3-230.7-22.9v-30.6C2974.1,1693.3,2996.6,1698.6,3033.2,1702.7z"/>
			<path class="st3" d="M3204.8,1664.4c127.4,0,230.7,10.3,230.7,22.9c0,5.9-22.5,11.2-59.1,15.3c-42.2,4.7-103.4,7.6-171.6,7.6
				c-68.3,0-129.4-3-171.6-7.6c-36.6-4.1-59.1-9.4-59.1-15.3C2974.1,1674.7,3077.4,1664.4,3204.8,1664.4z"/>
			<path class="st4" d="M3204.8,1670.5c104.8,0,189.7,6.6,189.7,14.8c0,3.8-18.5,7.2-48.6,9.9c-34.7,3-85,4.9-141.1,4.9
				c-56.1,0-106.4-1.9-141.1-4.9c-30.1-2.6-48.6-6.1-48.6-9.9C3015.1,1677.2,3100.1,1670.5,3204.8,1670.5z"/>
		</g>
		<g>
			<path class="st2" d="M3044.2,1652.7c42.2,4.7,103.4,7.6,171.6,7.6c68.3,0,129.4-3,171.6-7.6c36.6-4.1,59.1-9.4,59.1-15.3v30.6
				c0,12.7-103.3,22.9-230.7,22.9c-127.4,0-230.7-10.3-230.7-22.9v-30.6C2985.1,1643.3,3007.6,1648.6,3044.2,1652.7z"/>
			<path class="st3" d="M3215.8,1614.4c127.4,0,230.7,10.3,230.7,22.9c0,5.9-22.5,11.2-59.1,15.3c-42.2,4.7-103.4,7.6-171.6,7.6
				c-68.3,0-129.4-3-171.6-7.6c-36.6-4.1-59.1-9.4-59.1-15.3C2985.1,1624.7,3088.4,1614.4,3215.8,1614.4z"/>
			<path class="st4" d="M3215.8,1620.5c104.8,0,189.7,6.6,189.7,14.8c0,3.8-18.5,7.2-48.6,9.9c-34.7,3-85,4.9-141.1,4.9
				c-56.1,0-106.4-1.9-141.1-4.9c-30.1-2.6-48.6-6.1-48.6-9.9C3026.1,1627.2,3111.1,1620.5,3215.8,1620.5z"/>
		</g>
		<g>
			<path class="st2" d="M3065.5,1604.4c42.2,4.7,103.4,7.6,171.6,7.6c68.3,0,129.4-3,171.6-7.6c36.6-4.1,59.1-9.4,59.1-15.3v30.6
				c0,12.7-103.3,22.9-230.7,22.9c-127.4,0-230.7-10.3-230.7-22.9v-30.6C3006.4,1595,3028.9,1600.3,3065.5,1604.4z"/>
			<path class="st3" d="M3237.1,1566.2c127.4,0,230.7,10.3,230.7,22.9c0,5.9-22.5,11.2-59.1,15.3c-42.2,4.7-103.4,7.6-171.6,7.6
				c-68.3,0-129.4-3-171.6-7.6c-36.6-4.1-59.1-9.4-59.1-15.3C3006.4,1576.4,3109.7,1566.2,3237.1,1566.2z"/>
			<path class="st4" d="M3237.1,1572.3c104.8,0,189.7,6.6,189.7,14.8c0,3.8-18.5,7.2-48.6,9.9c-34.7,3-85,4.9-141.1,4.9
				s-106.4-1.9-141.1-4.9c-30.1-2.6-48.6-6.1-48.6-9.9C3047.4,1578.9,3132.4,1572.3,3237.1,1572.3z"/>
		</g>
		<g>
			<path class="st2" d="M3052.2,1566.7c42.2,4.7,103.4,7.6,171.6,7.6c68.3,0,129.4-3,171.6-7.6c36.6-4.1,59.1-9.4,59.1-15.3v30.6
				c0,12.7-103.3,22.9-230.7,22.9c-127.4,0-230.7-10.3-230.7-22.9v-30.6C2993.1,1557.3,3015.6,1562.6,3052.2,1566.7z"/>
			<path class="st3" d="M3223.8,1528.4c127.4,0,230.7,10.3,230.7,22.9c0,5.9-22.5,11.2-59.1,15.3c-42.2,4.7-103.4,7.6-171.6,7.6
				c-68.3,0-129.4-3-171.6-7.6c-36.6-4.1-59.1-9.4-59.1-15.3C2993.1,1538.7,3096.4,1528.4,3223.8,1528.4z"/>
			<path class="st4" d="M3223.8,1534.5c104.8,0,189.7,6.6,189.7,14.8c0,3.8-18.5,7.2-48.6,9.9c-34.7,3-85,4.9-141.1,4.9
				c-56.1,0-106.4-1.9-141.1-4.9c-30.1-2.6-48.6-6.1-48.6-9.9C3034.1,1541.2,3119.1,1534.5,3223.8,1534.5z"/>
		</g>
		<g>
			<path class="st2" d="M3052.2,1519.8c42.2,4.7,103.4,7.6,171.6,7.6c68.3,0,129.4-3,171.6-7.6c36.6-4.1,59.1-9.4,59.1-15.3v30.6
				c0,12.7-103.3,22.9-230.7,22.9c-127.4,0-230.7-10.3-230.7-22.9v-30.6C2993.1,1510.3,3015.6,1515.7,3052.2,1519.8z"/>
			<path class="st3" d="M3223.8,1481.5c127.4,0,230.7,10.3,230.7,22.9c0,5.9-22.5,11.2-59.1,15.3c-42.2,4.7-103.4,7.6-171.6,7.6
				c-68.3,0-129.4-3-171.6-7.6c-36.6-4.1-59.1-9.4-59.1-15.3C2993.1,1491.8,3096.4,1481.5,3223.8,1481.5z"/>
			<path class="st4" d="M3223.8,1487.6c104.8,0,189.7,6.6,189.7,14.8c0,3.8-18.5,7.2-48.6,9.9c-34.7,3-85,4.9-141.1,4.9
				c-56.1,0-106.4-1.9-141.1-4.9c-30.1-2.6-48.6-6.1-48.6-9.9C3034.1,1494.3,3119.1,1487.6,3223.8,1487.6z"/>
		</g>
		<g>
			<path class="st2" d="M3092.1,1481c42.2,4.7,103.4,7.6,171.6,7.6c68.3,0,129.4-3,171.6-7.6c36.6-4.1,59.1-9.4,59.1-15.3v30.6
				c0,12.7-103.3,22.9-230.7,22.9c-127.4,0-230.7-10.3-230.7-22.9v-30.6C3033,1471.6,3055.5,1476.9,3092.1,1481z"/>
			<path class="st3" d="M3263.8,1442.8c127.4,0,230.7,10.3,230.7,22.9c0,5.9-22.5,11.2-59.1,15.3c-42.2,4.7-103.4,7.6-171.6,7.6
				c-68.3,0-129.4-3-171.6-7.6c-36.6-4.1-59.1-9.4-59.1-15.3C3033,1453,3136.3,1442.8,3263.8,1442.8z"/>
			<path class="st4" d="M3263.8,1448.9c104.8,0,189.7,6.6,189.7,14.8c0,3.8-18.5,7.2-48.6,9.9c-34.7,3-85,4.9-141.1,4.9
				s-106.4-1.9-141.1-4.9c-30.1-2.6-48.6-6.1-48.6-9.9C3074.1,1455.5,3159,1448.9,3263.8,1448.9z"/>
		</g>
		<g>
			<path class="st2" d="M3025.6,1453.5c42.2,4.7,103.4,7.6,171.6,7.6s129.4-3,171.6-7.6c36.6-4.1,59.1-9.4,59.1-15.3v30.6
				c0,12.7-103.3,22.9-230.7,22.9c-127.4,0-230.7-10.3-230.7-22.9v-30.6C2966.5,1444.1,2988.9,1449.4,3025.6,1453.5z"/>
			<path class="st3" d="M3197.2,1415.2c127.4,0,230.7,10.3,230.7,22.9c0,5.9-22.5,11.2-59.1,15.3c-42.2,4.7-103.4,7.6-171.6,7.6
				s-129.4-3-171.6-7.6c-36.6-4.1-59.1-9.4-59.1-15.3C2966.5,1425.5,3069.8,1415.2,3197.2,1415.2z"/>
			<path class="st4" d="M3197.2,1421.3c104.8,0,189.7,6.6,189.7,14.8c0,3.8-18.5,7.2-48.6,9.9c-34.7,3-85,4.9-141.1,4.9
				s-106.4-1.9-141.1-4.9c-30.1-2.6-48.6-6.1-48.6-9.9C3007.5,1428,3092.4,1421.3,3197.2,1421.3z"/>
		</g>
		<g>
			<path class="st2" d="M3065.5,1408.6c42.2,4.7,103.4,7.6,171.6,7.6c68.3,0,129.4-3,171.6-7.6c36.6-4.1,59.1-9.4,59.1-15.3v30.6
				c0,12.7-103.3,22.9-230.7,22.9c-127.4,0-230.7-10.3-230.7-22.9v-30.6C3006.4,1399.2,3028.9,1404.5,3065.5,1408.6z"/>
			<path class="st3" d="M3237.1,1370.4c127.4,0,230.7,10.3,230.7,22.9c0,5.9-22.5,11.2-59.1,15.3c-42.2,4.7-103.4,7.6-171.6,7.6
				c-68.3,0-129.4-3-171.6-7.6c-36.6-4.1-59.1-9.4-59.1-15.3C3006.4,1380.6,3109.7,1370.4,3237.1,1370.4z"/>
			<path class="st4" d="M3237.1,1376.5c104.8,0,189.7,6.6,189.7,14.8c0,3.8-18.5,7.2-48.6,9.9c-34.7,3-85,4.9-141.1,4.9
				s-106.4-1.9-141.1-4.9c-30.1-2.6-48.6-6.1-48.6-9.9C3047.4,1383.1,3132.4,1376.5,3237.1,1376.5z"/>
		</g>
		<g>
			<path class="st2" d="M3012.3,1379c42.2,4.7,103.4,7.6,171.6,7.6s129.4-3,171.6-7.6c36.6-4.1,59.1-9.4,59.1-15.3v30.6
				c0,12.7-103.3,22.9-230.7,22.9c-127.4,0-230.7-10.3-230.7-22.9v-30.6C2953.2,1369.6,2975.6,1375,3012.3,1379z"/>
			<path class="st3" d="M3183.9,1340.8c127.4,0,230.7,10.3,230.7,22.9c0,5.9-22.5,11.2-59.1,15.3c-42.2,4.7-103.4,7.6-171.6,7.6
				s-129.4-3-171.6-7.6c-36.6-4.1-59.1-9.4-59.1-15.3C2953.2,1351.1,3056.5,1340.8,3183.9,1340.8z"/>
			<path class="st4" d="M3183.9,1346.9c104.8,0,189.7,6.6,189.7,14.8c0,3.8-18.5,7.2-48.6,9.9c-34.7,3-85,4.9-141.1,4.9
				s-106.4-1.9-141.1-4.9c-30.1-2.6-48.6-6.1-48.6-9.9C2994.2,1353.5,3079.1,1346.9,3183.9,1346.9z"/>
		</g>
		<g>
			<path class="st2" d="M3065.5,1340.3c42.2,4.7,103.4,7.6,171.6,7.6c68.3,0,129.4-3,171.6-7.6c36.6-4.1,59.1-9.4,59.1-15.3v30.6
				c0,12.7-103.3,22.9-230.7,22.9c-127.4,0-230.7-10.3-230.7-22.9V1325C3006.4,1330.9,3028.9,1336.2,3065.5,1340.3z"/>
			<path class="st3" d="M3237.1,1302c127.4,0,230.7,10.3,230.7,22.9c0,5.9-22.5,11.2-59.1,15.3c-42.2,4.7-103.4,7.6-171.6,7.6
				c-68.3,0-129.4-3-171.6-7.6c-36.6-4.1-59.1-9.4-59.1-15.3C3006.4,1312.3,3109.7,1302,3237.1,1302z"/>
			<path class="st4" d="M3237.1,1308.2c104.8,0,189.7,6.6,189.7,14.8c0,3.8-18.5,7.2-48.6,9.9c-34.7,3-85,4.9-141.1,4.9
				s-106.4-1.9-141.1-4.9c-30.1-2.6-48.6-6.1-48.6-9.9C3047.4,1314.8,3132.4,1308.2,3237.1,1308.2z"/>
		</g>
		<g>
			<path class="st2" d="M3025.6,1295.4c42.2,4.7,103.4,7.6,171.6,7.6s129.4-3,171.6-7.6c36.6-4.1,59.1-9.4,59.1-15.3v30.6
				c0,12.7-103.3,22.9-230.7,22.9c-127.4,0-230.7-10.3-230.7-22.9v-30.6C2966.5,1286,2988.9,1291.3,3025.6,1295.4z"/>
			<path class="st3" d="M3197.2,1257.2c127.4,0,230.7,10.3,230.7,22.9c0,5.9-22.5,11.2-59.1,15.3c-42.2,4.7-103.4,7.6-171.6,7.6
				s-129.4-3-171.6-7.6c-36.6-4.1-59.1-9.4-59.1-15.3C2966.5,1267.4,3069.8,1257.2,3197.2,1257.2z"/>
			<path class="st4" d="M3197.2,1263.3c104.8,0,189.7,6.6,189.7,14.8c0,3.8-18.5,7.2-48.6,9.9c-34.7,3-85,4.9-141.1,4.9
				s-106.4-1.9-141.1-4.9c-30.1-2.6-48.6-6.1-48.6-9.9C3007.5,1269.9,3092.4,1263.3,3197.2,1263.3z"/>
		</g>
		<path class="st5" d="M3171,718.9l47.7,11.4c0,0,7.8-59.9-14.1-64.6c-17.8-3.8-71.9,5.1-99.3,22.2c1.3-37.6-10.2-88.7-13-105
			c0,0-13.8-24.9-16.4-1.4c-3.7,34.2-7.1,97.7-2.4,123.6c3.5,19.3,6.4,19.6,13.6,22.6C3106.5,735.9,3171,718.9,3171,718.9z"/>
		<path class="st6" d="M3093.8,576.8c0.5-2.1,1.4-4.2,2.3-6.3c0.7-1.5,1.4-3,2.1-4.4c1.5-2.5,2.4-4.8,2.7-6
			c1.4-6.6,6.3-19.3,3.3-20.1c-4.6-1.3-6.8,8-6.8,8s0.9-6.7,0.1-10.5c-1.2-5.5-6.3-3.2-6.7-0.6c-3.2-3.9-5.7-0.5-6.4,1.4
			c-3.3-4.2-5.8-0.1-6.3,1.7c-1.2-2.2-4.2-1.3-4.7,0.7c-0.3,1.1-3.7,16.2,0.2,25.8c0.6,2.9,1.4,6.7,2,9.3c0.2,1,0.4,4,0.6,6.5
			l15.9,0.5C3092.6,580.4,3093,580,3093.8,576.8z"/>
		<path class="st7" d="M3247.6,659.3l-5.2-51.5l-35.7,8.7c0,0,7.5,32.7,3.5,53.9c-4.1,21.2,37.5,3.2,37.5,3.2V659.3z"/>
		<path class="st8" d="M3295,1206.3c-61.8-85.8-28.2-90.6-98-126.4c17.8-33.5,41-94.9,42.2-113.5l-20.7-62.7l-49.5,6.6
			c-4.8,21.3-20.1,144.3-20.9,148.3c-0.8,4-9.1,23.2,17.8,49.4c73.6,72,117.1,113.6,117.1,113.6S3286.9,1211.3,3295,1206.3z"/>
		<path class="st9" d="M3218.5,903.8l-2,62.7c2.8,13.5,4.7,85.4,5.3,154c0.3,0.4,0.5,0.8,0.8,1.2c-0.1,39.2,0.3,127-0.9,131.2
			c15.8-2.1,22.2-3,22.2-3c0.1-1.6,34.1-90.3,14.6-143.1c21.4-78.2,23.7-82,33-120.8c13.6-57.1-4.8-91.3-4.8-91.3L3218.5,903.8z"/>
		<path class="st10" d="M3223.8,963.1l0-0.7c0-0.1,0-0.1,0-0.2C3223.8,962.5,3223.8,962.8,3223.8,963.1z"/>
		<path class="st11" d="M3223.7,966.5c0.1-1.2,0.1-2.4,0.1-3.4L3223.7,966.5z"/>
		
			<rect x="3207.4" y="661.8" transform="matrix(-1 -3.055051e-03 3.055051e-03 -1 6444.9829 1579.5802)" class="st12" width="32.5" height="246.1"/>
		<path class="st13" d="M3175.9,672.8c-1.7,12.9,1.8,42.5-3.7,96.4c-5.3,52.1-17.6,123-22.9,147c-3,13.6,6,7,10.5,7.2
			c31.6,0.1,54.5-3,57.8-1.1c0-15.2,5.7-252.7,0.7-260.3c-5.5-5.8-20.6-2.8-38.5,7.7C3176.8,671.3,3176,672.4,3175.9,672.8z"/>
		<path class="st13" d="M3233.4,663.2c2.2-5.4,43.5,3,54,7.1c22.1,8.7,22.4,109.9,23.6,121.6c1.3,12.6,6.1,132.1,6.1,132.1
			c-32.1,10.5-73.6-1.7-73.6-1.7S3220.8,716.4,3233.4,663.2z"/>
		<g>
			<g>
				<path class="st14" d="M3211.1,1254.3c0,1,0.9,1.8,1.9,1.8c1,0,1.7-0.9,1.7-1.9s-0.9-1.8-1.9-1.8S3211.1,1253.3,3211.1,1254.3z"
					/>
				<path class="st14" d="M3209,1256c0,1,0.9,1.8,1.9,1.8c1,0,1.7-0.9,1.7-1.9c0-1-0.9-1.8-1.9-1.8
					C3209.7,1254.1,3209,1255,3209,1256z"/>
				<path class="st14" d="M3207.3,1257.3c0,1,0.9,1.8,1.9,1.8c1,0,1.7-0.9,1.7-1.9c0-1-0.9-1.8-1.9-1.8
					C3208,1255.4,3207.2,1256.2,3207.3,1257.3z"/>
				<path class="st14" d="M3205,1258.6c0,1,0.9,1.8,1.9,1.8c1,0,1.7-0.9,1.7-1.9c0-1-0.9-1.8-1.9-1.8S3205,1257.6,3205,1258.6z"/>
			</g>
			<path class="st15" d="M3247.7,1255.9l0.1,18.4c0,2.6-2,4.7-4.5,4.7l-15.7,0.1l0.1-5.9c-3.9,2.3-14.6,5.8-31.1,5.9
				c-16.5,0.1-25.2-0.6-30.8-1.5c-5.7-0.9-1.3-8.6,5.2-10c21.6-4.7,34.9-4,45.8-18.5c1-1.3,1.2-3.6,2.8-3.6c4.3-0.1,12.6,1,15.9,1.1
				c3.8,0,6.9-1.1,9.9-1.1c1.3,0,2.4,1.2,2.4,2.5L3247.7,1255.9z"/>
		</g>
		<g>
			<g>
				<path class="st14" d="M3272.4,1227.4c0.8,0.6,1.9,0.5,2.5-0.3c0.6-0.8,0.5-2-0.3-2.6c-0.8-0.6-1.9-0.5-2.5,0.3
					C3271.5,1225.6,3271.6,1226.7,3272.4,1227.4z"/>
				<path class="st14" d="M3272.2,1230.1c0.8,0.6,1.9,0.5,2.5-0.3s0.5-2-0.3-2.6s-1.9-0.5-2.5,0.3S3271.5,1229.5,3272.2,1230.1z"/>
				<path class="st14" d="M3272,1232.3c0.8,0.6,1.9,0.5,2.5-0.3c0.6-0.8,0.5-2-0.3-2.6c-0.8-0.6-1.9-0.5-2.5,0.3
					S3271.3,1231.7,3272,1232.3z"/>
				<path class="st14" d="M3271.5,1235c0.8,0.6,1.9,0.5,2.5-0.3c0.6-0.8,0.5-2-0.3-2.6s-1.9-0.5-2.5,0.3S3270.8,1234.3,3271.5,1235z
					"/>
			</g>
			<path class="st15" d="M3297.4,1199.5l13.5,11.9c1.9,1.7,2.1,4.6,0.5,6.6l-10.2,12.5l-4.2-3.9c-0.9,4.6-5.3,15.3-16,28.4
				c-10.7,13.1-16.9,19.4-21.2,23.3c-4.3,3.9-7.1-4.6-3.9-10.6c10.7-20.1,19.9-30.2,16.4-48.2c-0.3-1.6-1.8-3.3-0.8-4.6
				c2.7-3.5,9-9.3,11.2-11.8c2.5-3,3.7-6.2,5.7-8.5c0.9-1,2.4-1.1,3.4-0.2L3297.4,1199.5z"/>
		</g>
		<g>
			<path class="st14" d="M3245.4,637.4c0,0,4-2.2,9-16.7c3.5-10,3.7-21.2,7.7-42.2c3-15.3-3.4-18.4-8.6-18.1
				c0.5-1.5,0.8-3.2,1.4-3.5c-4.2-0.7-8.3-2.3-9.4-2.2c-0.8-2-0.7-2.8-0.7-2.8l-2.1,3.1c0,0-1.2-6.7-11.6-8.5
				c-15-2.6-22.8-3.1-29.7,1.8c-6.9,4.9-33.2-1.4-15.7,29.3c4.7,8.2,6.3,6.1,17.1,4.1c12.7-2.3,40.2,32.2,40.2,32.2L3245.4,637.4z"
				/>
			<path class="st16" d="M3197.6,579.3c0,0-2.8,17,0,38.4c2.6,20.1,1.2,41.3,20.9,35.7c19.7-5.6,24.3-14.4,24.9-22.4
				c0.6-8,1.8-9.9,6.6-12.2c4.8-2.3,9.6-24.7,1.1-22.8c-6.3,1.4-7.2,13.7-7.8,16.4c-3.4-5.9-5.2-12.1-5.7-15.8
				c-0.5-3.6,3.4-20.8-0.5-22C3215.3,568.2,3197.6,579.3,3197.6,579.3z"/>
			<path class="st14" d="M3199.3,629.1c0,0,0.1,27,11.3,25.8c11.2-1.2,35-2.4,33.7-31.7c-1.3-29.3-2.3-16.5-2.3-16.5l-3.7-15.8
				c0,0,2.8,27-10.8,36.4C3222.7,630.5,3212.3,621,3199.3,629.1z"/>
		</g>
		<polygon class="st17" points="3227,659.9 3231.6,671 3226.5,680.7 3231.3,895.8 3219.7,916.1 3206.4,893.9 3225.3,681 
			3221.5,670.8 		"/>
		<g>
			<g>
				<polygon class="st18" points="3257.6,943.6 3254.2,943.9 3252.1,920.7 3255.5,920.3 				"/>
				<polygon class="st18" points="3288.2,940.5 3284.8,940.8 3282.7,917.6 3286.1,917.2 				"/>
			</g>
			<path class="st18" d="M3333.5,947.9l-0.6-6.8c-0.7-7.6-6.8-13.3-13.7-12.6l-6.2,0.6C3314.1,940.5,3323.3,948.9,3333.5,947.9z"/>
			<path class="st19" d="M3276.9,1002.8c29.9-3,54-14.3,59.2-26.6l1.9,20c-10.2,1-17.7,11.2-16.6,22.6l-85.2,8.6
				c-1.1-11.5-10.2-19.9-20.5-18.9l-2.5-26.9l0.6,6.9C3221.3,999.6,3247,1005.8,3276.9,1002.8z"/>
			<path class="st20" d="M3275.9,992.4c-29.9,3-55.6-3.2-63-14.3l-1.7-17.8c10.3-1,17.7-11.2,16.6-22.6l85.2-8.6
				c1.1,11.4,10.3,19.8,20.5,18.7l2.4,26.3l-0.8-8.4C3329.9,978.1,3305.8,989.4,3275.9,992.4z"/>
			<polygon class="st3" points="3212.9,978.1 3213.2,981.6 3212.9,978.1 			"/>
			<polygon class="st3" points="3336.1,976.1 3336.1,976.1 3335.9,974.2 			"/>
			<path class="st3" d="M3275.9,992.4c29.9-3,54-14.3,59.2-26.6l0.8,8.4l0.2,2c-5.2,12.3-29.4,23.6-59.2,26.6
				c-29.9,3-55.6-3.2-63-14.2l-0.6-6.9l-0.3-3.5C3220.3,989.2,3246,995.4,3275.9,992.4z"/>
			<path class="st18" d="M3338.6,1003l-0.6-6.9c-10.2,1-17.7,11.2-16.6,22.6l6.2-0.6C3334.3,1017.4,3339.3,1010.6,3338.6,1003z"/>
			<path class="st18" d="M3215.7,1008.4l0.6,6.9c0.7,7.6,6.8,13.3,13.7,12.6l6.2-0.6C3235.1,1015.9,3225.9,1007.4,3215.7,1008.4z"/>
			<path class="st18" d="M3227.8,937.7l-6.2,0.6c-6.8,0.7-11.8,7.5-11.1,15.1l0.6,6.9C3221.5,959.3,3228.9,949.2,3227.8,937.7z"/>
			<g>
				<path class="st18" d="M3242.8,999.2l-1.7,0.2c-1.8,0.2-3.4-1.2-3.6-3.1l-5.5-59l8.2-0.8l5.5,59
					C3245.9,997.4,3244.6,999.1,3242.8,999.2z"/>
				<path class="st18" d="M3311.4,992.3l-1.7,0.2c-1.8,0.2-3.4-1.2-3.6-3.1l-5.5-59l8.2-0.8l5.5,59
					C3314.5,990.5,3313.2,992.1,3311.4,992.3z"/>
			</g>
			<path class="st21" d="M3282.9,921.1l-27,2.7c-1.9,0.2-3.7-1.3-3.9-3.3l0,0c-0.2-2,1.2-3.8,3.2-4l27-2.7c1.9-0.2,3.7,1.3,3.9,3.3
				l0,0C3286.2,919.1,3284.8,920.9,3282.9,921.1z"/>
			<path class="st11" d="M3244.7,965.3l-11.7,1.2c-0.6,0.1-1.1,0.6-1,1.3l1.1,12.1c0.1,0.6,0.6,1.1,1.2,1l11.7-1.2
				c0.6-0.1,1.1-0.6,1-1.3l-1.1-12.1C3245.8,965.7,3245.3,965.2,3244.7,965.3z M3245,977.3c0,0.3-0.2,0.7-0.5,0.7l-9,0.9
				c-0.3,0-0.6-0.2-0.7-0.6l-0.9-9.4c0-0.3,0.2-0.7,0.5-0.7l9-0.9c0.3,0,0.6,0.2,0.7,0.6L3245,977.3z"/>
			<path class="st11" d="M3313.2,958.3l-11.7,1.2c-0.6,0.1-1.1,0.6-1,1.3l1.1,12.1c0.1,0.6,0.6,1.1,1.2,1l11.7-1.2
				c0.6-0.1,1.1-0.6,1-1.3l-1.1-12.1C3314.4,958.8,3313.8,958.3,3313.2,958.3z M3313.6,970.3c0,0.3-0.2,0.7-0.5,0.7l-9,0.9
				c-0.3,0-0.6-0.2-0.7-0.6l-0.9-9.4c0-0.3,0.2-0.7,0.5-0.7l9-0.9c0.3,0,0.6,0.2,0.7,0.6L3313.6,970.3z"/>
			<path class="st20" d="M3240,973l-1.1,0.1l-0.5-5.9c0-0.3,0.2-0.6,0.5-0.6l0,0c0.3,0,0.6,0.2,0.6,0.5L3240,973z"/>
			<path class="st20" d="M3308.6,966.1l-1.1,0.1l-0.5-5.9c0-0.3,0.2-0.6,0.5-0.6l0,0c0.3,0,0.6,0.2,0.6,0.5L3308.6,966.1z"/>
			<path class="st22" d="M3277.6,1010.3L3277.6,1010.3c2.2-0.2,3.8-2.3,3.6-4.6l-0.8-8.3c-0.1-1.4-1.4-2.5-2.7-2.3l-3,0.3
				c-1.4,0.1-2.4,1.4-2.3,2.9l0.8,8.3C3273.4,1008.8,3275.3,1010.5,3277.6,1010.3z"/>
			<path class="st2" d="M3272.7,998.4l7.4-0.7c1-0.1,1.8-1,1.7-2.1l0-0.2c-0.1-1.1-1-1.8-2-1.7l-7.4,0.7c-1,0.1-1.8,1-1.7,2.1l0,0.2
				C3270.8,997.7,3271.7,998.5,3272.7,998.4z"/>
		</g>
		<path class="st16" d="M3278.4,929.2c-1.3,1.4-4.2,0.8-4.3-1.7c-1.2,1.3-5.1,3.5-6.1-1.5c-1.4,1.3-5,3-6.1-1.8
			c-1.4,2.1-6.5,2.2-5.1-3c0.9-3.6,2.3-9,2.3-9s-5.9,6.8-9.2,3.6c-2.2-2.1,7.5-10.6,11.5-15.5c0.7-0.9,2.5-2.4,4.9-3.8
			c3-2.1,6.1-4.4,8.4-7c2.4-2.7,2.7-2.5,4.7-5.2c1.9-2.8,2.1-2.8,2.1-2.8l12.1,7.9c0,0-3.6,7.8-4,9.5c-0.6,2.5-1.6,6.1-2.3,8.8
			C3286.4,917.6,3279.1,928.4,3278.4,929.2z"/>
		<path class="st5" d="M3303.3,679.6c29.9,45.3,37.6,115.2,30.2,126.3c-17.1,25.7-35,87.6-41,87.8c0.3-7.2-14.5-7.3-14.5-7.3
			s6.3-57.5,25.9-97.5c-19-23.2-29.7-51.6-40.8-87.2C3253.3,670.5,3291.1,661.2,3303.3,679.6z"/>
	</g>
	<g>
		<g>
			<polygon class="st23" points="2563.3,1404.5 2563.3,1425.6 2046.6,1421.3 2054.1,1388.9 			"/>
			<path class="st24" d="M2046.6,1299.8h517l-0.4,123.7c0,0-489.5-33.7-516.7-2.2C2035,1374.8,2046.6,1299.8,2046.6,1299.8z"/>
			<polygon class="st9" points="2239.5,1299.8 2239.5,1423.2 2352.5,1424.2 2358.6,1424.2 2358.6,1299.8 			"/>
			<polygon class="st25" points="2245.5,1299.8 2245.5,1423.2 2352.5,1424.2 2352.7,1299.8 			"/>
		</g>
		<g>
			<polygon class="st23" points="2558.9,1279 2558.9,1300.1 2042.2,1295.8 2049.7,1263.4 			"/>
			<path class="st24" d="M2042.2,1174.3h517l-0.4,123.7c0,0-489.5-33.7-516.7-2.2C2030.7,1249.3,2042.2,1174.3,2042.2,1174.3z"/>
			<polygon class="st9" points="2235.2,1174.3 2235.2,1297.7 2348.1,1298.7 2354.3,1298.7 2354.3,1174.3 			"/>
			<polygon class="st25" points="2241.1,1174.3 2241.1,1297.7 2348.1,1298.7 2348.3,1174.3 			"/>
		</g>
		<g>
			<polygon class="st23" points="2045.3,1038.4 2045.3,1059.5 2562,1055.2 2554.5,1022.8 			"/>
			<path class="st24" d="M2562,933.7h-517l0.4,123.7c0,0,489.5-33.7,516.7-2.2C2573.5,1008.7,2562,933.7,2562,933.7z"/>
			<polygon class="st9" points="2369,933.7 2369,1057.1 2256,1058.1 2249.9,1058.1 2249.9,933.7 			"/>
			<polygon class="st25" points="2363.1,933.7 2363.1,1057.1 2256,1058.1 2255.9,933.7 			"/>
		</g>
		<g>
			<polygon class="st23" points="2561.5,1157 2561.5,1178 2044.8,1173.8 2052.3,1141.3 			"/>
			<path class="st24" d="M2044.8,1052.3h517l-0.4,123.7c0,0-489.5-33.7-516.7-2.2C2033.3,1127.2,2044.8,1052.3,2044.8,1052.3z"/>
			<polygon class="st9" points="2237.8,1052.3 2237.8,1175.7 2350.8,1176.7 2356.9,1176.7 2356.9,1052.3 			"/>
			<polygon class="st25" points="2243.7,1052.3 2243.7,1175.7 2350.8,1176.7 2350.9,1052.3 			"/>
		</g>
		<g>
			<polygon class="st23" points="2566,1528.2 2566,1549.3 2049.3,1545 2056.8,1512.6 			"/>
			<path class="st24" d="M2049.3,1423.5h517l-0.4,123.7c0,0-489.5-33.7-516.7-2.2C2037.7,1498.5,2049.3,1423.5,2049.3,1423.5z"/>
			<polygon class="st9" points="2242.2,1423.5 2242.2,1547 2355.2,1548 2361.3,1548 2361.3,1423.5 			"/>
			<polygon class="st25" points="2248.2,1423.5 2248.2,1547 2355.2,1548 2355.4,1423.5 			"/>
		</g>
		<g>
			<polygon class="st23" points="2041.1,1759.4 2041.1,1780.5 2557.8,1776.2 2550.3,1743.7 			"/>
			<path class="st24" d="M2557.8,1654.7h-517l0.4,123.7c0,0,489.5-33.7,516.7-2.2C2569.3,1729.7,2557.8,1654.7,2557.8,1654.7z"/>
			<polygon class="st9" points="2364.9,1654.7 2364.9,1778.1 2251.9,1779.1 2245.8,1779.1 2245.8,1654.7 			"/>
			<polygon class="st25" points="2358.9,1654.7 2358.9,1778.1 2251.9,1779.1 2251.7,1654.7 			"/>
		</g>
		<g>
			<polygon class="st23" points="2566,1652 2566,1673 2049.3,1668.8 2056.8,1636.3 			"/>
			<path class="st24" d="M2049.3,1547.3h517L2566,1671c0,0-489.5-33.7-516.7-2.2C2037.7,1622.2,2049.3,1547.3,2049.3,1547.3z"/>
			<polygon class="st9" points="2242.2,1547.3 2242.2,1670.7 2355.2,1671.7 2361.3,1671.7 2361.3,1547.3 			"/>
			<polygon class="st25" points="2248.2,1547.3 2248.2,1670.7 2355.2,1671.7 2355.4,1547.3 			"/>
		</g>
		<g>
			<path class="st26" d="M2334,524.8c0,0,3.7,158.9-6.1,167.8l-72.2-41.9c-1.5-0.7-7.1,7.2-8.3,8.3l-12.4,10
				c9.8,8.8,83.1,67.8,92.9,67.8s40.4,15.4,50.2-37.7c9.8-53.1,23.4-179.8,23.4-179.8L2334,524.8z"/>
			<g>
				<g>
					<path class="st14" d="M2227.6,670.5c-0.7-0.7-0.6-1.7,0.1-2.4c0.7-0.6,1.8-0.6,2.5,0.1c0.7,0.7,0.6,1.7-0.1,2.4
						C2229.4,671.2,2228.3,671.2,2227.6,670.5z"/>
					<path class="st14" d="M2225,670.8c-0.7-0.7-0.6-1.7,0.1-2.4c0.7-0.6,1.8-0.6,2.5,0.1c0.7,0.7,0.6,1.7-0.1,2.4
						C2226.8,671.6,2225.6,671.5,2225,670.8z"/>
					<path class="st14" d="M2222.9,671.2c-0.7-0.7-0.6-1.7,0.1-2.4c0.7-0.6,1.8-0.6,2.5,0.1c0.7,0.7,0.6,1.7-0.1,2.4
						C2224.7,671.9,2223.6,671.9,2222.9,671.2z"/>
					<path class="st14" d="M2220.4,671.8c-0.7-0.7-0.6-1.7,0.1-2.4c0.7-0.6,1.8-0.6,2.5,0.1c0.7,0.7,0.6,1.7-0.1,2.4
						C2222.2,672.6,2221.1,672.5,2220.4,671.8z"/>
				</g>
				<path class="st15" d="M2252.1,645l-12.6-11.8c-1.8-1.7-4.6-1.7-6.4,0l-11,10.4l4.1,3.7c-4.3,1.1-14.2,6.1-25.8,17
					s-17.1,17.2-20.5,21.5c-3.3,4.3,5.1,6.3,10.5,2.9c18.3-11.4,27.2-20.8,44.8-18.8c1.6,0.2,3.3,1.5,4.5,0.4
					c3.1-2.8,8.1-9.1,10.4-11.3c2.7-2.6,5.6-3.9,7.6-5.9c0.9-0.9,0.9-2.3-0.1-3.2L2252.1,645z"/>
			</g>
			<path class="st27" d="M2278.8,536.3c0,0-16.3,18.1,3,166.3c-11.6-24.5-75.4-29.6-90.5-34.4c-1.8,2.2-11.1,17.5-11.1,17.5
				c9.8,8.8,88.7,60.1,98.5,60.1s49.1,17.7,58.9-35.4c9.8-53.1,23.3-173.8,23.3-173.8L2278.8,536.3z"/>
			<g>
				<g>
					<path class="st14" d="M2176.8,693.9c-0.8-0.6-0.9-1.6-0.3-2.3c0.6-0.7,1.7-0.9,2.5-0.3c0.8,0.6,0.9,1.6,0.3,2.3
						C2178.7,694.3,2177.5,694.4,2176.8,693.9z"/>
					<path class="st14" d="M2174.2,694.6c-0.8-0.6-0.9-1.6-0.3-2.3c0.6-0.7,1.7-0.9,2.5-0.3c0.8,0.6,0.9,1.6,0.3,2.3
						C2176.1,695,2175,695.2,2174.2,694.6z"/>
					<path class="st14" d="M2172.2,695.3c-0.8-0.6-0.9-1.6-0.3-2.3c0.6-0.7,1.7-0.9,2.5-0.3c0.8,0.6,0.9,1.6,0.3,2.3
						C2174.1,695.7,2173,695.9,2172.2,695.3z"/>
					<path class="st14" d="M2169.9,696.4c-0.8-0.6-0.9-1.6-0.3-2.3c0.6-0.7,1.7-0.9,2.5-0.3c0.8,0.6,0.9,1.6,0.3,2.3
						C2171.8,696.8,2170.7,697,2169.9,696.4z"/>
				</g>
				<path class="st15" d="M2196.5,664.6l-14.5-9.4c-2-1.3-4.9-0.8-6.3,1.1l-9.1,12.2l4.7,2.9c-4,1.9-12.9,8.4-22.5,21.2
					c-9.6,12.8-13.9,19.9-16.5,24.7c-2.6,4.8,6.1,5.4,10.9,1.1c16.1-14.4,23.2-25.1,40.9-26.2c1.6-0.1,3.5,0.9,4.5-0.3
					c2.6-3.3,6.4-10.4,8.3-12.9c2.2-3,4.8-4.8,6.5-7.1c0.7-1,0.4-2.4-0.6-3.1L2196.5,664.6z"/>
			</g>
			<path class="st14" d="M2307,243.8l17.2,9.2c-12.1,9.6-25.5,29.9-25.5,29.9l0.2,22.5c0,0-32.3-27.3-19.9-55.9
				C2286,233.3,2306.5,246.4,2307,243.8z"/>
			<polygon class="st28" points="2293.7,338.5 2316.5,371.5 2342.1,354.7 2332.4,280 2301.8,273.9 			"/>
			<path class="st29" d="M2336.1,244.3c0,0,8.4,16.6,7.9,37.2c-0.5,19.3,3.1,39.3-16.9,36.1c-20-3.2-25.4-11.1-26.9-18.6
				c-1.4-7.5-2.8-9.2-7.8-10.8c-5-1.7-12.1-22.4-3.4-21.5c6.4,0.7,8.5,12.2,9.4,14.7c2.7-6,2.6-16.5,2.7-20
				c0.1-3.5-19.2-15.7-14.2-19.6C2321.9,214.1,2336.1,244.3,2336.1,244.3z"/>
			<path class="st14" d="M2344,296.3c0,0,2.3,21.8-8.9,21.8c-11.1,0-34.8,1.5-36.6-26.5c-1.7-27.9,0.6-15.9,0.6-15.9l2-14.3
				c0,0,0,24.8,14.4,32.2C2320.6,296.3,2330.3,290,2344,296.3z"/>
			<path class="st29" d="M2188.8,174.1c0.3-2.8,1.1-5.7,2-8.6c0.6-2.1,1.3-4.1,2-6.1c1.6-3.5,2.4-6.7,2.5-8.2
				c0.7-8.8,4.5-27.4,0.4-27.9c-6.4-0.7-7.4,12.9-7.4,12.9s-2.6-8.7-4.4-13.4c-2.6-6.8-9.1-2.9-9.1,0.6c-5.1-4.4-7.8,0.5-8.3,3.1
				c-5.2-4.7-7.9,1-8.2,3.4c-2-2.6-5.9-0.9-6.2,1.8c-0.2,1.5,0.7,21.5,7.7,33c1.3,3.6,3.1,8.3,4.4,11.6c0.5,1.2,1.3,5,2,8.3
				l21.5-2.5C2187.8,179,2188.3,178.4,2188.8,174.1z"/>
			<path class="st29" d="M2428.3,144.9c0.1-2.8-0.2-5.8-0.7-8.8c-0.3-2.1-0.7-4.3-1.1-6.3c-1.1-3.7-1.4-7-1.3-8.5
				c0.6-8.8-0.5-27.8,3.7-27.6c6.4,0.2,5.4,13.8,5.4,13.8s3.8-8.2,6.3-12.6c3.6-6.4,9.4-1.5,8.9,1.9c5.6-3.7,7.7,1.6,7.8,4.3
				c5.9-3.9,7.6,2.1,7.6,4.5c2.4-2.3,6,0,5.9,2.7c0,1.5-3.8,21.1-12.4,31.6c-1.8,3.4-4.3,7.8-6.1,10.8c-0.7,1.1-2.1,4.8-3.2,8
				l-20.9-5.6C2428.6,149.8,2428.2,149.2,2428.3,144.9z"/>
			<path class="st30" d="M2451,153.5l-23.2-6.4c-8.7,39.8-40.6,101.7-54.9,142.5c-7.6,14.2-20.9,65.5-32.3,30.6
				c-0.1-0.2-0.2-0.3-0.4-0.1c-4.1,3.9-11.1,16.7-16.7,16.7c-0.7,0-11.5-2.4-30.2-24.2c-4.6-5.4-10.3,17.7-17.9,11l-30.2-27.2
				c-26.9-28.4-32.7-70.3-57.3-113.5l-21.6,1.5c10.4,81.1,32.2,127.2,62.8,157.2c16.2,19.8,30,22.3,36.9,96.2
				c1.3,14.1,5.5,58.3,4.2,105.9c0,1.4,7.8,3.7,9,3.2c30.2-12.4,102.3,2.9,122.9-24.9c-16.4-95.6-19.4-66.1-9.7-154.9
				C2399.7,314.4,2445.4,186.8,2451,153.5z"/>
			<polygon class="st9" points="2325.2,336.9 2321.1,346.1 2325.6,354.3 2321.4,534.1 2331.5,551 2343,532.5 2326.6,354.5 
				2329.9,346 			"/>
		</g>
	</g>
	<g>
		<g>
			<polygon class="st23" points="1878.8,1441.5 1878.8,1462.6 1362.1,1458.3 1369.6,1425.9 			"/>
			<path class="st24" d="M1362.1,1336.8h517l-0.4,123.7c0,0-489.5-33.7-516.7-2.2C1350.5,1411.8,1362.1,1336.8,1362.1,1336.8z"/>
			<polygon class="st9" points="1555,1336.8 1555,1460.2 1668,1461.2 1674.1,1461.2 1674.1,1336.8 			"/>
			<polygon class="st25" points="1561,1336.8 1561,1460.2 1668,1461.2 1668.2,1336.8 			"/>
		</g>
		<g>
			<polygon class="st23" points="1904.9,1314 1904.9,1335 1388.2,1330.8 1395.7,1298.3 			"/>
			<path class="st24" d="M1388.2,1209.3h517l-0.4,123.7c0,0-489.5-33.7-516.7-2.2C1376.7,1284.2,1388.2,1209.3,1388.2,1209.3z"/>
			<polygon class="st9" points="1581.2,1209.3 1581.2,1332.7 1694.2,1333.7 1700.3,1333.7 1700.3,1209.3 			"/>
			<polygon class="st25" points="1587.1,1209.3 1587.1,1332.7 1694.2,1333.7 1694.3,1209.3 			"/>
		</g>
		<g>
			<polygon class="st23" points="1881.5,1565.2 1881.5,1586.3 1364.8,1582 1372.3,1549.6 			"/>
			<path class="st24" d="M1364.8,1460.5h517l-0.4,123.7c0,0-489.5-33.7-516.7-2.2C1353.3,1535.5,1364.8,1460.5,1364.8,1460.5z"/>
			<polygon class="st9" points="1557.8,1460.5 1557.8,1584 1670.7,1585 1676.9,1585 1676.9,1460.5 			"/>
			<polygon class="st25" points="1563.7,1460.5 1563.7,1584 1670.7,1585 1670.9,1460.5 			"/>
		</g>
		<g>
			<polygon class="st23" points="1356.6,1796.4 1356.6,1817.5 1873.3,1813.2 1865.8,1780.7 			"/>
			<path class="st24" d="M1873.3,1691.7h-517l0.4,123.7c0,0,489.5-33.7,516.7-2.2C1884.9,1766.7,1873.3,1691.7,1873.3,1691.7z"/>
			<polygon class="st9" points="1680.4,1691.7 1680.4,1815.1 1567.4,1816.1 1561.3,1816.1 1561.3,1691.7 			"/>
			<polygon class="st25" points="1674.4,1691.7 1674.4,1815.1 1567.4,1816.1 1567.2,1691.7 			"/>
		</g>
		<g>
			<polygon class="st23" points="1881.5,1689 1881.5,1710 1364.8,1705.8 1372.3,1673.3 			"/>
			<path class="st24" d="M1364.8,1584.3h517l-0.4,123.7c0,0-489.5-33.7-516.7-2.2C1353.3,1659.2,1364.8,1584.3,1364.8,1584.3z"/>
			<polygon class="st9" points="1557.8,1584.3 1557.8,1707.7 1670.7,1708.7 1676.9,1708.7 1676.9,1584.3 			"/>
			<polygon class="st25" points="1563.7,1584.3 1563.7,1707.7 1670.7,1708.7 1670.9,1584.3 			"/>
		</g>
		<g>
			<path class="st31" d="M1553.9,935.8c0,0,130.9,39,156.8,18.9C1663.1,940.4,1570,902.3,1553.9,935.8z"/>
			<path class="st7" d="M1569.8,1164.1c6.8-67.7,20.2-76.6,24-138c46-54.4,32.4-107.2,46-119.6l-19.8-0.6l-27.5-23
				c-17.9,11.8-20.6,39.6-33.9,68.4c-9.3,20.2-18.8,50.3-15.3,74.8c14.4,100.6,6.1,142.8,6.1,142.8S1560.9,1162.1,1569.8,1164.1z"/>
			<path class="st32" d="M1693.8,1156.2c-22.2-103.1-4.8-86.6-28.4-148.7c33.2-70.3,32-77.9,40.3-93.4l-32-35.2l-30.7-13.4
				c-12.5,16.1-20.5,82.5-23.6,94.3c-1,3.7-12.2,27.2-3.2,51c36.7,97.1,60.9,152.9,60.9,152.9S1684.7,1156.7,1693.8,1156.2z"/>
			<path class="st31" d="M1696.2,606.8c-0.6,2.1,3.8,5.2,9.9,6.9c6.1,1.7,11.5,1.4,12.1-0.7c0.6-2.1-3.8-5.2-9.9-6.9
				C1702.2,604.3,1696.8,604.6,1696.2,606.8z"/>
			<path class="st31" d="M1530.3,572.9c2.4,2.8,8.3,1.8,13.1-2.2c4.8-4.1,6.8-9.7,4.5-12.5c-2.4-2.8-8.3-1.8-13.1,2.2
				C1529.9,564.4,1527.9,570.1,1530.3,572.9z"/>
			<path class="st7" d="M1653.4,662.1c0,0-4.6,9.5-5.6,28.2c-1,19.5-47,32.5-52.6,24.8c-5.6-7.8-1.4-34.6,2.1-38.5
				c3.5-3.9,29,1.2,32.6-17.9C1633.4,639.6,1657.4,640.4,1653.4,662.1z"/>
			<path class="st6" d="M1549,546.1c0-2.3,0.2-4.8,0.6-7.3c0.2-1.8,0.5-3.6,0.8-5.3c0.8-3.1,1-5.8,0.9-7.1c-0.3-7.1,1-21.8-1.8-21.2
				c-4.2,0.8-4,10.9-4,10.9s-0.7-7-2.3-10.4c-2.3-4.8-6.2-0.3-5.9,2.4c-3.7-2.4-5,2.1-5.2,4.3c-3.8-2.6-5,2.5-5,4.4
				c-1.5-1.6-3.9,0.6-3.9,2.8c0,1.2,0.6,17.6,6.1,25.2c1.2,2.6,2.7,5.9,3.9,8.2c0.4,0.8,3.9,20.9,4.7,23.4l12.6-12.9
				C1550.3,561.1,1549,549.7,1549,546.1z"/>
			<path class="st6" d="M1696.3,590.4c0-2.3-0.2-4.8-0.6-7.3c-0.2-1.8-0.5-3.6-0.8-5.3c-0.8-3.1-1-5.8-0.9-7.1
				c0.3-7.1-1-21.8,1.8-21.2c4.2,0.8,4,10.9,4,10.9s0.7-7,2.3-10.4c2.3-4.8,6.2-0.3,5.9,2.4c3.7-2.4,5,2.1,5.2,4.3
				c3.8-2.6,5,2.5,5,4.4c1.5-1.6,3.9,0.6,3.9,2.8c0,1.2-0.6,17.6-6.1,25.2c-1.2,2.6-2.7,5.9-3.9,8.2c-0.4,0.8-3.9,20.9-4.7,23.4
				l-12.6-12.9C1695,605.4,1696.3,593.9,1696.3,590.4z"/>
			<path class="st8" d="M1694.6,605.8c0,0,4.8,93.8-14.4,83.9c-22-11.3-26.5-13-33.9-5.6c-48.5,48.5-40.6-2.7-40.6-8
				c0-5.3-50.4-109.4-54.7-116.4c-5.6,6.4-17.4,22-21.7,10.7c4.9,24,29.5,124.9,30.9,136.2c-7.8,16.2-22.9,38.4-9.9,52.3
				c22.5,24.1,31.1,75.6,22.6,97.5c-8.5,21.9-11.2,63.5-19.2,79.4c27.5-2.1,62.2-4.9,157,19c6.4-31.2,1.4-86.4-12.1-111.8
				c-10.9-20.5-27.2-34.2-37.6-47.3c-7.8-9.8-12.4-7.8-11.5-26.6c0.9-18.6,10.3-35.3,18.7-38.7c19.2-7.6,28-1.3,46-16
				c25.3-20.6,6.4-99.5,3.8-102.7C1715.3,615.9,1697.8,605.8,1694.6,605.8z"/>
			<path class="st16" d="M1626.7,619.1c0.4,1.5,1.6,2.7,3.9,6.5c2.9,4.8,7.8,5.6,12.5,8.3c4.7,2.7,5.5,2.7,6.6,5
				c1.1,2.3,0.4,10.9-2.4,15.8c-1.3,2.3-3.5,3.6-6.3,6.2c1.6-0.7,3.8-1.2,7.3-4.8c3.4-3.5,5-10.8,5.2-12.8c0.6,0.7,1.4,3.2,2.6,6.1
				c0.8-0.9,1.8-5.2,4.8-7.2c2.4-1.6,9.1,1.1,7.1,7.1c-1.6,5-6.4,4.5-9.4,5.3c-3.1,0.9-2.8,2.1-5.6,7.8c0,0,0.1,0,0.1,0
				c-3.5,2.4-9,5.7-12.5,6.6c-4.9,1.2-14.7,4.7-20.2,0.9c-5.5-3.8-7.9-20.7-7.4-27.7c0.5-7,3.2-7.4,3.4-12.1c0.1-2.4,1-5.4,1.9-7.7
				C1621.3,622.3,1624.2,622.2,1626.7,619.1z"/>
			<path class="st33" d="M1614.7,619.2c-3-3.7-5.7-10.1,4.5-18.1c10.2-8,17.6-11.3,25-12.1c3.4-5,13.9-17.2,28.1-13
				c14.2,4.2,25.4,17,18.9,26.3c-6.6,9.3-9,10.9-2.1,12.8c-2.1,1.4-2.9,1.2-2.6,2.1c0.3,0.9,6,13.3-0.1,21.9
				c-6.1,8.5-8.9,18.8-33.1,23.5c0,0-0.1,0-0.1,0c2.7-5.8,2.5-7,5.6-7.8c3.1-0.9,7.8-0.4,9.4-5.3c1.9-6-4.7-8.7-7.1-7.1
				c-3.1,2-4,6.3-4.8,7.2c-1.2-2.9-1.9-5.4-2.6-6.1c-0.2,1.9-1.8,9.3-5.2,12.8c-3.5,3.6-5.7,4.1-7.3,4.8c2.7-2.7,5-4,6.3-6.2
				c2.8-4.9,3.5-13.5,2.4-15.8c-1.1-2.3-1.9-2.2-6.6-5c-4.7-2.7-9.6-3.5-12.5-8.3c-2.3-3.8-3.5-4.9-3.9-6.5
				c-2.5,3.1-5.4,3.2-8.3,3.4c-1.7,0.1-3.5,0.3-5.1,1.1c-3.1,1.5-8.7,3.6-13.5,11.6C1600.7,631.8,1605.9,621.3,1614.7,619.2z"/>
			<path class="st33" d="M1571,1153.6c1.5-0.4-0.6,10.1-0.7,11.6c-0.1,5.1,1.9,30.7,1.9,36.2c2.6,0.4,1,9.5,1.8,10.9
				c0.6,1.1-15.4-0.3-20.9,0.5c-0.1-1.2,0,0-0.3-3.5c-6.5,5.3-18.2,4-27.5,3.8c-4.2-0.1-10.2-1-10.7-2.5
				c-2.3-7.5,3.2-13.3,14.9-14.2c12.1-0.9,17.1-21.6,17.8-26.8c0.7-5.7,1.1-15.7,4.2-15.7C1554.1,1154,1564,1155.6,1571,1153.6z"/>
			<path class="st33" d="M1692.6,1149c1.3-0.8,2.1,9.9,2.4,11.4c1.3,4.9,10,29.1,11.5,34.4c2.6-0.3,3.5,8.9,4.7,10
				c0.9,0.8-14.9,3.8-20,6.1c-0.4-1.1,0,0-1.2-3.2c-4.8,6.8-16.5,8.7-25.5,11c-4.1,1-10.1,1.8-11,0.5c-4.2-6.6-0.4-13.7,10.6-17.7
				c11.4-4.1,10.7-25.3,10-30.5c-0.8-5.7-3.1-15.4-0.1-16.2C1676.4,1153.9,1686.4,1152.8,1692.6,1149z"/>
		</g>
	</g>
	<g>
		<g>
			<polygon class="st23" points="3000.2,1578.5 3000.2,1599.6 2483.5,1595.3 2491,1562.9 			"/>
			<path class="st24" d="M2483.5,1473.8h517l-0.4,123.7c0,0-489.5-33.7-516.7-2.2C2471.9,1548.8,2483.5,1473.8,2483.5,1473.8z"/>
			<polygon class="st9" points="2676.4,1473.8 2676.4,1597.2 2789.4,1598.2 2795.5,1598.2 2795.5,1473.8 			"/>
			<polygon class="st25" points="2682.4,1473.8 2682.4,1597.2 2789.4,1598.2 2789.6,1473.8 			"/>
		</g>
		<g>
			<polygon class="st23" points="2478,1813.4 2478,1834.5 2994.7,1830.2 2987.2,1797.7 			"/>
			<path class="st24" d="M2994.7,1708.7h-517l0.4,123.7c0,0,489.5-33.7,516.7-2.2C3006.3,1783.7,2994.7,1708.7,2994.7,1708.7z"/>
			<polygon class="st9" points="2801.8,1708.7 2801.8,1832.1 2688.8,1833.1 2682.7,1833.1 2682.7,1708.7 			"/>
			<polygon class="st25" points="2795.8,1708.7 2795.8,1832.1 2688.8,1833.1 2688.6,1708.7 			"/>
		</g>
		<g>
			<polygon class="st23" points="3002.9,1706 3002.9,1727 2486.2,1722.8 2493.7,1690.3 			"/>
			<path class="st24" d="M2486.2,1601.3h517l-0.4,123.7c0,0-489.5-33.7-516.7-2.2C2474.7,1676.2,2486.2,1601.3,2486.2,1601.3z"/>
			<polygon class="st9" points="2679.1,1601.3 2679.1,1724.7 2792.1,1725.7 2798.3,1725.7 2798.3,1601.3 			"/>
			<polygon class="st25" points="2685.1,1601.3 2685.1,1724.7 2792.1,1725.7 2792.3,1601.3 			"/>
		</g>
		<g>
			<g>
				<g>
					<g>
						<g>
							<polygon class="st7" points="2606.6,1019.3 2588.3,1016.5 2585.3,997.7 2606,998.1 							"/>
						</g>
						<g>
							<path class="st7" d="M2586.7,997.8c-1.3-0.2-2.3-0.5-4.9-0.9c-4.1-0.6-8.6-2.1-12.7-3.7c-3-1.4-5.8-2.2-7.1-2.3
								c-7.6-0.7-22.6-4.6-23.1-1c-0.7,5.5,10,6.8,10,6.8s-7.7-0.1-11.8,1.4c-6,2.2-2.6,7.9,0.4,7.9c-3.9,4.3,0.3,6.8,2.6,7.3
								c-4.2,4.5,0.7,6.8,2.8,7.1c-2.3,1.7-0.8,5.1,1.4,5.4c1.3,0.2,18.8,1.9,28.9-4c3.2-1.1,7.3-2.6,10.1-3.7
								c0.9-0.4,3.6-0.9,6.2-1.4L2586.7,997.8z"/>
						</g>
					</g>
				</g>
				<path class="st30" d="M2698.1,842.5c-36.2-0.3-21.2,135.9-21.2,135.9c-38.7,0.6-36.2,1.9-82.4,16.2c0,0-7.8,2.4-8.1,2.5
					l1.2,22.5c1.3-0.8,5.6,0.4,6.3,0c0.4-0.2,85.7,5,106.3-5.6c20.6-10.6,22.5-76.6,29.2-124.4
					C2732.2,870.3,2721.9,842.7,2698.1,842.5z"/>
			</g>
			<g>
				<path class="st34" d="M2773.2,785c0,0-1.9,36.9,7.5,50c9.3,13.1-50.5,8.5-50.5,8.5s12-67.9,16.1-64.9
					C2750.5,781.4,2773.2,785,2773.2,785z"/>
				<path class="st35" d="M2790.4,773.9c-9.4,55.3-61.3,47.8-66.6,0.1c-10.7,1.7-11.3-20.5-1.3-15.4c-8.3-18.4,6.3-23.7,13.8-17
					c3.6,3.2,14.8,7.9,29.9,6c9.7-1.2,14.7-13.5,14.8-14.8c5.5,4.8,6,12.1,11.5,25.1C2800.8,749.1,2801.2,775.7,2790.4,773.9z"/>
				<path class="st36" d="M2791.9,757c0.5-0.9,0.9-1.9,1.2-3c6.2-18-2.6-38.9-21.3-42.3c-9.1-1.7-15.8-2.2-20-1.9
					c-11.5,0.9-23.6,1.4-29.4,10c-1.7,2.5-6.6,7.6-7.3,12.1c-0.8,5.1,0.4,21.2,6.9,24.8c1.9-7.8,5.5-10.9,14.4-9.2
					c8.4,1.7,19.7,5.4,28.8,3.5c8.7-1.8,13.4-4.9,15.1-13.3C2781.3,739.3,2789.9,747.5,2791.9,757z"/>
				<path class="st36" d="M2769.6,804.5c-3.1-4.2-12.5-14.1-24.5-0.3c-4.8-2-9.9-5.3-15.3-10.4c31.2,59.4,54.6,0,54.6,0
					S2778.8,800.7,2769.6,804.5z M2746,804.6c10.7-5.7,19.3-2,22.8,0.2C2762.6,807.2,2754.8,808.1,2746,804.6z"/>
			</g>
			<path class="st37" d="M2822.5,1391.8c-64.7-69.5-36.2-80.6-108.6-136c20.8-37.6,34.8-80.3,36.2-101.2l-24.2-70.4l-40.3-0.3
				c-16.9,44.3-28.6,121.1-30,148c-0.5,8.8-4.4,32.5,17.5,52.5c87.1,79.6,134.9,130.5,134.9,130.5S2813,1397.4,2822.5,1391.8z"/>
			<path class="st29" d="M2725.9,1084.2l-3.8,61c-1.8,29.8-1.2,59.8,2.4,89.4c2.5,20.7,4.8,50.4,5.2,92.8c0.3,0.5,0.6,0.9,0.9,1.4
				c-0.2,44,5.4,110.7,3.9,115.4c18.5-2.4,26-3.3,26-3.3c10.6-89.1,26.9-117.2,11.9-178.4c18.1-45,39.7-108.2,41.8-153
				c1.2-25.6,0-36.9,0-36.9L2725.9,1084.2z"/>
			<path class="st25" d="M2691.3,844.1c7.3-3.7,36.9,1.9,41.2-20c6.2,11.9,12.3,17.1,16.9,20c0.7,0.4,15-11.9,28.1-22.5
				c1.9,27.5,33,12.3,47.4,20.3c0,0,17,75.8-11,232.9c-23.3,3.7-88.8,13.5-128.1,9.1c-0.7-4.3-7.8-89.9-3.7-129.9
				C2678.7,933.1,2685.4,845.2,2691.3,844.1z"/>
			<g>
				<g>
					<path class="st14" d="M2722.7,1445.1c0,1.1,1,2,2.1,1.9c1.1,0,2-1,1.9-2.1c0-1.1-1-2-2.1-1.9
						C2723.5,1443,2722.7,1444,2722.7,1445.1z"/>
					<path class="st14" d="M2720.4,1446.9c0,1.1,1,2,2.1,1.9c1.1,0,2-1,1.9-2.1c0-1.1-1-2-2.1-1.9
						C2721.2,1444.9,2720.3,1445.8,2720.4,1446.9z"/>
					<path class="st14" d="M2718.4,1448.3c0.1,1.1,1,2,2.1,1.9c1.1,0,2-1,1.9-2.1c0-1.1-1-2-2.1-1.9
						C2719.2,1446.2,2718.4,1447.1,2718.4,1448.3z"/>
					<path class="st14" d="M2715.9,1449.7c0,1.1,1,2,2.1,1.9c1.1,0,2-1,1.9-2.1s-1-2-2.1-1.9
						C2716.7,1447.6,2715.8,1448.6,2715.9,1449.7z"/>
				</g>
				<path class="st15" d="M2764,1466.7c0,2.8-2.2,5.1-5,5.1l-17.6,0.1l0.1-6.4c-4.4,2.5-16.4,6.2-35,6.3
					c-18.6,0.1-28.3-0.8-34.6-1.7c-6.4-1-1.4-9.3,5.8-10.8c24.3-5,39.3-4.3,51.5-19.9c1.1-1.4,1.4-3.9,3.2-3.9
					c4.8-0.1,14.2,1.2,17.9,1.2c4.3,0.1,7.8-1.2,11.1-1.1c1.5,0,2.7,1.3,2.7,2.7"/>
			</g>
			<g>
				<g>
					<path class="st14" d="M2794.4,1418.6c0.8,0.8,2,0.8,2.8,0.1s0.8-2,0.1-2.8s-2-0.8-2.8-0.1
						C2793.7,1416.5,2793.7,1417.8,2794.4,1418.6z"/>
					<path class="st14" d="M2793.8,1421.5c0.8,0.8,2,0.8,2.8,0.1s0.8-2,0.1-2.8s-2-0.8-2.8-0.1S2793.1,1420.7,2793.8,1421.5z"/>
					<path class="st14" d="M2793.2,1423.8c0.8,0.8,2,0.8,2.8,0.1c0.8-0.8,0.8-2,0.1-2.8c-0.8-0.8-2-0.8-2.8-0.1
						C2792.5,1421.7,2792.5,1423,2793.2,1423.8z"/>
					<path class="st14" d="M2792.3,1426.5c0.8,0.8,2,0.8,2.8,0.1c0.8-0.8,0.8-2,0.1-2.8c-0.8-0.8-2-0.8-2.8-0.1
						C2791.5,1424.5,2791.5,1425.7,2792.3,1426.5z"/>
				</g>
				<path class="st15" d="M2839.8,1408c1.8,2.1,1.6,5.3-0.5,7.2l-13.3,11.6l-4.1-4.9c-1.7,4.7-8.4,15.4-22.4,27.6
					c-14,12.2-21.9,17.9-27.3,21.3s-7.1-6.1-2.6-12c15.1-19.6,27-28.9,26-48.7c-0.1-1.8-1.5-3.8-0.2-5c3.6-3.2,11.5-8.4,14.3-10.8
					c3.3-2.8,5.1-6,7.7-8.1c1.1-1,2.8-0.8,3.8,0.3"/>
			</g>
			<polygon class="st8" points="2749.4,843.9 2754,854.3 2748.9,863.4 2753.7,1065.2 2742.3,1084.2 2729.3,1063.4 2747.7,863.6 
				2744.1,854.1 			"/>
			<g>
				<g>
					<g>
						<g>
							<polygon class="st7" points="2698.2,1042.1 2679.8,1044.9 2671.3,1028 2691.1,1022 							"/>
						</g>
						<g>
							<path class="st7" d="M2672.7,1027.6c-1.3,0.2-2.4,0.2-4.9,0.7c-4.1,0.7-8.9,0.6-13.2,0.4c-3.3-0.5-6.2-0.3-7.5,0
								c-7.5,1.7-22.9,2.5-22.3,6.1c1,5.5,11.6,3.5,11.6,3.5s-7.4,2.2-10.8,4.9c-5,3.9-0.1,8.3,2.7,7.4c-2.4,5.3,2.3,6.4,4.7,6.2
								c-2.6,5.5,2.8,6.3,4.8,5.9c-1.7,2.4,0.8,5.2,3,4.8c1.3-0.2,18.5-3.8,26.3-12.6c2.7-2,6.1-4.7,8.5-6.6c0.8-0.6,3.2-2,5.5-3.2
								L2672.7,1027.6z"/>
						</g>
					</g>
				</g>
				<path class="st30" d="M2815.5,838.8c-46-0.7-41.8,128.9-41.8,128.9c-40.6,13.4-46.7,29.7-95.1,57.2c0,0-3.7,1.7-4,1.8l5.2,20.5
					c1.3-0.8,4.6-1,5.3-1.4c0.4-0.2,85.1-23.1,105.7-33.7c20.6-10.6,49.3-78.5,56.1-126.2C2849.6,866.5,2839.3,839.1,2815.5,838.8z"
					/>
			</g>
		</g>
	</g>
	<g>
		<polygon class="st23" points="4055.2,1716.5 4055.2,1737.6 3538.5,1733.3 3546,1700.9 		"/>
		<path class="st24" d="M3538.5,1611.8h517l-0.4,123.7c0,0-489.5-33.7-516.7-2.2C3526.9,1686.8,3538.5,1611.8,3538.5,1611.8z"/>
		<polygon class="st9" points="3731.4,1611.8 3731.4,1735.2 3844.4,1736.2 3850.5,1736.2 3850.5,1611.8 		"/>
		<polygon class="st25" points="3737.4,1611.8 3737.4,1735.2 3844.4,1736.2 3844.6,1611.8 		"/>
	</g>
	<g>
		<polygon class="st23" points="4057.9,1844 4057.9,1865 3541.2,1860.8 3548.7,1828.3 		"/>
		<path class="st24" d="M3541.2,1739.3h517l-0.4,123.7c0,0-489.5-33.7-516.7-2.2C3529.7,1814.2,3541.2,1739.3,3541.2,1739.3z"/>
		<polygon class="st9" points="3734.1,1739.3 3734.1,1862.7 3847.1,1863.7 3853.3,1863.7 3853.3,1739.3 		"/>
		<polygon class="st25" points="3740.1,1739.3 3740.1,1862.7 3847.1,1863.7 3847.3,1739.3 		"/>
	</g>
	<path class="st2" d="M1032.4,1797.4c42.2,4.7,103.4,7.6,171.6,7.6c68.3,0,129.4-3,171.6-7.6c36.6-4.1,59.1-9.4,59.1-15.3v30.6
		c0,12.7-103.3,22.9-230.7,22.9s-230.7-10.3-230.7-22.9v-30.6C973.3,1788,995.8,1793.3,1032.4,1797.4z"/>
	<path class="st3" d="M1204.1,1759.2c127.4,0,230.7,10.3,230.7,22.9c0,5.9-22.5,11.2-59.1,15.3c-42.2,4.7-103.4,7.6-171.6,7.6
		c-68.3,0-129.4-3-171.6-7.6c-36.6-4.1-59.1-9.4-59.1-15.3C973.3,1769.4,1076.6,1759.2,1204.1,1759.2z"/>
	<path class="st4" d="M1204.1,1765.3c104.8,0,189.7,6.6,189.7,14.8c0,3.8-18.5,7.2-48.6,9.9c-34.7,3-85,4.9-141.1,4.9
		c-56.1,0-106.4-1.9-141.1-4.9c-30.1-2.6-48.6-6.1-48.6-9.9C1014.3,1771.9,1099.3,1765.3,1204.1,1765.3z"/>
	<path class="st2" d="M979.2,1767.8c42.2,4.7,103.4,7.6,171.6,7.6c68.3,0,129.4-3,171.6-7.6c36.6-4.1,59.1-9.4,59.1-15.3v30.6
		c0,12.7-103.3,22.9-230.7,22.9s-230.7-10.3-230.7-22.9v-30.6C920.1,1758.4,942.5,1763.8,979.2,1767.8z"/>
	<path class="st3" d="M1150.8,1729.6c127.4,0,230.7,10.3,230.7,22.9c0,5.9-22.5,11.2-59.1,15.3c-42.2,4.7-103.4,7.6-171.6,7.6
		c-68.3,0-129.4-3-171.6-7.6c-36.6-4.1-59.1-9.4-59.1-15.3C920.1,1739.9,1023.4,1729.6,1150.8,1729.6z"/>
	<path class="st4" d="M1150.8,1735.7c104.8,0,189.7,6.6,189.7,14.8c0,3.8-18.5,7.2-48.6,9.9c-34.7,3-85,4.9-141.1,4.9
		s-106.4-1.9-141.1-4.9c-30.1-2.6-48.6-6.1-48.6-9.9C961.1,1742.3,1046,1735.7,1150.8,1735.7z"/>
	<path class="st2" d="M1032.4,1729.1c42.2,4.7,103.4,7.6,171.6,7.6c68.3,0,129.4-3,171.6-7.6c36.6-4.1,59.1-9.4,59.1-15.3v30.6
		c0,12.7-103.3,22.9-230.7,22.9s-230.7-10.3-230.7-22.9v-30.6C973.3,1719.7,995.8,1725,1032.4,1729.1z"/>
	<path class="st3" d="M1204.1,1690.8c127.4,0,230.7,10.3,230.7,22.9c0,5.9-22.5,11.2-59.1,15.3c-42.2,4.7-103.4,7.6-171.6,7.6
		c-68.3,0-129.4-3-171.6-7.6c-36.6-4.1-59.1-9.4-59.1-15.3C973.3,1701.1,1076.6,1690.8,1204.1,1690.8z"/>
	<path class="st4" d="M1204.1,1697c104.8,0,189.7,6.6,189.7,14.8c0,3.8-18.5,7.2-48.6,9.9c-34.7,3-85,4.9-141.1,4.9
		c-56.1,0-106.4-1.9-141.1-4.9c-30.1-2.6-48.6-6.1-48.6-9.9C1014.3,1703.6,1099.3,1697,1204.1,1697z"/>
	<path class="st2" d="M992.5,1684.2c42.2,4.7,103.4,7.6,171.6,7.6s129.4-3,171.6-7.6c36.6-4.1,59.1-9.4,59.1-15.3v30.6
		c0,12.7-103.3,22.9-230.7,22.9s-230.7-10.3-230.7-22.9v-30.6C933.4,1674.8,955.9,1680.1,992.5,1684.2z"/>
	<path class="st3" d="M1164.1,1646c127.4,0,230.7,10.3,230.7,22.9c0,5.9-22.5,11.2-59.1,15.3c-42.2,4.7-103.4,7.6-171.6,7.6
		s-129.4-3-171.6-7.6c-36.6-4.1-59.1-9.4-59.1-15.3C933.4,1656.2,1036.7,1646,1164.1,1646z"/>
	<path class="st4" d="M1164.1,1652.1c104.8,0,189.7,6.6,189.7,14.8c0,3.8-18.5,7.2-48.6,9.9c-34.7,3-85,4.9-141.1,4.9
		s-106.4-1.9-141.1-4.9c-30.1-2.6-48.6-6.1-48.6-9.9C974.4,1658.7,1059.3,1652.1,1164.1,1652.1z"/>
	<path class="st2" d="M1032.4,1639.3c42.2,4.7,103.4,7.6,171.6,7.6c68.3,0,129.4-3,171.6-7.6c36.6-4.1,59.1-9.4,59.1-15.3v30.6
		c0,12.7-103.3,22.9-230.7,22.9s-230.7-10.3-230.7-22.9V1624C973.3,1629.9,995.8,1635.3,1032.4,1639.3z"/>
	<path class="st3" d="M1204.1,1601.1c127.4,0,230.7,10.3,230.7,22.9c0,5.9-22.5,11.2-59.1,15.3c-42.2,4.7-103.4,7.6-171.6,7.6
		c-68.3,0-129.4-3-171.6-7.6c-36.6-4.1-59.1-9.4-59.1-15.3C973.3,1611.4,1076.6,1601.1,1204.1,1601.1z"/>
	<path class="st4" d="M1204.1,1607.2c104.8,0,189.7,6.6,189.7,14.8c0,3.8-18.5,7.2-48.6,9.9c-34.7,3-85,4.9-141.1,4.9
		c-56.1,0-106.4-1.9-141.1-4.9c-30.1-2.6-48.6-6.1-48.6-9.9C1014.3,1613.8,1099.3,1607.2,1204.1,1607.2z"/>
	<path class="st7" d="M1282.3,1053.9c-2,2.3-3.9,7.3-3.9,7.3s1.9-7.3-1.9-8.2c-2.4-0.6-3.8,10.1-5.2,15.2c-0.3,0.9-0.5,2.9-0.3,5.2
		c0,1.3-0.1,2.6-0.1,3.9c-0.1,1.8-0.3,3.6-0.7,5.3c-0.4,1.8-0.9,3.1-1.4,4.3l10.8,6.8c0.2-0.3,0.4-0.7,0.7-1.1l0,0
		c1.2-1.5,2.8-3,3.3-3.5c1.4-1.6,3.5-3.9,5-5.6c6.4-5,9.7-16.8,9.9-17.7c0.4-1.5-1.4-3.4-3.1-2.3c0.3-1.4,0.1-5.2-3.9-3.6
		c0.3-1.6-0.3-4.9-4.1-3.5C1288,1054.2,1285.2,1050.6,1282.3,1053.9z"/>
	<path class="st33" d="M1112.3,1042.6c14.7-14.4,13.3-37.1,20.1-59.2c6.7-22.1,29.7-19.4,47.7-16.7c1.4,0.2,5.1,0.2,10,4.5
		c2.1,1.8,4.4,6.4,6.9,6.7c11.8,1.6,15.1,14.1,12.3,21.9c-3.9,11.3-4,22.2-3.4,29.3c0.5,5.6,2.5,28.6-0.4,32.7
		c-2.7,3.8-6.4,8.2-10.8,12.7c-1.8,1.9-3.7,3.8-5.7,5.7l-1.3,1.3c-4.3,4-8.8,8.1-13.4,11.8c-4.4-7.5-36.4,11.1-32.6,19.7
		c-13.2,0-4.3-2.8-8.8-13.8c-2.1-5.1-7-6.7-11.7-8c-5.5-1.5-10.7-2.7-10.8-8.6C1110.1,1071.8,1097.6,1056.9,1112.3,1042.6z"/>
	<path class="st30" d="M1263.6,1093.5c-9.2,18-25.6,49.7-27.4,55.9c0,0-25.8-50.8-45.8-58.6c-38-14.8-43.1-8.9-49-3.7
		s3.6,22.6,17.2,31c13.6,8.3,65.9,48.7,78.6,56.1c12.7,7.4,21.8-3.4,23-8c1.2-4.5,16.5-55.1,19.3-70.8c0.5-0.6,1.1-1.3,1.7-2
		l-12.5-9.1C1267.2,1086.9,1265.3,1090.3,1263.6,1093.5z"/>
	<path class="st38" d="M1174.1,1072.9c14.5,13.6,9.4,7.7,9.4-4.3c0.1,0,0.1,0.1,0.2,0.1l-2-17.6c-3.8-0.9-7.9-3-10.8-4.6l-8.3-4.1
		c-1.3-0.7-2.3-2.7-3.1-5l0.7,22.9c0.3,0.2,0.5,0.4,0.8,0.7C1164.1,1063.7,1168.5,1067.6,1174.1,1072.9z"/>
	<path class="st6" d="M1178.5,1024.9l3,26.3c4,0.9,7.9,0.4,10.1-3.5c4.3-7.7,8-38.1,7.1-41.6c-0.9-3.4,0-8.5-1.7-11.1
		c-1.7-2.6-5.1-4.3-7.7-10.2c-19.7,4.2-18.3,9.2-28.1,19c-2,2-0.1,4.8-0.8,4.8c-0.9,0-3.4-2.6-6.8,0c-4,3-1.9,15.8,4.1,15l0.2,3.8
		c0,2.2,0.5,6.5,1.6,10l-0.4-12.5L1178.5,1024.9z"/>
	<path class="st6" d="M1162.5,1042.4l8.3,4.1c2.9,1.7,6.9,3.8,10.8,4.6l-3-26.3l-19.4,0l0.4,12.5
		C1160.2,1039.8,1161.2,1041.8,1162.5,1042.4z"/>
	<path class="st25" d="M1121.3,1127.4c24.5,78.6,14.6,82.1,5.4,128.7c2.9,0,6.6-0.1,10.6-0.3c1.5-2.7,3.8-5,7.3-6.9
		c16.5,0.9,55.5,0,55.5,0s-0.2,1-0.4,3c1.7-0.1,2.6-0.2,2.6-0.2s0-29.3,1.4-52.5c-8.2-2.1-15.2-4.3-19.2-6.3
		c-11.3-5.5-35.2-54.1-46.7-80.1c-3.8-8.6-6.3-14.8-6.4-16c-1.6-12.5,4.2-34.8,24.2-21.1c5.5,3.7,10.4,10,14.8,17.5
		c17.2,29,26.4,77.4,26.4,77.4c3.8,1.2,7.1,2.3,10.1,3.3c0.2-0.6,0.4-1.1,0.6-1.4c5.1-8.5,18.7-38.3,13.6-50.3
		c-4.6-10.7-11.3-30.8-30.3-47.8c-2.2-2-4.5-3.9-7-5.7c-0.1,0-0.1-0.1-0.2-0.1c0,11.9,5.1,17.9-9.4,4.3c-5.6-5.3-9.9-9.2-13.1-11.9
		c-0.3-0.2-0.5-0.4-0.8-0.7c-0.4-0.3-0.8-0.7-1.2-1c-3.2-2.7-7.6-3.2-11.3-1.4c-0.3,0.1-0.6,0.3-0.9,0.4
		c-11.1,5.5-26.3,12.8-29.7,32.9C1115.6,1100.3,1116.5,1112,1121.3,1127.4z M1183.6,1081.5c0.5-0.4,0.9-0.9,1.3-1.3l0.2,1.8
		L1183.6,1081.5z"/>
	<path class="st7" d="M1142.2,1374.5c-2.7,38-9.2,58.9-18.4,89.4c-17,56.5-0.6,64.2-6.3,142c-0.4,5,6.9,5.6,6.9,5.6s2.8-4.4,5.6-4.4
		c9.6-32,17.6-73.8,31.2-139.1c2.4-11.7,4.8-23.5,7.1-35.2c-3.3-10.4-7.3-19.9-12.3-28.8C1150.2,1393.5,1145.7,1383.7,1142.2,1374.5
		z"/>
	<path class="st7" d="M1176.1,1467.4c3.5,36.4,18.3,65,26.7,133.5c6.1,0.9,13.2-1.9,13.2-1.9l-3.9-157.8l-20.6-138.2
		c-5.6,34.4-13.7,81.4-23.2,129.8C1173.5,1448.9,1174,1445.3,1176.1,1467.4z"/>
	<path class="st39" d="M1183.4,1441c7.5-6.6,18.5-6.7,26.7-1.1c2.9,2,5.2,2.5,5.4-0.3c3.1-36,9.2-138.2-13.1-190.7
		c-41.4,0.2-62.1-14.1-85.6,20.6c-9.6,14.2-29.1,38.2-14.9,71.4c12.5,29.2,13.8,18,13.8,76.3c0,21-0.2,53.7-23,75.6
		C1114.2,1488.8,1147.6,1472.4,1183.4,1441z"/>
	<g>
		<path class="st33" d="M1198,1627.7L1198,1627.7c-0.1,0.6,0.2,1.2,0.6,1.3l9.3,0.1l0.2-9.5c1.9,2.5,7.9,9.1,16.2,9.2
			c8.2,0.1,21.1,1.2,24,0.2c2.8-1,1.7-3.3-1.6-3.7c-20.2-2.2-24.5-14.5-29.7-30.3c-0.1-0.4-0.5-0.7-0.8-0.7
			c-13.4,1.4-15.3-1.2-16.8-1.2c-0.7,0-1.2,1.3-1.2,2.8l0.5,4.2C1199.6,1609.4,1199.4,1618.7,1198,1627.7z"/>
	</g>
	<g>
		<path class="st33" d="M1116.5,1627.7L1116.5,1627.7c-0.1,0.6,0.2,1.2,0.6,1.3l9.3,0.1l0.2-9.5c1.9,2.5,7.9,9.1,16.2,9.2
			c8.2,0.1,21.1,1.2,24,0.2c2.8-1,1.7-3.3-1.6-3.7c-20.2-2.2-24.5-14.5-29.7-30.3c-0.1-0.4-0.5-0.7-0.8-0.7
			c-13.4,1.4-15.3-1.2-16.8-1.2c-0.7,0-1.2,1.3-1.2,2.8l0.5,4.2C1118,1609.4,1117.9,1618.7,1116.5,1627.7z"/>
	</g>
	<path class="st7" d="M1302.2,1212.5c-2.4-1.9-7.5-3.4-7.5-3.4s7.4,1.4,8.1-2.4c0.5-2.5-10.3-3.1-15.5-4.3c-0.9-0.2-2.9-0.3-5.2,0
		c-1.3,0.1-2.6,0.1-3.9,0.1c-1.8,0-3.7-0.1-5.3-0.4c-1.8-0.3-3.1-0.7-4.4-1.1l-6.1,11.2c0.4,0.2,0.7,0.4,1.2,0.6l0,0
		c1.6,1.1,3.2,2.6,3.7,3c1.7,1.3,4.1,3.2,5.9,4.6c5.4,6.1,17.4,8.6,18.3,8.8c1.6,0.3,3.3-1.6,2.1-3.3c1.4,0.3,5.2-0.3,3.4-4.1
		c1.6,0.2,4.9-0.6,3.2-4.3C1302.3,1218.2,1305.7,1215.2,1302.2,1212.5z"/>
	<path class="st30" d="M1155.4,1075.8c5.5,3.7,10.4,10,14.8,17.5c17.2,29,26.4,77.4,26.4,77.4c3.8,1.2,7.1,2.3,10.1,3.3
		c21.5,6.9,28.1,9.5,58.9,26.2l0,0c0.3,0.1,0.7,0.2,1.5,0.4l0-0.1c0.5,0.1,1,0.3,1.5,0.5l-6.1,11.2c-0.5-0.3-0.9-0.5-1.2-0.7
		c-0.3-0.1-0.6-0.3-0.8-0.3c-3.6-0.6-34.7-6.1-56.9-11.9c-8.2-2.1-15.2-4.3-19.2-6.3c-11.3-5.5-35.2-54.1-46.7-80.1
		c-3.8-8.6-6.3-14.8-6.4-16C1129.6,1084.5,1135.4,1062.2,1155.4,1075.8z"/>
	<g>
		<path class="st6" d="M3599.6,1165.2c-1.5-0.8-1.6-3.7,0.5-4.3c-1.4-0.8-4.2-3.9,0-5.9c-1.5-1-3.8-3.9,0.2-6
			c-2.1-0.9-2.9-5.9,2-5.8c3.3,0.1,8.8,2.3,8.8,2.3s-7.3-3.9-5.2-7.7c1.4-2.5,11,4.5,16.2,7.1c0.9,0.5,2.7,1.7,4.4,3.6
			c2.5,2.3,5.3,4.6,8.1,6.2c2.9,1.6,2.8,2,5.6,3.1c2.9,1.2,2.9,1.4,2.9,1.4l-4.2,12.8c0,0-7.6-1.5-9.3-1.5c-2.4,0-5.7-0.1-8.3-0.2
			C3612.4,1171.9,3600.4,1165.7,3599.6,1165.2z"/>
		<path class="st40" d="M3819.9,1130.2c-30.2,35.8-91.7,67.1-102.7,62.6c-25.3-10.6-80.8-15.2-82.5-20.6c6-1.1,2.5-14.5,2.5-14.5
			s49.1-5.2,86.8,5.1c14.6-21.7,29.7-38.8,55.6-57.1C3814,1081.4,3832.2,1115.6,3819.9,1130.2z"/>
		<path class="st41" d="M3771.3,1272.3c-1.1,18.9-32.9,61.4-44.9,121.2c-1.7,8.5-2.1,21.7,2,48.9c7.5,49.6,6.2,132.3,11.9,148
			c7.9-1.4,10.5,1.3,21.2,0.3c1-75.9,28.7-109,12.2-163.3c18.2-16.6,42.1-64.8,50.3-84.4c3.2-7.6,12.7-70.7,12.7-70.7
			C3809.3,1272.1,3771.3,1272.3,3771.3,1272.3z"/>
		<path class="st6" d="M3612.3,1293.6c-1.7,0.2-3.5-2.1-2.1-3.8c-1.6,0.2-5.7-0.7-3.4-4.8c-1.8,0-5.4-1-3.2-5
			c-2.2,0.5-5.8-3.1-1.7-5.9c2.8-1.9,8.5-3.2,8.5-3.2s-8.2,1-8.7-3.3c-0.3-2.8,11.6-2.6,17.4-3.5c1-0.2,3.2-0.1,5.7,0.4
			c3.3,0.4,7,0.8,10.2,0.4c3.3-0.3,3.4,0,6.4-0.7c3-0.7,3.1-0.6,3.1-0.6l3.9,12.9c0,0-7.1,3.1-8.5,4.1c-1.9,1.4-4.7,3.2-6.9,4.6
			C3626.6,1291.6,3613.3,1293.4,3612.3,1293.6z"/>
		<polygon class="st6" points="3798.2,1073.9 3789.2,1105.2 3765.1,1098.9 3753.2,1039 3775.2,1026.4 		"/>
		<path class="st42" d="M3778.2,1105.1l-3.8-6.5c-0.1-0.2-0.3-0.2-0.4,0l-4.1,4.9c-0.2,0.2-0.2,0.5-0.1,0.8l3,5.1v0l0.5,0.9
			c0.1,0.2,0.3,0.3,0.6,0.4c-0.2,0-0.4-0.1-0.6-0.4l-0.5-0.9l-0.8,5.2c1-0.1,2-0.3,3-0.4l0.2-4.7l0,0l2.9-3.5
			C3778.3,1105.6,3778.4,1105.3,3778.2,1105.1z"/>
		<path class="st43" d="M3748.4,1261.8l8.5,16l10.9-15.4l7.2-148.3c-1,0.1-2,0.3-3,0.4L3748.4,1261.8z"/>
		<path class="st0" d="M3755,1095.4c2.1,0.3,7.7-3.8,8.6-4c0.1,0.7,0.5,4.8-1.5,5.7C3757.7,1099.1,3755,1095.4,3755,1095.4z"/>
		<path class="st3" d="M3873.4,1593c-3.1-61.2,12.5-111.9-10.9-152.1c30.9-69.3,37.2-168.6,15-167.4c-9.8-0.6-28.5-0.9-47.3-1
			l-12.7,57.8c0,0,0-0.1,0.1-0.1c-0.9,9.8-14.1,76.8-1.1,107.1c23.2,54,31.6,145.1,33.1,155.6
			C3849.6,1592.9,3864.1,1597.6,3873.4,1593z"/>
		<path class="st44" d="M3782.5,1069.5c9.9-2.6,41.6-4.6,69.8,45.3c29.6,52.3,35.1,156,35.1,166.7c-8.8,5.3-109.7,16.3-119.8,13.8
			c-8.5-4.3,2-45.8,0.9-64.5c-1.1-17.6,1.5-67.4-5-91.7c6.6,16.9-20.9,82.1-30.7,90.2c-12.4,10.4-28.2,19.3-45.1,30.2
			c-16.1,10.4-45.1,25.5-46.8,19.3c-1.6-6.2-3.3-14.7-3.3-14.7s44-44.9,73.3-58.6c2.8-31.2,3.5-47.8,7.5-66.6
			C3729.8,1085.6,3756,1076.5,3782.5,1069.5z"/>
		<g>
			<path class="st14" d="M3730.3,1591.1c0,0.9,0.8,1.6,1.7,1.5s1.6-0.8,1.5-1.7s-0.8-1.6-1.7-1.5
				C3730.9,1589.5,3730.2,1590.3,3730.3,1591.1z"/>
			<path class="st14" d="M3728.4,1592.6c0,0.9,0.8,1.6,1.7,1.5c0.9,0,1.6-0.8,1.5-1.7s-0.8-1.6-1.7-1.5S3728.3,1591.7,3728.4,1592.6
				z"/>
			<path class="st14" d="M3726.8,1593.7c0,0.9,0.8,1.6,1.7,1.5c0.9,0,1.6-0.8,1.5-1.7c0-0.9-0.8-1.6-1.7-1.5
				C3727.5,1592.1,3726.8,1592.8,3726.8,1593.7z"/>
			<path class="st14" d="M3724.8,1594.8c0,0.9,0.8,1.6,1.7,1.5c0.9,0,1.6-0.8,1.5-1.7c0-0.9-0.8-1.6-1.7-1.5
				C3725.4,1593.2,3724.7,1594,3724.8,1594.8z"/>
		</g>
		<path class="st15" d="M3763.3,1592.6l0.1,15.9c0,2.2-1.8,4.1-4.1,4.1l-14.2,0.1l0.1-5.1c-3.5,2-13.2,5-28.1,5
			c-14.9,0.1-22.7-0.6-27.8-1.4c-5.1-0.8-1.1-7.5,4.7-8.7c19.5-4,31.6-3.4,41.4-16c0.9-1.1,1.1-3.1,2.5-3.1c3.9-0.1,11.4,0.9,14.4,1
			c3.5,0,6.2-0.9,8.9-0.9c1.2,0,2.1,1,2.1,2.2L3763.3,1592.6z"/>
		<path class="st14" d="M3841.8,1596c0,0.9,0.8,1.6,1.7,1.5c0.9,0,1.6-0.8,1.5-1.7c0-0.9-0.8-1.6-1.7-1.5
			C3842.4,1594.3,3841.8,1595.1,3841.8,1596z"/>
		<path class="st14" d="M3839.9,1597.4c0,0.9,0.8,1.6,1.7,1.5c0.9,0,1.6-0.8,1.5-1.7s-0.8-1.6-1.7-1.5S3839.8,1596.5,3839.9,1597.4z
			"/>
		<path class="st14" d="M3838.3,1598.5c0,0.9,0.8,1.6,1.7,1.5c0.9,0,1.6-0.8,1.5-1.7c0-0.9-0.8-1.6-1.7-1.5
			C3839,1596.9,3838.3,1597.6,3838.3,1598.5z"/>
		<path class="st14" d="M3836.3,1599.7c0,0.9,0.8,1.6,1.7,1.5c0.9,0,1.6-0.8,1.5-1.7c0-0.9-0.8-1.6-1.7-1.5
			C3836.9,1598,3836.3,1598.8,3836.3,1599.7z"/>
		<path class="st15" d="M3874.9,1597.4l0.1,15.9c0,2.2-1.8,4.1-4.1,4.1l-14.2,0.1l0.1-5.1c-3.5,2-13.2,5-28.1,5
			c-14.9,0.1-22.7-0.6-27.8-1.4c-5.1-0.8-1.1-7.5,4.7-8.7c19.5-4,31.6-3.4,41.4-16c0.9-1.1,1.1-3.1,2.5-3.1c3.9-0.1,11.4,0.9,14.4,1
			c3.5,0,6.2-0.9,8.9-0.9c1.2,0,2.1,1,2.1,2.2L3874.9,1597.4z"/>
		<path class="st14" d="M3753.6,990.1l-12.5,14.8c14.7,4.4,39.3,32.8,39.3,32.8l3.3,6.6c0,0,19.8-37.7-2.3-59.5
			C3769,972.6,3755.1,992.3,3753.6,990.1z"/>
		<path class="st16" d="M3727,1001.3c0,0-1.6,18.4,6.6,37.1c7.6,17.6,11.7,37.3,29,26.9c17.3-10.3,19.3-19.6,17.8-27.1
			c-1.5-7.4-0.8-9.5,3.1-12.8c4-3.4,2.8-25.1-4.8-21c-5.6,3-3.3,14.4-3.2,17c-4.7-4.5-8.8-14.5-7-17.4c8.2-13.3,14.9-20.2,9-22.2
			C3729.4,965.8,3727,1001.3,3727,1001.3z"/>
		<path class="st14" d="M3739.2,1052.1c0,0,0.7,2.4,2,5.4c0.8,1.7,1.7,3.7,2.9,5.5c2.8,4.3,6.6,7.8,11.4,5.9
			c10.3-4.1,32.6-11.6,23.8-37.9c-8.8-26.3-6.4-14.4-6.4-14.4l-4.6-10.5c0,0,3.3,12.3-3.8,33.1
			C3762.5,1044.5,3749.4,1041.3,3739.2,1052.1z"/>
	</g>
	<g>
		<path class="st2" d="M2020.2,1812.7c42.2,4.7,103.4,7.6,171.6,7.6c68.3,0,129.4-3,171.6-7.6c36.6-4.1,59.1-9.4,59.1-15.3v30.6
			c0,12.7-103.3,22.9-230.7,22.9c-127.4,0-230.7-10.3-230.7-22.9v-30.6C1961.1,1803.3,1983.6,1808.6,2020.2,1812.7z"/>
		<path class="st3" d="M2191.8,1774.4c127.4,0,230.7,10.3,230.7,22.9c0,5.9-22.5,11.2-59.1,15.3c-42.2,4.7-103.4,7.6-171.6,7.6
			c-68.3,0-129.4-3-171.6-7.6c-36.6-4.1-59.1-9.4-59.1-15.3C1961.1,1784.7,2064.4,1774.4,2191.8,1774.4z"/>
		<path class="st4" d="M2191.8,1780.5c104.8,0,189.7,6.6,189.7,14.8c0,3.8-18.5,7.2-48.6,9.9c-34.7,3-85,4.9-141.1,4.9
			c-56.1,0-106.4-1.9-141.1-4.9c-30.1-2.6-48.6-6.1-48.6-9.9C2002.1,1787.2,2087.1,1780.5,2191.8,1780.5z"/>
	</g>
	<g>
		<path class="st2" d="M2004.2,1778.7c42.2,4.7,103.4,7.6,171.6,7.6c68.3,0,129.4-3,171.6-7.6c36.6-4.1,59.1-9.4,59.1-15.3v30.6
			c0,12.7-103.3,22.9-230.7,22.9c-127.4,0-230.7-10.3-230.7-22.9v-30.6C1945.1,1769.3,1967.6,1774.6,2004.2,1778.7z"/>
		<path class="st3" d="M2175.8,1740.4c127.4,0,230.7,10.3,230.7,22.9c0,5.9-22.5,11.2-59.1,15.3c-42.2,4.7-103.4,7.6-171.6,7.6
			c-68.3,0-129.4-3-171.6-7.6c-36.6-4.1-59.1-9.4-59.1-15.3C1945.1,1750.7,2048.4,1740.4,2175.8,1740.4z"/>
		<path class="st4" d="M2175.8,1746.5c104.8,0,189.7,6.6,189.7,14.8c0,3.8-18.5,7.2-48.6,9.9c-34.7,3-85,4.9-141.1,4.9
			c-56.1,0-106.4-1.9-141.1-4.9c-30.1-2.6-48.6-6.1-48.6-9.9C1986.1,1753.2,2071.1,1746.5,2175.8,1746.5z"/>
	</g>
	<g>
		<path class="st2" d="M2020.2,1736.7c42.2,4.7,103.4,7.6,171.6,7.6c68.3,0,129.4-3,171.6-7.6c36.6-4.1,59.1-9.4,59.1-15.3v30.6
			c0,12.7-103.3,22.9-230.7,22.9c-127.4,0-230.7-10.3-230.7-22.9v-30.6C1961.1,1727.3,1983.6,1732.6,2020.2,1736.7z"/>
		<path class="st3" d="M2191.8,1698.4c127.4,0,230.7,10.3,230.7,22.9c0,5.9-22.5,11.2-59.1,15.3c-42.2,4.7-103.4,7.6-171.6,7.6
			c-68.3,0-129.4-3-171.6-7.6c-36.6-4.1-59.1-9.4-59.1-15.3C1961.1,1708.7,2064.4,1698.4,2191.8,1698.4z"/>
		<path class="st4" d="M2191.8,1704.5c104.8,0,189.7,6.6,189.7,14.8c0,3.8-18.5,7.2-48.6,9.9c-34.7,3-85,4.9-141.1,4.9
			c-56.1,0-106.4-1.9-141.1-4.9c-30.1-2.6-48.6-6.1-48.6-9.9C2002.1,1711.2,2087.1,1704.5,2191.8,1704.5z"/>
	</g>
</g>
</svg>
