<?xml version="1.0" encoding="utf-8"?>
<!-- Generator: Adobe Illustrator 26.2.1, SVG Export Plug-In . SVG Version: 6.00 Build 0)  -->
<!DOCTYPE svg PUBLIC "-//W3C//DTD SVG 1.1//EN" "http://www.w3.org/Graphics/SVG/1.1/DTD/svg11.dtd" [
	<!ENTITY ns_extend "http://ns.adobe.com/Extensibility/1.0/">
	<!ENTITY ns_ai "http://ns.adobe.com/AdobeIllustrator/10.0/">
	<!ENTITY ns_graphs "http://ns.adobe.com/Graphs/1.0/">
	<!ENTITY ns_vars "http://ns.adobe.com/Variables/1.0/">
	<!ENTITY ns_imrep "http://ns.adobe.com/ImageReplacement/1.0/">
	<!ENTITY ns_sfw "http://ns.adobe.com/SaveForWeb/1.0/">
	<!ENTITY ns_custom "http://ns.adobe.com/GenericCustomNamespace/1.0/">
	<!ENTITY ns_adobe_xpath "http://ns.adobe.com/XPath/1.0/">
]>
<svg version="1.1" id="Layer_1" xmlns:x="&ns_extend;" xmlns:i="&ns_ai;" xmlns:graph="&ns_graphs;"
	 xmlns="http://www.w3.org/2000/svg" xmlns:xlink="http://www.w3.org/1999/xlink" x="0px" y="0px" viewBox="0 0 3374 1800"
	 style="enable-background:new 0 0 3374 1800;" xml:space="preserve">
<style type="text/css">
	.Drop_x0020_Shadow{fill:none;}
	.Outer_x0020_Glow_x0020_5_x0020_pt{fill:none;}
	.Blue_x0020_Neon{fill:none;stroke:#8AACDA;stroke-width:7;stroke-linecap:round;stroke-linejoin:round;}
	.Chrome_x0020_Highlight{fill:url(#SVGID_1_);stroke:#FFFFFF;stroke-width:0.3629;stroke-miterlimit:1;}
	.Jive_GS{fill:#FFDD00;}
	.Alyssa_GS{fill:#A6D0E4;}
	.st0{fill:#FFFFFF;}
	.st1{fill:#BDD5EF;}
	.st2{fill:#AD9BEA;}
	.st3{fill:#FF9971;}
	.st4{fill:#DFE6EF;}
	.st5{fill:#75B0D8;}
	.st6{fill:#9BBA60;}
	.st7{fill:#FFF27B;}
	.st8{fill:#FF9F9F;}
	.st9{fill:#B5AAA3;}
	.st10{fill:#394454;}
	.st11{fill:#545E70;}
	.st12{fill:#A0C7EA;}
	.st13{fill:#51557C;}
	.st14{opacity:0.15;}
	.st15{fill:#FFD0A6;}
	.st16{fill:#FFDAAE;}
	.st17{fill:#919191;}
	.st18{fill:#DA8B85;}
	.st19{fill:#D0DCEA;}
	.st20{fill:#E5A87A;}
	.st21{fill:#915841;}
	.st22{fill:#23273A;}
	.st23{fill:#34273F;}
	.st24{fill:#D2C9C3;}
</style>
<metadata>
	<sfw  xmlns="&ns_sfw;">
		<slices></slices>
		<sliceSourceBounds  bottomLeftOrigin="true" height="1800" width="3374" x="-761" y="-1407"></sliceSourceBounds>
	</sfw>
</metadata>
<linearGradient id="SVGID_1_" gradientUnits="userSpaceOnUse" x1="761" y1="393" x2="761" y2="392">
	<stop  offset="0" style="stop-color:#656565"/>
	<stop  offset="0.618" style="stop-color:#1B1B1B"/>
	<stop  offset="0.6292" style="stop-color:#545454"/>
	<stop  offset="0.9831" style="stop-color:#3E3E3E"/>
</linearGradient>
<rect class="st0" width="3374" height="1800"/>
<g>
	<g>
		<g>
			<g>
				
					<ellipse transform="matrix(0.7071 -0.7071 0.7071 0.7071 154.1204 880.8604)" class="st1" cx="1140.4" cy="254.4" rx="125.4" ry="125.4"/>
			</g>
			<g>
				
					<ellipse transform="matrix(0.7071 -0.7071 0.7071 0.7071 184.2353 868.3863)" class="st0" cx="1140.4" cy="211.8" rx="49.1" ry="49.1"/>
			</g>
			<g>
				<path class="st0" d="M1183.9,423.7h-87.1c-17.3,0-31.3-14-31.3-31.3v-87.1c0-17.3,14-31.3,31.3-31.3h87.1
					c17.3,0,31.3,14,31.3,31.3v87.1C1215.2,409.7,1201.2,423.7,1183.9,423.7z"/>
			</g>
		</g>
		<g>
			<path class="st1" d="M1475.1,162.7h-172.5c-9.3,0-16.9-7.5-16.9-16.9v0c0-9.3,7.5-16.9,16.9-16.9h172.5c9.3,0,16.9,7.5,16.9,16.9
				v0C1492,155.1,1484.4,162.7,1475.1,162.7z"/>
		</g>
		<g>
			<path class="st1" d="M1398.2,219.9h-95.6c-9.3,0-16.9-7.5-16.9-16.9v0c0-9.3,7.5-16.9,16.9-16.9h95.6c9.3,0,16.9,7.5,16.9,16.9v0
				C1415,212.3,1407.5,219.9,1398.2,219.9z"/>
		</g>
		<g>
			<path class="st1" d="M1438,277.1h-135.4c-9.3,0-16.9-7.5-16.9-16.9l0,0c0-9.3,7.5-16.9,16.9-16.9H1438c9.3,0,16.9,7.5,16.9,16.9
				l0,0C1454.9,269.5,1447.3,277.1,1438,277.1z"/>
		</g>
	</g>
	<g>
		<g>
			<path class="st2" d="M1017,730.9l-279.8-17.4c-21-1.5-35.5-13.9-31.7-35.7l28.9-166.2c3.8-21.8,24-42,45.2-45.1l280-41.5
				c21.2-3.1,35.3,12,31.5,33.7l-28.9,227C1058.5,707.5,1038.2,727.7,1017,730.9z"/>
		</g>
		<g>
			<polygon class="st0" points="813.4,589.1 829.4,484.2 912.2,550.5 995,616.8 896.2,655.4 797.4,693.9 			"/>
		</g>
	</g>
	<g>
		<g>
			
				<ellipse transform="matrix(0.2298 -0.9732 0.9732 0.2298 1332.2246 2303.748)" class="st1" cx="2121.6" cy="310.2" rx="65.5" ry="65.5"/>
		</g>
		<g>
			<path class="st1" d="M2121.6,375.8h-216.7V244.7h216.7c16.8,0,30.5,13.6,30.5,30.5v70.2C2152,362.1,2138.4,375.8,2121.6,375.8z"
				/>
		</g>
		<g>
			<g>
				
					<ellipse transform="matrix(0.7071 -0.7071 0.7071 0.7071 304.7968 1451.8059)" class="st1" cx="1904.9" cy="358" rx="113.3" ry="113.3"/>
			</g>
			<g>
				
					<ellipse transform="matrix(0.3827 -0.9239 0.9239 0.3827 880.7361 1957.1147)" class="st0" cx="1904.9" cy="319.5" rx="44.4" ry="44.4"/>
			</g>
			<g>
				<path class="st0" d="M1944.2,511h-78.7c-15.6,0-28.3-12.7-28.3-28.3V404c0-15.6,12.7-28.3,28.3-28.3h78.7
					c15.6,0,28.3,12.7,28.3,28.3v78.7C1972.5,498.3,1959.8,511,1944.2,511z"/>
			</g>
		</g>
		<g>
			<path class="st0" d="M2026.4,286.9c1-0.9,2.1-1.4,3.3-1.4c1.4,0,2.5,0.5,3.4,1.4c0.9,0.9,1.4,2,1.4,3.4v12.6h12.6
				c1.3,0,2.5,0.5,3.4,1.4c1,0.9,1.5,2.1,1.5,3.5c0,1.3-0.5,2.4-1.5,3.4c-1,0.9-2.1,1.4-3.4,1.4h-12.6v12.6c0,1.4-0.5,2.5-1.4,3.4
				c-0.9,0.9-2,1.4-3.4,1.4c-1.4,0-2.5-0.5-3.4-1.4c-0.9-0.9-1.4-2-1.4-3.4v-12.6h-12.6c-1.4,0-2.5-0.5-3.4-1.4
				c-0.9-0.9-1.4-2.1-1.4-3.5c0-1.4,0.5-2.5,1.4-3.4c0.9-0.9,2-1.4,3.4-1.4h12.6v-12.6C2025,289,2025.4,287.8,2026.4,286.9z"/>
			<path class="st0" d="M2070.2,312.1c-3.3-1.9-6-4.6-7.8-7.9c-1.9-3.4-2.8-7.2-2.8-11.5c0-4.3,0.9-8.1,2.8-11.4
				c1.9-3.4,4.5-6,7.8-7.9c3.3-1.9,7.1-2.9,11.4-2.9c4.3,0,8.1,1,11.5,2.9c3.3,1.9,6,4.6,7.8,7.9c1.9,3.4,2.8,7.2,2.8,11.4
				c0,4.8-1.2,9.1-3.6,12.9l-21.3,35.5c-1.1,1.8-2.6,2.6-4.3,2.6c-1.4,0-2.6-0.5-3.6-1.4c-0.9-0.9-1.4-2.1-1.4-3.4
				c0-0.9,0.2-1.8,0.8-2.5l12.9-21.3h-1.6C2077.4,315,2073.6,314,2070.2,312.1z M2072.2,282.7c-2.4,2.6-3.7,5.9-3.7,9.9
				c0,4.1,1.2,7.4,3.7,10c2.4,2.6,5.6,3.9,9.5,3.9c3.8,0,6.9-1.3,9.4-3.9c2.4-2.6,3.7-5.9,3.7-10c0-4.1-1.2-7.4-3.6-9.9
				c-2.4-2.6-5.6-3.8-9.4-3.8C2077.8,278.8,2074.7,280.1,2072.2,282.7z"/>
			<path class="st0" d="M2124.7,312.1c-3.3-1.9-6-4.6-7.8-7.9c-1.9-3.4-2.8-7.2-2.8-11.5c0-4.3,0.9-8.1,2.8-11.4
				c1.9-3.4,4.5-6,7.8-7.9c3.3-1.9,7.1-2.9,11.4-2.9c4.3,0,8.1,1,11.5,2.9c3.3,1.9,6,4.6,7.8,7.9c1.9,3.4,2.8,7.2,2.8,11.4
				c0,4.8-1.2,9.1-3.6,12.9l-21.3,35.5c-1.1,1.8-2.6,2.6-4.3,2.6c-1.4,0-2.6-0.5-3.6-1.4c-0.9-0.9-1.4-2.1-1.4-3.4
				c0-0.9,0.2-1.8,0.8-2.5l12.9-21.3h-1.6C2131.9,315,2128.1,314,2124.7,312.1z M2126.7,282.7c-2.4,2.6-3.7,5.9-3.7,9.9
				c0,4.1,1.2,7.4,3.7,10c2.4,2.6,5.6,3.9,9.5,3.9c3.8,0,6.9-1.3,9.4-3.9c2.4-2.6,3.7-5.9,3.7-10c0-4.1-1.2-7.4-3.6-9.9
				c-2.4-2.6-5.6-3.8-9.4-3.8S2129.2,280.1,2126.7,282.7z"/>
		</g>
	</g>
	<g>
		<g>
			<g>
				<path class="st3" d="M1712.4,289.4h-115.8c-8.8,0-15.9-7.1-15.9-15.9v-67c0-8.8,7.1-15.9,15.9-15.9h115.8
					c8.8,0,15.9,7.1,15.9,15.9v67C1728.3,282.3,1721.2,289.4,1712.4,289.4z"/>
			</g>
		</g>
		<g>
			<path class="st3" d="M1580.7,262.6l-22.2,39.9c-3.8,8.3,4.6,17,13,13.5l41.5-26.6L1580.7,262.6z"/>
		</g>
		<g>
			<g>
				<path class="st0" d="M1702.1,221.3h-95.3c-3.1,0-5.5-2.5-5.5-5.5v0c0-3.1,2.5-5.5,5.5-5.5h95.3c3.1,0,5.5,2.5,5.5,5.5v0
					C1707.7,218.8,1705.2,221.3,1702.1,221.3z"/>
			</g>
			<g>
				<path class="st0" d="M1662.4,245.6h-55.6c-3.1,0-5.5-2.5-5.5-5.5l0,0c0-3.1,2.5-5.5,5.5-5.5h55.6c3.1,0,5.5,2.5,5.5,5.5l0,0
					C1668,243.1,1665.5,245.6,1662.4,245.6z"/>
			</g>
			<g>
				<path class="st0" d="M1683,269.9h-76.1c-3.1,0-5.5-2.5-5.5-5.5l0,0c0-3.1,2.5-5.5,5.5-5.5h76.1c3.1,0,5.5,2.5,5.5,5.5l0,0
					C1688.5,267.4,1686,269.9,1683,269.9z"/>
			</g>
		</g>
	</g>
	<g>
		<g>
			
				<ellipse transform="matrix(0.9239 -0.3827 0.3827 0.9239 -50.4076 653.0434)" class="st1" cx="1616.3" cy="453.2" rx="53.4" ry="53.4"/>
		</g>
		<g>
			<path class="st1" d="M1616.3,506.6h-176.5V399.8h176.5c13.7,0,24.8,11.1,24.8,24.8v57.2C1641.1,495.5,1630,506.6,1616.3,506.6z"
				/>
		</g>
		<g>
			
				<ellipse transform="matrix(0.1891 -0.982 0.982 0.1891 684.2986 1812.9413)" class="st1" cx="1439.8" cy="492.1" rx="92.3" ry="92.3"/>
		</g>
		<g>
			<path class="st0" d="M1538.8,434.2c0.8-0.8,1.7-1.1,2.7-1.1c1.1,0,2.1,0.4,2.8,1.1c0.7,0.7,1.1,1.7,1.1,2.8v10.2h10.2
				c1.1,0,2,0.4,2.8,1.1c0.8,0.8,1.2,1.7,1.2,2.8c0,1.1-0.4,2-1.2,2.8c-0.8,0.8-1.7,1.1-2.8,1.1h-10.2v10.2c0,1.1-0.4,2.1-1.1,2.8
				c-0.7,0.7-1.7,1.1-2.8,1.1c-1.1,0-2.1-0.4-2.8-1.1c-0.7-0.7-1.1-1.7-1.1-2.8v-10.2h-10.2c-1.1,0-2.1-0.4-2.8-1.1
				c-0.7-0.8-1.1-1.7-1.1-2.8c0-1.1,0.4-2.1,1.1-2.8c0.7-0.7,1.7-1.1,2.8-1.1h10.2V437C1537.6,435.9,1538,435,1538.8,434.2z"/>
			<path class="st0" d="M1574.5,454.8c-2.7-1.6-4.9-3.7-6.4-6.5c-1.5-2.8-2.3-5.9-2.3-9.4c0-3.5,0.8-6.6,2.3-9.3
				c1.5-2.8,3.7-4.9,6.4-6.5c2.7-1.6,5.8-2.3,9.3-2.3c3.5,0,6.6,0.8,9.4,2.3c2.7,1.6,4.9,3.7,6.4,6.5c1.5,2.8,2.3,5.9,2.3,9.3
				c0,3.9-1,7.4-2.9,10.5l-17.3,28.9c-0.9,1.4-2.1,2.1-3.5,2.1c-1.2,0-2.1-0.4-2.9-1.1c-0.8-0.8-1.1-1.7-1.1-2.8
				c0-0.8,0.2-1.5,0.6-2.1l10.5-17.3h-1.3C1580.3,457.1,1577.2,456.3,1574.5,454.8z M1576.2,430.8c-2,2.1-3,4.8-3,8.1
				c0,3.3,1,6,3,8.1c2,2.1,4.6,3.2,7.7,3.2c3.1,0,5.7-1.1,7.6-3.2c2-2.1,3-4.8,3-8.1c0-3.3-1-6-2.9-8.1c-2-2.1-4.5-3.1-7.7-3.1
				C1580.7,427.7,1578.1,428.7,1576.2,430.8z"/>
			<path class="st0" d="M1618.9,454.8c-2.7-1.6-4.9-3.7-6.4-6.5c-1.5-2.8-2.3-5.9-2.3-9.4c0-3.5,0.8-6.6,2.3-9.3
				c1.5-2.8,3.7-4.9,6.4-6.5c2.7-1.6,5.8-2.3,9.3-2.3c3.5,0,6.6,0.8,9.4,2.3c2.7,1.6,4.9,3.7,6.4,6.5c1.5,2.8,2.3,5.9,2.3,9.3
				c0,3.9-1,7.4-2.9,10.5l-17.3,28.9c-0.9,1.4-2.1,2.1-3.5,2.1c-1.2,0-2.1-0.4-2.9-1.1c-0.8-0.8-1.1-1.7-1.1-2.8
				c0-0.8,0.2-1.5,0.6-2.1l10.5-17.3h-1.3C1624.7,457.1,1621.6,456.3,1618.9,454.8z M1620.5,430.8c-2,2.1-3,4.8-3,8.1
				c0,3.3,1,6,3,8.1c2,2.1,4.6,3.2,7.7,3.2c3.1,0,5.7-1.1,7.6-3.2c2-2.1,3-4.8,3-8.1c0-3.3-1-6-2.9-8.1c-2-2.1-4.5-3.1-7.7-3.1
				C1625.1,427.7,1622.5,428.7,1620.5,430.8z"/>
		</g>
		<g>
			<g>
				<path class="st0" d="M1439.8,461.9c8.6-8.6,29.7-22.7,47-5.4c20.2,20.2-15.3,65.7-47,79.6V461.9z"/>
			</g>
			<g>
				<path class="st0" d="M1439.8,461.9c-8.6-8.6-29.7-22.7-47-5.4c-20.2,20.2,15.3,65.7,47,79.6V461.9z"/>
			</g>
		</g>
	</g>
	<g>
		<g>
			<ellipse class="st1" cx="1736.2" cy="1692.7" rx="1004.4" ry="43.8"/>
		</g>
		<g>
			<g>
				<rect x="2141.7" y="454" class="st1" width="482.1" height="532.4"/>
			</g>
			<g>
				<rect x="2180.4" y="498.3" class="st4" width="404.6" height="446.8"/>
			</g>
			<g>
				
					<rect x="2289.9" y="567" transform="matrix(0.9897 -0.1432 0.1432 0.9897 -64.8642 340.0193)" class="st1" width="78.4" height="107"/>
			</g>
			<g>
				<rect x="2236.3" y="540.7" class="st0" width="95.1" height="95.1"/>
			</g>
			<g>
				
					<rect x="2207.8" y="707.7" transform="matrix(0.9483 0.3175 -0.3175 0.9483 356.9772 -670.6622)" class="st0" width="57" height="104.6"/>
			</g>
			<g>
				
					<rect x="2467.1" y="518.3" transform="matrix(0.9637 -0.267 0.267 0.9637 -61.2389 690.8177)" class="st0" width="85.1" height="104.6"/>
			</g>
			<g>
				
					<rect x="2221.1" y="796.9" transform="matrix(0.9966 8.219603e-02 -8.219603e-02 0.9966 75.5505 -182.2022)" class="st5" width="59.1" height="59.1"/>
			</g>
			<g>
				
					<rect x="2489.8" y="606.2" transform="matrix(0.9966 8.219772e-02 -8.219772e-02 0.9966 60.7847 -204.937)" class="st3" width="59.1" height="59.1"/>
			</g>
			<g>
				
					<rect x="2206.7" y="518.1" transform="matrix(0.9637 -0.267 0.267 0.9637 -65.049 616.9819)" class="st6" width="59.1" height="59.1"/>
			</g>
			<g>
				
					<rect x="2254.3" y="529.1" transform="matrix(0.9909 0.1349 -0.1349 0.9909 96.2027 -302.885)" class="st7" width="59.1" height="59.1"/>
			</g>
			<g>
				<g>
					<path class="st8" d="M2532.4,586.2c3.8,2.4,7.6,4.7,11.5,7.1c0.7,0.4,1.4-0.3,1.3-1c-1.3-6.8-1.6-13.6-1.2-20.4
						c0.1-1.1-1.7-1.1-1.8,0c-0.5,7-0.1,14,1.2,20.9c0.4-0.3,0.9-0.7,1.3-1c-3.8-2.4-7.6-4.7-11.5-7.1
						C2532.3,584.1,2531.4,585.6,2532.4,586.2L2532.4,586.2z"/>
				</g>
			</g>
			<g>
				<g>
					<path class="st8" d="M2316.1,597.7c0.9,7.4,1,14.9,0.3,22.3c-0.1,1.1,1.7,1.1,1.8,0c0.7-7.5,0.6-14.9-0.3-22.3
						C2317.7,596.5,2316,596.5,2316.1,597.7L2316.1,597.7z"/>
				</g>
			</g>
			<g>
				<g>
					<path class="st8" d="M2317.2,630.3c1.2,0,1.2-1.8,0-1.8C2316,628.5,2316,630.3,2317.2,630.3L2317.2,630.3z"/>
				</g>
			</g>
			<g>
				<g>
					<g>
						<rect x="2382.7" y="722.8" class="st0" width="168.5" height="137.9"/>
					</g>
					<g>
						<path class="st9" d="M2403.9,737.4c6.7-9.7,13.1,1.3,20.4,2c1.9,0.2,3-0.4,4.6-1.1c5.6-2.3,7.1-3.7,12.2-0.6
							c2.9,1.8,5.2,4.4,8.7,2.5c1.6-0.8,2.6-2.4,3.9-3.5c3.6-3.2,6.9-0.5,10.5,1c0.5,0.2,0.8-0.6,0.2-0.9c-4.9-2-6.8-4.8-11.3-0.8
							c-2.7,2.4-3.8,5-8.3,3.1c-1.4-0.6-2.5-1.9-3.8-2.7c-2-1.2-4.5-2.3-6.9-2.1c-2.1,0.2-2.8,1.4-4.6,2.3c-7.5,4-9.4-1.3-15.3-3.5
							c-4.4-1.6-8.5,0-11.1,3.7C2402.8,737.4,2403.6,737.9,2403.9,737.4L2403.9,737.4z"/>
					</g>
					<g>
						<path class="st9" d="M2477.3,737.1c1.1-1.1,2.4-2.1,3.7-2.9c2.6,0.4,5.2,0.8,7.8,1.2c0.4,0,1,0.5,1.5,0.4
							c1.6-0.4,2.2-1.2,3.4-2.2c2.3-2,4.1-3.4,7.7-1.6c1,0.5,0.3,0.7,2,1.4c2.2,0.8,4.7-0.1,6.7-0.8c0.5-0.2,0.3-1-0.2-0.9
							c-2.7,1.2-5.4,0.9-8.3-0.8c-0.3-0.4-0.7-0.7-1.1-1c-1.9-0.3-1.1-0.8-3.1-0.3c-2.4,0.5-3,3-4.8,4c-3.4,1.9-5.5-1.4-8.8-1.1
							c-2.9,0.2-5.1,2.3-7.2,4.1C2476.2,736.9,2476.8,737.5,2477.3,737.1L2477.3,737.1z"/>
					</g>
					<g>
						<path class="st9" d="M2425.7,789.8c1.3-0.7,2.6-1.2,4-1.6c2.8-1,5.3-0.2,7.4,2.4c0.3,0.2,0.5,0.9,1,0.9c3.5,0.4,5-3.3,9.3-1.9
							c2.5,0.9,4.4,3.3,7.1,3.8c1.8,0.3,1.3-0.1,3.3-0.2c3.5-0.3,6.3,0.2,9.4,1.8c1.4,0.7,2.2,1.8,4,1.4c4.5-1,1.8-6.4,9.6-5
							c3.7,0.7,6.2,3.8,10.1,4.1c5.7,0.5,12-1.1,17.6-1.7c0.6-0.1,0.6-0.9,0-0.9c-5.5,0.6-12.2,2.5-17.6,1.7
							c-4.4-0.6-8.9-5.5-13.6-4.3c-1,0.3-1.5,0.8-2.3,1.3c-0.1,0.1-0.9,1-1,1.1c-1.6,0.9-5.4,1.6-7.2,0.8c-2.4-1-2.8-2.7-5.8-2.3
							c-1.2,0.2-2.3,1.1-3.5,1.2c-2.1,0.2-4.5-0.5-6.3-1.4c-1.6-0.8-2.8-2.1-4.6-2.6c-2.4-0.7-3,0.3-5.1,1c-1.7,0.6-2.2,1.1-4.3-0.2
							c-0.4-0.2-0.6-0.9-1-1.1c-1-0.6-1.4-0.9-2.5-1.1c-2.9-0.6-6,0.8-8.6,2C2424.7,789.3,2425.2,790.1,2425.7,789.8L2425.7,789.8z"
							/>
					</g>
					<g>
						<path class="st9" d="M2421.3,815.5c1.7-4.4,4.5-8.4,9.8-7.5c2.6,0.4-0.7,0.7,2.6,1c4.9,0.4,7.8-5.6,13-0.4
							c0.4,0.4,1-0.2,0.6-0.6c-1.8-1.9-3.8-2.4-6.4-2.2c-1.5,0.2-2.8,0.9-4.2,1.2c-5.8,1.4-3.7-0.4-6.2-0.4c-5.1,0-8.3,4.1-10.1,8.7
							C2420.2,815.8,2421.1,816,2421.3,815.5L2421.3,815.5z"/>
					</g>
					<g>
						<path class="st9" d="M2459.9,811.2c3.4-2.9,9.3,0.7,13.1,1.2c4.2,0.5,7.1-0.7,11.2-1.3c4.7-0.7,8.9,0.7,13.6,1
							c4.2,0.2,8.3-0.3,12.4-1.4c0.5-0.1,0.3-1-0.2-0.9c-6.1,1.6-12,1.6-18.2,0.6c-4.3-0.7-6.5-0.3-10.8,0.7
							c-6.2,1.4-10.5-0.9-16.3-1.9c-2.2-0.4-3.6,0-5.3,1.4C2458.9,811,2459.5,811.6,2459.9,811.2L2459.9,811.2z"/>
					</g>
					<g>
						<path class="st9" d="M2416.4,840.2c2.7,0.9,5.4,1.8,8.2,1.7c3.3-0.1,5.4-2.1,8.5-2.9c6.4-1.8,12,2.9,17.9,4.6
							c1.7,0.5,3.5,0.8,5.3,0.7c1.2-0.1,2.2-0.6,3.4-0.8c3-0.6,5.3-0.6,8.4-0.2c6.1,0.7,11.8-3.5,17.7-2.1c0.6,0.1,0.8-0.7,0.2-0.9
							c-6.2-1.4-11.4,2.9-17.7,2.1c-1.8-0.2-3.3-1-5.2-0.8c-4.5,0.4-7.1,2.5-11.9,1.2c-4.7-1.3-8.9-4.5-13.9-5
							c-2.4-0.2-4.2,0.3-6.4,1.2c-5.4,2.1-8.8,2.2-14.3,0.4C2416.1,839.1,2415.9,840,2416.4,840.2L2416.4,840.2z"/>
					</g>
					<g>
						<g>
							<path class="st9" d="M2407,786.5c-0.2,1.3-0.2,2.2,0.9,3.1c0.9,0.7,2.3,1,3.2,0c0.9-1,1.3-1.9,1.3-3.2c0.1-2.9-4.4-2.9-4.5,0
								c0,0,0,0,0,0c1.1,0,2.1,0,3.2,0c-0.1-0.1-0.3-0.2-0.4-0.4c0.2,0.7,0.4,1.4,0.6,2.2c0-0.2,0.1-0.4,0.1-0.6
								C2411.7,784.8,2407.4,783.6,2407,786.5L2407,786.5z"/>
						</g>
					</g>
					<g>
						<g>
							<path class="st9" d="M2402.7,813.5c0.9,2.9,4.5,5.2,7,2.4c2.2-2.4,0.2-5.9-2.8-5.9c-2.9,0-2.9,4.5,0,4.5
								c0.1-0.7,0.1-1.5,0.2-2.2C2406.2,809.6,2401.9,810.8,2402.7,813.5L2402.7,813.5z"/>
						</g>
					</g>
					<g>
						<g>
							<path class="st9" d="M2403.6,836.8c0.1,1.3,0.3,2.3,0.9,3.4c0.8,1.4,3.1,1.5,3.9,0c0.8-1.7,0.8-2.8,0-4.5
								c-1.1-2.6-5-0.4-3.9,2.3c0,0,0,0,0,0c1.3,0,2.6,0,3.9,0c-0.1-0.4-0.2-0.8-0.3-1.1C2407.9,833.9,2403.4,833.9,2403.6,836.8
								L2403.6,836.8z"/>
						</g>
					</g>
					<g>
						<g>
							<path class="st8" d="M2494.6,764.5c4,3.6,7.9,7.3,11.7,11.1c0.5,0.4,1.1,0.3,1.4-0.2c6.7-8.7,14.4-16.4,23.1-23.1
								c0.9-0.7,0-2.2-0.9-1.5c-6,4.6-11.7,9.7-16.8,15.4c-1.7,1.9-4,6.4-6.5,6.5c-2.6,0-8.9-7.6-10.8-9.3
								C2495.1,762.5,2493.8,763.8,2494.6,764.5L2494.6,764.5z"/>
						</g>
					</g>
				</g>
				<g>
					
						<rect x="2321.1" y="706.1" transform="matrix(0.9834 0.1815 -0.1815 0.9834 176.5041 -415.4571)" class="st1" width="74.1" height="101.1"/>
				</g>
				<g>
					
						<rect x="2353.2" y="695.2" transform="matrix(0.9637 -0.267 0.267 0.9637 -106.9998 662.5107)" class="st2" width="59.1" height="59.1"/>
				</g>
			</g>
			<g>
				<g>
					<path class="st8" d="M2228.1,721.6c1.2,1.9,1.7,3.8,1.6,6c0,0.7,0.8,1.1,1.3,0.8c4.1-2.3,8.2-6.3,10.6-10.2
						c0.6-1-0.9-1.9-1.5-0.9c-2.3,3.7-6.2,7.5-10,9.6c0.4,0.3,0.9,0.5,1.3,0.8c0.1-2.5-0.4-4.8-1.8-6.9
						C2229.1,719.8,2227.5,720.7,2228.1,721.6L2228.1,721.6z"/>
				</g>
			</g>
			<g>
				<path class="st9" d="M2470.2,553.6c0.7-0.9,1.5-1.7,2.4-2.4c1.7-1.6,3.8-1.7,6.2-0.1c0.3,0,0.7,0.6,1,0.5
					c2.7-0.7,2.6-4.2,6.2-4.2c2.1,0,4.3,1.6,6.5,1.2c1.4-0.2,0.9-0.4,2.3-1.1c2.5-1.2,4.7-1.6,7.5-1.1c1.3,0.2,2.2,0.9,3.4,0.1
					c3-2.1-0.7-5.9,5.5-6.9c2.9-0.5,5.7,1.4,8.7,0.6c4.3-1.2,8.5-4.3,12.4-6.3c0.4-0.2,0.1-0.9-0.3-0.7c-3.8,2-8.2,5.4-12.4,6.3
					c-3.4,0.7-8.3-2.1-11.4,0.2c-0.6,0.5-0.9,1.1-1.3,1.7c-0.1,0.1-0.3,1.1-0.4,1.2c-0.9,1.2-3.4,2.8-5,2.7c-2.1-0.2-2.9-1.5-5-0.3
					c-0.8,0.5-1.4,1.5-2.2,2c-1.5,0.7-3.5,0.8-5.1,0.6c-1.4-0.2-2.8-1-4.2-0.9c-2,0.1-2.1,1.1-3.4,2.3c-1.1,1-1.3,1.5-3.2,1.1
					c-0.3-0.1-0.7-0.6-1-0.6c-0.9-0.2-1.3-0.4-2.2-0.2c-2.3,0.3-4.2,2.3-5.7,4.1C2469.4,553.5,2469.9,554,2470.2,553.6L2470.2,553.6
					z"/>
			</g>
			<g>
				<path class="st9" d="M2472.5,566.6c2.2-3.9,8.9-2.6,12.6-3.5c4.1-1,6.4-3.1,10-5.2c4.1-2.4,8.6-2.5,13-3.9
					c4-1.3,7.6-3.2,11.1-5.6c0.5-0.3-0.1-1-0.5-0.7c-5.2,3.7-10.6,5.7-16.8,7c-4.3,0.9-6.2,2.1-9.9,4.5c-5.3,3.5-10.1,2.8-15.9,4
					c-2.2,0.4-3.4,1.2-4.5,3.2C2471.4,566.7,2472.2,567.1,2472.5,566.6L2472.5,566.6z"/>
			</g>
			<g>
				<path class="st9" d="M2467.3,542.5c2.2-3.9,8.9-2.6,12.6-3.5c4.1-1,6.4-3.1,10-5.2c4.1-2.4,8.6-2.5,13-3.9
					c4-1.3,7.6-3.2,11.1-5.6c0.5-0.3-0.1-1-0.5-0.7c-5.2,3.7-10.6,5.7-16.8,7c-4.3,0.9-6.2,2.1-9.9,4.5c-5.3,3.5-10.1,2.8-15.9,4
					c-2.2,0.4-3.4,1.2-4.5,3.2C2466.2,542.7,2467,543,2467.3,542.5L2467.3,542.5z"/>
			</g>
			<g>
				<path class="st9" d="M2480.5,578.7c2.5,0.1,5.1,0.3,7.3-0.7c2.6-1.1,3.5-3.8,5.7-5.7c4.4-3.8,10.9-0.6,16.3-0.6
					c1.6,0,3.2-0.2,4.5-0.9c1-0.5,1.5-1.3,2.4-1.9c2.2-1.6,4.1-2.2,6.7-2.8c5.2-1.1,8.1-7.3,13.5-7.6c0.5,0,0.3-1-0.2-1
					c-5.5,0.4-8.1,6.6-13.5,7.6c-1.5,0.3-3.1,0-4.5,0.7c-3.5,1.8-4.8,4.8-9.2,4.9c-4.3,0.1-9-2-13.2-1.1c-2,0.5-3.2,1.6-4.7,3.2
					c-3.5,3.9-6.2,5.1-11.4,4.8C2479.8,577.7,2480,578.6,2480.5,578.7L2480.5,578.7z"/>
			</g>
			<g>
				<path class="st9" d="M2244.5,724.2c2.7-2.6,4.7,2.1,6.6,3.1c2.1,1.1,4,0.3,6.3,0.2c2.7-0.1,4.5,2.1,6.9,3c2.2,0.8,4.5,0.9,7,0.3
					c0.3-0.1,0.5-1,0.1-0.9c-3.7,0.8-6.8,0-9.8-2c-2.1-1.4-3.4-1.2-6-0.8c-3.7,0.6-5.3-2.5-8.1-4.3c-1.1-0.7-1.9-0.6-3.2,0.7
					C2244,723.8,2244.1,724.5,2244.5,724.2L2244.5,724.2z"/>
			</g>
			<g>
				<path class="st9" d="M2236.7,730.1c2.7-0.8,5.3,2.6,7.4,3.8c2.4,1.3,4.3,1.3,6.9,1.9c2.9,0.7,5.1,2.6,7.8,3.8
					c2.4,1.1,4.9,1.8,7.6,2.2c0.4,0,0.4-0.5,0.1-0.5c-4-0.5-7.4-2-10.8-4c-2.4-1.4-3.8-1.7-6.5-2.2c-4-0.7-5.9-3-9.1-4.9
					c-1.2-0.7-2.1-0.9-3.4-0.5C2236.1,729.7,2236.4,730.2,2236.7,730.1L2236.7,730.1z"/>
			</g>
			<g>
				<path class="st9" d="M2224.5,732.2c3.5-1,7.1,3.5,9.9,5c3.2,1.7,5.8,1.8,9.1,2.6c3.9,1,6.8,3.4,10.3,5c3.3,1.5,6.6,2.4,10.1,2.9
					c0.5,0.1,0.5-0.6,0.1-0.7c-5.3-0.8-9.8-2.7-14.4-5.4c-3.2-1.9-5.1-2.3-8.7-3c-5.3-1-7.9-4-12.2-6.5c-1.6-1-2.8-1.2-4.6-0.7
					C2223.7,731.6,2224,732.3,2224.5,732.2L2224.5,732.2z"/>
			</g>
		</g>
		<g>
			<g>
				<g>
					<polygon class="st10" points="1702.6,1686.4 1710.1,1686.4 1777.3,675.8 1769.7,672.6 					"/>
				</g>
			</g>
			<g>
				<g>
					<g>
						<polygon class="st10" points="1651.5,1686.4 1702.6,1686.4 1769.7,672.6 1718.6,672.6 						"/>
					</g>
				</g>
				<g>
					<g>
						<polygon class="st11" points="1651.5,1686.4 1702.6,1686.4 1739.2,1132.5 1688.1,1132.5 						"/>
					</g>
				</g>
				<g>
					<g>
						<g>
							<polygon class="st10" points="1978.1,1686.4 1967.2,1686.4 1779,1091.7 1790,1091.7 							"/>
						</g>
					</g>
					<g>
						<g>
							<polygon class="st11" points="1978.1,1686.4 1967.2,1686.4 1791.9,1132.5 1802.8,1132.5 							"/>
						</g>
					</g>
				</g>
				<g>
					<g>
						<g>
							<polygon class="st10" points="1471.2,1686.4 1482.1,1686.4 1670.3,1091.7 1659.3,1091.7 							"/>
						</g>
					</g>
					<g>
						<g>
							<polygon class="st11" points="1471.2,1686.4 1482.1,1686.4 1657.4,1132.5 1646.5,1132.5 							"/>
						</g>
					</g>
				</g>
				<g>
					<g>
						<polygon class="st1" points="1385.1,1099.7 2011.6,1099.7 2058.5,700.6 1432,700.6 						"/>
					</g>
				</g>
				<g>
					<g>
						<polygon class="st0" points="1387.2,1081.5 2013.7,1081.5 2057.1,713.2 1430.6,713.2 						"/>
					</g>
				</g>
				<g>
					<g>
						<polygon class="st10" points="1416.3,690.2 2079.9,690.2 2077.6,700.6 1414,700.6 						"/>
					</g>
				</g>
				<g>
					<g>
						<polygon class="st10" points="1364.9,1094.5 2028.5,1094.5 2026.2,1105 1362.6,1105 						"/>
					</g>
				</g>
				<g>
					<g>
						<path class="st11" d="M1549.9,725.3h372.5c19.4,0,35.2-15.7,35.2-35.2l0,0h-442.8l0,0C1514.8,709.6,1530.5,725.3,1549.9,725.3
							z"/>
					</g>
				</g>
				<g>
					<g>
						<g>
							<polygon class="st1" points="1760.8,1020.5 1900.4,1020.5 1898.2,1040.2 1758.6,1040.2 							"/>
						</g>
					</g>
					<g>
						<g>
							<g>
								<polygon class="st1" points="1765.6,975.2 1805.7,975.2 1805.3,982.7 1765.1,982.7 								"/>
							</g>
						</g>
						<g>
							<g>
								<polygon class="st1" points="1763.9,989.5 1816.6,989.5 1816.1,996.9 1763.4,996.9 								"/>
							</g>
						</g>
						<g>
							<g>
								<polygon class="st1" points="1762.1,1002.9 1792.3,1002.9 1791.8,1010.3 1761.7,1010.3 								"/>
							</g>
						</g>
					</g>
				</g>
				<g>
					<g>
						<g>
							<path class="st4" d="M1837.3,828.3v58.3l41.2,41.2c-10.6,10.6-25.1,17.1-41.2,17.1c-32.2,0-58.3-26.1-58.3-58.3
								C1779,854.4,1805.1,828.3,1837.3,828.3z"/>
						</g>
					</g>
					<g>
						<g>
							<path class="st1" d="M1895.6,886.6c0,16.1-6.5,30.7-17.1,41.2l-41.2-41.2l24.3-53C1881.7,842.8,1895.6,863.1,1895.6,886.6z"
								/>
						</g>
					</g>
					<g>
						<g>
							<path class="st12" d="M1837.3,886.6v-58.3c8.7,0,16.9,1.9,24.3,5.3L1837.3,886.6z"/>
						</g>
					</g>
					<g>
						<g>
							<polygon class="st1" points="1923.4,825 1963.6,825 1963.2,832.5 1923,832.5 							"/>
						</g>
					</g>
					<g>
						<g>
							<polygon class="st12" points="1846.8,797.1 1887,797.1 1886.5,804.5 1846.4,804.5 							"/>
						</g>
					</g>
					<g>
						<g>
							<polygon class="st1" points="1909.1,838.4 1961.9,838.4 1961.4,845.9 1908.7,845.9 							"/>
						</g>
					</g>
					<g>
						<g>
							<polygon class="st1" points="1930,851.8 1960.2,851.8 1959.7,859.3 1929.6,859.3 							"/>
						</g>
					</g>
					<g>
						<g>
							<polygon class="st4" points="1739.3,817.9 1792,817.9 1791.6,825.3 1738.9,825.3 							"/>
						</g>
					</g>
					<g>
						<g>
							<polygon class="st4" points="1760.2,831.3 1790.3,831.3 1789.9,838.7 1759.7,838.7 							"/>
						</g>
					</g>
				</g>
				<g>
					<g>
						<g>
							<path class="st4" d="M1502,767.5v31.8l22.5,22.5c-5.8,5.8-13.7,9.3-22.5,9.3c-17.6,0-31.8-14.3-31.8-31.8
								C1470.2,781.7,1484.4,767.5,1502,767.5z"/>
						</g>
					</g>
					<g>
						<g>
							<path class="st1" d="M1533.8,799.3c0,8.8-3.6,16.8-9.3,22.5l-22.5-22.5l13.3-28.9C1526.2,775.4,1533.8,786.5,1533.8,799.3z"
								/>
						</g>
					</g>
					<g>
						<g>
							<path class="st12" d="M1502,799.3v-31.8c4.7,0,9.2,1,13.3,2.9L1502,799.3z"/>
						</g>
					</g>
					<g>
						<g>
							<polygon class="st1" points="1549,765.7 1571,765.7 1570.7,769.7 1548.8,769.7 							"/>
						</g>
					</g>
					<g>
						<g>
							<polygon class="st12" points="1507.2,750.4 1529.1,750.4 1528.9,754.5 1507,754.5 							"/>
						</g>
					</g>
					<g>
						<g>
							<polygon class="st1" points="1541.2,773 1570,773 1569.8,777.1 1541,777.1 							"/>
						</g>
					</g>
					<g>
						<g>
							<polygon class="st1" points="1552.6,780.3 1569.1,780.3 1568.9,784.4 1552.4,784.4 							"/>
						</g>
					</g>
					<g>
						<g>
							<polygon class="st4" points="1448.5,761.8 1477.3,761.8 1477.1,765.8 1448.3,765.8 							"/>
						</g>
					</g>
					<g>
						<g>
							<polygon class="st4" points="1459.9,769.1 1476.4,769.1 1476.1,773.2 1459.6,773.2 							"/>
						</g>
					</g>
				</g>
				<g>
					<g>
						<g>
							<polygon class="st1" points="1660.3,816 1700.4,816 1700,823.5 1659.8,823.5 							"/>
						</g>
					</g>
					<g>
						<g>
							<polygon class="st1" points="1646,829.4 1698.7,829.4 1698.3,836.9 1645.5,836.9 							"/>
						</g>
					</g>
					<g>
						<g>
							<polygon class="st1" points="1666.8,842.8 1697,842.8 1696.5,850.3 1666.4,850.3 							"/>
						</g>
					</g>
					<g>
						<g>
							<polygon class="st1" points="1417.6,1031.9 1422.3,1031.9 1445.1,816 1440.3,816 							"/>
						</g>
					</g>
					<g>
						<g>
							<polygon class="st4" points="1445.4,978.1 1478.5,978.1 1472.3,1032 1439.2,1032 							"/>
						</g>
					</g>
					<g>
						<g>
							<polygon class="st4" points="1499.4,934.3 1532.5,934.3 1521.1,1032 1488,1032 							"/>
						</g>
					</g>
					<g>
						<g>
							<polygon class="st4" points="1663.9,934.3 1697,934.3 1685.6,1032 1652.5,1032 							"/>
						</g>
					</g>
					<g>
						<g>
							<polygon class="st4" points="1551.2,952.1 1584.3,952.1 1575.2,1032 1542.1,1032 							"/>
						</g>
					</g>
					<g>
						<g>
							<polygon class="st4" points="1609.8,891.2 1642.9,891.2 1627,1032 1593.9,1032 							"/>
						</g>
					</g>
					<g>
						<g>
							<polygon class="st1" points="1685.9,1032 1685.9,1027.3 1418.1,1027.3 1417.6,1032 							"/>
						</g>
					</g>
					<g>
						<g>
							<polygon class="st1" points="1643.3,1056.9 1660.3,1056.9 1662.6,1040 1645.6,1040 							"/>
						</g>
					</g>
					<g>
						<g>
							<polygon class="st12" points="1665.1,1056.9 1682.1,1056.9 1684.4,1040 1667.4,1040 							"/>
						</g>
					</g>
					<g>
						<g>
							<polygon class="st4" points="1620.3,1056.9 1637.3,1056.9 1639.6,1040 1622.6,1040 							"/>
						</g>
					</g>
				</g>
			</g>
		</g>
		<g>
			<g>
				<g>
					<g>
						<polygon class="st10" points="1081.5,1089.1 1091.5,1087 1104.1,1311.3 1094,1313.4 						"/>
					</g>
				</g>
				<g>
					<g>
						<path class="st10" d="M1102.4,1461.7l10-2.1l12.1,215c0.3,5.2-1.6,9.8-4.3,10.3l-0.4,0.1c-2.7,0.6-5.1-3.2-5.3-8.3
							L1102.4,1461.7z"/>
					</g>
				</g>
				<g>
					<g>
						<path class="st11" d="M1109.5,1506.1l0.8-0.2c5.3-1.1,9.2-10.4,8.6-20.7l-10.5-187.4c-0.6-10.3-5.4-17.8-10.7-16.6l-0.8,0.2
							c-5.3,1.1-9.2,10.4-8.6,20.7l10.5,187.4C1099.4,1499.7,1104.2,1507.2,1109.5,1506.1z"/>
					</g>
				</g>
				<g>
					<g>
						<path class="st11" d="M1088.1,1123.8l0.8-0.2c5.3-1.1,9.2-10.4,8.6-20.7l-13.3-244.7c-0.6-10.3-5.4-9.6-10.7-8.4l-0.8,0.2
							c-5.3,1.1-9.7,0.1-9.2,10.4l13.9,246.8C1078,1117.5,1082.7,1125,1088.1,1123.8z"/>
					</g>
				</g>
			</g>
			<g>
				<g>
					<g>
						<polygon class="st10" points="972.9,1073.1 982,1081.5 927.5,1306 918.3,1297.6 						"/>
					</g>
				</g>
				<g>
					<g>
						<path class="st10" d="M882.3,1446l9.1,8.3l-52.5,215.8c-1.2,4.8-4.2,6.9-6.7,4.6l0,0c-2.5-2.3-3.6-8.1-2.4-12.9L882.3,1446z"
							/>
					</g>
				</g>
				<g>
					<g>
						<path class="st11" d="M875.8,1495.5L875.8,1495.5c5,4.6,11,0.5,13.4-9.1l46.2-189.9c2.3-9.6,0.2-21.2-4.9-25.8l0,0
							c-5-4.6-11-0.5-13.4,9.1l-46.2,189.9C868.5,1479.4,870.7,1490.9,875.8,1495.5z"/>
					</g>
				</g>
				<g>
					<g>
						<path class="st11" d="M968.8,1113.1L968.8,1113.1c5,4.6,11,0.5,13.4-9.1l58.2-239.2c2.3-9.6,1.4-14.8-3.7-19.4l0,0
							c-5-4.6-12.2-6.9-14.6,2.7l-58.2,239.2C961.5,1096.9,963.7,1108.5,968.8,1113.1z"/>
					</g>
				</g>
			</g>
			<g>
				<g>
					<path class="st10" d="M1071.1,775.8h-9.9c-11,0-20-9-20-20v-36.2h49.9v36.2C1091.1,766.9,1082.2,775.8,1071.1,775.8z"/>
				</g>
			</g>
			<g>
				<g>
					<rect x="1041.2" y="803.9" class="st10" width="51.3" height="34.7"/>
				</g>
			</g>
			<g>
				<g>
					<path class="st11" d="M1107.9,786c0,22.7-18.4,41-41,41c-22.6,0-41-18.4-41-41c0-22.7,18.4-41,41-41
						C1089.6,745,1107.9,763.3,1107.9,786z"/>
				</g>
			</g>
			<g>
				<g>
					<g>
						
							<rect x="981.4" y="834.7" transform="matrix(0.7396 -0.673 0.673 0.7396 -304.3256 891.2866)" class="st11" width="36.7" height="8.6"/>
					</g>
				</g>
				<g>
					<g>
						<path class="st10" d="M988.9,860.2L966,881c-2.6,2.4-6.6,2.2-9-0.4l-3.4-3.8c-2.4-2.6-2.2-6.6,0.4-9l22.9-20.8
							c2.6-2.4,6.6-2.2,9,0.4l3.4,3.8C991.6,853.8,991.5,857.8,988.9,860.2z"/>
					</g>
				</g>
				<g>
					<g>
						<path class="st10" d="M1070.4,784.3l-53.5,48.6c-2.6,2.4-6.6,2.2-9-0.4l-1.7-1.9c-2.4-2.6-2.2-6.6,0.4-9l53.5-48.6
							c2.6-2.4,6.6-2.2,9,0.4l1.7,1.9C1073.2,777.9,1073,781.9,1070.4,784.3z"/>
					</g>
				</g>
			</g>
			<g>
				<g>
					<g>
						<path class="st11" d="M1089.1,654.1h-60.3l7.1-17.4c1.3-3.3,2.5-5.4,6-5.4h39.7c4.1,0,7.5,3.3,7.5,7.5V654.1z"/>
					</g>
				</g>
				<g>
					<g>
						<path class="st11" d="M1041.9,732.7h-28.2c-6.5,0-11.8-5.3-11.8-11.8v-54.9c0-6.5,5.3-11.8,11.8-11.8h28.2V732.7z"/>
					</g>
				</g>
				<g>
					<g>
						<path class="st10" d="M1112.8,732.7h-71.5c-8,0-14.5-6.5-14.5-14.5v-49.6c0-8,6.5-14.5,14.5-14.5h73.9c6.2,0,11.2,5,11.2,11.2
							v53.7C1126.4,726.6,1120.3,732.7,1112.8,732.7z"/>
					</g>
				</g>
				<g>
					<g>
						<path class="st10" d="M1106.8,654.1h-64.8l3.2-16c0.8-3.9,4.2-6.7,8.2-6.7h46c4.1,0,7.5,3.3,7.5,7.5V654.1z"/>
					</g>
				</g>
				<g>
					<g>
						<g>
							<path class="st11" d="M1088,722.4L1088,722.4c13.2,0,24-10.7,24-23.9v-10.2c0-13.2-10.7-23.9-23.9-23.9h0c-16,0-29,13-29,29
								l0,0C1059,709.4,1072,722.4,1088,722.4z"/>
						</g>
					</g>
					<g>
						<g>
							<path class="st10" d="M1100.6,719.8h21.8v-52.9h-21.8c-14.6,0-26.5,11.8-26.5,26.5l0,0C1074.1,708,1086,719.8,1100.6,719.8z"
								/>
						</g>
					</g>
					<g>
						<g>
							<path class="st11" d="M1119.3,723.6h36.3v-60.4h-36.3c-16.7,0-30.2,13.5-30.2,30.2l0,0
								C1089.1,710.1,1102.6,723.6,1119.3,723.6z"/>
						</g>
					</g>
					<g>
						<g>
							<g>
								<path class="st11" d="M1175.2,693.5c0-14.4-10.4-26.2-23.3-26.2v52.3C1164.8,719.7,1175.2,708,1175.2,693.5z"/>
							</g>
						</g>
						<g>
							<g>
								<path class="st11" d="M1128.6,693.5c0,14.4,10.4,26.2,23.3,26.2v-52.3C1139,667.4,1128.6,679.1,1128.6,693.5z"/>
							</g>
						</g>
						<g>
							<g>
								<path class="st10" d="M1142.6,708.5c-7.2,0-13-6.7-13-15.1c0-8.3,5.8-15.1,13-15.1V708.5z"/>
							</g>
						</g>
						<g>
							<g>
								<path class="st10" d="M1142.6,708.5c7.2,0,13-6.7,13-15.1c0-8.3-5.8-15.1-13-15.1V708.5z"/>
							</g>
						</g>
						<g>
							<g>
								<g>
									<path class="st13" d="M1137.8,703c4,0,7.2-4.3,7.2-9.6c0-5.3-3.2-9.6-7.2-9.6V703z"/>
								</g>
							</g>
							<g>
								<g>
									<path class="st13" d="M1137.8,703c-4,0-7.2-4.3-7.2-9.6c0-5.3,3.2-9.6,7.2-9.6V703z"/>
								</g>
							</g>
						</g>
						<g>
							<g>
								<path class="st10" d="M1153.4,663.2v6.6c11.6,0,21,10.6,21,23.6s-9.4,23.6-21,23.6v6.6c14.9,0,26.9-13.5,26.9-30.2
									S1168.3,663.2,1153.4,663.2z"/>
							</g>
						</g>
						<g>
							<g>
								<path class="st10" d="M1132.4,693.4c0-13,9.4-23.6,21-23.6v-6.6c-14.9,0-26.9,13.5-26.9,30.2s12.1,30.2,26.9,30.2V717
									C1141.8,717,1132.4,706.4,1132.4,693.4z"/>
							</g>
						</g>
						<g class="st14">
							<g>
								<path class="st0" d="M1141.2,686.4c0,5.9,4.8,10.7,10.7,10.7s10.7-4.8,10.7-10.7c0-5.9-4.8-10.7-10.7-10.7
									S1141.2,680.5,1141.2,686.4z"/>
							</g>
						</g>
						<g class="st14">
							<g>
								<path class="st0" d="M1138.3,697.1c0,3.7,3,6.6,6.6,6.6c3.7,0,6.6-3,6.6-6.6c0-3.7-3-6.6-6.6-6.6
									C1141.3,690.5,1138.3,693.4,1138.3,697.1z"/>
							</g>
						</g>
						<g class="st14">
							<g>
								<path class="st0" d="M1139.3,690.7c0,1.8,1.5,3.3,3.3,3.3c1.8,0,3.3-1.5,3.3-3.3s-1.5-3.3-3.3-3.3
									C1140.8,687.4,1139.3,688.9,1139.3,690.7z"/>
							</g>
						</g>
					</g>
				</g>
				<g>
					<g>
						<polygon class="st10" points="1086.3,566.2 1070.3,566.2 1053.4,631.3 1074.3,631.3 						"/>
					</g>
				</g>
				<g>
					<g>
						<path class="st11" d="M1070.3,566.2L1070.3,566.2c-6.4,0-16.8,0.5-16.8,6.8l-11.5,58.3h11.5L1070.3,566.2z"/>
					</g>
				</g>
				<g>
					<g>
						<path class="st11" d="M1061.9,598.8h72.3c5,0,9.1-4.1,9.1-9.1v-14.4c0-5-4.1-9.1-9.1-9.1h-63.9L1061.9,598.8z"/>
					</g>
				</g>
				<g>
					<g>
						<path class="st0" d="M1132.7,591.3H1089c-1.5,0-2.7-1.2-2.7-2.7v-12.2c0-1.5,1.2-2.7,2.7-2.7h43.7c1.5,0,2.7,1.2,2.7,2.7v12.2
							C1135.4,590.1,1134.2,591.3,1132.7,591.3z"/>
					</g>
				</g>
			</g>
			<g>
				<g>
					<g>
						<polygon class="st10" points="1151.3,1093.9 1160.5,1085.9 1212.3,1309.8 1203.1,1317.8 						"/>
					</g>
				</g>
				<g>
					<g>
						<path class="st10" d="M1237.3,1465.7l9.2-8l49.7,214.9c1.1,4.9,0,10.7-2.5,12.9l0,0c-2.5,2.2-5.5,0-6.7-4.9L1237.3,1465.7z"/>
					</g>
				</g>
				<g>
					<g>
						<path class="st11" d="M1252.3,1507L1252.3,1507c5.1-4.4,7.4-16,5.1-25.9l-43.6-188.5c-2.3-9.9-8.3-14.3-13.4-9.9l0,0
							c-5.1,4.4-7.4,16-5.1,25.9l43.6,188.5C1241.3,1507,1247.2,1511.4,1252.3,1507z"/>
					</g>
				</g>
				<g>
					<g>
						<path class="st11" d="M1164.1,1125.6L1164.1,1125.6c5.1-4.4,7.3-16.1,5-26l-55.6-239.7c-2.3-10-8.3-14.4-13.4-10l0,0
							c-5.1,4.4-11.6-1.5-9.3,8.4l59.8,257.3C1153.1,1125.5,1159.1,1130,1164.1,1125.6z"/>
					</g>
				</g>
			</g>
			<g>
				<g>
					<path class="st10" d="M1110.3,858.2h-80.8c-5.4,0-9.8-4.4-9.8-9.8l0,0c0-5.4,4.4-9.8,9.8-9.8h80.8c5.4,0,9.8,4.4,9.8,9.8l0,0
						C1120.1,853.8,1115.7,858.2,1110.3,858.2z"/>
				</g>
			</g>
		</g>
		<g>
			<g>
				<g>
					<polygon class="st15" points="1831.2,730.1 1880.9,772.1 1852.1,823.2 1790.9,738.9 					"/>
				</g>
				<g>
					<path class="st11" d="M1873.6,753.8l84.4,74.4c0,0,68.3-96.9,86.6-114.1c17.4-16.4,48.6-27.5,55.7-20.4
						c11.2,11.2,6.6,14,10.2,28.5c9.6,38.1-1.9,78.5-28.7,107.3l-44.8,48.2c0,0-56,79.7-86,56.5l-103-98L1873.6,753.8z"/>
				</g>
				<g>
					<g>
						<path class="st15" d="M1831.2,730.1c0-44.5-15-125.3-23.6-126.7l0,0c-0.1-0.1-0.5,0.2-1.1,0.8c-6.1,5.9-7.5,15.1-4.3,22.9
							l1.3,3.1l-1,7.9c-0.6,4.5-0.2,9,0.9,13.4c0.9,3.5,1.7,7.5,1.2,9.3c0,0-47.7,27.3-43.2,35.4l29.4,42.8L1831.2,730.1z"/>
					</g>
					<g>
						<path class="st16" d="M1764.7,707.9l-6.7-13.8c-3.3-6.8,0.2-15,7.6-17.7l39-15.6l-2.7,29.8c-0.7,6.3-4.8,11.9-10.8,14.6
							l-17.7,8.1C1766.5,716.3,1767.9,714.4,1764.7,707.9z"/>
					</g>
					<g>
						<path class="st15" d="M1825.2,738.7l9-13c11.6-15.6,13.3-42.4-0.3-45.9l-20.9-3.5c-1.5-0.3-2,9.9,10,16.4l-2.8,10.9
							c-0.9,3.3-0.9,6.8-0.2,10.1L1825.2,738.7z"/>
					</g>
				</g>
				<g>
					<polygon class="st0" points="1872,758.9 1855.4,745.7 1830.3,799.2 1850.6,828 					"/>
				</g>
			</g>
			<g>
				<g>
					<g>
						<g>
							<path class="st17" d="M2108.8,657c-1.7-10.1,88.5-32.8,111.2-21.5c-2.5,15.4-15.3,39.2-32.2,44.1l-70,6.6L2108.8,657z"/>
						</g>
					</g>
				</g>
			</g>
			<g>
				<g>
					<g>
						<g>
							<g>
								<polygon class="st10" points="2200.6,1292.3 2099.3,1692.3 2083.8,1692.3 2174.3,1283.9 								"/>
							</g>
						</g>
					</g>
					<g>
						<g>
							<g>
								<polygon class="st10" points="2411.8,1690.4 2396.2,1690.4 2289.5,1269.1 2315.6,1256 								"/>
							</g>
						</g>
					</g>
					<g>
						<g>
							<g>
								<polygon class="st10" points="2192.6,1201.2 2223.7,1201.2 2200.6,1292.3 2174.3,1283.9 								"/>
							</g>
						</g>
					</g>
					<g>
						<g>
							<g>
								<polygon class="st10" points="2295.4,1162.9 2315.6,1256 2289.5,1269.1 2271.8,1199.3 								"/>
							</g>
						</g>
					</g>
				</g>
				<g>
					<g>
						<g>
							<g>
								<polygon class="st18" points="2133.1,1250.2 2025.9,1694.3 2010.3,1694.3 2107.4,1234.6 								"/>
							</g>
						</g>
					</g>
					<g>
						<g>
							<path class="st10" d="M2264,1472.4h79.4c6.5,0,11.7-5.2,11.7-11.7v-1.4c0-6.5-5.2-11.7-11.7-11.7H2264
								c-6.5,0-11.7,5.2-11.7,11.7v1.4C2252.3,1467.1,2257.6,1472.4,2264,1472.4z"/>
						</g>
					</g>
					<g>
						<g>
							<g>
								<polygon class="st18" points="2338.4,1692.3 2322.8,1692.3 2222,1274.6 2247.8,1263.3 								"/>
							</g>
						</g>
					</g>
					<g>
						<g>
							<g>
								<polygon class="st10" points="2119.2,1178.9 2150.3,1178.9 2133.1,1250.2 2107.4,1234.6 								"/>
							</g>
						</g>
					</g>
					<g>
						<g>
							<g>
								<polygon class="st10" points="2229.5,1176.9 2247.8,1263.3 2222,1274.6 2198.4,1176.9 								"/>
							</g>
						</g>
					</g>
					<g>
						<g>
							
								<rect x="2071.7" y="1447.5" transform="matrix(-1 -1.224647e-16 1.224647e-16 -1 4349.1338 2919.9133)" class="st18" width="205.7" height="24.8"/>
						</g>
					</g>
				</g>
				<g>
					<g>
						<g>
							<path class="st18" d="M2331.3,926.3c99,0,60.8,279.9-117.3,279.9c-138.5,0-202-53.7-202-104.6
								C2245.2,1101.7,2268.4,926.3,2331.3,926.3z"/>
						</g>
					</g>
				</g>
				<g>
					<g>
						<g>
							<path class="st0" d="M2331,926.3c99,0,37.9,226.9-106.4,239.3c-115.2,9.9-183.2-13.4-205.9-49.1c-8-12.6,0.6-28.9,15.5-29.7
								C2244.2,1076.2,2257,926.3,2331,926.3z"/>
						</g>
					</g>
				</g>
				<g>
					<g>
						<g>
							<path class="st19" d="M2306.7,958.2c85.9,0,37.7,179.9-87.5,190.7c-125.2,10.8-191.1-6.6-191.1-50.8
								C2230.7,1098.1,2240.2,958.2,2306.7,958.2z"/>
						</g>
					</g>
				</g>
			</g>
			<g>
				<g>
					<path class="st10" d="M2028.2,807.3c-4.3-29.5,7.7-58.9,22.3-83.2c0.1-0.2,0.3-0.5,0.5-0.7c14.4-23.7,40.3-39.7,46.2-29.5
						c9.3,16.2,5.4,20.3,8.4,41.1c7.9,55.1-1.6,196.6-23.8,238.2l-38.4,5.5C2051.4,912.6,2035.4,857,2028.2,807.3z"/>
				</g>
			</g>
			<g>
				<g>
					<g>
						<g>
							<g>
								<g>
									<path class="st20" d="M2144.8,666.2l-29.6,25.3V587.5l83.5-18l5.5,65.9C2205.9,656.2,2165.7,666.2,2144.8,666.2z"/>
								</g>
							</g>
						</g>
					</g>
					<g>
						<g>
							<g>
								<g>
									<path class="st15" d="M2224.9,672.7c-6.9,13.2-20.7,42.3-40.1,36.3l-44-1.6c0,0-24.8-21.9-25.4-29.4l0,0
										c0-20.3,85.5-37,85.5-82.4l3.3,39.7C2206.3,650.2,2220.5,671.1,2224.9,672.7z"/>
								</g>
							</g>
						</g>
					</g>
					<g>
						<g>
							<g>
								<g>
									<path class="st15" d="M2087.7,482l4.2,102.8c0.4,10.2,15.9,35,25,39.8l0,0c12.9,6.8,28.3,6.7,41.1-0.2l25.1-13.5
										c5.7-2.6,16.8-19.8,16.8-26l-8.7-122.2h-104.7L2087.7,482z"/>
								</g>
							</g>
						</g>
					</g>
					<g>
						<g>
							<g>
								<g>
									<path class="st20" d="M2116.7,510.1c5.8,15.9,13,34.2,0.4,50.8c-4.4,4.4-0.4,10.7,3.4,10.9l17.1,1.6l-21.8,1.1
										c-6.9,0-10.8-8.5-5.6-13.7c10.7-10.7-2.8-32.1-20.6-52C2089.7,506.4,2104.1,511.1,2116.7,510.1z"/>
								</g>
							</g>
						</g>
					</g>
					<g>
						<g>
							<g>
								<g>
									<path class="st20" d="M2130.5,509.3c0,10.9,1,45,15.1,45l0.1-15l22.5-36.3L2130.5,509.3z"/>
								</g>
							</g>
						</g>
					</g>
					<g>
						<g>
							<g>
								<g>
									<path class="st21" d="M2166.1,501.4c-11.7-1.3-23.1-0.6-34.2,2.2c-1.3,0.3-2.2,1.4-2,2.5l0.6,3.3c0.2,1.3,1.8,2,3.4,1.5
										c9.6-3,20.3-4.6,31.6-5.2c1.6-0.1,2.9-1.3,2.7-2.6l0,0C2168.1,502.2,2167.2,501.5,2166.1,501.4z"/>
								</g>
							</g>
						</g>
					</g>
					<g>
						<g>
							<g>
								<g>
									<path class="st9" d="M2090.8,560.2c-3.8-32.9-10.2-45-10.2-68.7c0-8.4,1.1-17.5,3-26.5c1.4-6.4,11.2-32.1,14.7-37.3
										c5.7-8.5,26.9,0.7,36.4,0.7c4.7,0,8.5-2.7,15.9-1c6.4,3.4,5,7.5,9.3,7.5c24.1,1.7,60.7,12.7,60.7,64.5
										c0,30.7,0.8,56.5-31.4,56.5c0-56.5-12.4-38.6-12.4-56.4c0-11.1,19.2-16.2,9.4-26c-14.1-14.1-48,1.1-70.8,3.3
										c-14.7-4-26.1-16.8-26.1-3.1L2090.8,560.2z"/>
								</g>
							</g>
						</g>
					</g>
					<g>
						<g>
							<g>
								<g>
									<path class="st21" d="M2082.1,473.6c0.4-2.9,1-5.7,1.6-8.6c1.4-6.4,11.2-32.1,14.7-37.3c5.7-8.5,28.2-12.5,35.5-12.5
										c12.2,1.4-8.6,13.2,0.9,13.2c4.7,0,23.3-5.4,30.7-3.8c6.4,3.4-9.8,10.2-5.5,10.2c19.3,1.4,46.7,8.7,56.8,38.2
										c2.5,7.3-20.7,10.3-30.5,0.5c-14.1-14.1-48,1.1-70.8,3.3c-14.7-4-26.1-16.8-26.1-3.1
										C2089.3,473.7,2081.2,479.7,2082.1,473.6z"/>
								</g>
							</g>
						</g>
					</g>
					<g>
						<g>
							<g>
								<g>
									<g>
										<path class="st15" d="M2207.2,523.1c4.9,0,10,1.9,9.4,18.9c0,7.8-4.1,15-7.8,19.8c-5.3,6.9-1.1,13.1-6.9,13.1
											c-7.2,0-6.2-16.6-6.2-24.6C2195.8,550.3,2193.5,523.1,2207.2,523.1z"/>
									</g>
								</g>
							</g>
						</g>
						<g>
							<g>
								<g>
									<g>
										<path class="st20" d="M2202.7,563.2c-1.1,0-1.9-0.9-1.9-1.9c0-2.9,1.6-4.6,2.8-5.9c1.2-1.3,1.8-2,1.8-3.5
											c0-0.8-0.1-0.9-1.3-1.4c-1.4-0.6-3.7-1.6-3.7-5.3c0-6.8,0.9-18.2,6.9-18.2c6.8,0,6.8,8,6.8,10.6c0,1.1-0.9,1.9-1.9,1.9
											c-1.1,0-1.9-0.9-1.9-1.9c0-6.8-1.9-6.8-3-6.8c-0.8,0-3,3.5-3,14.4c0,1.1,0.2,1.2,1.4,1.7c1.3,0.6,3.6,1.6,3.6,5
											c0,3.1-1.6,4.8-2.9,6.2c-1.2,1.2-1.8,1.9-1.8,3.2C2204.6,562.3,2203.8,563.2,2202.7,563.2z"/>
									</g>
								</g>
							</g>
						</g>
					</g>
					<g>
						<g>
							<g>
								<g>
									<path class="st22" d="M2151.4,550.4c-1.3,3.5-5.2,5.2-8.6,3.9c-3.5-1.3-5.2-5.2-3.9-8.6c1.3-3.5,5.2-5.2,8.6-3.9
										C2150.9,543.1,2152.7,547,2151.4,550.4z"/>
								</g>
							</g>
						</g>
					</g>
					<g>
						<g>
							<g>
								<g>
									<path class="st22" d="M2109.6,552.6c-3.1,2-7.3,1.1-9.3-2c-2-3.1-1.1-7.3,2-9.3c3.1-2,7.3-1.1,9.3,2
										C2113.6,546.5,2112.7,550.6,2109.6,552.6z"/>
								</g>
							</g>
						</g>
					</g>
					<g>
						<g>
							<g>
								<g>
									<path class="st21" d="M2089.5,508.8c8.1-0.3,15.1,0.4,23.6,3c1.7,0.5,3.6-0.2,3.6-1.7v-3.3c0-0.8-0.5-1.7-1.5-1.9
										c-7.9-1.2-15.7-2.4-27.1,0c-1,0.2-1.6,1-1.6,1.9l0,0C2086.5,508.2,2088,508.9,2089.5,508.8z"/>
								</g>
							</g>
						</g>
					</g>
					<g>
						<path class="st20" d="M2158.2,585.3c2.1,4.7-7.9,17.4-11.6,19.1c-3.7,1.7-8.4-0.7-10.5-5.4s-4.3-9.9,2.9-11.5
							C2147,585.8,2156.1,580.6,2158.2,585.3z"/>
					</g>
					<g>
						<g>
							<g>
								<g>
									<path class="st22" d="M2095.2,546c0.2,1.7,3.5-0.8,5.3-1.7c4-1.7,4.7-1.7,7.2-1.9c6.6-0.2,7.7,2.5,8.8,1.1
										c1.2-1.6-5-5.7-13.9-4.6C2097.4,539.5,2095,544.5,2095.2,546z"/>
								</g>
							</g>
						</g>
					</g>
					<g>
						<g>
							<g>
								<g>
									<path class="st22" d="M2135.1,544.2c-0.1,1.7,4.4,0,6.9-0.6c5.2-0.8,6.2-0.7,9.3-0.3c8.1,1.2,8.8,4.1,10.5,3
										c1.9-1.3-4.8-6.6-16-7.5C2139.3,538.3,2135.2,542.7,2135.1,544.2z"/>
								</g>
							</g>
						</g>
					</g>
				</g>
			</g>
			<g>
				<g>
					<path class="st0" d="M2119.2,837.3l-17.1,3.9l6.2-170.1c20,15.7,24.6,35.6,32.5,36.3c9.3,0.8,22.1-20.6,53.4-41.1
						C2203.4,707.2,2160.8,772.5,2119.2,837.3z"/>
				</g>
			</g>
			<g>
				<g>
					<g>
						<path class="st19" d="M1994.9,1527.4l30.6-34.8l-0.9,65.6l5.6,7.1c18.8,20.6,3.4,35.8-34.5,31.5l-37.5-99.4L1994.9,1527.4z"/>
					</g>
				</g>
				<g>
					<g>
						<path class="st23" d="M2030.2,1565.3c13,1.3,28.6,8,44.9,25.9c-38.8,35.4-57.5,61.6-78.4,82.3c-13.6,13.5-64.6,17.8-64.6,17.8
							c-23.5,2.2-28.4-33.3,16.7-27.5c0,0,25.9-6.3,29.4-13.2c6.3-12.5,7.9-26.6,17.3-53.8
							C2030.2,1594.6,2045.1,1585.3,2030.2,1565.3z"/>
					</g>
				</g>
				<g>
					<g>
						<path class="st23" d="M2079.9,1605.7c-8.1,7.4-15.5,14.4-22.3,20.9c-4.7,4.5-10.6,1.8-14.9,5.9c-1.4,1.4-1.4,9.8-2.7,11.1
							c-18,17.7-31.7,31.8-44.5,43.7c-11.3,10.6-50.3,8.6-50.3,8.6l-25.7-1.8l-2.1-8.3c13.9-7.7,57.2,3.6,71.1-9.2
							c26.4-24.4,54-55.7,86.6-85.5l5.2,5.6C2082.6,1599.3,2082.5,1603.3,2079.9,1605.7z"/>
					</g>
				</g>
			</g>
			<g>
				<g>
					<path class="st10" d="M2083.8,1023.3c0,0-193.1,161.1-166.6,296.9l32,245.1l96.2-10l-22.3-263l155.5-155.2l91.1-110.4
						L2083.8,1023.3z"/>
				</g>
			</g>
			<g>
				<g>
					<g>
						<path class="st19" d="M2182.9,1274.6l4.8,96.8l-13.3,14.2c-12.3,27.8,26,21.5,50,21.3c-8.8-18.8,6.2-73.1,17.7-100.6
							L2182.9,1274.6z"/>
					</g>
				</g>
				<g>
					<g>
						<path class="st23" d="M2174.4,1385.5c-19.1,13.5-21.8,47.2-21.8,47.2c69.3,27.4,110.5,59.5,115.9,45.8
							c3.1-7.8,7.4-20.4-20.4-31.4c-20.7-8.2-12.3-48-30.4-55.1C2190.8,1381.4,2178.4,1409.3,2174.4,1385.5z"/>
					</g>
				</g>
				<g>
					<g>
						<path class="st23" d="M2264.4,1489.1c-8.1,7.8-49.3-16.6-88.3-34.5c-1.7-0.8-1.9-5.2-3.6-5.9c-1.7-0.7-4.8,2.2-6.5,1.4
							c-4.7-2-9.3-3.9-13.8-5.5c-2.4-0.9-3.6-3.6-2.7-6l2.8-7.1c21.5,8.5,35.1,12.1,54.8,23.8c22.8,13.6,52.6,26.2,61.8,22.2
							L2264.4,1489.1z"/>
					</g>
				</g>
			</g>
			<g>
				<g>
					<path class="st11" d="M2032.6,1072.2c37.2-82.2,31.2-141.2,11.2-260.6c0,0,2-100,21.1-116.4c5.1-4.4,48.5-28.8,48.5-28.8
						s-13.4,200.2-4.6,196.4c33.4-14.5,118.2-202.6,124.9-204.9c50.8,19,77.1,39.3,79,51.4c0,0,12.5,33.1,11.1,42.3
						c-7.6,49.9-10.6,57.7-28.6,95.3c-20.7,98.5-20.8,131.9-20.8,207L2032.6,1072.2z"/>
				</g>
			</g>
			<g>
				<g>
					<path class="st10" d="M2115.5,1066.3c33.8-74.4-18.4-158.6-9.1-225h-4.3c-10,87.7,35,126.5,4.2,225.4L2115.5,1066.3z"/>
				</g>
			</g>
			<g>
				<g>
					<path class="st11" d="M2165.8,1089.3l2.6,111.1l-21,128.8l94.3,15.4l27.5-127.8l18.8-120.2c5.4-34.3-17.2-66.4-50.5-71.8l0,0
						C2199.4,1018.6,2164.9,1049.6,2165.8,1089.3z"/>
				</g>
			</g>
			<g>
				<g>
					<g>
						<path class="st24" d="M2110.6,863l-3.6-0.4l1.9-15.8c6.7-55,13.2-105.8,27.9-137.5l3.2,1.9c-14.5,31.2-20.9,81.3-27.6,136
							L2110.6,863z"/>
					</g>
				</g>
			</g>
			<g>
				<g>
					<path class="st10" d="M2200,786.5l-12.4-25.3l45.5-19.9l44-66.9l-60.6-28.2l-110.9,221.9l0.6,26.9
						C2111.1,899.4,2173.6,847.8,2200,786.5z"/>
				</g>
			</g>
			<g>
				<g>
					<path class="st10" d="M2111.1,664.5l-30.3,19.8l-4.7,60.6l20.1,3.2l-16.1,31.2c5.7,57.8,15.9,107.9,26,116l2.7-32.5
						L2111.1,664.5z"/>
				</g>
			</g>
			<g>
				<g>
					<g>
						<g>
							<polygon class="st24" points="2106.6,709.3 2121.1,671.1 2138.3,704 2173.9,672.7 2199.5,713.4 2173.9,687.8 2137.9,713.4 
								2122.2,687.8 							"/>
						</g>
					</g>
				</g>
			</g>
			<g>
				<g>
					<g>
						<g>
							<path class="st0" d="M2173.9,672.7c26.2-9.7,39.9-23.8,46.2-37.2l19.5,21.5l-40.1,56.4L2173.9,672.7z"/>
						</g>
					</g>
				</g>
			</g>
			<g>
				<g>
					<g>
						<g>
							<polygon class="st0" points="2121.1,671.1 2108.8,657 2096.6,687.8 2106.6,709.3 							"/>
						</g>
					</g>
				</g>
			</g>
			<g>
				<g>
					<g>
						<path class="st15" d="M2208.4,1018l-50.3,11.5c-7.9,1.8-13.6,8.6-14,16.6l-4.1,72l33.1-10c17.8-3.2-0.1-26.9,11.9-41.3v0
							c2.7-3.2,6.4-5.3,10.5-6l19.1-3.1c5.4-0.9,10.4-3.2,14.5-6.7l13.8-11.8l77.5-71.7l-42.7-25.3L2208.4,1018z"/>
					</g>
				</g>
				<g>
					<g>
						<polygon class="st0" points="2218.4,999.8 2205.4,1013.8 2251.9,1040.3 2279.3,1024 						"/>
					</g>
				</g>
				<g>
					<g>
						<path class="st10" d="M2230,977.4l34.3-101.1c0,0-36.3-62.6,19.5-90.2c22.9-11.3,81.2,112.2,81.2,112.2l-78,116.4L2230,977.4z
							"/>
					</g>
				</g>
				<g>
					<g>
						<path class="st11" d="M2218.4,999.8l67.3-121c0,0-47.7-147.6-40.8-153.5c10.9-9.3,46.2-37.7,57.7-30.8
							c50.2,30.1,73.2,203.8,73.2,203.8l-90.1,153L2218.4,999.8z"/>
					</g>
				</g>
			</g>
		</g>
	</g>
</g>
</svg>
