<?xml version="1.0" encoding="iso-8859-1"?>
<!-- Generator: Adobe Illustrator 26.1.0, SVG Export Plug-In . SVG Version: 6.00 Build 0)  -->
<!DOCTYPE svg PUBLIC "-//W3C//DTD SVG 1.1//EN" "http://www.w3.org/Graphics/SVG/1.1/DTD/svg11.dtd" [
	<!ENTITY ns_extend "http://ns.adobe.com/Extensibility/1.0/">
	<!ENTITY ns_ai "http://ns.adobe.com/AdobeIllustrator/10.0/">
	<!ENTITY ns_graphs "http://ns.adobe.com/Graphs/1.0/">
	<!ENTITY ns_vars "http://ns.adobe.com/Variables/1.0/">
	<!ENTITY ns_imrep "http://ns.adobe.com/ImageReplacement/1.0/">
	<!ENTITY ns_sfw "http://ns.adobe.com/SaveForWeb/1.0/">
	<!ENTITY ns_custom "http://ns.adobe.com/GenericCustomNamespace/1.0/">
	<!ENTITY ns_adobe_xpath "http://ns.adobe.com/XPath/1.0/">
]>
<svg version="1.1" id="Layer_1" xmlns:x="&ns_extend;" xmlns:i="&ns_ai;" xmlns:graph="&ns_graphs;"
	 xmlns="http://www.w3.org/2000/svg" xmlns:xlink="http://www.w3.org/1999/xlink" x="0px" y="0px" viewBox="0 0 2631.156 1620.378"
	 style="enable-background:new 0 0 2631.156 1620.378;" xml:space="preserve">
<metadata>
	<sfw  xmlns="&ns_sfw;">
		<slices></slices>
		<sliceSourceBounds  bottomLeftOrigin="true" height="1620.378" width="2631.156" x="-1009.86" y="-1365.377"></sliceSourceBounds>
	</sfw>
</metadata>
<g>
	<g>
		
			<radialGradient id="SVGID_1_" cx="763.3706" cy="-496.5831" r="4288.9019" gradientTransform="matrix(1.0845 0 0 1.05 105.4903 -203.7035)" gradientUnits="userSpaceOnUse">
			<stop  offset="0" style="stop-color:#AB228A"/>
			<stop  offset="0.5332" style="stop-color:#2E0087"/>
			<stop  offset="0.6493" style="stop-color:#270377"/>
			<stop  offset="0.8765" style="stop-color:#14094C"/>
			<stop  offset="1" style="stop-color:#090D32"/>
		</radialGradient>
		<rect x="0" y="0" style="fill:url(#SVGID_1_);" width="2631.156" height="1620.378"/>
	</g>
	<g>
		
			<radialGradient id="SVGID_00000072967032836127072540000014311230183163888266_" cx="376.86" cy="432.0009" r="3041.9023" gradientUnits="userSpaceOnUse">
			<stop  offset="0" style="stop-color:#AB228A"/>
			<stop  offset="0.5332" style="stop-color:#2E0087"/>
			<stop  offset="0.6493" style="stop-color:#270377"/>
			<stop  offset="0.8765" style="stop-color:#14094C"/>
			<stop  offset="1" style="stop-color:#090D32"/>
		</radialGradient>
		<path style="fill:url(#SVGID_00000072967032836127072540000014311230183163888266_);" d="M1474.156,1514c-60-55-124-96-190-146
			c-136-104-280-157-427-227c-140-67-269-139-363-266c-81-108-119-221-150-347c-14-59-21-116-24-174c-4-69,5-135,16-204
			c9.095-55.103,27.067-103.622,49.466-150H0v1620.378h1564.728C1536.881,1579.648,1509.972,1544.842,1474.156,1514z"/>
		
			<radialGradient id="SVGID_00000088090914349656675340000006252792879433570725_" cx="762.1566" cy="1950" r="2852.5747" gradientUnits="userSpaceOnUse">
			<stop  offset="0" style="stop-color:#AB228A"/>
			<stop  offset="0.5332" style="stop-color:#2E0087"/>
			<stop  offset="0.6493" style="stop-color:#270377"/>
			<stop  offset="0.8765" style="stop-color:#14094C"/>
			<stop  offset="1" style="stop-color:#090D32"/>
		</radialGradient>
		<path style="opacity:0.4;fill:url(#SVGID_00000088090914349656675340000006252792879433570725_);" d="M2364.156,1092
			c-4-90-36-162-86-233c-98-139-242-196-388-253c-133-52-270-77-396-156c-95-59-164-132-210-228
			c-34.982-72.196-56.107-146.609-53.082-222H385.622c-22.399,46.378-40.371,94.896-49.466,150c-11,69-20,135-16,204
			c3,58,10,115,24,174c31,126,69,239,150,347c94,127,223,199,363,266c147,70,291,123,427,227c66,50,130,91,190,146
			c35.816,30.842,62.725,65.648,90.572,106.378h623.396c71.143-98.126,126.622-200.855,161.032-319.378
			C2369.156,1232,2367.156,1162,2364.156,1092z"/>
		
			<radialGradient id="SVGID_00000070829666454830484810000013468657862928516746_" cx="624.1556" cy="137.9995" r="3042.0203" gradientUnits="userSpaceOnUse">
			<stop  offset="0" style="stop-color:#AB228A"/>
			<stop  offset="0.5332" style="stop-color:#2E0087"/>
			<stop  offset="0.6493" style="stop-color:#270377"/>
			<stop  offset="0.8765" style="stop-color:#14094C"/>
			<stop  offset="1" style="stop-color:#090D32"/>
		</radialGradient>
		<path style="fill:url(#SVGID_00000070829666454830484810000013468657862928516746_);" d="M2631.156,0H1231.074
			c-3.025,75.391,18.1,149.804,53.082,222c46,96,115,169,210,228c126,79,263,104,396,156c146,57,290,114,388,253
			c50,71,82,143,86,233c3,70,5,140-15,209c-34.41,118.522-89.888,221.252-161.032,319.378h443.032V0z"/>
	</g>
	<g>
		
			<radialGradient id="SVGID_00000132774767924456558920000012180660042999847343_" cx="576.8605" cy="776.0005" r="1522.2327" gradientUnits="userSpaceOnUse">
			<stop  offset="0" style="stop-color:#AB228A"/>
			<stop  offset="1" style="stop-color:#2E0087"/>
		</radialGradient>
		<path style="fill:url(#SVGID_00000132774767924456558920000012180660042999847343_);" d="M1260.694,1402.663
			c15.321-47.698,18.386-99.352,7.706-129.005c-0.226-1.906-0.454-3.818-0.682-5.736c-23.466-54.332-72.586-13.61-113.282,1.918
			c-30.097,9.497-55.962,5.717-82.004-13.565c-13.941-11.885-26.503-26.06-38.748-51.174
			c-10.497-23.971-20.792-44.299-30.304-74.869c-14.918-39.725-29.949-76.549-48.525-112.618
			c-50.241-90.977-108.601-154.965-164.992-123.985c-21.763,13.377-37.529,45.815-43.903,103.763
			c-0.021,5.837-0.503,14.503-1.42,20.222c-1.416,41.453-1.477,77.991-1.125,115.022c-0.055,28.166-3.27,50.712-9.131,66.02
			c-4.985,10.704-11.13,14.933-19.293,12.823c-37.342-10.667-81.858-19.336-80.417,67.859c1.427,41.74,17.363,88.605,36.03,123.427
			L1260.694,1402.663z"/>
		<defs>
			<filter id="Adobe_OpacityMaskFilter" filterUnits="userSpaceOnUse" x="815.426" y="887.68" width="317.368" height="417.487">
				<feFlood  style="flood-color:white;flood-opacity:1" result="back"/>
				<feBlend  in="SourceGraphic" in2="back" mode="normal"/>
			</filter>
		</defs>
		
			<mask maskUnits="userSpaceOnUse" x="815.426" y="887.68" width="317.368" height="417.487" id="SVGID_00000029755787147279465250000006680655532612734885_">
			<g style="filter:url(#Adobe_OpacityMaskFilter);">
				<defs>
					
						<filter id="Adobe_OpacityMaskFilter_00000092438600312685752770000018374037453317017775_" filterUnits="userSpaceOnUse" x="815.426" y="887.68" width="317.368" height="417.487">
						<feFlood  style="flood-color:white;flood-opacity:1" result="back"/>
						<feBlend  in="SourceGraphic" in2="back" mode="normal"/>
					</filter>
				</defs>
				
					<mask maskUnits="userSpaceOnUse" x="815.426" y="887.68" width="317.368" height="417.487" id="SVGID_00000029755787147279465250000006680655532612734885_">
					<g style="filter:url(#Adobe_OpacityMaskFilter_00000092438600312685752770000018374037453317017775_);">
					</g>
				</mask>
				
					<linearGradient id="SVGID_00000034051686838953492990000000770100547934207878_" gradientUnits="userSpaceOnUse" x1="815.426" y1="1096.4231" x2="1132.7937" y2="1096.4231">
					<stop  offset="0" style="stop-color:#FFFFFF"/>
					<stop  offset="1" style="stop-color:#000000"/>
				</linearGradient>
				
					<path style="mask:url(#SVGID_00000029755787147279465250000006680655532612734885_);fill:url(#SVGID_00000034051686838953492990000000770100547934207878_);" d="
					M822.505,1006.294c6.581,18.97,19.618,33.142,34.433,46.213c20.063,17.702,40.898,27.559,45.253,56.191
					c7.526,49.474-3.031,104.737,33.063,145.643c47.798,57.357,141.186,69.12,197.54,20.074
					c-21.272,2.096-40.767-3.632-60.361-18.141c-13.941-11.885-26.503-26.06-38.748-51.174
					c-10.497-23.971-20.792-44.299-30.304-74.869c-14.918-39.725-29.949-76.549-48.525-112.617
					C917.848,950.6,876.435,898.236,834.649,887.68C815.477,924.549,809.176,967.875,822.505,1006.294z"/>
			</g>
		</mask>
		
			<linearGradient id="SVGID_00000154399986465817882400000004185661786432598974_" gradientUnits="userSpaceOnUse" x1="815.426" y1="1096.4231" x2="1132.7937" y2="1096.4231">
			<stop  offset="0" style="stop-color:#46ACFA"/>
			<stop  offset="1" style="stop-color:#46DAFA"/>
		</linearGradient>
		<path style="opacity:0.8;fill:url(#SVGID_00000154399986465817882400000004185661786432598974_);" d="M822.505,1006.294
			c6.581,18.97,19.618,33.142,34.433,46.213c20.063,17.702,40.898,27.559,45.253,56.191c7.526,49.474-3.031,104.737,33.063,145.643
			c47.798,57.357,141.186,69.12,197.54,20.074c-21.272,2.096-40.767-3.632-60.361-18.141c-13.941-11.885-26.503-26.06-38.748-51.174
			c-10.497-23.971-20.792-44.299-30.304-74.869c-14.918-39.725-29.949-76.549-48.525-112.617
			C917.848,950.6,876.435,898.236,834.649,887.68C815.477,924.549,809.176,967.875,822.505,1006.294z"/>
	</g>
	<g>
		
			<radialGradient id="SVGID_00000119084211409151440980000008967743021164173725_" cx="1814.2748" cy="1288.4031" r="333.8962" gradientUnits="userSpaceOnUse">
			<stop  offset="0" style="stop-color:#AB228A"/>
			<stop  offset="1" style="stop-color:#2E0087"/>
		</radialGradient>
		<path style="fill:url(#SVGID_00000119084211409151440980000008967743021164173725_);" d="M1356.281,1402.697
			c-1.928-30.409,15.072-60.409,41.072-76.409c1-1,2-2,3-3c49-27,102-7,153,1c39,5,75,3,113-7c20-6,38-13,56-25c15-11,29-20,42-33
			c19-16,37-30,58-43c52-30,108-49,168-40c24,4,45,14,61,33c1,2,3,5,5,7c9,15,16,29,23,44c6,12,15,22,26,29c9,5,18,7,28,6
			c45-5,99-9,129,34c15,23,12,51-0.88,73.477L1356.281,1402.697z"/>
		<defs>
			
				<filter id="Adobe_OpacityMaskFilter_00000136383553470321159550000017495893695129058715_" filterUnits="userSpaceOnUse" x="1485.846" y="1174.046" width="528.671" height="202.69">
				<feFlood  style="flood-color:white;flood-opacity:1" result="back"/>
				<feBlend  in="SourceGraphic" in2="back" mode="normal"/>
			</filter>
		</defs>
		
			<mask maskUnits="userSpaceOnUse" x="1485.846" y="1174.046" width="528.671" height="202.69" id="SVGID_00000095319497385650593080000001954272346818130362_">
			<g style="filter:url(#Adobe_OpacityMaskFilter_00000136383553470321159550000017495893695129058715_);">
				<defs>
					
						<filter id="Adobe_OpacityMaskFilter_00000165222130492327630920000014626964343524472726_" filterUnits="userSpaceOnUse" x="1485.846" y="1174.046" width="528.671" height="202.69">
						<feFlood  style="flood-color:white;flood-opacity:1" result="back"/>
						<feBlend  in="SourceGraphic" in2="back" mode="normal"/>
					</filter>
				</defs>
				
					<mask maskUnits="userSpaceOnUse" x="1485.846" y="1174.046" width="528.671" height="202.69" id="SVGID_00000095319497385650593080000001954272346818130362_">
					<g style="filter:url(#Adobe_OpacityMaskFilter_00000165222130492327630920000014626964343524472726_);">
					</g>
				</mask>
				
					<linearGradient id="SVGID_00000114040564890421526850000007242497791417544095_" gradientUnits="userSpaceOnUse" x1="1485.8464" y1="1275.3907" x2="2014.5177" y2="1275.3907">
					<stop  offset="0" style="stop-color:#FFFFFF"/>
					<stop  offset="1" style="stop-color:#000000"/>
				</linearGradient>
				
					<path style="mask:url(#SVGID_00000095319497385650593080000001954272346818130362_);fill:url(#SVGID_00000114040564890421526850000007242497791417544095_);" d="
					M1627.352,1374.288c48-9,84-37,126-58c21-10,43-20,67-15c54,10,111,18,157-20c27-23,54-66,24-93
					c-5.133-4.819-10.588-9.037-16.305-12.72c-57.999-7.144-112.231,11.606-162.695,40.72c-21,13-39,27-58,43c-13,13-27,22-42,33
					c-18,12-36,19-56,25c-38,10-74,12-113,7c-22.287-3.496-44.956-9.283-67.506-12.439c2.482,6.535,6.588,12.65,10.506,17.439
					C1528.352,1367.288,1577.352,1383.288,1627.352,1374.288z"/>
			</g>
		</mask>
		
			<linearGradient id="SVGID_00000121250092043852469390000018188306078288312728_" gradientUnits="userSpaceOnUse" x1="1485.8464" y1="1275.3907" x2="2014.5177" y2="1275.3907">
			<stop  offset="0" style="stop-color:#46ACFA"/>
			<stop  offset="1" style="stop-color:#46DAFA"/>
		</linearGradient>
		<path style="opacity:0.8;fill:url(#SVGID_00000121250092043852469390000018188306078288312728_);" d="M1627.352,1374.288
			c48-9,84-37,126-58c21-10,43-20,67-15c54,10,111,18,157-20c27-23,54-66,24-93c-5.133-4.819-10.588-9.037-16.305-12.72
			c-57.999-7.144-112.231,11.606-162.695,40.72c-21,13-39,27-58,43c-13,13-27,22-42,33c-18,12-36,19-56,25c-38,10-74,12-113,7
			c-22.287-3.496-44.956-9.283-67.506-12.439c2.482,6.535,6.588,12.65,10.506,17.439
			C1528.352,1367.288,1577.352,1383.288,1627.352,1374.288z"/>
	</g>
	<g>
		
			<radialGradient id="SVGID_00000039843442074572068990000014966105065111766693_" cx="468.86" cy="1194.0004" r="816.0975" gradientUnits="userSpaceOnUse">
			<stop  offset="0" style="stop-color:#AB228A"/>
			<stop  offset="1" style="stop-color:#2E0087"/>
		</radialGradient>
		<path style="fill:url(#SVGID_00000039843442074572068990000014966105065111766693_);" d="M975.069,1402.713
			c1.468-23.156-11.477-46-31.275-58.183c-0.761-0.761-1.523-1.523-2.284-2.284c-37.312-20.56-77.671-5.33-116.506,0.761
			c-29.698,3.807-57.111,2.284-86.047-5.33c-15.229-4.569-28.936-9.899-42.643-19.037c-11.422-8.376-22.083-15.229-31.982-25.129
			c-14.468-12.184-28.175-22.844-44.166-32.744c-39.597-22.844-82.239-37.312-127.928-30.459
			c-18.275,3.046-34.266,10.661-46.45,25.129c-0.761,1.523-2.284,3.807-3.807,5.33c-6.853,11.422-12.184,22.083-17.514,33.505
			c-4.569,9.138-11.422,16.753-19.798,22.083c-6.853,3.807-13.706,5.33-21.321,4.569c-34.266-3.807-75.386-6.853-98.23,25.89
			c-11.422,17.514-9.138,38.835,0.67,55.951L975.069,1402.713z"/>
		<defs>
			
				<filter id="Adobe_OpacityMaskFilter_00000085931507929803689690000011587681252897389491_" filterUnits="userSpaceOnUse" x="473.837" y="1228.601" width="402.57" height="154.343">
				<feFlood  style="flood-color:white;flood-opacity:1" result="back"/>
				<feBlend  in="SourceGraphic" in2="back" mode="normal"/>
			</filter>
		</defs>
		
			<mask maskUnits="userSpaceOnUse" x="473.837" y="1228.601" width="402.57" height="154.343" id="SVGID_00000108283064298188070570000005931317316111235002_">
			<g style="filter:url(#Adobe_OpacityMaskFilter_00000085931507929803689690000011587681252897389491_);">
				<defs>
					
						<filter id="Adobe_OpacityMaskFilter_00000033355827539088030950000009699441864055049622_" filterUnits="userSpaceOnUse" x="473.837" y="1228.601" width="402.57" height="154.343">
						<feFlood  style="flood-color:white;flood-opacity:1" result="back"/>
						<feBlend  in="SourceGraphic" in2="back" mode="normal"/>
					</filter>
				</defs>
				
					<mask maskUnits="userSpaceOnUse" x="473.837" y="1228.601" width="402.57" height="154.343" id="SVGID_00000108283064298188070570000005931317316111235002_">
					<g style="filter:url(#Adobe_OpacityMaskFilter_00000033355827539088030950000009699441864055049622_);">
					</g>
				</mask>
				
					<linearGradient id="SVGID_00000005949063723437459130000012017419058684042653_" gradientUnits="userSpaceOnUse" x1="473.8372" y1="1305.7725" x2="876.4075" y2="1305.7725">
					<stop  offset="0" style="stop-color:#FFFFFF"/>
					<stop  offset="1" style="stop-color:#000000"/>
				</linearGradient>
				
					<path style="mask:url(#SVGID_00000108283064298188070570000005931317316111235002_);fill:url(#SVGID_00000005949063723437459130000012017419058684042653_);" d="
					M768.654,1381.08c-36.551-6.853-63.964-28.175-95.946-44.166c-15.991-7.615-32.743-15.229-51.019-11.422
					c-41.12,7.615-84.524,13.706-119.552-15.23c-20.56-17.514-41.12-50.257-18.275-70.817c3.909-3.669,8.062-6.881,12.415-9.686
					c44.165-5.44,85.461,8.838,123.889,31.007c15.991,9.899,29.698,20.56,44.166,32.744c9.899,9.899,20.56,16.752,31.982,25.129
					c13.706,9.138,27.413,14.468,42.643,19.037c28.936,7.615,56.349,9.138,86.047,5.33c16.971-2.662,34.233-7.069,51.404-9.472
					c-1.89,4.976-5.017,9.633-8,13.279C844.04,1375.75,806.728,1387.933,768.654,1381.08z"/>
			</g>
		</mask>
		
			<linearGradient id="SVGID_00000010275483677614888900000005008517231351632538_" gradientUnits="userSpaceOnUse" x1="473.8372" y1="1305.7725" x2="876.4075" y2="1305.7725">
			<stop  offset="0" style="stop-color:#46ACFA"/>
			<stop  offset="1" style="stop-color:#46DAFA"/>
		</linearGradient>
		<path style="opacity:0.7;fill:url(#SVGID_00000010275483677614888900000005008517231351632538_);" d="M768.654,1381.08
			c-36.551-6.853-63.964-28.175-95.946-44.166c-15.991-7.615-32.743-15.229-51.019-11.422c-41.12,7.615-84.524,13.706-119.552-15.23
			c-20.56-17.514-41.12-50.257-18.275-70.817c3.909-3.669,8.062-6.881,12.415-9.686c44.165-5.44,85.461,8.838,123.889,31.007
			c15.991,9.899,29.698,20.56,44.166,32.744c9.899,9.899,20.56,16.752,31.982,25.129c13.706,9.138,27.413,14.468,42.643,19.037
			c28.936,7.615,56.349,9.138,86.047,5.33c16.971-2.662,34.233-7.069,51.404-9.472c-1.89,4.976-5.017,9.633-8,13.279
			C844.04,1375.75,806.728,1387.933,768.654,1381.08z"/>
	</g>
	<g>
		
			<radialGradient id="SVGID_00000086657302755476649600000004038623058539379110_" cx="1971.1556" cy="452.9999" r="1073.0745" gradientUnits="userSpaceOnUse">
			<stop  offset="0" style="stop-color:#AB228A"/>
			<stop  offset="1" style="stop-color:#2E0087"/>
		</radialGradient>
		<path style="fill:url(#SVGID_00000086657302755476649600000004038623058539379110_);" d="M2056.685,1309.468
			c1.307,32.202-7.264,63.365-18.344,93.296h270.606c11.636-60.11-2.315-125.314-39.477-174.177
			c-6.643-8.735-14.124-17.285-17.247-27.805c-4.484-15.105,0.857-31.317,7.569-45.573c11.689-24.825,27.65-47.495,38.74-72.594
			c11.089-25.099,17.033-54.176,7.528-79.916c-9.783-26.491-34.287-45.405-44.435-71.758c-10.691-27.764-3.609-59.573,10.028-86.014
			c13.637-26.441,33.337-49.19,49.832-73.95c22.547-33.843,39.489-73.597,36.063-114.119c-3.426-40.522-31.905-80.738-72.01-87.474
			c-42.073-7.067-82.474,23.544-104,60.377c-21.525,36.833-29.632,79.737-44.393,119.765c-21.686,58.807-57.859,111.421-99.6,158.18
			c-36.35,40.719-79.613,82.714-83.155,137.182c-3.299,50.735,29.136,95.776,55.909,138.998
			C2034.068,1222.256,2054.854,1264.372,2056.685,1309.468z"/>
		<defs>
			
				<filter id="Adobe_OpacityMaskFilter_00000102503066485058195680000013915035337719307932_" filterUnits="userSpaceOnUse" x="1963.263" y="568.363" width="387.113" height="500.813">
				<feFlood  style="flood-color:white;flood-opacity:1" result="back"/>
				<feBlend  in="SourceGraphic" in2="back" mode="normal"/>
			</filter>
		</defs>
		
			<mask maskUnits="userSpaceOnUse" x="1963.263" y="568.363" width="387.113" height="500.813" id="SVGID_00000141414272605757653200000001582614876921199020_">
			<g style="filter:url(#Adobe_OpacityMaskFilter_00000102503066485058195680000013915035337719307932_);">
				<defs>
					
						<filter id="Adobe_OpacityMaskFilter_00000178889378763458408620000002450419199773213322_" filterUnits="userSpaceOnUse" x="1963.263" y="568.363" width="387.113" height="500.813">
						<feFlood  style="flood-color:white;flood-opacity:1" result="back"/>
						<feBlend  in="SourceGraphic" in2="back" mode="normal"/>
					</filter>
				</defs>
				
					<mask maskUnits="userSpaceOnUse" x="1963.263" y="568.363" width="387.113" height="500.813" id="SVGID_00000141414272605757653200000001582614876921199020_">
					<g style="filter:url(#Adobe_OpacityMaskFilter_00000178889378763458408620000002450419199773213322_);">
					</g>
				</mask>
				
					<linearGradient id="SVGID_00000119112930031610511950000008570103752533932438_" gradientUnits="userSpaceOnUse" x1="1963.2628" y1="818.769" x2="2350.3762" y2="818.769">
					<stop  offset="0" style="stop-color:#FFFFFF"/>
					<stop  offset="1" style="stop-color:#000000"/>
				</linearGradient>
				
					<path style="mask:url(#SVGID_00000141414272605757653200000001582614876921199020_);fill:url(#SVGID_00000119112930031610511950000008570103752533932438_);" d="
					M2100.156,1062c49-16,69-65,86-109c21-56,26-119,67-167c33-37,67-71,86-117c5.807-13.274,9.543-27.923,11.22-42.237
					c-11.377-28.596-34.856-52.344-64.836-57.379c-42.073-7.067-82.474,23.544-104,60.377s-29.632,79.737-44.393,119.765
					c-21.686,58.807-57.859,111.421-99.6,158.179c-27.568,30.881-59.107,62.498-74.285,99.732c0.605,1.861,1.234,3.716,1.893,5.562
					C1984.156,1067,2047.156,1079,2100.156,1062z"/>
			</g>
		</mask>
		
			<linearGradient id="SVGID_00000093880558960928798480000005320110533869492906_" gradientUnits="userSpaceOnUse" x1="1963.2628" y1="818.769" x2="2350.3762" y2="818.769">
			<stop  offset="0" style="stop-color:#46ACFA"/>
			<stop  offset="1" style="stop-color:#46DAFA"/>
		</linearGradient>
		<path style="opacity:0.8;fill:url(#SVGID_00000093880558960928798480000005320110533869492906_);" d="M2100.156,1062
			c49-16,69-65,86-109c21-56,26-119,67-167c33-37,67-71,86-117c5.807-13.274,9.543-27.923,11.22-42.237
			c-11.377-28.596-34.856-52.344-64.836-57.379c-42.073-7.067-82.474,23.544-104,60.377s-29.632,79.737-44.393,119.765
			c-21.686,58.807-57.859,111.421-99.6,158.179c-27.568,30.881-59.107,62.498-74.285,99.732c0.605,1.861,1.234,3.716,1.893,5.562
			C1984.156,1067,2047.156,1079,2100.156,1062z"/>
		<defs>
			
				<filter id="Adobe_OpacityMaskFilter_00000124142302641803894550000005019310656937943721_" filterUnits="userSpaceOnUse" x="2035.187" y="568.386" width="259.636" height="522.276">
				<feFlood  style="flood-color:white;flood-opacity:1" result="back"/>
				<feBlend  in="SourceGraphic" in2="back" mode="normal"/>
			</filter>
		</defs>
		
			<mask maskUnits="userSpaceOnUse" x="2035.187" y="568.386" width="259.636" height="522.276" id="SVGID_00000093147343970823364960000004643445136219682988_">
			<g style="filter:url(#Adobe_OpacityMaskFilter_00000124142302641803894550000005019310656937943721_);">
				<defs>
					
						<filter id="Adobe_OpacityMaskFilter_00000163070720064721177080000008895410183029605766_" filterUnits="userSpaceOnUse" x="2035.187" y="568.386" width="259.636" height="522.276">
						<feFlood  style="flood-color:white;flood-opacity:1" result="back"/>
						<feBlend  in="SourceGraphic" in2="back" mode="normal"/>
					</filter>
				</defs>
				
					<mask maskUnits="userSpaceOnUse" x="2035.187" y="568.386" width="259.636" height="522.276" id="SVGID_00000093147343970823364960000004643445136219682988_">
					<g style="filter:url(#Adobe_OpacityMaskFilter_00000163070720064721177080000008895410183029605766_);">
					</g>
				</mask>
				
					<linearGradient id="SVGID_00000003809574449512733850000014983553767126767007_" gradientUnits="userSpaceOnUse" x1="1939.8271" y1="292.4359" x2="2131.8269" y2="733.4343">
					<stop  offset="0" style="stop-color:#FFFFFF"/>
					<stop  offset="1" style="stop-color:#000000"/>
				</linearGradient>
				
					<path style="mask:url(#SVGID_00000093147343970823364960000004643445136219682988_);fill:url(#SVGID_00000003809574449512733850000014983553767126767007_);" d="
					M2050.962,1043.742c10.037,21.748,30.112,36.804,50.187,43.495c81.972,23.42,110.411-78.626,102.047-143.869
					c-6.692-45.168-31.785-97.028,5.019-128.813c70.21-62.409,114.211-161.195,66.893-246.147
					c-38.217-0.942-73.829,27.578-93.567,61.353c-21.525,36.833-29.632,79.737-44.393,119.765
					c-21.228,57.565-56.353,109.181-96.978,155.194C2031.798,950.64,2033.071,997.522,2050.962,1043.742z"/>
			</g>
		</mask>
		
			<linearGradient id="SVGID_00000062151416459778301380000015870929151709993606_" gradientUnits="userSpaceOnUse" x1="1939.8271" y1="292.4359" x2="2131.8269" y2="733.4343">
			<stop  offset="0" style="stop-color:#46ACFA"/>
			<stop  offset="1" style="stop-color:#46DAFA"/>
		</linearGradient>
		<path style="opacity:0.8;fill:url(#SVGID_00000062151416459778301380000015870929151709993606_);" d="M2050.962,1043.742
			c10.037,21.748,30.112,36.804,50.187,43.495c81.972,23.42,110.411-78.626,102.047-143.869
			c-6.692-45.168-31.785-97.028,5.019-128.813c70.21-62.409,114.211-161.195,66.893-246.147
			c-38.217-0.942-73.829,27.578-93.567,61.353c-21.525,36.833-29.632,79.737-44.393,119.765
			c-21.228,57.565-56.353,109.181-96.978,155.194C2031.798,950.64,2033.071,997.522,2050.962,1043.742z"/>
		<g style="opacity:0.8;">
			<defs>
				
					<filter id="Adobe_OpacityMaskFilter_00000102534187929976457390000012919580696596457091_" filterUnits="userSpaceOnUse" x="2117.744" y="875.825" width="68.542" height="526.939">
					<feFlood  style="flood-color:white;flood-opacity:1" result="back"/>
					<feBlend  in="SourceGraphic" in2="back" mode="normal"/>
				</filter>
			</defs>
			
				<mask maskUnits="userSpaceOnUse" x="2117.744" y="875.825" width="68.542" height="526.939" id="SVGID_00000174601209467328211410000015299462038720446344_">
				<g style="filter:url(#Adobe_OpacityMaskFilter_00000102534187929976457390000012919580696596457091_);">
					<defs>
						
							<filter id="Adobe_OpacityMaskFilter_00000098900126623022628020000015905088326440782009_" filterUnits="userSpaceOnUse" x="2117.744" y="875.825" width="68.542" height="526.939">
							<feFlood  style="flood-color:white;flood-opacity:1" result="back"/>
							<feBlend  in="SourceGraphic" in2="back" mode="normal"/>
						</filter>
					</defs>
					
						<mask maskUnits="userSpaceOnUse" x="2117.744" y="875.825" width="68.542" height="526.939" id="SVGID_00000174601209467328211410000015299462038720446344_">
						<g style="filter:url(#Adobe_OpacityMaskFilter_00000098900126623022628020000015905088326440782009_);">
						</g>
					</mask>
					
						<linearGradient id="SVGID_00000077313381676573581230000010138267629394620814_" gradientUnits="userSpaceOnUse" x1="2112.939" y1="1028.6484" x2="2343.9397" y2="1466.6508">
						<stop  offset="0" style="stop-color:#FFFFFF"/>
						<stop  offset="1" style="stop-color:#000000"/>
					</linearGradient>
					
						<path style="mask:url(#SVGID_00000174601209467328211410000015299462038720446344_);fill:url(#SVGID_00000077313381676573581230000010138267629394620814_);" d="
						M2125.76,1098.808c4.766,11.031,10.479,21.063,14.567,30.983c0.482,1.231,0.966,2.465,1.45,3.702
						c0.419,1.224,0.84,2.451,1.261,3.681c0.349,1.217,0.698,2.437,1.049,3.659c0.25,1.242,0.5,2.487,0.751,3.735
						c0.219,1.255,0.585,2.473,0.703,3.76c0.13,1.283,0.26,2.569,0.39,3.858l0.21,1.931c0.054,0.649,0.025,1.318,0.044,1.976
						c0.021,1.32,0.042,2.643,0.064,3.97c-0.022,10.666-2.318,21.97-5.303,33.639c-3.012,11.707-6.925,23.779-10.413,36.671
						c-3.48,12.835-6.393,26.362-7.247,40.184c-0.697,13.723,0.306,27.153,2.572,39.873c4.5,25.519,12.976,48.344,21.252,69.397
						c3.129,7.855,6.227,15.488,9.191,22.937h21.188c-3.183-9.98-6.632-20.097-10.095-30.364
						c-7.034-21.073-14.024-43.055-17.342-65.839c-1.696-11.375-2.242-22.904-1.505-34.369c0.885-11.373,3.406-22.985,6.698-35.13
						c3.265-12.115,7.161-24.439,10.257-37.213c0.382-1.603,0.79-3.181,1.146-4.798c0.338-1.631,0.676-3.258,1.013-4.883
						c0.729-3.211,1.173-6.591,1.721-9.88c0.516-3.309,0.753-6.74,1.121-10.08c0.063-1.715,0.127-3.426,0.19-5.134
						c0.025-1.715,0.188-3.393,0.057-5.133c-0.078-1.725-0.156-3.447-0.234-5.164c-0.053-0.859-0.059-1.713-0.154-2.572
						l-0.342-2.579c-0.237-1.714-0.474-3.425-0.71-5.131c-0.236-1.704-0.742-3.381-1.109-5.063c-0.408-1.677-0.791-3.356-1.236-5.01
						c-0.534-1.625-1.067-3.247-1.598-4.864c-0.603-1.555-1.204-3.106-1.804-4.654c-0.654-1.487-1.306-2.97-1.957-4.449
						c-5.409-11.591-11.619-21.319-16.229-30.687c-2.32-4.669-4.262-9.216-5.636-13.693c-1.392-4.493-2.129-8.814-2.306-13.363
						c-0.399-9.071,1.423-18.51,3.843-27.769c2.455-9.242,5.425-18.595,7.996-27.472c2.606-8.901,5.108-17.443,7.495-25.597
						c18.951-65.279,29.517-106.05,29.517-106.05s-16.622,38.699-41.628,101.906c-3.107,7.907-6.363,16.192-9.754,24.824
						c-3.334,8.687-6.939,17.464-10.369,27.298c-3.333,9.795-6.445,20.682-6.762,32.944c-0.182,6.079,0.506,12.552,2.003,18.608
						C2121.247,1087.493,2123.382,1093.292,2125.76,1098.808z"/>
				</g>
			</mask>
			
				<linearGradient id="SVGID_00000036229450916792825720000012772878732893411999_" gradientUnits="userSpaceOnUse" x1="2112.939" y1="1028.6484" x2="2343.9397" y2="1466.6508">
				<stop  offset="0" style="stop-color:#46ACFA"/>
				<stop  offset="1" style="stop-color:#46DAFA"/>
			</linearGradient>
			<path style="opacity:0.8;fill:url(#SVGID_00000036229450916792825720000012772878732893411999_);" d="M2125.76,1098.808
				c4.766,11.031,10.479,21.063,14.567,30.983c0.482,1.231,0.966,2.465,1.45,3.702c0.419,1.224,0.84,2.451,1.261,3.681
				c0.349,1.217,0.698,2.437,1.049,3.659c0.25,1.242,0.5,2.487,0.751,3.735c0.219,1.255,0.585,2.473,0.703,3.76
				c0.13,1.283,0.26,2.569,0.39,3.858l0.21,1.931c0.054,0.649,0.025,1.318,0.044,1.976c0.021,1.32,0.042,2.643,0.064,3.97
				c-0.022,10.666-2.318,21.97-5.303,33.639c-3.012,11.707-6.925,23.779-10.413,36.671c-3.48,12.835-6.393,26.362-7.247,40.184
				c-0.697,13.723,0.306,27.153,2.572,39.873c4.5,25.519,12.976,48.344,21.252,69.397c3.129,7.855,6.227,15.488,9.191,22.937h21.188
				c-3.183-9.98-6.632-20.097-10.095-30.364c-7.034-21.073-14.024-43.055-17.342-65.839c-1.696-11.375-2.242-22.904-1.505-34.369
				c0.885-11.373,3.406-22.985,6.698-35.13c3.265-12.115,7.161-24.439,10.257-37.213c0.382-1.603,0.79-3.181,1.146-4.798
				c0.338-1.631,0.676-3.258,1.013-4.883c0.729-3.211,1.173-6.591,1.721-9.88c0.516-3.309,0.753-6.74,1.121-10.08
				c0.063-1.715,0.127-3.426,0.19-5.134c0.025-1.715,0.188-3.393,0.057-5.133c-0.078-1.725-0.156-3.447-0.234-5.164
				c-0.053-0.859-0.059-1.713-0.154-2.572l-0.342-2.579c-0.237-1.714-0.474-3.425-0.71-5.131c-0.236-1.704-0.742-3.381-1.109-5.063
				c-0.408-1.677-0.791-3.356-1.236-5.01c-0.534-1.625-1.067-3.247-1.598-4.864c-0.603-1.555-1.204-3.106-1.804-4.654
				c-0.654-1.487-1.306-2.97-1.957-4.449c-5.409-11.591-11.619-21.319-16.229-30.687c-2.32-4.669-4.262-9.216-5.636-13.693
				c-1.392-4.493-2.129-8.814-2.306-13.363c-0.399-9.071,1.423-18.51,3.843-27.769c2.455-9.242,5.425-18.595,7.996-27.472
				c2.606-8.901,5.108-17.443,7.495-25.597c18.951-65.279,29.517-106.05,29.517-106.05s-16.622,38.699-41.628,101.906
				c-3.107,7.907-6.363,16.192-9.754,24.824c-3.334,8.687-6.939,17.464-10.369,27.298c-3.333,9.795-6.445,20.682-6.762,32.944
				c-0.182,6.079,0.506,12.552,2.003,18.608C2121.247,1087.493,2123.382,1093.292,2125.76,1098.808z"/>
		</g>
		<g style="opacity:0.8;">
			<defs>
				
					<filter id="Adobe_OpacityMaskFilter_00000125598802114900401910000012157391964025389244_" filterUnits="userSpaceOnUse" x="2031.046" y="1068.562" width="54.601" height="30.108">
					<feFlood  style="flood-color:white;flood-opacity:1" result="back"/>
					<feBlend  in="SourceGraphic" in2="back" mode="normal"/>
				</filter>
			</defs>
			
				<mask maskUnits="userSpaceOnUse" x="2031.046" y="1068.562" width="54.601" height="30.108" id="SVGID_00000013179687122695500370000017015976910723822229_">
				<g style="filter:url(#Adobe_OpacityMaskFilter_00000125598802114900401910000012157391964025389244_);">
					<defs>
						
							<filter id="Adobe_OpacityMaskFilter_00000150792982477496523930000016122722635546291084_" filterUnits="userSpaceOnUse" x="2031.046" y="1068.562" width="54.601" height="30.108">
							<feFlood  style="flood-color:white;flood-opacity:1" result="back"/>
							<feBlend  in="SourceGraphic" in2="back" mode="normal"/>
						</filter>
					</defs>
					
						<mask maskUnits="userSpaceOnUse" x="2031.046" y="1068.562" width="54.601" height="30.108" id="SVGID_00000013179687122695500370000017015976910723822229_">
						<g style="filter:url(#Adobe_OpacityMaskFilter_00000150792982477496523930000016122722635546291084_);">
						</g>
					</mask>
					
						<linearGradient id="SVGID_00000174601720536326146680000007304645737188023221_" gradientUnits="userSpaceOnUse" x1="2047.5435" y1="1063.1381" x2="2278.543" y2="1501.1378">
						<stop  offset="0" style="stop-color:#FFFFFF"/>
						<stop  offset="1" style="stop-color:#000000"/>
					</linearGradient>
					
						<path style="mask:url(#SVGID_00000013179687122695500370000017015976910723822229_);fill:url(#SVGID_00000174601720536326146680000007304645737188023221_);" d="
						M2058.229,1083.836c-3.685-2.016-7.177-3.976-10.38-5.799c-3.24-1.817-6.163-3.457-8.624-4.838
						c-2.512-1.406-4.551-2.548-5.963-3.338c-1.427-0.797-2.217-1.285-2.217-1.285s0.914-0.031,2.568-0.001
						c0.829,0.009,1.841,0.043,3.005,0.148c1.166,0.099,2.506,0.198,3.958,0.43c2.926,0.396,6.371,1.123,10.104,2.265
						c3.718,1.173,7.717,2.783,11.667,4.946c3.939,2.185,7.435,4.707,10.412,7.223c2.96,2.547,5.413,5.072,7.311,7.333
						c0.971,1.104,1.771,2.184,2.477,3.117c0.71,0.928,1.28,1.765,1.729,2.461c0.908,1.383,1.37,2.172,1.37,2.172
						s-0.834-0.407-2.27-1.188c-1.422-0.771-3.476-1.885-6.007-3.258c-2.481-1.344-5.428-2.939-8.695-4.708
						C2065.424,1087.781,2061.902,1085.875,2058.229,1083.836z"/>
				</g>
			</mask>
			
				<linearGradient id="SVGID_00000096022283203995073930000007333521199961052081_" gradientUnits="userSpaceOnUse" x1="2047.5435" y1="1063.1381" x2="2278.543" y2="1501.1378">
				<stop  offset="0" style="stop-color:#46ACFA"/>
				<stop  offset="1" style="stop-color:#46DAFA"/>
			</linearGradient>
			<path style="fill:url(#SVGID_00000096022283203995073930000007333521199961052081_);" d="M2058.229,1083.836
				c-3.685-2.016-7.177-3.976-10.38-5.799c-3.24-1.817-6.163-3.457-8.624-4.838c-2.512-1.406-4.551-2.548-5.963-3.338
				c-1.427-0.797-2.217-1.285-2.217-1.285s0.914-0.031,2.568-0.001c0.829,0.009,1.841,0.043,3.005,0.148
				c1.166,0.099,2.506,0.198,3.958,0.43c2.926,0.396,6.371,1.123,10.104,2.265c3.718,1.173,7.717,2.783,11.667,4.946
				c3.939,2.185,7.435,4.707,10.412,7.223c2.96,2.547,5.413,5.072,7.311,7.333c0.971,1.104,1.771,2.184,2.477,3.117
				c0.71,0.928,1.28,1.765,1.729,2.461c0.908,1.383,1.37,2.172,1.37,2.172s-0.834-0.407-2.27-1.188
				c-1.422-0.771-3.476-1.885-6.007-3.258c-2.481-1.344-5.428-2.939-8.695-4.708
				C2065.424,1087.781,2061.902,1085.875,2058.229,1083.836z"/>
		</g>
		<g style="opacity:0.8;">
			<defs>
				
					<filter id="Adobe_OpacityMaskFilter_00000044892592880711684790000016809352959843231422_" filterUnits="userSpaceOnUse" x="2055.725" y="968.523" width="39.921" height="30.742">
					<feFlood  style="flood-color:white;flood-opacity:1" result="back"/>
					<feBlend  in="SourceGraphic" in2="back" mode="normal"/>
				</filter>
			</defs>
			
				<mask maskUnits="userSpaceOnUse" x="2055.725" y="968.523" width="39.921" height="30.742" id="SVGID_00000054254111085621504560000014386699280453028793_">
				<g style="filter:url(#Adobe_OpacityMaskFilter_00000044892592880711684790000016809352959843231422_);">
					<defs>
						
							<filter id="Adobe_OpacityMaskFilter_00000027578852079797587080000001335549176907207579_" filterUnits="userSpaceOnUse" x="2055.725" y="968.523" width="39.921" height="30.742">
							<feFlood  style="flood-color:white;flood-opacity:1" result="back"/>
							<feBlend  in="SourceGraphic" in2="back" mode="normal"/>
						</filter>
					</defs>
					
						<mask maskUnits="userSpaceOnUse" x="2055.725" y="968.523" width="39.921" height="30.742" id="SVGID_00000054254111085621504560000014386699280453028793_">
						<g style="filter:url(#Adobe_OpacityMaskFilter_00000027578852079797587080000001335549176907207579_);">
						</g>
					</mask>
					
						<linearGradient id="SVGID_00000044881178412972396680000018435164226189182866_" gradientUnits="userSpaceOnUse" x1="2102.2598" y1="1034.2805" x2="2333.2593" y2="1472.2806">
						<stop  offset="0" style="stop-color:#FFFFFF"/>
						<stop  offset="1" style="stop-color:#000000"/>
					</linearGradient>
					
						<path style="mask:url(#SVGID_00000054254111085621504560000014386699280453028793_);fill:url(#SVGID_00000044881178412972396680000018435164226189182866_);" d="
						M2073.473,986.766c-5.465-4.206-9.87-8.753-12.951-12.26c-3.076-3.506-4.797-5.984-4.797-5.984s2.928,0.719,7.278,2.511
						c4.346,1.79,10.111,4.687,15.677,8.971c5.564,4.287,9.838,9.12,12.678,12.865c2.845,3.747,4.288,6.394,4.288,6.394
						s-2.835-1.031-7.01-3.11C2084.458,994.073,2078.936,990.975,2073.473,986.766z"/>
				</g>
			</mask>
			
				<linearGradient id="SVGID_00000015313930864283856370000007028006696383526547_" gradientUnits="userSpaceOnUse" x1="2102.2598" y1="1034.2805" x2="2333.2593" y2="1472.2806">
				<stop  offset="0" style="stop-color:#46ACFA"/>
				<stop  offset="1" style="stop-color:#46DAFA"/>
			</linearGradient>
			<path style="fill:url(#SVGID_00000015313930864283856370000007028006696383526547_);" d="M2073.473,986.766
				c-5.465-4.206-9.87-8.753-12.951-12.26c-3.076-3.506-4.797-5.984-4.797-5.984s2.928,0.719,7.278,2.511
				c4.346,1.79,10.111,4.687,15.677,8.971c5.564,4.287,9.838,9.12,12.678,12.865c2.845,3.747,4.288,6.394,4.288,6.394
				s-2.835-1.031-7.01-3.11C2084.458,994.073,2078.936,990.975,2073.473,986.766z"/>
		</g>
		<g style="opacity:0.8;">
			<defs>
				
					<filter id="Adobe_OpacityMaskFilter_00000132785622533261469910000013286559859698180996_" filterUnits="userSpaceOnUse" x="2190.848" y="970.87" width="29.135" height="28.78">
					<feFlood  style="flood-color:white;flood-opacity:1" result="back"/>
					<feBlend  in="SourceGraphic" in2="back" mode="normal"/>
				</filter>
			</defs>
			
				<mask maskUnits="userSpaceOnUse" x="2190.848" y="970.87" width="29.135" height="28.78" id="SVGID_00000045608541283676671110000001081967145662854310_">
				<g style="filter:url(#Adobe_OpacityMaskFilter_00000132785622533261469910000013286559859698180996_);">
					<defs>
						
							<filter id="Adobe_OpacityMaskFilter_00000041979629816103967790000015115175616466700429_" filterUnits="userSpaceOnUse" x="2190.848" y="970.87" width="29.135" height="28.78">
							<feFlood  style="flood-color:white;flood-opacity:1" result="back"/>
							<feBlend  in="SourceGraphic" in2="back" mode="normal"/>
						</filter>
					</defs>
					
						<mask maskUnits="userSpaceOnUse" x="2190.848" y="970.87" width="29.135" height="28.78" id="SVGID_00000045608541283676671110000001081967145662854310_">
						<g style="filter:url(#Adobe_OpacityMaskFilter_00000041979629816103967790000015115175616466700429_);">
						</g>
					</mask>
					
						<linearGradient id="SVGID_00000019641934993912276160000010624531411705929141_" gradientUnits="userSpaceOnUse" x1="2203.1946" y1="981.0481" x2="2434.1938" y2="1419.0479">
						<stop  offset="0" style="stop-color:#FFFFFF"/>
						<stop  offset="1" style="stop-color:#000000"/>
					</linearGradient>
					
						<path style="mask:url(#SVGID_00000045608541283676671110000001081967145662854310_);fill:url(#SVGID_00000019641934993912276160000010624531411705929141_);" d="
						M2207.081,986.945c-3.879,3.838-7.886,6.911-10.972,9.157c-1.54,1.117-2.86,2-3.78,2.616c-0.926,0.612-1.48,0.931-1.48,0.931
						s0.114-0.62,0.395-1.707c0.277-1.091,0.754-2.63,1.496-4.459c1.472-3.648,4.135-8.445,8.344-12.61
						c4.215-4.158,9.045-6.762,12.711-8.189c1.838-0.72,3.383-1.179,4.477-1.441c1.09-0.269,1.712-0.374,1.712-0.374
						s-0.326,0.55-0.949,1.468c-0.627,0.912-1.527,2.221-2.662,3.748C2214.088,979.144,2210.966,983.114,2207.081,986.945z"/>
				</g>
			</mask>
			
				<linearGradient id="SVGID_00000039124979661607539580000015099781442884638860_" gradientUnits="userSpaceOnUse" x1="2203.1946" y1="981.0481" x2="2434.1938" y2="1419.0479">
				<stop  offset="0" style="stop-color:#46ACFA"/>
				<stop  offset="1" style="stop-color:#46DAFA"/>
			</linearGradient>
			<path style="fill:url(#SVGID_00000039124979661607539580000015099781442884638860_);" d="M2207.081,986.945
				c-3.879,3.838-7.886,6.911-10.972,9.157c-1.54,1.117-2.86,2-3.78,2.616c-0.926,0.612-1.48,0.931-1.48,0.931
				s0.114-0.62,0.395-1.707c0.277-1.091,0.754-2.63,1.496-4.459c1.472-3.648,4.135-8.445,8.344-12.61
				c4.215-4.158,9.045-6.762,12.711-8.189c1.838-0.72,3.383-1.179,4.477-1.441c1.09-0.269,1.712-0.374,1.712-0.374
				s-0.326,0.55-0.949,1.468c-0.627,0.912-1.527,2.221-2.662,3.748C2214.088,979.144,2210.966,983.114,2207.081,986.945z"/>
		</g>
		<g style="opacity:0.8;">
			<defs>
				
					<filter id="Adobe_OpacityMaskFilter_00000102506191645599544560000011889359384571651735_" filterUnits="userSpaceOnUse" x="2192.677" y="1054.747" width="58.85" height="41.788">
					<feFlood  style="flood-color:white;flood-opacity:1" result="back"/>
					<feBlend  in="SourceGraphic" in2="back" mode="normal"/>
				</filter>
			</defs>
			
				<mask maskUnits="userSpaceOnUse" x="2192.677" y="1054.747" width="58.85" height="41.788" id="SVGID_00000119817538672374143380000014300090290946552224_">
				<g style="filter:url(#Adobe_OpacityMaskFilter_00000102506191645599544560000011889359384571651735_);">
					<defs>
						
							<filter id="Adobe_OpacityMaskFilter_00000045587483623259230570000007534138534067231914_" filterUnits="userSpaceOnUse" x="2192.677" y="1054.747" width="58.85" height="41.788">
							<feFlood  style="flood-color:white;flood-opacity:1" result="back"/>
							<feBlend  in="SourceGraphic" in2="back" mode="normal"/>
						</filter>
					</defs>
					
						<mask maskUnits="userSpaceOnUse" x="2192.677" y="1054.747" width="58.85" height="41.788" id="SVGID_00000119817538672374143380000014300090290946552224_">
						<g style="filter:url(#Adobe_OpacityMaskFilter_00000045587483623259230570000007534138534067231914_);">
						</g>
					</mask>
					
						<linearGradient id="SVGID_00000000911241925711376800000015080973614675148718_" gradientUnits="userSpaceOnUse" x1="2178.9556" y1="993.8306" x2="2409.9578" y2="1431.8354">
						<stop  offset="0" style="stop-color:#FFFFFF"/>
						<stop  offset="1" style="stop-color:#000000"/>
					</linearGradient>
					
						<path style="mask:url(#SVGID_00000119817538672374143380000014300090290946552224_);fill:url(#SVGID_00000000911241925711376800000015080973614675148718_);" d="
						M2223.663,1077.839c-8.045,5.717-15.759,10.345-21.492,13.61c-2.865,1.629-5.241,2.898-6.892,3.77
						c-1.655,0.868-2.602,1.316-2.602,1.316s0.601-0.853,1.745-2.338c1.141-1.489,2.848-3.588,5.069-6.069
						c4.435-4.959,11.007-11.403,19.231-17.247c8.228-5.838,16.478-9.919,22.622-12.472c3.074-1.279,5.618-2.198,7.4-2.785
						c1.779-0.591,2.783-0.877,2.783-0.877s-0.735,0.747-2.1,2.022c-1.368,1.271-3.349,3.097-5.831,5.264
						C2238.624,1066.369,2231.712,1072.127,2223.663,1077.839z"/>
				</g>
			</mask>
			
				<linearGradient id="SVGID_00000106861040503701247060000010951711774974492094_" gradientUnits="userSpaceOnUse" x1="2178.9556" y1="993.8306" x2="2409.9578" y2="1431.8354">
				<stop  offset="0" style="stop-color:#46ACFA"/>
				<stop  offset="1" style="stop-color:#46DAFA"/>
			</linearGradient>
			<path style="fill:url(#SVGID_00000106861040503701247060000010951711774974492094_);" d="M2223.663,1077.839
				c-8.045,5.717-15.759,10.345-21.492,13.61c-2.865,1.629-5.241,2.898-6.892,3.77c-1.655,0.868-2.602,1.316-2.602,1.316
				s0.601-0.853,1.745-2.338c1.141-1.489,2.848-3.588,5.069-6.069c4.435-4.959,11.007-11.403,19.231-17.247
				c8.228-5.838,16.478-9.919,22.622-12.472c3.074-1.279,5.618-2.198,7.4-2.785c1.779-0.591,2.783-0.877,2.783-0.877
				s-0.735,0.747-2.1,2.022c-1.368,1.271-3.349,3.097-5.831,5.264C2238.624,1066.369,2231.712,1072.127,2223.663,1077.839z"/>
		</g>
	</g>
	<g>
		<g>
			<path style="fill:#250C8C;" d="M2135.176,1206.247H594.487c-11.515,0-20.85-9.335-20.85-20.85V273.115
				c0-11.515,9.335-20.85,20.85-20.85h1540.689c11.515,0,20.85,9.335,20.85,20.85v912.282
				C2156.026,1196.912,2146.691,1206.247,2135.176,1206.247z"/>
			<polygon style="fill:#250C8C;" points="1527.62,1394.368 1202.044,1394.368 1221.92,1137.945 1507.744,1137.945 			"/>
			<defs>
				
					<filter id="Adobe_OpacityMaskFilter_00000155824668281935599560000003085069330548101296_" filterUnits="userSpaceOnUse" x="1202.044" y="1219.684" width="325.575" height="174.684">
					<feFlood  style="flood-color:white;flood-opacity:1" result="back"/>
					<feBlend  in="SourceGraphic" in2="back" mode="normal"/>
				</filter>
			</defs>
			
				<mask maskUnits="userSpaceOnUse" x="1202.044" y="1219.684" width="325.575" height="174.684" id="SVGID_00000145737327699172106430000015002294380757821075_">
				<g style="filter:url(#Adobe_OpacityMaskFilter_00000155824668281935599560000003085069330548101296_);">
					<defs>
						
							<filter id="Adobe_OpacityMaskFilter_00000089563828261120139330000010455182559133686463_" filterUnits="userSpaceOnUse" x="1202.044" y="1219.684" width="325.575" height="174.684">
							<feFlood  style="flood-color:white;flood-opacity:1" result="back"/>
							<feBlend  in="SourceGraphic" in2="back" mode="normal"/>
						</filter>
					</defs>
					
						<mask maskUnits="userSpaceOnUse" x="1202.044" y="1219.684" width="325.575" height="174.684" id="SVGID_00000145737327699172106430000015002294380757821075_">
						<g style="filter:url(#Adobe_OpacityMaskFilter_00000089563828261120139330000010455182559133686463_);">
						</g>
					</mask>
					
						<linearGradient id="SVGID_00000051379595171490585640000000582017532758627495_" gradientUnits="userSpaceOnUse" x1="1202.0439" y1="1307.0258" x2="1527.6194" y2="1307.0258">
						<stop  offset="0" style="stop-color:#FFFFFF"/>
						<stop  offset="1" style="stop-color:#000000"/>
					</linearGradient>
					
						<path style="mask:url(#SVGID_00000145737327699172106430000015002294380757821075_);fill:url(#SVGID_00000051379595171490585640000000582017532758627495_);" d="
						M1368.661,1286.976c-52.787,18.235-106.726,30.009-161.153,36.895l-5.464,70.496h325.575l-13.54-174.684
						C1467.891,1246.391,1419.517,1269.267,1368.661,1286.976z"/>
				</g>
			</mask>
			
				<linearGradient id="SVGID_00000183220171449918244180000018274936800024719283_" gradientUnits="userSpaceOnUse" x1="1202.0439" y1="1307.0258" x2="1527.6194" y2="1307.0258">
				<stop  offset="0" style="stop-color:#46ACFA"/>
				<stop  offset="1" style="stop-color:#46DAFA"/>
			</linearGradient>
			<path style="opacity:0.8;fill:url(#SVGID_00000183220171449918244180000018274936800024719283_);" d="M1368.661,1286.976
				c-52.787,18.235-106.726,30.009-161.153,36.895l-5.464,70.496h325.575l-13.54-174.684
				C1467.891,1246.391,1419.517,1269.267,1368.661,1286.976z"/>
			
				<linearGradient id="SVGID_00000173875484862084241810000010008575318233901954_" gradientUnits="userSpaceOnUse" x1="1577.5308" y1="382.1299" x2="824.5307" y2="1636.1305">
				<stop  offset="0" style="stop-color:#2EE9F5"/>
				<stop  offset="0.1013" style="stop-color:#3EDCF5"/>
				<stop  offset="0.3007" style="stop-color:#69BCF4"/>
				<stop  offset="0.5767" style="stop-color:#AE87F2"/>
				<stop  offset="0.6136" style="stop-color:#B880F2"/>
				<stop  offset="0.9536" style="stop-color:#F6508D"/>
				<stop  offset="1" style="stop-color:#FF497F"/>
			</linearGradient>
			<path style="fill:url(#SVGID_00000173875484862084241810000010008575318233901954_);" d="M2118.159,1190.586H611.504
				c-6.567,0-11.89-5.323-11.89-11.89V293.996c0-6.567,5.323-11.89,11.89-11.89h1506.655c6.567,0,11.89,5.323,11.89,11.89v884.701
				C2130.049,1185.263,2124.726,1190.586,2118.159,1190.586z"/>
			<rect x="1132.779" y="1380.076" style="fill:#250C8C;" width="459.671" height="22.688"/>
			<defs>
				
					<filter id="Adobe_OpacityMaskFilter_00000084524805700244884090000016947173897882748314_" filterUnits="userSpaceOnUse" x="1141.221" y="1385.771" width="445.582" height="5.649">
					<feFlood  style="flood-color:white;flood-opacity:1" result="back"/>
					<feBlend  in="SourceGraphic" in2="back" mode="normal"/>
				</filter>
			</defs>
			
				<mask maskUnits="userSpaceOnUse" x="1141.221" y="1385.771" width="445.582" height="5.649" id="SVGID_00000155131884445377989650000000047463245679744937_">
				<g style="filter:url(#Adobe_OpacityMaskFilter_00000084524805700244884090000016947173897882748314_);">
					<defs>
						
							<filter id="Adobe_OpacityMaskFilter_00000001643318486084113590000000996502502160921016_" filterUnits="userSpaceOnUse" x="1141.221" y="1385.771" width="445.582" height="5.649">
							<feFlood  style="flood-color:white;flood-opacity:1" result="back"/>
							<feBlend  in="SourceGraphic" in2="back" mode="normal"/>
						</filter>
					</defs>
					
						<mask maskUnits="userSpaceOnUse" x="1141.221" y="1385.771" width="445.582" height="5.649" id="SVGID_00000155131884445377989650000000047463245679744937_">
						<g style="filter:url(#Adobe_OpacityMaskFilter_00000001643318486084113590000000996502502160921016_);">
						</g>
					</mask>
					
						<linearGradient id="SVGID_00000082335140354256237590000013087153920581254062_" gradientUnits="userSpaceOnUse" x1="1141.2208" y1="1388.5958" x2="1586.8024" y2="1388.5958">
						<stop  offset="0" style="stop-color:#FFFFFF"/>
						<stop  offset="1" style="stop-color:#000000"/>
					</linearGradient>
					
						<rect x="1141.221" y="1385.771" style="mask:url(#SVGID_00000155131884445377989650000000047463245679744937_);fill:url(#SVGID_00000082335140354256237590000013087153920581254062_);" width="445.582" height="5.649"/>
				</g>
			</mask>
			
				<linearGradient id="SVGID_00000054254344052920137530000009865429708154251419_" gradientUnits="userSpaceOnUse" x1="1141.2208" y1="1388.5958" x2="1586.8024" y2="1388.5958">
				<stop  offset="0" style="stop-color:#46ACFA"/>
				<stop  offset="1" style="stop-color:#46DAFA"/>
			</linearGradient>
			
				<rect x="1141.221" y="1385.771" style="fill:url(#SVGID_00000054254344052920137530000009865429708154251419_);" width="445.582" height="5.649"/>
		</g>
		<g>
			<path style="opacity:0.4;fill:#2E0087;" d="M947.662,411.623H750.049c-2.543,0-4.604-2.061-4.604-4.603v-31.452
				c0-2.542,2.061-4.604,4.604-4.604h197.613c2.542,0,4.603,2.061,4.603,4.604v31.452
				C952.265,409.562,950.204,411.623,947.662,411.623z"/>
			<path style="opacity:0.4;fill:#2E0087;" d="M1240.209,411.623h-197.613c-2.542,0-4.604-2.061-4.604-4.603v-31.452
				c0-2.542,2.061-4.604,4.604-4.604h197.613c2.542,0,4.603,2.061,4.603,4.604v31.452
				C1244.813,409.562,1242.752,411.623,1240.209,411.623z"/>
			<path style="opacity:0.4;fill:#2E0087;" d="M1532.757,411.623h-197.613c-2.543,0-4.604-2.061-4.604-4.603v-31.452
				c0-2.542,2.061-4.604,4.604-4.604h197.613c2.542,0,4.604,2.061,4.604,4.604v31.452
				C1537.36,409.562,1535.299,411.623,1532.757,411.623z"/>
			
				<linearGradient id="SVGID_00000061454254611724277810000015651806032524786063_" gradientUnits="userSpaceOnUse" x1="1904.8247" y1="299.0308" x2="1720.8242" y2="875.0322">
				<stop  offset="0" style="stop-color:#FFF675"/>
				<stop  offset="0.2337" style="stop-color:#FFD277"/>
				<stop  offset="0.7502" style="stop-color:#FF777C"/>
				<stop  offset="1" style="stop-color:#FF497F"/>
			</linearGradient>
			<path style="fill:url(#SVGID_00000061454254611724277810000015651806032524786063_);" d="M1995.268,746.078h-345.394
				c-2.542,0-4.604-2.061-4.604-4.604V371.568c0-2.542,2.061-4.604,4.604-4.604h345.394c2.542,0,4.604,2.061,4.604,4.604v369.906
				C1999.871,744.017,1997.81,746.078,1995.268,746.078z"/>
			
				<linearGradient id="SVGID_00000116208059051244081100000011153661159599313853_" gradientUnits="userSpaceOnUse" x1="1771.7336" y1="531.3392" x2="1822.7335" y2="388.8392">
				<stop  offset="0" style="stop-color:#FFF675"/>
				<stop  offset="0.2337" style="stop-color:#FFD277"/>
				<stop  offset="0.7502" style="stop-color:#FF777C"/>
				<stop  offset="1" style="stop-color:#FF497F"/>
			</linearGradient>
			<path style="fill:url(#SVGID_00000116208059051244081100000011153661159599313853_);" d="M1995.268,411.623h-345.394
				c-2.542,0-4.604-2.061-4.604-4.603v-35.452c0-2.542,2.061-4.604,4.604-4.604h345.394c2.542,0,4.604,2.061,4.604,4.604v35.452
				C1999.871,409.562,1997.81,411.623,1995.268,411.623z"/>
			<g>
				<rect x="747.174" y="559.955" style="opacity:0.4;fill:#FFFEFF;" width="310.012" height="15.247"/>
				<rect x="1108.01" y="559.955" style="opacity:0.4;fill:#FFFEFF;" width="396.424" height="15.247"/>
				<rect x="747.174" y="601.933" style="opacity:0.4;fill:#FFFEFF;" width="198.201" height="15.247"/>
				<rect x="1265.563" y="601.933" style="opacity:0.4;fill:#FFFEFF;" width="218.541" height="15.247"/>
				<rect x="982.646" y="601.933" style="opacity:0.4;fill:#FFFEFF;" width="227.012" height="15.247"/>
				<rect x="747.174" y="643.911" style="opacity:0.4;fill:#FFFEFF;" width="301.542" height="15.247"/>
				<rect x="1104.622" y="643.911" style="opacity:0.4;fill:#FFFEFF;" width="259.2" height="15.247"/>
				<rect x="1392.622" y="643.911" style="opacity:0.4;fill:#FFFEFF;" width="111.812" height="15.247"/>
				<rect x="747.174" y="685.889" style="opacity:0.4;fill:#FFFEFF;" width="177.871" height="15.247"/>
				<rect x="969.093" y="685.889" style="opacity:0.4;fill:#FFFEFF;" width="252.423" height="15.247"/>
				<rect x="1272.34" y="685.889" style="opacity:0.4;fill:#FFFEFF;" width="111.812" height="15.247"/>
			</g>
			
				<linearGradient id="SVGID_00000052076632675303428740000000888335935516608694_" gradientUnits="userSpaceOnUse" x1="808.1876" y1="249.0764" x2="1033.1874" y2="747.0759">
				<stop  offset="0" style="stop-color:#FFF675"/>
				<stop  offset="0.2337" style="stop-color:#FFD277"/>
				<stop  offset="0.7502" style="stop-color:#FF777C"/>
				<stop  offset="1" style="stop-color:#FF497F"/>
			</linearGradient>
			<path style="fill:url(#SVGID_00000052076632675303428740000000888335935516608694_);" d="M1092.41,520.564H750.916
				c-2.066,0-3.741-1.675-3.741-3.741v-33.176c0-2.066,1.675-3.741,3.741-3.741h341.495c2.066,0,3.741,1.675,3.741,3.741v33.176
				C1096.151,518.889,1094.477,520.564,1092.41,520.564z"/>
			<g>
				
					<radialGradient id="SVGID_00000047023798135182865960000014085535809384122755_" cx="1833.8602" cy="321.0005" r="635.2325" gradientUnits="userSpaceOnUse">
					<stop  offset="0" style="stop-color:#AB228A"/>
					<stop  offset="0.5332" style="stop-color:#2E0087"/>
					<stop  offset="0.6493" style="stop-color:#270377"/>
					<stop  offset="0.8765" style="stop-color:#14094C"/>
					<stop  offset="1" style="stop-color:#090D32"/>
				</radialGradient>
				<path style="fill:url(#SVGID_00000047023798135182865960000014085535809384122755_);" d="M1681.057,647.351l18.556-33.384
					c6.185,5.097,14.432,9.939,24.741,9.939c13.917,0,22.937-8.92,22.937-23.19V489.607h44.328v111.619
					c0,42.048-25.772,61.415-63.399,61.415C1710.952,662.641,1693.943,658.564,1681.057,647.351z"/>
				
					<radialGradient id="SVGID_00000004512305091088712150000006921109157237390518_" cx="1833.8604" cy="321.0006" r="635.2315" gradientUnits="userSpaceOnUse">
					<stop  offset="0" style="stop-color:#AB228A"/>
					<stop  offset="0.5332" style="stop-color:#2E0087"/>
					<stop  offset="0.6493" style="stop-color:#270377"/>
					<stop  offset="0.8765" style="stop-color:#14094C"/>
					<stop  offset="1" style="stop-color:#090D32"/>
				</radialGradient>
				<path style="fill:url(#SVGID_00000004512305091088712150000006921109157237390518_);" d="M1810.175,635.628l23.453-32.874
					c12.371,12.232,31.442,22.426,54.894,22.426c15.206,0,24.483-5.861,24.483-14.016c0-23.19-97.418-4.587-97.418-70.08
					c0-28.542,24.483-54.025,68.553-54.025c27.576,0,51.544,8.154,69.843,23.699l-24.226,31.346
					c-14.432-11.723-33.246-17.584-50.255-17.584c-12.886,0-18.556,5.097-18.556,12.232c0,21.661,97.161,5.861,97.161,69.061
					c0,34.148-25.515,56.828-71.646,56.828C1851.668,662.641,1827.443,651.938,1810.175,635.628z"/>
			</g>
			
				<linearGradient id="SVGID_00000145780789979477485780000013008912771297664902_" gradientUnits="userSpaceOnUse" x1="1653.6791" y1="282.7358" x2="1676.6792" y2="451.2357">
				<stop  offset="0" style="stop-color:#2EE9F5"/>
				<stop  offset="0.1013" style="stop-color:#3EDCF5"/>
				<stop  offset="0.3007" style="stop-color:#69BCF4"/>
				<stop  offset="0.5767" style="stop-color:#AE87F2"/>
				<stop  offset="0.6136" style="stop-color:#B880F2"/>
				<stop  offset="0.9536" style="stop-color:#F6508D"/>
				<stop  offset="1" style="stop-color:#FF497F"/>
			</linearGradient>
			<circle style="fill:url(#SVGID_00000145780789979477485780000013008912771297664902_);" cx="1668.235" cy="389.375" r="11.625"/>
			
				<linearGradient id="SVGID_00000020398749518121980760000006727178902796128166_" gradientUnits="userSpaceOnUse" x1="1688.5297" y1="277.9786" x2="1711.5299" y2="446.4786">
				<stop  offset="0" style="stop-color:#2EE9F5"/>
				<stop  offset="0.1013" style="stop-color:#3EDCF5"/>
				<stop  offset="0.3007" style="stop-color:#69BCF4"/>
				<stop  offset="0.5767" style="stop-color:#AE87F2"/>
				<stop  offset="0.6136" style="stop-color:#B880F2"/>
				<stop  offset="0.9536" style="stop-color:#F6508D"/>
				<stop  offset="1" style="stop-color:#FF497F"/>
			</linearGradient>
			<circle style="fill:url(#SVGID_00000020398749518121980760000006727178902796128166_);" cx="1703.735" cy="389.375" r="11.625"/>
			
				<linearGradient id="SVGID_00000030477618763141582840000015646811136615937162_" gradientUnits="userSpaceOnUse" x1="1723.3804" y1="273.2218" x2="1746.3805" y2="441.7217">
				<stop  offset="0" style="stop-color:#2EE9F5"/>
				<stop  offset="0.1013" style="stop-color:#3EDCF5"/>
				<stop  offset="0.3007" style="stop-color:#69BCF4"/>
				<stop  offset="0.5767" style="stop-color:#AE87F2"/>
				<stop  offset="0.6136" style="stop-color:#B880F2"/>
				<stop  offset="0.9536" style="stop-color:#F6508D"/>
				<stop  offset="1" style="stop-color:#FF497F"/>
			</linearGradient>
			<circle style="fill:url(#SVGID_00000030477618763141582840000015646811136615937162_);" cx="1739.235" cy="389.375" r="11.625"/>
		</g>
		
			<linearGradient id="SVGID_00000021812759633702424180000005247343470975425461_" gradientUnits="userSpaceOnUse" x1="1672.5859" y1="1574.7631" x2="805.5861" y2="458.764">
			<stop  offset="0" style="stop-color:#2EE9F5"/>
			<stop  offset="0.1013" style="stop-color:#3EDCF5"/>
			<stop  offset="0.3007" style="stop-color:#69BCF4"/>
			<stop  offset="0.5767" style="stop-color:#AE87F2"/>
			<stop  offset="0.6136" style="stop-color:#B880F2"/>
			<stop  offset="0.9536" style="stop-color:#F6508D"/>
			<stop  offset="1" style="stop-color:#FF497F"/>
		</linearGradient>
		<path style="fill:url(#SVGID_00000021812759633702424180000005247343470975425461_);" d="M1418.385,837.393H746.289
			c-2.108,0-3.817-1.709-3.817-3.817v-37.158c0-2.108,1.709-3.817,3.817-3.817h672.096c2.108,0,3.817,1.709,3.817,3.817v37.158
			C1422.202,835.684,1420.493,837.393,1418.385,837.393z"/>
		<g>
			
				<linearGradient id="SVGID_00000023982177943764697520000014752966919586251439_" gradientUnits="userSpaceOnUse" x1="842.223" y1="720.858" x2="884.2233" y2="1052.8594">
				<stop  offset="0" style="stop-color:#FFF675"/>
				<stop  offset="0.2337" style="stop-color:#FFD277"/>
				<stop  offset="0.7502" style="stop-color:#FF777C"/>
				<stop  offset="1" style="stop-color:#FF497F"/>
			</linearGradient>
			
				<rect x="745.346" y="921.995" style="fill:url(#SVGID_00000023982177943764697520000014752966919586251439_);" width="246.573" height="15.247"/>
			
				<linearGradient id="SVGID_00000141448949534052659440000002809770079187072407_" gradientUnits="userSpaceOnUse" x1="1158.5215" y1="680.8441" x2="1200.5219" y2="1012.8453">
				<stop  offset="0" style="stop-color:#FFF675"/>
				<stop  offset="0.2337" style="stop-color:#FFD277"/>
				<stop  offset="0.7502" style="stop-color:#FF777C"/>
				<stop  offset="1" style="stop-color:#FF497F"/>
			</linearGradient>
			
				<rect x="1032.342" y="921.995" style="fill:url(#SVGID_00000141448949534052659440000002809770079187072407_);" width="315.302" height="15.247"/>
			<rect x="745.346" y="963.973" style="opacity:0.4;fill:#FFFEFF;" width="157.642" height="15.247"/>
			<rect x="1157.655" y="963.973" style="opacity:0.4;fill:#FFFEFF;" width="173.82" height="15.247"/>
			<rect x="932.632" y="963.973" style="opacity:0.4;fill:#FFFEFF;" width="180.557" height="15.247"/>
			<rect x="745.346" y="1005.95" style="opacity:0.4;fill:#FFFEFF;" width="239.836" height="15.247"/>
			<rect x="1029.647" y="1005.95" style="opacity:0.4;fill:#FFFEFF;" width="206.159" height="15.247"/>
			<rect x="1258.713" y="1005.95" style="opacity:0.4;fill:#FFFEFF;" width="88.931" height="15.247"/>
			<rect x="745.346" y="1047.928" style="opacity:0.4;fill:#FFFEFF;" width="141.473" height="15.247"/>
			<rect x="921.852" y="1047.928" style="opacity:0.4;fill:#FFFEFF;" width="200.769" height="15.247"/>
			<rect x="1163.044" y="1047.928" style="opacity:0.4;fill:#FFFEFF;" width="88.931" height="15.247"/>
		</g>
		<path style="opacity:0.2;fill:#2E0087;" d="M1701.131,1071.121h-191.363c-2.203,0-3.989-1.786-3.989-3.989V795.375
			c0-2.203,1.786-3.989,3.989-3.989h191.363c2.203,0,3.989,1.786,3.989,3.989v271.757
			C1705.12,1069.335,1703.334,1071.121,1701.131,1071.121z"/>
		<path style="opacity:0.2;fill:#2E0087;" d="M1987.437,1071.121H1754.85c-2.203,0-3.989-1.786-3.989-3.989V795.375
			c0-2.203,1.786-3.989,3.989-3.989h232.586c2.203,0,3.989,1.786,3.989,3.989v271.757
			C1991.426,1069.335,1989.64,1071.121,1987.437,1071.121z"/>
	</g>
	<g>
		<g>
			<path style="fill:#39239E;" d="M1783.406,1402.764h93.534c39.452-53.975,71.265-113.771,89.115-177.978
				c16.998-61.144,22.397-125.661,18.892-189.464c-5.288,3.581-10.841,6.656-16.797,8.924c4-10.5,9.501-20.001,15.376-29.252
				c-2.145-25.394-5.651-50.607-10.377-75.375c-0.876-4.592-1.445-7.071-1.445-7.071c0.178,0.712-55.339,35.59-60.27,39.469
				c-1.312,1.032-2.602,2.093-3.901,3.141c-0.877,9.529-1.872,19.059-5.383,28.087c-5.316-3.272-8.959-8.049-11.752-13.511
				c-11.724,10.55-22.856,21.76-33.324,33.557c2.21,9.005,5.003,17.836,6.076,26.954c-6.183-4.416-11.195-9.808-15.984-15.4
				c-32.704,39.682-58.192,85.611-72.468,135.098c-16.488,57.928-17.003,120.109-5.537,179.036
				C1772.707,1367.199,1777.479,1385.177,1783.406,1402.764z"/>
		</g>
		<g style="opacity:0.8;">
			<defs>
				
					<filter id="Adobe_OpacityMaskFilter_00000176742766726668813530000002943714117689532293_" filterUnits="userSpaceOnUse" x="1779.518" y="932.987" width="191.7" height="288.04">
					<feFlood  style="flood-color:white;flood-opacity:1" result="back"/>
					<feBlend  in="SourceGraphic" in2="back" mode="normal"/>
				</filter>
			</defs>
			
				<mask maskUnits="userSpaceOnUse" x="1779.518" y="932.987" width="191.7" height="288.04" id="SVGID_00000094610536417026395380000017239451250197412027_">
				<g style="filter:url(#Adobe_OpacityMaskFilter_00000176742766726668813530000002943714117689532293_);">
					<defs>
						
							<filter id="Adobe_OpacityMaskFilter_00000013158158216354681710000001662335766312645543_" filterUnits="userSpaceOnUse" x="1779.518" y="932.987" width="191.7" height="288.04">
							<feFlood  style="flood-color:white;flood-opacity:1" result="back"/>
							<feBlend  in="SourceGraphic" in2="back" mode="normal"/>
						</filter>
					</defs>
					
						<mask maskUnits="userSpaceOnUse" x="1779.518" y="932.987" width="191.7" height="288.04" id="SVGID_00000094610536417026395380000017239451250197412027_">
						<g style="filter:url(#Adobe_OpacityMaskFilter_00000013158158216354681710000001662335766312645543_);">
						</g>
					</mask>
					
						<linearGradient id="SVGID_00000063620947973094982330000011167010497141698445_" gradientUnits="userSpaceOnUse" x1="1779.5183" y1="1077.0063" x2="1971.2185" y2="1077.0063">
						<stop  offset="0" style="stop-color:#FFFFFF"/>
						<stop  offset="1" style="stop-color:#000000"/>
					</linearGradient>
					
						<path style="mask:url(#SVGID_00000094610536417026395380000017239451250197412027_);fill:url(#SVGID_00000063620947973094982330000011167010497141698445_);" d="
						M1854.151,1215.247c18-10,28-28,38-46c41.416-75.483,61.412-155.429,79.068-236.26c-5.417,4.098-55.13,35.371-59.783,39.032
						c-1.312,1.032-2.602,2.093-3.901,3.141c-0.877,9.529-1.872,19.059-5.383,28.087c-5.316-3.272-8.959-8.049-11.752-13.511
						c-11.724,10.55-22.856,21.76-33.324,33.557c2.21,9.005,5.003,17.836,6.076,26.954c-6.183-4.416-11.195-9.808-15.984-15.4
						c-29.303,35.555-52.806,76.129-67.648,119.781c2.665,8.335,5.871,16.558,9.633,24.618
						C1801.151,1202.247,1822.151,1234.247,1854.151,1215.247z"/>
				</g>
			</mask>
			
				<linearGradient id="SVGID_00000006698131075986593990000014715927964142955399_" gradientUnits="userSpaceOnUse" x1="1779.5183" y1="1077.0063" x2="1971.2185" y2="1077.0063">
				<stop  offset="0" style="stop-color:#46ACFA"/>
				<stop  offset="1" style="stop-color:#46DAFA"/>
			</linearGradient>
			<path style="fill:url(#SVGID_00000006698131075986593990000014715927964142955399_);" d="M1854.151,1215.247c18-10,28-28,38-46
				c41.416-75.483,61.412-155.429,79.068-236.26c-5.417,4.098-55.13,35.371-59.783,39.032c-1.312,1.032-2.602,2.093-3.901,3.141
				c-0.877,9.529-1.872,19.059-5.383,28.087c-5.316-3.272-8.959-8.049-11.752-13.511c-11.724,10.55-22.856,21.76-33.324,33.557
				c2.21,9.005,5.003,17.836,6.076,26.954c-6.183-4.416-11.195-9.808-15.984-15.4c-29.303,35.555-52.806,76.129-67.648,119.781
				c2.665,8.335,5.871,16.558,9.633,24.618C1801.151,1202.247,1822.151,1234.247,1854.151,1215.247z"/>
		</g>
	</g>
	<g>
		<g>
			<path style="fill:#4E40CC;" d="M1947.269,1402.764c2.097-1.817,4.196-3.662,6.293-5.544c1.164-1.049,2.336-2.105,3.518-3.171
				c1.191-1.057,2.391-2.122,3.599-3.195c2.406-2.146,4.768-4.352,7.192-6.567c2.449-2.205,4.888-4.452,7.315-6.742
				c9.833-9.106,19.677-18.806,29.666-29.052c9.95-10.265,19.84-21.169,29.502-32.848c9.722-11.677,18.753-23.61,27.151-35.643
				c7.769-11.173,15.089-22.386,21.819-33.529c-5.628,2.839-11.401,4.872-17.174,2.773c8.608-7.249,17.834-13.676,27.209-19.934
				c10.631-18.835,19.685-37.066,27.113-53.549c9.329-20.701,16.032-38.639,20.325-51.391c4.299-12.755,6.198-20.326,6.198-20.326
				s-7.652,1.522-20.605,5.229c-4.781,1.369-10.288,3.038-16.396,5.047c-4.914,11.158-9.811,22.324-19.843,30.923
				c0.591-8.276,2.224-16.553,3.052-25.035c-6.077,2.263-12.528,4.809-19.284,7.674c-6.627,2.81-13.549,5.931-20.686,9.401
				c-1.874,12.9-4.63,25.546-11.082,36.961c-3.44-8.846-6.394-17.693-8.749-26.658c-9.722,5.381-19.688,11.402-29.735,18.171
				c-12.344,8.364-24.84,17.76-36.985,28.527c-12.153,10.742-24.016,22.739-35.108,36.066
				c-11.078,13.386-20.816,27.465-29.225,41.776c-8.443,14.281-15.401,28.954-21.194,43.306c-1.424,3.612-2.787,7.194-4.091,10.741
				c-1.284,3.565-2.45,7.145-3.591,10.655c-0.557,1.761-1.11,3.509-1.658,5.243c-0.534,1.741-1.014,3.503-1.503,5.236
				c-0.967,3.474-1.88,6.899-2.741,10.272c-0.839,3.391-1.567,6.773-2.279,10.072c-0.691,3.315-1.397,6.527-1.923,9.771
				c-0.554,3.224-1.063,6.385-1.53,9.478c-0.229,1.55-0.467,3.071-0.661,4.595c-0.177,1.531-0.353,3.043-0.526,4.539
				c-0.25,2.292-0.479,4.522-0.691,6.726H1947.269z"/>
		</g>
		<g>
			<defs>
				
					<filter id="Adobe_OpacityMaskFilter_00000067944535351293810610000017324579805523517112_" filterUnits="userSpaceOnUse" x="1908.618" y="1104.048" width="238.378" height="201.906">
					<feFlood  style="flood-color:white;flood-opacity:1" result="back"/>
					<feBlend  in="SourceGraphic" in2="back" mode="normal"/>
				</filter>
			</defs>
			
				<mask maskUnits="userSpaceOnUse" x="1908.618" y="1104.048" width="238.378" height="201.906" id="SVGID_00000172400619251224284760000007985685796831321768_">
				<g style="filter:url(#Adobe_OpacityMaskFilter_00000067944535351293810610000017324579805523517112_);">
					<defs>
						
							<filter id="Adobe_OpacityMaskFilter_00000124858726394777353290000014718261267416595864_" filterUnits="userSpaceOnUse" x="1908.618" y="1104.048" width="238.378" height="201.906">
							<feFlood  style="flood-color:white;flood-opacity:1" result="back"/>
							<feBlend  in="SourceGraphic" in2="back" mode="normal"/>
						</filter>
					</defs>
					
						<mask maskUnits="userSpaceOnUse" x="1908.618" y="1104.048" width="238.378" height="201.906" id="SVGID_00000172400619251224284760000007985685796831321768_">
						<g style="filter:url(#Adobe_OpacityMaskFilter_00000124858726394777353290000014718261267416595864_);">
						</g>
					</mask>
					
						<linearGradient id="SVGID_00000176750465799585227640000002506220610428359307_" gradientUnits="userSpaceOnUse" x1="2178.843" y1="1535.3087" x2="1988.4287" y2="1096.7305">
						<stop  offset="0" style="stop-color:#FFFFFF"/>
						<stop  offset="1" style="stop-color:#000000"/>
					</linearGradient>
					
						<path style="mask:url(#SVGID_00000172400619251224284760000007985685796831321768_);fill:url(#SVGID_00000176750465799585227640000002506220610428359307_);" d="
						M2126.39,1109.276c-4.781,1.369-10.288,3.038-16.396,5.047c-4.914,11.158-9.811,22.324-19.843,30.923
						c0.591-8.276,2.224-16.553,3.052-25.035c-6.077,2.263-12.528,4.809-19.284,7.674c-6.627,2.81-13.549,5.931-20.686,9.401
						c-1.874,12.9-4.63,25.546-11.082,36.961c-3.44-8.846-6.394-17.693-8.749-26.658c-5.701,3.156-11.488,6.538-17.324,10.156
						c-0.206,5.281-0.673,10.49-1.926,15.502c-2.457-3.51-3.92-7.269-5.011-11.099c-1.821,1.183-3.645,2.381-5.473,3.612
						c-3.786,2.565-7.586,5.241-11.386,8.01c0.729,6.086,1.262,12.204,0.87,18.477c-3.391-3.956-6.126-8.243-8.42-12.837
						c-6.061,4.658-12.098,9.601-18.049,14.878c-12.153,10.742-24.016,22.739-35.108,36.066
						c-8.428,10.184-16.075,20.769-22.956,31.552c1.07,10.554,6.236,55.016,62.601,41.522s121.898-120.844,174.616-195.132
						c0.787-2.759,1.161-4.248,1.161-4.248S2139.344,1105.57,2126.39,1109.276z"/>
				</g>
			</mask>
			
				<linearGradient id="SVGID_00000095322721371335798170000015376338820680523941_" gradientUnits="userSpaceOnUse" x1="2178.843" y1="1535.3087" x2="1988.4287" y2="1096.7305">
				<stop  offset="0" style="stop-color:#46ACFA"/>
				<stop  offset="1" style="stop-color:#46DAFA"/>
			</linearGradient>
			<path style="opacity:0.8;fill:url(#SVGID_00000095322721371335798170000015376338820680523941_);" d="M2126.39,1109.276
				c-4.781,1.369-10.288,3.038-16.396,5.047c-4.914,11.158-9.811,22.324-19.843,30.923c0.591-8.276,2.224-16.553,3.052-25.035
				c-6.077,2.263-12.528,4.809-19.284,7.674c-6.627,2.81-13.549,5.931-20.686,9.401c-1.874,12.9-4.63,25.546-11.082,36.961
				c-3.44-8.846-6.394-17.693-8.749-26.658c-5.701,3.156-11.488,6.538-17.324,10.156c-0.206,5.281-0.673,10.49-1.926,15.502
				c-2.457-3.51-3.92-7.269-5.011-11.099c-1.821,1.183-3.645,2.381-5.473,3.612c-3.786,2.565-7.586,5.241-11.386,8.01
				c0.729,6.086,1.262,12.204,0.87,18.477c-3.391-3.956-6.126-8.243-8.42-12.837c-6.061,4.658-12.098,9.601-18.049,14.878
				c-12.153,10.742-24.016,22.739-35.108,36.066c-8.428,10.184-16.075,20.769-22.956,31.552c1.07,10.554,6.236,55.016,62.601,41.522
				s121.898-120.844,174.616-195.132c0.787-2.759,1.161-4.248,1.161-4.248S2139.344,1105.57,2126.39,1109.276z"/>
		</g>
	</g>
</g>
<g>
	<g style="opacity:0.7;">
		<rect x="262.963" y="1395.365" style="fill:#170757;" width="820.634" height="8.145"/>
		<rect x="203.485" y="1395.365" style="fill:#170757;" width="49.391" height="8.145"/>
	</g>
	<g>
		<g>
			<path style="fill:#270C91;" d="M910.74,1053.183h-73.784c-2.178,0-3.944-1.766-3.944-3.943c0-2.178,1.766-3.943,3.944-3.943
				h70.681c1.767-2.556,5.587-10.985-1.907-30.01c-10.581-26.86-33.616-85.855-33.848-86.448c-0.792-2.029,0.21-4.316,2.239-5.108
				c2.028-0.79,4.315,0.211,5.108,2.239c0.231,0.593,23.261,59.577,33.839,86.427c11.459,29.088,0.072,38.941-1.265,39.97
				L910.74,1053.183z"/>
		</g>
		<g>
			<path style="fill:#270C91;" d="M852.607,1025.368c4.069,0,7.605-3.015,8.151-7.158c4.577-34.73,18.922-71.187,23.944-108.917
				c6.906-51.885,3.992-101.072,4.723-105.142c0.964-4.098-1.341-8.329-5.413-9.686c-4.314-1.439-8.975,0.892-10.413,5.206
				c-0.321,0.963-1.072,3.217-29.164,216.387c-0.594,4.508,2.578,8.644,7.086,9.237
				C851.886,1025.344,852.249,1025.368,852.607,1025.368z"/>
		</g>
	</g>
	<g>
		<g>
			<g>
				<path style="fill:#FFACAD;" d="M705.689,1027.794c-2.474,0-4.581-1.891-4.803-4.401c-0.847-9.577-6.633-14.264-14.11-19.395
					c-2.198-1.509-2.757-4.514-1.248-6.712c1.509-2.198,4.513-2.756,6.712-1.249c8.575,5.886,17.049,12.78,18.263,26.504
					c0.235,2.656-1.728,4.999-4.383,5.234C705.975,1027.788,705.832,1027.794,705.689,1027.794z"/>
			</g>
			<g>
				<path style="fill:#FFACAD;" d="M691.66,1029.59c-0.343,0-0.69-0.036-1.038-0.113c-2.604-0.57-4.253-3.145-3.682-5.748
					c1.58-7.21,1.263-10.954-8.405-16.546c-2.308-1.335-3.096-4.288-1.762-6.596c1.335-2.308,4.289-3.096,6.596-1.762
					c13.977,8.085,15.337,16.313,13.002,26.97C695.876,1028.051,693.878,1029.59,691.66,1029.59z"/>
			</g>
			<g>
				<path style="fill:#FFACAD;" d="M680.971,1026.04c-0.506,0-1.019-0.079-1.525-0.248c-2.529-0.842-3.898-3.575-3.055-6.104
					c2.203-6.618,1.92-7.064-1.327-9.102c-2.258-1.418-2.939-4.397-1.522-6.655c1.417-2.259,4.397-2.938,6.655-1.522
					c10.025,6.294,7.435,14.076,5.354,20.328C684.877,1024.76,682.993,1026.04,680.971,1026.04z"/>
			</g>
			<g>
				<path style="fill:#FFACAD;" d="M674.679,1022.522c-0.591,0-1.19-0.139-1.75-0.432c-1.854-0.968-2.572-3.256-1.604-5.109
					c0.929-1.779,0.416-4.115-5.107-9.739c-1.466-1.492-1.444-3.89,0.048-5.355c1.492-1.465,3.89-1.442,5.356,0.049
					c3.413,3.475,10.515,10.706,6.417,18.552C677.363,1021.781,676.044,1022.522,674.679,1022.522z"/>
			</g>
			<g>
				<path style="fill:#FFACAD;" d="M698.602,1003.41c-10.143-19.331-37.693-11.503-52.265-4.173c-4.235,2.13-6.17,5.578-3.852,11.67
					c1.328,3.489,0.803,9.279,4.944,9.608c2.771,0.22,7.931-0.554,14.866-3.388c6.935-2.834,17.381-6.979,26.729-11.461
					L698.602,1003.41z"/>
			</g>
		</g>
		<g>
			<path style="fill:#270C91;" d="M460.919,1358.544c0,0-6.489,3.392,0.006,0.004c3.073-1.622,21.631-23.674,45.856-55.222
				c12.111-15.787,25.639-33.943,39.325-53.288c3.421-4.839,6.853-9.754,10.273-14.736l2.563-3.75l1.279-1.887l0.639-0.944
				l1.003-1.552c2.845-4.454,5.686-8.946,8.497-13.479c5.588-9.061,11.139-18.295,15.981-27.518
				c2.359-4.597,4.649-9.212,6.368-13.692c0.429-1.119,0.887-2.246,1.291-3.359l0.994-3.271l0.495-1.635l0.384-1.586l0.761-3.168
				c0.624-3.7,1.074-7.313,1.039-10.634c0.01-3.352-0.242-6.511-0.782-9.605c-0.285-1.718-0.664-3.408-1.275-5.277
				c-0.625-1.898-1.578-3.979-2.575-5.781c-2.028-3.639-4.345-6.555-6.871-9.312c-2.557-2.725-5.364-5.234-8.526-7.559
				c-3.169-2.318-6.73-4.423-10.564-6.362c-7.821-3.778-16.978-6.696-26.852-8.835c-9.87-2.148-20.259-3.711-30.738-5.002
				c-2.617-0.338-5.252-0.624-7.887-0.914c-2.713-0.295-5.091-0.585-7.562-0.819c-2.902-0.26-3.821-0.372-5.401-0.539
				c-1.465-0.152-2.929-0.304-4.391-0.456c-5.836-0.593-11.602-1.13-17.303-1.629c-11.4-0.996-22.545-1.843-33.389-2.619
				c-10.746-0.74-21.268-1.464-31.49-2.167c-2.515-0.175-5.012-0.348-7.489-0.52c-1.228-0.088-2.452-0.175-3.671-0.262l-1.813-0.132
				l-0.904-0.066l-0.415-0.032l-0.113-0.027c-0.151-0.035-0.301-0.062-0.451-0.083l-0.22-0.027l-0.036-0.032l-0.132-0.126
				c-0.082-0.083-0.151-0.166-0.209-0.248c-0.228-0.323-0.283-0.639-0.146-1c0.13-0.345,0.421-0.603,0.678-0.706l-0.01,0.004
				l0.053-0.021c0,0-0.366,0.12-1.042,0.111c-0.674-0.007-1.655-0.143-2.856-0.579c-0.308-0.11-0.599-0.233-0.935-0.381
				c-0.173-0.061-0.332-0.185-0.511-0.205l-0.135-0.029c-0.047-0.004-0.095-0.006-0.117-0.128l-0.174-0.541
				c-0.457-1.453-0.977-2.914-1.526-4.388c-1.114-2.941-2.405-5.899-3.903-8.783c-5.971-11.566-15.213-21.853-27.965-27.014
				c-12.723-5.159-27.257-2.72-39.572,7.026c-3.072,2.445-6.002,5.351-8.693,8.752c-1.351,1.694-2.632,3.525-3.854,5.469
				l-0.452,0.739c-0.068,0.093-0.162,0.305-0.255,0.516l-0.274,0.617c-0.345,0.797-0.692,1.6-1.042,2.407
				c-0.678,1.608-1.325,3.263-1.935,4.962c-2.447,6.79-4.318,14.296-5.232,22.109c-0.901,7.806-0.841,15.915,0.592,23.726
				c0.273,1.539,0.605,3.041,0.982,4.521l-0.01,0.004c1.763,7.032,4.367,13.779,7.883,20.117
				c3.495,6.339,8.035,12.259,13.458,17.399c5.433,5.125,11.655,9.42,18.372,12.5c0.831,0.41,1.677,0.784,2.535,1.13
				c0.861,0.346,1.692,0.743,2.579,1.048c1.74,0.654,3.553,1.232,5.374,1.802c3.695,1.089,7.616,1.886,11.676,2.464
				c2.047,0.251,4.112,0.485,6.203,0.656c2.105,0.141,4.199,0.32,6.331,0.407c4.243,0.228,8.527,0.376,12.823,0.493
				c2.019,0.054,4.044,0.108,6.074,0.163l2.69,0.035l1.704,0.004c2.261,0.001,4.534,0.003,6.818,0.005
				c8.978-0.023,18.137-0.047,27.472-0.072c18.48-0.037,37.456-0.003,56.619,0.542c2.382,0.079,4.773,0.158,7.175,0.238l0.449,0.016
				l0.225,0.008c0.07,0.002,0.054-0.002,0.086-0.002l0.245-0.016l0.493-0.032l0.249-0.016c0.076-0.006,0.095-0.016,0.146-0.023
				l0.263-0.049c0.709-0.129,1.48-0.246,2.315-0.344c1.667-0.188,3.6-0.333,5.748-0.204c0.578,0.039,1.203,0.088,1.865,0.196
				c0.64,0.116,1.414,0.26,1.902,0.715c0.234,0.233,0.258,0.5,0.301,0.752c0.033,0.256,0.042,0.518,0.042,0.791
				c-0.001,0.546-0.047,1.134-0.13,1.789c-0.094,1.808-0.391,4.062-1.011,6.956c-0.155,0.723-0.33,1.485-0.527,2.287
				c-0.06,0.22-0.073,0.358-0.185,0.664l-0.96,1.955l-1.932,3.922c-2.61,5.251-5.229,10.52-7.84,15.774
				c-10.533,21.059-21.172,41.974-30.601,60.464c-18.951,37.013-32.906,64.27-32.906,64.27l0.006,0.004
				C419.889,1340.292,456.4,1361.548,460.919,1358.544z"/>
		</g>
		<g>
			<path style="fill:#270C91;" d="M555.768,1364.297c0,0-4.761,4.592,0.007,0.002c2.368-2.349,12.392-28.15,23.027-64.26
				c5.293-18.089,10.766-38.742,15.226-60.727c2.227-11.003,4.212-22.328,5.681-34.016c0.729-5.852,1.331-11.792,1.725-17.902
				l0.131-2.308l0.143-3.265c0.091-2.347,0.02-4.752-0.011-7.115c-0.037-2.377-0.075-4.745-0.112-7.106
				c0.015-1.19-0.106-2.348-0.216-3.506c-0.107-1.16-0.213-2.318-0.319-3.474l-0.505-5.466c-0.028-0.462-0.097-0.907-0.192-1.343
				l-0.251-1.321l-0.503-2.645l-1.01-5.299c-0.376-1.754-0.836-3.479-1.251-5.224l-0.861-2.549c-0.31-0.838-0.52-1.731-0.932-2.514
				l-2.231-4.838c-0.387-0.799-0.713-1.632-1.152-2.405c-0.459-0.765-0.878-1.54-1.38-2.294c-0.95-1.526-2.002-3.012-3.131-4.433
				c-4.497-5.737-10.022-10.429-16.116-14.333c-6.131-3.876-12.939-6.921-20.135-9.335c-7.225-2.358-14.79-4.13-22.48-5.492
				c-1.907-0.341-3.89-0.656-5.756-0.94l-3.846-0.592c-2.416-0.362-4.793-0.69-7.136-0.988c-4.693-0.601-9.273-1.103-13.777-1.546
				c-9.003-0.882-17.711-1.533-26.206-2.131c-8.485-0.596-16.763-1.127-24.666-1.737c-3.947-0.305-7.782-0.634-11.426-1.004
				c-3.644-0.367-7.071-0.794-9.975-1.265c-2.791-0.468-5.238-1.035-4.921-1.249c-0.021-0.035-0.042-0.062-0.066-0.082
				c-0.012-0.01-0.024-0.018-0.037-0.024l-0.02-0.008l-0.005-0.002c0.001-0.008-0.002-0.005-0.025,0.059l-0.104,0.276
				c-0.313,1.117-0.705,2.235-1.193,3.359l-0.382,0.842l-0.203,0.42l-0.114,0.293c-0.157,0.391-0.332,0.785-0.527,1.181
				c-0.352,0.751-0.987,1.734-1.136,2.066c-1.496,2.416-1.957,2.459-0.884,1.573c1.063-0.903,3.847-2.817,8.473-4.688
				c0.834-0.361,1.671-0.68,2.513-0.96c0.062-0.053-0.491-0.384-1.285-1.198c-0.776-0.853-1.922-1.974-3.214-3.434
				c-2.618-2.881-6.042-6.701-10.072-10.574c-8.081-7.806-18.747-15.707-31.927-19.618c-6.587-1.968-13.392-2.089-19.909-0.35
				c-6.518,1.742-12.726,5.328-18.006,10.864c-2.627,2.773-5.028,6.022-7.038,9.806c-2.04,3.755-3.658,8.081-4.778,12.904
				c-1.117,4.819-1.615,10.269-1.358,16.169c0.301,5.934,1.507,12.477,3.93,19.275c0.508,1.357,1.051,2.688,1.608,4.008l-0.01,0.004
				c0.62,1.544,1.459,3.187,2.243,4.777c0.813,1.604,1.582,3.174,2.575,4.802c0.951,1.613,1.932,3.214,2.941,4.8
				c1.086,1.595,2.24,3.181,3.407,4.745c1.135,1.57,2.44,3.097,3.774,4.605l2.016,2.244c0.67,0.748,1.369,1.475,2.115,2.174
				c1.465,1.413,2.965,2.802,4.493,4.159c1.532,1.348,3.169,2.554,4.795,3.792l2.472,1.811c0.832,0.583,1.679,1.094,2.528,1.633
				c1.7,1.062,3.426,2.094,5.171,3.092c1.725,0.896,3.469,1.745,5.232,2.574l2.656,1.218c0.872,0.36,1.731,0.678,2.604,1.01
				c1.74,0.654,3.495,1.282,5.26,1.884c1.739,0.563,3.403,0.975,5.124,1.438c3.4,0.929,6.967,1.643,9.927,2.089
				c5.874,0.88,10.735,1.245,15.344,1.5c4.611,0.251,8.93,0.356,13.153,0.407c8.434,0.098,16.51-0.013,24.53-0.127
				c8.007-0.118,15.933-0.253,23.765-0.283c7.819-0.029,15.562,0.047,22.93,0.373c1.845,0.079,3.644,0.182,5.426,0.294l1.314,0.094
				c0.436,0.034,0.367-0.01,0.47-0.004c0.142-0.005,0.298-0.074,0.449-0.089c0.61-0.101,1.271-0.175,1.977-0.198
				c0.705-0.021,1.46,0.006,2.222,0.156c0.753,0.147,1.546,0.447,2.041,1.021c0.231,0.324,0.482,0.668,0.715,1.217
				c0.4,0.684,0.761,1.464,1.161,2.372c0.187,0.455,0.382,0.942,0.578,1.467c0.05,0.118,0.09,0.283,0.133,0.46
				c0.022,0.11,0.051,0.115,0.075,0.314l0.063,0.831c0.073,1.124,0.201,2.199,0.239,3.387c0.532,9.273,0.64,19.679,0.488,30.393
				c-0.308,21.477-1.646,44.233-3.139,64.727c-1.503,20.517-3.194,38.856-4.494,52.009c-0.67,6.573-1.208,11.857-1.58,15.498
				c-0.386,3.62-0.598,5.606-0.598,5.606l0.007,0.002c-0.388,1.866,9.771,4.834,20.403,6.934
				C543.088,1365.112,554.233,1366.151,555.768,1364.297z"/>
		</g>
		<g>
			<path style="fill:#DB3DBB;" d="M653.425,983.808c0,0,3.211,3.388,0-0.006c-0.794-0.852-5.501-2.411-12.917-4.542
				c-7.407-2.131-17.522-4.827-28.941-8.004c-11.384-3.18-24.193-6.844-36.237-11.004c-2.937-1.072-6.044-2.06-8.725-3.201
				l-4.154-1.623c-1.211-0.561-2.421-1.121-3.629-1.68l-1.806-0.805l-0.11-0.049l-0.025-0.023l-0.05-0.047l-0.099-0.092
				l-0.194-0.181c-0.251-0.247-0.507-0.452-0.722-0.702c-0.223-0.238-0.391-0.533-0.558-0.799c-0.064-0.119-0.207-0.301-0.192-0.371
				l-0.002-0.051l-0.003-0.022c-0.002-0.004,0.001-0.004-0.005-0.013l-0.073-0.078l-0.607-0.657
				c-1.649-1.822-3.439-3.845-5.275-6.019c-1.833-2.153-3.698-4.433-5.557-6.727c-3.728-4.614-7.425-9.446-11.043-14.279
				c-7.233-9.703-14.113-19.575-20.329-29.142c-6.223-9.561-11.836-18.826-16.489-27.345c-4.668-8.512-8.419-16.284-11.048-22.709
				l-0.007,0.003c-0.139-0.342-0.281-0.684-0.443-1.019c-1.665-3.419-4.026-5.928-7.131-7.82c-0.823-0.51-1.562-0.879-2.404-1.263
				c-0.836-0.378-1.733-0.737-2.686-1.079l-0.725-0.253l-0.692-0.199c-0.487-0.128-0.968-0.255-1.442-0.38
				c-0.991-0.25-2.039-0.493-3.137-0.729c-1.13-0.268-2.172-0.39-3.308-0.56c-1.224-0.174-2.402-0.342-3.537-0.503
				c-1.211-0.157-2.528-0.375-3.769-0.482c-1.348-0.132-2.637-0.259-3.875-0.38c-5.327-0.517-11.201-1.141-17.24-0.831
				c-6.039,0.31-11.707,1.644-16.663,4.668c-1.237,0.752-2.429,1.607-3.566,2.566c-1.143,0.971-2.154,1.897-3.147,2.984
				c-0.983,1.07-1.906,2.227-2.761,3.471c-0.853,1.235-1.654,2.612-2.321,3.869c-0.682,1.299-1.293,2.666-1.829,4.092
				c-0.268,0.713-0.517,1.442-0.747,2.184c-0.109,0.37-0.218,0.743-0.328,1.118c-0.094,0.353-0.188,0.708-0.282,1.066
				c-0.357,1.432-0.637,2.908-0.839,4.419c-0.201,1.504-0.331,3.096-0.345,4.53c-0.108,5.972,1.115,12.003,3.692,17.321
				c0.253,0.524,0.524,1.035,0.796,1.544l-0.008,0.004c5.187,9.596,10.953,18.698,17.196,27.733
				c6.246,9.023,12.975,17.95,20.162,26.915c7.192,8.961,14.825,17.961,22.988,27.031c8.18,9.085,16.766,18.221,26.37,27.619
				c1.242,1.215,2.58,2.465,3.925,3.729c1.356,1.266,2.856,2.589,4.333,3.906c0.793,0.679,1.593,1.365,2.401,2.058
				c0.827,0.698,1.597,1.363,2.563,2.134c0.624,0.521,1.25,1.044,1.878,1.57c0.676,0.566,1.304,1.053,1.951,1.552
				c1.301,0.983,2.624,1.952,3.965,2.903c1.384,0.89,2.792,1.759,4.229,2.587c0.74,0.378,1.483,0.757,2.227,1.138l0.14,0.07
				c0.066-0.062-0.012,0.125,0.022,0.116l0.072,0.03l0.29,0.123l0.579,0.243l1.165,0.48c3.115,1.271,6.3,2.458,9.511,3.544
				c0.189,0.061,0.428,0.15,0.575,0.187l0.439,0.111l0.881,0.221l1.766,0.439c1.179,0.287,2.361,0.574,3.548,0.862
				c1.178,0.275,2.39,0.584,3.547,0.821c1.131,0.203,2.264,0.406,3.4,0.609c2.266,0.395,4.555,0.807,6.812,1.161
				c2.206,0.277,4.417,0.555,6.628,0.833l3.308,0.399l3.245,0.291c2.154,0.181,4.305,0.361,6.446,0.541
				c4.252,0.29,8.428,0.494,12.527,0.677c4.074,0.105,8.086,0.261,11.956,0.277c15.497,0.161,29.13-0.38,38.956-0.913
				c4.91-0.263,8.862-0.54,11.602-0.742c2.75-0.214,4.263-0.331,4.263-0.331l0-0.006c1.425,0.055,2.45-9.205,2.78-18.732
				C654.891,994.635,654.69,984.844,653.425,983.808z"/>
		</g>
		<g>
			<g>
				<path style="fill:#FFB4AD;" d="M698.273,1054.099c-0.307,0-0.617-0.029-0.93-0.09c-2.617-0.511-4.324-3.046-3.814-5.662
					c1.841-9.438-2.419-15.545-8.179-22.548c-1.694-2.059-1.398-5.101,0.661-6.794c2.059-1.692,5.101-1.398,6.795,0.661
					c6.608,8.031,12.838,17.005,10.2,30.528C702.555,1052.499,700.536,1054.099,698.273,1054.099z"/>
			</g>
			<g>
				<path style="fill:#FFB4AD;" d="M684.276,1051.931c-0.777,0-1.565-0.188-2.296-0.584c-2.344-1.27-3.214-4.2-1.944-6.544
					c3.517-6.489,4.25-10.175-3.489-18.228c-1.847-1.922-1.786-4.978,0.136-6.825c1.922-1.847,4.978-1.787,6.826,0.136
					c11.188,11.643,10.214,19.926,5.015,29.517C687.65,1051.016,685.99,1051.931,684.276,1051.931z"/>
			</g>
			<g>
				<path style="fill:#FFB4AD;" d="M674.994,1045.558c-0.943,0-1.895-0.275-2.73-0.851c-2.197-1.51-2.753-4.516-1.243-6.712
					c3.952-5.748,3.803-6.255,1.249-9.113c-1.777-1.987-1.605-5.039,0.382-6.816c1.988-1.774,5.04-1.605,6.816,0.383
					c7.889,8.826,3.242,15.585-0.492,21.016C678.04,1044.826,676.53,1045.558,674.994,1045.558z"/>
			</g>
			<g>
				<path style="fill:#FFB4AD;" d="M669.644,1040.392c-0.94,0-1.881-0.348-2.615-1.048c-1.513-1.444-1.568-3.842-0.124-5.354
					c1.386-1.451,1.541-3.839-2.207-10.772c-0.995-1.84-0.309-4.138,1.531-5.133c1.839-0.996,4.138-0.309,5.132,1.531
					c2.316,4.284,7.135,13.2,1.022,19.604C671.64,1039.999,670.642,1040.392,669.644,1040.392z"/>
			</g>
			<g>
				<path style="fill:#FFB4AD;" d="M696.875,1028.513c-4.386-21.385-33.026-21.501-49.059-18.498
					c-4.659,0.873-7.475,3.649-6.936,10.144c0.309,3.72-1.801,9.138,2.087,10.602c2.602,0.98,7.774,1.667,15.223,0.866
					c7.449-0.8,18.634-1.887,28.859-3.602L696.875,1028.513z"/>
			</g>
		</g>
		<path style="fill:#FF3DBB;" d="M415.557,792.529c-19.585,4.83-54.802,30.679-80.131,91.391
			c-25.33,60.712-34.975,147.299-50.102,205.579c0,0,25.962,14.452,75.605,3.424c34.968-7.768,61.777-16.481,61.777-16.481
			s20.835-28.54,49.122-107.778c15.722-44.04,17.776-90.197,12.785-119.831C479.624,819.198,435.142,787.699,415.557,792.529z"/>
		<path style="fill:#270C91;" d="M476.566,1390.461c0,0-11.306-5.003-17.565-10.718s-11.93-20.891-11.93-20.891l-33.236-14.742
			c0,0-7.888,11.954-11.213,19.726l18.597,7.957c1.324-2.618,2.019-3.144,2.019-3.144s3.578,1.293,3.893,5.194
			c0,0,10.086,8.018,22.093,14.396c12.007,6.377,26.109,8.455,26.109,8.455L476.566,1390.461z"/>
		<path style="fill:#270C91;" d="M591.63,1389.241c0,0-12.354,0.493-20.491-1.878c-8.136-2.371-19.917-13.493-19.917-13.493
			l-36.331,1.418c0,0-1.811,14.207-1.37,22.648l20.2-1.055c0.034-2.933,0.427-3.712,0.427-3.712s3.781-0.416,5.784,2.946
			c0,0,12.587,2.751,26.176,3.183c13.589,0.431,27.162-3.92,27.162-3.92L591.63,1389.241z"/>
		<g>
			<path style="fill:#FF3DBB;" d="M662.946,995.216c0,0-95.078-25.646-115.401-30.12c-7.216-1.588-14.523-3.175-21.143-6.457
				c-19.181-9.509-32.325-32.302-44.063-49.387c-9.737-14.172-18.349-29.086-26.236-44.358c-8.955-17.34-16.795-30.84-37.716-34.432
				c-12.326-2.116-25.619-0.346-36.027,6.588c-11.38,7.583-18.005,22.231-16.496,35.764c1.115,9.998,6.189,19.072,11.393,27.682
				c20.658,34.179,45.159,66.149,73.702,94.13c13.522,13.256,26.421,24.648,44.733,30.556c17.636,5.689,36.429,7.224,54.843,7.992
				c29.992,1.25,108.414-0.461,108.414-0.468C662.059,1032.911,662.946,995.216,662.946,995.216z"/>
		</g>
		<g>
			<path style="fill:#FF3DBB;" d="M526.402,958.639c-19.182-9.509-32.325-32.302-44.064-49.387
				c-8.886-12.933-16.827-26.488-24.144-40.365C468.386,905.839,478.13,943.47,501.43,974
				c42.711,18.399,88.877,16.935,134.809,14.053c-29.725-7.94-75.342-20.018-88.694-22.957
				C540.329,963.508,533.021,961.921,526.402,958.639z"/>
		</g>
		<path style="fill:none;stroke:#101B4B;stroke-width:2.8247;stroke-linecap:round;stroke-miterlimit:10;" d="M580.942,1074.281"/>
		<g>
			<path style="fill:#FFB4AD;" d="M467.85,748.3c0,0-32.205,32.295-46.202,48.246c-0.149,0.17-0.277,0.357-0.419,0.533
				c9.318,21.64,28.911,38.352,51.517,47.092c16.459-17.681,25.595-55.462,25.587-55.842C498.153,780.807,467.85,748.3,467.85,748.3
				z"/>
			<path style="fill:#7AC6FF;" d="M467.85,748.3c0,0-5.422,5.439-12.774,12.943c-0.946,12.864,0.076,25.517,1.105,38.313
				c7.491,10.255,18.696,16.734,31.002,21.301c7.269-16.118,11.156-32.279,11.15-32.527C498.154,780.807,467.85,748.3,467.85,748.3z
				"/>
			<g>
				<path style="fill:#FFB4AD;" d="M473.413,716.544c-9.749,18.42-11.792,67.604-11.792,67.604l3.732,5.242l41.384,23.095
					l4.417-2.228l0.787-14.462l5.24-3.194l-3.697-3.975l6.672-0.828l0.067-3.006l0.931-3.865l8.202-0.018l4.093-28.408l5.17-1.307
					l2.98-24.838C520.095,687.034,483.161,698.123,473.413,716.544z"/>
				<path style="fill:#250C8C;" d="M467.023,738.873l0.691,8.633c0.135,1.691,1.379,3.085,3.044,3.412l0,0
					c1.907,0.375,3.789-0.752,4.351-2.612c2.413-7.989,8.875-28.072,13.857-31.634c6.248-4.467,16.969-10.69,25.941-1.069
					c8.973,9.622,24.015,18.534,29.288,19.86c8.424,2.12,20.515-14.238,20.515-14.238s-7.429-5.957-29.891-25.026
					c-19.763-16.778-39.838-18.376-59.26-9.986c-12.678,5.477-24.646,25.614-23.848,44.266c1.376,32.148-8.797,41.537-8.797,41.537
					l20.514-16.011C463.429,756.005,463.909,736.471,467.023,738.873z"/>
				<defs>
					
						<filter id="Adobe_OpacityMaskFilter_00000146500193688465711400000002590096999754247843_" filterUnits="userSpaceOnUse" x="514.495" y="715.186" width="50.215" height="20.467">
						<feFlood  style="flood-color:white;flood-opacity:1" result="back"/>
						<feBlend  in="SourceGraphic" in2="back" mode="normal"/>
					</filter>
				</defs>
				
					<mask maskUnits="userSpaceOnUse" x="514.495" y="715.186" width="50.215" height="20.467" id="SVGID_00000071530619538981475480000008232638820210479024_">
					<g style="filter:url(#Adobe_OpacityMaskFilter_00000146500193688465711400000002590096999754247843_);">
						<defs>
							
								<filter id="Adobe_OpacityMaskFilter_00000074415507434418374140000012681433013274951593_" filterUnits="userSpaceOnUse" x="514.495" y="715.186" width="50.215" height="20.467">
								<feFlood  style="flood-color:white;flood-opacity:1" result="back"/>
								<feBlend  in="SourceGraphic" in2="back" mode="normal"/>
							</filter>
						</defs>
						
							<mask maskUnits="userSpaceOnUse" x="514.495" y="715.186" width="50.215" height="20.467" id="SVGID_00000071530619538981475480000008232638820210479024_">
							<g style="filter:url(#Adobe_OpacityMaskFilter_00000074415507434418374140000012681433013274951593_);">
							</g>
						</mask>
						
							<linearGradient id="SVGID_00000178901276707167784400000001675597706481136025_" gradientUnits="userSpaceOnUse" x1="562.5449" y1="728.6797" x2="525.7949" y2="718.4297">
							<stop  offset="0" style="stop-color:#FFFFFF"/>
							<stop  offset="1" style="stop-color:#000000"/>
						</linearGradient>
						
							<path style="mask:url(#SVGID_00000071530619538981475480000008232638820210479024_);fill:url(#SVGID_00000178901276707167784400000001675597706481136025_);" d="
							M557.64,715.407c-0.194,3.446-1.152,6.283-4.21,7.593c-12.573,5.388-26.757-1.321-38.935-7.815
							c0.138,0.139,0.276,0.271,0.413,0.417c8.973,9.622,24.015,18.534,29.288,19.86c8.424,2.12,20.515-14.238,20.515-14.238
							S562.702,719.614,557.64,715.407z"/>
					</g>
				</mask>
				
					<linearGradient id="SVGID_00000140714652191358298090000004343968757048128669_" gradientUnits="userSpaceOnUse" x1="562.5449" y1="728.6797" x2="525.7949" y2="718.4297">
					<stop  offset="0" style="stop-color:#46ACFA"/>
					<stop  offset="1" style="stop-color:#46DAFA"/>
				</linearGradient>
				<path style="opacity:0.8;fill:url(#SVGID_00000140714652191358298090000004343968757048128669_);" d="M557.64,715.407
					c-0.194,3.446-1.152,6.283-4.21,7.593c-12.573,5.388-26.757-1.321-38.935-7.815c0.138,0.139,0.276,0.271,0.413,0.417
					c8.973,9.622,24.015,18.534,29.288,19.86c8.424,2.12,20.515-14.238,20.515-14.238S562.702,719.614,557.64,715.407z"/>
				<path style="fill:#FFB4AD;" d="M467.023,738.873c-0.809-3.829-5.359-8.967-11.842-4.693c-6.483,4.274-2.604,13.4,2.803,16.707
					c5.407,3.307,5.868,1.829,5.868,1.829S467.833,742.701,467.023,738.873z"/>
				<path style="fill:#1F0A73;" d="M513.483,753.214c0,0,6.664-1.642,12.059,0.326l-1.138,3.651l-2.347-0.732l-0.211-2.077
					C521.846,754.382,515.846,752.519,513.483,753.214z"/>
				<path style="fill:#1F0A73;" d="M512.276,748.824l0.404-1.297c0,0,9.18-3.29,19.872,0.044c0,0,0.722,2.904-1.027,3.467
					C529.776,751.601,523.244,746.226,512.276,748.824z"/>
			</g>
		</g>
		<path style="fill:#7AC6FF;" d="M519.513,777.852c0,0.481,0,2.481,0,2.481l9.586,0.087L519.513,777.852z"/>
	</g>
	<g>
		<polygon style="fill:#170757;" points="685.045,1071.592 576.039,1401.528 608.702,1401.528 717.708,1071.592 		"/>
		<polygon style="fill:#170757;" points="819.487,1071.592 786.087,1071.592 917.952,1401.528 951.351,1401.528 		"/>
		<polygon style="fill:#270C91;" points="620.389,1052.265 738.397,1052.265 738.397,1035.275 620.389,1046.601 		"/>
	</g>
	<g>
		<g>
			<path style="fill:#170757;" d="M488.621,1185.098H272.972c-6.844,0-12.391-5.548-12.391-12.392
				c0-6.844,5.548-12.392,12.391-12.392h215.649c6.844,0,12.391,5.548,12.391,12.392
				C501.013,1179.55,495.465,1185.098,488.621,1185.098z"/>
		</g>
		<g>
			<g>
				<path style="fill:#170757;" d="M292.787,1176.837c-1.565,0-3.062-0.893-3.757-2.41c-0.138-0.3-13.9-30.519-25.217-71.669
					c-10.481-38.113-20.972-93.743-11.429-142.325c0.44-2.238,2.611-3.694,4.849-3.257c2.238,0.439,3.697,2.61,3.257,4.849
					c-17.702,90.122,35.51,207.783,36.05,208.961c0.95,2.074,0.039,4.525-2.035,5.475
					C293.948,1176.717,293.363,1176.837,292.787,1176.837z"/>
			</g>
		</g>
		<g>
			<g>
				<path style="fill:#170757;" d="M272.756,968.664c0,0-30.363-1.652-29.537-18.174c0.826-16.522,11.565-94.174,24.783-97.478
					c13.217-3.304,24.783,23.13,24.783,45.435C292.785,920.751,280.815,963.707,272.756,968.664z"/>
			</g>
		</g>
		<g>
			<rect x="380.464" y="1178.489" style="fill:#170757;" width="24.782" height="63.609"/>
			<rect x="387.073" y="1242.098" style="fill:#170757;" width="11.565" height="125.565"/>
			<rect x="375.37" y="1220.895" style="fill:#99DDFF;" width="34.971" height="4.957"/>
			<rect x="375.37" y="1207.815" style="fill:#99DDFF;" width="34.971" height="4.957"/>
		</g>
		<rect x="284.076" y="1365.184" style="fill:#170757;" width="198.773" height="8.261"/>
		<ellipse style="fill:#170757;" cx="457.429" cy="1384.837" rx="11.014" ry="14.493"/>
		<ellipse style="fill:#170757;" cx="410.547" cy="1384.837" rx="11.014" ry="14.493"/>
		<ellipse style="fill:#170757;" cx="303.707" cy="1384.837" rx="11.014" ry="14.493"/>
	</g>
	<rect x="532.282" y="1052.265" style="fill:#270C91;" width="427.448" height="27.184"/>
	
		<linearGradient id="SVGID_00000149352196080479173890000013836648991792180670_" gradientUnits="userSpaceOnUse" x1="4898.9688" y1="1055.4001" x2="5156.1987" y2="1055.4001" gradientTransform="matrix(-1 0 0 1 5764.8779 0)">
		<stop  offset="0" style="stop-color:#99DDFF"/>
		<stop  offset="1" style="stop-color:#000000"/>
	</linearGradient>
	
		<rect x="550.897" y="1052.395" style="opacity:0.6;fill:url(#SVGID_00000149352196080479173890000013836648991792180670_);" width="281.595" height="6.01"/>
</g>
</svg>
