<?xml version="1.0" encoding="iso-8859-1"?>
<!-- Generator: Adobe Illustrator 26.0.3, SVG Export Plug-In . SVG Version: 6.00 Build 0)  -->
<!DOCTYPE svg PUBLIC "-//W3C//DTD SVG 1.1//EN" "http://www.w3.org/Graphics/SVG/1.1/DTD/svg11.dtd" [
	<!ENTITY ns_extend "http://ns.adobe.com/Extensibility/1.0/">
	<!ENTITY ns_ai "http://ns.adobe.com/AdobeIllustrator/10.0/">
	<!ENTITY ns_graphs "http://ns.adobe.com/Graphs/1.0/">
	<!ENTITY ns_vars "http://ns.adobe.com/Variables/1.0/">
	<!ENTITY ns_imrep "http://ns.adobe.com/ImageReplacement/1.0/">
	<!ENTITY ns_sfw "http://ns.adobe.com/SaveForWeb/1.0/">
	<!ENTITY ns_custom "http://ns.adobe.com/GenericCustomNamespace/1.0/">
	<!ENTITY ns_adobe_xpath "http://ns.adobe.com/XPath/1.0/">
]>
<svg version="1.1" id="Layer" xmlns:x="&ns_extend;" xmlns:i="&ns_ai;" xmlns:graph="&ns_graphs;"
	 xmlns="http://www.w3.org/2000/svg" xmlns:xlink="http://www.w3.org/1999/xlink" x="0px" y="0px" viewBox="0 0 600 600"
	 style="enable-background:new 0 0 600 600;" xml:space="preserve">
<style type="text/css">
	.st0{fill:#A9D0DB;}
	.st1{fill:#A9B93D;}
	.st2{fill:#F0CC97;}
	.st3{fill:#FFEFD1;}
	.st4{fill:#FF6D60;}
	.st5{fill:#FFB63B;}
	.st6{fill:#B87654;}
	.st7{fill:#FFE8E1;}
	.st8{fill:#FEE9E1;}
	.st9{fill:#FFB255;}
	.st10{fill:#557190;}
	.st11{fill:#EEFBFB;}
	.st12{fill:#FFB724;}
	.st13{fill:#AFC1CF;}
	.st14{fill:#90A022;}
	.st15{fill:#DFF1F7;}
	.st16{fill:#FFFFFF;}
	.st17{fill:#F26E55;}
	.st18{fill:#D3533E;}
	.st19{fill:#748CAD;}
	.st20{fill:#C43629;}
	.st21{fill:#EAE1E3;}
	.st22{fill:#425366;}
	.st23{fill:#ACC0D0;}
	.st24{fill:#6787A6;}
	.st25{fill:#FFB44A;}
	.st26{fill:#FED4C3;}
	.st27{fill:#F7D5C3;}
	.st28{fill:#3A5363;}
	.st29{fill:#FFB6AC;}
</style>
<metadata>
	<sfw  xmlns="&ns_sfw;">
		<slices></slices>
		<sliceSourceBounds  bottomLeftOrigin="true" height="600" width="600" x="930" y="-910"></sliceSourceBounds>
	</sfw>
</metadata>
<rect class="st0" width="600" height="600"/>
<rect y="385.4" class="st1" width="600" height="214.6"/>
<path class="st2" d="M542.5,371.2c2.6,7.9,18.5,38.3,25.4,27.4C575,387.4,542.7,371.9,542.5,371.2z"/>
<path class="st2" d="M471,371.2c-2.6,7.9-18.5,38.3-25.4,27.4C438.5,387.4,470.8,371.9,471,371.2z"/>
<path class="st3" d="M483.3,430.9c-1.8,5-4.6,8.9-9,8.9c-11.4,0-22.5-74.2-5.4-110.1c7.9,5.3,12.7,10.3,16.2,17.9
	c16.1-2,27.1-2,43.2,0c3.5-7.6,8.3-12.6,16.2-17.9c17.1,35.9,5.9,110.1-5.4,110.1c-4.3,0-7.1-3.8-9-8.9
	C515,433.4,498.5,433.4,483.3,430.9z"/>
<path class="st4" d="M549.4,419.2c-2.7,12.3-6.5,20.6-10.3,20.6c-4.3,0-7.1-3.8-9-8.9c-15.2,2.4-31.7,2.4-46.9,0
	c-1.8,5-4.6,8.9-9,8.9c-3.8,0-7.5-8.2-10.2-20.4c4.5-2.4,9.7-6.5,13.1-10.4c17.5,2.1,42,2.1,59.4-0.1
	C539.9,412.7,545,416.8,549.4,419.2z"/>
<path class="st5" d="M461.8,405.9c3.8,1.3,9.1,2.4,15.4,3.2c-3.4,3.9-8.6,8.1-13.1,10.4C463.3,415.3,462.5,410.7,461.8,405.9z"/>
<path class="st5" d="M551.7,405.9c-0.6,4.8-1.4,9.3-2.3,13.4c-4.4-2.4-9.5-6.5-12.7-10.2C542.8,408.2,548,407.2,551.7,405.9z"/>
<path class="st6" d="M522.9,370.7c0.8-2,2.9-3.5,5.2-3.5c2.3,0,4.4,1.4,5.2,3.5c0.3,0.8,1.3,1.3,2.2,0.9c0.8-0.3,1.3-1.3,0.9-2.2
	c-1.3-3.3-4.5-5.5-8.3-5.5c-3.7,0-6.9,2.3-8.3,5.5c-0.3,0.8,0.1,1.8,0.9,2.2C521.6,372,522.5,371.6,522.9,370.7L522.9,370.7z"/>
<path class="st6" d="M493.7,369.5c-1.3-3.2-4.5-5.5-8.3-5.5c-3.7,0-6.9,2.3-8.3,5.5c-0.3,0.8,0.1,1.8,0.9,2.2
	c0.8,0.3,1.8-0.1,2.2-0.9c0.8-2,2.9-3.5,5.2-3.5c2.3,0,4.4,1.4,5.2,3.5c0.3,0.8,1.3,1.3,2.2,0.9C493.6,371.3,494,370.3,493.7,369.5
	L493.7,369.5z"/>
<path class="st6" d="M524.9,388.1c-0.2,0.5-0.6,1-1.1,1.5c-0.7,0.6-1.7,1.2-2.9,1.5c-1.2,0.4-2.5,0.5-3.9,0.5c-2.2,0-4.5-0.5-6-1.4
	c-0.8-0.4-1.3-0.9-1.7-1.4c-0.4-0.5-0.5-1-0.5-1.7c0-1-0.8-1.7-1.7-1.7c-1,0-1.7,0.8-1.7,1.7h1.1l-1.1,0v0h1.1l-1.1,0v0
	c0,0.6-0.2,1.1-0.5,1.7c-0.5,0.8-1.6,1.5-3,2c-1.4,0.5-3.1,0.8-4.7,0.8c-1.8,0-3.5-0.3-4.9-1c-0.7-0.3-1.3-0.7-1.7-1.1
	c-0.5-0.4-0.8-0.9-1-1.4c-0.4-0.9-1.4-1.3-2.3-0.9c-0.9,0.4-1.3,1.4-0.9,2.3c0.4,1,1.1,1.9,1.9,2.6c1.2,1.1,2.6,1.8,4.2,2.3
	c1.5,0.5,3.2,0.7,4.8,0.7c2.8,0,5.5-0.6,7.7-1.9c1.1-0.6,2.1-1.4,2.8-2.5c0.7-1,1.2-2.3,1.2-3.7h-1.1l1.1,0v0h-1.1l1.1,0v0
	c0-0.5-0.2-0.9-0.5-1.2c-0.3-0.3-0.8-0.5-1.2-0.5c-0.5,0-0.9,0.2-1.2,0.5c-0.3,0.3-0.5,0.8-0.5,1.2c0,1.4,0.5,2.6,1.2,3.7
	c1.1,1.5,2.7,2.6,4.6,3.3c1.8,0.7,3.9,1,5.9,1c2.2,0,4.4-0.4,6.4-1.3c1-0.4,1.9-1,2.7-1.7c0.8-0.7,1.5-1.6,1.9-2.6
	c0.4-0.9,0-1.9-0.9-2.3C526.3,386.8,525.3,387.2,524.9,388.1z"/>
<path class="st6" d="M513.8,377.2c0.4,0.6-5.7,4.4-6.6,4.4c-0.9,0-7-3.8-6.6-4.4C500.9,375.2,513.4,375.2,513.8,377.2z"/>
<path class="st7" d="M408.1,371.4c2.7,7.8,18.6,38.1,25.5,27.3C440.7,387.5,408.4,372.2,408.1,371.4z"/>
<path class="st7" d="M336.6,371.3c-2.6,7.8-18.5,38.1-25.5,27.2C304,387.4,336.3,372.1,336.6,371.3z"/>
<path class="st8" d="M348.8,430.9c-1.8,5-4.6,8.9-9,8.9c-11.4,0-22.5-74.2-5.4-110.1c7.9,5.3,12.7,10.3,16.2,17.9
	c16.1-2,27.1-2,43.2,0c3.5-7.6,8.3-12.6,16.2-17.9c17.1,35.9,5.9,110.1-5.4,110.1c-4.3,0-7.1-3.8-9-8.9
	C380.5,433.4,364,433.4,348.8,430.9z"/>
<path class="st6" d="M388.4,370.7c0.8-2,2.9-3.5,5.2-3.5c2.3,0,4.4,1.4,5.2,3.5c0.3,0.8,1.3,1.3,2.2,0.9c0.8-0.3,1.3-1.3,0.9-2.2
	c-1.3-3.3-4.5-5.5-8.3-5.5c-3.7,0-6.9,2.3-8.3,5.5c-0.3,0.8,0.1,1.8,0.9,2.2C387.1,372,388,371.6,388.4,370.7L388.4,370.7z"/>
<path class="st6" d="M359.2,369.5c-1.3-3.2-4.5-5.5-8.3-5.5c-3.7,0-6.9,2.3-8.3,5.5c-0.3,0.8,0.1,1.8,0.9,2.2
	c0.8,0.3,1.8-0.1,2.2-0.9c0.8-2,2.9-3.5,5.2-3.5c2.3,0,4.4,1.4,5.2,3.5c0.3,0.8,1.3,1.3,2.2,0.9
	C359.1,371.3,359.5,370.3,359.2,369.5L359.2,369.5z"/>
<path class="st6" d="M390.4,388.1c-0.2,0.5-0.6,1-1.1,1.5c-0.7,0.6-1.7,1.2-2.9,1.5c-1.2,0.4-2.5,0.5-3.9,0.5c-2.2,0-4.5-0.5-6-1.4
	c-0.8-0.4-1.3-0.9-1.7-1.4c-0.4-0.5-0.5-1-0.5-1.7c0-1-0.8-1.7-1.7-1.7c-1,0-1.7,0.8-1.7,1.7h1.1l-1.1,0v0h1.1l-1.1,0v0
	c0,0.6-0.2,1.1-0.5,1.7c-0.5,0.8-1.6,1.5-3,2c-1.4,0.5-3.1,0.8-4.7,0.8c-1.8,0-3.5-0.3-4.9-1c-0.7-0.3-1.3-0.7-1.7-1.1
	c-0.5-0.4-0.8-0.9-1-1.4c-0.4-0.9-1.4-1.3-2.3-0.9c-0.9,0.4-1.3,1.4-0.9,2.3c0.4,1,1.1,1.9,1.9,2.6c1.2,1.1,2.6,1.8,4.2,2.3
	c1.5,0.5,3.2,0.7,4.8,0.7c2.8,0,5.5-0.6,7.7-1.9c1.1-0.6,2.1-1.4,2.8-2.5c0.7-1,1.2-2.3,1.2-3.7h-1.1l1.1,0v0h-1.1l1.1,0v0
	c0-0.5-0.2-0.9-0.5-1.2c-0.3-0.3-0.8-0.5-1.2-0.5c-0.5,0-0.9,0.2-1.2,0.5c-0.3,0.3-0.5,0.8-0.5,1.2c0,1.4,0.5,2.6,1.2,3.7
	c1.1,1.5,2.7,2.6,4.6,3.3c1.8,0.7,3.9,1,5.9,1c2.2,0,4.4-0.4,6.4-1.3c1-0.4,1.9-1,2.7-1.7c0.8-0.7,1.5-1.6,1.9-2.6
	c0.4-0.9,0-1.9-0.9-2.3C391.8,386.8,390.8,387.2,390.4,388.1z"/>
<path class="st6" d="M379.3,377.2c0.4,0.6-5.7,4.4-6.6,4.4c-0.9,0-7-3.8-6.6-4.4C366.4,375.2,378.9,375.2,379.3,377.2z"/>
<path class="st9" d="M425.5,428.4c-27.3,5.9-79.1,5.9-106.4,0l3.1-13.8c2.6,1.7,5.9,4.8,10.4,5.3c3.9,0.4,8.7-3.5,13.4-3.3
	c4.2,0.2,8.5,4.6,13,4.6c4.3,0.1,8.8-4.1,13.2-4.1c4.4,0,8.9,4.2,13.2,4.1c4.6-0.1,8.8-4.5,13-4.6c4.8-0.2,9.5,3.6,13.4,3.3
	c4.6-0.4,7.9-3.6,10.4-5.3L425.5,428.4z"/>
<path class="st4" d="M422.3,414.6c-2.6,1.7-5.9,4.8-10.4,5.3c-3.9,0.4-8.7-3.5-13.4-3.3c-4.2,0.2-8.5,4.6-13,4.6
	c-4.3,0.1-8.8-4.1-13.2-4.1c-4.4,0-8.9,4.2-13.2,4.1c-4.6-0.1-8.8-4.5-13-4.6c-4.8-0.2-9.5,3.6-13.4,3.3c-4.6-0.4-7.9-3.6-10.4-5.3
	l4.1-18.5c23.1,17.3,68.7,17.3,91.9,0L422.3,414.6z"/>
<path class="st4" d="M372.5,342.8l0.2,0.2c0.3,0.6-0.5,1.2-1,1.5c-5.7,2.7-12.9,0-15.3-4.9c-1.1-2.3,0-4.1,2.1-5.2
	C363.2,332.1,369.2,338.9,372.5,342.8z"/>
<path class="st4" d="M372.9,342.8l-0.2,0.2c-0.3,0.6,0.5,1.2,1,1.5c5.7,2.7,12.9,0,15.3-4.9c1.1-2.3,0-4.1-2.1-5.2
	C382.2,332.1,376.3,338.9,372.9,342.8z"/>
<polygon class="st10" points="429,279.4 550.9,279.4 550.9,262.2 543.3,244.8 413.9,262.2 "/>
<polygon class="st10" points="532.5,68.4 532.5,246.9 422.8,246.9 426.5,71.5 "/>
<polygon class="st11" points="522.9,78.3 526.1,238.6 431.2,238.6 434.6,79.6 "/>
<rect x="410.8" y="244.8" class="st4" width="132.4" height="17.2"/>
<rect x="417.1" y="76.5" class="st12" width="123" height="10.4"/>
<rect x="417.1" y="90.7" class="st12" width="123" height="10.4"/>
<rect x="417.1" y="104.8" class="st12" width="123" height="10.4"/>
<rect x="417.1" y="119" class="st12" width="123" height="10.4"/>
<rect x="417.1" y="133.1" class="st12" width="123" height="10.4"/>
<rect x="417.1" y="161.4" class="st12" width="123" height="10.4"/>
<rect x="417.1" y="175.5" class="st12" width="123" height="10.4"/>
<rect x="417.1" y="147.2" class="st12" width="123" height="10.4"/>
<polygon class="st10" points="208.5,80.4 208.5,385 21.8,385 24.8,85.8 "/>
<polygon class="st13" points="192.5,97.4 197.9,370.8 36,370.8 41.8,99.5 "/>
<polygon class="st11" points="186.6,102.8 191.6,365.4 42.3,365.4 47.6,104.8 "/>
<polygon class="st13" points="175.4,181.2 58.3,181.2 58.3,146 175.6,143.2 "/>
<polygon class="st11" points="172.7,177.9 61,177.9 61,149 172.8,146.6 "/>
<path class="st13" d="M178.8,254.1c0,4.8-3.9,8.7-8.7,8.7c-4.8,0-8.7-3.9-8.7-8.7c0-4.8,3.9-8.7,8.7-8.7
	C174.9,245.3,178.8,249.2,178.8,254.1z"/>
<path class="st13" d="M75.6,168.7c-0.5,0.3-1.7,0.6-3.2,0.6c-4.3,0-6.5-3-6.5-6.9c0-4.7,3-7.3,6.8-7.3c1.5,0,2.6,0.3,3.1,0.6
	c0.5,0.3,0,2.7-0.6,2.5c-0.6-0.3-1.4-0.5-2.4-0.5c-2.2,0-4,1.5-4,4.5c0,2.8,1.5,4.5,4,4.5c0.8,0,1.8-0.2,2.3-0.4
	C75.7,166,76.1,168.4,75.6,168.7z"/>
<path class="st13" d="M77.4,155.3c0.2-0.2,2.6-0.2,2.8,0c0.2,0.2-0.4,10.7,0,11.1c0.3,0.4,4.7-0.2,4.9,0c0.2,0.2,0.2,2.4,0,2.6
	c-0.2,0.2-7.2,0.6-7.7,0C76.8,168.4,77.2,155.5,77.4,155.3z"/>
<path class="st13" d="M89.7,165.5c-0.3,0.2-0.7,3.3-0.9,3.5c-0.2,0.2-2.7,0.3-2.9,0c-0.2-0.3,3.5-13.5,3.8-13.7
	c0.3-0.2,3.4-0.2,3.7,0c0.3,0.2,4,13.4,3.8,13.7c-0.2,0.3-2.8,0.2-3,0c-0.2-0.2-0.7-3.3-0.9-3.5C93,165.3,90,165.3,89.7,165.5z
	 M92.9,163.2c0.2-0.2-0.5-2.1-0.8-2.9c-0.2-0.8-0.4-1.8-0.6-2.6c-0.2-0.8,0.1-0.8,0,0c-0.2,0.8-0.4,1.8-0.6,2.6
	c-0.2,0.8-0.9,2.7-0.7,2.9C90.3,163.4,92.7,163.5,92.9,163.2z"/>
<path class="st13" d="M98.9,165.9c0.7,0.4,1.9,0.9,3.1,0.9c1.3,0,1.9-0.6,1.9-1.5c0-0.9-0.6-1.3-2.1-1.9c-2-0.8-3.4-2.1-3.4-4
	c0-2.3,1.8-4.1,4.6-4.1c1.4,0,2.4,0.3,3.1,0.7c0.7,0.4-0.1,2.8-0.6,2.5c-0.5-0.3-1.4-0.7-2.6-0.7c-1.2,0-1.8,0.6-1.8,1.3
	c0,0.9,0.7,1.3,2.3,1.9c2.2,0.9,3.2,2.2,3.2,4.1c0,2.3-1.6,4.2-4.9,4.2c-1.4,0-2.8-0.4-3.5-0.8C97.7,168,98.2,165.4,98.9,165.9z"/>
<path class="st13" d="M108.8,165.9c0.7,0.4,1.9,0.9,3.1,0.9c1.3,0,1.9-0.6,1.9-1.5c0-0.8-0.6-1.3-2-1.9c-2-0.8-3.4-2-3.4-4
	c0-2.3,1.7-4.1,4.6-4.1c1.4,0,2.4,0.3,3.1,0.7c0.7,0.4-0.1,2.8-0.6,2.5c-0.5-0.3-1.4-0.7-2.6-0.7c-1.2,0-1.8,0.6-1.8,1.3
	c0,0.9,0.7,1.3,2.3,1.9c2.1,0.9,3.2,2.1,3.2,4.1c0,2.3-1.6,4.2-4.9,4.2c-1.4,0-2.8-0.4-3.5-0.8C107.5,168,108,165.4,108.8,165.9z"/>
<path class="st13" d="M118.5,155.6c0.9-0.2,2.2-0.3,3.7-0.3c1.8,0,3.1,0.3,3.9,1.1c0.7,0.6,1.1,1.6,1.1,2.8c0,1.7-1.1,2.9-2.1,3.3
	c-1,0.4-0.8-0.3,0,0.1c0.8,0.4,1.3,1.3,1.6,2.5c0.4,1.5,0.8,3.3,1,3.8c0.2,0.5-2.6,0.4-2.8,0c-0.2-0.4-0.5-1.5-0.8-3.2
	c-0.3-1.7-0.8-2.2-2-2.2c-1.1,0-0.8-0.1-0.8,0c-0.1,0.1,0.2,5.1,0,5.4c-0.2,0.2-2.5,0.2-2.7,0C118.3,168.8,117.6,155.8,118.5,155.6z
	 M121.2,161.5c0.1,0.1-0.3,0,1.1,0c1.4,0,2.2-0.8,2.2-2c0-1.3-0.8-1.9-2-1.9c-0.7,0-1,0.1-1.2,0.1
	C121,157.8,121.1,161.4,121.2,161.5z"/>
<path class="st13" d="M140.2,162.1c0,4.4-2.4,7.1-5.9,7.1c-3.6,0-5.7-3-5.7-6.9c0-4.1,2.3-7.1,5.9-7.1
	C138.1,155.3,140.2,158.4,140.2,162.1z M131.4,162.3c0,2.7,1.1,4.5,2.9,4.5c1.8,0,2.9-2,2.9-4.6c0-2.4-1-4.5-2.9-4.5
	C132.5,157.7,131.4,159.7,131.4,162.3z"/>
<path class="st13" d="M153,162.1c0,4.4-2.4,7.1-5.9,7.1c-3.6,0-5.7-3-5.7-6.9c0-4.1,2.3-7.1,5.9-7.1C151,155.3,153,158.4,153,162.1z
	 M144.3,162.3c0,2.7,1.1,4.5,2.9,4.5c1.8,0,2.9-2,2.9-4.6c0-2.4-1-4.5-2.9-4.5C145.3,157.7,144.3,159.7,144.3,162.3z"/>
<path class="st13" d="M164.9,163.9c-0.1-1.6-0.1-3.6-0.1-5.5c0-2,0.3-1.7-0.1,0c-0.4,1.7-0.9,3.6-1.3,5.2c-0.5,1.6-1.3,5.1-1.5,5.3
	c-0.2,0.1-1.9,0.1-2.1,0c-0.2-0.1-0.9-3.6-1.3-5.2c-0.4-1.6-0.8-3.5-1.1-5.3c-0.3-1.8,0-1.8,0,0c-0.1,1.8-0.1,3.9-0.2,5.6
	c-0.1,1.7,0,4.9-0.2,5.1c-0.2,0.2-2.3,0.2-2.5,0c-0.2-0.2,0.5-13.2,0.8-13.5c0.3-0.3,3.3-0.2,3.6,0c0.3,0.2,0.8,2.9,1.2,4.5
	c0.4,1.6,0.7,3.2,1,4.8c0.3,1.6-0.3,1.6,0.1,0c0.3-1.6,0.8-3.3,1.1-4.8c0.4-1.5,1-4.3,1.3-4.5c0.3-0.2,3.3-0.3,3.5,0
	c0.3,0.3,0.8,13.3,0.6,13.5c-0.2,0.2-2.5,0.2-2.6,0C164.9,168.8,164.9,165.5,164.9,163.9z"/>
<path class="st14" d="M443.5,467.7c0,8.4-29.3,15.2-65.4,15.2c-36.1,0-65.4-6.8-65.4-15.2c0-8.4,29.3-15.2,65.4-15.2
	C414.2,452.5,443.5,459.3,443.5,467.7z"/>
<rect x="313" y="435.7" class="st10" width="15.1" height="40.7"/>
<rect x="404.9" y="435.7" class="st10" width="15.1" height="40.7"/>
<rect x="313" y="433.8" class="st10" width="107" height="30.2"/>
<polygon class="st15" points="428.5,437.7 304.1,437.7 312.4,419.1 425.3,419.1 "/>
<rect x="304.1" y="437.7" class="st13" width="124.4" height="9.2"/>
<path class="st14" d="M586.3,467.7c0,8.4-29.3,15.2-65.4,15.2c-36.1,0-65.4-6.8-65.4-15.2c0-8.4,29.3-15.2,65.4-15.2
	C557,452.5,586.3,459.3,586.3,467.7z"/>
<rect x="455.9" y="435.7" class="st10" width="15.1" height="40.7"/>
<rect x="547.7" y="435.7" class="st10" width="15.1" height="40.7"/>
<rect x="455.9" y="433.8" class="st10" width="107" height="30.2"/>
<polygon class="st15" points="571.4,437.7 447,437.7 455.2,419.1 568.2,419.1 "/>
<rect x="447" y="437.7" class="st13" width="124.4" height="9.2"/>
<polygon class="st13" points="543.4,421 484.8,420 476.3,432.4 551.2,432.4 "/>
<path class="st12" d="M544.1,428.5v2.1h-66.8v-2.1c7.3-4.2,26.3-4.2,33.7,0C517.2,424.3,537.8,424.3,544.1,428.5z"/>
<path class="st16" d="M544.1,428.5c-6.3-4.2-26.9-4.2-33.2,0c-7.3-4.2-26.3-4.2-33.7,0l7.4-11.6c6.8-2.9,18.9-2.3,26,2.1
	c6.4-4.2,19.5-4.9,26.3-2L544.1,428.5z"/>
<path class="st17" d="M525.4,425.4c-1.3,0-2.7,0.1-3.9,0.2l-0.9-6.4l2.1,0.8l1.5-0.9L525.4,425.4z"/>
<path class="st18" d="M525.6,428.8h-4l-0.1-3.1c1.3-0.1,2.6-0.2,3.9-0.2L525.6,428.8z"/>
<polygon class="st13" points="397.6,421 339,420 330.5,432.4 405.5,432.4 "/>
<path class="st12" d="M398.3,428.5v2.1h-66.9v-2.1c7.4-4.2,26.3-4.2,33.7,0C371.4,424.3,392,424.3,398.3,428.5z"/>
<path class="st16" d="M398.3,428.5c-6.3-4.2-26.9-4.2-33.2,0c-7.3-4.2-26.3-4.2-33.7,0l7.4-11.6c6.8-2.9,18.9-2.3,26,2.1
	c6.4-4.2,19.5-4.9,26.3-2L398.3,428.5z"/>
<path class="st17" d="M379.7,425.4c-1.3,0-2.7,0.1-3.9,0.2l-0.9-6.4l2.1,0.8l1.5-0.9L379.7,425.4z"/>
<path class="st18" d="M379.8,428.8h-4l-0.1-3.1c1.3-0.1,2.6-0.2,3.9-0.2L379.8,428.8z"/>
<path class="st19" d="M368.5,115.7c0,27.6-22.4,50-50,50c-27.6,0-50-22.4-50-50c0-27.6,22.4-50,50-50
	C346.1,65.6,368.5,88,368.5,115.7z"/>
<path class="st4" d="M368.5,104c0,27.6-22.4,50-50,50c-27.6,0-50-22.4-50-50c0-27.6,22.4-50,50-50C346.1,54,368.5,76.4,368.5,104z"
	/>
<path class="st20" d="M359.7,104c0,22.8-18.4,41.2-41.2,41.2c-22.8,0-41.2-18.4-41.2-41.2c0-22.8,18.4-41.2,41.2-41.2
	C341.2,62.8,359.7,81.2,359.7,104z"/>
<path class="st21" d="M356.8,103.5c0.3,21.2-16.7,38.6-37.8,38.8c-7.7,0.1-14.9-2.1-20.9-5.9c-10.6-6.7-17.7-18.5-17.9-31.9
	c-0.3-21.2,16.7-38.6,37.8-38.8c19-0.2,35,13.4,38.2,31.5C356.6,99.2,356.8,101.3,356.8,103.5z"/>
<path class="st16" d="M356.8,103.5c0.3,21.2-16.7,38.6-37.8,38.8c-7.7,0.1-14.9-2.1-20.9-5.9c-0.4-2.1-0.6-4.2-0.6-6.4
	c-0.3-21.2,16.7-38.6,37.8-38.8c7.7-0.1,14.9,2.1,20.9,5.9C356.6,99.2,356.8,101.3,356.8,103.5z"/>
<rect x="313.5" y="78.9" class="st22" width="6.8" height="26.8"/>
<rect x="313.5" y="102.4" class="st22" width="26.8" height="6.8"/>
<path class="st14" d="M512.7,552.6c0,3.9-105.6,7.1-236,7.1c-130.3,0-235.9-3.2-235.9-7.1c0-3.9,105.6-7.1,235.9-7.1
	C407.1,545.5,512.7,548.7,512.7,552.6z"/>
<path class="st23" d="M280,447.3c0.9,0.2,1.8,0.3,2.6,0.3c8.5,0-6.7,0,1.7,0c6.3,0,15.3-6,15.3-19.3c0-1.5-32.4-1.5-32.4,0
	C267.3,440,274.1,446,280,447.3L280,447.3z"/>
<path class="st23" d="M286.8,448.4c-32.5,0,25.9,0-6.7,0c-24.4,0-58.8,30.1-58.9,97.1c0,7.7,124.5,7.7,124.5,0
	C345.6,478.3,310.9,448.4,286.8,448.4z"/>
<path class="st24" d="M298.9,479v1.2c2.2,0.2,4,0.7,5.6,1.3c1.5,0.7,2.9,1.7,4,3c0.9,1,1.6,2.1,2.1,3.2c0.5,1.1,0.7,2.1,0.7,3
	c0,1-0.4,1.9-1.1,2.6c-0.7,0.7-1.6,1.1-2.7,1.1c-2,0-3.3-1.1-3.8-3.2c-0.7-2.5-2.3-4.2-4.8-5v12.6c2.5,0.7,4.5,1.3,6,1.9
	c1.5,0.6,2.8,1.4,4,2.5c1.2,1.1,2.2,2.4,2.9,4c0.7,1.5,1,3.2,1,5.1c0,2.3-0.5,4.5-1.6,6.5c-1.1,2-2.7,3.6-4.8,4.9
	c-2.1,1.3-4.6,2-7.5,2.3v0.2c0,1.2-0.1,2.1-0.3,2.6c-0.2,0.5-0.7,0.8-1.5,0.8c-0.7,0-1.2-0.2-1.5-0.7c-0.3-0.4-0.4-1.1-0.4-2.1V526
	c-2.4-0.3-4.4-0.8-6.2-1.7c-1.8-0.8-3.2-1.9-4.4-3.2c-1.2-1.3-2.1-2.6-2.6-3.9c-0.6-1.4-0.8-2.7-0.8-4c0-1,0.4-1.8,1.1-2.6
	c0.8-0.8,1.7-1.2,2.8-1.2c0.9,0,1.7,0.2,2.3,0.6c0.6,0.4,1.1,1,1.3,1.8c0.5,1.7,1,2.9,1.4,3.8c0.4,0.9,1,1.7,1.8,2.4
	c0.8,0.7,1.9,1.3,3.3,1.7v-14.1c-2.7-0.7-5-1.6-6.8-2.5c-1.8-0.9-3.3-2.2-4.4-3.9c-1.1-1.7-1.7-3.9-1.7-6.5c0-3.5,1.1-6.3,3.3-8.5
	c2.2-2.2,5.4-3.5,9.6-3.9v-1.2c0-1.7,0.6-2.5,1.9-2.5C298.2,476.5,298.9,477.3,298.9,479z M295,497.7v-11.6c-1.7,0.5-3,1.2-4,2
	c-1,0.8-1.4,2.1-1.4,3.8c0,1.6,0.4,2.8,1.3,3.6C291.8,496.3,293.2,497.1,295,497.7z M298.9,506.7V520c2-0.4,3.6-1.2,4.7-2.5
	c1.1-1.2,1.7-2.7,1.7-4.3c0-1.8-0.5-3.1-1.6-4.1C302.5,508.2,301,507.4,298.9,506.7z"/>
<path class="st24" d="M291.2,444.9c1.3,0,2.3,1.1,2.3,2.5c0,1.4-1,2.5-2.3,2.5h-15.6c-1.3,0-2.3-1.1-2.3-2.5c0-1.4,1-2.5,2.3-2.5
	h11.5H291.2z"/>
<path class="st24" d="M276.4,432c0.2,5.3,2.2,10.3,4.1,15.3L276.4,432z"/>
<path class="st24" d="M280.5,448.8c-0.6,0-1.2-0.4-1.4-1l-0.2-0.5c-1.9-4.9-3.8-9.9-4-15.2c0-0.8,0.6-1.5,1.4-1.6
	c0.8,0,1.5,0.6,1.6,1.4c0.2,4.9,2,9.5,3.8,14.3l0.2,0.5c0.3,0.8-0.1,1.6-0.9,1.9C280.9,448.8,280.7,448.8,280.5,448.8z"/>
<path class="st24" d="M283.3,439.2c0.2,1.9,0.5,3.5,0.5,5.4L283.3,439.2z"/>
<path class="st24" d="M283.8,446.1c-0.8,0-1.5-0.7-1.5-1.5c0-1.6-0.2-2.9-0.4-4.4l-0.1-0.8c-0.1-0.8,0.5-1.5,1.3-1.6
	c0.8-0.1,1.5,0.5,1.6,1.3l0.1,0.8c0.2,1.6,0.4,3.1,0.4,4.8C285.3,445.5,284.6,446.1,283.8,446.1z"/>
<path class="st25" d="M227.8,390.6c0,27.8-22.6,50.4-50.4,50.4s-50.4-22.6-50.4-50.4c0-27.8,22.6-50.4,50.4-50.4
	S227.8,362.8,227.8,390.6z"/>
<path class="st25" d="M229.6,432.7c12.2,0.2,17.9,0.2,27.3,0.2c5.8,0-10.8-75.2-42.8-75.2L229.6,432.7z"/>
<path class="st25" d="M125.3,432.7c-12.2,0.2-17.9,0.2-27.3,0.2c-5.8,0,10.8-75.2,42.8-75.2L125.3,432.7z"/>
<path class="st8" d="M124,448.5c-4.7,10.2-30.4,49.2-38.2,33.5C77.7,465.8,123.5,449.5,124,448.5z"/>
<path class="st8" d="M226.5,448.5c6.4,9.3,38.4,43.2,43.4,26.4C275,457.6,227.1,449.5,226.5,448.5z"/>
<path class="st26" d="M118.8,529.6C76.1,535.3,49.3,512,45.5,495c-1.1-4.7-0.4-9.6,4.4-10.7c17.7-4,35.3,43.3,79.9,35.7
	c0.5-0.1,1.4,0.5,1.6,1.2c0.2,1-4.1,6.6-11.1,8.1C119.8,529.4,119.3,529.5,118.8,529.6z"/>
<path class="st27" d="M233.1,556.8c-6.2,0-9.2-7.7-10.9-15.6c-22.6,2.6-67.5,2.6-90.1,0c-1.7,7.9-4.7,15.6-10.9,15.6
	c-11.7,0-19.1-51.8-14.8-106.5c1-12.5,2.6-25.2,4.9-37.5c5.6-29.5,15.3-56.4,30.4-72.3c4,5.1,7.4,17.7,8.5,27.5
	c14.6-2.7,39.3-2.7,53.8,0c1.2-9.8,4.5-22.4,8.5-27.5c15.4,16.2,25.2,43.8,30.7,73.8c2.1,11.2,3.5,22.9,4.5,34.4
	C252.4,503.9,244.9,556.8,233.1,556.8z"/>
<path class="st28" d="M243.3,542.2l-3.7-0.3l-2.4-20.6l-6.7,20.9c-31.6,3.2-91.6,2.6-121.5-0.9c-3.7-14.9-4.4-39.7-4-65.2
	c0.1-8.4,0.5-17,1.2-25.7c0.3-3.6,0.6-7.3,1-10.9c5.3,20.4,54.5,28.2,70.2,49.5l-0.4,1.3c12.8-24.4,64.5-19.9,69.3-53.9
	c0.5,4.2,0.9,8.3,1.3,12.5c0.5,6.1,0.9,12.3,1.1,18.3C250,496.6,247.7,525.6,243.3,542.2z"/>
<path class="st6" d="M135,398.3c1,1.8,2.4,3.4,4.1,4.6c1.7,1.2,3.8,1.9,6,1.9c0.8,0,1.5-0.7,1.5-1.5c0-0.8-0.7-1.5-1.5-1.5
	c-1.5,0-3-0.5-4.3-1.4c-1.3-0.9-2.4-2.1-3.1-3.6c-0.4-0.7-1.3-1-2.1-0.6C134.9,396.6,134.6,397.5,135,398.3z"/>
<path class="st6" d="M139.8,392.5c0,2.1,0.5,4.1,1.5,6c1,1.8,2.5,3.4,4.4,4.4c0.7,0.4,1.7,0.1,2-0.7c0.4-0.7,0.1-1.7-0.7-2
	c-1.4-0.7-2.4-1.8-3.2-3.2c-0.7-1.4-1.1-3-1.2-4.6c0-0.8-0.7-1.5-1.5-1.5C140.5,391,139.8,391.7,139.8,392.5z"/>
<path class="st6" d="M220.2,396.8c-0.8,1.4-1.9,2.7-3.1,3.6c-1.3,0.9-2.7,1.4-4.3,1.4c-0.8,0-1.5,0.7-1.5,1.5c0,0.8,0.7,1.5,1.5,1.5
	c2.2,0,4.3-0.7,6-1.9c1.7-1.2,3.1-2.8,4.1-4.6c0.4-0.7,0.1-1.7-0.6-2.1C221.5,395.8,220.6,396.1,220.2,396.8z"/>
<path class="st6" d="M215,392.4c0,1.6-0.4,3.2-1.2,4.6c-0.7,1.4-1.8,2.5-3.2,3.2c-0.7,0.4-1,1.3-0.7,2c0.4,0.7,1.3,1,2,0.7
	c2-1,3.5-2.6,4.4-4.4c1-1.8,1.5-3.9,1.5-6c0-0.8-0.7-1.5-1.5-1.5C215.7,390.9,215,391.6,215,392.4z"/>
<path class="st6" d="M199.6,407.3c0.6-1.4,1.5-2.5,2.7-3.3c1.2-0.8,2.6-1.3,4.2-1.3c1.6,0,3,0.5,4.2,1.3c1.2,0.8,2.2,2,2.7,3.3
	c0.5,1.1,1.8,1.7,2.9,1.2c1.1-0.5,1.7-1.8,1.2-2.9c-0.9-2.2-2.4-4-4.3-5.3c-1.9-1.3-4.2-2.1-6.7-2.1c-2.5,0-4.8,0.8-6.7,2.1
	c-1.9,1.3-3.4,3.1-4.3,5.3c-0.5,1.1,0.1,2.4,1.2,2.9C197.8,408.9,199.1,408.4,199.6,407.3z"/>
<path class="st6" d="M144.1,407.3c0.6-1.4,1.5-2.5,2.7-3.3c1.2-0.8,2.6-1.3,4.2-1.3c1.6,0,3,0.5,4.2,1.3c1.2,0.8,2.2,2,2.7,3.3
	c0.5,1.1,1.8,1.7,2.9,1.2c1.1-0.5,1.7-1.8,1.2-2.9c-0.9-2.2-2.4-4-4.3-5.3c-1.9-1.3-4.2-2.1-6.7-2.1c-2.5,0-4.8,0.8-6.7,2.1
	c-1.9,1.3-3.4,3.1-4.3,5.3c-0.5,1.1,0.1,2.4,1.2,2.9C142.3,408.9,143.6,408.4,144.1,407.3z"/>
<path class="st6" d="M187.9,438.7L187.9,438.7c-4.3,0-7.8-3.5-7.8-7.7c0-0.6-0.2-1.1-0.7-1.6c-0.4-0.4-1-0.6-1.6-0.6
	c-0.6,0-1.1,0.2-1.6,0.7c-0.4,0.4-0.6,1-0.6,1.6v0c0,4.3-3.5,7.7-7.7,7.7c-1.2,0-2.2,1-2.2,2.2c0,1.2,1,2.2,2.2,2.2
	c6.7,0,12.1-5.5,12.1-12.2v0c0-1.2-1-2.2-2.2-2.2c-1.2,0-2.2,1-2.2,2.2c0,6.7,5.5,12.1,12.2,12.1h0c1.2,0,2.2-1,2.2-2.2
	C190.1,439.7,189.1,438.7,187.9,438.7z"/>
<path class="st6" d="M185.1,419.9c0.4,0.6-5.9,4.6-6.9,4.6c-1,0-7.3-4-6.9-4.6C171.6,417.8,184.8,417.8,185.1,419.9z"/>
<path class="st29" d="M229.5,420.4c0,2.1-2,3.8-4.4,3.8c-2.4,0-4.4-1.7-4.4-3.8c0-2.1,2-3.8,4.4-3.8
	C227.5,416.6,229.5,418.3,229.5,420.4z"/>
<path class="st29" d="M135.1,420.4c0,2.1-2,3.8-4.4,3.8c-2.4,0-4.4-1.7-4.4-3.8c0-2.1,2-3.8,4.4-3.8
	C133.1,416.6,135.1,418.3,135.1,420.4z"/>
<path class="st25" d="M107.8,438.6c0.1,0.1,0.2,0.3,0.4,0.4c0.4,0.4,1,0.4,1.4,0c0.4-0.4,0.4-1,0-1.4c-0.1-0.1-0.2-0.2-0.3-0.4
	c-0.4-0.4-1-0.4-1.4-0.1C107.4,437.5,107.4,438.2,107.8,438.6z"/>
<path class="st25" d="M242.3,442.5c0.3-0.2,0.5-0.4,0.8-0.7c0.4-0.4,0.5-1,0.1-1.4c-0.4-0.4-1-0.5-1.4-0.1c-0.3,0.2-0.5,0.4-0.8,0.6
	c-0.4,0.4-0.5,1-0.1,1.4C241.2,442.8,241.8,442.8,242.3,442.5z M238.1,445.5c0.3-0.2,0.6-0.4,0.9-0.6c0.5-0.3,0.6-0.9,0.3-1.4
	c-0.3-0.5-0.9-0.6-1.4-0.3c-0.3,0.2-0.5,0.4-0.8,0.6c-0.5,0.3-0.6,0.9-0.3,1.4C237,445.7,237.6,445.8,238.1,445.5z M233.7,448.2
	c0.3-0.2,0.6-0.3,0.9-0.5c0.5-0.3,0.7-0.9,0.4-1.4c-0.3-0.5-0.9-0.7-1.4-0.4c-0.3,0.2-0.6,0.3-0.9,0.5c-0.5,0.3-0.7,0.9-0.4,1.4
	C232.6,448.3,233.2,448.5,233.7,448.2z M229.1,450.5c0.3-0.1,0.6-0.3,0.9-0.4c0.5-0.2,0.7-0.8,0.5-1.3c-0.2-0.5-0.8-0.7-1.3-0.5
	c-0.3,0.1-0.6,0.3-0.9,0.4c-0.5,0.2-0.7,0.8-0.5,1.3S228.6,450.8,229.1,450.5z M224.3,452.5c0.3-0.1,0.6-0.2,1-0.4
	c0.5-0.2,0.8-0.8,0.6-1.3c-0.2-0.5-0.8-0.8-1.3-0.6c-0.3,0.1-0.6,0.2-0.9,0.4c-0.5,0.2-0.8,0.8-0.6,1.3
	C223.2,452.5,223.8,452.7,224.3,452.5z M219.5,454.2c0.3-0.1,0.7-0.2,1-0.3c0.5-0.2,0.8-0.8,0.6-1.3c-0.2-0.5-0.8-0.8-1.3-0.6
	c-0.3,0.1-0.6,0.2-1,0.3c-0.5,0.2-0.8,0.7-0.6,1.3C218.4,454.1,219,454.4,219.5,454.2z M214.6,455.7c0.3-0.1,0.7-0.2,1-0.3
	c0.5-0.2,0.8-0.7,0.7-1.2c-0.2-0.5-0.7-0.8-1.2-0.7c-0.3,0.1-0.6,0.2-1,0.3c-0.5,0.1-0.9,0.7-0.7,1.2
	C213.5,455.5,214.1,455.9,214.6,455.7z M209.6,457c0.3-0.1,0.7-0.2,1-0.2c0.5-0.1,0.9-0.7,0.8-1.2c-0.1-0.5-0.7-0.9-1.2-0.8
	c-0.3,0.1-0.7,0.2-1,0.2c-0.5,0.1-0.9,0.7-0.8,1.2C208.5,456.7,209.1,457.1,209.6,457z M204.6,458c0.3-0.1,0.7-0.1,1-0.2
	c0.5-0.1,0.9-0.6,0.8-1.2c-0.1-0.5-0.6-0.9-1.2-0.8l0,0c-0.3,0.1-0.7,0.1-1,0.2c-0.5,0.1-0.9,0.6-0.8,1.2
	C203.5,457.7,204.1,458.1,204.6,458z M199.6,458.8c0.3,0,0.7-0.1,1-0.2c0.6-0.1,0.9-0.6,0.8-1.2c-0.1-0.6-0.6-0.9-1.2-0.8
	c-0.3,0.1-0.7,0.1-1,0.2c-0.6,0.1-0.9,0.6-0.9,1.1C198.5,458.5,199,458.9,199.6,458.8z M194.5,459.5c0.3,0,0.7-0.1,1-0.1
	c0.6-0.1,1-0.6,0.9-1.1c-0.1-0.6-0.6-1-1.1-0.9c-0.3,0-0.7,0.1-1,0.1c-0.6,0.1-1,0.6-0.9,1.1C193.4,459.2,193.9,459.6,194.5,459.5z
	 M189.4,460c0.3,0,0.7-0.1,1-0.1c0.6,0,1-0.5,0.9-1.1c0-0.6-0.5-1-1.1-0.9c-0.3,0-0.7,0.1-1,0.1c-0.6,0-1,0.5-0.9,1.1
	C188.3,459.6,188.8,460,189.4,460z M184.3,460.3c0.3,0,0.7,0,1,0c0.6,0,1-0.5,1-1.1c0-0.6-0.5-1-1.1-1c-0.3,0-0.7,0-1,0
	c-0.6,0-1,0.5-1,1.1C183.2,459.9,183.7,460.3,184.3,460.3z M179.2,460.4c0.3,0,0.7,0,1,0c0.6,0,1-0.5,1-1c0-0.6-0.5-1-1-1
	c-0.3,0-0.7,0-1,0c-0.6,0-1,0.5-1,1C178.1,460,178.6,460.4,179.2,460.4z M174,460.4c0.3,0,0.7,0,1,0c0.6,0,1-0.4,1-1s-0.4-1-1-1
	c-0.3,0-0.7,0-1,0c-0.6,0-1,0.4-1,1C173,459.9,173.5,460.4,174,460.4z M168.9,460.2c0.3,0,0.7,0,1,0.1c0.6,0,1-0.4,1.1-1
	c0-0.6-0.4-1-1-1.1c-0.3,0-0.7,0-1,0c-0.6,0-1,0.4-1.1,1C168,459.7,168.4,460.2,168.9,460.2z M163.8,459.9c0.3,0,0.7,0.1,1,0.1
	c0.6,0,1-0.4,1.1-0.9c0-0.6-0.4-1-0.9-1.1c-0.3,0-0.7-0.1-1-0.1c-0.6,0-1,0.4-1.1,0.9C162.9,459.3,163.3,459.8,163.8,459.9z
	 M158.8,459.3c0.3,0,0.7,0.1,1,0.1c0.6,0.1,1.1-0.3,1.1-0.9c0.1-0.6-0.3-1.1-0.9-1.1c-0.3,0-0.7-0.1-1-0.1c-0.6-0.1-1.1,0.3-1.1,0.9
	C157.8,458.8,158.2,459.3,158.8,459.3z M153.7,458.6c0.3,0.1,0.7,0.1,1,0.2c0.6,0.1,1.1-0.3,1.1-0.9c0.1-0.6-0.3-1.1-0.9-1.1
	c-0.3,0-0.7-0.1-1-0.2c-0.6-0.1-1.1,0.3-1.2,0.8C152.8,458,153.1,458.6,153.7,458.6z M148.6,457.8c0.3,0.1,0.7,0.1,1,0.2
	c0.5,0.1,1.1-0.3,1.2-0.8c0.1-0.5-0.3-1.1-0.8-1.2c-0.3-0.1-0.7-0.1-1-0.2c-0.5-0.1-1.1,0.3-1.2,0.8
	C147.7,457.1,148.1,457.7,148.6,457.8z M143.6,456.7c0.3,0.1,0.7,0.2,1,0.2c0.5,0.1,1.1-0.2,1.2-0.8c0.1-0.5-0.2-1.1-0.8-1.2
	c-0.3-0.1-0.7-0.2-1-0.2c-0.5-0.1-1.1,0.2-1.2,0.8C142.8,456,143.1,456.6,143.6,456.7z M138.7,455.4c0.3,0.1,0.7,0.2,1,0.3
	c0.5,0.1,1.1-0.2,1.2-0.7c0.1-0.5-0.2-1.1-0.7-1.2c-0.3-0.1-0.6-0.2-1-0.3c-0.5-0.2-1.1,0.2-1.2,0.7
	C137.8,454.7,138.1,455.3,138.7,455.4z M133.8,453.9c0.3,0.1,0.6,0.2,1,0.3c0.5,0.2,1.1-0.1,1.3-0.6c0.2-0.5-0.1-1.1-0.6-1.3
	c-0.3-0.1-0.6-0.2-1-0.3c-0.5-0.2-1.1,0.1-1.3,0.6C133,453.1,133.2,453.7,133.8,453.9z M129,452.1c0.3,0.1,0.6,0.3,1,0.4
	c0.5,0.2,1.1-0.1,1.3-0.6c0.2-0.5-0.1-1.1-0.6-1.3c-0.3-0.1-0.6-0.2-0.9-0.4c-0.5-0.2-1.1,0-1.3,0.6
	C128.2,451.3,128.4,451.9,129,452.1z M124.2,450.1c0.3,0.1,0.6,0.3,0.9,0.4c0.5,0.2,1.1,0,1.3-0.5c0.2-0.5,0-1.1-0.5-1.3
	c-0.3-0.1-0.6-0.3-0.9-0.4c-0.5-0.2-1.1,0-1.3,0.5C123.5,449.2,123.7,449.8,124.2,450.1z M119.7,447.7c0.3,0.2,0.6,0.3,0.9,0.5
	c0.5,0.3,1.1,0.1,1.4-0.4c0.3-0.5,0.1-1.1-0.4-1.4c-0.3-0.2-0.6-0.3-0.9-0.5c-0.5-0.3-1.1-0.1-1.4,0.4
	C119,446.8,119.2,447.4,119.7,447.7z M115.3,444.9c0.3,0.2,0.6,0.4,0.9,0.6c0.5,0.3,1.1,0.2,1.4-0.3c0.3-0.5,0.2-1.1-0.3-1.4
	c-0.3-0.2-0.6-0.4-0.8-0.6c-0.5-0.3-1.1-0.2-1.4,0.3C114.7,444,114.8,444.6,115.3,444.9z M111.2,441.8c0.3,0.2,0.5,0.4,0.8,0.7
	c0.4,0.4,1.1,0.3,1.4-0.1c0.4-0.4,0.3-1.1-0.1-1.4c-0.3-0.2-0.5-0.4-0.8-0.6c-0.4-0.4-1.1-0.3-1.4,0.1
	C110.7,440.8,110.8,441.4,111.2,441.8z"/>
<path class="st25" d="M246.1,438.9c0.1-0.1,0.2-0.2,0.4-0.4c0.4-0.4,0.4-1,0-1.4c-0.4-0.4-1-0.4-1.4,0c-0.1,0.1-0.2,0.2-0.3,0.4
	c-0.4,0.4-0.4,1,0,1.4C245.1,439.4,245.7,439.3,246.1,438.9z"/>
<path class="st4" d="M183.9,459.8c0,2.6-2.1,4.7-4.7,4.7c-2.6,0-4.7-2.1-4.7-4.7c0-2.6,2.1-4.7,4.7-4.7
	C181.8,455.2,183.9,457.2,183.9,459.8z"/>
<path class="st4" d="M189,468.7c0,2.6-2.1,4.7-4.7,4.7c-2.6,0-4.7-2.1-4.7-4.7c0-2.6,2.1-4.7,4.7-4.7C186.9,464,189,466.1,189,468.7
	z"/>
<path class="st4" d="M178.7,468.7c0,2.6-2.1,4.7-4.7,4.7c-2.6,0-4.7-2.1-4.7-4.7c0-2.6,2.1-4.7,4.7-4.7
	C176.7,464,178.7,466.1,178.7,468.7z"/>
<path class="st4" d="M193.7,459.8c0,2.6-2.1,4.7-4.7,4.7c-2.6,0-4.7-2.1-4.7-4.7c0-2.6,2.1-4.7,4.7-4.7
	C191.6,455.2,193.7,457.2,193.7,459.8z"/>
<path class="st4" d="M173.2,459.8c0,2.6-2.1,4.7-4.7,4.7c-2.6,0-4.7-2.1-4.7-4.7c0-2.6,2.1-4.7,4.7-4.7
	C171.1,455.2,173.2,457.2,173.2,459.8z"/>
<path class="st4" d="M250.3,463.7c-0.4,1.1-0.9,2.2-1.5,3.3c-15.4,29.8-72.8,25.6-73.6,39.7c-0.2,3.3,0.7-9.8-5.4-10.4
	c-26.1-2.5-53.6-2.8-64.7-20.3c-3.2-5-5-11.5-5-19.9c0-7.7,3.5-14.7,7.2-16.7c5.3,20.4,54.5,28.2,70.2,49.5l-0.4,1.3
	c12.8-24.4,64.5-19.9,69.3-53.9l0-0.1C254.3,439.8,253.7,454.9,250.3,463.7z"/>
</svg>
