<?xml version="1.0" encoding="iso-8859-1"?>
<!-- Generator: Adobe Illustrator 26.0.3, SVG Export Plug-In . SVG Version: 6.00 Build 0)  -->
<!DOCTYPE svg PUBLIC "-//W3C//DTD SVG 1.1//EN" "http://www.w3.org/Graphics/SVG/1.1/DTD/svg11.dtd" [
	<!ENTITY ns_extend "http://ns.adobe.com/Extensibility/1.0/">
	<!ENTITY ns_ai "http://ns.adobe.com/AdobeIllustrator/10.0/">
	<!ENTITY ns_graphs "http://ns.adobe.com/Graphs/1.0/">
	<!ENTITY ns_vars "http://ns.adobe.com/Variables/1.0/">
	<!ENTITY ns_imrep "http://ns.adobe.com/ImageReplacement/1.0/">
	<!ENTITY ns_sfw "http://ns.adobe.com/SaveForWeb/1.0/">
	<!ENTITY ns_custom "http://ns.adobe.com/GenericCustomNamespace/1.0/">
	<!ENTITY ns_adobe_xpath "http://ns.adobe.com/XPath/1.0/">
]>
<svg version="1.1" id="Layer_1" xmlns:x="&ns_extend;" xmlns:i="&ns_ai;" xmlns:graph="&ns_graphs;"
	 xmlns="http://www.w3.org/2000/svg" xmlns:xlink="http://www.w3.org/1999/xlink" x="0px" y="0px" viewBox="0 0 3000 2000"
	 style="enable-background:new 0 0 3000 2000;" xml:space="preserve">
<style type="text/css">
	.st0{clip-path:url(#SVGID_00000134209169900992008900000008393635088583786666_);fill:#EDDCC3;}
	.st1{clip-path:url(#SVGID_00000134209169900992008900000008393635088583786666_);}
	.st2{opacity:0.11;fill:#32323F;}
	.st3{fill:#EFAEA6;}
	.st4{opacity:0.14;fill:#1F1F3B;}
	.st5{fill:#1F1F3B;}
	.st6{fill:#FFFFFF;}
	.st7{fill:#3B3B4D;}
	.st8{opacity:0.46;fill:#1F1F3B;}
	.st9{opacity:0.62;fill:#1F1F3B;}
	.st10{opacity:0.43;fill:#1F1F3B;}
	.st11{fill:#0069A8;}
	.st12{opacity:0.25;fill:#1F1F3B;}
	.st13{fill:#201B2C;}
	.st14{fill:#EEADA5;}
	.st15{fill:#603A3E;}
	.st16{fill:#775155;}
	.st17{opacity:0.26;fill:#1F1F39;}
	.st18{fill:#F4AD00;}
	.st19{opacity:0.15;clip-path:url(#SVGID_00000134209169900992008900000008393635088583786666_);fill:#32323F;}
	.st20{fill:url(#SVGID_00000080907533857786778840000014744066277518678429_);}
	.st21{fill:#234882;}
	.st22{opacity:0.16;fill:#1F1F39;}
	.st23{opacity:0.2;clip-path:url(#SVGID_00000134209169900992008900000008393635088583786666_);fill:#303049;}
	.st24{opacity:0.15;clip-path:url(#SVGID_00000134209169900992008900000008393635088583786666_);fill:#303049;}
	.st25{fill:#F9B232;}
	.st26{fill:#1F1E39;}
	.st27{opacity:0.35;clip-path:url(#SVGID_00000134209169900992008900000008393635088583786666_);fill:#303049;}
	.st28{opacity:0.43;clip-path:url(#SVGID_00000134209169900992008900000008393635088583786666_);fill:#303049;}
	.st29{clip-path:url(#SVGID_00000134209169900992008900000008393635088583786666_);fill:none;}
</style>
<metadata>
	<sfw  xmlns="&ns_sfw;">
		<slices></slices>
		<sliceSourceBounds  bottomLeftOrigin="true" height="2005.4" width="4202.2" x="-763.4" y="-2005.4"></sliceSourceBounds>
	</sfw>
</metadata>
<g>
	<defs>
		<rect id="SVGID_1_" width="3000" height="2000"/>
	</defs>
	<clipPath id="SVGID_00000034071675347832483210000015181306128383541155_">
		<use xlink:href="#SVGID_1_"  style="overflow:visible;"/>
	</clipPath>
	
		<rect style="clip-path:url(#SVGID_00000034071675347832483210000015181306128383541155_);fill:#EDDCC3;" width="3000" height="2000"/>
	<g style="clip-path:url(#SVGID_00000034071675347832483210000015181306128383541155_);">
		<path class="st2" d="M1956.1,1690.6c0,5.1,86.8,11.1,186.8,11.1c100,0,181-4.2,181-9.3c0-5.1-81.1-9.3-181-9.3
			C2042.9,1683.1,1956.1,1685.5,1956.1,1690.6z"/>
		<path class="st3" d="M2142.4,1086l23.7-4c1.3-10.5-7.6-33.7-8.3-43.2c-0.8-10.5-12.5-21.3-12.5-21.3l-10,20.8l0.3,1.9
			c0,0-0.1,18.3-4.2,26.2c-2.3,4.5-1.9,11.6-7.7,18.3C2119.4,1089.6,2142.4,1086,2142.4,1086z"/>
		<path class="st4" d="M2135.4,1044c0,0-0.3,11.7-2.4,18.4c13.6,8,22.9-7.4,19.7-11.8c-2-2.8-9.6-9.5-9.6-9.5L2135.4,1044z"/>
		<g>
			<path class="st3" d="M2136.7,1000.4c-5,7.3-21.7,17.2-16.5,20.2c5.2,3-10.6,15.4-5.2,18.8c13.1,8.2,33.2,8.6,38.6,3.2
				s14.8-24,14.8-24L2136.7,1000.4z"/>
			<path class="st5" d="M2146.2,1015.7c-4.5-1.9-5.2-1-7.3-4.2c-2.1-3.1,5.3-4.2,0.3-8.4c-5-4.1-10.8-7.9-7.8-14.6
				c4.4-9.6,11.6-3.5,16,0.5c2.8,2.5,7.6-4,13.8,0c4.9,3.2,2.6,5.8,6.9,8.8c2.6,1.8,10.4,0.4,12.7,6.1c4.4,10.6-6.4,14.2-3.6,24.5
				c3.3,11.9-23.5,17.8-24.4,14.7c-1.1-3.6,6.9-9.4,5.5-12.6c-2-4.9-4.3-2-9-0.9c-5,1.2-11.1-2.1-3.9-5.8
				C2152.7,1020.1,2150.2,1017.5,2146.2,1015.7z"/>
		</g>
		<path class="st6" d="M2086.2,1665.3c-1-10.3-0.3-36.3-0.3-36.3l28.4-1l-1.5,39l-18.7,12.4L2086.2,1665.3z"/>
		<path class="st5" d="M2084,1656.8c-2.4-1.8-7.7,4.6-8.8,8.9c-2.5,9.9-34.2,11.1-39.8,12c-2.9,0.5-7.6,15,6.9,14.9
			c12.5-0.1,52.6-0.1,66.3-0.2c2.9,0,5.4-1.9,6.1-4.6c2.5-9.5,2.8-31.9-1.1-32.2C2108.4,1656.8,2093.1,1663.8,2084,1656.8z"/>
		<path class="st6" d="M2195.2,1665.4c-1.1-10.3-0.5-36.3-0.5-36.3l28.4-1.1l-1.3,39.1l-18.7,12.5L2195.2,1665.4z"/>
		<path class="st5" d="M2192.1,1653.8c-3,0.2-2.5,3-3.6,7.4c-2.4,9.9-38.4,16.3-44.1,17.2c-2.9,0.5-7.5,15,7,14.8
			c12.5-0.2,52.6-0.5,66.3-0.8c2.9-0.1,5.3-1.9,6-4.6c2.4-9.6,3.3-35.8-0.6-36C2218.1,1653,2206,1652.9,2192.1,1653.8z"/>
		<path class="st7" d="M2235.8,1326.1c-0.4,4.6-0.8,9.7-1.5,15.2c-2.4,20.7-7.6,90.7-6.3,135.1c1.3,44.2-2.7,147.6-2.7,163.5
			c-13.4,5.9-21.7,4.1-40.9,0c0,0-3.4-85.3-7.2-160.1c-3.1-60.7-4-54.6-15.1-131.8l0,0c-0.1,0.4-2.8,7.9-6.8,19.5
			c-8.5,24.7-22.6,67.9-29.4,99.2c-10.6,48.8-5.1,175.9-9.5,180.3c-13.2,7.8-35.5,8.5-41.4-2.3c0,0-2.5-157.2,2.2-181.9
			c3.2-16.7,30-180.8,36-224.9c0,0,118.1-25.8,121.7,14.6c0.5,5.5,0.6,10.4,0.6,15c-0.1,6.3,0.3,12.1,0.6,18.4
			C2236.6,1296.4,2237.2,1308.3,2235.8,1326.1z"/>
		<path class="st8" d="M2172.5,1325.8C2172.5,1325.8,2172.5,1325.9,2172.5,1325.8c-0.2-0.1-0.3-0.1-0.3-0.2
			C2172.2,1325.7,2172.5,1325.8,2172.5,1325.8z"/>
		<path class="st9" d="M2162.1,1348L2162.1,1348c-0.1,0.4-5.3,15-9.3,26.6l6.9-49.1C2159.7,1325.5,2161,1332.6,2162.1,1348z"/>
		<path class="st10" d="M2236.5,1314c-1-0.2-46.5-9.9-52.7-32.7c0,0,39.6,3.4,52.2,4.8C2236.6,1296.4,2236.9,1308.1,2236.5,1314z"/>
		<path class="st6" d="M2165.6,1058c-10.2-2.8-11.2,14.1-21.5,14.9c-5.4,0.4-4.2-1.9-6.8-4.5c-1.6-1.5-3.1-3.3-5.6-0.7
			c-50.9,52.2,2.1,183.9-4.4,193.1c-5.3,7.5,37.8,23.9,64.8,17.3c37.1-9.1,34.9-49.4,33.8-57c-1.1-7.7-25-138.5-25-138.5
			S2182.1,1072.7,2165.6,1058z"/>
		<path class="st11" d="M2165.4,1165.2c1.6,20.1,9.1,49,14,65.2c8.8,29.1-3.2,45.2,8.6,57.7c14.3,15,35.9,14.7,52.1,4.6
			c8.7-5.4-0.7-40.1-7.3-68.7l0,0c-3-13-5.4-24.8-5.3-32c0-0.4,0-0.8,0-1.1c0-1.8,0.1-3.4,0.1-4.9c0.1-1.9,0.1-3.6,0.2-5.2
			c0.1-2.8,0.2-5.4,0.4-7.8c0.3-5.6,0.5-10.8,0.4-18.6c0-0.7,0-1.3,0-2c-0.1-4.4-0.3-9.5-0.6-16c-1-19.6-6.6-46.4-15.5-55.7
			c-21.2-22.1-46.9-22.7-46.9-22.7C2164.6,1070.1,2162,1122.5,2165.4,1165.2z"/>
		<path class="st12" d="M2209.6,1137.1c0,0,2.7,31.3,18,53.6c0-1.8,0.1-3.4,0.1-4.9c0.1-1.9,0.1-3.6,0.2-5.2
			c0.1-2.8,0.2-5.4,0.4-7.8c0.3-5.6,0.5-10.8,0.4-18.6L2209.6,1137.1z"/>
		<g>
			<path class="st11" d="M2214.9,1079.5c39.4,45.9,72,89.7,74.3,94.8c6,13.6,11.7,99.2,10.7,104.5s-29.1,2-30.6-1.5
				c-1.8-4.2-1.7-65.3-10.5-84.8c-5.5-12.2-69.4-82.3-76.1-90.5c-6.7-8.1-4.7-37.3,9.5-34.3
				C2206.3,1070.6,2214.9,1079.5,2214.9,1079.5z"/>
			<g>
				<path class="st13" d="M2300.5,1323.9l-0.1-6l-0.1-5.7c-0.1-4-1.9-7.4-4.4-8.8l0,0c-0.8-0.5-1.7-0.7-2.6-0.7l-18.9,0.5l-0.2,0
					h-0.3l0,0l-0.1,0l-4.6,0.1c-1.8,0-3.4,1.1-4.6,2.8c-1.1,1.6-1.8,3.7-1.9,6c0,0.3,0,0.6,0,0.9l0.1,5.5l0.1,6l0.1,3.4l4.8-0.1
					l0-0.1l-0.1-3.3l-0.1-6l0-1.1l0-0.1c0-0.2,0-0.4,0-0.5c0.1-3.7,2.2-6.6,4.9-6.7l1.4,0l16.7-0.4c0.7,0,1.4,0.2,2,0.5l0,0
					c1.8,1,3.1,3.6,3.2,6.5l0,1.3l0.1,6l0.1,3.2l4.8-0.1L2300.5,1323.9z"/>
				<path class="st14" d="M2274.4,1277.9c-0.8,5.5-2.3,4-4.3,11.1s-8.3,16.9-4.6,18.1s6.6-3.1,8.4-3.9c1.8-0.8-2.4,3.3-0.2,6.8
					c2.1,3.5,11.4,5.6,15.6,2.9c4.2-2.6,7.2-8.1,7.6-15.2c0.3-7.1-3-16.8-3.7-19.9C2292.5,1274.6,2274.4,1277.9,2274.4,1277.9z"/>
				<path class="st13" d="M2273.8,1303.2L2273.8,1303.2l-0.1,0l-4.6,0.1c-1.8,0-3.4,1.1-4.6,2.8l0,0c-1.1,1.6-1.8,3.7-1.9,6.1
					c0,0.3,0,0.6,0,0.9l0.1,5.5l0.1,6l0.1,3.3l4.8-0.1l-0.1-3.3l-0.1-6l0-1.1l0-0.1c0-0.2,0-0.4,0-0.5c0.1-3.7,2.2-6.7,4.9-6.7
					l0.8-2.8l0,0l0.6-2.2l0,0l0,0l0,0l0.4-1.6H2273.8z"/>
				<path class="st15" d="M2210.4,1340.6l1.2,66.2c0.1,3.9,3.3,7.1,7.2,7l0.2,0l118.1-0.6c13.3-0.2,13.1-9.6,13-13.6l0.7-62.5
					c-0.1-3.9-5-14.2-15.7-13.8l-105,1.9l-3.9,0.1C2217.5,1325.3,2210.2,1331.7,2210.4,1340.6z"/>
				<path class="st16" d="M2210.4,1340.6l1.2,66.2c0.1,3.9,3.3,7.1,7.2,7l0.2,0c1.3-3.9,2.1-10.1,1.2-19.9
					c-2-23.6,4.3-50.5,9.9-68.8l-3.9,0.1C2217.5,1325.3,2210.2,1331.7,2210.4,1340.6z"/>
			</g>
		</g>
		<g>
			<path class="st17" d="M2142.1,1078.3c1.2,0.1,2,1,2.7,1.9c0.9,1,1.5,2,2.1,1.4c0.9-0.8,11.8,11.6,25.6,17
				c4.4,1.7,10.2,3.2,15,2.8c1.8-0.1,14.4-1.5,19.4-2.9c8.3-2.3,19.7-5.3,19.7-5.3s-11.4-13.4-13.6-14.7c-7.4,3.5-13.2,6.1-19,8.1
				c-2.9,1-5.6,1.6-7.8,1.7c-1,0-2,0-3,0c-4.4-0.2-8.7-1.1-12.7-2.4c-7.7-2.4-14.5-6.3-19.8-9.8c-2.9-1.9-3.3-2.9-6.5-2.9
				c0,0-0.1,0-0.1,0C2143,1075.4,2140.7,1078.2,2142.1,1078.3z"/>
			<path class="st18" d="M2395.5,1072.4c0.2,3.5-3.3,9.8-9.1,13.1c-1.3,0.7-5,1.8-10.1,3.1c-17.7,4.5-52.4,11-63.7,11
				c-11.7,0-23.2-4.5-33.6-8.9c-10.7-4.6-20.3-9.1-28-8.8c-14.7,0.6-43.6,12.7-61.5,14.7c-0.6,0.1-1.2,0.1-1.7,0.2
				c-19.7,1.5-38.7-19.2-39.9-18.1c-0.8,0.7-1.6,1.4-2.9,1.7c-0.6,0.1-1.2,0.1-2,0.1c-1.8-0.2-2.4-3.7-2.5-5.6c-0.1-2,0.8-5.3,5-5.7
				c3.1-0.3,3.6,0.9,6.5,2.9c7.1,4.7,16.9,10.1,27.9,11.7c2.5,0.4,5,0.6,7.6,0.5c12.9-0.3,38.4-19.1,58.8-21
				c1.9-0.2,3.7-0.2,5.5-0.1c21.1,1.7,29.8,19.3,60,20c30.2,0.8,60.3-16,69.3-15.6C2389.7,1067.7,2395.3,1068.9,2395.5,1072.4z"/>
		</g>
		<path class="st3" d="M2055,1058.7c3.6-15.2,21-27.5,26.8-35.3c3.3-4.4,22.6-1.4,20.7,2.7c-1.9,4-11.8-4.4-16.4,6.4
			c-1.7,4,10.5,7.9,8.2,13.5s-14.9,3.5-17.4,14.1C2074.2,1070.7,2055,1058.7,2055,1058.7z"/>
		<path class="st11" d="M2140.6,1275.9c-0.2,10.3-1.6,17.9-5.5,21.4c-7,6.3-16.7,7.5-28.4-4.5c-0.7-0.7-1.3-1.4-1.8-2.2
			c-15.7-21.1-4.4-79.3-2.8-93.5c0.7-5.7,2.1-13.5,3.3-21.5c1.5-10,0.5-28.8-8-30c-10.7-1.5-72.6,27.3-88.6,10.7
			c-14.5-15,36.8-104.7,43.3-112.1c2.4-2.8,28.7,10.2,27.6,15.7c-2,9.8-32.8,57.5-30.9,60c3.9,5.2,37.2-30.6,82.8-53.1
			c0,0,0.2,1.7,0.3,5.5c0,3.1-0.1,7.7-0.6,14c-0.3,3.7-0.7,7.9-1.4,12.8c-4,30.8,13.5,52.7,10,89.9c-1.5,16.1-1.2,32.3-0.6,47.1
			C2139.8,1251.4,2140.8,1265.1,2140.6,1275.9z"/>
	</g>
	<path style="opacity:0.15;clip-path:url(#SVGID_00000034071675347832483210000015181306128383541155_);fill:#32323F;" d="
		M1898.5,1690.8c0,9.4-300.7,17-593.4,17s-529.9-7.6-529.9-17c0-9.4,237.3-17,529.9-17S1898.5,1681.5,1898.5,1690.8z"/>
	<g style="clip-path:url(#SVGID_00000034071675347832483210000015181306128383541155_);">
		<g>
			
				<linearGradient id="SVGID_00000057847148443970729950000009268773173979088002_" gradientUnits="userSpaceOnUse" x1="884.5468" y1="906.4574" x2="2103.8384" y2="1506.1404" gradientTransform="matrix(0.7967 0.6044 -0.6044 0.7967 898.5626 -726.1814)">
				<stop  offset="0.1554" style="stop-color:#76B9DC"/>
				<stop  offset="0.4529" style="stop-color:#018DC8"/>
				<stop  offset="1" style="stop-color:#234882"/>
			</linearGradient>
			<path style="fill:url(#SVGID_00000057847148443970729950000009268773173979088002_);" d="M1717.7,1546.3
				c-45.3,37.1-95.6,67.5-149.1,90.5c-111.6,47.9-237.4,63.3-361.9,39.3c-6.1-1.2-12.3-2.5-18.4-3.9l-5.9-1.3
				c-2.8-0.7-5.6-1.3-8.3-2c-3.3-0.8-6.7-1.7-10-2.6c-11-2.9-22-6.2-33-9.8c-7.9-2.6-15.9-5.4-23.8-8.3
				c-321.6-119.5-485.5-477.1-366-798.7c4.5-12,9.3-23.8,14.4-35.4l0,0c7.5-16.9,15.6-33.4,24.5-49.3c8.6-15.6,17.9-30.8,27.7-45.5
				l0,0c4.9-7.4,10-14.6,15.3-21.7c12.3-16.7,25.4-32.7,39.1-48c2.5-2.8,5-5.5,7.6-8.2c5.1-5.4,10.3-10.8,15.6-16
				c7.9-7.9,16-15.5,24.3-22.9c16.6-14.8,33.9-28.6,51.9-41.5l0,0c3-2.1,6-4.3,9-6.4c0.1,0,0.1-0.1,0.2-0.1
				c8.2-5.6,16.5-11.1,24.9-16.3c1.7-1.1,3.5-2.2,5.3-3.2c21.1-12.8,42.9-24.4,65.4-34.6c11.7-5.3,23.6-10.3,35.6-14.9
				c0,0,0.1,0,0.1,0c32.2-12.3,65.3-22,99.2-28.8c1.8-0.4,3.6-0.7,5.5-1.1c8.5-1.6,17-3.1,25.5-4.3c8.6-1.3,17.3-2.4,25.9-3.3
				c92.5-9.9,188.7,1,281.9,35.6c32,11.9,62.5,26.1,91.2,42.5c25.1,14.3,48.9,30.1,71.4,47.4c13.2,10.2,26,20.9,38.3,32.1
				c8.8,8,17.4,16.2,25.6,24.6c0.7,0.7,1.5,1.5,2.2,2.2c2.8,2.9,5.6,5.8,8.3,8.7c1.7,1.8,3.4,3.7,5.1,5.5
				c13.5,14.8,26.2,30.1,38.1,46.1c8.8,11.8,17.2,23.8,25.2,36.2c0.3,0.4,0.6,0.9,0.9,1.3c16.6,25.8,31.2,52.8,43.8,80.7
				c17.5,38.9,31.1,79.6,40.3,121.4c2.6,11.6,4.8,23.4,6.7,35.2c15.3,94.7,8.8,194.1-22.8,290.9c-2.6,8-5.4,16-8.4,24
				C1866.3,1389.3,1800.1,1478.9,1717.7,1546.3z"/>
			<g>
				<path class="st21" d="M1767.2,731.5c57.1-41.3-30.3-123-90.1-109.7c-0.8,0.2-1.6,0-2.3-0.5c-65.9-48.1-123.8-6.6-197.1-34.2
					c-0.3-0.1-0.5-0.2-0.8-0.2c-103.9-7,7.6-32.9-78.8-43.7c-0.6-0.1-1.2,0-1.7,0.3c-37.3,19.6-187,38.3-175.2,88.7
					c0.3,1.1-0.2,2.3-1.2,2.9c-6.6,4.3-30.1,19.7-30.1,19.7c15.6-6.1,19.7-23.9,20.1-41.9c0.2-7.7-10.2-10.4-13.8-3.5
					c-27.9,53.1-42.1-10.7-65.8,21.2c-0.5,0.7-1.4,1.2-2.3,1.1c-111.3-2.9-152.1,67.8-140.8,24.8c0.4-1.5,2-2.4,3.5-1.9
					c18.4,5.5,21-3.3,29.1-17.7c0.6-1.1,0.4-2.5-0.5-3.3c-52.1-50-165.8,57.2-176.1,115.7c-0.1,0.5,0,1.1,0.2,1.6
					c11.2,27.1,11,15.4,23.7-1.7c0.1-0.1,0.2-0.2,0.2-0.4c8.9-17.5,30.6-44,48.4-60.9c2.4-2.3,6,0.7,4.3,3.5
					c-10.1,16-21.7,24.9,8.9,29.6c2.6,0.4,3.2,3.9,0.9,5.2c-11.9,6.6-51,3.7-42.2,23.8c0.3,0.8,0.3,1.7-0.1,2.4
					c-2.7,4.9-12.6,22.7-15.2,27.3c-0.4,0.7-1.1,1.2-1.8,1.3c-52,11.3-70.2,44.3-63.4-2.1c0.5-3.2-3-3.8-5.3-1.6
					c-54.2,51.1-51.8,117.9-69.5,174.4c-0.6,1.8,0.8,3.6,2.6,3.6c24.4-0.1,23.4-46.1,47.5-55.1c1.8-0.7,3.7,0.6,3.8,2.6
					c2.4,85.3,15.7,45.2,14.5-10.5c-0.1-3.1,4.4-4,5.4-1c9.9,28,9.2,100.7,20.5,72.6c0,0,6-17,9.9-28.1c0.9-2.6,4.7-2.4,5.3,0.3
					l5.4,24.6c0.2,0.8,0.6,1.4,1.3,1.8c8,4.3,48,5.7,42.8,20c-5.8,13.9-9.1,50.1-31.8,46c0,0-32.6-11.1-42.3-14.4
					c-1.4-0.5-3,0.3-3.5,1.7c-11.2,32.2-40.3,6.3-36.5-23c0-0.3,0-0.6,0-1c-5.9-28-18.6-15.9-39.4-13.8
					c-63.2,1.3-12.3,332.6,47.6,278.9c1.1-1,2.7-0.9,3.7,0c28.5,26.6,61.6,105,87.9,135c0.1,0.1,0.2,0.2,0.3,0.4
					c33.4,58.3,242.5,253.8,120.4,60.5c-0.6-0.9-0.6-2.1,0-3c8.6-14.1,9.4-32.8,2.4-47.6c-0.1-0.2-0.2-0.3-0.3-0.4
					c-61.1-88.7-25.7-64.4,1.1-158.2c0.1-0.3,0.1-0.7,0.1-1c-2.9-54.1-10.2-5.1-55.6-34.4c-0.2-0.1-0.4-0.2-0.6-0.3
					c-16.8-5.9-93.8-161.8-54.3-141.7c0.6,0.3,1,0.8,1.3,1.4c14.1,33.6,25.3,75.9,54.4,101.1c0.7,0.6,1.1,1.5,1,2.4
					c-8.6,87.1,204.3-87.1,53-75c-0.8,0.1-1.7-0.2-2.2-0.9c-8.5-9.2-21.3-28.9-27.8-40.1c-0.6-1-0.5-2.2,0.3-3.1
					c15.4-18.8,15.9-8.2,28.2,6.7c0.2,0.2,0.3,0.4,0.5,0.5c27.7,20.9,69.6,32.1,104.1,28.4c0.6-0.1,1.2,0,1.7,0.3
					c40.9,22.1,12.6,47.3,55.2,38.6c1.7-0.3,3.3,0.9,3.4,2.6c2.6,51.6,66.3,176.4,69,58.2c0-0.8,0.4-1.6,1-2.1
					c58-49.7,84.2-110.5,131.4-12.2c0.7,1.6,2.7,2.1,4.1,1.1c27.1-18.5,11.6,71.1,40.6,108.7c0.2,0.2,0.4,0.5,0.7,0.6
					c19.4,13.4,23.1,24.1,23-8.2c0-0.5-0.2-1.1-0.4-1.5c-19.7-32.1-41.9-30.4-24.4-70.7c0.7-1.6,2.8-2.2,4.2-1.2
					c34,24.1,14.9,47.4,59.6,13.6c6.9-5.3,9.7-14.4,6.9-22.6c-6.6-19.1-17.7-39.7-15.4-58.6c0.1-1,0.8-1.8,1.7-2.2
					c13.7-6.1,12-0.9,11.7,9.6c-0.1,2,2,3.4,3.9,2.7c8.1-3.3,13.8-6.6,12.8-16.7c-0.2-1.7,1.2-3.3,3-3.1c27,2.6,56.4-28.3,76.2-42.4
					c0.4-0.3,0.8-0.7,1-1.2c2-5,12.9-32.7,15.3-38.9c0.3-0.8,0.2-1.7-0.2-2.4c-44.1-77.5-3.3-40.6-18.3-81.4
					c-3.2-8.7,3-18.2,12.3-18.4c16.8-0.4,32.8,9.2,40.8,23.6c5.1,9.3,19.3,4.5,18-6c-2.6-21.4-8.3-43.6,18.2-45.3
					c5.7-0.4,11-3.3,13.9-8.3c21.5-36.3,33-90.4-4-112.8c-7-4.2-9.5-13.1-6-20.5c5.3-11,12.1-25,14.2-29.3c0.4-0.8,1.2-1.4,2.2-1.5
					l29.1-3.6c9.2-1.2,16.2-9,16.2-18.3v-0.3c0-1.4,1-2.6,2.4-2.8c40.7-5.5,9.9,10,31.4,68.3c5.5,14.9,28.1,7.5,23.7-7.7
					c-3.8-13.1-11.3-26-17.2-40.7C1765.7,733.7,1766.2,732.3,1767.2,731.5z"/>
				<path class="st21" d="M1736.1,897.4c-2.7,0.9-21.6-18.5-19.5-6.8c-8.8,16-6.1,48.7-1.9,67.9c-8.5,4.7-20.4,18.9-28.8,24.1
					c-13.2,2.2-27.5,18.1-36.1,28.2c4.2,34.4,7.7,13.7,23.4,2.4c24.1-14.5,54.9-17.4,50.7-54.5c0.4-11.5,2-21.6-6.3-27.8
					c3.4-4.8,4.2-11.8,0-16.6c0,0,15.1,7.8,15.1,7.8C1727.8,914.1,1765.2,899.7,1736.1,897.4z"/>
				<path class="st21" d="M1709.8,804.9c-22.8-16.2,6.3,85.7,7.3,70.1c15.4,1.3-2.4-24.6-2.9-32.1
					C1737.9,851.9,1708.1,810.7,1709.8,804.9z"/>
				<path class="st21" d="M1469.9,1310.8c12.9,40.8,14.2,10.3,37.5,28.2c6.5,0.5,13.7,0.6,12.2-9.3c3-8.8,13.6-14.6,13.6-24.8
					c15.3-7,2.1-8.1,3.9-23.9c1.6-4.3,26.4-14.1,10.2-17c-14-13-21.9,0.7-32.7,9.2c-6.7,6.7-20.5,13.8-29.3,20.4
					C1469.7,1289.3,1471.4,1296.8,1469.9,1310.8z"/>
				<path class="st21" d="M1472.4,1368.7c3.9-0.6,25.6,7.9,26.3-0.5c-14.4-11.4-33.8-3.2-49.2-12.2c-7.5-7-8.2-19.1-8.3-27.8
					c-9.1-8.8-19.4-25-27.8-34.1c-9.8-6.1-24.5-13.6-31.2-23.4c-9.3-0.1-23.5-20.5-15.6,4.4c7.8,6.8,26.4,22.6,26.3,34.1
					c8.3,4.2,16,21.6,19,29.7C1431.4,1349.4,1447.6,1373.7,1472.4,1368.7z"/>
				<path class="st21" d="M1702.5,1350c-1.8-11.8-22-20.8-32.3-26.2c-1.8-0.9-3.9-0.9-5.7,0c-1.2,0.7-2.7,1.5-4.2,2.3
					c-3.3,1.8-7.3,0-8.6-3.5c-2.4-6.9-13.1-7.7-22.1-8.9c-4.1-0.5-7.5,3.1-6.7,7.1c1,5.3,2.2,11.6,2.9,15.3c0.4,2,1.7,3.6,3.5,4.4
					c10.4,4.6,32.2,12,23.9,21.9c-2.4,2.9-1.6,7.3,1.7,9.1c8.9,5,14.4,4.9,22.6-0.6c3.4-2.3,8-0.6,9.1,3.3c0,0.1,0.1,0.2,0.1,0.4
					c2.1,7.1,12.7,5,11.8-2.3c-0.9-7-0.6-13.8,2.5-17.9C1702.1,1353.1,1702.7,1351.5,1702.5,1350z"/>
				<path class="st21" d="M1619.8,1432.1c-9.5,1.2-0.1-20.5,3.7-31.9c1.1-3.3-0.9-6.9-4.4-7.6c-2.1-0.4-4.4-0.9-6.1-1.3
					c-1.7-0.4-3.6,0.1-4.9,1.2c-6.2,5.1-23.7,19.6-28.5,23.2c-3.6,2.7-8,0.1-10.9-2.2c-2-1.6-4.7-1.8-6.9-0.5l-25.7,15.9
					c-0.7,0.4-1.3,1.1-1.8,1.8c-11.8,17.3-47.4,32.8-67.8,39.5c-1.9,0.6-3.4,2.2-3.9,4.1c-4.3,17.4-25.6,73.6-5.5,65.6
					c1.2-0.5,2.4-0.6,3.6-0.3c12,2.4,41-6.9,49.8-14.6c0.9-0.8,2.1-1.3,3.4-1.3c11.2-0.7,20.5-7.7,18.2,10.3
					c-9.6,83.7,95.2-13.4,114.6-38.7c8.2-10.7,1.2-31.1,0.2-39c-0.1-1.2,0.1-2.5,0.7-3.5c6.1-10.8,12.3-27.9,14.4-43.2
					c0.8-6.2-7.3-9.3-10.7-4c-8.8,13.5-20.5,30.5-28.7,26.9C1621.7,1432.1,1620.8,1432,1619.8,1432.1z"/>
				<path class="st21" d="M1233.7,1259.4c15.4,0.2,12.8-9.7,12.6-21.2C1224.1,1224.2,1237,1248.7,1233.7,1259.4z"/>
				<path class="st21" d="M1498.7,1149.1c-6.6-14.2-11,2.5-17.1,6.9C1487,1154.7,1502.9,1160.4,1498.7,1149.1z"/>
				<path class="st21" d="M1060.4,1426.7l-4.6-7.7c-3.2-5.4-11.2-4.8-13.5,1c-1.2,3-2.8,5.8-4.8,8.1c-3.2,3.5-3.8,8.5-1.2,12.5
					c17.3,26.9-11.3,17.3,31.6,48.2C1087.3,1494.6,1052.7,1449.9,1060.4,1426.7z"/>
			</g>
		</g>
		<path class="st22" d="M1718.6,1545.5c-93.8,77.2-210.2,127.2-336.5,139c-6.2,0.6-12.5,1.1-18.7,1.4l-6,0.4
			c-2.8,0.1-5.7,0.3-8.6,0.4c-3.4,0.1-6.9,0.3-10.3,0.3c-11.4,0.2-22.9,0.2-34.4-0.2c-8.3-0.3-16.7-0.7-25.1-1.3
			c-342.2-24.8-599.6-322.2-574.8-664.4c0.9-12.8,2.2-25.5,3.9-38l0,0c2.4-18.3,5.7-36.4,9.7-54.2
			C713.6,1311.9,1066.7,1610.3,1718.6,1545.5z"/>
	</g>
	<path style="opacity:0.2;clip-path:url(#SVGID_00000034071675347832483210000015181306128383541155_);fill:#303049;" d="
		M706.7,1150.5c6.7,4,173.7,68.2,173.4,66.5c-0.3-1.7-7.6-22.6-7.6-22.6l-166.9-55.9L706.7,1150.5z"/>
	<path style="opacity:0.15;clip-path:url(#SVGID_00000034071675347832483210000015181306128383541155_);fill:#303049;" d="
		M881.2,1220.4c0,0,302.8,102,472.4,143.2c140.1,34.1,318.6,71.2,318.6,71.2l19.3-18.8l-819.4-221.3L881.2,1220.4z"/>
	<path style="opacity:0.15;clip-path:url(#SVGID_00000034071675347832483210000015181306128383541155_);fill:#303049;" d="
		M1674.6,1432.4c0,0,139.2,28.8,140.6,27.7s13.7-16.8,13.7-16.8s-139.2-26.9-140.1-25.4C1687.9,1419.4,1674.6,1432.1,1674.6,1432.4z
		"/>
	<g style="clip-path:url(#SVGID_00000034071675347832483210000015181306128383541155_);">
		<path class="st25" d="M3064.9,1524.5c-19.4,1.5-39.8,3.1-61,4.7c-1.2,0.1-2.5,0.2-3.7,0.3c-13.4,1-26.8,1.9-40.3,2.6
			c-20.6,1.2-41.4,2.2-62.2,2.9c-17.3,0.6-34.7,1.1-52.1,1.4c-21.2,0.4-42.6,0.5-64,0.4c-20.2,0-40.5-0.3-61-0.7
			c-22-0.4-44.2-1.1-66.4-1.9c-19.1-0.7-38.3-1.5-57.6-2.5c-22.5-1.1-45.2-2.4-67.9-3.8c-18.1-1.1-36.3-2.4-54.5-3.7
			c-22.8-1.6-45.8-3.4-68.9-5.3c-20-1.6-40.1-3.4-60.4-5.2c-23.1-2.1-46.2-4.2-69.6-6.5c-19-1.8-38-3.7-57.2-5.7
			c-23.3-2.4-46.8-4.8-70.4-7.3c-19-2-38.1-4.1-57.3-6.2c-23.4-2.5-46.8-5.1-70.5-7.8c-19.2-2.2-38.5-4.3-57.9-6.5
			c-3.2-0.4-6.5-0.7-9.7-1.1c-19.1-2.1-38-4.4-56.9-6.8c-17.7-2.2-35.4-4.6-53-7.1c-23-3.2-46-6.7-68.8-10.3
			c-18.2-2.9-36.3-5.9-54.4-9c-23.7-4.1-47.4-8.4-71-13c-18.5-3.6-37-7.2-55.5-11.1c-22.6-4.7-45.2-9.5-67.8-14.6
			c-17.7-4-35.5-8.1-53.2-12.3c-22.9-5.5-45.8-11.1-68.7-17c-17-4.3-34-8.8-51-13.4c-23.6-6.3-47.2-12.9-70.9-19.7
			c-14.9-4.3-29.9-8.6-44.9-13.1c-23.1-6.9-46.4-13.9-69.7-21.2c-17.1-5.4-34.4-10.8-51.6-16.4c-23.5-7.6-47.1-15.4-70.9-23.4
			c-17.7-6-35.5-12.1-53.4-18.3c-20.5-7.1-41.2-14.4-61.9-21.9c-16.5-5.9-33.2-12-49.9-18.1l0,0c-20.8-7.6-41.7-15.4-62.8-23.3
			c-11.4-4.3-22.9-8.7-34.5-13.1l0,0c-21.1-8.1-42.3-16.2-63.8-24.6l0,0c-2.3-0.9-4.5-1.8-6.8-2.7c-8.2-3.2-14.1-27.7-16.1-50.3
			c-1.9-21.8,0.1-41.6,7.4-38.6c9.9,4.2,19.7,8.3,29.4,12.4c14.3,6.1,28.4,12.1,42.3,18c19.6,8.3,38.9,16.6,58,24.7l0,0
			c19.4,8.3,38.7,16.4,58,24.4c19.3,8,38.5,16,57.9,23.8l0,0c15.2,6.1,30.4,12.2,45.8,18.2c21.6,8.4,43.5,16.8,65.9,25
			c19.7,7.2,39.7,14.4,60.2,21.4c20.9,7.2,42.3,14.3,64.4,21.4c16,5.1,32.3,10.2,49,15.2c21,6.3,42.7,12.6,65.1,18.9
			c18.7,5.2,38,10.4,57.8,15.5c20.2,5.2,41,10.5,62.5,15.7c19.2,4.7,39,9.3,59.4,13.9c20.1,4.5,40.7,9.1,62,13.6
			c17.7,3.8,35.9,7.5,54.4,11.3c21,4.2,42.7,8.5,64.9,12.7c20.2,3.8,40.8,7.6,62,11.4c20.7,3.7,41.9,7.4,63.6,11.1
			c19.8,3.4,40.1,6.7,60.9,10.1c20.4,3.3,41.3,6.6,62.6,9.9c13.1,2,26.3,4,39.7,6.1c6.7,1,13.4,2,20.1,3c21.5,3.1,43.5,6.2,65.8,9.1
			c21.2,2.8,42.6,5.5,64.4,8.1c21.5,2.6,43.2,5,65.1,7.4c21,2.3,42.1,4.5,63.3,6.6c21.2,2.1,42.5,4.1,63.8,6c22,2,44,3.8,66,5.5
			c21.1,1.7,42.1,3.2,63.1,4.7c20.1,1.4,40.1,2.7,59.9,3.9c21,1.2,41.8,2.4,62.4,3.4c21.3,1,42.3,2,63.1,2.8
			c20.8,0.8,41.2,1.4,61.3,2c22.8,0.6,45,1,66.8,1.2c20.3,0.2,40,0.3,59.2,0.1c19.9-0.1,39.1-0.4,57.6-0.9
			c20.1-0.5,39.3-1.3,57.6-2.3c17.1-0.9,33.4-2,48.7-3.4c18.3-1.6,35.2-3.5,50.7-5.6c0.8-0.1,2.2-0.2,4.1-0.3
			C3083.3,1455.1,3901.5,1459.2,3064.9,1524.5z"/>
		<path class="st26" d="M3064.9,1524.5c-19.4,1.5-39.8,3.1-61,4.7c-15.7-20.4-33.2-43.5-48.5-63.9c18.3-1.6,35.2-3.5,50.7-5.6
			c0.8-0.1,2.2-0.2,4.1-0.3L3064.9,1524.5z"/>
		<path class="st26" d="M2959.9,1532.1c-20.6,1.2-41.4,2.2-62.2,2.9c-16-20.8-33.5-44-48.5-64.1c20.1-0.5,39.3-1.3,57.6-2.3
			L2959.9,1532.1z"/>
		<path class="st26" d="M2845.6,1536.3c-21.2,0.4-42.6,0.5-64,0.4c-16.4-21.4-34.3-45-49.2-65.1c20.3,0.2,40,0.3,59.2,0.1
			L2845.6,1536.3z"/>
		<path class="st26" d="M2720.5,1536.1c-22-0.4-44.2-1.1-66.4-1.9c-16.2-21-34.3-44.9-49.8-65.7c20.8,0.8,41.2,1.4,61.3,2
			L2720.5,1536.1z"/>
		<path class="st26" d="M2596.5,1531.8c-22.5-1.1-45.2-2.4-67.9-3.8c-16.3-21.1-34.3-44.9-49.7-65.6c21,1.2,41.8,2.4,62.4,3.4
			L2596.5,1531.8z"/>
		<path class="st26" d="M2474,1524.3c-22.8-1.6-45.8-3.4-68.9-5.3c-16.4-21.4-34.2-45-49.2-65.1c21.1,1.7,42.1,3.2,63.1,4.7
			L2474,1524.3z"/>
		<path class="st26" d="M2344.7,1513.8c-23.1-2.1-46.2-4.2-69.6-6.5c-16.6-21.7-34.4-45.3-49-64.9c21.2,2.1,42.5,4.1,63.8,6
			L2344.7,1513.8z"/>
		<path class="st26" d="M2217.9,1501.6c-23.3-2.4-46.8-4.8-70.4-7.3c-16.8-21.9-34.9-45.9-49.8-65.9c21.5,2.6,43.2,5,65.1,7.4
			L2217.9,1501.6z"/>
		<path class="st26" d="M2090.1,1488.1c-23.4-2.5-46.8-5.1-70.5-7.8c-18-23.5-37.2-49-52.1-69.2c21.5,3.1,43.5,6.2,65.8,9.1
			L2090.1,1488.1z"/>
		<path class="st26" d="M1961.8,1473.8c-3.2-0.4-6.5-0.7-9.7-1.1c-19.1-2.1-38-4.4-56.9-6.8c-17.2-24.9-35.6-52.1-49.9-73.7
			c20.4,3.3,41.3,6.6,62.6,9.9L1961.8,1473.8z"/>
		<path class="st26" d="M1842.1,1458.8c-23-3.2-46-6.7-68.8-10.3c-17.8-25.8-37.4-54.7-52.6-77.5c20.7,3.7,41.9,7.4,63.6,11.1
			L1842.1,1458.8z"/>
		<path class="st26" d="M1718.8,1439.5c-23.7-4.1-47.4-8.4-71-13c-18.1-26.1-38.3-55.9-54.1-79.6c21,4.2,42.7,8.5,64.9,12.7
			L1718.8,1439.5z"/>
		<path class="st26" d="M1235.7,1325.3c-23.1-6.9-46.4-13.9-69.7-21.2c-16.1-27.9-33.5-58.6-46.8-82.5c20.9,7.2,42.3,14.3,64.4,21.4
			L1235.7,1325.3z"/>
		<path class="st26" d="M1114.3,1287.6c-23.5-7.6-47.1-15.4-70.9-23.4c-17.9-31.1-37.2-65.2-50.4-89.1c21.6,8.4,43.5,16.8,65.9,25
			L1114.3,1287.6z"/>
		<path class="st26" d="M990.1,1245.9c-20.5-7.1-41.2-14.4-61.9-21.9c-13.3-30.7-27.8-64.7-38.8-91c19.3,8,38.5,16,57.9,23.8l0,0
			L990.1,1245.9z"/>
		<path class="st26" d="M878.2,1206c-20.8-7.6-41.7-15.4-62.8-23.3c-14.5-33.3-30.6-71.1-42-98.7c19.6,8.3,38.9,16.6,58,24.7l0,0
			L878.2,1206z"/>
		<path class="st26" d="M780.9,1169.5c-21.1-8.1-42.3-16.2-63.8-24.6l0,0c-7.3-16.8-15.2-35.1-22.9-52.9
			c-1.9-21.8,0.1-41.6,7.4-38.6c9.9,4.2,19.7,8.3,29.4,12.4L780.9,1169.5z"/>
	</g>
	<polygon style="opacity:0.15;clip-path:url(#SVGID_00000034071675347832483210000015181306128383541155_);fill:#303049;" points="
		793,1396.2 967.5,1365 951.6,1345.7 783,1379.1 	"/>
	<path style="opacity:0.35;clip-path:url(#SVGID_00000034071675347832483210000015181306128383541155_);fill:#303049;" d="
		M1943.1,1013.5c0,0,1.3,26.6,1.3,29.9c-10,4-537.4,232.8-681,266c-143.7,33.3-452.3,108.4-452.3,108.4l142.7-69.6L1943.1,1013.5z"
		/>
	<g style="clip-path:url(#SVGID_00000034071675347832483210000015181306128383541155_);">
		<path class="st25" d="M1943.3,1028.5c-10.7,6.8-29.3,12.2-40.4,17.3c-24.2,11-48.2,21.8-72,32.4c-18.1,8-36.1,15.9-54,23.7
			c-23.7,10.3-47.3,20.4-70.6,30.3c-23.2,9.8-46.2,19.4-69.1,28.8c-27.4,11.2-54.7,22.2-81.8,32.8c-24.6,9.7-49.1,19.1-73.5,28.2
			c-26.5,10-52.9,19.6-79.2,29c-26.9,9.6-53.7,18.9-80.4,27.9c-29.5,9.9-58.9,19.5-88.3,28.8c-22.2,7-44.5,13.8-66.7,20.4
			c-28.1,8.3-56.2,16.4-84.4,24.1c-20.8,5.7-41.6,11.2-62.4,16.6c-26.7,6.8-53.4,13.4-80.2,19.7c-26.2,6.2-52.4,12-78.8,17.7
			c-25.4,5.5-50.9,10.6-76.6,15.6c-18.9,3.7-37.9,7.2-57,10.6c-2.7,0.5-5.5,1-8.2,1.5c-22.1,3.9-44,7.8-65.8,11.6
			c-21.4,3.8-42.6,7.5-63.8,11.2c-24.9,4.3-49.6,8.6-74.1,12.8c-21.6,3.7-43,7.3-64.4,10.8c-24.7,4.1-49.2,8.1-73.5,12
			c-19.7,3.1-39.2,6.2-58.7,9.2c-24.3,3.7-48.4,7.3-72.4,10.7c-18.5,2.6-36.9,5.2-55.2,7.7c-23.7,3.2-47.2,6.2-70.7,9.1
			c-22.6,2.8-45.2,5.4-67.5,7.8c-23.2,2.5-46.3,4.9-69.2,7c-23.7,2.2-47.2,4.1-70.6,5.9c-22.4,1.7-44.7,3.1-66.8,4.3
			c-17.6,0.9-35,1.7-52.4,2.4c-21.6,0.8-43.2,1.3-64.6,1.6c-17.5,0.3-34.9,0.3-52.3,0.2c-968.6-6.5-45.2-70.1-10.6-67.6
			c34,2.4,74.8,3,120.9,1.9c20-0.5,40.9-1.3,62.8-2.3c18-0.9,36.6-2,55.6-3.2c21-1.4,42.6-3,64.6-4.8c24.1-2,48.8-4.3,74.1-6.7
			c21.8-2.1,44-4.5,66.4-7c23.3-2.6,46.9-5.3,70.7-8.3c22-2.7,44.2-5.5,66.5-8.5c19.7-2.6,39.5-5.3,59.3-8.2
			c22.9-3.3,45.8-6.6,68.7-10.1c20.9-3.2,41.7-6.5,62.4-9.8c23.6-3.8,47-7.8,70.3-11.8c23.2-4,46.2-8.1,68.8-12.4
			c24.2-4.5,48.1-9.1,71.5-13.7c23.8-4.8,47.2-9.6,70.1-14.5c0,0,0.1,0,0.1,0c24.2-5.2,47.8-10.4,70.9-15.5
			c22.6-5,44.6-10.1,66.1-15c25.1-5.8,49.5-11.6,73.2-17.3c30.2-7.3,59.2-14.5,87.2-21.7c25.8-6.6,50.8-13.2,74.9-19.7
			c24.2-6.6,47.7-13.1,70.4-19.6c27.5-7.9,54-15.7,79.5-23.6c25.6-7.9,50.2-15.7,73.9-23.5c28.6-9.4,56-18.8,82.3-28.3c0,0,0,0,0,0
			c24.9-8.9,48.8-17.8,71.9-26.7c26.4-10.2,51.8-20.4,76.5-30.7c28.6-11.9,56.2-23.9,83.2-36.1c26.7-12,52.8-24.2,78.7-36.5
			c20-9.5,39.9-19.1,59.8-28.8c22.7-11.1,45.5-22.4,68.6-33.8c20.5-10.2,41.2-20.5,62.4-31c12.9-6.4,21.5-10.6,34.8-17.2
			c5.4-2.6,13.1,5.5,14.1,20C1950.4,990.1,1946.9,1026.3,1943.3,1028.5z"/>
		<path class="st26" d="M-149.2,1489.7c-17.6,21.4-38.2,45.5-56.2,66.3c-21.6,0.8-43.2,1.3-64.6,1.6l58-65.6
			C-192,1491.6-171,1490.8-149.2,1489.7z"/>
		<path class="st26" d="M-28.9,1481.7c-17.4,21.3-38.5,46-57.2,67.7c-22.4,1.7-44.7,3.1-66.8,4.3l59.4-67.1
			C-72.6,1485.1-51,1483.5-28.9,1481.7z"/>
		<path class="st26" d="M111.6,1468c-17.6,21.5-38.9,46.6-57.9,68.6c-23.2,2.5-46.3,4.9-69.2,7l60.7-68.6
			C67,1472.8,89.1,1470.4,111.6,1468z"/>
		<path class="st26" d="M248.8,1451.2c-15.4,19.6-36.6,44.8-56.9,68.5c-23.7,3.2-47.2,6.2-70.7,9.1l61.1-69.1
			C204.3,1457,226.5,1454.1,248.8,1451.2z"/>
		<path class="st26" d="M376.8,1432.9c-16.7,20.7-37.9,45.7-57.4,68.4c-24.3,3.7-48.4,7.3-72.4,10.7l61.1-69
			C331,1439.7,353.9,1436.4,376.8,1432.9z"/>
		<path class="st26" d="M509.5,1411.2c-16.9,21-38.4,46.2-57.9,68.9c-24.7,4.1-49.2,8.1-73.5,12l61.1-69.1
			C462.8,1419.2,486.3,1415.3,509.5,1411.2z"/>
		<path class="st26" d="M649.9,1385.1c-16.8,21-39.1,47.5-59.7,71.4c-24.9,4.3-49.6,8.6-74.1,12.8l62.3-70.4
			C602.6,1394.4,626.5,1389.8,649.9,1385.1z"/>
		<path class="st26" d="M1242.4,1238.2c-19.6,25-49.7,60.5-75.1,89.9c-28.1,8.3-56.2,16.4-84.4,24.1l80-90.4
			C1190.5,1253.9,1216.9,1246,1242.4,1238.2z"/>
		<path class="st26" d="M1398.6,1186.4c-16.9,22.7-48.4,60.1-76.2,92.5c-29.5,9.9-58.9,19.5-88.3,28.8l82.3-93
			C1344.9,1205.3,1372.3,1195.9,1398.6,1186.4z"/>
		<path class="st26" d="M1547.1,1129c-17.1,26-42.8,62.1-65.1,93c-26.5,10-52.9,19.6-79.2,29l67.8-91.3
			C1497,1149.5,1522.4,1139.3,1547.1,1129z"/>
		<path class="st26" d="M1709,1056.5c-13.6,22.9-44.4,66.5-71.8,104.5c-27.4,11.2-54.7,22.2-81.8,32.8l74.8-100.8
			C1657,1080.9,1683.1,1068.8,1709,1056.5z"/>
		<path class="st26" d="M1837.3,993.8c-14.3,28-38.9,71.3-60.3,108.1c-23.7,10.3-47.3,20.4-70.6,30.3l62.4-104.6
			C1791.4,1016.5,1814.2,1005.3,1837.3,993.8z"/>
		<path class="st26" d="M1948.7,965.7c-14.3,25.8-31.1,55-45.7,80.1c-24.2,11-48.2,21.8-72,32.4l68.8-115.3
			c12.9-6.4,20.2-11.3,33.5-17.8C1938.6,942.4,1947.6,951.2,1948.7,965.7z"/>
	</g>
	<path style="opacity:0.2;clip-path:url(#SVGID_00000034071675347832483210000015181306128383541155_);fill:#303049;" d="
		M887.1,881.1c0,0-130.7,24.7-160.3,25.8c3.3-17.8,167.6-42.1,167.6-42.1L887.1,881.1z"/>
	<path style="opacity:0.43;clip-path:url(#SVGID_00000034071675347832483210000015181306128383541155_);fill:#303049;" d="
		M1678.4,556c0,0-259.1,182.4-492.8,278c-186.5,76.3-475.5,141-475.5,141l172.2-55.5l381.8-159.3L1657.2,542L1678.4,556z"/>
	<g style="clip-path:url(#SVGID_00000034071675347832483210000015181306128383541155_);">
		<path class="st25" d="M1670.4,552.8c-0.8,0.8-4.6,3.6-10.8,7.9c-10,6.9-26.4,17.9-48,31.8c-10.2,6.5-21.5,13.7-33.9,21.4
			c-15.1,9.4-31.7,19.6-49.5,30.4c-11.3,6.8-23.1,13.8-35.4,21c-16.2,9.5-33.3,19.3-51,29.3c-15.1,8.6-30.7,17.2-46.7,25.9
			c-16.7,9.1-33.8,18.2-51.2,27.3c-13.2,6.9-26.7,13.8-40.3,20.6c-17.3,8.7-34.9,17.3-52.7,25.7c-15.4,7.3-30.8,14.4-46.3,21.3
			c-5.5,2.5-11.1,4.9-16.7,7.4c-12.8,5.6-25.6,11-38.3,16.2c-14.2,5.8-28.4,11.5-42.5,16.9c-19.5,7.5-38.8,14.6-57.8,21.4
			c-13.5,4.8-26.8,9.4-39.9,13.8c-20.6,6.9-40.7,13.4-60,19.4c0,0,0,0,0,0c-15.6,4.8-30.7,9.4-45.3,13.6
			c-22.2,6.4-43,12.2-62.3,17.3c-19.4,5.2-37.2,9.7-53,13.5c-29,7.1-51.1,11.9-64.3,14.7c-7.8,1.6-12.5,2.5-13.4,2.7
			c-5.8,0.9-7.1-8.4-5.8-20.6c2.2-20.4,12-49,21-51.3c0.1,0,0.3-0.1,0.5-0.1c14.5-2.3,34.3-6.2,58.4-11.7
			c18.1-4.1,38.5-9.2,60.9-15.1c15.5-4.1,31.9-8.7,49-13.6c18.6-5.4,38.1-11.3,58.2-17.7c14.1-4.5,28.5-9.2,43.1-14.2
			c18.3-6.2,37-12.8,56-19.8c15.1-5.5,30.3-11.3,45.7-17.3c17.7-6.9,35.6-14.2,53.5-21.8c6.9-2.9,13.9-5.9,20.8-8.9
			c9.5-4.2,19.1-8.4,28.6-12.7c17.1-7.8,34.2-15.8,51-24c14.4-7,28.7-14.1,42.8-21.3c16.8-8.6,33.3-17.2,49.5-25.8
			c15.8-8.4,31.2-16.9,46.2-25.2c17-9.4,33.4-18.8,49.1-27.8c13.1-7.6,25.7-14.9,37.7-22.1c17.2-10.2,33.2-19.8,47.9-28.8
			c13.2-8.1,25.4-15.6,36.2-22.4c20.4-12.7,36.5-23,47.1-29.7c7.8-4.9,12.7-7.9,14.3-8.7C1640.2,503.2,1681.1,542.2,1670.4,552.8z"
			/>
		<path class="st26" d="M788.6,954.9c-29,7.1-51.1,11.9-64.3,14.7c-6.3-5.9-12.8-12-19.2-17.9c2.2-20.4,12-49,21-51.3L788.6,954.9z"
			/>
		<path class="st26" d="M903.9,924.1c-22.2,6.4-43,12.2-62.3,17.3c-17.9-16.6-39.4-36.8-56.7-52.9c18.1-4.1,38.5-9.2,60.9-15.1
			L903.9,924.1z"/>
		<path class="st26" d="M949.3,910.5C949.3,910.5,949.3,910.5,949.3,910.5c-16.8-15.6-37.2-34.7-54.3-50.7
			c18.6-5.4,38.1-11.3,58.2-17.7l56.1,49C988.7,898,968.6,904.5,949.3,910.5z"/>
		<path class="st26" d="M1492.7,665.3c-16.2,9.5-33.3,19.3-51,29.3c-16-13.5-34.8-29.6-51.3-43.6c17-9.4,33.4-18.8,49.1-27.8
			L1492.7,665.3z"/>
		<path class="st26" d="M1577.6,613.9c-15.1,9.4-31.7,19.6-49.5,30.4c-16-13.5-34.6-29.4-50.8-43.1c17.2-10.2,33.2-19.8,47.9-28.8
			L1577.6,613.9z"/>
		<path class="st26" d="M1659.6,560.7c-10,6.9-26.4,17.9-48,31.8c-15.3-12.9-33.6-28.5-50.1-42.5c20.4-12.7,36.5-23,47.1-29.7
			L1659.6,560.7z"/>
	</g>
	
		<rect x="-129.6" y="5.4" style="clip-path:url(#SVGID_00000034071675347832483210000015181306128383541155_);fill:none;" width="3000" height="2000"/>
	<g style="clip-path:url(#SVGID_00000034071675347832483210000015181306128383541155_);">
		<path d="M1071.8,839.3c-31.4,2.6-9-35.7,8.4-21.2c2.8,8.3-9.6,3.2-12.9,8.2c-3.4,8,20-1.7,22,10.8c8.3,14.4-32.2,27.3-24.4,8.6
			C1072.9,850.1,1088.2,838.3,1071.8,839.3z"/>
		<path d="M1093.8,808.5c10.5-11.9,19.4-0.5,25.7,9.2c4.8,6.6,16.9,17.9,1.5,18c-9-7.7-2-6.3-15.5-1.8c3.5,6.9-4.5,14.9-9.7,8.3
			C1094,831.6,1094.1,819.3,1093.8,808.5z M1103.4,813.2c0.2,3.8,0.3,8.5,0.8,12.6l7-2.7C1108.6,820,1106.1,815.1,1103.4,813.2z"/>
		<path d="M1165.9,816.7c-9.8,13.8-21.9-6.1-29.8-11.3c3.1,6.3,6.1,14.4,8.8,20.9c-2.6,1.5-7.1,4.8-9.8,2
			c-0.6,0.8-12.2-29.6-12.6-30.2c6.3-12.3,17.5-0.7,23.6,5.2c12.5,14.1-1.5-9.1-2.9-15.6c3.3-2.2,9.2-5.6,11,0.2
			C1154.2,787.9,1165.9,816.7,1165.9,816.7z"/>
		<path d="M1180.3,780.3c-12.6,4.5-2.7,26,9,19.9c3.7-0.6,5.1-6.9,8.3-3.7c7.8,9.8-13.5,16.6-20.9,13.2c-15.3-5.5-18-31-1.2-36.7
			C1187.6,766.5,1196.7,780.2,1180.3,780.3z"/>
		<path d="M1195,775.2c-14-9.9,19.3-15.8,23.1-19.6c7.3,5.8,1,9.9-5.1,11.7c-0.6,1.3,14.6,27.2,9.4,26.8
			c-11.1,10.3-15.1-17.6-19.1-22.5L1195,775.2z"/>
		<path d="M1249.1,781.8c-3.2,2.4-9.5,6.1-11.5,0.3c0,0-13.1-29.1-13.1-29.1c1.7-1.2,4.5-2.9,6.6-3.3
			C1237.2,747.1,1246.3,779,1249.1,781.8z"/>
		<path d="M1247.8,762.6c-12.3-22.5,25.4-40,34.7-16.2C1294.9,768.9,1257.1,786.5,1247.8,762.6z M1257.7,758c4.7,13.6,22.4,5.4,15-7
			C1268,737.5,1250.4,745.7,1257.7,758z"/>
		<path d="M1325.8,744.4c-8.5,13.9-22.2-3.4-30.2-9.4c0.9,3.5,4.3,8.1,5.8,12c0,0,4.1,8.4,4.1,8.4c-2.4,1.7-6.7,5.2-9.6,2.6
			c-0.5,0.9-14.2-28.7-14.7-29.2c1.4-4.7,8.8-8.3,13.1-4.8c4.4,3.4,13,9.8,16.9,13.6c-0.2-3.6-13-20.2-8.5-21.8
			C1313.5,704.5,1321.3,740.1,1325.8,744.4z"/>
		<path d="M1336.7,723.8c-24.5,5.4-20.2-23.9,0.6-24.7c4.4-0.5,7.2,4.2,5.1,7.8c-3.5-0.3-9.5,1.5-11.7,4.5
			c-2.5,8.3,19.7-4.1,23.1,8.1c10,13.3-28.7,31-23.2,11.5C1339.1,734.4,1353,721,1336.7,723.8z"/>
	</g>
	<g style="clip-path:url(#SVGID_00000034071675347832483210000015181306128383541155_);">
		<path d="M749.3,1395.5c-31.3-3.6-1.9-36.8,12.4-19.2c1.2,8.7-10,1.2-14.3,5.6c-4.9,7.2,20,2.2,19.5,14.9
			c5.4,15.7-36.9,20.6-25.6,3.7C748.2,1406.3,765.5,1397.8,749.3,1395.5z"/>
		<path d="M776.8,1369.6c12.6-9.7,19.1,3.3,23.4,14c3.5,7.4,13.1,20.9-2,18c-7.3-9.3-0.7-6.6-14.8-4.8c2.1,7.4-7.3,13.8-11.1,6.3
			C772.5,1392.3,775.1,1380.2,776.8,1369.6z M785.3,1376c-0.6,3.8-1.4,8.4-1.7,12.5l7.4-1.3C789.1,1383.7,787.6,1378.4,785.3,1376z"
			/>
		<path d="M845.9,1391.7c-12.3,11.6-20.3-10.2-27-16.9c1.8,6.8,3.2,15.3,4.6,22.2c-2.8,1-7.9,3.3-10,0c-0.7,0.7-6.2-31.4-6.5-32.1
			c8.6-10.8,17.3,2.7,22.1,9.7c9.6,16.3,0.3-9.2,0.2-15.9c3.7-1.5,10.1-3.7,10.8,2.3C840.1,1361.1,845.9,1391.7,845.9,1391.7z"/>
		<path d="M867.2,1358.7c-13.2,2-7.7,25,5,21.3c3.8,0.2,6.3-5.8,8.9-2c5.7,11.2-16.4,13.6-23.1,8.9c-14-8.4-11.6-33.9,6-36.2
			C877,1346.6,883.3,1361.9,867.2,1358.7z"/>
		<path d="M882.6,1356.6c-11.8-12.4,22-11.8,26.5-14.7c6,7.1-0.9,9.9-7.3,10.5c-0.8,1.1,9,29.5,4.1,28.1
			c-12.9,7.9-11.3-20.2-14.4-25.8L882.6,1356.6z"/>
		<path d="M934.4,1373.6c-3.6,1.7-10.5,4.1-11.3-2c0,0-7.2-31.1-7.2-31.1c1.9-0.8,4.9-2,7.1-2
			C929.5,1337.2,932.2,1370.3,934.4,1373.6z"/>
		<path d="M936.8,1354.5c-7.6-24.4,32.7-34.3,37.2-9.1C981.8,1369.9,941.3,1379.7,936.8,1354.5z M947.4,1351.9
			c1.9,14.3,20.9,9.6,16.1-3.9C961.6,1333.8,942.6,1338.4,947.4,1351.9z"/>
		<path d="M1016.9,1351.8c-11.1,12-21.1-7.7-27.8-15.1c0.2,3.6,2.6,8.8,3.4,12.9c0,0,2.4,9.1,2.4,9.1c-2.7,1.2-7.6,3.8-10,0.7
			c-0.7,0.7-8.3-30.9-8.7-31.5c2.3-4.3,10.3-6.4,13.8-2.1c3.6,4.2,10.9,12.1,14,16.6c0.5-3.6-8.8-22.3-4.1-23
			C1012.5,1310.3,1013.3,1346.7,1016.9,1351.8z"/>
		<path d="M1031.6,1333.8c-25.1,0.5-15.2-27.3,5.4-24.1c4.4,0.3,6.2,5.5,3.5,8.7c-3.4-1-9.7-0.3-12.4,2.1c-4,7.7,20.1-0.2,21.1,12.4
			c7.2,15-34.2,24.8-25,6.8C1031.9,1344.6,1048.1,1334.1,1031.6,1333.8z"/>
	</g>
	<g style="clip-path:url(#SVGID_00000034071675347832483210000015181306128383541155_);">
		<path d="M1279.5,1305.7c-26.4-17.1,14.7-33.8,19.6-11.6c-2.8,8.3-9.5-3.4-15.2-1.4c-7.6,4.2,16.9,10.9,10.8,22
			c-2.2,16.5-42.2,2-24.6-8.1C1273.8,1315,1293.1,1315.1,1279.5,1305.7z"/>
		<path d="M1315.8,1294.9c15.6-3,15.6,11.5,14.7,23c-0.2,8.1,2.4,24.5-9.8,15.2c-2.4-11.6,2.3-6.2-11.1-10.9
			c-1.4,7.6-12.7,9.1-12.8,0.6C1301.8,1313.3,1309.5,1303.6,1315.8,1294.9z M1320.5,1304.4c-2.2,3.2-5,6.9-7.1,10.4l7.2,2.1
			C1320.5,1313,1321.5,1307.6,1320.5,1304.4z"/>
		<path d="M1367.8,1345.5c-16.2,4.9-13.7-18.2-16.7-27.2c-1.4,6.9-4,15.1-5.8,21.9c-3-0.4-8.5-0.6-8.9-4.4c-1,0.3,8.5-30.8,8.5-31.6
			c12.5-5.8,14.3,10.1,15.5,18.5c1.3,18.8,4.4-8.1,7.2-14.1c4,0.3,10.7,1.2,8.6,6.9C1376.1,1315.5,1367.8,1345.5,1367.8,1345.5z"/>
		<path d="M1401.5,1325.4c-12.7-4.1-18.1,18.9-5.1,21.3c3.3,1.8,8.2-2.3,8.8,2.2c0.2,12.5-20.8,4.9-24.6-2.4
			c-8.8-13.8,4.7-35.5,21.5-29.7C1415.7,1319,1414.5,1335.4,1401.5,1325.4z"/>
		<path d="M1416.2,1330.4c-5-16.4,24.9-0.7,30.3-1.3c2.2,9-5.2,8.4-11.2,6.1c-1.2,0.6-5.1,30.4-8.9,27c-15.1,1.3-1.1-23.2-1.4-29.5
			L1416.2,1330.4z"/>
		<path d="M1455,1368.7c-4-0.1-11.3-1-9.3-6.8c0,0,7.4-31.1,7.4-31.1c2.1,0.1,5.3,0.4,7.2,1.4
			C1466.8,1334,1454.5,1364.8,1455,1368.7z"/>
		<path d="M1465.7,1352.7c4.1-25.3,44.6-16.1,37.4,8.5C1499.1,1386.6,1458.5,1377.3,1465.7,1352.7z M1476.4,1355.1
			c-4.6,13.6,14.4,17.9,16.1,3.6C1497.1,1345.2,1478.1,1340.9,1476.4,1355.1z"/>
		<path d="M1538.6,1386c-15.3,5.8-15.5-16.3-18.1-25.9c-1.4,3.3-1.6,9.1-2.8,13.1c0,0-1.9,9.2-1.9,9.2c-3-0.1-8.5,0-9.2-3.8
			c-0.9,0.4,6.3-31.4,6.2-32.1c4-2.9,12-1.2,13.3,4.2c1.3,5.4,4.3,15.7,5.1,21.1c2.1-3,2.1-23.9,6.6-22.4
			C1553.2,1346.9,1537.7,1379.9,1538.6,1386z"/>
		<path d="M1559.8,1376.4c-22.7-10.7-1.4-31.2,15.6-19.1c3.8,2.3,3.1,7.7-0.8,9.3c-2.6-2.4-8.5-4.6-12-3.6
			c-7,5.1,18.1,8.8,13.4,20.6c-0.2,16.6-41.6,7-25.3-5.1C1555.2,1386.3,1574.4,1384.1,1559.8,1376.4z"/>
	</g>
</g>
</svg>
