<?xml version="1.0" encoding="iso-8859-1"?>
<!-- Generator: Adobe Illustrator 26.0.3, SVG Export Plug-In . SVG Version: 6.00 Build 0)  -->
<!DOCTYPE svg PUBLIC "-//W3C//DTD SVG 1.1//EN" "http://www.w3.org/Graphics/SVG/1.1/DTD/svg11.dtd" [
	<!ENTITY ns_extend "http://ns.adobe.com/Extensibility/1.0/">
	<!ENTITY ns_ai "http://ns.adobe.com/AdobeIllustrator/10.0/">
	<!ENTITY ns_graphs "http://ns.adobe.com/Graphs/1.0/">
	<!ENTITY ns_vars "http://ns.adobe.com/Variables/1.0/">
	<!ENTITY ns_imrep "http://ns.adobe.com/ImageReplacement/1.0/">
	<!ENTITY ns_sfw "http://ns.adobe.com/SaveForWeb/1.0/">
	<!ENTITY ns_custom "http://ns.adobe.com/GenericCustomNamespace/1.0/">
	<!ENTITY ns_adobe_xpath "http://ns.adobe.com/XPath/1.0/">
]>
<svg version="1.1" id="Layer_1" xmlns:x="&ns_extend;" xmlns:i="&ns_ai;" xmlns:graph="&ns_graphs;"
	 xmlns="http://www.w3.org/2000/svg" xmlns:xlink="http://www.w3.org/1999/xlink" x="0px" y="0px" viewBox="0 0 1920 1080"
	 style="enable-background:new 0 0 1920 1080;" xml:space="preserve">
<style type="text/css">
	.st0{fill:#F4F7FA;}
	.st1{fill:#D8DEE8;}
	.st2{fill:#FFFFFF;}
	.st3{fill:url(#SVGID_1_);}
	.st4{opacity:0.3;}
	.st5{fill:url(#SVGID_00000140007541948653476100000015806694612359240077_);}
	.st6{fill:url(#SVGID_00000171721579940662796870000008440366291597369493_);}
	.st7{fill:url(#SVGID_00000139295747853401352710000016134996984928291970_);}
	.st8{fill:url(#SVGID_00000076571542767659797050000012709163009522916741_);}
	.st9{fill:url(#SVGID_00000150817219390456326090000009550597342020794281_);}
	.st10{fill:url(#SVGID_00000060027725643418332790000005964603548237974964_);}
	.st11{fill:url(#SVGID_00000012456825208056218340000001731026973340127900_);}
	.st12{opacity:0.75;fill:#F4F7FA;}
	.st13{fill:url(#SVGID_00000117671359409128847060000008470711350691693955_);}
	.st14{fill:url(#SVGID_00000183219016438715400290000017016620786984076434_);}
	.st15{fill:url(#SVGID_00000116923702366660208980000013897221806290412199_);}
	.st16{fill:url(#SVGID_00000057861156273977502450000015143353768652676752_);}
	.st17{fill:url(#SVGID_00000179644153406029280410000001219386647499145116_);}
	.st18{fill:url(#SVGID_00000177470245980854552350000006558570352475082161_);}
	.st19{fill:url(#SVGID_00000129199636008634894190000010843900281271329438_);}
	.st20{fill:url(#SVGID_00000109739074202070505570000009750188542646606726_);}
	.st21{opacity:0.5;fill:#F4F7FA;}
	.st22{fill:url(#SVGID_00000018956946236325204710000002856503759877641351_);}
	.st23{fill:url(#SVGID_00000011000667526094720450000008692481554817250215_);}
	.st24{fill:url(#SVGID_00000153694858981678201090000003681604452852471189_);}
	.st25{opacity:0.3;fill:url(#SVGID_00000102505491708178053720000001939946014599416971_);}
	.st26{opacity:0.44;fill:#F4F7FA;}
	.st27{fill:url(#SVGID_00000054244588238471759850000010229186303298338977_);}
	.st28{fill:url(#SVGID_00000099634643378607908490000015242294226038916254_);}
	.st29{opacity:0.3;fill:url(#SVGID_00000077285332310499265450000013030001448951943599_);}
	.st30{fill:url(#SVGID_00000038373371407690290270000011319623394838723229_);}
	.st31{fill:url(#SVGID_00000097459884210998004090000003013917383205853884_);}
	
		.st32{clip-path:url(#SVGID_00000073690157754961399790000002302731548232819108_);fill:url(#SVGID_00000018947830114706660210000012203000229551666066_);}
	
		.st33{opacity:0.3;clip-path:url(#SVGID_00000073690157754961399790000002302731548232819108_);fill:url(#SVGID_00000155835254208680453000000005775371711626440091_);}
	.st34{fill:url(#SVGID_00000018206241458709341390000018114422042694361260_);}
	.st35{fill:url(#SVGID_00000168099363691402851230000016657819949524185251_);}
	.st36{fill:url(#SVGID_00000146487613325721825990000007224338299410404785_);}
	.st37{fill:url(#SVGID_00000038398441969622231820000005446507774787186352_);}
	.st38{fill:url(#SVGID_00000166644092538229035930000012522944284636392613_);}
	.st39{fill:url(#SVGID_00000160155919364337351600000015234405579713265569_);}
	.st40{fill:url(#SVGID_00000039104345042604959110000010350738493326112433_);}
	.st41{fill:url(#SVGID_00000069386559413507811760000013792601041438947460_);}
	.st42{fill:url(#SVGID_00000046308363205904755270000007780338811645348250_);}
	.st43{fill:url(#SVGID_00000031907910682785967850000010607556517707157663_);}
	.st44{fill:url(#SVGID_00000080196564460623819450000004765690017180434823_);}
	.st45{fill:url(#SVGID_00000020396274644859737880000006691469571285664155_);}
	.st46{fill:url(#SVGID_00000067213723058291942740000002339276735728111271_);}
	.st47{fill:url(#SVGID_00000034795429726953806210000011948559246988681088_);}
	.st48{fill:url(#SVGID_00000020373090303422067980000001829181083759456648_);}
	.st49{fill:url(#SVGID_00000016075835082952439840000001992299204411670457_);}
	.st50{fill:url(#SVGID_00000076564308164412431710000001982999998819049116_);}
	.st51{fill:#FCB048;}
	.st52{fill:url(#SVGID_00000014592773318798810400000015830372381439176598_);}
	.st53{fill:url(#SVGID_00000103981476074987555610000010631100288956010398_);}
	.st54{fill:url(#SVGID_00000149368333447285833090000016003056918452786566_);}
	.st55{fill:url(#SVGID_00000097487732430419853360000009356497275224925083_);}
	.st56{fill:url(#SVGID_00000038395131351944298480000002746790322085256613_);}
	.st57{fill:url(#SVGID_00000043424010199473714260000014029662128702765498_);}
	.st58{fill:url(#SVGID_00000077283053325607428750000012388058845033527427_);}
	.st59{fill:url(#SVGID_00000033333221248110233200000011147796092296608144_);}
	.st60{fill:url(#SVGID_00000143608006525189737520000007609229805238807737_);}
	.st61{fill:url(#SVGID_00000129898634272504833170000013891873865583294369_);}
	.st62{fill:url(#SVGID_00000106119417367908033910000013349743852071911100_);}
	.st63{fill:url(#SVGID_00000167354944797306376040000018263139734833556394_);}
	.st64{fill:url(#SVGID_00000098190803085125756880000014215391366902865043_);}
	.st65{fill:url(#SVGID_00000112632050877037936880000004568703516953205909_);}
	.st66{fill:url(#SVGID_00000147908197599133334850000003446409357191001011_);}
	.st67{fill:url(#SVGID_00000050637848063062062610000010819867542600457093_);}
	.st68{fill:url(#SVGID_00000127040580005453224860000016871659322085757852_);}
	.st69{fill:url(#SVGID_00000169517897181510861130000009427808134256234428_);}
	.st70{fill:url(#SVGID_00000091721335143135529300000005251363105660729000_);}
	.st71{fill:url(#SVGID_00000074436122399857870660000003415467650362444930_);}
	.st72{fill:url(#SVGID_00000084526930073081119060000013984209615042988455_);}
	.st73{fill:url(#SVGID_00000001653303648165259690000001344293362885372093_);}
	.st74{fill:url(#SVGID_00000134229300221202153000000006257180809119078334_);}
	.st75{fill:url(#SVGID_00000075863959014427294010000005288355811612837778_);}
	.st76{fill:url(#SVGID_00000147208287953913575090000002642406407510333109_);}
	.st77{fill:url(#SVGID_00000098201803017907724210000017217907610564739505_);}
	.st78{fill:url(#SVGID_00000072279486861045055250000016038587174627146915_);}
	.st79{fill:url(#SVGID_00000166674070396477652720000000659262623942765441_);}
	.st80{fill:url(#SVGID_00000155121759615230709160000015061932247647303612_);}
	.st81{fill:url(#SVGID_00000067207895340935526190000017375951920906940337_);}
	.st82{fill:url(#SVGID_00000137121961659617921740000017664669730244571557_);}
	.st83{fill:url(#SVGID_00000156569753006123903840000009982387017918920615_);}
	.st84{fill:url(#SVGID_00000114060734689422125090000006370772683874835889_);}
	.st85{fill:#26264F;}
	.st86{fill:url(#SVGID_00000146465255293670912140000018079324981600499617_);}
	.st87{fill:url(#SVGID_00000083777539102302550180000004396746580797192092_);}
	.st88{fill:url(#SVGID_00000141421557625660348250000014081078706348824706_);}
	.st89{fill:url(#SVGID_00000046302679169966030250000016832888963174470065_);}
	.st90{fill:url(#SVGID_00000181076900017140059390000015181187546103529137_);}
	.st91{fill:url(#SVGID_00000155849524163466402080000007338659442788311997_);}
	.st92{fill:url(#SVGID_00000086672557220026951230000016834116376630676096_);}
	.st93{fill:url(#SVGID_00000058571858436061147370000015970233533364850083_);}
	.st94{fill:url(#SVGID_00000178914336157291585070000009928118026265054908_);}
	.st95{fill:url(#SVGID_00000178170220123847614660000007588078507479969941_);}
	.st96{fill:url(#SVGID_00000103987091016799290510000012347032969114118309_);}
	.st97{fill:url(#SVGID_00000154383933765217639970000014171641551005048231_);}
	.st98{fill:url(#SVGID_00000019667297949970490190000015982779040046074027_);}
	.st99{fill:url(#SVGID_00000138558189917365628120000009568886378004043447_);}
	.st100{fill:url(#SVGID_00000037657958199553996360000009861571022026809788_);}
</style>
<metadata>
	<sfw  xmlns="&ns_sfw;">
		<slices></slices>
		<sliceSourceBounds  bottomLeftOrigin="true" height="830" width="817.4" x="548.7" y="-935.8"></sliceSourceBounds>
	</sfw>
</metadata>
<g>
	<path class="st0" d="M745.2,155.7c-27.5,40,4.7,104.9-36,135c-39.7,29.3-88.4-18.7-125.7,6.5c-55.4,37.4-45.3,208.6,35.7,315
		c24.4,32,44.7,44.4,53.8,80.6c19.4,77.7-48.7,123.9-35.8,162.3c29.2,86.5,477.8,159.1,657.8-100.9
		c84.1-121.4,96.6-296.8,21.5-429.9C1180.8,83.6,806.8,65.9,745.2,155.7z"/>
	<g>
		<path class="st1" d="M877.5,402.8c13.7,6.9,30.9,0.6,38.4-14.3c7.5-14.8,2.5-32.5-11.2-39.4c-0.7-0.4-1.4-0.7-2.2-1
			c2.5-8.2,4.5-16.5,5.7-24.7c0.8,0,1.6,0,2.4-0.1c15.6-1.4,28-15.7,27.7-32c-0.3-16.3-13.2-28.4-28.9-27c-0.8,0.1-1.6,0.2-2.4,0.3
			c-1.6-8.1-3.9-16-6.7-23.6c0.7-0.4,1.4-0.9,2.1-1.3c13.4-9.4,17.6-27.8,9.5-41.2c-8.1-13.4-25.5-16.7-38.8-7.4
			c-0.7,0.5-1.3,1-2,1.5c-5.3-5.8-11.1-11.2-17.3-16.2c0.4-0.7,0.9-1.5,1.3-2.2c7.5-14.8,17.3-31,3.6-37.7
			c-31.9-15.6-45.6-2.2-53.1,12.6c-0.4,0.8-0.7,1.5-1,2.3c-7.7-2.1-15.4-3.6-23.3-4.4c0-0.8,0.1-1.6,0.1-2.5
			c-0.3-16.3,4.5-25.1-11.2-25.4c-34.2-0.7-45.7,14.2-45.4,30.5c0,0.9,0.1,1.7,0.2,2.5c-7.8,2.2-15.5,5.1-23,8.5
			c-0.4-0.7-0.7-1.4-1.1-2.2c-8.1-13.4-25.5-16.7-38.8-7.4c-13.4,9.4-17.6,27.8-9.5,41.2c0.4,0.7,0.9,1.3,1.3,2
			c-5.9,5.9-11.4,12.3-16.6,19.2c-0.7-0.4-1.3-0.8-2-1.2c-13.7-6.9-30.9-0.6-38.4,14.3c-7.5,14.8-2.5,32.5,11.2,39.4
			c0.7,0.4,1.4,0.7,2.2,1c-2.5,8.2-4.5,16.5-5.7,24.7c-0.8,0-1.6,0-2.4,0.1c-15.6,1.4-28,15.7-27.7,32c0.3,16.3,13.2,28.4,28.9,27
			c0.8-0.1,1.6-0.2,2.4-0.3c1.6,8.1,3.9,16,6.7,23.6c-0.7,0.4-1.4,0.9-2.1,1.3c-13.4,9.4-17.6,27.8-9.5,41.2
			c8.1,13.4,34.9,19.6,48.2,10.3c0.7-0.5-8.1-3.9-7.4-4.5c5.3,5.8,11.1,11.2,17.3,16.2c-0.4,0.7-0.9,1.5-1.3,2.2
			c-7.5,14.8-2.5,32.5,11.2,39.4c13.7,6.9,30.9,0.6,38.4-14.3c0.4-0.8,0.7-1.5,1-2.3c7.7,2.1,15.4,3.6,23.3,4.4
			c0,0.8-0.1,1.6-0.1,2.5c0.3,16.3,13.2,28.4,28.9,27c15.6-1.4,28-15.7,27.7-32c0-0.9-0.1-1.7-0.2-2.5c7.8-2.2,15.5-5.1,23-8.5
			c0.4,0.7,0.7,1.4,1.1,2.2c8.1,13.4,25.5,16.7,38.8,7.4c13.4-9.4,17.6-27.8,9.5-41.2c-0.4-0.7-0.9-1.3-1.3-2
			c5.9-5.9,11.4-12.3,16.6-19.2C876.1,402,876.8,402.4,877.5,402.8z M707,405c-49.7-25.2-67.8-89.2-40.5-143
			c27.3-53.8,89.7-77,139.4-51.7c49.7,25.2,67.8,89.2,40.5,143C819.1,407,756.7,430.2,707,405z"/>
		<path class="st1" d="M910.7,323.4c15.6-1.4,28-15.7,27.7-32c-0.3-16.3-13.2-28.4-28.9-27c-0.8,0.1-1.6,0.2-2.4,0.3
			c-1.6-8.1-3.9-16-6.7-23.6c0.7-0.4,1.4-0.9,2.1-1.3c13.4-9.4,29.9-32,20.4-44.5c-17.9-23.8-36.4-13.5-49.7-4.1
			c-0.7,0.5-1.3,1-2,1.5c-5.3-5.8-11.1-11.2-17.3-16.2c0.4-0.7,0.9-1.5,1.3-2.2c4.1-8.1,4.5-17,1.7-24.5
			c-12.9,22.7-25.6,45.5-38.1,68.4c39.6,29,52.3,86.2,27.5,135c-21,41.3-62.7,64.6-103.4,61.7c-1.8,4.7-3.6,9.5-5.5,14.1
			c-5.3,12.7-11.3,25.1-17.3,37.5c3.8,0.7,7.6,1.3,11.4,1.7c0,0.8-0.1,1.6-0.1,2.5c0.3,16.3,10.2,30.1,38.5,28.6
			c15.6-0.8,18.3-17.4,18-33.7c0-0.9-0.1-1.7-0.2-2.5c7.8-2.2,15.5-5.1,23-8.5c0.4,0.7,0.7,1.4,1.1,2.2c8.1,13.4,36.1,19.1,49.5,9.8
			c13.4-9.4,6.9-30.2-1.1-43.6c-0.4-0.7-0.9-1.3-1.3-2c5.9-5.9,11.4-12.3,16.6-19.2c0.7,0.4,1.3,0.8,2,1.2
			c13.7,6.9,30.9,0.6,38.4-14.3c7.5-14.8,2.5-32.5-11.2-39.4c-0.7-0.4-1.4-0.7-2.2-1c2.5-8.2,4.5-16.5,5.7-24.7
			C909.1,323.5,909.9,323.4,910.7,323.4z"/>
		<path class="st2" d="M892.2,404.4c13.7,6.9,30.9,0.6,38.4-14.3c7.5-14.8,2.5-32.5-11.2-39.4c-0.7-0.4-1.4-0.7-2.2-1
			c2.5-8.2,4.5-16.5,5.7-24.7c0.8,0,1.6,0,2.4-0.1c15.6-1.4,28-15.7,27.7-32c-0.3-16.3-13.2-28.4-28.9-27c-0.8,0.1-1.6,0.2-2.4,0.3
			c-1.6-8.1-3.9-16-6.7-23.6c0.7-0.4,1.4-0.9,2.1-1.3c13.4-9.4,17.6-27.8,9.5-41.2c-8.1-13.4-25.5-16.7-38.8-7.4
			c-0.7,0.5-1.3,1-2,1.5c-5.3-5.8-11.1-11.2-17.3-16.2c0.4-0.7,0.9-1.5,1.3-2.2c7.5-14.8,2.5-32.5-11.2-39.4
			c-13.7-6.9-30.9-0.6-38.4,14.3c-0.4,0.8-0.7,1.5-1,2.3c-7.7-2.1-15.4-3.6-23.3-4.4c0-0.8,0.1-1.6,0.1-2.5
			c-0.3-16.3-13.2-28.4-28.9-27c-15.6,1.4-28,15.7-27.7,32c0,0.9,0.1,1.7,0.2,2.5c-7.8,2.2-15.5,5.1-23,8.5
			c-0.4-0.7-0.7-1.4-1.1-2.2c-8.1-13.4-25.5-16.7-38.8-7.4c-13.4,9.4-17.6,27.8-9.5,41.2c0.4,0.7,0.9,1.3,1.3,2
			c-5.9,5.9-11.4,12.3-16.6,19.2c-0.7-0.4-1.3-0.8-2-1.2c-13.7-6.9-30.9-0.6-38.4,14.3c-7.5,14.8-2.5,32.5,11.2,39.4
			c0.7,0.4,1.4,0.7,2.2,1c-2.5,8.2-4.5,16.5-5.7,24.7c-0.8,0-1.6,0-2.4,0.1c-15.6,1.4-28,15.7-27.7,32c0.3,16.3,13.2,28.4,28.9,27
			c0.8-0.1,1.6-0.2,2.4-0.3c1.6,8.1,3.9,16,6.7,23.6c-0.7,0.4-1.4,0.9-2.1,1.3c-13.4,9.4-17.6,27.8-9.5,41.2
			c8.1,13.4,25.5,16.7,38.8,7.4c0.7-0.5,1.3-1,2-1.5c5.3,5.8,11.1,11.2,17.3,16.2c-0.4,0.7-0.9,1.5-1.3,2.2
			c-7.5,14.8-2.5,32.5,11.2,39.4c13.7,6.9,30.9,0.6,38.4-14.3c0.4-0.8,0.7-1.5,1-2.3c7.7,2.1,15.5,3.6,23.3,4.4
			c0,0.8-0.1,1.6-0.1,2.5c0.3,16.3,13.2,28.4,28.9,27c15.6-1.4,28-15.7,27.7-32c0-0.9-0.1-1.7-0.2-2.5c7.8-2.2,15.5-5.1,23-8.5
			c0.4,0.7,0.7,1.4,1.1,2.2c8.1,13.4,25.5,16.7,38.8,7.4c13.4-9.4,17.6-27.8,9.5-41.2c-0.4-0.7-0.9-1.3-1.3-2
			c5.9-5.9,11.4-12.3,16.6-19.2C890.9,403.7,891.5,404.1,892.2,404.4z M721.7,406.6c-49.7-25.2-67.8-89.2-40.5-143
			c27.3-53.8,89.7-77,139.4-51.7c49.7,25.2,67.8,89.2,40.5,143C833.8,408.7,771.4,431.9,721.7,406.6z"/>
	</g>
	<g>
		<linearGradient id="SVGID_1_" gradientUnits="userSpaceOnUse" x1="1037.2974" y1="129.3604" x2="1110.6268" y2="265.3649">
			<stop  offset="0" style="stop-color:#AA80F9"/>
			<stop  offset="0.9964" style="stop-color:#6165D7"/>
		</linearGradient>
		<ellipse class="st3" cx="1057.1" cy="166.1" rx="55.4" ry="44.1"/>
		<path class="st2" d="M1057.1,137.3c-10.9,0-19.8,8.9-19.8,19.8c0,7.1,8.3,23.6,14.2,34.3c2.4,4.5,8.8,4.5,11.3,0
			c5.9-10.7,14.2-27.2,14.2-34.3C1076.9,146.2,1068.1,137.3,1057.1,137.3z M1057.1,167.7c-5.9,0-10.6-4.8-10.6-10.6
			c0-5.9,4.8-10.6,10.6-10.6c5.9,0,10.6,4.8,10.6,10.6C1067.8,163,1063,167.7,1057.1,167.7z"/>
		<g class="st4">
			
				<linearGradient id="SVGID_00000135665865490840182720000000129153342923078067_" gradientUnits="userSpaceOnUse" x1="1016.0929" y1="137.6252" x2="1088.0011" y2="281.9278">
				<stop  offset="0" style="stop-color:#AA80F9"/>
				<stop  offset="0.9964" style="stop-color:#6165D7"/>
			</linearGradient>
			<path style="fill:url(#SVGID_00000135665865490840182720000000129153342923078067_);" d="M1070.6,199c-6.7-13,0.1-25.2-9-33.6
				c-9.2-8.5-21.1-0.6-33.9-7.6c-5-2.7-10.5-7.8-14.6-18.4c-7.1,7.4-11.4,16.7-11.4,26.7c0,24.4,24.8,44.1,55.4,44.1
				c7,0,13.7-1,19.9-2.9C1074,204.5,1072,201.7,1070.6,199z"/>
		</g>
	</g>
	<g>
		
			<linearGradient id="SVGID_00000163771266551170077250000005357993277595824049_" gradientUnits="userSpaceOnUse" x1="1332.6929" y1="164.7732" x2="1392.616" y2="275.9128" gradientTransform="matrix(0.9098 0.4151 -0.4151 0.9098 -342.4097 -554.3743)">
			<stop  offset="0" style="stop-color:#FFC444"/>
			<stop  offset="0.9964" style="stop-color:#F36F56"/>
		</linearGradient>
		<path style="fill:url(#SVGID_00000163771266551170077250000005357993277595824049_);" d="M845.1,201.6
			c-8.3,18.1-33.4,24.4-56.1,14c-22.7-10.4-34.5-33.5-26.2-51.6c8.3-18.1,33.4-24.4,56.1-14C841.6,160.4,853.4,183.5,845.1,201.6z"
			/>
		<path class="st2" d="M784,192.5l14.2-31.2c0.9-2,3.2-2.6,4.3-1l19.2,27.6c1.2,1.7-0.1,4.7-2.2,4.9l-33.4,3.6
			C784.1,196.6,783,194.5,784,192.5z"/>
		<g class="st4">
			
				<linearGradient id="SVGID_00000147198638184914487030000005209720201363092159_" gradientUnits="userSpaceOnUse" x1="1315.3652" y1="171.5275" x2="1374.1267" y2="289.4478" gradientTransform="matrix(0.9098 0.4151 -0.4151 0.9098 -342.4097 -554.3743)">
				<stop  offset="0" style="stop-color:#FFC444"/>
				<stop  offset="0.9964" style="stop-color:#F36F56"/>
			</linearGradient>
			<path style="fill:url(#SVGID_00000147198638184914487030000005209720201363092159_);" d="M802.8,211.8c-0.6-11.9,8.6-18.7,4.7-28
				c-3.9-9.5-15.5-7.6-22.7-17.1c-2.8-3.7-5.1-9.4-4.6-18.7c-7.8,3.1-14.1,8.6-17.5,16c-8.3,18.1,3.5,41.2,26.2,51.6
				c5.2,2.4,10.5,3.9,15.8,4.6C803.4,217.1,802.9,214.3,802.8,211.8z"/>
		</g>
	</g>
	<g>
		<g>
			
				<linearGradient id="SVGID_00000025408498540961464830000005404281607231257023_" gradientUnits="userSpaceOnUse" x1="1103.8341" y1="153.4746" x2="1124.1677" y2="337.2897">
				<stop  offset="0" style="stop-color:#FFC444"/>
				<stop  offset="0.9964" style="stop-color:#F36F56"/>
			</linearGradient>
			<path style="fill:url(#SVGID_00000025408498540961464830000005404281607231257023_);" d="M1118.8,240.8
				c6.1-11.5,17.6-19.7,31.2-21.3l0.9-57.1c-38.4,1.5-71.2,25.2-85.7,58.6L1118.8,240.8z"/>
			
				<linearGradient id="SVGID_00000170267141964084631970000013497597254556198046_" gradientUnits="userSpaceOnUse" x1="1176.3203" y1="300.0564" x2="1258.4679" y2="465.9782">
				<stop  offset="0" style="stop-color:#FFC444"/>
				<stop  offset="0.9964" style="stop-color:#F36F56"/>
			</linearGradient>
			<path style="fill:url(#SVGID_00000170267141964084631970000013497597254556198046_);" d="M1194.8,266.9
				c-3.3,19.1-20,33.6-40,33.6c-5.9,0-11.5-1.3-16.6-3.5l-30,48.6c13.8,7.5,29.7,11.8,46.6,11.8c50.7,0,92.4-38.7,97.1-88.2
				L1194.8,266.9z"/>
			
				<linearGradient id="SVGID_00000133488877486270511690000002510721957115174537_" gradientUnits="userSpaceOnUse" x1="1056.2939" y1="233.8703" x2="1164.4688" y2="372.9521">
				<stop  offset="0" style="stop-color:#FFC444"/>
				<stop  offset="0.9964" style="stop-color:#F36F56"/>
			</linearGradient>
			<path style="fill:url(#SVGID_00000133488877486270511690000002510721957115174537_);" d="M1098.9,339.9l30-48.6
				c-9.1-7.5-14.9-18.8-14.9-31.4c0-3.1,0.3-6,1-8.9l-53.6-19.8c-2.8,9.1-4.3,18.7-4.3,28.8C1057.1,293,1073.6,322.3,1098.9,339.9z"
				/>
		</g>
		<g>
			
				<linearGradient id="SVGID_00000141451981008699470190000002706811871013603484_" gradientUnits="userSpaceOnUse" x1="1285.9104" y1="109.1915" x2="1197.2563" y2="232.8191">
				<stop  offset="0" style="stop-color:#FF9085"/>
				<stop  offset="1" style="stop-color:#FB6FBB"/>
			</linearGradient>
			<path style="fill:url(#SVGID_00000141451981008699470190000002706811871013603484_);" d="M1160.8,219.7
				c18.3,2.8,32.7,17.8,34.4,36.4l95.1,3.9c0,0,0-0.1,0-0.1c0-72.3-56.6-131.4-127.9-135.3L1160.8,219.7z"/>
		</g>
	</g>
	<g>
		<path class="st12" d="M1007.9,199.3c-10.4-16.1-32.5-20.4-49.4-9.5c-16.9,10.9-22.2,32.8-11.9,48.9c6.3,9.8,16.9,15.2,28.1,15.5
			c4.7,0.1,9.1,2.6,11.7,6.5l1.4,2.2c3.1,4.9,9.6,6.3,14.4,3.1l7.5-4.8c4.9-3.1,6.3-9.6,3.1-14.4l-1.4-2.2c-2.6-4-2.9-9-1.1-13.3
			C1014.7,221,1014.2,209.1,1007.9,199.3z"/>
		
			<linearGradient id="SVGID_00000064351137625854397660000003809452261776534962_" gradientUnits="userSpaceOnUse" x1="284.0338" y1="69.5518" x2="284.6806" y2="64.3771" gradientTransform="matrix(0.8412 -0.5407 0.5407 0.8412 740.4832 377.2869)">
			<stop  offset="0" style="stop-color:#311944"/>
			<stop  offset="1" style="stop-color:#A03976"/>
		</linearGradient>
		<path style="fill:url(#SVGID_00000064351137625854397660000003809452261776534962_);" d="M1021.2,272.3c1.3,2-0.7,5.6-4.5,8
			c-3.8,2.4-7.8,2.8-9.1,0.8c-1.3-2,0.7-5.6,4.5-8C1015.8,270.7,1019.9,270.3,1021.2,272.3z"/>
		
			<linearGradient id="SVGID_00000133513797004271289920000000708219762827964043_" gradientUnits="userSpaceOnUse" x1="281.3738" y1="64.8353" x2="287.842" y2="53.1925" gradientTransform="matrix(0.8412 -0.5407 0.5407 0.8412 740.4832 377.2869)">
			<stop  offset="0" style="stop-color:#311944"/>
			<stop  offset="1" style="stop-color:#A03976"/>
		</linearGradient>
		<path style="fill:url(#SVGID_00000133513797004271289920000000708219762827964043_);" d="M1001.2,276.1l2.4,3.7
			c0.8,1.2,2.2,1.9,3.7,1.7c2-0.3,5.1-1.1,8.9-3.6c3-2,4.7-3.8,5.6-5.2c0.9-1.3,0.9-3,0.1-4.3l-1.3-2L1001.2,276.1z"/>
		
			<linearGradient id="SVGID_00000046300198718921043030000011206431396459002559_" gradientUnits="userSpaceOnUse" x1="274.0582" y1="59.3175" x2="295.5272" y2="59.3175" gradientTransform="matrix(0.8412 -0.5407 0.5407 0.8412 740.4832 377.2869)">
			<stop  offset="0" style="stop-color:#311944"/>
			<stop  offset="1" style="stop-color:#A03976"/>
		</linearGradient>
		<path style="fill:url(#SVGID_00000046300198718921043030000011206431396459002559_);" d="M1003.3,279.3c0.4,0.1,0.9,0.1,1.4,0.1
			c2.3-0.3,14.9-5.8,17-8.6c0.3-0.4,0.5-0.8,0.6-1.2c-0.1-0.4-0.3-0.8-0.5-1.2l-1.3-2l-19.3,9.7L1003.3,279.3z"/>
		
			<linearGradient id="SVGID_00000101060924269994359340000007884173089077958553_" gradientUnits="userSpaceOnUse" x1="281.9897" y1="61.6534" x2="288.377" y2="49.3641" gradientTransform="matrix(0.8412 -0.5407 0.5407 0.8412 740.4832 377.2869)">
			<stop  offset="0" style="stop-color:#311944"/>
			<stop  offset="1" style="stop-color:#A03976"/>
		</linearGradient>
		<path style="fill:url(#SVGID_00000101060924269994359340000007884173089077958553_);" d="M1000.4,273.1c-1.1,0.5-1.5,1.9-0.8,2.9
			l0.1,0.1c0.9,1.4,2.5,2.2,4.2,2c2.3-0.3,14.9-5.8,17-8.6c1.1-1.4,1.1-3.2,0.2-4.6l-0.1-0.1c-0.6-0.9-1.7-1.2-2.6-0.7L1000.4,273.1
			z"/>
		
			<linearGradient id="SVGID_00000100368257259781604640000011213608240413101738_" gradientUnits="userSpaceOnUse" x1="273.0966" y1="55.6993" x2="296.4786" y2="55.6993" gradientTransform="matrix(0.8412 -0.5407 0.5407 0.8412 740.4832 377.2869)">
			<stop  offset="0" style="stop-color:#311944"/>
			<stop  offset="1" style="stop-color:#A03976"/>
		</linearGradient>
		<path style="fill:url(#SVGID_00000100368257259781604640000011213608240413101738_);" d="M1018.3,264l-17.9,9.1
			c-0.7,0.4-1.1,1.1-1.1,1.8c0.8,0.6,1.9,0.8,2.9,0.7c2.3-0.3,15.6-5.9,17.2-8.4c0.6-1,0.9-2.1,0.7-3.2
			C1019.5,263.7,1018.9,263.7,1018.3,264z"/>
		
			<linearGradient id="SVGID_00000169524748121595166730000014072001855624921492_" gradientUnits="userSpaceOnUse" x1="272.7504" y1="51.4745" x2="296.8361" y2="51.4745" gradientTransform="matrix(0.8412 -0.5407 0.5407 0.8412 740.4832 377.2869)">
			<stop  offset="0" style="stop-color:#311944"/>
			<stop  offset="1" style="stop-color:#A03976"/>
		</linearGradient>
		<path style="fill:url(#SVGID_00000169524748121595166730000014072001855624921492_);" d="M995.9,267.5c-0.7,0.4-0.9,1.4-0.4,2
			l1.8,2.9c0.9,1.4,2.5,2.2,4.2,2c2.3-0.3,15.6-5.9,17.2-8.4c0.9-1.5,1-3.4,0.1-4.9l-3-4.6c-0.4-0.7-1.4-0.9-2-0.4L995.9,267.5z"/>
		
			<linearGradient id="SVGID_00000112613658433149904750000001394026866017545638_" gradientUnits="userSpaceOnUse" x1="284.1953" y1="49.6575" x2="286.5669" y2="38.5544" gradientTransform="matrix(0.8412 -0.5407 0.5407 0.8412 740.4832 377.2869)">
			<stop  offset="0" style="stop-color:#311944"/>
			<stop  offset="1" style="stop-color:#A03976"/>
		</linearGradient>
		<path style="fill:url(#SVGID_00000112613658433149904750000001394026866017545638_);" d="M1015.3,256.4c0.8,1.3-2.9,5.2-8.4,8.7
			c-5.5,3.5-10.6,5.3-11.4,4c-0.8-1.3,2.9-5.2,8.4-8.7C1009.3,256.9,1014.4,255.1,1015.3,256.4z"/>
		
			<linearGradient id="SVGID_00000134951991432627171030000006679484803181461931_" gradientUnits="userSpaceOnUse" x1="279.6425" y1="-12.3029" x2="326.6982" y2="62.4042" gradientTransform="matrix(0.8412 -0.5407 0.5407 0.8412 740.4832 377.2869)">
			<stop  offset="0" style="stop-color:#FCB148"/>
			<stop  offset="5.207239e-02" style="stop-color:#FDBA46"/>
			<stop  offset="0.1424" style="stop-color:#FFC244"/>
			<stop  offset="0.3183" style="stop-color:#FFC444"/>
			<stop  offset="0.4849" style="stop-color:#FDB946"/>
			<stop  offset="0.7754" style="stop-color:#F99C4D"/>
			<stop  offset="0.8658" style="stop-color:#F8924F"/>
			<stop  offset="1" style="stop-color:#F8924F"/>
		</linearGradient>
		<path style="fill:url(#SVGID_00000134951991432627171030000006679484803181461931_);" d="M1007.9,199.3
			c-10.4-16.1-32.5-20.4-49.4-9.5c-16.9,10.9-22.2,32.8-11.9,48.9c6.3,9.8,16.9,15.2,28.1,15.5c4.7,0.1,9.1,2.6,11.7,6.5l1.4,2.2
			c3.1,4.9,9.6,6.3,14.4,3.1l7.5-4.8c4.9-3.1,6.3-9.6,3.1-14.4l-1.4-2.2c-2.6-4-2.9-9-1.1-13.3
			C1014.7,221,1014.2,209.1,1007.9,199.3z"/>
		<path class="st21" d="M1011.4,256.2c0.6,0.9-2.1,3.8-6.1,6.4s-7.7,3.9-8.3,2.9s2.1-3.8,6.1-6.4
			C1007.1,256.6,1010.8,255.3,1011.4,256.2z"/>
		<g>
			
				<linearGradient id="SVGID_00000005240761509995765490000008555172838779225004_" gradientUnits="userSpaceOnUse" x1="271.0451" y1="45.2216" x2="280.6405" y2="17.1903" gradientTransform="matrix(0.8412 -0.5407 0.5407 0.8412 740.4832 377.2869)">
				<stop  offset="0.494" style="stop-color:#EBEFF2"/>
				<stop  offset="1" style="stop-color:#FFFFFF"/>
			</linearGradient>
			<path style="fill:url(#SVGID_00000005240761509995765490000008555172838779225004_);" d="M1003,263.1c-0.2,0.1-0.5,0.1-0.6-0.1
				l-31.9-37.9c-0.2-0.2-0.1-0.5,0.1-0.7c0.2-0.2,0.5-0.1,0.7,0.1l31.9,37.9C1003.3,262.6,1003.3,262.9,1003,263.1
				C1003,263.1,1003,263.1,1003,263.1z"/>
			
				<linearGradient id="SVGID_00000029759431678621404300000004004704577759553409_" gradientUnits="userSpaceOnUse" x1="280.2184" y1="48.3618" x2="289.8136" y2="20.331" gradientTransform="matrix(0.8412 -0.5407 0.5407 0.8412 740.4832 377.2869)">
				<stop  offset="0.494" style="stop-color:#EBEFF2"/>
				<stop  offset="1" style="stop-color:#FFFFFF"/>
			</linearGradient>
			<path style="fill:url(#SVGID_00000029759431678621404300000004004704577759553409_);" d="M1006.3,261
				C1006.3,261,1006.3,261,1006.3,261c-0.3,0.1-0.6,0-0.7-0.2L984.3,216c-0.1-0.2,0-0.5,0.2-0.7c0.2-0.1,0.5,0,0.7,0.2l21.3,44.8
				C1006.6,260.6,1006.5,260.9,1006.3,261z"/>
			
				<linearGradient id="SVGID_00000181803201111254273050000000544580455211995788_" gradientUnits="userSpaceOnUse" x1="267.7072" y1="44.0729" x2="277.3015" y2="16.0449" gradientTransform="matrix(0.8412 -0.5407 0.5407 0.8412 740.4832 377.2869)">
				<stop  offset="0.494" style="stop-color:#EBEFF2"/>
				<stop  offset="1" style="stop-color:#FFFFFF"/>
			</linearGradient>
			<path style="fill:url(#SVGID_00000181803201111254273050000000544580455211995788_);" d="M983.8,216.5c-0.1,0.1-0.3,0.1-0.5,0
				l-2.9-1.3c0,0-0.1,0-0.1,0c0,0,0,0.1,0,0.1l0.1,2.2c0,0.4-0.2,0.7-0.5,0.9c-0.3,0.2-0.7,0.2-1,0.1l-2.6-1.1c0,0-0.1,0-0.1,0
				c0,0,0,0,0,0.1l-0.1,2.4c0,0.4-0.2,0.7-0.5,0.9c0,0,0,0,0,0c-0.3,0.2-0.7,0.2-1,0.1l-3.2-1.3c0,0-0.1,0-0.1,0c0,0,0,0,0,0.1
				l0.2,3.6c0,0.3-0.2,0.5-0.5,0.5c-0.3,0-0.5-0.2-0.5-0.5l-0.2-3.6c0-0.4,0.2-0.7,0.5-0.9c0.3-0.2,0.7-0.3,1-0.1l3.2,1.3
				c0,0,0.1,0,0.1,0h0c0,0,0,0,0-0.1l0.1-2.4c0-0.4,0.2-0.7,0.5-0.9c0.3-0.2,0.7-0.2,1-0.1l2.6,1.1c0,0,0.1,0,0.1,0c0,0,0-0.1,0-0.1
				l-0.1-2.2c0-0.4,0.2-0.7,0.5-0.9c0.3-0.2,0.7-0.2,1-0.1l2.9,1.3c0.3,0.1,0.4,0.4,0.3,0.7C983.9,216.3,983.9,216.4,983.8,216.5z"
				/>
		</g>
		
			<linearGradient id="SVGID_00000072999162308164590210000016899202791864599211_" gradientUnits="userSpaceOnUse" x1="281.2951" y1="-29.1443" x2="271.9155" y2="48.1565" gradientTransform="matrix(0.8412 -0.5407 0.5407 0.8412 740.4832 377.2869)">
			<stop  offset="0" style="stop-color:#FCB148"/>
			<stop  offset="5.207239e-02" style="stop-color:#FDBA46"/>
			<stop  offset="0.1424" style="stop-color:#FFC244"/>
			<stop  offset="0.3183" style="stop-color:#FFC444"/>
			<stop  offset="0.4849" style="stop-color:#FDB946"/>
			<stop  offset="0.7754" style="stop-color:#F99C4D"/>
			<stop  offset="0.8658" style="stop-color:#F8924F"/>
			<stop  offset="1" style="stop-color:#F8924F"/>
		</linearGradient>
		<path style="opacity:0.3;fill:url(#SVGID_00000072999162308164590210000016899202791864599211_);" d="M992.7,241.7
			c-6.6-11.7,10.7-26.5,4.2-36.5c-4-6.2-14.5-5.9-16.7-5.8c-16.2,0.8-25.8,18-32.3,14.4c-1.6-0.9-2.3-2.6-2.6-3.6
			c-0.5-1.5-0.6-3.1-0.3-4.9c-5,10.6-4.8,23.1,1.8,33.4c6.3,9.8,16.9,15.2,28.1,15.5c4.7,0.1,9.1,2.6,11.7,6.5l1.4,2.2
			c3.1,4.9,9.6,6.3,14.4,3.1l7.5-4.8c4.9-3.1,6.3-9.6,3.1-14.4l-1.1-1.8c-0.5,1.5-1.4,2.8-2.7,3.6
			C1004.5,251.5,995.9,247.5,992.7,241.7z"/>
		
			<ellipse transform="matrix(0.8412 -0.5407 0.5407 0.8412 36.4881 563.9507)" class="st26" cx="978.5" cy="219.8" rx="31.3" ry="30.2"/>
	</g>
	<g>
		<path class="st1" d="M877,286.4c-3.9,1.2-8.4,0.1-11.3-3l-41.2-44.2c-3.8-4-3.5-10.2,0.5-13.9c4.1-3.7,12.4-4.2,16.2-0.2l42,44.5
			c4,4.2,3.6,10.5-0.7,14.1C881.4,284.6,878.3,286,877,286.4z"/>
		<path class="st1" d="M825,225.3c4.1-3.7,12.4-4.2,16.2-0.2l38.4,40.7c-3.7,0.4-7.8,2-12.9,0c-8.6-3.3-8.1-11.7-15.6-16.3
			c-3.4-2.1-8.9-3.6-18.1-1.2l-8.5-9.1C820.7,235.2,820.9,229,825,225.3z"/>
		
			<linearGradient id="SVGID_00000011752059332112938200000013945205107183511952_" gradientUnits="userSpaceOnUse" x1="316.2976" y1="113.5593" x2="340.1491" y2="113.5593" gradientTransform="matrix(0.9371 -0.3492 0.3492 0.9371 470.1005 244.3595)">
			<stop  offset="0" style="stop-color:#FFC444"/>
			<stop  offset="0.9964" style="stop-color:#F36F56"/>
		</linearGradient>
		<path style="fill:url(#SVGID_00000011752059332112938200000013945205107183511952_);" d="M808,219.8c0.2-0.1,0.4-0.1,0.6-0.2
			l13.4-5.2l13,35l-13.1,4.7c-0.3,0.2-0.6,0.4-1,0.5c-4.6,1.7-11.2-4.7-14.8-14.3C802.6,230.7,803.4,221.6,808,219.8z"/>
		
			<linearGradient id="SVGID_00000158747792138744018120000009651093598791952514_" gradientUnits="userSpaceOnUse" x1="-2368.7393" y1="57.0996" x2="-2339.7776" y2="217.2931" gradientTransform="matrix(0.9371 -0.3492 0.3492 0.9371 3051.7505 -717.601)">
			<stop  offset="0" style="stop-color:#AA80F9"/>
			<stop  offset="0.9964" style="stop-color:#6165D7"/>
		</linearGradient>
		<path style="fill:url(#SVGID_00000158747792138744018120000009651093598791952514_);" d="M822,214.5c-0.8,13.5,3.6,25.1,13,35
			l112-5.1l-35.5-98.5L822,214.5z"/>
		
			<linearGradient id="SVGID_00000129898721313492112130000002680552066660483482_" gradientUnits="userSpaceOnUse" x1="-2378.6501" y1="57.389" x2="-2349.3271" y2="219.582" gradientTransform="matrix(0.9371 -0.3492 0.3492 0.9371 3051.7505 -717.601)">
			<stop  offset="0" style="stop-color:#AA80F9"/>
			<stop  offset="0.9964" style="stop-color:#6165D7"/>
		</linearGradient>
		<path style="opacity:0.3;fill:url(#SVGID_00000129898721313492112130000002680552066660483482_);" d="M909.3,225.6
			c-10.9-0.1-19-12.8-30.2-9.1c-8.8,2.9-8.3,12.3-17.1,14.5c-9,2.3-14-6.5-25-6.2c-5,0.1-9.5,2.1-13.5,5.1c2,7.2,5.8,13.7,11.5,19.6
			l112-5.1l-18.3-31.1C921,222.7,914.6,225.6,909.3,225.6z"/>
		
			<linearGradient id="SVGID_00000080207434442789268890000008734920177017328533_" gradientUnits="userSpaceOnUse" x1="-114.6463" y1="79.427" x2="-172.3371" y2="147.4644" gradientTransform="matrix(-0.9371 0.3492 0.3492 0.9371 759.3881 136.8975)">
			<stop  offset="3.597120e-03" style="stop-color:#E38DDD"/>
			<stop  offset="1" style="stop-color:#9571F6"/>
		</linearGradient>
		<path style="fill:url(#SVGID_00000080207434442789268890000008734920177017328533_);" d="M909.1,202.2
			c10.4,28,29.8,46.7,43.2,41.7c13.4-5,15.9-31.8,5.4-59.8c-10.4-28-29.8-46.7-43.2-41.7C901.1,147.4,898.7,174.1,909.1,202.2z"/>
		
			<linearGradient id="SVGID_00000091695176888412765690000005676488329541075612_" gradientUnits="userSpaceOnUse" x1="430.1761" y1="113.7622" x2="476.2093" y2="113.7622" gradientTransform="matrix(0.9371 -0.3492 0.3492 0.9371 470.1005 244.3595)">
			<stop  offset="0" style="stop-color:#D8DEE8"/>
			<stop  offset="1" style="stop-color:#FFFFFF"/>
		</linearGradient>
		<path style="fill:url(#SVGID_00000091695176888412765690000005676488329541075612_);" d="M951.7,242.1c2.9-1.1,5.2-3.3,7-6.7
			c1.8-3.4,3-7.8,3.5-13.1c1-11-1.2-24.4-6.1-37.7c-5-13.3-12.1-24.9-20.1-32.5c-3.8-3.7-7.6-6.2-11.2-7.6c-3.6-1.4-6.8-1.5-9.7-0.5
			c-2.9,1.1-5.2,3.3-7,6.7c-1.8,3.4-3,7.8-3.5,13.1c-0.4,4.6-0.3,9.6,0.4,14.9c0.9,7.3,8.1,12.6,11,20.4c3.1,8.2,1.7,18.2,6.1,24.6
			c2.7,3.9,5.6,7.4,8.7,10.4c3.8,3.7,7.6,6.2,11.2,7.6C945.6,243,948.9,243.2,951.7,242.1z"/>
		<g>
			<defs>
				<path id="SVGID_00000085228028202364542530000016561925031352843151_" d="M951.7,242.1c2.9-1.1,5.2-3.3,7-6.7
					c1.8-3.4,3-7.8,3.5-13.1c1-11-1.2-24.4-6.1-37.7c-5-13.3-12.1-24.9-20.1-32.5c-3.8-3.7-7.6-6.2-11.2-7.6
					c-3.6-1.4-6.8-1.5-9.7-0.5c-2.9,1.1-5.2,3.3-7,6.7c-1.8,3.4-3,7.8-3.5,13.1c-1,11,1.2,24.4,6.1,37.7c5,13.3,12.1,24.9,20.1,32.5
					c3.8,3.7,7.6,6.2,11.2,7.6C945.6,243,948.9,243.2,951.7,242.1z"/>
			</defs>
			<clipPath id="SVGID_00000161628427063663213290000010471450227279218100_">
				<use xlink:href="#SVGID_00000085228028202364542530000016561925031352843151_"  style="overflow:visible;"/>
			</clipPath>
			
				<linearGradient id="SVGID_00000096048385771378243140000009572420054635253940_" gradientUnits="userSpaceOnUse" x1="-2329.9695" y1="62.1602" x2="-2311.0598" y2="166.7536" gradientTransform="matrix(0.9371 -0.3492 0.3492 0.9371 3051.7505 -717.601)">
				<stop  offset="0" style="stop-color:#FFC444"/>
				<stop  offset="0.9964" style="stop-color:#F36F56"/>
			</linearGradient>
			
				<path style="clip-path:url(#SVGID_00000161628427063663213290000010471450227279218100_);fill:url(#SVGID_00000096048385771378243140000009572420054635253940_);" d="
				M935.7,193c4.8,12.9,0.1,26.2-10.4,29.8c-10.3,3.5-22.3-3.8-26.9-16.3c-4.7-12.5-0.3-25.7,9.8-29.6
				C918.6,173,930.9,180.2,935.7,193z"/>
			
				<linearGradient id="SVGID_00000010269161355850171700000015851417692970834358_" gradientUnits="userSpaceOnUse" x1="-2319.0654" y1="75.6346" x2="-2305.113" y2="152.8084" gradientTransform="matrix(0.9371 -0.3492 0.3492 0.9371 3051.7505 -717.601)">
				<stop  offset="0" style="stop-color:#FFC444"/>
				<stop  offset="0.9964" style="stop-color:#F36F56"/>
			</linearGradient>
			
				<path style="opacity:0.3;clip-path:url(#SVGID_00000161628427063663213290000010471450227279218100_);fill:url(#SVGID_00000010269161355850171700000015851417692970834358_);" d="
				M934,193.4c3.6,9.5,2.2,18.7-2.9,20.4c-5,1.7-11.9-4.5-15.3-13.8c-3.5-9.3-2.3-18.3,2.6-20.3C923.4,177.7,930.4,183.9,934,193.4z
				"/>
		</g>
	</g>
	<g>
		
			<linearGradient id="SVGID_00000036960546660716970010000000453651203792628659_" gradientUnits="userSpaceOnUse" x1="512.553" y1="688.9296" x2="451.1274" y2="790.6657">
			<stop  offset="0" style="stop-color:#AB316D"/>
			<stop  offset="1" style="stop-color:#792D3D"/>
		</linearGradient>
		<polygon style="fill:url(#SVGID_00000036960546660716970010000000453651203792628659_);" points="574.4,655.8 580.1,657.7 
			601.1,600 580.1,503.9 574.4,505.8 		"/>
		
			<linearGradient id="SVGID_00000050660094218287759990000007739187156496927383_" gradientUnits="userSpaceOnUse" x1="708.5119" y1="837.931" x2="623.0161" y2="1007.4227">
			<stop  offset="0" style="stop-color:#AB316D"/>
			<stop  offset="1" style="stop-color:#792D3D"/>
		</linearGradient>
		<polygon style="fill:url(#SVGID_00000050660094218287759990000007739187156496927383_);" points="574.4,854.5 580.1,865.2 
			981.9,696.1 574.4,703.7 		"/>
		
			<linearGradient id="SVGID_00000045614377396797563310000010781034968869764780_" gradientUnits="userSpaceOnUse" x1="452.8124" y1="381.6599" x2="738.6841" y2="381.6599">
			<stop  offset="0" style="stop-color:#AA80F9"/>
			<stop  offset="0.9964" style="stop-color:#6165D7"/>
		</linearGradient>
		<polygon style="fill:url(#SVGID_00000045614377396797563310000010781034968869764780_);" points="574.4,461.2 860.3,467 
			580.1,296.4 574.4,307.4 		"/>
		
			<linearGradient id="SVGID_00000093163715683910241820000010495560618603900601_" gradientUnits="userSpaceOnUse" x1="580.1423" y1="376.1624" x2="866.0139" y2="376.1624">
			<stop  offset="0" style="stop-color:#AA80F9"/>
			<stop  offset="0.9964" style="stop-color:#6165D7"/>
		</linearGradient>
		<polygon style="fill:url(#SVGID_00000093163715683910241820000010495560618603900601_);" points="580.1,450.2 866,456 866,308.6 
			580.1,296.4 		"/>
		
			<linearGradient id="SVGID_00000047752544642967607080000017235523805681850752_" gradientUnits="userSpaceOnUse" x1="976.6694" y1="531.5334" x2="555.1261" y2="610.9152">
			<stop  offset="0" style="stop-color:#FCB148"/>
			<stop  offset="5.207239e-02" style="stop-color:#FDBA46"/>
			<stop  offset="0.1424" style="stop-color:#FFC244"/>
			<stop  offset="0.3183" style="stop-color:#FFC444"/>
			<stop  offset="0.4849" style="stop-color:#FDB946"/>
			<stop  offset="0.7754" style="stop-color:#F99C4D"/>
			<stop  offset="0.8658" style="stop-color:#F8924F"/>
			<stop  offset="1" style="stop-color:#F8924F"/>
		</linearGradient>
		<polygon style="fill:url(#SVGID_00000047752544642967607080000017235523805681850752_);" points="580.1,657.7 866,654.7 
			866,507.4 580.1,503.9 		"/>
		
			<linearGradient id="SVGID_00000157271810789456223420000001073580100011361437_" gradientUnits="userSpaceOnUse" x1="580.1423" y1="784.5416" x2="987.6577" y2="784.5416">
			<stop  offset="0" style="stop-color:#FF9085"/>
			<stop  offset="1" style="stop-color:#FB6FBB"/>
		</linearGradient>
		<polygon style="fill:url(#SVGID_00000157271810789456223420000001073580100011361437_);" points="580.1,865.2 987.7,848.4 
			987.7,703.9 580.1,711.4 		"/>
		<g>
			
				<linearGradient id="SVGID_00000004544062030273884960000014910677301915544470_" gradientUnits="userSpaceOnUse" x1="1009.0819" y1="352.6309" x2="1160.7778" y2="145.0472">
				<stop  offset="0" style="stop-color:#AA80F9"/>
				<stop  offset="0.9964" style="stop-color:#6165D7"/>
			</linearGradient>
			<path style="fill:url(#SVGID_00000004544062030273884960000014910677301915544470_);" d="M1275.9,328.3
				c0-26.9-111.6-54.3-255.1-61.6c-150.3-7.6-277.5,9.7-277.5,38.9c0,2.4,0.9,4.7,2.5,7.1l50,141.8l435.2,8.8l42.9-128.7
				C1275.2,332.6,1275.9,330.5,1275.9,328.3z"/>
			
				<linearGradient id="SVGID_00000029023666696757163060000002526762373499770762_" gradientUnits="userSpaceOnUse" x1="1131.5222" y1="413.4627" x2="845.1649" y2="752.4012">
				<stop  offset="0" style="stop-color:#FCB148"/>
				<stop  offset="5.207239e-02" style="stop-color:#FDBA46"/>
				<stop  offset="0.1424" style="stop-color:#FFC244"/>
				<stop  offset="0.3183" style="stop-color:#FFC444"/>
				<stop  offset="0.4849" style="stop-color:#FDB946"/>
				<stop  offset="0.7754" style="stop-color:#F99C4D"/>
				<stop  offset="0.8658" style="stop-color:#F8924F"/>
				<stop  offset="1" style="stop-color:#F8924F"/>
			</linearGradient>
			<path style="fill:url(#SVGID_00000029023666696757163060000002526762373499770762_);" d="M1214.1,513.6c0.2-0.4,0.4-0.7,0.4-1.1
				c0-9.7-85.2-18.9-193.7-20.5c-112.3-1.7-206.3,5.3-206.3,15.7c0,0.4,0.1,0.8,0.4,1.1l50.9,144.4c0,0.1,0,0.1,0,0.2
				c0,10.8,70.4,18.6,155.1,17.5c82.5-1.1,147.8-10.3,147.8-20.6c0,0,0-0.1,0-0.1L1214.1,513.6z"/>
			
				<linearGradient id="SVGID_00000114771311615532506350000013589058680418765748_" gradientUnits="userSpaceOnUse" x1="839.2144" y1="800.0129" x2="1277.1801" y2="751.0754">
				<stop  offset="0" style="stop-color:#FF9085"/>
				<stop  offset="1" style="stop-color:#FB6FBB"/>
			</linearGradient>
			<path style="fill:url(#SVGID_00000114771311615532506350000013589058680418765748_);" d="M1151.8,700.5l-267.7,4.9l50.3,142.6
				l0.1,0c1.5,13.5,39.9,22.6,86.4,20.6c45.8-2,82.7-14.3,84.1-27.5l0,0L1151.8,700.5z"/>
			<g class="st4">
				
					<linearGradient id="SVGID_00000176753514789205514530000007971504659349262739_" gradientUnits="userSpaceOnUse" x1="1090.2732" y1="356.5426" x2="790.3544" y2="711.5328">
					<stop  offset="0" style="stop-color:#FCB148"/>
					<stop  offset="5.207239e-02" style="stop-color:#FDBA46"/>
					<stop  offset="0.1424" style="stop-color:#FFC244"/>
					<stop  offset="0.3183" style="stop-color:#FFC444"/>
					<stop  offset="0.4849" style="stop-color:#FDB946"/>
					<stop  offset="0.7754" style="stop-color:#F99C4D"/>
					<stop  offset="0.8658" style="stop-color:#F8924F"/>
					<stop  offset="1" style="stop-color:#F8924F"/>
				</linearGradient>
				<path style="fill:url(#SVGID_00000176753514789205514530000007971504659349262739_);" d="M967.6,597.2
					c0.6-40.2,7.4-74.4,14.6-105.4c-94.5,0.3-167.8,6.8-167.8,15.9c0,0.4,0.1,0.8,0.4,1.1l50.9,144.4c0,0.1,0,0.1,0,0.2
					c0,8.7,45.7,15.5,107.9,17.2C968.8,643.6,967.3,619,967.6,597.2z"/>
			</g>
			<g class="st4">
				
					<linearGradient id="SVGID_00000031896072585216989060000018139531459387814038_" gradientUnits="userSpaceOnUse" x1="838.6545" y1="800.0757" x2="1281.0948" y2="750.6382">
					<stop  offset="0" style="stop-color:#FF9085"/>
					<stop  offset="1" style="stop-color:#FB6FBB"/>
				</linearGradient>
				<path style="fill:url(#SVGID_00000031896072585216989060000018139531459387814038_);" d="M884.1,705.4l50.3,142.6l0.1,0
					c1.5,13.5,39.9,22.6,86.4,20.6c13.1-0.6,25.4-2,36.3-4c-40.2-59-63.4-113.1-76.1-161L884.1,705.4z"/>
			</g>
			<g class="st4">
				
					<linearGradient id="SVGID_00000127754424924333576480000007917037815362323592_" gradientUnits="userSpaceOnUse" x1="938.8528" y1="281.5769" x2="1102.1588" y2="58.1056">
					<stop  offset="0" style="stop-color:#AA80F9"/>
					<stop  offset="0.9964" style="stop-color:#6165D7"/>
				</linearGradient>
				<path style="fill:url(#SVGID_00000127754424924333576480000007917037815362323592_);" d="M989.3,335
					c-10.8-27.5-28.4-50.6-50.2-70c-112.1,1.1-195.8,17-195.8,40.6c0,2.4,0.9,4.7,2.5,7.1l50,141.8l194.4,3.9
					C1000,415.8,1006,377.8,989.3,335z"/>
			</g>
			
				<linearGradient id="SVGID_00000092424438726215466420000010109638638369205651_" gradientUnits="userSpaceOnUse" x1="1032.3126" y1="673.8121" x2="948.9791" y2="843.1456">
				<stop  offset="0" style="stop-color:#AB316D"/>
				<stop  offset="1" style="stop-color:#792D3D"/>
			</linearGradient>
			<path style="fill:url(#SVGID_00000092424438726215466420000010109638638369205651_);" d="M1151.8,700.5c0,9-58,17.5-131,19
				c-74.8,1.6-136.7-4.7-136.7-14.1c0-9.4,61.9-17.9,136.7-19.1C1093.8,685.2,1151.8,691.5,1151.8,700.5z"/>
			
				<linearGradient id="SVGID_00000096763490232271232090000007270173751300244139_" gradientUnits="userSpaceOnUse" x1="990.0216" y1="536.3007" x2="1012.2079" y2="462.6422">
				<stop  offset="0" style="stop-color:#AA80F9"/>
				<stop  offset="0.9964" style="stop-color:#6165D7"/>
			</linearGradient>
			<path style="fill:url(#SVGID_00000096763490232271232090000007270173751300244139_);" d="M1230.8,463.3c0-8.5-92.3-17.5-210-20.1
				c-122.3-2.8-225,2.3-225,11.4c0,9.1,102.7,18.3,225,20.4C1138.6,477.1,1230.8,471.8,1230.8,463.3z"/>
		</g>
		<g>
			<polygon class="st2" points="725.8,372.9 618.5,367.1 618.5,331.8 725.8,338.2 			"/>
			<polygon class="st2" points="725.8,398.1 618.5,392.8 618.5,379.5 725.8,385 			"/>
			<polygon class="st2" points="725.8,423.3 618.5,418.5 618.5,405.2 725.8,410.2 			"/>
		</g>
		<g>
			<polygon class="st2" points="725.8,575 618.5,573 618.5,537.7 725.8,540.4 			"/>
			<polygon class="st2" points="725.8,600.2 618.5,598.7 618.5,585.4 725.8,587.1 			"/>
			<polygon class="st2" points="725.8,625.4 618.5,624.4 618.5,611.1 725.8,612.4 			"/>
		</g>
		<g>
			<polygon class="st2" points="725.8,777.3 618.5,779.1 618.5,743.8 725.8,742.6 			"/>
			<polygon class="st2" points="725.8,802.5 618.5,804.8 618.5,791.5 725.8,789.4 			"/>
			<polygon class="st2" points="725.8,827.7 618.5,830.5 618.5,817.2 725.8,814.7 			"/>
		</g>
	</g>
	<g>
		<g>
			
				<linearGradient id="SVGID_00000118375140099669037850000013778631907202214292_" gradientUnits="userSpaceOnUse" x1="762.1032" y1="923.4593" x2="923.5394" y2="923.4593">
				<stop  offset="0" style="stop-color:#FCB148"/>
				<stop  offset="5.207239e-02" style="stop-color:#FDBA46"/>
				<stop  offset="0.1424" style="stop-color:#FFC244"/>
				<stop  offset="0.3183" style="stop-color:#FFC444"/>
				<stop  offset="0.4849" style="stop-color:#FDB946"/>
				<stop  offset="0.7754" style="stop-color:#F99C4D"/>
				<stop  offset="0.8658" style="stop-color:#F8924F"/>
				<stop  offset="1" style="stop-color:#F8924F"/>
			</linearGradient>
			<path style="fill:url(#SVGID_00000118375140099669037850000013778631907202214292_);" d="M774.1,911.1v15.6
				c0,5,31.4,9.1,70.2,9.1c38.7,0,70.2-4.1,70.2-9.1v-15.6H774.1z"/>
			
				<linearGradient id="SVGID_00000102524022888071365300000001937846874760685451_" gradientUnits="userSpaceOnUse" x1="843.5632" y1="905.274" x2="852.074" y2="976.5215">
				<stop  offset="0" style="stop-color:#FFDB44"/>
				<stop  offset="1" style="stop-color:#FEEF06"/>
			</linearGradient>
			
				<ellipse style="fill:url(#SVGID_00000102524022888071365300000001937846874760685451_);" cx="844.3" cy="911.1" rx="70.2" ry="9.1"/>
			
				<linearGradient id="SVGID_00000066509285122842050780000008307470755397528969_" gradientUnits="userSpaceOnUse" x1="843.1932" y1="902.0967" x2="845.807" y2="923.9779">
				<stop  offset="0" style="stop-color:#FFDB44"/>
				<stop  offset="1" style="stop-color:#FEEF06"/>
			</linearGradient>
			<path style="fill:url(#SVGID_00000066509285122842050780000008307470755397528969_);" d="M844.3,920.9c-34.3,0-70.2-3.3-70.2-9.6
				c0-0.3,0.1-1,0.5-1c0.3,0,0.2,0.5,0.2,0.8c0,4,28.6,8.5,69.5,8.5c41,0,69.5-4.5,69.5-8.5c0-0.3,0.1-0.7,0.4-0.7
				c0.3,0,0.3,0.5,0.3,0.8C914.5,917.6,878.6,920.9,844.3,920.9z"/>
			<g>
				<path class="st51" d="M837.6,911.6c0.7-0.5,1.4-0.9,2.2-1.4c0.8-0.5,1.8-0.9,3-1.3c1.2-0.4,2.8-0.7,4.6-0.9
					c1.9-0.2,4.2-0.4,6.9-0.4c2.7,0,5.3,0.1,7.6,0.3c2.4,0.2,4.5,0.5,6.3,0.8c1.8,0.4,3.3,0.8,4.4,1.4c1.1,0.5,1.8,1.2,2,1.9
					l7.9,0.1c0.6,0,1.1,0.1,1.5,0.1c0.4,0.1,0.7,0.2,0.7,0.3l0,0.7l-10.2-0.1c-0.4,0.8-1.3,1.5-2.7,2.2c-1.5,0.7-3.3,1.2-5.6,1.7
					l-3.7-0.5c-0.3-0.1-0.6-0.1-0.8-0.2c-0.2-0.1-0.3-0.2-0.3-0.3c0-0.1,0.3-0.3,0.9-0.4c0.6-0.2,1.2-0.4,1.9-0.6
					c0.7-0.2,1.4-0.5,2.1-0.8c0.7-0.3,1.2-0.7,1.4-1.2l-24-0.2c-0.6,0.5-1.3,0.9-2.1,1.4c-0.8,0.4-1.8,0.9-3.1,1.2
					c-1.3,0.4-2.9,0.6-4.8,0.9c-1.9,0.2-4.3,0.3-7.3,0.4c-2.2,0-4.3-0.1-6.4-0.2c-2.1-0.2-4-0.4-5.6-0.8c-1.6-0.4-3-0.8-4-1.3
					c-1-0.5-1.6-1.1-1.7-1.8l-6.5-0.1c-0.6,0-1.1,0-1.5-0.1c-0.4-0.1-0.7-0.2-0.7-0.3l0-0.7l8.9,0.1c0.4-0.7,1.2-1.3,2.4-1.8
					c1.2-0.5,2.7-1,4.5-1.4l3,0.4c0.9,0.1,1.4,0.3,1.4,0.4c0,0.1-0.2,0.2-0.6,0.3c-0.4,0.1-0.8,0.3-1.3,0.5c-0.5,0.2-1,0.4-1.5,0.7
					c-0.5,0.3-0.8,0.5-1.1,0.9L837.6,911.6z M815.7,912.5c0.2,0.4,0.6,0.8,1.2,1.1c0.6,0.3,1.4,0.6,2.3,0.8c0.9,0.2,1.9,0.3,3,0.4
					c1.1,0.1,2.3,0.1,3.6,0.1c1.4,0,2.7-0.1,3.8-0.2c1.1-0.1,2-0.3,2.8-0.5c0.8-0.2,1.5-0.4,2.1-0.7c0.6-0.3,1.1-0.6,1.6-0.9
					L815.7,912.5z M867.9,911.9c-0.2-0.4-0.6-0.8-1.3-1.1c-0.7-0.3-1.5-0.6-2.6-0.8c-1.1-0.2-2.3-0.4-3.7-0.5
					c-1.4-0.1-2.9-0.2-4.6-0.1c-1.5,0-2.8,0.1-3.9,0.2c-1.1,0.1-2,0.3-2.8,0.5c-0.8,0.2-1.5,0.5-2,0.7c-0.6,0.3-1.1,0.6-1.6,0.9
					L867.9,911.9z"/>
			</g>
			
				<linearGradient id="SVGID_00000000925568095625669110000014569287708281447830_" gradientUnits="userSpaceOnUse" x1="-966.4013" y1="576.1548" x2="-963.7968" y2="597.9586" gradientTransform="matrix(-1 0 0 -1 -120.751 1497.8387)">
				<stop  offset="3.597120e-03" style="stop-color:#F36F56"/>
				<stop  offset="0.3059" style="stop-color:#F99C4C"/>
				<stop  offset="0.545" style="stop-color:#FDB946"/>
				<stop  offset="0.6817" style="stop-color:#FFC444"/>
				<stop  offset="0.8038" style="stop-color:#FFC244"/>
				<stop  offset="0.8667" style="stop-color:#FEBA46"/>
				<stop  offset="0.916" style="stop-color:#FCAD49"/>
				<stop  offset="0.958" style="stop-color:#F99A4D"/>
				<stop  offset="0.9955" style="stop-color:#F58152"/>
				<stop  offset="1" style="stop-color:#F57E53"/>
			</linearGradient>
			<path style="fill:url(#SVGID_00000000925568095625669110000014569287708281447830_);" d="M844.3,903c-31.3,0-63.9,2.8-69.1,8.1
				c0.2,0.2,0.4,0.4,0.6,0.6c4.4-3.7,31.3-7.4,68.5-7.4c38.2,0,65.5,3.9,68.8,7.7c0.2-0.2,0.3-0.4,0.5-0.6
				C909.3,905.9,876.1,903,844.3,903z"/>
		</g>
		<g>
			
				<linearGradient id="SVGID_00000014625619683051313310000013496895513115142060_" gradientUnits="userSpaceOnUse" x1="742.5986" y1="907.1127" x2="904.0345" y2="907.1127">
				<stop  offset="0" style="stop-color:#FCB148"/>
				<stop  offset="5.207239e-02" style="stop-color:#FDBA46"/>
				<stop  offset="0.1424" style="stop-color:#FFC244"/>
				<stop  offset="0.3183" style="stop-color:#FFC444"/>
				<stop  offset="0.4849" style="stop-color:#FDB946"/>
				<stop  offset="0.7754" style="stop-color:#F99C4D"/>
				<stop  offset="0.8658" style="stop-color:#F8924F"/>
				<stop  offset="1" style="stop-color:#F8924F"/>
			</linearGradient>
			<path style="fill:url(#SVGID_00000014625619683051313310000013496895513115142060_);" d="M754.6,894.8v15.6
				c0,5,31.4,9.1,70.2,9.1c38.7,0,70.2-4.1,70.2-9.1v-15.6H754.6z"/>
			
				<linearGradient id="SVGID_00000070839932376826337790000001250003790387695756_" gradientUnits="userSpaceOnUse" x1="824.0585" y1="888.9277" x2="832.5692" y2="960.175">
				<stop  offset="0" style="stop-color:#FFDB44"/>
				<stop  offset="1" style="stop-color:#FEEF06"/>
			</linearGradient>
			
				<ellipse style="fill:url(#SVGID_00000070839932376826337790000001250003790387695756_);" cx="824.8" cy="894.8" rx="70.2" ry="9.1"/>
			
				<linearGradient id="SVGID_00000032650195979125469050000003599447642843881610_" gradientUnits="userSpaceOnUse" x1="823.6883" y1="885.7504" x2="826.3021" y2="907.6315">
				<stop  offset="0" style="stop-color:#FFDB44"/>
				<stop  offset="1" style="stop-color:#FEEF06"/>
			</linearGradient>
			<path style="fill:url(#SVGID_00000032650195979125469050000003599447642843881610_);" d="M824.8,904.5c-34.3,0-70.2-3.3-70.2-9.6
				c0-0.3,0.1-1,0.5-1c0.3,0,0.2,0.5,0.2,0.8c0,4,28.6,8.5,69.5,8.5c41,0,69.5-4.5,69.5-8.5c0-0.3,0.1-0.7,0.4-0.7
				c0.3,0,0.3,0.5,0.3,0.8C895,901.2,859.1,904.5,824.8,904.5z"/>
			<g>
				<path class="st51" d="M818.1,895.3c0.7-0.5,1.4-0.9,2.2-1.4c0.8-0.5,1.8-0.9,3-1.3c1.2-0.4,2.8-0.7,4.6-0.9
					c1.9-0.2,4.2-0.4,6.9-0.4c2.7,0,5.3,0.1,7.6,0.3c2.4,0.2,4.5,0.5,6.3,0.8c1.8,0.4,3.3,0.8,4.4,1.4c1.1,0.5,1.8,1.2,2,1.9
					l7.9,0.1c0.6,0,1.1,0,1.5,0.1c0.4,0.1,0.7,0.2,0.7,0.3l0,0.7l-10.2-0.1c-0.4,0.8-1.3,1.5-2.7,2.2c-1.5,0.7-3.3,1.2-5.6,1.7
					l-3.7-0.5c-0.3-0.1-0.6-0.1-0.8-0.2c-0.2-0.1-0.3-0.2-0.3-0.3c0-0.1,0.3-0.3,0.9-0.4c0.6-0.2,1.2-0.4,1.9-0.6
					c0.7-0.2,1.4-0.5,2.1-0.8c0.7-0.3,1.2-0.7,1.4-1.2l-24-0.2c-0.6,0.5-1.3,0.9-2.1,1.4c-0.8,0.4-1.8,0.9-3.1,1.2
					c-1.3,0.4-2.9,0.6-4.8,0.9c-1.9,0.2-4.3,0.3-7.3,0.4c-2.2,0-4.3-0.1-6.4-0.2c-2.1-0.2-4-0.4-5.6-0.8c-1.6-0.4-3-0.8-4-1.3
					c-1-0.5-1.6-1.1-1.7-1.8l-6.5-0.1c-0.6,0-1.1,0-1.5-0.1c-0.4-0.1-0.7-0.2-0.7-0.3l0-0.7l8.9,0.1c0.4-0.7,1.2-1.3,2.4-1.8
					c1.2-0.5,2.7-1,4.5-1.4l3,0.4c0.9,0.1,1.4,0.3,1.4,0.4c0,0.1-0.2,0.2-0.6,0.3c-0.4,0.1-0.8,0.3-1.3,0.5c-0.5,0.2-1,0.4-1.5,0.7
					c-0.5,0.3-0.8,0.5-1.1,0.9L818.1,895.3z M796.2,896.2c0.2,0.4,0.6,0.8,1.2,1.1c0.6,0.3,1.4,0.6,2.3,0.8c0.9,0.2,1.9,0.3,3,0.4
					c1.1,0.1,2.3,0.1,3.6,0.1c1.4,0,2.7-0.1,3.8-0.2c1.1-0.1,2-0.3,2.8-0.5c0.8-0.2,1.5-0.4,2.1-0.7c0.6-0.3,1.1-0.6,1.6-0.9
					L796.2,896.2z M848.4,895.6c-0.2-0.4-0.6-0.8-1.3-1.1c-0.7-0.3-1.5-0.6-2.6-0.8c-1.1-0.2-2.3-0.4-3.7-0.5
					c-1.4-0.1-2.9-0.2-4.6-0.1c-1.5,0-2.8,0.1-3.9,0.2c-1.1,0.1-2,0.3-2.8,0.5c-0.8,0.2-1.5,0.5-2,0.7c-0.6,0.3-1.1,0.6-1.6,0.9
					L848.4,895.6z"/>
			</g>
			
				<linearGradient id="SVGID_00000070839603268147924020000006618854077849829283_" gradientUnits="userSpaceOnUse" x1="-946.8964" y1="592.5013" x2="-944.2919" y2="614.3049" gradientTransform="matrix(-1 0 0 -1 -120.751 1497.8387)">
				<stop  offset="3.597120e-03" style="stop-color:#F36F56"/>
				<stop  offset="0.3059" style="stop-color:#F99C4C"/>
				<stop  offset="0.545" style="stop-color:#FDB946"/>
				<stop  offset="0.6817" style="stop-color:#FFC444"/>
				<stop  offset="0.8038" style="stop-color:#FFC244"/>
				<stop  offset="0.8667" style="stop-color:#FEBA46"/>
				<stop  offset="0.916" style="stop-color:#FCAD49"/>
				<stop  offset="0.958" style="stop-color:#F99A4D"/>
				<stop  offset="0.9955" style="stop-color:#F58152"/>
				<stop  offset="1" style="stop-color:#F57E53"/>
			</linearGradient>
			<path style="fill:url(#SVGID_00000070839603268147924020000006618854077849829283_);" d="M824.8,886.7c-31.3,0-63.9,2.8-69.1,8.1
				c0.2,0.2,0.4,0.4,0.6,0.6c4.4-3.7,31.3-7.4,68.5-7.4c38.2,0,65.5,3.9,68.8,7.7c0.2-0.2,0.3-0.4,0.5-0.6
				C889.8,889.5,856.6,886.7,824.8,886.7z"/>
		</g>
		<g>
			
				<linearGradient id="SVGID_00000008125916026168426000000012291175482807083669_" gradientUnits="userSpaceOnUse" x1="759.4284" y1="890.8142" x2="920.8646" y2="890.8142">
				<stop  offset="0" style="stop-color:#FCB148"/>
				<stop  offset="5.207239e-02" style="stop-color:#FDBA46"/>
				<stop  offset="0.1424" style="stop-color:#FFC244"/>
				<stop  offset="0.3183" style="stop-color:#FFC444"/>
				<stop  offset="0.4849" style="stop-color:#FDB946"/>
				<stop  offset="0.7754" style="stop-color:#F99C4D"/>
				<stop  offset="0.8658" style="stop-color:#F8924F"/>
				<stop  offset="1" style="stop-color:#F8924F"/>
			</linearGradient>
			<path style="fill:url(#SVGID_00000008125916026168426000000012291175482807083669_);" d="M771.4,878.5V894c0,5,31.4,9.1,70.2,9.1
				c38.7,0,70.2-4.1,70.2-9.1v-15.6H771.4z"/>
			
				<linearGradient id="SVGID_00000107547840068206096500000005267799289784983468_" gradientUnits="userSpaceOnUse" x1="840.8884" y1="872.6291" x2="849.3992" y2="943.8765">
				<stop  offset="0" style="stop-color:#FFDB44"/>
				<stop  offset="1" style="stop-color:#FEEF06"/>
			</linearGradient>
			<path style="fill:url(#SVGID_00000107547840068206096500000005267799289784983468_);" d="M911.8,878.5c0,5-31.4,9.1-70.2,9.1
				c-38.7,0-70.2-4.1-70.2-9.1c0-5,31.4-9.1,70.2-9.1C880.3,869.4,911.8,873.5,911.8,878.5z"/>
			
				<linearGradient id="SVGID_00000183228763633917335730000002703048249002138785_" gradientUnits="userSpaceOnUse" x1="840.5184" y1="869.4518" x2="843.1322" y2="891.3329">
				<stop  offset="0" style="stop-color:#FFDB44"/>
				<stop  offset="1" style="stop-color:#FEEF06"/>
			</linearGradient>
			<path style="fill:url(#SVGID_00000183228763633917335730000002703048249002138785_);" d="M841.6,888.2c-34.3,0-70.2-3.3-70.2-9.6
				c0-0.3,0.1-1,0.5-1c0.3,0,0.2,0.5,0.2,0.8c0,4,28.6,8.5,69.5,8.5c41,0,69.5-4.5,69.5-8.5c0-0.3,0.1-0.7,0.4-0.7
				c0.3,0,0.3,0.5,0.3,0.8C911.8,884.9,875.9,888.2,841.6,888.2z"/>
			<g>
				<path class="st51" d="M835,879c0.7-0.5,1.4-0.9,2.2-1.4c0.8-0.5,1.8-0.9,3-1.3c1.2-0.4,2.8-0.7,4.6-0.9c1.9-0.2,4.2-0.4,6.9-0.4
					c2.7,0,5.3,0.1,7.6,0.3c2.4,0.2,4.5,0.5,6.3,0.8c1.8,0.4,3.3,0.8,4.4,1.4c1.1,0.5,1.8,1.2,2,1.9l7.9,0.1c0.6,0,1.1,0.1,1.5,0.1
					c0.4,0.1,0.7,0.2,0.7,0.3l0,0.7l-10.2-0.1c-0.4,0.8-1.3,1.5-2.7,2.2c-1.5,0.7-3.3,1.2-5.6,1.7l-3.7-0.5
					c-0.3-0.1-0.6-0.1-0.8-0.2c-0.2-0.1-0.3-0.2-0.3-0.3c0-0.1,0.3-0.3,0.9-0.4c0.6-0.2,1.2-0.4,1.9-0.6c0.7-0.2,1.4-0.5,2.1-0.8
					c0.7-0.3,1.2-0.7,1.4-1.2l-24-0.2c-0.6,0.5-1.3,0.9-2.1,1.4c-0.8,0.4-1.8,0.9-3.1,1.2c-1.3,0.4-2.9,0.6-4.8,0.9
					c-1.9,0.2-4.3,0.3-7.3,0.4c-2.2,0-4.3-0.1-6.4-0.2c-2.1-0.2-4-0.4-5.6-0.8c-1.6-0.4-3-0.8-4-1.3c-1-0.5-1.6-1.1-1.7-1.8
					l-6.5-0.1c-0.6,0-1.1,0-1.5-0.1c-0.4-0.1-0.7-0.2-0.7-0.3l0-0.7l8.9,0.1c0.4-0.7,1.2-1.3,2.4-1.8c1.2-0.5,2.7-1,4.5-1.4l3,0.4
					c0.9,0.1,1.4,0.3,1.4,0.4c0,0.1-0.2,0.2-0.6,0.3c-0.4,0.1-0.8,0.3-1.3,0.5c-0.5,0.2-1,0.4-1.5,0.7c-0.5,0.3-0.8,0.5-1.1,0.9
					L835,879z M813,879.9c0.2,0.4,0.6,0.8,1.2,1.1c0.6,0.3,1.4,0.6,2.3,0.8c0.9,0.2,1.9,0.3,3,0.4c1.1,0.1,2.3,0.1,3.5,0.1
					c1.4,0,2.7-0.1,3.8-0.2c1.1-0.1,2-0.3,2.8-0.5c0.8-0.2,1.5-0.4,2.1-0.7s1.1-0.6,1.6-0.9L813,879.9z M865.2,879.3
					c-0.2-0.4-0.6-0.8-1.3-1.1c-0.7-0.3-1.5-0.6-2.6-0.8c-1.1-0.2-2.3-0.4-3.7-0.5c-1.4-0.1-2.9-0.2-4.6-0.1c-1.5,0-2.8,0.1-3.9,0.2
					c-1.1,0.1-2,0.3-2.8,0.5c-0.8,0.2-1.5,0.5-2,0.7c-0.6,0.3-1.1,0.6-1.6,0.9L865.2,879.3z"/>
			</g>
			
				<linearGradient id="SVGID_00000062156639462120232670000000383718670139864232_" gradientUnits="userSpaceOnUse" x1="-963.7265" y1="608.7998" x2="-961.122" y2="630.6035" gradientTransform="matrix(-1 0 0 -1 -120.751 1497.8387)">
				<stop  offset="3.597120e-03" style="stop-color:#F36F56"/>
				<stop  offset="0.3059" style="stop-color:#F99C4C"/>
				<stop  offset="0.545" style="stop-color:#FDB946"/>
				<stop  offset="0.6817" style="stop-color:#FFC444"/>
				<stop  offset="0.8038" style="stop-color:#FFC244"/>
				<stop  offset="0.8667" style="stop-color:#FEBA46"/>
				<stop  offset="0.916" style="stop-color:#FCAD49"/>
				<stop  offset="0.958" style="stop-color:#F99A4D"/>
				<stop  offset="0.9955" style="stop-color:#F58152"/>
				<stop  offset="1" style="stop-color:#F57E53"/>
			</linearGradient>
			<path style="fill:url(#SVGID_00000062156639462120232670000000383718670139864232_);" d="M841.6,870.4c-31.3,0-63.9,2.8-69.1,8.1
				c0.2,0.2,0.4,0.4,0.6,0.6c4.4-3.7,31.3-7.4,68.5-7.4c38.2,0,65.5,3.9,68.8,7.7c0.2-0.2,0.3-0.4,0.5-0.6
				C906.6,873.2,873.4,870.4,841.6,870.4z"/>
		</g>
		<g>
			
				<linearGradient id="SVGID_00000135686567333813016020000009727201562104505728_" gradientUnits="userSpaceOnUse" x1="769.6417" y1="874.4678" x2="931.0775" y2="874.4678">
				<stop  offset="0" style="stop-color:#FCB148"/>
				<stop  offset="5.207239e-02" style="stop-color:#FDBA46"/>
				<stop  offset="0.1424" style="stop-color:#FFC244"/>
				<stop  offset="0.3183" style="stop-color:#FFC444"/>
				<stop  offset="0.4849" style="stop-color:#FDB946"/>
				<stop  offset="0.7754" style="stop-color:#F99C4D"/>
				<stop  offset="0.8658" style="stop-color:#F8924F"/>
				<stop  offset="1" style="stop-color:#F8924F"/>
			</linearGradient>
			<path style="fill:url(#SVGID_00000135686567333813016020000009727201562104505728_);" d="M781.6,862.1v15.6
				c0,5,31.4,9.1,70.2,9.1c38.7,0,70.2-4.1,70.2-9.1v-15.6H781.6z"/>
			
				<linearGradient id="SVGID_00000053533162257654837190000010198058811772528274_" gradientUnits="userSpaceOnUse" x1="851.1015" y1="856.2827" x2="859.6122" y2="927.5302">
				<stop  offset="0" style="stop-color:#FFDB44"/>
				<stop  offset="1" style="stop-color:#FEEF06"/>
			</linearGradient>
			
				<ellipse style="fill:url(#SVGID_00000053533162257654837190000010198058811772528274_);" cx="851.8" cy="862.1" rx="70.2" ry="9.1"/>
			
				<linearGradient id="SVGID_00000010997347032754795870000002284749625888777876_" gradientUnits="userSpaceOnUse" x1="850.7313" y1="853.1052" x2="853.3452" y2="874.9865">
				<stop  offset="0" style="stop-color:#FFDB44"/>
				<stop  offset="1" style="stop-color:#FEEF06"/>
			</linearGradient>
			<path style="fill:url(#SVGID_00000010997347032754795870000002284749625888777876_);" d="M851.8,871.9c-34.3,0-70.2-3.3-70.2-9.6
				c0-0.3,0.1-1,0.5-1c0.3,0,0.2,0.5,0.2,0.8c0,4,28.6,8.5,69.5,8.5c41,0,69.5-4.5,69.5-8.5c0-0.3,0.1-0.7,0.4-0.7
				c0.3,0,0.3,0.5,0.3,0.8C922,868.6,886.1,871.9,851.8,871.9z"/>
			<g>
				<path class="st51" d="M845.2,862.6c0.7-0.5,1.4-0.9,2.2-1.4c0.8-0.5,1.8-0.9,3-1.3c1.2-0.4,2.8-0.7,4.6-0.9
					c1.9-0.2,4.2-0.4,6.9-0.4c2.7,0,5.3,0.1,7.6,0.3c2.4,0.2,4.5,0.5,6.3,0.8c1.8,0.4,3.3,0.8,4.4,1.4c1.1,0.5,1.8,1.2,2,1.9
					l7.9,0.1c0.6,0,1.1,0.1,1.5,0.1c0.4,0.1,0.7,0.2,0.7,0.3l0,0.7l-10.2-0.1c-0.4,0.8-1.3,1.5-2.7,2.2c-1.5,0.7-3.3,1.2-5.6,1.7
					l-3.7-0.5c-0.3-0.1-0.6-0.1-0.8-0.2c-0.2-0.1-0.3-0.2-0.3-0.3c0-0.1,0.3-0.3,0.9-0.4c0.6-0.2,1.2-0.4,1.9-0.6
					c0.7-0.2,1.4-0.5,2.1-0.8c0.7-0.3,1.2-0.7,1.4-1.2l-24-0.2c-0.6,0.5-1.3,0.9-2.1,1.4c-0.8,0.4-1.8,0.9-3.1,1.2
					c-1.3,0.4-2.9,0.6-4.8,0.9c-1.9,0.2-4.3,0.3-7.3,0.4c-2.2,0-4.3-0.1-6.4-0.2c-2.1-0.2-4-0.4-5.6-0.8c-1.6-0.4-3-0.8-4-1.3
					c-1-0.5-1.6-1.1-1.7-1.8l-6.5-0.1c-0.6,0-1.1,0-1.5-0.1c-0.4-0.1-0.7-0.2-0.7-0.3l0-0.7l8.9,0.1c0.4-0.7,1.2-1.3,2.4-1.8
					c1.2-0.5,2.7-1,4.5-1.4l3,0.4c0.9,0.1,1.4,0.3,1.4,0.4c0,0.1-0.2,0.2-0.6,0.3c-0.4,0.1-0.8,0.3-1.3,0.5c-0.5,0.2-1,0.4-1.5,0.7
					c-0.5,0.3-0.8,0.5-1.1,0.9L845.2,862.6z M823.2,863.5c0.2,0.4,0.6,0.8,1.2,1.1c0.6,0.3,1.4,0.6,2.3,0.8c0.9,0.2,1.9,0.3,3,0.4
					c1.1,0.1,2.3,0.1,3.5,0.1c1.4,0,2.7-0.1,3.8-0.2c1.1-0.1,2-0.3,2.8-0.5c0.8-0.2,1.5-0.4,2.1-0.7c0.6-0.3,1.1-0.6,1.6-0.9
					L823.2,863.5z M875.4,862.9c-0.2-0.4-0.6-0.8-1.3-1.1c-0.7-0.3-1.5-0.6-2.6-0.8c-1.1-0.2-2.3-0.4-3.7-0.5
					c-1.4-0.1-2.9-0.2-4.6-0.1c-1.5,0-2.8,0.1-3.9,0.2c-1.1,0.1-2,0.3-2.8,0.5c-0.8,0.2-1.5,0.5-2,0.7c-0.6,0.3-1.1,0.6-1.6,0.9
					L875.4,862.9z"/>
			</g>
			
				<linearGradient id="SVGID_00000178167765486098374890000014992954967746927022_" gradientUnits="userSpaceOnUse" x1="-973.9394" y1="625.1462" x2="-971.3349" y2="646.9498" gradientTransform="matrix(-1 0 0 -1 -120.751 1497.8387)">
				<stop  offset="3.597120e-03" style="stop-color:#F36F56"/>
				<stop  offset="0.3059" style="stop-color:#F99C4C"/>
				<stop  offset="0.545" style="stop-color:#FDB946"/>
				<stop  offset="0.6817" style="stop-color:#FFC444"/>
				<stop  offset="0.8038" style="stop-color:#FFC244"/>
				<stop  offset="0.8667" style="stop-color:#FEBA46"/>
				<stop  offset="0.916" style="stop-color:#FCAD49"/>
				<stop  offset="0.958" style="stop-color:#F99A4D"/>
				<stop  offset="0.9955" style="stop-color:#F58152"/>
				<stop  offset="1" style="stop-color:#F57E53"/>
			</linearGradient>
			<path style="fill:url(#SVGID_00000178167765486098374890000014992954967746927022_);" d="M851.8,854c-31.3,0-63.9,2.8-69.1,8.1
				c0.2,0.2,0.4,0.4,0.6,0.6c4.4-3.7,31.3-7.4,68.5-7.4c38.2,0,65.5,3.9,68.8,7.7c0.2-0.2,0.3-0.4,0.5-0.6
				C916.8,856.9,883.6,854,851.8,854z"/>
		</g>
		<g>
			
				<linearGradient id="SVGID_00000063608644553191600940000009494988906003120566_" gradientUnits="userSpaceOnUse" x1="762.1032" y1="856.8319" x2="923.5394" y2="856.8319">
				<stop  offset="0" style="stop-color:#FCB148"/>
				<stop  offset="5.207239e-02" style="stop-color:#FDBA46"/>
				<stop  offset="0.1424" style="stop-color:#FFC244"/>
				<stop  offset="0.3183" style="stop-color:#FFC444"/>
				<stop  offset="0.4849" style="stop-color:#FDB946"/>
				<stop  offset="0.7754" style="stop-color:#F99C4D"/>
				<stop  offset="0.8658" style="stop-color:#F8924F"/>
				<stop  offset="1" style="stop-color:#F8924F"/>
			</linearGradient>
			<path style="fill:url(#SVGID_00000063608644553191600940000009494988906003120566_);" d="M774.1,844.5v15.6
				c0,5,31.4,9.1,70.2,9.1c38.7,0,70.2-4.1,70.2-9.1v-15.6H774.1z"/>
			
				<linearGradient id="SVGID_00000076593083206618203020000003226751005793770113_" gradientUnits="userSpaceOnUse" x1="843.5632" y1="838.6468" x2="852.074" y2="909.8942">
				<stop  offset="0" style="stop-color:#FFDB44"/>
				<stop  offset="1" style="stop-color:#FEEF06"/>
			</linearGradient>
			
				<ellipse style="fill:url(#SVGID_00000076593083206618203020000003226751005793770113_);" cx="844.3" cy="844.5" rx="70.2" ry="9.1"/>
			
				<linearGradient id="SVGID_00000047044482251946643900000006701941675783092389_" gradientUnits="userSpaceOnUse" x1="843.1932" y1="835.4693" x2="845.8069" y2="857.3506">
				<stop  offset="0" style="stop-color:#FFDB44"/>
				<stop  offset="1" style="stop-color:#FEEF06"/>
			</linearGradient>
			<path style="fill:url(#SVGID_00000047044482251946643900000006701941675783092389_);" d="M844.3,854.2c-34.3,0-70.2-3.3-70.2-9.6
				c0-0.3,0.1-1,0.5-1c0.3,0,0.2,0.5,0.2,0.8c0,4,28.6,8.5,69.5,8.5c41,0,69.5-4.5,69.5-8.5c0-0.3,0.1-0.7,0.4-0.7
				c0.3,0,0.3,0.5,0.3,0.8C914.5,851,878.6,854.2,844.3,854.2z"/>
			<g>
				<path class="st51" d="M837.6,845c0.7-0.5,1.4-0.9,2.2-1.4c0.8-0.5,1.8-0.9,3-1.3c1.2-0.4,2.8-0.7,4.6-0.9
					c1.9-0.2,4.2-0.4,6.9-0.4c2.7,0,5.3,0.1,7.6,0.3c2.4,0.2,4.5,0.5,6.3,0.8c1.8,0.4,3.3,0.8,4.4,1.4c1.1,0.5,1.8,1.2,2,1.9
					l7.9,0.1c0.6,0,1.1,0,1.5,0.1c0.4,0.1,0.7,0.2,0.7,0.3l0,0.7l-10.2-0.1c-0.4,0.8-1.3,1.5-2.7,2.2c-1.5,0.7-3.3,1.2-5.6,1.7
					l-3.7-0.5c-0.3-0.1-0.6-0.1-0.8-0.2c-0.2-0.1-0.3-0.2-0.3-0.3c0-0.1,0.3-0.3,0.9-0.4c0.6-0.2,1.2-0.4,1.9-0.6
					c0.7-0.2,1.4-0.5,2.1-0.8c0.7-0.3,1.2-0.7,1.4-1.2l-24-0.2c-0.6,0.5-1.3,0.9-2.1,1.4c-0.8,0.4-1.8,0.9-3.1,1.2
					c-1.3,0.4-2.9,0.6-4.8,0.9c-1.9,0.2-4.3,0.3-7.3,0.4c-2.2,0-4.3-0.1-6.4-0.2c-2.1-0.2-4-0.4-5.6-0.8c-1.6-0.4-3-0.8-4-1.3
					c-1-0.5-1.6-1.1-1.7-1.8l-6.5-0.1c-0.6,0-1.1,0-1.5-0.1c-0.4-0.1-0.7-0.2-0.7-0.3l0-0.7l8.9,0.1c0.4-0.7,1.2-1.3,2.4-1.8
					c1.2-0.5,2.7-1,4.5-1.4l3,0.4c0.9,0.1,1.4,0.3,1.4,0.4c0,0.1-0.2,0.2-0.6,0.3c-0.4,0.1-0.8,0.3-1.3,0.5c-0.5,0.2-1,0.4-1.5,0.7
					c-0.5,0.3-0.8,0.5-1.1,0.9L837.6,845z M815.7,845.9c0.2,0.4,0.6,0.8,1.2,1.1c0.6,0.3,1.4,0.6,2.3,0.8c0.9,0.2,1.9,0.3,3,0.4
					c1.1,0.1,2.3,0.1,3.6,0.1c1.4,0,2.7-0.1,3.8-0.2c1.1-0.1,2-0.3,2.8-0.5c0.8-0.2,1.5-0.4,2.1-0.7c0.6-0.3,1.1-0.6,1.6-0.9
					L815.7,845.9z M867.9,845.3c-0.2-0.4-0.6-0.8-1.3-1.1c-0.7-0.3-1.5-0.6-2.6-0.8c-1.1-0.2-2.3-0.4-3.7-0.5
					c-1.4-0.1-2.9-0.2-4.6-0.1c-1.5,0-2.8,0.1-3.9,0.2c-1.1,0.1-2,0.3-2.8,0.5c-0.8,0.2-1.5,0.5-2,0.7c-0.6,0.3-1.1,0.6-1.6,0.9
					L867.9,845.3z"/>
			</g>
			
				<linearGradient id="SVGID_00000030481789334420904390000010701355628076676782_" gradientUnits="userSpaceOnUse" x1="-966.4013" y1="642.7823" x2="-963.7968" y2="664.5859" gradientTransform="matrix(-1 0 0 -1 -120.751 1497.8387)">
				<stop  offset="3.597120e-03" style="stop-color:#F36F56"/>
				<stop  offset="0.3059" style="stop-color:#F99C4C"/>
				<stop  offset="0.545" style="stop-color:#FDB946"/>
				<stop  offset="0.6817" style="stop-color:#FFC444"/>
				<stop  offset="0.8038" style="stop-color:#FFC244"/>
				<stop  offset="0.8667" style="stop-color:#FEBA46"/>
				<stop  offset="0.916" style="stop-color:#FCAD49"/>
				<stop  offset="0.958" style="stop-color:#F99A4D"/>
				<stop  offset="0.9955" style="stop-color:#F58152"/>
				<stop  offset="1" style="stop-color:#F57E53"/>
			</linearGradient>
			<path style="fill:url(#SVGID_00000030481789334420904390000010701355628076676782_);" d="M844.3,836.4c-31.3,0-63.9,2.8-69.1,8.1
				c0.2,0.2,0.4,0.4,0.6,0.6c4.4-3.7,31.3-7.4,68.5-7.4c38.2,0,65.5,3.9,68.8,7.7c0.2-0.2,0.3-0.4,0.5-0.6
				C909.3,839.2,876.1,836.4,844.3,836.4z"/>
		</g>
		<g>
			
				<linearGradient id="SVGID_00000034086942733203616720000014121523062307750808_" gradientUnits="userSpaceOnUse" x1="742.5986" y1="840.4854" x2="904.0345" y2="840.4854">
				<stop  offset="0" style="stop-color:#FCB148"/>
				<stop  offset="5.207239e-02" style="stop-color:#FDBA46"/>
				<stop  offset="0.1424" style="stop-color:#FFC244"/>
				<stop  offset="0.3183" style="stop-color:#FFC444"/>
				<stop  offset="0.4849" style="stop-color:#FDB946"/>
				<stop  offset="0.7754" style="stop-color:#F99C4D"/>
				<stop  offset="0.8658" style="stop-color:#F8924F"/>
				<stop  offset="1" style="stop-color:#F8924F"/>
			</linearGradient>
			<path style="fill:url(#SVGID_00000034086942733203616720000014121523062307750808_);" d="M754.6,828.2v15.6
				c0,5,31.4,9.1,70.2,9.1c38.7,0,70.2-4.1,70.2-9.1v-15.6H754.6z"/>
			
				<linearGradient id="SVGID_00000025445304849138514470000006622673221599431067_" gradientUnits="userSpaceOnUse" x1="824.0585" y1="822.3003" x2="832.5692" y2="893.5477">
				<stop  offset="0" style="stop-color:#FFDB44"/>
				<stop  offset="1" style="stop-color:#FEEF06"/>
			</linearGradient>
			
				<ellipse style="fill:url(#SVGID_00000025445304849138514470000006622673221599431067_);" cx="824.8" cy="828.2" rx="70.2" ry="9.1"/>
			
				<linearGradient id="SVGID_00000067925714051556872290000017008584120950605447_" gradientUnits="userSpaceOnUse" x1="823.6883" y1="819.1229" x2="826.3021" y2="841.0043">
				<stop  offset="0" style="stop-color:#FFDB44"/>
				<stop  offset="1" style="stop-color:#FEEF06"/>
			</linearGradient>
			<path style="fill:url(#SVGID_00000067925714051556872290000017008584120950605447_);" d="M824.8,837.9c-34.3,0-70.2-3.3-70.2-9.6
				c0-0.3,0.1-1,0.5-1c0.3,0,0.2,0.5,0.2,0.8c0,4,28.6,8.5,69.5,8.5c41,0,69.5-4.5,69.5-8.5c0-0.3,0.1-0.7,0.4-0.7
				c0.3,0,0.3,0.5,0.3,0.8C895,834.6,859.1,837.9,824.8,837.9z"/>
			<g>
				<path class="st51" d="M818.1,828.7c0.7-0.5,1.4-0.9,2.2-1.4c0.8-0.5,1.8-0.9,3-1.3c1.2-0.4,2.8-0.7,4.6-0.9
					c1.9-0.2,4.2-0.4,6.9-0.4c2.7,0,5.3,0.1,7.6,0.3c2.4,0.2,4.5,0.5,6.3,0.8c1.8,0.4,3.3,0.8,4.4,1.4c1.1,0.5,1.8,1.2,2,1.9
					l7.9,0.1c0.6,0,1.1,0.1,1.5,0.1c0.4,0.1,0.7,0.2,0.7,0.3l0,0.7l-10.2-0.1c-0.4,0.8-1.3,1.5-2.7,2.2c-1.5,0.7-3.3,1.2-5.6,1.7
					l-3.7-0.5c-0.3-0.1-0.6-0.1-0.8-0.2c-0.2-0.1-0.3-0.2-0.3-0.3c0-0.1,0.3-0.3,0.9-0.4c0.6-0.2,1.2-0.4,1.9-0.6
					c0.7-0.2,1.4-0.5,2.1-0.8c0.7-0.3,1.2-0.7,1.4-1.2l-24-0.2c-0.6,0.5-1.3,0.9-2.1,1.4c-0.8,0.4-1.8,0.9-3.1,1.2
					c-1.3,0.4-2.9,0.6-4.8,0.9c-1.9,0.2-4.3,0.3-7.3,0.4c-2.2,0-4.3-0.1-6.4-0.2c-2.1-0.2-4-0.4-5.6-0.8c-1.6-0.4-3-0.8-4-1.3
					c-1-0.5-1.6-1.1-1.7-1.8l-6.5-0.1c-0.6,0-1.1,0-1.5-0.1c-0.4-0.1-0.7-0.2-0.7-0.3l0-0.7l8.9,0.1c0.4-0.7,1.2-1.3,2.4-1.8
					c1.2-0.5,2.7-1,4.5-1.4l3,0.4c0.9,0.1,1.4,0.3,1.4,0.4c0,0.1-0.2,0.2-0.6,0.3c-0.4,0.1-0.8,0.3-1.3,0.5c-0.5,0.2-1,0.4-1.5,0.7
					c-0.5,0.3-0.8,0.5-1.1,0.9L818.1,828.7z M796.2,829.5c0.2,0.4,0.6,0.8,1.2,1.1c0.6,0.3,1.4,0.6,2.3,0.8s1.9,0.3,3,0.4
					c1.1,0.1,2.3,0.1,3.6,0.1c1.4,0,2.7-0.1,3.8-0.2c1.1-0.1,2-0.3,2.8-0.5c0.8-0.2,1.5-0.4,2.1-0.7c0.6-0.3,1.1-0.6,1.6-0.9
					L796.2,829.5z M848.4,829c-0.2-0.4-0.6-0.8-1.3-1.1c-0.7-0.3-1.5-0.6-2.6-0.8c-1.1-0.2-2.3-0.4-3.7-0.5
					c-1.4-0.1-2.9-0.2-4.6-0.1c-1.5,0-2.8,0.1-3.9,0.2c-1.1,0.1-2,0.3-2.8,0.5c-0.8,0.2-1.5,0.5-2,0.7c-0.6,0.3-1.1,0.6-1.6,0.9
					L848.4,829z"/>
			</g>
			
				<linearGradient id="SVGID_00000011740912540740638470000006872216752065089677_" gradientUnits="userSpaceOnUse" x1="-946.8964" y1="659.1287" x2="-944.2919" y2="680.9323" gradientTransform="matrix(-1 0 0 -1 -120.751 1497.8387)">
				<stop  offset="3.597120e-03" style="stop-color:#F36F56"/>
				<stop  offset="0.3059" style="stop-color:#F99C4C"/>
				<stop  offset="0.545" style="stop-color:#FDB946"/>
				<stop  offset="0.6817" style="stop-color:#FFC444"/>
				<stop  offset="0.8038" style="stop-color:#FFC244"/>
				<stop  offset="0.8667" style="stop-color:#FEBA46"/>
				<stop  offset="0.916" style="stop-color:#FCAD49"/>
				<stop  offset="0.958" style="stop-color:#F99A4D"/>
				<stop  offset="0.9955" style="stop-color:#F58152"/>
				<stop  offset="1" style="stop-color:#F57E53"/>
			</linearGradient>
			<path style="fill:url(#SVGID_00000011740912540740638470000006872216752065089677_);" d="M824.8,820c-31.3,0-63.9,2.8-69.1,8.1
				c0.2,0.2,0.4,0.4,0.6,0.6c4.4-3.7,31.3-7.4,68.5-7.4c38.2,0,65.5,3.9,68.8,7.7c0.2-0.2,0.3-0.4,0.5-0.6
				C889.8,822.9,856.6,820,824.8,820z"/>
		</g>
		<g>
			
				<linearGradient id="SVGID_00000003793411483029693580000010325331765840270466_" gradientUnits="userSpaceOnUse" x1="759.4284" y1="824.187" x2="920.8646" y2="824.187">
				<stop  offset="0" style="stop-color:#FCB148"/>
				<stop  offset="5.207239e-02" style="stop-color:#FDBA46"/>
				<stop  offset="0.1424" style="stop-color:#FFC244"/>
				<stop  offset="0.3183" style="stop-color:#FFC444"/>
				<stop  offset="0.4849" style="stop-color:#FDB946"/>
				<stop  offset="0.7754" style="stop-color:#F99C4D"/>
				<stop  offset="0.8658" style="stop-color:#F8924F"/>
				<stop  offset="1" style="stop-color:#F8924F"/>
			</linearGradient>
			<path style="fill:url(#SVGID_00000003793411483029693580000010325331765840270466_);" d="M771.4,811.9v15.6
				c0,5,31.4,9.1,70.2,9.1c38.7,0,70.2-4.1,70.2-9.1v-15.6H771.4z"/>
			
				<linearGradient id="SVGID_00000105388659994818977360000009760224163416878517_" gradientUnits="userSpaceOnUse" x1="840.8884" y1="806.0017" x2="849.3992" y2="877.249">
				<stop  offset="0" style="stop-color:#FFDB44"/>
				<stop  offset="1" style="stop-color:#FEEF06"/>
			</linearGradient>
			<path style="fill:url(#SVGID_00000105388659994818977360000009760224163416878517_);" d="M911.8,811.9c0,5-31.4,9.1-70.2,9.1
				c-38.7,0-70.2-4.1-70.2-9.1c0-5,31.4-9.1,70.2-9.1C880.3,802.7,911.8,806.8,911.8,811.9z"/>
			
				<linearGradient id="SVGID_00000121959569486714345240000011836585864321852564_" gradientUnits="userSpaceOnUse" x1="840.5184" y1="802.8244" x2="843.1322" y2="824.7056">
				<stop  offset="0" style="stop-color:#FFDB44"/>
				<stop  offset="1" style="stop-color:#FEEF06"/>
			</linearGradient>
			<path style="fill:url(#SVGID_00000121959569486714345240000011836585864321852564_);" d="M841.6,821.6c-34.3,0-70.2-3.3-70.2-9.6
				c0-0.3,0.1-1,0.5-1c0.3,0,0.2,0.5,0.2,0.8c0,4,28.6,8.5,69.5,8.5c41,0,69.5-4.5,69.5-8.5c0-0.3,0.1-0.7,0.4-0.7
				c0.3,0,0.3,0.5,0.3,0.8C911.8,818.3,875.9,821.6,841.6,821.6z"/>
			<g>
				<path class="st51" d="M835,812.4c0.7-0.5,1.4-0.9,2.2-1.4c0.8-0.5,1.8-0.9,3-1.3c1.2-0.4,2.8-0.7,4.6-0.9
					c1.9-0.2,4.2-0.4,6.9-0.4c2.7,0,5.3,0.1,7.6,0.3c2.4,0.2,4.5,0.5,6.3,0.8c1.8,0.4,3.3,0.8,4.4,1.4c1.1,0.5,1.8,1.2,2,1.9
					l7.9,0.1c0.6,0,1.1,0.1,1.5,0.1c0.4,0.1,0.7,0.2,0.7,0.3l0,0.7l-10.2-0.1c-0.4,0.8-1.3,1.5-2.7,2.2c-1.5,0.7-3.3,1.2-5.6,1.7
					l-3.7-0.5c-0.3-0.1-0.6-0.1-0.8-0.2c-0.2-0.1-0.3-0.2-0.3-0.3c0-0.1,0.3-0.3,0.9-0.4c0.6-0.2,1.2-0.4,1.9-0.6
					c0.7-0.2,1.4-0.5,2.1-0.8c0.7-0.3,1.2-0.7,1.4-1.2l-24-0.2c-0.6,0.5-1.3,0.9-2.1,1.4c-0.8,0.4-1.8,0.9-3.1,1.2
					c-1.3,0.4-2.9,0.6-4.8,0.9c-1.9,0.2-4.3,0.3-7.3,0.4c-2.2,0-4.3-0.1-6.4-0.2c-2.1-0.2-4-0.4-5.6-0.8c-1.6-0.4-3-0.8-4-1.3
					c-1-0.5-1.6-1.1-1.7-1.8l-6.5-0.1c-0.6,0-1.1,0-1.5-0.1c-0.4-0.1-0.7-0.2-0.7-0.3l0-0.7l8.9,0.1c0.4-0.7,1.2-1.3,2.4-1.8
					c1.2-0.5,2.7-1,4.5-1.4l3,0.4c0.9,0.1,1.4,0.3,1.4,0.4c0,0.1-0.2,0.2-0.6,0.3c-0.4,0.1-0.8,0.3-1.3,0.5c-0.5,0.2-1,0.4-1.5,0.7
					c-0.5,0.3-0.8,0.5-1.1,0.9L835,812.4z M813,813.2c0.2,0.4,0.6,0.8,1.2,1.1c0.6,0.3,1.4,0.6,2.3,0.8c0.9,0.2,1.9,0.3,3,0.4
					c1.1,0.1,2.3,0.1,3.5,0.1c1.4,0,2.7-0.1,3.8-0.2c1.1-0.1,2-0.3,2.8-0.5c0.8-0.2,1.5-0.4,2.1-0.7c0.6-0.3,1.1-0.6,1.6-0.9
					L813,813.2z M865.2,812.7c-0.2-0.4-0.6-0.8-1.3-1.1c-0.7-0.3-1.5-0.6-2.6-0.8c-1.1-0.2-2.3-0.4-3.7-0.5
					c-1.4-0.1-2.9-0.2-4.6-0.1c-1.5,0-2.8,0.1-3.9,0.2c-1.1,0.1-2,0.3-2.8,0.5c-0.8,0.2-1.5,0.5-2,0.7c-0.6,0.3-1.1,0.6-1.6,0.9
					L865.2,812.7z"/>
			</g>
			
				<linearGradient id="SVGID_00000006667611016227941680000012116454500993373319_" gradientUnits="userSpaceOnUse" x1="-963.7265" y1="675.4272" x2="-961.1219" y2="697.2309" gradientTransform="matrix(-1 0 0 -1 -120.751 1497.8387)">
				<stop  offset="3.597120e-03" style="stop-color:#F36F56"/>
				<stop  offset="0.3059" style="stop-color:#F99C4C"/>
				<stop  offset="0.545" style="stop-color:#FDB946"/>
				<stop  offset="0.6817" style="stop-color:#FFC444"/>
				<stop  offset="0.8038" style="stop-color:#FFC244"/>
				<stop  offset="0.8667" style="stop-color:#FEBA46"/>
				<stop  offset="0.916" style="stop-color:#FCAD49"/>
				<stop  offset="0.958" style="stop-color:#F99A4D"/>
				<stop  offset="0.9955" style="stop-color:#F58152"/>
				<stop  offset="1" style="stop-color:#F57E53"/>
			</linearGradient>
			<path style="fill:url(#SVGID_00000006667611016227941680000012116454500993373319_);" d="M841.6,803.7c-31.3,0-63.9,2.8-69.1,8.1
				c0.2,0.2,0.4,0.4,0.6,0.6c4.4-3.7,31.3-7.4,68.5-7.4c38.2,0,65.5,3.9,68.8,7.7c0.2-0.2,0.3-0.4,0.5-0.6
				C906.6,806.6,873.4,803.7,841.6,803.7z"/>
		</g>
		<g>
			
				<linearGradient id="SVGID_00000160172831290072835300000009082544972829759414_" gradientUnits="userSpaceOnUse" x1="750.6747" y1="807.8405" x2="912.1106" y2="807.8405">
				<stop  offset="0" style="stop-color:#FCB148"/>
				<stop  offset="5.207239e-02" style="stop-color:#FDBA46"/>
				<stop  offset="0.1424" style="stop-color:#FFC244"/>
				<stop  offset="0.3183" style="stop-color:#FFC444"/>
				<stop  offset="0.4849" style="stop-color:#FDB946"/>
				<stop  offset="0.7754" style="stop-color:#F99C4D"/>
				<stop  offset="0.8658" style="stop-color:#F8924F"/>
				<stop  offset="1" style="stop-color:#F8924F"/>
			</linearGradient>
			<path style="fill:url(#SVGID_00000160172831290072835300000009082544972829759414_);" d="M762.7,795.5v15.6
				c0,5,31.4,9.1,70.2,9.1c38.7,0,70.2-4.1,70.2-9.1v-15.6H762.7z"/>
			
				<linearGradient id="SVGID_00000128445190614767706090000008477809617289422224_" gradientUnits="userSpaceOnUse" x1="832.1346" y1="789.6554" x2="840.6453" y2="860.9027">
				<stop  offset="0" style="stop-color:#FFDB44"/>
				<stop  offset="1" style="stop-color:#FEEF06"/>
			</linearGradient>
			<path style="fill:url(#SVGID_00000128445190614767706090000008477809617289422224_);" d="M903,795.5c0,5-31.4,9.1-70.2,9.1
				c-38.7,0-70.2-4.1-70.2-9.1c0-5,31.4-9.1,70.2-9.1C871.6,786.4,903,790.5,903,795.5z"/>
			
				<linearGradient id="SVGID_00000052101584018975130620000000353254136934240918_" gradientUnits="userSpaceOnUse" x1="831.7645" y1="786.478" x2="834.3782" y2="808.3591">
				<stop  offset="0" style="stop-color:#FFDB44"/>
				<stop  offset="1" style="stop-color:#FEEF06"/>
			</linearGradient>
			<path style="fill:url(#SVGID_00000052101584018975130620000000353254136934240918_);" d="M832.8,805.2c-34.3,0-70.2-3.3-70.2-9.6
				c0-0.3,0.1-1,0.5-1c0.3,0,0.2,0.5,0.2,0.8c0,4,28.6,8.5,69.5,8.5c41,0,69.5-4.5,69.5-8.5c0-0.3,0.1-0.7,0.4-0.7
				c0.3,0,0.3,0.5,0.3,0.8C903,802,867.2,805.2,832.8,805.2z"/>
			<g>
				<path class="st51" d="M826.2,796c0.7-0.5,1.4-0.9,2.2-1.4c0.8-0.5,1.8-0.9,3-1.3c1.2-0.4,2.8-0.7,4.6-0.9s4.2-0.4,6.9-0.4
					c2.7,0,5.3,0.1,7.6,0.3c2.4,0.2,4.5,0.5,6.3,0.8c1.8,0.4,3.3,0.8,4.4,1.4c1.1,0.5,1.8,1.2,2,1.9l7.9,0.1c0.6,0,1.1,0,1.5,0.1
					c0.4,0.1,0.7,0.2,0.7,0.3l0,0.7l-10.2-0.1c-0.4,0.8-1.3,1.5-2.7,2.2c-1.5,0.7-3.3,1.2-5.6,1.7l-3.7-0.5
					c-0.3-0.1-0.6-0.1-0.8-0.2c-0.2-0.1-0.3-0.2-0.3-0.3c0-0.1,0.3-0.3,0.9-0.4c0.6-0.2,1.2-0.4,1.9-0.6c0.7-0.2,1.4-0.5,2.1-0.8
					c0.7-0.3,1.2-0.7,1.4-1.2l-24-0.2c-0.6,0.5-1.3,0.9-2.1,1.4c-0.8,0.4-1.8,0.9-3.1,1.2c-1.3,0.4-2.9,0.6-4.8,0.9
					c-1.9,0.2-4.3,0.3-7.3,0.4c-2.2,0-4.3-0.1-6.4-0.2c-2.1-0.2-4-0.4-5.6-0.8c-1.6-0.4-3-0.8-4-1.3c-1-0.5-1.6-1.1-1.7-1.8
					l-6.5-0.1c-0.6,0-1.1,0-1.5-0.1c-0.4-0.1-0.7-0.2-0.7-0.3l0-0.7l8.9,0.1c0.4-0.7,1.2-1.3,2.4-1.8c1.2-0.5,2.7-1,4.5-1.4l3,0.4
					c0.9,0.1,1.4,0.3,1.4,0.4c0,0.1-0.2,0.2-0.6,0.3c-0.4,0.1-0.8,0.3-1.3,0.5c-0.5,0.2-1,0.4-1.5,0.7c-0.5,0.3-0.8,0.5-1.1,0.9
					L826.2,796z M804.3,796.9c0.2,0.4,0.6,0.8,1.2,1.1c0.6,0.3,1.4,0.6,2.3,0.8c0.9,0.2,1.9,0.3,3,0.4c1.1,0.1,2.3,0.1,3.5,0.1
					c1.4,0,2.7-0.1,3.8-0.2c1.1-0.1,2-0.3,2.8-0.5c0.8-0.2,1.5-0.4,2.1-0.7c0.6-0.3,1.1-0.6,1.6-0.9L804.3,796.9z M856.5,796.3
					c-0.2-0.4-0.6-0.8-1.3-1.1c-0.7-0.3-1.5-0.6-2.6-0.8c-1.1-0.2-2.3-0.4-3.7-0.5c-1.4-0.1-2.9-0.2-4.6-0.1c-1.5,0-2.8,0.1-3.9,0.2
					c-1.1,0.1-2,0.3-2.8,0.5c-0.8,0.2-1.5,0.5-2,0.7c-0.6,0.3-1.1,0.6-1.6,0.9L856.5,796.3z"/>
			</g>
			
				<linearGradient id="SVGID_00000090981018072904582660000004418985486307246262_" gradientUnits="userSpaceOnUse" x1="-954.9725" y1="691.7736" x2="-952.368" y2="713.5772" gradientTransform="matrix(-1 0 0 -1 -120.751 1497.8387)">
				<stop  offset="3.597120e-03" style="stop-color:#F36F56"/>
				<stop  offset="0.3059" style="stop-color:#F99C4C"/>
				<stop  offset="0.545" style="stop-color:#FDB946"/>
				<stop  offset="0.6817" style="stop-color:#FFC444"/>
				<stop  offset="0.8038" style="stop-color:#FFC244"/>
				<stop  offset="0.8667" style="stop-color:#FEBA46"/>
				<stop  offset="0.916" style="stop-color:#FCAD49"/>
				<stop  offset="0.958" style="stop-color:#F99A4D"/>
				<stop  offset="0.9955" style="stop-color:#F58152"/>
				<stop  offset="1" style="stop-color:#F57E53"/>
			</linearGradient>
			<path style="fill:url(#SVGID_00000090981018072904582660000004418985486307246262_);" d="M832.8,787.4c-31.3,0-63.9,2.8-69.1,8.1
				c0.2,0.2,0.4,0.4,0.6,0.6c4.4-3.7,31.3-7.4,68.5-7.4c38.2,0,65.5,3.9,68.8,7.7c0.2-0.2,0.3-0.4,0.5-0.6
				C897.9,790.2,864.7,787.4,832.8,787.4z"/>
		</g>
		<g>
			
				<linearGradient id="SVGID_00000061449711573506171860000016565985853967116941_" gradientUnits="userSpaceOnUse" x1="779.7375" y1="383.4922" x2="941.1741" y2="383.4922" gradientTransform="matrix(0.5796 0.8149 -0.8149 0.5796 766.525 -53.8314)">
				<stop  offset="0" style="stop-color:#FCB148"/>
				<stop  offset="5.207239e-02" style="stop-color:#FDBA46"/>
				<stop  offset="0.1424" style="stop-color:#FFC244"/>
				<stop  offset="0.3183" style="stop-color:#FFC444"/>
				<stop  offset="0.4849" style="stop-color:#FDB946"/>
				<stop  offset="0.7754" style="stop-color:#F99C4D"/>
				<stop  offset="0.8658" style="stop-color:#F8924F"/>
				<stop  offset="1" style="stop-color:#F8924F"/>
			</linearGradient>
			<path style="fill:url(#SVGID_00000061449711573506171860000016565985853967116941_);" d="M923,806.5l-12.7,9
				c-4.1,2.9,10.8,30.9,33.2,62.5c22.5,31.6,44,54.8,48.1,51.9l12.7-9L923,806.5z"/>
			
				<linearGradient id="SVGID_00000111874709943371499050000017992380380961452429_" gradientUnits="userSpaceOnUse" x1="861.1975" y1="365.3088" x2="869.7072" y2="436.5476" gradientTransform="matrix(0.5796 0.8149 -0.8149 0.5796 766.525 -53.8314)">
				<stop  offset="0" style="stop-color:#FFDB44"/>
				<stop  offset="1" style="stop-color:#FEEF06"/>
			</linearGradient>
			<path style="fill:url(#SVGID_00000111874709943371499050000017992380380961452429_);" d="M1004.3,920.8
				c-4.1,2.9-25.6-20.3-48.1-51.9c-22.5-31.6-37.3-59.5-33.2-62.5c4.1-2.9,25.6,20.3,48.1,51.9C993.5,890,1008.4,917.9,1004.3,920.8
				z"/>
			
				<linearGradient id="SVGID_00000027599857379157840110000011051702957838099135_" gradientUnits="userSpaceOnUse" x1="860.8275" y1="362.1331" x2="863.4409" y2="384.0106" gradientTransform="matrix(0.5796 0.8149 -0.8149 0.5796 766.525 -53.8314)">
				<stop  offset="0" style="stop-color:#FFDB44"/>
				<stop  offset="1" style="stop-color:#FEEF06"/>
			</linearGradient>
			<path style="fill:url(#SVGID_00000027599857379157840110000011051702957838099135_);" d="M955.7,869.3
				c-19.9-28-38-59.1-32.9-62.8c0.3-0.2,0.9-0.5,1.1-0.2c0.2,0.3-0.3,0.4-0.6,0.6c-3.3,2.3,9.6,28.2,33.4,61.6
				c23.8,33.4,43.9,54.1,47.2,51.7c0.3-0.2,0.6-0.3,0.8-0.1c0.2,0.3-0.2,0.5-0.5,0.7C999.1,924.6,975.6,897.3,955.7,869.3z"/>
			<g>
				<path class="st51" d="M959.4,858.5c0.8,0.3,1.6,0.6,2.4,1c0.8,0.4,1.8,0.9,2.8,1.7c1,0.8,2.2,1.9,3.4,3.2
					c1.3,1.4,2.7,3.2,4.3,5.4c1.6,2.2,3,4.3,4.2,6.4c1.2,2,2.2,3.9,3,5.6c0.7,1.7,1.2,3.1,1.4,4.4c0.2,1.2,0.1,2.1-0.4,2.7l4.5,6.5
					c0.3,0.5,0.6,0.9,0.8,1.3c0.2,0.4,0.2,0.7,0.1,0.7l-0.5,0.4l-5.8-8.3c-0.9,0.2-2-0.1-3.4-1c-1.4-0.8-2.9-2-4.6-3.5l-1.7-3.3
					c-0.2-0.3-0.3-0.6-0.3-0.8c-0.1-0.2-0.1-0.4,0-0.4c0.1-0.1,0.4,0.1,0.8,0.5c0.5,0.4,1,0.8,1.6,1.2c0.6,0.4,1.2,0.9,1.9,1.2
					c0.7,0.4,1.2,0.5,1.7,0.5L962,864.3c-0.7-0.2-1.5-0.6-2.3-0.9c-0.8-0.4-1.7-1-2.8-1.8c-1-0.8-2.2-2-3.5-3.4
					c-1.3-1.4-2.8-3.3-4.5-5.7c-1.3-1.8-2.5-3.6-3.5-5.4c-1.1-1.8-1.9-3.5-2.6-5c-0.7-1.5-1.1-2.9-1.3-4c-0.2-1.1,0-2,0.5-2.5
					l-3.7-5.3c-0.3-0.5-0.6-0.9-0.8-1.3c-0.2-0.4-0.2-0.7-0.1-0.8l0.5-0.4l5.1,7.3c0.8-0.1,1.7,0.2,2.9,0.9c1.1,0.7,2.4,1.7,3.7,2.9
					l1.4,2.7c0.4,0.8,0.6,1.3,0.4,1.4c-0.1,0.1-0.3,0-0.6-0.3c-0.3-0.2-0.7-0.5-1.2-0.8c-0.4-0.3-0.9-0.6-1.4-0.8
					c-0.5-0.2-0.9-0.4-1.3-0.4L959.4,858.5z M945.9,841.2c-0.2,0.4-0.3,0.9-0.2,1.6c0.1,0.7,0.3,1.4,0.7,2.3
					c0.4,0.9,0.8,1.8,1.4,2.7c0.6,1,1.2,2,2,3c0.8,1.2,1.6,2.2,2.3,3c0.7,0.8,1.4,1.5,2,2c0.6,0.5,1.2,1,1.8,1.3
					c0.6,0.3,1.1,0.6,1.6,0.8L945.9,841.2z M976.7,883.4c0.2-0.4,0.3-1,0.2-1.7c-0.1-0.7-0.4-1.6-0.8-2.6c-0.4-1-1-2.1-1.7-3.3
					c-0.7-1.2-1.6-2.5-2.6-3.9c-0.9-1.2-1.7-2.2-2.4-3c-0.7-0.8-1.4-1.5-2.1-2c-0.6-0.5-1.2-0.9-1.8-1.2c-0.6-0.3-1.1-0.5-1.6-0.7
					L976.7,883.4z"/>
			</g>
			
				<linearGradient id="SVGID_00000177451632197333811280000010487820449573322383_" gradientUnits="userSpaceOnUse" x1="-983.4685" y1="1115.6663" x2="-980.8644" y2="1137.4658" gradientTransform="matrix(-0.5796 -0.8149 0.8149 -0.5796 -523.3503 716.1128)">
				<stop  offset="3.597120e-03" style="stop-color:#F36F56"/>
				<stop  offset="0.3059" style="stop-color:#F99C4C"/>
				<stop  offset="0.545" style="stop-color:#FDB946"/>
				<stop  offset="0.6817" style="stop-color:#FFC444"/>
				<stop  offset="0.8038" style="stop-color:#FFC244"/>
				<stop  offset="0.8667" style="stop-color:#FEBA46"/>
				<stop  offset="0.916" style="stop-color:#FCAD49"/>
				<stop  offset="0.958" style="stop-color:#F99A4D"/>
				<stop  offset="0.9955" style="stop-color:#F58152"/>
				<stop  offset="1" style="stop-color:#F57E53"/>
			</linearGradient>
			<path style="fill:url(#SVGID_00000177451632197333811280000010487820449573322383_);" d="M970.2,859
				c-18.1-25.5-39.3-50.4-46.6-51.6c0,0.3-0.1,0.5-0.2,0.8c5.6,1.4,24.2,21.2,45.8,51.5c22.1,31.1,34.8,55.6,33.6,60.5
				c0.3,0,0.5,0,0.8,0.1C1005.6,913.6,988.7,884.9,970.2,859z"/>
		</g>
	</g>
	<g>
		<path class="st85" d="M1068.5,483.6c-0.8,0.2-1.5,0.7-1.9,1.5c-0.4,0.7-0.5,1.6-0.2,2.4l17.2,54.9c0.5,1.6,2.2,2.5,3.7,2l40-11.7
			c1.6-0.5,2.5-2.1,2.1-3.7l-15.5-54.6c-0.5-1.6-2.1-2.5-3.7-2.1L1068.5,483.6z"/>
		
			<linearGradient id="SVGID_00000150807796625987849120000016244116152701291945_" gradientUnits="userSpaceOnUse" x1="1058.7247" y1="443.1918" x2="1146.1219" y2="585.2517">
			<stop  offset="0" style="stop-color:#FF9085"/>
			<stop  offset="1" style="stop-color:#FB6FBB"/>
		</linearGradient>
		<path style="fill:url(#SVGID_00000150807796625987849120000016244116152701291945_);" d="M1071.7,486.2c-0.7,0.2-1.3,0.7-1.7,1.3
			c-0.4,0.6-0.4,1.4-0.2,2.1l15.4,48.9c0.4,1.4,1.9,2.2,3.3,1.8l35.7-10.4c1.4-0.4,2.2-1.9,1.8-3.3l-13.8-48.7
			c-0.4-1.4-1.9-2.3-3.3-1.9L1071.7,486.2z"/>
		<path class="st12" d="M1077.1,489c-0.5,0.1-1,0.5-1.3,1c-0.3,0.5-0.3,1.1-0.2,1.6l4.9,16c0.3,1.1,1.5,1.7,2.5,1.4l28.5-7.6
			c0.5-0.1,1-0.5,1.3-1c0.3-0.5,0.3-1.1,0.2-1.6l-4.5-16.2c-0.3-1.1-1.5-1.8-2.6-1.5L1077.1,489z"/>
		<path class="st12" d="M1084.3,514.4c-0.6,0.2-1,0.5-1.3,1c-0.3,0.5-0.3,1.1-0.2,1.7l5,16.5c0.3,1.1,1.5,1.8,2.6,1.5l29.4-7.9
			c0.6-0.1,1-0.5,1.3-1c0.3-0.5,0.4-1.1,0.2-1.6l-4.7-16.7c-0.3-1.1-1.5-1.8-2.6-1.5L1084.3,514.4z"/>
		
			<linearGradient id="SVGID_00000151506990536891232880000007620648373704688277_" gradientUnits="userSpaceOnUse" x1="1282.6075" y1="629.9182" x2="1312.2917" y2="511.181">
			<stop  offset="0" style="stop-color:#AA80F9"/>
			<stop  offset="0.9964" style="stop-color:#6165D7"/>
		</linearGradient>
		<path style="fill:url(#SVGID_00000151506990536891232880000007620648373704688277_);" d="M1301.5,511.7
			c2.3,0.9,36.6,14.5,43.7,50.4c0.6,2.9,6.1,33.7-14.8,55.5c-23.4,24.4-68.5,23.8-86.4,3.4c-4.2-4.8-6.4-10-7.6-14.5l0,0l4.7-12.5
			c5.8-6.9,13.6-8.6,17.8-9.6c10.3-2.5,18.1,2.1,24-2.9c3.3-2.8,3.9-6.7,4.5-10.3c2-12.1-4.8-19.5-5.3-26.9
			c-0.4-5.6-2.3-17.7,4.9-25.7C1291.6,513.5,1297.9,512.2,1301.5,511.7z"/>
		
			<linearGradient id="SVGID_00000119797376350342023030000012409875679887005616_" gradientUnits="userSpaceOnUse" x1="1109.1488" y1="1001.3187" x2="1123.23" y2="1013.844" gradientTransform="matrix(0.9902 -0.14 0.14 0.9902 72.4862 68.7514)">
			<stop  offset="0" style="stop-color:#444B8C"/>
			<stop  offset="0.9964" style="stop-color:#26264F"/>
		</linearGradient>
		<path style="fill:url(#SVGID_00000119797376350342023030000012409875679887005616_);" d="M1314.9,911.3c0.4-2.2,7.5-4.2,11.1-1.2
			c1.8,1.5,3,4.4,1.9,5.8c-0.4,0.5,1.1,1.3-0.3,1.4C1322.8,917.3,1314.5,913.5,1314.9,911.3z"/>
		
			<linearGradient id="SVGID_00000062883299688166784940000012997970438994447038_" gradientUnits="userSpaceOnUse" x1="197.4472" y1="1013.8479" x2="197.4472" y2="989.3169" gradientTransform="matrix(0.9902 -0.14 0.14 0.9902 988.6873 -60.7646)">
			<stop  offset="0" style="stop-color:#FFC444"/>
			<stop  offset="0.9964" style="stop-color:#F36F56"/>
		</linearGradient>
		<path style="fill:url(#SVGID_00000062883299688166784940000012997970438994447038_);" d="M1322.4,912.2l7.3-1
			c-3.4-4.1-2.8-17.1-2.8-17.1l-7.8,1.7c0,0,0.9,3.6,2.4,8.8C1322.1,906.4,1322.3,909.2,1322.4,912.2z"/>
		
			<linearGradient id="SVGID_00000072962674624488053520000001168062684955555510_" gradientUnits="userSpaceOnUse" x1="1110.5646" y1="999.7276" x2="1124.6456" y2="1012.2527" gradientTransform="matrix(0.9902 -0.14 0.14 0.9902 72.4862 68.7514)">
			<stop  offset="0" style="stop-color:#444B8C"/>
			<stop  offset="0.9964" style="stop-color:#26264F"/>
		</linearGradient>
		<path style="fill:url(#SVGID_00000072962674624488053520000001168062684955555510_);" d="M1321.7,911.2c0,0,8.8-2,9.8-0.3
			c1,1.8,1.7,6.4-3.9,6.3C1322,917.1,1321.2,912.7,1321.7,911.2z"/>
		
			<linearGradient id="SVGID_00000170262134300249287830000002784990310511026617_" gradientUnits="userSpaceOnUse" x1="1211.2832" y1="912.7623" x2="1225.365" y2="925.2881">
			<stop  offset="0" style="stop-color:#444B8C"/>
			<stop  offset="0.9964" style="stop-color:#26264F"/>
		</linearGradient>
		<path style="fill:url(#SVGID_00000170262134300249287830000002784990310511026617_);" d="M1214.3,919.6c0.7-2.1,8-3.1,11.1,0.3
			c1.5,1.7,2.3,4.8,1.1,6c-0.4,0.4,0.9,1.5-0.5,1.3C1221.3,926.6,1213.6,921.7,1214.3,919.6z"/>
		
			<linearGradient id="SVGID_00000044858805968064643090000016134327670400628865_" gradientUnits="userSpaceOnUse" x1="498.1518" y1="-1065.4888" x2="513.6407" y2="-1052.3022" gradientTransform="matrix(0.1359 0.9907 0.9907 -0.1359 2062.157 -109.3963)">
			<stop  offset="0" style="stop-color:#FFC444"/>
			<stop  offset="0.9964" style="stop-color:#F36F56"/>
		</linearGradient>
		<path style="fill:url(#SVGID_00000044858805968064643090000016134327670400628865_);" d="M1087.4,546l-6.7-3.2
			c-1-0.8-2.6-2.3-3.8-4.6c-2-3.7-2-7.8-1.9-7.8c0,0-0.3-5.4,2-6.3c0.3-0.1,0.6-0.2,1.1-0.1l2.4,6.3c0,0,0.4,2.7,4.7,5.6
			c4.3,3.7,6,7.1,6,7.1L1087.4,546z"/>
		
			<linearGradient id="SVGID_00000112608483345973717750000008176313572601517757_" gradientUnits="userSpaceOnUse" x1="299.5373" y1="925.3132" x2="299.5373" y2="900.7809" gradientTransform="matrix(1 0 0 1 925.3102 0)">
			<stop  offset="0" style="stop-color:#FFC444"/>
			<stop  offset="0.9964" style="stop-color:#F36F56"/>
		</linearGradient>
		<path style="fill:url(#SVGID_00000112608483345973717750000008176313572601517757_);" d="M1221.6,921.5h7.4
			c-2.8-4.5-0.3-17.3-0.3-17.3l-8,0.6c0,0,0.4,3.7,1.1,9.1C1222.1,915.7,1221.9,918.6,1221.6,921.5z"/>
		
			<linearGradient id="SVGID_00000174584018743812692910000002004979538426448515_" gradientUnits="userSpaceOnUse" x1="-737.9447" y1="936.5626" x2="-829.7682" y2="565.826" gradientTransform="matrix(-1 0 0 1 485.7472 0)">
			<stop  offset="0" style="stop-color:#444B8C"/>
			<stop  offset="0.9964" style="stop-color:#26264F"/>
		</linearGradient>
		<path style="fill:url(#SVGID_00000174584018743812692910000002004979538426448515_);" d="M1202.4,641.5
			c-3.4,11.3-8.3,29.6-11.5,52.5c-9,65.4,10.1,67.5,6.6,140c-1.1,23.1,20,76.5,21.9,77.7c0.9,0.1,1.9,0.1,2.9,0.1
			c1.8-0.1,4.4-0.3,7.5-1.2c3.4-0.6,15.5-33.4,12.7-52.8c-2-13.8-1.4-28.6-0.3-58.2c0.2-4.8,12.5-93.3,12.5-93.3l0,0
			c3.7,32.8,8,60.6,11.7,82.2c12,69.4,50.8,111.3,52.9,112c0.4,0.2,4,1.5,7-0.5c1.3-0.9,1.8-2,1.8-2c1-0.8-0.3-69.2-12.2-120.7
			c-17.2-74.7-9.7-92.2-15.2-125.6C1296,622.7,1202.4,641.5,1202.4,641.5z"/>
		
			<linearGradient id="SVGID_00000103261064188494355050000007556701382856357547_" gradientUnits="userSpaceOnUse" x1="1168.0857" y1="516.5872" x2="1346.1917" y2="657.9411">
			<stop  offset="0" style="stop-color:#AA80F9"/>
			<stop  offset="0.9964" style="stop-color:#6165D7"/>
		</linearGradient>
		<path style="fill:url(#SVGID_00000103261064188494355050000007556701382856357547_);" d="M1271.9,505.9c-11.4-0.3-33.6-4.1-48,9
			c-0.3,0.2-1.4,1.5-2.9,3.2c-1.4,1.6-6,7.1-10.2,14.7c-3.1,5.4-5.8,11.8-8.6,21.2c-4.9,16.7-6.3,30.9-6.8,37.1
			c-2.6,34.8,0,50.8,2.4,61.7c10.3,5.3,37,14.8,68.7,10.1c14.5-2.2,26.1-7,34.2-11.3c-8.2-24.9-1.8-38.3,1.3-50.6
			c4.3-17.5,4.4-16.2,8-30.1c5.9-23,6.9-46.5,2.8-51.3C1301.9,506.7,1282.2,506.2,1271.9,505.9z"/>
		
			<linearGradient id="SVGID_00000157303140116505851530000010413255398522753432_" gradientUnits="userSpaceOnUse" x1="1215.554" y1="554.2604" x2="1336.1886" y2="650.0022">
			<stop  offset="0" style="stop-color:#AA80F9"/>
			<stop  offset="0.9964" style="stop-color:#6165D7"/>
		</linearGradient>
		<path style="fill:url(#SVGID_00000157303140116505851530000010413255398522753432_);" d="M1312.8,519.6
			c-6.1-7.3-15-10.6-23.5-12.2c4,17.7-5,39.3-17.2,50.8c-11.4,10.7-21.8,3.6-29.4,12.5c-6.2,7.4-6.4,19.4-3.3,27.6
			c4.3,11.1,13.4,12.2,12.9,18.5c-0.6,8.3-17.4,14.5-29.7,15.7c-12.8,1.2-23.1-2.9-28.2-5.3c0.5,11.8,1.9,19.5,3.3,25.6
			c10.3,5.3,37,14.8,68.7,10.1c14.5-2.2,26.1-7,34.2-11.3c-8.2-24.9-1.8-38.3,1.3-50.6c4.3-17.5,4.4-16.2,8-30.1
			C1315.9,547.9,1316.9,524.4,1312.8,519.6z"/>
		
			<linearGradient id="SVGID_00000101073327591940717250000002803430225057489320_" gradientUnits="userSpaceOnUse" x1="1212.6987" y1="911.1708" x2="1226.7806" y2="923.6967">
			<stop  offset="0" style="stop-color:#444B8C"/>
			<stop  offset="0.9964" style="stop-color:#26264F"/>
		</linearGradient>
		<path style="fill:url(#SVGID_00000101073327591940717250000002803430225057489320_);" d="M1221.1,920.5c0,0,9-0.8,9.7,1.1
			c0.7,1.9,0.8,6.6-4.7,5.7C1220.5,926.3,1220.4,921.9,1221.1,920.5z"/>
		
			<linearGradient id="SVGID_00000170977104905386092970000010073336198291454873_" gradientUnits="userSpaceOnUse" x1="1147.735" y1="542.2292" x2="1325.8412" y2="683.5833">
			<stop  offset="0" style="stop-color:#AA80F9"/>
			<stop  offset="0.9964" style="stop-color:#6165D7"/>
		</linearGradient>
		<path style="fill:url(#SVGID_00000170977104905386092970000010073336198291454873_);" d="M1241.7,510.1
			c-12.5-8.1-45.2,17.3-55.1,24.4c-38.4,27.3-33.8,44.2-51.2,35.8c-11.8-5.7-13.4-23-33.5-29.5c-3.6-1.2-6.6-1.6-8.6-1.8
			c0,0-6.6,3.5-6.7,3.5c-2.4,0.8-4.7,1.5-6.7,3.5c-1.9,4-3.7,8.9-4.6,14.6c0.2,2,0.6,5.4,1.5,9.5c0.8,3.4,9.6,40.1,40.4,51.5
			c5.6,2.1,10.3,2.7,12.7,3c10.1,1.2,19.3-0.3,34.9-5.7c26.5-9.1,46.8-17.7,64.7-38.7c0.9-1,1.5-2,2.2-3
			C1245.1,556.7,1253.8,517.9,1241.7,510.1z"/>
		<g>
			
				<linearGradient id="SVGID_00000106869728575974691280000011836071126934770350_" gradientUnits="userSpaceOnUse" x1="1225.1328" y1="465.9729" x2="1301.3921" y2="561.9169">
				<stop  offset="0" style="stop-color:#FFC444"/>
				<stop  offset="0.9964" style="stop-color:#F36F56"/>
			</linearGradient>
			<path style="fill:url(#SVGID_00000106869728575974691280000011836071126934770350_);" d="M1239.8,492.8c-3.5-6-2-12.8-1.6-14.3
				c1.5-6.2,2-7.1,3.2-8.4l1.6-1.7c0,0,0.1-0.1,0.2-0.1c1.1-0.8,5.3-2,6.3-2.1c2.9-0.1,8.8,10.3,12.2,26.3c0.3,0.6,0.5,1.2,0.8,1.7
				c1.7,3.6,3.1,7.2,4.4,10.7c19.6,1.7,22.4,4,22.5,5.3c0.2,2.8-11,6-19.4,7.3c-18.4,2.7-37.2-2.2-37.1-5.6c0-1.5,3.7-3.4,19.2-5.5
				c-0.4-2.6-0.7-5.2-1.1-7.7C1249.6,498.4,1242.4,497.2,1239.8,492.8z"/>
			<path class="st85" d="M1236.1,465.4c1.3,4.9,5,9.5,6.4,10.1c0.2,0.1,1.2,0.5,2.3,1.5c0.1,0.1,0.3,0.3,0.4,0.5
				c1.9,2.8-2,7.8-0.7,8.9c1,0.8,3.9-1.4,4.6-0.7c0.6,0.7-1.7,3.1-1,4c0.5,0.7,2-0.5,3.4,0.4c0.7,0.4,0.6,0.9,1.7,2.5
				c0.6,0.9,1.3,1.8,1.8,2.3c2.5,2.4,7.5,2.2,8.2,0.8c0.2-0.4-0.1-0.6-0.1-1.7c0,0,0-1.1,0.4-2.4c0.6-1.9,2.6-3.7,4.6-6.1
				c3.6-4.4,4.1-7.5,4.2-8.5c0-0.4,0.1-0.6,0.1-0.8c0.2-3.9-1.2-9.2-3.7-12.1c-4.2-4.7-9.6-0.5-16.1-4.6c-7.5-4.7-6.3-14.2-9.7-14.3
				C1239,444.9,1233.6,456.3,1236.1,465.4z"/>
			
				<linearGradient id="SVGID_00000045590622021787399780000014787020966433701542_" gradientUnits="userSpaceOnUse" x1="1228.3483" y1="463.416" x2="1304.6101" y2="559.3631">
				<stop  offset="0" style="stop-color:#FFC444"/>
				<stop  offset="0.9964" style="stop-color:#F36F56"/>
			</linearGradient>
			<path style="fill:url(#SVGID_00000045590622021787399780000014787020966433701542_);" d="M1246,484.7c0.8-2,3.3-1,3.9,1.2
				c0.6,2.1-0.9,4.9-3,5C1244.7,490.9,1244.9,487.3,1246,484.7z"/>
		</g>
		<path class="st85" d="M1246,480.8l-1.8,4.4c0,0-1.8,5.2-4.2,3.3c-2-1.6-2.3-1.5-2.4-1.4c0,0,0,0,0,0c0,0-0.1-1-0.1-2
			c-0.5,1.3-1,3.3-1,5.8c0,2.4,0,5,1.9,7c0.1,0.1,2.2,2.2,5,2.1c0,0,1.1,0,5.2-2c0,0-5.7-2.2-6-3c-0.8-2.2,2-4.2,3.1-9.4
			C1246,483.7,1246.1,482,1246,480.8z"/>
	</g>
</g>
</svg>
