<?xml version="1.0" encoding="iso-8859-1"?>
<!-- Generator: Adobe Illustrator 26.0.3, SVG Export Plug-In . SVG Version: 6.00 Build 0)  -->
<!DOCTYPE svg PUBLIC "-//W3C//DTD SVG 1.1//EN" "http://www.w3.org/Graphics/SVG/1.1/DTD/svg11.dtd" [
	<!ENTITY ns_extend "http://ns.adobe.com/Extensibility/1.0/">
	<!ENTITY ns_ai "http://ns.adobe.com/AdobeIllustrator/10.0/">
	<!ENTITY ns_graphs "http://ns.adobe.com/Graphs/1.0/">
	<!ENTITY ns_vars "http://ns.adobe.com/Variables/1.0/">
	<!ENTITY ns_imrep "http://ns.adobe.com/ImageReplacement/1.0/">
	<!ENTITY ns_sfw "http://ns.adobe.com/SaveForWeb/1.0/">
	<!ENTITY ns_custom "http://ns.adobe.com/GenericCustomNamespace/1.0/">
	<!ENTITY ns_adobe_xpath "http://ns.adobe.com/XPath/1.0/">
]>
<svg version="1.1" id="Layer_1" xmlns:x="&ns_extend;" xmlns:i="&ns_ai;" xmlns:graph="&ns_graphs;"
	 xmlns="http://www.w3.org/2000/svg" xmlns:xlink="http://www.w3.org/1999/xlink" x="0px" y="0px" viewBox="0 0 3000 2000"
	 style="enable-background:new 0 0 3000 2000;" xml:space="preserve">
<style type="text/css">
	.st0{fill:#EDDCC3;}
	.st1{fill:#FFA800;}
	.st2{opacity:0.28;fill:#1F1F39;}
	.st3{fill:#603A3E;}
	.st4{opacity:0.17;fill:#32323F;}
	.st5{fill:#419F81;}
	.st6{opacity:0.24;fill:#1F1F3B;}
	.st7{fill:#EFAEA6;}
	.st8{fill:#1F1F39;}
	.st9{fill:#4B4B5B;}
	.st10{opacity:0.62;fill:#1F1F39;}
	.st11{fill:#6D3522;}
	.st12{opacity:0.16;fill:#1F1F39;}
	.st13{fill:#0069A8;}
	.st14{opacity:0.62;fill:none;stroke:#FFFFFF;stroke-width:18;stroke-linecap:round;stroke-linejoin:round;stroke-miterlimit:10;}
	.st15{fill:#FFFFFF;}
	.st16{opacity:0.9;}
	.st17{fill-rule:evenodd;clip-rule:evenodd;fill:#FFFFFF;}
</style>
<metadata>
	<sfw  xmlns="&ns_sfw;">
		<slices></slices>
		<sliceSourceBounds  bottomLeftOrigin="true" height="2000" width="3000" x="-0.4" y="-2000.4"></sliceSourceBounds>
	</sfw>
</metadata>
<rect x="-0.4" y="0.4" class="st0" width="3000" height="2000"/>
<g>
	<g>
		<path class="st1" d="M1669.6,258.7c-28.2,3.3-32.8,29.3-65.1,32.7c-5.2,0.6-23.9,7.6-31.3,11.1c-0.6,0.3-1.3,0.6-1.9,0.9
			c-0.4,0.2-0.8,0.3-1.1,0.5c-4.6,1.9-8.3,2.4-9.5-0.4c-0.3-0.8-0.5-1.8-0.4-3.1c0.5-13.9,0.7-104.1,0.7-108.3l0-0.2
			c0.2,0.1,0.3,0.1,0.5,0.2c2.4,0.8,4.6,1.7,6.7,2.5c0.4,0.1,0.8,0.3,1.1,0.4c2.1,0.8,4.1,1.5,6,2.3c31.5,12.3,38.5,19.2,59.4,17.5
			c15.8-1.3,21.3-5.6,37.1-6c20.4-0.4,46.7,19.9,54.6,32.5C1737.5,258.8,1715.4,253.3,1669.6,258.7z"/>
		<path class="st2" d="M1575.2,197.2c-3.2,37.4-2.4,89.4-2.1,105.3c-0.6,0.3-1.3,0.6-1.9,0.9c-0.4,0.2-0.8,0.3-1.1,0.5
			c-4.6,1.9-8.3,2.4-9.5-0.4c-0.3-0.8-0.5-1.8-0.4-3.1c0.5-13.9,0.7-104.1,0.7-108.3l0-0.2c0.2,0.1,0.3,0.1,0.5,0.2
			c2.4,0.8,4.6,1.7,6.7,2.5c0.4,0.1,0.8,0.3,1.1,0.4C1571.3,195.7,1573.3,196.4,1575.2,197.2z"/>
	</g>
	<g>
		<path class="st3" d="M1563.8,465.7C1563.8,465.7,1563.7,465.7,1563.8,465.7c-2.5,0.2-8.2-1.9-8.2-3.1
			c-7.2-149.4,1.4-267.7,1.1-269.3c-0.9-5.1,5.3-5.8,7.6-5.9c2.4-0.1,4.2,0.8,4.1,2c-0.2,1.7-7.6,124.5-0.5,273.8
			C1567.9,464.4,1566.1,465.5,1563.8,465.7z"/>
	</g>
</g>
<g>
	<g>
		<path class="st1" d="M1451.9,257.3c-28.1,3.7-32.4,29.7-64.7,33.5c-5.2,0.6-23.8,7.9-31.1,11.5c-0.6,0.3-1.3,0.6-1.9,0.9
			c-0.4,0.2-0.8,0.3-1.1,0.5c-4.6,1.9-8.3,2.5-9.5-0.3c-0.4-0.8-0.5-1.8-0.5-3.1c0.4-13.9-0.7-104.1-0.8-108.3l0-0.2
			c0.2,0.1,0.3,0.1,0.5,0.2c2.4,0.8,4.6,1.6,6.8,2.4c0.4,0.1,0.8,0.3,1.1,0.4c2.1,0.8,4.1,1.5,6,2.2c31.7,11.9,38.8,18.6,59.6,16.7
			c15.8-1.5,21.2-5.9,37-6.5c20.4-0.7,47,19.2,55.1,31.7C1519.8,256.5,1497.7,251.2,1451.9,257.3z"/>
		<path class="st2" d="M1356.7,197c-2.7,37.4-1.2,89.4-0.6,105.3c-0.6,0.3-1.3,0.6-1.9,0.9c-0.4,0.2-0.8,0.3-1.1,0.5
			c-4.6,1.9-8.3,2.5-9.5-0.3c-0.4-0.8-0.5-1.8-0.5-3.1c0.4-13.9-0.7-104.1-0.8-108.3l0-0.2c0.2,0.1,0.3,0.1,0.5,0.2
			c2.4,0.8,4.6,1.6,6.8,2.4c0.4,0.1,0.8,0.3,1.1,0.4C1352.8,195.6,1354.8,196.3,1356.7,197z"/>
	</g>
	<g>
		<path class="st3" d="M1349,465.7C1349,465.7,1348.9,465.7,1349,465.7c-2.4,0.2-8.2-1.8-8.3-3c-9.2-149.3-2.2-267.6-2.5-269.3
			c-0.9-5.1,5.2-5.8,7.5-6c2.4-0.1,4.2,0.7,4.1,1.9c-0.1,1.7-5.9,124.6,3.3,273.8C1353.1,464.3,1351.3,465.4,1349,465.7z"/>
	</g>
</g>
<path class="st4" d="M973.2,1790.1c0,16,207.6,34.5,446.8,34.5s433.1-12.9,433.1-28.9s-193.9-28.9-433.1-28.9
	C1180.8,1766.8,973.2,1774.2,973.2,1790.1z"/>
<g>
	<path class="st5" d="M1139.3,1478.3c88.3,33.2,167.8,72.2,272.7,72.2c155.6,0,246.5-77.1,246.5-188.6c0-103.3-62.9-162.4-222-219.8
		c-192.3-64-355.2-175.7-355.2-331.5c0-172.2,196.1-281.9,425.1-281.9c120.6,0,180.2,20.9,260.5,54.1c80.3,33.3,23.9,150.7-42,116.5
		c-65.8-34.3-117.1-52.5-223.8-52.5c-160.8,0-263.5,42.6-266,147.4c-3.2,134.4,115.7,172.4,278.2,231.5
		c199.3,72.2,300.7,162.4,300.7,324.8c0,170.6-134.6,318.2-412.6,318.2c-113.6,0-242.6-34.5-300.7-70.5
		C1042.8,1562.1,1051,1445.1,1139.3,1478.3z"/>
</g>
<path class="st5" d="M1600.4,408.7c0,0,0,1379,0,1393.1s-71.3,14.6-73.1,0c-1.7-14.6,0-1393.1,0-1393.1c0-3.5,4.1-6.8,10.7-9.1
	c6.6-2.3,15.7-3.8,25.8-3.8c0.7,0,1.4,0,2.1,0c0.7,0,1.4,0,2.1,0.1c0.7,0,1.4,0.1,2.1,0.1c0.7,0,1.3,0.1,2,0.1
	c0.7,0.1,1.4,0.1,2.1,0.2c0.5,0.1,1.1,0.1,1.6,0.2c2.5,0.3,4.9,0.7,7.1,1.2c1.5,0.3,2.9,0.7,4.3,1.1c0.9,0.3,1.7,0.5,2.5,0.8
	c0.6,0.2,1.2,0.4,1.8,0.7c0.6,0.2,1.1,0.5,1.7,0.7c0,0,0,0,0,0c0.5,0.2,1,0.5,1.5,0.8c0.5,0.3,0.9,0.5,1.3,0.8
	c0.8,0.6,1.6,1.1,2.2,1.7c0.1,0.1,0.3,0.3,0.4,0.4c0.4,0.4,0.7,0.8,0.9,1.2c0.1,0.1,0.2,0.3,0.2,0.4c0.1,0.1,0.1,0.3,0.2,0.4
	c0.1,0.2,0.1,0.4,0.2,0.6C1600.3,407.8,1600.4,408.2,1600.4,408.7z"/>
<path class="st5" d="M1382.6,408.7c0,0,0,1379.8,0,1393.1s-71.5,15-71.5,0s0-1393.1,0-1393.1c0-3.5,4-6.8,10.5-9.1
	c6.4-2.3,15.4-3.8,25.3-3.8c0.7,0,1.4,0,2.1,0c0.7,0,1.4,0,2,0.1c0.7,0,1.4,0.1,2,0.1c0.7,0,1.3,0.1,1.9,0.1c0.7,0.1,1.4,0.1,2,0.2
	c0.5,0.1,1.1,0.1,1.6,0.2c2.5,0.3,4.8,0.7,6.9,1.2c1.5,0.3,2.9,0.7,4.2,1.1c0.9,0.3,1.7,0.5,2.5,0.8c0.6,0.2,1.2,0.4,1.7,0.7
	c0.6,0.2,1.1,0.5,1.6,0.7c0,0,0,0,0,0c0.5,0.2,1,0.5,1.5,0.8c0.5,0.3,0.9,0.5,1.3,0.8c0.8,0.6,1.5,1.1,2.1,1.7
	c0.1,0.1,0.3,0.3,0.4,0.4c0.4,0.4,0.7,0.8,0.9,1.2c0.1,0.1,0.2,0.3,0.2,0.4c0.1,0.1,0.1,0.3,0.2,0.4c0.1,0.2,0.1,0.4,0.2,0.6
	C1382.5,407.8,1382.6,408.2,1382.6,408.7z"/>
<g>
	<path class="st5" d="M1373.3,906.5v2.3c0,3.6,0.5,7.5,2,9.7c0.1,0.2,0.3,0.4,0.4,0.5c0.1,0.2,0.3,0.3,0.5,0.5
		c1.1,0.9,1.3,0.5,2.6,0.5h154c0.3,0,0.5,0,0.8-0.1c1.7-0.3,1.9-1.8,3.1-4.2c0.1-0.2,0.2-0.4,0.3-0.7c0.8-1.8,1.2-3.9,1.2-6.2v-2.3
		c0-6.2-1.3-11.4-5.5-11.4h-154C1374.7,895.2,1373.3,900.3,1373.3,906.5z"/>
	<path class="st6" d="M1375.2,918.6c0.2,0.2,0.4,0.3,0.6,0.5c1,0.6,2,1,3.1,1h154c0.3,0,0.5,0,0.8-0.1c1.7-0.3,1.9-1.8,3.1-4.2
		c0.1-0.2,0.2-0.4,0.3-0.7c-41.5-10.5-142.6-3.7-161.7,3.4C1375.3,918.5,1375.3,918.6,1375.2,918.6z"/>
</g>
<g>
	<path class="st5" d="M1373,754.5v2.3c0,3.6,0.5,7.5,2,9.7c0.1,0.2,0.3,0.4,0.4,0.5c0.1,0.2,0.3,0.3,0.5,0.5
		c1.1,0.9,1.3,0.5,2.6,0.5h154c0.3,0,0.5,0,0.8-0.1c1.7-0.3,1.9-1.8,3.1-4.2c0.1-0.2,0.2-0.4,0.3-0.7c0.8-1.8,1.2-3.9,1.2-6.2v-2.3
		c0-6.2-1.3-11.4-5.5-11.4h-154C1374.4,743.2,1373,748.3,1373,754.5z"/>
	<path class="st6" d="M1374.9,766.6c0.2,0.2,0.4,0.3,0.6,0.5c1,0.6,2,1,3.1,1h154c0.3,0,0.5,0,0.8-0.1c1.7-0.3,1.9-1.8,3.1-4.2
		c0.1-0.2,0.2-0.4,0.3-0.7c-41.5-10.5-142.6-3.7-161.7,3.4C1375,766.6,1375,766.6,1374.9,766.6z"/>
</g>
<g>
	<path class="st5" d="M1371.8,1706.1v2.3c0,3.6,0.5,7.5,2,9.7c0.1,0.2,0.3,0.4,0.4,0.5c0.1,0.2,0.3,0.3,0.5,0.5
		c1.1,0.9,1.3,0.5,2.6,0.5h154c0.3,0,0.5,0,0.8-0.1c1.7-0.3,1.9-1.8,3.1-4.2c0.1-0.2,0.2-0.4,0.3-0.7c0.8-1.8,1.2-3.9,1.2-6.2v-2.3
		c0-6.2-1.3-11.4-5.5-11.4h-154C1373.2,1694.8,1371.8,1699.9,1371.8,1706.1z"/>
	<path class="st6" d="M1373.7,1718.2c0.2,0.2,0.4,0.3,0.6,0.5c1,0.6,2,1,3.1,1h154c0.3,0,0.5,0,0.8-0.1c1.7-0.3,1.9-1.8,3.1-4.2
		c0.1-0.2,0.2-0.4,0.3-0.7c-41.5-10.5-142.6-3.7-161.7,3.4C1373.8,1718.1,1373.7,1718.2,1373.7,1718.2z"/>
</g>
<g>
	<path class="st5" d="M1373.7,1426.5v2.3c0,3.6,0.5,7.5,2,9.7c0.1,0.2,0.3,0.4,0.4,0.5c0.1,0.2,0.3,0.3,0.5,0.5
		c1.1,0.9,1.3,0.5,2.6,0.5h154c0.3,0,0.5,0,0.8-0.1c1.7-0.3,1.9-1.8,3.1-4.2c0.1-0.2,0.2-0.4,0.3-0.7c0.8-1.8,1.2-3.9,1.2-6.2v-2.3
		c0-6.2-1.3-11.4-5.5-11.4h-154C1375,1415.2,1373.7,1420.3,1373.7,1426.5z"/>
	<path class="st6" d="M1375.5,1438.6c0.2,0.2,0.4,0.3,0.6,0.5c1,0.6,2,1,3.1,1h154c0.3,0,0.5,0,0.8-0.1c1.7-0.3,1.9-1.8,3.1-4.2
		c0.1-0.2,0.2-0.4,0.3-0.7c-41.5-10.5-142.6-3.7-161.7,3.4C1375.6,1438.5,1375.6,1438.6,1375.5,1438.6z"/>
</g>
<g>
	<path class="st5" d="M1371.8,1237.2v2.3c0,3.6,0.5,7.5,2,9.7c0.1,0.2,0.3,0.4,0.4,0.5c0.1,0.2,0.3,0.3,0.5,0.5
		c1.1,0.9,1.3,0.5,2.6,0.5h154c0.3,0,0.5,0,0.8-0.1c1.7-0.3,1.9-1.8,3.1-4.2c0.1-0.2,0.2-0.4,0.3-0.7c0.8-1.8,1.2-3.9,1.2-6.2v-2.3
		c0-6.2-1.3-11.4-5.5-11.4h-154C1373.2,1225.9,1371.8,1231,1371.8,1237.2z"/>
	<path class="st6" d="M1373.7,1249.3c0.2,0.2,0.4,0.3,0.6,0.5c1,0.6,2,1,3.1,1h154c0.3,0,0.5,0,0.8-0.1c1.7-0.3,1.9-1.8,3.1-4.2
		c0.1-0.2,0.2-0.4,0.3-0.7c-41.5-10.5-142.6-3.7-161.7,3.4C1373.8,1249.3,1373.7,1249.3,1373.7,1249.3z"/>
</g>
<g>
	<path class="st7" d="M1397.6,1266.1c1.3-5,2.7-14.2,5.5-20.5c2.7-6.1,6.6-15.8,4.1-17.6c-7.3-5.4,2.9-6.3,3.4-8.2
		c1.3-4.7,9.7-7,13.5-5.6c3.5,1.3,10.2,4.5,8.8,14.9c-0.6,4.7-6.5,10.7-9.8,21.7c-2,6.6-5.7,18.6-7.5,21
		C1413.9,1274.2,1397.6,1266.1,1397.6,1266.1z"/>
	<path class="st7" d="M1406.9,1688.1c-2.1-9.8-10.3-33.7-10.3-33.7l-25.5,7l12.7,35.8l20.3,6.3L1406.9,1688.1z"/>
	<path class="st8" d="M1407.7,1683.4c2.5-1.4,2.1,1.5,4.2,5.3c4.8,8.7,38.4-0.1,43.7-0.7c2.7-0.3,10.6,12.2-2.4,15.7
		c-11.3,3-47.4,12.7-59.7,15.9c-2.6,0.7-5.3-0.5-6.6-2.8c-4.6-8.4-7.8-22.4-4.4-23.6C1387.2,1690,1397.2,1689.1,1407.7,1683.4z"/>
	<g>
		<path class="st7" d="M1199.4,1758.2c3.8-9.3,10.4-33.7,10.4-33.7l-25-8.6l-9.6,36.8l13.2,16.6L1199.4,1758.2z"/>
		<path class="st8" d="M1202.6,1754.7c2.8,0.3,0.9,2.4,0.5,6.7c-0.9,9.8,31.8,21.6,36.5,24.2c2.4,1.3,1.9,16.1-10.8,11.6
			c-11-3.9-46.3-16.3-58.3-20.6c-2.5-0.9-4.1-3.4-3.9-6.1c0.9-9.5,6.2-22.9,9.7-22C1182,1748.6,1190.8,1753.5,1202.6,1754.7z"/>
	</g>
	<path class="st9" d="M1288.9,1409.4c16.6,27.3,92.3,92.6,95.5,114.5c3.2,21.9,27.1,143,25.4,148.3c-1.7,5.3-21.5,15.6-33.8,12.9
		c-12.3-2.7-16.6-109.5-29.6-140.5s-91.8-64.9-91.8-64.9c5,47.8,2.3,131-4.5,146.6c-12.7,34.9-41.6,122-41.6,122
		c-16.4-1.3-36.3-10.7-33.3-11.7c8.4-24.7,27.5-94.5,30.2-118.3c2.7-23.8-28.4-215.7-28.4-215.7l90-5.9L1288.9,1409.4z"/>
	<path class="st10" d="M1254.6,1479.8c1,13.7,2.5,26.2,2.5,46.8l-21-57.8C1236.1,1468.8,1246.7,1474.2,1254.6,1479.8z"/>
	<g>
		<path class="st7" d="M1255.1,1240.9l3.4,12.1l-21.7,8.5c-0.9-6.1-6.3-15.3-12.3-25c0,0,0,0,0,0c-9.3-14.9-20-31-17.9-38.5
			c3.5-12.4,26.5-15.6,29.6-11.9c0.7,0.8,1.4,1.6,2,2.3c9.2,10.6,13,12.1,14,13.6c-1.8,3.1-3.5-0.6,1.1,6.5
			c6.7,10.2,10.9,18.9-6.2,17.3c4.9,7.6,6.6,10.3,6.6,10.3L1255.1,1240.9z"/>
		<path class="st11" d="M1233.3,1216.9c-7.3-0.7-8.2-11.6,0-9.3c4.6-3.2,4-3.5,1.2-7.6c-2.8-4.1,1.5-4.6,3.2-9.7
			c1.6-5.1,4.7-9.4-1.4-12.2c-3.5-1.6-4-1.2-6.7-2.8c-2.7-1.6-6-6-8.2-0.8c-2.2,5.2,0.4,8-7.6,6.2c-8-1.8-14,1.9-11.9,10.3
			c2.4,9.7-4.4,4.5-3,14.2c2.7,17.3,11.5,11.4,15.4,19.8s11.7,14.9,17.5,11S1235.9,1221,1233.3,1216.9z"/>
		<path class="st12" d="M1255.1,1240.9c-0.6,0.7-1.7,0.8-3.5-0.3c-6.2-3.8-16-0.2-12.1-13.6c0.4-1.5,2-3,7.7-1.1
			c4.9,7.6,6.6,10.3,6.6,10.3L1255.1,1240.9z"/>
	</g>
	<path class="st13" d="M1219.6,1244.5c5.6-2.3,35.2-6.3,49,1.8s27.9,17.5,41,28.9c17.7,15.5,38.9,38.9,50.2,41
		c15.3,2.9,39.9-77.8,39.9-77.8c4.8-0.1,27.3,3.7,28.5,7.2c-2.8,8.5-28.2,118.3-74.5,101.9c-25.6-9.1-66.9-48.8-69.2-37.8
		c-0.2,27.5-7.4,42.8,4.5,99.7c-30.7,28.3-113,19.4-115.2,2c-2.2-17.4,8.6-118.5,12.9-130.8
		C1192.3,1264.6,1213.9,1246.8,1219.6,1244.5z"/>
	<path class="st2" d="M1284.4,1309.7c-0.2,24.1-7,44.5,2.3,88.4c-1.2,0-3.5-6.7-5.2-9.5c-6.8-11.5-14.8-65.4-12.6-69.9
		c2.1-4.4,4.7-6.6,16.6-11.3C1284.9,1307.8,1284.6,1309.1,1284.4,1309.7z"/>
</g>
<path class="st14" d="M1286.7,617.6c-74,32.5-128.8,89.6-128.8,181.1c0,86.3,88.9,209.7,197.8,240.6"/>
<path class="st14" d="M1479.2,581.6c-34,0-69.5,2.9-104,9.4"/>
<path class="st15" d="M1064.7,617.8c46.2-6.5,52.7-25.4,61.3-83.7c6,55.3,13.6,76.3,60.5,82.6c-40.9,15.8-55.3,21.5-62.6,85.5
	C1113.8,637.4,1104.8,631.7,1064.7,617.8z"/>
<path class="st15" d="M1575.2,810.3c30.1-4.3,34.4-16.6,40-54.6c3.9,36.1,8.9,49.8,39.5,53.9c-26.7,10.3-36.1,14-40.9,55.8
	C1607.3,823.1,1601.4,819.4,1575.2,810.3z"/>
<path class="st15" d="M1743.2,1098.3c40.5-5.7,46.2-22.2,53.8-73.4c5.2,48.5,11.9,66.9,53.1,72.4c-35.9,13.8-48.5,18.9-54.9,74.9
	C1786.3,1115.5,1778.5,1110.5,1743.2,1098.3z"/>
<path class="st15" d="M1434.9,1123.3c33.6-4.8,38.3-18.4,44.6-60.8c4.3,40.2,9.9,55.5,44,60.1c-29.8,11.5-40.2,15.6-45.5,62.1
	C1470.6,1137.6,1464.1,1133.4,1434.9,1123.3z"/>
<path class="st15" d="M2113.9,963.9c-53.9,4.1-105.4-1.3-158.3-14.9c-8.1-2.1-16.7-4.9-22.2-12.6c-8.3-11.7-5.8-31.5,3.2-42.4
	c9-11,22.5-14.2,35-12.7c8,1,16.2,3.7,23.9,0.9c9.6-3.5,16-14.5,22.5-24.1c6.5-9.6,15.2-19.1,25.2-17.6c7.5,1.1,13.4,8.1,20,12.6
	s16.3,4.9,20.1-3.2c8.2-17.3-3.3-64.9,38.7-64.9c60.6,0,50.7,47.9,58,58c11.1,15.4,30.8,12,46.8,6.8c16-5.2,35.1-10.2,47.5,3.6
	c10.7,11.9,11.8,33.8,23.2,44.7c12.1,11.6,29.4,5.4,44.1,0.2c14.7-5.2,33.7-7.1,42.2,8.7c7.2,13.3,1.8,32.6-8.4,42.3
	c-10.2,9.7-23.6,12.1-36.4,13.1C2255.9,968.6,2180.5,958.8,2113.9,963.9z"/>
<g transform="matrix(1,0,0,1,237.247,166.78)" class="st16">
	<path class="st17" d="M597.9,1145.8c-3.2,11.2-4.8,21.8,12.8,37.1c13.7,12,28.4,3.8,43.3,11.7c20.3,10.7,17.8,27.6,44.2,29.7
		c22.8,1.8,28-32.9,61.3-19.2c25.1,10.4,53.5,1.2,52.6-22.9c-0.9-24.2,24.4-28.6,9.2-52.2c-15.5-24-41-4.4-53.1-10
		c-18.7-8.7-21-26.5-48.8-25.2c-35.4,1.7-31.6,23-64.1,21.7C626,1115.3,603.3,1126.6,597.9,1145.8z"/>
</g>
<path class="st15" d="M1007.7,446.7c31.8,0,97.3,64,3.8,74.2c-93.5,10.3-233.6,5.5-290.3,5.8c-92.5,0.4-115.5-3.9-114.7-46.8
	c0.4-24.8,12.2-40.8,61-47.3c50.7-6.8,24.8-70.7,86.8-68.7c52.8,1.6,58.1,85.3,106.4,64.8c48.3-20.5,38.2,35.4,73.5,45.6
	C972.9,485.5,975.9,446.7,1007.7,446.7z"/>
</svg>
