<?xml version="1.0" encoding="utf-8"?>
<!-- Generator: Adobe Illustrator 26.3.1, SVG Export Plug-In . SVG Version: 6.00 Build 0)  -->
<!DOCTYPE svg PUBLIC "-//W3C//DTD SVG 1.1//EN" "http://www.w3.org/Graphics/SVG/1.1/DTD/svg11.dtd" [
	<!ENTITY ns_extend "http://ns.adobe.com/Extensibility/1.0/">
	<!ENTITY ns_ai "http://ns.adobe.com/AdobeIllustrator/10.0/">
	<!ENTITY ns_graphs "http://ns.adobe.com/Graphs/1.0/">
	<!ENTITY ns_vars "http://ns.adobe.com/Variables/1.0/">
	<!ENTITY ns_imrep "http://ns.adobe.com/ImageReplacement/1.0/">
	<!ENTITY ns_sfw "http://ns.adobe.com/SaveForWeb/1.0/">
	<!ENTITY ns_custom "http://ns.adobe.com/GenericCustomNamespace/1.0/">
	<!ENTITY ns_adobe_xpath "http://ns.adobe.com/XPath/1.0/">
	<!ENTITY st0 "fill:#CC8E65;">
	<!ENTITY st1 "fill:#BA744D;">
	<!ENTITY st2 "fill:#46ABD3;">
	<!ENTITY st3 "opacity:0.1;">
	<!ENTITY st4 "fill:#FFFFFF;">
	<!ENTITY st5 "fill:#54B8EA;">
	<!ENTITY st6 "opacity:0.15;">
	<!ENTITY st7 "fill:#399DBC;">
]>
<svg version="1.1" id="Layer_1" xmlns:x="&ns_extend;" xmlns:i="&ns_ai;" xmlns:graph="&ns_graphs;"
	 xmlns="http://www.w3.org/2000/svg" xmlns:xlink="http://www.w3.org/1999/xlink" x="0px" y="0px" viewBox="0 0 74 74"
	 style="enable-background:new 0 0 74 74;" xml:space="preserve">
<metadata>
	<sfw  xmlns="&ns_sfw;">
		<slices></slices>
		<sliceSourceBounds  bottomLeftOrigin="true" height="65.01" width="61.92" x="6.03" y="4.5"></sliceSourceBounds>
	</sfw>
</metadata>
<g id="code_x5F_flag">
	<g>
		<path style="&st0;" d="M24.43,65.7V68c0,0.55-0.45,1-1,1H7.53c-0.55,0-1-0.45-1-1v-2.3c0-0.55,0.45-1,1-1h15.9
			C23.98,64.7,24.43,65.15,24.43,65.7z"/>
	</g>
	<g>
		<path d="M23.43,69.5H7.53c-0.83,0-1.5-0.67-1.5-1.5v-2.3c0-0.83,0.67-1.5,1.5-1.5h15.9c0.83,0,1.5,0.67,1.5,1.5V68
			C24.93,68.83,24.26,69.5,23.43,69.5z M7.53,65.2c-0.28,0-0.5,0.22-0.5,0.5V68c0,0.28,0.22,0.5,0.5,0.5h15.9
			c0.28,0,0.5-0.22,0.5-0.5v-2.3c0-0.28-0.22-0.5-0.5-0.5H7.53z"/>
	</g>
	<g>
		<path style="&st1;" d="M17.88,7.39V64.7h-4.79V7.39c0-1.32,1.07-2.4,2.4-2.4l0,0C16.8,5,17.88,6.07,17.88,7.39z"/>
	</g>
	<g>
		<path d="M17.88,65.2h-4.79c-0.28,0-0.5-0.22-0.5-0.5V7.39c0-1.6,1.3-2.9,2.9-2.9s2.9,1.3,2.9,2.9V64.7
			C18.38,64.98,18.15,65.2,17.88,65.2z M13.59,64.2h3.79V7.39c0-1.04-0.85-1.9-1.9-1.9c-1.04,0-1.9,0.85-1.9,1.9L13.59,64.2
			L13.59,64.2z"/>
	</g>
	<g>
		<polygon style="&st2;" points="67.47,14.54 62.47,26.95 67.47,39.36 38.8,39.36 38.8,14.54 		"/>
	</g>
	<g style="&st3;">
		<path style="&st4;" d="M60.25,14.54H38.8V34.5h12.28c5.06,0,9.16-4.1,9.16-9.16v-10.8H60.25z"/>
	</g>
	<g style="&st3;">
		<path style="&st4;" d="M54.89,14.54H38.8v14.98h9.22c3.8,0,6.88-3.08,6.88-6.88v-8.1H54.89z"/>
	</g>
	<g>
		<path d="M67.47,39.86H38.8c-0.28,0-0.5-0.22-0.5-0.5V14.54c0-0.28,0.22-0.5,0.5-0.5h28.66c0.17,0,0.32,0.08,0.41,0.22
			c0.09,0.14,0.11,0.31,0.05,0.47L63,26.95l4.92,12.22c0.06,0.15,0.04,0.33-0.05,0.47C67.79,39.78,67.63,39.86,67.47,39.86z
			 M39.3,38.86h27.42L62,27.14c-0.05-0.12-0.05-0.25,0-0.37l4.72-11.72H39.3V38.86z"/>
	</g>
	<g>
		<rect x="17.88" y="8.54" style="&st5;" width="31.16" height="24.82"/>
	</g>
	<g style="&st6;">
		<path style="&st4;" d="M43.92,8.54v10.42c0,5.6-4.54,10.14-10.14,10.14h-15.9V8.54H43.92z"/>
	</g>
	<g style="&st6;">
		<path style="&st4;" d="M35.12,8.54v6.9c0,3.71-3.01,6.72-6.72,6.72H17.88V8.54H35.12z"/>
	</g>
	<g>
		<path d="M30.43,24.78c-0.07,0-0.13-0.01-0.2-0.04l-5.54-2.4c-0.34-0.15-0.56-0.48-0.56-0.86v-0.97c0-0.37,0.22-0.71,0.56-0.86
			l5.54-2.4c0.25-0.11,0.55,0.01,0.66,0.26s-0.01,0.55-0.26,0.66l-5.54,2.4l0.04,0.91l5.5,2.34c0.25,0.11,0.37,0.4,0.26,0.66
			C30.8,24.67,30.62,24.78,30.43,24.78z"/>
	</g>
	<g>
		<path d="M33.21,25.25c-0.04,0-0.08,0-0.12-0.01c-0.27-0.07-0.43-0.34-0.37-0.6l1.78-7.34c0.07-0.27,0.33-0.43,0.6-0.37
			c0.27,0.07,0.43,0.34,0.37,0.6l-1.78,7.34C33.64,25.1,33.43,25.25,33.21,25.25z"/>
	</g>
	<g>
		<path d="M36.49,24.79c-0.19,0-0.38-0.11-0.46-0.3c-0.11-0.25,0.01-0.55,0.26-0.66l5.54-2.41l-0.04-0.9l-5.5-2.33
			c-0.25-0.11-0.37-0.4-0.26-0.66c0.11-0.25,0.4-0.37,0.66-0.26l5.54,2.39c0.34,0.15,0.56,0.48,0.56,0.86v0.96
			c0,0.37-0.22,0.71-0.56,0.86l-5.54,2.41C36.63,24.78,36.56,24.79,36.49,24.79z"/>
	</g>
	<g>
		<path d="M49.04,33.86H17.88c-0.28,0-0.5-0.22-0.5-0.5V8.54c0-0.28,0.22-0.5,0.5-0.5h31.16c0.28,0,0.5,0.22,0.5,0.5v24.82
			C49.54,33.63,49.32,33.86,49.04,33.86z M18.38,32.86h30.16V9.04H18.38V32.86z"/>
	</g>
	<g>
		<polygon style="&st7;" points="49.04,33.36 38.8,39.36 38.8,33.36 		"/>
	</g>
	<g>
		<path d="M38.8,39.86c-0.09,0-0.17-0.02-0.25-0.07c-0.16-0.09-0.25-0.25-0.25-0.43v-6c0-0.28,0.22-0.5,0.5-0.5h10.24
			c0.23,0,0.42,0.15,0.48,0.37s-0.03,0.45-0.23,0.56l-10.24,6C38.98,39.84,38.89,39.86,38.8,39.86z M39.3,33.86v4.63l7.9-4.63H39.3z
			"/>
	</g>
</g>
</svg>
