<?xml version="1.0" encoding="utf-8"?>
<!-- Generator: Adobe Illustrator 26.4.1, SVG Export Plug-In . SVG Version: 6.00 Build 0)  -->
<svg version="1.1" id="Artemis_Program_Set_x0A_" xmlns:serif="http://www.serif.com/"
	 xmlns="http://www.w3.org/2000/svg" xmlns:xlink="http://www.w3.org/1999/xlink" x="0px" y="0px" viewBox="0 0 1920 1080"
	 style="enable-background:new 0 0 1920 1080;" xml:space="preserve">
<style type="text/css">
	.st0{fill-rule:evenodd;clip-rule:evenodd;fill:#1B4057;}
	.st1{fill-rule:evenodd;clip-rule:evenodd;fill:#E47833;}
	.st2{fill-rule:evenodd;clip-rule:evenodd;fill:#D3450A;}
	.st3{fill-rule:evenodd;clip-rule:evenodd;fill:#D55925;}
	.st4{fill-rule:evenodd;clip-rule:evenodd;fill:#F2F1EF;}
	.st5{fill-rule:evenodd;clip-rule:evenodd;fill:#D3D3D3;}
	.st6{fill-rule:evenodd;clip-rule:evenodd;fill:#292B2B;}
	.st7{fill-rule:evenodd;clip-rule:evenodd;fill:#F1EFED;}
	.st8{fill-rule:evenodd;clip-rule:evenodd;fill:#DADFE1;}
	.st9{fill-rule:evenodd;clip-rule:evenodd;fill:#D4D4D4;}
	.st10{fill-rule:evenodd;clip-rule:evenodd;fill:#F9B52C;}
	.st11{fill-rule:evenodd;clip-rule:evenodd;fill:#97281B;}
	.st12{fill-rule:evenodd;clip-rule:evenodd;fill:#5B5B5B;}
	.st13{fill-rule:evenodd;clip-rule:evenodd;fill:#4F4F4F;}
	.st14{fill-rule:evenodd;clip-rule:evenodd;fill:#181818;}
	.st15{fill-rule:evenodd;clip-rule:evenodd;fill:#FFFFFF;}
	.st16{fill-rule:evenodd;clip-rule:evenodd;fill:#CCCCCC;}
	.st17{fill-rule:evenodd;clip-rule:evenodd;fill:#262626;}
	.st18{fill-rule:evenodd;clip-rule:evenodd;fill:#C11523;}
	.st19{fill-rule:evenodd;clip-rule:evenodd;fill:#00548F;}
	.st20{fill-rule:evenodd;clip-rule:evenodd;fill:#8C8C8C;}
	.st21{fill-rule:evenodd;clip-rule:evenodd;}
	.st22{fill-rule:evenodd;clip-rule:evenodd;fill:#24628F;}
	.st23{fill-rule:evenodd;clip-rule:evenodd;fill:#3FC380;}
	.st24{fill-rule:evenodd;clip-rule:evenodd;fill:#FFFFFF;fill-opacity:0.15;}
	.st25{fill-rule:evenodd;clip-rule:evenodd;fill:#B3B3B3;}
	.st26{fill-rule:evenodd;clip-rule:evenodd;fill:#D9D9D9;}
	.st27{fill-rule:evenodd;clip-rule:evenodd;fill:#717171;}
	.st28{fill-rule:evenodd;clip-rule:evenodd;fill:#979797;}
	.st29{fill-rule:evenodd;clip-rule:evenodd;fill:#BBBBBB;}
	.st30{fill-rule:evenodd;clip-rule:evenodd;fill:#F4F4F4;}
	.st31{fill-rule:evenodd;clip-rule:evenodd;fill:#DEDEDE;}
	.st32{fill-rule:evenodd;clip-rule:evenodd;fill:#3A3A3A;}
	.st33{fill-rule:evenodd;clip-rule:evenodd;fill:#8B8B8B;}
	.st34{fill-rule:evenodd;clip-rule:evenodd;fill:#E9E9E9;}
	.st35{fill-rule:evenodd;clip-rule:evenodd;fill:#214257;}
	.st36{fill-rule:evenodd;clip-rule:evenodd;fill:#C7C7C7;}
	.st37{fill-rule:evenodd;clip-rule:evenodd;fill:#575757;}
	.st38{fill-rule:evenodd;clip-rule:evenodd;fill:#7E7E7E;}
	.st39{fill-rule:evenodd;clip-rule:evenodd;fill:#646464;}
	.st40{fill-rule:evenodd;clip-rule:evenodd;fill:#494949;}
	.st41{fill-rule:evenodd;clip-rule:evenodd;fill:#A3A3A3;}
	.st42{fill-rule:evenodd;clip-rule:evenodd;fill:#D8C789;}
</style>
<rect class="st0" width="1920" height="1080"/>
<g id="SLS" transform="matrix(9.54387e-16,15.5863,-15.5863,9.54387e-16,3790.36,-231.425)">
	
		<rect x="67.1" y="219.7" transform="matrix(2.535182e-06 1 -1 2.535182e-06 291.8158 156.9674)" class="st1" width="0.7" height="9.4"/>
	
		<rect x="48.5" y="200.6" transform="matrix(2.535182e-06 1 -1 2.535182e-06 272.7175 137.8692)" class="st2" width="37.9" height="9.4"/>
	
		<rect x="63.8" y="178" transform="matrix(2.535182e-06 1 -1 2.535182e-06 250.142 115.2937)" class="st3" width="7.3" height="9.4"/>
	
		<rect x="61.7" y="168.6" transform="matrix(2.535182e-06 1 -1 2.535182e-06 240.7535 105.9053)" class="st2" width="11.5" height="9.4"/>
	
		<rect x="67.1" y="162.6" transform="matrix(2.535182e-06 1 -1 2.535182e-06 234.6663 99.818)" class="st1" width="0.7" height="9.4"/>
	<path class="st2" d="M62.7,164.1l1.9-8.4h5.6l1.9,8.4v2.8h-9.4V164.1z"/>
	
		<rect x="64.5" y="222.8" transform="matrix(2.535182e-06 1 -1 2.535182e-06 294.8978 160.0494)" class="st4" width="5.9" height="9.4"/>
	<path class="st4" d="M72.1,230.4h-9.4c0,0,0.2,0.8,0.4,1.3c0.1,0.2,0.2,0.3,0.5,0.3h7.7c0.2,0,0.4-0.1,0.5-0.3
		C71.9,231.3,72.1,230.4,72.1,230.4z"/>
	<path class="st5" d="M66.7,232.1h-3.1v0.3c0,0.2,0.2,0.4,0.4,0.4h2.2c0.2,0,0.4-0.2,0.4-0.4V232.1z"/>
	<path class="st5" d="M71.2,232.1h-3.1v0.3c0,0.2,0.2,0.4,0.4,0.4h2.2c0.2,0,0.4-0.2,0.4-0.4V232.1z"/>
	
		<rect x="66.6" y="208" transform="matrix(2.535182e-06 1 -1 2.535182e-06 275.0915 141.3207)" class="st6" width="0.5" height="0.5"/>
	
		<rect x="66.1" y="208" transform="matrix(2.535182e-06 1 -1 2.535182e-06 274.584 141.8282)" class="st7" width="0.5" height="0.5"/>
	
		<rect x="66.6" y="208.5" transform="matrix(2.535182e-06 1 -1 2.535182e-06 275.599 141.8282)" class="st7" width="0.5" height="0.5"/>
	
		<rect x="66.1" y="208.5" transform="matrix(2.535182e-06 1 -1 2.535182e-06 275.0915 142.3357)" class="st6" width="0.5" height="0.5"/>
	
		<rect x="67.4" y="229.1" transform="matrix(2.535182e-06 1 -1 2.535182e-06 297.07 161.7141)" class="st6" width="0.5" height="0.5"/>
	
		<rect x="66.9" y="229.1" transform="matrix(2.535182e-06 1 -1 2.535182e-06 296.5625 162.2216)" class="st7" width="0.5" height="0.5"/>
	
		<rect x="67.4" y="229.6" transform="matrix(2.535182e-06 1 -1 2.535182e-06 297.5775 162.2216)" class="st7" width="0.5" height="0.5"/>
	
		<rect x="66.9" y="229.6" transform="matrix(2.535182e-06 1 -1 2.535182e-06 297.07 162.7291)" class="st6" width="0.5" height="0.5"/>
	
		<rect x="67.4" y="164.8" transform="matrix(2.535182e-06 1 -1 2.535182e-06 232.756 97.4003)" class="st6" width="0.5" height="0.5"/>
	
		<rect x="66.9" y="164.8" transform="matrix(2.535182e-06 1 -1 2.535182e-06 232.2485 97.9078)" class="st7" width="0.5" height="0.5"/>
	
		<rect x="67.4" y="165.3" transform="matrix(2.535182e-06 1 -1 2.535182e-06 233.2635 97.9078)" class="st7" width="0.5" height="0.5"/>
	
		<rect x="66.9" y="165.3" transform="matrix(2.535182e-06 1 -1 2.535182e-06 232.756 98.4153)" class="st6" width="0.5" height="0.5"/>
	<path class="st6" d="M62.5,235.6H58l0.6-2h3.3L62.5,235.6z"/>
	<path class="st7" d="M62.5,229v2l0.8,2.6h-6.1L58,231v-2H62.5z"/>
	<path class="st6" d="M59.7,231.8h-0.5l-0.1,0.5h0.5L59.7,231.8z"/>
	<path class="st6" d="M60.2,232.3h-0.5l-0.1,0.5h0.5L60.2,232.3z"/>
	
		<rect x="59.8" y="226.2" transform="matrix(2.535182e-06 1 -1 2.535182e-06 288.6558 168.1669)" class="st7" width="0.8" height="4.5"/>
	
		<rect x="59.9" y="225.1" transform="matrix(2.535182e-06 1 -1 2.535182e-06 287.6418 167.1419)" class="st7" width="0.8" height="4.5"/>
	
		<rect x="58.1" y="212.6" transform="matrix(2.535182e-06 1 -1 2.535182e-06 275.0838 154.5839)" class="st7" width="4.3" height="4.5"/>
	
		<rect x="58.1" y="208" transform="matrix(2.535182e-06 1 -1 2.535182e-06 270.5243 150.0244)" class="st7" width="4.3" height="4.5"/>
	
		<rect x="58.1" y="203.5" transform="matrix(2.535182e-06 1 -1 2.535182e-06 266.0213 145.5214)" class="st7" width="4.2" height="4.5"/>
	
		<rect x="58" y="199" transform="matrix(2.535182e-06 1 -1 2.535182e-06 261.4713 140.9714)" class="st7" width="4.4" height="4.5"/>
	
		<rect x="58.1" y="194.4" transform="matrix(2.535182e-06 1 -1 2.535182e-06 256.857 136.3572)" class="st7" width="4.4" height="4.5"/>
	
		<rect x="58.9" y="181.6" transform="matrix(2.535182e-06 1 -1 2.535182e-06 244.074 123.5742)" class="st8" width="2.6" height="4.5"/>
	<path class="st7" d="M58.2,182l-0.1-0.2c0,0,1.5-5.7,2.2-5.7c0.7,0,2.2,5.7,2.2,5.7l-0.4,0.2L58.2,182z"/>
	
		<rect x="60.2" y="225.6" transform="matrix(2.535182e-06 1 -1 2.535182e-06 288.0728 167.5839)" class="st6" width="0.1" height="4.5"/>
	
		<rect x="60.2" y="228" transform="matrix(2.535182e-06 1 -1 2.535182e-06 290.4453 169.9564)" class="st6" width="0.1" height="4.5"/>
	
		<rect x="59.9" y="179.9" transform="matrix(2.535182e-06 1 -1 2.535182e-06 242.4285 121.9287)" class="st6" width="0.8" height="4.5"/>
	
		<rect x="60.1" y="183" transform="matrix(2.535182e-06 1 -1 2.535182e-06 245.4585 124.9587)" class="st6" width="0.2" height="4.5"/>
	
		<rect x="60.1" y="196.7" transform="matrix(2.535182e-06 1 -1 2.535182e-06 259.1543 138.6544)" class="st6" width="0.2" height="4.5"/>
	
		<rect x="58" y="189.7" transform="matrix(2.535182e-06 1 -1 2.535182e-06 252.2368 131.748)" class="st7" width="4.4" height="4.5"/>
	
		<rect x="58.1" y="185.2" transform="matrix(2.535182e-06 1 -1 2.535182e-06 247.692 127.1922)" class="st7" width="4.2" height="4.5"/>
	
		<rect x="60.1" y="187.4" transform="matrix(2.535182e-06 1 -1 2.535182e-06 249.9198 129.431)" class="st6" width="0.2" height="4.5"/>
	
		<rect x="60.1" y="201.3" transform="matrix(2.535182e-06 1 -1 2.535182e-06 263.7885 143.2887)" class="st5" width="0.2" height="4.5"/>
	
		<rect x="60.1" y="192.1" transform="matrix(2.535182e-06 1 -1 2.535182e-06 254.5595 134.0597)" class="st5" width="0.2" height="4.5"/>
	
		<rect x="60.1" y="205.8" transform="matrix(2.535182e-06 1 -1 2.535182e-06 268.254 147.7542)" class="st6" width="0.2" height="4.5"/>
	
		<rect x="60.1" y="210.3" transform="matrix(2.535182e-06 1 -1 2.535182e-06 272.7945 152.2946)" class="st9" width="0.2" height="4.5"/>
	
		<rect x="55.4" y="219.8" transform="matrix(2.535182e-06 1 -1 2.535182e-06 282.298 161.7981)" class="st7" width="9.6" height="4.5"/>
	
		<rect x="60.1" y="221.2" transform="matrix(2.535182e-06 1 -1 2.535182e-06 283.662 163.1676)" class="st9" width="0.2" height="4.5"/>
	
		<rect x="60.1" y="214.9" transform="matrix(2.535182e-06 1 -1 2.535182e-06 277.3728 156.8729)" class="st6" width="0.2" height="4.5"/>
	
		<rect x="60.1" y="225.8" transform="matrix(2.535182e-06 1 -1 2.535182e-06 288.269 167.7801)" class="st10" width="0.3" height="4.5"/>
	
		<rect x="60.1" y="226.6" transform="matrix(2.535182e-06 1 -1 2.535182e-06 289.0743 168.5854)" class="st10" width="0.3" height="4.5"/>
	
		<rect x="60.1" y="228.6" transform="matrix(2.535182e-06 1 -1 2.535182e-06 291.0828 170.5939)" class="st11" width="0.2" height="4.5"/>
	
		<rect x="60.2" y="224.7" transform="matrix(2.535182e-06 1 -1 2.535182e-06 287.162 166.6621)" class="st6" width="0.2" height="4.5"/>
	
		<rect x="60.2" y="218.8" transform="matrix(2.535182e-06 1 -1 2.535182e-06 281.2683 160.7684)" class="st6" width="0.2" height="4.5"/>
	<path class="st12" d="M60.8,232.8l-0.2,0l0,0.2l0.2,0L60.8,232.8z"/>
	<path class="st12" d="M61.2,232.8l-0.2,0l0,0.2l0.2,0L61.2,232.8z"/>
	<path class="st12" d="M61.6,232.7l-0.2,0l0,0.2l0.2,0L61.6,232.7z"/>
	<path class="st5" d="M60.8,232.1l-0.3,0l0.1,0.7l0.3,0L60.8,232.1z"/>
	<path class="st5" d="M61.2,232.1l-0.3,0l0.1,0.7l0.3,0L61.2,232.1z"/>
	<path class="st5" d="M61.6,232.1l-0.3,0l0.1,0.7l0.3,0L61.6,232.1z"/>
	<path class="st12" d="M62.2,232.7l-0.2,0l0.1,0.2l0.2,0L62.2,232.7z"/>
	<path class="st5" d="M62,232l-0.3,0.1l0.2,0.7l0.3-0.1L62,232z"/>
	
		<rect x="59.7" y="185.6" transform="matrix(2.535182e-06 1 -1 2.535182e-06 245.8038 125.8405)" class="st6" width="0.5" height="0.5"/>
	
		<rect x="60.2" y="185.6" transform="matrix(2.535182e-06 1 -1 2.535182e-06 246.34 125.3042)" class="st7" width="0.5" height="0.5"/>
	
		<rect x="59.7" y="186.1" transform="matrix(2.535182e-06 1 -1 2.535182e-06 246.3403 126.377)" class="st7" width="0.5" height="0.5"/>
	
		<rect x="60.2" y="186.1" transform="matrix(2.535182e-06 1 -1 2.535182e-06 246.8765 125.8407)" class="st6" width="0.5" height="0.5"/>
	
		<rect x="59.7" y="219.7" transform="matrix(2.535182e-06 1 -1 2.535182e-06 279.9063 159.9429)" class="st6" width="0.5" height="0.5"/>
	
		<rect x="60.2" y="219.7" transform="matrix(2.535182e-06 1 -1 2.535182e-06 280.4425 159.4066)" class="st7" width="0.5" height="0.5"/>
	
		<rect x="59.7" y="220.2" transform="matrix(2.535182e-06 1 -1 2.535182e-06 280.4428 160.4794)" class="st7" width="0.5" height="0.5"/>
	
		<rect x="60.2" y="220.2" transform="matrix(2.535182e-06 1 -1 2.535182e-06 280.979 159.9431)" class="st6" width="0.5" height="0.5"/>
	
		<rect x="60.6" y="191.4" transform="matrix(2.535182e-06 1 -1 2.535182e-06 253.0148 130.031)" class="st6" width="1.8" height="0.3"/>
	
		<rect x="60.9" y="191.4" transform="matrix(2.535182e-06 1 -1 2.535182e-06 253.3313 129.7145)" class="st7" width="1.8" height="0.3"/>
	
		<rect x="60.6" y="193.1" transform="matrix(2.535182e-06 1 -1 2.535182e-06 254.7958 131.812)" class="st7" width="1.8" height="0.3"/>
	
		<rect x="60.9" y="193.1" transform="matrix(2.535182e-06 1 -1 2.535182e-06 255.1123 131.4955)" class="st6" width="1.8" height="0.3"/>
	
		<rect x="60.6" y="195.3" transform="matrix(2.535182e-06 1 -1 2.535182e-06 256.9978 134.0139)" class="st6" width="1.8" height="0.3"/>
	
		<rect x="60.9" y="195.3" transform="matrix(2.535182e-06 1 -1 2.535182e-06 257.3143 133.6974)" class="st7" width="1.8" height="0.3"/>
	
		<rect x="60.6" y="197.1" transform="matrix(2.535182e-06 1 -1 2.535182e-06 258.779 135.7952)" class="st7" width="1.8" height="0.3"/>
	
		<rect x="60.9" y="197.1" transform="matrix(2.535182e-06 1 -1 2.535182e-06 259.0955 135.4787)" class="st6" width="1.8" height="0.3"/>
	
		<rect x="60.6" y="204.6" transform="matrix(2.535182e-06 1 -1 2.535182e-06 266.2268 143.2429)" class="st6" width="1.8" height="0.3"/>
	
		<rect x="60.9" y="204.6" transform="matrix(2.535182e-06 1 -1 2.535182e-06 266.5433 142.9264)" class="st7" width="1.8" height="0.3"/>
	
		<rect x="60.6" y="206.4" transform="matrix(2.535182e-06 1 -1 2.535182e-06 268.008 145.0242)" class="st7" width="1.8" height="0.3"/>
	
		<rect x="60.9" y="206.4" transform="matrix(2.535182e-06 1 -1 2.535182e-06 268.3245 144.7077)" class="st6" width="1.8" height="0.3"/>
	
		<rect x="60.6" y="209.2" transform="matrix(2.535182e-06 1 -1 2.535182e-06 270.8943 147.9104)" class="st6" width="1.8" height="0.3"/>
	
		<rect x="60.9" y="209.2" transform="matrix(2.535182e-06 1 -1 2.535182e-06 271.2108 147.5939)" class="st7" width="1.8" height="0.3"/>
	
		<rect x="60.6" y="211" transform="matrix(2.535182e-06 1 -1 2.535182e-06 272.6753 149.6914)" class="st7" width="1.8" height="0.3"/>
	
		<rect x="60.9" y="211" transform="matrix(2.535182e-06 1 -1 2.535182e-06 272.9918 149.3749)" class="st6" width="1.8" height="0.3"/>
	
		<rect x="60.6" y="213.8" transform="matrix(2.535182e-06 1 -1 2.535182e-06 275.435 152.4512)" class="st6" width="1.8" height="0.3"/>
	
		<rect x="60.9" y="213.8" transform="matrix(2.535182e-06 1 -1 2.535182e-06 275.7515 152.1346)" class="st7" width="1.8" height="0.3"/>
	
		<rect x="60.6" y="215.6" transform="matrix(2.535182e-06 1 -1 2.535182e-06 277.2163 154.2324)" class="st7" width="1.8" height="0.3"/>
	
		<rect x="60.9" y="215.6" transform="matrix(2.535182e-06 1 -1 2.535182e-06 277.5328 153.9159)" class="st6" width="1.8" height="0.3"/>
	
		<rect x="59.8" y="187.4" transform="matrix(2.535182e-06 1 -1 2.535182e-06 247.473 127.5827)" class="st6" width="0.3" height="0.3"/>
	
		<rect x="60.1" y="187.7" transform="matrix(2.535182e-06 1 -1 2.535182e-06 248.1308 127.583)" class="st6" width="0.3" height="0.3"/>
	
		<rect x="60.4" y="187.4" transform="matrix(2.535182e-06 1 -1 2.535182e-06 248.1305 126.9252)" class="st6" width="0.3" height="0.3"/>
	
		<rect x="60.8" y="187.7" transform="matrix(2.535182e-06 1 -1 2.535182e-06 248.7885 126.9252)" class="st6" width="0.3" height="0.3"/>
	
		<rect x="61.1" y="187.4" transform="matrix(2.535182e-06 1 -1 2.535182e-06 248.77 126.2857)" class="st6" width="0.3" height="0.3"/>
	
		<rect x="61.4" y="187.7" transform="matrix(2.535182e-06 1 -1 2.535182e-06 249.391 126.3227)" class="st6" width="0.3" height="0.3"/>
	
		<rect x="61.6" y="187.4" transform="matrix(2.535182e-06 1 -1 2.535182e-06 249.3223 125.7335)" class="st6" width="0.3" height="0.2"/>
	
		<rect x="61.9" y="187.7" transform="matrix(2.535182e-06 1 -1 2.535182e-06 249.8795 125.8342)" class="st6" width="0.3" height="0.2"/>
	
		<rect x="62" y="187.5" transform="matrix(2.535182e-06 1 -1 2.535182e-06 249.7375 125.3182)" class="st6" width="0.3" height="0.1"/>
	
		<rect x="62" y="187.5" transform="matrix(2.535182e-06 1 -1 2.535182e-06 249.7375 125.3182)" class="st6" width="0.3" height="0.1"/>
	
		<rect x="62.3" y="187.5" transform="matrix(2.535182e-06 1 -1 2.535182e-06 249.9885 125.0672)" class="st6" width="0.3" height="0.1"/>
	
		<rect x="62.2" y="187.8" transform="matrix(2.535182e-06 1 -1 2.535182e-06 250.2125 125.5012)" class="st6" width="0.3" height="0.1"/>
	
		<rect x="59.8" y="200.7" transform="matrix(2.535182e-06 1 -1 2.535182e-06 260.836 140.9517)" class="st6" width="0.3" height="0.3"/>
	
		<rect x="60.1" y="201.1" transform="matrix(2.535182e-06 1 -1 2.535182e-06 261.494 140.9517)" class="st6" width="0.3" height="0.3"/>
	
		<rect x="60.4" y="200.7" transform="matrix(2.535182e-06 1 -1 2.535182e-06 261.4938 140.2939)" class="st6" width="0.3" height="0.3"/>
	
		<rect x="60.8" y="201.1" transform="matrix(2.535182e-06 1 -1 2.535182e-06 262.1515 140.2942)" class="st6" width="0.3" height="0.3"/>
	
		<rect x="61.1" y="200.7" transform="matrix(2.535182e-06 1 -1 2.535182e-06 262.133 139.6547)" class="st6" width="0.3" height="0.3"/>
	
		<rect x="61.4" y="201.1" transform="matrix(2.535182e-06 1 -1 2.535182e-06 262.7543 139.6914)" class="st6" width="0.3" height="0.3"/>
	
		<rect x="61.6" y="200.8" transform="matrix(2.535182e-06 1 -1 2.535182e-06 262.6855 139.1022)" class="st6" width="0.3" height="0.2"/>
	
		<rect x="61.9" y="201.1" transform="matrix(2.535182e-06 1 -1 2.535182e-06 263.2428 139.2029)" class="st6" width="0.3" height="0.2"/>
	
		<rect x="62" y="200.8" transform="matrix(2.535182e-06 1 -1 2.535182e-06 263.101 138.6867)" class="st6" width="0.3" height="0.1"/>
	
		<rect x="62" y="200.8" transform="matrix(2.535182e-06 1 -1 2.535182e-06 263.101 138.6867)" class="st6" width="0.3" height="0.1"/>
	
		<rect x="62.3" y="200.9" transform="matrix(2.535182e-06 1 -1 2.535182e-06 263.352 138.4357)" class="st6" width="0.3" height="0.1"/>
	
		<rect x="62.2" y="201.2" transform="matrix(2.535182e-06 1 -1 2.535182e-06 263.576 138.8697)" class="st6" width="0.3" height="0.1"/>
	
		<rect x="59.8" y="218.6" transform="matrix(2.535182e-06 1 -1 2.535182e-06 278.6618 158.7774)" class="st6" width="0.3" height="0.3"/>
	
		<rect x="60.1" y="218.9" transform="matrix(2.535182e-06 1 -1 2.535182e-06 279.3195 158.7771)" class="st6" width="0.3" height="0.3"/>
	
		<rect x="60.4" y="218.6" transform="matrix(2.535182e-06 1 -1 2.535182e-06 279.3195 158.1196)" class="st6" width="0.3" height="0.3"/>
	
		<rect x="60.8" y="218.9" transform="matrix(2.535182e-06 1 -1 2.535182e-06 279.977 158.1196)" class="st6" width="0.3" height="0.3"/>
	
		<rect x="61.1" y="218.6" transform="matrix(2.535182e-06 1 -1 2.535182e-06 279.9588 157.4804)" class="st6" width="0.3" height="0.3"/>
	
		<rect x="61.4" y="218.9" transform="matrix(2.535182e-06 1 -1 2.535182e-06 280.5798 157.5169)" class="st6" width="0.3" height="0.3"/>
	
		<rect x="61.6" y="218.6" transform="matrix(2.535182e-06 1 -1 2.535182e-06 280.5113 156.9279)" class="st6" width="0.3" height="0.2"/>
	
		<rect x="61.9" y="218.9" transform="matrix(2.535182e-06 1 -1 2.535182e-06 281.0683 157.0284)" class="st6" width="0.3" height="0.2"/>
	
		<rect x="62" y="218.6" transform="matrix(2.535182e-06 1 -1 2.535182e-06 280.9268 156.5124)" class="st6" width="0.3" height="0.1"/>
	
		<rect x="62" y="218.6" transform="matrix(2.535182e-06 1 -1 2.535182e-06 280.9268 156.5124)" class="st6" width="0.3" height="0.1"/>
	
		<rect x="62.3" y="218.7" transform="matrix(2.535182e-06 1 -1 2.535182e-06 281.1778 156.2614)" class="st6" width="0.3" height="0.1"/>
	
		<rect x="62.2" y="219" transform="matrix(2.535182e-06 1 -1 2.535182e-06 281.4015 156.6951)" class="st6" width="0.3" height="0.1"/>
	
		<rect x="60.2" y="223.2" transform="matrix(2.535182e-06 1 -1 2.535182e-06 285.6913 165.2024)" class="st6" width="0.1" height="4.5"/>
	
		<rect x="60.2" y="222.2" transform="matrix(2.535182e-06 1 -1 2.535182e-06 284.696 164.2071)" class="st6" width="0.1" height="4.5"/>
	
		<rect x="60.2" y="219.8" transform="matrix(2.535182e-06 1 -1 2.535182e-06 282.2793 161.7904)" class="st6" width="0.1" height="4.5"/>
	<path class="st6" d="M72.4,235.6h4.5l-0.6-2h-3.3L72.4,235.6z"/>
	<path class="st7" d="M72.4,229v2l-0.8,2.6h6.1l-0.8-2.6v-2H72.4z"/>
	<path class="st6" d="M75.1,231.8h0.5l0.1,0.5h-0.5L75.1,231.8z"/>
	<path class="st6" d="M74.6,232.3h0.5l0.1,0.5h-0.5L74.6,232.3z"/>
	
		<rect x="74.2" y="226.2" transform="matrix(2.535182e-06 1 -1 2.535182e-06 303.015 153.8076)" class="st7" width="0.8" height="4.5"/>
	
		<rect x="74.2" y="225.1" transform="matrix(2.535182e-06 1 -1 2.535182e-06 301.9902 152.7934)" class="st7" width="0.8" height="4.5"/>
	
		<rect x="72.4" y="212.6" transform="matrix(2.535182e-06 1 -1 2.535182e-06 289.4322 140.2354)" class="st7" width="4.3" height="4.5"/>
	
		<rect x="72.4" y="208" transform="matrix(2.535182e-06 1 -1 2.535182e-06 284.8727 135.6759)" class="st7" width="4.3" height="4.5"/>
	
		<rect x="72.5" y="203.5" transform="matrix(2.535182e-06 1 -1 2.535182e-06 280.3697 131.1729)" class="st7" width="4.2" height="4.5"/>
	
		<rect x="72.4" y="199" transform="matrix(2.535182e-06 1 -1 2.535182e-06 275.8197 126.6229)" class="st7" width="4.4" height="4.5"/>
	
		<rect x="72.4" y="194.4" transform="matrix(2.535182e-06 1 -1 2.535182e-06 271.2055 122.0087)" class="st7" width="4.4" height="4.5"/>
	<path class="st7" d="M76.7,181.9l0.2-0.2c0,0-1.5-5.7-2.2-5.7c-0.7,0-2.2,5.7-2.2,5.7l0.4,0.2L76.7,181.9z"/>
	
		<rect x="72.9" y="181.2" transform="matrix(2.535182e-06 1 -1 2.535182e-06 258.048 108.8512)" class="st8" width="3.4" height="4.5"/>
	
		<rect x="74.6" y="225.6" transform="matrix(2.535182e-06 1 -1 2.535182e-06 302.432 153.2246)" class="st6" width="0.1" height="4.5"/>
	
		<rect x="74.6" y="228" transform="matrix(2.535182e-06 1 -1 2.535182e-06 304.8045 155.5971)" class="st6" width="0.1" height="4.5"/>
	
		<rect x="74.5" y="183" transform="matrix(2.535182e-06 1 -1 2.535182e-06 259.807 110.6102)" class="st6" width="0.2" height="4.5"/>
	
		<rect x="74.5" y="196.7" transform="matrix(2.535182e-06 1 -1 2.535182e-06 273.5027 124.3059)" class="st6" width="0.2" height="4.5"/>
	
		<rect x="72.4" y="189.7" transform="matrix(2.535182e-06 1 -1 2.535182e-06 266.596 117.3887)" class="st7" width="4.4" height="4.5"/>
	
		<rect x="72.5" y="185.2" transform="matrix(2.535182e-06 1 -1 2.535182e-06 262.0405 112.8437)" class="st7" width="4.2" height="4.5"/>
	
		<rect x="74.5" y="187.4" transform="matrix(2.535182e-06 1 -1 2.535182e-06 264.279 115.0717)" class="st6" width="0.2" height="4.5"/>
	
		<rect x="74.5" y="201.3" transform="matrix(2.535182e-06 1 -1 2.535182e-06 278.137 128.9402)" class="st5" width="0.2" height="4.5"/>
	
		<rect x="74.5" y="192.1" transform="matrix(2.535182e-06 1 -1 2.535182e-06 268.908 119.7112)" class="st5" width="0.2" height="4.5"/>
	
		<rect x="74.5" y="205.8" transform="matrix(2.535182e-06 1 -1 2.535182e-06 282.6025 133.4057)" class="st6" width="0.2" height="4.5"/>
	
		<rect x="74.5" y="210.3" transform="matrix(2.535182e-06 1 -1 2.535182e-06 287.143 137.9462)" class="st9" width="0.2" height="4.5"/>
	
		<rect x="69.8" y="219.8" transform="matrix(2.535182e-06 1 -1 2.535182e-06 296.6465 147.4496)" class="st7" width="9.6" height="4.5"/>
	
		<rect x="74.5" y="221.2" transform="matrix(2.535182e-06 1 -1 2.535182e-06 298.016 148.8136)" class="st9" width="0.2" height="4.5"/>
	
		<rect x="74.5" y="214.9" transform="matrix(2.535182e-06 1 -1 2.535182e-06 291.7212 142.5244)" class="st6" width="0.2" height="4.5"/>
	
		<rect x="74.5" y="225.8" transform="matrix(2.535182e-06 1 -1 2.535182e-06 302.6282 153.4209)" class="st10" width="0.3" height="4.5"/>
	
		<rect x="74.5" y="226.6" transform="matrix(2.535182e-06 1 -1 2.535182e-06 303.4335 154.2261)" class="st10" width="0.3" height="4.5"/>
	
		<rect x="74.5" y="228.6" transform="matrix(2.535182e-06 1 -1 2.535182e-06 305.442 156.2346)" class="st11" width="0.2" height="4.5"/>
	
		<rect x="74.5" y="224.7" transform="matrix(2.535182e-06 1 -1 2.535182e-06 301.5105 152.3136)" class="st6" width="0.2" height="4.5"/>
	
		<rect x="74.5" y="218.8" transform="matrix(2.535182e-06 1 -1 2.535182e-06 295.6167 146.4199)" class="st6" width="0.2" height="4.5"/>
	<path class="st12" d="M74.1,232.8l0.2,0l0,0.2l-0.2,0L74.1,232.8z"/>
	<path class="st12" d="M73.7,232.8l0.2,0l0,0.2l-0.2,0L73.7,232.8z"/>
	<path class="st12" d="M73.3,232.7l0.2,0l0,0.2l-0.2,0L73.3,232.7z"/>
	<path class="st5" d="M74.1,232.1l0.3,0l-0.1,0.7l-0.3,0L74.1,232.1z"/>
	<path class="st5" d="M73.7,232.1l0.3,0l-0.1,0.7l-0.3,0L73.7,232.1z"/>
	<path class="st5" d="M73.3,232.1l0.3,0l-0.1,0.7l-0.3,0L73.3,232.1z"/>
	<path class="st12" d="M72.7,232.7l0.2,0l-0.1,0.2l-0.2,0L72.7,232.7z"/>
	<path class="st5" d="M72.8,232l0.3,0.1l-0.2,0.7l-0.3-0.1L72.8,232z"/>
	
		<rect x="74.6" y="185.6" transform="matrix(2.535182e-06 1 -1 2.535182e-06 260.6887 110.9555)" class="st6" width="0.5" height="0.5"/>
	
		<rect x="74.1" y="185.6" transform="matrix(2.535182e-06 1 -1 2.535182e-06 260.1525 111.4917)" class="st7" width="0.5" height="0.5"/>
	
		<rect x="74.6" y="186.1" transform="matrix(2.535182e-06 1 -1 2.535182e-06 261.2252 111.492)" class="st7" width="0.5" height="0.5"/>
	
		<rect x="74.1" y="186.1" transform="matrix(2.535182e-06 1 -1 2.535182e-06 260.689 112.0282)" class="st6" width="0.5" height="0.5"/>
	
		<rect x="74.6" y="219.7" transform="matrix(2.535182e-06 1 -1 2.535182e-06 294.7912 145.0579)" class="st6" width="0.5" height="0.5"/>
	
		<rect x="74.1" y="219.7" transform="matrix(2.535182e-06 1 -1 2.535182e-06 294.255 145.5941)" class="st7" width="0.5" height="0.5"/>
	
		<rect x="74.6" y="220.2" transform="matrix(2.535182e-06 1 -1 2.535182e-06 295.3277 145.5944)" class="st7" width="0.5" height="0.5"/>
	
		<rect x="74.1" y="220.2" transform="matrix(2.535182e-06 1 -1 2.535182e-06 294.7915 146.1306)" class="st6" width="0.5" height="0.5"/>
	
		<rect x="72.5" y="191.4" transform="matrix(2.535182e-06 1 -1 2.535182e-06 264.8792 118.1665)" class="st6" width="1.8" height="0.3"/>
	
		<rect x="72.1" y="191.4" transform="matrix(2.535182e-06 1 -1 2.535182e-06 264.5625 118.4832)" class="st7" width="1.8" height="0.3"/>
	
		<rect x="72.5" y="193.1" transform="matrix(2.535182e-06 1 -1 2.535182e-06 266.6602 119.9475)" class="st7" width="1.8" height="0.3"/>
	
		<rect x="72.1" y="193.1" transform="matrix(2.535182e-06 1 -1 2.535182e-06 266.3435 120.2642)" class="st6" width="1.8" height="0.3"/>
	
		<rect x="72.5" y="195.3" transform="matrix(2.535182e-06 1 -1 2.535182e-06 268.8622 122.1495)" class="st6" width="1.8" height="0.3"/>
	
		<rect x="72.1" y="195.3" transform="matrix(2.535182e-06 1 -1 2.535182e-06 268.5455 122.4662)" class="st7" width="1.8" height="0.3"/>
	
		<rect x="72.5" y="197.1" transform="matrix(2.535182e-06 1 -1 2.535182e-06 270.6435 123.9307)" class="st7" width="1.8" height="0.3"/>
	
		<rect x="72.1" y="197.1" transform="matrix(2.535182e-06 1 -1 2.535182e-06 270.3268 124.2474)" class="st6" width="1.8" height="0.3"/>
	
		<rect x="72.5" y="204.6" transform="matrix(2.535182e-06 1 -1 2.535182e-06 278.0912 131.3784)" class="st6" width="1.8" height="0.3"/>
	
		<rect x="72.1" y="204.6" transform="matrix(2.535182e-06 1 -1 2.535182e-06 277.7745 131.6952)" class="st7" width="1.8" height="0.3"/>
	
		<rect x="72.5" y="206.4" transform="matrix(2.535182e-06 1 -1 2.535182e-06 279.8725 133.1597)" class="st7" width="1.8" height="0.3"/>
	
		<rect x="72.1" y="206.4" transform="matrix(2.535182e-06 1 -1 2.535182e-06 279.5557 133.4764)" class="st6" width="1.8" height="0.3"/>
	
		<rect x="72.5" y="209.2" transform="matrix(2.535182e-06 1 -1 2.535182e-06 282.7587 136.0459)" class="st6" width="1.8" height="0.3"/>
	
		<rect x="72.1" y="209.2" transform="matrix(2.535182e-06 1 -1 2.535182e-06 282.442 136.3627)" class="st7" width="1.8" height="0.3"/>
	
		<rect x="72.5" y="211" transform="matrix(2.535182e-06 1 -1 2.535182e-06 284.5397 137.8269)" class="st7" width="1.8" height="0.3"/>
	
		<rect x="72.1" y="211" transform="matrix(2.535182e-06 1 -1 2.535182e-06 284.223 138.1437)" class="st6" width="1.8" height="0.3"/>
	
		<rect x="72.5" y="213.8" transform="matrix(2.535182e-06 1 -1 2.535182e-06 287.2995 140.5867)" class="st6" width="1.8" height="0.3"/>
	
		<rect x="72.1" y="213.8" transform="matrix(2.535182e-06 1 -1 2.535182e-06 286.9827 140.9034)" class="st7" width="1.8" height="0.3"/>
	
		<rect x="72.5" y="215.6" transform="matrix(2.535182e-06 1 -1 2.535182e-06 289.0807 142.3679)" class="st7" width="1.8" height="0.3"/>
	
		<rect x="72.1" y="215.6" transform="matrix(2.535182e-06 1 -1 2.535182e-06 288.764 142.6846)" class="st6" width="1.8" height="0.3"/>
	
		<rect x="74.7" y="187.4" transform="matrix(2.535182e-06 1 -1 2.535182e-06 262.431 112.6247)" class="st6" width="0.3" height="0.3"/>
	
		<rect x="74.4" y="187.7" transform="matrix(2.535182e-06 1 -1 2.535182e-06 262.4312 113.2825)" class="st6" width="0.3" height="0.3"/>
	
		<rect x="74.1" y="187.4" transform="matrix(2.535182e-06 1 -1 2.535182e-06 261.7735 113.2822)" class="st6" width="0.3" height="0.3"/>
	
		<rect x="73.8" y="187.7" transform="matrix(2.535182e-06 1 -1 2.535182e-06 261.7735 113.9402)" class="st6" width="0.3" height="0.3"/>
	
		<rect x="73.4" y="187.4" transform="matrix(2.535182e-06 1 -1 2.535182e-06 261.134 113.9217)" class="st6" width="0.3" height="0.3"/>
	
		<rect x="73.1" y="187.7" transform="matrix(2.535182e-06 1 -1 2.535182e-06 261.171 114.5427)" class="st6" width="0.3" height="0.3"/>
	
		<rect x="72.9" y="187.4" transform="matrix(2.535182e-06 1 -1 2.535182e-06 260.5818 114.474)" class="st6" width="0.3" height="0.2"/>
	
		<rect x="72.7" y="187.7" transform="matrix(2.535182e-06 1 -1 2.535182e-06 260.6825 115.0312)" class="st6" width="0.3" height="0.2"/>
	
		<rect x="72.5" y="187.5" transform="matrix(2.535182e-06 1 -1 2.535182e-06 260.1665 114.8892)" class="st6" width="0.3" height="0.1"/>
	
		<rect x="72.5" y="187.5" transform="matrix(2.535182e-06 1 -1 2.535182e-06 260.1665 114.8892)" class="st6" width="0.3" height="0.1"/>
	
		<rect x="72.2" y="187.5" transform="matrix(2.535182e-06 1 -1 2.535182e-06 259.9155 115.1402)" class="st6" width="0.3" height="0.1"/>
	
		<rect x="72.3" y="187.8" transform="matrix(2.535182e-06 1 -1 2.535182e-06 260.3495 115.3642)" class="st6" width="0.3" height="0.1"/>
	
		<rect x="74.7" y="200.7" transform="matrix(2.535182e-06 1 -1 2.535182e-06 275.8 125.9877)" class="st6" width="0.3" height="0.3"/>
	
		<rect x="74.4" y="201.1" transform="matrix(2.535182e-06 1 -1 2.535182e-06 275.8 126.6457)" class="st6" width="0.3" height="0.3"/>
	
		<rect x="74.1" y="200.7" transform="matrix(2.535182e-06 1 -1 2.535182e-06 275.1422 126.6454)" class="st6" width="0.3" height="0.3"/>
	
		<rect x="73.8" y="201.1" transform="matrix(2.535182e-06 1 -1 2.535182e-06 275.1425 127.3032)" class="st6" width="0.3" height="0.3"/>
	
		<rect x="73.4" y="200.7" transform="matrix(2.535182e-06 1 -1 2.535182e-06 274.503 127.2847)" class="st6" width="0.3" height="0.3"/>
	
		<rect x="73.2" y="201.1" transform="matrix(2.535182e-06 1 -1 2.535182e-06 274.5397 127.9059)" class="st6" width="0.3" height="0.3"/>
	
		<rect x="72.9" y="200.8" transform="matrix(2.535182e-06 1 -1 2.535182e-06 273.9505 127.8372)" class="st6" width="0.3" height="0.2"/>
	
		<rect x="72.7" y="201.1" transform="matrix(2.535182e-06 1 -1 2.535182e-06 274.0512 128.3944)" class="st6" width="0.3" height="0.2"/>
	
		<rect x="72.5" y="200.8" transform="matrix(2.535182e-06 1 -1 2.535182e-06 273.5347 128.2529)" class="st6" width="0.3" height="0.1"/>
	
		<rect x="72.5" y="200.8" transform="matrix(2.535182e-06 1 -1 2.535182e-06 273.5347 128.2529)" class="st6" width="0.3" height="0.1"/>
	
		<rect x="72.2" y="200.9" transform="matrix(2.535182e-06 1 -1 2.535182e-06 273.284 128.5037)" class="st6" width="0.3" height="0.1"/>
	
		<rect x="72.3" y="201.2" transform="matrix(2.535182e-06 1 -1 2.535182e-06 273.7177 128.7279)" class="st6" width="0.3" height="0.1"/>
	
		<rect x="74.7" y="218.6" transform="matrix(2.535182e-06 1 -1 2.535182e-06 293.6257 143.8134)" class="st6" width="0.3" height="0.3"/>
	
		<rect x="74.4" y="218.9" transform="matrix(2.535182e-06 1 -1 2.535182e-06 293.6255 144.4711)" class="st6" width="0.3" height="0.3"/>
	
		<rect x="74.1" y="218.6" transform="matrix(2.535182e-06 1 -1 2.535182e-06 292.968 144.4711)" class="st6" width="0.3" height="0.3"/>
	
		<rect x="73.8" y="218.9" transform="matrix(2.535182e-06 1 -1 2.535182e-06 292.968 145.1286)" class="st6" width="0.3" height="0.3"/>
	
		<rect x="73.4" y="218.6" transform="matrix(2.535182e-06 1 -1 2.535182e-06 292.3287 145.1104)" class="st6" width="0.3" height="0.3"/>
	
		<rect x="73.2" y="218.9" transform="matrix(2.535182e-06 1 -1 2.535182e-06 292.3652 145.7314)" class="st6" width="0.3" height="0.3"/>
	
		<rect x="72.9" y="218.6" transform="matrix(2.535182e-06 1 -1 2.535182e-06 291.7762 145.6629)" class="st6" width="0.3" height="0.2"/>
	
		<rect x="72.7" y="218.9" transform="matrix(2.535182e-06 1 -1 2.535182e-06 291.8767 146.2199)" class="st6" width="0.3" height="0.2"/>
	
		<rect x="72.5" y="218.6" transform="matrix(2.535182e-06 1 -1 2.535182e-06 291.3605 146.0786)" class="st6" width="0.3" height="0.1"/>
	
		<rect x="72.5" y="218.6" transform="matrix(2.535182e-06 1 -1 2.535182e-06 291.3605 146.0786)" class="st6" width="0.3" height="0.1"/>
	
		<rect x="72.2" y="218.7" transform="matrix(2.535182e-06 1 -1 2.535182e-06 291.1097 146.3294)" class="st6" width="0.3" height="0.1"/>
	
		<rect x="72.3" y="219" transform="matrix(2.535182e-06 1 -1 2.535182e-06 291.5432 146.5534)" class="st6" width="0.3" height="0.1"/>
	
		<rect x="74.6" y="223.2" transform="matrix(2.535182e-06 1 -1 2.535182e-06 300.0505 150.8431)" class="st6" width="0.1" height="4.5"/>
	
		<rect x="74.6" y="222.2" transform="matrix(2.535182e-06 1 -1 2.535182e-06 299.0552 149.8479)" class="st6" width="0.1" height="4.5"/>
	
		<rect x="74.6" y="219.8" transform="matrix(2.535182e-06 1 -1 2.535182e-06 296.6385 147.4311)" class="st6" width="0.1" height="4.5"/>
	<path class="st13" d="M66.5,235l0,0.3h-2.6l0-0.3H66.5z"/>
	<path class="st13" d="M66.5,234.8l0,0.2h-2.6l0-0.2l0-0.1h2.5L66.5,234.8z"/>
	<path class="st13" d="M66.4,234.5H64l0.1-0.3h2.3L66.4,234.5z"/>
	<path class="st13" d="M66.3,234.1L66.3,234.1l-2.3,0l0,0l0.1-0.3h2.1L66.3,234.1z"/>
	<path class="st13" d="M66.2,233.8h-2.1l0.1-0.3h1.9L66.2,233.8z"/>
	<path class="st13" d="M66.1,233.4h-1.8l0.1-0.3H66L66.1,233.4z"/>
	<path class="st13" d="M66,233.1h-1.5l0.1-0.3h1.2L66,233.1z"/>
	<path class="st14" d="M66.5,235h-2.6l0-0.1L66.5,235L66.5,235z"/>
	<path class="st14" d="M66.4,234.6H64l0-0.1L66.4,234.6L66.4,234.6z"/>
	<path class="st14" d="M66.2,233.8L66.2,233.8l-2.1,0.1l0-0.1l0,0L66.2,233.8L66.2,233.8z"/>
	<path class="st14" d="M66.4,234.2H64l0-0.1L66.4,234.2L66.4,234.2z"/>
	<path class="st14" d="M66.1,233.5L66.1,233.5l-1.9,0l0,0l0,0L66.1,233.5L66.1,233.5z"/>
	<path class="st14" d="M66,233.1L66,233.1l-1.6,0l0,0l0-0.1L66,233.1L66,233.1z"/>
	<path class="st13" d="M70.9,235l0,0.3h-2.6l0-0.3H70.9z"/>
	<path class="st13" d="M70.9,234.8l0,0.2h-2.6l0-0.2l0-0.1h2.5L70.9,234.8z"/>
	<path class="st13" d="M70.9,234.5h-2.4l0.1-0.3h2.3L70.9,234.5z"/>
	<path class="st13" d="M70.8,234.1L70.8,234.1l-2.3,0l0,0l0.1-0.3h2.1L70.8,234.1z"/>
	<path class="st13" d="M70.7,233.8h-2.1l0.1-0.3h1.9L70.7,233.8z"/>
	<path class="st13" d="M70.6,233.4h-1.8l0.1-0.3h1.6L70.6,233.4z"/>
	<path class="st13" d="M70.4,233.1h-1.5l0.1-0.3h1.2L70.4,233.1z"/>
	<path class="st14" d="M70.9,235h-2.6l0-0.1L70.9,235L70.9,235z"/>
	<path class="st14" d="M70.9,234.6h-2.5l0-0.1L70.9,234.6L70.9,234.6z"/>
	<path class="st14" d="M70.7,233.8L70.7,233.8l-2.1,0.1l0-0.1l0,0L70.7,233.8L70.7,233.8z"/>
	<path class="st14" d="M70.8,234.2h-2.3l0-0.1L70.8,234.2L70.8,234.2z"/>
	<path class="st14" d="M70.6,233.5L70.6,233.5l-1.9,0l0,0l0,0L70.6,233.5L70.6,233.5z"/>
	<path class="st14" d="M70.4,233.1L70.4,233.1l-1.6,0l0,0l0-0.1L70.4,233.1L70.4,233.1z"/>
	<path class="st8" d="M64.6,152.7l-0.3-2.5v-4.8h6.3v4.8l-0.3,2.5h0v2.6h-5.6L64.6,152.7L64.6,152.7z"/>
	
		<rect x="67.3" y="152.7" transform="matrix(2.535182e-06 1 -1 2.535182e-06 222.8878 88.0396)" class="st7" width="0.3" height="5.6"/>
	
		<rect x="67.3" y="151.4" transform="matrix(2.535182e-06 1 -1 2.535182e-06 221.5935 86.7453)" class="st7" width="0.2" height="5.6"/>
	
		<rect x="67.3" y="149.8" transform="matrix(2.535182e-06 1 -1 2.535182e-06 220.0603 85.2121)" class="st7" width="0.2" height="5.6"/>
	
		<rect x="67.3" y="142.1" transform="matrix(2.535182e-06 1 -1 2.535182e-06 212.6925 77.8443)" class="st7" width="0.2" height="6.3"/>
	<path class="st7" d="M68.7,140.3c1.3,1.6,1.7,3.2,1.8,4.8h-6.3c0.1-1.6,0.5-3.3,1.8-4.8l0.8-3.7h1.1L68.7,140.3z"/>
	<path d="M67,142.4L67,142.4L67,142.4C67,142.5,67,142.5,67,142.4C67,142.5,67,142.5,67,142.4C67,142.5,67,142.5,67,142.4
		C67,142.5,67,142.5,67,142.4C67.1,142.5,67.1,142.5,67,142.4C67.1,142.5,67.1,142.5,67,142.4L67,142.4L67,142.4L67,142.4
		C67.1,142.5,67.1,142.5,67,142.4C67.1,142.5,67.1,142.5,67,142.4C67.1,142.5,67.1,142.5,67,142.4C67.1,142.5,67,142.5,67,142.4
		C67,142.5,67,142.5,67,142.4C67,142.5,67,142.5,67,142.4C67,142.5,67,142.5,67,142.4C67,142.5,67,142.5,67,142.4L67,142.4z"/>
	<path d="M67.1,142.5L67.1,142.5L67.1,142.5L67.1,142.5L67.1,142.5L67.1,142.5L67.1,142.5L67.1,142.5L67.1,142.5L67.1,142.5
		L67.1,142.5z"/>
	<rect x="67.1" y="142.4" transform="matrix(2.535182e-06 1 -1 2.535182e-06 209.6273 75.2786)" width="0.1" height="0"/>
	<path d="M67.2,142.5L67.2,142.5L67.2,142.5L67.2,142.5L67.2,142.5L67.2,142.5L67.2,142.5L67.2,142.5L67.2,142.5z"/>
	<path d="M67.3,142.5L67.3,142.5L67.3,142.5L67.3,142.5L67.3,142.5L67.3,142.5L67.3,142.5L67.3,142.5L67.3,142.5L67.3,142.5
		L67.3,142.5L67.3,142.5L67.3,142.5z"/>
	<path d="M67.3,142.4L67.3,142.4C67.4,142.4,67.4,142.4,67.3,142.4C67.4,142.4,67.4,142.4,67.3,142.4
		C67.4,142.4,67.4,142.4,67.3,142.4C67.4,142.4,67.4,142.4,67.3,142.4C67.4,142.5,67.4,142.5,67.3,142.4
		C67.4,142.5,67.4,142.5,67.3,142.4C67.4,142.5,67.4,142.5,67.3,142.4C67.4,142.5,67.4,142.5,67.3,142.4L67.3,142.4L67.3,142.4z
		 M67.4,142.4L67.4,142.4L67.4,142.4C67.4,142.5,67.4,142.5,67.4,142.4C67.4,142.5,67.4,142.5,67.4,142.4
		C67.4,142.5,67.4,142.5,67.4,142.4C67.4,142.5,67.4,142.5,67.4,142.4C67.4,142.4,67.4,142.4,67.4,142.4
		C67.4,142.4,67.4,142.4,67.4,142.4C67.4,142.4,67.4,142.4,67.4,142.4C67.4,142.4,67.4,142.4,67.4,142.4L67.4,142.4z"/>
	<path d="M67.4,142.5L67.4,142.5C67.5,142.5,67.5,142.5,67.4,142.5C67.5,142.5,67.5,142.5,67.4,142.5
		C67.5,142.5,67.5,142.5,67.4,142.5C67.5,142.5,67.5,142.5,67.4,142.5C67.5,142.5,67.5,142.5,67.4,142.5
		C67.5,142.5,67.5,142.5,67.4,142.5C67.5,142.5,67.5,142.5,67.4,142.5C67.5,142.5,67.5,142.5,67.4,142.5
		C67.4,142.4,67.4,142.4,67.4,142.5C67.4,142.4,67.4,142.4,67.4,142.5C67.4,142.4,67.5,142.4,67.4,142.5
		C67.5,142.4,67.5,142.4,67.4,142.5C67.5,142.4,67.5,142.4,67.4,142.5C67.5,142.4,67.5,142.4,67.4,142.5L67.4,142.5
		C67.5,142.4,67.5,142.4,67.4,142.5C67.5,142.4,67.5,142.4,67.4,142.5C67.5,142.4,67.5,142.4,67.4,142.5
		C67.5,142.4,67.5,142.4,67.4,142.5C67.5,142.4,67.5,142.4,67.4,142.5C67.5,142.4,67.5,142.4,67.4,142.5
		C67.5,142.4,67.5,142.4,67.4,142.5C67.5,142.5,67.5,142.5,67.4,142.5C67.5,142.5,67.5,142.5,67.4,142.5
		C67.5,142.5,67.5,142.5,67.4,142.5C67.5,142.5,67.5,142.5,67.4,142.5C67.5,142.5,67.5,142.5,67.4,142.5
		C67.5,142.5,67.5,142.5,67.4,142.5C67.4,142.5,67.4,142.5,67.4,142.5z"/>
	<path d="M67.5,142.5L67.5,142.5L67.5,142.5L67.5,142.5L67.5,142.5L67.5,142.5L67.5,142.5L67.5,142.5L67.5,142.5z"/>
	<path d="M67.6,142.5L67.6,142.5L67.6,142.5L67.6,142.5L67.6,142.5L67.6,142.5L67.6,142.5L67.6,142.5L67.6,142.5z M67.6,142.5
		L67.6,142.5L67.6,142.5L67.6,142.5z"/>
	<path d="M67.7,142.5L67.7,142.5L67.7,142.5L67.7,142.5L67.7,142.5L67.7,142.5L67.7,142.5L67.7,142.5L67.7,142.5z"/>
	<path d="M67.7,142.5L67.7,142.5L67.7,142.5L67.7,142.5L67.7,142.5L67.7,142.5L67.7,142.5L67.7,142.5L67.7,142.5L67.7,142.5
		L67.7,142.5L67.7,142.5L67.7,142.5z"/>
	<path d="M67.8,142.5L67.8,142.5C67.8,142.5,67.8,142.5,67.8,142.5C67.8,142.5,67.8,142.5,67.8,142.5
		C67.8,142.5,67.8,142.5,67.8,142.5C67.8,142.5,67.8,142.5,67.8,142.5C67.8,142.5,67.8,142.5,67.8,142.5
		C67.8,142.5,67.8,142.5,67.8,142.5C67.8,142.5,67.8,142.5,67.8,142.5C67.8,142.5,67.8,142.5,67.8,142.5
		C67.8,142.4,67.8,142.4,67.8,142.5C67.8,142.4,67.8,142.4,67.8,142.5C67.8,142.4,67.8,142.4,67.8,142.5
		C67.8,142.4,67.8,142.4,67.8,142.5C67.8,142.4,67.8,142.4,67.8,142.5C67.8,142.4,67.8,142.4,67.8,142.5L67.8,142.5
		C67.8,142.4,67.8,142.4,67.8,142.5C67.8,142.4,67.8,142.4,67.8,142.5C67.8,142.4,67.8,142.4,67.8,142.5
		C67.8,142.4,67.8,142.4,67.8,142.5C67.8,142.4,67.8,142.4,67.8,142.5C67.8,142.4,67.8,142.4,67.8,142.5
		C67.8,142.4,67.8,142.4,67.8,142.5C67.8,142.5,67.8,142.5,67.8,142.5C67.8,142.5,67.8,142.5,67.8,142.5
		C67.8,142.5,67.8,142.5,67.8,142.5C67.8,142.5,67.8,142.5,67.8,142.5C67.8,142.5,67.8,142.5,67.8,142.5
		C67.8,142.5,67.8,142.5,67.8,142.5C67.8,142.5,67.8,142.5,67.8,142.5z"/>
	<path class="st15" d="M67.4,127.6l0.4,1.3H67L67.4,127.6z"/>
	<path class="st8" d="M67.9,133.9L67.9,133.9l0,2.8h-1.1v-2.8h0l0.1-0.6h0.9L67.9,133.9z M67.9,128.9H67v4.4h0.9V128.9z"/>
	<path class="st7" d="M66.9,134.8l-0.5-0.3l0.4-0.5l0.2,0.1L66.9,134.8z"/>
	<path class="st16" d="M66.8,134.5c0.1,0.1,0.2,0.2,0.1,0.3c0,0.1-0.2,0.1-0.3,0c-0.1-0.1-0.2-0.2-0.1-0.3
		C66.5,134.4,66.7,134.4,66.8,134.5z"/>
	<path class="st17" d="M66.8,134.5c0.1,0.1,0.2,0.2,0.1,0.2c0,0.1-0.1,0.1-0.2,0c-0.1-0.1-0.2-0.2-0.1-0.2
		C66.5,134.5,66.7,134.5,66.8,134.5z"/>
	<path class="st7" d="M67.7,134.8h-0.5l0.1-0.6h0.3L67.7,134.8z"/>
	<path class="st16" d="M67.4,134.6c0.1,0,0.3,0.1,0.3,0.2s-0.1,0.2-0.3,0.2c-0.1,0-0.3-0.1-0.3-0.2S67.3,134.6,67.4,134.6z"/>
	<path class="st17" d="M67.4,134.6c0.1,0,0.2,0.1,0.2,0.1s-0.1,0.1-0.2,0.1s-0.2-0.1-0.2-0.1S67.3,134.6,67.4,134.6z"/>
	<path class="st7" d="M68.4,134.5l-0.5,0.3l-0.2-0.6l0.2-0.1L68.4,134.5z"/>
	<path class="st16" d="M68.1,134.5c0.1-0.1,0.3-0.1,0.3,0c0,0.1,0,0.2-0.1,0.3c-0.1,0.1-0.3,0.1-0.3,0
		C67.9,134.7,67.9,134.6,68.1,134.5z"/>
	<path class="st17" d="M68.1,134.5c0.1-0.1,0.2-0.1,0.2,0c0,0.1,0,0.2-0.1,0.2c-0.1,0.1-0.2,0.1-0.2,0
		C67.9,134.7,68,134.6,68.1,134.5z"/>
	<path class="st1" d="M67.1,226.6c0,0.2,0.1,0.4,0.3,0.4s0.3-0.2,0.3-0.4H67.1z M67.7,184.5h-0.6v42.1h0.6V184.5z"/>
	<path class="st13" d="M66.8,183.7c0-0.4,0.3-0.7,0.6-0.7s0.6,0.3,0.6,0.7v0.8h-1.3V183.7z"/>
	
		<rect x="67.3" y="187.1" transform="matrix(2.535182e-06 1 -1 2.535182e-06 255.0983 120.25)" class="st13" width="0.2" height="1.1"/>
	
		<rect x="67.3" y="191.6" transform="matrix(2.535182e-06 1 -1 2.535182e-06 259.5952 124.747)" class="st13" width="0.2" height="1.1"/>
	
		<rect x="67.3" y="195.7" transform="matrix(2.535182e-06 1 -1 2.535182e-06 263.6323 128.784)" class="st13" width="0.2" height="1.1"/>
	
		<rect x="67.3" y="199" transform="matrix(2.535182e-06 1 -1 2.535182e-06 266.9407 132.0924)" class="st13" width="0.2" height="1.1"/>
	
		<rect x="67.3" y="203" transform="matrix(2.535182e-06 1 -1 2.535182e-06 270.9778 136.1294)" class="st13" width="0.2" height="1.1"/>
	
		<rect x="67.3" y="207.1" transform="matrix(2.535182e-06 1 -1 2.535182e-06 275.0147 140.1664)" class="st13" width="0.2" height="1.1"/>
	
		<rect x="67.3" y="210.8" transform="matrix(2.535182e-06 1 -1 2.535182e-06 278.7185 143.8637)" class="st13" width="0.2" height="1.1"/>
	
		<rect x="67.3" y="214.4" transform="matrix(2.535182e-06 1 -1 2.535182e-06 282.3603 147.5119)" class="st13" width="0.2" height="1.1"/>
	
		<rect x="67.3" y="218.4" transform="matrix(2.535182e-06 1 -1 2.535182e-06 286.3972 151.5489)" class="st13" width="0.2" height="1.1"/>
	
		<rect x="67.3" y="222.5" transform="matrix(2.535182e-06 1 -1 2.535182e-06 290.4342 155.5859)" class="st13" width="0.2" height="1.1"/>
	
		<rect x="67.6" y="141.5" transform="matrix(2.535182e-06 1 -1 2.535182e-06 209.5215 74.2498)" class="st15" width="0.1" height="0.7"/>
	
		<rect x="67.6" y="141.4" transform="matrix(2.535182e-06 1 -1 2.535182e-06 209.446 74.1743)" class="st18" width="0.1" height="0.7"/>
	
		<rect x="67.6" y="141.6" transform="matrix(2.535182e-06 1 -1 2.535182e-06 209.597 74.3253)" class="st18" width="0.1" height="0.7"/>
	
		<rect x="67.6" y="141.7" transform="matrix(2.535182e-06 1 -1 2.535182e-06 209.6725 74.4008)" class="st15" width="0.1" height="0.7"/>
	
		<rect x="67.4" y="141.5" transform="matrix(2.535182e-06 1 -1 2.535182e-06 209.5365 74.6883)" class="st18" width="0.1" height="1.1"/>
	
		<rect x="67.4" y="141.6" transform="matrix(2.535182e-06 1 -1 2.535182e-06 209.6122 74.7641)" class="st15" width="0.1" height="1.1"/>
	
		<rect x="67.4" y="141.7" transform="matrix(2.535182e-06 1 -1 2.535182e-06 209.6877 74.8396)" class="st18" width="0.1" height="1.1"/>
	
		<rect x="67.4" y="141.8" transform="matrix(2.535182e-06 1 -1 2.535182e-06 209.7632 74.9151)" class="st15" width="0.1" height="1.1"/>
	
		<rect x="66.9" y="141.7" transform="matrix(2.535182e-06 1 -1 2.535182e-06 208.9848 74.8621)" class="st19" width="0.3" height="0.4"/>
	<path class="st6" d="M65.4,151.4h0.4l-0.1-0.5h-0.4L65.4,151.4z"/>
	<path class="st7" d="M65,151.4h0.4l-0.1-0.5H65L65,151.4z"/>
	<path class="st7" d="M65.4,150.8h0.4l-0.1-0.5h-0.4L65.4,150.8z"/>
	<path class="st6" d="M65,150.8h0.4l-0.1-0.5h-0.4L65,150.8z"/>
	<path class="st6" d="M69.4,151.4H69l0.1-0.5h0.4L69.4,151.4z"/>
	<path class="st7" d="M69.8,151.4h-0.4l0.1-0.5h0.4L69.8,151.4z"/>
	<path class="st7" d="M69.5,150.8h-0.4l0.1-0.5h0.4L69.5,150.8z"/>
	<path class="st6" d="M69.9,150.8h-0.4l0.1-0.5H70L69.9,150.8z"/>
	
		<rect x="65.5" y="229.1" transform="matrix(2.535182e-06 1 -1 2.535182e-06 295.934 163.4446)" class="st20" width="1.5" height="1.1"/>
	<path class="st21" d="M66.2,229.1c0.1,0,0.2,0.1,0.2,0.2s-0.1,0.2-0.2,0.2c-0.1,0-0.2-0.1-0.2-0.2S66.1,229.1,66.2,229.1z"/>
	<path class="st21" d="M66.2,229.8c0.1,0,0.2,0.1,0.2,0.2c0,0.1-0.1,0.2-0.2,0.2c-0.1,0-0.2-0.1-0.2-0.2
		C66,229.9,66.1,229.8,66.2,229.8z"/>
	
		<rect x="67.9" y="229.1" transform="matrix(2.535182e-06 1 -1 2.535182e-06 298.293 161.0856)" class="st20" width="1.5" height="1.1"/>
	<path class="st21" d="M68.6,229.1c0.1,0,0.2,0.1,0.2,0.2s-0.1,0.2-0.2,0.2c-0.1,0-0.2-0.1-0.2-0.2S68.5,229.1,68.6,229.1z"/>
	<path class="st21" d="M68.6,229.9c0.1,0,0.1,0.1,0.1,0.1s-0.1,0.1-0.1,0.1s-0.1-0.1-0.1-0.1S68.5,229.9,68.6,229.9z"/>
</g>
<g id="Earth" transform="matrix(0.763645,0,0,0.763645,2176.46,185.752)">
	<g transform="matrix(2.89901,0,0,4.3189,-427.029,-1009.15)">
		<path class="st22" d="M-271.9,212.1c4.4,1.3,7.8,3,6.9,5.1c-2.1,5.2,9.8,12.6,15.9,8.1c6.1-4.5,16.2-4.1,19.7-4.7
			c3-0.5,5.5-0.4,6.4-3.8c2.3,0.8,4.5,1.6,6.6,2.5c0.5,4.3,1,7.1-7.7,10.6c0,0-11,4.2-7,7.6c3.9,3.4,10.2,3.6,12.8-1.5
			c2.7-5,6.6,1.6,8.8,3.6s11.3,2.6,14.7,1.1c3.4-1.6-2.8-4-0.3-4.4c2.5-0.4,3,4.1,6.8,4.1l0,0c1.6,2.1,2.9,4.3,4,6.6
			c-1.7-1.3-3.6-2.2-5.6-2.4c-7.7-0.7-19.9-0.5-22.9-1.2s-12.8-1.7-16.9,0.3c0,0-13.3,6.8-11.1,13.7c2.2,6.8,3.3,13.3,13.6,12.4
			c10.3-0.9,16.4,1.6,15,6.8c-1.4,5.3-3,8.6-1.1,12.7c1.5,3.3,1.2,10.5,3.5,14.8c-8.4,4.5-18.2,7.8-28.8,9.6c-1-0.5-2.4-1-4.2-1.3
			c-8.3-1.6-9.2,3.2-15.7,1.5c-6.5-1.7-14.9-1.9-17-3.2c-2-1.4-8,0.3-8.3-1.6c-0.3-1.9-4.5-4.1-3.3-0.9l1.7,3.9
			c-29.4-7.4-50.3-26.5-50.3-48.8c0-3.4,0.5-6.7,1.4-9.9c4.7,2,9,4.1,10.5,5.6c3.9,3.9,1.7,11.1,8.8,15.4s13.9,13.2,17.8,20.8
			c3.9,7.6,7.1,8.8,11.8,7.8s-0.4-10.9,8.6-16.4c9-5.5,11.5-12.9,9.6-17c-1.9-4.1-8.4-8.7-12.7-10.6c-4.3-1.9-5.1-3.4-10-3.7
			c-4.9-0.2-9.5,2.5-13.2,1.8c-3.7-0.7-8.2-2.5-8.9-4.2c-0.7-1.7-10-2.7-10.3-4.3s5.9-2.4,13.3-0.2c7.5,2.1,14.2-0.1,15.5-5.5
			c1.3-5.4,7.7-10,11.5-7.2c3.8,2.8,13.7-2.3,8.2-6.2c-5.5-3.9-5.9-3.5-13.7-3c-7.8,0.5-10.6-0.7-0.4-3.4c10.3-2.6,9.7-5.3-1.2-5.8
			c-1.6-0.1-2.9-0.2-4-0.4C-286.6,214.7-279.4,213-271.9,212.1z"/>
	</g>
	<g transform="matrix(1.14415,0,0,1.14415,-126.045,-80.1349)">
		<path class="st23" d="M-1006.1,7c2.9,0.6,6.3,1.1,10.2,1.4c27.6,2.2,29.1,12.1,3.1,22c-26,9.9-18.9,14.6,0.9,12.7
			c19.8-1.9,20.8-3.4,34.7,11.4c13.9,14.8-11.2,34.1-20.8,23.5c-9.6-10.5-25.7,6.8-29.1,27.3c-3.4,20.4-20.4,28.8-39.3,20.8
			c-18.9-8.1-34.4-5.3-33.8,0.9s24.2,9.9,26,16.4c1.9,6.5,13.3,13,22.6,15.8c9.3,2.8,21.1-7.7,33.5-6.8c12.4,0.9,14.6,6.8,25.4,13.9
			c10.8,7.1,27.3,24.5,32.2,40c4.9,15.5-1.4,43.6-24.2,64.2c-22.8,20.6-9.8,58-21.7,61.8c-11.9,3.8-20.1-0.5-29.8-29.3
			c-9.8-28.7-27.1-62.3-45-78.6c-17.9-16.3-12.5-43.4-22.2-58.1c-3.7-5.7-14.6-13.6-26.6-21.2C-1098.4,84.7-1059.2,34.1-1006.1,7z"
			/>
	</g>
	<g transform="matrix(1.14415,0,0,1.14415,-126.045,-80.1349)">
		<path class="st23" d="M-794.6,336.3c-5.9-16.5-5-43.4-8.9-56c-4.8-15.5-0.8-28.2,2.8-48c3.6-19.8-11.9-29.3-38.1-25.8
			c-26.2,3.6-28.9-21-34.5-46.8s28.2-51.6,28.2-51.6c10.3-7.5,35.3-4,42.8-1.2c7.5,2.8,38.5,2,58,4.6c5,0.7,9.9,4.2,14.3,9
			c6.4,19.4,9.9,40.2,9.9,61.7C-720.2,244.6-749.3,300.2-794.6,336.3z"/>
	</g>
	<g transform="matrix(1.14415,0,0,1.14415,-126.045,-80.1349)">
		<path class="st23" d="M-811.3,16.3c30.3,19.3,55,46.7,71,79.2l-0.1,0c-9.5,0-10.8-17.1-17.1-15.5c-6.3,1.6,9.5,10.7,0.8,16.7
			c-8.7,5.9-31.7,3.6-37.3-4c-5.6-7.5-15.5-32.5-22.2-13.5c-6.7,19-22.6,18.2-32.5,5.6c-9.9-12.7,17.8-28.6,17.8-28.6
			C-808.8,43.3-810.1,32.6-811.3,16.3z"/>
	</g>
	<path class="st24" d="M-1346.1,274.5c-33.6-39.3-53.9-90.3-53.9-146.1c0-124.2,100.8-225,225-225c55.7,0,106.8,20.3,146.1,53.9
		C-995.4-3.4-975,47.6-975,103.4c0,124.2-100.8,225-225,225C-1255.8,328.4-1306.8,308.1-1346.1,274.5z"/>
	<g transform="matrix(1,0,0,1,-15.1268,-19.0899)">
		<path class="st15" d="M-1200.1-73.9c13-2.4,26.5-3.6,40.2-3.6c36.5,0,71,8.7,101.5,24.2c-2.5,14.5-9.9,14.2-18.4,16.3
			c-10.1,2.5-39.5,0.8-57.1,20.2c-17.6,19.3-52.1-12.6-46.1-35.1C-1177.6-60.9-1187.4-68.3-1200.1-73.9z"/>
	</g>
	<g transform="matrix(1,0,0,1,-20.6611,-12.2935)">
		<path class="st15" d="M-1233.7,351.3l-5.1-16.7c-3.4-13.9,8.8-4.1,9.5,3.9c0.8,8.1,18.2,1,24.1,6.9c5.9,5.9,30.3,6.7,49.2,14
			s21.4-13.2,45.6-6.5c5.3,1.5,9.3,3.5,12.3,5.6c-18,4.6-36.8,7.1-56.3,7.1C-1182.3,365.7-1209,360.6-1233.7,351.3z"/>
	</g>
</g>
<g id="moon" transform="matrix(0.433892,0,0,0.433892,3133.08,638.63)">
	<g transform="matrix(1.77519,0,0,1.77519,-261.088,-493.418)">
		<path class="st25" d="M-1665.4-93.6c28.2,23.3,46.2,58.5,46.2,97.9c0,70-56.8,126.7-126.7,126.7c-39.4,0-74.6-18-97.9-46.2
			c21.9,18,49.9,28.9,80.5,28.9c70,0,126.7-56.8,126.7-126.7C-1636.5-43.6-1647.3-71.7-1665.4-93.6z"/>
	</g>
	<g transform="matrix(1.77519,0,0,1.77519,-322.714,-555.045)">
		<path class="st26" d="M-1809,119.5c-18-21.9-28.9-49.9-28.9-80.5c0-70,56.8-126.7,126.7-126.7c30.6,0,58.6,10.8,80.5,28.9
			c18,21.9,28.9,49.9,28.9,80.5c0,70-56.8,126.7-126.7,126.7C-1759.1,148.4-1787.1,137.5-1809,119.5z"/>
	</g>
	<g>
		<g transform="matrix(0.755105,0,0,0.755105,739.513,166.845)">
			<circle class="st26" cx="-5201" cy="-864.5" r="55.1"/>
		</g>
		<g transform="matrix(0.519868,0,0,0.519868,291.803,625.077)">
			<circle class="st26" cx="-7155.5" cy="-1796.2" r="55.1"/>
		</g>
		<g transform="matrix(1.16403,0,0,1.16403,413.77,283.552)">
			<circle class="st26" cx="-3209.3" cy="-533.4" r="55.1"/>
		</g>
		<g transform="matrix(0.349443,0,0,0.349443,822.046,206.561)">
			<circle class="st26" cx="-11438.1" cy="-2181" r="55.1"/>
		</g>
	</g>
	<g>
		<g transform="matrix(0.582237,0,0,0.582237,763.746,243.115)">
			<circle class="st25" cx="-6786.8" cy="-1252.1" r="55.1"/>
		</g>
		<g transform="matrix(0.400854,0,0,0.400854,308.486,677.586)">
			<circle class="st25" cx="-9321.6" cy="-2460.5" r="55.1"/>
		</g>
		<g transform="matrix(0.381522,0,0,0.381522,180.948,235.553)">
			<circle class="st25" cx="-9630.3" cy="-2017" r="55.1"/>
		</g>
		<g transform="matrix(0.708183,0,0,0.708183,135.157,311.718)">
			<circle class="st25" cx="-5123.5" cy="-1038.7" r="55.1"/>
		</g>
		<g transform="matrix(0.579973,0,0,0.579973,538.871,-63.0355)">
			<circle class="st25" cx="-6619.7" cy="-994" r="55.1"/>
		</g>
		<g transform="matrix(0.897547,0,0,0.897547,451.126,401.125)">
			<circle class="st25" cx="-4203.8" cy="-822.8" r="55.1"/>
		</g>
		<g transform="matrix(0.269444,0,0,0.269444,833.26,241.857)">
			<circle class="st25" cx="-14875.8" cy="-2959.5" r="55.1"/>
		</g>
	</g>
</g>
<g id="Orion-Capsule" transform="matrix(8.51598e-17,1.39076,-1.39076,8.51598e-17,1641.61,-57.9602)" serif:id="Orion Capsule">
	<g id="Dockingport">
		<g id="_-Curve-" transform="matrix(1,0,0,1,0,2.92579)" serif:id="(Curve)">
			<path class="st27" d="M269,619.3h-10.7l8-7.4h9l8,7.4h-10.7v-4.9H269V619.3z"/>
		</g>
		<g transform="matrix(1,0,0,1,35.1316,4.90348)">
			<path class="st27" d="M259.2,618.3h-6.9l0.8-7.4h4.6l8,7.4h-4.4l-3.6-4.9h-1.5L259.2,618.3z"/>
		</g>
		<g transform="matrix(-1,0,0,1,964.868,4.90348)">
			<path class="st27" d="M717.5,618.3h-6.9l0.8-7.4h4.6l8,7.4h-4.4l-3.6-4.9h-1.5L717.5,618.3z"/>
		</g>
		
			<rect x="267.9" y="583.5" transform="matrix(-2.535182e-06 -1 1 -2.535182e-06 -358.9352 898.9252)" class="st28" width="4.2" height="90.8"/>
		<g transform="matrix(1.04375,0,0,1.14109,-21.802,-19.9138)">
			
				<rect x="277.3" y="523.2" transform="matrix(-2.535182e-06 -1 1 -2.535182e-06 -285.117 844.2481)" class="st29" width="4.6" height="83"/>
		</g>
	</g>
	<g>
		<g transform="matrix(1.72958,0,0,1.68333,-256.748,-403.464)">
			<path class="st28" d="M386,699.8H224l47.7-85.2H339L386,699.8z"/>
		</g>
		<g transform="matrix(1.72958,0,0,1.68333,-256.748,-403.464)">
			<path class="st27" d="M386,700.5c0.3,0,0.5-0.1,0.6-0.4c0.1-0.2,0.1-0.5,0-0.7l-47.1-85.2c-0.1-0.2-0.4-0.4-0.6-0.4h-67.3
				c-0.3,0-0.5,0.1-0.6,0.4l-47.7,85.2c-0.1,0.2-0.1,0.5,0,0.7c0.1,0.2,0.4,0.4,0.6,0.4H386z M272.1,615.3L225.3,699h159.5
				l-46.2-83.7H272.1z"/>
		</g>
		<g transform="matrix(0.553964,0,0,0.539153,67.1714,121.329)">
			<path class="st28" d="M368.1,1211.5H114.8l47.7-85.2h205.7V1211.5z"/>
		</g>
		<g transform="matrix(0.553964,0,0,0.539153,67.1714,121.329)">
			<path class="st27" d="M368.1,1213.8c1.2,0,2.3-1,2.3-2.3v-85.2c0-1.3-1-2.3-2.3-2.3H162.4c-0.8,0-1.6,0.4-2,1.2l-47.7,85.2
				c-0.4,0.7-0.4,1.6,0,2.3c0.4,0.7,1.1,1.2,2,1.2H368.1z M163.7,1128.6l-45.1,80.6h247.2v-80.6H163.7z"/>
		</g>
		<g transform="matrix(0.476723,0,0,0.539153,127.599,121.329)">
			<path class="st28" d="M301,1211.5H47.6l47.7-85.2H301V1211.5z"/>
		</g>
		<g transform="matrix(0.476723,0,0,0.539153,127.599,121.329)">
			<path class="st27" d="M301,1213.8c1.4,0,2.6-1,2.6-2.3v-85.2c0-1.3-1.2-2.3-2.6-2.3H95.3c-1,0-1.9,0.5-2.4,1.3l-47.7,85.2
				c-0.4,0.7-0.4,1.6,0.1,2.3c0.5,0.7,1.3,1.1,2.2,1.1H301z M97,1128.6l-45.1,80.6h246.5v-80.6H97z"/>
		</g>
		<g transform="matrix(-0.553964,0,0,0.539153,933.923,121.329)">
			<path class="st28" d="M1196.5,1211.5H943.1l47.7-85.2h205.7V1211.5z"/>
		</g>
		<g transform="matrix(-0.553964,0,0,0.539153,933.923,121.329)">
			<path class="st27" d="M1198.7,1211.5c0,1.3-1,2.3-2.3,2.3H943.1c-0.8,0-1.5-0.4-2-1.2c-0.4-0.7-0.4-1.6,0-2.3l47.7-85.2
				c0.4-0.7,1.1-1.2,2-1.2h205.7c1.2,0,2.3,1,2.3,2.3V1211.5z M1194.2,1128.6v80.6H947l45.1-80.6H1194.2z"/>
		</g>
		<g transform="matrix(-0.476723,0,0,0.539153,873.496,121.329)">
			<path class="st28" d="M1263.6,1211.5h-253.4l47.7-85.2h205.7V1211.5z"/>
		</g>
		<g transform="matrix(-0.476723,0,0,0.539153,873.496,121.329)">
			<path class="st27" d="M1266.2,1211.5c0,1.3-1.2,2.3-2.6,2.3h-253.4c-0.9,0-1.7-0.4-2.2-1.1c-0.5-0.7-0.5-1.5-0.1-2.3l47.7-85.2
				c0.4-0.8,1.4-1.3,2.3-1.3h205.7c1.4,0,2.6,1,2.6,2.3V1211.5z M1261,1128.6v80.6h-246.5l45.1-80.6H1261z"/>
		</g>
		<path class="st28" d="M157.1,728.5l32.2-56.1h163.7l32,56.1H157.1z"/>
		<path class="st27" d="M156.1,727.9c-0.2,0.4-0.2,0.9,0,1.2c0.2,0.4,0.6,0.6,1.1,0.6h227.9c0.4,0,0.9-0.2,1.1-0.6
			c0.2-0.4,0.2-0.9,0-1.2l-32-56.1c-0.2-0.4-0.6-0.6-1.1-0.6H189.4c-0.4,0-0.9,0.2-1.1,0.6L156.1,727.9z M190.1,673.7l-30.8,53.6
			h223.6l-30.6-53.6H190.1z"/>
		<g transform="matrix(0.859556,0,0,1,70.5289,0)">
			<path class="st28" d="M119.5,728.5l32.2-56.1h163.7l32,56.1H119.5z"/>
		</g>
		<g transform="matrix(0.859556,0,0,1,70.5289,0)">
			<path class="st27" d="M118.2,728c-0.2,0.4-0.2,0.8,0.1,1.2c0.3,0.4,0.7,0.6,1.2,0.6h227.9c0.5,0,1-0.2,1.2-0.6
				c0.3-0.4,0.3-0.8,0.1-1.2l-32-56.1c-0.2-0.4-0.8-0.7-1.3-0.7H151.8c-0.6,0-1.1,0.3-1.3,0.7L118.2,728z M152.7,673.7l-30.8,53.6
				h223.2l-30.6-53.6H152.7z"/>
		</g>
	</g>
	<g transform="matrix(1,0,0,0.991874,1.66516,2.00712)">
		
			<rect x="210.5" y="731" transform="matrix(-2.535182e-06 -1 1 -2.535182e-06 -538.3821 1076.7294)" class="st30" width="117.3" height="153.2"/>
	</g>
	<g transform="matrix(1.36289,-1.1985e-17,3.63977e-18,-0.443623,-234.235,742.5)">
		<path class="st31" d="M485.3-200.6H255.9l25.8-36.5h178.7L485.3-200.6z"/>
	</g>
	<path class="st32" d="M287,993.8c13,18.9,17.3,39.9,17.8,61.8h-67.9c0.5-21.9,4.8-42.9,17.8-61.8H287z"/>
	<g transform="matrix(1,0,0,1.06943,0,-57.8219)">
		
			<rect x="170.5" y="970.8" transform="matrix(2.535182e-06 1 -1 2.535182e-06 1156.4689 812.6522)" class="st33" width="2.9" height="27.4"/>
	</g>
	<g transform="matrix(1791.63,0,0,1031.39,-461281,-530630)">
		
			<rect x="257.6" y="515.2" transform="matrix(2.535182e-06 1 -1 2.535182e-06 772.9894 257.756)" class="st34" width="0.1" height="0.3"/>
	</g>
	<g transform="matrix(1,0,0,1.35462,0.0342908,-286.275)">
		
			<rect x="122.6" y="885.2" transform="matrix(2.535182e-06 1 -1 2.535182e-06 1043.3882 738.0394)" class="st31" width="60.1" height="11"/>
	</g>
	<g id="Thruster">
		<g transform="matrix(0.475264,0.475264,-0.345267,0.345267,338.533,313.76)">
			<path class="st32" d="M480.1,1275.6c-0.1-7.6,0.5-15.2,5.9-23c5.5,7.8,6,15.4,5.9,23H480.1z"/>
		</g>
		<g transform="matrix(0.255377,0.255377,-0.185525,0.185525,296.01,520.2)">
			<path class="st28" d="M577.7,1665.5c-0.1-7.6,0.5-15.2,5.9-23c5.5,7.8,6,15.4,5.9,23H577.7z"/>
		</g>
		<g transform="matrix(-0.475264,0.475264,-0.345267,-0.345267,692.825,853.244)">
			<path class="st32" d="M695,667.8c-0.1-7.6,0.5-15.2,5.9-23c5.5,7.8,6,15.4,5.9,23H695z"/>
		</g>
	</g>
	<g id="Solar-Panel" serif:id="Solar Panel">
		<g transform="matrix(1,0,0,1,-0.338425,0.0651428)">
			<path class="st27" d="M153,983.2l14.6-14.6l4.1,4.1L153,991.4l-18.7-18.7l4.1-4.1L153,983.2z"/>
		</g>
		<g transform="matrix(0.171216,0,0,12.136,177.925,-5690.12)">
			
				<rect x="-293.4" y="541.3" transform="matrix(-0.1237 0.9923 -0.9923 -0.1237 375.1205 758.3467)" class="st35" width="292.3" height="7.1"/>
		</g>
		<g transform="matrix(1,0,0,0.991162,0.0151285,4.96413)">
			
				<rect x="-59.7" y="924.7" transform="matrix(-0.9937 0.1125 -0.1125 -0.9937 378.5959 1828.3174)" class="st36" width="394.9" height="0.4"/>
		</g>
		<g transform="matrix(1,0,0,0.991162,50.6299,4.96413)">
			
				<rect x="-85" y="924.7" transform="matrix(-0.9935 0.1135 -0.1135 -0.9935 329.0445 1830.9481)" class="st36" width="394.9" height="0.4"/>
		</g>
		<g transform="matrix(1,0,0,0.991162,9.25173,4.96413)">
			
				<rect x="-64.3" y="924.7" transform="matrix(-0.9934 0.1145 -0.1145 -0.9934 371.1972 1828.3622)" class="st36" width="394.8" height="0.4"/>
		</g>
		<g transform="matrix(1,0,0,0.991162,59.8665,4.96413)">
			
				<rect x="-89.6" y="924.7" transform="matrix(-0.9933 0.1155 -0.1155 -0.9933 321.6675 1831.0422)" class="st36" width="394.8" height="0.4"/>
		</g>
		<g transform="matrix(1.12891,0,0,1,-29.714,-0.598243)">
			
				<rect x="147.3" y="869.9" transform="matrix(-0.9932 0.1165 -0.1165 -0.9932 401.1566 1717.9823)" class="st33" width="6.2" height="1.5"/>
		</g>
		<g transform="matrix(1.12891,0,0,1,-29.714,205.454)">
			
				<rect x="147.3" y="766.9" transform="matrix(-0.9914 0.1312 -0.1312 -0.9914 400.2184 1508.9946)" class="st33" width="6.2" height="1.5"/>
		</g>
		<g transform="matrix(1.12891,0,0,1,20.9008,205.454)">
			
				<rect x="124.9" y="766.9" transform="matrix(-0.989 0.1478 -0.1478 -0.989 367.9985 1508.0242)" class="st33" width="6.2" height="1.5"/>
		</g>
		<g transform="matrix(1.12891,0,0,1,20.9008,-0.598243)">
			
				<rect x="124.9" y="869.9" transform="matrix(-0.9861 0.1664 -0.1664 -0.9861 399.0067 1707.9999)" class="st33" width="6.2" height="1.5"/>
		</g>
		<g transform="matrix(1,0,0,2.06602,0,-855.381)">
			<path class="st37" d="M155.7,888.9c0-0.3-0.5-0.5-1.1-0.5c-1.1,0-2.8,0-3.9,0c-0.6,0-1.1,0.2-1.1,0.5c0,1.1,0,3.4,0,4.5
				c0,0.3,0.5,0.5,1.1,0.5c1.1,0,2.8,0,3.9,0c0.6,0,1.1-0.2,1.1-0.5C155.7,892.3,155.7,890,155.7,888.9z"/>
		</g>
	</g>
	<g id="Thruster1" serif:id="Thruster">
		<g transform="matrix(0.9426,0,0,1.06822,20.9703,-62.3264)">
			<path class="st33" d="M191.4,1014.9c-0.1-7.6,0.5-15.2,5.9-23c5.5,7.8,6,15.4,5.9,23H191.4z"/>
		</g>
		<g transform="matrix(0.9426,0,0,1.06822,40.2999,-62.3264)">
			<path class="st38" d="M181.2,1014.9c-0.1-7.6,0.5-15.2,5.9-23c5.5,7.8,6,15.4,5.9,23H181.2z"/>
		</g>
		<g transform="matrix(1.25738,0,0,1.25738,-94.8981,-213.02)">
			<path class="st39" d="M246.1,964.3h-12l3-4.5h6L246.1,964.3z"/>
		</g>
		<g transform="matrix(1.25738,0,0,1.25738,-75.5685,-213.02)">
			<path class="st37" d="M238.4,964.3h-12l3-4.5h6L238.4,964.3z"/>
		</g>
	</g>
	<g transform="matrix(-1,0,0,1.06943,1002.46,-57.8219)">
		
			<rect x="623" y="986.9" transform="matrix(0.9974 -7.160135e-02 7.160135e-02 0.9974 -68.8752 47.7406)" class="st33" width="16.9" height="-4.7"/>
	</g>
	<g transform="matrix(-1,0,0,1.35462,1002.42,-286.275)">
		
			<rect x="324.2" y="891.3" transform="matrix(0.9978 6.696948e-02 -6.696948e-02 0.9978 61.0252 -39.0008)" class="st31" width="576.1" height="-1.1"/>
	</g>
	<g id="Thruster2" transform="matrix(-1,0,0,1,1002.46,0)" serif:id="Thruster">
		<g transform="matrix(0.475264,0.475264,-0.345267,0.345267,338.533,313.76)">
			<path class="st32" d="M963.6,610.1c-0.1-7.6,0.5-15.2,5.9-23c5.5,7.8,6,15.4,5.9,23H963.6z"/>
		</g>
		<g transform="matrix(0.255377,0.255377,-0.185525,0.185525,296.01,520.2)">
			<path class="st28" d="M1477.5,427c-0.1-7.6,0.5-15.2,5.9-23c5.5,7.8,6,15.4,5.9,23H1477.5z"/>
		</g>
		<g transform="matrix(-0.475264,0.475264,-0.345267,-0.345267,692.825,853.244)">
			<path class="st32" d="M211.6,2.3c-0.1-7.6,0.5-15.2,5.9-23c5.5,7.8,6,15.4,5.9,23H211.6z"/>
		</g>
	</g>
	<g id="Solar-Panel1" transform="matrix(-1,0,0,1,1002.46,0)" serif:id="Solar Panel">
		<g transform="matrix(1,0,0,1,-0.338425,0.0651428)">
			<path class="st27" d="M612.6,983.2l14.6-14.6l4.1,4.1l-18.7,18.7l-18.7-18.7l4.1-4.1L612.6,983.2z"/>
		</g>
		<g transform="matrix(0.171216,0,0,12.136,177.925,-5690.12)">
			
				<rect x="2534.2" y="747.2" transform="matrix(0.5011 -0.8654 0.8654 0.5011 794.0541 2467.0374)" class="st35" width="5.1" height="-404.9"/>
		</g>
		<g transform="matrix(1,0,0,0.991162,0.0151285,4.96413)">
			
				<rect x="596.4" y="965.8" transform="matrix(0.9997 -2.435732e-02 2.435732e-02 0.9997 -22.3493 14.8226)" class="st36" width="1.7" height="-81.8"/>
		</g>
		<g transform="matrix(1,0,0,0.991162,50.6299,4.96413)">
			
				<rect x="571.1" y="965.8" transform="matrix(0.9997 -2.457436e-02 2.457436e-02 0.9997 -22.5545 14.3353)" class="st36" width="1.7" height="-81.8"/>
		</g>
		<g transform="matrix(1,0,0,0.991162,9.25173,4.96413)">
			
				<rect x="591.8" y="965.8" transform="matrix(0.9997 -2.479332e-02 2.479332e-02 0.9997 -22.7476 14.9785)" class="st36" width="1.7" height="-81.8"/>
		</g>
		<g transform="matrix(1,0,0,0.991162,59.8665,4.96413)">
			
				<rect x="566.5" y="965.8" transform="matrix(0.9997 -2.501424e-02 2.501424e-02 0.9997 -22.9566 14.4814)" class="st36" width="1.7" height="-81.8"/>
		</g>
		<g transform="matrix(1.12891,0,0,1,-29.714,-0.598243)">
			
				<rect x="557.4" y="1047.7" transform="matrix(0.9997 -2.523712e-02 2.523712e-02 0.9997 -21.7967 14.346)" class="st33" width="0" height="-353.9"/>
		</g>
		<g transform="matrix(1.12891,0,0,1,-29.714,205.454)">
			
				<rect x="557.4" y="944.6" transform="matrix(0.9996 -2.848763e-02 2.848763e-02 0.9996 -21.6433 16.1923)" class="st33" width="0" height="-353.9"/>
		</g>
		<g transform="matrix(1.12891,0,0,1,20.9008,205.454)">
			
				<rect x="535" y="944.7" transform="matrix(0.9995 -3.215606e-02 3.215606e-02 0.9995 -24.4091 17.6019)" class="st33" width="0" height="-353.9"/>
		</g>
		<g transform="matrix(1.12891,0,0,1,20.9008,-0.598243)">
			
				<rect x="535" y="1047.7" transform="matrix(0.9993 -3.629582e-02 3.629582e-02 0.9993 -31.2507 19.9936)" class="st33" width="0" height="-354"/>
		</g>
		<g transform="matrix(1,0,0,2.06602,0,-855.381)">
			<path class="st37" d="M615.3,888.9c0-0.3-0.5-0.5-1.1-0.5c-1.1,0-2.8,0-3.9,0c-0.6,0-1.1,0.2-1.1,0.5c0,1.1,0,3.4,0,4.5
				c0,0.3,0.5,0.5,1.1,0.5c1.1,0,2.8,0,3.9,0c0.6,0,1.1-0.2,1.1-0.5C615.3,892.3,615.3,890,615.3,888.9z"/>
		</g>
	</g>
	<g id="Thruster3" transform="matrix(-1,0,0,1,1002.46,0)" serif:id="Thruster">
		<g transform="matrix(0.9426,0,0,1.06822,20.9703,-62.3264)">
			<path class="st33" d="M679,1014.9c-0.1-7.6,0.5-15.2,5.9-23c5.5,7.8,6,15.4,5.9,23H679z"/>
		</g>
		<g transform="matrix(0.9426,0,0,1.06822,40.2999,-62.3264)">
			<path class="st38" d="M668.7,1014.9c-0.1-7.6,0.5-15.2,5.9-23c5.5,7.8,6,15.4,5.9,23H668.7z"/>
		</g>
		<g transform="matrix(1.25738,0,0,1.25738,-94.8981,-213.02)">
			<path class="st39" d="M611.6,964.3h-12l3-4.5h6L611.6,964.3z"/>
		</g>
		<g transform="matrix(1.25738,0,0,1.25738,-75.5685,-213.02)">
			<path class="st37" d="M603.9,964.3h-12l3-4.5h6L603.9,964.3z"/>
		</g>
	</g>
	<g transform="matrix(0.755776,0,0,2.69416,117.37,-1381.8)">
		
			<rect x="201.4" y="606.5" transform="matrix(-0.9999 1.545220e-02 -1.545220e-02 -0.9999 419.3018 1706.0557)" class="st31" width="3.3" height="496.3"/>
	</g>
	<g transform="matrix(0.42889,0,0,2.69416,282.864,-1381.8)">
		
			<rect x="-30.9" y="713.9" transform="matrix(-1 4.337010e-03 -4.337010e-03 -1 -52.3741 1709.4091)" class="st30" width="5.8" height="281.6"/>
	</g>
	<g transform="matrix(1.3052,0,0,1.3052,-152.602,-232.221)">
		<g transform="matrix(0.919859,0,0,0.817237,41.9467,139.228)">
			<path class="st29" d="M314.7,959.4h-15.3v5.1c0,0.4,0.3,0.7,0.6,0.7c2.4,0,11.7,0,14.1,0c0.3,0,0.6-0.3,0.6-0.7
				C314.7,962.9,314.7,959.4,314.7,959.4z"/>
		</g>
		<g transform="matrix(0.919859,0,0,0.356269,41.9467,488.791)">
			<rect x="307.1" y="52.4" class="st31" width="0" height="2331.6"/>
		</g>
		<g transform="matrix(2.18819,0,0,2.18819,-578.621,-915.531)">
			<circle class="st40" cx="411.1" cy="841.8" r="0"/>
		</g>
		<g transform="matrix(0.493963,6.74178e-17,-4.87847e-17,0.334,308.907,500.528)">
			<path class="st40" d="M18.4,1304.1c-0.1-7.6,0.5-15.2,5.9-23c5.5,7.8,6,15.4,5.9,23H18.4z"/>
		</g>
		<g transform="matrix(0.493963,6.74178e-17,-4.87847e-17,0.334,322.862,500.528)">
			<path class="st40" d="M4.3,1304.1c-0.1-7.6,0.5-15.2,5.9-23c5.5,7.8,6,15.4,5.9,23H4.3z"/>
		</g>
		<g transform="matrix(0.361158,5.23788e-17,5.91917e-18,0.209057,358.381,596.081)">
			<path class="st28" d="M-109.7,1596c-0.1-7.6,0.5-15.2,5.9-23c5.5,7.8,6,15.4,5.9,23H-109.7z"/>
		</g>
		<g transform="matrix(0.962506,0,0,1,19.1162,0.782766)">
			
				<ellipse transform="matrix(-1 7.579504e-03 -7.579504e-03 -1 634.1581 1855.5184)" class="st40" cx="313.6" cy="929" rx="0" ry="126.7"/>
		</g>
		<g transform="matrix(1.23943,0,0,0.739514,-118.84,200.536)">
			<path class="st40" d="M355.9,979.4h-2.1v2c0.7-1.4,1.4-1.3,2.1,0V979.4z"/>
		</g>
		<g transform="matrix(2.18819,0,0,2.18819,-564.613,-915.531)">
			<circle class="st40" cx="407.9" cy="841.8" r="0"/>
		</g>
		<g transform="matrix(0.361158,5.23788e-17,5.91917e-18,0.209057,372.389,596.081)">
			<path class="st28" d="M-129,1596c-0.1-7.6,0.5-15.2,5.9-23c5.5,7.8,6,15.4,5.9,23H-129z"/>
		</g>
		<g transform="matrix(0.962506,0,0,1,33.1244,0.782766)">
			
				<ellipse transform="matrix(-0.9998 2.111421e-02 -2.111421e-02 -0.9998 632.1182 1851.2477)" class="st40" cx="306.3" cy="929" rx="0" ry="126.8"/>
		</g>
		<g transform="matrix(1.23943,0,0,0.739514,-104.832,200.536)">
			<path class="st40" d="M350.2,979.4h-2.1v2c0.7-1.4,1.4-1.3,2.1,0V979.4z"/>
		</g>
		<g transform="matrix(0.919859,0,0,-0.817237,41.9467,1386.88)">
			<path class="st29" d="M314.7,568.7h-15.3v5.1c0,0.4,0.3,0.7,0.6,0.7c2.4,0,11.7,0,14.1,0c0.3,0,0.6-0.3,0.6-0.7
				C314.7,572.3,314.7,568.7,314.7,568.7z"/>
		</g>
		<g transform="matrix(2.18819,0,0,-2.18819,-578.621,2441.64)">
			<circle class="st40" cx="411.1" cy="695.9" r="0"/>
		</g>
		<g transform="matrix(0.493963,-6.74178e-17,-4.87847e-17,-0.334,308.907,1025.58)">
			<path class="st40" d="M18.4,348.3c-0.1-7.6,0.5-15.2,5.9-23c5.5,7.8,6,15.4,5.9,23H18.4z"/>
		</g>
		<g transform="matrix(0.493963,-6.74178e-17,-4.87847e-17,-0.334,322.862,1025.58)">
			<path class="st40" d="M4.3,348.3c-0.1-7.6,0.5-15.2,5.9-23c5.5,7.8,6,15.4,5.9,23H4.3z"/>
		</g>
		<g transform="matrix(0.361158,-5.23788e-17,5.91917e-18,-0.209057,358.381,930.03)">
			<path class="st28" d="M-109.7,69.1c-0.1-7.6,0.5-15.2,5.9-23c5.5,7.8,6,15.4,5.9,23H-109.7z"/>
		</g>
		<g transform="matrix(0.962506,0,0,-1,19.1162,1525.33)">
			
				<ellipse transform="matrix(-0.9897 -0.1434 0.1434 -0.9897 536.4633 1258.1356)" class="st40" cx="313.6" cy="609.7" rx="0" ry="-128.1"/>
		</g>
		<g transform="matrix(1.23943,0,0,-0.739514,-118.84,1325.58)">
			<path class="st40" d="M355.9,547.8h-2.1v2c0.7-1.4,1.4-1.3,2.1,0V547.8z"/>
		</g>
		<g transform="matrix(2.18819,0,0,-2.18819,-564.613,2441.64)">
			<circle class="st40" cx="407.9" cy="695.9" r="0"/>
		</g>
		<g transform="matrix(0.361158,-5.23788e-17,5.91917e-18,-0.209057,372.389,930.03)">
			<path class="st28" d="M-129,69.1c-0.1-7.6,0.5-15.2,5.9-23c5.5,7.8,6,15.4,5.9,23H-129z"/>
		</g>
		<g transform="matrix(0.962506,0,0,-1,33.1244,1525.33)">
			
				<ellipse transform="matrix(-0.9273 -0.3744 0.3744 -0.9273 362.0211 1289.802)" class="st40" cx="306.3" cy="609.7" rx="0" ry="-136.7"/>
		</g>
		<g transform="matrix(1.23943,0,0,-0.739514,-104.832,1325.58)">
			<path class="st40" d="M350.2,547.8h-2.1v2c0.7-1.4,1.4-1.3,2.1,0V547.8z"/>
		</g>
		<g transform="matrix(0.766164,0,0,0.766164,116.918,176.224)">
			
				<ellipse transform="matrix(-0.8379 -0.5458 0.5458 -0.8379 -51.8572 1968.1681)" class="st32" cx="266.3" cy="991.8" rx="0" ry="269.9"/>
		</g>
		<g transform="matrix(0.766164,0,0,0.766164,116.918,122.54)">
			
				<ellipse transform="matrix(-0.8379 -0.5458 0.5458 -0.8379 -70.9775 2032.5591)" class="st32" cx="266.3" cy="1026.8" rx="0" ry="269.9"/>
		</g>
		<g transform="matrix(0.766164,0,0,0.766164,131.006,176.224)">
			
				<ellipse transform="matrix(-0.8379 -0.5458 0.5458 -0.8379 -68.755 1963.1505)" class="st32" cx="257.1" cy="991.8" rx="0" ry="269.9"/>
		</g>
		<g transform="matrix(0.766164,0,0,0.766164,130.873,176.224)">
			
				<ellipse transform="matrix(-0.8379 -0.5458 0.5458 -0.8379 -68.5954 1963.1979)" class="st32" cx="257.2" cy="991.8" rx="0" ry="269.9"/>
		</g>
		<g transform="matrix(0.766164,0,0,0.766164,130.873,122.54)">
			
				<ellipse transform="matrix(-0.8379 -0.5458 0.5458 -0.8379 -87.7158 2027.5887)" class="st32" cx="257.2" cy="1026.8" rx="0" ry="269.9"/>
		</g>
	</g>
	<g transform="matrix(7.99207e-17,1.3052,-1.3052,7.99207e-17,1495.96,-81.3986)">
		<g transform="matrix(0.919859,0,0,0.817237,41.9467,139.228)">
			<path class="st29" d="M759.3,978.9H744v5.1c0,0.4,0.3,0.7,0.6,0.7c2.4,0,11.7,0,14.1,0c0.3,0,0.6-0.3,0.6-0.7
				C759.3,982.5,759.3,978.9,759.3,978.9z"/>
		</g>
		<g transform="matrix(0.919859,0,0,0.356269,41.9467,488.791)">
			
				<rect x="751.6" y="940.2" transform="matrix(0.8064 0.5914 -0.5914 0.8064 892.4034 -199.9866)" class="st31" width="0.1" height="645.6"/>
		</g>
		<g transform="matrix(2.18819,0,0,2.18819,-578.621,-915.531)">
			<circle class="st40" cx="598" cy="849.1" r="0"/>
		</g>
		<g transform="matrix(0.493963,6.74178e-17,-4.87847e-17,0.334,308.907,500.528)">
			<path class="st40" d="M846.3,1351.9c-0.1-7.6,0.5-15.2,5.9-23c5.5,7.8,6,15.4,5.9,23H846.3z"/>
		</g>
		<g transform="matrix(0.493963,6.74178e-17,-4.87847e-17,0.334,322.862,500.528)">
			<path class="st40" d="M832.2,1351.9c-0.1-7.6,0.5-15.2,5.9-23c5.5,7.8,6,15.4,5.9,23H832.2z"/>
		</g>
		<g transform="matrix(0.361158,5.23788e-17,5.91917e-18,0.209057,358.381,596.081)">
			<path class="st28" d="M1022.6,1672.4c-0.1-7.6,0.5-15.2,5.9-23c5.5,7.8,6,15.4,5.9,23H1022.6z"/>
		</g>
		<g transform="matrix(0.962506,0,0,1,19.1162,0.782766)">
			
				<ellipse transform="matrix(0.1384 0.9904 -0.9904 0.1384 1572.0414 82.8014)" class="st40" cx="738.4" cy="944.9" rx="0" ry="516.9"/>
		</g>
		<g transform="matrix(1.23943,0,0,0.739514,-118.84,200.536)">
			<path class="st40" d="M685.8,1001h-2.1v2c0.7-1.4,1.4-1.3,2.1,0V1001z"/>
		</g>
		<g transform="matrix(2.18819,0,0,2.18819,-564.613,-915.531)">
			<circle class="st40" cx="594.8" cy="849.1" r="0"/>
		</g>
		<g transform="matrix(0.361158,5.23788e-17,5.91917e-18,0.209057,372.389,596.081)">
			<path class="st28" d="M1003.2,1672.4c-0.1-7.6,0.5-15.2,5.9-23c5.5,7.8,6,15.4,5.9,23H1003.2z"/>
		</g>
		<g transform="matrix(0.962506,0,0,1,33.1244,0.782766)">
			
				<ellipse transform="matrix(5.009604e-02 0.9987 -0.9987 5.009604e-02 1638.2727 167.3605)" class="st40" cx="731.2" cy="944.9" rx="0" ry="1428.6"/>
		</g>
		<g transform="matrix(1.23943,0,0,0.739514,-104.832,200.536)">
			<path class="st40" d="M680.2,1001H678v2c0.7-1.4,1.4-1.3,2.1,0V1001z"/>
		</g>
		<g transform="matrix(0.919859,0,0,-0.817237,41.9467,1386.88)">
			<path class="st29" d="M759.3,549.2H744v5.1c0,0.4,0.3,0.7,0.6,0.7c2.4,0,11.7,0,14.1,0c0.3,0,0.6-0.3,0.6-0.7
				C759.3,552.8,759.3,549.2,759.3,549.2z"/>
		</g>
		<g transform="matrix(2.18819,0,0,-2.18819,-578.621,2441.64)">
			<circle class="st40" cx="598" cy="688.6" r="0"/>
		</g>
		<g transform="matrix(0.493963,-6.74178e-17,-4.87847e-17,-0.334,308.907,1025.58)">
			<path class="st40" d="M846.3,300.5c-0.1-7.6,0.5-15.2,5.9-23c5.5,7.8,6,15.4,5.9,23H846.3z"/>
		</g>
		<g transform="matrix(0.493963,-6.74178e-17,-4.87847e-17,-0.334,322.862,1025.58)">
			<path class="st40" d="M832.2,300.5c-0.1-7.6,0.5-15.2,5.9-23c5.5,7.8,6,15.4,5.9,23H832.2z"/>
		</g>
		<g transform="matrix(0.361158,-5.23788e-17,5.91917e-18,-0.209057,358.381,930.03)">
			<path class="st28" d="M1022.6-7.3c-0.1-7.6,0.5-15.2,5.9-23c5.5,7.8,6,15.4,5.9,23H1022.6z"/>
		</g>
		<g transform="matrix(0.962506,0,0,-1,19.1162,1525.33)">
			
				<ellipse transform="matrix(7.307756e-03 -1 1 7.307756e-03 139.2839 1327.8378)" class="st40" cx="738.4" cy="593.8" rx="0" ry="1.4"/>
		</g>
		<g transform="matrix(1.23943,0,0,-0.739514,-118.84,1325.58)">
			<path class="st40" d="M685.8,526.2h-2.1v2c0.7-1.4,1.4-1.3,2.1,0V526.2z"/>
		</g>
		<g transform="matrix(2.18819,0,0,-2.18819,-564.613,2441.64)">
			<circle class="st40" cx="594.8" cy="688.6" r="0"/>
		</g>
		<g transform="matrix(0.361158,-5.23788e-17,5.91917e-18,-0.209057,372.389,930.03)">
			<path class="st28" d="M1003.2-7.3c-0.1-7.6,0.5-15.2,5.9-23c5.5,7.8,6,15.4,5.9,23H1003.2z"/>
		</g>
		<g transform="matrix(0.962506,0,0,-1,33.1244,1525.33)">
			
				<ellipse transform="matrix(2.620676e-03 -1 1 2.620676e-03 135.4733 1323.3611)" class="st40" cx="731.2" cy="593.8" rx="0" ry="1.4"/>
		</g>
		<g transform="matrix(1.23943,0,0,-0.739514,-104.832,1325.58)">
			<path class="st40" d="M680.2,526.2H678v2c0.7-1.4,1.4-1.3,2.1,0V526.2z"/>
		</g>
		<g transform="matrix(0.766164,0,0,0.766164,116.918,176.224)">
			
				<ellipse transform="matrix(1.623594e-03 -1 1 1.623594e-03 -213.8953 1811.0188)" class="st32" cx="800" cy="1012.6" rx="0" ry="1.5"/>
		</g>
		<g transform="matrix(0.766164,0,0,0.766164,116.918,122.54)">
			
				<ellipse transform="matrix(1.623594e-03 -1 1 1.623594e-03 -248.9295 1845.9961)" class="st32" cx="800" cy="1047.7" rx="0" ry="1.5"/>
		</g>
		<g transform="matrix(0.766164,0,0,0.766164,131.006,176.224)">
			
				<ellipse transform="matrix(1.623594e-03 -1 1 1.623594e-03 -223.0742 1801.825)" class="st32" cx="790.8" cy="1012.6" rx="0" ry="1.5"/>
		</g>
		<g transform="matrix(0.766164,0,0,0.766164,130.873,176.224)">
			
				<ellipse transform="matrix(1.623594e-03 -1 1 1.623594e-03 -222.9875 1801.9117)" class="st32" cx="790.9" cy="1012.6" rx="0" ry="1.5"/>
		</g>
		<g transform="matrix(0.766164,0,0,0.766164,130.873,122.54)">
			
				<ellipse transform="matrix(1.623594e-03 -1 1 1.623594e-03 -258.0218 1836.8892)" class="st32" cx="790.9" cy="1047.7" rx="0" ry="1.5"/>
		</g>
	</g>
	<path class="st39" d="M236.8,821.4c0,1.7-1.4,3-3.1,3c-6.2,0-20.3,0-26.5,0c-1.7,0-3-1.3-3.1-3c-0.1-12.2,0-57.7,9-74.8
		c0,0,23.3,0.1,30.3,0.1c0.5,0,1,0.2,1.4,0.6c0.4,0.4,0.6,0.9,0.6,1.4c0,1.3-0.1,3.1-0.1,4.2c0,0.7-0.2,1.3-0.5,1.9
		C240.2,763.1,237.4,782.7,236.8,821.4z"/>
	<path class="st41" d="M233.5,812.9c0,2.1-1.7,3.7-3.8,3.7c-7.9,0-25.4,0-25.4,0s-1.5-50.2,8.9-70l29.6,0.1
		C242.8,746.8,234.5,758.5,233.5,812.9z"/>
	<g transform="matrix(1,0,0,1,0.259767,0.0579802)">
		<circle class="st40" cx="256.7" cy="740.1" r="0"/>
	</g>
	<g transform="matrix(1,0,0,1,56.6803,0.0579802)">
		<circle class="st40" cx="228.5" cy="740.1" r="0"/>
	</g>
	<g transform="matrix(1,0,0,1,0,-1.12401)">
		<path class="st40" d="M265.8,723.8c0,0-10.2,3-20.7,3c-10.5,0-21-3-21-3l-14.7,0l12.4-37.4H320l12.4,37.4l-14.7,0c0,0-10.5,3-21,3
			c-10.5,0-20.7-3-20.7-3H265.8z"/>
	</g>
	<g transform="matrix(1,0,0,1,1.73144,0)">
		<path class="st27" d="M206.5,747.8c0-5-4.1-9.1-9.1-9.1c-5.5,0-12.5,0-17.4,0c-3.5,0-6.3,2.8-6.3,6.3c0,1.3,0,2.7,0,4
			c0,3.5,2.8,6.3,6.3,6.3c5.7,0,14.5,0,20.2,0c3.5,0,6.3-2.8,6.3-6.3C206.5,748.6,206.5,748.2,206.5,747.8z M205.5,747.8
			c0,0.4,0,0.8,0,1.2c0,2.9-2.4,5.3-5.3,5.3c-5.7,0-14.5,0-20.2,0c-2.9,0-5.3-2.4-5.3-5.3c0-1.3,0-2.7,0-4c0-2.9,2.4-5.3,5.3-5.3
			c4.9,0,11.9,0,17.4,0C201.8,739.7,205.5,743.3,205.5,747.8z"/>
		<g transform="matrix(0.86744,0,0,0.86744,-83.1569,54.2182)">
			<circle class="st40" cx="307" cy="799" r="0"/>
		</g>
		<g transform="matrix(0.86744,0,0,0.86744,-57.4792,54.2182)">
			<circle class="st40" cx="292.2" cy="799" r="0"/>
		</g>
	</g>
	<g transform="matrix(-1,0,0,1,998.269,0)">
		<path class="st27" d="M664.8,747.8c0,0.4,0,0.8,0,1.2c0,3.5-2.8,6.3-6.3,6.3c-5.7,0-14.5,0-20.2,0c-3.5,0-6.3-2.8-6.3-6.3
			c0-1.3,0-2.7,0-4c0-3.5,2.8-6.3,6.3-6.3h17.4C660.7,738.7,664.8,742.7,664.8,747.8z M663.8,747.8c0-4.5-3.6-8.1-8.1-8.1
			c-5.5,0-12.5,0-17.4,0c-2.9,0-5.3,2.4-5.3,5.3c0,1.3,0,2.7,0,4c0,2.9,2.4,5.3,5.3,5.3c5.7,0,14.5,0,20.2,0c2.9,0,5.3-2.4,5.3-5.3
			C663.8,748.6,663.8,748.2,663.8,747.8z"/>
		<g transform="matrix(0.86744,0,0,0.86744,-83.1569,54.2182)">
			<circle class="st40" cx="835.4" cy="799" r="0"/>
		</g>
		<g transform="matrix(0.86744,0,0,0.86744,-57.4792,54.2182)">
			<circle class="st40" cx="820.6" cy="799" r="0"/>
		</g>
	</g>
	<g id="windows">
		<g transform="matrix(1,0,0,1,-3.05294,0)">
			<path class="st42" d="M258.9,717.9c0.4,0,0.7-0.1,1-0.4c0.3-0.3,0.4-0.6,0.4-1c0-2.6,0-8.3,0-10.9c0-0.7-0.6-1.3-1.3-1.4
				c-3.5-0.3-13.4-1.2-19.7-3.5c-0.3-0.1-0.7-0.1-1.1,0c-0.3,0.1-0.6,0.4-0.7,0.8c-1,2.8-3.5,9.2-4.4,11.8c-0.2,0.7,0,1.4,0.7,1.7
				C236,716,242.3,717.8,258.9,717.9z"/>
		</g>
		<g transform="matrix(1,0,0,1,-3.05294,0)">
			<path class="st27" d="M258.3,718.4c-14.9-0.1-21.4-1.6-24.1-2.6c-1.2-0.5-1.9-1.9-1.4-3.1c1-2.7,3-8,4.1-10.8
				c0.2-0.6,0.7-1.1,1.3-1.3c0.6-0.3,1.2-0.3,1.8,0c6,2.1,14.8,3,18.5,3.2c1.3,0.1,2.2,1.1,2.2,2.4c0,2.5,0,7.2,0,9.9
				c0,0.6-0.3,1.3-0.7,1.7C259.6,718.2,259,718.4,258.3,718.4L258.3,718.4L258.3,718.4L258.3,718.4z M258.3,717.4
				c-14.7-0.1-21.1-1.6-23.8-2.6c-0.7-0.3-1.1-1.1-0.8-1.8c1-2.7,3-8,4.1-10.8c0.1-0.4,0.4-0.6,0.7-0.8c0.3-0.2,0.7-0.2,1.1,0
				c0,0,0,0,0,0c6.1,2.1,15,3,18.8,3.3c0.7,0.1,1.3,0.7,1.3,1.4c0,2.5,0,7.2,0,9.9c0,0.4-0.1,0.7-0.4,1
				C259.1,717.3,258.7,717.4,258.3,717.4L258.3,717.4z"/>
		</g>
		<g transform="matrix(-1,0,0,1,1003.05,0)">
			<path class="st42" d="M717.2,717.9c0.4,0,0.7-0.1,1-0.4c0.3-0.3,0.4-0.6,0.4-1c0-2.6,0-8.3,0-10.9c0-0.7-0.6-1.3-1.3-1.4
				c-3.5-0.3-13.4-1.2-19.7-3.5c-0.3-0.1-0.7-0.1-1.1,0c-0.3,0.1-0.6,0.4-0.7,0.8c-1,2.8-3.5,9.2-4.4,11.8c-0.2,0.7,0,1.4,0.7,1.7
				C694.3,716,700.6,717.8,717.2,717.9z"/>
		</g>
		<g transform="matrix(-1,0,0,1,1003.05,0)">
			<path class="st27" d="M698.3,700.5c-0.6-0.2-1.3-0.2-1.8,0c-0.6,0.3-1,0.7-1.3,1.3c-1.1,2.8-3.1,8.1-4.1,10.8
				c-0.5,1.2,0.2,2.6,1.4,3.1c2.7,1,9.2,2.5,24.1,2.6l0,0l0,0l0,0c0.6,0,1.3-0.2,1.7-0.7c0.5-0.5,0.7-1.1,0.7-1.7c0-2.6,0-7.3,0-9.9
				c0-1.3-1-2.3-2.2-2.4C713.1,703.5,704.3,702.6,698.3,700.5z M716.7,717.4c0.4,0,0.7-0.1,1-0.4c0.3-0.3,0.4-0.6,0.4-1
				c0-2.6,0-7.3,0-9.9c0-0.7-0.6-1.3-1.3-1.4c-3.8-0.3-12.8-1.2-18.8-3.3l0,0c-0.3-0.1-0.7-0.1-1.1,0c-0.3,0.2-0.6,0.4-0.7,0.8
				c-1.1,2.8-3.1,8.1-4.1,10.8c-0.3,0.7,0.1,1.5,0.8,1.8C695.5,715.8,701.9,717.3,716.7,717.4L716.7,717.4z"/>
		</g>
		<g transform="matrix(1,0,0,1,0.110022,0)">
			<path class="st42" d="M331.1,703.6c-0.3-0.7-0.2-1.4,0.1-2c0.4-0.6,1.1-1,1.8-1c3.5,0,8.9,0,11.5,0c0.8,0,1.6,0.5,1.9,1.3
				c1.1,2.5,3.7,8.4,5.3,11.9c0.3,0.7,0.2,1.4-0.2,2c-0.4,0.6-1.1,1-1.8,1c-3.5,0-8.9,0-11.4,0c-0.8,0-1.6-0.5-1.9-1.2
				C335.3,713,332.7,707.2,331.1,703.6z"/>
		</g>
		<g transform="matrix(1,0,0,1,0.110022,0)">
			<path class="st27" d="M331.1,705c1.5,3.3,3.5,7.9,4.6,10.3c0.6,1.2,1.8,2,3.1,2c2.3,0,6.4,0,9.6,0c1.2,0,2.2-0.6,2.9-1.6
				c0.6-1,0.7-2.2,0.3-3.3c-1.5-3.3-3.5-7.8-4.6-10.3c-0.6-1.2-1.8-2-3.1-2c-2.4,0-6.5,0-9.6,0c-1.2,0-2.3,0.6-2.9,1.6
				C330.8,702.7,330.7,703.9,331.1,705z M332.1,704.6c-0.3-0.8-0.3-1.6,0.2-2.3c0.4-0.7,1.2-1.1,2-1.1h9.6c1,0,1.8,0.6,2.2,1.4
				c1.1,2.4,3.1,7,4.6,10.3c0.3,0.8,0.3,1.6-0.2,2.3c-0.5,0.7-1.2,1.1-2,1.1c-3.2,0-7.2,0-9.6,0c-1,0-1.8-0.6-2.2-1.4
				C335.6,712.4,333.6,707.9,332.1,704.6z"/>
		</g>
		<g transform="matrix(-1,0,0,1,999.89,0)">
			<path class="st42" d="M789.4,703.6c-0.3-0.7-0.2-1.4,0.2-2c0.4-0.6,1.1-1,1.8-1c3.5,0,8.9,0,11.5,0c0.8,0,1.6,0.5,1.9,1.3
				c1.1,2.5,3.7,8.4,5.3,11.9c0.3,0.7,0.2,1.4-0.2,2c-0.4,0.6-1.1,1-1.8,1c-3.5,0-8.9,0-11.4,0c-0.8,0-1.6-0.5-1.9-1.2
				C793.6,713,791,707.2,789.4,703.6z"/>
		</g>
		<g transform="matrix(-1,0,0,1,999.89,0)">
			<path class="st27" d="M789.5,705c-0.5-1.1-0.4-2.3,0.2-3.3c0.6-1,1.7-1.6,2.9-1.6h9.6c1.4,0,2.6,0.8,3.1,2
				c1.1,2.4,3.1,7,4.6,10.3c0.5,1.1,0.4,2.3-0.3,3.3c-0.6,1-1.7,1.6-2.9,1.6c-3.2,0-7.2,0-9.6,0c-1.4,0-2.6-0.8-3.1-2
				C793,712.8,791,708.3,789.5,705z M790.4,704.6c1.5,3.3,3.5,7.9,4.6,10.3c0.4,0.9,1.3,1.4,2.2,1.4c2.3,0,6.4,0,9.6,0
				c0.8,0,1.6-0.4,2-1.1c0.4-0.7,0.5-1.6,0.2-2.3c-1.5-3.3-3.5-7.8-4.6-10.3c-0.4-0.9-1.3-1.4-2.2-1.4c-2.4,0-6.5,0-9.6,0
				c-0.8,0-1.6,0.4-2,1.1C790.1,702.9,790,703.8,790.4,704.6z"/>
		</g>
	</g>
	<g>
		<g transform="matrix(1,0,0,1,0.842033,0)">
			<path class="st27" d="M240.8,672.4c-0.1,0.2,0,0.3,0.1,0.5c0.1,0.1,0.2,0.2,0.4,0.2h16.2c0.1,0,0.3-0.1,0.4-0.2s0.1-0.2,0.1-0.4
				c0,0-0.2-7.5-2.2-12c-0.9-2.1-2.3-3.5-4-3.5c-1.7,0-3.5,1.4-5,3.4C243.5,665,240.8,672.4,240.8,672.4z M257,672.1
				c-0.1-1.7-0.5-7.4-2.1-11.1c-0.7-1.7-1.7-2.9-3.1-2.9c-0.7,0-1.4,0.3-2.1,0.8c-0.7,0.6-1.5,1.3-2.1,2.2c-2.7,3.6-4.9,9.1-5.6,11
				H257z"/>
		</g>
		<g transform="matrix(1,0,0,1,4.54196,2.31285)">
			<circle class="st40" cx="247" cy="663.4" r="0"/>
		</g>
		<g transform="matrix(-1,0,0,1,999.158,0)">
			<path class="st27" d="M699.6,673.1c-0.2,0-0.3-0.1-0.4-0.2c-0.1-0.1-0.1-0.3-0.1-0.5c0,0,2.6-7.5,6-11.9c1.6-2,3.3-3.4,5-3.4
				c1.8,0,3.1,1.4,4,3.5c2,4.5,2.2,12,2.2,12c0,0.1,0,0.3-0.1,0.4s-0.2,0.2-0.4,0.2H699.6z M700.4,672.1c0.7-1.9,2.9-7.4,5.6-11
				c0.7-0.9,1.4-1.7,2.1-2.2c0.7-0.5,1.4-0.8,2.1-0.8c1.4,0,2.4,1.3,3.1,2.9c1.6,3.7,2,9.4,2.1,11.1H700.4z"/>
		</g>
		<g transform="matrix(-1,0,0,1,995.458,2.31285)">
			<circle class="st40" cx="705.3" cy="663.4" r="0"/>
		</g>
	</g>
	<path class="st40" d="M336.9,671.2c-3.2-2.9-7.7-9.7-11.5-17.5c-5-10.5-6.8-19-4-19c2.8,0,9.2,8.5,14.3,19
		c3.8,7.8,5.7,14.6,5.3,17.5H336.9z"/>
	<path class="st40" d="M264,671.2c-1.4-4-2.2-9.3-2.2-15.1c0-12.7,4.1-22.9,9.1-22.9c5,0,9.1,10.3,9.1,22.9c0,5.8-0.8,11-2.2,15.1
		H264z"/>
	<path class="st40" d="M200.7,671.2c-0.4-2.9,1.5-9.7,5.3-17.5c5-10.5,11.4-19,14.3-19c2.8,0,1.1,8.5-4,19
		c-3.7,7.8-8.3,14.6-11.5,17.5H200.7z"/>
	<g transform="matrix(1,0,0,1,1.13056,4.67499)">
		
			<rect x="269.7" y="656.7" transform="matrix(1 -1.628664e-03 1.628664e-03 1 -1.0743 0.4401)" class="st27" width="0" height="6.4"/>
	</g>
</g>
</svg>
