<svg xmlns="http://www.w3.org/2000/svg" xmlns:xlink="http://www.w3.org/1999/xlink" xmlns:lucid="lucid" width="160" height="194"><g transform="translate(-440 -360)" lucid:page-tab-id="0eXroDAwBFOg"><path d="M460 380h120v120H460V380z" stroke="#fff" stroke-opacity="0" stroke-width="2" fill="#cc2264"/><path d="M545.6 430.4v-9.6c0-.88-.72-1.6-1.57-1.6H521.6v-3.36c3.2-.64 5.57-3.04 6.22-6.24.92-4.32-1.9-8.56-6.23-9.44-4.34-.88-8.54 1.92-9.46 6.24-.85 4.32 1.9 8.56 6.24 9.44v3.36H496c-.9 0-1.57.72-1.57 1.6v6.4h-12.86c-.85 0-1.57.72-1.57 1.6v8c0 .88.72 1.6 1.57 1.6h12.86v3.2h-12.86c-.85 0-1.57.72-1.57 1.6v8c0 .88.72 1.6 1.57 1.6h12.86v6.4c0 .88.66 1.6 1.58 1.6h22.38v3.36c-3.22.64-5.58 3.04-6.24 6.24-.85 4.32 1.9 8.56 6.24 9.44 4.33.88 8.6-1.92 9.44-6.24.92-4.32-1.9-8.56-6.23-9.44v-3.36h22.43c.85 0 1.57-.72 1.57-1.6v-8h-3.2v6.4h-44.82v-4.8h12.8c.9 0 1.63-.72 1.63-1.6v-8c0-.88-.7-1.6-1.63-1.6h-12.8v-3.2h12.8c.92 0 1.64-.72 1.64-1.6v-8c0-.88-.7-1.6-1.63-1.6h-12.8v-4.8h44.82v8zM524.8 472c0 2.64-2.16 4.8-4.78 4.8-2.7 0-4.8-2.16-4.8-4.8 0-2.64 2.1-4.8 4.8-4.8 2.62 0 4.78 2.16 4.78 4.8zm-16-27.2v4.8h-25.6v-4.8zm0-14.4v4.8h-25.6v-4.8zm6.43-22.4c0-2.64 2.1-4.8 4.8-4.8 2.6 0 4.77 2.16 4.77 4.8 0 2.64-2.16 4.8-4.78 4.8-2.7 0-4.8-2.16-4.8-4.8z" stroke="#fff" stroke-opacity="0" stroke-width="2" fill="#fff"/><path d="M558.42 433.6h-32.04c-.88 0-1.58.72-1.58 1.6v11.2c0 .88.7 1.6 1.58 1.6h32.04c.88 0 1.58-.72 1.58-1.6v-11.2c0-.88-.7-1.6-1.58-1.6zm-1.62 11.2H528v-8h28.8z" stroke="#fff" stroke-opacity="0" stroke-width="2" fill="#fff"/><use xlink:href="#a" transform="matrix(1,0,0,1,430,509) translate(72.12962962962963 17.77777777777778)"/><defs><path fill="#3a414a" d="M41-130c7 48 86 23 86 84 0 56-69 57-112 41v-40c20 0 9 29 31 31 35 19 77-26 41-50-27-18-72-13-72-59 0-50 58-52 100-41v36c-19 1-8-25-28-25-21-7-50-1-46 23" id="b"/><path fill="#3a414a" d="M54-38c-1 25 24 26 44 20v12C71 10 25 9 25-35v-115H4c-2-14 14-10 21-15l18-38h11v38h38v15H54v112" id="c"/><path fill="#3a414a" d="M84-170c49 0 66 33 63 87H46c-8 60 38 80 95 63v10C128-2 108 4 88 4 34 4 14-29 14-84c-1-54 22-86 70-86zm33 73c12-57-57-82-69-24-1 7-2 15-2 24h71" id="d"/><path fill="#3a414a" d="M166-85c3 67-44 102-111 85l1 64 29 4v9H6v-9l21-4v-217c-7-3-22 1-19-12h46l1 9c11-8 26-14 45-14 47 2 64 36 66 85zM56-13c53 14 83-14 78-72 7-53-33-79-78-60v132" id="e"/><g id="a"><use transform="matrix(0.06172839506172839,0,0,0.06172839506172839,0,0)" xlink:href="#b"/><use transform="matrix(0.06172839506172839,0,0,0.06172839506172839,8.641975308641975,0)" xlink:href="#c"/><use transform="matrix(0.06172839506172839,0,0,0.06172839506172839,14.814814814814813,0)" xlink:href="#d"/><use transform="matrix(0.06172839506172839,0,0,0.06172839506172839,24.629629629629626,0)" xlink:href="#e"/></g></defs></g></svg>