<?xml version="1.0" encoding="utf-8"?>
<!-- Generator: Adobe Illustrator 26.1.0, SVG Export Plug-In . SVG Version: 6.00 Build 0)  -->
<svg version="1.1" id="Layer_1" xmlns="http://www.w3.org/2000/svg" xmlns:xlink="http://www.w3.org/1999/xlink" x="0px" y="0px"
	 viewBox="0 0 3000 2000" style="enable-background:new 0 0 3000 2000;" xml:space="preserve">
<style type="text/css">
	.st0{fill:#EDDCC3;}
	.st1{fill:#FFFFFF;}
	.st2{fill:#603A3E;}
	.st3{opacity:0.08;fill:#32323F;}
	.st4{fill:#EFAEA6;}
	.st5{fill:#211B2D;}
	.st6{fill:#3B3B4D;}
	.st7{opacity:0.22;fill:#1F1F39;}
	.st8{opacity:0.14;fill:#1F1F39;}
	.st9{fill:#23233D;}
	.st10{fill:#0B75AA;}
	.st11{opacity:0.17;fill:#1F1F39;}
	.st12{opacity:0.18;fill:#1F1F39;}
	.st13{fill:#F4AA08;}
	.st14{opacity:0.14;fill:#32323F;}
	.st15{fill:#DB9507;}
	.st16{fill:#F4AD00;}
	.st17{fill:none;stroke:#E55845;stroke-width:2.156;stroke-miterlimit:10;}
	.st18{fill:#F4BB47;}
	.st19{fill:#F2B225;}
	.st20{fill:#E55845;}
	.st21{fill:#775155;}
	.st22{fill:none;stroke:#FFFFFF;stroke-width:7.3319;stroke-linecap:round;stroke-linejoin:round;stroke-miterlimit:10;}
</style>
<rect x="-0.41" y="0.39" class="st0" width="3000" height="2000"/>
<path class="st1" d="M1833.1,496.16c-26.05,0-79.58,57.06-3.08,66.2c76.5,9.14,191.09,4.94,237.45,5.13
	c75.68,0.31,94.46-3.51,93.86-41.7c-0.35-22.1-10.01-36.41-49.91-42.21c-41.5-6.03-20.3-63.03-70.97-61.3
	c-43.15,1.47-47.55,76.09-87.04,57.8c-39.49-18.29-31.22,31.55-60.09,40.69C1861.58,530.82,1859.14,496.16,1833.1,496.16z"/>
<g>
	<path class="st2" d="M1189.97,1195.41c25.88,23.89,157.27,171.21,191.11,179.17s-201.07,0-368.29,0
		S1189.97,1195.41,1189.97,1195.41z"/>
	<path class="st3" d="M2550.62,1484.42c0,31.44-296.62,67.95-638.39,67.95s-618.83-25.49-618.83-56.93s277.06-56.93,618.83-56.93
		S2550.62,1452.97,2550.62,1484.42z"/>
	<path class="st1" d="M1249.36,1345.7c-27.8-4.36-31.77-16.88-36.92-55.71c-3.6,36.84-8.2,50.81-36.46,55.01
		c24.65,10.51,33.31,14.32,37.71,56.9C1219.76,1358.77,1225.18,1354.95,1249.36,1345.7z"/>
	<g>
		<path class="st4" d="M2371.59,1303.77c-11.94,16.76-47.1,54.96-47.1,54.96l-42.31-34.17l53.33-56.89l43.37,4.87L2371.59,1303.77z"
			/>
		<path class="st5" d="M2360.01,1319.64c3.6,4.62,5.14-1.11,12.15-6.51c16.06-12.37,72.36,31.91,81.91,37.26
			c4.93,2.76,30.02-14.24,8.26-31.46c-18.81-14.89-78.88-62.83-99.57-79c-4.33-3.38-10.4-3.46-14.76-0.13
			c-15.56,11.91-32.97,35.78-27.63,40.84C2326.82,1290.32,2345,1300.39,2360.01,1319.64z"/>
		<path class="st6" d="M1943.8,1014.8c43.75,114.02-19.17,378.02,16.32,456.23c29.23,64.43,417.77-105.69,390.6-131.2
			c-27.18-25.51-60.02-55.75-75.21-42c-15.19,13.75-205.42,87.63-183.35,46.53s16.29-205.53,14.7-226.19
			S1943.8,1014.8,1943.8,1014.8z"/>
		<path class="st7" d="M1943.8,1014.8c43.75,114.02-19.17,378.02,16.32,456.23c29.23,64.43,417.77-105.69,390.6-131.2
			c-27.18-25.51-60.02-55.75-75.21-42c-15.19,13.75-205.42,87.63-183.35,46.53s16.29-205.53,14.7-226.19
			S1943.8,1014.8,1943.8,1014.8z"/>
	</g>
	<g>
		<path class="st4" d="M2473.25,1414.98c-19.07,7.73-69.24,21.09-69.24,21.09l-17.36-51.54l75.53-19.37l33.98,27.39L2473.25,1414.98
			z"/>
		<path class="st5" d="M2466.21,1421.52c0.56,5.83,4.93,1.82,13.75,1.03c20.19-1.82,43.93,65.76,49.11,75.41
			c2.67,4.98,32.97,4.1,23.86-22.11c-7.88-22.66-32.83-95.35-41.61-120.1c-1.84-5.17-6.92-8.5-12.39-8.03
			c-19.52,1.7-47.02,12.49-45.24,19.62C2453.94,1378.96,2463.88,1397.22,2466.21,1421.52z"/>
	</g>
	<path class="st6" d="M2426.13,1362.17c-15.4-12.21-262.59,118.79-293.36,43.71c-2.26-5.52,20.89-91.6,23.51-221.71
		c1.92-94.84-7.38-127.43-54.59-162.6c-25.69-19.14-47.31-29.14-68.43-29.96c-16.38-0.64-31.46,3.02-44.57,8.1
		c-18.4,7.13-32.92,17.09-41.7,21.96c0,0,29.22,20.97,47.91,59.91c16.3,33.99,32.05,70.2,33.85,86.65
		c3.88,35.31-27.34,291.76,0.78,343.94c43.86,81.41,390.08-61.71,408.48-66.45C2456.44,1441.01,2441.54,1374.39,2426.13,1362.17z"/>
	<path class="st4" d="M1330.93,1213.58c-37.25-15.57-85.49-25.11-101.13-36.21c-25.44-18.05-79.14-20.64-90.26,11.9
		c-4.31,12.62,50.78-10.06,55.59,0.41c9.44,20.51-27.18,0.1-29.74,7.79c-3.28,9.85,27.08,27.49,47.59,21.33
		c13.14-3.94,43.12,20.43,58.8,31.35C1299.27,1269.28,1330.93,1213.58,1330.93,1213.58z"/>
	<path class="st4" d="M1612.8,1133.49c4.64-26.49-6.79-40.59-6.79-40.59c-15.36-13.75-58.01-23.93-78-25.79
		c-21.94-2.04-21.32,0.13-21.32,0.13l10.54,37.39l4.96,17.59c0,0,8.97,0.52,22.26,7.95c9.29,5.2,8.76-0.36,20.69,13.77
		C1574.07,1154.53,1592.52,1140.2,1612.8,1133.49z"/>
	<path class="st8" d="M1522.19,1122.23c0,0,10.97,1.68,24.26,9.1c21.01-25.17,3.67-48.18-6.47-43.15
		c-6.34,3.14-22.75,16.45-22.75,16.45L1522.19,1122.23z"/>
	<g>
		<g>
			<path class="st4" d="M1456.77,1071.6c6.4,15.95,4.52,53.55,14.85,48.33c10.32-5.22,13.49,33.71,24.67,28.55
				c27.1-12.51,49.31-44.77,46.31-59.38c-3-14.61-22.88-49.63-22.88-49.63L1456.77,1071.6z"/>
			<path class="st9" d="M1491.6,1072.51c-7.91,5.21-7.18,7.32-14.49,7.43c-7.32,0.11-1.2-13.13-13.1-9.43
				c-11.9,3.7-24.29,9.08-31.74-2.92c-10.78-17.36,6.76-22.62,17.78-25.51c7.09-1.86,1.7-16.59,14.81-22.42
				c10.28-4.58,12.05,1.88,21.4-1.79c5.65-2.22,11.75-16.43,23.44-14.15c21.7,4.22,16.07,25.61,35.54,31.96
				c22.71,7.41,3.61,57.14-2.4,55.31c-7.02-2.14-7.82-21.23-14.46-22.47c-10.02-1.87-7.82,4.78-11.04,13.57
				c-3.43,9.39-15.24,15.78-13.47,0.09S1498.76,1067.8,1491.6,1072.51z"/>
		</g>
	</g>
	<path class="st1" d="M1569.96,1072.56c-7.84,21.53,33.38,39.55,33.53,57.53c0.09,10.91-8.78,3.01-14.73,6.31
		c-15.65,8.68-18.71,5.89-12.84,12.29c100.63,109.59,410.55,48.76,410.55,48.76s60.77-83.39,22.48-128.59
		c-47.24-55.77-44.01-71.64-60.08-70.05c-61.57,6.1-318.81,32.24-318.81,32.24S1602.95,1041.88,1569.96,1072.56z"/>
	<path class="st10" d="M1573.12,1145.08c-30.8,74.04-70.5,115.94-123.01,107.8c-41.05-6.36-170.24-77.94-185.25-70.78
		c-13.82,6.59-35.72,59.96-14.18,67.02c21.54,7.07,158.76,71.43,207.62,77.57c42.58,5.35,163.42-53.12,198.49-71.58
		c23.17-12.2,144.72-12.19,191.17-12.62c30.14-0.28,69.79-22.98,115.69,28.47c22.17,24.85,42.92-67.79,31.06-82.22
		c-20.34-24.74-70.48-29.54-150.38-26.43c-76.06,2.96-56.59,37.72-190.13,12.58C1607.24,1166.05,1573.12,1145.08,1573.12,1145.08z"
		/>
	<path class="st11" d="M1573.12,1145.08c-30.8,74.04-70.5,115.94-123.01,107.8c-41.05-6.36-170.24-77.94-185.25-70.78
		c-13.82,6.59-35.72,59.96-14.18,67.02c21.54,7.07,158.76,71.43,207.62,77.57c42.58,5.35,163.42-53.12,198.49-71.58
		c23.17-12.2,144.72-12.19,191.17-12.62c30.14-0.28,69.79-22.98,115.69,28.47c22.17,24.85,42.92-67.79,31.06-82.22
		c-20.34-24.74-70.48-29.54-150.38-26.43c-76.06,2.96-56.59,37.72-190.13,12.58C1607.24,1166.05,1573.12,1145.08,1573.12,1145.08z"
		/>
	<path class="st10" d="M2094.31,1092.66c-1.88-16.9-22.15-80.31-48-98.77c-7.73-5.52-30.46-5.54-47.08-2.77
		c-55.16,9.19-63.68-3.34-105.3,1.88c-48.29,9.4-136.61-11.07-202.73,4.32c-15.62,4.23-31.52,10.19-45.85,17.08
		c-38.36,16.37-78.48,57.61-74.89,57.46c85.8,27.95,193.11,87.87,291.02,47.31c49.19-16.32,77.74,14.69,122.94,17.25
		C2027.82,1140.69,2098.98,1141.1,2094.31,1092.66z"/>
	<path class="st11" d="M1861.49,1119.16c-43.87-10.86-101.77-41.07-161.32-65.28l-15.59,59.48c1.07,0.34,2.14,0.69,3.21,1.02
		c14.05,4.4,28.58,8.44,43.22,11.64c0.03,0,0.1,0.01,0.13,0.03c17.1,3.73,34.33,6.32,51.04,7.1c2.51,0.13,5.01,0.19,7.5,0.21l0.08,0
		c1.03,0.04,2.05,0.03,3.07,0.02c3.93-0.01,8.06-0.27,12.34-0.76c1.41-0.16,2.86-0.35,4.32-0.55
		C1825.64,1129.8,1843.71,1124.79,1861.49,1119.16z"/>
	<g>
		<path class="st12" d="M1597.97,1146.64c2.37,0.52-12.3,42.71-2.79,71.57c2.62,7.97,6.45,15.59,11.97,22.03
			c16.18,18.86,51.33,20.62,75.78,40.37c-3.01-13.91-11.46-7.16-14.5-29.2c-20.82-11.36-33.38-16.21-41.34-26.55
			c-5.9-7.66-10.24-16.08-13.43-24.67c-6.03-16.16-7.99-32.94-8.67-46.44c-0.34-6.88,4.1-12.21-0.05-16.88
			C1599.47,1130.67,1594.93,1145.96,1597.97,1146.64z"/>
		<path class="st13" d="M1594.82,1121.7c2.77-2.34,8.77-4.56,13.84,1.17c3.82,4.31,2.46,6.27,2.77,12.63
			c0.94,19.1,4.73,45.31,20.41,65.68s80.24,39.21,100.47,72.18c20.24,32.97,3.73,64.73,35.23,110.13
			c31.5,45.4,88.75,71.8,97.89,85.33s13.35,23.01,8.47,27.13c-4.88,4.12-18.04,5.64-29.13,0.6s-84.93-72.26-100.58-93.69
			c-25.55-34.99-23.14-88.46-40.51-110.13c-17.38-21.67-69.12-52.72-90.26-77.38c-23.58-27.5-13.55-77.9-16.35-78.52
			c-2.8-0.62-5.45-1.14-7.82-5.3C1587.62,1128.7,1592.05,1124.05,1594.82,1121.7z"/>
	</g>
	<path class="st4" d="M1540.16,1418.95c-40.32,2.12-54.16,32.87-72.09,39.67c-17.93,6.8-95.66,8.39-77.23,53.44
		c3.65,8.93,39.49,7.3,58.06,1.94c13.99-4.04,9.9,20.99,17.83,19.29c12.25-2.62,11.24-15.18,17.03-23.73
		c7.7-11.36,46.59-33.83,64.88-39.37C1580.7,1460.49,1540.16,1418.95,1540.16,1418.95z"/>
	<path class="st10" d="M1619.16,1040.61c6.5,182.41,28.28,226.54,11.29,258.56c-16.99,32.02-146.42,133.12-147.71,142.46
		c-3.23,23.26,33.25,56.17,41.4,51.28c8.15-4.89,170.07-118.1,182.29-158.37c15-49.44,18.4-225.15,18.4-225.15
		s12.18-69.11-34.64-84.17C1643.36,1010.15,1619.16,1040.61,1619.16,1040.61z"/>
	<path class="st14" d="M1232.44,1445.69c0,17.33-48.36,37.45-104.08,37.45s-100.89-14.05-100.89-31.38
		c0-17.33,45.17-31.38,100.89-31.38S1232.44,1428.36,1232.44,1445.69z"/>
	<g>
		<g>
			<path class="st15" d="M1222.44,1445.91c-11.78,19.54-48.23,27.2-94.51,26.93c-2.85-0.02-5.68-0.06-8.47-0.14
				c-15.97-0.42-31.08-1.8-44.23-4.5c-0.49-0.1-0.98-0.2-1.47-0.3c-7.66-1.64-14.61-3.74-20.64-6.37
				c-9.64-4.2-16.92-9.76-20.89-16.94c-2.42-4.39-2.38-14.1-2.34-19.53c0-0.78,0.08-1.56,0.24-2.32c0.04-0.21,0.08-0.42,0.14-0.63
				c0.3-1.19,0.78-2.34,1.41-3.45c0.46-0.81,1-1.6,1.64-2.35c8.31-10.12,31.08-16.87,60.49-19.61c0.11-0.01,0.22-0.02,0.33-0.03
				c2.94-0.27,5.93-0.5,8.99-0.69c2.34-0.14,4.71-0.27,7.1-0.36c1.6-0.06,3.21-0.12,4.84-0.16c4.06-0.11,8.2-0.15,12.4-0.13
				c0.84,0,1.68,0.01,2.51,0.02c1.67,0.02,3.33,0.05,4.98,0.09c0.82,0.01,1.65,0.04,2.46,0.07c1.64,0.06,3.26,0.12,4.88,0.19
				c45.13,2.07,80.01,12.34,82.27,28.74c0.08,0.59,0.12,1.18,0.12,1.78C1224.66,1430.23,1225.25,1441.24,1222.44,1445.91z"/>
			
				<ellipse transform="matrix(5.866093e-03 -1 1 5.866093e-03 -304.9321 2544.531)" class="st16" cx="1127.28" cy="1425.63" rx="30.33" ry="97.4"/>
			
				<ellipse transform="matrix(5.866115e-03 -1 1 5.866115e-03 -304.9322 2544.531)" class="st17" cx="1127.28" cy="1425.63" rx="26.03" ry="83.59"/>
			<path class="st18" d="M1075.22,1468.2c-8.23-1.68-15.69-3.88-22.1-6.67c0.19-3.14,0.6-8.11,0.73-16.36
				c6.3,2.28,13.65,4.29,21.82,5.92C1075.89,1455.63,1075.6,1462.69,1075.22,1468.2z"/>
			<path class="st19" d="M1119.45,1472.7c-15.97-0.42-31.08-1.8-44.23-4.5c-0.49-0.1-0.98-0.2-1.47-0.3
				c-0.08-3.68,0.59-10.16,0.73-17.1c13.1,2.47,30.32,4.54,46.57,5.04C1121.26,1460,1120.16,1468.55,1119.45,1472.7z"/>
		</g>
		<g>
			<g>
				<path class="st20" d="M1115.79,1406.73c-3.18,0.3-6.72,0.95-10.6,1.95c-3.89,1-7.76,2.39-11.66,4.16
					c-2.07,0.94-4.09,2-6.05,3.19c-1.73,1.05-3.43,2.19-5.08,3.43c-1.9,1.43-3.51,2.79-4.82,4.1c-1.76,1.74-3,3.38-3.73,4.92
					c-1.28,2.69-0.94,4.92,1.03,6.67c1.97,1.75,5.34,2.91,10.1,3.5c4.99,0.61,9.98,0.52,14.98-0.29c4.99-0.81,9.86-2.14,14.6-3.99
					c3.45-1.35,7.12-2.98,11.02-4.89c1.46-0.71,2.94-1.47,4.45-2.26c3.72-1.96,6.9-3.55,9.53-4.77c0.3-0.14,0.59-0.27,0.88-0.4
					c2.79-1.27,5.66-2.22,8.61-2.88c2.95-0.65,5.86-0.8,8.74-0.45c1.15,0.14,2.12,0.36,2.94,0.65c0.01,0,0.03,0.01,0.04,0.02
					c1.71,0.62,2.66,1.58,2.83,2.87c0.13,0.93-0.19,1.94-0.93,3.03c-0.8,1.15-2.08,2.39-3.85,3.72c-2.07,1.55-4.22,2.81-6.44,3.76
					c-0.48,0.21-0.96,0.4-1.44,0.58c-2.47,0.91-4.92,1.58-7.36,2l-0.01,0c-0.27,0.05-0.52,0.09-0.79,0.13
					c-2.7,0.41-5.79,0.72-9.28,0.93c-2.91,0.17-5.39,0.49-7.42,0.99c-2.03,0.49-3.66,1.2-4.89,2.12c-1.52,1.14-2.01,2.17-1.47,3.09
					c0.53,0.92,1.85,1.51,3.98,1.77c3.18,0.39,7.05,0.33,11.63-0.18c0.69-0.08,1.39-0.17,2.12-0.26c5.5-0.75,10.73-1.96,15.66-3.64
					c0.66-0.23,1.31-0.46,1.94-0.7c3.81-1.42,7.42-3.14,10.83-5.16c2.11-1.24,4.15-2.6,6.11-4.08c1.57-1.17,2.94-2.32,4.1-3.42
					c1.55-1.45,2.74-2.84,3.58-4.16c0.02-0.03,0.04-0.06,0.06-0.1c0.42-0.67,0.75-1.32,0.99-1.96c0.69-1.81,0.68-3.42-0.01-4.83
					c-0.01-0.02-0.01-0.03-0.02-0.04c-0.4-0.81-1.04-1.55-1.9-2.22c-1.61-1.26-3.88-2.24-6.8-2.94c-0.03,0-0.05-0.01-0.08-0.02
					c-1.36-0.33-2.87-0.59-4.53-0.79c-2.09-0.26-4.14-0.41-6.16-0.45c-0.42-0.01-0.84-0.01-1.25-0.01c-1.76,0-3.49,0.09-5.19,0.26
					c-4.04,0.41-7.97,1.18-11.78,2.32c-3.81,1.14-7.71,2.61-11.72,4.41c-2.71,1.22-5.51,2.55-8.39,4c-1.38,0.69-2.78,1.4-4.19,2.14
					c-3.57,1.82-6.18,3.12-7.82,3.9c-0.69,0.33-1.4,0.65-2.16,0.96c-1.04,0.44-2.14,0.86-3.3,1.28c-2,0.71-3.95,1.23-5.83,1.54
					c-1.89,0.31-3.69,0.37-5.42,0.15c-2.8-0.34-4.26-1.33-4.41-2.95c-0.06-0.7,0.17-1.45,0.69-2.26c0.68-1.08,1.89-2.27,3.61-3.56
					c2.24-1.68,4.48-2.98,6.74-3.92c1.02-0.42,2.04-0.77,3.06-1.04c3.29-0.87,7.09-1.5,11.41-1.88c3.09-0.33,5.48-0.69,7.18-1.09
					c1.69-0.39,3.21-1.09,4.54-2.09c1.46-1.1,1.85-2.12,1.16-3.06c-0.69-0.94-2.07-1.54-4.16-1.8
					C1121.7,1406.43,1118.96,1406.44,1115.79,1406.73z"/>
			</g>
			<path class="st20" d="M1185.01,1429.72l-6.15,4.61c-1.07,0.8-3.25,1.29-4.86,1.1l-107.22-13.18c-1.61-0.2-2.05-1.01-0.98-1.81
				l6.15-4.61c1.07-0.8,3.25-1.29,4.86-1.1l107.22,13.18C1185.64,1428.1,1186.08,1428.91,1185.01,1429.72z"/>
		</g>
	</g>
	<path class="st21" d="M1189.97,1195.41c34.98,41.34-175.19,330.47-288.66,356.35c-113.47,25.88-540.83,32.52-535.52,3.98
		c5.69-30.57,196.74-159.34,271.41-173.86c95.56-18.58,224.21-105.04,326.49-142.01
		C1073.84,1200.06,1177.32,1180.46,1189.97,1195.41z"/>
	<path class="st1" d="M1088.11,1485.81c-17.24-2.7-19.7-10.47-22.9-34.55c-2.23,22.85-5.08,31.51-22.61,34.12
		c15.29,6.52,20.66,8.88,23.39,35.29C1069.75,1493.91,1073.11,1491.55,1088.11,1485.81z"/>
	<g>
		<g>
			<line class="st22" x1="1592.62" y1="951.21" x2="1639.24" y2="898.85"/>
			<line class="st22" x1="1581.13" y1="964.12" x2="1584.1" y2="960.77"/>
		</g>
		<g>
			<line class="st22" x1="1436.14" y1="930.79" x2="1411.29" y2="865.24"/>
			<line class="st22" x1="1442.27" y1="946.95" x2="1440.68" y2="942.77"/>
		</g>
		<g>
			<line class="st22" x1="1489.64" y1="925.67" x2="1493.13" y2="855.66"/>
			<line class="st22" x1="1488.78" y1="942.93" x2="1489" y2="938.46"/>
		</g>
		<g>
			<line class="st22" x1="1543.21" y1="935.19" x2="1567.63" y2="869.48"/>
			<line class="st22" x1="1537.19" y1="951.39" x2="1538.75" y2="947.2"/>
		</g>
	</g>
</g>
<path class="st1" d="M914.81,772.11c-44.99,3-87.99-0.93-132.13-10.92c-6.77-1.53-13.95-3.58-18.54-9.26
	c-6.95-8.61-4.86-23.1,2.64-31.14c7.5-8.04,18.79-10.44,29.22-9.33c6.67,0.72,13.52,2.69,19.96,0.64
	c8.05-2.56,13.38-10.64,18.77-17.69c5.4-7.04,12.7-14.01,21.02-12.9c6.23,0.83,11.14,5.98,16.69,9.21
	c5.55,3.23,13.6,3.57,16.78-2.38c6.8-12.73-2.75-47.62,32.3-47.62c50.59,0,42.33,35.12,48.42,42.57c9.23,11.3,25.67,8.81,39.04,4.99
	c13.37-3.82,29.3-7.45,39.61,2.65c8.95,8.76,9.87,24.82,19.38,32.83c10.13,8.52,24.51,3.97,36.78,0.15
	c12.27-3.83,28.09-5.23,35.21,6.4c5.97,9.75,1.52,23.91-6.97,31.05c-8.49,7.15-19.69,8.89-30.36,9.6
	C1033.31,775.58,970.39,768.41,914.81,772.11z"/>
</svg>
