<?xml version="1.0" encoding="UTF-8"?> <!-- Generator: Adobe Illustrator 25.2.0, SVG Export Plug-In . SVG Version: 6.00 Build 0) --> <svg xmlns="http://www.w3.org/2000/svg" xmlns:xlink="http://www.w3.org/1999/xlink" version="1.1" id="Layer_1" x="0px" y="0px" viewBox="0 0 540 540" style="enable-background:new 0 0 540 540;" xml:space="preserve"> <style type="text/css"> .st0{fill:#A1ACBE;} .st1{fill:#FCFCFA;} .st2{fill:#D4D1D1;} .st3{fill:#EDEBE8;} .st4{fill:#306B9B;} .st5{fill:#183059;} .st6{fill:#5989AE;} .st7{fill:#82A6C2;} .st8{fill:#EBF0F5;} .st9{fill:#FFFFFF;} .st10{fill:#43597A;} .st11{fill:#F6F6F6;} .st12{fill:#B4B3B3;} .st13{clip-path:url(#SVGID_2_);} .st14{fill:#FCFCFB;} </style> <g id="BG"> <rect x="-1" y="-0.8" class="st0" width="541.9" height="541.9"></rect> </g> <g id="Illos"> <path class="st1" d="M186.9,166.8h162.4c1.3,0,2.4,2.3,2.4,5.2v194.8c0,2.9-1.1,5.2-2.4,5.2H186.9c-1.3,0-2.4-2.3-2.4-5.2V171.9 C184.6,169.1,185.6,166.8,186.9,166.8"></path> <path class="st2" d="M205.6,194.5c4.9,0,8.9-4,8.9-8.9s-4-8.9-8.9-8.9s-8.9,4-8.9,8.9S200.6,194.5,205.6,194.5L205.6,194.5"></path> <path class="st2" d="M221.6,178h82.2c1.5,0.1,2.6,1.4,2.5,2.8c-0.1,1.4-1.2,2.4-2.5,2.5h-82.2c-1.5-0.1-2.6-1.4-2.5-2.8 C219.2,179.2,220.3,178.1,221.6,178"></path> <path class="st3" d="M221.6,189.2H278c1.2-0.2,2.4,0.6,2.6,1.8c0.2,1.2-0.6,2.4-1.8,2.6c-0.3,0.1-0.6,0.1-0.8,0h-56.4 c-1.2,0.2-2.4-0.6-2.6-1.8c-0.2-1.2,0.6-2.4,1.8-2.6C221.1,189.1,221.4,189.1,221.6,189.2"></path> <path class="st2" d="M337.2,357.9c0.5,0,0.9,0.4,0.9,0.9s-0.4,0.9-0.9,0.9c-0.5,0-0.9-0.4-0.9-0.9c0,0,0,0,0,0 C336.3,358.3,336.7,357.9,337.2,357.9L337.2,357.9 M334.5,357.9c0.5,0,0.9,0.4,0.9,0.9s-0.4,0.9-0.9,0.9c-0.5,0-0.9-0.4-0.9-0.9 c0,0,0,0,0,0C333.6,358.3,334,357.9,334.5,357.9L334.5,357.9 M339.9,357.9c0.5,0,0.9,0.4,0.9,0.9c0,0.5-0.4,0.9-0.9,0.9 c-0.5,0-0.9-0.4-0.9-0.9c0,0,0,0,0,0C339,358.3,339.4,357.9,339.9,357.9C339.9,357.9,339.9,357.9,339.9,357.9"></path> <path class="st2" d="M312.2,355.7v0.9h-0.9v4.9h5.4v-4.9h-0.9v-0.9h1.3c0.2,0,0.4,0.2,0.5,0.4c0,0,0,0,0,0v5.8 c0,0.2-0.2,0.4-0.4,0.5c0,0,0,0,0,0h-6.2c-0.2,0-0.4-0.2-0.5-0.4c0,0,0,0,0,0v-5.8c0-0.2,0.2-0.4,0.4-0.5c0,0,0,0,0,0L312.2,355.7z M314.4,357.9v0.9h0.9v0.9h-0.9v0.9h-0.9v-0.9h-0.9v-0.9h0.9v-0.9H314.4z M315.3,357h-2.7v-1.8h2.7V357z"></path> <path class="st2" d="M247.2,356.3c-0.8-0.8-2-0.8-2.8,0c0,0,0,0,0,0l-0.1,0.2l-0.1-0.2c-0.8-0.8-2.1-0.8-2.9,0s-0.8,2.1,0,2.9 l3,2.8l3-2.8C248,358.4,248.1,357.1,247.2,356.3C247.3,356.3,247.3,356.3,247.2,356.3"></path> <path class="st2" d="M288.6,359c0.2-0.2,0.4-0.2,0.6,0c0,0,0,0,0,0c0.2,0.2,0.2,0.4,0,0.6c0,0,0,0,0,0l-0.6,0.6h4.7v-0.9h0.9v1.3 c0,0.2-0.2,0.4-0.4,0.5c0,0,0,0,0,0h-5.2l0.6,0.6c0.2,0.2,0.2,0.4,0,0.6c0,0,0,0,0,0c-0.1,0.1-0.2,0.1-0.3,0.1 c-0.1,0-0.2,0-0.3-0.1l-1.3-1.4c-0.2-0.2-0.2-0.4,0-0.6c0,0,0,0,0,0L288.6,359z M292.2,355.4c0.2-0.2,0.4-0.2,0.6,0c0,0,0,0,0,0 l1.3,1.3c0.2,0.2,0.2,0.4,0,0.6c0,0,0,0,0,0l-1.3,1.3c-0.2,0.2-0.4,0.2-0.6,0c0,0,0,0,0,0c-0.2-0.2-0.2-0.4,0-0.6c0,0,0,0,0,0 l0.6-0.6H288v0.9h-0.9v-1.3c0-0.2,0.2-0.4,0.4-0.4c0,0,0,0,0.1,0h5.2l-0.6-0.6C292,355.9,292,355.6,292.2,355.4 C292.2,355.4,292.2,355.4,292.2,355.4"></path> <path class="st2" d="M267.5,357.5c2.3,0,3.6,1.7,3.6,4.5c-0.7-1.1-1.2-1.8-3.6-1.8v1.8l-3.6-3.1l3.6-3.1V357.5z"></path> <rect x="184.6" y="207.3" class="st4" width="167.4" height="123.7"></rect> <rect x="184.6" y="298.7" class="st5" width="167.4" height="32.4"></rect> <path class="st6" d="M226.4,298.8c1-0.5,1.6-1.6,1.5-2.8l2.3-10.7c0.4-1.9,1.4-3.6,2.9-4.8l4.9-4c0.9,2.7,2.6,5.1,4.9,6.9 c1,1,1.8,2.1,2.4,3.4l-9.8,6c-0.5,0.3-0.9,0.8-1.1,1.3l-3.9,9.6c-0.5,1.2-1.7,2-3,2h-2.3v-5.3C225.3,299.8,225.7,299.1,226.4,298.8 z"></path> <path class="st6" d="M294.3,286.6c2-0.9,3.7-2.3,5-4.1l8.9,19.1h1c2,0,3.6,1.6,3.6,3.6v0.6H306c-1,0-2-0.4-2.6-1.2l-14-15.9 L294.3,286.6z"></path> <path class="st7" d="M220,223c0.1-0.9,0.9-1.5,1.8-1.4s1.5,0.9,1.4,1.8c-1.6,11.6,1.1,21.5,7.9,29.4c3,3.5,6.7,6.3,10.9,8.3 c0.2,0.1,0.4,0.2,0.6,0.4c2.4-2,5.4-3.1,8.5-3.2c0.6,0,1.3,0,1.9,0.1l33,3.8c3.1,0.4,6.1-1,7.8-3.6c3.9-5.8,9.9-15.6,9.9-15.6 l1.5,5.4l6.1,2.4c0.7,0.3,1.2,1,1.2,1.8v1l3.6,2.4l-0.8,3.7c-0.4,1.8-2,3-3.8,3h-2.3l-8.9,18.2c-1.3,2.5-3.4,4.5-6,5.7l-10.3,4.6 c-1,0.5-1.8,1.3-2.1,2.4l-2.9,8.3c1.9,0,3.4,1.5,3.4,3.4v0v0.6h-4.8c-1.9,0-3.5-1.6-3.5-3.5v-15c0-1.2-1-2.3-2.3-2.3c0,0,0,0,0,0 H263c-1.5,0-2.9,0.8-3.5,2.2l-3.9,7.9c-0.5,0.9-0.3,2,0.4,2.8l3.3,3.5h1.4c1.4,0,2.6,1.2,2.6,2.6v1.8h-6.3c-0.9,0-1.9-0.4-2.5-1.1 l-6.2-6.5c-1-1-1.5-2.4-1.5-3.8c0.1-2.7-0.3-7.5-3.8-11c-3.7-2.7-5.7-7.1-5.6-11.6c0.1-2.9,1.1-5.6,2.8-7.9 c-4.4-2.2-8.3-5.2-11.5-8.9C223.6,249.1,217.8,238.7,220,223z"></path> <path class="st8" d="M304,273.2l2.5-5.1l-13.1-9c-1.3,1.7-3.2,2.8-5.3,3.1L304,273.2z"></path> <rect x="372.5" y="105.4" class="st4" width="142.7" height="263"></rect> <rect x="372.5" y="298.6" class="st5" width="142.6" height="81.8"></rect> <path class="st6" d="M397.6,301.9c1.2-0.6,1.9-1.9,1.8-3.3l2.8-12.6c0.5-2.2,1.7-4.2,3.5-5.7l5.9-4.8c1.1,3.2,3.1,6.1,5.8,8.1 c1.2,1.2,2.1,2.6,2.8,4.1l-11.6,7.1c-0.6,0.4-1.1,0.9-1.4,1.6l-4.6,11.4c-0.6,1.5-2,2.4-3.6,2.4h-2.7V304 C396.3,303.1,396.8,302.3,397.6,301.9z"></path> <path class="st6" d="M478.1,287.4c2.4-1.1,4.5-2.7,6-4.9l10.5,22.7h1.2c2.3,0,4.2,1.9,4.2,4.3v0.8h-8c-1.2,0-2.3-0.5-3.1-1.4 L472.4,290L478.1,287.4z"></path> <path class="st7" d="M390,212c0.1-1,1.1-1.8,2.2-1.6c1,0.1,1.8,1.1,1.6,2.2c-1.9,13.8,1.2,25.5,9.4,34.8c3.6,4.2,8,7.6,13,10 c0.2,0.1,0.5,0.3,0.7,0.5c3.4-2.8,7.9-4.2,12.3-3.6l39.1,4.5c3.6,0.4,7.2-1.2,9.2-4.3c4.6-6.9,11.7-18.5,11.7-18.5l1.8,6.5l7.2,2.8 c0.9,0.3,1.4,1.2,1.4,2.1v1.2l4.3,2.9l-1,4.4c-0.5,2.1-2.3,3.5-4.4,3.5h-2.7l-10.5,21.6c-1.5,3-4.1,5.4-7.1,6.7l-12.2,5.4 c-1.2,0.5-2.1,1.6-2.5,2.8l-3.4,9.8c2.2,0,4,1.8,4,4v0.8h-5.7c-2.3,0-4.2-1.9-4.2-4.2l0,0v-17.8c0-1.5-1.2-2.7-2.7-2.7H441 c-1.8,0-3.4,1-4.2,2.6l-4.6,9.3c-0.5,1.1-0.4,2.4,0.5,3.3l4,4.2h1.6c1.7,0,3.1,1.4,3.1,3.1c0,0,0,0,0,0v2.1H434 c-1.1,0-2.2-0.5-3-1.3l-7.4-7.7c-1.2-1.2-1.8-2.8-1.7-4.5c0.1-3.2-0.3-8.9-4.5-13.1c-7.3-5.4-8.8-15.8-3.4-23.1 c0,0,0.1-0.1,0.1-0.1c-5.2-2.6-9.9-6.2-13.7-10.5C394.2,243,387.4,230.7,390,212z"></path> <path class="st8" d="M489.7,271.6l2.9-6l-15.5-10.7c-1.5,2-3.8,3.3-6.3,3.7L489.7,271.6z"></path> <path class="st9" d="M510.7,363.1H376.9c-2.4,0-4.4-2-4.4-4.4c0,0,0,0,0,0v30.6c0,4.5,3.6,8.1,8.1,8.1H507c4.5,0,8.1-3.6,8.1-8.1 v-30.6C515.1,361.1,513.1,363.1,510.7,363.1z"></path> <path class="st9" d="M507,92H380.5c-4.5,0-8.1,3.6-8.1,8.1v16c0-2.4,2-4.4,4.4-4.4l0,0h133.8c2.4,0,4.4,2,4.4,4.4c0,0,0,0,0,0v-16 C515.1,95.6,511.5,92,507,92C507,92,507,92,507,92z"></path> <circle class="st10" cx="443.8" cy="380.2" r="10"></circle> <circle class="st10" cx="465.4" cy="101.9" r="2.9"></circle> <path class="st10" d="M422.1,99h34c1.6,0,2.9,1.3,2.9,2.8l0,0c0,1.6-1.3,2.8-2.9,2.8h-34c-1.6,0-2.9-1.3-2.9-2.8l0,0 C419.3,100.3,420.6,99,422.1,99z"></path> <circle class="st10" cx="443.8" cy="380.2" r="10"></circle> <circle class="st10" cx="465.4" cy="101.9" r="2.9"></circle> <path class="st10" d="M422.1,99h34c1.6,0,2.9,1.3,2.9,2.8l0,0c0,1.6-1.3,2.8-2.9,2.8h-34c-1.6,0-2.9-1.3-2.9-2.8l0,0 C419.3,100.3,420.6,99,422.1,99z"></path> <path class="st11" d="M377.8,126.4h28.8c0.5,0,1,0.4,1,1v0c0,0.5-0.4,1-1,1h-28.8c-0.5,0-1-0.4-1-1v0 C376.9,126.8,377.3,126.4,377.8,126.4z"></path> <path class="st11" d="M399.7,139.9h43.4c0.8,0,1.5,0.7,1.5,1.5l0,0c0,0.8-0.7,1.5-1.5,1.5h-43.4c-0.8,0-1.5-0.7-1.5-1.5l0,0 C398.2,140.6,398.9,139.9,399.7,139.9z"></path> <path class="st11" d="M384.4,334.6h100.8c3.2,0,5.8,2.6,5.8,5.8v0c0,3.2-2.6,5.8-5.8,5.8H384.4c-3.2,0-5.8-2.6-5.8-5.8v0 C378.6,337.2,381.2,334.6,384.4,334.6z"></path> <path class="st11" d="M412.3,126.4h28.8c0.5,0,1,0.4,1,1v0c0,0.5-0.4,1-1,1h-28.8c-0.5,0-1-0.4-1-1v0 C411.3,126.8,411.8,126.4,412.3,126.4z"></path> <path class="st11" d="M446.3,126.4h28.8c0.5,0,1,0.4,1,1v0c0,0.5-0.4,1-1,1h-28.8c-0.5,0-1-0.4-1-1v0 C445.3,126.8,445.7,126.4,446.3,126.4z"></path> <path class="st11" d="M480.8,126.4h28.8c0.5,0,1,0.4,1,1v0c0,0.5-0.4,1-1,1h-28.8c-0.5,0-1-0.4-1-1v0 C479.8,126.8,480.2,126.4,480.8,126.4z"></path> <path class="st12" d="M386.1,142.8c3,0,5.7,1.9,6.7,4.8c3-3.7,2.3-9.1-1.4-12.1c-3.7-3-9.1-2.3-12.1,1.4c-2.5,3.1-2.5,7.6,0,10.7 C380.4,144.7,383.1,142.8,386.1,142.8z M386.1,135.3c1.8,0,3.3,1.5,3.3,3.3s-1.5,3.3-3.3,3.3c-1.8,0-3.3-1.5-3.3-3.3v0 C382.8,136.8,384.3,135.3,386.1,135.3z"></path> <path class="st9" d="M386.1,142c1.8,0,3.3-1.5,3.3-3.3s-1.5-3.3-3.3-3.3c-1.8,0-3.3,1.5-3.3,3.3v0C382.8,140.5,384.3,142,386.1,142 z"></path> <path class="st9" d="M386.1,150.8c2.6,0,5.1-1.2,6.7-3.3c-1.3-3.7-5.4-5.7-9.2-4.3c-2,0.7-3.6,2.3-4.3,4.3 C381,149.6,383.5,150.8,386.1,150.8z"></path> <path class="st11" d="M508.3,334.5c-0.2-0.2-0.5-0.3-0.7-0.2l-9.9,3.5c-0.4,0.1-0.6,0.5-0.4,0.9c0.1,0.2,0.2,0.3,0.4,0.4l3.2,1.6 l4.1-3l-3,4.2l1.6,3.2c0.1,0.2,0.4,0.4,0.6,0.4h0c0.3,0,0.5-0.2,0.6-0.5l3.5-9.9C508.6,335,508.5,334.7,508.3,334.5z"></path> <path class="st4" d="M34.1,156.5h114c5.4,0,9.8,4.4,9.8,9.8v177.4c0,5.4-4.4,9.8-9.8,9.8h-114c-5.4,0-9.7-4.4-9.7-9.8V166.3 C24.3,160.9,28.7,156.5,34.1,156.5z"></path> <g> <defs> <rect id="SVGID_1_" x="21" y="298.6" width="142" height="62.4"></rect> </defs> <clipPath id="SVGID_2_"> <use xlink:href="#SVGID_1_" style="overflow:visible;"></use> </clipPath> <g class="st13"> <path class="st5" d="M33.9,156.9h114c5.4,0,9.8,4.4,9.8,9.8V344c0,5.4-4.4,9.8-9.8,9.8h-114c-5.4,0-9.8-4.4-9.8-9.8V166.6 C24.1,161.3,28.5,156.9,33.9,156.9z"></path> </g> </g> <path class="st6" d="M46.9,301c1.1-0.6,1.8-1.8,1.7-3l2.5-11.7c0.4-2.1,1.6-3.9,3.2-5.2l5.4-4.4c1,3,2.9,5.6,5.4,7.5 c1.1,1.1,2,2.4,2.6,3.8L57,294.5c-0.6,0.3-1,0.9-1.2,1.5l-4.2,10.5c-0.5,1.3-1.8,2.2-3.3,2.2h-2.5v-5.8 C45.7,302.1,46.2,301.3,46.9,301z"></path> <path class="st6" d="M121.3,287.6c2.2-1,4.1-2.5,5.5-4.5l9.7,20.9h1.1c2.2,0,4,1.8,3.9,4v0.7h-7.4c-1.1,0-2.2-0.5-2.9-1.3L116,290 L121.3,287.6z"></path> <path class="st7" d="M39.9,217.9c0.1-1,0.9-1.7,1.9-1.6c1,0.1,1.7,0.9,1.6,1.9c0,0.1,0,0.2,0,0.2c-1.8,12.8,1.2,23.6,8.7,32.2 c3.3,3.8,7.4,7,12,9.2c0.2,0.1,0.4,0.2,0.6,0.4c2.6-2.2,5.9-3.4,9.3-3.5c0.7,0,1.4,0,2.1,0.1l36.1,4.2c3.4,0.4,6.6-1.1,8.5-4 c4.2-6.3,10.8-17.1,10.8-17.1l1.7,6l6.7,2.6c0.8,0.3,1.3,1.1,1.3,1.9v1.1l3.9,2.6l-0.9,4c-0.4,1.9-2.1,3.3-4.1,3.3h-2.5l-9.7,19.9 c-1.4,2.8-3.7,5-6.6,6.2l-11.3,5c-1.1,0.5-2,1.4-2.4,2.6l-3.1,9.1c2,0,3.7,1.7,3.7,3.7v0.7h-5.2c-2.1,0-3.8-1.7-3.8-3.8v-16.4 c0-1.4-1.1-2.5-2.5-2.5H87c-1.6,0-3.1,0.9-3.8,2.4l-4.3,8.6c-0.5,1-0.3,2.2,0.4,3.1l3.7,3.9h1.5c1.6,0,2.9,1.3,2.9,2.9v1.9h-6.9 c-1,0-2-0.4-2.8-1.2l-6.8-7.1c-1.1-1.1-1.7-2.6-1.6-4.2c0.1-3-0.3-8.2-4.2-12.1c-6.7-5-8.1-14.5-3.1-21.3c0,0,0.1-0.1,0.1-0.1 c-4.8-2.4-9.1-5.7-12.6-9.8C43.8,246.5,37.5,235.2,39.9,217.9z"></path> <path class="st8" d="M132,273l2.7-5.6l-14.4-9.9c-1.4,1.9-3.5,3.1-5.8,3.4L132,273z"></path> <ellipse transform="matrix(0.9951 -9.853768e-02 9.853768e-02 0.9951 -32.9638 14.2292)" class="st14" cx="127.6" cy="340.8" rx="5.9" ry="5.9"></ellipse> <path class="st4" d="M127.8,340.1v-0.8h1.4l-1.7-3l-1.8,3h1.4v0.8h-2.4v4.2h5.4v-4.2H127.8z M129.6,343.8h-4.2v-3h1.8v2h0.6v-2h1.8 V343.8z"></path> <circle class="st14" cx="144.5" cy="340.9" r="5.9"></circle> <path class="st4" d="M144.6,339.8c0.5,0,0.9,0.4,0.9,0.9s-0.4,0.9-0.9,0.9s-0.9-0.4-0.9-0.9S144.1,339.8,144.6,339.8L144.6,339.8 M141.8,339.8c0.5,0,0.9,0.4,0.9,0.9s-0.4,0.9-0.9,0.9s-0.9-0.4-0.9-0.9S141.3,339.8,141.8,339.8L141.8,339.8 M147.4,339.8 c0.5,0,0.9,0.4,0.9,0.9s-0.4,0.9-0.9,0.9s-0.9-0.4-0.9-0.9S146.9,339.8,147.4,339.8L147.4,339.8"></path> </g> </svg> 