<?xml version="1.0" encoding="utf-8"?>
<!-- Generator: Adobe Illustrator 26.2.1, SVG Export Plug-In . SVG Version: 6.00 Build 0)  -->
<!DOCTYPE svg PUBLIC "-//W3C//DTD SVG 1.1//EN" "http://www.w3.org/Graphics/SVG/1.1/DTD/svg11.dtd" [
	<!ENTITY ns_extend "http://ns.adobe.com/Extensibility/1.0/">
	<!ENTITY ns_ai "http://ns.adobe.com/AdobeIllustrator/10.0/">
	<!ENTITY ns_graphs "http://ns.adobe.com/Graphs/1.0/">
	<!ENTITY ns_vars "http://ns.adobe.com/Variables/1.0/">
	<!ENTITY ns_imrep "http://ns.adobe.com/ImageReplacement/1.0/">
	<!ENTITY ns_sfw "http://ns.adobe.com/SaveForWeb/1.0/">
	<!ENTITY ns_custom "http://ns.adobe.com/GenericCustomNamespace/1.0/">
	<!ENTITY ns_adobe_xpath "http://ns.adobe.com/XPath/1.0/">
]>
<svg version="1.1" id="Layer_1" xmlns:x="&ns_extend;" xmlns:i="&ns_ai;" xmlns:graph="&ns_graphs;"
	 xmlns="http://www.w3.org/2000/svg" xmlns:xlink="http://www.w3.org/1999/xlink" x="0px" y="0px" viewBox="0 0 2500 2500"
	 style="enable-background:new 0 0 2500 2500;" xml:space="preserve">
<style type="text/css">
	.st0{fill:#FFFFFF;}
	.st1{opacity:0.2;fill:#7694C4;}
	.st2{fill:#FFD199;}
	.st3{fill:#F9F9F9;}
	.st4{opacity:0.1;fill:#FFFFFF;}
	.st5{fill:#D8DDEA;}
	.st6{opacity:0.2;fill:#FFFFFF;}
	.st7{fill:#01A7F1;}
	.st8{fill:#FF4D56;}
	.st9{fill:#BACEE2;}
	.st10{fill:#FFB83B;}
	.st11{fill:#CEDDEA;}
	.st12{fill:#FF7373;}
	.st13{fill:#4F5470;}
	.st14{fill:#F2C391;}
	.st15{fill:#FFDBB3;}
</style>
<metadata>
	<sfw  xmlns="&ns_sfw;">
		<slices></slices>
		<sliceSourceBounds  bottomLeftOrigin="true" height="2500" width="2500" x="996.1" y="-2200.6"></sliceSourceBounds>
		<optimizationSettings>
			<targetSettings  fileFormat="JPEGFormat" targetSettingsID="0">
				
					<JPEGFormat  blurAmount="0" embedICCProfile="false" matteColor="#FFFFFF" noMatteColor="false" optimized="true" progressive="true" quality="96">
					</JPEGFormat>
			</targetSettings>
		</optimizationSettings>
	</sfw>
</metadata>
<rect x="0" y="0" class="st0" width="2500" height="2500"/>
<g>
	<path class="st1" d="M1782.8,770.5c-68.5-115.1-205.8-266.4-408.2-288.2c-257.2-27.6-615.3,70.8-729.4,564.7
		c-17.9,77.6-79.4,133.7-135.9,182.2c-65.4,56.1-112.4,113.5-146,216.2c-64.2,195.9,15.9,375.1,213.1,488.3
		c91.7,52.7,144.1,239.5,181.4,276.9c124.2,124.8,289.2,142,570.1-24.2c158.7-93.9,277.5-14.3,441.5-47.5
		c451.9-91.7,265.4-457.2,361.6-732.4C2279.7,981.2,1928.7,1015.7,1782.8,770.5z"/>
	<g>
		<path class="st2" d="M1251.9,1398.5c73.8,29.5-85.5,104-85.5,104c-15.7-14-156.9-38.9-206.9-58.8c-29-11.6-61.7-25.7-85.3-37.6
			c-51.1-25.7-71.5-58.7-65.8-85.1c0.1-1.1,0.3-2.1,0.6-3.2c0.7-2.7,1.7-5.3,2.9-7.8c10.9-21.6,29.2-36.8,75.5-18.3
			c23.9,9.6,44.8,17.1,80.3,28.4C1027.5,1339.1,1186.6,1372.4,1251.9,1398.5z"/>
		<path class="st2" d="M1194.3,1404.3c74.1-28.6,8.1,134.4,8.1,134.4c-21,0.5-141.5,78.2-191.7,97.6c-29.1,11.2-62.7,23.1-88.1,30.5
			c-54.9,15.9-88.7-2.4-99.6-30.8c-10.9-28.3-5.9-58.3,35.7-74.3c24.1-9.3,43.4-14.6,77.1-30.5
			C992.6,1504.3,1128.7,1429.6,1194.3,1404.3z"/>
		<path class="st2" d="M1194,1530c69.5-26.8,7.5,126,7.5,126c-19.7,0.4-132.7,73.4-179.7,91.5c-27.3,10.5-58,22.1-81.9,29
			c-51.5,14.9-91,0.2-102-29.5c-7.9-21.3-5.1-46.6,38.6-63.4c22.6-8.7,41.7-16.8,73.3-31.7C1003.2,1626.8,1132.5,1553.7,1194,1530z"
			/>
		<path class="st2" d="M1001.4,1397.7c-24.5,7.7-46.1,14.3-61.9,18.7c-35.9,9.9-43.2,11-68.5,16c-48.9,9.8-55.5,40.3-49.6,70.1
			c5.9,29.8,25.2,51.6,82,45.3c21.3-2.4,48.3-6.7,74-11.6L1001.4,1397.7z"/>
	</g>
	<g>
		<g>
			<path class="st3" d="M1585.2,793.4v54.6H912.7v-54.6c0-8,1.6-15.7,4.4-22.8c0.4-1,0.9-2.1,1.3-3c3.2-7,7.6-13.3,13.1-18.8
				c13.2-13.4,32.3-21.9,53.6-21.9h527.5C1552.6,726.9,1585.2,756.7,1585.2,793.4z"/>
			<path class="st3" d="M1585.2,1798.7v54.5c0,36.7-32.5,66.5-72.6,66.5H985.1c-21.3,0-40.4-8.5-53.6-21.9
				c-5.4-5.5-9.9-11.8-13.1-18.8c-0.4-1-0.9-2-1.3-3c-2.8-7.1-4.4-14.8-4.4-22.8v-54.5H1585.2z"/>
			<path class="st4" d="M1249,726.9v121.1H912.8v-54.6c0-8,1.5-15.7,4.3-22.8c0.4-1,0.9-2.1,1.3-3c3.2-6.9,7.6-13.3,13.1-18.8
				c13.2-13.4,32.3-21.9,53.6-21.9H1249z"/>
			<path class="st4" d="M912.8,1798.7H1249v121.1h-264c-21.3,0-40.4-8.5-53.6-21.9c-5.4-5.5-9.9-11.9-13.1-18.8c-0.4-1-0.9-2-1.3-3
				c-2.8-7.1-4.3-14.8-4.3-22.8V1798.7z"/>
			<path class="st5" d="M1281.4,787.4c0,17.9-14.5,32.4-32.4,32.4c-17.9,0-32.4-14.5-32.4-32.4c0-17.9,14.5-32.4,32.4-32.4
				C1266.9,755,1281.4,769.5,1281.4,787.4z"/>
			<path class="st6" d="M1265.1,787.4c0,8.9-7.2,16.2-16.2,16.2c-8.9,0-16.2-7.2-16.2-16.2c0-8.9,7.2-16.2,16.2-16.2
				C1257.9,771.3,1265.1,778.5,1265.1,787.4z"/>
			<rect x="912.8" y="846.9" class="st7" width="672.4" height="954"/>
			<g>
				<rect x="912.8" y="846.9" class="st8" width="672.4" height="954"/>
			</g>
			<g>
				<g>
					<path class="st0" d="M1420.3,928.9h-342.7c-44.3,0-80.3,36-80.3,80.3v453c0,44.3,36,80.3,80.3,80.3h342.7
						c44.3,0,80.3-36,80.3-80.3v-453C1500.6,964.9,1464.6,928.9,1420.3,928.9z"/>
					<g>
						<path class="st9" d="M1067.4,1340.7h257.7c7.5,0,13.6,6.1,13.6,13.6l0,0c0,7.5-6.1,13.6-13.6,13.6h-257.7
							c-7.5,0-13.6-6.1-13.6-13.6l0,0C1053.8,1346.8,1059.9,1340.7,1067.4,1340.7z"/>
						<path class="st9" d="M1430.5,1308.1h-363.1c-7.5,0-13.6-6.1-13.6-13.6v0c0-7.5,6.1-13.6,13.6-13.6h363.1
							c7.5,0,13.6,6.1,13.6,13.6v0C1444.1,1302,1438,1308.1,1430.5,1308.1z"/>
						<path class="st9" d="M1430.5,1248.3h-363.1c-7.5,0-13.6-6.1-13.6-13.6v0c0-7.5,6.1-13.6,13.6-13.6h363.1
							c7.5,0,13.6,6.1,13.6,13.6v0C1444.1,1242.2,1438,1248.3,1430.5,1248.3z"/>
					</g>
					<g>
						<path class="st10" d="M1169.9,1436.5l-26,20.7c-0.8,0.6-1.1,1.7-0.9,2.7l8.9,32c0.9,3.4-2.8,6.2-5.8,4.2l-27.7-18.3
							c-0.8-0.6-1.9-0.6-2.8,0l-27.7,18.4c-3,2-6.8-0.8-5.8-4.2l8.9-32c0.3-1-0.1-2-0.9-2.7l-26-20.7c-2.8-2.2-1.3-6.7,2.2-6.8
							l33.2-1.4c1,0,1.9-0.7,2.3-1.6l11.6-31.1c1.2-3.3,5.9-3.3,7.2,0l11.6,31.1c0.4,1,1.2,1.6,2.3,1.6l33.2,1.4
							C1171.2,1429.8,1172.7,1434.3,1169.9,1436.5z"/>
						<path class="st6" d="M1128.8,1417.5l-40.1,78l-0.8,0.6c-3,2-6.8-0.8-5.8-4.2l8.9-32.1c0.3-1,0-2-0.9-2.6l-26-20.7
							c-2.8-2.2-1.3-6.7,2.2-6.9l33.2-1.4c1,0,1.9-0.7,2.3-1.7l11.6-31.2c1.3-3.3,5.9-3.3,7.2,0L1128.8,1417.5z"/>
						<path class="st11" d="M1301.9,1436.5l-26,20.7c-0.8,0.6-1.1,1.7-0.9,2.7l8.9,32c0.9,3.4-2.8,6.2-5.8,4.2l-27.7-18.3
							c-0.8-0.6-1.9-0.6-2.8,0l-27.7,18.4c-3,2-6.8-0.8-5.8-4.2l8.9-32c0.3-1-0.1-2-0.9-2.7l-26-20.7c-2.8-2.2-1.3-6.7,2.2-6.8
							l33.2-1.4c1,0,1.9-0.7,2.3-1.6l11.6-31.1c1.2-3.3,5.9-3.3,7.2,0l11.6,31.1c0.4,1,1.2,1.6,2.3,1.6l33.2,1.4
							C1303.2,1429.8,1304.6,1434.3,1301.9,1436.5z"/>
						<path class="st11" d="M1433.8,1436.5l-26,20.7c-0.8,0.6-1.1,1.7-0.9,2.7l8.9,32c0.9,3.4-2.8,6.2-5.8,4.2l-27.7-18.3
							c-0.8-0.6-1.9-0.6-2.8,0l-27.7,18.4c-3,2-6.8-0.8-5.8-4.2l8.9-32c0.3-1-0.1-2-0.9-2.7l-26-20.7c-2.8-2.2-1.3-6.7,2.2-6.8
							l33.2-1.4c1,0,1.9-0.7,2.3-1.6l11.6-31.1c1.2-3.3,5.9-3.3,7.2,0l11.6,31.1c0.4,1,1.2,1.6,2.3,1.6l33.2,1.4
							C1435.1,1429.8,1436.6,1434.3,1433.8,1436.5z"/>
						<path class="st6" d="M1260.8,1417.5l-40.1,78l-0.8,0.6c-3,2-6.8-0.8-5.8-4.2l8.9-32.1c0.3-1-0.1-2-0.9-2.6l-26-20.7
							c-2.8-2.2-1.3-6.7,2.2-6.9l33.2-1.4c1,0,1.9-0.7,2.3-1.7l11.6-31.2c1.3-3.3,5.9-3.3,7.2,0L1260.8,1417.5z"/>
						<path class="st6" d="M1392.8,1417.5l-40.1,78l-0.8,0.6c-3,2-6.8-0.8-5.8-4.2l8.9-32.1c0.3-1-0.1-2-0.9-2.6l-26-20.7
							c-2.8-2.2-1.3-6.7,2.2-6.9l33.2-1.4c1,0,1.9-0.7,2.3-1.7l11.6-31.2c1.3-3.3,5.9-3.3,7.2,0L1392.8,1417.5z"/>
					</g>
					<g>
						<g>
							
								<ellipse transform="matrix(4.531457e-02 -0.999 0.999 4.531457e-02 117.3878 2288.8679)" class="st12" cx="1256.2" cy="1083" rx="105.2" ry="105.2"/>
						</g>
						<g>
							<g>
								<g>
									<path class="st13" d="M1256.3,1092.1c-28.6,0-43.1,20.9-45.4,40c-0.4,2.8,1,5.5,3.7,5.9c2.7,0.4,4.7-1.5,5.5-4.3
										c4.6-15.5,15.3-26.8,36.3-26.8C1257,1107,1257,1092.1,1256.3,1092.1z"/>
								</g>
							</g>
							<g>
								<g>
									<path class="st13" d="M1256.1,1092.1c28.6,0,43.1,20.9,45.4,40c0.4,2.8-1,5.5-3.7,5.9c-2.7,0.4-4.7-1.5-5.5-4.3
										c-4.6-15.5-15.3-26.8-36.3-26.8C1255.5,1107,1255.5,1092.1,1256.1,1092.1z"/>
								</g>
							</g>
						</g>
						<g>
							<g>
								<g>
									<g>
										<path class="st13" d="M1233.3,1056.8c0,8.4-5.1,15.2-11.5,15.2c-6.4,0-11.5-6.8-11.5-15.2c0-8.4,5.1-15.2,11.5-15.2
											C1228.2,1041.6,1233.3,1048.4,1233.3,1056.8z"/>
									</g>
								</g>
							</g>
							<g>
								<g>
									<g>
										<path class="st13" d="M1302.1,1056.8c0,8.4-5.1,15.2-11.5,15.2c-6.4,0-11.5-6.8-11.5-15.2c0-8.4,5.1-15.2,11.5-15.2
											C1297,1041.6,1302.1,1048.4,1302.1,1056.8z"/>
									</g>
								</g>
							</g>
						</g>
					</g>
				</g>
			</g>
			<path class="st0" d="M1337.3,1724.2h-176.8c-27.7,0-50.2-22.5-50.2-50.2v0c0-27.7,22.5-50.2,50.2-50.2h176.8
				c27.7,0,50.2,22.5,50.2,50.2v0C1387.5,1701.7,1365,1724.2,1337.3,1724.2z"/>
		</g>
		<g>
			<path class="st14" d="M1419.6,2108.7c0,0-56.4-1.6-100.4-28.7c-68.9-42.5-111.4-117.3-131.3-160.2h183.4L1419.6,2108.7z"/>
			<path class="st2" d="M1395.2,2500c8.1-45.4,35.7-240.4-37.1-462.2c-67.2-204.6,138.3-376,150.5-426.9l28.1-118.1
				c0,0,133.2,114.9,130.2,242.2c-2.8,118.3-17.5,193.7-4.8,250.6c26.8,119.9,54.9,306.3,119.9,514.4H1395.2z"/>
			<path class="st2" d="M1666.9,1727.4c0,82-132.4-42.1-132.4-42.1c7.4-20.5-22.8-165.3-22.8-220.8c0-32.2,1.1-69,3.3-96.2
				c5.2-58.8,29-91,56.4-95.7c1.1-0.2,2.2-0.4,3.2-0.6c1.7-0.3,3.2-0.3,4.7-0.3c1.3,0,2.6,0.1,3.8,0.2c24.9,2.1,46.4,12.9,46.4,65.3
				c0,0,0.6,30.7,0.7,41c0,0,0.1,8.6,0.1,10c0.1,2.7,0.1,5.2,0.1,7.6v2.1C1632.7,1442.8,1666.9,1647.9,1666.9,1727.4z"/>
			<path class="st15" d="M1629.7,1348.4c-13,9.7-29.5,10.6-42.7,0.6c-19.1-14.5-24.5-46.1-11.9-70.5c1.3-2.5,2.7-4.8,4.2-6.9
				c1.3,0,2.6,0.1,3.8,0.2c24.9,2.1,46.4,12.9,46.4,65.3v2.9C1629.7,1342.2,1629.7,1345.1,1629.7,1348.4z"/>
		</g>
		<path class="st2" d="M950.5,1726.9c0,30.5-14.4,52.5-39.2,55.1c-21.5,2.3-39.2-24.7-39.2-55.1c0-30.5,21.8-47.9,43.8-59.2
			C935.2,1657.8,950.5,1696.5,950.5,1726.9z"/>
		<path class="st2" d="M961.6,1610.3c0,35-24.8,53.4-48.9,59.6c-30.6,7.9-41.2-24.6-41.2-59.6c0-35,21.8-67.8,46.6-67.8
			C943.1,1542.5,961.6,1575.3,961.6,1610.3z"/>
		<path class="st2" d="M951.7,1499.3c-6,34.5-33.6,48.4-58.4,50.4c-31.5,2.6-36.4-31.3-30.4-65.7c6-34.5,33-63.1,57.5-58.9
			C944.9,1429.3,957.6,1464.8,951.7,1499.3z"/>
	</g>
</g>
</svg>
