<?xml version="1.0" encoding="iso-8859-1"?>
<!-- Generator: Adobe Illustrator 26.1.0, SVG Export Plug-In . SVG Version: 6.00 Build 0)  -->
<!DOCTYPE svg PUBLIC "-//W3C//DTD SVG 1.1//EN" "http://www.w3.org/Graphics/SVG/1.1/DTD/svg11.dtd" [
	<!ENTITY ns_extend "http://ns.adobe.com/Extensibility/1.0/">
	<!ENTITY ns_ai "http://ns.adobe.com/AdobeIllustrator/10.0/">
	<!ENTITY ns_graphs "http://ns.adobe.com/Graphs/1.0/">
	<!ENTITY ns_vars "http://ns.adobe.com/Variables/1.0/">
	<!ENTITY ns_imrep "http://ns.adobe.com/ImageReplacement/1.0/">
	<!ENTITY ns_sfw "http://ns.adobe.com/SaveForWeb/1.0/">
	<!ENTITY ns_custom "http://ns.adobe.com/GenericCustomNamespace/1.0/">
	<!ENTITY ns_adobe_xpath "http://ns.adobe.com/XPath/1.0/">
]>
<svg version="1.1" id="_x2014_&#xCE;&#xD3;&#xC8;_x5F_1" xmlns:x="&ns_extend;" xmlns:i="&ns_ai;" xmlns:graph="&ns_graphs;"
	 xmlns="http://www.w3.org/2000/svg" xmlns:xlink="http://www.w3.org/1999/xlink" x="0px" y="0px" viewBox="0 0 1327.074 805.122"
	 style="enable-background:new 0 0 1327.074 805.122;" xml:space="preserve">
<metadata>
	<sfw  xmlns="&ns_sfw;">
		<slices></slices>
		<sliceSourceBounds  bottomLeftOrigin="true" height="805.122" width="1327.074" x="-257.975" y="-0.828"></sliceSourceBounds>
	</sfw>
</metadata>
<rect style="fill:#2E2B2A;" width="1327.074" height="804.828"/>
<g>
	<rect x="257.975" y="0.294" style="fill-rule:evenodd;clip-rule:evenodd;fill:#3D3A39;" width="842" height="804.828"/>
	<polygon style="fill-rule:evenodd;clip-rule:evenodd;fill:#96857E;" points="1053.411,338.019 1037.383,613.133 935.294,649.022 
		964.511,677.143 696.241,679.954 651.086,699.638 470.467,699.638 457.187,668.706 364.222,657.459 364.222,615.28 
		305.586,413.116 405.488,207.682 421.74,136.517 500.944,52.033 904.343,82.888 941.61,164.424 1021.113,222.289 1021.113,288.046 
			"/>
	<polygon style="fill-rule:evenodd;clip-rule:evenodd;fill:#839E96;" points="619.685,399.464 593.598,388.905 576.396,384.933 
		599.534,499.52 700.227,510.586 680.555,450.395 658.194,444.805 641.424,421.824 	"/>
	<path style="fill-rule:evenodd;clip-rule:evenodd;fill:#80726B;" d="M441.067,336.937c0,0,13.665,72.049,18.633,78.261
		c4.969,6.211,70.586,80.412,80.426,78.738c9.84-1.672,94.729-32.776,94.729-32.776l34.186,43.252c0,0-175.938,2.401-182.896,10.977
		s-45.078-25.657-45.078-25.657l-17.391-52.174L441.067,336.937z"/>
	<polygon style="fill-rule:evenodd;clip-rule:evenodd;fill:#779189;" points="638.311,447.76 672.086,510.665 602.413,508.185 
		594.716,475.662 	"/>
	<path style="fill-rule:evenodd;clip-rule:evenodd;fill:#80726B;" d="M526.782,151.843c0,0,21.706,90.529,26.054,109.783
		c4.348,19.254,91.394,46.1,91.394,46.1l28.151-0.356l-32.823,62.108l-104.08-67.324l-23.603-67.081L526.782,151.843z"/>
	<path style="fill-rule:evenodd;clip-rule:evenodd;fill:#EB9D61;" d="M645.992,260.759c-3.461,1.253,0.297,8.689-2.513,8.362
		c-19.324-2.25-10.792,17.584-11.457,20.414c2.042,8.12-0.793,4.951,3.556-2.53c0.007-5.777,5.256-8.954,8.268-5.37
		c1.02,1.213-0.555,6.087,0.472,8.011c3.395,5.83,2.244,16.504-2.027,20.878c-35.612,41.998,65.033,54.991,49.988,77.184
		c32.279,9.422,38.555,17.814,58.53,29.644c0.54,22.195-11.096,28.888-34.908,20.079c-51.791-21.346-70.759-24.429-58.517-31.809
		c-30.046-20.106-46.538-88.472-46.538-88.472c-0.744-3.294-7.584-8.59-7.596-13.401c-0.016-6.269,3.454-6.943,3.503-7.456
		c0.098-1.031-1.82-5.347-1.828-4.707c-2.107-8.389,4.816-7.855,7.567-7.868c1.135-2.935,3.923-6.179,6.501-6.314
		c1.785-2.319,2.373-12.678,5.263-12.874C635.992,252.923,643.649,260.024,645.992,260.759z"/>
	<path style="fill-rule:evenodd;clip-rule:evenodd;fill:#D18245;" d="M623.06,279.839c0,0,3.106,8.696,1.553,12.111
		c-1.553,3.416-6.211,2.329-6.211,2.329s2.41,4.166-0.851,7.116s-5.361,0.027-5.361,0.027s2.484,5.9,2.018,7.608
		s-4.137,4.237-4.137,4.237s5.068-2.218,9.416,2.751c4.348,4.969,5.28,8.074,5.28,8.074s0.776-15.838,4.192-20.031
		c3.416-4.192,6.832-6.677,6.832-6.677l-0.215-10.379c0,0-3.621,0.926-3.891-0.507c-0.27-1.433-1.376-12.521,0.858-14.415
		s4.241-2.929,6.105-3.035c1.863-0.105,4.98,0.082,4.98,0.082s-7.527-2.339-8.304-3.271c-0.776-0.932-7.919,2.64-9.162,4.969
		C624.921,273.159,623.06,279.839,623.06,279.839z"/>
	<path style="fill-rule:evenodd;clip-rule:evenodd;fill:#362118;" d="M675.73,344.966c0,0-35.322-90.257-33.473-91.088
		c1.851-0.83,74.653,85.219,78.932,87.437c4.279,2.217,4.502,10.385,4.502,10.385l-28.583-10.454l2.677,17.465l-15.332-16.922
		L675.73,344.966z"/>
	<path style="fill-rule:evenodd;clip-rule:evenodd;fill:#80726B;" d="M724.4,155.115l18.38,59.925c0,0-7.29,131.496,3.284,125.045
		c10.573-6.45-13.926,142.747-20.81,149.178c-6.884,6.432-74.168,133.346-74.168,133.346l61.091-23.905l67.988-0.43L809.2,455.719
		l-47.553-240.305l-14.886-56.571l-27.33-31.056L724.4,155.115z"/>
	<polygon style="fill-rule:evenodd;clip-rule:evenodd;fill:#80726B;" points="827.508,137.724 888.378,255.736 909.495,402.32 
		887.256,485.505 840.794,393.751 848.626,312.879 838.688,223.438 803.988,112.63 	"/>
	<path style="fill-rule:evenodd;clip-rule:evenodd;fill:#80726B;" d="M592.651,596.049l-169.019-42.336l-67.08-159.006
		l86.956-154.037l-4.969-84.472l79.503-74.534l104.348,27.329c0,0,261.827,12.504,263.354-7.453
		c1.526-19.957,37.267,81.987,37.267,81.987l98.103,38.763l-26.054,63.1l27.33,72.05l-36.058,184.469l27.9,79.363l23.153-8.139
		l16.028-275.114l-32.298-49.973l6.245-72.843l-85.747-50.778l-37.267-81.537L490.09,43.151l-68.35,93.366l-16.252,71.165
		l-99.902,205.434l58.635,206.838C364.222,619.954,599.865,633.901,592.651,596.049z"/>
	<polygon style="fill-rule:evenodd;clip-rule:evenodd;fill:#6E6966;" points="430.626,598.704 592.651,596.049 651.086,622.61 
		712.177,598.704 974.607,597.046 1019.944,608.845 1037.383,613.133 1043.728,665.085 1001.314,669.219 981.903,698.265 
		696.241,681.045 651.086,699.638 470.467,699.638 457.187,670.421 364.222,659.796 364.222,619.954 	"/>
	<polygon style="fill-rule:evenodd;clip-rule:evenodd;fill:#3B3736;" points="357.117,594.894 450.049,588.129 425.124,622.803 
		367.001,622.588 356.387,598.887 	"/>
	<polygon style="fill-rule:evenodd;clip-rule:evenodd;fill:#3B3736;" points="669.098,673.316 669.559,679.694 565.988,681.081 
		515.949,662.448 393.802,679.529 398.966,627.577 413.158,623.288 663.608,613.148 675.687,637.984 687.649,651.171 
		657.032,665.917 	"/>
	<polygon style="fill-rule:evenodd;clip-rule:evenodd;fill:#3B3736;" points="705.431,658.873 704.864,665.251 832.139,666.637 
		893.629,648.004 1043.728,665.085 1037.383,613.133 1019.944,608.845 712.177,598.704 697.335,623.541 682.635,636.727 
		720.258,651.474 	"/>
	<path style="fill-rule:evenodd;clip-rule:evenodd;fill:#D68F58;" d="M788.913,548.975c36.292,2.028,52.766-4.809,77.932-9.908
		c10.547-23.307,2.015-34.724-25.597-34.254c-61.04,3.341-89.1,13.502-80.275,25.873c-20.906,45.261-32.257,82.391-32.257,82.391
		C763.446,620.123,793.856,563.599,788.913,548.975z"/>
	<path style="fill-rule:evenodd;clip-rule:evenodd;fill:#CC550A;" d="M804.121,533.296c0,0-5.456-24.362-8.921-23.737
		c-3.466,0.626,20.465-6.024,20.465-6.024l5.224,29.267l-17.273,3.984L804.121,533.296z"/>
	<path style="fill-rule:evenodd;clip-rule:evenodd;fill:#D68F58;" d="M732.836,600.808c14.089,6.32,18.68,8.38,18.68,8.38
		c10.285,17.768,9.605,27.096-6.953,25.783c-28.076,4.004-45.139,3.806-51.19-0.596c-10.178,4.148-16.528,2.858-19.049-3.869
		c-2.476-4.905,2.287-6.492,14.285-4.761c13.73-2.856,22.857-7.221,27.38-13.095C727.552,605.232,733.168,601.284,732.836,600.808z"
		/>
	<path style="fill-rule:evenodd;clip-rule:evenodd;fill:#E2985F;" d="M774.173,543.538c-2.753-11.083,0.091-20.957,8.531-29.622
		c-17.514,4.732-24.143,10.968-19.2,17.897c-7.055,15.274-13.023,29.622-17.833,41.93c-4.568,11.691-8.094,21.542-10.515,28.595
		c-0.945,8.121,1.054,8.851,5.998,2.192c4.018-5.411,9.98-15.702,17.884-30.871C763.472,565.152,768.516,555.112,774.173,543.538z"
		/>
	<polygon style="fill-rule:evenodd;clip-rule:evenodd;fill:#54504E;" points="780.12,640.259 835.264,540.779 986.331,541.987 
		1019.944,613.544 1014.978,659.494 884.467,637.602 847.2,653.538 	"/>
	<path style="fill-rule:evenodd;clip-rule:evenodd;fill:#635148;" d="M973.996,548.204c0,0-10.559,9.627-14.596,12.422
		c-4.038,2.795-17.086,8.102-29.464,10.432c-12.379,2.33-38.795,2.956-38.795,2.956l82.851-32.616l12.34,0.511l12.534,26.761
		l-19.43-19.456L973.996,548.204z"/>
	<path style="fill-rule:evenodd;clip-rule:evenodd;fill:#2E2B2A;" d="M813.2,642.571c1.163-5.875,21.571-49.065,21.571-49.065
		s42.236-11.802,50.621-13.044s15.528-5.895,15.528-5.895l-87.889-4.975l-32.912,70.666L813.2,642.571z"/>
	<path style="fill-rule:evenodd;clip-rule:evenodd;fill:#F8AF75;" d="M652.068,273.084c-0.802,10.473-0.161,13.323,1.947,14.698
		c2.543,1.661,12.448,1.302,13.573,10.356c0.602-0.406-1.535,0.904-1.318,0.33c1.649-4.397,21.193,22.673,21.943,16.018
		c2.869,0.69,3.837,3.485,2.903,8.386c-1.629,6.629,3.173,15.495,4.164,15.058c-8.658,6.023-0.104,12.533,15.103,11.448
		c-0.626,25.228,3.769,39.939,13.184,44.133c4.81,1.946,13.64-1.693,26.492-10.915c15.238-11.425,22.771-16.401,22.598-14.93
		c7.992,11.533,12.026,17.391,12.101,17.572c0.074,0.181,12.191,17.175,12.191,17.175l44.249-30.284l-58.908-93.971l11.296,6.84
		l1.138-5.485l-17.06-51.905c0,0-8.269-14.198-21.693-11.182c-13.425,3.015-12.837,5.029-12.837,5.029s-5.748-9.657-12.376-9.906
		c-6.627-0.249-91.392,31.885-82.004,34.676C662.034,250.172,610.087,172.449,652.068,273.084
		C653.511,265.462,652.079,272.946,652.068,273.084z"/>
	<path style="fill-rule:evenodd;clip-rule:evenodd;fill:#C43C13;" d="M724.368,318.689c0,0-12.636,13.304-17.629,15.801
		c-4.993,2.496-12.453,4.195-12.453,4.195s15.756-14.676,19.18-20.752C716.891,311.856,718.877,307.839,724.368,318.689z"/>
	<path style="fill-rule:evenodd;clip-rule:evenodd;fill:#EB9A5B;" d="M668.389,296.599c0,0,0.382-1.611-1.471-4.049
		c-1.853-2.438-9.573-6.623-9.573-6.623l15.825-9.169l4.168,16.17C677.337,292.928,671.528,293.602,668.389,296.599z"/>
	<path style="fill-rule:evenodd;clip-rule:evenodd;fill:#D48452;" d="M666.27,298.468l19.151-4.794l-7.663,15.072
		c0,0-1.604,1.089-4.606-0.832c-3.002-1.922-3.347-4.501-3.347-4.501l-2.22,0.37L666.27,298.468z"/>
	<path style="fill-rule:evenodd;clip-rule:evenodd;fill:#783E25;" d="M661.825,304.619c0,0,8.287-2.556,13.73-4.901
		c5.443-2.345,9.866-6.043,9.866-6.043S671.024,305.993,661.825,304.619z"/>
	<path style="fill-rule:evenodd;clip-rule:evenodd;fill:#783E25;" d="M676.09,310.351l9.331-16.677
		C685.421,293.674,681.207,307.06,676.09,310.351z"/>
	<path style="fill-rule:evenodd;clip-rule:evenodd;fill:#756065;" d="M674.966,300.892c0,0,1.568,1,2.582,2.635
		c1.015,1.635,0.901,2.155,0.901,2.155l-1.707,3.504c0,0-2.715-0.137-4.897-2.017c-2.183-1.88-2.041-3.755-2.041-3.755
		L674.966,300.892z"/>
	<path style="fill-rule:evenodd;clip-rule:evenodd;fill:#411F30;" d="M670.942,303.742c0.653-0.758,2.355-0.36,3.802,0.886
		c1.447,1.247,2.092,2.871,1.439,3.629c-0.652,0.757-2.354,0.36-3.802-0.887C670.934,306.124,670.29,304.5,670.942,303.742z"/>
	<path style="fill-rule:evenodd;clip-rule:evenodd;fill:#E3D388;" d="M676.828,309.032l8.593-15.358c0,0-4.705,4.026-10.455,7.218
		c0,0,1.568,1,2.582,2.635c1.016,1.635,0.901,2.154,0.901,2.154l-1.633,3.351C676.821,309.033,676.825,309.032,676.828,309.032z"/>
	<path style="fill-rule:evenodd;clip-rule:evenodd;fill:#EEEADA;" d="M677.873,300.863c0.567,0.33,0.517,1.475-0.113,2.559
		c-0.63,1.084-1.6,1.695-2.167,1.366c-0.567-0.33-0.516-1.475,0.113-2.56C676.336,301.145,677.306,300.533,677.873,300.863z"/>
	<path style="fill-rule:evenodd;clip-rule:evenodd;fill:#EB9D61;" d="M827.726,381.352c0,0-11.709-13.73-22.516-13.047
		c-10.808,0.684-26.68,2.518-26.68,2.518l-5.212-5.567l-35.724,25.208c0,0,40.68-53.533,38.47-64.06
		c-2.209-10.526-29.903-56.068-29.903-56.068c7.297-29.506,35.124-9.864,28.231,3.996c-1.727,3.473-1.936,7.392-1.936,7.392
		l11.293,17.911l-1.259-18.534l56.558,92.503L827.726,381.352z"/>
	<path style="fill-rule:evenodd;clip-rule:evenodd;fill:#EB9D61;" d="M711.906,313.256l6.971-5.417c0,0-9.34-14.544-12.063-15.892
		s-5.562,2.656-5.562,2.656s-1.397-3.972,1.405-5.738c2.802-1.767,6.582,0.447,8.529,2.455c1.947,2.007,2.783,6.844,9.41,7.093
		c6.628,0.249,16.105,3.127,16.105,3.127l-18.721-0.797l5.716,9.337l-10.954,9.632L711.906,313.256z"/>
	<path style="fill-rule:evenodd;clip-rule:evenodd;fill:#DE8F52;" d="M695.616,346.107c3.033-1.046,11.962,4.836,17.621-0.774
		c5.657-5.611,11.649-22.289,11.649-22.289l-4.426,23.947C715.89,351.604,700.88,352.835,695.616,346.107z"/>
	<path style="fill-rule:evenodd;clip-rule:evenodd;fill:#D96218;" d="M719.3,459.922l3.068-63.101l53.495-24.527l12.498,25.217
		c0,0,7.026,53.404-0.428,54.647c-7.454,1.242-12.351-5.325-15.181,4.791c-2.831,10.115-23.639-15.661-23.639-15.661l-4.969,16.77
		l-4.038-6.832l-2.795,6.211L719.3,459.922z"/>
	<path style="fill-rule:evenodd;clip-rule:evenodd;fill:#D6884D;" d="M797.972,347.301l-30.169-53.252l-9.765,81.094
		c0,0,21.3-16.662,28.444-21.32C793.624,349.164,800.457,353.512,797.972,347.301z"/>
	<path style="fill-rule:evenodd;clip-rule:evenodd;fill:#41291F;" d="M719.424,237.854c-1.223,7.242-5.408,14.648,0.292,19.908
		c5.701,5.26,10.622,6.584,12.773,9.995c2.151,3.411,23.725,38.168,24.784,43.63c1.06,5.462-16.812,41.932-24.159,44.862
		c-7.347,2.93-16.285-10.165-16.285-10.165l-6.446,3.294c0,0-0.063,3.514-0.013,8.426c0.088,8.779,0.03,20.451,2.339,27.658
		c2.309,7.208,21.482,20.652,21.482,20.652l-5.803-12.254l8.618,10.839c8.649-16.758,44.583-55.927,46.539-67.305
		c1.313-7.638-6.083-24.771-13.622-39.429c-7.54-14.658-23.316-35.36-23.316-35.36s2.595-7.767,9.699-10.543
		s13.102,0.254,15.952,2.884c2.851,2.63,8.117,13.953,5.877,18.772c-2.241,4.818-5.679,8.008-5.679,8.008l29.933,45.871
		l-1.457-21.476l19.431,30.999l-6.997-29.644l21.694,12.293l-18.987-56.026l-27.756-36.132c0,0-18.921-14.198-32.345-11.183
		c-13.423,3.015-12.836,5.028-12.836,5.028s-2.502-17.452-30.431-21.695c-27.93-4.242-68.81,17.689-77.096,22.913
		c-8.285,5.224-6.969,44.58-6.969,44.58l11.065-20.259l0.992,26.96l4.846-17.699l7.816-10.55l45.933-7.56l12.408-7.68
		C711.7,230.464,720.648,230.612,719.424,237.854z"/>
	<path style="fill-rule:evenodd;clip-rule:evenodd;fill:#41291F;" d="M734.774,334.041c0,0-14.002-21.311-15.635-21.984
		c-1.633-0.672-10.443,12.692-10.443,12.692L695.28,337.93l-5.703-8.326l5.902-11.506l17.67-14.887
		C713.15,303.211,740.244,293.195,734.774,334.041z"/>
	<path style="fill-rule:evenodd;clip-rule:evenodd;fill:#D96218;" d="M817.251,548.853c-1.107-50.588-21.641-89.881-30.208-118.881
		c-4.186-14.171-18.856-43.336-11.181-57.678c0.347,1.679,2.456,3.48,4.448,6.433c3.833,5.686,8.792,13.24,10.845,15.552
		c15.274,17.2,40.748,5.487,33.342-45.527c43.289,2.819,101.231,90.507,108.486,192.492
		C902.753,581.472,843.14,572.167,817.251,548.853z"/>
	<path style="fill-rule:evenodd;clip-rule:evenodd;fill:#EB9D61;" d="M783.311,383.197c34.251,8.171,46.372-6.001,38.904-35.741
		c47.725,26.757,68.308,65.682,64.641,112.947C859.315,471.94,813.569,456.037,783.311,383.197z"/>
	<path style="fill-rule:evenodd;clip-rule:evenodd;fill:#EB9F65;" d="M815.766,573.681c37.872,2.117,55.063-5.018,81.323-10.338
		c11.006-24.322,2.103-36.237-26.71-35.745c-63.696,3.487-92.977,14.089-83.768,26.999c-21.815,47.229-33.66,85.975-33.66,85.975
		C789.192,647.924,820.926,588.941,815.766,573.681z"/>
	<path style="fill-rule:evenodd;clip-rule:evenodd;fill:#45403E;" d="M888.781,584.587l62.657-7.415l25.512-35.333
		c0,0-63.896,9.815-61.556,15.76c2.34,5.945-30.003,22.863-30.003,22.863L888.781,584.587z"/>
	<path style="fill-rule:evenodd;clip-rule:evenodd;fill:#CC550A;" d="M930.601,519.104c-38.836-2.967-58.91-0.135-60.222,8.494
		c10.596,13.414,9.524,27.08-3.213,41c-10.899-2.125-16.336,2.359-16.31,13.453c20.487-6.802,36.636-9.286,48.447-7.454
		c29.91-0.444,48.543-7.069,55.901-19.876c6.693-7.571,13.942-11.865,21.747-12.883
		C941.324,536.692,925.874,529.114,930.601,519.104z"/>
	<path style="fill-rule:evenodd;clip-rule:evenodd;fill:#F8AF75;" d="M796.037,566.143c-6.404-18.8,19.376-29.567,53.734-34.997
		c2.388-0.377-75.378,3.794-60.519,24.624c-7.363,15.938-13.589,30.911-18.608,43.754c-4.767,12.201-8.445,22.479-10.973,29.84
		c-0.986,8.474,1.1,9.236,6.26,2.287c4.191-5.646,10.413-16.384,18.662-32.214C789.219,590.561,790.135,578.221,796.037,566.143z"/>
	<path style="fill-rule:evenodd;clip-rule:evenodd;fill:#BD510D;" d="M886.645,529.11c-10.844-1.007-16.266-1.511-16.266-1.511
		c-0.964-41.073,7.411-61.29,25.127-60.651c3.822-18.91,1.268-41.003-7.667-66.278c24.026,38.534,38.121,79.86,42.287,123.98
		c7.043,6.997,13.338,10.837,18.886,11.521c-10.861,17.738-22.067,24.881-33.618,21.429
		C902.53,538.331,892.946,528.836,886.645,529.11z"/>
	<polygon style="fill-rule:evenodd;clip-rule:evenodd;fill:#45413F;" points="957.602,572.849 986.44,542.218 1019.944,613.544 
		1014.457,661.754 	"/>
	<path style="fill-rule:evenodd;clip-rule:evenodd;fill:#41291F;" d="M854.959,507.555c0.343-1.644,1.863,9.783,1.863,9.783
		l3.882,4.037l6.211,3.417l6.211-7.454c0,0,0.356-7.064-1.087-7.143s-7.143-3.572-7.143-3.572l-3.726-6.366L854.959,507.555z"/>
	<polygon style="fill-rule:evenodd;clip-rule:evenodd;fill:#41291F;" points="891.915,523.705 889.728,529.656 901.095,541.306 
		901.258,550.521 908.04,547.171 904.648,528.364 	"/>
	<polygon style="fill-rule:evenodd;clip-rule:evenodd;fill:#41291F;" points="927.318,534.885 931.567,543.069 940.541,547.778 
		950.299,548.239 954.337,544.823 937.877,537.369 	"/>
	<path style="fill-rule:evenodd;clip-rule:evenodd;fill:#E89454;" d="M697.854,239.034c0,0-36.348,5.973-21.324,22.541
		c15.024,16.569,37.375-3.481,37.375-3.481l-5.906,8.09c0,0,24.457,2.131,26.241,15.498c1.783,13.366-1.119,12.587-1.119,12.587
		c4.059,15.549,16.667,38.023,9.046,51.409c0,0,16.343-26.678,15.106-34.29c-1.235-7.611-24.784-43.63-24.784-43.63
		s-15.564-9.932-15.506-14.798c0.06-4.867,4.069-13.103,2.382-17.86c-1.688-4.758-7.666-4.636-7.666-4.636L697.854,239.034z"/>
	<path style="fill-rule:evenodd;clip-rule:evenodd;fill:#C46B3A;" d="M755.136,271.548c-2.251-13.544,1.652-18.506,11.712-14.883
		C760.276,254.395,756.372,259.356,755.136,271.548z"/>
	<path style="fill-rule:evenodd;clip-rule:evenodd;fill:#C46B3A;" d="M770.805,263.876c-5.691,3.654-10.052,2.609-13.082-3.138
		C763.379,264.493,767.74,265.539,770.805,263.876z"/>
	<path style="fill-rule:evenodd;clip-rule:evenodd;fill:#C46B3A;" d="M760.019,275.28c4.148-5.04,7.121-4.173,8.921,2.6
		C766.908,273.993,763.934,273.126,760.019,275.28z"/>
	<path style="fill-rule:evenodd;clip-rule:evenodd;fill:#593425;" d="M723.886,249.427c10.837-14.05,22.898-23.973,36.184-29.77
		C742.76,223.213,730.698,233.136,723.886,249.427z"/>
	<path style="fill-rule:evenodd;clip-rule:evenodd;fill:#593425;" d="M694.753,223.606c-25.16,6.573-39.963,12.856-44.409,18.852
		c7.318-5.515,21.113-9.245,41.388-11.191c19.071-5.898,20.635-11.014,4.693-15.35c-31.364,3.174-47.491,4.924-48.382,5.25
		c31.035-1.678,45.511-2.475,43.427-2.39c-23.411,3.281-37.057,6.311-40.937,9.09C676.092,221.87,690.832,220.449,694.753,223.606z"
		/>
	<path style="fill-rule:evenodd;clip-rule:evenodd;fill:#593425;" d="M723.422,371.985c-1.982,3.085-1.612,8.105,1.113,15.059
		c-4.238-3.375-6.707-10.892-7.406-22.552c11.917,6.848,23.88-2.248,35.891-27.288c-6.073,17.707-14.259,28.632-24.561,32.775
		c1.129,10.893,3.909,18.49,8.34,22.792C728.409,385.833,723.949,378.905,723.422,371.985z"/>
	<path style="fill-rule:evenodd;clip-rule:evenodd;fill:#C98550;" d="M733.482,624.789c8.298-0.403,11.174-4.546,8.63-12.426
		C750.705,622.708,744.478,628.193,733.482,624.789z"/>
	<polygon style="fill-rule:evenodd;clip-rule:evenodd;fill:#54504E;" points="739.11,647.379 687.206,555.374 688.257,525.005 
		665.181,514.009 462.65,515.629 417.587,611.563 424.244,673.168 599.215,643.818 649.178,665.183 	"/>
	<path style="fill-rule:evenodd;clip-rule:evenodd;fill:#2E2B2A;" d="M479.187,523.964c0,0,14.157,12.908,19.569,16.655
		s22.906,10.862,39.501,13.985c16.595,3.124,52.012,3.963,52.012,3.963l-80.629-43.314l-46.99,0.272l-16.804,35.879l26.05-26.086
		L479.187,523.964z"/>
	<path style="fill-rule:evenodd;clip-rule:evenodd;fill:#2E2B2A;" d="M694.763,650.478c-1.56-7.875-28.921-65.778-28.921-65.778
		s-56.625-15.823-67.867-17.488c-11.241-1.665-96.998-14.737-96.998-14.737l187.28-27.47l-16.673,36.41l28.295,15.189l40.831,69.468
		L694.763,650.478z"/>
	<polygon style="fill-rule:evenodd;clip-rule:evenodd;fill:#6E6E6E;" points="576.396,384.933 600.678,505.185 501.239,550.278 
		471.176,384.933 	"/>
	<polygon style="fill-rule:evenodd;clip-rule:evenodd;fill:#969696;" points="699.763,514.303 641.329,568.655 501.027,551.358 
		500.548,546.479 600.678,505.185 700.581,507.759 	"/>
	<polygon style="fill-rule:evenodd;clip-rule:evenodd;fill:#65C7BC;" points="482.65,393.302 508.392,538.407 594.762,501.066 
		572.711,391.438 	"/>
	<polygon style="fill-rule:evenodd;clip-rule:evenodd;fill:#85A7A3;" points="638.547,560.691 500.548,546.479 600.262,503.125 
		700.581,507.759 	"/>
	<polygon style="fill-rule:evenodd;clip-rule:evenodd;fill:#54504E;" points="501.165,557.004 462.504,515.94 417.587,611.563 
		424.943,676.198 	"/>
	<polygon style="fill-rule:evenodd;clip-rule:evenodd;fill:#54504E;" points="598.519,590.205 599.215,643.818 424.943,676.198 
		509.428,562.8 597.975,567.212 	"/>
	<polygon style="fill-rule:evenodd;clip-rule:evenodd;fill:#696665;" points="490.282,559.056 462.504,515.94 509.428,562.8 
		424.943,676.198 	"/>
	<path style="fill-rule:evenodd;clip-rule:evenodd;fill:#45413F;" d="M560.05,650.387c0,0,19.783-70.736,19.75-65.519
		c-0.032,5.219,18.175-17.656,18.175-17.656l1.24,76.606L560.05,650.387z"/>
	<polygon style="fill-rule:evenodd;clip-rule:evenodd;fill:#4D4A49;" points="645.618,590.502 649.178,665.183 599.215,643.818 
		597.975,567.212 	"/>
	<polygon style="fill-rule:evenodd;clip-rule:evenodd;fill:#696665;" points="647.832,636.936 651.643,590.541 682.247,582.361 
		647.689,586.316 597.975,567.212 644.6,590.004 	"/>
	<polygon style="fill-rule:evenodd;clip-rule:evenodd;fill:#45413F;" points="467.825,538.85 471.989,564.664 462.684,608.533 
		490.282,559.056 462.65,515.629 	"/>
	<path style="fill-rule:evenodd;clip-rule:evenodd;fill:#593425;" d="M759.734,614.187c5.514,1.187,11.811,0.986,18.891-0.604
		C770.706,616.963,764.41,617.164,759.734,614.187z"/>
	<path style="fill-rule:evenodd;clip-rule:evenodd;fill:#593425;" d="M763.14,605.804c5.674,1.263,12.141,1.141,19.401-0.364
		C774.437,608.733,767.97,608.854,763.14,605.804z"/>
	<path style="fill-rule:evenodd;clip-rule:evenodd;fill:#593425;" d="M766.476,596.691c5.729,1.288,12.253,1.193,19.572-0.284
		C777.883,599.67,771.358,599.765,766.476,596.691z"/>
	<path style="fill-rule:evenodd;clip-rule:evenodd;fill:#945B44;" d="M771.273,584.45c6.032,1.431,12.876,1.485,20.531,0.166
		C783.291,587.716,776.447,587.662,771.273,584.45z"/>
	<path style="fill-rule:evenodd;clip-rule:evenodd;fill:#945B44;" d="M776.868,572.051c6.033,1.43,12.876,1.485,20.531,0.166
		C788.886,575.317,782.043,575.263,776.868,572.051z"/>
	<path style="fill-rule:evenodd;clip-rule:evenodd;fill:#945B44;" d="M782.004,559.91c6.033,1.429,12.877,1.485,20.532,0.166
		C794.023,563.176,787.179,563.12,782.004,559.91z"/>
	<path style="fill-rule:evenodd;clip-rule:evenodd;fill:#A8664C;" d="M734.514,596.258c3.639,1.195,7.869,1.241,12.691,0.138
		C741.736,598.988,737.506,598.943,734.514,596.258L734.514,596.258z M756.626,536.152c4.351,1.43,9.411,1.485,15.176,0.166
		C765.262,539.418,760.203,539.363,756.626,536.152L756.626,536.152z M751.877,548.293c4.351,1.43,9.41,1.485,15.176,0.166
		C760.514,551.559,755.455,551.505,751.877,548.293L751.877,548.293z M746.769,560.692c4.352,1.43,9.411,1.485,15.177,0.166
		C755.407,563.958,750.347,563.904,746.769,560.692L746.769,560.692z M742.265,572.933c4.138,1.287,8.972,1.193,14.502-0.284
		C750.471,575.912,745.637,576.007,742.265,572.933L742.265,572.933z M739.085,582.046c4.1,1.263,8.894,1.141,14.383-0.364
		C747.215,584.975,742.421,585.096,739.085,582.046L739.085,582.046z M735.912,590.429c3.986,1.187,8.661,0.986,14.023-0.604
		C743.812,593.205,739.138,593.406,735.912,590.429z"/>
	<polygon style="fill-rule:evenodd;clip-rule:evenodd;fill:#54504E;" points="884.987,597.612 884.467,637.602 1014.457,661.754 
		951.439,577.171 885.392,580.462 	"/>
	<polygon style="fill-rule:evenodd;clip-rule:evenodd;fill:#696665;" points="965.72,574.378 986.44,542.218 951.439,577.171 
		1014.457,661.754 	"/>
	<path style="fill-rule:evenodd;clip-rule:evenodd;fill:#2E2B2A;" d="M913.68,642.502c0,0-14.756-52.762-14.731-48.869
		c0.024,3.892-13.557-13.171-13.557-13.171l-0.925,57.14L913.68,642.502z"/>
	<path style="fill-rule:evenodd;clip-rule:evenodd;fill:#DB8848;" d="M837.822,573.864c0,0,28.666-15.329,32.548-25.422
		s0.26-20.523,0.26-20.523s6.337,6.523,6.92,16.629c0.584,10.105-9.491,24.116-9.491,24.116l-14.59,3.218L837.822,573.864z"/>
	<polygon style="fill-rule:evenodd;clip-rule:evenodd;fill:#80726B;" points="903.285,252.009 950.489,293.003 995.059,285.39 
		1000.179,366.295 945.521,327.785 	"/>
	<polygon style="fill-rule:evenodd;clip-rule:evenodd;fill:#45413F;" points="849.856,597.835 847.2,653.538 884.467,637.602 
		885.392,580.462 	"/>
	<polygon style="fill-rule:evenodd;clip-rule:evenodd;fill:#696665;" points="848.204,632.469 845.361,597.863 822.535,591.761 
		848.311,594.712 885.392,580.462 850.615,597.463 	"/>
	<polygon style="fill-rule:evenodd;clip-rule:evenodd;fill:#3B3736;" points="982.47,559.307 979.365,578.562 986.305,611.283 
		965.72,574.378 986.331,541.987 	"/>
	<path style="fill-rule:evenodd;clip-rule:evenodd;fill:#FFC799;" d="M708.873,335.864c2.632-2.832,5.182-4.532,5.697-3.797
		c0.514,0.734-1.202,3.626-3.834,6.458c-2.631,2.831-5.181,4.532-5.696,3.797C704.526,341.587,706.242,338.696,708.873,335.864z"/>
	<polygon style="fill-rule:evenodd;clip-rule:evenodd;fill:#3B3736;" points="979.434,668.995 970.949,649.598 967.554,660.023 
		961.007,660.023 960.765,675.057 972.888,673.601 	"/>
	<polygon style="fill-rule:evenodd;clip-rule:evenodd;fill:#4D4A49;" points="938.217,661.237 937.489,670.692 960.765,675.057 
		961.007,660.023 951.309,661.478 940.157,653.72 	"/>
	<polygon style="fill-rule:evenodd;clip-rule:evenodd;fill:#7A7776;" points="947.914,647.173 970.949,649.598 970.694,650.382 
		967.554,660.023 961.007,660.023 951.309,661.478 940.833,654.19 940.157,653.72 	"/>
	<path style="fill-rule:evenodd;clip-rule:evenodd;fill:#918E8C;" d="M970.489,651.01c-2.201,5.847-1.18,3.018-3.15,8.707
		c-7.728-0.112-7.711,0.047-15.948,1.391c-6.901-4.637-3.426-2.359-10.557-6.918c1.992,1.504,8.177,6.237,10.275,7.578
		c0.415,0.265,9.181-1.23,9.933-1.35c0.508-0.006,6.408-0.082,6.512-0.091C968.283,660.265,970.296,651.708,970.489,651.01z"/>
	<path style="fill-rule:evenodd;clip-rule:evenodd;fill:#918E8C;" d="M950.815,661.387c-0.007,2.485-0.277,3.369-0.051,5.94
		c0.389-2.244,0.729-3.639,0.918-5.94H950.815z"/>
	<path style="fill-rule:evenodd;clip-rule:evenodd;fill:#918E8C;" d="M966.916,659.809c0.032,1.066,0.316,4.425,0.658,4.973
		c0.301-0.483,0.164-3.675,0.173-4.726L966.916,659.809z"/>
	<path style="fill-rule:evenodd;clip-rule:evenodd;fill:#918E8C;" d="M965.519,660.002c0.044,1.519-0.075,0.774,0.358,2.234
		c0.379-1.395,0.223-0.725,0.479-2.01L965.519,660.002z"/>
	<polygon style="fill-rule:evenodd;clip-rule:evenodd;fill:#3B3736;" points="941.107,678.081 928.605,649.502 923.604,664.863 
		913.957,664.863 913.6,687.011 931.462,684.867 	"/>
	<polygon style="fill-rule:evenodd;clip-rule:evenodd;fill:#4D4A49;" points="880.379,666.649 879.306,680.581 913.6,687.011 
		913.957,664.863 899.669,667.006 883.237,655.575 	"/>
	<polygon style="fill-rule:evenodd;clip-rule:evenodd;fill:#7A7776;" points="894.668,645.93 928.605,649.502 928.228,650.657 
		923.604,664.863 913.957,664.863 899.669,667.006 884.234,656.269 883.237,655.575 	"/>
	<path style="fill-rule:evenodd;clip-rule:evenodd;fill:#918E8C;" d="M927.927,651.582c-3.244,8.615-1.739,4.446-4.641,12.829
		c-11.386-0.166-11.362,0.069-23.498,2.049c-10.167-6.832-5.048-3.476-15.554-10.191c2.934,2.216,12.048,9.189,15.139,11.164
		c0.61,0.391,13.526-1.811,14.635-1.988c0.748-0.008,9.442-0.12,9.596-0.133C924.675,665.219,927.642,652.612,927.927,651.582z"/>
	<path style="fill-rule:evenodd;clip-rule:evenodd;fill:#918E8C;" d="M898.941,666.872c-0.01,3.662-0.409,4.964-0.076,8.753
		c0.574-3.308,1.075-5.362,1.354-8.753H898.941z"/>
	<path style="fill-rule:evenodd;clip-rule:evenodd;fill:#918E8C;" d="M922.662,664.546c0.047,1.57,0.467,6.519,0.971,7.326
		c0.444-0.711,0.241-5.414,0.255-6.962L922.662,664.546z"/>
	<path style="fill-rule:evenodd;clip-rule:evenodd;fill:#918E8C;" d="M920.604,664.831c0.066,2.238-0.11,1.14,0.528,3.292
		c0.558-2.056,0.33-1.068,0.707-2.961L920.604,664.831z"/>
	<polygon style="fill-rule:evenodd;clip-rule:evenodd;fill:#3B3736;" points="364.382,620.744 371.173,605.222 373.889,613.565 
		379.128,613.565 379.322,625.595 369.621,624.43 	"/>
	<polygon style="fill-rule:evenodd;clip-rule:evenodd;fill:#4D4A49;" points="397.366,614.535 397.948,622.102 379.322,625.595 
		379.128,613.565 386.889,614.729 395.814,608.52 	"/>
	<polygon style="fill-rule:evenodd;clip-rule:evenodd;fill:#7A7776;" points="389.605,603.282 371.173,605.222 371.377,605.85 
		373.889,613.565 379.128,613.565 386.889,614.729 395.272,608.898 395.814,608.52 	"/>
	<path style="fill-rule:evenodd;clip-rule:evenodd;fill:#918E8C;" d="M371.541,606.352c1.761,4.679,0.944,2.414,2.521,6.967
		c6.185-0.09,6.171,0.037,12.762,1.113c5.522-3.71,2.742-1.887,8.448-5.535c-1.594,1.203-6.544,4.991-8.222,6.064
		c-0.332,0.212-7.347-0.985-7.949-1.081c-0.406-0.004-5.128-0.065-5.212-0.073C373.307,613.758,371.695,606.911,371.541,606.352z"/>
	<path style="fill-rule:evenodd;clip-rule:evenodd;fill:#918E8C;" d="M387.284,614.656c0.006,1.988,0.222,2.696,0.041,4.753
		c-0.312-1.795-0.584-2.911-0.735-4.753H387.284z"/>
	<path style="fill-rule:evenodd;clip-rule:evenodd;fill:#918E8C;" d="M374.4,613.393c-0.025,0.852-0.253,3.541-0.527,3.979
		c-0.241-0.386-0.13-2.94-0.138-3.782L374.4,613.393z"/>
	<polygon style="fill-rule:evenodd;clip-rule:evenodd;fill:#3B3736;" points="370.412,647.221 380.417,624.352 384.419,636.645 
		392.138,636.645 392.424,654.368 378.131,652.653 	"/>
	<polygon style="fill-rule:evenodd;clip-rule:evenodd;fill:#4D4A49;" points="419.009,638.074 419.866,649.223 392.424,654.368 
		392.138,636.645 403.572,638.359 416.722,629.212 	"/>
	<polygon style="fill-rule:evenodd;clip-rule:evenodd;fill:#7A7776;" points="407.574,621.494 380.417,624.352 380.718,625.277 
		384.419,636.645 392.138,636.645 403.572,638.359 415.924,629.767 416.722,629.212 	"/>
	<path style="fill-rule:evenodd;clip-rule:evenodd;fill:#918E8C;" d="M380.959,626.017c2.596,6.894,1.391,3.558,3.714,10.266
		c9.112-0.133,9.092,0.055,18.804,1.64c8.136-5.467,4.039-2.781,12.447-8.155c-2.349,1.773-9.641,7.354-12.115,8.934
		c-0.489,0.312-10.824-1.45-11.712-1.591c-0.599-0.007-7.555-0.096-7.679-0.107C383.561,636.93,381.187,626.841,380.959,626.017z"/>
	<path style="fill-rule:evenodd;clip-rule:evenodd;fill:#918E8C;" d="M404.155,638.252c0.008,2.93,0.328,3.972,0.061,7.004
		c-0.459-2.647-0.86-4.291-1.083-7.004H404.155z"/>
	<path style="fill-rule:evenodd;clip-rule:evenodd;fill:#918E8C;" d="M385.173,636.391c-0.038,1.257-0.373,5.217-0.777,5.862
		c-0.355-0.568-0.193-4.332-0.204-5.571L385.173,636.391z"/>
	<path style="fill-rule:evenodd;clip-rule:evenodd;fill:#918E8C;" d="M386.819,636.619c-0.052,1.791,0.088,0.913-0.422,2.634
		c-0.447-1.645-0.264-0.853-0.566-2.369L386.819,636.619z"/>
	<polygon style="fill-rule:evenodd;clip-rule:evenodd;fill:#3B3736;" points="683.231,681.514 673.956,660.314 670.246,671.709 
		663.091,671.709 662.826,688.138 676.076,686.548 	"/>
	<polygon style="fill-rule:evenodd;clip-rule:evenodd;fill:#4D4A49;" points="638.18,673.034 637.386,683.369 662.826,688.138 
		663.091,671.709 652.491,673.299 640.301,664.818 	"/>
	<polygon style="fill-rule:evenodd;clip-rule:evenodd;fill:#7A7776;" points="648.781,657.664 673.956,660.314 673.677,661.171 
		670.246,671.709 663.091,671.709 652.491,673.299 641.04,665.333 640.301,664.818 	"/>
	<path style="fill-rule:evenodd;clip-rule:evenodd;fill:#918E8C;" d="M673.454,661.856c-2.406,6.391-1.29,3.299-3.443,9.517
		c-8.447-0.122-8.429,0.051-17.432,1.521c-7.542-5.069-3.745-2.578-11.539-7.561c2.177,1.644,8.938,6.818,11.231,8.283
		c0.452,0.289,10.034-1.345,10.856-1.476c0.556-0.006,7.004-0.089,7.118-0.099C671.042,671.973,673.242,662.62,673.454,661.856z"/>
	<path style="fill-rule:evenodd;clip-rule:evenodd;fill:#918E8C;" d="M651.951,673.199c-0.008,2.715-0.303,3.682-0.056,6.492
		c0.426-2.453,0.798-3.977,1.004-6.492H651.951z"/>
	<path style="fill-rule:evenodd;clip-rule:evenodd;fill:#918E8C;" d="M669.548,671.474c0.035,1.165,0.346,4.835,0.719,5.435
		c0.329-0.528,0.179-4.016,0.189-5.165L669.548,671.474z"/>
	<path style="fill-rule:evenodd;clip-rule:evenodd;fill:#918E8C;" d="M668.022,671.685c0.048,1.661-0.082,0.846,0.391,2.442
		c0.414-1.525,0.244-0.792,0.524-2.197L668.022,671.685z"/>
	<polygon style="fill-rule:evenodd;clip-rule:evenodd;fill:#2E2B2A;" points="342.17,45.021 391.859,149.369 362.046,243.778 
		257.976,333.219 257.976,0.294 354.592,0.294 	"/>
	<polygon style="fill-rule:evenodd;clip-rule:evenodd;fill:#2E2B2A;" points="447.76,0.294 632.854,25.146 726.022,17.692 
		849.003,38.81 897.45,57.444 990.618,110.86 1099.975,110.86 1099.975,0.294 	"/>
	<polygon style="fill-rule:evenodd;clip-rule:evenodd;fill:#2E2B2A;" points="1046.519,140.674 1046.519,201.543 1081.302,268.624 
		1099.975,334.463 1070.122,549.369 1075.091,656.201 1020.434,714.587 1039.068,805.122 1099.975,805.122 1099.975,104.649 
		998.075,110.86 	"/>
	<polygon style="fill-rule:evenodd;clip-rule:evenodd;fill:#2E2B2A;" points="376.957,743.158 333.479,689.742 330.994,622.661 
		283.789,418.935 283.789,344.401 257.976,333.219 257.976,805.122 386.418,805.122 641.553,805.122 740.932,805.122 
		703.665,702.164 694.343,680.781 651.086,699.638 658.945,768.003 490.001,789.121 470.467,699.638 457.187,670.421 
		364.222,659.796 	"/>
	<polygon style="fill-rule:evenodd;clip-rule:evenodd;fill:#54504E;" points="998.073,805.122 981.903,698.265 1001.314,669.219 
		1043.728,665.085 1020.434,714.587 1039.068,805.122 	"/>
	<polygon style="fill-rule:evenodd;clip-rule:evenodd;fill:#4F4C4B;" points="752.11,782.91 763.29,715.829 918.809,694.461 
		694.729,681.666 	"/>
	<polygon style="fill-rule:evenodd;clip-rule:evenodd;fill:#4F4C4B;" points="494.967,743.779 505.525,711.482 619.811,706.512 
		634.718,723.283 640.308,708.376 656.086,743.13 651.086,699.638 470.467,699.638 	"/>
	<polygon style="fill-rule:evenodd;clip-rule:evenodd;fill:#54504E;" points="447.76,0.294 490.09,43.151 644.428,57.956 
		737.823,38.189 904.343,82.888 897.45,57.444 849.003,38.81 726.022,17.692 639.495,24.615 	"/>
	<polygon style="fill-rule:evenodd;clip-rule:evenodd;fill:#807D7C;" points="367.638,655.889 364.222,615.28 364.222,659.796 
		457.187,670.421 470.467,699.638 651.086,699.638 694.343,680.781 981.903,698.265 1001.314,669.219 1043.728,665.085 
		999.163,667.534 981.459,695.019 692.484,677.937 651.643,697.503 471.671,697.814 457.187,668.706 	"/>
	<path style="fill-rule:evenodd;clip-rule:evenodd;fill:#54504E;" d="M421.74,136.517l-51.033-31.569l21.152,44.421
		c0,0-30.769,97.436-29.813,94.41s43.442-36.096,43.442-36.096L421.74,136.517z"/>
	<polygon style="fill-rule:evenodd;clip-rule:evenodd;fill:#54504E;" points="990.924,138.031 1024.979,213.794 1046.519,201.543 
		1046.519,140.674 	"/>
	<polygon style="fill-rule:evenodd;clip-rule:evenodd;fill:#4D4A49;" points="975.396,128.714 904.343,82.888 941.61,164.424 	"/>
	<polygon style="fill-rule:evenodd;clip-rule:evenodd;fill:#54504E;" points="1065.458,298.279 1021.113,288.046 1053.411,338.019 
		1041.281,546.218 1070.122,549.369 1051.793,538.653 1099.975,334.463 	"/>
	<polygon style="fill-rule:evenodd;clip-rule:evenodd;fill:#54504E;" points="364.81,619.765 283.789,418.935 305.586,413.116 	"/>
	<path style="fill-rule:evenodd;clip-rule:evenodd;fill:#EB9F65;" d="M757.251,627.768c14.703,6.595,19.493,8.745,19.493,8.745
		c10.733,18.541,10.022,28.275-7.255,26.904c-10.516,1.5-19.551,2.435-27.106,2.804c-13.493,0.66-22.263-0.481-26.311-3.425
		c-10.621,4.328-17.248,2.982-19.878-4.037c-2.583-5.119,2.386-6.775,14.907-4.97c14.328-2.98,23.852-7.535,28.571-13.664
		C751.737,632.385,757.596,628.266,757.251,627.768z"/>
	<path style="fill-rule:evenodd;clip-rule:evenodd;fill:#C98550;" d="M757.43,652.904c8.298-0.403,11.174-4.545,8.63-12.425
		C774.653,650.823,768.426,656.309,757.43,652.904z"/>
	<path style="fill-rule:evenodd;clip-rule:evenodd;fill:#593425;" d="M758.461,620.016c5.045,1.195,10.767,1.241,17.168,0.138
		C768.51,622.746,762.787,622.701,758.461,620.016z"/>
	<polygon style="fill-rule:evenodd;clip-rule:evenodd;fill:#593425;" points="699.629,319.543 703.234,321.918 712.163,315.523 
		707.497,323.741 693.238,333.899 695.479,318.098 	"/>
	<path style="fill-rule:evenodd;clip-rule:evenodd;fill:#F78B54;" d="M690.987,275.487l-6.639-7.959l-5.655,7.339l-1.43,1.856
		c-1.488,8.857-1.329,18.082,0.307,26.647c1.967,10.298,6.07,19.641,12.008,26.234c2.161-1.497,4.116-2.969,5.863-4.414
		c3.547-2.935,6.241-5.764,8.081-8.489l2.83-6.622l8.945-7.793c0,0-0.349-0.494-0.91-1.274c-1.865-2.597-6.066-8.369-7.517-9.717
		c-1.888-1.754-1.601-0.973-3.861,1.366c-2.259,2.339-1.34,2.241-3.198,3.412c-1.858,1.171-4.404,0.074-4.404,0.074l-2.301-10.755
		L690.987,275.487z"/>
	<path style="fill-rule:evenodd;clip-rule:evenodd;fill:#E07641;" d="M690.293,327.337c0,0,7.607-5.648,9.327-8.709
		c1.719-3.061,1.221-7.315,3.781-11.202s9.165-3.332,9.165-3.332s-3.428-9.56-5.706-10.851c-2.278-1.291-4.071,1.403-4.071,1.403
		s2.198-1.293,3.332,0.327c1.135,1.62,1.87,4.054,1.87,4.054s-20.456,18.869-21.521,18.591c-1.065-0.278-3.004-2.484-3.004-2.484
		S684.645,320.749,690.293,327.337z"/>
	<path style="fill-rule:evenodd;clip-rule:evenodd;fill:#783E25;" d="M702.399,313.628c0,0-0.049-4.13,1.755-6.068
		c1.806-1.938,6.391-2.497,6.391-2.497S706.077,308.696,702.399,313.628z"/>
	<path style="fill-rule:evenodd;clip-rule:evenodd;fill:#E07641;" d="M690.987,275.487c0,0-2.661,9.363-0.075,16.558
		s5.338,8.039,5.338,8.039L690.987,275.487z"/>
	<path style="fill-rule:evenodd;clip-rule:evenodd;fill:#FFC799;" d="M678.326,292.147c-0.425-6.48-0.107-11.291,0.708-10.748
		c0.816,0.543,1.821,6.235,2.245,12.714c0.424,6.48,0.107,11.291-0.709,10.748S678.749,298.626,678.326,292.147z"/>
	<path style="fill-rule:evenodd;clip-rule:evenodd;fill:#E69353;" d="M706.999,285.426c0,0,7.316-3.251,13.485-6.97
		c6.169-3.719,7.22-4.212,7.22-4.212s-0.754,6.095-7.001,9.692C714.458,287.535,706.999,285.426,706.999,285.426z"/>
	<path style="fill-rule:evenodd;clip-rule:evenodd;fill:#41291F;" d="M684.298,264.12c-9.919-2.148-10.749-3.753-8.335-9.963
		c1.603-4.121,26.857-7.504,37.107-5.121C713.35,249.101,698.476,258.824,684.298,264.12z"/>
	<path style="fill-rule:evenodd;clip-rule:evenodd;fill:#D48452;" d="M696.424,269.677l20.591-1.464l-7.663,15.072
		c0,0-1.345,2.237-4.607-0.832c-3.261-3.07-3.699-8.323-5.357-7.703l-1.008,0.378L696.424,269.677z"/>
	<path style="fill-rule:evenodd;clip-rule:evenodd;fill:#E3D388;" d="M707.82,284.5l5.503-2.11l3.631-14.257
		c0,0-7.03,1.911-12.779,5.103c0,0-4.365-0.363-4.787,1.514C699.146,275.823,700.62,284.872,707.82,284.5z"/>
	<path style="fill-rule:evenodd;clip-rule:evenodd;fill:#783E25;" d="M693.853,277.854c0,0,7.523-3.545,13.032-5.73
		c5.51-2.185,10.28-3.724,10.28-3.724S699.393,270.383,693.853,277.854z"/>
	<path style="fill-rule:evenodd;clip-rule:evenodd;fill:#756065;" d="M705.982,276.26c3.067,0.754,7.043,6.507,4.589,7.185
		l-3.774,1.044c0,0-1.451,0.987-4.26-1.955C698.087,277.877,701.603,275.033,705.982,276.26z"/>
	<path style="fill-rule:evenodd;clip-rule:evenodd;fill:#411F30;" d="M702.536,278.281c0.652-0.758,2.354-0.36,3.802,0.887
		c1.447,1.247,2.092,2.871,1.439,3.629c-0.652,0.757-2.354,0.36-3.801-0.887C702.528,280.663,701.884,279.038,702.536,278.281z"/>
	<path style="fill-rule:evenodd;clip-rule:evenodd;fill:#EEEADA;" d="M709.467,275.401c0.567,0.33,0.517,1.476-0.113,2.559
		c-0.63,1.084-1.6,1.695-2.167,1.366s-0.517-1.475,0.113-2.559C707.929,275.683,708.9,275.072,709.467,275.401z"/>
	<path style="fill-rule:evenodd;clip-rule:evenodd;fill:#41291F;" d="M673.746,285.06c2.579-4.344,1.865-5.335-4.076-8.208
		c-3.942-1.907-15.254,6.467-17.79,11.051c-0.02,0.036,0.166,0.28,0.926,0.468C654.649,288.829,659.877,288.968,673.746,285.06z"/>
	<path style="fill-rule:evenodd;clip-rule:evenodd;fill:#783E25;" d="M706.455,284.599l5.71-1.849l4.889-14.609
		c0,0-0.294,9.445-3.263,15.074C713.193,284.348,707.645,285.134,706.455,284.599z"/>
	<path style="fill-rule:evenodd;clip-rule:evenodd;fill:#F4E9A6;" d="M706.726,329.34l2.938,3.202
		c0.55-0.425,1.128-0.894,1.723-1.394c5.694-4.785,12.981-12.459,12.981-12.459c-1.136-1.608-2.196-3.069-3.068-4.208
		l-12.987,13.242L706.726,329.34z"/>
	<polygon style="fill-rule:evenodd;clip-rule:evenodd;fill:#D6CBA0;" points="567.122,177.155 616.812,241.13 557.805,198.894 	"/>
	<polygon style="fill-rule:evenodd;clip-rule:evenodd;fill:#D6CBA0;" points="552.836,261.627 557.184,280.881 602.526,260.384 	"/>
	<polygon style="fill-rule:evenodd;clip-rule:evenodd;fill:#D6CBA0;" points="621.16,168.459 622.402,211.938 637.93,169.701 	"/>
	<path style="fill-rule:evenodd;clip-rule:evenodd;fill:#D6884D;" d="M827.304,393.834c26.515-3.112,35.167,8.987,25.961,36.292
		c-4.01,10.559-7.902,20.022-11.649,28.375c10.36,5.835,20.638,5.511,31.027,3.913c-1.377-66.792-9.414-81.646-39.006-79.146
		c-10.743,0.908-20.611,16.191-33.437,32.935c2.651,3.872,5.291,7.518,7.924,10.937
		C814.104,415.577,820.568,405.934,827.304,393.834z"/>
	<path style="fill-rule:evenodd;clip-rule:evenodd;fill:#F8AF75;" d="M655.13,485.893c9.121,0.258,15.85,0.672,20.187,1.242
		c9.73-3.502,11.334-5.728,2.018-10.093c-9.469,0.855-10.841-3.536-6.988-11.025c9.052,2.278,18.369-2.795,23.913,1.863
		c16.162,11.646,26.991,16.315,32.488,14.008c-11.168,18.399-16.751,27.6-16.751,27.6c-26.391,4.985-38.366,7.369-35.923,7.15
		c-4.384-0.581-6.661-2.549-6.832-5.901c-3.623-1.017-5.591-3.087-5.9-6.211c-2.913-1.885-4.569-4.577-4.969-8.074
		C654.785,492.359,654.371,488.84,655.13,485.893z"/>
	<path style="fill-rule:evenodd;clip-rule:evenodd;fill:#EB9F65;" d="M793.939,465.842c9.6-40.515,21.779-56.196,34.993-82.018
		c26.883-3.432,35.656,9.912,26.321,40.031c-22.954,65.782-42.201,93.011-51.843,79.014c-52.337,7.13-93.413,6.619-93.413,6.619
		c-12.877,1.602-20.719,1.845-31.539,4.217c-7.697,1.687-12.233-14.148-10.814-23.591c0.666-4.427,5.551-0.766,7.672-2.978
		c5.601-5.841,24.818,3.807,35.615,1.636C749.65,480.984,786.899,461.295,793.939,465.842z"/>
	<path style="fill-rule:evenodd;clip-rule:evenodd;fill:#F8AF75;" d="M781.684,463.581c38.508,14.462-44.515,25.308-56.43,25.683
		c-24.772,1.194-11.822-6.962-8.475-6.696C735.646,484.064,767.517,464.193,781.684,463.581z"/>
	<path style="fill-rule:evenodd;clip-rule:evenodd;fill:#F8AF75;" d="M635.571,495.085c0,0,0.113,11.761,13.59,6.376
		c13.478-5.385,21.772-13.667,21.772-13.667l20.569-1.149l-7.416-5.212l-28.957,4.461
		C655.13,485.893,638.067,492.154,635.571,495.085z"/>
	<path style="fill-rule:evenodd;clip-rule:evenodd;fill:#CC550A;" d="M827.632,522.389c0,0,23.291-22.049,30.745-34.782
		c7.454-12.734,5.435-16.15,5.125-17.858c-0.31-1.707,0.669-6.098,0.669-6.098s-16.003-2-18.596-3.208
		c-2.593-1.207-3.958-1.941-3.958-1.941s-15.241,33.073-19.794,38.333c-4.552,5.26-9.775,10.358-9.775,10.358
		S819.555,528.911,827.632,522.389z"/>
	<polygon style="fill-rule:evenodd;clip-rule:evenodd;fill:#41291F;" points="844.555,480.225 844.555,492.027 852.63,481.622 
		851.854,472.617 847.972,469.666 	"/>
	<polygon style="fill-rule:evenodd;clip-rule:evenodd;fill:#41291F;" points="874.678,474.169 880.89,490.008 885.238,490.94 
		889.275,480.07 886.946,475.256 879.493,471.995 	"/>
	<polygon style="fill-rule:evenodd;clip-rule:evenodd;fill:#41291F;" points="903.095,450.567 903.716,462.99 909.616,468.89 
		916.296,460.171 908.996,452.43 906.356,448.083 	"/>
	<polygon style="fill-rule:evenodd;clip-rule:evenodd;fill:#41291F;" points="899.679,483.332 902.473,499.791 908.684,508.487 
		914.895,500.412 914.895,492.959 904.337,481.468 	"/>
	<path style="fill-rule:evenodd;clip-rule:evenodd;fill:#593425;" d="M723.879,509.003c1.085-5.935,3.531-12.182,7.34-18.741
		C725.715,497.05,723.268,503.296,723.879,509.003z"/>
	<path style="fill-rule:evenodd;clip-rule:evenodd;fill:#593425;" d="M729.845,509.78c1.297-6.443,4.224-13.223,8.779-20.341
		C732.041,496.805,729.114,503.586,729.845,509.78z"/>
	<path style="fill-rule:evenodd;clip-rule:evenodd;fill:#593425;" d="M739.11,509.183c1.297-6.647,4.224-13.641,8.779-20.986
		C741.306,495.797,738.379,502.793,739.11,509.183z"/>
	<path style="fill-rule:evenodd;clip-rule:evenodd;fill:#593425;" d="M749.025,508.933c1.297-6.715,4.224-13.782,8.779-21.202
		C751.221,495.41,748.295,502.478,749.025,508.933z"/>
	<path style="fill-rule:evenodd;clip-rule:evenodd;fill:#945B44;" d="M762.478,508.254c1.297-7.099,4.224-14.571,8.779-22.413
		C764.674,493.957,761.747,501.428,762.478,508.254z"/>
	<path style="fill-rule:evenodd;clip-rule:evenodd;fill:#945B44;" d="M776.426,506.764c1.297-7.099,4.224-14.57,8.779-22.413
		C778.622,492.467,775.695,499.938,776.426,506.764z"/>
	<path style="fill-rule:evenodd;clip-rule:evenodd;fill:#945B44;" d="M789.935,505.677c1.297-7.099,4.224-14.57,8.779-22.413
		C792.132,491.381,789.205,498.851,789.935,505.677z"/>
	<path style="fill-rule:evenodd;clip-rule:evenodd;fill:#F8AF75;" d="M806.099,460.404c-5.898,6.941-16.193,14.13-16.193,14.13
		l-5.732-3.799c0,0,11.89-13.916,13.726-19.811c1.836-5.895,6.818-30.114,15.168-44.251c8.35-14.138,17.847-22.711,17.847-22.711
		C840.067,393.617,812.885,452.417,806.099,460.404z"/>
	<path style="fill-rule:evenodd;clip-rule:evenodd;fill:#FFC391;" d="M648.076,497.373l-6.541,2.568l-4.51-5.41l7.253-3.222
		C644.278,491.31,648.44,494.538,648.076,497.373z"/>
	<polygon style="fill-rule:evenodd;clip-rule:evenodd;fill:#3A3C52;" points="503.986,435.202 518.884,516.726 582.755,490.761 
		582.975,493.439 516.4,520.53 515.942,517.863 501.82,435.571 	"/>
	<polygon style="fill-rule:evenodd;clip-rule:evenodd;fill:#E64F4F;" points="515.715,453.771 525.219,449.995 535.765,509.864 
		525.85,513.894 	"/>
	<polygon style="fill-rule:evenodd;clip-rule:evenodd;fill:#3B3772;" points="514.698,450.046 524.754,448.131 527.36,462.469 
		517.856,466.246 	"/>
	<polygon style="fill-rule:evenodd;clip-rule:evenodd;fill:#E64F4F;" points="535.249,465.352 544.752,461.575 551.846,503.326 
		542.385,507.172 	"/>
	<polygon style="fill-rule:evenodd;clip-rule:evenodd;fill:#3B3772;" points="532.175,447.445 542.146,446.388 544.752,461.575 
		535.249,465.352 	"/>
	<polygon style="fill-rule:evenodd;clip-rule:evenodd;fill:#FDDF20;" points="534.42,460.524 543.923,456.747 544.752,461.575 
		535.249,465.352 	"/>
	<polygon style="fill-rule:evenodd;clip-rule:evenodd;fill:#E64F4F;" points="553.612,470.804 563.116,467.027 568.226,496.8 
		558.722,500.577 	"/>
	<polygon style="fill-rule:evenodd;clip-rule:evenodd;fill:#FDDF20;" points="517.817,466.018 527.321,462.241 527.735,464.656 
		518.231,468.432 	"/>
	<path style="fill-rule:evenodd;clip-rule:evenodd;fill:#E64F4F;" d="M558.189,400.91c-8.176,0-13.771,12.975-12.497,28.98
		c1.275,16.006,8.937,28.981,17.114,28.981c8.176,0,13.771-12.975,12.496-28.981C574.027,413.885,566.366,400.91,558.189,400.91z"/>
	<path style="fill-rule:evenodd;clip-rule:evenodd;fill:#FD9001;" d="M545.643,421.66l14.718,8.022l-0.247,0.134l-13.985,3.921
		c-0.185-1.259-0.332-2.543-0.436-3.846C545.465,427.031,545.457,424.269,545.643,421.66z"/>
	<path style="fill-rule:evenodd;clip-rule:evenodd;fill:#FDDF20;" d="M560.36,429.681l-14.718-8.022
		c0.325-4.552,1.242-8.637,2.623-11.953c0.913-2.194,2.029-4.052,3.309-5.487l1.908,5.487l6.932,19.946L560.36,429.681z"/>
	<path style="fill-rule:evenodd;clip-rule:evenodd;fill:#3B3772;" d="M546.128,433.737l13.985-3.921l-13.384,7.285
		C546.498,436.003,546.297,434.881,546.128,433.737z"/>
	<path style="fill-rule:evenodd;clip-rule:evenodd;fill:#25658F;" d="M560.415,429.652l-6.932-19.946l-1.908-5.487
		c1.887-2.113,4.131-3.31,6.614-3.31c4.168,0,8.202,3.371,11.324,8.797c0.237,0.411,0.469,0.835,0.695,1.269l-9.508,18.521
		L560.415,429.652z"/>
	<path style="fill-rule:evenodd;clip-rule:evenodd;fill:#FFCC58;" d="M560.699,429.497l9.508-18.521
		c1.664,3.199,3.026,7.008,3.949,11.197L560.699,429.497z"/>
	<path style="fill-rule:evenodd;clip-rule:evenodd;fill:#3A3C52;" d="M560.699,429.497l13.457-7.325
		c0.253,1.147,0.473,2.323,0.657,3.522l-14.207,3.983L560.699,429.497z"/>
	<polygon style="fill-rule:evenodd;clip-rule:evenodd;fill:#C1D4D4;" points="483.993,400.876 573.879,397.242 572.711,391.438 
		482.65,393.302 	"/>
	<polygon style="fill-rule:evenodd;clip-rule:evenodd;fill:#3C92DE;" points="546.393,514.96 513.319,528.275 507.043,530.801 
		508.392,538.407 523.008,532.088 562.932,514.827 594.762,501.066 593.724,495.905 	"/>
	<path style="fill-rule:evenodd;clip-rule:evenodd;fill:#616161;" d="M604.318,546.136c0,0,49.945-37.283,49.96-35.466
		c0.014,1.817-51.553-2.795-51.864-2.485c-0.31,0.31-76.725,35.866-77.64,33.851C523.86,540.021,604.318,546.136,604.318,546.136z"
		/>
	<polygon style="fill-rule:evenodd;clip-rule:evenodd;fill:#768281;" points="624.773,535.358 646.356,519.829 676.015,522.47 
		655.673,538.93 	"/>
	<path style="fill-rule:evenodd;clip-rule:evenodd;fill:#85A7A3;" d="M647.832,516.331l-11.957,0.156l-26.553,18.478l11.335,1.864
		c0,0-14.64-1.446-14.519-0.621c0.121,0.824,29.504-20.964,29.504-20.964L647.832,516.331z"/>
	<polygon style="fill-rule:evenodd;clip-rule:evenodd;fill:#85A7A3;" points="581.449,546.456 635.487,508.567 578.344,546.301 	"/>
	<path style="fill-rule:evenodd;clip-rule:evenodd;fill:#85A7A3;" d="M564.538,544.744c0,0,64.24-36.314,64.272-37.573
		c0.032-1.261-68.157,38.865-68.323,37.733C560.321,543.771,564.538,544.744,564.538,544.744z"/>
	<path style="fill-rule:evenodd;clip-rule:evenodd;fill:#85A7A3;" d="M542.629,543.816c0,0,73.267-36.296,73.293-37.267
		c0.025-0.971-70.653,38.043-70.653,38.043L542.629,543.816z"/>
	<path style="fill-rule:evenodd;clip-rule:evenodd;fill:#85A7A3;" d="M537.971,535.741l66.305,4.348c0,0-64.654-7.238-64.752-5.745
		C539.426,535.837,537.971,535.741,537.971,535.741z"/>
	<polygon style="fill-rule:evenodd;clip-rule:evenodd;fill:#85A7A3;" points="552.256,528.754 607.847,532.636 553.523,526.569 	"/>
	<polygon style="fill-rule:evenodd;clip-rule:evenodd;fill:#A3B5B3;" points="574.426,554.088 637.66,557.791 685.426,520.69 
		638.547,560.691 	"/>
	<path style="fill-rule:evenodd;clip-rule:evenodd;fill:#D6884D;" d="M662.182,392.744l12.933-0.993l5.714-10.134
		c0,0-1.203,12.313,2.407,16.282c3.609,3.968,38.534,12.058,38.534,12.058l-1.273,26.158c0,0-49.492-19.2-56.461-20.349
		c-6.968-1.149-10.935-4.825-7.78-7.512c3.156-2.687,3.156-2.687,3.156-2.687l-10.713-9.931c-5.489-7.445-27.434-53.42-27.434-53.42
		S650.902,390.455,662.182,392.744z"/>
	<path style="fill-rule:evenodd;clip-rule:evenodd;fill:#F8AF75;" d="M616.314,288.023l4.012,4.982l6.166-2.909l-4.273-5.855
		C622.22,284.241,617.364,285.367,616.314,288.023z"/>
	<path style="fill-rule:evenodd;clip-rule:evenodd;fill:#F8AF75;" d="M610.496,297.395l4.012,4.208l6.166-4.099l-4.273-5.031
		C616.402,292.473,611.546,294.536,610.496,297.395z"/>
	<path style="fill-rule:evenodd;clip-rule:evenodd;fill:#F8AF75;" d="M605.514,307.556l4.013,4.207l6.166-4.098l-4.272-5.031
		C611.421,302.633,606.565,304.697,605.514,307.556z"/>
	<path style="fill-rule:evenodd;clip-rule:evenodd;fill:#CC550A;" d="M741.893,411.884c-4.746,2.398-13.577-2.087-13.577-2.087
		c-2.26,7.609-4.98,15.933-7.702,23.922l-0.116,2.398c0,0-0.014-0.005-0.039-0.015l-0.138,2.83l-1.02,20.991l14.504-2.001
		l3.508-0.484l2.795-6.211l4.038,6.832l4.969-16.77c0,0,20.808,25.776,23.639,15.661c2.831-10.116,7.728-3.549,15.181-4.791
		c1.929-0.322,2.887-4.135,3.25-9.611c1.433,4.052,2.989,8.272,4.606,12.662l8.024-25.891c0.032-0.107,0.066-0.214,0.099-0.32
		c0.071-0.229,0.141-0.459,0.213-0.689l-0.564-1.082l-15.107-28.992l-11.875,1.5l-9.753,6.025c0,0-3.106,1.552-5.901,4.348
		c-2.794,2.795-8.074-4.037-8.074-4.037s-6.131,3.372-10.866,5.767C741.954,411.853,741.924,411.869,741.893,411.884z"/>
	<polygon style="fill-rule:evenodd;clip-rule:evenodd;fill:#41291F;" points="774.621,423.276 777.402,439.646 783.578,448.295 
		789.756,440.264 789.756,432.851 779.254,421.422 	"/>
	<polygon style="fill-rule:evenodd;clip-rule:evenodd;fill:#41291F;" points="727.968,432.221 729.921,420.719 734.262,414.643 
		738.602,420.285 738.602,425.493 731.223,433.523 	"/>
	<polygon style="fill-rule:evenodd;clip-rule:evenodd;fill:#41291F;" points="761.856,393.648 761.856,405.449 769.931,395.045 
		769.154,386.039 765.272,383.088 	"/>
	<polygon style="fill-rule:evenodd;clip-rule:evenodd;fill:#41291F;" points="844.555,480.225 844.555,492.027 852.63,481.622 
		851.854,472.617 847.972,469.666 	"/>
	<polygon style="fill-rule:evenodd;clip-rule:evenodd;fill:#41291F;" points="747.798,428.071 746.777,430.85 752.087,436.291 
		752.163,440.596 755.33,439.031 753.746,430.246 	"/>
	<path style="fill-rule:evenodd;clip-rule:evenodd;fill:#FFC391;" d="M670.348,466.017c-0.135,0.263-0.263,0.521-0.385,0.775
		c0.399,1.473,1.175,2.945,2.684,3.095c3.105,0.31,8.54,0.31,8.54,0.31l-0.382-3.856
		C677.437,466.676,673.873,466.905,670.348,466.017z"/>
	<path style="fill-rule:evenodd;clip-rule:evenodd;fill:#FFC391;" d="M695.861,652.225c-0.168,0.324-0.327,0.645-0.477,0.959
		c0.493,1.823,1.454,3.644,3.322,3.831c3.844,0.384,10.569,0.384,10.569,0.384l-0.473-4.773
		C704.634,653.041,700.223,653.323,695.861,652.225z"/>
	<path style="fill-rule:evenodd;clip-rule:evenodd;fill:#A8664C;" d="M621.596,330.803c-2.99,1.777-5.617,4.778-7.881,9.005
		C615.435,334.079,618.062,331.077,621.596,330.803L621.596,330.803z M646.003,388.548c-3.576,2.124-6.718,5.714-9.425,10.769
		C638.635,392.466,641.776,388.876,646.003,388.548L646.003,388.548z M641.246,376.682c-3.576,2.124-6.718,5.714-9.425,10.769
		C633.877,380.599,637.019,377.009,641.246,376.682L641.246,376.682z M636.546,364.378c-3.576,2.125-6.718,5.714-9.425,10.769
		C629.178,368.295,632.319,364.705,636.546,364.378L636.546,364.378z M631.577,352.617c-3.355,2.07-6.264,5.604-8.726,10.599
		C624.655,356.426,627.563,352.893,631.577,352.617L631.577,352.617z M627.77,343.985c-3.975,0.267-6.843,3.789-8.602,10.568
		C621.587,349.569,624.454,346.046,627.77,343.985L627.77,343.985z M624.422,335.867c-3.863,0.239-6.607,3.732-8.231,10.477
		C618.48,341.392,621.223,337.9,624.422,335.867z"/>
	<path style="fill-rule:evenodd;clip-rule:evenodd;fill:#33221A;" d="M775.218,283.991l-1.412-0.199l1.97,3.018l7.928,12.15
		l18.685,28.635l-1.065-15.691l-0.258-3.793l-0.134-1.991l19.431,30.999l-6.998-29.643l21.695,12.293l-18.987-56.026l-6.76-8.801
		c-0.117,7.225-0.509,19.151-1.814,18.281c-1.863-1.242-21.303-19.66-21.303-19.66l0.002,0.008l11.364,32.696l-3.319-4.424
		l-5.998-7.998l-0.792,7.443l-0.464,4.368l-1.876-0.265l-2.354-0.333L775.218,283.991z"/>
	<polygon style="fill-rule:evenodd;clip-rule:evenodd;fill:#4D4542;" points="476.78,388.8 471.176,384.933 500.548,546.479 
		505.605,544.281 	"/>
	<path style="fill-rule:evenodd;clip-rule:evenodd;fill:#41291F;" d="M738.269,186.623c0,0,5.47,13.687,3.606,21.295
		c-1.863,7.609-3.916,16.904-3.916,16.904s17.701-13.044,26.708-13.354c9.006-0.311,12.733,0.31,12.733,0.31
		s-8.318-4.48-13.354-5.435c-5.035-0.955-15.217,4.503-15.217,4.503S755.976,193.863,738.269,186.623z"/>
	<path style="fill-rule:evenodd;clip-rule:evenodd;fill:#41291F;" d="M736.888,194.737l-2.821,14.651l6.081,13.144
		C740.149,222.532,745.946,205.496,736.888,194.737z"/>
	<path style="fill-rule:evenodd;clip-rule:evenodd;fill:#FFC391;" d="M644.843,281.244c-0.258-0.128-0.513-0.25-0.763-0.366
		c-1.49,0.185-2.993,0.664-3.198,1.826c-0.422,2.391-0.616,6.622-0.616,6.622l3.877,0.03
		C643.93,286.707,643.829,283.912,644.843,281.244z"/>
</g>
</svg>
