<?xml version="1.0" encoding="iso-8859-1"?>
<!-- Generator: Adobe Illustrator 26.2.1, SVG Export Plug-In . SVG Version: 6.00 Build 0)  -->
<!DOCTYPE svg PUBLIC "-//W3C//DTD SVG 1.1//EN" "http://www.w3.org/Graphics/SVG/1.1/DTD/svg11.dtd" [
	<!ENTITY ns_extend "http://ns.adobe.com/Extensibility/1.0/">
	<!ENTITY ns_ai "http://ns.adobe.com/AdobeIllustrator/10.0/">
	<!ENTITY ns_graphs "http://ns.adobe.com/Graphs/1.0/">
	<!ENTITY ns_vars "http://ns.adobe.com/Variables/1.0/">
	<!ENTITY ns_imrep "http://ns.adobe.com/ImageReplacement/1.0/">
	<!ENTITY ns_sfw "http://ns.adobe.com/SaveForWeb/1.0/">
	<!ENTITY ns_custom "http://ns.adobe.com/GenericCustomNamespace/1.0/">
	<!ENTITY ns_adobe_xpath "http://ns.adobe.com/XPath/1.0/">
]>
<svg version="1.1" id="Layer_1" xmlns:x="&ns_extend;" xmlns:i="&ns_ai;" xmlns:graph="&ns_graphs;"
	 xmlns="http://www.w3.org/2000/svg" xmlns:xlink="http://www.w3.org/1999/xlink" x="0px" y="0px" viewBox="0 0 866.699 417.12"
	 style="enable-background:new 0 0 866.699 417.12;" xml:space="preserve">
<metadata>
	<sfw  xmlns="&ns_sfw;">
		<slices></slices>
		<sliceSourceBounds  bottomLeftOrigin="true" height="417.12" width="866.699" x="-165.024" y="-541.31"></sliceSourceBounds>
	</sfw>
</metadata>
<radialGradient id="SVGID_1_" cx="1536.2742" cy="837.4804" r="1248.2024" gradientTransform="matrix(0.9407 0 0 0.7197 -135.801 40.0955)" gradientUnits="userSpaceOnUse">
	<stop  offset="0" style="stop-color:#2D317A"/>
	<stop  offset="0.9721" style="stop-color:#131740"/>
	<stop  offset="1" style="stop-color:#12163F"/>
</radialGradient>
<path style="fill:url(#SVGID_1_);" d="M863.525,417.12H3.175c-1.753,0-3.175-1.421-3.175-3.175V3.175C0,1.421,1.421,0,3.175,0
	h860.35c1.753,0,3.175,1.421,3.175,3.175v410.77C866.699,415.698,865.278,417.12,863.525,417.12z"/>
<g>
	<g>
		
			<linearGradient id="SVGID_00000023270129308707377950000002600097335632166539_" gradientUnits="userSpaceOnUse" x1="224.7602" y1="419.1288" x2="690.2812" y2="99.576">
			<stop  offset="0" style="stop-color:#367FC2"/>
			<stop  offset="1" style="stop-color:#37C1E8"/>
		</linearGradient>
		<path style="fill:url(#SVGID_00000023270129308707377950000002600097335632166539_);" d="M280.154,407.297l-37.717-5.038
			l-10.428-19.527l28.061-14.035l37.717,5.04l10.427,19.525L280.154,407.297z M243.331,400.972l36.582,4.884l26.394-13.2
			l-9.413-17.631l-36.584-4.885l-26.395,13.199L243.331,400.972z"/>
	</g>
	<g>
		
			<linearGradient id="SVGID_00000042726412337628874950000012660721708335389094_" gradientUnits="userSpaceOnUse" x1="221.2183" y1="413.9697" x2="686.7383" y2="94.4176">
			<stop  offset="0" style="stop-color:#367FC2"/>
			<stop  offset="1" style="stop-color:#37C1E8"/>
		</linearGradient>
		<path style="fill:url(#SVGID_00000042726412337628874950000012660721708335389094_);" d="M540.458,353.257
			c-0.107,0-0.215-0.023-0.315-0.074L275.478,219.404c-0.344-0.174-0.482-0.595-0.308-0.939c0.172-0.345,0.591-0.483,0.938-0.309
			l264.665,133.779c0.344,0.174,0.481,0.595,0.308,0.939C540.958,353.117,540.713,353.257,540.458,353.257z"/>
	</g>
	<g>
		
			<linearGradient id="SVGID_00000082346379929383583210000002330382500838007989_" gradientUnits="userSpaceOnUse" x1="231.8155" y1="429.4072" x2="697.3362" y2="109.8547">
			<stop  offset="0" style="stop-color:#367FC2"/>
			<stop  offset="1" style="stop-color:#37C1E8"/>
		</linearGradient>
		<path style="fill:url(#SVGID_00000082346379929383583210000002330382500838007989_);" d="M666.98,289.118
			c-0.107,0-0.215-0.024-0.315-0.074L402,155.266c-0.344-0.174-0.481-0.594-0.308-0.938c0.174-0.345,0.595-0.484,0.939-0.308
			l264.665,133.777c0.344,0.174,0.481,0.595,0.309,0.939C667.48,288.979,667.235,289.118,666.98,289.118z"/>
	</g>
	<g>
		
			<linearGradient id="SVGID_00000118375880978486094550000012912386030737932696_" gradientUnits="userSpaceOnUse" x1="300.1113" y1="528.8986" x2="765.6312" y2="209.3466">
			<stop  offset="0" style="stop-color:#367FC2"/>
			<stop  offset="1" style="stop-color:#37C1E8"/>
		</linearGradient>
		<path style="fill:url(#SVGID_00000118375880978486094550000012912386030737932696_);" d="M540.458,353.257
			c-0.255,0-0.5-0.139-0.622-0.382c-0.174-0.344-0.037-0.763,0.307-0.937l126.522-64.139c0.339-0.174,0.763-0.039,0.937,0.307
			c0.174,0.344,0.037,0.763-0.307,0.937l-126.522,64.139C540.673,353.233,540.565,353.257,540.458,353.257z"/>
	</g>
	<g>
		
			<linearGradient id="SVGID_00000011752377163810860670000014852843404406912185_" gradientUnits="userSpaceOnUse" x1="205.5464" y1="391.1379" x2="671.0673" y2="71.5853">
			<stop  offset="0" style="stop-color:#367FC2"/>
			<stop  offset="1" style="stop-color:#37C1E8"/>
		</linearGradient>
		<path style="fill:url(#SVGID_00000011752377163810860670000014852843404406912185_);" d="M370.435,267.317
			c-0.255,0-0.5-0.139-0.622-0.382c-0.174-0.344-0.037-0.763,0.307-0.937l126.254-64.003c0.34-0.176,0.763-0.038,0.937,0.307
			c0.174,0.344,0.037,0.763-0.307,0.937l-126.254,64.003C370.65,267.294,370.543,267.317,370.435,267.317z"/>
	</g>
	<g>
		
			<linearGradient id="SVGID_00000104696101329175955030000002980099643737204897_" gradientUnits="userSpaceOnUse" x1="233.1978" y1="431.4205" x2="698.7184" y2="111.8681">
			<stop  offset="0" style="stop-color:#367FC2"/>
			<stop  offset="1" style="stop-color:#37C1E8"/>
		</linearGradient>
		<path style="fill:url(#SVGID_00000104696101329175955030000002980099643737204897_);" d="M297.436,375.092
			c-0.254,0-0.5-0.139-0.623-0.381c-0.175-0.344-0.038-0.763,0.305-0.939l146.801-74.909c0.339-0.174,0.763-0.039,0.939,0.305
			c0.174,0.344,0.039,0.763-0.305,0.939l-146.801,74.909C297.651,375.069,297.543,375.092,297.436,375.092z"/>
	</g>
	<g>
		
			<linearGradient id="SVGID_00000048464620104037817390000000192766231748543372_" gradientUnits="userSpaceOnUse" x1="292.3677" y1="182.7811" x2="491.5361" y2="-44.1583">
			<stop  offset="0" style="stop-color:#367FC2"/>
			<stop  offset="1" style="stop-color:#37C1E8"/>
		</linearGradient>
		<path style="fill:url(#SVGID_00000048464620104037817390000000192766231748543372_);" d="M344.03,84.602
			c-0.255,0-0.5-0.14-0.622-0.383c-0.174-0.344-0.037-0.764,0.307-0.938l126.522-64.139c0.339-0.174,0.764-0.038,0.937,0.308
			c0.174,0.344,0.037,0.764-0.307,0.938L344.345,84.526C344.244,84.577,344.137,84.602,344.03,84.602z"/>
	</g>
	<g>
		
			<linearGradient id="SVGID_00000160165833743151498440000002452643326999851157_" gradientUnits="userSpaceOnUse" x1="152.9249" y1="314.4789" x2="618.4449" y2="-5.0732">
			<stop  offset="0" style="stop-color:#367FC2"/>
			<stop  offset="1" style="stop-color:#37C1E8"/>
		</linearGradient>
		<path style="fill:url(#SVGID_00000160165833743151498440000002452643326999851157_);" d="M275.794,219.478
			c-0.255,0-0.501-0.139-0.624-0.382c-0.174-0.344-0.037-0.763,0.308-0.937L402,154.02c0.34-0.172,0.763-0.039,0.937,0.308
			c0.174,0.344,0.037,0.764-0.307,0.938l-126.522,64.137C276.008,219.455,275.9,219.478,275.794,219.478z"/>
	</g>
	<g>
		<polygon style="fill:#A2C6E9;" points="545.75,334.339 505.754,354.397 466.984,335.007 506.98,314.95 		"/>
		<polygon style="fill:#5467B0;" points="505.754,354.397 505.754,358.966 466.984,339.577 466.984,335.007 		"/>
		<polygon style="fill:#303996;" points="505.754,354.397 505.754,358.966 545.75,338.909 545.75,334.339 		"/>
	</g>
	<g>
		<g>
			<polygon style="fill:#A2C6E9;" points="421.109,72.514 521.862,122.79 523.387,121.969 422.633,71.693 			"/>
			<polygon style="fill:#708EC9;" points="521.862,201.921 523.387,201.1 523.387,121.969 521.862,122.79 			"/>
			
				<linearGradient id="SVGID_00000018944101630899137830000005268001426970705807_" gradientUnits="userSpaceOnUse" x1="359.5543" y1="182.7648" x2="568.3977" y2="97.7822">
				<stop  offset="0" style="stop-color:#74A8DA"/>
				<stop  offset="1" style="stop-color:#6491CC"/>
			</linearGradient>
			<polygon style="opacity:0.6;fill:url(#SVGID_00000018944101630899137830000005268001426970705807_);" points="421.109,151.645 
				521.862,201.921 521.862,122.79 421.109,72.514 			"/>
		</g>
		<g>
			<g>
				
					<linearGradient id="SVGID_00000057145432189619359240000012093866968875056822_" gradientUnits="userSpaceOnUse" x1="447.7006" y1="197.51" x2="574.3027" y2="111.2077">
					<stop  offset="0" style="stop-color:#D43467"/>
					<stop  offset="1" style="stop-color:#E44C9B"/>
				</linearGradient>
				<polygon style="fill:url(#SVGID_00000057145432189619359240000012093866968875056822_);" points="508.642,161.119 
					514.689,164.143 514.689,146.694 508.642,143.67 				"/>
				
					<linearGradient id="SVGID_00000150792992395970517200000014130580643996842374_" gradientUnits="userSpaceOnUse" x1="432.7791" y1="175.6206" x2="559.3818" y2="89.318">
					<stop  offset="0" style="stop-color:#D43467"/>
					<stop  offset="1" style="stop-color:#E44C9B"/>
				</linearGradient>
				<polygon style="fill:url(#SVGID_00000150792992395970517200000014130580643996842374_);" points="488.838,142.558 
					494.885,145.582 494.885,128.133 488.838,125.108 				"/>
				
					<linearGradient id="SVGID_00000049220565001720507870000011718613223620825759_" gradientUnits="userSpaceOnUse" x1="425.778" y1="165.3504" x2="552.3807" y2="79.0478">
					<stop  offset="0" style="stop-color:#D43467"/>
					<stop  offset="1" style="stop-color:#E44C9B"/>
				</linearGradient>
				<polygon style="fill:url(#SVGID_00000049220565001720507870000011718613223620825759_);" points="478.936,134.265 
					484.983,137.289 484.983,119.84 478.936,116.816 				"/>
				
					<linearGradient id="SVGID_00000168800966157809153000000016232526770657056392_" gradientUnits="userSpaceOnUse" x1="418.2904" y1="154.3667" x2="544.8939" y2="68.0636">
					<stop  offset="0" style="stop-color:#D43467"/>
					<stop  offset="1" style="stop-color:#E44C9B"/>
				</linearGradient>
				<polygon style="fill:url(#SVGID_00000168800966157809153000000016232526770657056392_);" points="459.132,129.625 
					465.18,132.649 465.18,119.304 459.132,116.28 				"/>
				
					<linearGradient id="SVGID_00000094617126153867428980000014186575218879640234_" gradientUnits="userSpaceOnUse" x1="410.3313" y1="142.6906" x2="536.934" y2="56.3879">
					<stop  offset="0" style="stop-color:#D43467"/>
					<stop  offset="1" style="stop-color:#E44C9B"/>
				</linearGradient>
				<polygon style="fill:url(#SVGID_00000094617126153867428980000014186575218879640234_);" points="439.329,127.286 
					445.376,130.31 445.376,114.439 439.329,111.415 				"/>
				
					<linearGradient id="SVGID_00000106105600608236183510000017434135648051027878_" gradientUnits="userSpaceOnUse" x1="399.7476" y1="127.165" x2="526.3507" y2="40.8621">
					<stop  offset="0" style="stop-color:#D43467"/>
					<stop  offset="1" style="stop-color:#E44C9B"/>
				</linearGradient>
				<polygon style="fill:url(#SVGID_00000106105600608236183510000017434135648051027878_);" points="429.427,109.505 
					435.474,112.529 435.474,100.24 429.427,97.215 				"/>
				
					<linearGradient id="SVGID_00000009548575770889730080000009594137425520432536_" gradientUnits="userSpaceOnUse" x1="406.8553" y1="137.5915" x2="533.4578" y2="51.289">
					<stop  offset="0" style="stop-color:#D43467"/>
					<stop  offset="1" style="stop-color:#E44C9B"/>
				</linearGradient>
				<polygon style="fill:url(#SVGID_00000009548575770889730080000009594137425520432536_);" points="449.231,112.571 
					455.278,115.595 455.278,100.717 449.231,97.693 				"/>
				
					<linearGradient id="SVGID_00000178192747306977965680000009618702331150407831_" gradientUnits="userSpaceOnUse" x1="427.8449" y1="168.3822" x2="554.4477" y2="82.0795">
					<stop  offset="0" style="stop-color:#D43467"/>
					<stop  offset="1" style="stop-color:#E44C9B"/>
				</linearGradient>
				<polygon style="fill:url(#SVGID_00000178192747306977965680000009618702331150407831_);" points="469.034,144.145 
					475.081,147.169 475.081,132.341 469.034,129.317 				"/>
				
					<linearGradient id="SVGID_00000065781640566023548830000009612821804441465784_" gradientUnits="userSpaceOnUse" x1="437.2321" y1="182.1533" x2="563.8354" y2="95.8503">
					<stop  offset="0" style="stop-color:#D43467"/>
					<stop  offset="1" style="stop-color:#E44C9B"/>
				</linearGradient>
				<polygon style="fill:url(#SVGID_00000065781640566023548830000009612821804441465784_);" points="498.74,145.999 
					504.787,149.023 504.787,130.329 498.74,127.304 				"/>
			</g>
			<g>
				<polygon style="fill:#FFFFFF;" points="508.642,188.633 514.689,191.657 514.689,161.086 508.642,158.061 				"/>
				<polygon style="fill:#FFFFFF;" points="498.74,183.681 504.787,186.705 504.787,149.023 498.74,145.999 				"/>
				<polygon style="fill:#FFFFFF;" points="488.838,178.729 494.885,181.753 494.885,138.762 488.838,135.738 				"/>
				<polygon style="fill:#FFFFFF;" points="478.936,173.777 484.983,176.801 484.983,137.289 478.936,134.265 				"/>
				<polygon style="fill:#FFFFFF;" points="469.034,168.825 475.082,171.849 475.082,147.169 469.034,144.145 				"/>
				<polygon style="fill:#FFFFFF;" points="459.132,163.873 465.18,166.897 465.18,132.649 459.132,129.625 				"/>
				<polygon style="fill:#FFFFFF;" points="449.231,158.921 455.278,161.945 455.278,115.595 449.231,112.571 				"/>
				<polygon style="fill:#FFFFFF;" points="439.329,153.969 445.376,156.993 445.376,130.31 439.329,127.286 				"/>
				<polygon style="fill:#FFFFFF;" points="429.427,149.017 435.474,152.041 435.474,112.529 429.427,109.505 				"/>
			</g>
		</g>
	</g>
	<g>
		<path style="fill:#A2C6E9;" d="M560.701,322.944v6.989h0c0,3.14,2.395,6.28,7.185,8.675c9.581,4.791,25.114,4.791,34.694,0
			c4.79-2.396,7.185-5.535,7.185-8.675l0,0v-6.989H560.701z"/>
		
			<linearGradient id="SVGID_00000085933034638402956200000007594721259248779395_" gradientUnits="userSpaceOnUse" x1="560.7006" y1="332.1921" x2="609.766" y2="332.1921">
			<stop  offset="0" style="stop-color:#5266AF"/>
			<stop  offset="1" style="stop-color:#323B97"/>
		</linearGradient>
		<path style="fill:url(#SVGID_00000085933034638402956200000007594721259248779395_);" d="M560.701,322.563v6.989h0
			c0,3.14,2.395,6.28,7.185,8.675c9.581,4.791,25.114,4.791,34.694,0c4.79-2.396,7.185-5.536,7.185-8.675l0,0v-6.989H560.701z"/>
		<path style="fill:#A2C6E9;" d="M602.581,313.888c9.581,4.791,9.581,12.56,0,17.351c-9.581,4.791-25.114,4.791-34.694,0
			c-9.581-4.791-9.581-12.56,0-17.351C577.467,309.096,593,309.096,602.581,313.888z"/>
		<path style="fill:#A2C6E9;" d="M602.581,313.456c9.581,4.791,9.581,12.56,0,17.351c-9.581,4.791-25.114,4.791-34.694,0
			c-9.581-4.791-9.581-12.56,0-17.351C577.467,308.665,593,308.665,602.581,313.456z"/>
		<ellipse style="fill:#FFFFFF;" cx="585.233" cy="322.132" rx="19.025" ry="9.514"/>
		<path style="fill:#264999;" d="M598.69,315.346c-7.432-3.717-19.481-3.717-26.913,0c-5.151,2.576-6.725,6.261-4.735,9.518
			c0.881-1.442,2.454-2.801,4.735-3.941c7.432-3.717,19.481-3.717,26.913,0c2.28,1.14,3.854,2.499,4.735,3.941
			C605.415,321.607,603.841,317.922,598.69,315.346z"/>
	</g>
	<g>
		<path style="fill:#A2C6E9;" d="M619.366,270.507v4.618l0,0c0,2.075,1.583,4.15,4.748,5.733c6.331,3.166,16.595,3.166,22.926,0
			c3.166-1.583,4.748-3.658,4.748-5.733l0,0v-4.618H619.366z"/>
		
			<linearGradient id="SVGID_00000032628600934799622020000015175305519632040630_" gradientUnits="userSpaceOnUse" x1="619.3655" y1="276.6177" x2="651.7878" y2="276.6177">
			<stop  offset="0" style="stop-color:#5266AF"/>
			<stop  offset="1" style="stop-color:#323B97"/>
		</linearGradient>
		<path style="fill:url(#SVGID_00000032628600934799622020000015175305519632040630_);" d="M619.366,270.255v4.618l0,0
			c0,2.075,1.583,4.15,4.748,5.733c6.331,3.166,16.595,3.166,22.926,0c3.166-1.583,4.748-3.658,4.748-5.733l0,0v-4.618H619.366z"/>
		<path style="fill:#A2C6E9;" d="M647.04,264.522c6.331,3.166,6.331,8.299,0,11.465c-6.331,3.166-16.595,3.166-22.926,0
			c-6.331-3.166-6.331-8.299,0-11.465C630.445,261.356,640.709,261.356,647.04,264.522z"/>
		<path style="fill:#A2C6E9;" d="M647.04,264.237c6.331,3.166,6.331,8.299,0,11.465c-6.331,3.166-16.595,3.166-22.926,0
			c-6.331-3.166-6.331-8.299,0-11.465C630.445,261.071,640.709,261.071,647.04,264.237z"/>
		<path style="fill:#FFFFFF;" d="M644.466,265.524c4.909,2.455,4.909,6.436,0,8.891c-4.91,2.455-12.869,2.455-17.779,0
			c-4.91-2.455-4.91-6.436,0-8.891C631.597,263.069,639.556,263.069,644.466,265.524z"/>
		<path style="fill:#264999;" d="M644.469,265.486c-4.911-2.456-12.873-2.456-17.784,0c-3.404,1.702-4.444,4.137-3.129,6.289
			c0.582-0.953,1.622-1.851,3.129-2.604c4.911-2.456,12.873-2.456,17.784,0c1.507,0.754,2.547,1.651,3.129,2.604
			C648.912,269.623,647.873,267.188,644.469,265.486z"/>
	</g>
	<g>
		<path style="fill:#A2C6E9;" d="M420.336,295.479v5.411l0,0c0,2.431,1.854,4.862,5.563,6.716c7.417,3.709,19.443,3.709,26.86,0
			c3.708-1.855,5.563-4.285,5.563-6.716l0,0v-5.411H420.336z"/>
		
			<linearGradient id="SVGID_00000169532910711821392060000011124300490265228213_" gradientUnits="userSpaceOnUse" x1="420.3361" y1="302.6385" x2="458.3211" y2="302.6385">
			<stop  offset="0" style="stop-color:#5266AF"/>
			<stop  offset="1" style="stop-color:#323B97"/>
		</linearGradient>
		<path style="fill:url(#SVGID_00000169532910711821392060000011124300490265228213_);" d="M420.336,295.184v5.411l0,0
			c0,2.431,1.854,4.862,5.563,6.716c7.417,3.709,19.443,3.709,26.86,0c3.708-1.855,5.563-4.286,5.563-6.716l0,0v-5.411H420.336z"/>
		<path style="fill:#A2C6E9;" d="M452.758,288.468c7.417,3.709,7.417,9.723,0,13.433c-7.417,3.709-19.442,3.709-26.86,0
			c-7.417-3.709-7.417-9.723,0-13.433C433.316,284.758,445.341,284.758,452.758,288.468z"/>
		<path style="fill:#A2C6E9;" d="M452.758,288.134c7.417,3.709,7.417,9.723,0,13.433c-7.417,3.709-19.442,3.709-26.86,0
			c-7.417-3.709-7.417-9.723,0-13.433C433.316,284.424,445.341,284.424,452.758,288.134z"/>
		<path style="fill:#FFFFFF;" d="M449.743,289.642c5.752,2.876,5.752,7.54,0,10.417c-5.752,2.876-15.077,2.876-20.829,0
			c-5.752-2.876-5.752-7.54,0-10.417C434.666,286.765,443.991,286.765,449.743,289.642z"/>
		<path style="fill:#264999;" d="M449.746,289.596c-5.753-2.877-15.082-2.877-20.835,0c-3.988,1.994-5.206,4.847-3.666,7.369
			c0.682-1.116,1.9-2.168,3.666-3.051c5.753-2.877,15.082-2.877,20.835,0c1.765,0.883,2.984,1.935,3.666,3.051
			C454.952,294.443,453.734,291.591,449.746,289.596z"/>
	</g>
	<g>
		<g>
			
				<linearGradient id="SVGID_00000101066239015903272480000008871684061344581791_" gradientUnits="userSpaceOnUse" x1="533.7586" y1="195.3169" x2="613.2288" y2="195.3169">
				<stop  offset="0.4482" style="stop-color:#5266AF"/>
				<stop  offset="0.5388" style="stop-color:#323B97"/>
			</linearGradient>
			<path style="fill:url(#SVGID_00000101066239015903272480000008871684061344581791_);" d="M534.767,244.593l35.965,17.993
				c1.566,0.783,3.41,0.783,4.976,0l36.513-18.262c0.618-0.309,1.008-0.94,1.008-1.631V141.396l-37.164-13.493
				c-1.48-0.575-3.12-0.591-4.611-0.045l-37.695,13.807v101.296C533.759,243.653,534.149,244.284,534.767,244.593z"/>
			<path style="fill:#FAFBFC;" d="M612.833,141.205l-36.677-18.349c-1.554-0.777-3.383-0.777-4.937,0l-37.065,18.538
				c-0.527,0.264-0.527,1.017,0,1.28l36.669,18.345c1.559,0.78,3.394,0.78,4.953,0l37.057-18.534
				C613.361,142.221,613.361,141.469,612.833,141.205z"/>
			<path style="fill:#A2C6E9;" d="M612.833,140.69l-36.677-18.349c-1.554-0.777-3.383-0.777-4.937,0l-37.065,18.538
				c-0.527,0.264-0.527,1.017,0,1.281l36.669,18.344c1.559,0.78,3.394,0.78,4.953,0l37.057-18.534
				C613.361,141.707,613.361,140.954,612.833,140.69z"/>
		</g>
		<path style="fill:#FFFFFF;" d="M601.791,141.21l-26.383-13.199c-1.118-0.559-2.433-0.559-3.551,0l-26.662,13.335
			c-0.379,0.19-0.379,0.731,0,0.921l26.376,13.195c1.122,0.561,2.442,0.561,3.563,0l26.656-13.332
			C602.171,141.941,602.171,141.4,601.791,141.21z"/>
		<path style="fill:#476DB4;" d="M545.196,142.267l5.202,2.602l21.46-10.733c1.118-0.559,2.433-0.559,3.551,0l21.181,10.596
			l5.202-2.602c0.379-0.19,0.379-0.731,0-0.921l-26.383-13.199c-1.118-0.559-2.433-0.559-3.551,0l-26.662,13.335
			C544.817,141.536,544.817,142.078,545.196,142.267z"/>
		<g>
			<g>
				<path style="fill:#708EC9;" d="M569.44,166.22c0-0.402-0.326-0.891-0.728-1.092c-0.402-0.201-0.728-0.038-0.728,0.364
					s0.326,0.891,0.728,1.092C569.114,166.785,569.44,166.622,569.44,166.22z"/>
				<path style="fill:#708EC9;" d="M568.019,171.087c0.019,0.393,0.345,0.85,0.728,1.023c0.383,0.172,0.678-0.006,0.658-0.398
					c-0.019-0.392-0.345-0.85-0.728-1.022C568.294,170.517,568,170.695,568.019,171.087z"/>
				<path style="fill:#708EC9;" d="M568.054,176.683c0.038,0.383,0.364,0.81,0.728,0.953c0.364,0.144,0.628-0.05,0.589-0.433
					c-0.038-0.383-0.364-0.809-0.728-0.953C568.279,176.107,568.015,176.3,568.054,176.683z"/>
				<path style="fill:#708EC9;" d="M568.088,182.279c0.057,0.373,0.383,0.769,0.728,0.884c0.344,0.115,0.577-0.095,0.52-0.468
					c-0.057-0.373-0.383-0.769-0.728-0.884C568.263,181.696,568.031,181.906,568.088,182.279z"/>
				<path style="fill:#708EC9;" d="M568.123,187.875c0.076,0.364,0.402,0.728,0.728,0.814c0.326,0.086,0.527-0.139,0.451-0.503
					c-0.076-0.364-0.402-0.728-0.728-0.814C568.248,187.286,568.046,187.511,568.123,187.875z"/>
				<path style="fill:#708EC9;" d="M568.158,193.47c0.096,0.354,0.422,0.688,0.728,0.745c0.306,0.057,0.477-0.183,0.381-0.537
					c-0.096-0.354-0.422-0.688-0.728-0.745C568.233,192.876,568.062,193.116,568.158,193.47z"/>
			</g>
			<g>
				<path style="fill:#708EC9;" d="M561.966,162.482c0-0.402-0.326-0.891-0.728-1.092c-0.402-0.201-0.728-0.038-0.728,0.364
					s0.326,0.891,0.728,1.092C561.64,163.047,561.966,162.884,561.966,162.482z"/>
				<path style="fill:#708EC9;" d="M560.545,167.35c0.019,0.392,0.345,0.85,0.728,1.022c0.383,0.172,0.678-0.006,0.659-0.399
					c-0.019-0.392-0.345-0.85-0.728-1.022C560.821,166.779,560.526,166.957,560.545,167.35z"/>
				<path style="fill:#708EC9;" d="M560.58,172.945c0.038,0.383,0.364,0.809,0.728,0.953c0.364,0.144,0.627-0.05,0.589-0.433
					c-0.038-0.383-0.364-0.81-0.728-0.953C560.805,172.369,560.541,172.563,560.58,172.945z"/>
				<path style="fill:#708EC9;" d="M560.614,178.541c0.057,0.373,0.383,0.769,0.728,0.884c0.345,0.115,0.577-0.095,0.52-0.468
					c-0.057-0.373-0.383-0.769-0.728-0.884C560.79,177.958,560.557,178.168,560.614,178.541z"/>
				<path style="fill:#708EC9;" d="M560.649,184.137c0.077,0.364,0.403,0.728,0.728,0.814c0.326,0.086,0.527-0.139,0.451-0.503
					c-0.077-0.364-0.402-0.728-0.728-0.814C560.774,183.548,560.572,183.773,560.649,184.137z"/>
				<path style="fill:#708EC9;" d="M560.684,189.733c0.096,0.354,0.422,0.688,0.728,0.745c0.306,0.057,0.477-0.183,0.381-0.537
					c-0.096-0.354-0.422-0.688-0.728-0.745C560.759,189.138,560.588,189.379,560.684,189.733z"/>
				<path style="fill:#708EC9;" d="M560.718,195.328c0.115,0.344,0.441,0.647,0.728,0.676s0.427-0.227,0.312-0.572
					c-0.115-0.344-0.441-0.647-0.728-0.676C560.743,194.728,560.603,194.984,560.718,195.328z"/>
				<path style="fill:#708EC9;" d="M560.753,200.924c0.134,0.335,0.46,0.606,0.728,0.606c0.268,0,0.376-0.271,0.243-0.606
					c-0.134-0.335-0.46-0.607-0.728-0.607C560.728,200.318,560.619,200.589,560.753,200.924z"/>
				<path style="fill:#708EC9;" d="M560.788,206.52c0.153,0.326,0.479,0.566,0.728,0.537c0.249-0.029,0.326-0.316,0.173-0.641
					c-0.153-0.325-0.479-0.566-0.728-0.537C560.712,205.907,560.634,206.194,560.788,206.52z"/>
				<path style="fill:#708EC9;" d="M560.822,212.116c0.172,0.316,0.498,0.525,0.728,0.468c0.23-0.057,0.276-0.36,0.104-0.676
					c-0.172-0.316-0.498-0.525-0.728-0.468C560.697,211.497,560.65,211.8,560.822,212.116z"/>
				<path style="fill:#708EC9;" d="M560.857,217.711c0.191,0.306,0.517,0.485,0.728,0.399c0.211-0.086,0.226-0.404,0.035-0.71
					c-0.191-0.306-0.517-0.485-0.728-0.399C560.681,217.087,560.666,217.405,560.857,217.711z"/>
				<path style="fill:#708EC9;" d="M560.892,223.307c0.211,0.297,0.536,0.444,0.728,0.329c0.191-0.115,0.176-0.448-0.035-0.745
					c-0.211-0.297-0.536-0.444-0.728-0.329C560.666,222.677,560.681,223.01,560.892,223.307z"/>
				<path style="fill:#708EC9;" d="M560.926,228.903c0.23,0.287,0.556,0.404,0.728,0.26c0.172-0.144,0.126-0.493-0.104-0.78
					c-0.23-0.287-0.555-0.404-0.728-0.26C560.65,228.266,560.697,228.616,560.926,228.903z"/>
				<path style="fill:#708EC9;" d="M560.961,234.498c0.249,0.277,0.575,0.363,0.728,0.191c0.153-0.172,0.076-0.537-0.173-0.814
					c-0.249-0.278-0.575-0.363-0.728-0.191C560.634,233.856,560.712,234.221,560.961,234.498z"/>
				<path style="fill:#708EC9;" d="M560.996,240.094c0.268,0.268,0.594,0.322,0.728,0.121c0.134-0.201,0.025-0.581-0.243-0.849
					c-0.268-0.268-0.594-0.322-0.728-0.121C560.619,239.446,560.728,239.826,560.996,240.094z"/>
				<path style="fill:#708EC9;" d="M561.03,245.69c0.287,0.258,0.613,0.282,0.728,0.052c0.115-0.23-0.025-0.625-0.312-0.884
					c-0.287-0.258-0.613-0.282-0.728-0.052C560.603,245.036,560.743,245.431,561.03,245.69z"/>
				<path style="fill:#708EC9;" d="M561.065,251.286c0.306,0.249,0.632,0.241,0.728-0.017c0.096-0.258-0.075-0.67-0.381-0.918
					c-0.306-0.249-0.632-0.241-0.728,0.017C560.588,250.626,560.759,251.037,561.065,251.286z"/>
			</g>
			<g>
				<path style="fill:#708EC9;" d="M554.492,158.744c0-0.402-0.326-0.891-0.728-1.092c-0.402-0.201-0.728-0.038-0.728,0.364
					c0,0.402,0.326,0.891,0.728,1.092C554.166,159.309,554.492,159.146,554.492,158.744z"/>
				<path style="fill:#708EC9;" d="M553.071,163.612c0.019,0.392,0.345,0.85,0.728,1.023c0.383,0.172,0.678-0.006,0.659-0.398
					c-0.019-0.393-0.345-0.85-0.728-1.022C553.347,163.041,553.052,163.219,553.071,163.612z"/>
				<path style="fill:#708EC9;" d="M553.106,169.208c0.038,0.383,0.364,0.809,0.728,0.953c0.364,0.144,0.628-0.05,0.589-0.433
					c-0.038-0.383-0.364-0.81-0.728-0.953C553.331,168.631,553.067,168.825,553.106,169.208z"/>
				<path style="fill:#708EC9;" d="M553.14,174.803c0.057,0.373,0.383,0.769,0.728,0.884c0.345,0.115,0.577-0.095,0.52-0.468
					c-0.057-0.373-0.383-0.769-0.728-0.884C553.316,174.221,553.083,174.43,553.14,174.803z"/>
				<path style="fill:#708EC9;" d="M553.175,180.399c0.076,0.364,0.402,0.728,0.728,0.814c0.326,0.086,0.527-0.139,0.451-0.502
					c-0.076-0.364-0.402-0.728-0.728-0.815C553.3,179.81,553.098,180.035,553.175,180.399z"/>
				<path style="fill:#708EC9;" d="M553.21,185.995c0.096,0.354,0.421,0.688,0.728,0.745c0.306,0.057,0.477-0.183,0.381-0.537
					c-0.096-0.354-0.422-0.688-0.728-0.745C553.285,185.4,553.114,185.641,553.21,185.995z"/>
				<path style="fill:#708EC9;" d="M553.245,191.591c0.115,0.344,0.441,0.647,0.728,0.676c0.287,0.029,0.427-0.227,0.312-0.572
					c-0.115-0.345-0.441-0.647-0.728-0.676S553.13,191.246,553.245,191.591z"/>
				<path style="fill:#708EC9;" d="M553.279,197.186c0.134,0.335,0.46,0.607,0.728,0.607s0.377-0.271,0.243-0.607
					c-0.134-0.335-0.46-0.606-0.728-0.607C553.254,196.58,553.145,196.851,553.279,197.186z"/>
				<path style="fill:#708EC9;" d="M553.314,202.782c0.153,0.326,0.479,0.566,0.728,0.537c0.249-0.029,0.326-0.316,0.173-0.641
					c-0.153-0.325-0.479-0.566-0.728-0.537C553.238,202.17,553.161,202.457,553.314,202.782z"/>
				<path style="fill:#708EC9;" d="M553.348,208.378c0.172,0.316,0.498,0.525,0.728,0.468c0.23-0.057,0.276-0.36,0.104-0.676
					c-0.172-0.316-0.498-0.525-0.728-0.468C553.223,207.759,553.176,208.062,553.348,208.378z"/>
				<path style="fill:#708EC9;" d="M553.383,213.973c0.191,0.306,0.517,0.485,0.728,0.399c0.211-0.086,0.226-0.404,0.035-0.71
					c-0.191-0.306-0.517-0.485-0.728-0.399C553.207,213.349,553.192,213.667,553.383,213.973z"/>
				<path style="fill:#708EC9;" d="M553.418,219.569c0.211,0.297,0.536,0.444,0.728,0.329c0.192-0.115,0.176-0.448-0.035-0.745
					c-0.211-0.297-0.536-0.444-0.728-0.329C553.192,218.939,553.207,219.273,553.418,219.569z"/>
				<path style="fill:#708EC9;" d="M553.452,225.165c0.23,0.287,0.556,0.404,0.728,0.26c0.172-0.143,0.126-0.493-0.104-0.78
					c-0.23-0.287-0.556-0.404-0.728-0.26C553.176,224.529,553.223,224.878,553.452,225.165z"/>
				<path style="fill:#708EC9;" d="M553.487,230.761c0.249,0.277,0.575,0.363,0.728,0.191c0.153-0.172,0.076-0.537-0.173-0.814
					c-0.249-0.277-0.575-0.363-0.728-0.191C553.161,230.118,553.238,230.483,553.487,230.761z"/>
				<path style="fill:#708EC9;" d="M553.522,236.356c0.268,0.268,0.594,0.323,0.728,0.122c0.134-0.201,0.025-0.581-0.243-0.849
					c-0.268-0.268-0.594-0.322-0.728-0.121C553.145,235.708,553.254,236.088,553.522,236.356z"/>
				<path style="fill:#708EC9;" d="M553.556,241.952c0.287,0.258,0.613,0.282,0.728,0.052c0.115-0.23-0.025-0.626-0.312-0.884
					c-0.287-0.258-0.613-0.282-0.728-0.052C553.13,241.298,553.269,241.694,553.556,241.952z"/>
				<path style="fill:#708EC9;" d="M553.591,247.548c0.306,0.249,0.632,0.241,0.728-0.017c0.096-0.258-0.075-0.67-0.381-0.918
					c-0.306-0.249-0.632-0.241-0.728,0.017C553.114,246.888,553.285,247.299,553.591,247.548z"/>
			</g>
			<g>
				<path style="fill:#708EC9;" d="M547.018,155.006c0-0.402-0.326-0.891-0.728-1.092c-0.402-0.201-0.728-0.038-0.728,0.364
					c0,0.402,0.326,0.891,0.728,1.092C546.692,155.571,547.018,155.408,547.018,155.006z"/>
				<path style="fill:#708EC9;" d="M545.597,159.874c0.019,0.392,0.345,0.85,0.728,1.022c0.383,0.172,0.678-0.006,0.659-0.398
					c-0.019-0.393-0.345-0.85-0.728-1.022C545.873,159.303,545.578,159.482,545.597,159.874z"/>
				<path style="fill:#708EC9;" d="M545.632,165.47c0.038,0.383,0.364,0.81,0.728,0.953c0.364,0.144,0.628-0.05,0.589-0.433
					c-0.038-0.383-0.364-0.81-0.728-0.953C545.857,164.893,545.594,165.087,545.632,165.47z"/>
				<path style="fill:#708EC9;" d="M545.667,171.066c0.057,0.373,0.383,0.769,0.728,0.884c0.344,0.115,0.577-0.095,0.52-0.468
					c-0.057-0.373-0.383-0.769-0.728-0.884C545.842,170.483,545.609,170.692,545.667,171.066z"/>
				<path style="fill:#708EC9;" d="M545.701,176.661c0.076,0.364,0.402,0.728,0.728,0.815c0.325,0.086,0.527-0.139,0.45-0.502
					c-0.076-0.364-0.402-0.728-0.728-0.815C545.826,176.073,545.625,176.298,545.701,176.661z"/>
				<path style="fill:#708EC9;" d="M545.84,199.044c0.153,0.325,0.479,0.566,0.728,0.537c0.249-0.029,0.326-0.316,0.173-0.641
					c-0.153-0.325-0.479-0.566-0.728-0.537C545.764,198.432,545.687,198.719,545.84,199.044z"/>
				<path style="fill:#708EC9;" d="M545.875,204.64c0.172,0.316,0.498,0.525,0.728,0.468c0.23-0.058,0.276-0.36,0.104-0.676
					c-0.172-0.316-0.498-0.525-0.728-0.468C545.749,204.022,545.702,204.324,545.875,204.64z"/>
				<path style="fill:#708EC9;" d="M545.909,210.236c0.191,0.306,0.517,0.485,0.728,0.399c0.21-0.086,0.226-0.404,0.034-0.711
					c-0.191-0.306-0.517-0.485-0.728-0.399C545.733,209.611,545.718,209.929,545.909,210.236z"/>
				<path style="fill:#708EC9;" d="M545.944,215.831c0.211,0.297,0.536,0.444,0.728,0.329c0.192-0.115,0.176-0.448-0.034-0.745
					c-0.211-0.296-0.536-0.444-0.728-0.329C545.718,215.201,545.733,215.535,545.944,215.831z"/>
				<path style="fill:#708EC9;" d="M545.979,221.427c0.23,0.287,0.555,0.404,0.728,0.26c0.172-0.144,0.126-0.493-0.104-0.78
					c-0.23-0.287-0.556-0.403-0.728-0.26C545.702,220.791,545.749,221.14,545.979,221.427z"/>
				<path style="fill:#708EC9;" d="M546.013,227.023c0.249,0.278,0.575,0.363,0.728,0.191c0.153-0.172,0.076-0.537-0.173-0.814
					c-0.249-0.277-0.575-0.363-0.728-0.191C545.687,226.381,545.764,226.745,546.013,227.023z"/>
				<path style="fill:#708EC9;" d="M546.048,232.619c0.268,0.268,0.594,0.322,0.728,0.121c0.134-0.201,0.025-0.581-0.243-0.849
					c-0.268-0.268-0.594-0.322-0.728-0.121C545.671,231.971,545.78,232.351,546.048,232.619z"/>
				<path style="fill:#708EC9;" d="M546.082,238.214c0.287,0.258,0.613,0.282,0.728,0.052c0.115-0.23-0.025-0.625-0.312-0.884
					c-0.287-0.258-0.613-0.282-0.728-0.052C545.656,237.56,545.795,237.956,546.082,238.214z"/>
				<path style="fill:#708EC9;" d="M546.117,243.81c0.306,0.249,0.632,0.241,0.728-0.017c0.096-0.258-0.075-0.67-0.381-0.919
					c-0.306-0.249-0.632-0.241-0.728,0.017C545.64,243.15,545.811,243.561,546.117,243.81z"/>
			</g>
			<g>
				<path style="fill:#708EC9;" d="M539.544,151.269c0-0.402-0.326-0.891-0.728-1.092c-0.402-0.201-0.728-0.038-0.728,0.364
					c0,0.402,0.326,0.891,0.728,1.092C539.218,151.834,539.544,151.671,539.544,151.269z"/>
				<path style="fill:#708EC9;" d="M538.123,156.136c0.019,0.392,0.345,0.85,0.728,1.022c0.383,0.172,0.678-0.006,0.659-0.398
					c-0.019-0.392-0.345-0.85-0.728-1.022C538.399,155.566,538.104,155.744,538.123,156.136z"/>
				<path style="fill:#708EC9;" d="M538.158,161.732c0.038,0.383,0.364,0.81,0.728,0.953c0.364,0.144,0.628-0.05,0.589-0.433
					c-0.038-0.383-0.364-0.809-0.728-0.953C538.383,161.155,538.12,161.349,538.158,161.732z"/>
				<path style="fill:#708EC9;" d="M538.227,172.924c0.077,0.364,0.402,0.728,0.728,0.814c0.325,0.086,0.527-0.139,0.451-0.503
					c-0.077-0.364-0.402-0.728-0.728-0.814C538.352,172.335,538.151,172.56,538.227,172.924z"/>
				<path style="fill:#708EC9;" d="M538.262,178.519c0.096,0.354,0.422,0.688,0.728,0.745c0.306,0.057,0.477-0.183,0.381-0.537
					c-0.096-0.354-0.422-0.688-0.728-0.745C538.337,177.925,538.166,178.165,538.262,178.519z"/>
				<path style="fill:#708EC9;" d="M538.297,184.115c0.115,0.344,0.441,0.647,0.728,0.676c0.287,0.029,0.427-0.227,0.312-0.572
					c-0.115-0.344-0.441-0.647-0.728-0.676S538.182,183.771,538.297,184.115z"/>
				<path style="fill:#708EC9;" d="M538.331,189.711c0.134,0.335,0.46,0.607,0.728,0.607c0.268,0,0.377-0.271,0.243-0.606
					c-0.134-0.335-0.46-0.607-0.728-0.607C538.306,189.104,538.197,189.376,538.331,189.711z"/>
				<path style="fill:#708EC9;" d="M538.366,195.307c0.153,0.326,0.479,0.566,0.728,0.537c0.249-0.029,0.326-0.316,0.173-0.641
					c-0.153-0.325-0.479-0.566-0.728-0.537C538.29,194.694,538.213,194.981,538.366,195.307z"/>
				<path style="fill:#708EC9;" d="M538.401,200.902c0.172,0.316,0.498,0.525,0.728,0.468c0.23-0.057,0.276-0.36,0.104-0.676
					s-0.498-0.525-0.728-0.468C538.275,200.284,538.228,200.586,538.401,200.902z"/>
				<path style="fill:#708EC9;" d="M538.609,234.477c0.287,0.258,0.613,0.282,0.728,0.052c0.115-0.23-0.025-0.625-0.312-0.884
					c-0.287-0.258-0.613-0.282-0.728-0.052C538.182,233.823,538.321,234.218,538.609,234.477z"/>
				<path style="fill:#708EC9;" d="M538.643,240.072c0.306,0.249,0.632,0.241,0.728-0.017c0.096-0.258-0.075-0.67-0.381-0.919
					c-0.306-0.249-0.632-0.241-0.728,0.017C538.166,239.412,538.337,239.823,538.643,240.072z"/>
			</g>
		</g>
		<g>
			<path style="fill:#264999;" d="M606.651,155.716c-0.893,0.446-1.616,1.532-1.616,2.425v36.222c0,0.893,0.723,1.254,1.616,0.808
				c0.893-0.447,1.616-1.532,1.616-2.425v-36.222C608.268,155.631,607.544,155.269,606.651,155.716z"/>
			<path style="fill:#D7D6D6;" d="M607.087,155.565c0,0.01,0.003,0.019,0.003,0.029v36.222c0,0.893-0.724,1.978-1.616,2.425
				c-0.152,0.076-0.297,0.12-0.436,0.151c0.017,0.87,0.731,1.22,1.613,0.779c0.892-0.446,1.616-1.532,1.616-2.425v-36.222
				C608.268,155.783,607.767,155.416,607.087,155.565z"/>
		</g>
		<g>
			<path style="fill:#264999;" d="M595.134,161.434c-0.893,0.446-1.616,1.532-1.616,2.425v36.222c0,0.893,0.724,1.254,1.616,0.808
				c0.893-0.447,1.616-1.532,1.616-2.425v-36.222C596.75,161.35,596.027,160.988,595.134,161.434z"/>
			<path style="fill:#D7D6D6;" d="M595.57,161.283c0,0.01,0.003,0.019,0.003,0.029v36.222c0,0.893-0.724,1.978-1.616,2.425
				c-0.152,0.076-0.296,0.12-0.436,0.151c0.017,0.87,0.731,1.22,1.613,0.779c0.892-0.447,1.616-1.532,1.616-2.425v-36.222
				C596.75,161.502,596.25,161.135,595.57,161.283z"/>
		</g>
		<g>
			<path style="fill:#264999;" d="M583.617,167.153c-0.893,0.446-1.616,1.532-1.616,2.425V205.8c0,0.893,0.724,1.254,1.616,0.808
				s1.616-1.532,1.616-2.425V167.96C585.233,167.068,584.51,166.706,583.617,167.153z"/>
			<path style="fill:#D7D6D6;" d="M584.053,167.001c0,0.011,0.003,0.019,0.003,0.029v36.222c0,0.893-0.724,1.978-1.616,2.425
				c-0.152,0.076-0.297,0.12-0.436,0.151c0.017,0.87,0.731,1.22,1.613,0.779c0.893-0.446,1.616-1.532,1.616-2.425V167.96
				C585.233,167.22,584.733,166.853,584.053,167.001z"/>
		</g>
		<g>
			<path style="fill:#264999;" d="M589.084,215.878c-0.656,0.328-1.187,1.125-1.187,1.781v26.598c0,0.656,0.531,0.921,1.187,0.594
				c0.656-0.328,1.187-1.125,1.187-1.781v-26.598C590.271,215.816,589.74,215.55,589.084,215.878z"/>
			<path style="fill:#D7D6D6;" d="M589.404,215.767c0,0.008,0.002,0.014,0.002,0.021v26.598c0,0.656-0.531,1.453-1.187,1.781
				c-0.112,0.056-0.218,0.089-0.32,0.111c0.012,0.639,0.537,0.896,1.185,0.572c0.656-0.328,1.187-1.125,1.187-1.781v-26.598
				C590.271,215.927,589.903,215.658,589.404,215.767z"/>
		</g>
		<g>
			<path style="fill:#264999;" d="M601.187,209.756c-0.656,0.328-1.187,1.125-1.187,1.78v26.598c0,0.655,0.531,0.921,1.187,0.593
				c0.655-0.328,1.187-1.125,1.187-1.78v-26.598C602.373,209.693,601.842,209.428,601.187,209.756z"/>
			<path style="fill:#D7D6D6;" d="M601.507,209.645c0,0.008,0.002,0.014,0.002,0.022v26.598c0,0.656-0.531,1.453-1.187,1.78
				c-0.112,0.056-0.218,0.089-0.32,0.111c0.013,0.638,0.537,0.896,1.185,0.572c0.655-0.328,1.187-1.125,1.187-1.78v-26.598
				C602.373,209.805,602.005,209.535,601.507,209.645z"/>
		</g>
	</g>
	<g>
		<g>
			<polygon style="fill:#A2C6E9;" points="387.974,135.88 343.417,158.225 300.225,136.624 344.782,114.279 			"/>
			<polygon style="fill:#5467B0;" points="343.417,158.225 343.417,211.945 300.225,190.345 300.225,136.624 			"/>
			<polygon style="fill:#303996;" points="343.417,158.225 343.417,211.945 387.974,189.6 387.974,135.88 			"/>
			<g>
				<path style="fill:#FFFFFF;" d="M366.593,176.187c-1.256,0.629-2.275,0.12-2.275-1.137v-12.316c0-1.257,1.018-2.784,2.275-3.412
					c1.257-0.628,2.275-0.119,2.275,1.137v12.316C368.868,174.032,367.849,175.559,366.593,176.187z"/>
				<path style="fill:#FFFFFF;" d="M358.973,167.308c1.073-1.195,2.473-1.558,3.129-0.816c0.657,0.742,0.322,2.31-0.749,3.503
					c-3.013,3.356-4.812,7.457-4.812,10.97c0,5.543,4.509,7.797,10.052,5.026c5.543-2.772,10.052-9.536,10.052-15.08
					c0-3.443-1.743-5.739-4.663-6.141c-1.059-0.146-1.37-1.397-0.695-2.794c0.676-1.398,2.081-2.41,3.141-2.266
					c4.236,0.584,6.765,3.921,6.765,8.926c0,8.051-6.55,17.878-14.602,21.904c-8.051,4.026-14.601,0.752-14.601-7.3
					C351.992,178.134,354.601,172.178,358.973,167.308z"/>
			</g>
			<g>
				<polygon style="fill:#708EC9;" points="311.313,158.528 320.695,163.22 320.695,156.175 304.746,148.198 304.746,153.166 
					304.746,155.243 304.746,171.282 311.313,174.566 				"/>
				<polygon style="fill:#708EC9;" points="316.942,166.804 316.942,181.742 318.35,182.446 323.416,184.979 329.42,187.982 
					329.42,182.007 323.416,179.004 323.416,170.042 				"/>
				<polygon style="fill:#708EC9;" points="324.448,158.051 324.448,161.876 338.896,169.101 338.896,165.277 				"/>
				<polygon style="fill:#708EC9;" points="333.173,190.955 338.896,193.817 338.896,171.795 333.173,168.932 				"/>
				<polygon style="fill:#708EC9;" points="330.88,167.867 324.448,164.65 324.448,171.762 330.88,174.979 				"/>
				<polygon style="fill:#708EC9;" points="304.746,183.292 314.503,188.172 314.503,180.008 304.746,175.129 				"/>
				<polygon style="fill:#708EC9;" points="316.942,189.392 338.896,200.371 338.896,197.15 316.942,186.171 				"/>
			</g>
		</g>
		<g>
			<polygon style="fill:#A2C6E9;" points="376.902,124.45 343.518,141.192 311.156,125.008 344.541,108.266 			"/>
			<polygon style="fill:#5467B0;" points="343.518,141.192 343.518,152.277 311.156,136.093 311.156,125.008 			"/>
			<polygon style="fill:#303996;" points="343.518,141.192 343.518,152.277 376.902,135.535 376.902,124.45 			"/>
		</g>
		<g>
			<polygon style="fill:#F7F8F8;" points="364.547,120.367 343.71,130.817 323.511,120.715 344.348,110.266 			"/>
			<polygon style="fill:#5467B0;" points="343.71,130.817 343.71,135.23 323.511,125.129 323.511,120.715 			"/>
			<polygon style="fill:#303996;" points="343.71,130.817 343.71,135.23 364.547,124.781 364.547,120.367 			"/>
		</g>
	</g>
	<g>
		<g>
			<polygon style="fill:#A2C6E9;" points="301.024,222.432 283.596,227.713 280.261,229.326 315.115,274.751 318.451,273.137 
				318.451,245.144 			"/>
			<polygon style="fill:#264999;" points="297.688,224.045 280.261,229.326 280.261,257.319 297.688,280.032 315.115,274.751 
				315.115,246.757 			"/>
			<polygon style="fill:#F7F8F8;" points="297.688,234.842 286.982,238.086 286.982,255.282 297.688,269.234 308.394,265.99 
				308.394,248.794 			"/>
		</g>
		<g>
			<path style="fill:#F7F8F8;" d="M245.81,260.492c-4.777,10.016-8.6,20.07-8.023,21.658c0.578,1.587,11.544,14.671,12.286,15.068
				c0.742,0.397,1.76-3.91,1.439-4.902c-0.321-0.992-6.19-10.823-6.436-11.154c-0.246-0.331,4.813-12.201,4.813-12.201
				L245.81,260.492z"/>
			<path style="fill:#F7F8F8;" d="M251.797,380.709c0.521,0.444,0.565,2.411,1.591,2.602c2.776,0.517,10.531,0.105,9.195,2.128
				c-1.649,2.499-12.563,4.522-14.759,3.467c-1.721-0.826-0.596-6.794-0.596-6.794L251.797,380.709z"/>
			<path style="fill:#F7F8F8;" d="M290.836,393.01c1.335-2.023-6.419-1.611-9.196-2.128c-1.026-0.191-1.07-2.158-1.591-2.602
				l-4.568,1.404c0,0-1.125,5.968,0.595,6.794C278.273,397.532,289.186,395.509,290.836,393.01z"/>
			<path style="fill:#253B66;" d="M250.155,298.865c-5.538,6.607-0.763,19.377-0.763,19.377l-1.254,32.492
				c0,0-3.188,32.936-2.103,33.912c1.085,0.976,6.485,0.4,7.353-1.336c0.868-1.735,4.608-27.946,4.716-28.922
				c0.108-0.976,7.124-44.33,7.124-44.33L250.155,298.865z"/>
			<path style="fill:#2A4277;" d="M250.29,298.765c-6.562,13.794,5.842,21.444,6.102,21.964
				c4.754,9.511,11.467,34.668,11.467,34.668s6.006,36.292,7.3,36.938c0.995,0.498,6.481-1.453,6.29-3.143
				c-0.217-1.922-3.303-36.871-3.796-37.721c-0.492-0.85-12.152-48.784-12.152-48.784L250.29,298.765z"/>
			<path style="fill:#EBEBEB;" d="M246.736,259.448c5.392-3.576,14.298,6.967,15.674,10.34c2.807,6.881,3.115,8.8,3.332,18.626
				c0.217,9.825,0.586,15.078-0.659,16.003c-2.764,2.054-12.475,0.798-14.927-5.552c0,0-0.166-8.78-3.202-18.187
				C243.915,271.27,243.838,261.37,246.736,259.448z"/>
			<path style="fill:#EAA486;" d="M259.11,240.699c2.357,6.164,4.895,15.409,1.269,15.228c-3.626-0.181-5.008-1.912-5.008-1.912
				v9.768c0,0.891-0.916,1.481-1.729,1.115c-1.484-0.669-3.612-1.932-5.095-4.096l0.683-10.857l3.025-6.617L259.11,240.699z"/>
			
				<linearGradient id="SVGID_00000156548305191945666880000012626444303818694289_" gradientUnits="userSpaceOnUse" x1="238.5943" y1="258.8525" x2="262.2538" y2="223.9093">
				<stop  offset="0" style="stop-color:#D43467"/>
				<stop  offset="1" style="stop-color:#E44C9B"/>
			</linearGradient>
			<path style="fill:url(#SVGID_00000156548305191945666880000012626444303818694289_);" d="M248.802,256.739
				c2.512,0.729,4.688-4.8,4.688-4.8s-2.468-5.485-0.554-5.462c1.914,0.024,1.888,1.293,1.888,1.293s3.289-6.254,4.286-7.07
				c0.997-0.816,5.201-4.191,3.084-7.07c-3.266-4.441-7.371-0.544-7.371-0.544s-11.032-1.088-12.845,5.71
				C240.166,245.594,248.802,256.739,248.802,256.739z"/>
			<g>
				<path style="fill:#EAA486;" d="M293.808,256.995c0.691-0.441,3.655-1.428,4.835-1.167c2.796,0.618-1.798,2.762-2.874,4.812
					c-1.309,2.491-3.11,3.005-3.877,3.427c-2.993,4.13-2.862-1.126-1.426-2.162C291.986,258.292,293.067,257.469,293.808,256.995z"
					/>
				<path style="fill:#F7F8F8;" d="M293.352,263.233c-0.656-1.199-1.172-1.646-2.161-1.769c-0.565-0.07-0.937,0.185-1.374,0.55
					c-4.074,3.407-11.521,8.999-11.521,8.999s-18.394-4.031-21.15-2.904c-2.755,1.127-3.682,5.709,0.77,8.036
					c4.452,2.327,21.262,1.553,24.141-0.27c3.898-2.469,9.074-8.836,11.1-11.492C293.337,264.149,293.63,263.741,293.352,263.233z"
					/>
			</g>
		</g>
	</g>
	<g>
		<g>
			<g>
				<polygon style="fill:#A2C6E9;" points="538.229,323.366 506.081,339.488 474.918,323.903 507.45,307.982 				"/>
				
					<linearGradient id="SVGID_00000124158975340072633510000011178207830130658998_" gradientUnits="userSpaceOnUse" x1="474.9176" y1="323.6924" x2="484.2752" y2="323.6924">
					<stop  offset="0" style="stop-color:#91AEDB"/>
					<stop  offset="1" style="stop-color:#D1EAFA"/>
				</linearGradient>
				<polygon style="fill:url(#SVGID_00000124158975340072633510000011178207830130658998_);" points="484.275,323.481 
					479.175,326.032 474.918,323.903 480.018,321.352 				"/>
				
					<linearGradient id="SVGID_00000168802728492839554120000003722435434557541562_" gradientUnits="userSpaceOnUse" x1="501.8234" y1="337.1483" x2="511.1811" y2="337.1483">
					<stop  offset="0" style="stop-color:#91AEDB"/>
					<stop  offset="1" style="stop-color:#D1EAFA"/>
				</linearGradient>
				<polygon style="fill:url(#SVGID_00000168802728492839554120000003722435434557541562_);" points="511.181,336.937 
					506.081,339.488 501.823,337.359 506.924,334.808 				"/>
				
					<linearGradient id="SVGID_00000098917174596023135420000008027285998443204015_" gradientUnits="userSpaceOnUse" x1="528.8709" y1="323.5772" x2="538.2288" y2="323.5772">
					<stop  offset="0" style="stop-color:#91AEDB"/>
					<stop  offset="1" style="stop-color:#D1EAFA"/>
				</linearGradient>
				<polygon style="fill:url(#SVGID_00000098917174596023135420000008027285998443204015_);" points="538.229,323.366 
					533.128,325.917 528.871,323.788 533.971,321.237 				"/>
				<polygon style="fill:#5467B0;" points="506.081,339.488 506.081,350.099 474.918,334.514 474.918,323.903 				"/>
				<polygon style="fill:#303996;" points="506.081,339.488 506.081,350.099 538.229,333.977 538.229,323.366 				"/>
			</g>
			<g>
				<polygon style="fill:#F7F8F8;" points="519.835,320.637 506.367,327.391 493.311,320.862 506.78,314.108 				"/>
				<polygon style="fill:#5467B0;" points="506.367,327.391 506.367,331.836 493.311,325.307 493.311,320.862 				"/>
				<polygon style="fill:#303996;" points="506.367,327.391 506.367,331.836 519.835,325.082 519.835,320.637 				"/>
			</g>
			<g>
				<polygon style="opacity:0.5;fill:#C3CDE9;" points="474.918,279.41 474.918,323.903 479.175,326.032 479.175,281.539 				"/>
				<polygon style="fill:#5467B0;" points="474.918,268.799 474.918,334.514 479.175,336.643 479.175,270.928 				"/>
				<polygon style="opacity:0.5;fill:#C3CDE9;" points="479.175,281.539 479.175,326.032 484.275,323.481 484.275,284.09 				"/>
				<polygon style="fill:#303996;" points="479.175,281.539 479.175,326.032 484.275,323.481 484.275,284.09 				"/>
			</g>
			<g>
				<polygon style="opacity:0.5;fill:#C3CDE9;" points="502.349,255.043 502.349,310.533 506.606,312.662 507.066,252.677 				"/>
				<defs>
					<filter id="Adobe_OpacityMaskFilter" filterUnits="userSpaceOnUse" x="502.349" y="252.677" width="4.716" height="59.985">
						<feFlood  style="flood-color:white;flood-opacity:1" result="back"/>
						<feBlend  in="SourceGraphic" in2="back" mode="normal"/>
					</filter>
				</defs>
				
					<mask maskUnits="userSpaceOnUse" x="502.349" y="252.677" width="4.716" height="59.985" id="SVGID_00000074421963879521568200000006157681439273787574_">
					<g style="filter:url(#Adobe_OpacityMaskFilter);">
						<defs>
							
								<filter id="Adobe_OpacityMaskFilter_00000029043426477997577650000011080881861275150513_" filterUnits="userSpaceOnUse" x="502.349" y="252.677" width="4.716" height="59.985">
								<feFlood  style="flood-color:white;flood-opacity:1" result="back"/>
								<feBlend  in="SourceGraphic" in2="back" mode="normal"/>
							</filter>
						</defs>
						
							<mask maskUnits="userSpaceOnUse" x="502.349" y="252.677" width="4.716" height="59.985" id="SVGID_00000074421963879521568200000006157681439273787574_">
							<g style="filter:url(#Adobe_OpacityMaskFilter_00000029043426477997577650000011080881861275150513_);">
							</g>
						</mask>
						
							<linearGradient id="SVGID_00000087408613851704428820000002356965203200667033_" gradientUnits="userSpaceOnUse" x1="504.7075" y1="312.6622" x2="504.7075" y2="252.6772">
							<stop  offset="0" style="stop-color:#FFFFFF"/>
							<stop  offset="1" style="stop-color:#000000"/>
						</linearGradient>
						
							<polygon style="mask:url(#SVGID_00000074421963879521568200000006157681439273787574_);fill:url(#SVGID_00000087408613851704428820000002356965203200667033_);" points="
							502.349,255.043 502.349,310.533 506.606,312.662 507.066,252.677 						"/>
					</g>
				</mask>
				
					<linearGradient id="SVGID_00000180368471653278355730000002211803286965739965_" gradientUnits="userSpaceOnUse" x1="504.7075" y1="312.6622" x2="504.7075" y2="252.6772">
					<stop  offset="0" style="stop-color:#6F84C2"/>
					<stop  offset="1" style="stop-color:#849ED1"/>
				</linearGradient>
				<polygon style="fill:url(#SVGID_00000180368471653278355730000002211803286965739965_);" points="502.349,255.043 
					502.349,310.533 506.606,312.662 507.066,252.677 				"/>
			</g>
			<g>
				<polygon style="fill:#F7F8F8;" points="538.229,268.262 506.081,284.384 474.918,268.799 507.066,252.677 				"/>
				<polygon style="fill:#5467B0;" points="506.081,284.384 506.081,294.995 474.918,279.41 474.918,268.799 				"/>
				<polygon style="fill:#303996;" points="506.081,284.384 506.081,294.995 538.229,278.873 538.229,268.262 				"/>
				<path style="fill:#303996;" d="M513.584,265.252c3.62,1.81,3.62,4.746,0,6.557c-3.621,1.811-9.491,1.811-13.111,0
					c-3.62-1.811-3.62-4.746,0-6.557C504.093,263.441,509.963,263.441,513.584,265.252z"/>
			</g>
			<g>
				<polygon style="opacity:0.5;fill:#C3CDE9;" points="501.823,292.866 501.823,337.359 506.081,339.488 506.081,294.995 				"/>
				<polygon style="fill:#5467B0;" points="501.823,282.255 501.823,347.93 506.081,350.099 506.081,284.384 				"/>
				<polygon style="opacity:0.5;fill:#C3CDE9;" points="506.081,294.995 506.081,339.488 511.181,336.937 511.181,292.444 				"/>
				<polygon style="fill:#303996;" points="506.081,284.384 506.081,350.099 511.181,347.541 511.181,281.826 				"/>
			</g>
			<g>
				<polygon style="opacity:0.5;fill:#C3CDE9;" points="528.871,283.566 528.871,323.788 533.128,325.917 533.128,281.424 				"/>
				<polygon style="fill:#5467B0;" points="528.871,283.566 528.871,323.788 533.128,325.917 533.128,281.424 				"/>
				<polygon style="opacity:0.5;fill:#C3CDE9;" points="533.128,281.424 533.128,325.917 538.229,323.366 538.229,278.873 				"/>
				<polygon style="fill:#303996;" points="533.128,270.82 533.128,336.535 538.229,333.977 538.229,268.262 				"/>
			</g>
		</g>
		<g>
			<g>
				<path style="fill:#303996;" d="M524.135,226.865l-15.581-12.412c-0.179-0.143-0.389-0.241-0.613-0.286l-14.321-2.916
					c-0.44-0.09-0.867,0.03-1.186,0.283c-0.332,0.263-2.185,1.48-2.504,1.73c-0.335,0.263-0.555,0.671-0.555,1.139v18.029
					c0,8.51,5.95,19.136,15.16,27.074l0.915,0.788c0.211,0.182,0.47,0.299,0.746,0.337l0.815,0.113
					c2.795,0.387,5.287,0.222,7.403-0.431c0.929-0.287,1.786-0.668,2.565-1.138c0.631-0.38,3.46-2.323,4.177-2.983
					c2.26-2.082,3.525-5.178,3.525-9.092v-19.104C524.681,227.557,524.48,227.14,524.135,226.865z"/>
				<path style="fill:#5467B0;" d="M504.535,259.507c-9.21-7.937-15.16-18.564-15.16-27.074v-18.029
					c0-0.916,0.839-1.601,1.736-1.418l14.321,2.916c0.224,0.046,0.434,0.144,0.613,0.286l15.581,12.412
					c0.345,0.275,0.546,0.691,0.546,1.132v19.104c0,8.51-5.951,13.185-15.161,11.91l-0.815-0.113
					c-0.276-0.038-0.535-0.155-0.746-0.337L504.535,259.507z"/>
				<path style="fill:#8EAAD8;" d="M517.985,229.496l-11.94-9.512c-0.179-0.142-0.389-0.241-0.613-0.286l-10.68-2.175
					c-0.897-0.183-1.736,0.503-1.736,1.419v15.312c0,6.961,5.005,15.767,12.758,22.448c7.753,1.073,12.758-2.727,12.758-9.688
					v-16.386C518.531,230.188,518.33,229.771,517.985,229.496z"/>
			</g>
			
				<linearGradient id="SVGID_00000096764781124295098190000011295555965383836810_" gradientUnits="userSpaceOnUse" x1="491.5118" y1="253.5583" x2="536.4648" y2="196.4681">
				<stop  offset="0" style="stop-color:#D43467"/>
				<stop  offset="1" style="stop-color:#E44C9B"/>
			</linearGradient>
			<path style="fill:url(#SVGID_00000096764781124295098190000011295555965383836810_);" d="M510.394,238.809
				c1.557,0.111,2.335-0.639,2.335-2.252c0-1.008-0.298-2.037-0.894-3.086c-0.596-1.049-1.303-1.875-2.121-2.479
				c-0.161-0.119-0.343-0.243-0.537-0.371v-3.205l-1.72-0.86v3.047c-0.452-0.246-0.943-0.503-1.484-0.774l-0.937-0.469v-3.015
				l-1.72-0.861v3.016l-4.909-2.455v2.8l2.037,1.019v10.974l-2.037-1.019v2.8l4.909,2.455v2.54l1.72,0.86v-2.54l0.937,0.469
				c0.532,0.266,1.024,0.497,1.484,0.702v2.58l1.72,0.861v-2.764c0.325,0.106,0.623,0.19,0.889,0.246
				c0.973,0.205,1.767,0.07,2.383-0.405c0.616-0.475,0.924-1.26,0.924-2.356C513.372,242.36,512.379,240.541,510.394,238.809z
				 M505.83,231.558c0.961,0.481,1.634,0.952,2.019,1.415c0.386,0.463,0.578,1.024,0.578,1.683c0,0.723-0.198,1.128-0.596,1.215
				c-0.397,0.087-1.017-0.079-1.859-0.501l-1.215-0.608v-3.741L505.83,231.558z M504.758,241.996v-4.433l1.215,0.608
				c1.033,0.516,1.785,1.062,2.258,1.636c0.472,0.574,0.709,1.282,0.709,2.124c0,0.803-0.219,1.253-0.655,1.353
				c-0.437,0.099-1.208-0.127-2.312-0.679L504.758,241.996z"/>
		</g>
	</g>
	<g>
		<g>
			<g>
				<path style="fill:#3557A7;" d="M463.595,234.777v-10.513l-9.785,1.922c0,0-9.244,0.301-4.355-4.814v-5.704
					c-6.706,2.756-8.53,6.413-20.234,5.623l-0.604-3.835c-2.773-0.131-5.569-0.131-8.356,0.002c-0.887,5.793,1.62,2.758-9.248,4.987
					l-11.578-6.774v5.704c4.218,4.403,4.025,2.901-0.065,4.947c-4.077,2.039-5.257,0.043-14.073-2.059v11.077
					c-1.007-0.112-2.208-0.154-3.646-0.099c-0.262,1.392-0.267,13.106,0,14.491l3.637,0.144v6.661
					c1.154,1.256,2.544,2.468,4.192,3.617c4.649-1.111,5.931-1.634,6.795-1.544c1.042,0.109,3.161,0.819,3.161,0.819v5.704
					c2.294,0.823,4.717,1.518,7.227,2.094c2.921-2.13,3.499-2.915,4.285-3.062c0.973-0.182,2.265,0.615,8.717,1.048l0.609,3.835
					c2.77,0.134,5.564,0.129,8.348-0.002c0.399-2.564,0.123-3.394,0.646-3.721c0.655-0.409,2.561-0.027,8.61-1.266l4.353,3.168
					c2.499-0.576,4.927-1.27,7.216-2.095l0.145-5.042c2.044-1.023,2.299-1.533,3.142-1.526c0.842,0.008,2.273,0.535,6.668,1.588
					c1.654-1.147,3.042-2.361,4.196-3.612v-6.698c0.962-0.019,2.15-0.048,3.633-0.106v-14.491L463.595,234.777z M406.126,243.492
					c4.278-5.645,18.797-9.334,30.753-4.305c2.466,1.233,4.215,2.511,5.352,3.788C450.212,251.934,403.913,246.412,406.126,243.492z
					"/>
				<path style="fill:#264999;" d="M443.914,221.745l-9.708-0.408c-1.448,0.085-3.075,0.084-4.985-0.044l-0.026-0.166l-9.284-0.39
					c-0.279,1.132-1.432,0.179-8.898,1.71l-2.673-1.564l-7.359,9.673l5.144,12.936c4.278-5.645,18.797-9.334,30.753-4.305
					c2.466,1.233,4.215,2.511,5.352,3.788c0.137,0.154,0.22,0.293,0.326,0.439l7.022-9.191L443.914,221.745z"/>
				<polygon style="fill:#264999;" points="389.481,245.663 389.481,260.153 396.276,258.61 396.276,244.122 				"/>
				<polygon style="fill:#264999;" points="406.664,252.736 406.664,267.227 410.949,264.165 410.949,249.676 				"/>
				<polygon style="fill:#264999;" points="428.623,269.046 428.623,254.555 429.072,251.041 429.269,265.325 				"/>
				<polygon style="fill:#264999;" points="437.879,249.569 442.232,252.737 442.232,267.227 437.879,264.059 				"/>
				<polygon style="fill:#264999;" points="452.464,244.122 452.464,258.565 459.403,260.153 459.404,245.663 				"/>
				<polygon style="fill:#264999;" points="459.664,235.648 459.664,240.698 463.6,242.051 463.6,249.843 467.233,249.737 
					467.233,235.246 				"/>
				<polygon style="fill:#3557A7;" points="449.593,260.091 449.448,250.642 446.424,247.165 452.464,244.122 452.735,258.565 				
					"/>
				<polygon style="fill:#264999;" points="420.275,254.557 419.666,250.722 419.666,265.213 420.275,269.048 				"/>
				<polygon style="fill:#3557A7;" points="399.437,250.642 402.754,247.177 396.276,244.122 396.276,258.61 399.437,259.429 				
					"/>
				<polygon style="fill:#264999;" points="389.318,235.545 381.652,235.241 381.652,249.732 385.289,249.876 385.289,242.046 
					389.481,240.694 				"/>
			</g>
			<path style="fill:#F7F8F8;" d="M389.479,220.651c-1.645,1.147-3.04,2.358-4.182,3.613l6.329,2.174
				c-4.462,5.44,1.601,4.184-9.975,4.627c-0.262,1.392-0.266,2.793,0.001,4.177l7.666,0.303c1.572,5.848,5.513,3.245-4.029,6.501
				c1.154,1.256,2.544,2.468,4.192,3.617c10.259-2.452,4.124-2.041,13.273,1.515l-3.317,3.465c2.294,0.823,4.717,1.518,7.227,2.094
				c6.538-4.768,1.34-2.796,13.002-2.014l0.609,3.835c2.77,0.134,5.564,0.129,8.348-0.002c0.897-5.773-1.625-2.759,9.255-4.987
				l4.353,3.168c2.499-0.576,4.927-1.27,7.216-2.095c-4.198-4.403-4.012-2.908,0.064-4.947c4.089-2.045,1.1-2.138,9.892-0.032
				c1.654-1.147,3.042-2.361,4.196-3.612l-6.335-2.177c4.453-5.442-1.571-4.178,9.968-4.627c0.266-1.394,0.272-2.79,0.008-4.177
				l-7.671-0.303c-1.573-5.844-5.475-3.245,4.025-6.502c-1.145-1.259-2.538-2.469-4.184-3.616l-6.929,1.66
				c-7.086-4.554-7.915-1.524-3.027-6.639c-2.296-0.824-4.716-1.521-7.235-2.095c-6.495,4.762-1.296,2.804-12.999,2.014
				l-0.604-3.835c-2.772-0.132-5.569-0.131-8.356,0.002c-0.887,5.794,1.62,2.758-9.248,4.987l-4.348-3.165
				c-2.511,0.572-4.932,1.27-7.23,2.095c4.218,4.403,4.026,2.901-0.065,4.947C395.293,222.657,398.295,222.753,389.479,220.651z
				 M436.879,225.389c19.763,9.884-6.498,22.632-24.876,14.962c0.224,0.112-2.745-1.373-2.521-1.261
				C394.697,230.197,418.739,217.758,436.879,225.389z"/>
		</g>
		<g>
			<g>
				<g>
					<path style="fill:#476DB4;" d="M452.53,225.893l-26.279-13.146c-1.113-0.557-2.424-0.557-3.537,0l-26.557,13.282
						c-0.223,0.112-0.298,0.342-0.258,0.553l-0.026,0.01v0.267c0,0.495,0.279,0.947,0.722,1.169l25.77,12.891
						c1.122,0.561,2.443,0.561,3.565,0l26.162-13.084c0.443-0.221,0.722-0.674,0.722-1.169v-0.268l-0.012-0.004
						C452.819,226.198,452.735,225.995,452.53,225.893z"/>
					<path style="fill:#A2C6E9;" d="M396.156,226.946l26.273,13.143c1.117,0.559,2.432,0.559,3.549,0l26.551-13.279
						c0.378-0.189,0.378-0.728,0-0.917l-26.279-13.146c-1.113-0.557-2.424-0.557-3.537,0l-26.557,13.282
						C395.778,226.218,395.778,226.757,396.156,226.946z"/>
				</g>
				<g>
					<path style="fill:#476DB4;" d="M452.53,216.651l-26.279-13.146c-1.113-0.557-2.424-0.557-3.537,0l-26.557,13.281
						c-0.223,0.112-0.298,0.342-0.258,0.554l-0.026,0.009v0.267c0,0.495,0.279,0.947,0.722,1.169l25.77,12.891
						c1.122,0.561,2.443,0.561,3.565,0l26.162-13.084c0.443-0.221,0.722-0.674,0.722-1.169v-0.267l-0.012-0.004
						C452.819,216.956,452.735,216.753,452.53,216.651z"/>
					<path style="fill:#A2C6E9;" d="M396.156,217.704l26.273,13.143c1.117,0.559,2.432,0.559,3.549,0l26.551-13.279
						c0.378-0.189,0.378-0.728,0-0.917l-26.279-13.146c-1.113-0.557-2.424-0.557-3.537,0l-26.557,13.282
						C395.778,216.975,395.778,217.515,396.156,217.704z"/>
				</g>
				<g>
					<path style="fill:#476DB4;" d="M452.53,207.408l-26.279-13.146c-1.113-0.557-2.424-0.557-3.537,0l-26.557,13.282
						c-0.223,0.111-0.298,0.342-0.258,0.553l-0.026,0.01v0.268c0,0.495,0.279,0.947,0.722,1.169l25.77,12.891
						c1.122,0.561,2.443,0.561,3.565,0l26.162-13.084c0.443-0.221,0.722-0.674,0.722-1.169v-0.267l-0.012-0.004
						C452.819,207.713,452.735,207.51,452.53,207.408z"/>
					<path style="fill:#A2C6E9;" d="M396.156,208.461l26.273,13.143c1.117,0.559,2.432,0.559,3.549,0l26.551-13.278
						c0.378-0.189,0.378-0.728,0-0.917l-26.279-13.146c-1.113-0.557-2.424-0.557-3.537,0l-26.557,13.282
						C395.778,207.733,395.778,208.272,396.156,208.461z"/>
				</g>
			</g>
			<g>
				<g>
					<path style="fill:#5467B0;" d="M438.178,185.151l-20.191-10.098c-0.836-0.418-1.59-0.447-2.129-0.16l0-0.001l-7.622,3.822
						l2.695,19.774c0,1.636,1.327,3.626,2.963,4.445l18.896,11.963c0,0,3.425-1.706,3.493-1.748l4.094-2.052
						c0.474-0.288,0.765-0.836,0.765-1.599v-19.902C441.141,187.959,439.814,185.969,438.178,185.151z"/>
					<path style="fill:#F7F8F8;" d="M430.699,188.887l-2.362-1.253l-14.964-7.411l-2.865-1.433
						c-1.636-0.818-2.963-0.155-2.963,1.481v19.902c0,1.636,1.327,3.626,2.963,4.445l20.191,10.098
						c1.636,0.818,2.963,0.155,2.963-1.481v-19.902C433.662,191.695,432.336,189.705,430.699,188.887z M421.697,204.279
						l-4.045-2.023c-0.684-0.342-1.2-1.221-1.076-1.831l1.176-5.764c0.061-0.298-0.01-0.68-0.224-1.043
						c-0.407-0.689-0.652-1.436-0.652-2.119c0-1.728,1.567-2.307,3.358-1.064c1.119,0.777,2.009,2.142,2.197,3.361
						c0.146,0.944-0.113,1.626-0.617,1.973c-0.21,0.144-0.28,0.449-0.221,0.8l1.179,6.955
						C422.897,204.258,422.381,204.621,421.697,204.279z"/>
				</g>
				<g>
					
						<linearGradient id="SVGID_00000139985217961290011470000015378898830019966869_" gradientUnits="userSpaceOnUse" x1="423.6452" y1="189.8162" x2="424.5506" y2="161.747">
						<stop  offset="0" style="stop-color:#D43467"/>
						<stop  offset="1" style="stop-color:#E44C9B"/>
					</linearGradient>
					<path style="fill:url(#SVGID_00000139985217961290011470000015378898830019966869_);" d="M429.792,185.547
						c-1.229,0-2.226-0.997-2.226-2.226v-10.977c0-2.286-2.074-5.329-4.438-6.512c-0.982-0.491-1.74-0.509-2.058-0.316
						c-0.349,0.217-0.387,0.883-0.387,1.16v10.976c0,1.229-0.997,2.226-2.226,2.226c-1.229,0-2.226-0.997-2.226-2.226v-10.976
						c0-2.163,0.912-3.966,2.499-4.947c1.747-1.081,4.078-1.035,6.389,0.122c3.869,1.935,6.899,6.543,6.899,10.494v10.977
						C432.018,184.55,431.022,185.547,429.792,185.547z"/>
				</g>
			</g>
		</g>
	</g>
	<g>
		
			<linearGradient id="SVGID_00000115477368174082848560000009372803208183456417_" gradientUnits="userSpaceOnUse" x1="281.6127" y1="173.3423" x2="480.7817" y2="-53.5978">
			<stop  offset="0" style="stop-color:#367FC2"/>
			<stop  offset="1" style="stop-color:#37C1E8"/>
		</linearGradient>
		<path style="fill:url(#SVGID_00000115477368174082848560000009372803208183456417_);" d="M344.03,121.24
			c-0.385,0-0.697-0.313-0.697-0.698V83.903c0-0.386,0.312-0.698,0.697-0.698c0.386,0,0.698,0.313,0.698,0.698v36.638
			C344.727,120.927,344.415,121.24,344.03,121.24z"/>
	</g>
	<g>
		
			<linearGradient id="SVGID_00000003098095930123325470000008484365244136413345_" gradientUnits="userSpaceOnUse" x1="331.072" y1="216.7493" x2="530.2405" y2="-10.1902">
			<stop  offset="0" style="stop-color:#367FC2"/>
			<stop  offset="1" style="stop-color:#37C1E8"/>
		</linearGradient>
		<path style="fill:url(#SVGID_00000003098095930123325470000008484365244136413345_);" d="M470.552,96.576
			c-0.385,0-0.697-0.313-0.697-0.698V19.765c0-0.386,0.312-0.698,0.697-0.698c0.386,0,0.698,0.313,0.698,0.698v76.114
			C471.249,96.264,470.937,96.576,470.552,96.576z"/>
	</g>
	<g>
		<g>
			<path style="fill:#303996;" d="M628.329,113.621c0-9.766-7.389-21.386-16.562-26.149c-3.468-12.178-12.83-24.359-23.867-29.879
				c-5.188-2.594-9.995-3.326-14.004-2.491l-0.003-0.019l-6.377,1.178c0,0-2.863,5.781-3.484,7.338
				c-3.643-1.752-6.993-2.122-9.723-1.343l-0.034-0.008l-4.771,0.835c0,0,5.519,31.759,14.836,36.418
				c3.965,1.983,50.571,26.318,50.571,26.318l5.79-1.053l-0.019-0.007C625.283,123.868,628.329,119.887,628.329,113.621z"/>
			<path style="fill:#A2C6E9;" d="M605.659,88.592c-3.468-12.178-12.83-24.359-23.867-29.879c-11.037-5.52-20.4-2.703-23.867,6.006
				c-9.173-4.412-16.562-0.183-16.562,9.583c0,9.876,7.552,21.66,16.869,26.319c3.966,1.983,43.156,21.583,47.121,23.566
				c9.317,4.659,16.869,0.43,16.869-9.446C622.221,104.974,614.832,93.354,605.659,88.592z"/>
		</g>
		<polygon style="fill:#FFFFFF;" points="576.646,74.236 576.646,74.236 589.283,92.329 583.716,89.545 583.716,104.051 
			583.709,104.048 569.583,96.983 569.577,96.98 569.577,82.474 564.009,79.69 		"/>
	</g>
</g>
</svg>
