<svg id="Layer_1" data-name="Layer 1" xmlns="http://www.w3.org/2000/svg" xmlns:xlink="http://www.w3.org/1999/xlink" viewBox="0 0 360.01 360.01"><defs><clipPath id="clip-path" transform="translate(0 0)"><rect width="360.01" height="360.01" style="fill:none"/></clipPath></defs><title>RichieBartlett-iOS-icon</title><g style="clip-path:url(#clip-path)"><path d="M90,0H270a90,90,0,0,1,90,90V270a90,90,0,0,1-90,90H90A90,90,0,0,1,0,270V90A90,90,0,0,1,90,0" transform="translate(0 0)" style="fill-rule:evenodd"/><path d="M180,30A129.69,129.69,0,1,1,50.32,159.65,129.69,129.69,0,0,1,180,30" transform="translate(0 0)" style="fill:#f16b4e;fill-rule:evenodd"/><path d="M209.88,83.45C207.1,79.31,202,74.3,197.78,74c-8.56-.71-9.81,2.41-18.34,3.8-2.41-2-2.1-3.58-8.34-1.39-4.7,1.61-5.75,4-11.14,4.62-17.66,2.1-9.18,5.47-14,7.71-5.38,2.55-5.21,4.39-5.89,9.89-1.79,14.57-8.36,21.88-6.66,40.42,1.22,13.55.42,23,1.07,28.41.46,3.77,5.48,13.86,10.27,15.42,4.59,1.47,8.39-2.41,9.55-.26-3.46,8.25,1.39,11.63,3.23,13.07,3,2.3,9.61,8,14.49,8.42,6.88.62,13.35-12.3,4.05-15.19-2.69-.83-10.83-7.71-7.37-6.81,4,1,23.9.34,24.77.29,1.62-.12-.79,3.57-3.62,6.32-19.17,10.94-6.72,14.28,1.47,12.95,6.49.85,18.88-10.15,16.78-21.63-1.22-6.69-.76-6.23,2.81-5.86s7.59.62,9.44-5.76c2.66-9.35,1.13-17.63,1.7-27.58C223.18,122.09,221,122,220,112.88c-.34-3.21.45-6.24-1.14-11.26a74.73,74.73,0,0,0-9-18.17" transform="translate(0 0)" style="fill:#f5b193;fill-rule:evenodd"/><path d="M158.83,131.47c-1.53.34-3.63,1.59-5.47-.59-1.25-1.48-2.67,2.15-2.55-.37,0-.8-.74.62-1.25-1.25-.31-1.16-6.44,1.62-4.59.54.08-.06,2.77-1.9,2.35-2,0-3.79,5.75-5,10.23-5.18a25.76,25.76,0,0,1,9.72,2c6.16,2.38,3.38,2.89,2.92,4.76a8.17,8.17,0,0,1-4.3,5.39c-3,1.27-7.43.08-9,.68.65-.43,7.34-5.25,2-4" transform="translate(0 0)" style="fill:#ac6249;fill-rule:evenodd"/><path d="M184.11,76.68c.32,3.49-5.78,5.3,1.14,9.66,10.23,6.44-11.26,13.61-.48,17.32,2.38,11.63-5.67,2.84,3.77,16.16.62.88-2.36,10-2,17.83a16.57,16.57,0,0,0,2.87,7.8c6.88,11.25,2.12,3.34,1.36,17.91-.29,5.93,11.17,14.32-14.6,12.31-1.79-.15,4.53,1.5,5.24,2,5.78.14,11.43,1.87,12.13,4.65.4,1.56-3.48,3.57-6.32,6.32-1,1.47-4,3.54-4.22,5.07-.71,5.36,5.27,9.92,8.28,9.87,6.52.85,19.33-12.14,17.15-23.62-.85-4.53.42-4.82,2.49-4.36,1.31.28,2.41,5,4,5,2.32-.06,5.16-5.59,6.4-11,2.19-9.46.2-18.93.77-28.88C223.18,122.09,221,122,220,112.88c-.34-3.21.45-6.24-1.13-11.26a75.1,75.1,0,0,0-9-18.17C207.1,79.31,202,74.3,197.78,74c-6.69-.57-8.93,1.22-13.67,2.72" transform="translate(0 0)" style="fill:#ef8762;fill-rule:evenodd"/><path d="M209.88,83.45C207.1,79.31,202,74.3,197.78,74c-8.56-.71-9.81,2.41-18.34,3.8-2.41-2-2.1-3.58-8.34-1.39-4.7,1.61-5.75,4-11.14,4.62-17.66,2.09-9.18,5.47-13.94,7.71-5.39,2.55-5.22,4.39-5.9,9.89-1.79,14.57-8.36,21.88-6.66,40.42,1.22,13.55,1.27,25.09,3.34,30.16a62.4,62.4,0,0,0,3.72,8.28c3.91,6.89,5,1.28,8.13-1s7.29-1.27,7.88,1.56a40.72,40.72,0,0,0-.68,9.1c.29,6,2,6.43,6.24,10,2.55,2.1,5.47,4.16,8.36,4.56,4.39.62,16.27-7.06,4.05-12.19-1.78-.76-3.06-2.29-4.39-3.14-5.22-3.32-4.88-7.6.74-7.94,3-.17,7.23,1.1,10.85,1.25,5.56.19,13.67-3.26,13.41,2.75-.08,1.61-3.68,4.62-6.52,7.37-10,3.62-.17,11.82,3.72,11.76,6.49.85,14.42-10,14.54-21.23.05-6.24.34-5.81,1.67-6.24,4.14-1.27,5.1,10,8.67,3.32,1.45-2.67,3.24-5.44,3.75-8.17,1.84-9.55.59-18.42,1.16-28.37,1.08-18.71-1.14-18.8-2.07-27.92-.34-3.21.45-6.24-1.13-11.26a75.1,75.1,0,0,0-9-18.17M141.79,64.06c-11.62,3.66-7.43,5.56-10.57,14.4-1.87,5.25.34,4.79-5.22,15.51-1.59,3.06,1.7,10.46-1.9,17.72-2.58,5.16-1.95,11.17.54,14.82,1.22,1.79,4,2.24,3.83,6.58-.14,3.83,5.07,8.45,5.19,24.77.05,9.39,2.8,23.16,10.23,28.75,8.22,6.18,13.18,14.17,20,19.64,5.84,4.68,12.7,8.19,19.73,7.94,7.88-.31,11.34-2.5,17.32-9.92.23-.29,9.27-12.5,9.3-12.53a36.64,36.64,0,0,0,7.29-8.05c3.43-5.53,6.2-7.34,5.89-15.31-.22-5.53-1-13.8-.39-19.79,2.77-6.6,2.15-8.16,1.89-13.91A85.66,85.66,0,0,0,227.85,110c-.14-3.15-1.39-7,0-9.22.85-1.41-.88-3.34-.88-5.07,0-3.57.79-7.23.51-10.57-.6-7.4-4.74-14.55-8.9-18.06-4.94-4.17,14.17,3.14.65-4.31-3.6-2-18.85.34-19.9-2.47-1.76-4.76-11.76-13.49-16.41-13.49-4.11,0-15.65-5.5-16.47,5.61-.23,3-6.61-2.89-11.57,4.54-2.38,3.6-12.47,6.92-13,7.11" transform="translate(0 0)" style="fill:#333;fill-rule:evenodd"/><path d="M134.31,166.11c-2.89-1.53-4.48-3.2-4.4-7,.09-4.17.88-9.81-2.52-12.5-4.53-3.55-5.19-16,.62-16.39a6.18,6.18,0,0,1,.46,2.84c-.14,3.83,5.07,8.45,5.19,24.77a57,57,0,0,0,.65,8.25" transform="translate(0 0)" style="fill:#ef8762;fill-rule:evenodd"/><path d="M202.88,131.87c1.53.34,3.6,1.59,5.47-.6,1.25-1.44,2.67,2.16,2.55-.36,0-.8.74.62,1.25-1.25.31-1.16,6.43,1.61,4.59.54-.08-.06-5-2.72-4.56-2.75,0-3.83-3.91-5.11-8.39-5.3-3.26-.15-6.78,1.9-9.36,2.92a20,20,0,0,0-2.27,1c-2.55,1.19-2.15,2-1.61,4.51.37,1.58,1.08,3.37,2.72,4.13,3.46,1.65,9.69.49,11.57,1.19-.66-.42-7.35-5.24-2-4" transform="translate(0 0)" style="fill:#ac6249;fill-rule:evenodd"/><path d="M162.31,124.78a13.53,13.53,0,0,0-5.3-1.07c-1.92,0-6.09,2-6.2,3.82,0,.54.45,1.19,1.38,1.65,3.49,1.75,6.27.51,9.59-.43a41.66,41.66,0,0,1,5.1-1.25c1.78-.28,2.21-.22.17-.68-2.24-.51-2.75-1.22-4.74-2" transform="translate(0 0)" style="fill:#b6b49e;fill-rule:evenodd"/><path d="M160,129.29a3.66,3.66,0,0,0,1-2.49,3.74,3.74,0,0,0-1.3-2.84,12,12,0,0,0-2.64-.25,7.73,7.73,0,0,0-2.63.68,3.79,3.79,0,0,0-.88,2.41,3.71,3.71,0,0,0,1.95,3.26,13.71,13.71,0,0,0,4.54-.77" transform="translate(0 0)" style="fill:#49494b;fill-rule:evenodd"/><path d="M157.21,128.35a1.57,1.57,0,0,0,0-3.14,1.57,1.57,0,0,0,0,3.14" transform="translate(0 0)" style="fill:#333;fill-rule:evenodd"/><path d="M156.5,126.54a.5.5,0,0,0,.49-.48.49.49,0,0,0-1,0,.5.5,0,0,0,.48.48" transform="translate(0 0)" style="fill:#fff;fill-rule:evenodd"/><path d="M171.07,149.13c-.68.66-1,1.28-2.18,2.27-2.78,2.5,2.72,4.37,3,4.31,3.07-.43.09-2.07,4.57-1.67.51,0,2,2.38,6.32.59,1.22,1.25,5.36,2.19,8.3,1.53a7.84,7.84,0,0,1,1-1c1.58-1.38,1.36-5,.42-6.43l-.11-.14-.09-.17-.11-.14-.09-.15-.11-.11-.08-.14-.09-.11-.11-.12-.09-.11-.08-.11-.09-.12-.08-.08-.09-.12-.08-.08-.09-.09-.08-.08h0l-.06-.09-.08-.08-.09-.06-.08-.08-.09-.06-.08-.08-.09-.06-.08-.09-.09-.05-.08-.06-.06-.06-.09,0-.08-.06-.09-.06-.08-.05-.09-.06-.08-.06-.09,0-.08-.06-.09-.06,0-.05-.09-.06-.08-.06-.12-.08-.08-.06-.09-.06-.08,0-.09-.09-.08-.05-.09-.09-.11-.06-.08-.08-.12-.09-.08-.08-.09-.09-.11-.08-.12-.09-.08-.08-.11-.11-.12-.12-.11-.11-.09-.11-.11-.12-.11-.11-.14-.14-.12-.12-.11-.14-.11-.14c-2.3-2.72-.74-7.31-1.19-9.86-.68-3.8-2.56-5-4.37-5h-.6l-.08,0h-.2l-.06,0h-.08l-.09,0c1.45,1.62.26,4.08.6,6.43,1,7-3,7.12,3.26,9.44,1.28.49,7.28,4.17,6.86,6.24-.28.14-3.8-2.47-5-3.09-2.44-1.25-3.65.74-5.78.79-2.89.12-6.52-1.16-8.82,1" transform="translate(0 0)" style="fill:#d0753b;fill-rule:evenodd"/><path d="M144.88,187.51A40.33,40.33,0,0,0,147.12,199c.28.73.65,1.53,1,2.32,1.36,2.86,3.12,6,5,9.72l13.38,23.48c3.43,6.63,4.88,6.86,11.48,10.4-.42-7.12-1.13-7,5.59-8.59,4.16-2.07,2.38-2.32,3.74-6.63,7.48-9.95,14.31-20.1,21.85-30,.17-2.53,0-5.73,1.22-8.08l-.17.14-10.49,11.34c-7,8.76-10.09,10.68-21.63,9.27-15.59-1.9-21.6-15.54-33.22-24.84" transform="translate(0 0)" style="fill:#f5b193;fill-rule:evenodd"/><path d="M167.84,209c8.68,6.64,5.1,9.61-4.76,4.45,6.63,5.13,10.69,7.83,17.58,7.2,1-.08,3.17-.7,4.33-.93,4.28-2,3.52,2.52-2.72,5,3.66.22,5.73-1,7.82-2.1,3.38-1.82,2.36-.2,1.42,1.42,6.1-8.25,11.51-16.3,17.66-24.35.17-2.53,0-5.73,1.22-8.08l-.06.05-.05.06-.06,0-10.49,11.34-.31.42-.34.4-.31.37-.31.37-.31.36-.29.37-.31.34-.28.34a4.07,4.07,0,0,0-.29.34,3.17,3.17,0,0,0-.31.32,3.73,3.73,0,0,1-.28.31,2.6,2.6,0,0,1-.29.28c-.08.11-.17.2-.25.31a1.28,1.28,0,0,0-.28.29l-.29.25-.28.28-.26.26c-.08.09-.19.14-.28.23l-.25.25a1.94,1.94,0,0,0-.29.23c-.08.08-.17.14-.25.23a2.43,2.43,0,0,0-.29.19,1.1,1.1,0,0,1-.25.2l-.29.2a1,1,0,0,1-.28.2l-.25.17-.29.2-.28.14-.28.17a.87.87,0,0,1-.29.14.82.82,0,0,1-.28.14.74.74,0,0,1-.28.14c-.09.06-.2.09-.29.15a1,1,0,0,0-.31.11,1.36,1.36,0,0,0-.28.11l-.32.09a1.12,1.12,0,0,1-.31.11l-.31.09-.31.08-.31.09a1.4,1.4,0,0,1-.34.05l-.31.09a1.28,1.28,0,0,0-.34.06l-.37,0a1.43,1.43,0,0,1-.34.06,1.58,1.58,0,0,1-.37,0,1.46,1.46,0,0,1-.37,0v0h-.37a2.23,2.23,0,0,1-.37,0,1.58,1.58,0,0,0-.39,0h-1.22c-.15,0-.29,0-.43,0h-.45l-.46,0c-.14,0-.28,0-.45,0l-.45,0-.48-.06a2.69,2.69,0,0,1-.49,0c-.17,0-.34,0-.51,0a82716569784725.58,82716569784725.58,0,0,0-1-.12,3.29,3.29,0,0,1-.54-.05A26.6,26.6,0,0,1,167.84,209" transform="translate(0 0)" style="fill:#ac6249;fill-rule:evenodd"/><path d="M172.15,156.87c-4-.59-5.58-3-5.64-5.55a5.93,5.93,0,0,1,2.84-5.42A4.43,4.43,0,0,0,171,142c-1.59,1.93-3.26,2.58-4.65,3.57-14.49,10.43,5.07,1.7-7.23,11.48-3.09,2.47-4.37,4.91-6.41,12l1.34-2.24c1.84-3.23,8.53-12.16,13.12-10.29,1.13.46,2,.83,5,.37" transform="translate(0 0)" style="fill:#ac6249;fill-rule:evenodd"/><path d="M176.88,153.39c.06-2.24-5.52-4-6.46-1.93-.65,1.42,1.87,2.18,3.32,1.61,2-.79,2.24-.36,3.14.32" transform="translate(0 0)" style="fill:#1a1a1a;fill-rule:evenodd"/><path d="M185.67,151.37a18,18,0,0,0-2.83,1.39c-1.11.82.56-.42,1.76.91,1.36,1.5,3.51,1.25,4.19-1.36.51-2-2.21-1.31-3.12-.94" transform="translate(0 0)" style="fill:#1a1a1a;fill-rule:evenodd"/><path d="M185.45,133.15c.45,2.55-1.11,7.14,1.19,9.86,2.63,3.15,3.71,2.27,5.92,5.67.94,1.45,1.16,5-.42,6.43a8.66,8.66,0,0,0-1,1c-.49.06-2.13.83-3.18.66a.58.58,0,0,1,.14.05A32.76,32.76,0,0,1,183,156c-.51.43-.25,1.11.37,1.73,8.33,0,15.36,4.4,20.24,9.56,1,.51,1.84,1,2.38,1.19,8.7,3.91.28-3.23-.74-3.72-2.46-1.24-4.56-5-4.65-5a43.67,43.67,0,0,1-5.18-5c-.54-.77.14-4.45-.43-4.59a10.51,10.51,0,0,0-3.51-4.51c-3.92-3-4-3.57-3.92-6,0-1.37-.73-5.79,1.11-3.38,3.88,5,7.37,5.56,12.25,7,1.19.36,7.82.65,9,.14,1.84-.77-2.24-.46-2.67-.46-5.55,0-14.2-2.49-17.49-7.34a27.64,27.64,0,0,1-1.64-3.91c-.51-1.36-.54-2.78-1.3-3.54a7,7,0,0,0-3.94-1.19,12.21,12.21,0,0,0-4.71.85,2.54,2.54,0,0,0-1.9,1.84,17.8,17.8,0,0,1-2.47,5.81c-3.34,4.34-9.58,6.24-14.82,6.24-1.62,0-11.68-1.34-11.71.25,0,.23.94.23,1.14.2,4.08-.48,7.25.65,10.94.68,7.28,0,13.8-3,16.89-8.79,1.45-2.69.6-5.89,4.85-5.87,1.81,0,3.69,1.17,4.37,5" transform="translate(0 0)" style="fill:#ac6249;fill-rule:evenodd"/><path d="M165.4,172.41c3,2.12,16.5,2.32,24.95,2,2-.09,9.38-.4,3.74-1.22-3.43-.51-5.55-1.39-13-.37-3.83.51-9.92-1-13.44-.94-.68.15-1.39.29-2.07.4l-.17.09m4.17-.94a28.3,28.3,0,0,1,5.16.45,20,20,0,0,0,4,.6,17.74,17.74,0,0,0,2.32-.17c1-.11,2.24-.43,3.38-.51a25.71,25.71,0,0,1,9.69.93c2.92.94,2.52,0,1.08-1-.09,0-.17,0-.23-.05-3.65-.66-7.54-1.76-10.4-2.36a16.76,16.76,0,0,0-3.77,1.36c-2.13,1.08-3.63-.48-6.41-1a9,9,0,0,0-1.44.51,25.07,25.07,0,0,1-3.35,1.22" transform="translate(0 0)" style="fill:#d0753b;fill-rule:evenodd"/><path d="M196.19,173.79c3,1,2.41-.79-.11-1.19.45.57.08.85-2,.17a25.71,25.71,0,0,0-9.69-.93c-1.14.08-2.36.4-3.38.51a17.74,17.74,0,0,1-2.32.17,20,20,0,0,1-4-.6,28.3,28.3,0,0,0-5.16-.45h0c-.62.17-1.24.31-1.9.45,3.52,0,9.61,1.45,13.44.94,7.46-1,9.58-.14,13,.37,1.5.22,2.1.39,2.1.56" transform="translate(0 0)" style="fill:#1a1a1a;fill-rule:evenodd"/><path d="M196.19,173.79c3,1,2.41-.79-.11-1.19.45.57.08.85-2,.17a25.71,25.71,0,0,0-9.69-.93c-1.14.08-2.36.4-3.38.51a17.74,17.74,0,0,1-2.32.17,20,20,0,0,1-4-.6,28.3,28.3,0,0,0-5.16-.45h0c-.62.17-1.24.31-1.9.45,3.52,0,9.61,1.45,13.44.94,7.46-1,9.58-.14,13,.37C195.59,173.45,196.19,173.62,196.19,173.79Z" transform="translate(0 0)" style="fill:none;stroke:#1a1a1a;stroke-miterlimit:10;stroke-width:0.2160000056028366px"/><path d="M162.2,125.09a14.79,14.79,0,0,0-2.64-.79,10.94,10.94,0,0,0-2.52-.25,9.05,9.05,0,0,0-4,1.41c-1,.66-1.85,1.42-1.87,2.1a.83.83,0,0,0,.28.62,2.47,2.47,0,0,0,.91.68c2.94,1.51,5.38.77,8.1-.05a9.43,9.43,0,0,1,1.25-.37c.54-.17.79-.26,1-.31.48-.14.85-.26,1.25-.34s.88-1.11-.06-1.85c-.48-.25-1-.53-1.7-.85m-2.49-1.47a16.44,16.44,0,0,1,2.75.85c.73.31,1.27.62,1.78.88a9.29,9.29,0,0,0,2.87,1.13c1.21.29,1.72.43,1.61.8s-.42.37-1.1.45l-.69.11a28.54,28.54,0,0,0-4.05.94c-.37.11-.79.23-1,.28s-.79.26-1.25.37c-2.83.88-5.38,1.65-8.56.06a4,4,0,0,1-1.16-.88,1.6,1.6,0,0,1-.42-1.08c.05-1,1-1.9,2.21-2.63a10,10,0,0,1,4.33-1.53,14.75,14.75,0,0,1,2.7.25" transform="translate(0 0)" style="fill:#333"/><path d="M189.47,111.66c-1.87,5.5-2.89,1.84-4.48,3.29-1.16,1,3.09,3.31-2.66,4.08-2.58.34,1.7,1.53-1.76,3.29-.31.17,1.7-.63,1.59,1.78,0,.48,1.22.65,2.63,1,.94-.08,2-.25,3.29-.45A4.85,4.85,0,0,1,190.6,122a22.88,22.88,0,0,1,7-2c1-.17,1.95-.29,2.86-.4,3.91-.8,3.94-4.25,7.51-4.25-2.26-2.47-10.91.88-15.59-2.19-.42-.28-2.58-2.38-2.89-1.44m-.91,15c1.25-.08,3.69-1.47,3.89-2.66.14-.79,3-2.35,5.33-3.4h-.09a22,22,0,0,0-6.75,2,4,4,0,0,0-2.38,4.08" transform="translate(0 0)" style="fill:#d0753b;fill-rule:evenodd"/><path d="M219.66,121.38c-1.59-4.42-4.68-8.81-8.39-10.37-3.29-1.42-7.06-.26-10.66.17-3.34.59-7.23.9-10,3.11-.93.8-1.3,1.62-.59,2.5a3.75,3.75,0,0,0,4.31,1.53c17.46-4.22,17.12-2.95,25.31,3.06M141.2,119c4.59-4.82,7.74-7.74,14.79-7.48l8.34,1c3.34.59,7.23.9,10,3.12.93.79,1.3,1.61.62,2.49a3.78,3.78,0,0,1-4.34,1.53c-6.29-1.53-10.43-3.34-17.49-2.92-2.75.17-5.38.88-11.9,2.24" transform="translate(0 0)" style="fill:#333;fill-rule:evenodd"/><path d="M149.25,111.23c8.19-8.19,13-5.58,21.94-2.46,3.85,1.24,6.23,3.46,6.89,5.13,3.85,3.14,7.39,7.68-2.9,8.47a5.49,5.49,0,0,0-1.24-.85,15.76,15.76,0,0,0-3.06-1.24l-.09,0-.11,0-.09,0-.05,0-.09,0h-.06l0,0h0l-.11-.06-.34-.09-.09,0-.4-.12-.25,0-.09,0-.17-.06-.42-.08a10.45,10.45,0,0,0-1.42-.34l-.45-.12-.17,0-.46-.11h-.08l-.2-.06-.17,0-.09,0h-.11l-.08,0-.09,0H165l-.09,0-.11,0h-.09l-.08,0h-.09c-1.1-.23-2.15-.4-3.17-.57h0l-.54-.09-.17,0h-.17v0h-.14l-.23,0h0l-.06,0h-.17l-.06,0h-.2l0,0h-.23l-.09,0h-.17l-.08,0a4.39,4.39,0,0,0,1.05-.77c3.51.54,6.6,1.62,10.54,2.58a3.78,3.78,0,0,0,4.34-1.53c.68-.88.31-1.7-.62-2.49-2.75-2.22-6.64-2.53-10-3.12l-.85-.12h-.2l-.11,0H163l-.11,0-.14,0h-.14l-.12,0h-.14l-.11,0h-.14l-.15,0-.11,0h-.14l-.11,0h-.15l-.14,0h-.11l-.14,0-.12,0h-.14l-.14,0h-.11l-.14,0h-.12l-.14,0h-.11l-.14,0-.15,0h-.11l-.14,0h-.11l-.15,0h-.14l-.11,0-.14,0h-.12l-.14,0h-.14l-.11,0h-.15l-.11,0H158l-.14,0-.12,0h-.14l-.11,0h-.14l-.14,0H157l-.14,0h-.11l-.14,0-.12,0h-.14l-.14,0h-.11l-.15,0h-1.9a.72.72,0,0,1-.25,0h-.06l-.25,0h0a.77.77,0,0,0-.26,0,.72.72,0,0,0-.25,0h-.06c-.08,0-.17,0-.22,0h-.06a.61.61,0,0,1-.23,0l0,0-.25,0h0l-.23.06h0a.78.78,0,0,0-.23.06c-.09,0-.17,0-.23,0l-.05,0-.2.06h-.06l-.23.06a1,1,0,0,1-.22,0l0,0-.2.06h-.06a.68.68,0,0,1-.19.08h0l-.17.06-.09,0-.17.06-.08,0-.12.06-.11.06h0l-.08,0,0,0-.06,0-.14.06-.11,0-.12.05-.11.06-.14.06-.06.05h0l-.11.06c-.11-.62-.31-.54.91-1.76m25,11.29c-.94.42-.26,2-3.09,2.49-1.31.2-3.18,2.66-4.93-.45-1-1.73-9.3-2-9.3-3.46a3.25,3.25,0,0,1,1.16-2.64l0,0h.25l.09,0h.23l.08,0h.26l0,0h.2l.09,0h.17l.08,0h.12l.19,0H160l.06,0,.22,0h.12l.08,0h0l.17,0h.17l0,0,.65.09h0l.08,0h0c.88.14,1.82.31,2.75.48s2,.39,2.95.62l.08,0,.09,0,.25,0,.54.12.26.08.08,0,1.31.34c.39.14.79.26,1.16.37l.06,0,.08,0,.17.05.06,0,.05,0h.06l.09,0,.05,0,.06,0,.06,0h0l.06,0,.06,0,.05,0h.06c.54.23,1,.45,1.45.68a4.37,4.37,0,0,1,.65.4" transform="translate(0 0)" style="fill:#ac6249;fill-rule:evenodd"/><path d="M159.76,163c-2.29,1.7-5.92,2.09-6.4,5-.77,4.48-1.39,6.74,7,5,5.78-1.22,10.23-1.19,13.52-3.12a5.21,5.21,0,0,1,6,.39c6.6-2.57,15.08,1.08,20.77,2.39,8.88,2.07,4.4-2.87,4-5.87-5.35-6.1-16.07-11.82-24.46-7.63-6.18-2.35-13-1.7-20.47,3.89" transform="translate(0 0)" style="fill:#333;fill-rule:evenodd"/><path d="M137.82,207.7l5-14.18-39.06,31.81-3.46,5.36,12.65,9.21L91.84,250.61a126.38,126.38,0,0,0,64.95,33.57l-4.43-15.93-12.24-49.44Z" transform="translate(0 0)" style="fill:#4d4d4d;fill-rule:evenodd"/><path d="M209.09,198.88l16.84,16.5c24.32,7.11,32.11,10.4,53.57,22.65a139.13,139.13,0,0,1-9.95,11.2,126.28,126.28,0,0,1-69.31,35.46l3.06-25.6,1.39-11.68.06-.34a143.33,143.33,0,0,1,2.92-16.87l.23-.85c.17-.7.34-1.41.51-2.15,2.35-9.72,2.21-13.15.79-27.13l0,0c0-.4,0-.79-.08-1.22" transform="translate(0 0)" style="fill:#332c2b;fill-rule:evenodd"/><path d="M72,225.81l13-5.47h18l15.64-7.14-14.88,12.13-3.46,5.36,12.65,9.21L91.84,250.62c-.45-.46-.93-.94-1.41-1.39A127.85,127.85,0,0,1,72,225.81" transform="translate(0 0)" style="fill:#333;fill-rule:evenodd"/><path d="M142.22,195.17l2.49-3.18c.4,1.28.88,2.55,1.42,3.86a21.39,21.39,0,0,0,1,3.12c.28.73.65,1.53,1,2.32,1.36,2.86,3.12,6,5,9.72l12.08,19.08c1.07,1.9,2.09,3.8,3.06,5.64-3.83-2.55-5.7.71-8.05,5.81-2.81,6.07-3.8,5.79-1.22,11.4,1.61,4.73,1,4.05-.88,8.76l-5.05,7.43-.39.28-.32-1.16-12.24-49.44-2.3-11.11Z" transform="translate(0 0)" style="fill:#dcdddd;fill-rule:evenodd"/><path d="M192.36,222.38l-5.55,7.51,2.89-.22c9.3,12.41,9,11.73,10.68,26.5l2.92,2.92,1.39-11.68.06-.34L206,236.44l1.87-7.09c.17-.7.34-1.41.51-2.15,2.35-9.72,2.21-13.15.79-27.13-5.92,7.8-11.79,16-17.69,24a9,9,0,0,0,.85-1.65" transform="translate(0 0)" style="fill:#dcdddd;fill-rule:evenodd"/><path d="M186.81,229.89c-1,5.7-2.55,4.4-8.54,6.18-4.22,2.1-2.77,2.13-1.27,7.2l.42,4.85,5.11,3,6.54-1,6.78-4.25,2.49-2.56c-1.22-3.77-3.43-6.63-8.64-13.57Z" transform="translate(0 0)" style="fill:#666;fill-rule:evenodd"/><path d="M167.84,235.48,170,239l7,4.56.39,4.54,5.11,3L183,251l2.12,3-19.59-4,19.59,4-19.59-4L158,246.11c.48-1.11,1.22-2.44,2.21-4.57,2.26-4.9,4.08-8.1,7.62-6.06" transform="translate(0 0)" style="fill:#757475;fill-rule:evenodd"/><path d="M156.79,284.18l-4.11-14.77.39-.28,5.05-7.43c1.87-4.71,2.49-4,.88-8.76-1.67-3.66-1.84-4.82-1-6.83l7.56,3.94-.22,10.37,1.3,25.2c-3.32-.37-6.63-.85-9.86-1.44" transform="translate(0 0)" style="fill:#999;fill-rule:evenodd"/><path d="M185.16,254h0L183,251l6-1,6.78-4.25,2.24-2.33h.31c.91,2.89,1.28,6.41,2,12.7l2.92,2.92-3.06,25.6c-3.63.59-7.28,1-11,1.27l-1-6.49-2.75-25Z" transform="translate(0 0)" style="fill:#999;fill-rule:evenodd"/><polygon points="138.96 213.25 138.96 213.25 159 252.94 144.31 235.73 140.12 218.81 138.96 213.25" style="fill:#666;fill-rule:evenodd"/><path d="M209.94,219.24l-10.21,31.29c.2,1.45.37,3.12.6,5.05l4.36-8v-.17l.06-.34L206,236.44l1.87-7.08c.17-.71.34-1.42.51-2.16a67.72,67.72,0,0,0,1.53-8" transform="translate(0 0)" style="fill:#757475;fill-rule:evenodd"/><path d="M188,241.37a2.32,2.32,0,1,0-2.33-2.32,2.33,2.33,0,0,0,2.33,2.32" transform="translate(0 0)" style="fill:#fff;fill-rule:evenodd"/><path d="M188,240a1,1,0,0,0,1-1,1,1,0,0,0-1.93,0,1,1,0,0,0,1,1" transform="translate(0 0)" style="fill:#333;fill-rule:evenodd"/><path d="M186.15,247.41a2.31,2.31,0,1,0-2.32-2.29,2.31,2.31,0,0,0,2.32,2.29" transform="translate(0 0)" style="fill:#fff;fill-rule:evenodd"/><path d="M186.15,246.08a1,1,0,0,0,1-1,1,1,0,0,0-1-1,1,1,0,0,0-1,1,1,1,0,0,0,1,1" transform="translate(0 0)" style="fill:#333;fill-rule:evenodd"/><path d="M201.72,124.16a8.15,8.15,0,0,1,6.12,1c1.25.74,2.27,1.67,2.32,2.58,0,.51-.45,1.16-1.33,1.64-3.34,1.82-6.18,1.19-9.38.29a30.78,30.78,0,0,0-4.82-1.17c-1.7-.28-1.93-.7,0-1.33a7.69,7.69,0,0,0,2.07-1,12,12,0,0,1,5.05-2" transform="translate(0 0)" style="fill:#b6b49e;fill-rule:evenodd"/><path d="M203.93,130.57a3.75,3.75,0,0,0,2.55-3.55,3.8,3.8,0,0,0-1.42-3,5.72,5.72,0,0,0-.85-.08,13.88,13.88,0,0,0-4.25.57,3.68,3.68,0,0,0,.54,5.41,16.69,16.69,0,0,0,3.43.6" transform="translate(0 0)" style="fill:#49494b;fill-rule:evenodd"/><path d="M202.77,128.58a1.57,1.57,0,0,0,1.55-1.56,1.56,1.56,0,1,0-1.55,1.56" transform="translate(0 0)" style="fill:#333;fill-rule:evenodd"/><path d="M202,126.77a.47.47,0,1,0,0-.94.45.45,0,0,0-.46.46.46.46,0,0,0,.46.48" transform="translate(0 0)" style="fill:#fff;fill-rule:evenodd"/><path d="M201.66,123.82a9.81,9.81,0,0,1,3.26-.09A8.55,8.55,0,0,1,208,124.9a7.22,7.22,0,0,1,1.76,1.36,2.4,2.4,0,0,1,.73,1.47,1.9,1.9,0,0,1-.42,1.11,3.64,3.64,0,0,1-1.11.85,9.71,9.71,0,0,1-4.9,1.22,20.61,20.61,0,0,1-4.71-.88l-1.13-.34a25.82,25.82,0,0,0-3.66-.85c-1-.17-1.58-.43-1.64-.8s.42-.79,1.56-1.16a8.33,8.33,0,0,0,1.16-.45c.28-.17.57-.34.82-.51a17.25,17.25,0,0,1,2.47-1.34,11.26,11.26,0,0,1,2.72-.76m3.15.57a9.09,9.09,0,0,0-3,.11,10.18,10.18,0,0,0-2.58.71,19.65,19.65,0,0,0-2.35,1.27,4.29,4.29,0,0,1-.91.54c-1,.65-.7,1.14.29,1.45.79.17,1.33.31,2.18.57.31.08.65.19,1.16.34a19.16,19.16,0,0,0,4.54.85,9,9,0,0,0,4.56-1.14,2.83,2.83,0,0,0,.88-.68,1,1,0,0,0,.28-.65,1.82,1.82,0,0,0-.53-1.05,6.42,6.42,0,0,0-1.62-1.22,7.77,7.77,0,0,0-2.86-1.1" transform="translate(0 0)" style="fill:#333"/><path d="M149.59,118.83a24.61,24.61,0,0,0-3.38.71,13.4,13.4,0,0,0-2.8,1.1,4.41,4.41,0,0,0-1.16.88,2.78,2.78,0,0,0-.63,1,7.65,7.65,0,0,0-.14,3,23.31,23.31,0,0,0,.85,4.36,6.16,6.16,0,0,0,2.35,3.74,14.63,14.63,0,0,0,4.57,1.62,48.75,48.75,0,0,0,6.57,1.16,45.14,45.14,0,0,0,6.52.28,48,48,0,0,0,6-.56,11.52,11.52,0,0,0,3.45-1,4,4,0,0,0,1.51-1.61,13.29,13.29,0,0,0,1.24-3.09c.15-.57.32-1.14.49-1.67.85-2.67,1.58-5-1.36-6.58A19.64,19.64,0,0,0,170,120.7c-1.7-.48-3.63-.93-5.56-1.3a51.72,51.72,0,0,0-7.4-1,35.85,35.85,0,0,0-7.45.42m-15.54,4.59a30.5,30.5,0,0,1,3.12-.9,9.66,9.66,0,0,1,3.74-.09.39.39,0,0,0,.06-.17,4.47,4.47,0,0,1,.76-1.22,6.21,6.21,0,0,1,1.37-1,13,13,0,0,1,2.92-1.16,30.41,30.41,0,0,1,3.48-.74,36.91,36.91,0,0,1,7.57-.43,50.68,50.68,0,0,1,7.51,1c1.93.36,3.89.82,5.62,1.3a20.1,20.1,0,0,1,3.74,1.47,4.11,4.11,0,0,1,2.43,2.89c5.22,1.11,6.64,1.08,11.71.26a4.84,4.84,0,0,1,2.53-2.69,22.49,22.49,0,0,1,7-2,56.57,56.57,0,0,1,6.83-.68,38.69,38.69,0,0,1,8.16.45,20.43,20.43,0,0,1,6.27,1.87,4,4,0,0,1,2.32,2.66l.8.09c.08.54.14,1.13.2,1.73l-.91-.06a18.24,18.24,0,0,1-.57,2.75c-.08.37-.17.71-.25,1.08a18.67,18.67,0,0,1-1,3.29,4,4,0,0,1-1.34,1.78c-1.56,1.19-4.16,1.9-7,2.33a62.91,62.91,0,0,1-11.51.51,33.42,33.42,0,0,1-4.19-.4,12.67,12.67,0,0,1-3.66-1.13,4.91,4.91,0,0,1-1.76-2,16,16,0,0,1-1.1-3.09,7.46,7.46,0,0,1-.23-.85,23.83,23.83,0,0,1-.62-2.53,9.27,9.27,0,0,0-5.39-1.58,12.71,12.71,0,0,0-6.63,1.72c-.12.34-.23.71-.34,1-.17.54-.34,1.11-.48,1.65a13.88,13.88,0,0,1-1.31,3.26,4.85,4.85,0,0,1-1.76,1.87,14,14,0,0,1-3.68,1.05c-2.07.31-4.42.48-6,.56a43,43,0,0,1-6.63-.31,45.42,45.42,0,0,1-6.66-1.16,15.21,15.21,0,0,1-4.77-1.7,6.9,6.9,0,0,1-2.63-4.14,24.47,24.47,0,0,1-.88-4.48c0-.37,0-.71-.06-1a.79.79,0,0,1-.93-.62,2.41,2.41,0,0,0-1.28.08l.17.8c-1.39.08-2.12.42-3.12-.23a6,6,0,0,0-1.78.45c.08-.54.17-1,.25-1.53m78.41-3a39.35,39.35,0,0,0-8-.48c-1.79.11-4.28.28-6.78.68a22.29,22.29,0,0,0-6.77,2c-3.23,1.76-2.5,4.45-1.65,7.46l.23.88a13.39,13.39,0,0,0,1.08,2.94,3.81,3.81,0,0,0,1.47,1.76,11.53,11.53,0,0,0,3.43,1,40,40,0,0,0,4.11.43,67.12,67.12,0,0,0,11.37-.51c2.75-.43,5.24-1.11,6.72-2.22a3.81,3.81,0,0,0,1.13-1.5,22.67,22.67,0,0,0,1-3.2c.09-.37.17-.71.26-1,.68-2.78,1.25-5-1.53-6.43a18.56,18.56,0,0,0-6-1.79" transform="translate(0 0)" style="fill:#333;fill-rule:evenodd"/><path d="M149.64,119.09a15.93,15.93,0,0,0-1.78.34c-.54.11-1.08.22-1.59.36s-1,.32-1.45.51a13.51,13.51,0,0,0-1.27.57,5.57,5.57,0,0,0-.62.4,4.26,4.26,0,0,0-.49.42,2.37,2.37,0,0,0-.34.46,2.09,2.09,0,0,0-.22.45,2.65,2.65,0,0,0-.17,1.08,13.29,13.29,0,0,0,0,1.73c.06.68.17,1.41.31,2.18s.32,1.44.52,2.13a9.29,9.29,0,0,0,1,2.26,4.5,4.5,0,0,0,1.3,1.34,7.55,7.55,0,0,0,1.85.85c.76.25,1.61.48,2.6.73s2,.46,3.12.65,2.3.37,3.43.49,2.44.22,3.54.28,2.1.06,2.92,0,2.05-.11,3.21-.23a27.36,27.36,0,0,0,2.72-.37,16.6,16.6,0,0,0,2-.42,6.06,6.06,0,0,0,1.36-.51,2.41,2.41,0,0,0,.68-.54,6.64,6.64,0,0,0,.71-1,10.82,10.82,0,0,0,.65-1.37,14.41,14.41,0,0,0,.57-1.64c.06-.28.14-.57.23-.85s.17-.6.25-.85c.79-2.55,1.5-4.76-1.22-6.26a15.94,15.94,0,0,0-1.56-.69,18,18,0,0,0-2-.68c-.79-.25-1.64-.48-2.55-.68s-2-.45-3-.65c-1.3-.25-2.58-.45-3.79-.62s-2.39-.28-3.55-.34a23.63,23.63,0,0,0-3.57,0c-1.22.06-2.49.2-3.83.4m-1.9-.2a16.33,16.33,0,0,1,1.82-.34c1.36-.2,2.63-.34,3.88-.43s2.44-.06,3.63,0,2.38.2,3.6.37,2.5.37,3.83.62c1,.2,2,.43,3,.66s1.76.45,2.58.68,1.45.45,2.07.7a16.68,16.68,0,0,1,1.62.71c3.14,1.7,2.38,4.14,1.5,6.92a8.33,8.33,0,0,0-.26.82c-.08.29-.17.57-.25.85a11.31,11.31,0,0,1-.57,1.7,10.73,10.73,0,0,1-.68,1.45,10.6,10.6,0,0,1-.76,1.05,5,5,0,0,1-.85.68,9.54,9.54,0,0,1-1.48.54c-.62.17-1.33.31-2.07.45-.9.14-1.84.26-2.78.34-1.19.11-2.32.17-3.23.23s-1.84,0-3,0-2.33-.14-3.58-.28-2.32-.29-3.45-.49-2.16-.42-3.15-.68-1.9-.48-2.66-.71a7.32,7.32,0,0,1-2-.93,4.64,4.64,0,0,1-1.44-1.48,10.15,10.15,0,0,1-1-2.43,21.38,21.38,0,0,1-.51-2.19c-.15-.73-.26-1.5-.34-2.21a12.92,12.92,0,0,1-.06-1.81,3.48,3.48,0,0,1,.23-1.25,1.68,1.68,0,0,1,.28-.57,3,3,0,0,1,.4-.51,2.8,2.8,0,0,1,.54-.48,4.73,4.73,0,0,1,.7-.45,9.81,9.81,0,0,1,1.34-.62c.45-.17,1-.34,1.5-.49a14.53,14.53,0,0,1,1.61-.39M134,123.17l1.56-.51c.54-.17,1.07-.31,1.58-.43a13.94,13.94,0,0,1,2-.23,11,11,0,0,1,1.67.15,5.75,5.75,0,0,1,.31-.66,7.42,7.42,0,0,1,.49-.62,4.82,4.82,0,0,1,.62-.57c.26-.17.51-.34.79-.51.43-.22.91-.45,1.42-.65a11.88,11.88,0,0,1,1.56-.51h0c.51-.17,1.08-.28,1.64-.42l1.85-.34c1.38-.2,2.69-.34,4-.4a25.25,25.25,0,0,1,3.69,0c1.22.06,2.41.17,3.66.34s2.52.4,3.88.65c1,.2,2,.43,3,.65s1.79.43,2.61.68,1.48.46,2.1.71a17.24,17.24,0,0,1,1.73.77,6.41,6.41,0,0,1,1.81,1.42,4.28,4.28,0,0,1,.74,1.5,23.65,23.65,0,0,0,11.25.22,4.06,4.06,0,0,1,.85-1.36,6.79,6.79,0,0,1,1.76-1.33,16.39,16.39,0,0,1,3.26-1.25c1.19-.34,2.5-.59,3.77-.82s2.55-.34,3.74-.45,2.24-.17,3.15-.23c1.22,0,2.64,0,4.08,0s2.78.23,4.14.43a31.16,31.16,0,0,1,3.57.79,15.6,15.6,0,0,1,2.75,1.1,6.07,6.07,0,0,1,1.7,1.31,3.5,3.5,0,0,1,.74,1.36l.62.08.2,0,0,.2c0,.28.06.57.11.85s.06.57.09.91l0,.31-.34,0-.63,0a11.1,11.1,0,0,1-.2,1.1c-.11.45-.22.94-.34,1.45l-.22.82-.06.23c-.17.73-.34,1.36-.48,1.92a9.87,9.87,0,0,1-.54,1.42,7.57,7.57,0,0,1-.62,1.11,4.27,4.27,0,0,1-.8.79,10,10,0,0,1-2.89,1.42,26.09,26.09,0,0,1-4.25,1,50.64,50.64,0,0,1-5.5.51,60.3,60.3,0,0,1-6,0c-.71,0-1.41-.08-2.15-.14a18,18,0,0,1-2.1-.28,15.14,15.14,0,0,1-2-.46,9.55,9.55,0,0,1-1.75-.71,3.72,3.72,0,0,1-1-.82,6.2,6.2,0,0,1-.85-1.33,9.83,9.83,0,0,1-.66-1.5c-.17-.51-.34-1.08-.48-1.62l-.14-.48-.11-.4c-.12-.42-.23-.88-.34-1.27s-.17-.77-.26-1.14a8.45,8.45,0,0,0-2.49-1.16,12.17,12.17,0,0,0-2.64-.34,12.92,12.92,0,0,0-3.37.43,12.45,12.45,0,0,0-3,1.21l-.11.43h0l-.14.54-.06.14c-.14.48-.31,1-.45,1.5a13.89,13.89,0,0,1-.59,1.79,9.83,9.83,0,0,1-.74,1.53,6.93,6.93,0,0,1-.88,1.19,3.67,3.67,0,0,1-1,.79,8.2,8.2,0,0,1-1.56.6,19.53,19.53,0,0,1-2.21.45c-.91.14-1.87.29-2.84.37-1.19.11-2.32.17-3.23.23s-1.9,0-3.06,0-2.35-.14-3.6-.28-2.35-.32-3.54-.51-2.13-.4-3.15-.66l-.06,0a14.82,14.82,0,0,1-4.79-1.73h0a5.94,5.94,0,0,1-1.58-1.65,9.35,9.35,0,0,1-1.14-2.63h0c-.19-.71-.36-1.48-.51-2.24a17.27,17.27,0,0,1-.34-2.3c0-.2,0-.37,0-.54v-.25a1,1,0,0,1-.63-.26.93.93,0,0,1-.25-.34l-.26,0a1,1,0,0,0-.51,0l.12.54,0,.31-.31,0c-.31,0-.59.06-.85.08a3.1,3.1,0,0,1-2.32-.31,3.92,3.92,0,0,0-.77.12,7.89,7.89,0,0,0-.88.31l-.42.17,0-.48c0-.23.09-.49.15-.77l.11-.76,0-.17Zm1.73,0c-.49.11-.94.28-1.42.42l-.09.6-.05.31a2.42,2.42,0,0,1,.51-.14,3.41,3.41,0,0,1,.91-.17h.11l.08,0a2.74,2.74,0,0,0,2,.29l.59-.09-.08-.51-.06-.23.25-.08a1.73,1.73,0,0,1,.94-.09,2.09,2.09,0,0,1,.4,0h.2l.05.2a.5.5,0,0,0,.17.28.54.54,0,0,0,.48.12l.29,0,0,.28a4.35,4.35,0,0,0,0,.51,2.91,2.91,0,0,0,0,.51,18.12,18.12,0,0,0,.34,2.27c.14.74.31,1.48.51,2.18a9.59,9.59,0,0,0,1.08,2.47,5.19,5.19,0,0,0,1.45,1.5,14.89,14.89,0,0,0,4.64,1.65l0,0c1,.26,2.07.46,3.15.66s2.35.37,3.49.51,2.46.22,3.57.28,2.18.06,3,0,2-.11,3.21-.23c.93-.08,1.9-.19,2.8-.34a20,20,0,0,0,2.16-.45,9,9,0,0,0,1.44-.54,3.22,3.22,0,0,0,.85-.68,7,7,0,0,0,.83-1.1,13.64,13.64,0,0,0,1.24-3.18c.14-.51.31-1,.48-1.53l0-.14.17-.51.14-.54.06-.11.09,0a11.74,11.74,0,0,1,3.26-1.36,12.61,12.61,0,0,1,3.51-.43,10.79,10.79,0,0,1,2.78.37,9,9,0,0,1,2.75,1.28l.11.08v.11c.09.37.17.8.29,1.19s.22.86.34,1.28l.11.4.11.48a14,14,0,0,0,.51,1.59,8.66,8.66,0,0,0,.6,1.41,5.35,5.35,0,0,0,.79,1.22,3,3,0,0,0,.85.71,9.05,9.05,0,0,0,1.65.68,18.85,18.85,0,0,0,1.92.43c.68.11,1.36.22,2,.28s1.42.11,2.1.14h0c1.53.06,3.69.09,6,0,1.76-.08,3.66-.25,5.41-.51a27.35,27.35,0,0,0,4.17-.93,10,10,0,0,0,2.72-1.36,2.83,2.83,0,0,0,.68-.66,4.11,4.11,0,0,0,.57-1,7.67,7.67,0,0,0,.51-1.36c.17-.54.31-1.16.48-1.9h0l0-.19c.08-.26.14-.52.23-.86s.22-1,.34-1.41A11.5,11.5,0,0,0,221,126l0-.28.29,0,.56.06-.05-.57c0-.2,0-.43-.06-.63l-.6,0-.19,0,0-.2a3.26,3.26,0,0,0-.68-1.3,4.9,4.9,0,0,0-1.53-1.19,14.29,14.29,0,0,0-2.67-1,25.72,25.72,0,0,0-3.48-.77h0a40,40,0,0,0-4.06-.45,36.28,36.28,0,0,0-4,0c-.91.06-2,.11-3.15.23s-2.41.25-3.68.45-2.53.48-3.72.79a15,15,0,0,0-3.14,1.25,6.54,6.54,0,0,0-1.62,1.19,4.41,4.41,0,0,0-.79,1.33l-.06.17-.17,0a33.12,33.12,0,0,1-5.84.57,32,32,0,0,1-6-.82l-.17-.06,0-.17a3.17,3.17,0,0,0-.65-1.42,5.49,5.49,0,0,0-1.65-1.3,13.2,13.2,0,0,0-1.67-.74c-.62-.22-1.3-.45-2-.68s-1.7-.48-2.61-.68-2-.45-3-.65c-1.34-.25-2.61-.48-3.86-.65s-2.41-.29-3.6-.34-2.41-.06-3.63,0a32.79,32.79,0,0,0-3.91.42c-.6.09-1.22.2-1.81.32s-1.11.25-1.62.39l-1.53.51a14.28,14.28,0,0,0-1.36.63,4.2,4.2,0,0,0-.71.48,4.39,4.39,0,0,0-.57.48,6.08,6.08,0,0,0-.39.54,2.56,2.56,0,0,0-.29.57l-.05.11,0,.08-.06.2-.23,0a10.4,10.4,0,0,0-1.81-.14,9,9,0,0,0-1.84.2,14.59,14.59,0,0,0-1.53.43m76.73-2.56c-1.33-.19-2.69-.34-4-.42a35.4,35.4,0,0,0-4,0c-.88.06-2,.11-3.09.23s-2.41.25-3.66.45a32,32,0,0,0-3.83.82,13.81,13.81,0,0,0-2.83,1.14c-3.06,1.64-2.33,4.25-1.53,7.14l.08.34.14.51v0c.15.51.32,1,.49,1.53a14.26,14.26,0,0,0,.56,1.36,4.64,4.64,0,0,0,.68,1,2.88,2.88,0,0,0,.68.6,8.46,8.46,0,0,0,1.56.62,17.39,17.39,0,0,0,1.82.43c.65.11,1.33.19,2,.25s1.36.11,2.07.14c1.53.06,3.66.09,5.92,0a46.77,46.77,0,0,0,5.39-.51,24.06,24.06,0,0,0,4-.91,8.85,8.85,0,0,0,2.58-1.24,2.57,2.57,0,0,0,.56-.54,5.6,5.6,0,0,0,.49-.85c.14-.37.31-.8.45-1.31s.31-1.13.48-1.84l.14-.54.14-.54a10.61,10.61,0,0,0,.51-3.6,3.14,3.14,0,0,0-1.9-2.52,13,13,0,0,0-2.57-1,29.05,29.05,0,0,0-3.38-.74m-4-1a32.9,32.9,0,0,1,4.06.43,28.42,28.42,0,0,1,3.46.76,14.18,14.18,0,0,1,2.66,1,3.63,3.63,0,0,1,2.18,3,10.62,10.62,0,0,1-.54,3.8l-.11.51-.14.54c-.17.7-.31,1.33-.48,1.87A10,10,0,0,1,219,133a3.61,3.61,0,0,1-.54.93,3.24,3.24,0,0,1-.65.68,10.51,10.51,0,0,1-2.75,1.33,23.89,23.89,0,0,1-4.09.91,49.78,49.78,0,0,1-5.44.51,59.1,59.1,0,0,1-6,0c-.71,0-1.39-.06-2.1-.14s-1.39-.14-2-.26a16.64,16.64,0,0,1-1.9-.42,13.68,13.68,0,0,1-1.64-.68,2.83,2.83,0,0,1-.85-.71,6.27,6.27,0,0,1-.74-1.16,9.16,9.16,0,0,1-.59-1.42,14.1,14.1,0,0,1-.49-1.59l-.14-.51-.11-.34c-.85-3.12-1.64-5.92,1.81-7.79a14.93,14.93,0,0,1,2.92-1.14,29.18,29.18,0,0,1,3.91-.85c1.25-.2,2.53-.37,3.69-.45s2.24-.2,3.12-.23c1.22-.05,2.58-.05,4,0" transform="translate(0 0)" style="fill:#333"/><path d="M201.52,75.26h0c-2.47,1.13-3.54,2.86.65,7.65,3,3.41-22.28-2.26.34,5.16,5.13,1.68,7.71.51,12.56,4.28a86.45,86.45,0,0,0-5.19-8.9,27.79,27.79,0,0,0-8.36-8.19" transform="translate(0 0)" style="fill:#ac6249;fill-rule:evenodd"/><path d="M165.57,250.05l19.59,4,.31.48,2.75,25,1,6.49c-3.06.23-6.15.34-9.24.34a128.31,128.31,0,0,1-13.35-.68l-1.3-25.2Z" transform="translate(0 0)" style="fill:#ccc;fill-rule:evenodd"/><path d="M180,286.3a126.58,126.58,0,1,0-89.57-37.07A126.36,126.36,0,0,0,180,286.3m93.86-32.79a132.78,132.78,0,1,1,38.86-93.86,132.32,132.32,0,0,1-38.86,93.86" transform="translate(0 0)" style="fill:#f16b4e"/><path d="M96,326.27a.55.55,0,0,0,.14-.17,6,6,0,0,1,1-.93c.59-.54.9-.82,1-.85a7,7,0,0,0,.77-1.56c.14-.06.22-.14.22-.23l.14-.28.17,0,.09-.09V322a4.57,4.57,0,0,1,.74-1.47c.48-1,.76-1.5.79-1.62a3.4,3.4,0,0,1,.23-.42c.11-.2.28-.57.51-1.13a7.66,7.66,0,0,1,1.1-1.73c.06,0,.12-.17.23-.43a2.34,2.34,0,0,1,.45-.71l.23-.37c.09-.11.23-.34.43-.62a4,4,0,0,1,.51-.71,1.64,1.64,0,0,0,.34-.54.79.79,0,0,1,.31-.39,1.88,1.88,0,0,0,.34-.46.6.6,0,0,1,.56-.34,1.19,1.19,0,0,1,1.08.57,2.19,2.19,0,0,1,.31,1,3.35,3.35,0,0,1-.22.77l-.29,1.61c-.25.12-.37.26-.37.4a3.33,3.33,0,0,1-.76,2,.76.76,0,0,0-.14.45,1.11,1.11,0,0,1-.31.65,2,2,0,0,0-.51.82l-1.79,2.38-.14.15c-.09,0-.17.14-.26.28l-.31-.09c-.34,0-.51.12-.51.32a.72.72,0,0,0,.09.28v0s-.49.65-1.42,1.87a6.66,6.66,0,0,0-.26.71l-.25.51a3.2,3.2,0,0,0-.57,1,2.56,2.56,0,0,1-.42.79c-.26.54-.37.82-.37.82s0,.12.11.12.26-.17.54-.54a3.92,3.92,0,0,1,.68-.71,1.47,1.47,0,0,0,.48-.48l.17-.14a1.81,1.81,0,0,0,.31-.2l.2,0a.37.37,0,0,0,.2-.26c0-.08.06-.17.11-.2a.71.71,0,0,0,.6-.34c.08-.2.2-.28.28-.28s.26-.11.4-.34a1.72,1.72,0,0,1,.71-.54,3.74,3.74,0,0,0,.65-.34,2.94,2.94,0,0,1,.88-.4,3.47,3.47,0,0,1,.88-.22h.11l.14,0,.29,0a2.56,2.56,0,0,1,1.3.36.92.92,0,0,1,.57,1.05l-.14,1.11-.2.88c0,.14-.14.45-.31.93a5.33,5.33,0,0,0-.26.85l-.08.32.08.48-.06.37a.18.18,0,0,0,.2.17c.06,0,.2-.12.43-.32a.38.38,0,0,0,.39-.22,6.05,6.05,0,0,1,.51-.51s.09-.09.26-.12a2.58,2.58,0,0,0,.68-.42,3,3,0,0,1,.74-.68,5.73,5.73,0,0,1,1.13-.74h0l.31-.25h0a.75.75,0,0,1,.48-.26v0l.2-.05a1.51,1.51,0,0,1,.68-.63l.29-.2a.69.69,0,0,1,.22-.14,1.18,1.18,0,0,0,.46-.34.86.86,0,0,1,.51-.28.93.93,0,0,1,.31,0,1.33,1.33,0,0,1,.45-.43,2.3,2.3,0,0,0,.57-.48l.23-.11a2.18,2.18,0,0,0,.56-.37.82.82,0,0,1,.6-.23,1.88,1.88,0,0,1,1.16.54,1.4,1.4,0,0,1,.6,1l-.32,1.39c-.22,1-.45,1.56-.73,1.62l-.06.37c-.2.11-.28.22-.28.28l.11.42c0,.06-.06.15-.2.29s0,0,0,.08v.74c0,.14-.11.23-.28.31,0,0,.09.06.11.09a.73.73,0,0,1,.51-.12l.32,0,.39-.37a1.62,1.62,0,0,0,.37-.17,5.58,5.58,0,0,1,.79-.37l2.47-1.78c.34-.31.6-.48.77-.48s.28.14.28.34a1.14,1.14,0,0,1-.17.65,3.22,3.22,0,0,0-.28.62,1,1,0,0,1-.32.51,1.3,1.3,0,0,0-.31.31,1.5,1.5,0,0,1-.59.49,4.72,4.72,0,0,0-.85.65,3.46,3.46,0,0,1-.6.48l-.79.54-.12.2-.36.14a2.13,2.13,0,0,0-.54.28l-.34.17a.94.94,0,0,1-.37.12.59.59,0,0,0-.45.19.5.5,0,0,1-.29.17l-.28,0-.4.11a1.27,1.27,0,0,1-.76-.37,1,1,0,0,1-.49-.76v-.12l.06-.25a1.88,1.88,0,0,0-.14-.37l-.09-.31,0-.26,0-.11a2.18,2.18,0,0,1,.06-.6.76.76,0,0,0,.11-.34,2.5,2.5,0,0,1,.09-.37l.08-.45a.58.58,0,0,1,.2-.28c0-.09.06-.26.14-.48l.09-.32.2-.25a.82.82,0,0,0,.17-.4,1.6,1.6,0,0,1,.2-.51,1.24,1.24,0,0,0,.17-.31c0-.14-.09-.2-.23-.2a1.66,1.66,0,0,0-.48.28l-.34-.11s-.09.06-.2.17-.06.09-.17.11a.71.71,0,0,0-.34.26l-.14.06-.26-.12h0c-.15,0-.23.12-.23.4a1,1,0,0,1-.57.37l-.4.11a.44.44,0,0,0-.31.31,1.05,1.05,0,0,1-.37.46,1.43,1.43,0,0,0-.22.14l-.06.11-.08.17a.71.71,0,0,1-.32.37.74.74,0,0,0-.42.28,2.1,2.1,0,0,1-.88.46c-.2.34-.37.54-.48.54l-.34-.15a.82.82,0,0,0-.4.63,2.68,2.68,0,0,0-.59.51l-.37,0c-.12,0-.14.11-.14.37,0,0-.15.11-.4.25a6.89,6.89,0,0,0-.6.37,1.94,1.94,0,0,1-.9.14.35.35,0,0,1-.23-.11,1.43,1.43,0,0,0-.43-.23.63.63,0,0,1-.42-.39,1.82,1.82,0,0,0-.23-.54.39.39,0,0,1-.14-.28l0-.37-.09-.37.17-.23a.94.94,0,0,1-.11-.34l.2-1.08a7.49,7.49,0,0,1,.34-1.53,1.41,1.41,0,0,0,0-.22l0-.46,0-.25c0-.17-.06-.26-.2-.29s-.2,0-.23-.08l-.28-.09c-.09,0-.17.06-.26.2a1,1,0,0,1-.31.4l-.45-.06v0c0,.11-.2.28-.51.57a1.39,1.39,0,0,0-.82.45,1,1,0,0,0-.54.29,2.8,2.8,0,0,1-.48.31l-.15.28-.31.09a.74.74,0,0,1-.62.45l-.17.34a.63.63,0,0,0-.57.37c-.08.25-.17.37-.23.37l-.11-.06a.34.34,0,0,0-.17,0c-.25,0-.42.17-.45.57a5.09,5.09,0,0,1-.77.85,6.82,6.82,0,0,1-.82.76c-.06,0-.11.15-.23.37a1,1,0,0,1-.45.51,4.07,4.07,0,0,1-.43.29.38.38,0,0,1-.19.11c-.29,0-.49-.17-.66-.54s-.25-.54-.25-.54l.11-.39,0-.32s.09-.25.23-.71a3.87,3.87,0,0,1,.54-1.1,3.31,3.31,0,0,0,.48-1.3,6.52,6.52,0,0,1-.91.48s0,0,0,.08l-.29,0-.08.11a5,5,0,0,0-1,.71l-.37.4h-.06c-.14-.14-.23-.2-.31-.2s-.12.09-.17.26a3.41,3.41,0,0,1-.94.68,1.63,1.63,0,0,0-.39.28l-.4.26H91a.42.42,0,0,0-.09.14,1,1,0,0,1-.34.28,3.49,3.49,0,0,0-.4.34.54.54,0,0,1-.37.23l-.34-.06a.63.63,0,0,1-.62.28l-.31.29c-.17.11-.26.2-.31.2a2.77,2.77,0,0,1-.4-.23h0c-.14,0-.2.11-.2.28s-.11.26-.34.29a1.26,1.26,0,0,0-.65.17h0a1,1,0,0,1-.6-.15,1.54,1.54,0,0,0-.34-.22l-.65.17a.71.71,0,0,1-.43-.17l-.79-.4a1.13,1.13,0,0,1-.28-.48l-.12-.14c-.39-.06-.68-.46-.82-1.16l-.14-.43s0-.09,0-.17a2.13,2.13,0,0,1,.14-.54,7,7,0,0,0,.31-1,1,1,0,0,1,.63-.77v-.17a2,2,0,0,1,.37-.76,1.71,1.71,0,0,1,.87-.77s0,0,0,0l0-.28a4.69,4.69,0,0,0,.37-.48c.2-.26.4-.37.6-.34a1.84,1.84,0,0,1,.51-.45,2.8,2.8,0,0,0,.59-.49l.71-.42a2.37,2.37,0,0,1,1.08-.46h.28a.64.64,0,0,1,.6-.36.91.91,0,0,1,.48.11s0,0,.06,0,.08,0,.22-.14a1,1,0,0,1,.51-.15c.06,0,.34.12.85.29a.73.73,0,0,1,.46-.2.56.56,0,0,1,.25.11l.4.17a1.26,1.26,0,0,1,.37.68,4,4,0,0,1,.2.63c0,.2-.17.42-.51.68a1.6,1.6,0,0,1-.94.39.61.61,0,0,1-.37-.25c-.37-.09-.71-.17-1-.26a2.64,2.64,0,0,0-.82.26h0l-.17-.14-.14,0h-.06a.7.7,0,0,0-.14.25,4.13,4.13,0,0,1-.51.26.84.84,0,0,0-.37.17,1,1,0,0,1-.43.28,1.24,1.24,0,0,0-.48.4,3.26,3.26,0,0,1-.54.23H86.6a5.69,5.69,0,0,1-.68.93l-.51.77a3.47,3.47,0,0,0-.4.34c-.17.11-.25.22-.25.31a.74.74,0,0,0,0,.2v.17c0,.05-.06.14-.17.25s-.2.17-.2.23l0,.4-.14.59c0,.37.29.57.85.57h.26l.82-.14.68-.09a1,1,0,0,1,.28-.05,2.18,2.18,0,0,0,.32-.2h.19l.17,0c0-.26.4-.46,1.08-.63a1.35,1.35,0,0,1,.77-.48,2.49,2.49,0,0,0,1.07-.65h.29a.92.92,0,0,0,.34-.2,2.87,2.87,0,0,1,.62-.34,1.42,1.42,0,0,0,.4-.2.71.71,0,0,1,.28-.17,1.53,1.53,0,0,1,.8-.62l.08-.06c.2-.17.31-.25.37-.25l.23,0a.23.23,0,0,0,.25-.2c0-.17.23-.37.6-.63a1.74,1.74,0,0,1,.7-.36.34.34,0,0,1,.23,0m136.75-9.21L233,317l.17-.17h.06l.17.06h0a1.77,1.77,0,0,0,.79-.17,3.78,3.78,0,0,1,.59-.23l.32-.11a.08.08,0,0,1,.08,0l.31,0c.09,0,.23-.17.4-.51a2,2,0,0,1,.6-.74,2.15,2.15,0,0,0,.62-.88.9.9,0,0,0,.17-.25c.06-.14.11-.2.14-.2a.46.46,0,0,0,.45-.34c.4-.4.71-.62.94-.62s.54.28.65.85l.2.68a1.44,1.44,0,0,1-.08.25,1.49,1.49,0,0,0-.09.48.73.73,0,0,1,0,.32c0,.05,0,.14,0,.19s.12.15.32.15a.87.87,0,0,0,.42-.15l.11,0a1.2,1.2,0,0,0,.34.11,4.57,4.57,0,0,0,.51-.2l.66-.2a1.67,1.67,0,0,0,.45-.14h.23l.14.06a.92.92,0,0,0,.31-.14,1.87,1.87,0,0,1,.91-.2l.25-.09h.09c.42,0,.62.17.62.51a1,1,0,0,1-.17.37,1.89,1.89,0,0,0-.31.6l-.54.65.11-.09h0l.17.06h0a2,2,0,0,0,.82-.17,2.57,2.57,0,0,1,.6-.23,1.3,1.3,0,0,0,.28-.11.11.11,0,0,1,.09,0l.31,0c.11,0,.23-.17.42-.51a1.76,1.76,0,0,1,.57-.74,2,2,0,0,0,.62-.88,1.54,1.54,0,0,0,.2-.25c.06-.14.09-.2.14-.2a.54.54,0,0,0,.46-.34c.37-.4.68-.62.91-.62s.53.28.68.85l.17.68a1.08,1.08,0,0,1-.09.25,1.46,1.46,0,0,0-.08.48v.32a.47.47,0,0,0-.06.19c0,.12.11.15.34.15a1,1,0,0,0,.42-.15l.09,0a1.31,1.31,0,0,0,.34.11,3.77,3.77,0,0,0,.54-.2l.62-.2a1.38,1.38,0,0,0,.46-.14h.22l.17.06a2.21,2.21,0,0,0,.31-.14,1.79,1.79,0,0,1,.88-.2l.29-.09h0c.43,0,.63.17.63.51a1,1,0,0,1-.17.37,1.86,1.86,0,0,0-.29.6l-.88,1.05a1.15,1.15,0,0,1-.87.51c-.06,0-.2-.15-.49-.46,0,0,0-.05,0-.05a.92.92,0,0,0-.4.08.81.81,0,0,1-.34.06,10.22,10.22,0,0,0-1,.28l-.45.06a2.21,2.21,0,0,0-.34.08l-1,.17a1.65,1.65,0,0,0-.79.88s-.06.06-.17.14l-.85,1.48a.71.71,0,0,0-.57.45l-.06.11a.64.64,0,0,0-.39.23,3.73,3.73,0,0,1-.31.28l-.35.49c-.14.17-.28.34-.42.53a1.7,1.7,0,0,0-.28.63,1.76,1.76,0,0,1-.17.39.24.24,0,0,0-.06.17l-.06.15a.69.69,0,0,0-.22.48l.08.28c-.17.57-.25.88-.25.91a1.09,1.09,0,0,0,0,.2V326a2.35,2.35,0,0,1-.31,1l.06.29-.11.79a2,2,0,0,0,.11.57c-.06,0-.09.08-.09.11a1.84,1.84,0,0,0,.54,1.11,2.49,2.49,0,0,1,.57,1.84.63.63,0,0,1-.06.31,2.06,2.06,0,0,0,0,.45.82.82,0,0,1-.32.49.84.84,0,0,1-.45.22c-.68,0-1.16-.45-1.5-1.36a8,8,0,0,1-.48-1.78l0-.68-.12-.37.12-1.56-.09-.37.45-1.53v-.54s.09-.11.26-.28c0,0,0-.06-.09-.06a.59.59,0,0,0-.28.23,2.1,2.1,0,0,1-.48.39l-.14.26a.24.24,0,0,0-.17-.06c-.06,0-.26.29-.6.82a.85.85,0,0,0-.65.43.66.66,0,0,1-.62.37l-.06,0c-.06.35-.23.52-.54.52l-.08,0c-.17.4-.37.6-.57.6a1.28,1.28,0,0,1-.94.71.8.8,0,0,1-.34.34.87.87,0,0,0-.31.2.27.27,0,0,1-.17.08c-.14,0-.23-.17-.23-.51a.51.51,0,0,1,.12-.31.42.42,0,0,0,.11-.23s-.06-.11-.17-.22c0-.37.09-.6.28-.68a1,1,0,0,0,.46-.43.58.58,0,0,1,.39-.28c.17-.06.26-.15.26-.26s.17-.23.51-.48a4.32,4.32,0,0,0,.71-.65c.17-.17.28-.29.4-.29l.05-.05c0-.31.17-.46.37-.46l.2-.11,0-.14.11-.06h.14l.12,0a.83.83,0,0,1,.42-.71,10.22,10.22,0,0,0,1.5-1.39,7.1,7.1,0,0,0,1.19-1.48,6.71,6.71,0,0,1,.49-.88,2.27,2.27,0,0,0,.39-1s-.05-.08-.11-.14l-.82.4c0-.06-.12-.11-.37-.17a2.3,2.3,0,0,0-.43.31c-.08.11-.14.17-.19.17l-.26,0-.85.09a3.85,3.85,0,0,0-1.67.42l-.8.2h-.17a1.12,1.12,0,0,0-.45.2l-.43-.06a2,2,0,0,1-.87.32.86.86,0,0,1-.23,0l-.79.2a.35.35,0,0,0-.17.25l-.09.11a.63.63,0,0,0-.37.23c-.11.11-.22.2-.31.28l-.34.49-.43.53a2,2,0,0,0-.31.63,1.36,1.36,0,0,1-.14.39.24.24,0,0,0-.06.17l0,.15a.7.7,0,0,0-.23.48l.09.28a9.11,9.11,0,0,0-.29.91s0,.08.06.2V326a2.35,2.35,0,0,1-.31,1l0,.29-.12.79a4.93,4.93,0,0,0,.12.57s-.06.08-.06.11a1.69,1.69,0,0,0,.54,1.11,2.63,2.63,0,0,1,.56,1.84,1.32,1.32,0,0,1,0,.31c0,.14-.06.28-.09.45a.74.74,0,0,1-.28.49.94.94,0,0,1-.45.22c-.68,0-1.19-.45-1.51-1.36a7.11,7.11,0,0,1-.51-1.78l.06-.68-.11-.37.11-1.56-.09-.37.46-1.53v-.54s.08-.11.25-.28c0,0,0-.06-.08-.06s-.17.09-.31.23a2.2,2.2,0,0,1-.46.39l-.14.26a.23.23,0,0,0-.17-.06c-.06,0-.25.29-.62.82a.82.82,0,0,0-.63.43.68.68,0,0,1-.62.37l-.08,0a.5.5,0,0,1-.51.52l-.09,0a.65.65,0,0,1-.09.17l0,.09c-.06.25-.15.37-.23.4h-.11a4.62,4.62,0,0,1-.37.31,2,2,0,0,1-.48.28,0,0,0,0,1,0,0l-.63.71c-.11.11-.22.2-.31.31a.43.43,0,0,1-.22.14l-.15-.14s0,0-.08,0a.22.22,0,0,0-.23.2.78.78,0,0,1-.2.37,2.25,2.25,0,0,0-.73.45l-.12.06h-.34c-.17,0-.28.11-.34.34a.55.55,0,0,1-.54.4,1,1,0,0,0-.62.22,1.2,1.2,0,0,0-.17.06,2.11,2.11,0,0,0-.54.28l-1.59.54a.58.58,0,0,1-.25.09l-.51.08a.27.27,0,0,1-.23-.17.32.32,0,0,0-.17-.11l-.34.08a2,2,0,0,1-.71.12,1.29,1.29,0,0,1-.42-.12,3.88,3.88,0,0,1-.34-.2c-.37,0-.63-.25-.8-.79l-.22,0a7.43,7.43,0,0,1-.51-1.25.49.49,0,0,0-.34-.2.34.34,0,0,1-.26-.37,1.28,1.28,0,0,1,.37-1.07.94.94,0,0,0,.4-.4l.28-.93a1,1,0,0,0,.17-.37l.45-.74c.06-.09.15-.28.34-.62l.4-.32a.44.44,0,0,0,.48-.42c0-.28.23-.51.63-.71l.22-.31a5.63,5.63,0,0,1,1.56-.68,1.19,1.19,0,0,0,.43-.34.09.09,0,0,1,.08,0l.31.08a2.13,2.13,0,0,0,.63-.14,2.46,2.46,0,0,1,.74-.11l.79-.06a2,2,0,0,1,.34.12,1.18,1.18,0,0,0,.57.11,1,1,0,0,1,.76.37.94.94,0,0,1,.34.65,1.58,1.58,0,0,1-.59,1.11,2.46,2.46,0,0,1-1,.65,2.34,2.34,0,0,1-.51.37,1.4,1.4,0,0,0-.34.25.49.49,0,0,1-.31.17s-.08,0-.08,0-.09-.05-.15-.05-.42.22-.65.68l-.34,0a.93.93,0,0,0-.42.42c-.06.17-.2.23-.4.23-.45.45-.79.68-.94.68l-.28-.08a.68.68,0,0,0-.14.36c0,.15-.11.23-.31.26l-.23.23-.2-.06-.39.37a1.19,1.19,0,0,0-.57.2c0,.14-.09.31-.12.53s-.08.34-.08.37c0,.34.34.51,1,.51l.91-.11a1.32,1.32,0,0,0,.68-.2,1.37,1.37,0,0,1,.68-.17,1.3,1.3,0,0,0,.34-.08l.17.08a1.4,1.4,0,0,1,.51-.48,1.18,1.18,0,0,1,.57-.2l.2-.11a.39.39,0,0,1,.22-.29l.14-.14a.49.49,0,0,1,.29-.14h.25l.09,0a.91.91,0,0,1,.62-.54c.28-.05.45-.14.51-.25a.56.56,0,0,1,.37-.2.66.66,0,0,0,.45-.25,1.44,1.44,0,0,1,.46-.37c.17-.12.28-.23.37-.29a.25.25,0,0,1,.17-.08s0,0,0,0a1.37,1.37,0,0,0,.17-.23.54.54,0,0,1,.37-.28c.2-.06.28-.15.28-.26s.17-.23.51-.48a3.94,3.94,0,0,0,.71-.65c.15-.17.29-.29.37-.29l.09-.05c0-.31.14-.46.37-.46l.17-.11.05-.14.12-.06H230l.08,0a.85.85,0,0,1,.46-.71,11.23,11.23,0,0,0,1.47-1.39,7,7,0,0,0,1.22-1.48,2.41,2.41,0,0,1,.14-.28,1.48,1.48,0,0,1,.6-1.05,2.37,2.37,0,0,0,.14-.57.43.43,0,0,1-.12-.14l-.82.4c0-.06-.11-.11-.37-.17a2.16,2.16,0,0,0-.42.31c-.09.11-.17.17-.2.17l-.28,0-.83.09a4.17,4.17,0,0,0-1.7.42l-.76.2h-.17a.86.86,0,0,0-.46.2l-.42-.06a2,2,0,0,1-.91.32,1.17,1.17,0,0,1-.22,0l-1.93.48a7.36,7.36,0,0,0-1,.74l-.14,0c-.15,0-.29-.11-.46-.39a1.35,1.35,0,0,1-.25-.71c0-1.19,1.07-1.87,3.23-2l.76-.29h0l.23.06H227a1.14,1.14,0,0,0,.36-.14,4.71,4.71,0,0,1,1.11-.31l.77-.2.25,0a1.17,1.17,0,0,0,.43-.14,1.67,1.67,0,0,1,.7-.2,5.84,5.84,0,0,0,.68-.14l.29-.06a1.47,1.47,0,0,0,.34-.14,1.1,1.1,0,0,1,.59-.12,2.12,2.12,0,0,1,.29.06m9.18.28a.71.71,0,0,0-.23.06.87.87,0,0,1,.23-.06m-1.36.34-.23.06-.34,0,.15,0a.9.9,0,0,0,.42-.12m-1.22.23-.79.14a.48.48,0,0,0-.17.12,4.73,4.73,0,0,1,.74-.2Zm14.54,14.17.37.23a.68.68,0,0,1,.26.62.45.45,0,0,1-.09.26c-.05.08-.11.2-.17.31-.45.82-1,1.22-1.56,1.22a1.69,1.69,0,0,1-.88-.48,2.34,2.34,0,0,1-.76-.88,1.64,1.64,0,0,0-.26-.48c-.08-.09-.11-.14-.11-.17a.71.71,0,0,1,.17-.43,2.9,2.9,0,0,0,.23-.59.7.7,0,0,1,.39-.51,1.63,1.63,0,0,0,.49-.34.63.63,0,0,1,.39-.15.44.44,0,0,1,.31.12,3.27,3.27,0,0,0,.43.25,1.9,1.9,0,0,1,.57.57Zm21.32-.34.09.4,0,0h.32l.08.06c.26,0,.45,0,.57,0a1.34,1.34,0,0,0,.93-.28,1.21,1.21,0,0,1,.57-.26.41.41,0,0,0,.34-.28c.11-.17.17-.25.2-.25h.25l.06,0a.61.61,0,0,1,.4-.6,1,1,0,0,0,.54-.48,1.48,1.48,0,0,1,.36-.43.71.71,0,0,0,.29-.39l.17-.23c0-.06,0-.14,0-.28l.37-.63a2.53,2.53,0,0,0,.12-.68.66.66,0,0,0-.4-.59.85.85,0,0,1-.4-.85,1,1,0,0,1,.43-.74c.31-.23.45-.37.45-.42s0-.12-.11-.12l-.46.14c-.08.17-.51.4-1.33.66a2,2,0,0,0-.42-.17c-.09,0-.14.08-.23.22a.79.79,0,0,1-.23.29H278s-.11.08-.23.22a.7.7,0,0,1-.54.26l-.22.2a.77.77,0,0,1-.4.59l-.2.23a6.62,6.62,0,0,1-.48.51l-.34.79a2.11,2.11,0,0,0-.23.68c0,.09-.11.14-.22.23a.3.3,0,0,0-.2.28.49.49,0,0,0,.11.2.47.47,0,0,1,.14.2l-.08.23-.06.68Zm17.86-6.69.51-.22a1.6,1.6,0,0,0,.51-.46l.68-.45a1.74,1.74,0,0,1,.74-.37l.31.11.23-.22a.64.64,0,0,1,.45-.23,1.77,1.77,0,0,1,.93.48c.4.34.6.63.6.85l-.08.63a4.81,4.81,0,0,0,.17.79v.14l-.09.43.09.45-.23.85c0,.23.08.34.25.34a2.2,2.2,0,0,1,.54-.34l.29-.25a.35.35,0,0,1,.19-.12c.06,0,.12-.08.2-.17a.65.65,0,0,1,.31-.25.5.5,0,0,0,.29-.26,4.45,4.45,0,0,1,1.61-1.24.6.6,0,0,0,.23-.17c.14-.12.23-.2.31-.2l.4-.31.17.05h.06a1.93,1.93,0,0,0,.28-.17,1,1,0,0,1,.37-.17,1.57,1.57,0,0,1,1.19.46c.31.31.45.53.45.7l-.08.4.11.57V327l-.08.37c0,.08.05.17.17.31a.52.52,0,0,1,.14.28,1,1,0,0,0-.23.29l.06.31-.12,1a.77.77,0,0,0,.26.4c.08,0,.2-.09.31-.12a2.28,2.28,0,0,0,.34-.11c.09,0,.11-.06.11-.06s0,0,0,0a.78.78,0,0,1,.22.09h.09c.11,0,.14-.11.17-.28s.14-.34.37-.46l.45,0a1.48,1.48,0,0,0,.17-.28,2.8,2.8,0,0,1,.79-.77,2.07,2.07,0,0,1,1.05-.51c.2,0,.29.09.29.23s0,.2-.06.4a1,1,0,0,1,.14.42c0,.23-.2.45-.62.74a2.7,2.7,0,0,0-.94,1l-.06.09-.39-.06a1.48,1.48,0,0,0-.17.28.48.48,0,0,1-.34.32.45.45,0,0,0-.26.11l-.39.23a5.87,5.87,0,0,0-.74.73,1.72,1.72,0,0,1-1.08.63,2.41,2.41,0,0,1-.68-.17,1.24,1.24,0,0,1-.65-.4,4.53,4.53,0,0,0-.48-.43c-.23-.17-.31-.48-.31-1,0,0,0-.06.08-.11s.11-.12.11-.15a1.89,1.89,0,0,1-.45-.76.65.65,0,0,1,.06-.23.64.64,0,0,0,0-.22l0-.63.05-.34,0-.2.11-.9c0-.15-.09-.2-.26-.2s-.11,0-.19.14a2,2,0,0,1-.34.23c-.15.05-.29.22-.43.51a1.07,1.07,0,0,0-.45.34c-.09.11-.15.17-.2.17a1.09,1.09,0,0,0-.17,0,.4.4,0,0,0-.23.31v.06l.06.14c0,.11-.12.23-.29.31a2.27,2.27,0,0,0-.7.74.61.61,0,0,0-.26,0l-.23.42a.92.92,0,0,0-.36.37l-.23.11a3.47,3.47,0,0,1-.26.4l-.11.2c-.54.59-.94.91-1.13.91s-.49-.29-.77-.83a2.64,2.64,0,0,1-.45-1.24l.05-.66a.66.66,0,0,0-.14-.28v-.06s.06-.17.14-.42v-.51s0-.09,0-.11V328a.94.94,0,0,1,.14-.28l-.12-.54.09-.29,0-.62.06-.54a.5.5,0,0,0-.09-.2c-.08-.08-.11-.11-.14-.11a2.18,2.18,0,0,0-.79.4,4.58,4.58,0,0,0-.88.65l-.63.54a1.13,1.13,0,0,0-.53.91s0,0-.09,0l-.11-.05h-.06c-.08,0-.28.25-.59.76l-.09.06-.37-.06c-.28,0-.45.29-.45.91,0,.11-.09.17-.23.2a.52.52,0,0,0-.37.31,2.34,2.34,0,0,1-.37.51,1.19,1.19,0,0,0-.48.26,5.74,5.74,0,0,1-.42.53,6.35,6.35,0,0,0-.46.63c0,.05-.11.11-.25.2s-.23.14-.23.19l.09.32c0,.17-.2.28-.6.28-.76,0-1.13-.74-1.13-2.24a1.06,1.06,0,0,1,.22-.54,4.56,4.56,0,0,0,.49-.76c.22-.23.51-.54.85-1a6.5,6.5,0,0,1,.73-.88l.23-.37a.49.49,0,0,1,.11-.31.45.45,0,0,0,.09-.28c0-.2-.06-.28-.14-.28a.81.81,0,0,0-.57.17,1.11,1.11,0,0,1-.48.22.46.46,0,0,0-.31.26,1.5,1.5,0,0,0-.57.45,4.08,4.08,0,0,1-.4.46,2.46,2.46,0,0,0-.17.22.25.25,0,0,1-.22.17.51.51,0,0,0-.26.12.44.44,0,0,1-.34.11c-.14,0-.23-.11-.34-.31a2.64,2.64,0,0,1-.14-.43c0-.85.62-1.59,1.84-2.24a1.79,1.79,0,0,0,.4-.22,1.22,1.22,0,0,1,.28-.2l.09-.14a3.2,3.2,0,0,1,1.13-.6h.28l1.25-.31c.57-.11.82.45.82,1.73l0,.34.08.14a3.83,3.83,0,0,1,.65-.51c.2-.17.37-.28.48-.4a1.23,1.23,0,0,1,.6-.37M259.83,328v-.17a2.33,2.33,0,0,1,.4-.76,1.76,1.76,0,0,1,.85-.77s.05,0,.05,0l-.05-.28a5.13,5.13,0,0,0,.39-.48c.2-.26.4-.37.57-.34a2,2,0,0,1,.54-.45,2.8,2.8,0,0,0,.59-.49l.68-.42a2.5,2.5,0,0,1,1.08-.46h.28a.81.81,0,0,1,1.08-.25.11.11,0,0,0,.09,0,1,1,0,0,0,.22-.14,1,1,0,0,1,.51-.15c.06,0,.34.12.85.29a.69.69,0,0,1,.43-.2.63.63,0,0,1,.28.11l.37.17c.14.06.28.29.4.68a4,4,0,0,1,.2.63c0,.2-.17.42-.51.68a1.68,1.68,0,0,1-.94.39.61.61,0,0,1-.37-.25,8.92,8.92,0,0,1-1-.26,2.39,2.39,0,0,0-.82.26h0l-.17-.14-.17,0h0a.7.7,0,0,0-.14.25,4.13,4.13,0,0,1-.51.26.61.61,0,0,0-.37.17,1,1,0,0,1-.43.28,1.06,1.06,0,0,0-.48.4,4.88,4.88,0,0,1-.54.23h-.11a6.49,6.49,0,0,1-.71.93l-.48.77-.43.34c-.14.11-.22.22-.22.31a.74.74,0,0,0,0,.2v.17c0,.05-.06.14-.17.25s-.2.17-.2.23l.05.4-.17.59c0,.37.29.57.85.57h.29l.82-.14.65-.09a1.12,1.12,0,0,1,.31-.05s.12-.09.32-.2h.17l.17,0c.05-.26.42-.46,1.07-.63a1.59,1.59,0,0,1,.77-.48,2.41,2.41,0,0,0,1.1-.65h.29a1.26,1.26,0,0,0,.34-.2,2.87,2.87,0,0,1,.62-.34,1.15,1.15,0,0,0,.37-.2,1.06,1.06,0,0,1,.28-.17,1.61,1.61,0,0,1,.82-.62l.06-.06c.23-.17.34-.25.4-.25l.23,0a.22.22,0,0,0,.22-.2c0-.17.26-.37.63-.63a1.74,1.74,0,0,1,.7-.36h.12a2.74,2.74,0,0,1,.71-.6.93.93,0,0,0,.59-.45,1.88,1.88,0,0,1,.68-.34,1.29,1.29,0,0,0,.65-.34,6.45,6.45,0,0,1,2.84-1.25,3.62,3.62,0,0,0,.42-.09c.17,0,.34-.11.49-.14a2.45,2.45,0,0,0,.48-.2,1,1,0,0,1,.39-.14l.54.17c.43.12.66.2.74.23a2.39,2.39,0,0,0,.4.17,3.93,3.93,0,0,1,.71.31c.25.11.36.37.36.74l-.31.45c0,.06.14.14.43.23.11.17.25.4.45.68l.23.62,0,1.48,0,.14c-.14.11-.23.2-.23.23l.06.36-.14.49a.46.46,0,0,1-.2.31.31.31,0,0,0-.17.17l-.12.14-.17.31a.81.81,0,0,1-.25.4.63.63,0,0,0-.2.34.34.34,0,0,1-.2.28,1,1,0,0,0-.2.2.7.7,0,0,1-.22.17l-.88.71-.14-.06c-.15,0-.29.12-.49.31s-.31.32-.39.32l-.17,0a2.19,2.19,0,0,1-.68.39,1.89,1.89,0,0,0-.51.2,1.31,1.31,0,0,1-.54.14.79.79,0,0,0-.37.17,1.24,1.24,0,0,1-.74.15l-.31-.06a1.1,1.1,0,0,1-.31.11.55.55,0,0,1-.34-.14.51.51,0,0,0-.37-.17,1,1,0,0,1-.4-.25,1.66,1.66,0,0,0-.39-.32.59.59,0,0,1-.29-.25l-.25-.23a2.12,2.12,0,0,1-.65-.76,2.18,2.18,0,0,1-.29-.88v-.09l0-.34,0-.39a.58.58,0,0,0,.17-.29v-.59l.48-1.42c0-.06,0-.14-.17-.23a.94.94,0,0,1-.36.34.31.31,0,0,0-.26.23c-.06.14-.11.2-.23.2l-.11,0-.17.09c0,.05-.06.14-.11.22a.45.45,0,0,1-.12.2v0s0,0,0,0l-.05.08-.29,0-.08.11a4.48,4.48,0,0,0-1,.71l-.37.4h-.06c-.14-.14-.23-.2-.31-.2s-.12.09-.2.26a2.7,2.7,0,0,1-.94.68,3,3,0,0,0-.36.28l-.4.26h-.28s-.06.08-.12.14a1.11,1.11,0,0,1-.31.28,2,2,0,0,0-.4.34.62.62,0,0,1-.37.23l-.34-.06a.63.63,0,0,1-.62.28,3,3,0,0,0-.34.29c-.14.11-.23.2-.28.2s-.17-.09-.4-.23h0c-.14,0-.2.11-.2.28s-.11.26-.34.29a1.19,1.19,0,0,0-.65.17H263a1.13,1.13,0,0,1-.62-.15.82.82,0,0,0-.34-.22l-.62.17a.71.71,0,0,1-.43-.17l-.82-.4c-.06,0-.14-.2-.25-.48l-.12-.14c-.4-.06-.68-.46-.82-1.16l-.14-.43a.24.24,0,0,1-.06-.17,1.51,1.51,0,0,1,.17-.54,6.24,6.24,0,0,0,.28-1,1.07,1.07,0,0,1,.63-.77m-76.37-3.48.26-.06.14-.23a4.84,4.84,0,0,0,1.3-1c0-.06.09-.08.17-.14a1.13,1.13,0,0,0,.29-.26,2.39,2.39,0,0,1,1.67-.65c.74,0,1.13.43,1.19,1.31l.11.25a4.53,4.53,0,0,1,.43,1,3.58,3.58,0,0,1,.28.94,1.74,1.74,0,0,1-.31,1,6.59,6.59,0,0,0-1.28,1.33l-.19.15a2.94,2.94,0,0,1-.4.62c-.26.08-.37.17-.37.28v.31s0,.06-.09.15a1.33,1.33,0,0,0-.22.39l-.17.23a.72.72,0,0,0-.14.28,1,1,0,0,1-.23.4.75.75,0,0,0-.14.28c0,.2.25.29.73.29,0,0,.12-.06.29-.12l.25.06a.36.36,0,0,0,.2-.11,1.39,1.39,0,0,1,.48-.17,2,2,0,0,0,.54-.23,2.51,2.51,0,0,1,.57-.23,1.89,1.89,0,0,0,.62-.37,5.73,5.73,0,0,1,.63-.34,1.67,1.67,0,0,0,.54-.31,2.49,2.49,0,0,1,.56-.42,7.62,7.62,0,0,0,1-.85c.17-.12.29-.2.4-.29a.53.53,0,0,1,.28-.36,1.25,1.25,0,0,0,.31-.23c0-.06.09-.12.12-.17l0,0a.47.47,0,0,1,.36-.28c.2-.06.29-.15.29-.26s.17-.23.48-.48a4.75,4.75,0,0,0,.74-.65c.14-.17.25-.29.37-.29l.08-.05c0-.31.14-.46.34-.46l.2-.11,0-.14.11-.06h.17l.09,0a.84.84,0,0,1,.45-.71,10.6,10.6,0,0,0,1.47-1.39,7.75,7.75,0,0,0,1.22-1.48,4.77,4.77,0,0,1,.48-.88,2.12,2.12,0,0,0,.37-1s-.05-.08-.11-.14l-.79.4c0-.06-.15-.11-.4-.17a1.92,1.92,0,0,0-.4.31.37.37,0,0,1-.22.17l-.26,0-.82.09a4,4,0,0,0-1.7.42l-.77.2h-.17a.86.86,0,0,0-.45.2l-.45-.06a2,2,0,0,1-.88.32,1,1,0,0,1-.23,0L191,321a7.36,7.36,0,0,0-1,.74l-.14,0c-.14,0-.28-.11-.45-.39a1.38,1.38,0,0,1-.26-.71c0-1.19,1.08-1.87,3.2-2l.8-.29h0l.19.06h.09a1.17,1.17,0,0,0,.37-.14,3.92,3.92,0,0,1,1.08-.31l.79-.2.23,0a.87.87,0,0,0,.42-.14,2.06,2.06,0,0,1,.74-.2,4.34,4.34,0,0,0,.65-.14l.31-.06a.92.92,0,0,0,.31-.14A1.31,1.31,0,0,1,199,317l.28.06.26-.06.19-.17h0l.17.06H200a1.83,1.83,0,0,0,.79-.17,2.57,2.57,0,0,1,.6-.23,1.3,1.3,0,0,0,.28-.11.23.23,0,0,1,.12,0l.31,0c.08,0,.22-.17.39-.51a2.29,2.29,0,0,1,.57-.74,2,2,0,0,0,.65-.88.72.72,0,0,0,.17-.25c.06-.14.12-.2.14-.2a.5.5,0,0,0,.46-.34c.4-.4.68-.62.93-.62s.54.28.66.85l.19.68a.86.86,0,0,1-.08.25.79.79,0,0,0-.09.48,1.08,1.08,0,0,1,0,.32.42.42,0,0,0,0,.19c0,.12.11.15.31.15a.84.84,0,0,0,.42-.15l.12,0a.89.89,0,0,0,.31.11,3.77,3.77,0,0,0,.54-.2l.65-.2a1.48,1.48,0,0,0,.45-.14H209l.14.06a1.28,1.28,0,0,0,.31-.14,1.84,1.84,0,0,1,.91-.2l.26-.09h.08c.4,0,.63.17.63.51a.78.78,0,0,1-.2.37,2.79,2.79,0,0,0-.29.6l-.88,1.05a1.14,1.14,0,0,1-.85.51s-.22-.15-.48-.46c0,0,0-.05-.08-.05a1,1,0,0,0-.4.08.78.78,0,0,1-.34.06,8.8,8.8,0,0,0-1,.28l-.46.06a2.24,2.24,0,0,0-.36.08l-1,.17a1.6,1.6,0,0,0-.76.88s-.06.06-.2.14l-.85,1.48a.65.65,0,0,0-.54.45l-.09.11a.58.58,0,0,0-.36.23,3.84,3.84,0,0,1-.34.28l-.34.49c-.15.17-.26.34-.4.53a1.77,1.77,0,0,0-.31.63,1.61,1.61,0,0,1-.15.39c-.05,0-.05.09-.05.17l-.06.15a.6.6,0,0,0-.23.48l.06.28c-.17.57-.25.88-.25.91a1.09,1.09,0,0,0,0,.2V326a2.24,2.24,0,0,1-.28,1l0,.29-.11.79a2,2,0,0,0,.11.57c-.06,0-.09.08-.09.11a1.75,1.75,0,0,0,.57,1.11,2.63,2.63,0,0,1,.57,1.84,1.39,1.39,0,0,1-.06.31,1.29,1.29,0,0,0-.08.45.92.92,0,0,1-.77.71c-.65,0-1.16-.45-1.47-1.36a7.11,7.11,0,0,1-.51-1.78l0-.68-.09-.37.09-1.56-.06-.37.42-1.53v-.54s.09-.11.29-.28c0,0,0-.06-.09-.06s-.17.09-.31.23a1.92,1.92,0,0,1-.45.39l-.17.26a.17.17,0,0,0-.14-.06,2.91,2.91,0,0,0-.63.82.8.8,0,0,0-.62.43.73.73,0,0,1-.63.37l-.08,0c-.06.35-.23.52-.54.52l-.06,0c-.19.4-.39.6-.59.6a1.16,1.16,0,0,1-.77.68.34.34,0,0,1-.22.14.19.19,0,0,1-.12.11c0,.2-.14.34-.25.37a1.41,1.41,0,0,0-.51.34,5.25,5.25,0,0,1-.91.71,4.63,4.63,0,0,0-.79.65.55.55,0,0,1-.31.2.34.34,0,0,1-.15-.05c-.08-.06-.11-.09-.14-.09s-.14.09-.14.26l-.09.17a1.41,1.41,0,0,1-.28.17l-.11-.06h-.09c-.14,0-.22.06-.22.17l.11.17v0c0,.17-.11.25-.31.25a4.65,4.65,0,0,0-1.19.65l-.57.12-.45.22a.7.7,0,0,0-.29-.11l-.31.09-.54,0-.68-.34c-.45-.25-.73-.48-.79-.7a7.29,7.29,0,0,0-.37-.74,1.12,1.12,0,0,1-.2-.51,3.82,3.82,0,0,1,.14-1.19,2.62,2.62,0,0,0,.2-.57.81.81,0,0,1,.23-.37,1.92,1.92,0,0,0,.28-.68,8,8,0,0,1,.77-1.25,1.47,1.47,0,0,0,.31-.56l.25-.34s.06-.12.12-.26.11-.25.17-.28a1.24,1.24,0,0,0,.17-.31c0-.34-.17-.54-.48-.54-.09,0-.15.08-.23.2s-.26.25-.51.37a1.21,1.21,0,0,0-.51.28l-.4.2a1.16,1.16,0,0,0-.54.42l-.31.14c-.11.23-.2.37-.28.37s-.31.09-.68.2c0,0-.09.09-.2.2a.52.52,0,0,1-.43.2,2.49,2.49,0,0,0-.45.51,1,1,0,0,0-.4.14l-.36.09a.84.84,0,0,0-.34.34.67.67,0,0,1-.34.19l0,.15-.15.25a1,1,0,0,0-.36.28,1,1,0,0,1-.46.4l-.17.26a.85.85,0,0,0-.56.39.54.54,0,0,1-.4.34,1.14,1.14,0,0,0-.54.34,3.86,3.86,0,0,1-.45.17l-.06.17a1.12,1.12,0,0,1-.6.29,4.84,4.84,0,0,0-.59.2.68.68,0,0,1-.28.11,1.81,1.81,0,0,1-.66-.14,2.29,2.29,0,0,0-.62-.17.43.43,0,0,1-.14-.23.56.56,0,0,0-.2-.34,1,1,0,0,1-.17-.54l.09-.34a.24.24,0,0,0-.09-.17c-.06-.08-.11-.14-.11-.2s0-.08,0-.08,0-.06,0-.12a.42.42,0,0,0,0-.19c0-.09,0-.15,0-.17l.11-.88c0-.09,0-.12-.06-.12s-.14.06-.28.2a.65.65,0,0,1-.45.17.69.69,0,0,0-.26.46,2.25,2.25,0,0,1-.37.31l-.08.11c0,.09-.12.14-.29.2a.64.64,0,0,0-.34.2l-.19.17-.34,0a2.34,2.34,0,0,0-.23.31,1.36,1.36,0,0,1-.43.46l-1.44,1.1a7.08,7.08,0,0,1-.65.37l-.12.08a5,5,0,0,1-2.15,1,3.59,3.59,0,0,1-1.19-.29c-.46-.17-.71-.36-.74-.62l-.2-.74a1.25,1.25,0,0,1-.17-.7.6.6,0,0,1,.06-.29v-.08l-.06-.6c0-.14.14-.23.37-.23l0-.48a5.24,5.24,0,0,1,.31-.54,2.08,2.08,0,0,1,.46-.56l.2-.23a.47.47,0,0,1,.25-.45,2.29,2.29,0,0,0,.45-.51,2.31,2.31,0,0,1,.66-.54l.56-.54a5.84,5.84,0,0,1,1.45-1,1.58,1.58,0,0,0,.45-.37,2.28,2.28,0,0,1,.82-.45,6.62,6.62,0,0,0,.86-.4,1.74,1.74,0,0,1,.68-.23h.17a10.3,10.3,0,0,0,1-.45h.11a1.37,1.37,0,0,1,.37.14h0l.31-.14c.06,0,.11,0,.2,0,.76,0,1.19.51,1.27,1.53,0,.2.09.31.2.31s.31-.2.54-.65a1.54,1.54,0,0,1,1.48-.65c.53,0,.82.34.82,1a3,3,0,0,1-1.08,2.18,1.28,1.28,0,0,0-.14.34l-.26.71v.06a.46.46,0,0,1-.17.28.68.68,0,0,0-.14.31l0,.46-.09.51c0,.22.06.37.15.42a1.71,1.71,0,0,0,.88-.45,1.49,1.49,0,0,1,.36-.37l.2-.08a2.08,2.08,0,0,1,.4-.43l.28-.25a.3.3,0,0,0,.34-.26.65.65,0,0,1,.43-.37,1.37,1.37,0,0,0,.62-.59c.23-.29.43-.43.63-.43a.24.24,0,0,1,.19.11,1.56,1.56,0,0,1,.8-.42.44.44,0,0,0,.37-.23.57.57,0,0,1,.36-.28,2.12,2.12,0,0,0,.68-.54,2.12,2.12,0,0,1,.85-.54Zm22.91,4.42v-.14a2,2,0,0,1,0-.37,1.38,1.38,0,0,1-.11-.51,2.92,2.92,0,0,1,.2-.51l.17-.57c.08-.2.14-.31.14-.34a1.1,1.1,0,0,1-.11-.31,1,1,0,0,1,.25-.68,2.53,2.53,0,0,0,.4-.74l.4-1.08.62-1.41c0-.06.06-.14.17-.29s.2-.28.26-.39.17-.29.31-.51l.17,0c.05-.06.08-.09.08-.14a2.38,2.38,0,0,0-.08-.29l.68-1,.39-.76a1,1,0,0,1,.4-.4,1.79,1.79,0,0,1,.68-.79,2.17,2.17,0,0,1,.4-.74l.37,0a.94.94,0,0,1,.2-.4l0-.34c0,.06,0,.06.09-.05a3.38,3.38,0,0,0,.28-.65l.51-.54.17-.26a2.37,2.37,0,0,0,.29-.48,1,1,0,0,0,.48-.37l.39-.31c0-.14.15-.43.46-.88a2.72,2.72,0,0,0,.59-.31l.26-.09a.91.91,0,0,1,.48-.85l.23-.14c.2-.08.31-.14.34-.14l.11,0a1.86,1.86,0,0,1,1.82.43,1.44,1.44,0,0,1,.56,1.1.78.78,0,0,1-.28.51l-.09.14c-.17.66-.28,1-.36,1a.4.4,0,0,0-.2.08,2.94,2.94,0,0,1-.09.68c-.22,0-.34.29-.34.8a1.72,1.72,0,0,1-.28.36,1.82,1.82,0,0,0-.37.71c-.09.29-.17.46-.28.46H217l.05.25a.62.62,0,0,1-.25.48,1,1,0,0,0-.31.51,1.88,1.88,0,0,1-.46.66l-.19.28a3.07,3.07,0,0,1-.32.37,2.14,2.14,0,0,0-.31.59l-.48.85c-.34.6-.6.88-.79.85a3.81,3.81,0,0,1-.23.8c0,.08-.11.14-.26.2a.56.56,0,0,0-.31.31,2,2,0,0,1-.25.34l-.34.65a.79.79,0,0,0-.43.45.52.52,0,0,0-.39.49.61.61,0,0,0-.17.31l-.69.62a1,1,0,0,0-.53.77.44.44,0,0,1-.49.45,2.44,2.44,0,0,1-1-.28h0a1.94,1.94,0,0,1-.25.56l0,.49a7,7,0,0,1-.31,1.1.89.89,0,0,1,.17.4l0,.37.09.48c.06.4.2.59.45.59l.46.06a3.15,3.15,0,0,0,.45-.25l.71-.37s0,0,0,.05a1.64,1.64,0,0,0,.31.06c.11,0,.2-.09.2-.28v-.23a.34.34,0,0,1,.25-.2.59.59,0,0,0,.31-.17.33.33,0,0,1,.2-.11h.2c.17,0,.28-.23.28-.63a.44.44,0,0,0,.17-.14h.23c.11,0,.23-.14.34-.37a1.06,1.06,0,0,1,.26-.39,3.3,3.3,0,0,0,.48-.12c.39-.68.71-1,.91-1h.11a1,1,0,0,0,.37-.51.29.29,0,0,1,.17-.31.88.88,0,0,0,.28-.17,1.11,1.11,0,0,1,.2-.11c.17,0,.25.08.25.2l0,.51.11.51c0,.05-.06.14-.17.28a.8.8,0,0,0-.14.45c0,.34-.06.54-.2.57a.48.48,0,0,0-.31.23,1.44,1.44,0,0,1-.4.37,1,1,0,0,0-.43.51l-.34.05-.17.12a1.46,1.46,0,0,1-.48.68,1.92,1.92,0,0,0-.65.73.1.1,0,0,0-.06,0l-.28,0c-.11.2-.23.32-.34.34a.54.54,0,0,0-.28.2.79.79,0,0,1-.43.26,1.07,1.07,0,0,0-.37.25.28.28,0,0,1-.22.17.74.74,0,0,0-.29.12c-.08.08-.14.14-.22.14l-.26-.06h-.08a1,1,0,0,1-.51.23,1.42,1.42,0,0,0-.37.05c-.09,0-.2-.08-.34-.11a1.12,1.12,0,0,1-.54-.17,1.87,1.87,0,0,1-.4.09c-.22,0-.48-.2-.82-.6a2,2,0,0,1-.48-1.16s-.06-.11-.23-.29a.86.86,0,0,1-.2-.56V330l0-.23v-.34l0-.08c.2,0,.28-.06.28-.09Zm3.82-4.71.4-.22a2.09,2.09,0,0,1,.48-.68c.29-.26.48-.4.6-.4h.14a.82.82,0,0,1,.06-.26.66.66,0,0,0,0-.34c0-.05.17-.25.54-.56l.14-.34a1.49,1.49,0,0,1,.85-.77c.17-.34.31-.51.4-.51l.14,0a1,1,0,0,1,.31-.48l.06-.11v-.29s.11-.11.25-.28a1.44,1.44,0,0,0,.37-.48,1.16,1.16,0,0,1,.32-.34.71.71,0,0,0,.28-.45l.31,0a.73.73,0,0,1,0-.31l.06-.17a7.18,7.18,0,0,1,.65-1.14l.31-.65a.41.41,0,0,1,.14-.26.49.49,0,0,0,.17-.42l.14-.6c0-.28,0-.39-.14-.39a1.49,1.49,0,0,1-.37.17c-.08,0-.2.25-.28.65a.73.73,0,0,0-.68.48,1,1,0,0,1-.45.65l-.12.23a1,1,0,0,1-.37.4,2.12,2.12,0,0,0-.62.73c-.62.83-1,1.25-1,1.31l-.2.22-.28,0a2.24,2.24,0,0,1,.08.31.37.37,0,0,1-.11.2.38.38,0,0,0-.17.25,1.36,1.36,0,0,1-.23.31,2.08,2.08,0,0,0-.31.6,2.29,2.29,0,0,1-.25.51l-.29-.06c-.14.12-.22.2-.22.29l0,.25c0,.06,0,.11-.11.17a1.33,1.33,0,0,0-.2.4,5.77,5.77,0,0,1-.48.85,4.94,4.94,0,0,0-.6,1.22,1.75,1.75,0,0,1-.42.82.2.2,0,0,0,.11.06c.17,0,.34-.17.48-.49m11.14.6-.22.11c-.06,0-.2.14-.46.31a3.3,3.3,0,0,1-.71.46,2,2,0,0,0-.73.88,4.72,4.72,0,0,0-.37.82.13.13,0,0,0,.14.11l.62-.28a3.29,3.29,0,0,0,.68-.4,8.52,8.52,0,0,1,.91-.62l.14-.12a1.51,1.51,0,0,1,.34-.28,1.75,1.75,0,0,0,.49-.37l.17-.05a1.49,1.49,0,0,1,.65-.6c.22-.06.34-.14.34-.2s-.12-.22-.37-.22a1,1,0,0,0-.45.17h-.43a1.36,1.36,0,0,0-.42.22Zm-64.15,4.48h-.08a1.69,1.69,0,0,1-.37.42h-.28l-.12,0c-.34.31-.56.48-.71.48l-.36-.08h-.09a.58.58,0,0,0-.48.28.78.78,0,0,1-.54.28,2.6,2.6,0,0,1-.42-.11.87.87,0,0,1-.68.29l-1.05.51a1.92,1.92,0,0,0-.32.14.66.66,0,0,1-.36.08,2.76,2.76,0,0,0-.54.17.77.77,0,0,1-.46.17l-.42-.14a2.29,2.29,0,0,1-1.25.51l-.91.14-.53,0-.83.23a2.35,2.35,0,0,1-.65.08,1.32,1.32,0,0,1-.88-.34c-.17.12-.31.23-.48.37l-.11.06a.39.39,0,0,1-.14-.06.82.82,0,0,0-.2-.06.39.39,0,0,0-.14.06.56.56,0,0,1-.23.06c-.09,0-.28-.14-.6-.4a.31.31,0,0,1-.25.11c-.31,0-.57-.19-.77-.62l-.31.09c-.06,0-.14-.09-.23-.32a1.16,1.16,0,0,1-.17-.53c0-.46,1-1.31,3.07-2.53a23.93,23.93,0,0,1,3.85-2l.17-.11a.35.35,0,0,1,.26-.12l.19.06h.12a.3.3,0,0,0,.31-.23.43.43,0,0,1,.45-.25l.2,0,2.13-1.1c.11-.06.45-.17,1.05-.4s1-.34,1.22-.45a3.89,3.89,0,0,1,1-.29l.19-.11a1.24,1.24,0,0,1,.52-.12c.85,0,1.27.4,1.27,1.17l-.31.56c-.2.43-.45.63-.77.63a.21.21,0,0,1-.22-.12.34.34,0,0,0-.14-.08l-1,0-.42-.14a2.62,2.62,0,0,1-.43.14h-.31a1.42,1.42,0,0,0-.51.28l-.48.17a11.16,11.16,0,0,0-2.24.74,6.75,6.75,0,0,1-1.65.57,2.16,2.16,0,0,0-.59.39,2.26,2.26,0,0,1-1,.48q-2.55,1.2-2.55,1.68c0,.28.8.39,2.36.39a3.07,3.07,0,0,0,1.36-.17l2-.42.2-.23H151a1.12,1.12,0,0,0,.54-.17,1,1,0,0,1,.68-.2,1,1,0,0,0,.54-.17.85.85,0,0,1,.43-.17.78.78,0,0,0,.28-.11,1.93,1.93,0,0,1,.62-.17,1.38,1.38,0,0,0,.66-.31l.22-.12a2.35,2.35,0,0,1,.37-.19h.2a1.4,1.4,0,0,0,.37-.26l.88-.48H157c.26,0,.48-.2.74-.6a.78.78,0,0,1,.57-.2,5.21,5.21,0,0,0,1.24-.93l.51-.34a7.51,7.51,0,0,0,.68-.65s.06,0,.06,0l.28,0,.06-.09a.48.48,0,0,0-.06-.14v-.06c0-.11.06-.17.17-.22s.15-.09.15-.15l-.12-.36a.29.29,0,0,0,.09-.23.66.66,0,0,0-.4-.57l0-.11v-.14a2.21,2.21,0,0,0-.42-.12,1.84,1.84,0,0,0-1-.7,15.33,15.33,0,0,0-2.44-.63l-1.62-.28-.76.06c-.14,0-.31,0-.57-.06a2.56,2.56,0,0,0-.54-.09,1.66,1.66,0,0,1-.54-.11,2.92,2.92,0,0,1-.65.14l-.45-.11-.54.08c-1.08,0-1.62-.14-1.62-.45,0-.94.57-1.62,1.73-2.07.14-.06.31-.11.48-.2l1.51-.45a3.21,3.21,0,0,0,.54-.2,3.31,3.31,0,0,1,.65-.25l.25-.15.2-.05a1.51,1.51,0,0,1,.65-.34,17.08,17.08,0,0,0,1.56-.88,6.45,6.45,0,0,0,1.19-.82l.34-.15c.14,0,.2-.28.2-.62s-.11-.37-.37-.48l-.22-.14a.27.27,0,0,0-.2-.09,3,3,0,0,1-.31-.11,16.88,16.88,0,0,0-1.7-.23l-1.08-.2-.46.09-.45,0-.85.23-.34-.23s0-.06-.08-.06-.12.09-.23.17a.38.38,0,0,1-.31.17,2.43,2.43,0,0,1-.6-.05h-.08c-.2,0-.29.05-.29.17a3.07,3.07,0,0,0,.4.73l-.09.32.06.42c0,.09-.11.23-.28.45l-.06.23a10.72,10.72,0,0,1-.48,1.08,4.67,4.67,0,0,0-.4,1l-.65,1.22-.14.37a11.51,11.51,0,0,1-.6,1.36,1.92,1.92,0,0,0-.28.62,2.17,2.17,0,0,1-.37.6l-.82,2a1.47,1.47,0,0,1-.28.26,7.17,7.17,0,0,0-.37,1.05,1.65,1.65,0,0,1-.31.93l-.09.34a1.31,1.31,0,0,1-.14.34,1.41,1.41,0,0,0-.23.46c0,.14-.14.22-.22.22a1.19,1.19,0,0,1-1-.71,3,3,0,0,0-.59-.79,1,1,0,0,1-.34-.68,2,2,0,0,1,.37-1,9.25,9.25,0,0,0,.42-.88,2.57,2.57,0,0,1,.26-.48,3.14,3.14,0,0,0,.25-.46.61.61,0,0,1,.14-.28,1,1,0,0,0,.32-.62.91.91,0,0,1,.45-.68.42.42,0,0,1,0-.2c0-.09.09-.2.23-.34a1,1,0,0,0,.28-.43c.06-.14.11-.25.14-.34l.17-.08a1.88,1.88,0,0,1,.06-.34c0-.15.11-.23.28-.26.06-.45.17-.71.31-.76a1,1,0,0,0,.49-.29c-.15-.08-.23-.17-.23-.25a.75.75,0,0,1,.45-.66.69.69,0,0,0-.11-.17c-.06,0-.06-.08-.06-.11l.46-1a1.7,1.7,0,0,1,.62-.79h.06l-.12-.49c0-.17.17-.31.57-.42.14-.17.2-.29.17-.4h-.11l-.29-.11-.85.14c-.22.06-.54.14-.93.28l-.23-.08h-.08a.75.75,0,0,0-.32.17l-.14.08a.4.4,0,0,0-.22-.05,3.32,3.32,0,0,0-1,.11,3,3,0,0,1-.68.09,2.14,2.14,0,0,0-.4.14h-.19a.69.69,0,0,1-.17.05,2.51,2.51,0,0,1-.63.23.93.93,0,0,0-.28-.08,1.87,1.87,0,0,0-.51.31,1.54,1.54,0,0,1-.68.28,1,1,0,0,0-.43.14,2,2,0,0,1-.37.26l-.22.34a.66.66,0,0,1-.4.39,1.58,1.58,0,0,0-.45.32.5.5,0,0,1-.29.11.85.85,0,0,1-.51-.31.82.82,0,0,1-.28-.51,1.29,1.29,0,0,1,.31-.94,5.23,5.23,0,0,0,.65-.68,4.53,4.53,0,0,1,1.59-.59,5,5,0,0,0,1.22-.32s0,0,.06,0l.31.11c.08,0,.23,0,.42-.23a8.9,8.9,0,0,1,2.56-.65h.05l.51,0,.4-.14a2.3,2.3,0,0,1,.62-.14.64.64,0,0,1,.31.05.27.27,0,0,0,.15.09c.08,0,.17-.09.28-.26a2.64,2.64,0,0,1,1-.22l1-.17h.12l.45,0,1-.14,1.28.09.59-.09.49,0,1.1-.08,1.7.25a5.32,5.32,0,0,1,2,.71,6.54,6.54,0,0,1,1.33.88,1.25,1.25,0,0,1,.31.91c0,.85-.62,1.7-1.87,2.52a9.6,9.6,0,0,1-3,1.5c-.88.31-1.33.51-1.33.6s.26.14.74.22a3.26,3.26,0,0,1,.93.2l.37.11c.12,0,.34.12.74.26a5,5,0,0,0,.85.25c1.5.51,2.38,1,2.64,1.59l.28.06c.17,0,.34.31.48.85.23,0,.4.31.51.85l.09.23a1.21,1.21,0,0,1,.11.36c0,.94-.11,1.48-.34,1.59a.56.56,0,0,0-.11.31,2.8,2.8,0,0,1-.74.94c-.45.45-.82.71-1.05.71a1.41,1.41,0,0,0-.31.31l-.2.14a1,1,0,0,0-.4.26c-.08.05-.14.11-.19.11a.53.53,0,0,0-.26.26.45.45,0,0,1-.37.25.33.33,0,0,0-.17-.08h-.06a2.16,2.16,0,0,1-1.53.82m14.21-.74a.8.8,0,0,1,.48-.59,1,1,0,0,0,.45-.43,11,11,0,0,0,1-.88c.46-.42.68-.68.68-.79s0,0-.08,0h0l-.17.08-.34,0-.34,0-.26-.14-.25.06-.37-.09a1,1,0,0,0-.54.12,3.09,3.09,0,0,1-.82.25,3.43,3.43,0,0,0-1.11.48,1.58,1.58,0,0,1-.71.37,3.06,3.06,0,0,1-.87.77.79.79,0,0,0-.6.59,3.13,3.13,0,0,0-.48.43l-.14.31a1.65,1.65,0,0,1-.37.2.42.42,0,0,0-.28.37,1.09,1.09,0,0,1-.26.54.65.65,0,0,0-.2.39c0,.57.11.85.34.85a2.32,2.32,0,0,0,.65-.17,4.55,4.55,0,0,0,.54-.25.64.64,0,0,1,.31-.14l.37-.2a.52.52,0,0,1,.17-.09.25.25,0,0,0,.17-.11,1.26,1.26,0,0,1,.34-.2,1.42,1.42,0,0,0,.4-.31l1-.57.4-.28a1.33,1.33,0,0,0,.51-.28,1,1,0,0,1,.37-.26M54.26,322.7H53.8a.91.91,0,0,0-.42.2c-.2.14-.29.23-.29.28s.15.17.43.4.48.34.57.34.51-.48.82-1.47l-.2.08-.23-.06c-.14.15-.22.2-.22.23M53,314.28l-.06.2a1,1,0,0,1-.51.6,1.59,1.59,0,0,1-1,.31c-.8,0-1.19-.34-1.19-1.08,0-.23.22-.54.62-.91a3.86,3.86,0,0,1,1.65-.73,9,9,0,0,0,1.47-.43,4.49,4.49,0,0,1,1.36-.31.64.64,0,0,0,.31.14.34.34,0,0,0,.34-.17.37.37,0,0,1,.43-.08h.11l1-.26.31.11a.34.34,0,0,0,.17-.05,1,1,0,0,1,.26-.12h.31l.37-.08a2.51,2.51,0,0,0,.48-.14l.31,0a6.61,6.61,0,0,0,1.19-.17,4.87,4.87,0,0,1,1.25-.2c.29,0,.48,0,.63-.06a1.17,1.17,0,0,1,.22,0,.79.79,0,0,1,.31.09.37.37,0,0,0,.23.11c.06,0,.4-.06,1.08-.2h.08l.85.17a1.66,1.66,0,0,1,.46-.17,1.05,1.05,0,0,1,.68.23l.37-.14.17.05a2,2,0,0,0,.34-.05h.17a1.86,1.86,0,0,1,.28.05.1.1,0,0,0,.06,0c.14,0,.22,0,.31,0h.25l.8.17.34,0a.58.58,0,0,1,.22.08l.23,0a3.16,3.16,0,0,0,.68.34.6.6,0,0,1,.28,0h0a1.42,1.42,0,0,1,.37.19l.57.26.14-.09a3.74,3.74,0,0,1,.54.29l.17.31c.14.06.31.17.51.28a1.41,1.41,0,0,0,.23.43v.11s.08.14.28.29.31.25.31.31,0,.11-.06.25v0a.85.85,0,0,0,.15.23.91.91,0,0,1,.14.48l-.06.23.06.25-.2,1.19a.85.85,0,0,0-.23.34.43.43,0,0,1-.28.26.67.67,0,0,0-.37.37.67.67,0,0,1-.4.36,1.08,1.08,0,0,0-.51.32.8.8,0,0,1-.54.19l-2,.6-.22-.09a1.14,1.14,0,0,1-1,.51,5.7,5.7,0,0,0-.76.15l-.37.08-.31,0-.71.12a1.31,1.31,0,0,0-.48.14.81.81,0,0,1-.37.08l-.51.23s-.06,0-.11,0-.17,0-.2,0l-.26-.06a.79.79,0,0,0-.28.12.53.53,0,0,1-.23.08l-.22-.17-.37.28a4.08,4.08,0,0,0-.6.18,1.13,1.13,0,0,0-.34-.15l-.65.29-.37-.12-.06.12a.92.92,0,0,0-.53.17,1,1,0,0,1-.46.17.31.31,0,0,1-.28-.14.2.2,0,0,1-.17-.06,1.17,1.17,0,0,0-.28.25,1,1,0,0,1-.4.26l-.48-.11a1.08,1.08,0,0,1-.34.17.74.74,0,0,0-.4.22l-.17.26c-.11.2-.17.37-.23.48a.6.6,0,0,1-.2.31,1.88,1.88,0,0,0-.19.4,2,2,0,0,1-.34.62l0,.23c-.09.08-.2.2-.34.31l-.46.77a1.2,1.2,0,0,0-.17.36c0,.2.17.37.51.54l2,1.59.31.17h0L59,328a.54.54,0,0,0,.17.12c.09,0,.11-.06.11-.17h.12s.11.05.2.17l.19.11a4.46,4.46,0,0,1,.51.4c.23.17.37.31.37.39l0,.14h.11c.06-.05.08-.08.11-.08a1.36,1.36,0,0,1,.43.23l.25.08c.48.37.8.6.91.71a3.23,3.23,0,0,0,.48.4,1.55,1.55,0,0,1,.48.51l2.19,1.53a12.71,12.71,0,0,1,3.09,2.55.86.86,0,0,0,.37.23,2.37,2.37,0,0,1,.79.59,2.47,2.47,0,0,1,.65.74v.62c0,.06-.06.11-.2.2l-.22.2a1.47,1.47,0,0,1-.88.48,2.11,2.11,0,0,1-1.31-.37l-.08,0h-.2c-.2,0-.31-.17-.34-.51l-.06-.22a2.81,2.81,0,0,1-1.44-.91l-1.08-.94s-.23-.25-.62-.7a5.89,5.89,0,0,0-1.05-.94,2.63,2.63,0,0,1-.68-.57,2.79,2.79,0,0,0-.68-.56,3.38,3.38,0,0,1-.91-.91c-.31-.43-.48-.65-.54-.65-.57-.29-.82-.6-.79-1l-.57-.14a1.18,1.18,0,0,0-.28-.23s-.06,0-.09-.05l0-.29a2,2,0,0,1-.79-.39c-.15-.17-.34-.4-.6-.65a5.79,5.79,0,0,0-.68-.66.82.82,0,0,1-.28-.34c0-.08-.14-.17-.37-.31a.9.9,0,0,1-.28.34,1.39,1.39,0,0,0-.23.31l-.06.09a.84.84,0,0,0-.28.57,1.07,1.07,0,0,0-.34.76l-.85,1.81-.17.66-.12,1.1c0,.34-.17.48-.42.48l-.37.06a2.06,2.06,0,0,0-.71-.14c-.37-.06-.68-.4-.91-1.05a1.63,1.63,0,0,0-.22-.34.85.85,0,0,1-.17-.45,1.38,1.38,0,0,1,.11-.46l.09-.42a5.89,5.89,0,0,1,.45-1l1-1.79.48-.68a2.06,2.06,0,0,0,.2-.54,1.64,1.64,0,0,1,.37-.68.87.87,0,0,0,.23-.39c0-.15-.12-.29-.34-.43s-.37-.28-.4-.4l-.09-.19c-.65-.35-1-.77-1-1.25,0-.23.34-.54,1-.91a6.46,6.46,0,0,1,1.36-.65,1.55,1.55,0,0,0,.68-.26l.35-.05.25-.2a2.26,2.26,0,0,1,.57-.14c.22-.06.39-.29.56-.74s.29-.71.43-.77a9.84,9.84,0,0,0,.51-1.1,2.21,2.21,0,0,1,.2-.34,2.55,2.55,0,0,0,.37-.85c.14-.4.22-.6.28-.6s.14,0,.28,0l-.17-.49c0-.05,0-.11.14-.22a1.07,1.07,0,0,1-.25-.74c0-.45.34-.68,1-.68a2.17,2.17,0,0,1,.77.31,1.46,1.46,0,0,1,.59.46,2,2,0,0,0,.26.45,1,1,0,0,1,.19.54,1.4,1.4,0,0,1-.22.9,2.35,2.35,0,0,0-.51.94l-.51,1.33-.09.34-.11.14.48-.08c.11-.28.54-.43,1.3-.45l1.2-.37H63l1.16-.29a4.92,4.92,0,0,0,.56-.08h.12l.22,0,.15.14h.08c.14,0,.2-.08.23-.22s.2-.23.54-.23a.17.17,0,0,1,.14.08c.06.06.08.09.14.09a.4.4,0,0,1,.28-.28,1.51,1.51,0,0,1,.37-.09l.31.06a.2.2,0,0,1,0-.12c0-.11.36-.22,1.16-.34a2,2,0,0,0,.51-.25,3.35,3.35,0,0,1,1.19-.48l1.13-.32a1.56,1.56,0,0,0,1-1.27s-.15-.2-.34-.48c0,0-.09,0-.29,0a.9.9,0,0,0-.25-.17,1.54,1.54,0,0,1-.46-.34l-.22.08a1.78,1.78,0,0,0-.6-.22,2.12,2.12,0,0,1-.76-.37l-.17.08s-.17-.08-.43-.2l-.51-.19h-.31l-.11,0c-.09-.09-.15-.14-.2-.14l-.2,0a.39.39,0,0,1-.2.06H66.9a2,2,0,0,1-.28-.2H66l-.37.09a1,1,0,0,1-.22-.14l-.34.05-.34-.14-.51.09c-.12-.09-.17-.12-.23-.12l-1.53.14a.16.16,0,0,1-.11-.05.51.51,0,0,0-.2-.12.83.83,0,0,1-.26-.14,1.74,1.74,0,0,1-.79.2l-.57-.06-.11,0h-.09L60,312.5s0,.05,0,.08l-.28-.06-1.05.17h0l-.2,0a.46.46,0,0,0-.22.05l-.2.06-.43-.06-.34.09-.42,0-.4.25H56.3a.34.34,0,0,1-.17,0,.19.19,0,0,0-.14-.06l-.29.06-.22-.06c-.06,0-.15.11-.32.34,0,0,0,0,0,0h-.06l-.28-.09a.83.83,0,0,0-.29.26l-.71.26a1,1,0,0,1-.45.42Zm66.95,3.8-.11-.71v-.08c0-.57.2-.88.6-.94a4.32,4.32,0,0,0,.79-.23,1.28,1.28,0,0,1,.71.57,1.41,1.41,0,0,1,.37.85.26.26,0,0,1-.06.17,2.05,2.05,0,0,0-.08.46.81.81,0,0,1-.37.62,1.18,1.18,0,0,1-.74.25,1.15,1.15,0,0,1-.68-.36,1.18,1.18,0,0,1-.43-.6m10.12,6.72-.22.11c-.06,0-.2.14-.43.31a4.79,4.79,0,0,1-.73.46,1.72,1.72,0,0,0-.71.88,3,3,0,0,0-.37.82.1.1,0,0,0,.11.11l.63-.28a3,3,0,0,0,.68-.4c.22-.17.51-.37.9-.62l.14-.12a1.82,1.82,0,0,1,.34-.28,1.4,1.4,0,0,0,.49-.37l.17-.05a1.67,1.67,0,0,1,.65-.6c.23-.06.34-.14.34-.2s-.11-.22-.34-.22a1,1,0,0,0-.46.17h-.45a1.5,1.5,0,0,0-.4.22Zm-4,1.08.39-.32c.31,0,.48-.17.48-.42s.26-.51.63-.71l.22-.31a5.63,5.63,0,0,1,1.56-.68,1.8,1.8,0,0,0,.46-.34s0,0,0,0l.32.08a2,2,0,0,0,.62-.14,2.52,2.52,0,0,1,.77-.11l.79-.06a2.09,2.09,0,0,1,.31.12,1.18,1.18,0,0,0,.57.11,1,1,0,0,1,.76.37,1,1,0,0,1,.37.65,1.52,1.52,0,0,1-.62,1.11,2.46,2.46,0,0,1-1,.65,1.8,1.8,0,0,1-.51.37,2.38,2.38,0,0,0-.34.25.51.51,0,0,1-.28.17c-.06,0-.08,0-.11,0s-.06-.05-.12-.05-.42.22-.68.68l-.34,0a1,1,0,0,0-.39.42.41.41,0,0,1-.43.23c-.45.45-.76.68-.93.68l-.26-.08a.55.55,0,0,0-.17.36c0,.15-.08.23-.31.26l-.23.23-.2-.06-.37.37a1.19,1.19,0,0,0-.59.2c0,.14-.06.31-.11.53a3.65,3.65,0,0,0-.09.37q0,.51,1,.51l.91-.11a1.27,1.27,0,0,0,.65-.2,1.55,1.55,0,0,1,.68-.17,1.08,1.08,0,0,0,.34-.08l.2.08a1.22,1.22,0,0,1,.48-.48,1.28,1.28,0,0,1,.57-.2l.2-.11a.48.48,0,0,1,.22-.29l.15-.14a.53.53,0,0,1,.28-.14h.25l.09,0a1,1,0,0,1,.65-.54.81.81,0,0,0,.51-.25.45.45,0,0,1,.37-.2.66.66,0,0,0,.42-.25,2.67,2.67,0,0,1,.46-.37,3.44,3.44,0,0,0,.37-.29.32.32,0,0,1,.17-.08c.08,0,.11.06.11.17s0,.17.09.17.08,0,.08-.09a.44.44,0,0,0-.06-.17v-.14c0-.17.12-.28.32-.34l.85-.51c0-.25.11-.4.22-.45a1.12,1.12,0,0,0,.29-.14c.05-.06.11-.06.19-.06s.23.08.23.25l-.08.46.08.48a.46.46,0,0,1-.17.28,1.45,1.45,0,0,0-.25.6c-.09.25-.17.37-.26.4h-.11a1.69,1.69,0,0,1-.54.39.54.54,0,0,0-.31.23l-.65.71a3.17,3.17,0,0,0-.32.31.51.51,0,0,1-.2.14l-.17-.14s0,0,0,0a.23.23,0,0,0-.26.2.59.59,0,0,1-.2.37,2.25,2.25,0,0,0-.73.45l-.12.06H133c-.17,0-.28.11-.34.34a.52.52,0,0,1-.53.4,1.06,1.06,0,0,0-.63.22,1.2,1.2,0,0,0-.17.06,4,4,0,0,0-.54.28l-1.58.54a.8.8,0,0,1-.23.09l-.54.08c-.08,0-.14-.06-.23-.17a.61.61,0,0,0-.14-.11l-.34.08a2.2,2.2,0,0,1-.74.12,1.14,1.14,0,0,1-.39-.12,2.29,2.29,0,0,1-.37-.2c-.37,0-.62-.25-.77-.79l-.22,0a4,4,0,0,1-.51-1.25.56.56,0,0,0-.37-.2.34.34,0,0,1-.26-.37,1.35,1.35,0,0,1,.37-1.07,1.1,1.1,0,0,0,.43-.4l.25-.93c.06,0,.12-.15.2-.37l.43-.74c0-.09.17-.28.34-.62m-47.91-7.8-.11-.71v-.08c0-.57.19-.88.59-.94a4.1,4.1,0,0,0,.8-.23,1.42,1.42,0,0,1,.73.57,1.48,1.48,0,0,1,.34.85.3.3,0,0,1,0,.17,1.44,1.44,0,0,0-.06.46,1,1,0,0,1-.37.62,1.22,1.22,0,0,1-.74.25,1,1,0,0,1-.68-.36,1.13,1.13,0,0,1-.45-.6M70.05,327l.28-.25h.14c.09,0,.2-.09.4-.29l.17-.05a1.46,1.46,0,0,1,.68-.63l.31-.2a.6.6,0,0,1,.2-.14,1.57,1.57,0,0,0,.48-.34.79.79,0,0,1,.48-.28.81.81,0,0,1,.31,0,1.38,1.38,0,0,1,.46-.43,2.43,2.43,0,0,0,.56-.48l.26-.11a2.46,2.46,0,0,0,.54-.37.89.89,0,0,1,.62-.23,1.84,1.84,0,0,1,1.14.54,1.42,1.42,0,0,1,.59,1l-.31,1.39c-.23,1-.45,1.56-.71,1.62l-.08.37c-.17.11-.29.22-.29.28l.14.42c0,.06-.08.15-.22.29s0,0,0,.08v.74c0,.14-.09.23-.26.31l.09.09c.08-.09.25-.12.51-.12l.31,0,.43-.37a2.09,2.09,0,0,0,.34-.17,4.49,4.49,0,0,1,.82-.37l2.44-1.78c.34-.31.59-.48.76-.48s.28.14.28.34a1.07,1.07,0,0,1-.17.65c-.08.17-.19.4-.28.62a1,1,0,0,1-.31.51,1,1,0,0,0-.28.31,2.24,2.24,0,0,1-.63.49,5.1,5.1,0,0,0-.85.65,4.52,4.52,0,0,1-.57.48l-.82.54-.11.2a2.07,2.07,0,0,0-.34.14,1.9,1.9,0,0,0-.57.28l-.34.17a.75.75,0,0,1-.37.12.59.59,0,0,0-.45.19.48.48,0,0,1-.28.17l-.29,0-.39.11a1.3,1.3,0,0,1-.77-.37,1,1,0,0,1-.45-.76v-.12l0-.25a1.08,1.08,0,0,0-.12-.37,3.22,3.22,0,0,1-.11-.31l0-.26,0-.11a1.46,1.46,0,0,1,.08-.6,2.14,2.14,0,0,0,.12-.34,1.49,1.49,0,0,1,0-.37l.09-.45a.75.75,0,0,1,.2-.28c0-.09.08-.26.17-.48l.05-.32.2-.25a.57.57,0,0,0,.17-.4,1.89,1.89,0,0,1,.2-.51,1.24,1.24,0,0,0,.17-.31c0-.14-.06-.2-.23-.2a1.58,1.58,0,0,0-.45.28l-.34-.11s-.11.06-.23.17,0,.09-.17.11a.57.57,0,0,0-.31.26l-.17.06-.22-.12h-.09c-.11,0-.2.12-.23.4a.89.89,0,0,1-.54.37l-.42.11c-.14,0-.23.14-.31.31a1.13,1.13,0,0,1-.37.46.83.83,0,0,1-.4.2c-.34,0-.51-.17-.51-.54l.14-.85Z" transform="translate(0 0)" style="fill:#f16b4e"/></g></svg>