<?xml version="1.0" encoding="iso-8859-1"?>
<!-- Generator: Adobe Illustrator 26.1.0, SVG Export Plug-In . SVG Version: 6.00 Build 0)  -->
<!DOCTYPE svg PUBLIC "-//W3C//DTD SVG 1.1//EN" "http://www.w3.org/Graphics/SVG/1.1/DTD/svg11.dtd" [
	<!ENTITY ns_extend "http://ns.adobe.com/Extensibility/1.0/">
	<!ENTITY ns_ai "http://ns.adobe.com/AdobeIllustrator/10.0/">
	<!ENTITY ns_graphs "http://ns.adobe.com/Graphs/1.0/">
	<!ENTITY ns_vars "http://ns.adobe.com/Variables/1.0/">
	<!ENTITY ns_imrep "http://ns.adobe.com/ImageReplacement/1.0/">
	<!ENTITY ns_sfw "http://ns.adobe.com/SaveForWeb/1.0/">
	<!ENTITY ns_custom "http://ns.adobe.com/GenericCustomNamespace/1.0/">
	<!ENTITY ns_adobe_xpath "http://ns.adobe.com/XPath/1.0/">
]>
<svg version="1.1" id="Layer_1" xmlns:x="&ns_extend;" xmlns:i="&ns_ai;" xmlns:graph="&ns_graphs;"
	 xmlns="http://www.w3.org/2000/svg" xmlns:xlink="http://www.w3.org/1999/xlink" x="0px" y="0px" viewBox="0 0 3000 2000"
	 style="enable-background:new 0 0 3000 2000;" xml:space="preserve">
<metadata>
	<sfw  xmlns="&ns_sfw;">
		<slices></slices>
		<sliceSourceBounds  bottomLeftOrigin="true" height="2000" width="3000" x="-0.161" y="-1999.677"></sliceSourceBounds>
	</sfw>
</metadata>
<rect x="-0.161" y="-0.323" style="fill:#EDDCC3;" width="3000" height="2000"/>
<g>
	<g>
		<path style="fill:#FFFFFF;" d="M1263.083,1404.458c-15.785-48.893-33.905-87.587-57.951-88.325s-43.169,4.929-24.182,6.91
			c12.325,1.286,26.04,13.02,31.823,23.924c12.922,24.367,14.877,53.307,19.589,64.815
			C1237.073,1423.289,1269.237,1423.522,1263.083,1404.458z"/>
		<path style="fill:#252535;" d="M1226.835,1295.829c17.104-0.146,20.154,28.883-3.121,29.578
			c-23.276,0.695-105.877,5.618-118.606,5.997c-12.729,0.38-30.054-25.186,8.411-29.189
			C1151.984,1298.211,1226.835,1295.829,1226.835,1295.829z"/>
	</g>
	
		<rect x="1285.698" y="1511.891" transform="matrix(-0.9996 0.0298 -0.0298 -0.9996 2643.7212 3090.4211)" style="fill:#FFFFFF;" width="26.207" height="106.091"/>
	<path style="fill:#3B3B4C;" d="M1065.441,1405.369c1.877,11.444,1.219,19.126,20.272,26.224c4.96,1.847,16.206,5.983,30.43,11.139
		c1.506,0.548,3.048,1.104,4.619,1.673c2.89,1.044,5.878,2.123,8.944,3.222c4.67,1.681,9.516,3.416,14.449,5.176
		c7.057,2.515,14.295,5.075,21.458,7.587c1.361,0.474,2.722,0.953,4.078,1.423c29.142,10.171,56.207,19.153,63.718,20.225
		c6.721,0.962,16.438-1.819,24.495-5.833l0.005,0c3.288-1.643,6.294-3.497,8.715-5.381l0.009-0.005
		c6.284-4.899,8.553-10.05,1.232-12.466c-2.14-0.708-6.197-2.049-11.671-3.871c-17.512-5.83-49.53-16.581-79.703-27.254
		c-1.361-0.479-2.722-0.962-4.074-1.446c-16.636-5.915-32.484-11.735-44.732-16.609c-1.591-0.633-3.122-1.249-4.583-1.849
		c-10.163-4.151-17.105-7.446-18.781-9.248c-4.269-4.598-14.902-5.567-23.985-3.871c0,0,0,0-0.005,0
		C1071.734,1395.814,1064.531,1399.807,1065.441,1405.369z"/>
	<path style="fill:#3F3F54;" d="M1317.82,1495.417c0.741,24.822,4.205,32.785-13.838,33.646c-18.043,0.861-27.088,0.486-27.67-8.208
		c-0.582-8.694-0.828-27.723-0.828-27.723L1317.82,1495.417z"/>
	<path style="fill:#1F1F39;" d="M1349.573,1478.858c-1.637,10.45-4.132,23.173-58.161,23.636
		c-54.029,0.463-58.003-20.456-58.003-20.456l43.729-14.763l67.275,0.292L1349.573,1478.858z"/>
	<path style="fill:#1F1F39;" d="M1311.174,1503.245c24.697,5.587,37.818,8.605,48.084,5.808
		c10.265-2.798,50.735-14.507,50.981-6.274c0.142,4.748-38.98,16.687-52.794,16.141c-13.814-0.546-49.371-10.408-49.371-10.408
		L1311.174,1503.245z"/>
	<g>
		<path style="fill:#4F4F5E;" d="M1076.794,1400.434c4.203,5.432,21.427,13.637,43.303,22.177c1.511,0.589,3.046,1.178,4.599,1.77
			c14.06,5.363,29.716,10.788,44.916,15.68c1.369,0.442,2.738,0.879,4.098,1.312c31.002,9.835,59.32,17.194,67.245,16.916l0.009,0
			c4.289-0.128-1.981,12.483,12.599,16.943h0.005c1.28,0.394,2.715,0.719,4.336,0.974l0.005,0c3.062,0.474,6.772,0.671,11.272,0.505
			c28.301-1.056,54.205-3.889,76.128-7.186c15.275-2.295,28.616-4.817,39.496-7.118c0,0.005,0.005,0,0.005,0
			c10.227-2.162,18.272-4.135,23.695-5.543l0.005,0c5.177-1.349,7.96-2.182,7.96-2.182l92.555-237.711l23.536-27.739
			c0,0,0.923,2.477,0.919,2.481c-1.692-0.322-6.785,2.171-8.519,1.832c-0.005,0,7.113-7.056,7.109-7.056
			c-73.188-14.266-185.834-42.247-202.282-16.296c-11.435,18.038-21.386,109.372-42.888,167.111
			c-4.74,12.731-10.04,23.824-16.043,32.144c-4.595,6.365-9.601,11.107-15.081,13.702c-2.71,1.29-5.537,2.05-8.488,2.225
			c-6.098,0.361-13.279,0.617-21.193,0.821c-12.539,0.315-26.907,0.481-41.674,0.688c-1.452,0.02-2.913,0.041-4.369,0.062
			c-16.402,0.237-33.12,0.538-48.224,1.154c-1.685,0.073-3.346,0.146-4.99,0.223c-21.256,0.998-38.699,2.709-46.501,5.883
			c0,0,0,0-0.005,0C1076.281,1395.853,1074.829,1397.896,1076.794,1400.434z"/>
		<path style="fill:#3B3B4C;" d="M1222.11,1473.615c0.685,18.943,88.855,10.92,183.591-1.747
			c19.464-2.603,34.559-23.071,47.033-50.857c3.302-7.362,6.424-15.24,9.396-23.436c11.313-31.224,20.43-67.058,29.143-96.625
			c13.499-45.812,61.803-105.476,42.581-113.873l-0.004-0.004c-0.004-0.004-0.008-0.004-0.012-0.004
			c-1.357-0.592-3.046-0.926-5.106-0.984c-2.934-0.086-6.624,0.392-11.167,1.499c-35.621,8.674-60.51,131.329-92.157,203.638
			c-3.383,7.724-6.84,14.876-10.396,21.25c-10.097,18.103-20.988,29.958-33.157,30.979c-41.692,3.506-109.178,4.45-141.436,14.855
			l-0.012,0C1228.892,1462.023,1221.866,1466.942,1222.11,1473.615z"/>
	</g>
	<path style="fill:#2C2C44;" d="M1108.842,1716.55c0.301,10.091,49.383-1.524,99.506-13.248
		c21.866-5.113,43.93-10.245,62.226-13.607c12.98-2.384,24.065-3.877,31.838-3.836c12.305,0.063,33.752,2.506,58.207,5.741
		c9.293,1.227,19.024,2.57,28.85,3.938c56.459,7.865,116.111,16.597,114.963,9.587c-1.875-11.445-165.042-59.082-203.174-57.944
		C1263.568,1648.306,1108.579,1707.739,1108.842,1716.55z"/>
	<g>
		
			<ellipse transform="matrix(0.9996 -0.0298 0.0298 0.9996 -51.4892 34.2048)" style="fill:#1F1F39;" cx="1121.848" cy="1744.598" rx="21.578" ry="21.764"/>
		<path style="fill:#FFFFFF;" d="M1112.71,1744.87c0.152,5.091,4.366,9.095,9.413,8.945c5.047-0.151,9.015-4.4,8.863-9.49
			c-0.152-5.091-4.367-9.095-9.414-8.945C1116.526,1735.531,1112.558,1739.78,1112.71,1744.87z"/>
	</g>
	<g>
		
			<ellipse transform="matrix(0.9996 -0.0299 0.0299 0.9996 -51.7234 36.8955)" style="fill:#1F1F39;" cx="1206.947" cy="1746.708" rx="21.577" ry="21.764"/>
		<path style="fill:#FFFFFF;" d="M1197.809,1746.98c0.152,5.091,4.367,9.095,9.414,8.944s9.015-4.399,8.863-9.49
			c-0.152-5.091-4.366-9.095-9.413-8.945C1201.625,1737.641,1197.657,1741.89,1197.809,1746.98z"/>
	</g>
	<g>
		
			<ellipse transform="matrix(0.9996 -0.0298 0.0298 0.9996 -51.2354 42.6849)" style="fill:#1F1F39;" cx="1406.837" cy="1740.741" rx="21.578" ry="21.764"/>
		<path style="fill:#FFFFFF;" d="M1397.699,1741.014c0.152,5.091,4.366,9.095,9.413,8.944c5.047-0.151,9.015-4.4,8.863-9.49
			c-0.152-5.091-4.366-9.095-9.413-8.944C1401.515,1731.674,1397.547,1735.923,1397.699,1741.014z"/>
	</g>
	<g>
		
			<ellipse transform="matrix(0.9996 -0.0299 0.0299 0.9996 -51.1011 45.2085)" style="fill:#1F1F39;" cx="1488.199" cy="1733.662" rx="21.578" ry="21.764"/>
		<path style="fill:#FFFFFF;" d="M1479.061,1733.934c0.152,5.09,4.366,9.095,9.413,8.944c5.047-0.151,9.015-4.4,8.863-9.49
			c-0.152-5.091-4.366-9.095-9.413-8.944S1478.909,1728.844,1479.061,1733.934z"/>
	</g>
	<path style="fill:#17172D;" d="M1208.349,1703.302c21.866-5.113,43.93-10.245,62.226-13.607l20.67-8.319
		c0,0,6.487-30.857-5.83-29.939C1273.535,1652.317,1235.87,1677.692,1208.349,1703.302z"/>
	<path style="fill:#17172D;" d="M1360.62,1691.6c9.293,1.227,19.024,2.57,28.85,3.938c-21.966-23.614-72.681-48.68-73.549-42.606
		C1315.274,1657.441,1343.741,1679.156,1360.62,1691.6z"/>
	<path style="fill:#2C2C44;" d="M1315.919,1652.934c58.78,24.81,87.798,67.042,76.868,67.711
		c-21.425,1.311-90.375-34.787-90.375-34.787L1315.919,1652.934z"/>
	<path style="fill:#2C2C44;" d="M1288.344,1653.757c-56.844,23.265-91.482,70.362-80.531,70.378
		c21.465,0.031,94.599-38.277,94.599-38.277L1288.344,1653.757z"/>
	<path style="fill:#4F4F5E;" d="M1319.042,1575.487c0.742,8.936,2.722,96.577,3.438,114.626c0.484,12.208-39.888,6.812-40.035,0.422
		c-0.2-8.711-1.713-104.962-1.708-113.905C1280.743,1567.687,1318.3,1566.552,1319.042,1575.487z"/>
	<g>
		<path style="fill:#FFFFFF;" d="M1408.597,1447.79c-16.62-51.482-35.701-92.226-61.02-93.003s-45.456,5.19-25.463,7.276
			c12.978,1.354,27.419,13.709,33.508,25.191c13.606,25.657,15.665,56.13,20.626,68.247
			C1381.209,1467.618,1415.077,1467.863,1408.597,1447.79z"/>
		<path style="fill:#252535;" d="M1370.429,1333.408c18.01-0.154,21.222,30.412-3.286,31.144
			c-24.508,0.732-111.484,5.915-124.887,6.315c-13.403,0.4-31.646-26.52,8.856-30.735
			C1291.614,1335.916,1370.429,1333.408,1370.429,1333.408z"/>
	</g>
</g>
<g>
	<path style="fill:#DBDBDB;" d="M1330.166,1254.042c4.188-0.037-2.627,17.551-6.822,16.89
		c-11.055-1.742-183.568-19.701-203.427-30.305c-7.716-4.12-7.198-24.371-2.293-22.32
		C1122.53,1220.358,1288.885,1254.409,1330.166,1254.042z"/>
	<g>
		<path style="fill:#EFEFEF;" d="M1117.066,1203.628c-3.964-1.353-2.979,15.211,1.21,15.904
			c11.042,1.825,193.915,39.234,216.27,36.57c4.708-0.561,10.89-21.915,5.588-21.512S1156.135,1216.964,1117.066,1203.628z"/>
		
			<path style="fill:none;stroke:#C1C1C1;stroke-width:0.7348;stroke-linecap:round;stroke-linejoin:round;stroke-miterlimit:10;" d="
			M1123.883,1211.993c17.654,3.35,157.365,35.922,203.092,35.733"/>
		
			<path style="fill:none;stroke:#C1C1C1;stroke-width:0.7348;stroke-linecap:round;stroke-linejoin:round;stroke-miterlimit:10;" d="
			M1130.155,1210.605c3.321,0.672,155.432,34.193,183.009,34.322"/>
		
			<path style="fill:none;stroke:#C1C1C1;stroke-width:0.7348;stroke-linecap:round;stroke-linejoin:round;stroke-miterlimit:10;" d="
			M1133.489,1212.848c0,0,155.785,34.713,184.749,33.61"/>
		
			<path style="fill:none;stroke:#C1C1C1;stroke-width:0.7348;stroke-linecap:round;stroke-linejoin:round;stroke-miterlimit:10;" d="
			M1113.765,1227.2c17.655,3.35,157.366,35.922,203.092,35.733"/>
		
			<path style="fill:none;stroke:#C1C1C1;stroke-width:0.7348;stroke-linecap:round;stroke-linejoin:round;stroke-miterlimit:10;" d="
			M1120.037,1225.812c3.322,0.672,155.432,34.193,183.009,34.322"/>
		
			<path style="fill:none;stroke:#C1C1C1;stroke-width:0.7348;stroke-linecap:round;stroke-linejoin:round;stroke-miterlimit:10;" d="
			M1123.371,1228.054c0,0,155.785,34.713,184.749,33.61"/>
	</g>
	<g>
		<path style="fill:#EFEFEF;" d="M1337.181,1214.368c0,0,0.81,18.922-4.033,19.58c-10.926,1.483-218.02-25.491-223.632-28.937
			c-5.613-3.446,5.44-18.195,5.44-18.195S1310.687,1218.767,1337.181,1214.368z"/>
		
			<path style="fill:none;stroke:#E5E5E5;stroke-width:0.7348;stroke-linecap:round;stroke-linejoin:round;stroke-miterlimit:10;" d="
			M1116.1,1199.024c5.601,2.05,191.166,28.498,210.36,27.996"/>
		
			<path style="fill:none;stroke:#E5E5E5;stroke-width:0.7348;stroke-linecap:round;stroke-linejoin:round;stroke-miterlimit:10;" d="
			M1118.675,1193.593c2.799,0.85,123.633,22.636,157.683,24.633"/>
		
			<path style="fill:none;stroke:#E5E5E5;stroke-width:0.7348;stroke-linecap:round;stroke-linejoin:round;stroke-miterlimit:10;" d="
			M1137.001,1193.621c4.723,1.359,158.868,27.358,184.696,26.978"/>
	</g>
	<g>
		<path style="fill:#E5E5E5;" d="M1122.506,1171.889c-4.024-1.163-6.536,15.881-2.319,16.374
			c11.116,1.298,197.721,36.51,217.763,26.255c4.273-2.186,9.773-22.628,4.56-21.753
			C1337.267,1193.645,1162.165,1183.354,1122.506,1171.889z"/>
		
			<path style="fill:none;stroke:#C1C1C1;stroke-width:0.7348;stroke-linecap:round;stroke-linejoin:round;stroke-miterlimit:10;" d="
			M1143.443,1183.777c17.794,2.508,140.881,25.096,186.547,22.734"/>
		
			<path style="fill:none;stroke:#C1C1C1;stroke-width:0.7348;stroke-linecap:round;stroke-linejoin:round;stroke-miterlimit:10;" d="
			M1131.629,1178.782c3.35,0.513,161.85,22.882,189.403,21.702"/>
		
			<path style="fill:none;stroke:#C1C1C1;stroke-width:0.7348;stroke-linecap:round;stroke-linejoin:round;stroke-miterlimit:10;" d="
			M1135.065,1180.863c0,0,159.256,23.376,188.134,20.898"/>
	</g>
	<g>
		<path style="fill:#DFE6ED;" d="M1123.208,1157.23c-4.055-1.051-6.092,16.056-1.863,16.432
			c11.148,0.989,196.318,24.527,218.409,20.188c4.652-0.914,9.209-22.673,3.953-21.872
			C1338.452,1172.779,1163.17,1167.588,1123.208,1157.23z"/>
		
			<path style="fill:none;stroke:#C1C1C1;stroke-width:0.7348;stroke-linecap:round;stroke-linejoin:round;stroke-miterlimit:10;" d="
			M1144.467,1168.532c17.857,2.012,141.525,21.167,187.107,17.536"/>
		
			<path style="fill:none;stroke:#C1C1C1;stroke-width:0.7348;stroke-linecap:round;stroke-linejoin:round;stroke-miterlimit:10;" d="
			M1132.518,1163.867c3.363,0.42,162.424,18.371,189.933,16.424"/>
		
			<path style="fill:none;stroke:#C1C1C1;stroke-width:0.7348;stroke-linecap:round;stroke-linejoin:round;stroke-miterlimit:10;" d="
			M1136.012,1165.852c0,0,159.844,18.937,188.643,15.656"/>
	</g>
	<g>
		<path style="fill:#FFFFFF;" d="M1116.88,1141.437c-4.076-0.965-5.709,15.798-1.516,16.467
			c17.235,2.749,196.792,20.382,218.786,15.577c4.632-1.012,8.729-22.862,3.491-21.95
			C1332.404,1152.443,1157.052,1150.949,1116.88,1141.437z"/>
		
			<path style="fill:none;stroke:#E5E5E5;stroke-width:0.7348;stroke-linecap:round;stroke-linejoin:round;stroke-miterlimit:10;" d="
			M1138.373,1152.287c17.895,1.635,141.94,18.177,187.435,13.586"/>
		
			<path style="fill:none;stroke:#E5E5E5;stroke-width:0.7348;stroke-linecap:round;stroke-linejoin:round;stroke-miterlimit:10;" d="
			M1126.328,1147.875c3.371,0.349,162.776,14.942,190.237,12.415"/>
		
			<path style="fill:none;stroke:#E5E5E5;stroke-width:0.7348;stroke-linecap:round;stroke-linejoin:round;stroke-miterlimit:10;" d="
			M1129.863,1149.786c0,0,160.208,15.562,188.931,11.675"/>
	</g>
	<g>
		<g>
			<path style="fill:#FFFFFF;" d="M1337.683,1110.575c0,0,2.864,17.874-1.57,19.929c-10.557,4.893-202.793,4.441-218.55-3.46
				c-5.887-2.952-3.806-16.211-3.806-16.211S1311.941,1118.231,1337.683,1110.575z"/>
			
				<path style="fill:none;stroke:#E5E5E5;stroke-width:0.7348;stroke-linecap:round;stroke-linejoin:round;stroke-miterlimit:10;" d="
				M1116.408,1122.805c5.813,1.338,193.225,4.537,212.209,1.655"/>
			
				<path style="fill:none;stroke:#E5E5E5;stroke-width:0.7348;stroke-linecap:round;stroke-linejoin:round;stroke-miterlimit:10;" d="
				M1118.289,1117.096c2.883,0.496,125.487,7.107,159.521,4.861"/>
			
				<path style="fill:none;stroke:#E5E5E5;stroke-width:0.7348;stroke-linecap:round;stroke-linejoin:round;stroke-miterlimit:10;" d="
				M1136.477,1114.849c4.855,0.762,161.036,7.418,186.617,3.833"/>
		</g>
		<g>
			<path style="fill:#DBDBDB;" d="M1117.939,1127.253c-4.102-0.85-0.998,14.845,3.176,15.631
				c15.506,2.918,197.286,14.849,219.137,9.43c4.602-1.141,8.084-23.098,2.874-22.039S1158.362,1135.635,1117.939,1127.253z"/>
			
				<path style="fill:none;stroke:#C1C1C1;stroke-width:0.7348;stroke-linecap:round;stroke-linejoin:round;stroke-miterlimit:10;" d="
				M1125.742,1134.708c17.934,1.132,160.608,16.102,205.957,10.236"/>
			
				<path style="fill:none;stroke:#C1C1C1;stroke-width:0.7348;stroke-linecap:round;stroke-linejoin:round;stroke-miterlimit:10;" d="
				M1131.793,1132.551c3.379,0.254,158.475,14.626,185.855,11.329"/>
			
				<path style="fill:none;stroke:#C1C1C1;stroke-width:0.7348;stroke-linecap:round;stroke-linejoin:round;stroke-miterlimit:10;" d="
				M1135.38,1134.362c0,0,158.89,15.099,187.492,10.407"/>
		</g>
		<g>
			<path style="fill:#E5E5E5;" d="M1119.395,1095.084c-4.137-0.655-4.514,16.57-0.268,16.535
				c11.191-0.092,197.769,5.461,219.338-0.99c4.542-1.359,6.977-23.456,1.823-22.151
				C1335.135,1089.783,1160.171,1101.536,1119.395,1095.084z"/>
			
				<path style="fill:none;stroke:#C1C1C1;stroke-width:0.7348;stroke-linecap:round;stroke-linejoin:round;stroke-miterlimit:10;" d="
				M1141.646,1104.281c17.967,0.279,142.907,7.406,187.926-0.608"/>
			
				<path style="fill:none;stroke:#C1C1C1;stroke-width:0.7348;stroke-linecap:round;stroke-linejoin:round;stroke-miterlimit:10;" d="
				M1129.303,1100.791c3.388,0.093,163.439,2.606,190.631-1.987"/>
			
				<path style="fill:none;stroke:#C1C1C1;stroke-width:0.7348;stroke-linecap:round;stroke-linejoin:round;stroke-miterlimit:10;" d="
				M1132.972,1102.43c0,0,160.926,3.418,189.273-2.627"/>
		</g>
		<g>
			<path style="fill:#DFE6ED;" d="M1118.753,1079.887c-4.154-0.539-4.015,15.96,0.193,16.536
				c17.474,2.392,197.844-0.042,219.225-7.092c4.503-1.484,6.322-23.641,1.207-22.193
				C1334.262,1068.586,1159.692,1085.203,1118.753,1079.887z"/>
			
				<path style="fill:none;stroke:#C1C1C1;stroke-width:0.7348;stroke-linecap:round;stroke-linejoin:round;stroke-miterlimit:10;" d="
				M1140.769,1089.026c17.968-0.221,143.058,3.428,187.836-5.835"/>
			
				<path style="fill:none;stroke:#E5E5E5;stroke-width:0.7348;stroke-linecap:round;stroke-linejoin:round;stroke-miterlimit:10;" d="
				M1128.334,1085.881c3.389-0.001,163.448-1.942,190.502-7.289"/>
			
				<path style="fill:none;stroke:#C1C1C1;stroke-width:0.7348;stroke-linecap:round;stroke-linejoin:round;stroke-miterlimit:10;" d="
				M1132.047,1087.417c0,0,160.959-1.06,189.127-7.891"/>
		</g>
		<g>
			<path style="fill:#FFFFFF;" d="M1110.031,1065.567c-4.164-0.452-3.698,16.771,0.541,16.528
				c11.173-0.639,197.799-4.214,219.027-11.713c4.471-1.579,5.822-23.769,0.738-22.214
				C1325.253,1049.723,1151.073,1070.017,1110.031,1065.567z"/>
			
				<path style="fill:none;stroke:#E5E5E5;stroke-width:0.7348;stroke-linecap:round;stroke-linejoin:round;stroke-miterlimit:10;" d="
				M1132.704,1073.664c17.959-0.6,143.098,0.41,187.671-9.795"/>
			
				<path style="fill:none;stroke:#E5E5E5;stroke-width:0.7348;stroke-linecap:round;stroke-linejoin:round;stroke-miterlimit:10;" d="
				M1120.206,1070.782c3.388-0.073,163.371-5.388,190.306-11.305"/>
			
				<path style="fill:none;stroke:#E5E5E5;stroke-width:0.7348;stroke-linecap:round;stroke-linejoin:round;stroke-miterlimit:10;" d="
				M1123.95,1072.239c0,0,160.901-4.454,188.918-11.878"/>
		</g>
	</g>
	<g>
		<g>
			<path style="fill:#DFE6ED;" d="M1118.832,1022.101c0,0-2.907,18.869,1.869,19.903c15.119,3.274,198.37,2.968,220.316-6.612
				c6.036-2.635,1.721-16.388,1.721-16.388S1144.687,1029.37,1118.832,1022.101z"/>
			
				<path style="fill:none;stroke:#C1C1C1;stroke-width:0.7348;stroke-linecap:round;stroke-linejoin:round;stroke-miterlimit:10;" d="
				M1340.266,1031.014c-5.792,1.425-193.135,7.431-212.16,4.834"/>
			
				<path style="fill:none;stroke:#C1C1C1;stroke-width:0.7348;stroke-linecap:round;stroke-linejoin:round;stroke-miterlimit:10;" d="
				M1338.3,1025.334c-2.875,0.539-125.366,8.986-159.431,7.25"/>
			
				<path style="fill:none;stroke:#C1C1C1;stroke-width:0.7348;stroke-linecap:round;stroke-linejoin:round;stroke-miterlimit:10;" d="
				M1320.08,1023.359c-4.843,0.834-160.907,9.829-186.538,6.628"/>
		</g>
		<g>
			<path style="fill:#FFFFFF;" d="M1341.608,974.076c4.157-0.514,0.945,14.657-3.212,15.525c-23.8,4.97-190.745-0.631-212.083-7.811
				c-4.494-1.512-6.178-23.679-1.071-22.2C1130.35,961.069,1300.637,979.141,1341.608,974.076z"/>
			
				<path style="fill:none;stroke:#E5E5E5;stroke-width:0.7348;stroke-linecap:round;stroke-linejoin:round;stroke-miterlimit:10;" d="
				M1323.235,982.123c-17.966-0.331-143.076,2.554-187.797-6.983"/>
			
				<path style="fill:none;stroke:#E5E5E5;stroke-width:0.7348;stroke-linecap:round;stroke-linejoin:round;stroke-miterlimit:10;" d="
				M1335.689,979.054c-3.389-0.022-163.433-2.94-190.454-8.453"/>
			
				<path style="fill:none;stroke:#E5E5E5;stroke-width:0.7348;stroke-linecap:round;stroke-linejoin:round;stroke-miterlimit:10;" d="
				M1331.967,980.567c0,0-160.949-2.043-189.075-9.046"/>
		</g>
		<g>
			<path style="fill:#EFEFEF;" d="M1338.802,1035.485c4.088-0.912,1.299,15.446-2.941,15.676
				c-11.175,0.607-198.192,19.963-220.122,14.871c-4.618-1.072-7.279-25.134-2.053-24.154
				C1118.911,1042.859,1298.509,1044.471,1338.802,1035.485z"/>
			
				<path style="fill:none;stroke:#E5E5E5;stroke-width:0.7348;stroke-linecap:round;stroke-linejoin:round;stroke-miterlimit:10;" d="
				M1331.112,1043.055c-17.915,1.4-160.349,18.506-205.781,13.32"/>
			
				<path style="fill:none;stroke:#E5E5E5;stroke-width:0.7348;stroke-linecap:round;stroke-linejoin:round;stroke-miterlimit:10;" d="
				M1325.029,1040.99c-3.375,0.305-158.238,16.998-185.664,14.112"/>
			
				<path style="fill:none;stroke:#E5E5E5;stroke-width:0.7348;stroke-linecap:round;stroke-linejoin:round;stroke-miterlimit:10;" d="
				M1321.47,1042.855c0,0-158.646,17.477-187.316,13.215"/>
		</g>
		<g>
			<path style="fill:#E5E5E5;" d="M1336.864,1003.342c4.127-0.717,4.762,16.5,0.515,16.529
				c-11.191,0.076-197.665,8.423-219.328,2.296c-4.562-1.29-7.328-23.349-2.155-22.121S1296.19,1010.404,1336.864,1003.342z"/>
			
				<path style="fill:none;stroke:#C1C1C1;stroke-width:0.7348;stroke-linecap:round;stroke-linejoin:round;stroke-miterlimit:10;" d="
				M1314.753,1012.87c-17.961,0.548-142.78,9.546-187.914,2.207"/>
			
				<path style="fill:none;stroke:#C1C1C1;stroke-width:0.7348;stroke-linecap:round;stroke-linejoin:round;stroke-miterlimit:10;" d="
				M1327.043,1009.196c-3.386,0.144-163.382,5.054-190.64,0.869"/>
			
				<path style="fill:none;stroke:#C1C1C1;stroke-width:0.7348;stroke-linecap:round;stroke-linejoin:round;stroke-miterlimit:10;" d="
				M1323.399,1010.89c0,0-160.857,5.828-189.292,0.209"/>
		</g>
		<g>
			<path style="fill:#DBDBDB;" d="M1337.769,988.694c4.145-0.602,4.301,16.626,0.055,16.537
				c-11.189-0.236-197.823,2.922-219.307-3.807c-4.524-1.417-6.676-23.544-1.539-22.173
				C1122.115,980.623,1296.914,994.622,1337.769,988.694z"/>
			
				<path style="fill:none;stroke:#C1C1C1;stroke-width:0.7348;stroke-linecap:round;stroke-linejoin:round;stroke-miterlimit:10;" d="
				M1315.402,997.604c-17.969,0.048-142.99,5.571-187.903-3.021"/>
			
				<path style="fill:none;stroke:#C1C1C1;stroke-width:0.7348;stroke-linecap:round;stroke-linejoin:round;stroke-miterlimit:10;" d="
				M1327.788,994.273c-3.388,0.05-163.459,0.507-190.59-4.435"/>
			
				<path style="fill:none;stroke:#C1C1C1;stroke-width:0.7348;stroke-linecap:round;stroke-linejoin:round;stroke-miterlimit:10;" d="
				M1324.099,995.865c0,0-160.957,1.351-189.224-5.057"/>
		</g>
	</g>
	<path style="fill:#FFFFFF;" d="M1297.099,1090.419c-2.391,6.651-3.315,22.017-7.515,20.655c-4.2-1.363-67.15-16.22-62.615-16.606
		C1231.503,1094.083,1297.099,1090.419,1297.099,1090.419z"/>
	<path style="fill:#FFFFFF;" d="M1195.348,1221.56c0.525,7.048-1.829,19.082,2.582,18.892s69.429-6.637,65.162-8.221
		C1258.826,1230.647,1195.348,1221.56,1195.348,1221.56z"/>
	<path style="fill:#FFFFFF;" d="M1242.602,1041.286c-2.776,2.116-66.539,16.587-67.963,13.108
		c-1.424-3.479-8.136-13.549-8.136-13.549L1242.602,1041.286z"/>
	<path style="fill:#FFFFFF;" d="M1139.227,1164.124c-1.427,1.934-8.675,12.239-7.975,18.253c0.683,5.864,7.009,12.482,8.445,10.415
		c11.64-16.743,68.204-3.198,75.46-4.773c2.926-0.635,14.458-15.38,13.012-15.849
		C1219.56,1169.373,1139.227,1164.124,1139.227,1164.124z"/>
	<path style="fill:#FFFFFF;" d="M1204.226,1000.053c0.827,1.46,18.98,9.802,28.793,14.125c3.881,1.709,5.283,8.433,7.242,8.906
		c4.289,1.036,64.829-2.908,66.587-3.51c0.488-0.167-3.489-8.284-6.933-11.028c-2.701-2.151-21.753-9.606-21.753-9.606
		L1204.226,1000.053z"/>
	<path style="fill:#FFFFFF;" d="M1260.183,1188.801c5.99,6.934,17.591,17.313,25.979,18.643
		c8.388,1.329,29.197-15.591,29.197-15.591L1260.183,1188.801z"/>
</g>
<path style="fill:#EFAEA6;" d="M2597.181,945.691c7.131-4.698,11.125-8.345,21.365-13.18c9.902-4.675,17.538-7.638,21.517-16.694
	c3.265-7.433,21.057-35.078,23.927-34.02c9.955,3.67-1.143,27.343-4.847,32.376c-19.757,26.849,2.58,24.945,1.644,32.552
	c-0.936,7.607-8.767-2.935-24.824,6.959c-9.642,5.941-18.469,14.335-23.239,15.437
	C2607.955,970.223,2597.181,945.691,2597.181,945.691z"/>
<path style="opacity:0.09;fill:#32323F;" d="M369.797,1743.683c1.613,24.369,559.509,45.922,1082.483,45.922
	s1088.732-18.254,1090.457-29.475c5.904-38.411-570.259-20.441-1093.233-20.441S367.021,1701.754,369.797,1743.683z"/>
<g>
	<path style="fill:#FFFFFF;" d="M1906.715,1531.089c-34.407-16.514-63.052-33.853-64.522-71.99
		c-23.053,3.352-62.603,14.19-85.872,18.811c2.879,14.939,48.777,44.24,62.148,51.497c13.671,7.42,29.902,8.3,45.445,7.677
		C1878.593,1536.495,1893.224,1534.714,1906.715,1531.089z"/>
	<path style="fill:#EFEFEF;" d="M1853.682,1537.531c18.241-2.237,21.461-14.013,34.388-27.075c4.509-4.557,8.66-9.77,14.457-12.506
		c6.68-3.153,28.616,0.719,36,0.879c14.269,0.309,28.581-1.447,42.352-5.195c-14.513,17.65-35.8,28.695-57.833,34.749
		S1878.019,1535.914,1853.682,1537.531z"/>
</g>
<path style="fill:#FFFFFF;" d="M1336.549,818.186c-14.27,15.743-28.754,42.487-40.63,60.106c0.41-0.467-2.117,3.08-1.708,2.613
	c13.055,11.625,29.792,18.398,44.226,28.259c-1.795-1.161-3.589-2.322-5.384-3.483c44.361,32.525,83.507-2.511,156.641,33.304
	c-1.738-24.031-2.13-58.04-3.868-82.071C1417.924,820.684,1380.125,867.661,1336.549,818.186z"/>
<g>
	<g>
		<path style="fill:#FFFFFF;" d="M2414.396,1720.727c0.592-15.581-2.711-54.794-2.711-54.794l-40.207,0.757l5.482,58.85
			l27.576,17.265L2414.396,1720.727z"/>
		<path style="fill:#1F1F39;" d="M2417.172,1714.033c4.196-1.088,2.504,3.054,4.164,9.551c3.801,14.873,56.769,14.576,64.776,15.814
			c4.134,0.639,11.125,22.484-9.391,22.669c-17.741,0.161-74.566,0.89-93.98,0.938c-4.06,0.01-7.651-2.767-8.693-6.791
			c-3.721-14.365-3.113-36.743,2.296-37.29C2384.49,1716.13,2399.686,1718.565,2417.172,1714.033z"/>
	</g>
	<g>
		<path style="fill:#FFFFFF;" d="M2051.22,1665.637c12.783-8.51,42.187-33.928,42.187-33.928l-23.814-33.119l-43.826,38.584
			l2.133,32.992L2051.22,1665.637z"/>
		<path style="fill:#1F1F39;" d="M2058.167,1664.086c3.291,2.874-0.993,3.854-5.223,8.995c-9.682,11.767,21.132,55.801,24.766,63.2
			c1.875,3.819-11.531,22.278-23.523,5.263c-10.369-14.713-43.755-61.717-55-77.892c-2.351-3.382-2.207-7.984,0.405-11.18
			c9.323-11.407,27.542-23.831,31.101-19.634C2037.627,1638.022,2044.455,1652.112,2058.167,1664.086z"/>
	</g>
	<path style="fill:#3B3B4C;" d="M2424.347,1701.62c-3.606,0.418-7.019,0.784-10.245,1.09c-19.735,1.874-32.519,1.732-39.135,1.404
		c-3.666-0.194-5.436-0.441-5.436-0.441c-3.756-16.823-4.749-82.697-8.027-139.962c-0.68-11.753-1.449-23.14-2.36-33.669
		c-2.076-23.947-4.876-43.443-8.923-52.62c-12.687-28.808-38.821-88.499-57.519-131.248v-0.022
		c-12.029-27.486-20.982-47.953-21.311-48.693c-8.819,63.268-11.589,100.879-31.578,168.075
		c-24.443,72.103-135.717,171.923-147.703,181.512c-2.924,2.339-57.507-42.732-47.344-50.341
		c5.959-4.461,120.71-121.978,126.537-158.09c5.938-36.801-8.087-176.281-0.523-266.968c0.784-9.379,133.734-15.979,133.734-15.979
		l32.235,1.374c26.665,63.955,70.758,275.668,77.381,309.478c2.285,11.686,4.309,42.009,5.951,77.172
		c0.456,9.894,0.889,20.176,1.284,30.533C2423.638,1633.506,2424.803,1695.236,2424.347,1701.62z"/>
	<path style="opacity:0.57;fill:#1F1F39;" d="M2292.703,1346.174c-13.603-26.173-21.315-48.729-21.315-48.729
		c2.287-19.002,3.442-41.182,3.442-41.182S2288.385,1314.206,2292.703,1346.174z"/>
</g>
<g>
	<path style="fill:#201B2C;" d="M2032.406,1245.26l5.435-11.725l3.192-6.867c0.181-0.388,0.344-0.785,0.494-1.177
		c1.148-3.027,1.408-6.083,0.874-8.663c-0.565-2.748-2.034-4.951-4.282-5.999l-5.711-2.653l-0.876-0.409l-23.671-10.985
		c-1.147-0.535-2.391-0.719-3.663-0.587c-3.903,0.378-8.04,3.66-10.356,8.649l-3.288,7.097l-5.306,11.422l5.946,2.762l5.327-11.468
		l0.758-1.625c1.709-3.688,4.754-6.138,7.643-6.462c0.978-0.116,1.948,0.018,2.833,0.431l20.872,9.68l1.752,0.817
		c3.486,1.626,4.455,6.949,2.147,11.897l-0.657,1.409l-5.385,11.616l-0.034,0.072L2032.406,1245.26z"/>
	<path style="fill:#EEADA5;" d="M2045.335,1175.795c-2.003,7.411,0.662,6.298-0.628,16.398c-1.29,10.099,1.133,25.913-4.137,25.363
		c-5.27-0.55-6.604-7.519-8.429-9.576c-1.825-2.057,1.164,5.447-3.442,8.662c-4.606,3.216-17.417,0.809-21.32-4.87
		c-3.902-5.679-4.696-14.2-1.171-23.344c3.525-9.144,13.056-19.567,15.611-23.151
		C2024.374,1161.695,2045.335,1175.795,2045.335,1175.795z"/>
	<path style="fill:#201B2C;" d="M2037.841,1233.535l3.192-6.867c0.181-0.388,0.344-0.785,0.494-1.177
		c1.174-3.036,1.447-6.12,0.917-8.709c-0.561-2.757-2.039-4.964-4.296-6.017l-5.741-2.589l-0.172-0.08l-0.438-0.193l-0.342,2.336
		l0.001,0.022l-0.458,3.151l-0.586,4.015c3.486,1.625,4.442,6.953,2.156,11.901l-0.691,1.481l-5.394,11.612l5.946,2.762
		L2037.841,1233.535z"/>
	<g>
		<path style="fill:#603A3E;" d="M2099.522,1285.362l-39.149,85.568c-2.318,5.068-8.309,7.304-13.385,4.982l-0.277-0.126
			l-153.396-67.822c-17.209-7.873-11.537-19.971-9.219-25.039l34.516-81.821c2.322-5.076,14.549-15.618,28.229-9.129l135.739,62.002
			l5.097,2.322C2098.886,1261.426,2104.772,1273.887,2099.522,1285.362z"/>
		<path style="fill:#775155;" d="M2099.522,1285.362l-39.149,85.568c-2.318,5.068-8.309,7.304-13.385,4.982l-0.277-0.126
			c0.55-5.866,3.086-14.379,9.705-26.63c15.997-29.618,23.058-68.25,26.165-95.179l5.097,2.322
			C2098.886,1261.426,2104.772,1273.887,2099.522,1285.362z"/>
	</g>
</g>
<path style="fill:#EFAEA6;" d="M2330.67,943.233l25.965-22.639c-6.211-13.928-13.232-50.028-21.208-61.357
	c-8.75-12.43-9.614-11.134-9.614-11.134l-14.909,22.278l-7.014,10.485c0,0,3.741,4.942,5.794,15.243
	c1.428,7.206,2.039,17.028-0.035,29.619C2308.091,935.154,2330.67,943.233,2330.67,943.233z"/>
<path style="opacity:0.14;fill:#1F1F39;" d="M2303.889,880.865c0,0,4.03,6.51,6.083,16.811c22.623-0.244,23.294-30.997,16.11-34.07
	c-4.49-1.921-15.179,6.775-15.179,6.775L2303.889,880.865z"/>
<g>
	<path style="fill:#EFAEA6;" d="M2273.427,845.818c3.422,11.015,0.142,36.073,7.33,33.135c7.188-2.938,7.207,23.281,14.969,20.429
		c18.805-6.908,35.406-27.299,34.186-37.232c-1.219-9.934-12.635-34.436-12.635-34.436L2273.427,845.818z"/>
	<path style="fill:#1F1F39;" d="M2296.684,848.307c-5.573,3.056-5.197,4.514-10.099,4.192c-4.902-0.322-0.098-8.849-8.258-7.015
		c-8.159,1.834-21.049,2.628-22.598-6.722c-2.512-15.162,11.39-16.241,18.915-17.584c4.843-0.865,1.367-7.115,10.454-10.312
		c7.128-2.508,4.494,2.546,10.952,0.59c3.899-1.181,8.744-10.359,16.447-8.207c14.289,3.992,9.375,18.002,22.06,23.301
		c14.794,6.181-0.66,38.423-4.588,36.875c-4.584-1.807-4.085-14.629-8.463-15.814c-6.601-1.788-5.491,2.775-8.115,8.482
		c-2.802,6.096-11.049,9.737-9.014-0.668C2306.414,845.021,2301.729,845.541,2296.684,848.307z"/>
</g>
<path style="opacity:0.57;fill:#1F1F39;" d="M2246.136,1192.344c-4.876,17.878-78.555,60.677-78.555,60.677l1.625-52.009
	C2169.207,1201.012,2251.012,1174.466,2246.136,1192.344z"/>
<path style="fill:#FFFFFF;" d="M2309.203,902.825c14.01-1.786,17.728,15.696,28.63,17.699c6.616,1.215,7.145-4.831,10.615-7.718
	c2.136-1.777,5.563,0.156,10.81,1.227c13.769,2.81-18.194,277.123-18.194,277.123s-39.802,6.141-67.813,2.01
	c-28.011-4.131-71.682-19.95-69.387-29.638c2.295-9.688,77.364-249.695,77.364-249.695S2295.193,904.61,2309.203,902.825z"/>
<path style="fill:#0267A4;" d="M2306.796,903.199c-0.647,16.094-25.862,81.172-18.359,135.236
	c1.541,11.113,0.732,21.796-1.389,31.907c-1.625,7.78-4.023,15.209-6.721,22.227c-7.503,19.566-17.302,35.94-19.077,47.605
	c-2.218,14.598-2.965,34.369-10.113,48.216c-3.143,6.117-7.536,11.076-13.841,13.926c-20.6,9.332-58.011,13.04-69.043,12.648
	c-11.075-0.393-56.387-13.023-38.169-24.297c28.438-17.597,51.889-50.093,65.103-78.115c4.753-10.08,8.19-19.577,10.051-27.605
	c0.786-3.376,1.428-6.488,1.891-9.266c0.498-3.06,0.782-5.71,0.811-7.833c0.043-3.451-0.011-7.002-0.132-10.556
	c-0.526-16.005-2.28-32.016-1.703-38.825l0.012-0.058c0.066-0.865,0.184-1.578,0.348-2.123c0.027-0.076,0.046-0.151,0.067-0.202
	c-6.587,2.691-80.747,39.276-104.923,73.129c-30.515,49.728-44.531,86.894-49.853,97.246c-0.043,0.085-0.13,0.116-0.223,0.082
	c-14.052-5.085-35.781-13.67-39.205-18.899c-0.028-0.039-0.038-0.071-0.033-0.112c0.767-22.114,33.329-70.661,50.855-103.956
	c16.43-31.214,106.7-98.579,151.589-127.324c29.809-19.084,92.076-33.38,92.076-33.38
	C2306.812,902.977,2306.803,903.084,2306.796,903.199z"/>
<path style="opacity:0.28;fill:#1F1F39;" d="M2206.463,1016.286l-0.405,2.827l-0.004,0.025c-0.42,7.147,1.245,22.649,1.754,38.157
	c0.11,3.553,0.168,7.107,0.132,10.559c-0.047,4.041-1.05,9.988-2.705,17.095c-1.372,5.904-1.45,12.798-3.222,19.783
	c0.954-1.016,0.418-2.448,1.427-3.797c5.411-7.252,29.086-79.478,29.499-95.126
	C2232.939,1005.808,2215.212,1010.233,2206.463,1016.286z"/>
<g>
	<path style="opacity:0.18;fill:#1F1F39;" d="M2332.77,930.018c-1.412-1.133-19.054,27.177-40.285,35.181
		c-5.863,2.216-12.081,3.562-18.417,3.373c-18.55-0.557-60.577-11.165-83.521-16.11c8.107-6.208,13.899-10.529,24.188-16.21
		c16.362,6.772,49.173,13.742,58.909,13.518c7.216-0.165,14.144-1.591,20.638-3.764c12.217-4.076,22.893-10.802,31.051-16.74
		c4.157-3.03,5.174-8.106,9.834-7.887C2341.348,921.66,2334.586,931.467,2332.77,930.018z"/>
	<path style="fill:#F4AD00;" d="M2342.631,924.772c0.065-2.934-1.582-7.83-7.764-8.117c-4.656-0.216-5.198,1.638-9.357,4.67
		c-12.494,9.104-30.917,20.032-51.691,20.508c-20.773,0.477-65.42-30.579-96.441-26.573c-31.021,4.006-42.629,30.52-87.192,33.755
		c-44.563,3.235-90.245-19.389-103.406-18.273c-13.16,1.116-21.259,3.284-21.374,8.448c-0.115,5.164,5.615,14.216,14.415,18.639
		c8.8,4.423,88.595,16.753,110.03,15.72c34.995-1.686,67.413-30.358,89.872-30.426c22.459-0.068,68.271,16.723,94.525,17.507
		c29.278,0.875,55.903-31.031,57.714-29.581c1.811,1.45,3.484,2.848,7.302,2.228
		C2341.888,932.852,2342.566,927.706,2342.631,924.772z"/>
</g>
<path style="fill:#0267A4;" d="M2605.588,923.688c7.314-7.314,29.255,43.882,20.722,48.758
	c-12.788,7.307-80.807,74.289-120.677,75.575c-37.788,1.219-108.222-56.356-115.501-52.005c-8.56,5.117-13.145,37.389-17.996,69.557
	c-1.25,8.309-2.341,16.221-3.188,23.14c-1.175,9.63-1.865,17.324-1.824,21.457c0.154,18.58,2.18,115.946-16.74,108.329
	c-19.983-8.037-57.631,8.391-61.574-2.426c-1.052-2.877,7.189-15.322,13.633-28.191c14.102-28.188,29.385-66.904,38.668-99.922
	l0.008-0.001c1.232-4.417,2.186-8.609,2.768-12.51c0.443-2.925,0.872-5.709,1.287-8.361c6.21-39.453,9.92-51.199,12.487-100.215
	l1.084-52.598c0.415,0.067,0.83,0.142,1.253,0.217c50.306,9.259,106.578,60.393,135.884,68.924
	C2525.188,991.948,2598.274,931.002,2605.588,923.688z"/>
<g>
	<path style="fill:#1F1F39;" d="M2009.815,1632.27c-0.035-9.449-13.573-17.07-30.245-17.008
		c-16.672,0.062-30.153,7.783-30.118,17.233c0.035,9.449,13.573,17.07,30.245,17.008
		C1996.37,1649.441,2009.85,1641.72,2009.815,1632.27z M1962.717,1632.446c-0.02-5.295,7.54-9.627,16.881-9.662
		c9.341-0.035,16.919,4.241,16.939,9.536c0.02,5.295-7.527,9.614-16.868,9.648
		C1970.329,1642.003,1962.736,1637.741,1962.717,1632.446z"/>
	<path style="fill:#1F1F39;" d="M1943.867,1632.381c0.621-9.429-12.355-17.971-28.992-19.067
		c-16.637-1.095-30.62,5.672-31.241,15.101c-0.621,9.429,12.355,17.971,28.992,19.067
		C1929.262,1648.577,1943.246,1641.81,1943.867,1632.381z M1896.87,1629.286c0.348-5.284,8.19-9.081,17.511-8.467
		c9.321,0.614,16.584,5.405,16.236,10.689c-0.348,5.283-8.176,9.068-17.497,8.454
		C1903.8,1639.349,1896.522,1634.57,1896.87,1629.286z"/>
	<path style="fill:#1F1F39;" d="M1876.925,1628.175c0.585-9.432-12.424-17.924-29.065-18.955
		c-16.641-1.032-30.599,5.789-31.183,15.22c-0.585,9.432,12.424,17.924,29.065,18.955
		C1862.382,1644.427,1876.34,1637.607,1876.925,1628.175z M1829.916,1625.261c0.328-5.285,8.156-9.112,17.479-8.534
		c9.323,0.578,16.605,5.342,16.277,10.627c-0.328,5.285-8.141,9.099-17.464,8.521
		C1836.885,1635.297,1829.589,1630.546,1829.916,1625.261z"/>
	<path style="fill:#1F1F39;" d="M1809.911,1623.301c0.435-9.44-12.707-17.724-29.362-18.492
		c-16.655-0.768-30.503,6.273-30.938,15.713c-0.435,9.439,12.707,17.724,29.361,18.492
		C1795.628,1639.781,1809.476,1632.74,1809.911,1623.301z M1762.862,1621.132c0.244-5.29,8.01-9.24,17.341-8.81
		c9.331,0.43,16.687,5.078,16.444,10.367c-0.244,5.289-7.996,9.227-17.327,8.797
		C1769.989,1631.057,1762.619,1626.422,1762.862,1621.132z"/>
	<path style="fill:#1F1F39;" d="M1742.646,1624.64c0.159-9.448-13.22-17.345-29.89-17.625c-16.67-0.28-30.306,7.163-30.465,16.611
		c-0.159,9.448,13.22,17.345,29.89,17.625C1728.851,1641.531,1742.487,1634.088,1742.646,1624.64z M1695.553,1623.849
		c0.089-5.294,7.736-9.471,17.076-9.314c9.34,0.157,16.829,4.587,16.74,9.881c-0.089,5.294-7.722,9.457-17.062,9.3
		C1702.968,1633.561,1695.464,1629.143,1695.553,1623.849z"/>
	<path style="fill:#1F1F39;" d="M1677.863,1620.94c1.124-9.382-11.377-18.606-27.931-20.589c-16.554-1.983-30.88,4.027-32.004,13.41
		c-1.124,9.383,11.377,18.606,27.931,20.589C1662.413,1636.333,1676.739,1630.323,1677.863,1620.94z M1631.098,1615.339
		c0.63-5.258,8.664-8.63,17.939-7.519c9.275,1.111,16.272,6.284,15.642,11.541c-0.63,5.257-8.649,8.618-17.924,7.507
		C1637.481,1625.757,1630.469,1620.596,1631.098,1615.339z"/>
	<path style="fill:#1F1F39;" d="M1612.364,1610.57c0.23-9.447-13.088-17.445-29.756-17.851c-16.668-0.406-30.36,6.933-30.59,16.38
		s13.088,17.445,29.756,17.851C1598.442,1627.356,1612.134,1620.016,1612.364,1610.57z M1565.279,1609.422
		c0.129-5.293,7.808-9.412,17.146-9.184c9.338,0.228,16.794,4.714,16.665,10.008c-0.129,5.293-7.794,9.398-17.132,9.171
		C1572.619,1619.19,1565.15,1614.716,1565.279,1609.422z"/>
	<path style="fill:#1F1F39;" d="M1921.848,1634.407v-5.36c0-1.354,1.098-2.452,2.452-2.452h44.189c1.354,0,2.452,1.098,2.452,2.452
		v5.36c0,1.354-1.098,2.452-2.452,2.452H1924.3C1922.946,1636.86,1921.848,1635.762,1921.848,1634.407z"/>
	<path style="fill:#1F1F39;" d="M1989.937,1633.805l-1.198-5.224c-0.303-1.32,0.522-2.636,1.842-2.938l43.071-9.879
		c1.32-0.303,2.636,0.522,2.938,1.842l1.198,5.224c0.303,1.32-0.522,2.636-1.842,2.938l-43.071,9.879
		C1991.555,1635.949,1990.239,1635.125,1989.937,1633.805z"/>
	<path style="fill:#1F1F39;" d="M1855.17,1629.402l0.271-5.353c0.069-1.353,1.221-2.394,2.573-2.325l44.133,2.237
		c1.353,0.068,2.394,1.221,2.325,2.573l-0.271,5.353c-0.069,1.353-1.221,2.394-2.573,2.325l-44.133-2.237
		C1856.143,1631.907,1855.102,1630.755,1855.17,1629.402z"/>
	<path style="fill:#1F1F39;" d="M1788.052,1625.441l0.364-5.347c0.092-1.351,1.262-2.372,2.613-2.28l44.088,2.998
		c1.351,0.092,2.372,1.262,2.28,2.613l-0.364,5.347c-0.092,1.351-1.262,2.372-2.613,2.28l-44.088-2.998
		C1788.981,1627.962,1787.96,1626.792,1788.052,1625.441z"/>
	<path style="fill:#1F1F39;" d="M1721.402,1627.629l-0.312-5.351c-0.079-1.352,0.953-2.512,2.305-2.591l44.114-2.575
		c1.352-0.079,2.512,0.953,2.591,2.305l0.312,5.351c0.079,1.352-0.953,2.512-2.305,2.591l-44.114,2.574
		C1722.641,1630.013,1721.481,1628.981,1721.402,1627.629z"/>
	<path style="fill:#1F1F39;" d="M1655.099,1622.356l0.457-5.34c0.115-1.349,1.303-2.35,2.652-2.234l44.029,3.764
		c1.349,0.115,2.35,1.303,2.234,2.652l-0.456,5.34c-0.115,1.349-1.303,2.35-2.652,2.234l-44.029-3.764
		C1655.984,1624.893,1654.984,1623.705,1655.099,1622.356z"/>
	<path style="fill:#1F1F39;" d="M1539.823,1608.172c0.159-9.448-13.22-17.345-29.89-17.625c-16.67-0.28-30.306,7.163-30.465,16.611
		s13.22,17.345,29.89,17.625C1526.028,1625.064,1539.665,1617.62,1539.823,1608.172z M1492.731,1607.381
		c0.089-5.294,7.736-9.47,17.076-9.314s16.829,4.587,16.74,9.882c-0.089,5.294-7.722,9.457-17.062,9.3
		C1500.145,1617.093,1492.642,1612.676,1492.731,1607.381z"/>
	<path style="fill:#1F1F39;" d="M1475.041,1604.472c1.124-9.382-11.377-18.606-27.931-20.589
		c-16.554-1.983-30.88,4.027-32.004,13.41c-1.124,9.382,11.377,18.606,27.931,20.589
		C1459.591,1619.865,1473.917,1613.855,1475.041,1604.472z M1428.276,1598.871c0.63-5.258,8.664-8.63,17.939-7.519
		c9.275,1.111,16.272,6.284,15.642,11.541s-8.649,8.618-17.924,7.507S1427.646,1604.128,1428.276,1598.871z"/>
	<path style="fill:#1F1F39;" d="M1452.276,1605.888l0.457-5.34c0.115-1.349,1.303-2.35,2.652-2.234l44.029,3.764
		c1.349,0.115,2.35,1.303,2.234,2.652l-0.456,5.34c-0.115,1.349-1.303,2.35-2.652,2.234l-44.029-3.764
		C1453.162,1608.425,1452.161,1607.238,1452.276,1605.888z"/>
	<path style="fill:#1F1F39;" d="M1411.995,1597.653c1.124-9.383-11.377-18.606-27.931-20.589
		c-16.554-1.983-30.88,4.027-32.004,13.41c-1.124,9.383,11.377,18.606,27.931,20.589
		C1396.546,1613.046,1410.872,1607.036,1411.995,1597.653z M1365.231,1592.052c0.63-5.257,8.664-8.63,17.939-7.519
		c9.275,1.111,16.272,6.284,15.642,11.541c-0.63,5.257-8.649,8.618-17.924,7.507
		C1371.613,1602.47,1364.601,1597.309,1365.231,1592.052z"/>
	<path style="fill:#1F1F39;" d="M1389.231,1599.069l0.457-5.34c0.115-1.349,1.303-2.35,2.652-2.234l44.029,3.764
		c1.349,0.115,2.35,1.303,2.234,2.652l-0.457,5.34c-0.115,1.349-1.303,2.35-2.652,2.234l-44.029-3.764
		C1390.116,1601.606,1389.116,1600.419,1389.231,1599.069z"/>
	<path style="fill:#1F1F39;" d="M1590.521,1611.646l0.896-5.284c0.226-1.335,1.492-2.234,2.828-2.008l43.568,7.385
		c1.335,0.226,2.234,1.492,2.008,2.828l-0.896,5.284c-0.226,1.335-1.492,2.234-2.828,2.008l-43.568-7.385
		C1591.193,1614.248,1590.294,1612.982,1590.521,1611.646z"/>
	<path style="fill:#1F1F39;" d="M1516.376,1611.593l0.198-5.356c0.05-1.353,1.188-2.41,2.542-2.36l44.159,1.637
		c1.353,0.05,2.41,1.188,2.36,2.541l-0.198,5.356c-0.05,1.353-1.188,2.41-2.542,2.36l-44.159-1.637
		C1517.383,1614.084,1516.326,1612.946,1516.376,1611.593z"/>
</g>
<path style="fill:#1F1F39;" d="M2026.528,1623.224c1.551,5.098,37.02,44.072,40.661,42.201c3.641-1.871,11.294-5.86,14.054-9.359
	c2.759-3.499,1.424-8.11-0.232-8.825c-13.508-5.829-34.183-38.435-39.04-38.246
	C2037.113,1609.185,2025.288,1619.149,2026.528,1623.224z"/>
<g>
	<path style="fill:#DBDBDB;" d="M853,1211.669c4.189-0.037-2.627,17.551-6.821,16.891c-11.055-1.742-183.568-19.701-203.427-30.306
		c-7.716-4.12-7.198-24.371-2.293-22.32S811.719,1212.036,853,1211.669z"/>
	<g>
		<path style="fill:#EFEFEF;" d="M639.9,1161.254c-3.964-1.353-2.98,15.212,1.21,15.904c11.042,1.825,193.915,39.234,216.27,36.57
			c4.708-0.561,10.89-21.915,5.588-21.512C857.667,1192.62,678.969,1174.591,639.9,1161.254z"/>
		
			<path style="fill:none;stroke:#C1C1C1;stroke-width:0.7348;stroke-linecap:round;stroke-linejoin:round;stroke-miterlimit:10;" d="
			M646.717,1169.62c17.655,3.35,157.366,35.922,203.092,35.733"/>
		
			<path style="fill:none;stroke:#C1C1C1;stroke-width:0.7348;stroke-linecap:round;stroke-linejoin:round;stroke-miterlimit:10;" d="
			M652.989,1168.232c3.321,0.672,155.432,34.193,183.009,34.322"/>
		
			<path style="fill:none;stroke:#C1C1C1;stroke-width:0.7348;stroke-linecap:round;stroke-linejoin:round;stroke-miterlimit:10;" d="
			M656.323,1170.474c0,0,155.785,34.713,184.749,33.61"/>
		
			<path style="fill:none;stroke:#C1C1C1;stroke-width:0.7348;stroke-linecap:round;stroke-linejoin:round;stroke-miterlimit:10;" d="
			M636.599,1184.827c17.654,3.35,157.366,35.922,203.092,35.733"/>
		
			<path style="fill:none;stroke:#C1C1C1;stroke-width:0.7348;stroke-linecap:round;stroke-linejoin:round;stroke-miterlimit:10;" d="
			M642.871,1183.439c3.321,0.672,155.432,34.193,183.009,34.322"/>
		
			<path style="fill:none;stroke:#C1C1C1;stroke-width:0.7348;stroke-linecap:round;stroke-linejoin:round;stroke-miterlimit:10;" d="
			M646.205,1185.681c0,0,155.785,34.713,184.749,33.61"/>
	</g>
	<g>
		<path style="fill:#EFEFEF;" d="M860.015,1171.994c0,0,0.809,18.922-4.033,19.58c-10.926,1.483-218.02-25.491-223.632-28.937
			c-5.613-3.446,5.44-18.195,5.44-18.195S833.521,1176.394,860.015,1171.994z"/>
		
			<path style="fill:none;stroke:#E5E5E5;stroke-width:0.7348;stroke-linecap:round;stroke-linejoin:round;stroke-miterlimit:10;" d="
			M638.934,1156.65c5.601,2.05,191.166,28.497,210.36,27.995"/>
		
			<path style="fill:none;stroke:#E5E5E5;stroke-width:0.7348;stroke-linecap:round;stroke-linejoin:round;stroke-miterlimit:10;" d="
			M641.509,1151.219c2.799,0.85,123.633,22.636,157.683,24.633"/>
		
			<path style="fill:none;stroke:#E5E5E5;stroke-width:0.7348;stroke-linecap:round;stroke-linejoin:round;stroke-miterlimit:10;" d="
			M659.835,1151.248c4.723,1.359,158.868,27.358,184.696,26.978"/>
	</g>
	<g>
		<path style="fill:#E5E5E5;" d="M645.34,1129.516c-4.024-1.163-6.537,15.881-2.319,16.374
			c11.116,1.298,197.721,36.51,217.763,26.256c4.273-2.186,9.773-22.628,4.56-21.753
			C860.101,1151.271,684.999,1140.981,645.34,1129.516z"/>
		
			<path style="fill:none;stroke:#C1C1C1;stroke-width:0.7348;stroke-linecap:round;stroke-linejoin:round;stroke-miterlimit:10;" d="
			M666.277,1141.404c17.794,2.508,140.881,25.096,186.547,22.734"/>
		
			<path style="fill:none;stroke:#C1C1C1;stroke-width:0.7348;stroke-linecap:round;stroke-linejoin:round;stroke-miterlimit:10;" d="
			M654.463,1136.408c3.35,0.513,161.85,22.882,189.403,21.702"/>
		
			<path style="fill:none;stroke:#C1C1C1;stroke-width:0.7348;stroke-linecap:round;stroke-linejoin:round;stroke-miterlimit:10;" d="
			M657.899,1138.49c0,0,159.256,23.376,188.134,20.898"/>
	</g>
	<g>
		<path style="fill:#DFE6ED;" d="M646.042,1114.857c-4.055-1.051-6.092,16.057-1.862,16.432
			c11.148,0.989,196.318,24.527,218.409,20.188c4.652-0.914,9.209-22.673,3.953-21.872
			C861.286,1130.406,686.004,1125.215,646.042,1114.857z"/>
		
			<path style="fill:none;stroke:#C1C1C1;stroke-width:0.7348;stroke-linecap:round;stroke-linejoin:round;stroke-miterlimit:10;" d="
			M667.301,1126.159c17.857,2.012,141.525,21.167,187.107,17.536"/>
		
			<path style="fill:none;stroke:#C1C1C1;stroke-width:0.7348;stroke-linecap:round;stroke-linejoin:round;stroke-miterlimit:10;" d="
			M655.352,1121.494c3.363,0.42,162.424,18.371,189.933,16.424"/>
		
			<path style="fill:none;stroke:#C1C1C1;stroke-width:0.7348;stroke-linecap:round;stroke-linejoin:round;stroke-miterlimit:10;" d="
			M658.846,1123.479c0,0,159.844,18.937,188.643,15.656"/>
	</g>
	<g>
		<path style="fill:#FFFFFF;" d="M639.714,1099.063c-4.076-0.965-5.709,15.798-1.516,16.467
			c17.235,2.749,196.792,20.382,218.786,15.578c4.632-1.012,8.729-22.862,3.491-21.95
			C855.238,1110.07,679.886,1108.576,639.714,1099.063z"/>
		
			<path style="fill:none;stroke:#E5E5E5;stroke-width:0.7348;stroke-linecap:round;stroke-linejoin:round;stroke-miterlimit:10;" d="
			M661.207,1109.914c17.895,1.635,141.94,18.178,187.435,13.586"/>
		
			<path style="fill:none;stroke:#E5E5E5;stroke-width:0.7348;stroke-linecap:round;stroke-linejoin:round;stroke-miterlimit:10;" d="
			M649.162,1105.502c3.371,0.349,162.776,14.942,190.237,12.415"/>
		
			<path style="fill:none;stroke:#E5E5E5;stroke-width:0.7348;stroke-linecap:round;stroke-linejoin:round;stroke-miterlimit:10;" d="
			M652.697,1107.413c0,0,160.208,15.562,188.931,11.675"/>
	</g>
	<g>
		<g>
			<path style="fill:#FFFFFF;" d="M860.517,1068.202c0,0,2.863,17.874-1.57,19.929c-10.557,4.893-202.793,4.441-218.55-3.46
				c-5.887-2.952-3.806-16.211-3.806-16.211S834.775,1075.858,860.517,1068.202z"/>
			
				<path style="fill:none;stroke:#E5E5E5;stroke-width:0.7348;stroke-linecap:round;stroke-linejoin:round;stroke-miterlimit:10;" d="
				M639.242,1080.431c5.813,1.338,193.225,4.537,212.209,1.656"/>
			
				<path style="fill:none;stroke:#E5E5E5;stroke-width:0.7348;stroke-linecap:round;stroke-linejoin:round;stroke-miterlimit:10;" d="
				M641.123,1074.723c2.883,0.496,125.487,7.107,159.521,4.861"/>
			
				<path style="fill:none;stroke:#E5E5E5;stroke-width:0.7348;stroke-linecap:round;stroke-linejoin:round;stroke-miterlimit:10;" d="
				M659.311,1072.475c4.855,0.762,161.036,7.418,186.617,3.833"/>
		</g>
		<g>
			<path style="fill:#DBDBDB;" d="M640.773,1084.88c-4.101-0.85-0.997,14.845,3.176,15.631
				c15.506,2.918,197.286,14.849,219.137,9.43c4.602-1.141,8.084-23.098,2.874-22.039
				C860.749,1088.959,681.196,1093.261,640.773,1084.88z"/>
			
				<path style="fill:none;stroke:#C1C1C1;stroke-width:0.7348;stroke-linecap:round;stroke-linejoin:round;stroke-miterlimit:10;" d="
				M648.576,1092.334c17.934,1.132,160.608,16.102,205.957,10.235"/>
			
				<path style="fill:none;stroke:#C1C1C1;stroke-width:0.7348;stroke-linecap:round;stroke-linejoin:round;stroke-miterlimit:10;" d="
				M654.627,1090.178c3.379,0.254,158.475,14.626,185.855,11.329"/>
			
				<path style="fill:none;stroke:#C1C1C1;stroke-width:0.7348;stroke-linecap:round;stroke-linejoin:round;stroke-miterlimit:10;" d="
				M658.214,1091.989c0,0,158.89,15.099,187.492,10.407"/>
		</g>
		<g>
			<path style="fill:#E5E5E5;" d="M642.229,1052.711c-4.137-0.655-4.514,16.57-0.268,16.535
				c11.191-0.092,197.769,5.461,219.338-0.99c4.542-1.359,6.977-23.456,1.823-22.151
				C857.969,1047.409,683.005,1059.163,642.229,1052.711z"/>
			
				<path style="fill:none;stroke:#C1C1C1;stroke-width:0.7348;stroke-linecap:round;stroke-linejoin:round;stroke-miterlimit:10;" d="
				M664.48,1061.908c17.967,0.279,142.907,7.406,187.926-0.608"/>
			
				<path style="fill:none;stroke:#C1C1C1;stroke-width:0.7348;stroke-linecap:round;stroke-linejoin:round;stroke-miterlimit:10;" d="
				M652.137,1058.418c3.387,0.093,163.439,2.606,190.631-1.987"/>
			
				<path style="fill:none;stroke:#C1C1C1;stroke-width:0.7348;stroke-linecap:round;stroke-linejoin:round;stroke-miterlimit:10;" d="
				M655.806,1060.057c0,0,160.926,3.418,189.273-2.627"/>
		</g>
		<g>
			<path style="fill:#DFE6ED;" d="M641.587,1037.514c-4.154-0.539-4.015,15.96,0.193,16.536
				c17.474,2.392,197.844-0.042,219.225-7.091c4.503-1.484,6.322-23.641,1.207-22.193
				C857.096,1026.213,682.526,1042.829,641.587,1037.514z"/>
			
				<path style="fill:none;stroke:#C1C1C1;stroke-width:0.7348;stroke-linecap:round;stroke-linejoin:round;stroke-miterlimit:10;" d="
				M663.603,1046.653c17.968-0.221,143.058,3.428,187.836-5.835"/>
			
				<path style="fill:none;stroke:#E5E5E5;stroke-width:0.7348;stroke-linecap:round;stroke-linejoin:round;stroke-miterlimit:10;" d="
				M651.168,1043.508c3.389-0.001,163.448-1.942,190.502-7.29"/>
			
				<path style="fill:none;stroke:#C1C1C1;stroke-width:0.7348;stroke-linecap:round;stroke-linejoin:round;stroke-miterlimit:10;" d="
				M654.881,1045.044c0,0,160.959-1.06,189.127-7.891"/>
		</g>
		<g>
			<path style="fill:#FFFFFF;" d="M632.865,1023.193c-4.164-0.452-3.698,16.771,0.541,16.528
				c11.173-0.639,197.799-4.214,219.027-11.713c4.471-1.579,5.822-23.769,0.738-22.214
				C848.087,1007.35,673.907,1027.644,632.865,1023.193z"/>
			
				<path style="fill:none;stroke:#E5E5E5;stroke-width:0.7348;stroke-linecap:round;stroke-linejoin:round;stroke-miterlimit:10;" d="
				M655.539,1031.291c17.96-0.6,143.098,0.41,187.671-9.795"/>
			
				<path style="fill:none;stroke:#E5E5E5;stroke-width:0.7348;stroke-linecap:round;stroke-linejoin:round;stroke-miterlimit:10;" d="
				M643.04,1028.409c3.388-0.073,163.371-5.388,190.306-11.305"/>
			
				<path style="fill:none;stroke:#E5E5E5;stroke-width:0.7348;stroke-linecap:round;stroke-linejoin:round;stroke-miterlimit:10;" d="
				M646.784,1029.866c0,0,160.901-4.454,188.919-11.878"/>
		</g>
	</g>
	<g>
		<g>
			<path style="fill:#DFE6ED;" d="M641.666,979.727c0,0-2.908,18.869,1.869,19.903c15.119,3.274,198.37,2.968,220.316-6.612
				c6.036-2.635,1.721-16.388,1.721-16.388S667.521,986.997,641.666,979.727z"/>
			
				<path style="fill:none;stroke:#C1C1C1;stroke-width:0.7348;stroke-linecap:round;stroke-linejoin:round;stroke-miterlimit:10;" d="
				M863.1,988.641c-5.792,1.425-193.135,7.431-212.16,4.834"/>
			
				<path style="fill:none;stroke:#C1C1C1;stroke-width:0.7348;stroke-linecap:round;stroke-linejoin:round;stroke-miterlimit:10;" d="
				M861.134,982.961c-2.875,0.539-125.366,8.986-159.431,7.25"/>
			
				<path style="fill:none;stroke:#C1C1C1;stroke-width:0.7348;stroke-linecap:round;stroke-linejoin:round;stroke-miterlimit:10;" d="
				M842.914,980.986c-4.843,0.834-160.907,9.829-186.538,6.628"/>
		</g>
		<g>
			<path style="fill:#FFFFFF;" d="M864.442,931.702c4.157-0.514,0.945,14.657-3.212,15.525c-23.8,4.97-190.745-0.631-212.083-7.811
				c-4.494-1.512-6.178-23.679-1.071-22.2C653.184,918.696,823.471,936.767,864.442,931.702z"/>
			
				<path style="fill:none;stroke:#E5E5E5;stroke-width:0.7348;stroke-linecap:round;stroke-linejoin:round;stroke-miterlimit:10;" d="
				M846.069,939.75c-17.966-0.331-143.076,2.554-187.797-6.983"/>
			
				<path style="fill:none;stroke:#E5E5E5;stroke-width:0.7348;stroke-linecap:round;stroke-linejoin:round;stroke-miterlimit:10;" d="
				M858.523,936.681c-3.389-0.022-163.433-2.94-190.454-8.453"/>
			
				<path style="fill:none;stroke:#E5E5E5;stroke-width:0.7348;stroke-linecap:round;stroke-linejoin:round;stroke-miterlimit:10;" d="
				M854.801,938.194c0,0-160.949-2.043-189.075-9.046"/>
		</g>
		<g>
			<path style="fill:#EFEFEF;" d="M861.636,993.112c4.088-0.912,1.299,15.446-2.941,15.676
				c-11.175,0.607-198.192,19.963-220.122,14.871c-4.618-1.072-7.279-25.134-2.053-24.154
				C641.746,1000.486,821.343,1002.098,861.636,993.112z"/>
			
				<path style="fill:none;stroke:#E5E5E5;stroke-width:0.7348;stroke-linecap:round;stroke-linejoin:round;stroke-miterlimit:10;" d="
				M853.946,1000.682c-17.915,1.4-160.349,18.506-205.781,13.32"/>
			
				<path style="fill:none;stroke:#E5E5E5;stroke-width:0.7348;stroke-linecap:round;stroke-linejoin:round;stroke-miterlimit:10;" d="
				M847.863,998.617c-3.375,0.305-158.238,16.998-185.664,14.112"/>
			
				<path style="fill:none;stroke:#E5E5E5;stroke-width:0.7348;stroke-linecap:round;stroke-linejoin:round;stroke-miterlimit:10;" d="
				M844.304,1000.481c0,0-158.646,17.477-187.316,13.215"/>
		</g>
		<g>
			<path style="fill:#E5E5E5;" d="M859.698,960.968c4.127-0.716,4.762,16.5,0.515,16.529c-11.191,0.076-197.665,8.423-219.328,2.296
				c-4.562-1.291-7.328-23.349-2.155-22.121C643.903,958.899,819.024,968.03,859.698,960.968z"/>
			
				<path style="fill:none;stroke:#C1C1C1;stroke-width:0.7348;stroke-linecap:round;stroke-linejoin:round;stroke-miterlimit:10;" d="
				M837.587,970.497c-17.961,0.548-142.78,9.546-187.914,2.207"/>
			
				<path style="fill:none;stroke:#C1C1C1;stroke-width:0.7348;stroke-linecap:round;stroke-linejoin:round;stroke-miterlimit:10;" d="
				M849.877,966.823c-3.386,0.144-163.382,5.054-190.64,0.869"/>
			
				<path style="fill:none;stroke:#C1C1C1;stroke-width:0.7348;stroke-linecap:round;stroke-linejoin:round;stroke-miterlimit:10;" d="
				M846.233,968.516c0,0-160.857,5.828-189.291,0.209"/>
		</g>
		<g>
			<path style="fill:#DBDBDB;" d="M860.603,946.321c4.145-0.601,4.301,16.626,0.055,16.537
				c-11.189-0.236-197.823,2.922-219.307-3.807c-4.525-1.417-6.676-23.544-1.539-22.173
				C644.949,938.249,819.748,952.249,860.603,946.321z"/>
			
				<path style="fill:none;stroke:#C1C1C1;stroke-width:0.7348;stroke-linecap:round;stroke-linejoin:round;stroke-miterlimit:10;" d="
				M838.236,955.231c-17.969,0.048-142.99,5.57-187.902-3.021"/>
			
				<path style="fill:none;stroke:#C1C1C1;stroke-width:0.7348;stroke-linecap:round;stroke-linejoin:round;stroke-miterlimit:10;" d="
				M850.622,951.9c-3.388,0.05-163.459,0.507-190.59-4.435"/>
			
				<path style="fill:none;stroke:#C1C1C1;stroke-width:0.7348;stroke-linecap:round;stroke-linejoin:round;stroke-miterlimit:10;" d="
				M846.933,953.491c0,0-160.957,1.351-189.224-5.057"/>
		</g>
	</g>
	<path style="fill:#FFFFFF;" d="M819.933,1048.046c-2.391,6.651-3.315,22.017-7.515,20.655c-4.2-1.363-67.15-16.22-62.615-16.606
		C754.337,1051.71,819.933,1048.046,819.933,1048.046z"/>
	<path style="fill:#FFFFFF;" d="M718.182,1179.187c0.525,7.048-1.829,19.082,2.582,18.892s69.429-6.637,65.162-8.221
		C781.66,1188.274,718.182,1179.187,718.182,1179.187z"/>
	<path style="fill:#FFFFFF;" d="M765.436,998.912c-2.776,2.117-66.539,16.587-67.963,13.108c-1.424-3.479-8.136-13.549-8.136-13.549
		L765.436,998.912z"/>
	<path style="fill:#FFFFFF;" d="M662.061,1121.75c-1.427,1.934-8.675,12.239-7.975,18.253c0.683,5.864,7.009,12.482,8.445,10.415
		c11.64-16.743,68.203-3.198,75.46-4.772c2.926-0.635,14.458-15.38,13.012-15.849C742.394,1127,662.061,1121.75,662.061,1121.75z"/>
	<path style="fill:#FFFFFF;" d="M727.06,957.679c0.827,1.46,18.98,9.802,28.794,14.125c3.881,1.709,5.283,8.433,7.242,8.906
		c4.289,1.036,64.829-2.908,66.587-3.51c0.488-0.167-3.489-8.284-6.933-11.028c-2.701-2.151-21.753-9.606-21.753-9.606
		L727.06,957.679z"/>
	<path style="fill:#FFFFFF;" d="M783.017,1146.427c5.989,6.934,17.591,17.313,25.979,18.643
		c8.388,1.329,29.197-15.591,29.197-15.591L783.017,1146.427z"/>
</g>
<g>
	<path style="fill:#FFFFFF;" d="M1901.685,650.93c-50.946,9.387-70.9-10.381-102.999-51.042
		c-22.61,22.105-75.764,51.529-97.597,75.199c15.1,14.087,25.49,19.894,43.309,30.332c17.818,10.438,38.665,16.935,59.135,14.208
		c20.929-2.789,39.438-14.798,55.991-27.906C1875.156,679.341,1889.782,665.691,1901.685,650.93z"/>
	<path style="fill:#EFEFEF;" d="M1848.655,700.391c18.222-17.036,12.342-32.528,16.081-57.192c1.305-8.603,1.691-17.64,5.863-25.276
		c4.807-8.799,31.967-22.086,40.196-27.814c15.9-11.067,30.197-24.433,42.308-39.554c-1.812,30.964-16.335,60.096-35.667,84.351
		C1898.105,659.162,1874.061,679.163,1848.655,700.391z"/>
</g>
<path style="fill:#252535;" d="M766.351,903.801c14.62-5.23,365.962-10.354,368.719,7.396c4.538,29.217,6.892,235.926-5.514,237.405
	s-365.273-0.74-364.56-17.183C766.014,1107.94,749.811,909.718,766.351,903.801z"/>
<path style="fill:#73737F;" d="M765.662,908.978c14.62-5.23,359.759-8.875,362.516,8.875c4.538,29.217,8.27,229.27-4.135,230.749
	s-366.651,5.917-365.938-10.527C759.122,1114.596,749.121,914.895,765.662,908.978z"/>
<ellipse style="fill:#252535;" cx="939.048" cy="1129.373" rx="12.026" ry="11.759"/>
<path style="fill:#252535;" d="M987.452,1050.977c-7.096-2.08-78.127-5.46-87.475-0.99c-0.614,0.3-0.967,0.623-1.012,0.99
	c-1.217,9.541-11.349,165.668-3.787,167.146c6.448,1.257,70.542,4.671,88.897,2.447c3.196-0.389,5.004-0.945,4.89-1.713
	C988.214,1213.687,995.014,1053.201,987.452,1050.977z M953.983,1151.381c-0.682,8.64-7.381,15.524-16.262,15.524
	c-8.87,0-15.989-7.039-16.069-15.713c-0.193-22.563,7.574-29.58,16.456-29.58C946.978,1121.612,955.882,1127.528,953.983,1151.381z"
	/>
<path style="fill:#444454;" d="M982.914,1052.089c-6.391-1.879-64.537-4.804-82.938-2.102c-3.4,0.489-5.436,1.179-5.55,2.102
	c-1.228,9.541-11.35,165.668-3.787,167.147c7.244,1.412,87.475,5.549,93.434,1.334c0.262-0.189,0.387-0.389,0.353-0.601
	C983.676,1214.799,990.477,1054.302,982.914,1052.089z M938.107,1121.612c8.87,0,17.775,5.916,15.876,29.769
	c-0.682,8.64-7.381,15.524-16.262,15.524c-8.87,0-15.989-7.039-16.069-15.713C921.458,1128.629,929.226,1121.612,938.107,1121.612z"
	/>
<path style="fill:none;stroke:#272735;stroke-width:6.3438;stroke-linecap:round;stroke-linejoin:round;stroke-miterlimit:10;" d="
	M939.048,1129.373c-0.723,28.965-5.997,67.992-57.682,66.937"/>
<path style="fill:#FFFFFF;" d="M311.783,1456.604c-6.705,17.285-8.375,43.682-11.8,61.782c0.185-0.508,0.371-1.016,0.556-1.525
	c18.551,5.59,37.445,10.265,56.528,13.986c-2.341-0.409-4.683-0.818-7.025-1.227c59.709,13.26,123.943,5.699,171.93-20.237
	c-13.196-19.234-29.811-47.082-43.007-66.317C434.348,1472.418,366.123,1478.261,311.783,1456.604z"/>
<path style="fill:#FFFFFF;" d="M856.507,498.435c5.573,17.682,20.772,39.33,29.415,55.597c-0.173-0.513-0.346-1.025-0.519-1.538
	c17.974-7.234,35.643-15.397,52.863-24.423c-2.083,1.145-4.167,2.289-6.25,3.434c54.892-26.979,100.299-73.037,121.538-123.28
	c-22.324-6.763-52.702-18.111-75.025-24.873C962.054,434.154,912.458,481.367,856.507,498.435z"/>
<g>
	<path style="fill:#DBDBDB;" d="M706.265,1262.215c4.188-0.037-2.627,17.551-6.822,16.891
		c-11.055-1.742-183.568-19.701-203.427-30.305c-7.716-4.12-7.198-24.371-2.293-22.32
		C498.628,1228.531,664.984,1262.582,706.265,1262.215z"/>
	<g>
		<path style="fill:#EFEFEF;" d="M493.165,1211.801c-3.964-1.353-2.979,15.211,1.21,15.904
			c11.042,1.825,193.915,39.234,216.27,36.57c4.708-0.561,10.89-21.915,5.588-21.512
			C710.932,1243.166,532.234,1225.137,493.165,1211.801z"/>
		
			<path style="fill:none;stroke:#C1C1C1;stroke-width:0.7348;stroke-linecap:round;stroke-linejoin:round;stroke-miterlimit:10;" d="
			M499.981,1220.166c17.654,3.35,157.366,35.922,203.092,35.733"/>
		
			<path style="fill:none;stroke:#C1C1C1;stroke-width:0.7348;stroke-linecap:round;stroke-linejoin:round;stroke-miterlimit:10;" d="
			M506.254,1218.778c3.321,0.672,155.432,34.193,183.009,34.322"/>
		
			<path style="fill:none;stroke:#C1C1C1;stroke-width:0.7348;stroke-linecap:round;stroke-linejoin:round;stroke-miterlimit:10;" d="
			M509.588,1221.021c0,0,155.785,34.713,184.749,33.61"/>
		
			<path style="fill:none;stroke:#C1C1C1;stroke-width:0.7348;stroke-linecap:round;stroke-linejoin:round;stroke-miterlimit:10;" d="
			M489.863,1235.373c17.655,3.35,157.365,35.922,203.092,35.733"/>
		
			<path style="fill:none;stroke:#C1C1C1;stroke-width:0.7348;stroke-linecap:round;stroke-linejoin:round;stroke-miterlimit:10;" d="
			M496.135,1233.985c3.322,0.672,155.432,34.193,183.009,34.322"/>
		
			<path style="fill:none;stroke:#C1C1C1;stroke-width:0.7348;stroke-linecap:round;stroke-linejoin:round;stroke-miterlimit:10;" d="
			M499.469,1236.227c0,0,155.785,34.713,184.749,33.61"/>
	</g>
	<g>
		<path style="fill:#EFEFEF;" d="M713.279,1222.54c0,0,0.81,18.922-4.033,19.58c-10.926,1.483-218.02-25.491-223.632-28.937
			c-5.613-3.446,5.44-18.195,5.44-18.195S686.785,1226.94,713.279,1222.54z"/>
		
			<path style="fill:none;stroke:#E5E5E5;stroke-width:0.7348;stroke-linecap:round;stroke-linejoin:round;stroke-miterlimit:10;" d="
			M492.199,1207.197c5.601,2.05,191.166,28.497,210.36,27.996"/>
		
			<path style="fill:none;stroke:#E5E5E5;stroke-width:0.7348;stroke-linecap:round;stroke-linejoin:round;stroke-miterlimit:10;" d="
			M494.773,1201.766c2.799,0.85,123.633,22.636,157.683,24.633"/>
		
			<path style="fill:none;stroke:#E5E5E5;stroke-width:0.7348;stroke-linecap:round;stroke-linejoin:round;stroke-miterlimit:10;" d="
			M513.1,1201.794c4.723,1.359,158.868,27.358,184.696,26.978"/>
	</g>
	<g>
		<path style="fill:#E5E5E5;" d="M498.604,1180.062c-4.024-1.163-6.537,15.881-2.319,16.374
			c11.116,1.298,197.721,36.51,217.763,26.256c4.272-2.186,9.773-22.628,4.56-21.753
			C713.365,1201.818,538.263,1191.527,498.604,1180.062z"/>
		
			<path style="fill:none;stroke:#C1C1C1;stroke-width:0.7348;stroke-linecap:round;stroke-linejoin:round;stroke-miterlimit:10;" d="
			M519.541,1191.95c17.794,2.508,140.881,25.096,186.547,22.734"/>
		
			<path style="fill:none;stroke:#C1C1C1;stroke-width:0.7348;stroke-linecap:round;stroke-linejoin:round;stroke-miterlimit:10;" d="
			M507.727,1186.955c3.35,0.513,161.85,22.882,189.403,21.701"/>
		
			<path style="fill:none;stroke:#C1C1C1;stroke-width:0.7348;stroke-linecap:round;stroke-linejoin:round;stroke-miterlimit:10;" d="
			M511.164,1189.036c0,0,159.256,23.376,188.134,20.898"/>
	</g>
	<g>
		<path style="fill:#DFE6ED;" d="M499.306,1165.403c-4.055-1.051-6.092,16.057-1.862,16.432
			c11.148,0.989,196.318,24.527,218.409,20.188c4.652-0.914,9.209-22.673,3.953-21.872
			C714.55,1180.952,539.269,1175.761,499.306,1165.403z"/>
		
			<path style="fill:none;stroke:#C1C1C1;stroke-width:0.7348;stroke-linecap:round;stroke-linejoin:round;stroke-miterlimit:10;" d="
			M520.565,1176.705c17.857,2.012,141.525,21.167,187.107,17.536"/>
		
			<path style="fill:none;stroke:#C1C1C1;stroke-width:0.7348;stroke-linecap:round;stroke-linejoin:round;stroke-miterlimit:10;" d="
			M508.617,1172.04c3.363,0.42,162.424,18.371,189.933,16.424"/>
		
			<path style="fill:none;stroke:#C1C1C1;stroke-width:0.7348;stroke-linecap:round;stroke-linejoin:round;stroke-miterlimit:10;" d="
			M512.11,1174.025c0,0,159.844,18.937,188.643,15.656"/>
	</g>
	<g>
		<path style="fill:#FFFFFF;" d="M492.978,1149.609c-4.076-0.965-5.709,15.799-1.516,16.467
			c17.235,2.749,196.792,20.382,218.786,15.577c4.632-1.012,8.729-22.862,3.491-21.95
			C708.502,1160.616,533.15,1159.122,492.978,1149.609z"/>
		
			<path style="fill:none;stroke:#E5E5E5;stroke-width:0.7348;stroke-linecap:round;stroke-linejoin:round;stroke-miterlimit:10;" d="
			M514.471,1160.46c17.895,1.635,141.94,18.178,187.435,13.587"/>
		
			<path style="fill:none;stroke:#E5E5E5;stroke-width:0.7348;stroke-linecap:round;stroke-linejoin:round;stroke-miterlimit:10;" d="
			M502.427,1156.048c3.371,0.349,162.775,14.942,190.237,12.415"/>
		
			<path style="fill:none;stroke:#E5E5E5;stroke-width:0.7348;stroke-linecap:round;stroke-linejoin:round;stroke-miterlimit:10;" d="
			M505.961,1157.959c0,0,160.208,15.562,188.931,11.675"/>
	</g>
	<g>
		<g>
			<path style="fill:#FFFFFF;" d="M713.782,1118.748c0,0,2.864,17.874-1.57,19.929c-10.557,4.892-202.793,4.441-218.55-3.46
				c-5.887-2.952-3.806-16.211-3.806-16.211S688.039,1126.404,713.782,1118.748z"/>
			
				<path style="fill:none;stroke:#E5E5E5;stroke-width:0.7348;stroke-linecap:round;stroke-linejoin:round;stroke-miterlimit:10;" d="
				M492.507,1130.978c5.813,1.338,193.225,4.537,212.209,1.656"/>
			
				<path style="fill:none;stroke:#E5E5E5;stroke-width:0.7348;stroke-linecap:round;stroke-linejoin:round;stroke-miterlimit:10;" d="
				M494.387,1125.269c2.883,0.496,125.487,7.107,159.521,4.861"/>
			
				<path style="fill:none;stroke:#E5E5E5;stroke-width:0.7348;stroke-linecap:round;stroke-linejoin:round;stroke-miterlimit:10;" d="
				M512.575,1123.021c4.855,0.762,161.036,7.418,186.617,3.833"/>
		</g>
		<g>
			<path style="fill:#DBDBDB;" d="M494.037,1135.426c-4.101-0.85-0.997,14.845,3.176,15.63c15.506,2.918,197.286,14.85,219.137,9.43
				c4.602-1.141,8.084-23.098,2.874-22.04S534.461,1143.808,494.037,1135.426z"/>
			
				<path style="fill:none;stroke:#C1C1C1;stroke-width:0.7348;stroke-linecap:round;stroke-linejoin:round;stroke-miterlimit:10;" d="
				M501.84,1142.88c17.934,1.132,160.608,16.102,205.957,10.235"/>
			
				<path style="fill:none;stroke:#C1C1C1;stroke-width:0.7348;stroke-linecap:round;stroke-linejoin:round;stroke-miterlimit:10;" d="
				M507.891,1140.724c3.379,0.254,158.475,14.626,185.855,11.33"/>
			
				<path style="fill:none;stroke:#C1C1C1;stroke-width:0.7348;stroke-linecap:round;stroke-linejoin:round;stroke-miterlimit:10;" d="
				M511.478,1142.535c0,0,158.89,15.099,187.492,10.407"/>
		</g>
		<g>
			<path style="fill:#E5E5E5;" d="M495.494,1103.257c-4.137-0.655-4.514,16.57-0.268,16.535
				c11.191-0.092,197.769,5.461,219.338-0.99c4.542-1.359,6.977-23.456,1.823-22.151
				C711.233,1097.955,536.269,1109.709,495.494,1103.257z"/>
			
				<path style="fill:none;stroke:#C1C1C1;stroke-width:0.7348;stroke-linecap:round;stroke-linejoin:round;stroke-miterlimit:10;" d="
				M517.745,1112.454c17.967,0.279,142.907,7.406,187.926-0.608"/>
			
				<path style="fill:none;stroke:#C1C1C1;stroke-width:0.7348;stroke-linecap:round;stroke-linejoin:round;stroke-miterlimit:10;" d="
				M505.402,1108.964c3.388,0.093,163.439,2.606,190.631-1.987"/>
			
				<path style="fill:none;stroke:#C1C1C1;stroke-width:0.7348;stroke-linecap:round;stroke-linejoin:round;stroke-miterlimit:10;" d="
				M509.07,1110.603c0,0,160.926,3.418,189.273-2.627"/>
		</g>
		<g>
			<path style="fill:#DFE6ED;" d="M494.852,1088.06c-4.154-0.539-4.015,15.96,0.193,16.536
				c17.474,2.392,197.844-0.042,219.225-7.091c4.503-1.484,6.322-23.641,1.207-22.193
				C710.36,1076.759,535.791,1093.375,494.852,1088.06z"/>
			
				<path style="fill:none;stroke:#C1C1C1;stroke-width:0.7348;stroke-linecap:round;stroke-linejoin:round;stroke-miterlimit:10;" d="
				M516.868,1097.199c17.968-0.221,143.058,3.428,187.836-5.835"/>
			
				<path style="fill:none;stroke:#E5E5E5;stroke-width:0.7348;stroke-linecap:round;stroke-linejoin:round;stroke-miterlimit:10;" d="
				M504.432,1094.054c3.389-0.001,163.448-1.942,190.502-7.289"/>
			
				<path style="fill:none;stroke:#C1C1C1;stroke-width:0.7348;stroke-linecap:round;stroke-linejoin:round;stroke-miterlimit:10;" d="
				M508.145,1095.59c0,0,160.959-1.06,189.127-7.891"/>
		</g>
		<g>
			<path style="fill:#FFFFFF;" d="M486.129,1073.739c-4.164-0.452-3.698,16.771,0.541,16.528
				c11.173-0.639,197.799-4.214,219.027-11.713c4.471-1.579,5.822-23.769,0.738-22.214
				C701.352,1057.896,527.172,1078.19,486.129,1073.739z"/>
			
				<path style="fill:none;stroke:#E5E5E5;stroke-width:0.7348;stroke-linecap:round;stroke-linejoin:round;stroke-miterlimit:10;" d="
				M508.803,1081.837c17.959-0.6,143.098,0.41,187.671-9.795"/>
			
				<path style="fill:none;stroke:#E5E5E5;stroke-width:0.7348;stroke-linecap:round;stroke-linejoin:round;stroke-miterlimit:10;" d="
				M496.304,1078.955c3.388-0.073,163.371-5.388,190.306-11.305"/>
			
				<path style="fill:none;stroke:#E5E5E5;stroke-width:0.7348;stroke-linecap:round;stroke-linejoin:round;stroke-miterlimit:10;" d="
				M500.049,1080.412c0,0,160.901-4.454,188.918-11.878"/>
		</g>
	</g>
	<g>
		<g>
			<path style="fill:#DFE6ED;" d="M494.931,1030.273c0,0-2.908,18.869,1.869,19.903c15.119,3.274,198.37,2.968,220.316-6.612
				c6.036-2.635,1.721-16.388,1.721-16.388S520.785,1037.543,494.931,1030.273z"/>
			
				<path style="fill:none;stroke:#C1C1C1;stroke-width:0.7348;stroke-linecap:round;stroke-linejoin:round;stroke-miterlimit:10;" d="
				M716.364,1039.187c-5.792,1.425-193.135,7.431-212.16,4.834"/>
			
				<path style="fill:none;stroke:#C1C1C1;stroke-width:0.7348;stroke-linecap:round;stroke-linejoin:round;stroke-miterlimit:10;" d="
				M714.398,1033.507c-2.875,0.539-125.367,8.986-159.431,7.25"/>
			
				<path style="fill:none;stroke:#C1C1C1;stroke-width:0.7348;stroke-linecap:round;stroke-linejoin:round;stroke-miterlimit:10;" d="
				M696.179,1031.532c-4.843,0.834-160.907,9.829-186.538,6.628"/>
		</g>
		<g>
			<path style="fill:#FFFFFF;" d="M717.707,982.249c4.157-0.514,0.945,14.657-3.212,15.525c-23.8,4.97-190.745-0.631-212.083-7.811
				c-4.494-1.512-6.178-23.679-1.071-22.2C506.448,969.242,676.736,987.314,717.707,982.249z"/>
			
				<path style="fill:none;stroke:#E5E5E5;stroke-width:0.7348;stroke-linecap:round;stroke-linejoin:round;stroke-miterlimit:10;" d="
				M699.334,990.296c-17.966-0.331-143.076,2.554-187.797-6.983"/>
			
				<path style="fill:none;stroke:#E5E5E5;stroke-width:0.7348;stroke-linecap:round;stroke-linejoin:round;stroke-miterlimit:10;" d="
				M711.788,987.227c-3.389-0.022-163.433-2.94-190.454-8.453"/>
			
				<path style="fill:none;stroke:#E5E5E5;stroke-width:0.7348;stroke-linecap:round;stroke-linejoin:round;stroke-miterlimit:10;" d="
				M708.066,988.74c0,0-160.949-2.043-189.075-9.046"/>
		</g>
		<g>
			<path style="fill:#EFEFEF;" d="M714.901,1043.658c4.088-0.912,1.299,15.446-2.941,15.676
				c-11.175,0.607-198.192,19.963-220.122,14.871c-4.618-1.072-7.279-25.134-2.053-24.154
				C495.01,1051.032,674.608,1052.644,714.901,1043.658z"/>
			
				<path style="fill:none;stroke:#E5E5E5;stroke-width:0.7348;stroke-linecap:round;stroke-linejoin:round;stroke-miterlimit:10;" d="
				M707.21,1051.228c-17.915,1.4-160.349,18.506-205.781,13.32"/>
			
				<path style="fill:none;stroke:#E5E5E5;stroke-width:0.7348;stroke-linecap:round;stroke-linejoin:round;stroke-miterlimit:10;" d="
				M701.128,1049.163c-3.375,0.305-158.238,16.998-185.664,14.113"/>
			
				<path style="fill:none;stroke:#E5E5E5;stroke-width:0.7348;stroke-linecap:round;stroke-linejoin:round;stroke-miterlimit:10;" d="
				M697.568,1051.027c0,0-158.646,17.477-187.315,13.214"/>
		</g>
		<g>
			<path style="fill:#E5E5E5;" d="M712.963,1011.514c4.127-0.716,4.762,16.5,0.515,16.529
				c-11.191,0.076-197.665,8.423-219.328,2.296c-4.562-1.291-7.328-23.349-2.155-22.121
				C497.168,1009.445,672.288,1018.576,712.963,1011.514z"/>
			
				<path style="fill:none;stroke:#C1C1C1;stroke-width:0.7348;stroke-linecap:round;stroke-linejoin:round;stroke-miterlimit:10;" d="
				M690.852,1021.043c-17.961,0.548-142.78,9.546-187.914,2.207"/>
			
				<path style="fill:none;stroke:#C1C1C1;stroke-width:0.7348;stroke-linecap:round;stroke-linejoin:round;stroke-miterlimit:10;" d="
				M703.141,1017.369c-3.386,0.144-163.382,5.054-190.64,0.869"/>
			
				<path style="fill:none;stroke:#C1C1C1;stroke-width:0.7348;stroke-linecap:round;stroke-linejoin:round;stroke-miterlimit:10;" d="
				M699.498,1019.062c0,0-160.857,5.828-189.291,0.209"/>
		</g>
		<g>
			<path style="fill:#DBDBDB;" d="M713.867,996.867c4.145-0.601,4.301,16.626,0.055,16.537
				c-11.189-0.236-197.823,2.922-219.307-3.807c-4.525-1.417-6.676-23.544-1.539-22.173
				C498.214,988.796,673.012,1002.795,713.867,996.867z"/>
			
				<path style="fill:none;stroke:#C1C1C1;stroke-width:0.7348;stroke-linecap:round;stroke-linejoin:round;stroke-miterlimit:10;" d="
				M691.5,1005.777c-17.97,0.048-142.99,5.571-187.903-3.021"/>
			
				<path style="fill:none;stroke:#C1C1C1;stroke-width:0.7348;stroke-linecap:round;stroke-linejoin:round;stroke-miterlimit:10;" d="
				M703.887,1002.446c-3.388,0.05-163.459,0.507-190.59-4.435"/>
			
				<path style="fill:none;stroke:#C1C1C1;stroke-width:0.7348;stroke-linecap:round;stroke-linejoin:round;stroke-miterlimit:10;" d="
				M700.198,1004.037c0,0-160.957,1.351-189.224-5.057"/>
		</g>
	</g>
	<path style="fill:#FFFFFF;" d="M673.197,1098.592c-2.391,6.651-3.315,22.018-7.515,20.655c-4.2-1.363-67.15-16.221-62.615-16.606
		C607.602,1102.256,673.197,1098.592,673.197,1098.592z"/>
	<path style="fill:#FFFFFF;" d="M571.447,1229.733c0.525,7.048-1.83,19.082,2.582,18.892c4.411-0.19,69.429-6.637,65.162-8.221
		C634.924,1238.82,571.447,1229.733,571.447,1229.733z"/>
	<path style="fill:#FFFFFF;" d="M618.701,1049.459c-2.776,2.117-66.539,16.587-67.963,13.108
		c-1.424-3.479-8.136-13.549-8.136-13.549L618.701,1049.459z"/>
	<path style="fill:#FFFFFF;" d="M515.325,1172.297c-1.427,1.934-8.675,12.239-7.975,18.253c0.683,5.864,7.009,12.481,8.445,10.415
		c11.64-16.743,68.203-3.198,75.46-4.773c2.926-0.635,14.458-15.38,13.012-15.849
		C595.658,1177.546,515.325,1172.297,515.325,1172.297z"/>
	<path style="fill:#FFFFFF;" d="M580.324,1008.226c0.826,1.46,18.98,9.802,28.794,14.125c3.881,1.709,5.283,8.433,7.242,8.906
		c4.289,1.036,64.829-2.909,66.587-3.51c0.488-0.167-3.489-8.284-6.933-11.028c-2.701-2.151-21.753-9.606-21.753-9.606
		L580.324,1008.226z"/>
	<path style="fill:#FFFFFF;" d="M636.281,1196.974c5.989,6.934,17.591,17.313,25.979,18.643
		c8.388,1.329,29.197-15.591,29.197-15.591L636.281,1196.974z"/>
</g>
<path style="fill:#351F23;" d="M1371.142,1622.864c0,0,4.305-15.576,4.058-31.835c-0.125-16.26-4.786-31.734-4.786-31.734
	c-3.266-11.403-48.915-9.243-56.399,0.16c-15.82,19.876-69.295,25.696-69.295,25.696l0.084,7.372l0.084,7.372
	c0,0,50.653,1.859,66.924,21.367C1319.51,1630.49,1368.137,1634.339,1371.142,1622.864z"/>
<path style="fill:#683E3A;" d="M1135.565,1768.713c-5.053,0.421,1.071-457.208,1.981-528.827c0.06-5.021,0.129-8.392,0.208-9.832
	c0.3-5.536,0.878-9.668,1.585-12.746c2.153-9.422,5.475-8.966,5.475-8.966h177.801c0,7.374,11.975,9.785,16.946,18.001
	c1.192,1.978,1.982,4.284,2.107,7.069c0.143,3.184,0.245,14.221,0.319,31.028c0.467,110.606-0.253,476.631,1.724,490.208
	C1345.987,1770.297,1152.442,1767.306,1135.565,1768.713z"/>
<path style="opacity:0.42;fill:#1C1C2B;" d="M1341.54,1265.149c-26.073-5.16-102.219-6.566-197.535-9.769
	c-2.22-0.074-4.451-0.148-6.693-0.222c0.106-6.132,0.18-11.271,0.233-15.267c0.063-5.022,0.127-8.395,0.211-9.833
	c0.127-2.442,0.317-4.61,0.539-6.523l197.102,3.51c3.024,1.977,5.022,4.282,5.339,7.073
	C1341.096,1237.3,1341.36,1248.338,1341.54,1265.149z"/>
<path style="opacity:0.42;fill:#1C1C2B;" d="M1343.714,1754.644c2.273,15.658-191.276,12.666-208.151,14.073
	c-4.768,0.391-0.038-409.827,1.749-513.559c0.106-6.132,0.18-11.271,0.233-15.267c0.063-5.022,0.127-8.395,0.211-9.833
	c0.127-2.442,0.317-4.61,0.539-6.523c0.296-2.453,0.645-4.504,1.047-6.228c2.146-9.421,5.466-8.966,5.466-8.966h177.806
	c0,7.38,11.979,9.791,16.948,18.006c1.184,1.977,1.977,4.282,2.104,7.063c0.137,3.182,0.243,14.221,0.317,31.032
	C1342.449,1375.045,1341.737,1741.068,1343.714,1754.644z"/>
<path style="fill:#683E3A;" d="M1138.492,1768.368c-8.554,13.005-640.014-13.021-652.671-27.787
	c-12.475-14.554-14.374-425.586-4.572-510.91c0.011,0,0.011,0,0.011,0c0.952-8.363,2.157-13.682,3.658-15.278
	c0.285-0.317,0.581-0.486,0.899-0.507c16.113-1.237,529.78,9.628,635.531,18.086c14.316,1.142,22.489,2.379,22.658,3.722
	c0.095,0.772,0.18,3.775,0.233,8.723v0.042C1145.031,1311.713,1146.454,1756.251,1138.492,1768.368z"/>
<g>
	<g>
		<path style="fill:#419F81;" d="M1188.243,1172.333c21.744-29.384,50.541-65.975,34.086-58.846s-17.63,11.339-18.806,16.874
			c-1.175,5.535,21.744-29.726,13.517-46.181c-8.228-16.455-25.858-13.196-23.507,5.449c2.351,18.646-4.114-25.431-15.28-23.08
			c-11.166,2.351-32.323,24.637-14.104,38.47c18.218,13.834-22.332-6.148-21.744,5.606c0.588,11.754,19.394,17.63,20.569,22.92
			c1.175,5.289-20.177-5.877-16.847,2.351s20.961,35.849,20.373,36.436C1165.911,1172.921,1188.243,1172.333,1188.243,1172.333z"/>
		<path style="fill:#8C4E30;" d="M1181.547,1194.143c17.327-0.898,30.091-11.779,30.091-33.343
			c-17.35-6.196-57.622-7.104-64.195,1.735C1147.443,1177.199,1148.019,1195.88,1181.547,1194.143z"/>
		<path style="fill:#6D3522;" d="M1213.61,1165.966c-9.056-3.651-47.909-4.943-67.481,0c-4.379,1.106-3.732-7.011,0-7.887
			c17.203-4.04,63.099-1.753,67.481,0C1217.992,1159.831,1217.987,1167.731,1213.61,1165.966z"/>
	</g>
	<path style="opacity:0.25;fill:#1F1F39;" d="M1213.61,1165.965c-0.597-0.241-1.324-0.472-2.169-0.693
		c-0.558,6.26-2.565,11.503-5.226,16.016c-10.341-1.585-18.688-4.147-22.33-8.855c-0.796-1.023-1.354-2.139-1.644-3.351
		c-0.499-2.093-0.773-4.219-0.855-6.359c-0.089-2.196,0.026-4.404,0.307-6.607c0.007-0.086,0.02-0.175,0.033-0.261
		c2.13-16.231,12.943-32.036,16.726-38.92c4.21-7.65,4.411-26.654-2.896-39.174c4.678-7.069,15.537-5.474,21.48,6.418
		c4.642,9.284-0.631,24.561-5.9,35.113c2.605-1.743,6.194-3.638,11.189-5.804c13.576-5.884-3.645,17.994-22.299,43.03
		c7.059,0.439,12.249,1.023,13.583,1.558C1217.992,1159.83,1217.989,1167.731,1213.61,1165.965z"/>
</g>
<path style="opacity:0.42;fill:#1C1C2B;" d="M1144.946,1232.405l-0.708,12.011v0.042l-0.233,3.891
	c0,0-609.267-20.137-662.745-18.678c0.952-8.363,2.157-13.682,3.658-15.278c0.571-0.328,0.899-0.507,0.899-0.507l635.531,18.086
	L1144.946,1232.405z"/>
<path style="fill:#754942;" d="M452.068,1227.954c3.941,0.017,44.711-3.277,72.968-3.21c15.174,0.025,33.377,0.21,54.06,0.496
	c150.64,2.118,505.078,17.915,693.638,18.697c19.262,0.076,37.546,0.076,54.637-0.008c55.763-0.286,20.878-1.342,45.877-1.208
	c8.029,0.042,10.509-4.186,9.531-10.012c-0.027-0.185-0.067-0.37-0.107-0.563c-0.63-3.085-2.172-6.582-4.357-10.113
	c-6.541-10.558-18.739-21.369-28.712-22.202c-4.665-0.387-13.559-5.067-23.117-5.63c-31.192-1.841-15.938-3.048-135.975-3.208
	c-312.19-0.412-747.076-17.404-754.475-6.08C428.65,1196.236,418.316,1227.76,452.068,1227.954z"/>
<g>
	<path style="fill:#FFFFFF;" d="M460.238,814.463c51.583,9.505,71.787-10.511,104.288-51.681
		c22.893,22.382,76.712,52.174,98.818,76.14c-15.289,14.263-25.809,20.143-43.851,30.711
		c-18.041,10.568-39.149,17.147-59.874,14.385c-21.191-2.824-39.932-14.983-56.691-28.255
		C487.099,843.23,472.289,829.409,460.238,814.463z"/>
	<path style="fill:#EFEFEF;" d="M513.931,864.543c-18.45-17.249-12.496-32.935-16.283-57.907
		c-1.321-8.711-1.712-17.861-5.936-25.593c-4.867-8.909-32.367-22.362-40.699-28.162c-16.099-11.206-30.575-24.739-42.837-40.049
		c1.834,31.351,16.539,60.848,36.113,85.407C463.862,822.799,488.207,843.05,513.931,864.543z"/>
</g>
<g>
</g>
<g>
</g>
<g>
</g>
<g>
</g>
<g>
</g>
<g>
</g>
<g>
</g>
<g>
</g>
<g>
</g>
<g>
</g>
<g>
</g>
<g>
</g>
<g>
</g>
<g>
</g>
<g>
</g>
</svg>
