<?xml version="1.0" encoding="iso-8859-1"?>
<!-- Generator: Adobe Illustrator 26.0.3, SVG Export Plug-In . SVG Version: 6.00 Build 0)  -->
<!DOCTYPE svg PUBLIC "-//W3C//DTD SVG 1.1//EN" "http://www.w3.org/Graphics/SVG/1.1/DTD/svg11.dtd" [
	<!ENTITY ns_extend "http://ns.adobe.com/Extensibility/1.0/">
	<!ENTITY ns_ai "http://ns.adobe.com/AdobeIllustrator/10.0/">
	<!ENTITY ns_graphs "http://ns.adobe.com/Graphs/1.0/">
	<!ENTITY ns_vars "http://ns.adobe.com/Variables/1.0/">
	<!ENTITY ns_imrep "http://ns.adobe.com/ImageReplacement/1.0/">
	<!ENTITY ns_sfw "http://ns.adobe.com/SaveForWeb/1.0/">
	<!ENTITY ns_custom "http://ns.adobe.com/GenericCustomNamespace/1.0/">
	<!ENTITY ns_adobe_xpath "http://ns.adobe.com/XPath/1.0/">
]>
<svg version="1.1" id="_x2014_&#xCE;&#xD3;&#xC8;_x5F_1" xmlns:x="&ns_extend;" xmlns:i="&ns_ai;" xmlns:graph="&ns_graphs;"
	 xmlns="http://www.w3.org/2000/svg" xmlns:xlink="http://www.w3.org/1999/xlink" x="0px" y="0px" viewBox="0 0 3000 1833.3"
	 style="enable-background:new 0 0 3000 1833.3;" xml:space="preserve">
<style type="text/css">
	.st0{fill:#FFFFFF;}
	.st1{fill:#F2F0FF;}
	.st2{fill:#E9E6FF;}
	.st3{fill:#CCC2FF;}
	.st4{fill:#C4B8FF;}
	.st5{fill:#7760DB;}
	.st6{fill:#F8F7FF;}
	.st7{fill:#FFCCD6;}
	.st8{fill:#B3A4F5;}
	.st9{fill:#FFB0BF;}
	.st10{fill:#FF95A9;}
	.st11{fill:#8B77E8;}
	.st12{fill:#F3F1FF;}
	.st13{fill:#FF8FAA;}
	.st14{fill:#FFD259;}
	.st15{fill:#40327A;}
	.st16{fill:#FFE985;}
	.st17{fill:#4F37B3;}
	.st18{fill:#DDD6FF;}
	.st19{fill:none;}
	.st20{fill:#FFAA45;}
	.st21{fill:#AB9AF7;}
	.st22{fill:#FFC7BD;}
	.st23{fill:none;stroke:#8B77E8;stroke-width:2;stroke-miterlimit:10;}
</style>
<metadata>
	<sfw  xmlns="&ns_sfw;">
		<slices></slices>
		<sliceSourceBounds  bottomLeftOrigin="true" height="1833.3" width="3000" x="-1768" y="-6014"></sliceSourceBounds>
		<optimizationSettings>
			<targetSettings  fileFormat="JPEGFormat" targetSettingsID="0">
				
					<JPEGFormat  blurAmount="0" embedICCProfile="false" matteColor="#FFFFFF" noMatteColor="false" optimized="true" progressive="true" quality="60">
					</JPEGFormat>
			</targetSettings>
		</optimizationSettings>
	</sfw>
</metadata>
<rect x="0" class="st0" width="3000" height="1833.3"/>
<path class="st1" d="M912.6,1531.1l-159-49.9c12.6-40.2,28.6-79.7,47.6-117.5l149,74.7C935.2,1468.2,922.6,1499.4,912.6,1531.1z"/>
<path class="st1" d="M960.8,1418.1L814.6,1338c48.7-88.8,113.1-166.6,191.5-231.2l106.1,128.6
	C1050.2,1286.4,999.3,1347.9,960.8,1418.1z"/>
<path class="st2" d="M1130.7,1220.6l-101.2-132.4c35.5-27.2,73.6-51.4,113.1-72.2l77.4,147.6
	C1188.8,1179.9,1158.8,1199.1,1130.7,1220.6z"/>
<path class="st1" d="M1834.7,1183.8c-97.8-59.8-210.2-91.4-325.2-91.4c-95,0-186.2,20.8-271.2,61.9l-72.6-150
	c107.8-52.1,223.5-78.6,343.8-78.6c145.7,0,288.2,40.1,412.1,115.9L1834.7,1183.8z"/>
<path class="st2" d="M1892.2,1223.6c-12.5-9.7-25.6-19.1-38.8-27.8l91.9-139c16.7,11.1,33.3,22.9,49.1,35.2L1892.2,1223.6z"/>
<path class="st1" d="M2103.3,1521.3c-36-108.6-101.5-205.4-189.3-280l108-127c111,94.4,193.9,217,239.5,354.5L2103.3,1521.3z"/>
<path class="st3" d="M2353.1,1497.9c-0.7-2.7-1.4-5.4-2.2-8.1l6.4-1.7c0.7,2.7,1.5,5.5,2.2,8.2L2353.1,1497.9z"/>
<path class="st3" d="M2339.7,1451.4c-24.5-76.4-59.5-149.1-104-216.1l5.6-3.7c44.9,67.5,80.2,140.8,104.8,217.7L2339.7,1451.4z"/>
<path class="st3" d="M2207.9,1196.1c-3.9-5.2-7.9-10.4-11.9-15.5l5.3-4.1c4,5.2,8,10.4,12,15.6L2207.9,1196.1z"/>
<path class="st3" d="M2146.5,1122.6c-48.6-52.1-103.5-98.1-163.2-136.8l3.6-5.6c60.1,39,115.4,85.4,164.4,137.9L2146.5,1122.6z"/>
<path class="st3" d="M1963.5,973.3c-54.6-33.4-113-60.8-173.4-81.3l2.1-6.3c60.9,20.7,119.7,48.3,174.7,82L1963.5,973.3z"/>
<path class="st3" d="M1747.2,878.6c-10.9-3.1-22.1-6-33.1-8.7l1.6-6.5c11.1,2.7,22.3,5.6,33.3,8.7L1747.2,878.6z"/>
<path class="st3" d="M1266.8,879.8l-1.8-6.4c4.1-1.2,8.2-2.3,12.3-3.5l1.8,6.4C1274.9,877.5,1270.8,878.6,1266.8,879.8z"/>
<path class="st3" d="M997.1,1011.7l-3.9-5.4c66.9-48.6,140.1-87.4,217.6-115.4l2.3,6.3C1136.1,925,1063.4,963.5,997.1,1011.7z"/>
<path class="st3" d="M951.6,1047.1l-4.3-5.1c3.7-3.1,7.5-6.2,11.3-9.2l4.2,5.2C959,1041,955.3,1044,951.6,1047.1z"/>
<path class="st3" d="M884.4,1109.2l-4.8-4.7c11.8-12.1,24.2-24.1,36.7-35.5l4.5,4.9C908.4,1085.3,896.2,1097.1,884.4,1109.2z"/>
<path class="st3" d="M682,1440.3l-6.3-2.1c23.1-68.8,54.8-134.7,94.2-195.9l5.6,3.6C736.4,1306.6,705,1372,682,1440.3z"/>
<path class="st3" d="M670.6,1477.1l-6.4-1.8c1.7-5.8,3.4-11.5,5.1-17.2l6.4,2C673.9,1465.7,672.2,1471.4,670.6,1477.1z"/>
<rect x="1505.7" y="676.3" class="st3" width="6.7" height="96.3"/>
<rect x="1697.9" y="1228.2" transform="matrix(0.3749 -0.9271 0.9271 0.3749 -75.6524 2350.8518)" class="st3" width="15.1" height="6.7"/>
<rect x="1609.9" y="1000.7" transform="matrix(0.3749 -0.9271 0.9271 0.3749 192.7508 2293.8599)" class="st3" width="374.9" height="6.7"/>
<rect x="1960.7" y="1038.4" transform="matrix(0.6945 -0.7195 0.7195 0.6945 -89.1299 1873.5295)" class="st3" width="402.2" height="6.7"/>
<rect x="2153.1" y="1424.4" transform="matrix(0.9135 -0.4069 0.4069 0.9135 -394.0291 1002.6096)" class="st3" width="14.5" height="6.7"/>
<rect x="2189.2" y="1370.6" transform="matrix(0.9135 -0.4069 0.4069 0.9135 -361.6607 1047.1338)" class="st3" width="184.1" height="6.7"/>
<rect x="1206.4" y="942.9" transform="matrix(0.9272 -0.3746 0.3746 0.9272 -279.7651 524.6861)" class="st3" width="6.7" height="78.2"/>
<rect x="1156.7" y="786.9" transform="matrix(0.9272 -0.3746 0.3746 0.9272 -237.2852 497.0959)" class="st3" width="6.7" height="144"/>
<rect x="1103.3" y="1291.5" transform="matrix(0.7194 -0.6946 0.6946 0.7194 -593.1629 1133.726)" class="st3" width="6.7" height="18.9"/>
<rect x="901.4" y="826.3" transform="matrix(0.7193 -0.6947 0.6947 0.7193 -504.6228 934.9578)" class="st3" width="6.7" height="531.4"/>
<rect x="776.3" y="1240.9" transform="matrix(0.4067 -0.9135 0.9135 0.4067 -810.0154 1538.6741)" class="st3" width="6.7" height="304.2"/>
<g>
	<path class="st4" d="M1072.6,812.8c86.1,0,156.2-70,156.2-156.2c0-67.3-42.8-126.8-106.6-148.1l1-3.1c-15.9-5.3-32.9-8.2-50.6-8.2
		c-79.6,0-145.5,58.3-157.5,134.4l3.3,0.5c-1.3,8.1-1.9,16.3-1.9,24.5c0,20.1,3.8,39.7,11.2,58.2l-3.1,1.2
		c6.4,16,15.3,30.7,26.3,43.6l2.5-2.1C983.1,792.7,1026.6,812.8,1072.6,812.8z M1072.6,513.6c23.8,0,47.4,6,68.2,17.3l-1.6,2.9
		c43.5,23.7,73.1,69.9,73.1,122.8c0,77-62.7,139.7-139.7,139.7c-28.8,0-55.6-8.8-77.9-23.8l-1.9,2.8
		c-39.6-26.7-63.3-71.1-63.3-118.7C929.5,577.8,993.7,513.6,1072.6,513.6z"/>
	<path class="st5" d="M1124.3,502.2l-1.1,3.2l-1,3.1c63.8,21.3,106.6,80.9,106.6,148.1c0,86.1-70.1,156.2-156.2,156.2
		c-46,0-89.4-20.1-119.2-55.3l-2.5,2.1l-2.6,2.2c31,36.6,76.3,57.6,124.3,57.6c89.8,0,162.8-73,162.8-162.8
		C1235.4,586.5,1190.7,524.5,1124.3,502.2z"/>
	<path class="st5" d="M916.4,656.7c0-8.2,0.6-16.5,1.9-24.5l-3.3-0.5l-3.3-0.5c-1.3,8.4-2,17-2,25.6c0,21,3.9,41.4,11.7,60.7
		l3.1-1.3l3.1-1.2C920.2,696.4,916.4,676.8,916.4,656.7z"/>
	<path class="st0" d="M1072.6,520.3c-75.2,0-136.4,61.2-136.4,136.4c0,45.4,22.6,87.7,60.4,113.2l-1.9,2.8
		c22.3,15,49.1,23.8,77.9,23.8c77,0,139.7-62.7,139.7-139.7c0-52.9-29.6-99.1-73.1-122.8l-1.6,2.9
		C1117.7,526,1095.3,520.3,1072.6,520.3z M1180.4,586.7l0.2-0.1l6.7,11.5l-0.2,0.1c8,15.7,12.9,33.2,13.9,51.7h0.2l0,6.6
		c0,0,0,0.1,0,0.1c0,0.1,0,0.1,0,0.1l0,6.5h-0.2c-1,18.6-5.9,36.1-13.9,51.7l0.2,0.1l-6.7,11.5l-0.2-0.1
		c-9.8,15.1-22.8,28-37.9,37.9l0.1,0.2l-11.5,6.7l-0.1-0.2c-15.7,8-33.2,13-51.7,13.9v0.2h-6.6c0,0,0,0,0,0c0,0,0,0,0,0h-6.7V785
		c-18.6-1-36.1-5.9-51.7-13.9l-0.1,0.2l-11.5-6.7l0.1-0.2c-15.1-9.8-28-22.8-37.8-37.9l-0.2,0.1l-6.7-11.5l0.2-0.1
		c-8-15.7-12.9-33.2-13.8-51.8H944V650h0.2c1-18.6,5.9-36.1,13.9-51.7l-0.2-0.1l6.7-11.5l0.2,0.1c9.8-15.1,22.8-28,37.9-37.9
		l-0.1-0.2l11.5-6.7l0.1,0.2c15.7-8,33.2-13,51.7-13.9v-0.2h6.6c0,0,0,0,0.1,0c0,0,0,0,0,0h6.6v0.2c18.6,1,36.1,5.8,51.8,13.8
		l0.1-0.2l11.5,6.7l-0.1,0.2C1157.6,558.7,1170.6,571.6,1180.4,586.7z"/>
	<path class="st6" d="M1072.6,785.3C1072.6,785.3,1072.6,785.3,1072.6,785.3L1072.6,785.3C1072.6,785.3,1072.6,785.3,1072.6,785.3z"
		/>
	<path class="st6" d="M1138.2,703.3l24.3,20.7l-9,10.5l-24.8-21.1c-29.8,29.7-69.2,49.7-113,55.1l-1.5,2.7
		c15.7,8,33.2,12.9,51.7,13.9v-6.6h13.3v6.7c18.6-1,36.1-5.9,51.7-13.9l-3.3-5.7l11.5-6.7l3.3,5.7c15.1-9.8,28-22.8,37.9-37.9
		l-5.7-3.3l6.7-11.5l5.7,3.3c8-15.7,13-33.2,13.9-51.7l-6.7,0l0-13.3l6.6,0c-1-18.6-5.9-36.1-13.9-51.7l-2.7,1.5
		C1179.6,639.1,1163,674.9,1138.2,703.3z"/>
	<path class="st6" d="M1201.2,656.7c0,0,0-0.1,0-0.1l0,0.3C1201.2,656.8,1201.2,656.7,1201.2,656.7z"/>
	<path class="st2" d="M1072.6,528.1C1072.6,528.1,1072.5,528.1,1072.6,528.1L1072.6,528.1C1072.6,528.1,1072.6,528.1,1072.6,528.1z"
		/>
	<path class="st2" d="M1127.7,547.9l3.3-5.8c-15.7-8-33.2-12.9-51.8-13.8v6.6h-13.3v-6.7c-18.6,1-36.1,5.9-51.7,13.9l3.3,5.7
		l-11.5,6.7l-3.3-5.7c-15.1,9.8-28,22.8-37.9,37.9l5.7,3.3l-6.7,11.5l-5.7-3.3c-8,15.7-13,33.2-13.9,51.7h6.7v13.3h-6.6
		c1,18.6,5.8,36.1,13.8,51.8l5.8-3.3l6.7,11.5l-5.7,3.3c9.8,15.1,22.7,28.1,37.8,37.9l3.3-5.7l11.5,6.7l-1.8,3.1
		c43.8-5.4,83.2-25.4,113-55.1l-50.4-42.8c-6.2,2.5-13.7,0.5-17.8-5.4c-4.9-6.8-3.4-16.2,3.3-20.9c1.7-1.2,3.5-2,5.4-2.4l18-71
		l13.4,3.4l-18,71.4c0.8,0.7,1.5,1.5,2.1,2.4c2.6,3.6,3.3,7.9,2.5,11.9l51,43.3c24.8-28.5,41.4-64.2,46.2-103.5l-3.1,1.8l-6.7-11.5
		l5.7-3.3c-9.8-15.1-22.8-28-37.9-37.8l-3.3,5.7L1127.7,547.9z M972.8,636c-7-3.7-3.3-13.9,2.5-13.2
		C986.4,624,981.5,640.6,972.8,636z M994.3,608.2c-19,6-9.6-26.2,4.7-35.2c9.4-6,24.3-11.2,26.5-6
		C1030.1,578.1,1013.4,602.1,994.3,608.2z"/>
	<path class="st5" d="M992.8,775.4l1.9-2.8l1.9-2.8c-37.8-25.5-60.4-67.8-60.4-113.2c0-75.2,61.2-136.4,136.4-136.4
		c22.7,0,45.2,5.7,65,16.5l1.6-2.9l1.6-2.9c-20.8-11.3-44.4-17.3-68.2-17.3c-78.9,0-143.1,64.2-143.1,143.1
		C929.5,704.3,953.2,748.7,992.8,775.4z"/>
	<path class="st5" d="M1162.5,724l-24.3-20.7l-51-43.3c0.8-4,0-8.3-2.5-11.9c-0.6-0.9-1.4-1.7-2.1-2.4l18-71.4l-13.4-3.4l-18,71
		c-1.9,0.4-3.7,1.2-5.4,2.4c-6.7,4.7-8.1,14.1-3.3,20.9c4.2,5.8,11.6,7.9,17.8,5.4l50.4,42.8l24.8,21.1L1162.5,724z M1069.4,659
		c-1.3-1.8-0.9-4.3,0.9-5.6c1.8-1.3,4.2-0.8,5.5,1c1.3,1.8,0.9,4.3-0.9,5.6C1073.1,661.2,1070.7,660.8,1069.4,659z"/>
	<polygon class="st5" points="1127.7,765.4 1131,771.2 1131.1,771.4 1142.6,764.7 1142.5,764.5 1139.2,758.8 	"/>
	<polygon class="st5" points="1017.5,547.9 1014.2,542.2 1014,542 1002.5,548.7 1002.6,548.9 1005.9,554.6 	"/>
	<polygon class="st5" points="1174.7,723.3 1180.4,726.6 1180.6,726.7 1187.3,715.2 1187.1,715.1 1181.3,711.8 	"/>
	<polygon class="st5" points="970.5,590 964.8,586.7 964.5,586.6 957.9,598.1 958.1,598.3 963.8,601.6 	"/>
	<polygon class="st5" points="1194.3,663.3 1201,663.3 1201.2,663.3 1201.2,656.8 1201.2,656.6 1201.2,650 1201,650 1194.3,650 	"/>
	<polygon class="st5" points="950.8,650 944.2,650 944,650 944,663.3 944.2,663.3 950.8,663.3 	"/>
	<polygon class="st5" points="1181.3,601.6 1184.4,599.8 1187.1,598.3 1187.3,598.1 1180.6,586.6 1180.4,586.7 1174.7,590 	"/>
	<polygon class="st5" points="963.8,711.8 958.1,715.1 957.9,715.2 964.5,726.7 964.8,726.6 970.5,723.3 	"/>
	<polygon class="st5" points="1131.1,542 1131,542.1 1127.7,547.9 1139.2,554.6 1142.5,548.9 1142.6,548.6 	"/>
	<polygon class="st5" points="1017.5,765.4 1005.9,758.8 1002.6,764.5 1002.5,764.7 1014.1,771.4 1014.2,771.2 1015.7,768.5 	"/>
	<polygon class="st5" points="1079.2,534.9 1079.2,528.3 1079.2,528.1 1072.6,528.1 1072.5,528.1 1065.9,528.1 1065.9,528.3 
		1065.9,534.9 	"/>
	<polygon class="st5" points="1065.9,778.4 1065.9,785 1065.9,785.3 1072.6,785.3 1072.6,785.3 1079.2,785.3 1079.2,785.1 
		1079.2,778.4 	"/>
	<path class="st0" d="M1074.9,660c1.8-1.3,2.2-3.8,0.9-5.6c-1.3-1.8-3.8-2.3-5.5-1c-1.8,1.3-2.2,3.8-0.9,5.6
		C1070.7,660.8,1073.1,661.2,1074.9,660z"/>
	<path class="st0" d="M999,572.9c-14.3,9.1-23.7,41.3-4.7,35.2c19-6,35.8-30.1,31.1-41.2C1023.3,561.8,1008.4,567,999,572.9z"/>
	<path class="st0" d="M975.3,622.8c-5.7-0.6-9.5,9.5-2.5,13.2C981.5,640.6,986.4,624,975.3,622.8z"/>
</g>
<g>
	<path class="st7" d="M2558.8,1116.8c-70.3,0-127.2,57-127.2,127.2c0,70.3,57,127.2,127.2,127.2c70.3,0,127.2-57,127.2-127.2
		C2686.1,1173.8,2629.1,1116.8,2558.8,1116.8z M2558.8,1348.5c-57.7,0-104.4-46.7-104.4-104.4c0-57.7,46.8-104.4,104.4-104.4
		c57.7,0,104.4,46.7,104.4,104.4C2663.3,1301.7,2616.5,1348.5,2558.8,1348.5z"/>
	<path class="st2" d="M2391.1,1244h19.1c0-2.4,0.1-4.8,0.2-7.2l-19-0.9C2391.2,1238.6,2391.1,1241.3,2391.1,1244L2391.1,1244z"/>
	<path class="st2" d="M2384.6,1235.7l-19.1-0.9c-0.1,3.1-0.2,6.2-0.2,9.3h19.1v0C2384.4,1241.2,2384.5,1238.4,2384.6,1235.7z"/>
	<path class="st2" d="M2413.7,1328.2c2.9,5,6.1,9.9,9.5,14.6l15.4-11.2c-15.2-20.9-24.8-45.5-27.6-71.1l-18.9,2.1
		c0.9,8.5,2.4,17,4.7,25.2l-6.4,1.7c-2.3-8.6-3.9-17.4-4.8-26.2l-19,2.1c3.6,33.4,16.1,65.5,35.9,92.7l15.4-11.2
		c-3.5-4.9-6.9-9.9-9.9-15.1L2413.7,1328.2z M2401.6,1319.7c-0.8-1.7-1.6-3.5-2.4-5.2l6.1-2.7c0.7,1.7,1.5,3.3,2.3,5L2401.6,1319.7z
		"/>
	<path class="st2" d="M2409.9,1367.6c1,1.2,2.1,2.4,3.1,3.6l14.4-12.6c-0.9-1.1-1.9-2.2-2.8-3.3L2409.9,1367.6z"/>
	<path class="st2" d="M2446.8,1341.8c-0.8-0.9-1.6-1.9-2.4-2.8l-14.6,12.1c0.9,1.1,1.8,2.1,2.7,3.2L2446.8,1341.8z"/>
	<path class="st2" d="M2470.3,1416.1c4.7,2.4,9.5,4.7,14.4,6.7l7.3-17.6c-4.4-1.8-8.7-3.9-13-6.1L2470.3,1416.1z"/>
	<path class="st2" d="M2501.9,1381.4c-3.8-1.6-7.5-3.3-11.1-5.1l-8.7,16.9c4.1,2.1,8.2,4.1,12.5,5.9L2501.9,1381.4z"/>
	<path class="st2" d="M2545.4,1418l0.5-6.6c4.3,0.3,8.6,0.5,13,0.5c22.7,0,44.4-4.5,64.3-12.6l-7.4-17.7
		c-18.1,7.5-37.2,11.3-56.9,11.3c-15.5,0-30.7-2.4-45.3-7l-5.8,18.1c3.6,1.2,7.3,2.2,11,3.1l-1.6,6.5c-3.8-0.9-7.6-2.1-11.4-3.3
		l-5.8,18.2c19,6.1,38.8,9.1,58.9,9.1c25.7,0,50.6-5,74.1-14.7l-7.3-17.5c-20.7,8.5-43.3,13.2-66.9,13.2
		C2554.4,1418.5,2549.8,1418.3,2545.4,1418z"/>
	<path class="st2" d="M2634.5,1401.4l8.2,17.1c26.5-12.8,50.2-31.8,68.4-55l-14.9-11.7C2679.8,1372.9,2658.6,1389.9,2634.5,1401.4z"
		/>
	<path class="st2" d="M2691,1347.6l-15.1-11.9c-14,17.9-32.2,32.5-52.6,42.3l8.3,17.3C2654.8,1384.3,2675.1,1368,2691,1347.6z"/>
	<path class="st2" d="M2723.1,1346.3c1.3-2.1,2.7-4.4,3.9-6.6l-16.5-9.4c-1.1,2-2.3,4-3.5,6L2723.1,1346.3z"/>
	<path class="st2" d="M2688.1,1317.5c-1,1.7-2,3.4-3,5.1l16.3,10.1c1.2-1.9,2.3-3.8,3.4-5.7L2688.1,1317.5z"/>
	<path class="st2" d="M2725.6,1295.4c-2.2,7-4.7,13.8-7.7,20.4l17.4,7.8c11.3-25.1,17.1-51.8,17.1-79.5c0-22.8-3.9-45.1-11.7-66.4
		l-17.9,6.5c3.4,9.4,6.1,19.1,7.8,29l-6.6,1.2c-1.7-9.5-4.2-18.8-7.5-27.9l-17.9,6.5c5.9,16.3,9,33.5,9,51
		c0,21.3-4.4,41.9-13.1,61.1l17.4,7.9c2.8-6.3,5.3-12.8,7.4-19.6L2725.6,1295.4z M2726.6,1244h6.7c0,5.5-0.3,11.2-0.8,16.7l-6.6-0.6
		C2726.4,1254.8,2726.6,1249.4,2726.6,1244z M2724.6,1270.3l6.6,1c-0.2,1.2-0.4,2.3-0.6,3.5l-6.6-1.2
		C2724.2,1272.6,2724.4,1271.4,2724.6,1270.3z"/>
	<path class="st2" d="M2694.7,1145.6c-1.3-1.8-2.7-3.5-4-5.2l-14.9,11.8c2.5,3.2,4.9,6.5,7.1,9.8l37.3-24.8c-2.9-4.3-6-8.6-9.2-12.7
		l-15.1,11.9c1.4,1.8,2.9,3.6,4.2,5.4L2694.7,1145.6z"/>
	<path class="st2" d="M2625.7,1090.1c-13-5.6-26.5-9.6-40.3-11.8l-3,18.8c32,5.1,61.9,20.9,84.3,44.5l13.8-13.1
		c-4.8-5-9.9-9.8-15.2-14.2l4.2-5.1c5.6,4.6,10.9,9.5,15.8,14.8l13.8-13.1c-29.2-30.7-68.1-51.3-109.8-57.9l-3,18.8
		c14.4,2.3,28.5,6.4,42,12.2L2625.7,1090.1z M2642.2,1090.8c1.8,1,3.5,1.9,5.2,3l-3.4,5.7c-1.7-1-3.3-1.9-5-2.9L2642.2,1090.8z"/>
	<path class="st2" d="M2548.7,1076.6l1.1,19c6.7-0.4,13.7-0.3,20.4,0.2l1.4-19c-4.2-0.3-8.5-0.5-12.8-0.5
		C2555.4,1076.3,2552.1,1076.4,2548.7,1076.6z"/>
	<path class="st2" d="M2572.2,1070.2l1.4-19.1c-8.8-0.7-17.7-0.7-26.5-0.2l1.1,19.1c3.5-0.2,7-0.4,10.6-0.4
		C2563.3,1069.6,2567.8,1069.8,2572.2,1070.2z"/>
	<path class="st2" d="M2535.6,1051.9c-1.5,0.2-2.9,0.4-4.4,0.6l2.7,18.9c1.3-0.2,2.6-0.4,3.9-0.5L2535.6,1051.9z"/>
	<path class="st2" d="M2537.6,1096.9c1.1-0.2,2.2-0.3,3.4-0.4l-2.3-18.9c-1.3,0.2-2.5,0.3-3.8,0.5L2537.6,1096.9z"/>
	<path class="st2" d="M2483.9,1086.5l2.9,6c-49.3,23.5-83.8,69.8-93.1,122.5l18.7,3.3c10.3-59,54.6-105.7,113-119.2l-4.3-18.6
		c-5.9,1.4-11.7,3-17.4,5l-2.2-6.3c6-2.1,12-3.8,18.1-5.2l-4.3-18.6c-37,8.5-70.5,27.6-96.7,55.3c-26.4,27.8-43.8,62.3-50.3,99.8
		l18.9,3.3C2396.8,1159,2432.7,1110.9,2483.9,1086.5z"/>
	<path class="st8" d="M2518.7,1407c-3.7-0.9-7.3-2-11-3.1c-4.5-1.4-8.9-3-13.2-4.8c-4.2-1.8-8.4-3.8-12.5-5.9
		c-18.8-9.7-35.7-22.9-49.7-38.9c-0.9-1-1.8-2.1-2.7-3.2c-2.3-2.7-4.5-5.5-6.6-8.3c-3.4-4.7-6.6-9.5-9.5-14.6l-5.8,3.3
		c3,5.2,6.4,10.3,9.9,15.1c2.2,3,4.5,5.8,6.8,8.7c0.9,1.1,1.8,2.2,2.8,3.3c14.5,16.6,32.1,30.4,51.6,40.5c4.2,2.2,8.6,4.3,13,6.1
		c4.5,1.9,9.1,3.5,13.7,5c3.8,1.2,7.5,2.3,11.4,3.3L2518.7,1407z"/>
	<path class="st8" d="M2725.6,1295.4l-6.4-2c-2.1,6.7-4.5,13.3-7.4,19.6c-2.2,4.8-4.5,9.5-7.1,14c-1.1,1.9-2.2,3.8-3.4,5.7
		c-3.2,5.2-6.6,10.2-10.4,14.9c-15.9,20.4-36.2,36.7-59.4,47.8c-2.8,1.3-5.6,2.6-8.5,3.8c-19.9,8.2-41.6,12.6-64.3,12.6
		c-4.3,0-8.7-0.2-13-0.5l-0.5,6.6c4.5,0.3,9,0.5,13.5,0.5c23.6,0,46.2-4.6,66.9-13.2c3-1.2,5.9-2.5,8.8-3.9
		c24.1-11.5,45.3-28.5,61.8-49.6c3.9-4.9,7.4-10.1,10.8-15.5c1.2-2,2.4-3.9,3.5-6c2.7-4.7,5.1-9.6,7.4-14.6
		C2720.9,1309.2,2723.4,1302.4,2725.6,1295.4z"/>
	<path class="st8" d="M2731.2,1271.4l-6.6-1c-0.2,1.1-0.4,2.2-0.6,3.4l6.6,1.2C2730.8,1273.7,2731,1272.5,2731.2,1271.4z"/>
	<path class="st8" d="M2733.3,1244h-6.7c0,5.3-0.3,10.7-0.8,16l6.6,0.6C2733,1255.2,2733.3,1249.6,2733.3,1244z"/>
	<path class="st8" d="M2730.6,1213.2c-1.8-9.9-4.4-19.6-7.8-29c-2.8-7.8-6.2-15.4-10.1-22.7l-5.9,3.2c3.8,7,7,14.3,9.8,21.8
		c3.3,9,5.8,18.3,7.5,27.9L2730.6,1213.2z"/>
	<path class="st8" d="M2665.3,1114.3c5.4,4.4,10.5,9.2,15.2,14.2c3.6,3.8,6.9,7.7,10.1,11.8c1.4,1.7,2.7,3.4,4,5.2l5.4-3.9
		c-1.3-1.8-2.8-3.6-4.2-5.4c-3.3-4.2-6.8-8.4-10.5-12.3c-5-5.2-10.2-10.2-15.8-14.8L2665.3,1114.3z"/>
	<path class="st8" d="M2647.4,1093.7c-1.7-1-3.5-2-5.2-3l-3.2,5.9c1.7,0.9,3.4,1.9,5,2.9L2647.4,1093.7z"/>
	<path class="st8" d="M2503.6,1085.6c5.7-2,11.6-3.6,17.4-5c4.6-1,9.2-1.9,13.8-2.6c1.3-0.2,2.5-0.4,3.8-0.5c3.3-0.4,6.7-0.7,10-0.9
		c3.4-0.2,6.8-0.3,10.2-0.3c4.3,0,8.6,0.2,12.8,0.5c4.6,0.3,9.2,0.8,13.7,1.6c13.9,2.2,27.4,6.1,40.3,11.8l2.7-6.1
		c-13.5-5.9-27.5-10-42-12.2c-4.7-0.7-9.5-1.3-14.3-1.6c-4.4-0.3-8.9-0.6-13.3-0.6c-3.5,0-7.1,0.1-10.6,0.4c-3.5,0.2-7,0.5-10.4,0.9
		c-1.3,0.2-2.6,0.3-3.9,0.5c-4.8,0.7-9.6,1.6-14.3,2.7c-6.1,1.4-12.2,3.1-18.1,5.2L2503.6,1085.6z"/>
	<path class="st8" d="M2396.8,1287.7c-2.2-8.3-3.7-16.7-4.7-25.2c-0.7-6.1-1.1-12.2-1.1-18.4v0c0-2.7,0.1-5.4,0.2-8.1
		c0.3-7.1,1.1-14.1,2.4-20.9c9.4-52.8,43.9-99.1,93.1-122.5l-2.9-6c-51.2,24.4-87.1,72.6-96.8,127.4c-1.3,7.2-2.1,14.4-2.4,21.8
		c-0.1,2.8-0.2,5.6-0.2,8.4v0c0,6.4,0.4,12.8,1.1,19.1c1,8.9,2.5,17.7,4.8,26.2L2396.8,1287.7z"/>
	<path class="st8" d="M2399.2,1314.5c0.8,1.8,1.6,3.5,2.4,5.2l6-2.9c-0.8-1.7-1.6-3.3-2.3-5L2399.2,1314.5z"/>
	<path class="st9" d="M2558.8,1139.6c-57.7,0-104.4,46.7-104.4,104.4c0,57.7,46.8,104.4,104.4,104.4c57.7,0,104.4-46.7,104.4-104.4
		C2663.3,1186.4,2616.5,1139.6,2558.8,1139.6z M2631.2,1256.8h-14.7c-1.5,6.9-4.2,13.3-7.9,19.1l10.4,10.4l-18,18l-10.4-10.4
		c-5.7,3.7-12.2,6.4-19.1,7.9v14.7h-25.5v-14.7c-6.9-1.5-13.3-4.2-19.1-7.9l-10.4,10.4l-18-18l10.4-10.4c-3.7-5.7-6.4-12.2-7.9-19.1
		h-14.7v-25.5h14.7c1.5-6.9,4.2-13.3,7.9-19.1l-10.4-10.4l18-18l10.4,10.4c5.7-3.7,12.2-6.4,19.1-7.9v-14.7h25.5v14.7
		c6.9,1.5,13.3,4.2,19.1,7.9l10.4-10.4l18,18l-10.4,10.4c3.7,5.8,6.4,12.2,7.9,19.1h14.7V1256.8z"/>
	<path class="st0" d="M2608.6,1212.3l10.4-10.4l-18-18l-10.4,10.4c-5.7-3.7-12.2-6.4-19.1-7.9v-14.7h-25.5v14.7
		c-6.9,1.5-13.3,4.2-19.1,7.9l-10.4-10.4l-18,18l10.4,10.4c-3.7,5.8-6.4,12.2-7.9,19.1h-14.7v25.5h14.7c1.5,6.9,4.2,13.3,7.9,19.1
		l-10.4,10.4l18,18l10.4-10.4c5.7,3.7,12.2,6.4,19.1,7.9v14.7h25.5v-14.7c6.9-1.5,13.3-4.2,19.1-7.9l10.4,10.4l18-18l-10.4-10.4
		c3.7-5.7,6.4-12.2,7.9-19.1h14.7v-25.5h-14.7C2615,1224.4,2612.3,1218,2608.6,1212.3z M2558.8,1269.8c-14.2,0-25.8-11.5-25.8-25.8
		c0-14.2,11.5-25.8,25.8-25.8c14.2,0,25.8,11.5,25.8,25.8C2584.6,1258.3,2573.1,1269.8,2558.8,1269.8z"/>
	<circle class="st10" cx="2558.8" cy="1244" r="25.8"/>
</g>
<g>
	<path class="st2" d="M1868.3,710.9c-12.1-21.9-18.5-46.7-18.5-71.8h-23.3c0,29.3,7.6,57.8,21.5,83L1868.3,710.9z"/>
	<path class="st2" d="M1796.5,639.1c0,34.1,8.7,67.8,25.1,97.6l20.5-11.4c-14.5-26.2-22.3-55.8-22.3-86.2H1796.5z"/>
	<path class="st2" d="M1904.8,783.4c4.2,2.8,8.6,5.3,13,7.7l11-20.6c-18.5-9.9-35.1-24-48-40.6l-18.4,14.2
		c6.3,8.2,13.3,15.9,21.1,22.9l-4.5,5c-8.1-7.3-15.4-15.3-21.9-23.8l-18.5,14.3c17.5,22.6,40,41.7,65.1,55.1l11-20.6
		c-4.6-2.5-9.1-5.1-13.5-8L1904.8,783.4z"/>
	<path class="st2" d="M1950.7,780c-3.5-1.2-7-2.5-10.4-4l-9.2,21.4c4,1.7,8,3.2,12,4.6L1950.7,780z"/>
	<path class="st2" d="M1919.4,825.1c4.6,2,9.4,3.8,14.2,5.4l7.5-22.1c-4.2-1.4-8.4-3-12.5-4.8L1919.4,825.1z"/>
	<path class="st2" d="M1955.4,836.6c3.1,0.7,6.3,1.3,9.4,1.8l3.9-23c-2.8-0.5-5.6-1-8.3-1.6L1955.4,836.6z"/>
	<path class="st2" d="M1973.7,785.9c-2.3-0.4-4.7-0.8-7-1.3l-5,22.8c2.7,0.6,5.3,1.1,8,1.5L1973.7,785.9z"/>
	<path class="st2" d="M2025.6,839.5c29.9-4,57.8-14.4,83.1-30.9L2096,789c-22.1,14.4-47.2,23.7-73.5,27.3L2025.6,839.5z"/>
	<path class="st2" d="M2079.6,763.9c-18.6,12.1-39.2,19.8-61.1,22.7l3.1,23c25.3-3.4,49.4-12.4,70.7-26.3L2079.6,763.9z"/>
	<path class="st2" d="M2193.8,586.7l-22.6,6.1c4.1,15,6.2,30.6,6.2,46.4c0,12.8-1.4,25.5-4,37.9l-6.5-1.4
		c2.6-11.9,3.9-24.2,3.9-36.5c0-15.1-2-30.1-5.9-44.6l-22.5,6c3.4,12.5,5.1,25.5,5.1,38.6c0,42-18,82.3-49.3,110.5l15.6,17.3
		c4.8-4.4,9.5-9,13.8-13.9l5,4.4c-4.5,5.1-9.3,9.9-14.4,14.4l15.6,17.4c42.5-38.3,66.9-93.1,66.9-150.1
		C2200.7,621.4,2198.4,603.7,2193.8,586.7z M2141.7,746.2l-5.3-4c3.3-4.4,6.5-9,9.3-13.8l5.7,3.5
		C2148.4,736.8,2145.1,741.7,2141.7,746.2z"/>
	<path class="st2" d="M2130.5,577.9c2.2,4.6,4.1,9.5,5.8,14.3l25.1-8.6c-2-5.8-4.2-11.5-6.8-17L2130.5,577.9z"/>
	<path class="st2" d="M2193.1,572.8c-2.4-6.9-5.1-13.7-8.2-20.3l-24.2,11.3c2.7,5.8,5,11.7,7.1,17.7L2193.1,572.8z"/>
	<path class="st2" d="M2137.1,526.2c4.3,5.3,8.3,10.9,12,16.6l19.7-12.6c-37.5-58.3-101.1-93.1-170.2-93.1c-8.6,0-17.2,0.5-25.6,1.6
		l2.9,23.2c7.5-1,15.1-1.4,22.7-1.4c29.4,0,58.6,7.3,84.4,21.2l-3.2,5.9c-24.8-13.4-52.9-20.4-81.3-20.4c-7.3,0-14.6,0.5-21.8,1.4
		l2.9,23.1c6.2-0.8,12.6-1.2,18.9-1.2c50.9,0,97.7,25.7,125.3,68.6l19.6-12.6c-3.5-5.5-7.4-10.9-11.6-16L2137.1,526.2z
		 M2104.6,503.6c-2.1-1.7-4.3-3.3-6.5-4.8l3.9-5.4c2.3,1.6,4.5,3.3,6.7,5L2104.6,503.6z"/>
	<path class="st2" d="M1940.7,470c9.1-3.1,18.4-5.5,27.9-7.1l-3.9-23c-31,5.3-60.8,18-86.2,36.8l31.8,42.8
		c18.7-13.9,40.6-23.2,63.4-27.1l-3.9-23c-9.1,1.5-18.1,3.8-26.8,6.8L1940.7,470z"/>
	<path class="st2" d="M1900.4,527.4l-35.2-40c-6.7,5.9-13.1,12.4-19,19.1l40.2,35C1890.7,536.6,1895.5,531.8,1900.4,527.4z"/>
	<path class="st8" d="M1879,772l4.5-5c-7.8-7-14.8-14.7-21.1-22.9c-5.4-7-10.2-14.3-14.4-21.9c-13.9-25.2-21.5-53.7-21.5-83
		c0-7.5,0.5-15.1,1.5-22.5l-6.6-0.9c-1,7.7-1.5,15.5-1.5,23.3c0,30.4,7.9,60,22.3,86.2c4.4,7.9,9.4,15.6,14.9,22.8
		C1863.6,756.7,1870.9,764.7,1879,772z"/>
	<path class="st8" d="M2132.5,757.5l-5-4.4c-4.4,4.9-9,9.6-13.8,13.9c-6.7,6-13.8,11.5-21.3,16.4c-21.3,13.8-45.4,22.8-70.7,26.3
		c-7.6,1-15.3,1.6-23,1.6c-9.7,0-19.3-0.8-28.8-2.4c-2.7-0.5-5.4-1-8-1.5c-6.3-1.4-12.5-3.1-18.6-5.2c-4.1-1.4-8.1-2.9-12-4.6
		c-4.5-1.9-9-4.1-13.4-6.4c-4.4-2.4-8.8-4.9-13-7.7l-3.6,5.6c4.4,2.9,8.9,5.5,13.5,8c4.5,2.4,9.2,4.7,13.9,6.7
		c4.1,1.8,8.3,3.4,12.5,4.8c6.3,2.2,12.8,4,19.3,5.4c2.8,0.6,5.5,1.1,8.3,1.6c9.8,1.7,19.8,2.5,29.9,2.5c8.1,0,16-0.6,23.9-1.7
		c26.3-3.6,51.4-12.9,73.5-27.3c7.8-5.1,15.2-10.8,22.2-17C2123.2,767.4,2128,762.6,2132.5,757.5z"/>
	<path class="st8" d="M2136.3,742.2l5.3,4c3.4-4.6,6.7-9.4,9.7-14.3l-5.7-3.5C2142.8,733.2,2139.7,737.8,2136.3,742.2z"/>
	<path class="st8" d="M2166.8,675.6l6.5,1.4c2.7-12.4,4-25.1,4-37.9c0-15.7-2.1-31.3-6.2-46.4c-1-3.8-2.2-7.6-3.5-11.3
		c-2.1-6-4.4-11.9-7.1-17.7c-3.4-7.2-7.2-14.3-11.6-21c-3.7-5.8-7.7-11.3-12-16.6l-5.2,4.2c4.2,5.1,8,10.5,11.6,16
		c4.2,6.5,7.9,13.3,11.1,20.2c2.6,5.5,4.8,11.2,6.8,17c1.2,3.6,2.4,7.2,3.3,10.9c3.9,14.5,5.9,29.5,5.9,44.6
		C2170.7,651.4,2169.4,663.7,2166.8,675.6z"/>
	<path class="st8" d="M2098.1,498.8c2.2,1.6,4.3,3.2,6.5,4.8l4.1-5.2c-2.2-1.7-4.4-3.4-6.7-5L2098.1,498.8z"/>
	<path class="st8" d="M2079.9,487.5l3.2-5.9c-25.8-13.9-55-21.2-84.4-21.2c-7.6,0-15.2,0.5-22.7,1.4c-2.5,0.3-4.9,0.7-7.3,1.1
		c-9.5,1.6-18.8,4-27.9,7.1l2.2,6.3c8.8-3,17.7-5.3,26.8-6.8c2.3-0.4,4.7-0.7,7.1-1c7.2-0.9,14.5-1.4,21.8-1.4
		C2026.9,467,2055,474.1,2079.9,487.5z"/>
	<path class="st0" d="M1892.8,697.4l-11.6-7.2c11.5,26.3,31.6,48.1,56.8,61.7l-5-8.3l7.6-46.1h3.4c5.9,0,11.3-2.3,15.5-6.4
		c4.1-4.1,6.4-9.6,6.4-15.5c0-12.1-9.8-21.9-21.9-21.9h-22.8v-3.3c0-5.3-4.3-9.7-9.7-9.7h-21v-19.2c0-2.1-0.8-4-2.3-5.5
		c-1.5-1.5-3.4-2.3-5.5-2.3h-3.3v-21.1c-5.7,14.4-8.8,30.1-8.8,46.6c0,13.4,2.1,26.3,5.9,38.4v-25.6l6.2-10.9l-8.4-20.7l6.2-2.5
		l9.6,23.7l-6.9,12.2v29.9l15.3,9.4l9.2,26.9l-6.3,2.1L1892.8,697.4z"/>
	<path class="st0" d="M1976.6,541.2l17.3-9.2c1.8-1,2.9-2.8,2.9-4.9c0-3.6-2.9-6.5-6.5-6.5c-3.6,0-6.5,2.9-6.5,6.5v5.7l-7.9,7.4
		c-0.1,0.1-0.3,0.3-0.1,0.6C1976.1,541.6,1976.4,541.3,1976.6,541.2z"/>
	<path class="st0" d="M1901.7,583.2v1.6h8.3l17.2-19.6h12.4c8.4,0,15.2-6.7,15.5-15l-31,7.2l-6.5-11.5l25.7-19l8.3,8.3
		c6.2-0.7,11.1-6,11.1-12.4v-6.8c-38.1,11.1-68.9,39.5-83.4,76.1L1901.7,583.2z"/>
	<path class="st0" d="M1969.5,523c0,10.5-8.6,19.1-19.1,19.1h-1.4l-6.3-6.3l-16.3,12l1.1,2l34.4-8v7.9c0,12.2-9.9,22.2-22.2,22.2
		h-9.4l-17.2,19.6h-5.1v5c0,3.5-2.9,6.4-6.4,6.4c-1.7,0-3.3-0.7-4.6-1.9c-1.2-1.2-1.9-2.8-1.9-4.6v-3.3l-9.1,3.7v10.7
		c2.6,0.6,5,1.9,6.9,3.8c2.7,2.7,4.2,6.3,4.2,10.2v12.6h14.3c7.9,0,14.4,5.6,16,13h16.5c15.7,0,28.6,12.8,28.6,28.6
		c0,7.6-3,14.8-8.4,20.2c-4.8,4.8-11.1,7.7-17.9,8.3l-6.3,38.2l9.1,14.9c15.3,6.4,32.1,10,49.7,10c33.6,0,64.2-13,87-34.2
		c-2.8-1.5-5.4-3.4-7.7-5.7c-6.4-6.4-9.9-14.9-9.9-23.9V702l10.7-10.7v-12.7c0-3.2-1-6.2-3-8.7l5.3-4.1c2.8,3.7,4.3,8.1,4.3,12.8
		V694l-10.7,10.7c0.3,6.7,3.1,13,7.9,17.8c2.3,2.3,5,4.2,8,5.5c22.3-23.1,36-54.4,36-88.9c0-70.6-57.5-128.1-128.1-128.1
		c-10,0-19.7,1.2-29.1,3.4V523z M2018.8,579.1c0-2.8,1.1-5.4,3-7.3c1.1-1.1,2.5-2,4-2.5v-6.8c0-4.3,2.6-7.9,6.3-9.6
		c-3.6-1-6.3-4.2-6.3-8.1v-20.1h19.2c0.1-0.5,0.2-1,0.4-1.6l6.4,2c-0.3,0.9-0.4,1.9-0.4,2.9v3.3h-18.8v13.5c0,1,0.8,1.8,1.8,1.8
		c1.3,0,1.8-1.1,1.8-1.8c0-0.5-0.2-0.9-0.5-1.2l-0.6-0.6l4.7-4.7l0.6,0.6c1.6,1.6,2.5,3.7,2.5,6c0,3.1-1.7,5.8-4.2,7.3h11.4
		c0.1-0.4,0.1-1-0.3-1.4l-1-1l4.7-4.7l1,1c2.3,2.3,2.9,5.8,1.6,9c-1,2.4-2.8,3.8-4.8,3.8h-14.9c-2.1,0-3.8,1.7-3.8,3.8v13h-3.3
		c-1,0-1.9,0.4-2.6,1.1c-0.7,0.7-1.1,1.6-1.1,2.6v1.3c0,2.1,1.7,3.7,3.7,3.7h6v6.7h-6c-5.7,0-10.4-4.7-10.4-10.4V579.1z
		 M2024.6,606.2l2.1-2.1c0.7-8.6,8-15.4,16.7-15.4h21v3.3c0,3.1,2.5,5.6,5.6,5.6h21.8c1.3,0,2.6-0.5,3.5-1.5
		c0.9-0.9,1.4-2.2,1.4-3.5c0-2.7-2.2-5-5-5h-25.4l-10.7-10.8l-7.6,7.7l-4.8-4.7l12.3-12.5l13.5,13.6h22.7c6.4,0,11.6,5.2,11.6,11.6
		c0,3.1-1.2,6-3.4,8.2c-2.2,2.2-5.1,3.4-8.2,3.4H2070c-5.6,0-10.3-3.8-11.8-8.9h-14.8c-5.6,0-10.1,4.5-10.1,10.1v1.4l-4,4
		c-8,8-10.2,19.4-5.9,29.8c4.3,10.4,14,16.9,25.2,16.9h15.9c2.4,0,4.7,0.4,7,1.2l-2.2,6.3c-1.5-0.5-3.1-0.8-4.8-0.8h-15.9
		c-14,0-26-8-31.4-21C2011.8,630.3,2014.6,616.1,2024.6,606.2z M1977.1,527.2c0-7.3,5.9-13.2,13.2-13.2c7.3,0,13.2,5.9,13.2,13.2
		c0,4.5-2.5,8.7-6.5,10.8l-17.3,9.2c-1,0.6-2.2,0.8-3.4,0.8c-3,0-5.6-1.8-6.7-4.6c-1.1-2.8-0.4-5.9,1.8-8l5.8-5.5V527.2z"/>
	<path class="st11" d="M1998.6,773.9c74.3,0,134.7-60.4,134.7-134.7c0-74.3-60.4-134.7-134.7-134.7c-74.3,0-134.7,60.4-134.7,134.7
		C1863.8,713.4,1924.3,773.9,1998.6,773.9z M2126.7,639.1c0,34.5-13.7,65.9-36,88.9c-3-1.3-5.7-3.2-8-5.5
		c-4.8-4.8-7.6-11.1-7.9-17.8l10.7-10.7v-15.5c0-4.7-1.5-9.1-4.3-12.8l-5.3,4.1c1.9,2.5,3,5.5,3,8.7v12.7L2068,702v1.4
		c0,9,3.5,17.5,9.9,23.9c2.3,2.3,4.9,4.2,7.7,5.7c-22.9,21.2-53.5,34.2-87,34.2c-17.6,0-34.4-3.6-49.7-10l-9.1-14.9l6.3-38.2
		c6.8-0.5,13.1-3.4,17.9-8.3c5.4-5.4,8.4-12.6,8.4-20.2c0-15.7-12.8-28.6-28.6-28.6h-16.5c-1.5-7.4-8.1-13-16-13h-14.3v-12.6
		c0-3.9-1.5-7.5-4.2-10.2c-1.9-1.9-4.3-3.2-6.9-3.8v-10.7l9.1-3.7v3.3c0,1.7,0.7,3.3,1.9,4.6c1.2,1.2,2.8,1.9,4.6,1.9
		c3.6,0,6.4-2.9,6.4-6.4v-5h5.1l17.2-19.6h9.4c12.2,0,22.2-9.9,22.2-22.2v-7.9l-34.4,8l-1.1-2l16.3-12l6.3,6.3h1.4
		c10.5,0,19.1-8.6,19.1-19.1v-8.6c9.4-2.2,19.1-3.4,29.1-3.4C2069.2,511.1,2126.7,568.5,2126.7,639.1z M1898.4,693l-15.3-9.4v-29.9
		l6.9-12.2l-9.6-23.7l-6.2,2.5l8.4,20.7l-6.2,10.9v25.6c-3.8-12.1-5.9-25-5.9-38.4c0-16.4,3.1-32.1,8.8-46.6v21.1h3.3
		c2.1,0,4,0.8,5.5,2.3c1.5,1.5,2.3,3.4,2.3,5.5v19.2h21c5.3,0,9.7,4.3,9.7,9.7v3.3h22.8c12.1,0,21.9,9.8,21.9,21.9
		c0,5.8-2.3,11.3-6.4,15.5c-4.1,4.1-9.6,6.4-15.5,6.4h-3.4l-7.6,46.1l5,8.3c-25.1-13.6-45.2-35.3-56.8-61.7l11.6,7.2l8.4,24.7
		l6.3-2.1L1898.4,693z M1962.8,516.2v6.8c0,6.4-4.9,11.7-11.1,12.4l-8.3-8.3l-25.7,19l6.5,11.5l31-7.2c-0.3,8.3-7.1,15-15.5,15
		h-12.4l-17.2,19.6h-8.3v-1.6l-22.3,9.1C1893.9,555.7,1924.7,527.3,1962.8,516.2z"/>
	<path class="st11" d="M2029.1,590.8h6v-6.7h-6c-2.1,0-3.7-1.7-3.7-3.7v-1.3c0-1,0.4-1.9,1.1-2.6c0.7-0.7,1.6-1.1,2.6-1.1h3.3v-13
		c0-2.1,1.7-3.8,3.8-3.8h14.9c2,0,3.9-1.4,4.8-3.8c1.3-3.2,0.7-6.7-1.6-9l-1-1l-4.7,4.7l1,1c0.4,0.4,0.4,0.9,0.3,1.4h-11.4
		c2.5-1.5,4.2-4.2,4.2-7.3c0-2.2-0.9-4.4-2.5-6l-0.6-0.6l-4.7,4.7l0.6,0.6c0.4,0.4,0.5,0.8,0.5,1.2c0,0.7-0.5,1.8-1.8,1.8
		c-1,0-1.8-0.8-1.8-1.8v-13.5h18.8V528c0-1,0.1-2,0.4-2.9l-6.4-2c-0.2,0.5-0.3,1-0.4,1.6h-19.2v20.1c0,3.9,2.7,7.2,6.3,8.1
		c-3.7,1.6-6.3,5.3-6.3,9.6v6.8c-1.5,0.5-2.9,1.4-4,2.5c-2,2-3,4.6-3,7.3v1.3C2018.8,586.1,2023.4,590.8,2029.1,590.8z"/>
	<path class="st11" d="M2048.6,664.3h15.9c1.6,0,3.2,0.3,4.8,0.8l2.2-6.3c-2.2-0.8-4.6-1.2-7-1.2h-15.9c-11.3,0-20.9-6.5-25.2-16.9
		c-4.3-10.4-2-21.8,5.9-29.8l4-4v-1.4c0-5.6,4.5-10.1,10.1-10.1h14.8c1.5,5.1,6.2,8.9,11.8,8.9h21.8c3.1,0,6-1.2,8.2-3.4
		c2.2-2.2,3.4-5.1,3.4-8.2c0-6.4-5.2-11.6-11.6-11.6h-22.7l-13.5-13.6l-12.3,12.5l4.8,4.7l7.6-7.7l10.7,10.8h25.4c2.7,0,5,2.2,5,5
		c0,1.3-0.5,2.6-1.4,3.5c-0.9,0.9-2.2,1.5-3.5,1.5H2070c-3.1,0-5.6-2.5-5.6-5.6v-3.3h-21c-8.8,0-16,6.8-16.7,15.4l-2.1,2.1
		c-9.9,9.9-12.7,24.1-7.4,37.1C2022.6,656.2,2034.6,664.3,2048.6,664.3z"/>
	<path class="st11" d="M1969.6,543.4c1.1,2.8,3.8,4.6,6.7,4.6c1.2,0,2.4-0.3,3.4-0.8l17.3-9.2c4-2.1,6.5-6.2,6.5-10.8
		c0-7.3-5.9-13.2-13.2-13.2c-7.3,0-13.2,5.9-13.2,13.2v2.8l-5.8,5.5C1969.2,537.5,1968.5,540.6,1969.6,543.4z M1975.9,540.3l7.9-7.4
		v-5.7c0-3.6,2.9-6.5,6.5-6.5c3.6,0,6.5,2.9,6.5,6.5c0,2.1-1.1,3.9-2.9,4.9l-17.3,9.2c-0.2,0.1-0.5,0.4-0.8-0.3
		C1975.6,540.5,1975.8,540.3,1975.9,540.3z"/>
</g>
<g>
	<path class="st12" d="M355.6,1301.3L355.6,1301.3l0-50.7h-30.7v-10.5h11.6l0,0h-3.3v-33.1h-8.3v-10.5h98h10.5h136.8
		c-15.5-61.1-70.8-106.3-136.7-106.3c-77.9,0-141,63.1-141,141c0,77.9,63.1,141,141,141c49.6,0,93.2-25.6,118.3-64.3H355.6V1301.3z"
		/>
	<path class="st8" d="M616.7,1152.9c-1.8-4.1-3.7-8.2-5.7-12.2l-5.9,3c2,3.8,3.8,7.8,5.5,11.8L616.7,1152.9z"/>
	<path class="st8" d="M433.6,1038.8c61,0,119,29.4,155.2,78.6l5.4-4c-37.4-50.9-97.5-81.3-160.6-81.3c-22.6,0-44.8,3.8-65.9,11.2
		l2.2,6.3C390.3,1042.4,411.7,1038.8,433.6,1038.8z"/>
	<path class="st8" d="M317,1078.1l-4-5.3c-4,3-7.9,6.2-11.6,9.6l4.4,5C309.4,1084.1,313.2,1081,317,1078.1z"/>
	<path class="st8" d="M433.6,1423.9c-106.2,0-192.5-86.4-192.5-192.5c0-40.2,12.3-78.7,35.5-111.4l-5.4-3.9
		c-24,33.8-36.7,73.6-36.7,115.2c0,109.8,89.4,199.2,199.2,199.2c53.9,0,104.4-21.2,142.1-59.6l-4.8-4.7
		C534.4,1403.4,485.6,1423.9,433.6,1423.9z"/>
	<polygon class="st13" points="573.1,1261.1 600.7,1261.1 600.7,1260 671.1,1260 671.1,1250.7 640.4,1250.7 616.8,1250.7 
		616.8,1254 562.6,1254 562.6,1250.7 562.6,1250.7 562.6,1261.1 562.6,1294.2 562.6,1301.3 625,1301.3 625,1304.7 671.1,1304.7 
		671.1,1294.2 659.4,1294.2 573.1,1294.2 	"/>
	<path class="st14" d="M547.3,1254h-9.1v-3.3h-5.7v3.3H401.2v-3.3h-45.5v50.7h207v-7.1v-33.1v-10.5h-15.3V1254z M474.9,1290.9h-91
		v-26.6h91V1290.9z M540.1,1285.6c-1.2,2.5-3.3,4.5-5.8,5.8c-14.5,7.4-29-7.1-21.6-21.6c1.2-2.5,3.3-4.5,5.8-5.8
		C533,1256.6,547.4,1271.1,540.1,1285.6z"/>
	<path class="st0" d="M518.4,1264c-2.5,1.3-4.5,3.3-5.8,5.8c-7.4,14.5,7.1,29,21.6,21.6c2.5-1.2,4.5-3.3,5.8-5.8
		C547.4,1271.1,533,1256.6,518.4,1264z M526.4,1288.1c-5.8,0-10.5-4.7-10.5-10.5c0-5.8,4.7-10.5,10.5-10.5c5.8,0,10.5,4.7,10.5,10.5
		C536.8,1283.4,532.2,1288.1,526.4,1288.1z"/>
	
		<ellipse transform="matrix(3.564659e-02 -0.9994 0.9994 3.564659e-02 -769.2245 1758.1539)" class="st15" cx="526.4" cy="1277.7" rx="10.5" ry="10.5"/>
	<polygon class="st3" points="600.7,1266.7 600.7,1261.1 573.1,1261.1 573.1,1294.2 659.4,1294.2 659.4,1266.7 	"/>
	<rect x="383.9" y="1264.4" class="st0" width="91" height="26.6"/>
	<polygon class="st5" points="600.7,1261.1 600.7,1266.7 659.4,1266.7 671.1,1266.7 671.1,1260 671.1,1260 600.7,1260 	"/>
	<polygon class="st8" points="401.2,1247.3 433.4,1247.3 433.4,1240.2 433.4,1207.1 433.4,1196.6 422.9,1196.6 324.9,1196.6 
		324.9,1207.1 333.2,1207.1 333.2,1207.1 339.9,1207.1 339.9,1207.1 422.9,1207.1 422.9,1240.2 336.5,1240.2 324.9,1240.2 
		324.9,1250.7 355.6,1250.7 401.2,1250.7 	"/>
	<path class="st11" d="M433.4,1207.1v33.1v7.1h99.2v3.3h5.7v-3.3h9.1v3.3h15.3h0v-3.3h54.2v3.3h23.5v-54h-70.1H433.4V1207.1z
		 M521.1,1210.4h91v26.6h-91V1210.4z M477.5,1209.9c2.5,1.3,4.5,3.3,5.8,5.8c7.4,14.5-7.1,29-21.6,21.6c-2.5-1.2-4.5-3.3-5.8-5.8
		C448.5,1217.1,463,1202.6,477.5,1209.9z"/>
	<path class="st0" d="M461.7,1237.3c14.5,7.4,29-7.1,21.6-21.6c-1.2-2.5-3.3-4.5-5.8-5.8c-14.5-7.4-29,7.1-21.6,21.6
		C457.1,1234.1,459.2,1236.1,461.7,1237.3z M469.6,1213.2c5.8,0,10.5,4.7,10.5,10.5c0,5.8-4.7,10.5-10.5,10.5
		c-5.8,0-10.5-4.7-10.5-10.5C459.1,1217.9,463.8,1213.2,469.6,1213.2z"/>
	<path class="st15" d="M469.6,1234.1c5.8,0,10.5-4.7,10.5-10.5c0-5.8-4.7-10.5-10.5-10.5c-5.8,0-10.5,4.7-10.5,10.5
		C459.1,1229.4,463.8,1234.1,469.6,1234.1z"/>
	<polygon class="st2" points="422.9,1207.1 339.9,1207.1 339.9,1240.2 336.5,1240.2 336.5,1240.2 422.9,1240.2 	"/>
	<rect x="521.1" y="1210.4" class="st0" width="91" height="26.6"/>
	<polygon class="st5" points="562.6,1301.3 355.6,1301.3 355.6,1301.3 355.6,1308 551.9,1308 625,1308 625,1304.7 625,1301.3 	"/>
	<polygon class="st5" points="401.2,1247.3 401.2,1250.7 401.2,1254 532.5,1254 532.5,1250.7 532.5,1247.3 433.4,1247.3 	"/>
	<polygon class="st5" points="562.6,1247.3 562.6,1250.7 562.6,1254 616.8,1254 616.8,1250.7 616.8,1247.3 	"/>
	<polygon class="st5" points="547.3,1254 547.3,1250.7 547.3,1247.3 538.2,1247.3 538.2,1250.7 538.2,1254 	"/>
	<polygon class="st0" points="339.9,1207.1 339.9,1207.1 333.2,1207.1 333.2,1207.1 333.2,1240.2 336.5,1240.2 339.9,1240.2 	"/>
</g>
<g>
	<path class="st8" d="M663.5,896.5l3.3,5.8c2.7-1.5,5.5-3.2,8.2-4.9l-3.6-5.6C668.8,893.4,666.1,895,663.5,896.5z"/>
	<path class="st8" d="M587.6,600.8c-87.7,0-160,71.4-161.1,159.1l6.7,0.1c1.1-84.1,70.3-152.5,154.4-152.5
		c85.2,0,154.5,69.3,154.5,154.5c0,46.5-20.7,90.1-56.7,119.6l4.2,5.2c37.6-30.8,59.1-76.2,59.1-124.7
		C748.7,673.1,676.4,600.8,587.6,600.8z"/>
	<path class="st8" d="M587.6,916.4c-59.7,0-114.6-34.9-139.9-89l-6,2.8c26.4,56.4,83.7,92.8,146,92.8c10.9,0,21.8-1.1,32.4-3.3
		l-1.3-6.5C608.5,915.4,598.1,916.4,587.6,916.4z"/>
	<path class="st2" d="M690.9,612.9l23.7-34.1c-5.8-4-11.9-7.8-18-11.3l-20.3,36.2C681.3,606.6,686.2,609.6,690.9,612.9z"/>
	<path class="st2" d="M682.6,560.3c-29.3-13.8-60.6-20.9-93.2-21.2l-0.3,41.5c26.5,0.2,52,6,75.8,17.2L682.6,560.3z"/>
	<path class="st2" d="M570.5,581.4l-3.8-41.3c-2.3,0.2-4.6,0.5-7,0.8l5.1,41.2C566.7,581.8,568.6,581.6,570.5,581.4z"/>
	<path class="st2" d="M406.3,762c0-69.4,40.5-133.7,103.2-163.7l-17.9-37.4c-37.4,17.9-69,45.8-91.5,80.7
		c-23.1,35.9-35.3,77.5-35.3,120.4c0,36.1,8.8,71.9,25.5,103.6l36.7-19.3C413.4,820.5,406.3,791.3,406.3,762z"/>
	<path class="st2" d="M444.8,873.7l-32.7,25.6c8.1,10.3,17.1,19.9,26.8,28.6l27.7-30.9C458.7,889.9,451.3,882.1,444.8,873.7z"/>
	<path class="st2" d="M454.2,940.5c3.2,2.4,6.5,4.7,9.8,6.9l23-34.5c-2.7-1.8-5.4-3.7-8-5.7L454.2,940.5z"/>
	<path class="st14" d="M587.6,885.1c68,0,123.1-55.1,123.1-123.1c0-68-55.1-123.1-123.1-123.1c-68,0-123.1,55.1-123.1,123.1
		C464.5,830,519.6,885.1,587.6,885.1z M647.1,706.8c14,15.1,21.7,34.7,21.7,55.2c0,2.5-0.1,5-0.3,7.3c-1.4,15.3-7.1,29.9-16.5,42.1
		l-5.3-4.1c8.7-11.3,13.9-24.6,15.1-38.7c0.2-2.1,0.3-4.4,0.3-6.7c0-18.9-7.1-36.9-19.9-50.7L647.1,706.8z M636,799.2l-5.3-4.1
		c5.5-7.2,9.2-15.7,10.6-24.6l6.6,1C646.3,781.6,642.2,791.1,636,799.2z M587.6,680.8c15.9,0,31.2,4.6,44.5,13.3
		c2.2,1.4,4.3,3,6.4,4.6l-4.2,5.2c-1.9-1.5-3.8-2.9-5.8-4.2c-12.2-8-26.3-12.2-40.8-12.2V680.8z M587.6,700.9
		c33,0,59.8,25.8,61,58.8l-6.7,0.2c-1.1-29.4-24.9-52.4-54.3-52.4V700.9z M520.4,710.8c1.9-11.4,8.8-21.2,18.9-26.8l11.2-6.2
		l23.5,42.7l-10.5,8.2c-4.3,3.3-7.1,8.2-8,13.6l0,0c-0.7,4.7,0.1,9.5,2.4,13.6l19.4,35.3c2.3,4.1,5.9,7.4,10.2,9.3
		c5,2.2,10.6,2.4,15.7,0.5l12.5-4.5l23.5,42.7l-11.2,6.2c-10.1,5.5-22.2,6.1-32.8,1.6l0,0c-4.7-2-9-5-12.5-8.7l0,0
		c-29.9-31.5-51.2-70.2-61.8-112.4l0,0C519.7,721,519.5,715.9,520.4,710.8z"/>
	<path class="st0" d="M634.3,703.9l4.2-5.2c-2-1.6-4.2-3.2-6.4-4.6c-13.2-8.7-28.6-13.3-44.5-13.3v6.7c14.6,0,28.7,4.2,40.8,12.2
		C630.4,701,632.4,702.4,634.3,703.9z"/>
	<path class="st0" d="M661.8,768.7c-1.2,14-6.5,27.4-15.1,38.7l5.3,4.1c9.4-12.3,15.1-26.8,16.5-42.1c0.2-2.3,0.3-4.8,0.3-7.3
		c0-20.5-7.7-40.2-21.7-55.2l-4.9,4.5c12.9,13.8,19.9,31.8,19.9,50.7C662.1,764.3,662,766.5,661.8,768.7z"/>
	<path class="st0" d="M641.9,760l6.7-0.2c-1.2-33-28-58.8-61-58.8v6.7C617,707.6,640.9,730.6,641.9,760z"/>
	<path class="st0" d="M630.7,795.1l5.3,4.1c6.2-8.1,10.3-17.6,11.9-27.6l-6.6-1C639.9,779.4,636.2,787.9,630.7,795.1z"/>
	<path class="st0" d="M521,726c10.6,42.1,31.9,80.9,61.8,112.4l0,0c3.5,3.7,7.8,6.7,12.5,8.7l0,0c10.6,4.5,22.7,3.9,32.8-1.6
		l11.2-6.2l-23.5-42.7l-12.5,4.5c-5.1,1.8-10.7,1.6-15.7-0.5c-4.3-1.9-7.9-5.2-10.2-9.3l-19.4-35.3c-2.3-4.1-3.1-8.9-2.4-13.6l0,0
		c0.8-5.4,3.7-10.2,8-13.6l10.5-8.2l-23.5-42.7l-11.2,6.2c-10.1,5.5-17.1,15.4-18.9,26.8C519.5,715.9,519.7,721,521,726L521,726z"/>
</g>
<g>
	<polygon class="st3" points="2349.4,815.7 2352.8,815.7 2352.8,779.2 2349.4,779.2 2349.4,708.3 2315.4,708.3 2315.4,743.1 
		2318.8,743.1 2318.8,881.5 2522.4,881.5 2522.4,884.9 2550.9,884.9 2550.9,881.5 2572.5,881.5 2572.5,884.9 2588.2,884.9 
		2588.2,850.8 2349.4,850.8 	"/>
	<path class="st2" d="M2356.1,779.2h-3.3v36.4h3.3v28.5h18.1l248.1-38.7v-75.2c-5.8-0.2-11.5-1.3-17-3.2l2.2-6.3
		c5.5,1.9,11.3,2.9,17.2,2.9c0.3,0,0.6,0,0.9,0v-17c-0.3,0-0.6,0-0.9,0c-12.2,0-22.9-6.1-29.4-15.3l-51.6,35l1.9,2.8l-9.6,6.5
		l-1.9-2.8l-12.3,8.3l1.9,2.8l-34.4,23.3L2352.8,675v22.4h3.3V779.2z"/>
	<polygon class="st0" points="2374.2,844.2 2622.3,844.2 2622.3,805.5 	"/>
	<path class="st0" d="M2359.1,671.2l130.1,88.1l30.7-20.8l1.9,2.8l12.3-8.3l-1.9-2.7l9.6-6.5l1.9,2.7l51.6-35
		c-4-5.8-6.4-12.7-6.5-20.3H2359.1z"/>
	<path class="st2" d="M2690.7,740.5l45.9,48.3c4.2-4,8.3-8.3,12.1-12.8l-50.9-43.1C2695.6,735.5,2693.2,738.1,2690.7,740.5z"/>
	<path class="st2" d="M2720.4,676.7c-1,17.1-6.6,33.7-16.2,47.8l55.2,37.3c16.3-24.1,25.8-52.2,27.5-81.2L2720.4,676.7z"/>
	<path class="st2" d="M2624.6,575c45.3,0,84.9,32.2,93.9,76.5l65.3-13.4c-15.4-75.2-82.4-129.8-159.3-129.8
		c-59.2,0-113.7,32.2-142.4,84l58.3,32.2C2557.5,594,2589.7,575,2624.6,575z"/>
	<path class="st10" d="M2608.7,671.2h-19.9c0.1,7.5,2.4,14.5,6.5,20.3c6.5,9.3,17.2,15.3,29.4,15.3c0.3,0,0.6,0,0.9,0
		c19.4-0.5,34.9-16.3,34.9-35.8c0-19.8-16.1-35.9-35.9-35.9c-17.6,0-32.2,12.7-35.3,29.4h19.3V671.2z"/>
	<path class="st5" d="M2624.6,730.4c-0.8,0-1.6-0.1-2.4-0.1v75.2v38.7h-248.1h-18.1v-28.5h-3.3h-3.3v35.2h238.8h40.7V730.2
		C2627.5,730.3,2626.1,730.4,2624.6,730.4z"/>
	<polygon class="st5" points="2489.2,767.4 2523.6,744 2521.7,741.3 2519.9,738.5 2489.2,759.3 2359.1,671.2 2588.8,671.2 
		2608.7,671.2 2608.7,664.5 2589.4,664.5 2349.4,664.5 2349.4,672.7 2352.8,675 	"/>
	<polygon class="st5" points="2532.2,730.2 2534,733 2535.9,735.7 2545.5,729.2 2543.6,726.4 2541.8,723.7 	"/>
	<polygon class="st0" points="2352.8,779.2 2356.1,779.2 2356.1,697.4 2352.8,697.4 2349.4,697.4 2349.4,708.3 2349.4,779.2 	"/>
	<polygon class="st11" points="2318.8,881.5 2318.8,743.1 2315.4,743.1 2312.1,743.1 2312.1,888.2 2522.4,888.2 2522.4,884.9 
		2522.4,881.5 	"/>
	<polygon class="st11" points="2550.9,881.5 2550.9,884.9 2550.9,888.2 2572.5,888.2 2572.5,884.9 2572.5,881.5 	"/>
	<path class="st11" d="M2624.6,611.4c-9.1,0-17.9,2-26,6l2.9,6c7.2-3.5,15-5.3,23.1-5.3c29.1,0,52.8,23.7,52.8,52.8
		c0,28.8-23.2,52.3-51.9,52.8c-0.3,0-0.6,0-0.9,0c-5.9,0-11.7-1-17.2-2.9l-2.2,6.3c5.5,1.9,11.2,2.9,17,3.2c0.8,0,1.6,0.1,2.4,0.1
		c1.4,0,2.9-0.1,4.3-0.2c30.8-2.2,55.2-27.9,55.2-59.3C2684.1,638.1,2657.4,611.4,2624.6,611.4z"/>
	<path class="st11" d="M2578.6,645.1c1.9-3.4,4.2-6.6,6.9-9.5l-5-4.5c-3,3.3-5.6,6.9-7.7,10.7L2578.6,645.1z"/>
</g>
<g>
	<path class="st2" d="M1398.6,409.2l16.1,8.7c13.6-25.1,36.8-44.6,65.5-52.7l-20-70.5c-77.6,22-131.8,93.7-131.8,174.4
		c0,10.2,0.9,20.4,2.5,30.3l54.4-9.2c-1.2-6.9-1.8-13.9-1.8-21.1C1383.6,448.1,1388.8,427.5,1398.6,409.2z"/>
	<path class="st2" d="M1335.3,518.5c5.9,20.8,15.4,40.2,28.2,57.6l44.5-32.7c-8.8-11.9-15.5-25.5-19.6-40.1L1335.3,518.5z"/>
	<path class="st2" d="M1509.6,576.9v18.2c-33.6,0-64.1-13.2-86.7-34.7l-38,40c33.8,32.1,78.1,49.8,124.7,49.8
		c40.8,0,79.4-13.3,111.6-38.5L1576,554C1556.9,569,1533.9,576.9,1509.6,576.9z"/>
	<path class="st2" d="M1583.9,547.2l50.5,53.2c27.1-25.7,45.4-58.6,52.8-94.9l-71.8-14.7C1610.9,512.3,1600,531.9,1583.9,547.2z"/>
	<path class="st3" d="M1509.6,558.4v-30c-32.8,0-59.4-26.7-59.4-59.4c0-10,2.4-19.5,7.1-28.1l-26.4-14.2
		c-6.9,12.8-10.7,27.3-10.7,42.4C1420.2,518.3,1460.3,558.4,1509.6,558.4z"/>
	<path class="st3" d="M1509.6,576.9v-11.8c-53,0-96.1-43.1-96.1-96.1c0-16.2,4.1-31.8,11.5-45.6l-10.3-5.6l-16.1-8.7
		c-9.9,18.3-15.1,38.9-15.1,59.8c0,7.2,0.6,14.3,1.8,21.1c0.8,4.5,1.8,8.9,3,13.3c4.1,14.6,10.8,28.1,19.6,40.1
		c4.5,6.1,9.5,11.7,14.9,16.9c22.6,21.5,53.1,34.7,86.7,34.7V576.9z"/>
	<path class="st11" d="M1509.6,565.1c31.4,0,60.9-15.4,78.9-41.2l-5.5-3.8c-16.7,24-44.2,38.3-73.4,38.3
		c-49.3,0-89.4-40.1-89.4-89.4c0-15.1,3.8-29.6,10.7-42.4c8.3-15.4,21.1-28.4,37.3-36.9l-3.1-5.9c-17.4,9.1-31.1,23-40,39.6
		c-7.4,13.7-11.5,29.3-11.5,45.6C1413.6,522,1456.7,565.1,1509.6,565.1z"/>
	<path class="st11" d="M1596.4,490.6c-0.6,2.3-1.2,4.6-2,6.8l6.3,2.1c0.8-2.4,1.5-4.9,2.1-7.3L1596.4,490.6z"/>
	<path class="st16" d="M1505.5,424.6c-22.7,2.1-40.4,21.2-40.4,44.4c0,24.6,20,44.6,44.6,44.6c23.7,0,43.1-18.6,44.5-42h-48.6V424.6
		z"/>
	<rect x="1709.6" y="218.2" class="st8" width="39" height="14.5"/>
	<polygon class="st8" points="1801,218.2 1801,232.6 1824.1,232.6 1824.1,232.6 1827.4,232.6 1827.4,460.5 1520,460.5 1520,453.8 
		1520,453.8 1520,232.6 1520.2,232.6 1520.2,218.2 1508.8,218.2 1508.8,388.9 1505.5,388.9 1505.5,397 1508.8,397 1508.8,412.9 
		1505.5,412.9 1505.5,424.6 1505.5,471.6 1554.1,471.6 1838.6,471.6 1838.6,218.2 	"/>
	<rect x="1663.9" y="218.2" class="st8" width="39" height="14.5"/>
	<rect x="1618.3" y="218.2" class="st8" width="39" height="14.5"/>
	<rect x="1572.6" y="218.2" class="st8" width="39" height="14.5"/>
	<rect x="1526.9" y="218.2" class="st8" width="39" height="14.5"/>
	<rect x="1755.3" y="218.2" class="st8" width="39" height="14.5"/>
	<path class="st0" d="M1794.3,232.6L1794.3,232.6l-39,0v0h-6.7v0h-39v0h-6.7v0h-39v0h-6.7v0h-39v0h-6.7v0h-39v0h-6.7v0h-39v0h-6.7v0
		h-0.3v221.2h300.8V240.4l-293.6,45.7v-46.3h293.6v-7.2h3.3v0H1801v0H1794.3z M1774.5,295.8h18.6v18.6h-18.6V295.8z M1774.5,333
		h18.6v18.6h-18.6V333z M1774.5,370.2h18.6v18.6h-18.6V370.2z M1737.2,295.8h18.6v18.6h-18.6V295.8z M1737.2,333h18.6v18.6h-18.6
		V333z M1737.2,370.2h18.6v18.6h-18.6V370.2z M1700,295.8h18.6v18.6H1700V295.8z M1700,333h18.6v18.6H1700V333z M1700,370.2h18.6
		v18.6H1700V370.2z M1700,407.5h18.6v18.6H1700V407.5z M1662.7,295.8h18.6v18.6h-18.6V295.8z M1662.7,333h18.6v18.6h-18.6V333z
		 M1662.7,370.2h18.6v18.6h-18.6V370.2z M1662.7,407.5h18.6v18.6h-18.6V407.5z M1625.5,333h18.6v18.6h-18.6V333z M1625.5,370.2h18.6
		v18.6h-18.6V370.2z M1625.5,407.5h18.6v18.6h-18.6V407.5z M1588.2,333h18.6v18.6h-18.6V333z M1588.2,370.2h18.6v18.6h-18.6V370.2z
		 M1588.2,407.5h18.6v18.6h-18.6V407.5z M1551,333h18.6v18.6H1551V333z M1551,370.2h18.6v18.6H1551V370.2z M1551,407.5h18.6v18.6
		H1551V407.5z"/>
	<path class="st17" d="M1520.2,232.6h6.7v0v-14.5v-5.5c0-4.5,3.6-8.1,8.1-8.1c4.5,0,8.1,3.6,8.1,8.1v5.5h6.7v-5.5
		c0-8.1-6.6-14.8-14.8-14.8c-8.1,0-14.8,6.6-14.8,14.8v5.5V232.6L1520.2,232.6z"/>
	<path class="st17" d="M1565.9,232.6h6.7v0v-14.5v-5.5c0-4.5,3.6-8.1,8.1-8.1c4.5,0,8.1,3.6,8.1,8.1v5.5h6.7v-5.5
		c0-8.1-6.6-14.8-14.8-14.8c-8.1,0-14.8,6.6-14.8,14.8v5.5V232.6L1565.9,232.6z"/>
	<path class="st17" d="M1611.6,232.6h6.7v0v-14.5v-5.5c0-4.5,3.6-8.1,8.1-8.1s8.1,3.6,8.1,8.1v5.5h6.7v-5.5
		c0-8.1-6.6-14.8-14.8-14.8s-14.8,6.6-14.8,14.8v5.5V232.6L1611.6,232.6z"/>
	<path class="st17" d="M1657.3,232.6h6.7v0v-14.5v-5.5c0-4.5,3.6-8.1,8.1-8.1s8.1,3.6,8.1,8.1v5.5h6.7v-5.5
		c0-8.1-6.6-14.8-14.8-14.8s-14.8,6.6-14.8,14.8v5.5V232.6L1657.3,232.6z"/>
	<path class="st17" d="M1703,232.6h6.7v0v-14.5v-5.5c0-4.5,3.6-8.1,8.1-8.1s8.1,3.6,8.1,8.1v5.5h6.7v-5.5c0-8.1-6.6-14.8-14.8-14.8
		c-8.1,0-14.8,6.6-14.8,14.8v5.5V232.6L1703,232.6z"/>
	<path class="st17" d="M1748.6,232.6h6.7v0v-14.5v-5.5c0-4.5,3.6-8.1,8.1-8.1s8.1,3.6,8.1,8.1v5.5h6.7v-5.5
		c0-8.1-6.6-14.8-14.8-14.8s-14.8,6.6-14.8,14.8v5.5V232.6L1748.6,232.6z"/>
	<path class="st17" d="M1794.3,232.6h6.7v0v-14.5v-5.5c0-4.5,3.6-8.1,8.1-8.1c4.5,0,8.1,3.6,8.1,8.1v5.5h6.7v-5.5
		c0-8.1-6.6-14.8-14.8-14.8c-8.1,0-14.8,6.6-14.8,14.8v5.5V232.6L1794.3,232.6z"/>
	<polygon class="st2" points="1527.2,239.9 1527.2,286.2 1820.8,240.4 1820.8,239.9 	"/>
	<rect x="1662.7" y="295.8" class="st18" width="18.6" height="18.6"/>
	<rect x="1700" y="295.8" class="st18" width="18.6" height="18.6"/>
	<rect x="1737.2" y="295.8" class="st18" width="18.6" height="18.6"/>
	<rect x="1774.5" y="295.8" class="st18" width="18.6" height="18.6"/>
	<rect x="1551" y="333" class="st18" width="18.6" height="18.6"/>
	<rect x="1588.2" y="333" class="st18" width="18.6" height="18.6"/>
	<rect x="1625.5" y="333" class="st18" width="18.6" height="18.6"/>
	<rect x="1662.7" y="333" class="st10" width="18.6" height="18.6"/>
	<rect x="1700" y="333" class="st18" width="18.6" height="18.6"/>
	<rect x="1737.2" y="333" class="st18" width="18.6" height="18.6"/>
	<rect x="1774.5" y="333" class="st18" width="18.6" height="18.6"/>
	<rect x="1551" y="370.2" class="st18" width="18.6" height="18.6"/>
	<rect x="1588.2" y="370.2" class="st18" width="18.6" height="18.6"/>
	<rect x="1625.5" y="370.2" class="st18" width="18.6" height="18.6"/>
	<rect x="1662.7" y="370.2" class="st18" width="18.6" height="18.6"/>
	<rect x="1700" y="370.2" class="st18" width="18.6" height="18.6"/>
	<rect x="1737.2" y="370.2" class="st11" width="18.6" height="18.6"/>
	<rect x="1774.5" y="370.2" class="st18" width="18.6" height="18.6"/>
	<rect x="1551" y="407.5" class="st18" width="18.6" height="18.6"/>
	<rect x="1588.2" y="407.5" class="st18" width="18.6" height="18.6"/>
	<rect x="1625.5" y="407.5" class="st18" width="18.6" height="18.6"/>
	<rect x="1662.7" y="407.5" class="st18" width="18.6" height="18.6"/>
	<rect x="1700" y="407.5" class="st18" width="18.6" height="18.6"/>
	<polygon class="st5" points="1820.8,239.9 1820.8,240.4 1820.8,453.8 1520,453.8 1520,453.8 1520,460.5 1827.4,460.5 1827.4,232.6 
		1824.1,232.6 1820.8,232.6 	"/>
	<polygon class="st5" points="1508.8,218.2 1508.8,218.2 1502.1,218.2 1502.1,388.9 1505.5,388.9 1508.8,388.9 	"/>
	<polygon class="st5" points="1508.8,397 1505.5,397 1502.1,397 1502.1,412.9 1505.5,412.9 1508.8,412.9 	"/>
</g>
<ellipse transform="matrix(0.2838 -0.9589 0.9589 0.2838 -148.151 2827.6775)" class="st10" cx="1818.9" cy="1513" rx="16.7" ry="16.7"/>
<path class="st10" d="M1859.3,1497.3L1859.3,1497.3c2.5,0.1,5,0.5,7.5,1.4c12.1,4.5,18.3,17.9,13.8,30c-4.5,12.1-17.9,18.3-30,13.8
	l-37.5-13.8l6.2-32.3L1859.3,1497.3z"/>
<ellipse transform="matrix(0.7071 -0.7071 0.7071 0.7071 26.7314 972.1438)" class="st7" cx="1186.8" cy="453.8" rx="33" ry="33"/>
<rect x="589.3" y="1549.4" class="st11" width="1829.7" height="33.3"/>
<g>
	<path class="st6" d="M1688.9,1582.7H949.4H1688.9z"/>
	<rect x="949.4" y="1579.4" class="st15" width="739.5" height="6.7"/>
</g>
<g>
	<path class="st6" d="M848.3,1582.7H656.6H848.3z"/>
	<rect x="656.6" y="1579.4" class="st15" width="191.7" height="6.7"/>
</g>
<g>
	<path class="st6" d="M912.8,1582.7h-30.8H912.8z"/>
	<rect x="882.1" y="1579.4" class="st15" width="30.8" height="6.7"/>
</g>
<g>
	<path class="st6" d="M2351.6,1582.7h-446.5H2351.6z"/>
	<rect x="1905.1" y="1579.4" class="st15" width="446.5" height="6.7"/>
</g>
<rect x="1489.8" y="1475.3" transform="matrix(4.589684e-02 -0.9989 0.9989 4.589684e-02 -14.1553 2942.5225)" class="st0" width="87.1" height="6.7"/>
<rect x="2123.6" y="1618.6" class="st1" width="332.9" height="33.3"/>
<rect x="1985.1" y="1618.6" class="st2" width="102.5" height="33.3"/>
<rect x="710.7" y="1685.2" class="st1" width="148.4" height="16.7"/>
<rect x="891.3" y="1685.2" class="st1" width="21.5" height="16.7"/>
<rect x="955" y="1685.2" class="st1" width="494" height="16.7"/>
<rect x="1504.1" y="1685.2" class="st1" width="211.9" height="16.7"/>
<rect x="1743.6" y="1685.2" class="st1" width="443.3" height="16.7"/>
<rect x="2238.4" y="1685.2" class="st1" width="24.1" height="16.7"/>
<rect x="1297.5" y="1618.6" class="st1" width="672.8" height="33.3"/>
<rect x="1134.4" y="1618.6" class="st2" width="127.6" height="33.3"/>
<rect x="1095.8" y="1618.6" class="st18" width="26.1" height="33.3"/>
<rect x="788.2" y="1618.6" class="st1" width="294.3" height="33.3"/>
<rect x="551.8" y="1618.6" class="st1" width="195.3" height="33.3"/>
<g>
	<path class="st19" d="M1670.8,1509.2c-6.7-1.5-12.7-4.6-17.7-8.8c1.4,7.3,2.6,14.7,3.6,22.1h48.6l1.1-5.3L1670.8,1509.2
		L1670.8,1509.2z"/>
	<polygon class="st14" points="1320.2,1463.5 1306.4,1408.6 1309.6,1407.8 1300,1369.7 1230,1450.1 1227.4,1447.9 1203.3,1475.7 
		1330.9,1492.3 1323.4,1462.7 	"/>
	<path class="st14" d="M1647.9,1495L1647.9,1495l-62.4-75.6l-9.9-12c-2.9,1.8-6,3.4-9.2,4.6l-5.6,95.5l-3.6-0.2l-0.7,15.2h100.2
		c-0.9-7.5-2.1-14.8-3.6-22.1C1651.2,1498.8,1649.5,1497,1647.9,1495z"/>
	<path class="st14" d="M1120.7,1548.8c-1.8,0-3.6-0.1-5.4-0.3c-22.9-3-39-23.9-36-46.8c0.9-7.1,3.6-13.5,7.5-19l0,0l17.4-24.2
		l-2.7-1.9l6-8.3l2.7,1.9l17.3-24l-2.7-1.9l127.6-177.4c-8.4,2.1-16.7,4.6-24.9,7.3l1.1,3.1c-8.9,3-17.7,6.4-26.3,10.2l-1.3-3.1
		c-10.9,4.8-21.5,10.2-31.8,16.1l1.7,2.9c-96.3,55.5-156.9,154.7-162,265.4h135.2L1120.7,1548.8L1120.7,1548.8z"/>
	<path class="st20" d="M1228.5,1257.3l-1.1-3.1l-1.1-3.2c-9.1,3.1-18.1,6.6-26.9,10.4l1.3,3.1l1.3,3.1
		C1210.8,1263.7,1219.6,1260.3,1228.5,1257.3z"/>
	<path class="st20" d="M1170.7,1283.4l-1.7-2.9l-1.7-2.9c-98.3,56.7-160.1,158-165.4,271.1l6.7,0.3c0-0.1,0-0.1,0-0.2
		C1013.8,1438.1,1074.4,1338.9,1170.7,1283.4z"/>
	<path class="st0" d="M1318.3,1121.7c-8.5-11.2-13.3-24.7-13.9-38.8c-0.8-18,5.3-35.4,17.2-48.9l-5-4.4
		c-13.1,14.9-19.8,33.9-18.9,53.6c0.7,15.5,6,30.2,15.3,42.6L1318.3,1121.7z"/>
	<path class="st21" d="M1512.4,1182.5c1.8,0,3.7,0.1,5.5,0.3C1516,1182.6,1514.2,1182.6,1512.4,1182.5z"/>
	<path class="st21" d="M1510.8,1182.5h1.1C1511.5,1182.5,1511.1,1182.5,1510.8,1182.5z"/>
	<path class="st21" d="M1518.8,1183c1.6,0.2,3.1,0.4,4.7,0.7C1522,1183.4,1520.4,1183.1,1518.8,1183z"/>
	<path class="st21" d="M1541.4,1190.6c1.1,0.7,2.3,1.4,3.4,2.1C1543.6,1192,1542.5,1191.3,1541.4,1190.6z"/>
	<path class="st21" d="M1549.8,1196.7c1.3,1.1,2.6,2.3,3.8,3.6C1552.4,1199,1551.1,1197.8,1549.8,1196.7z"/>
	<path class="st21" d="M1553.7,1200.4c1.2,1.3,2.4,2.7,3.5,4.1C1556.2,1203.1,1555,1201.7,1553.7,1200.4z"/>
	<path class="st21" d="M1560.2,1208.5c-0.8-1.3-1.7-2.5-2.7-3.7C1558.5,1206,1559.3,1207.3,1560.2,1208.5L1560.2,1208.5z"/>
	<path class="st21" d="M1545.7,1193.4c1.3,0.9,2.5,1.9,3.7,2.9C1548.2,1195.3,1547,1194.4,1545.7,1193.4z"/>
	<path class="st21" d="M1538.6,1189c-0.7-0.4-1.4-0.7-2.2-1c1.1,0.5,2.1,1,3.2,1.6C1539.3,1189.4,1539,1189.2,1538.6,1189z"/>
	<path class="st21" d="M1530.9,1185.7c1.2,0.4,2.3,0.8,3.4,1.3C1533.2,1186.6,1532.1,1186.1,1530.9,1185.7z"/>
	<path class="st21" d="M1525,1184c1.3,0.3,2.7,0.7,4,1.1C1527.7,1184.7,1526.4,1184.3,1525,1184z"/>
	<polygon class="st10" points="1847.4,1549.1 1975.6,1549.1 1975.6,1549.1 1847.3,1549.1 	"/>
	<g>
		<path class="st22" d="M1384.9,1263c-2.4,5.5-5.6,10.4-9.3,14.7l0,0l-41.8,48.1l-5.1,5.9l2.5,2.2l-31.1,35.8l9.6,38.2l3.2-0.8
			l13.8,54.9l-3.2,0.8l7.5,29.6l87.2,11.4l43.5-15.1c16.2-5.6,33.8,2.9,39.4,19.1c1.7,4.9,2.1,10,1.3,14.8h54.2l0.7-15.2l-3.1-0.2
			l5.4-92.8c-3.7,1-7.5,1.9-11.6,1.9l-16.9-3.3l3.4-0.7c-14.2-2.4-27.2-10.3-35.9-21.9l-0.8,0.6l-74.4-96.2l91-70.3l8.8,11.4
			l37-27.2c-0.8-1.3-1.7-2.5-2.6-3.7c-0.1-0.1-0.2-0.2-0.3-0.3c-1.1-1.4-2.3-2.8-3.5-4.1c-0.1-0.1-0.1-0.1-0.2-0.2
			c-1.2-1.3-2.5-2.4-3.8-3.6c-0.1-0.1-0.3-0.2-0.4-0.4c-1.2-1-2.4-1.9-3.7-2.9c-0.3-0.2-0.7-0.5-1-0.7c-1.1-0.8-2.2-1.4-3.4-2.1
			c-0.6-0.3-1.1-0.7-1.7-1c-1-0.6-2.1-1.1-3.2-1.6c-0.7-0.3-1.4-0.7-2.1-1c-1.1-0.5-2.3-0.9-3.4-1.3c-0.6-0.2-1.3-0.5-1.9-0.7
			c-1.3-0.4-2.6-0.7-4-1.1c-0.5-0.1-1-0.2-1.5-0.3c-1.5-0.3-3.1-0.6-4.7-0.7c-0.3,0-0.7-0.1-1-0.1c-1.8-0.2-3.6-0.3-5.5-0.3
			c-0.1,0-0.2,0-0.3,0h-0.2h-1.1h-22.9l-1.7,9.1c-5,26.4-30.5,43.7-56.9,38.6c-23.3-4.5-39.5-24.9-39.5-47.8h-50.8
			c-1.3,0-2.5,0-3.7,0.1c6.7,0.3,13.5,1.8,20,4.7C1384.3,1200,1397.6,1233.9,1384.9,1263z"/>
	</g>
	<g>
		<polygon class="st22" points="1449.8,1548.9 1424.9,1549 1424.9,1549 1420.4,1549 1418.8,1549 1418.8,1549 1345.1,1549 
			1345.2,1549.1 1555.3,1549.1 1555.3,1549.1 1449.8,1549.1 		"/>
	</g>
	<path class="st0" d="M1630.3,977.6c0.9,20.1-6.1,39.3-19.6,54.1l4.9,4.5c14.8-16.1,22.4-37,21.4-58.9c-2-44.9-22.8-87.1-57.2-115.7
		l-4.3,5.1C1608.4,894.1,1628.4,934.6,1630.3,977.6z"/>
	<path class="st15" d="M1411.7,1062.8l-9.5,0.4c-9.2,0.4-17-6.7-17.4-15.9l-0.5-10.9c-0.4-9.2,6.7-17,15.9-17.4l5.4-0.2l0,0l4.4-0.2
		c29.4-1.3,57.5-12.1,80.1-30.9h0c24.3-20.1,53.6-33.1,84.6-37.8l10.6,99.6c27.5-12.1,46.1-40.1,44.7-71.9h0
		c-3.7-84.3-75.1-149.6-159.4-145.9c-84.3,3.7-149.6,75.1-145.9,159.4c0.5,12,2.5,23.7,5.6,34.8c-16.5,13.4-26.7,34-25.7,56.9
		c1.7,38.2,34,67.8,72.3,66.1c6.6-0.3,13-1.6,19-3.6L1411.7,1062.8z"/>
	<path class="st10" d="M1429.2,1230.3c26.4,5,51.9-12.3,56.9-38.6l1.7-9.1l7.1-37.1l24-1.1c41.3-1.8,72.5-38.1,68.1-79.2l-1.7-15.7
		l-10.6-99.6c-31,4.7-60.3,17.6-84.6,37.8h0c-22.6,18.7-50.8,29.6-80.1,30.9l-4.4,0.2l0,0l-5.4,0.2c-9.2,0.4-16.3,8.2-15.9,17.4
		l0.5,10.9c0.4,9.2,8.2,16.3,17.4,15.9l9.5-0.4l-15.8,82.6l-5.4,28c-0.6,3.1-0.8,6.1-0.8,9.2
		C1389.7,1205.4,1405.9,1225.8,1429.2,1230.3z M1532.6,1095c-12.1,0.5-22.7-7.1-26.5-18.1l51.3-2.2
		C1554.6,1085.9,1544.7,1094.5,1532.6,1095z"/>
	<path class="st0" d="M1506.1,1076.9c3.8,10.9,14.4,18.6,26.5,18.1c12.2-0.5,22.1-9.1,24.8-20.3L1506.1,1076.9z"/>
	<path class="st10" d="M1585.5,1419.4l62.3,75.7l0,0c1.6,1.9,3.4,3.7,5.3,5.4c4.9,4.2,10.9,7.3,17.7,8.8l0,0l35.6,8l16-77.8l-15-5.5
		l-48.9-74.9L1585.5,1419.4z"/>
	<path class="st22" d="M1523.2,1235.8l-8.8-11.4l-91,70.3l74.4,96.2l0.8-0.6c8.8,11.7,21.7,19.5,35.9,21.9l13.5-2.7
		c3.9,0,7.9-1.1,11.6-2.2c13.7-4.2,24.9-13.4,31.6-26.1c6.7-12.6,8.1-27.1,3.9-40.8c-2-6.5-5.1-12.4-9.3-17.7l-2.3-2.9l0.3-0.2
		l-42.6-55.1l5.3-4.1l47,60.8l-0.3,0.2c3.6,5.2,6.4,10.9,8.3,17c4.7,15.4,3.1,31.7-4.4,45.8c-5.1,9.6-12.5,17.4-21.6,22.9l9.9,12
		l73.1-60.3l-53.5-81.9l-44.8-68.7l0,0l0,0L1523.2,1235.8z"/>
	<polygon class="st11" points="1320.2,1463.5 1323.4,1462.7 1326.7,1461.9 1312.9,1407 1309.6,1407.8 1306.4,1408.6 	"/>
	<path class="st22" d="M1195.2,1337.5l70.5,61.3l60.4-69.4l2.5,2.2l5.1-5.9l41.8-48.1l0,0c3.7-4.3,6.9-9.2,9.3-14.7
		c12.7-29.1-0.6-63-29.7-75.7c-6.5-2.8-13.3-4.3-20-4.7c-19.3-1-38.1,7.8-49.6,23.7l0,0l-13.7,19l2.7,1.9L1195.2,1337.5z"/>
	<polygon class="st0" points="1300,1369.7 1331.1,1333.9 1328.6,1331.7 1326.1,1329.5 1265.7,1398.9 1224.9,1445.8 1227.4,1447.9 
		1230,1450.1 	"/>
	<path class="st15" d="M1656.7,1522.5h-100.2h-54.2c-1.7,11-9.2,20.7-20.4,24.5c-3.3,1.2-6.7,1.7-10,1.7l0,0l-22,0.1v0.2h105.5
		h144.6l5.5-26.5H1656.7z"/>
	<polygon class="st0" points="1777.3,1246.2 1762.3,1246.2 1722.4,1439.5 1706.4,1517.3 1705.3,1522.5 1699.9,1549.1 1699.9,1549.1 
		1714.9,1549.1 	"/>
	<path class="st4" d="M2186.8,1246.2h-409.4l-62.4,302.9l438.6-68.4l48.3-234.5H2186.8z M1989.3,1397.6c-3.5,17.1-20.2,31-37.3,31
		c-17.1,0-28.1-13.9-24.6-31c3.5-17.1,20.2-31,37.3-31C1981.8,1366.7,1992.9,1380.5,1989.3,1397.6z"/>
	<polygon class="st18" points="1714.9,1549.1 1847.3,1549.1 1975.6,1549.1 2124.4,1549.1 2139.4,1549.1 2153.1,1482.5 
		2153.5,1480.7 	"/>
	<path class="st0" d="M1964.8,1366.7c-17.1,0-33.8,13.9-37.3,31c-3.5,17.1,7.5,31,24.6,31c17.1,0,33.8-13.9,37.3-31
		C1992.9,1380.5,1981.8,1366.7,1964.8,1366.7z"/>
	<path class="st10" d="M1418.8,1549l1.6,0l4.5,0l0,0l24.9-0.1l22-0.1l0,0c3.3,0,6.7-0.5,10-1.7c11.2-3.9,18.7-13.6,20.4-24.5
		c0.7-4.8,0.4-9.9-1.3-14.8c-5.6-16.2-23.2-24.7-39.4-19.1l-43.5,15.1l-87.2-11.4l-127.6-16.6l24.1-27.8l-2.5-2.2l40.8-46.9
		l-70.5-61.3l-65.2,90.6l-2.7-1.9l-17.3,24l2.7,1.9l-6,8.3l-2.7-1.9l-17.4,24.2l0,0c-3.9,5.4-6.6,11.9-7.5,19
		c-3,22.9,13.1,43.8,36,46.8c1.8,0.2,3.6,0.3,5.4,0.3l0,0l23.1,0l201.3,0.1L1418.8,1549L1418.8,1549z"/>
	<path class="st0" d="M1566.4,1412c3.2-1.3,6.3-2.9,9.2-4.6c9-5.5,16.5-13.3,21.6-22.9c7.5-14.2,9.1-30.5,4.4-45.8
		c-1.9-6.1-4.6-11.8-8.3-17l0.3-0.2l-47-60.8l-5.3,4.1l42.6,55.1l-0.3,0.2l2.3,2.9c4.2,5.3,7.3,11.2,9.3,17.7
		c4.2,13.7,2.8,28.2-3.9,40.8c-6.7,12.6-18,21.9-31.6,26.1c-3.7,1.1-7.7,2.2-11.6,2.2l-13.5,2.7l-3.4,0.7l16.9,3.3
		c4,0,7.9-0.9,11.6-1.9l-5.4,92.8l3.1,0.2l3.6,0.2L1566.4,1412z"/>
	<polygon class="st11" points="1101.4,1456.6 1104.1,1458.5 1106.8,1460.5 1112.8,1452.1 1110.1,1450.2 1107.4,1448.2 	"/>
	<polygon class="st11" points="1127.4,1426.2 1130.1,1428.1 1195.2,1337.5 1274.5,1227.3 1271.8,1225.4 1269.1,1223.4 
		1252.3,1246.8 1124.7,1424.2 	"/>
</g>
<g>
	<g>
		<rect x="776.3" y="323.3" class="st18" width="6.7" height="18.7"/>
		<rect x="776.3" y="435.5" class="st18" width="6.7" height="18.7"/>
	</g>
	<g>
		<rect x="748.3" y="330.8" transform="matrix(0.866 -0.5 0.5 0.866 -69.3715 421.4064)" class="st18" width="6.7" height="18.7"/>
		<rect x="804.4" y="428" transform="matrix(0.866 -0.5 0.5 0.866 -110.439 462.4815)" class="st18" width="6.7" height="18.7"/>
	</g>
	<g>
		<rect x="727.8" y="351.3" transform="matrix(0.5 -0.866 0.866 0.5 53.2108 813.5122)" class="st18" width="6.7" height="18.7"/>
		<rect x="824.9" y="407.4" transform="matrix(0.5 -0.8661 0.8661 0.5 53.2159 925.7146)" class="st18" width="6.7" height="18.7"/>
	</g>
	<g>
		<rect x="714.2" y="385.4" class="st18" width="18.7" height="6.7"/>
		<rect x="826.4" y="385.4" class="st18" width="18.7" height="6.7"/>
	</g>
	<g>
		
			<rect x="721.7" y="413.4" transform="matrix(0.8661 -0.4999 0.4999 0.8661 -110.4398 421.3135)" class="st18" width="18.7" height="6.7"/>
		
			<rect x="818.9" y="357.3" transform="matrix(0.8661 -0.4999 0.4999 0.8661 -69.3818 462.375)" class="st18" width="18.7" height="6.7"/>
	</g>
	<g>
		
			<rect x="742.3" y="434" transform="matrix(0.5001 -0.8659 0.8659 0.5001 -2.9746 869.4622)" class="st18" width="18.7" height="6.7"/>
		
			<rect x="798.4" y="336.8" transform="matrix(0.4999 -0.8661 0.8661 0.4999 109.3398 869.6489)" class="st18" width="18.7" height="6.7"/>
	</g>
</g>
<path class="st18" d="M2368.7,459.3h-6.7c0-27.1-22-49.1-49.1-49.1v-6.7c27.1,0,49.1-22,49.1-49.1h6.7c0,27.1,22,49.1,49.1,49.1v6.7
	C2390.7,410.2,2368.7,432.2,2368.7,459.3z M2331.9,406.9c15.5,5.6,27.8,17.9,33.4,33.4c5.6-15.5,17.9-27.8,33.4-33.4
	c-15.5-5.6-27.8-17.9-33.4-33.4C2359.7,388.9,2347.4,401.2,2331.9,406.9z"/>
<path class="st18" d="M2824.5,1032.4c-18.5,0-33.5-15-33.5-33.5c0-18.5,15-33.5,33.5-33.5s33.5,15,33.5,33.5
	C2858,1017.4,2843,1032.4,2824.5,1032.4z M2824.5,972.1c-14.8,0-26.8,12-26.8,26.8c0,14.8,12,26.8,26.8,26.8
	c14.8,0,26.8-12,26.8-26.8C2851.3,984.1,2839.3,972.1,2824.5,972.1z"/>
<path class="st18" d="M509.5,1516.1c-11.7,0-21.2-9.5-21.2-21.2s9.5-21.2,21.2-21.2s21.2,9.5,21.2,21.2S521.1,1516.1,509.5,1516.1z
	 M509.5,1480.3c-8,0-14.5,6.5-14.5,14.5s6.5,14.5,14.5,14.5c8,0,14.5-6.5,14.5-14.5S517.5,1480.3,509.5,1480.3z"/>
<path class="st18" d="M207.5,1018.5c-18.5,0-33.5-15-33.5-33.5c0-18.5,15-33.5,33.5-33.5s33.5,15,33.5,33.5
	C241,1003.4,226,1018.5,207.5,1018.5z M207.5,958.1c-14.8,0-26.8,12-26.8,26.8c0,14.8,12,26.8,26.8,26.8c14.8,0,26.8-12,26.8-26.8
	C234.4,970.1,222.3,958.1,207.5,958.1z"/>
<g>
	<rect x="1270.9" y="284.7" class="st18" width="64.4" height="6.7"/>
	<rect x="1299.7" y="255.9" class="st18" width="6.7" height="64.4"/>
</g>
<g>
	<rect x="2493" y="1528.3" class="st18" width="36.9" height="6.7"/>
	<rect x="2508.1" y="1513.2" class="st18" width="6.7" height="36.9"/>
</g>
<rect x="2087.1" y="1336.6" transform="matrix(0.1992 -0.98 0.98 0.1992 434.7918 3212.0068)" class="st11" width="191.4" height="6.7"/>
<path class="st23" d="M1981.3,1271.1"/>
<path class="st23" d="M1918,1271.1"/>
<path class="st23" d="M1957.6,1271.1"/>
</svg>
