<?xml version="1.0" encoding="iso-8859-1"?>
<!-- Generator: Adobe Illustrator 26.0.3, SVG Export Plug-In . SVG Version: 6.00 Build 0)  -->
<!DOCTYPE svg PUBLIC "-//W3C//DTD SVG 1.1//EN" "http://www.w3.org/Graphics/SVG/1.1/DTD/svg11.dtd" [
	<!ENTITY ns_extend "http://ns.adobe.com/Extensibility/1.0/">
	<!ENTITY ns_ai "http://ns.adobe.com/AdobeIllustrator/10.0/">
	<!ENTITY ns_graphs "http://ns.adobe.com/Graphs/1.0/">
	<!ENTITY ns_vars "http://ns.adobe.com/Variables/1.0/">
	<!ENTITY ns_imrep "http://ns.adobe.com/ImageReplacement/1.0/">
	<!ENTITY ns_sfw "http://ns.adobe.com/SaveForWeb/1.0/">
	<!ENTITY ns_custom "http://ns.adobe.com/GenericCustomNamespace/1.0/">
	<!ENTITY ns_adobe_xpath "http://ns.adobe.com/XPath/1.0/">
]>
<svg version="1.1" id="Layer_1" xmlns:x="&ns_extend;" xmlns:i="&ns_ai;" xmlns:graph="&ns_graphs;"
	 xmlns="http://www.w3.org/2000/svg" xmlns:xlink="http://www.w3.org/1999/xlink" x="0px" y="0px" viewBox="0 0 225 69"
	 style="enable-background:new 0 0 225 69;" xml:space="preserve">
<style type="text/css">
	.st0{fill-rule:evenodd;clip-rule:evenodd;fill:#FFFFFF;}
	.st1{fill-rule:evenodd;clip-rule:evenodd;fill:#303030;}
	.st2{fill-rule:evenodd;clip-rule:evenodd;fill:#80298E;}
</style>
<metadata>
	<sfw  xmlns="&ns_sfw;">
		<slices></slices>
		<sliceSourceBounds  bottomLeftOrigin="true" height="69" width="225" x="847" y="-574"></sliceSourceBounds>
	</sfw>
</metadata>
<rect class="st0" width="225" height="69"/>
<path class="st1" d="M96,13.2v40.6c0,1.2-0.9,2.4-2.4,2.4h-6.5v-3.3l-0.6,0.6L85,55c-2.1,1.5-4.4,2.1-7.4,2.1
	c-8.6,0-14.8-6.5-14.8-16c0-9.2,6.2-16,14.8-16c3.6,0,6.2,1.2,8.9,3.6v-13c0-1.5,0.9-2.4,2.4-2.4H96z M57.5,56.2h-7.1V27.5
	c0-1.2,0.9-2.4,2.4-2.4h7.1v28.7C59.8,55,59,56.2,57.5,56.2z M52.4,13.2l-5,8.6c-0.6,0.6-1.2,1.2-2.1,1.2h-5.9v33.2h-8.6
	c-1.2,0-2.4-1.2-2.4-2.7V23h-8.6v-7.1c0-1.5,1.2-2.7,2.7-2.7H52.4z M71.1,41.1c0-4.4,3.3-7.4,7.7-7.4c4.4,0,7.7,3,7.7,7.4
	s-3.3,7.7-7.7,7.7C74.3,48.8,71.1,45.5,71.1,41.1z"/>
<path class="st2" d="M183.9,42.3c1.5,0,2.4,0.9,2.7,2.1c0.6,2.4,2.1,3.6,4.1,3.6c2.4,0,4.1-1.8,4.1-3.8s-1.2-3.6-4.4-4.7
	c-3.4-1.5-6.8-3.2-10.1-5c-2.7-2.1-4.1-5.3-4.1-8.9c0-7.1,6.5-12.4,14.8-12.4c4.7,0,8.9,1.8,11.5,4.7c2.1,2.4,2.7,4.1,3,8.3h-8.9
	c-1.2,0-2.1-0.6-2.4-1.5c-0.6-1.8-1.8-2.4-3.6-2.4c-2.1,0-3.8,1.2-3.8,3s1.2,3.3,3.8,4.4l5,2.4c7.1,3.3,10.1,6.5,10.1,12.1
	c0,8.3-5.6,13-14.8,13c-9.8,0-15.7-5-15.7-13.3v-1.5H183.9z M144.2,56.2h-8.3c-1.5,0-2.7-1.2-2.7-2.7V15.6c0-1.2,1.2-2.4,2.4-2.4
	h8.6V56.2z M112.8,56.2h-11.2c-1.5,0-2.4-1.2-2.4-2.4V13.2h13.3c7.1,0,9.8,0.6,12.1,2.4c2.4,2.1,3.8,5.3,3.8,8.9
	c0,3.8-1.8,6.8-4.7,8.6c4.4,1.5,7.1,5,7.1,10.1c0,3.6-1.5,6.8-4.1,9.2C123.5,55.3,120.8,56.2,112.8,56.2z M163.2,56.2h-8.3V23h-7.7
	v-9.8h31.4l-5,8.6c-0.3,0.6-1.2,1.2-2.1,1.2h-5.6v30.5C165.8,55,164.6,56.2,163.2,56.2z M109.6,38.7v7.7h5.3c3.6,0,5.3-1.5,5.3-3.8
	c0-2.7-1.8-3.8-5.3-3.8H109.6z M110.2,23v6.5h3.8c3.3,0,4.7-1.2,4.7-3.6c0-2.1-1.5-3-4.7-3H110.2z M60.4,13.8v-0.6h-0.6
	c-0.3,0-4.4,0-6.8,2.7c-2.1,2.7-1.5,6.8-1.5,7.1v0.6h0.6c0.3,0,4.4,0,6.8-2.7C61,18.3,60.4,13.8,60.4,13.8z"/>
</svg>
