<?xml version="1.0" encoding="iso-8859-1"?>
<!-- Generator: Adobe Illustrator 26.0.3, SVG Export Plug-In . SVG Version: 6.00 Build 0)  -->
<!DOCTYPE svg PUBLIC "-//W3C//DTD SVG 1.1//EN" "http://www.w3.org/Graphics/SVG/1.1/DTD/svg11.dtd" [
	<!ENTITY ns_extend "http://ns.adobe.com/Extensibility/1.0/">
	<!ENTITY ns_ai "http://ns.adobe.com/AdobeIllustrator/10.0/">
	<!ENTITY ns_graphs "http://ns.adobe.com/Graphs/1.0/">
	<!ENTITY ns_vars "http://ns.adobe.com/Variables/1.0/">
	<!ENTITY ns_imrep "http://ns.adobe.com/ImageReplacement/1.0/">
	<!ENTITY ns_sfw "http://ns.adobe.com/SaveForWeb/1.0/">
	<!ENTITY ns_custom "http://ns.adobe.com/GenericCustomNamespace/1.0/">
	<!ENTITY ns_adobe_xpath "http://ns.adobe.com/XPath/1.0/">
]>
<svg version="1.1" id="Layer_1" xmlns:x="&ns_extend;" xmlns:i="&ns_ai;" xmlns:graph="&ns_graphs;"
	 xmlns="http://www.w3.org/2000/svg" xmlns:xlink="http://www.w3.org/1999/xlink" x="0px" y="0px" viewBox="0 0 3000 2000"
	 style="enable-background:new 0 0 3000 2000;" xml:space="preserve">
<style type="text/css">
	.st0{fill:#EDDCC3;}
	.st1{fill:#FFFFFF;}
	.st2{opacity:0.1;fill:#32323F;}
	.st3{fill:#EFAEA6;}
	.st4{fill:#1F1F39;}
	.st5{fill:#3B3B4C;}
	.st6{opacity:0.46;fill:#1F1F39;}
	.st7{opacity:0.54;fill:#1F1F39;}
	.st8{opacity:0.35;fill:#1F1F39;}
	.st9{opacity:0.14;fill:#1F1F39;}
	.st10{fill:#201B2C;}
	.st11{fill:#EEADA5;}
	.st12{fill:#603A3E;}
	.st13{fill:#775155;}
	.st14{fill:#0267A4;}
	.st15{opacity:0.22;fill:#1F1F39;}
	.st16{opacity:0.18;fill:#1F1F39;}
	.st17{fill:#F4AD00;}
	.st18{opacity:0.15;fill:#0D0D1E;}
	.st19{opacity:0.72;fill:#FFFFFF;}
	.st20{opacity:0.26;fill:#0D0D1E;}
	.st21{opacity:0.24;fill:#FFFFFF;}
	.st22{opacity:0.58;fill:none;stroke:#FFFFFF;stroke-width:4.6491;stroke-linecap:round;stroke-miterlimit:10;}
	.st23{opacity:0.2;fill:#0D0D1E;}
	.st24{fill:#FDFFFD;}
	.st25{opacity:0.14;fill:#32323F;}
	.st26{fill:#DB9507;}
	.st27{fill:none;stroke:#C17F0A;stroke-width:4.0652;stroke-miterlimit:10;}
	.st28{fill:#F4BB47;}
	.st29{fill:#F2B225;}
	.st30{fill:#F4C83D;}
	.st31{fill:none;stroke:#C17F0A;stroke-width:3.653;stroke-miterlimit:10;}
	.st32{fill:none;stroke:#C17F0A;stroke-width:3.0028;stroke-miterlimit:10;}
	.st33{fill:none;stroke:#C17F0A;stroke-width:5.1031;stroke-miterlimit:10;}
	.st34{fill:none;stroke:#C17F0A;stroke-width:2.6313;stroke-miterlimit:10;}
	.st35{fill:none;stroke:#C17F0A;stroke-width:4.2654;stroke-miterlimit:10;}
	.st36{fill:none;stroke:#C17F0A;stroke-width:2.8273;stroke-miterlimit:10;}
</style>
<metadata>
	<sfw  xmlns="&ns_sfw;">
		<slices></slices>
		<sliceSourceBounds  bottomLeftOrigin="true" height="2000" width="3000" x="-0.2" y="-1999.7"></sliceSourceBounds>
	</sfw>
</metadata>
<rect x="-0.2" y="-0.3" class="st0" width="3000" height="2000"/>
<path class="st1" d="M733.8,478.6c-44.9,3.4-87.8-1.1-131.9-12.4c-6.8-1.7-13.9-4.1-18.5-10.5c-6.9-9.8-4.9-26.2,2.6-35.3
	c7.5-9.1,18.8-11.9,29.2-10.6c6.7,0.8,13.5,3.1,19.9,0.7c8-2.9,13.4-12.1,18.7-20.1c5.4-8,12.7-15.9,21-14.6
	c6.2,0.9,11.1,6.8,16.7,10.5c5.5,3.7,13.6,4.1,16.7-2.7c6.8-14.4-2.7-54.1,32.2-54.1c50.5,0,42.2,39.9,48.3,48.3
	c9.2,12.8,25.6,10,39,5.7c13.3-4.3,29.2-8.5,39.5,3c8.9,9.9,9.8,28.2,19.3,37.3c10.1,9.7,24.5,4.5,36.7,0.2s28-5.9,35.1,7.3
	c6,11.1,1.5,27.1-7,35.3c-8.5,8.1-19.6,10.1-30.3,10.9C852.1,482.6,789.3,474.4,733.8,478.6z"/>
<path class="st2" d="M1144.4,1717.7c0,13.9-164.1,30-353.1,30S449,1736.5,449,1722.6s153.3-25.1,342.3-25.1
	S1144.4,1703.8,1144.4,1717.7z"/>
<path class="st3" d="M1120.6,1261.1c-1.6-3.1-5.6-8.5-7.7-10.8c-2.8-3.1-3.9-7.1-8.1-10c-1-0.7-2.1-1.4-3.3-2.2
	c-1.2-0.8-2.4-1.6-3.4-2.4c-6.9-5.1-10.2-9-15.7-14c0,0,15.8-24.4,20.5-22.6c2.9,1.1,6.5,5.4,11.1,10.2c1.9,2,3.9,4.1,6.1,6
	c1.1,1,2.2,1.9,3.4,2.8c2.6,1.9,5.8,3.2,9.1,4.1c9.8,2.7,19.3-3.3,18.6,3.3c-0.8,6.5-11.3,3.1,5.9,18.8c4.6,4.2-1.7,21.5-12.5,24.2
	C1141.2,1269.1,1124.4,1268.4,1120.6,1261.1z"/>
<g>
	<path class="st1" d="M942.3,1688.8c1.5-13.8,0.4-48.7,0.4-48.7l-39.7-1.3l2.1,52.4l26.3,16.7L942.3,1688.8z"/>
	<path class="st4" d="M1016.6,1720.2c-1.2,2.1-3.4,3.9-7,4.7c-1.6,0.4-3.5,0.6-5.6,0.6c-17.5-0.1-73.7-0.1-92.9-0.3
		c-0.8,0-1.5-0.1-2.2-0.3c-3-0.7-5.5-2.9-6.3-5.8c-0.2-0.6-0.3-1.3-0.5-2c-3-13.6-3.1-40.8,2-41.2c0.1,0,0.3,0.1,0.4,0.1
		c7.1,1.7,25.8,9.5,38.4,3.1c0.9-0.5,1.8-1,2.6-1.6c3.3-2.5,10.8,6.2,12.3,11.9c3.5,13.2,47.8,14.9,55.8,16.1
		C1016.3,1706,1020,1714.4,1016.6,1720.2z"/>
</g>
<g>
	<path class="st1" d="M626.1,1620.9c11.8-7.2,39-29.2,39-29.2l-23-32.4l-40.4,33.4l2.7,31L626.1,1620.9z"/>
	<path class="st4" d="M650.1,1697.5c-2.7,1.7-6.3,2.4-10.1,0.3c-0.4-0.2-0.8-0.5-1.2-0.8c-1.6-1.1-3.2-2.7-4.8-4.8
		c-8.7-11.6-33.2-44-48-63.7c-3.1-4.2-5.9-7.8-7.9-10.5c-2.4-3.2-2.5-7.5-0.2-10.5c0.4-0.5,0.9-1.1,1.4-1.6
		c9.4-11,34.1-31.1,37.4-27.3c0.2,0.4,0.4,0.8,0.6,1.2c3.5,6.6,12.3,18.2,21.9,32.1c0.7,1,1.3,2,2,2.9c2.4,3.6-1.1,5.3-4.8,10
		c-8.4,10.8,15.6,56,19.4,63C656.8,1689.6,654.3,1694.8,650.1,1697.5z"/>
</g>
<path class="st5" d="M732.8,1233.5c0.5,6.2,1.2,13,2.1,20.4c3.4,27.8,11.8,114.9,9.2,174.5c-1.2,27-116.1,119.6-123.1,133.7
	c-3.8,7.6,43.4,52.8,48.1,45.7c4.7-7,141.9-118.4,145.8-167.9c6.5-81.3,5.5-73.3,21.2-176.9l0,0c0.2,0.5,4,10.6,9.5,26.1
	c11.9,33.2,31.7,91.1,41.2,133.1c14.8,65.5,7.1,236.1,13.3,242c18.5,10.4,49.7,11.4,58-3c0,0,3.5-211-3-244.1
	c-4.4-22.5-42-242.7-50.4-301.9c0,0-165.5-34.6-170.6,19.6c-0.7,7.4-0.9,13.9-0.8,20.2c0.1,8.4-0.4,16.2-0.8,24.7
	C731.7,1193.7,730.9,1209.6,732.8,1233.5z"/>
<path class="st6" d="M799.1,1244.4C799.1,1244.4,799.1,1244.5,799.1,1244.4c0.3,0,0.5-0.1,0.5-0.1
	C799.6,1244.3,799.1,1244.4,799.1,1244.4z"/>
<path class="st7" d="M836.1,1263L836.1,1263c0.2,0.5,7.5,20.1,13,35.7l-6.5-62.7C842.6,1236,842.8,1239.7,836.1,1263z"/>
<path class="st8" d="M733.4,1178.6c1.4-0.3,65.2-13.3,73.8-43.9c0,0-55.5,4.6-73.2,6.4C733.2,1155,732.9,1170.7,733.4,1178.6z"/>
<path class="st3" d="M1044.7,907.2l-2.3,1.1c0,0-4.6,3.2-9.9,7.7c-5.9,5-12.7,11.5-15.5,17.2c-3.1,6.2-11.2,11.2-13.8,23.1
	c-1.9,8.9-34.1-1.9-34.1-1.9l1.3-43.3c10.5-9.5,35-18.7,47.3-22.4c13.7-4.2,30.8-2.5,30.8-2.5L1044.7,907.2z"/>
<path class="st9" d="M1032.4,916.1c-5.9,5-12.7,11.5-15.5,17.2c-11.6-21.4-0.3-37.8,7.2-37.5c4.7,0.2,5.2,11.5,5.2,11.5
	L1032.4,916.1z"/>
<path class="st1" d="M972.8,900.1c15.3,4.7,4,31.7,14.2,39.1c6.2,4.5,17.6-8.1,22.4-9.1c3-0.6,6-1.5,7.1,3.3
	c24,97.1-143.1,217.7-141.8,233c1,12.5-61.9-0.4-89.6-27.8c-37.9-37.6-6.9-82-0.2-90c6.7-8,127.3-140,127.3-140
	S942.7,904.8,972.8,900.1z"/>
<g>
	<path class="st10" d="M728.9,1173.9C728.9,1173.9,728.9,1173.8,728.9,1173.9c-0.1-0.2-0.1-0.3-0.2-0.4c-1-2.1-2.6-3.6-4.6-4.4
		c-0.1-0.1-0.3-0.1-0.4-0.1c-0.2-0.1-0.4-0.1-0.5-0.2l-6.6-1.6c0,0,0,0,0,0l0,0l-0.3-0.1c0,0,0,0,0,0l-0.5-0.1l-7.3-1.8l-19.6-4.9
		c-1.3-0.3-2.6-0.3-3.9,0c-4,1-7.6,4.9-8.9,10.1l-1.9,7.4l-3,11.8c0,0.1,0,0.2,0.1,0.2l6.4,1.6c0.1,0,0.2,0,0.2-0.1l3-11.8l0,0
		l0.4-1.7c1-3.9,3.7-6.7,6.6-7.5c1-0.3,2-0.3,3-0.1l16.6,4.1l7.2,1.8l0,0l2,0.5c1.9,0.5,3.4,1.9,4.2,3.7c0.8,1.6,1.1,3.7,0.8,5.8
		c-0.1,0.5-0.2,1-0.3,1.5l0,0.1l-0.4,1.5l-3.1,12l0,0.1c0,0.1,0,0.2,0.1,0.2l6.4,1.6c0.1,0,0.2,0,0.2-0.1l0-0.1l3.1-12l1.8-7.1
		C730.5,1180.1,730.1,1176.6,728.9,1173.9z"/>
	<path class="st11" d="M723.1,1133.6c0.1,0,0.1,0.1,0.1,0.2c-0.5,7.4,2,5.9,2.8,15.9c0.8,10,6.7,24.9,1.1,25.2
		c-5.6,0.3-8.5-6.2-10.8-7.9c-2.3-1.7,2.4,5.1-1.7,9c-4.1,3.9-17.9,3.7-23.2-1.2c-5.3-4.9-7.9-13-6.2-22.4c1.7-9.4,9.4-21.1,11.3-25
		C698.3,1123.6,721.2,1132.8,723.1,1133.6z"/>
	<path class="st10" d="M728.9,1173.8C728.9,1173.8,728.9,1173.8,728.9,1173.8L728.9,1173.8c-0.1-0.1-0.1-0.2-0.2-0.4
		c-1-2.1-2.6-3.7-4.6-4.5c-0.1-0.1-0.3-0.1-0.4-0.1c-0.2-0.1-0.4-0.1-0.5-0.2l-6.7-1.6l0,0l-0.3-0.1c0,0,0,0,0,0
		c-0.1,0-0.2,0.1-0.2,0.2l0.1,1.9l0,0l0,0.1l0,0l0.2,3.3l0,0.1l0,0l0.3,3.9c1.9,0.5,3.4,1.9,4.2,3.7l0,0c0.8,1.7,1.1,3.7,0.8,5.9
		c-0.1,0.5-0.2,1-0.3,1.5l0,0.1l-0.4,1.5l-3.1,12l0,0c0,0.1,0.1,0.1,0.2,0.2l6.4,1.6c0.1,0,0.2,0,0.2-0.1l3.1-12l1.9-7.2
		C730.5,1180,730.2,1176.6,728.9,1173.8z"/>
	<g>
		<path class="st12" d="M802.9,1230.7l-22.5,89.2c-1.4,5.4-7.2,8.6-13.1,7.2l-0.1,0l-173.9-40.2c-19.6-4.8-16.2-17.4-14.9-22.7
			l18.5-85c1.3-5.3,11.8-17.5,27.4-13.5l154.3,37.5l5.8,1.4C797.1,1207.6,805.9,1218.7,802.9,1230.7z"/>
		<path class="st13" d="M802.9,1230.7l-22.5,89.2c-1.4,5.4-7.2,8.6-13.1,7.2l0,0c-0.1,0-0.1-0.1-0.1-0.2c-0.6-5.8,0.2-14.4,4.4-27.3
			c10.3-31.2,9.5-69.7,7-96.3c0-0.1,0.1-0.2,0.2-0.2l5.5,1.3C797.1,1207.6,805.9,1218.7,802.9,1230.7z"/>
	</g>
</g>
<path class="st14" d="M999,1134.6c-14.7-18.8-2.7-57.1-7.9-87.5c-1.1-6.2-13.5,11.5-18.3,17.6c-16.5,20.9-19.9,37.5-23.1,44.4
	c-8.2,17.7-30.1,83.6-31.1,92.6c-2.5,22.2-79.5,0.3-73.8-11c14-27.9,39.2-60.2,67.1-117.4c21.5-44.2,56.9-56.2,73.4-93.5
	c12.5-28.2,31.3-46.3,31.3-46.3c50.6,69.5,20.2,168,24.7,175.3c13.7,22.1,52.9,70.7,73.5,94.2c4.3,4.9,7.1,8.4,7.7,10l-3.2,3.8
	l-10.3,12.4l-8.8,10.7l-1.9,2.3C1093.3,1242.2,1024.3,1166.9,999,1134.6z"/>
<path class="st14" d="M896.5,1028.9c-16.1,21.8-45.4,49.3-62.6,64.2c-30.9,26.8-28,54.1-50.9,59.6c-27.6,6.7-53.2-9.5-65.4-33
	c-7.8-15,44.4-58.7,72.1-88.6c6.1-6.6,11-12.5,13.8-17.3c3-5.1,5.4-9.3,7.5-13.1c0,0,0,0,0,0c1.9-3.3,3.5-6.3,5-9.2
	c3.9-7.2,7.6-13.7,14.1-23.8c3.2-4.9,7-10.7,11.9-17.8c14.9-21.7,40.5-48.2,57.6-52.3c40.8-9.7,75.9,3.7,75.9,3.7
	C968.3,915.9,930.7,982.6,896.5,1028.9z"/>
<path class="st14" d="M916,952.4c-133.5,64.8-133.5,55.7-146,72.1c-12.4,16.4-43,124.3-43,124.3s-36.2-12.5-36.5-19
	c-0.3-6.5,34.8-124.2,41.2-134.7c21.1-34.8,153.8-93,168.3-97.3c14.5-4.2,54.1,14.5,43.2,31.3C932.3,946,916,952.4,916,952.4z"/>
<g>
	<path class="st3" d="M1080.7,908.6c-8.9,7.7-19.5,31.4-24.2,24.8c-4.7-6.6-18.8,16.3-24,9.4c-12.6-16.6-16-43.8-9.6-51.8
		c6.4-8,29.5-23,29.5-23L1080.7,908.6z"/>
	<path class="st3" d="M1022.2,892.2c-4.1,7-2.9,23.4,3.2,38c1.9,4.6,4.3,8.9,7.2,12.7c3.1,4,9.2-2.3,14.7-6.8
		c3.8-3.1,7.3-5.4,9.2-2.7c2.5,3.6,6.7-1.7,11.5-8.5c-0.6-5.3-2.1-11.9-4.1-19.1c-3.3-11.5-8-24.7-12.6-37
		c-4.7,3.1-22.8,15.3-28.4,22.3C1022.7,891.5,1022.5,891.8,1022.2,892.2z"/>
	<path class="st4" d="M1059.2,897.7c3.2,5.8,2.1,6.9,6.5,9.3c4.4,2.5,4.8-7.7,10.9-1.5c6.1,6.2,12,13.6,20.2,8.6
		c12-7.1,3-16.1-2.8-21.5c-3.7-3.5,4.2-10.8-2-18.7c-4.8-6.2-7.9-2.8-12.5-8.1c-2.7-3.2-2-14-9.8-16.4c-14.5-4.5-17.8,10.5-31.7,8
		c-16.1-2.9-20.1,33.9-15.8,34.8c4.9,1,11.4-10.5,15.8-9.1c6.7,2.1,3.3,5.5,2.5,12c-0.8,6.9,4.3,14.7,8.2,4.5
		C1052.6,889.4,1056.3,892.5,1059.2,897.7z"/>
</g>
<path class="st15" d="M789.8,1031.1c6.1-6.6,11-12.5,13.8-17.3c3-5.1,5.4-9.3,7.5-13.1c0,0,0,0,0,0c26.2-11.5,46.7-27.7,42.8-19.1
	C851,988.3,811.5,1020.2,789.8,1031.1z"/>
<path class="st15" d="M739.8,1144.7c0.6-8,11.6-75,11.6-75l-21,67.3L739.8,1144.7z"/>
<g>
	<path class="st16" d="M980.4,941.2c-1-1.5-26.8,20.4-49.8,21.6c-6.4,0.3-12.8-0.3-18.8-2.4c-17.8-6.3-47-26.1-67.7-38
		c9.8-3.5,21.6-11.3,33.3-13.6c13.7,11.6,30.3,30.5,39.8,33.3c7,2.1,14.2,2.8,21.1,2.7c13.1-0.2,25.5-3.4,35.2-6.6
		c5-1.6,7.5-6.2,11.9-4.6C991.2,935.7,981.7,943.1,980.4,941.2z"/>
	<path class="st17" d="M991.5,939.1c1-2.8,0.9-8.1-5-10.2c-4.4-1.6-5.5,0-10.5,1.6c-14.9,4.9-36.1,9.8-56.3,3.9
		c-20.2-6-53.8-49.8-85-55.5c-31.2-5.7-50.6,16.3-94.7,5.7C696,874,658.8,838,645.8,835c-13.1-3-21.6-3.4-23.3,1.6
		c-1.7,5,1,15.5,8.2,22.5c7.1,7,80.5,43.5,101.5,49.2c34.3,9.2,74.5-8.5,96.3-1.7c21.7,6.9,60.8,37.2,85.9,46.1
		c28,9.9,63.6-12.7,64.9-10.8c1.3,2,2.5,3.8,6.4,4.4C988.3,946.7,990.6,942,991.5,939.1z"/>
</g>
<g>
	<path class="st14" d="M1166,1187c0,0,0.1,5.2,3.1,12.7c1.1,2.8,2.6,5.8,4.6,9.1c1.5,2.4,3.3,4.9,5.4,7.4c0.7,0.9,1.5,1.7,2.3,2.6
		c0.4,0.4,0.8,0.8,1.2,1.2c11,10,33.9,8.6,56-0.4c5.2-2.1,10.4-4.7,15.4-7.6c27.3-16.1,41.3-43.3,43.2-54.8
		c1.2-7.5-1.2-20.1-10-34.5c-0.4-0.7-0.8-1.3-1.3-2l-7.8,4.3l-2.9,1.6l-6.1,3.4l-82.1,45.4l-11.4,6.3l-4,2.2L1166,1187z"/>
	
		<ellipse transform="matrix(0.8218 -0.5698 0.5698 0.8218 -443.2672 906.2928)" class="st14" cx="1227.3" cy="1161.8" rx="62.7" ry="37.6"/>
	
		<ellipse transform="matrix(0.8218 -0.5698 0.5698 0.8218 -443.2672 906.2928)" class="st18" cx="1227.3" cy="1161.8" rx="62.7" ry="37.6"/>
	<path class="st19" d="M1179.8,1193.9c-1.5,6-1.8,11.1-1.1,15.3c17.6,10.9,47.9,6.9,74.6-11.5c7.9-5.5,14.8-11.7,20.4-18.3
		c0,0,0,0,0,0c7.2-23.7,8.8-40.2,8.8-40.2c-0.9-1.3-1.9-2.5-3.1-3.6C1257.8,1115.5,1193.2,1140.4,1179.8,1193.9z"/>
	<path class="st20" d="M1179.1,1216.2c-0.1,1.9-0.1,4.1,0.2,6.5c1.6-1.3,2.7-2.2,3.3-2.7c11,10,33.9,8.6,56-0.4
		c-21.8,3.5-46.7,1.1-54.6-7.7l0,0c-1.2-1.4-2.2-1.7-3-1.4c-0.3,0.1-0.5,0.3-0.7,0.6C1179.6,1212.1,1179.2,1213.9,1179.1,1216.2z"/>
	<path class="st14" d="M1202.3,1123.8c32.1-22.1,69.5-23.5,83.5-3.1c0.4,0.6,0.9,1.3,1.3,2c8.8,15.3,3,37.6-13.4,56.7c0,0,0,0,0,0
		c-5.6,6.6-12.5,12.8-20.4,18.3c-24.2,16.7-51.4,21.6-69.4,14.2c-1-0.4-2-0.9-3-1.4c-0.8-0.4-1.6-0.8-2.3-1.3
		c-3.5-2.2-6.6-5-8.9-8.4c-0.3-0.4-0.5-0.7-0.7-1.1C1156.2,1179.1,1170.9,1145.5,1202.3,1123.8z M1206.7,1130.2
		c-2.6,1.8-5,3.7-7.3,5.6c-16.3,13.9-25.3,31.6-23.9,46c0.4,4.4,1.8,8.5,4.3,12.1c11.7,16.9,42.6,15.8,69.1-2.5
		c22.7-15.7,34.8-38.8,30.5-55.7c-0.7-2.9-1.9-5.5-3.6-8c-0.2-0.3-0.5-0.7-0.7-1c-9.3-12.1-29.2-14.1-49.7-6.4
		C1219.2,1122.6,1212.8,1125.9,1206.7,1130.2z"/>
	<path class="st21" d="M1202.3,1123.8c32.1-22.1,69.5-23.5,83.5-3.1c0.4,0.6,0.9,1.3,1.3,2c8.8,15.3,3,37.6-13.4,56.7c0,0,0,0,0,0
		c-5.6,6.6-12.5,12.8-20.4,18.3c-24.2,16.7-51.4,21.6-69.4,14.2c-1-0.4-2-0.9-3-1.4c-0.8-0.4-1.6-0.8-2.3-1.3
		c-3.5-2.2-6.6-5-8.9-8.4c-0.3-0.4-0.5-0.7-0.7-1.1C1156.2,1179.1,1170.9,1145.5,1202.3,1123.8z M1206.7,1130.2
		c-2.6,1.8-5,3.7-7.3,5.6c-16.3,13.9-25.3,31.6-23.9,46c0.4,4.4,1.8,8.5,4.3,12.1c11.7,16.9,42.6,15.8,69.1-2.5
		c22.7-15.7,34.8-38.8,30.5-55.7c-0.7-2.9-1.9-5.5-3.6-8c-0.2-0.3-0.5-0.7-0.7-1c-9.3-12.1-29.2-14.1-49.7-6.4
		C1219.2,1122.6,1212.8,1125.9,1206.7,1130.2z"/>
	<path class="st14" d="M1057.6,1310.2c0.9,3.5,4,6,10.9,3.6c12.2-4.3,91.3-75.1,110.7-91.1c1.6-1.3,2.7-2.2,3.3-2.7
		c0.3-0.2,0.4-0.4,0.5-0.4c0.9-0.7,0.8-2,0.3-3.6c-0.6-1.6-1.7-3.3-3-4.8c-2.1-2.3-4.8-3.9-6.4-2.6c-0.1,0-0.1,0.1-0.2,0.2
		c-6.9,5.4-109.1,87.9-114,92.3C1057.9,1302.7,1056.7,1306.9,1057.6,1310.2z"/>
	<g>
		<path class="st22" d="M1217.2,1158.3c3.9-3.1,7.4-5.3,10-6.9c9.6-5.8,28.7-12.8,32.8-7.6s-3,17.1-6.2,19.9"/>
		<path class="st22" d="M1197.1,1178.8c3.3-4.5,6.8-8.4,10.3-11.8"/>
	</g>
	<path class="st23" d="M1057.6,1310.2c0.9,3.5,4,6,10.9,3.6c13.5-4.8,111.4-91.9,114.5-94.3c0.9-0.7,0.8-2,0.3-3.6
		C1165.5,1230.5,1081.9,1302.8,1057.6,1310.2z"/>
</g>
<path class="st3" d="M1130.9,1267.3c-7-2.8-13.6-4.7-6.6-15.5c3.1-4.8,19.1-13.8,23.2-11.5c4.1,2.3,8.7,2,10.4,5.2
	s-18.4,17.3-18.4,17.3L1130.9,1267.3z"/>
<path class="st24" d="M1649.3,746.9c-20.9,0-63.9,41.2-2.5,47.8c61.4,6.6,153.3,3.6,190.5,3.7c60.7,0.2,75.8-2.5,75.3-30.1
	c-0.3-16-8-26.3-40.1-30.5c-33.3-4.4-16.3-45.5-56.9-44.2c-34.6,1.1-38.2,54.9-69.8,41.7c-31.7-13.2-25.1,22.8-48.2,29.4
	C1672.2,771.9,1670.2,746.9,1649.3,746.9z"/>
<g>
	<path class="st25" d="M1857.6,1606.5c0,18.7-52.3,40.5-112.5,40.5c-60.2,0-109-15.2-109-33.9s48.8-33.9,109-33.9
		C1805.3,1579.2,1857.6,1587.8,1857.6,1606.5z"/>
	<g>
		<g>
			<path class="st26" d="M1846.1,1606c-13.5,18-55.2,25.8-108.2,25.4c-3.3,0-6.5-0.1-9.7-0.2c-18.3-0.4-35.6-1.7-50.6-4.3
				c-0.6-0.1-1.1-0.2-1.7-0.3c-8.8-1.5-16.7-3.5-23.6-5.9c-11-3.9-19.4-9-23.9-15.7c-2.8-4-2.9-19.3-2.9-24.3c0-0.7,0.1-1.4,0.3-2.1
				c0-0.2,0.1-0.4,0.2-0.6c0.3-1.1,0.9-2.2,1.6-3.2c0.5-0.7,1.1-1.5,1.9-2.2c9.5-9.3,35.6-15.5,69.2-17.9c0.1,0,0.2,0,0.4,0
				c3.4-0.2,6.8-0.4,10.3-0.6c2.7-0.1,5.4-0.2,8.1-0.3c1.8-0.1,3.7-0.1,5.5-0.1c4.6-0.1,9.4-0.1,14.2-0.1c1,0,1.9,0,2.9,0
				c1.9,0,3.8,0.1,5.7,0.1c0.9,0,1.9,0,2.8,0.1c1.9,0.1,3.7,0.1,5.6,0.2c51.6,2,91.6,11.6,94.2,26.7c0.1,0.5,0.1,1.1,0.1,1.6
				C1848.4,1588.1,1849.3,1601.7,1846.1,1606z"/>
			
				<ellipse transform="matrix(6.735570e-03 -1 1 6.735570e-03 143.8099 3307.8853)" class="st17" cx="1737" cy="1581.6" rx="27.9" ry="111.5"/>
			
				<ellipse transform="matrix(6.735727e-03 -1 1 6.735727e-03 143.8097 3307.885)" class="st27" cx="1737" cy="1581.6" rx="22.3" ry="89"/>
			<path class="st28" d="M1677.6,1627c-9.4-1.6-18-3.6-25.3-6.2c0.2-2.9,0.5-13.8,0.7-21.4c7.2,2.1,15.6,4,25,5.5
				C1678.2,1609.1,1678.1,1621.9,1677.6,1627z"/>
			<path class="st29" d="M1728.2,1631.3c-18.3-0.4-35.6-1.7-50.6-4.3c-0.6-0.1-1.1-0.2-1.7-0.3c-0.1-3.4,0.5-15.7,0.7-22.1
				c15,2.3,34.7,4.3,53.3,4.8C1730.1,1613.2,1729.1,1627.4,1728.2,1631.3z"/>
		</g>
		<g>
			<g transform="matrix(0.913873,-0.406001,0.406001,0.913873,-1092.67,477.809)">
				<path class="st30" d="M2154.4,2149.8c5.1,2.4,9.6,5.1,13.5,8.1c4,3,7,6.1,9.1,9.4c2.1,3.2,3.1,6.3,2.9,9.3
					c-0.2,3.5-2,5.7-5.3,6.5c-2.3,0.6-5.4,0.5-9.3-0.3c-3.8-0.7-7.5-2-11-3.6c-2.1-1-3.8-2.1-5.2-3.4c-1.4-1.3-2.1-2.4-2-3.4
					c0.1-0.8,0.7-1.1,1.8-1.1c1.2,0,2.9,0.4,5.2,1c2.7,0.8,5,1.4,6.8,1.7c1.8,0.3,3.3,0.3,4.6-0.2c1.2-0.4,1.9-1.4,2-3
					c0.1-2.1-0.9-4.4-3.2-6.9s-5.1-4.5-8.6-6.1c-2.8-1.3-5.1-2-6.8-2.1c-1.8-0.1-3.2,0.2-4.2,0.9c-1,0.7-2.1,1.8-3.2,3.2
					c-1.6,1.9-3.4,3.3-5.4,4.1c-2,0.8-4.7,1-8,0.5c-3.3-0.5-7.4-1.9-12.2-4.2c-4.6-2.2-8.7-4.6-12.2-7.4c-3.5-2.8-6.1-5.6-7.9-8.5
					c-1.8-2.9-2.6-5.8-2.4-8.5c0.1-2.2,0.9-3.8,2.3-4.8c1.4-1,3.2-1.5,5.3-1.6c2.2-0.1,4.5,0.2,6.8,0.8c2.4,0.6,4.6,1.4,6.8,2.5
					c2,0.9,3.8,2.1,5.4,3.5c1.6,1.4,2.3,2.5,2.3,3.4c-0.1,0.8-0.6,1.2-1.6,1.2c-1,0-2.6-0.3-4.9-0.8c-3.2-0.8-5.7-1.2-7.6-1.1
					c-1.8,0.1-2.8,1.1-2.9,3.1c-0.1,1.9,0.7,3.8,2.6,5.9c1.8,2.1,4.1,3.7,6.8,5c1.7,0.8,3.1,1.3,4.4,1.5c1.2,0.2,2.3,0.1,3.2-0.1
					c0.9-0.3,1.7-0.6,2.2-1.1c0.5-0.5,1.3-1.3,2.4-2.4c1.2-1.5,2.6-2.8,4-3.8c1.4-1,3.1-1.6,5.1-1.9c2-0.3,4.4,0,7.4,0.7
					C2146.6,2146.5,2150.2,2147.8,2154.4,2149.8z"/>
			</g>
			<g transform="matrix(0.913873,-0.406001,0.406001,0.913873,-1092.67,477.809)">
				<path class="st30" d="M2190.2,2179.7l-0.3,3.8c0,0.7-1.3,0.6-2.9-0.1l-103.8-48.8c-1.6-0.7-2.8-1.9-2.7-2.5l0.3-3.8
					c0-0.7,1.3-0.6,2.9,0.1l103.8,48.8C2189.1,2177.9,2190.3,2179,2190.2,2179.7z"/>
			</g>
		</g>
	</g>
</g>
<g>
	<path class="st25" d="M2347.6,1479.7c0,16.8-47,36.4-101.1,36.4s-98-13.6-98-30.5s43.9-30.5,98-30.5S2347.6,1462.8,2347.6,1479.7z"
		/>
	<g>
		<g>
			<path class="st26" d="M2337.3,1479.2c-12.1,16.2-49.6,23.1-97.2,22.8c-2.9,0-5.8-0.1-8.7-0.1c-16.4-0.4-32-1.6-45.5-3.8
				c-0.5-0.1-1-0.2-1.5-0.3c-7.9-1.4-15-3.1-21.2-5.3c-9.9-3.5-17.4-8.1-21.5-14.1c-2.5-3.6-2.6-17.4-2.6-21.9
				c0-0.6,0.1-1.3,0.2-1.9c0-0.2,0.1-0.4,0.1-0.5c0.3-1,0.8-1.9,1.5-2.9c0.5-0.7,1-1.3,1.7-1.9c8.5-8.4,32-13.9,62.2-16.1
				c0.1,0,0.2,0,0.3,0c3-0.2,6.1-0.4,9.2-0.6c2.4-0.1,4.8-0.2,7.3-0.3c1.6-0.1,3.3-0.1,5-0.1c4.2-0.1,8.4-0.1,12.8-0.1
				c0.9,0,1.7,0,2.6,0c1.7,0,3.4,0,5.1,0.1c0.8,0,1.7,0,2.5,0.1c1.7,0,3.4,0.1,5,0.2c46.4,1.8,82.3,10.4,84.6,24
				c0.1,0.5,0.1,1,0.1,1.5C2339.4,1463.1,2340.1,1475.4,2337.3,1479.2z"/>
			
				<ellipse transform="matrix(6.736123e-03 -1 1 6.736123e-03 766.9466 3686.6169)" class="st17" cx="2239.2" cy="1457.2" rx="25.1" ry="100.2"/>
			
				<ellipse transform="matrix(6.735455e-03 -1 1 6.735455e-03 766.9481 3686.6179)" class="st31" cx="2239.2" cy="1457.2" rx="20.1" ry="80"/>
			<path class="st28" d="M2185.9,1498.1c-8.5-1.4-16.1-3.2-22.7-5.6c0.2-2.6,0.5-12.4,0.6-19.2c6.5,1.9,14,3.6,22.4,4.9
				C2186.4,1482,2186.3,1493.5,2185.9,1498.1z"/>
			<path class="st29" d="M2231.4,1501.9c-16.4-0.4-32-1.6-45.5-3.8c-0.5-0.1-1-0.2-1.5-0.3c-0.1-3.1,0.5-14.1,0.6-19.9
				c13.5,2.1,31.2,3.8,47.9,4.3C2233.1,1485.7,2232.1,1498.5,2231.4,1501.9z"/>
		</g>
		<g>
			<g transform="matrix(0.913873,-0.406001,0.406001,0.913873,-1092.67,477.809)">
				<path class="st30" d="M2662.1,2240.9c4.6,2.1,8.6,4.6,12.2,7.3c3.6,2.7,6.3,5.5,8.2,8.4c1.9,2.9,2.8,5.7,2.6,8.3
					c-0.2,3.2-1.8,5.1-4.7,5.9c-2.1,0.5-4.9,0.4-8.3-0.2c-3.4-0.7-6.7-1.8-9.9-3.3c-1.8-0.9-3.4-1.9-4.7-3.1c-1.3-1.2-1.9-2.2-1.8-3
					c0-0.7,0.6-1,1.7-1c1.1,0,2.6,0.3,4.6,0.9c2.4,0.7,4.4,1.2,6.1,1.5c1.6,0.3,3,0.2,4.1-0.1c1.1-0.4,1.7-1.3,1.8-2.7
					c0.1-1.9-0.8-4-2.8-6.2c-2-2.2-4.6-4-7.8-5.5c-2.5-1.2-4.5-1.8-6.1-1.9c-1.6-0.1-2.8,0.2-3.7,0.8c-0.9,0.6-1.9,1.6-2.9,2.9
					c-1.4,1.7-3,3-4.8,3.7c-1.8,0.8-4.2,0.9-7.2,0.4c-3-0.5-6.6-1.7-11-3.8c-4.1-1.9-7.8-4.2-10.9-6.6c-3.2-2.5-5.5-5-7.1-7.7
					c-1.6-2.6-2.3-5.2-2.2-7.7c0.1-2,0.8-3.4,2.1-4.3c1.2-0.9,2.8-1.4,4.8-1.4c2-0.1,4,0.2,6.1,0.7c2.1,0.5,4.2,1.3,6.1,2.2
					c1.8,0.9,3.4,1.9,4.8,3.1c1.4,1.2,2.1,2.3,2,3.1c-0.1,0.7-0.5,1.1-1.4,1.1c-0.9,0-2.4-0.3-4.4-0.8c-2.9-0.8-5.1-1.1-6.8-1
					c-1.6,0.1-2.5,1-2.6,2.8c-0.1,1.7,0.7,3.4,2.3,5.3s3.7,3.3,6.1,4.5c1.5,0.7,2.8,1.1,3.9,1.3c1.1,0.2,2.1,0.1,2.9-0.1
					c0.8-0.2,1.5-0.6,2-1c0.5-0.4,1.2-1.2,2.2-2.2c1.1-1.3,2.3-2.5,3.6-3.4c1.3-0.9,2.8-1.5,4.6-1.7c1.8-0.2,4,0,6.6,0.6
					C2655.1,2237.9,2658.3,2239.1,2662.1,2240.9z"/>
			</g>
			<g transform="matrix(0.913873,-0.406001,0.406001,0.913873,-1092.67,477.809)">
				<path class="st30" d="M2694.4,2267.8l-0.2,3.4c0,0.6-1.2,0.5-2.6-0.1l-93.2-43.9c-1.4-0.7-2.5-1.7-2.5-2.3l0.2-3.4
					c0-0.6,1.2-0.5,2.6,0.1l93.2,43.9C2693.3,2266.1,2694.4,2267.2,2694.4,2267.8z"/>
			</g>
		</g>
	</g>
</g>
<g>
	<path class="st25" d="M2549.2,1381.4c0,13.8-38.6,29.9-83.1,29.9c-44.5,0-80.5-11.2-80.5-25c0-13.8,36.1-25,80.5-25
		C2510.6,1361.2,2549.2,1367.5,2549.2,1381.4z"/>
	<g>
		<g>
			<path class="st26" d="M2540.8,1381c-10,13.3-40.8,19-79.9,18.8c-2.4,0-4.8-0.1-7.2-0.1c-13.5-0.3-26.3-1.3-37.4-3.1
				c-0.4-0.1-0.8-0.1-1.2-0.2c-6.5-1.1-12.4-2.6-17.4-4.4c-8.2-2.9-14.3-6.7-17.7-11.6c-2-3-2.1-14.3-2.1-18c0-0.5,0.1-1.1,0.2-1.6
				c0-0.1,0.1-0.3,0.1-0.4c0.2-0.8,0.7-1.6,1.2-2.3c0.4-0.5,0.8-1.1,1.4-1.6c7-6.9,26.3-11.4,51.1-13.2c0.1,0,0.2,0,0.3,0
				c2.5-0.2,5-0.3,7.6-0.5c2-0.1,4-0.2,6-0.2c1.4,0,2.7-0.1,4.1-0.1c3.4-0.1,6.9-0.1,10.5-0.1c0.7,0,1.4,0,2.1,0
				c1.4,0,2.8,0,4.2,0.1c0.7,0,1.4,0,2.1,0.1c1.4,0,2.8,0.1,4.1,0.1c38.1,1.5,67.6,8.5,69.6,19.7c0.1,0.4,0.1,0.8,0.1,1.2
				C2542.5,1367.8,2543.1,1377.8,2540.8,1381z"/>
			
				<ellipse transform="matrix(6.736428e-03 -1 1 6.736428e-03 1080.6976 3813.8916)" class="st17" cx="2460.2" cy="1362.9" rx="20.6" ry="82.3"/>
			
				<ellipse transform="matrix(6.736574e-03 -1 1 6.736574e-03 1080.6973 3813.8914)" class="st32" cx="2460.2" cy="1362.9" rx="16.5" ry="65.8"/>
			<path class="st28" d="M2416.3,1396.5c-7-1.2-13.3-2.7-18.7-4.6c0.2-2.1,0.4-10.2,0.5-15.8c5.3,1.6,11.5,2.9,18.4,4.1
				C2416.8,1383.3,2416.6,1392.8,2416.3,1396.5z"/>
			<path class="st29" d="M2453.7,1399.7c-13.5-0.3-26.3-1.3-37.4-3.1c-0.4-0.1-0.8-0.1-1.2-0.2c-0.1-2.5,0.4-11.6,0.5-16.3
				c11.1,1.7,25.6,3.1,39.4,3.5C2455.1,1386.3,2454.3,1396.8,2453.7,1399.7z"/>
		</g>
		<g>
			<g transform="matrix(0.913873,-0.406001,0.406001,0.913873,-1092.67,477.809)">
				<path class="st30" d="M2899.7,2245.7c3.7,1.8,7.1,3.8,10,6c2.9,2.2,5.2,4.5,6.8,6.9c1.6,2.4,2.3,4.7,2.2,6.8
					c-0.2,2.6-1.5,4.2-3.9,4.8c-1.7,0.4-4,0.4-6.8-0.2c-2.8-0.6-5.5-1.4-8.1-2.7c-1.5-0.7-2.8-1.6-3.9-2.5c-1.1-1-1.6-1.8-1.5-2.5
					c0-0.6,0.5-0.8,1.4-0.8s2.1,0.3,3.8,0.8c2,0.6,3.7,1,5,1.2c1.3,0.2,2.5,0.2,3.4-0.1c0.9-0.3,1.4-1,1.5-2.2
					c0.1-1.6-0.7-3.3-2.3-5.1c-1.7-1.8-3.8-3.3-6.4-4.5c-2.1-1-3.7-1.5-5-1.6c-1.3-0.1-2.3,0.2-3.1,0.7c-0.7,0.5-1.5,1.3-2.4,2.4
					c-1.2,1.4-2.5,2.4-4,3s-3.4,0.7-5.9,0.4c-2.5-0.4-5.5-1.4-9-3.1c-3.4-1.6-6.4-3.4-9-5.5c-2.6-2-4.5-4.1-5.9-6.3
					c-1.3-2.2-1.9-4.3-1.8-6.3c0.1-1.6,0.7-2.8,1.7-3.5s2.3-1.1,3.9-1.2c1.6,0,3.3,0.2,5,0.6c1.7,0.4,3.4,1.1,5.1,1.8
					c1.5,0.7,2.8,1.6,4,2.6s1.7,1.9,1.7,2.5c0,0.6-0.4,0.9-1.2,0.9c-0.7,0-1.9-0.2-3.6-0.6c-2.4-0.6-4.2-0.9-5.6-0.8
					c-1.4,0.1-2.1,0.8-2.2,2.3c-0.1,1.4,0.5,2.8,1.9,4.3c1.4,1.5,3,2.7,5,3.7c1.2,0.6,2.3,0.9,3.2,1.1c0.9,0.1,1.7,0.1,2.4-0.1
					c0.7-0.2,1.2-0.5,1.6-0.8c0.4-0.3,1-0.9,1.8-1.8c0.9-1.1,1.9-2,3-2.8c1.1-0.7,2.3-1.2,3.8-1.4c1.5-0.2,3.3,0,5.5,0.5
					C2893.9,2243.2,2896.6,2244.2,2899.7,2245.7z"/>
			</g>
			<g transform="matrix(0.913873,-0.406001,0.406001,0.913873,-1092.67,477.809)">
				<path class="st30" d="M2926.2,2267.7l-0.2,2.8c0,0.5-1,0.5-2.1-0.1l-76.6-36.1c-1.2-0.5-2.1-1.4-2-1.9l0.2-2.8
					c0-0.5,1-0.5,2.1,0.1l76.6,36.1C2925.3,2266.4,2926.2,2267.3,2926.2,2267.7z"/>
			</g>
		</g>
	</g>
</g>
<g>
	<path class="st25" d="M1593.6,1697.7c0,25.6-71.5,55.4-153.9,55.4c-82.4,0-149.2-20.8-149.2-46.4c0-25.6,66.8-46.4,149.2-46.4
		C1522.1,1660.3,1593.6,1672.1,1593.6,1697.7z"/>
	<g>
		<g>
			<path class="st26" d="M1569.8,1706.5c-16.9,22.6-69.3,32.3-135.8,31.9c-4.1,0-8.2-0.1-12.2-0.2c-22.9-0.5-44.6-2.2-63.5-5.3
				c-0.7-0.1-1.4-0.2-2.1-0.4c-11-1.9-21-4.4-29.7-7.4c-13.9-4.9-24.3-11.3-30-19.7c-3.5-5.1-3.6-24.3-3.6-30.6
				c0-0.9,0.1-1.8,0.3-2.7c0.1-0.2,0.1-0.5,0.2-0.7c0.4-1.4,1.1-2.7,2-4c0.7-0.9,1.4-1.8,2.4-2.7c11.9-11.7,44.6-19.4,86.9-22.5
				c0.2,0,0.3,0,0.5,0c4.2-0.3,8.5-0.6,12.9-0.8c3.4-0.2,6.8-0.3,10.2-0.4c2.3-0.1,4.6-0.1,7-0.2c5.8-0.1,11.8-0.2,17.8-0.1
				c1.2,0,2.4,0,3.6,0c2.4,0,4.8,0.1,7.2,0.1c1.2,0,2.4,0,3.5,0.1c2.4,0.1,4.7,0.1,7,0.2c64.8,2.5,114.9,14.5,118.2,33.5
				c0.1,0.7,0.2,1.4,0.2,2.1C1572.7,1684.1,1573.8,1701.1,1569.8,1706.5z"/>
			
				<ellipse transform="matrix(6.735800e-03 -1 1 6.735800e-03 -252.55 3097.3713)" class="st17" cx="1432.9" cy="1675.8" rx="35.1" ry="139.9"/>
			
				<ellipse transform="matrix(6.735776e-03 -1 1 6.735776e-03 -252.5499 3097.3713)" class="st33" cx="1432.9" cy="1675.8" rx="28" ry="111.7"/>
			<path class="st28" d="M1358.3,1732.9c-11.8-2-22.5-4.5-31.8-7.8c0.3-3.6,0.6-17.3,0.8-26.9c9.1,2.7,19.6,5,31.3,6.9
				C1359.1,1710.4,1358.9,1726.5,1358.3,1732.9z"/>
			<path class="st29" d="M1421.9,1738.2c-22.9-0.5-44.6-2.2-63.5-5.3c-0.7-0.1-1.4-0.2-2.1-0.4c-0.1-4.3,0.6-19.7,0.8-27.7
				c18.8,2.9,43.6,5.3,66.9,6C1424.2,1715.6,1422.9,1733.4,1421.9,1738.2z"/>
		</g>
		<g>
			<g transform="matrix(0.913873,-0.406001,0.406001,0.913873,-1092.67,477.809)">
				<path class="st30" d="M1842.4,2110.5c6.4,3,12,6.4,17,10.2c5,3.8,8.8,7.7,11.5,11.7c2.7,4,3.9,7.9,3.7,11.6
					c-0.3,4.4-2.5,7.2-6.6,8.2c-2.9,0.7-6.8,0.6-11.6-0.3c-4.8-0.9-9.4-2.5-13.8-4.5c-2.6-1.2-4.8-2.6-6.6-4.3
					c-1.8-1.6-2.6-3-2.6-4.2c0.1-1,0.8-1.4,2.3-1.4c1.5,0,3.6,0.4,6.5,1.3c3.4,1,6.2,1.7,8.5,2.1c2.3,0.4,4.2,0.3,5.7-0.2
					c1.5-0.5,2.4-1.8,2.5-3.7c0.2-2.7-1.1-5.6-4-8.6c-2.8-3.1-6.4-5.6-10.8-7.7c-3.5-1.6-6.4-2.5-8.6-2.6c-2.2-0.1-4,0.3-5.2,1.2
					c-1.2,0.9-2.6,2.3-4,4.1c-2,2.4-4.2,4.1-6.7,5.2c-2.5,1.1-5.8,1.3-10,0.6c-4.2-0.6-9.3-2.4-15.4-5.3c-5.8-2.7-10.9-5.8-15.3-9.3
					c-4.4-3.5-7.7-7-10-10.7c-2.2-3.7-3.2-7.3-3-10.7c0.2-2.8,1.1-4.8,2.9-6c1.7-1.3,4-1.9,6.7-2c2.7-0.1,5.6,0.3,8.5,1
					c3,0.8,5.8,1.8,8.6,3.1c2.5,1.2,4.8,2.6,6.8,4.4c2,1.7,2.9,3.2,2.9,4.3c-0.1,1-0.7,1.5-2,1.5c-1.3,0-3.3-0.4-6.1-1.1
					c-4-1-7.2-1.5-9.5-1.4c-2.3,0.1-3.5,1.4-3.7,3.9c-0.2,2.3,0.9,4.8,3.2,7.4c2.3,2.6,5.2,4.7,8.6,6.3c2.1,1,3.9,1.6,5.5,1.8
					c1.6,0.2,2.9,0.2,4.1-0.2c1.2-0.3,2.1-0.8,2.8-1.4c0.7-0.6,1.7-1.6,3-3.1c1.6-1.9,3.2-3.5,5-4.7c1.8-1.3,4-2.1,6.4-2.4
					c2.5-0.3,5.6,0,9.3,0.9C1832.6,2106.3,1837.1,2108,1842.4,2110.5z"/>
			</g>
			<g transform="matrix(0.913873,-0.406001,0.406001,0.913873,-1092.67,477.809)">
				<path class="st30" d="M1887.4,2148l-0.3,4.8c-0.1,0.8-1.7,0.8-3.6-0.2l-130.2-61.3c-2-0.9-3.5-2.3-3.4-3.2l0.3-4.8
					c0.1-0.8,1.7-0.8,3.6,0.2l130.2,61.3C1885.9,2145.8,1887.5,2147.2,1887.4,2148z"/>
			</g>
		</g>
	</g>
	<path class="st1" d="M1453.6,1629.2c23.9-3.8,27.4-14.7,31.8-48.4c3.1,32,7.1,44.1,31.4,47.8c-21.2,9.1-28.7,12.4-32.5,49.4
		C1479.1,1640.5,1474.4,1637.2,1453.6,1629.2z"/>
</g>
<g>
	<path class="st25" d="M2753.6,1330.9c0,13.2-36.9,28.6-79.4,28.6c-42.5,0-76.9-10.7-76.9-23.9s34.4-23.9,76.9-23.9
		C2716.7,1311.6,2753.6,1317.7,2753.6,1330.9z"/>
	<g>
		<g>
			<path class="st26" d="M2741.3,1335.4c-8.7,11.6-35.7,16.7-70,16.4c-2.1,0-4.2,0-6.3-0.1c-11.8-0.3-23-1.1-32.8-2.8
				c-0.4-0.1-0.7-0.1-1.1-0.2c-5.7-1-10.8-2.3-15.3-3.8c-7.1-2.5-12.5-5.8-15.5-10.1c-1.8-2.6-1.9-12.5-1.8-15.8
				c0-0.5,0.1-0.9,0.2-1.4c0-0.1,0.1-0.3,0.1-0.4c0.2-0.7,0.6-1.4,1-2.1c0.3-0.5,0.7-1,1.2-1.4c6.2-6,23-10,44.8-11.6
				c0.1,0,0.2,0,0.2,0c2.2-0.2,4.4-0.3,6.7-0.4c1.7-0.1,3.5-0.2,5.3-0.2c1.2,0,2.4-0.1,3.6-0.1c3-0.1,6.1-0.1,9.2-0.1
				c0.6,0,1.2,0,1.9,0c1.2,0,2.5,0,3.7,0.1c0.6,0,1.2,0,1.8,0c1.2,0,2.4,0.1,3.6,0.1c33.4,1.3,59.3,7.5,61,17.3
				c0.1,0.4,0.1,0.7,0.1,1.1C2742.8,1323.9,2743.4,1332.7,2741.3,1335.4z"/>
			
				<ellipse transform="matrix(6.736015e-03 -1 1 6.736015e-03 1333.1359 3981.3447)" class="st17" cx="2670.7" cy="1319.6" rx="18.1" ry="72.1"/>
			
				<ellipse transform="matrix(6.734988e-03 -1 1 6.734988e-03 1333.1385 3981.3462)" class="st34" cx="2670.7" cy="1319.6" rx="14.4" ry="57.6"/>
			<path class="st28" d="M2632.2,1349c-6.1-1-11.6-2.3-16.4-4c0.1-1.9,0.3-8.9,0.4-13.9c4.7,1.4,10.1,2.6,16.2,3.6
				C2632.6,1337.4,2632.5,1345.7,2632.2,1349z"/>
			<path class="st29" d="M2665,1351.8c-11.8-0.3-23-1.1-32.8-2.8c-0.4-0.1-0.7-0.1-1.1-0.2c-0.1-2.2,0.3-10.2,0.4-14.3
				c9.7,1.5,22.5,2.8,34.5,3.1C2666.2,1340.1,2665.5,1349.3,2665,1351.8z"/>
		</g>
		<g>
			<g transform="matrix(0.913873,-0.406001,0.406001,0.913873,-1092.67,477.809)">
				<path class="st30" d="M3108.2,2292.2c3.3,1.5,6.2,3.3,8.8,5.2c2.6,2,4.5,4,5.9,6.1c1.4,2.1,2,4.1,1.9,6
					c-0.2,2.3-1.3,3.7-3.4,4.2c-1.5,0.4-3.5,0.3-6-0.2c-2.5-0.5-4.9-1.3-7.1-2.3c-1.3-0.6-2.5-1.4-3.4-2.2c-0.9-0.8-1.4-1.6-1.3-2.2
					c0-0.5,0.4-0.7,1.2-0.7s1.9,0.2,3.3,0.7c1.7,0.5,3.2,0.9,4.4,1.1c1.2,0.2,2.2,0.2,3-0.1c0.8-0.3,1.2-0.9,1.3-1.9
					c0.1-1.4-0.6-2.9-2-4.5c-1.5-1.6-3.3-2.9-5.6-4c-1.8-0.8-3.3-1.3-4.4-1.4c-1.2-0.1-2,0.1-2.7,0.6s-1.3,1.2-2.1,2.1
					c-1,1.2-2.2,2.1-3.5,2.7s-3,0.7-5.2,0.3c-2.2-0.3-4.8-1.2-7.9-2.7c-3-1.4-5.6-3-7.9-4.8c-2.3-1.8-4-3.6-5.1-5.5
					c-1.2-1.9-1.7-3.7-1.6-5.5c0.1-1.4,0.6-2.5,1.5-3.1c0.9-0.6,2-1,3.5-1c1.4,0,2.9,0.1,4.4,0.5s3,0.9,4.4,1.6
					c1.3,0.6,2.5,1.4,3.5,2.3c1,0.9,1.5,1.6,1.5,2.2c0,0.5-0.4,0.8-1,0.8c-0.6,0-1.7-0.2-3.1-0.5c-2.1-0.5-3.7-0.8-4.9-0.7
					c-1.2,0.1-1.8,0.7-1.9,2c-0.1,1.2,0.5,2.5,1.7,3.8c1.2,1.3,2.7,2.4,4.4,3.2c1.1,0.5,2,0.8,2.8,0.9c0.8,0.1,1.5,0.1,2.1-0.1
					c0.6-0.2,1.1-0.4,1.4-0.7c0.3-0.3,0.9-0.8,1.6-1.6c0.8-1,1.7-1.8,2.6-2.4c0.9-0.7,2-1.1,3.3-1.2c1.3-0.2,2.9,0,4.8,0.5
					C3103.1,2290.1,3105.4,2290.9,3108.2,2292.2z"/>
			</g>
			<g transform="matrix(0.913873,-0.406001,0.406001,0.913873,-1092.67,477.809)">
				<path class="st30" d="M3131.4,2311.6l-0.2,2.5c0,0.4-0.9,0.4-1.9-0.1l-67.2-31.6c-1-0.5-1.8-1.2-1.8-1.6l0.2-2.5
					c0-0.4,0.9-0.4,1.9,0.1l67.2,31.6C3130.6,2310.4,3131.4,2311.1,3131.4,2311.6z"/>
			</g>
		</g>
	</g>
	<path class="st1" d="M2661.4,1293.5c12.3-2,14.1-7.6,16.4-25c1.6,16.5,3.6,22.8,16.2,24.6c-11,4.7-14.8,6.4-16.8,25.5
		C2674.6,1299.4,2672.2,1297.7,2661.4,1293.5z"/>
</g>
<g>
	<path class="st25" d="M2188.3,1605.1c0,21.4-59.8,46.3-128.6,46.3c-68.9,0-124.7-17.4-124.7-38.8s55.8-38.8,124.7-38.8
		C2128.5,1573.8,2188.3,1583.7,2188.3,1605.1z"/>
	<g>
		<g>
			<path class="st26" d="M2168.4,1612.4c-14.1,18.9-57.9,27-113.5,26.6c-3.4,0-6.8-0.1-10.2-0.2c-19.2-0.4-37.3-1.8-53.1-4.5
				c-0.6-0.1-1.2-0.2-1.8-0.3c-9.2-1.6-17.5-3.7-24.8-6.2c-11.6-4.1-20.3-9.5-25.1-16.4c-2.9-4.2-3-20.3-3-25.5
				c0-0.8,0.1-1.5,0.3-2.2c0-0.2,0.1-0.4,0.2-0.6c0.4-1.1,0.9-2.3,1.7-3.3c0.5-0.8,1.2-1.5,2-2.3c10-9.8,37.3-16.2,72.6-18.8
				c0.1,0,0.3,0,0.4,0c3.5-0.3,7.1-0.5,10.8-0.6c2.8-0.1,5.7-0.2,8.5-0.3c1.9-0.1,3.9-0.1,5.8-0.1c4.9-0.1,9.8-0.1,14.9-0.1
				c1,0,2,0,3,0c2,0,4,0.1,6,0.1c1,0,2,0,3,0.1c2,0.1,3.9,0.1,5.9,0.2c54.2,2.1,96.1,12.1,98.8,28c0.1,0.6,0.1,1.1,0.1,1.7
				C2170.9,1593.7,2171.8,1607.9,2168.4,1612.4z"/>
			
				<ellipse transform="matrix(6.735913e-03 -1 1 6.735913e-03 453.4074 3630.02)" class="st17" cx="2054" cy="1586.8" rx="29.3" ry="117"/>
			
				<ellipse transform="matrix(6.736191e-03 -1 1 6.736191e-03 453.4068 3630.0198)" class="st35" cx="2054" cy="1586.8" rx="23.4" ry="93.4"/>
			<path class="st28" d="M1991.7,1634.5c-9.9-1.6-18.8-3.8-26.5-6.5c0.2-3,0.5-14.5,0.7-22.5c7.6,2.2,16.4,4.2,26.2,5.8
				C1992.3,1615.7,1992.1,1629.1,1991.7,1634.5z"/>
			<path class="st29" d="M2044.8,1638.9c-19.2-0.4-37.3-1.8-53.1-4.5c-0.6-0.1-1.2-0.2-1.8-0.3c-0.1-3.6,0.5-16.5,0.7-23.2
				c15.7,2.4,36.4,4.5,55.9,5C2046.8,1620,2045.6,1634.9,2044.8,1638.9z"/>
		</g>
		<g>
			<g transform="matrix(0.913873,-0.406001,0.406001,0.913873,-1092.67,477.809)">
				<path class="st30" d="M2442.7,2282.9c5.3,2.5,10,5.3,14.2,8.5c4.2,3.2,7.4,6.4,9.6,9.8c2.2,3.4,3.3,6.6,3.1,9.7
					c-0.2,3.7-2.1,6-5.5,6.9c-2.5,0.6-5.7,0.5-9.7-0.3c-4-0.8-7.9-2.1-11.6-3.8c-2.2-1-4-2.2-5.5-3.6c-1.5-1.4-2.2-2.5-2.1-3.5
					c0.1-0.8,0.7-1.2,1.9-1.2s3,0.4,5.4,1.1c2.8,0.8,5.2,1.4,7.1,1.8c1.9,0.3,3.5,0.3,4.8-0.2c1.3-0.4,2-1.5,2.1-3.1
					c0.2-2.3-1-4.7-3.3-7.2c-2.4-2.6-5.4-4.7-9.1-6.4c-2.9-1.4-5.3-2.1-7.2-2.2c-1.9-0.1-3.3,0.2-4.4,1c-1,0.8-2.2,1.9-3.4,3.4
					c-1.7,2-3.5,3.4-5.6,4.3c-2.1,0.9-4.9,1.1-8.4,0.5c-3.5-0.5-7.8-2-12.8-4.4c-4.8-2.3-9.1-4.9-12.8-7.8c-3.7-2.9-6.4-5.9-8.3-9
					c-1.9-3.1-2.7-6.1-2.5-9c0.2-2.3,1-4,2.4-5s3.3-1.6,5.6-1.7c2.3-0.1,4.7,0.2,7.1,0.9c2.5,0.6,4.9,1.5,7.2,2.6
					c2.1,1,4,2.2,5.7,3.7s2.5,2.6,2.4,3.6c-0.1,0.9-0.6,1.3-1.7,1.3c-1,0-2.7-0.3-5.1-0.9c-3.4-0.9-6-1.3-7.9-1.2
					c-1.9,0.1-2.9,1.2-3.1,3.3c-0.1,2,0.8,4,2.7,6.2c1.9,2.2,4.3,3.9,7.2,5.2c1.8,0.8,3.3,1.3,4.6,1.5c1.3,0.2,2.4,0.1,3.4-0.1
					c1-0.3,1.7-0.7,2.3-1.2c0.6-0.5,1.4-1.3,2.5-2.6c1.3-1.6,2.7-2.9,4.2-3.9c1.5-1.1,3.3-1.7,5.4-2c2.1-0.3,4.7,0,7.8,0.7
					C2434.5,2279.4,2438.3,2280.8,2442.7,2282.9z"/>
			</g>
			<g transform="matrix(0.913873,-0.406001,0.406001,0.913873,-1092.67,477.809)">
				<path class="st30" d="M2480.4,2314.3l-0.3,4c0,0.7-1.4,0.6-3-0.1l-108.9-51.2c-1.6-0.8-2.9-2-2.9-2.7l0.3-4c0-0.7,1.4-0.6,3,0.1
					l108.9,51.2C2479.1,2312.4,2480.4,2313.6,2480.4,2314.3z"/>
			</g>
		</g>
	</g>
	<path class="st1" d="M1984,1515.9c20-3.2,22.9-12.3,26.6-40.5c2.6,26.8,5.9,36.9,26.3,39.9c-17.8,7.6-24,10.4-27.2,41.3
		C2005.3,1525.4,2001.4,1522.6,1984,1515.9z"/>
</g>
<g>
	<path class="st25" d="M2967.4,1352c0,14.2-39.6,30.7-85.3,30.7s-82.7-11.5-82.7-25.7c0-14.2,37-25.7,82.7-25.7
		S2967.4,1337.8,2967.4,1352z"/>
	<g>
		<g>
			<path class="st26" d="M2954.2,1356.9c-9.4,12.5-38.4,17.9-75.2,17.7c-2.3,0-4.5,0-6.7-0.1c-12.7-0.3-24.7-1.2-35.2-3
				c-0.4-0.1-0.8-0.1-1.2-0.2c-6.1-1.1-11.6-2.4-16.4-4.1c-7.7-2.7-13.5-6.3-16.6-10.9c-1.9-2.8-2-13.5-2-16.9c0-0.5,0.1-1,0.2-1.5
				c0-0.1,0.1-0.3,0.1-0.4c0.2-0.8,0.6-1.5,1.1-2.2c0.4-0.5,0.8-1,1.3-1.5c6.6-6.5,24.7-10.8,48.1-12.5c0.1,0,0.2,0,0.3,0
				c2.3-0.2,4.7-0.3,7.2-0.4c1.9-0.1,3.7-0.2,5.7-0.2c1.3,0,2.6-0.1,3.9-0.1c3.2-0.1,6.5-0.1,9.9-0.1c0.7,0,1.3,0,2,0
				c1.3,0,2.6,0,4,0.1c0.7,0,1.3,0,2,0c1.3,0,2.6,0.1,3.9,0.1c35.9,1.4,63.7,8,65.5,18.6c0.1,0.4,0.1,0.8,0.1,1.1
				C2955.8,1344.4,2956.4,1353.9,2954.2,1356.9z"/>
			
				<ellipse transform="matrix(6.735956e-03 -1 1 6.735956e-03 1519.1167 4209.0986)" class="st17" cx="2878.3" cy="1339.9" rx="19.4" ry="77.5"/>
			
				<ellipse transform="matrix(6.735650e-03 -1 1 6.735650e-03 1519.1176 4209.0986)" class="st36" cx="2878.3" cy="1339.9" rx="15.5" ry="61.9"/>
			<path class="st28" d="M2837,1371.5c-6.6-1.1-12.5-2.5-17.6-4.3c0.1-2,0.4-9.6,0.5-14.9c5,1.5,10.9,2.8,17.4,3.8
				C2837.4,1359,2837.3,1367.9,2837,1371.5z"/>
			<path class="st29" d="M2872.2,1374.4c-12.7-0.3-24.7-1.2-35.2-3c-0.4-0.1-0.8-0.1-1.2-0.2c-0.1-2.4,0.4-10.9,0.5-15.4
				c10.4,1.6,24.1,3,37.1,3.3C2873.5,1361.9,2872.8,1371.8,2872.2,1374.4z"/>
		</g>
		<g>
			<g transform="matrix(0.913873,-0.406001,0.406001,0.913873,-1092.67,477.809)">
				<path class="st30" d="M3290.5,2394.7c3.5,1.7,6.7,3.5,9.4,5.6c2.8,2.1,4.9,4.3,6.4,6.5c1.5,2.2,2.2,4.4,2,6.4
					c-0.2,2.5-1.4,4-3.7,4.5c-1.6,0.4-3.8,0.3-6.4-0.2c-2.7-0.5-5.2-1.4-7.7-2.5c-1.4-0.7-2.6-1.5-3.6-2.4c-1-0.9-1.5-1.7-1.4-2.3
					c0-0.5,0.5-0.8,1.3-0.8c0.8,0,2,0.2,3.6,0.7c1.9,0.6,3.4,0.9,4.7,1.2c1.3,0.2,2.3,0.2,3.2-0.1c0.9-0.3,1.3-1,1.4-2.1
					c0.1-1.5-0.6-3.1-2.2-4.8c-1.6-1.7-3.6-3.1-6-4.3c-1.9-0.9-3.5-1.4-4.8-1.5c-1.2-0.1-2.2,0.2-2.9,0.7c-0.7,0.5-1.4,1.2-2.2,2.2
					c-1.1,1.3-2.3,2.3-3.7,2.9c-1.4,0.6-3.2,0.7-5.5,0.3c-2.3-0.4-5.1-1.3-8.5-2.9c-3.2-1.5-6-3.2-8.5-5.1c-2.4-1.9-4.3-3.9-5.5-5.9
					c-1.2-2-1.8-4-1.7-5.9c0.1-1.5,0.6-2.6,1.6-3.3c1-0.7,2.2-1.1,3.7-1.1c1.5,0,3.1,0.1,4.7,0.6c1.6,0.4,3.2,1,4.8,1.7
					c1.4,0.7,2.7,1.5,3.7,2.4s1.6,1.7,1.6,2.4c0,0.6-0.4,0.9-1.1,0.8c-0.7,0-1.8-0.2-3.4-0.6c-2.2-0.6-4-0.8-5.3-0.8
					c-1.3,0.1-2,0.8-2,2.2c-0.1,1.3,0.5,2.7,1.8,4.1c1.3,1.4,2.9,2.6,4.7,3.5c1.2,0.5,2.2,0.9,3,1c0.9,0.1,1.6,0.1,2.3-0.1
					c0.6-0.2,1.2-0.4,1.5-0.8c0.4-0.3,0.9-0.9,1.7-1.7c0.9-1,1.8-1.9,2.8-2.6c1-0.7,2.2-1.1,3.6-1.3c1.4-0.2,3.1,0,5.1,0.5
					C3285.1,2392.3,3287.6,2393.3,3290.5,2394.7z"/>
			</g>
			<g transform="matrix(0.913873,-0.406001,0.406001,0.913873,-1092.67,477.809)">
				<path class="st30" d="M3315.4,2415.5l-0.2,2.7c0,0.5-0.9,0.4-2-0.1l-72.2-34c-1.1-0.5-1.9-1.3-1.9-1.8l0.2-2.7
					c0-0.5,0.9-0.4,2,0.1l72.2,34C3314.6,2414.2,3315.5,2415,3315.4,2415.5z"/>
			</g>
		</g>
	</g>
	<path class="st1" d="M2828.5,1340.7c13.3-2.1,15.2-8.1,17.6-26.8c1.7,17.7,3.9,24.5,17.4,26.5c-11.8,5.1-15.9,6.9-18,27.4
		C2842.6,1347,2840,1345.2,2828.5,1340.7z"/>
</g>
</svg>
