<?xml version="1.0" encoding="iso-8859-1"?>
<!-- Generator: Adobe Illustrator 26.0.3, SVG Export Plug-In . SVG Version: 6.00 Build 0)  -->
<!DOCTYPE svg PUBLIC "-//W3C//DTD SVG 1.1//EN" "http://www.w3.org/Graphics/SVG/1.1/DTD/svg11.dtd" [
	<!ENTITY ns_extend "http://ns.adobe.com/Extensibility/1.0/">
	<!ENTITY ns_ai "http://ns.adobe.com/AdobeIllustrator/10.0/">
	<!ENTITY ns_graphs "http://ns.adobe.com/Graphs/1.0/">
	<!ENTITY ns_vars "http://ns.adobe.com/Variables/1.0/">
	<!ENTITY ns_imrep "http://ns.adobe.com/ImageReplacement/1.0/">
	<!ENTITY ns_sfw "http://ns.adobe.com/SaveForWeb/1.0/">
	<!ENTITY ns_custom "http://ns.adobe.com/GenericCustomNamespace/1.0/">
	<!ENTITY ns_adobe_xpath "http://ns.adobe.com/XPath/1.0/">
]>
<svg version="1.1" id="Layer_1" xmlns:x="&ns_extend;" xmlns:i="&ns_ai;" xmlns:graph="&ns_graphs;"
	 xmlns="http://www.w3.org/2000/svg" xmlns:xlink="http://www.w3.org/1999/xlink" x="0px" y="0px" viewBox="0 0 1160 647"
	 style="enable-background:new 0 0 1160 647;" xml:space="preserve">
<style type="text/css">
	.st0{fill:#A5B0C6;}
	.st1{fill:#C48769;}
	.st2{fill:#F4F4F4;}
	.st3{fill:#FFA18A;}
	.st4{opacity:0.4;fill:#FF7A5A;}
	.st5{fill:#FF7A5A;}
	.st6{fill:#393146;}
	.st7{opacity:0.7;fill:#FF7A5A;}
	.st8{fill:#2E283A;}
	.st9{fill:#D8D8D8;}
	.st10{fill:#F7EADC;}
	.st11{fill:#E5D0BE;}
	.st12{fill:#DEA379;}
	.st13{fill:#FFFFFF;}
	.st14{fill:#B6C1D3;}
	.st15{opacity:0.3;fill:#FFFFFF;}
	.st16{fill:#7B87A1;}
</style>
<metadata>
	<sfw  xmlns="&ns_sfw;">
		<slices></slices>
		<sliceSourceBounds  bottomLeftOrigin="true" height="428.5" width="561.4" x="679.1" y="-754.3"></sliceSourceBounds>
	</sfw>
</metadata>
<g>
	<path class="st0" d="M456.5,420.8h247.1V241.2c0-15.3-12.4-27.7-27.7-27.7H484.1c-15.3,0-27.7,12.4-27.7,27.7V420.8z"/>
	<path class="st1" d="M303.7,518.3H826c10.8,0,19.6-8.8,19.6-19.6v-63.2c0-10.8-8.8-19.6-19.6-19.6H303.7
		c-10.8,0-19.6,8.8-19.6,19.6v63.2C284.1,509.6,292.9,518.3,303.7,518.3z"/>
	<g>
		<path class="st2" d="M602.1,221.3c29.1-1.3,46.2,2,55.3,8.4c36.4,26.1,30,42.1,50,83.3c11.5,23.8,20.8,30.3,25.2,49.5
			c3.6,15.5-3.6,40.6-9.2,53.3l-237.2,0.6c-2.6-30.9-4.4-80.7-4.4-80.7c-19.3,13-48.3,28.8-48.3,28.8c48.7,1.1,83.4,8.9,83.4,8.9
			c-7.6,19.3,3.6,37.7,3.6,37.7c-31.9,13.4-177,30.4-185-2.6c-5.9-24.6,5.4-58.1,27.1-77.1c78.7-69.2,102.2-92.1,116.6-97.6
			c29.6-11.4,59.8-12.6,62.6-12.6L602.1,221.3z"/>
		<g>
			<path class="st3" d="M609.9,217.6l-0.3,23.4c0,9.6-4.2,36.9-30.8,37c-30.4,0.1-31.8-27-31.8-36.8l-0.4-23L609.9,217.6z"/>
			<path class="st4" d="M609.7,238c-24.8,19.8-48.9,10.5-62.7-0.9l-0.1-8.1l63,0.3L609.7,238z"/>
		</g>
		<path class="st3" d="M529.5,171.9c0.3,0,0.7,0,1,0l-0.9-13c-3.1-31.4,23-47.1,48.7-47.2h0c23.3-0.1,45.3,8.8,48.2,37.2
			c0.4,4.2,0.4,8.5-0.1,12.8l-1.6,13.2c0.1,0,0.3,0,0.4,0c5.6,0,10.3,4.5,9.1,10c-1.5,7-4.7,12.4-9.1,12.2c-0.3,0-0.9-0.1-1.1-0.1
			c-5.5,29.4-20.7,49.6-45.2,49.6c-17.4,0-40.8-17.6-46.2-49.3c-0.4,0.1-0.4,0-0.8,0c-5.6,0-7.2-5.7-8.7-11.5
			C521.9,180.4,523.9,171.9,529.5,171.9z"/>
		<path class="st5" d="M526.5,185.5c0.1-0.9,0.8-1.6,1.6-1.9c0.4-0.2,0.9-0.2,1.3-0.2c-0.4-1-1.2-1.9-2.1-2.6
			c-0.5-0.3,0-1.1,0.5-0.8c1.2,0.8,2.1,1.9,2.6,3.2c0.6,1.4,0.5,3,0.3,4.5c-0.1,0.6-1,0.3-0.9-0.2c0.2-1.1,0.2-2.2-0.1-3.3
			c-0.2,0-0.4,0-0.6,0c-0.1,0-0.1,0-0.2,0c0,0,0,0,0,0c0,0,0,0,0,0c-0.1,0-0.2,0-0.3,0.1c0,0-0.1,0-0.1,0c0,0,0,0-0.1,0c0,0,0,0,0,0
			c-0.1,0-0.2,0.1-0.2,0.1c0,0-0.1,0-0.1,0.1c0,0,0,0,0,0c0,0,0,0,0,0c-0.1,0.1-0.1,0.1-0.2,0.2c0,0,0,0,0,0c0,0,0,0.1-0.1,0.1
			c0,0.1-0.1,0.2-0.1,0.2c0,0,0,0,0,0c0,0,0,0.1,0,0.1c0,0.1-0.1,0.2-0.1,0.3c0,0,0,0.1,0,0.1c0-0.1,0,0,0,0c0,0.1,0,0.2,0,0.3
			c0,0.1,0,0.2,0,0.2c0,0,0,0,0,0c0,0.1,0,0.1,0,0.1c0,0.1,0.1,0.2,0.1,0.3c0,0,0,0.1,0.1,0.1c0-0.1,0,0,0,0.1
			c0,0.1,0.1,0.2,0.1,0.3c0,0,0.1,0.1,0.1,0.1c0,0,0,0,0,0c0,0,0,0,0.1,0.1c0.2,0.2,0.2,0.4,0,0.6c-0.2,0.2-0.5,0.2-0.6,0
			C526.6,187.3,526.3,186.4,526.5,185.5z"/>
		<path class="st5" d="M626.4,185.9c0.5-1.3,1.4-2.4,2.6-3.2c0.5-0.3,0.9,0.4,0.5,0.8c-0.9,0.7-1.7,1.5-2.1,2.6
			c0.9,0,1.8,0.2,2.4,0.8c0.6,0.7,0.8,1.6,0.6,2.4c-0.1,0.5-0.4,0.9-0.7,1.3c-0.2,0.2-0.5,0.2-0.6,0c-0.2-0.2-0.2-0.4,0-0.6
			c0,0,0.1-0.1,0,0c0,0,0-0.1,0.1-0.1c0-0.1,0.1-0.1,0.1-0.2c0,0,0-0.1,0.1-0.1c0,0,0,0,0,0c0-0.1,0.1-0.2,0.1-0.3
			c0-0.1,0-0.2,0.1-0.2c0,0,0-0.1,0-0.1c0,0.1,0-0.1,0-0.1c0-0.1,0-0.2,0-0.3c0,0,0-0.1,0-0.1c0,0,0-0.2,0-0.1
			c0-0.2-0.1-0.3-0.1-0.5c0-0.1,0,0.1,0,0c0,0,0-0.1-0.1-0.1c0-0.1-0.1-0.1-0.1-0.2c0.1,0.1,0,0,0,0c0,0-0.1-0.1-0.1-0.1
			c0,0-0.1-0.1-0.1-0.1c0,0,0,0-0.1,0c-0.1-0.1,0,0,0,0c-0.1,0-0.1-0.1-0.2-0.1c0,0-0.1,0-0.1-0.1c0,0,0,0,0,0c0,0,0,0,0,0
			c-0.1,0-0.2-0.1-0.3-0.1c-0.1,0-0.1,0-0.2,0c0,0,0,0,0,0c0,0-0.1,0-0.1,0c-0.2,0-0.5,0-0.7,0c-0.3,1.1-0.2,2.2,0,3.3
			c0.1,0.6-0.8,0.8-0.9,0.2C625.9,188.9,625.8,187.3,626.4,185.9z"/>
		<path class="st6" d="M608.2,179c-2.9-0.7-6.6-1.5-10.6-2c-4-0.4-6.4-1-9.5-1.3c-3.3-0.3-4.5-4.7,0.5-5.2c3.1-0.3,5.5-0.2,10.2,1.3
			c4.8,1.5,9.1,2.2,11.5,3.1C614.4,176.6,612.4,180,608.2,179z"/>
		<g>
			<path class="st7" d="M580,194c0.5,1.9,1,3.8,1.6,5.6c0.4,1.3,0.9,2.6,1,4c0.1,0.9,0.1,1.8-0.6,2.5c-0.8,0.8-2.1,1-3.2,0.9
				c-1.8-0.2-3.2-1.2-4.1-2.7c-0.3-0.5,0.5-1,0.8-0.5c0.9,1.4,2.4,2.4,4.1,2.2c1-0.1,1.9-0.6,1.9-1.7c0-1.4-0.5-2.7-0.9-4
				c-0.6-2-1.3-4.1-1.8-6.1C579,193.6,579.9,193.4,580,194L580,194z"/>
		</g>
		<path class="st7" d="M579.4,217.9c8.8,2.4,9.5,5.9,10.5,7.6c0.2,0.3,0.1,0.5-0.3,0.4c0,0-6.9-2.7-11.3-3.9
			c-4.7-1.3-11.6-2.3-11.6-2.3c-0.4-0.1-0.4-0.3-0.2-0.5C568.1,218.3,570.7,215.5,579.4,217.9z"/>
		<path class="st6" d="M549.4,178.9c2.9-0.5,6.7-1.1,10.7-1.3c4-0.2,6.4-0.6,9.6-0.7c3.3-0.1,4.8-4.4-0.1-5.2
			c-3-0.5-5.4-0.5-10.3,0.6c-4.9,1.2-9.2,1.6-11.7,2.4C543.3,176.2,545.1,179.7,549.4,178.9z"/>
		<g>
			<path class="st6" d="M568.1,186.9c-3.7-1.7-8.2-1.7-11.9,0.1c-0.6,0.3-1.2-0.6-0.6-0.9c4.1-1.9,8.9-1.9,13-0.1
				C569.3,186.3,568.8,187.2,568.1,186.9L568.1,186.9z"/>
		</g>
		<path class="st6" d="M521.2,124.8c-2.1-0.8-4.3-1.2-6.5-1.9c-1.7-0.6-3.7-1.3-4.8-2.8c4.4-0.1,9.3,1.5,13.1-1.5
			c0.3-0.2,0.2-0.6,0-0.9c-2-1.6-5.4-3.1-6.2-5.7c2,0.4,4.1,0.7,6.1,0.3c0.5-0.1,0.6-0.8,0.1-1.1c-1.7-0.9-3.8-2-4.8-3.8
			c2.4-0.1,4.7-0.3,7-0.8c4.7-0.9,9.3-2.7,13.1-5.6c2-1.5,3.9-3.4,6-4.8c1.9-1.2,4.1-1.9,6.3-2.8c0.8-0.2,1.7-0.4,2.5-0.7
			c-0.2-0.3-0.4-0.5-0.6-0.8c-0.3-0.4-0.1-1,0.4-1.1c4.4-0.2,8.8-0.3,13.1-0.3c0-0.1,0.1-0.2,0.1-0.3c0.5-0.7,1.4-0.6,2.1-0.6
			c1.8,0.2,3.7,0.5,5.5,0.7c7.1,1,14.2,1.9,21.3,2.9c6.6,0.9,12.6,3.2,18.5,6.1c5.1,2.5,10.2,5.6,13.7,10.2c3,4,4.9,8.9,4.5,13.9
			c0,0.3,0,0.6,0,1c0.1-0.1,0.2-0.2,0.3-0.3c0.4-0.4,1-0.1,1.1,0.4c0.1,1.4,0,2.7-0.4,4c0.4-0.1,0.9,0.2,0.8,0.7
			c-0.5,1.4-1.3,2.7-2.4,3.7c0.2,0,0.5-0.1,0.7-0.1c0.7-0.1,1,0.7,0.5,1.1c-0.9,0.7-1.8,1.2-2.8,1.7l0,0c0.6,11.3-3.7,25.1-4.8,40.8
			c-0.4,4.5-0.5,11.4-1.1,18.2c0,0.7,0,1.4,0,2.1c-0.3,0.1-0.6,0.1-1,0.1c-0.3-0.1-0.6-0.2-0.9-0.3c-0.2-0.1-0.4-0.2-0.5-0.3
			c-0.4-0.7-0.7-1.4-0.9-2.1c-0.6-2.2,0.2-4.1,1-6.1c0.8-2.1,1.1-4.2,1.3-6.4c0.2-2.1,0.8-4.3,0.6-6.4c0.2-1.4,0.3-2.7,0.1-4.1
			c0,0,0,0,0-0.1c0.1-1.1,0.2-1.9,0.1-2.6c-1.7-10.6-2.9-29.9-13.3-31.7c-0.7,0.1-1.8,0.3-3.1,0.5c-3.3,1.3-6.8,2-10.3,2.5
			c-3.4,0.5-6.9,1.1-10.3,1.6c-3.3,0.5-6.6,1.1-10,0.5c-0.5-0.1-0.6-0.8-0.3-1c0,0,0,0,0,0c-3.3,0.6-6.6,1-10,1
			c-0.5,0-0.8-0.7-0.4-1.1c0.3-0.3,0.6-0.5,0.8-0.8c-5.6,0.1-11.2-0.5-16.7-1.6c-2.3,0.1-4.6-0.1-6.8-0.5c-2.5,0.7-5.1,0.9-7.7,0.8
			c-1.9,3.8-1.9,14.6-1.8,23.9c0,3.5,0.3,7.1,0.7,10.6c-0.3,1.2-0.2,2.4-0.1,3.7c0.1,1.4,0,2.8,0.1,4.2c0,1.4,0.2,2.8,0.4,4.2
			c0.2,1.4,0.6,2.8,0.8,4.2c0.3,2.3,0.2,4.7-1,6.8c-0.1,0.1-0.2,0.3-0.3,0.4c-0.2,0.1-0.3,0.1-0.4,0.2c-0.3,0-0.7,0-1-0.1
			c-0.7-4.2-1.1-8-1.2-11.7c-0.2-7.2-1.2-14.3-3.2-21.1c-2.7-9-5.7-19.6-4.7-27.2c-3.9-1.5-7.4-3.9-10.7-6.6c-0.5-0.5-0.9-1-1.3-1.6
			c1.6,0,3.3-0.1,4.9-0.4c1.8-0.3,3.8-1,4.9-2.7C521.8,125.3,521.5,124.9,521.2,124.8z"/>
		<g>
			<path class="st8" d="M629,135.8c-2.1,1-4.5,0.8-6.8,0.8c-2.7,0-5.4,0.2-8.1,0.5c-0.8,0.1-1.1-1.1-0.3-1.2c2.5-0.3,5-0.5,7.6-0.6
				c2.3,0,4.9,0.4,7-0.6C629,134.4,629.7,135.5,629,135.8L629,135.8z"/>
		</g>
		<g>
			<path class="st8" d="M576.6,139.9c5.4-3.6,10.9-7.1,16.6-10.3c0.2,0.4,0.3,0.8,0.5,1.1c-3.1,0.6-6.3,0.9-9.5,1
				c-0.4,0-0.7-0.4-0.6-0.8c1.7-4.7,6.4-7.2,8.4-11.6c0.2,0.3,0.4,0.6,0.5,0.9c-4.8,0.4-9.6-0.3-14.2-1.9c-0.7-0.3-0.4-1.5,0.3-1.2
				c4.5,1.6,9.1,2.2,13.9,1.8c0.5,0,0.7,0.5,0.5,0.9c-2,4.3-6.7,6.8-8.3,11.3c-0.2-0.3-0.4-0.5-0.6-0.8c3.1-0.1,6.1-0.4,9.1-1
				c0.7-0.1,1.1,0.8,0.5,1.1c-5.6,3.3-11.2,6.7-16.6,10.3C576.5,141.4,575.9,140.3,576.6,139.9L576.6,139.9z"/>
		</g>
		<g>
			<path class="st8" d="M554.2,92.7c1.2,2.3,3.1,4,5.5,5c0.5,0.2,0.3,1-0.1,1.1c-2.2,0.4-4.5,0.9-6.7,1.3c0.1-0.3,0.2-0.7,0.3-1
				c2.7,2.4,6.5,3.4,10.1,2.7c0.5-0.1,1.1,0.6,0.6,1c-5.4,4.3-11.8,6.7-18.3,8.7c-0.8,0.2-1.1-1-0.3-1.2c6.3-1.9,12.6-4.2,17.8-8.3
				c0.2,0.3,0.4,0.7,0.6,1c-4,0.8-8.2-0.3-11.3-3c-0.3-0.3-0.2-0.9,0.3-1c2.2-0.4,4.5-0.9,6.7-1.3c0,0.4-0.1,0.8-0.1,1.1
				c-2.5-1.1-4.6-3-5.9-5.4C552.8,92.6,553.8,92,554.2,92.7L554.2,92.7z"/>
		</g>
		<g>
			<path class="st8" d="M537.6,123.5c-2.2,0.2-4.4,0.3-6.6,0.5c-1.1,0.1-2.2,0.2-3.3,0.2c-0.4,0-1.1-0.1-1.5,0.1
				c-0.2,0.1-0.1,0.1,0.2,0.3c0.2,0.1,0.4,0.3,0.6,0.4c3.2,1.9,7.1,2.1,10.7,2.3c0.6,0,0.8,0.6,0.4,1.1c-1.6,1.9-3.9,2.7-6.2,3.2
				c-2.9,0.5-5.8,0.7-8.7,0.5c-0.8-0.1-0.8-1.3,0-1.2c2.7,0.2,5.5,0.1,8.2-0.4c2.2-0.4,4.4-1.1,5.9-2.9c0.1,0.4,0.3,0.7,0.4,1.1
				c-2.3-0.1-4.6-0.3-6.8-0.8c-1-0.2-2.1-0.6-3.1-1c-0.9-0.4-2.1-0.9-2.7-1.7c-0.6-0.7-0.3-1.6,0.6-1.9c0.5-0.2,1-0.1,1.5-0.2
				c0.7,0,1.3-0.1,2-0.1c2.8-0.2,5.5-0.4,8.3-0.6C538.4,122.2,538.4,123.4,537.6,123.5L537.6,123.5z"/>
		</g>
		<g>
			<path class="st8" d="M535,139.4c-1.7,0.3-3.5,0-5.2-0.3c-1.8-0.3-3.5-0.7-5.2-1.2c-0.8-0.2-0.4-1.4,0.3-1.2
				c1.6,0.5,3.2,0.8,4.8,1.1c1.6,0.3,3.3,0.7,4.9,0.4C535.5,138,535.8,139.2,535,139.4L535,139.4z"/>
		</g>
		<g>
			<path class="st6" d="M602.1,186.9c-3.7-1.7-8.2-1.7-11.9,0.1c-0.6,0.3-1.2-0.6-0.6-0.9c4.1-1.9,8.9-1.9,13-0.1
				C603.3,186.3,602.7,187.2,602.1,186.9L602.1,186.9z"/>
		</g>
		<path class="st3" d="M516.9,373.6c29.5,5.2,51.4-9.1,55.8-9.1c7.5,0,27.4,9.4,31.9,13.4c8.3,7.4,15.3,19.6,14,21.3
			c-1.1,1.5-4.8,0.4-4.8,0.4c1.2,1.9,1.3,3.7,0.2,4.5c-0.9,0.6-4.5-0.5-8.2-2.4c-6.9-3.5-7.5-5.8-12.6-7.5c-4-1.4-8.6-1.7-8.9-0.8
			c-0.2,0.5,1.1,1.3,2,2c5.7,4,11.7,9.8,9.9,11.3c-1.9,1.5-5.4-2.9-13.4-4.6c-7.6-1.6-14-0.4-18.5,0.5c-13.2,2.7-43.9,8.9-43.9,8.9
			C508,395.1,516.9,373.6,516.9,373.6z"/>
		<path class="st3" d="M646.7,250.7c0,0-16.1,13.1-30.2,11.7c0,0-0.5-4.6-5.1-12.1c-3.1-5.2-5.3-8-7.4-10.5
			c-7.9-9.3,2.1-27,8.5-53.5c3.7-15.3,1.9-30.8,6.1-31.3c3.1-0.4,4.6,4.3,4.6,4.3c-0.2-2.6,1-4.9,2.9-4.9c2.6,0,5,15.4,9,25.9
			c2.5,6.4,0.5,12.1,0.5,12.1c3.9,6-1.9,20.4-2.6,31.6C632.4,232,643.8,243.6,646.7,250.7z"/>
		<g>
			<path class="st9" d="M481.1,335.8c-0.5-25.3-0.9-50.7-5.6-75.6c-1.3-6.7-2.6-13.6-5.8-19.8c-0.2-0.3,0.3-0.6,0.5-0.3
				c2.7,5.3,4.1,11.2,5.3,17.1c1.3,6.2,2.2,12.4,3,18.7c1.6,12.6,2.3,25.4,2.7,38.1c0.2,7.3,0.4,14.5,0.5,21.8
				C481.7,336.2,481.1,336.2,481.1,335.8L481.1,335.8z"/>
		</g>
		<g>
			<path class="st9" d="M516.5,373.8c-10.7-2.9-21.7-4.7-32.8-5.5c-0.4,0-0.4-0.6,0-0.6c11.1,0.7,22.2,2.6,32.9,5.5
				C517,373.3,516.9,373.9,516.5,373.8L516.5,373.8z"/>
		</g>
		<g>
			<path class="st9" d="M520.4,411.8c-4.9,2.1-10,3.7-15.3,4.5c-0.4,0.1-0.5-0.5-0.2-0.6c5.2-0.9,10.3-2.4,15.1-4.5
				C520.4,411.2,520.7,411.7,520.4,411.8L520.4,411.8z"/>
		</g>
		<g>
			<path class="st9" d="M491.9,369c-3,16.2-2,32.9,2.9,48.6c0.1,0.4-0.5,0.5-0.6,0.2c-5-15.8-6-32.6-2.9-48.9
				C491.4,368.5,492,368.7,491.9,369L491.9,369z"/>
		</g>
		<g>
			<path class="st9" d="M432.7,364.8c-8.6,0.9-17.3,2.2-25.2,5.7c-4,1.8-7.6,4.3-10.9,7.2c-3.3,3-6.3,6.2-9.8,9.1
				c-0.3,0.2-0.7-0.2-0.4-0.4c3.6-3,6.8-6.5,10.4-9.6c3.2-2.8,6.8-5.1,10.8-6.9c7.9-3.5,16.6-4.8,25.1-5.7
				C433.1,364.1,433.1,364.7,432.7,364.8L432.7,364.8z"/>
		</g>
		<g>
			<path class="st9" d="M433,364.4c-2.3-1.6-5.3-1.7-8-1.9c-2.9-0.3-5.9-0.5-8.8-0.6c-5.9-0.2-11.8,0.1-17.5,1.8
				c-0.4,0.1-0.5-0.5-0.2-0.6c5.9-1.8,12-2.1,18.2-1.8c3.1,0.1,6.2,0.4,9.3,0.7c2.6,0.2,5.2,0.4,7.4,1.9
				C433.7,364.1,433.4,364.6,433,364.4L433,364.4z"/>
		</g>
		<g>
			<path class="st9" d="M617,263.2c0.5,22.7,2.3,45.4,7.6,67.6c5,21.3,13.4,42.7,27,60c7.2,9.1,16.3,17,27.2,21.2
				c0.4,0.1,0.2,0.7-0.2,0.6c-19.8-7.6-32.9-26.3-41.8-44.8c-9.9-20.5-15.1-43-17.9-65.6c-1.5-12.9-2.3-25.9-2.6-38.9
				C616.4,262.8,617,262.8,617,263.2L617,263.2z"/>
		</g>
		<g>
			<path class="st9" d="M723.8,345.1c-4.8-6.4-9.7-12.9-15.1-18.8c-5.3-5.8-11.2-11-16.8-16.6c-5.6-5.6-10.6-11.8-15.5-18
				c-4.8-6.1-9.6-12.2-14.3-18.4c-5.4-7.2-10.6-14.5-15.3-22.2c-0.2-0.3,0.3-0.6,0.5-0.3c8.4,13.6,18.3,26.2,28.2,38.7
				c4.9,6.2,9.8,12.4,15.4,18.1c5.5,5.6,11.4,10.8,16.8,16.5c6,6.4,11.3,13.5,16.6,20.5C724.5,345.1,724,345.4,723.8,345.1
				L723.8,345.1z"/>
		</g>
		<g>
			<path class="st9" d="M668,239.5c-2.6,4.2-4.3,8.9-6,13.5c-1.8,4.8-3.2,9.7-3.2,14.8c0,0.4-0.6,0.4-0.6,0
				c-0.1-5.2,1.4-10.1,3.2-14.9c1.7-4.6,3.4-9.4,6.1-13.6C667.7,238.9,668.2,239.2,668,239.5L668,239.5z"/>
		</g>
		<g>
			<path class="st9" d="M616.4,266.6c-3.2,8-8.3,15.5-15.5,20.4c-8,5.4-18.1,6.4-27.6,5.5c-8.8-0.8-17.5-3.4-24.9-8.3
				c-7.3-4.9-12.8-11.9-16-20.1c-3.7-9.5-4.3-20.1-2.9-30.1c0.1-0.4,0.6-0.2,0.6,0.2c-2.4,17.2,1.6,36.4,15.9,47.5
				c6.8,5.3,15.1,8.4,23.5,9.7c9.2,1.4,19.6,1.2,28-3.2c8.7-4.5,14.7-13,18.3-21.9C616,266.1,616.6,266.2,616.4,266.6L616.4,266.6z"
				/>
		</g>
		<g>
			<path class="st9" d="M548.7,258.9c-5.3,1.6-10.8,3.5-14.5,7.8c-0.2,0.3-0.7-0.1-0.4-0.4c3.8-4.4,9.4-6.3,14.8-7.9
				C548.9,258.2,549.1,258.8,548.7,258.9L548.7,258.9z"/>
		</g>
		<g>
			<path class="st9" d="M553.1,267.4c-4,3.3-7.5,7.3-10.1,11.7c-0.2,0.3-0.7,0-0.5-0.3c2.7-4.5,6.1-8.6,10.2-11.9
				C553,266.7,553.4,267.1,553.1,267.4L553.1,267.4z"/>
		</g>
		<g>
			<path class="st9" d="M562,274.9c-2,4.2-3.7,8.5-5.2,12.9c-0.1,0.4-0.7,0.2-0.6-0.2c1.5-4.5,3.2-8.8,5.3-13.1
				C561.7,274.2,562.2,274.5,562,274.9L562,274.9z"/>
		</g>
		<g>
			<path class="st9" d="M579.6,278.7c-0.1,4.5-0.3,9-0.7,13.4c0,0.4-0.6,0.4-0.6,0c0.4-4.5,0.6-9,0.7-13.4
				C579,278.3,579.6,278.3,579.6,278.7L579.6,278.7z"/>
		</g>
		<g>
			<path class="st9" d="M594.3,275.3c1.9,4,3.4,8.2,4.3,12.5c0.1,0.4-0.5,0.5-0.6,0.2c-0.9-4.3-2.4-8.5-4.3-12.4
				C593.6,275.3,594.1,275,594.3,275.3L594.3,275.3z"/>
		</g>
		<g>
			<path class="st9" d="M600.2,269.7c3.3,2.9,6.6,5.9,8.2,10.1c0.1,0.4-0.4,0.5-0.6,0.2c-1.5-4.1-4.8-7-8-9.9
				C599.5,269.8,599.9,269.4,600.2,269.7L600.2,269.7z"/>
		</g>
		<g>
			<path class="st9" d="M606,260.8c3.5,1.8,7,3.7,9.5,6.8c0.2,0.3-0.2,0.7-0.4,0.4c-2.5-3-6-4.9-9.4-6.7
				C605.3,261.2,605.6,260.6,606,260.8L606,260.8z"/>
		</g>
		<g>
			<path class="st9" d="M546.4,233.9c-5.6-0.2-11.3,0.4-16.4,2.9c-0.3,0.2-0.6-0.3-0.3-0.5c5.2-2.5,11-3.1,16.7-3
				C546.7,233.3,546.7,233.9,546.4,233.9L546.4,233.9z"/>
		</g>
		<g>
			<path class="st9" d="M660.7,271.3c-3,2.3-6.4,4-9.7,5.8c-3.6,2-7.1,4-10.9,5.6c-7,3-14.6,4.5-22.2,4.6c-0.4,0-0.4-0.6,0-0.6
				c7.7-0.1,15.3-1.7,22.3-4.7c3.5-1.5,6.8-3.4,10.1-5.2c3.4-1.8,7-3.5,10-5.9C660.6,270.6,661,271,660.7,271.3L660.7,271.3z"/>
		</g>
		<g>
			<path class="st9" d="M480.5,335.8c-1.9-11.9-8.5-22.8-18.1-29.9c-0.3-0.2,0-0.7,0.3-0.5c9.8,7.2,16.5,18.2,18.4,30.2
				C481.1,336,480.5,336.2,480.5,335.8L480.5,335.8z"/>
		</g>
		<g>
			<path class="st9" d="M626.1,263.4c0.4,7.3,1.6,14.6,3.5,21.7c0.1,0.4-0.5,0.5-0.6,0.2c-1.9-7.2-3-14.5-3.5-21.8
				C625.5,263,626.1,263,626.1,263.4L626.1,263.4z"/>
		</g>
		<g>
			<path class="st9" d="M634.9,260.4c4.4,5.9,5.7,13.4,8.9,19.9c0.2,0.3-0.3,0.6-0.5,0.3c-3.2-6.5-4.5-14-8.9-19.9
				C634.2,260.4,634.7,260.1,634.9,260.4L634.9,260.4z"/>
		</g>
		<g>
			<path class="st9" d="M654.3,274.6c-1.5-7.8-7.3-13.5-11.4-20c-0.2-0.3,0.3-0.6,0.5-0.3c4.1,6.5,9.9,12.3,11.4,20.2
				C654.9,274.8,654.4,274.9,654.3,274.6L654.3,274.6z"/>
		</g>
		<g>
			<path class="st9" d="M514.4,377.9c-7.8-1.7-15.8-2-23.8-1c-0.4,0-0.4-0.5,0-0.6c8-1,16.1-0.6,23.9,1.1
				C515,377.5,514.8,378,514.4,377.9L514.4,377.9z"/>
		</g>
		<g>
			<path class="st9" d="M512.8,389.5c-7.6,0.2-15.3,1-22.3,4.1c-0.3,0.1-0.6-0.4-0.3-0.5c7.1-3.1,14.9-3.9,22.6-4.1
				C513.2,388.9,513.2,389.5,512.8,389.5L512.8,389.5z"/>
		</g>
		<g>
			<path class="st9" d="M514.9,402.6c-7,3.5-14.3,6.3-21.9,8.1c-0.4,0.1-0.5-0.5-0.2-0.6c7.6-1.8,14.9-4.5,21.8-8
				C514.9,401.9,515.2,402.5,514.9,402.6L514.9,402.6z"/>
		</g>
		<g>
			<path class="st9" d="M533.9,301.2c-0.8,2.4-1.6,4.7-2.5,7.1c-0.1,0.3-0.5,0.3-0.6,0c-0.8-2.7-1.5-5.5-2.3-8.2
				c0.2,0,0.4,0,0.5,0.1c-1.2,1.7-2.1,3.5-2.9,5.3c-0.1,0.3-0.7,0.2-0.6-0.2c0.8-1.9,1.8-3.8,3-5.5c0.1-0.2,0.5-0.2,0.5,0.1
				c0.8,2.7,1.5,5.5,2.3,8.2c-0.2,0-0.4,0-0.6,0c0.8-2.4,1.6-4.7,2.5-7.1C533.5,300.6,534,300.8,533.9,301.2L533.9,301.2z"/>
		</g>
		<g>
			<path class="st9" d="M618.9,363.9c-0.7-2.1-1.6-4.2-2.8-6.1c0.2,0,0.3,0,0.5,0.1c-0.2,0.2-0.2,0.5-0.2,0.8c0,0.3-0.1,0.6-0.1,0.9
				c-0.1,0.6-0.1,1.3-0.2,1.9c-0.1,1.3-0.2,2.5-0.3,3.8c0,0.3-0.4,0.4-0.5,0.1c-1.4-2.4-2.8-4.9-4.1-7.3c-0.2-0.3,0.3-0.6,0.5-0.3
				c1.4,2.4,2.8,4.9,4.1,7.3c-0.2,0-0.4,0.1-0.5,0.1c0.1-1.4,0.3-2.8,0.4-4.2c0.1-0.7,0.1-1.4,0.2-2.1c0-0.5,0-1.1,0.4-1.5
				c0.1-0.1,0.4-0.1,0.5,0.1c1.2,2,2.1,4,2.8,6.2C619.6,364.1,619,364.3,618.9,363.9L618.9,363.9z"/>
		</g>
		<g>
			<path class="st9" d="M502.3,343.2c-0.7-1.1-1.5-1.9-2.6-2.6c0.1,0,0.3-0.1,0.4-0.1c-0.5,1.1,0,2.5,0.2,3.7
				c0.2,1.3,0.4,2.5,0.6,3.8c0,0.3-0.3,0.5-0.5,0.3c-1.5-1.6-2.9-3.1-4.4-4.7c0.2,0,0.3-0.1,0.5-0.1c-0.8,2-1.1,4.1-1.1,6.2
				c0,0.4-0.6,0.4-0.6,0c-0.1-2.2,0.3-4.3,1.1-6.3c0.1-0.2,0.3-0.3,0.5-0.1c1.5,1.6,2.9,3.1,4.4,4.7c-0.2,0.1-0.3,0.2-0.5,0.3
				c-0.2-1.4-0.5-2.9-0.7-4.3c-0.2-1.2-0.5-2.4,0-3.6c0.1-0.1,0.3-0.2,0.4-0.1c1.1,0.7,2.1,1.6,2.8,2.8
				C503.1,343.2,502.5,343.5,502.3,343.2L502.3,343.2z"/>
		</g>
		<g>
			<path class="st9" d="M658.2,410.2c-0.3-2.7-0.7-5.4-1.2-8.1c0-0.2-0.1-0.8-0.2-0.9c-0.2-0.1-0.7,0.4-0.8,0.4
				c-0.4,0.3-0.8,0.7-1.2,1.1c-0.8,0.8-1.5,1.8-2,2.8c-0.1,0.3-0.5,0.1-0.5-0.1c-0.1-1.8,0-3.6,0.1-5.4c0-0.4,0.6-0.4,0.6,0
				c-0.1,1.8-0.2,3.6-0.1,5.4c-0.2,0-0.4-0.1-0.5-0.1c0.6-1.2,1.4-2.3,2.4-3.2c0.4-0.4,2-2.2,2.6-1.2c0.2,0.3,0.2,0.6,0.2,0.9
				c0.1,0.4,0.2,0.8,0.2,1.2c0.1,0.8,0.3,1.6,0.4,2.4c0.3,1.6,0.5,3.3,0.6,4.9C658.9,410.6,658.3,410.6,658.2,410.2L658.2,410.2z"/>
		</g>
		<g>
			<path class="st9" d="M613.7,297.6c0.3,1.2,0.7,2.3,1,3.5c0.2,0.5,0.4,1.1,0.5,1.6c0.1,0.3,0,0.7-0.3,0.8c-0.4,0.1-0.7-0.1-1-0.3
				c-0.4-0.3-0.9-0.6-1.3-0.9c-0.8-0.7-1.6-1.5-2.4-2.2c0.2-0.1,0.3-0.1,0.5-0.2c-0.1,1.9,0,3.9,0.3,5.8c0.1,0.4-0.5,0.5-0.6,0.2
				c-0.3-2-0.4-4-0.3-6c0-0.3,0.3-0.4,0.5-0.2c0.6,0.6,1.2,1.2,1.9,1.8c0.3,0.3,0.7,0.6,1,0.9c0.2,0.1,0.3,0.3,0.5,0.4
				c0.1,0.1,0.3,0.3,0.5,0.3c0.1,0,0.1,0,0.1-0.1c0-0.1,0-0.2-0.1-0.2c-0.1-0.2-0.1-0.5-0.2-0.7c-0.1-0.5-0.3-0.9-0.4-1.4
				c-0.3-0.9-0.5-1.9-0.8-2.8C613,297.4,613.6,297.2,613.7,297.6L613.7,297.6z"/>
		</g>
		<g>
			<path class="st9" d="M504.7,249.3c-1.8,2.2-3.7,4.5-5.5,6.7c-0.1,0.1-0.4,0.1-0.5-0.1c-0.6-1.4-0.4-2.9-0.1-4.4
				c0.3-1.7,0.5-3.5,0.8-5.2c0.1,0.1,0.2,0.2,0.4,0.4c-1.6,0.7-3,1.6-4.2,2.8c-0.3,0.3-0.7-0.2-0.4-0.4c1.3-1.3,2.8-2.3,4.5-3
				c0.2-0.1,0.4,0.2,0.4,0.4c-0.2,1.5-0.5,3.1-0.7,4.6c-0.2,1.4-0.6,3.1,0,4.5c-0.2,0-0.3,0-0.5-0.1c1.8-2.2,3.7-4.5,5.5-6.7
				C504.6,248.6,505,249,504.7,249.3L504.7,249.3z"/>
		</g>
		<g>
			<path class="st9" d="M566.6,354.6c0.3-2.7,0.2-5.4-0.1-8c0.2,0.1,0.3,0.1,0.5,0.2c-0.9,1.2-1.8,2.4-2.5,3.7
				c-0.1,0.2-0.5,0.2-0.5-0.1c-0.6-1.9-1.3-3.8-2.2-5.6c-0.2-0.3,0.3-0.6,0.5-0.3c0.9,1.8,1.7,3.7,2.3,5.7c-0.2,0-0.4,0-0.5-0.1
				c0.7-1.4,1.6-2.6,2.6-3.8c0.2-0.2,0.5,0,0.5,0.2c0.3,2.7,0.3,5.3,0.1,8C567.1,354.9,566.5,354.9,566.6,354.6L566.6,354.6z"/>
		</g>
		<g>
			<path class="st9" d="M672.5,328.6c0.4-1.8,0.6-3.6,0.3-5.4c0.1,0.1,0.1,0.2,0.2,0.3c-1-0.2-1.8,0.5-2.4,1.2
				c-0.5,0.5-1.1,1-1.8,1.2c-0.2,0.1-0.4-0.1-0.4-0.4c0.5-2.2,0.9-4.4,1-6.7c0-0.4,0.6-0.4,0.6,0c-0.1,2.3-0.4,4.6-1,6.8
				c-0.1-0.1-0.2-0.2-0.4-0.4c1.7-0.5,2.6-2.8,4.6-2.3c0.1,0,0.2,0.2,0.2,0.3c0.2,1.9,0.1,3.7-0.4,5.5
				C673,329.1,672.4,328.9,672.5,328.6L672.5,328.6z"/>
		</g>
		<g>
			<path class="st9" d="M445.4,334.5c-0.5-2.2-1.5-4.3-3-6.1c0.2-0.1,0.3-0.1,0.5-0.2c-0.1,2.9-0.1,5.8-0.1,8.6
				c0,0.2-0.3,0.4-0.5,0.2c-1.3-1.6-2.6-3.2-4-4.9c-0.2-0.3,0.2-0.7,0.4-0.4c1.3,1.6,2.6,3.2,4,4.9c-0.2,0.1-0.3,0.1-0.5,0.2
				c-0.1-2.9,0-5.8,0.1-8.6c0-0.2,0.3-0.4,0.5-0.2c1.6,1.8,2.7,4,3.2,6.3C446,334.7,445.5,334.9,445.4,334.5L445.4,334.5z"/>
		</g>
		<g>
			<path class="st9" d="M362.6,374.4c-0.2-2.8-0.9-5.6-2.1-8.1c0.2,0,0.3,0,0.5,0.1c-1.4,1.9-2.6,3.9-3.3,6.2
				c-0.1,0.2-0.2,0.2-0.4,0.2c-0.7-0.1-0.8-0.9-0.9-1.5c-0.2-1-0.4-2-0.7-2.9c-0.6-2-1.3-4-2.2-5.8c-0.2-0.3,0.3-0.6,0.5-0.3
				c0.8,1.6,1.4,3.2,2,4.9c0.3,0.8,0.5,1.7,0.7,2.6c0.1,0.4,0.2,0.9,0.3,1.3c0.1,0.3,0.1,1.1,0.5,1.2c-0.1,0.1-0.2,0.1-0.4,0.2
				c0.8-2.3,2-4.5,3.5-6.4c0.1-0.1,0.4-0.1,0.5,0.1c1.3,2.6,2,5.5,2.2,8.4C363.2,374.7,362.6,374.7,362.6,374.4L362.6,374.4z"/>
		</g>
		<g>
			<path class="st9" d="M453.4,414.4c2.3-2,4.3-4.4,5.8-7.1c0.1,0.1,0.2,0.3,0.3,0.4c-2.1,0.4-4,1.1-5.9,2c-0.3,0.1-0.5-0.1-0.4-0.4
				c1.5-3,3.1-6,4.6-9c0.2-0.3,0.7,0,0.5,0.3c-1.5,3-3.1,6-4.6,9c-0.1-0.1-0.3-0.3-0.4-0.4c1.9-0.9,4-1.7,6.1-2.1
				c0.2-0.1,0.5,0.2,0.3,0.4c-1.6,2.7-3.6,5.1-5.9,7.2C453.5,415,453.1,414.6,453.4,414.4L453.4,414.4z"/>
		</g>
		<g>
			<path class="st9" d="M454.8,281.2c-1.1-2-2.3-3.9-3.7-5.7c0.2-0.1,0.3-0.1,0.5-0.2c-0.2,2-0.4,4-0.4,6c0,0.3-0.4,0.4-0.5,0.1
				c-1-1.4-2-2.7-2.9-4.1c-0.2-0.3,0.3-0.6,0.5-0.3c1,1.4,2,2.7,2.9,4.1c-0.2,0-0.4,0.1-0.5,0.1c0-2,0.2-4,0.4-6
				c0-0.2,0.3-0.4,0.5-0.2c1.4,1.8,2.7,3.8,3.8,5.8C455.5,281.3,455,281.6,454.8,281.2L454.8,281.2z"/>
		</g>
		<g>
			<path class="st9" d="M708.6,406.2c-0.7-1.6-1.6-3.2-2.5-4.7c-0.4-0.7-0.9-1.5-1.4-2.2c-0.2-0.3-0.5-0.7-0.7-1
				c-0.1-0.2-0.2-0.3-0.3-0.5c-0.1-0.1-0.2-0.3-0.3-0.3c-0.1,0-0.1,0.1-0.1,0.3c-0.4,1.8-0.2,3.7,0,5.6c0,0.4,0.6,4-0.6,3.5
				c-0.2-0.1-0.4-0.3-0.5-0.5c-0.2-0.2-0.4-0.3-0.5-0.5c-0.4-0.3-0.8-0.7-1.1-1c-0.8-0.7-1.6-1.5-2.5-2.2c-0.3-0.3,0.1-0.7,0.4-0.4
				c1.5,1.4,3.1,2.8,4.6,4.2c-0.1,0-0.2-0.1-0.3-0.1c0.3-0.1,0-2.4,0-2.7c-0.1-0.9-0.2-1.9-0.2-2.8c0-0.9,0-1.8,0.1-2.6
				c0.1-0.5,0.2-1.5,1-1.1c0.3,0.1,0.5,0.5,0.7,0.7c0.3,0.4,0.5,0.7,0.8,1.1c0.5,0.7,1,1.5,1.5,2.3c1,1.6,1.8,3.2,2.6,4.9
				C709.3,406.2,708.8,406.5,708.6,406.2L708.6,406.2z"/>
		</g>
		<g>
			<path class="st5" d="M620.8,156.1c-0.8-1.5-2.8-0.8-3.5,0.4c-0.8,1.3-0.8,2.9-0.9,4.4c-0.3,2.9-0.5,5.8-0.8,8.7
				c-0.6,5.7-1.4,11.3-2.7,16.9c-2.7,11.1-7,21.8-9.9,32.8c-0.8,3.1-1.6,6.3-1.7,9.5c-0.1,3.2,0.7,6.1,1.8,9.1
				c0.1,0.4-0.4,0.5-0.6,0.2c-1-2.7-1.8-5.4-1.8-8.3c0-3,0.6-5.9,1.3-8.8c1.5-6.2,3.6-12.3,5.6-18.4c1.9-6,3.8-11.9,5.2-18
				c1.5-6.6,2.2-13.3,2.8-20c0.2-1.7,0.3-3.5,0.5-5.2c0.1-1.2,0.3-2.5,1.1-3.5c1-1.3,3.4-1.7,4.3,0
				C621.5,156.1,621,156.4,620.8,156.1L620.8,156.1z"/>
		</g>
		<g>
			<path class="st5" d="M623.4,159.5c1.1,6.1,2.4,12.2,2.7,18.4c0.3,6-0.6,12.1-2.7,17.8c-0.1,0.4-0.7,0.2-0.6-0.2
				c2-5.6,2.9-11.6,2.6-17.6c-0.3-6.1-1.6-12.2-2.7-18.2C622.7,159.2,623.3,159.1,623.4,159.5L623.4,159.5z"/>
		</g>
		<g>
			<path class="st5" d="M632.8,229.7c-2.1-2.2-4-4.6-5.6-7.2c-0.7-1.3-1.3-2.6-1.5-4c-0.3-1.6-0.3-3.3-0.7-4.9
				c-0.1-0.4,0.5-0.5,0.6-0.2c0.3,1.5,0.4,2.9,0.6,4.4c0.2,1.6,0.7,3,1.5,4.4c1.5,2.6,3.4,4.9,5.5,7.1
				C633.5,229.5,633.1,230,632.8,229.7L632.8,229.7z"/>
		</g>
		<g>
			<path class="st5" d="M618.4,238.8c-4.9,3.4-11.7,2.5-15.6-2c-0.2-0.3,0.2-0.7,0.4-0.4c3.7,4.4,10.1,5.2,14.9,1.9
				C618.5,238,618.8,238.5,618.4,238.8L618.4,238.8z"/>
		</g>
		<g>
			<path class="st5" d="M613.5,399.4c-4.3-4.7-8.5-9.7-13.6-13.4c-2.6-1.8-5.5-2.6-8.6-3.2c-3.4-0.6-6.8-0.9-10.2-0.9
				c-0.4,0-0.4-0.6,0-0.6c3.4,0,6.8,0.3,10.1,0.9c3.1,0.6,6,1.3,8.6,3.1c5.4,3.7,9.7,9,14.1,13.8
				C614.2,399.3,613.8,399.7,613.5,399.4L613.5,399.4z"/>
		</g>
		<g>
			<path class="st5" d="M603,377.2c-3.6-1.4-7.1-2.7-10.7-4.1c-1.6-0.6-3.2-1.3-4.9-1.6c-1.8-0.4-3.7-0.5-5.6-0.8
				c-0.4-0.1-0.2-0.6,0.2-0.6c1.9,0.3,3.7,0.4,5.6,0.8c1.7,0.3,3.3,1,4.9,1.6c3.6,1.4,7.1,2.7,10.7,4.1
				C603.5,376.8,603.3,377.3,603,377.2L603,377.2z"/>
		</g>
		<g>
			<path class="st5" d="M608.9,246.8c-1.1-1.8-2.2-3.5-3.6-5c-0.3-0.3,0.1-0.7,0.4-0.4c1.5,1.5,2.6,3.3,3.7,5.1
				C609.6,246.8,609.1,247.1,608.9,246.8L608.9,246.8z"/>
		</g>
	</g>
	<path class="st6" d="M666.6,404.9c0,0-28.1-15.8-59.2-14.3c-14.4,0.7-24.1,10.2-24.1,10.2c-30.7-8.2-89,9-89,9l-15.5,29.7
		c58.4-2.7,109.9-6.4,109.9-6.4C651,434.8,699,445.3,699,445.3C687.9,433.2,673.3,413.3,666.6,404.9z"/>
	<path class="st10" d="M661.9,402.4c0,0-26.7-15-56.4-13.7c-13.7,0.6-23,9.7-23,9.7c-29.2-7.8-84.8,8.6-84.8,8.6l-14.7,28.4
		c55.6-2.6,104.6-6.1,104.6-6.1c59.5,1.6,105.2,11.6,105.2,11.6C682.1,429.4,668.2,410.4,661.9,402.4z"/>
	<g>
		<path class="st10" d="M582.8,398.6c0.5,2.6,1,5.2,1.7,7.8c0.8,2.5,1.5,4.9,2.2,7.4c1.2,4.9,2,10,2.3,15.1c0,0.3-0.5,0.3-0.5,0
			c-0.4-5.2-1.2-10.4-2.4-15.4c-0.6-2.4-1.4-4.8-2.1-7.2c-0.7-2.5-1.2-5-1.7-7.5C582.3,398.4,582.7,398.3,582.8,398.6L582.8,398.6z"
			/>
	</g>
	<g>
		<path class="st11" d="M583,398.8c3.2,9.8,5,19.9,5.2,30.2c0,0.3-0.5,0.3-0.5,0c-0.3-10.2-2-20.4-5.2-30.1
			C582.5,398.6,582.9,398.5,583,398.8L583,398.8z"/>
	</g>
	<g>
		<path class="st11" d="M691.8,440.5c-11.9-7.2-25.2-11.9-38.8-14.8c-13.8-2.9-28-4.1-42-2.4c-7.9,1-15.6,2.9-22.9,5.9
			c-0.3,0.1-0.4-0.4-0.1-0.5c13.1-5.4,27.4-7.2,41.5-6.6c14,0.6,28.1,3.3,41.3,8c7.4,2.6,14.6,5.9,21.4,10
			C692.3,440.2,692.1,440.7,691.8,440.5L691.8,440.5z"/>
	</g>
	<g>
		<path class="st11" d="M683,437.8c-23.4-8.1-48.8-12.7-73.6-10.3c-3.6,0.3-7.1,0.7-10.7,1c-3.6,0.2-7.1,0.4-10.6,0.8
			c-0.3,0-0.3-0.5,0-0.5c6.3-0.6,12.6-0.9,18.9-1.6c6.4-0.7,12.8-1.1,19.3-0.9c12.4,0.4,24.7,2.3,36.8,5.2
			c6.8,1.6,13.5,3.6,20.1,5.9C683.4,437.4,683.3,437.9,683,437.8L683,437.8z"/>
	</g>
	<g>
		<path class="st11" d="M588,429.2c-13.4-1.3-26.8-2.6-40.2-2.3c-13.4,0.3-26.7,2.8-40.1,4.3c-7.6,0.9-15.1,1.6-22.7,2.2
			c-0.3,0-0.3-0.5,0-0.5c13.6-1.1,27.2-2.6,40.7-4.5c6.5-0.9,13.1-1.7,19.7-2c6.7-0.3,13.4-0.1,20,0.3c7.6,0.4,15.1,1.2,22.6,1.9
			C588.3,428.8,588.3,429.3,588,429.2L588,429.2z"/>
	</g>
	<g>
		<g>
			<path class="st6" d="M734.8,464.9l89.1,0.4c4.9,0.1,9-3.9,9-8.9l0,0c0-4.9-4-8.9-8.9-8.9h-89.3l-26.1-30.8v14.6L734.8,464.9z"/>
			<path class="st10" d="M735.6,462.4l87.1,1.3c4.1,0.1,7.4-3.2,7.4-7.3l0,0c0-4-3.3-7.3-7.3-7.3l-87.5-0.1l-26.8-31v11.2
				L735.6,462.4z"/>
		</g>
		<g>
			<path class="st0" d="M734.8,447.8l89.1,1.2c4.9,0.1,9-3.9,9-8.9l0,0c0-4.9-4-8.9-8.9-8.9h-89.3l-28.2-32.8v15.8L734.8,447.8z"/>
			<path class="st10" d="M734.6,445.1l87.4,0.8c4.1,0.1,7.4-1.7,7.4-5.8l0,0c0-4-3.5-6.6-7.6-6.6l-87.1,0.1l-28.2-32.5v10.4
				L734.6,445.1z"/>
		</g>
		<g>
			<path class="st12" d="M733.9,431.8l89.1,0.1c4.9,0,8.9-4,8.9-9v0c-0.1-4.9-4.1-8.8-9-8.8l-89.3,1l-26.5-30.5l0.2,14.6
				L733.9,431.8z"/>
			<path class="st10" d="M734,430.2l87.1,0.3c4.1,0,7.3-3.3,7.3-7.4v0c0-4-3.4-7.3-7.4-7.2l-87.5,1L707.2,387l0.1,10.7L734,430.2z"
				/>
		</g>
		<polygon class="st12" points="791.5,384.7 828.7,416.2 733.6,415.2 707.2,384.7 		"/>
	</g>
	<g>
		<path class="st6" d="M562.3,487.6l104.6-0.2c1,0,1.7,0.8,1.7,1.7c0,1-0.8,1.7-1.7,1.7l-1.4,0l0,13.3l1.5,0
			c0.7-0.1,1.3,0.5,1.4,1.3c0.1,0.8-0.4,1.5-1.2,1.5c0,0-0.1,0-0.1,0l0,0l-104.8,0.2c-5.5,0-9.9-4.4-9.9-9.8
			C552.4,492.1,556.8,487.6,562.3,487.6z"/>
		<g>
			<path class="st10" d="M562.1,504.5l103.4-0.2l0-13.3l-103.4,0.2c-3.3,0-6,2.7-6,6l0,1.3C556.1,501.8,558.8,504.5,562.1,504.5z"/>
			<g>
				<path class="st0" d="M561.5,487.6l101.6-0.2c0,0,0.1-0.1,0.1-0.1l0-11.6c0,0-0.1-0.1-0.1-0.1l-101.6,0.2c0,0-0.1,0.1-0.1,0.1
					L561.5,487.6C561.4,487.6,561.5,487.6,561.5,487.6z"/>
				
					<rect x="590.4" y="475.8" transform="matrix(-1 2.367040e-03 -2.367040e-03 -1 1185.9053 961.9752)" class="st10" width="3.9" height="11.7"/>
				
					<rect x="582.6" y="475.8" transform="matrix(-1 2.392769e-03 -2.392769e-03 -1 1170.2018 962.0161)" class="st10" width="3.9" height="11.7"/>
			</g>
		</g>
		<path class="st12" d="M657.7,458.7l-93.2-0.4c-0.9,0-1.6,0.7-1.6,1.5c0,0.9,0.7,1.6,1.5,1.6l1.2,0l0,11.9l-1.3,0
			c-0.6-0.1-1.2,0.5-1.3,1.2c-0.1,0.7,0.4,1.3,1,1.4c0,0,0,0,0.1,0l0,0l93.4,0.4c4.9,0,8.8-3.9,8.8-8.8
			C666.5,462.6,662.5,458.7,657.7,458.7z"/>
		<path class="st10" d="M657.8,473.7l-92.1-0.4l0-11.9l92.1,0.4c3,0,5.3,2.4,5.3,5.4l0,1.2C663.1,471.3,660.7,473.7,657.8,473.7z"/>
	</g>
	<g>
		<path class="st2" d="M748.1,341c0.9-0.2,1.5-0.9,1.5-1.8v-0.7c0-1-0.8-1.9-1.9-1.9c-2.3,0-4.2-1.9-4.2-4.2v-10.6
			c0-4.7,3.8-8.5,8.5-8.5h4v-10.6h12.7v10.6h4c4.7,0,8.5,3.8,8.5,8.5v10.6c0,2.3-1.9,4.2-4.2,4.2c-1,0-1.9,0.8-1.9,1.9v0.7
			c0,0.9,0.6,1.7,1.5,1.8c3.8,0.8,6.7,4.2,6.7,8.3v47.2c0,4.7-3.8,8.5-8.5,8.5h-24.9c-4.7,0-8.5-3.8-8.5-8.5v-47.2
			C741.4,345.2,744.3,341.8,748.1,341z"/>
		<path class="st13" d="M754.1,298.3v6.4c0,1.2,1,2.1,2.1,2.1h12.2c1.2,0,2.1-1,2.1-2.1v-6.4c0-1.2-1-2.1-2.1-2.1h-12.2
			C755,296.2,754.1,297.1,754.1,298.3z"/>
		<path class="st14" d="M749.9,404.9h24.9c4.7,0,8.5-3.8,8.5-8.5v-47.2c0-0.6-20.1,0.4-26,0.5c-8.5,0.2-15.8-0.5-15.8-0.5l0,47.2
			C741.4,401.1,745.2,404.9,749.9,404.9z"/>
	</g>
	<path class="st10" d="M529.3,445.1c0.3,1.1-0.4,2.3-1.7,2.6l-37.6,9.1c-0.2,0-0.4,0-0.6,0l-4.3-0.8l-0.2-0.4l3.2-2.6
		c0.1-0.1,0.3-0.2,0.5-0.2l37.8-9.1C527.7,443.4,529,444,529.3,445.1L529.3,445.1z"/>
	<path class="st0" d="M547.7,446.6c0.8,0.9,0.6,2.2-0.5,3.1l-30.3,24c-0.2,0.1-0.3,0.2-0.5,0.2l-4.2,1.1l-0.3-0.3l1.8-3.7
		c0.1-0.2,0.2-0.3,0.4-0.4l30.5-24.2C545.6,445.7,547,445.7,547.7,446.6L547.7,446.6z"/>
	<g>
		<path class="st8" d="M473.4,489.6l-21.3-97.1c-0.5-2.1-2.3-3.6-4.4-3.6H300.4c-3,0-5.1,2.8-4.4,5.6l25.4,98.7
			c0.5,2,2.4,3.7,4.4,3.7h208.3c2,0,3.6-1.4,3.6-3.5l0,0c0-2-1.6-3.7-3.7-3.7L473.4,489.6z"/>
		<circle class="st15" cx="383" cy="442.8" r="9.1"/>
	</g>
	<g>
		<path class="st0" d="M722.8,482.2l-73.2-52.1c-0.7-0.5-1.6-0.3-2.1,0.4s-0.3,1.6,0.4,2.1l1,0.7l-6.6,9.3l-1-0.7
			c-0.5-0.4-1.2-0.3-1.7,0.2c-0.5,0.5-0.4,1.3,0.1,1.7c0,0,0,0,0.1,0l0,0l73.5,52.2c3.8,2.7,9.1,1.8,11.8-2
			C727.5,490.2,726.7,484.9,722.8,482.2z"/>
		<path class="st10" d="M715,494.4l-72.9-51.8l6.6-9.3l72.9,51.8c2.1,1.5,2.6,4.3,1.1,6.4l-1.3,1.9C720,495.4,717.1,495.9,715,494.4
			z"/>
	</g>
	<g>
		<path class="st16" d="M683.5,215.1c3.4,2.6,5.1,7.3,6.3,11.3c1.4,4.4,2,9,2.1,13.7c0.2,10.3,0,20.7-0.1,31c0,0.4-0.6,0.4-0.6,0
			c0-9.9,0.1-19.7,0.1-29.6c0-4.8-0.5-9.4-1.8-14c-1.2-4.1-2.9-9.1-6.4-11.9C682.8,215.3,683.2,214.9,683.5,215.1L683.5,215.1z"/>
	</g>
	<g>
		<path class="st16" d="M482.6,215.1c-6.9,5.2-10.9,13.6-10.6,22.2c0,0.4-0.6,0.4-0.6,0c-0.3-8.8,3.9-17.4,10.9-22.8
			C482.6,214.3,482.9,214.8,482.6,215.1L482.6,215.1z"/>
	</g>
</g>
</svg>
