<?xml version="1.0" encoding="utf-8"?>
<!-- Generator: Adobe Illustrator 25.4.1, SVG Export Plug-In . SVG Version: 6.00 Build 0)  -->
<!DOCTYPE svg PUBLIC "-//W3C//DTD SVG 1.1//EN" "http://www.w3.org/Graphics/SVG/1.1/DTD/svg11.dtd" [
	<!ENTITY ns_extend "http://ns.adobe.com/Extensibility/1.0/">
	<!ENTITY ns_ai "http://ns.adobe.com/AdobeIllustrator/10.0/">
	<!ENTITY ns_graphs "http://ns.adobe.com/Graphs/1.0/">
	<!ENTITY ns_vars "http://ns.adobe.com/Variables/1.0/">
	<!ENTITY ns_imrep "http://ns.adobe.com/ImageReplacement/1.0/">
	<!ENTITY ns_sfw "http://ns.adobe.com/SaveForWeb/1.0/">
	<!ENTITY ns_custom "http://ns.adobe.com/GenericCustomNamespace/1.0/">
	<!ENTITY ns_adobe_xpath "http://ns.adobe.com/XPath/1.0/">
]>
<svg version="1.1" id="Layer_1" xmlns:x="&ns_extend;" xmlns:i="&ns_ai;" xmlns:graph="&ns_graphs;"
	 xmlns="http://www.w3.org/2000/svg" xmlns:xlink="http://www.w3.org/1999/xlink" x="0px" y="0px" viewBox="0 0 5000 3400"
	 style="enable-background:new 0 0 5000 3400;" xml:space="preserve">
<style type="text/css">
	.st0{clip-path:url(#SVGID_00000026852865573241326690000004991766143862347187_);}
	.st1{fill:#FFFFFF;}
	.st2{fill:#E7FAFE;}
	.st3{fill:#A3DBF6;}
	.st4{fill:#FFFFFD;}
	.st5{fill:#84BADD;}
	.st6{fill:#CAEBFE;}
	.st7{fill:#5A8EC2;}
	.st8{fill:#4971AE;}
	.st9{fill:#EFDA84;}
	.st10{fill:#C47C72;}
	.st11{fill:#7372CF;}
	.st12{fill:#5145A9;}
	.st13{fill:#DF5E65;}
	.st14{fill:#251146;}
	.st15{fill:#423086;}
	.st16{fill:#DE9A99;}
	.st17{fill:#342367;}
	.st18{fill:#D67877;}
	.st19{fill:#AD655B;}
	.st20{fill:#B0C3D4;}
	.st21{fill:#C7D5E0;}
	.st22{fill:#91AC37;}
</style>
<metadata>
	<sfw  xmlns="&ns_sfw;">
		<slices></slices>
		<sliceSourceBounds  bottomLeftOrigin="true" height="3444.1" width="5058.8" x="-30" y="-3444.1"></sliceSourceBounds>
	</sfw>
</metadata>
<g>
	<defs>
		<rect id="SVGID_1_" width="5000" height="3400"/>
	</defs>
	<clipPath id="SVGID_00000000936419862053636300000013396440477059375262_">
		<use xlink:href="#SVGID_1_"  style="overflow:visible;"/>
	</clipPath>
	<g style="clip-path:url(#SVGID_00000000936419862053636300000013396440477059375262_);">
		<g>
			<rect class="st1" width="5000" height="3400"/>
		</g>
	</g>
	<g style="clip-path:url(#SVGID_00000000936419862053636300000013396440477059375262_);">
		<g>
			<path class="st2" d="M5028.8,701.2h-901c-152.9,0-114.7,229.4-420.6,229.4s-209.1,344.1-813.7,344.1v1147.1h2135.3V701.2z"/>
		</g>
		<g>
			<path class="st2" d="M1470.5,868.3c-307.4,0-269-229.4-422.7-229.4H-30v1720.6h2076.9V1212.4
				C1701,1212.4,1777.9,868.3,1470.5,868.3z"/>
		</g>
		<g>
			<g>
				<g>
					<path class="st3" d="M1584.1,1456.3c0,0,877.9-817.3,1710.6,174.3l-1304.8,645.7L1584.1,1456.3z"/>
				</g>
			</g>
			<g>
				<g>
					<path class="st2" d="M2646.4,1347.4c-7.8,4.3-16.1,5.9-24.2,6.2c-7.7-21.3,1.9-46.5,24.4-58.9c7.8-4.3,16-5.9,24.2-6.2
						C2678.5,1309.7,2668.9,1334.9,2646.4,1347.4z"/>
				</g>
				<g>
					<path class="st2" d="M2112.9,1342.7c-3.1-8.3-3.5-16.7-2.8-24.8c22.1-4.7,45.6,8.2,54.7,32.3c3.2,8.3,3.6,16.7,2.8,24.8
						C2145.5,1379.6,2122,1366.7,2112.9,1342.7z"/>
				</g>
				<g>
					<path class="st4" d="M2382.1,1237.4l-26.1,12.1l-12.1,26.1l-12.1-26.1l-26.1-12.1l26.1-12.1l12.1-26.1l12.1,26.1L2382.1,1237.4
						z"/>
				</g>
				<g>
					<path class="st5" d="M2493.9,1461.5c-5.6,0-10.1-4.5-10.1-10.1c0-10.2-8.4-18.5-18.6-18.5c-10.3,0-18.6,8.3-18.6,18.5
						c0,5.6-4.5,10.1-10.1,10.1s-10.1-4.5-10.1-10.1c0-21.3,17.4-38.7,38.8-38.7c21.4,0,38.8,17.4,38.8,38.7
						C2504,1456.9,2499.5,1461.5,2493.9,1461.5z"/>
				</g>
			</g>
		</g>
		<g>
			<path class="st4" d="M395.1,1265.1l83.3,370.7c8.8,39.2-9.3,71-40.5,71H322.7c-31.2,0-49.5-31.8-40.8-71.1l81.6-370.5
				C372.1,1225.9,386.3,1225.8,395.1,1265.1z"/>
		</g>
		<g>
			<path class="st4" d="M1000,1056.9l83.3,370.7c8.8,39.2-9.3,71-40.5,71H927.6c-31.2,0-49.5-31.8-40.8-71.1l81.6-370.5
				C977,1017.7,991.2,1017.7,1000,1056.9z"/>
		</g>
		<g>
			<path class="st4" d="M4872.9,1246.4l102.6,456.6c10.9,48.3-11.5,87.5-49.9,87.5h-141.9c-38.4,0-60.9-39.2-50.3-87.6l100.5-456.3
				C4844.6,1198.2,4862.1,1198.1,4872.9,1246.4z"/>
		</g>
		<g>
			<path class="st4" d="M4531.6,1039.6l161.8,719.8c17.1,76.1-18.1,137.9-78.6,137.9h-223.7c-60.5,0-96-61.8-79.2-138.1l158.4-719.3
				C4487,963.5,4514.5,963.4,4531.6,1039.6z"/>
		</g>
		<g>
			<path class="st4" d="M4247.5,1116.1l94.9,422.2c10,44.7-10.6,80.9-46.1,80.9H4165c-35.5,0-56.3-36.3-46.5-81l92.9-422
				C4221.3,1071.5,4237.4,1071.4,4247.5,1116.1z"/>
		</g>
		<g>
			<g>
				<path class="st6" d="M3798.7,1018.1l-96.5,452c-10.2,47.8,10.8,86.6,46.9,86.6h133.4c36.1,0,57.3-38.8,47.3-86.7l-94.5-451.7
					C3825.3,970.3,3808.9,970.3,3798.7,1018.1z"/>
			</g>
			<g>
				<path class="st6" d="M3632.5,1066.2l-96.5,452c-10.2,47.8,10.8,86.6,46.9,86.6h133.4c36.1,0,57.3-38.8,47.3-86.7l-94.5-451.7
					C3659.1,1018.5,3642.7,1018.4,3632.5,1066.2z"/>
			</g>
			<g>
				<path class="st6" d="M3931.2,1137.3l-96.5,452c-10.2,47.8,10.8,86.6,46.9,86.6h133.4c36.1,0,57.3-38.8,47.3-86.7l-94.5-451.7
					C3957.8,1089.6,3941.4,1089.5,3931.2,1137.3z"/>
			</g>
		</g>
		<g>
			<g>
				<g>
					<path class="st6" d="M904.7,1204.4l96.5,452c10.2,47.8-10.8,86.6-46.9,86.6H820.9c-36.1,0-57.3-38.8-47.3-86.7l94.5-451.7
						C878.1,1156.7,894.5,1156.6,904.7,1204.4z"/>
				</g>
				<g>
					<path class="st6" d="M790,1127.9l96.5,452c10.2,47.8-10.8,86.6-46.9,86.6H706.2c-36.1,0-57.3-38.8-47.3-86.7l94.5-451.7
						C763.4,1080.2,779.8,1080.1,790,1127.9z"/>
				</g>
				<g>
					<path class="st6" d="M672.1,1242.6l96.5,452c10.2,47.8-10.8,86.6-46.9,86.6H588.2c-36.1,0-57.3-38.8-47.3-86.7l94.5-451.7
						C645.4,1194.9,661.8,1194.8,672.1,1242.6z"/>
				</g>
			</g>
			<g>
				<path class="st6" d="M1500.9,1385.1c1.6-49.4,43-88.1,92.6-86.5c27.6,0.9,51.7,14.3,67.5,34.3c22.2-39.5,64.9-66,113.6-64.5
					c64.8,2.1,116,52.7,120.9,115.6c23.6-23.8,56.2-38.3,92.4-37.1c69.5,2.2,124.1,60.1,121.8,129.3c-0.2,6.7-1.4,13.1-2.6,19.5
					c9.8,2.1,18.8,5.8,27,10.7c1,0.6,1.9,1.2,2.9,1.9c7.8,5.1,14.8,11.3,20.6,18.4c0.7,0.8,1.3,1.6,1.9,2.4
					c5.6,7.3,10.2,15.3,13.3,24.1c0.5,1.4,0.6,2.8,1.1,4.2c2.7,9,4.6,18.6,4.2,28.6c-0.4,12.4-3.3,23.9-8.3,34.5
					c-4.9,10.6-11.7,19.9-20.1,27.8c-4.2,3.9-8.7,7.6-13.6,10.6c-9.8,6.1-20.8,10.4-32.5,12.4c-0.1,0-0.1,0-0.2,0
					c-5.9,1-11.9,1.4-18.1,1.2c-10.2-0.3-19.7-2.6-28.8-6.1c-1.1-0.4-2.3-0.6-3.3-1.1c-8.5-3.6-16-8.7-22.9-14.5
					c-1.2-1-2.3-2-3.5-3.1c-4.1-3.9-7.2-8.6-10.5-13.2l-451.1-14.4l4.6-145C1529.3,1465.6,1499.5,1428.4,1500.9,1385.1z"/>
			</g>
			<g>
				<path class="st3" d="M2614.8,3444.1V1969.7c0-307.5-76.9-345.9-614.9-345.9c-384.3,0-115.3-269-345.9-269h-576.5
					c-230.6,0-38.4,269-269,269c-230.6,0-269,76.9-269,192.2c0,115.3,0,1383.6,0,1383.6v244.6H2614.8z"/>
			</g>
			<g>
				<g>
					<path class="st7" d="M1487.6,1235.5v678.3h-452.2v-678.3H1487.6z"/>
				</g>
				<g>
					<path class="st5" d="M1746,1235.5v678.3h-258.4v-295.6v-382.7H1746z"/>
				</g>
				<g>
					<path class="st5" d="M1455.3,1267.8l161.5-226.1l161.5,226.1H1455.3z"/>
				</g>
				<g>
					<polygon class="st7" points="1486.7,1268.4 1616,1093.4 1745.9,1267.2 1772,1267.2 1619,1046 1459.5,1267.8 					"/>
				</g>
				<g>
					<path class="st8" d="M1778.3,1276.4c-2.7,0-5.3-1.2-7-3.6l-154.5-216.4l-154.5,216.4c-2.7,3.8-8.1,4.7-11.9,2
						c-3.8-2.7-4.7-8.1-2-11.9l161.5-226.1c1.6-2.2,4.2-3.6,7-3.6s5.3,1.3,7,3.6l161.5,226.1c2.7,3.8,1.9,9.2-2,11.9
						C1781.7,1275.9,1780,1276.4,1778.3,1276.4z"/>
				</g>
				<g>
					<path class="st7" d="M1616.8,1041.7h-452.2l-161.5,226.1h452.2L1616.8,1041.7z"/>
				</g>
				<g>
					<g>
						<path class="st7" d="M1616.8,1380.9L1616.8,1380.9c0,8.9-7.2,16.1-16.1,16.1H1536c-8.9,0-16.1-7.2-16.1-16.1l0,0
							c0-8.9,7.2-16.1,16.1-16.1h64.6C1609.6,1364.7,1616.8,1372,1616.8,1380.9z"/>
					</g>
					<g>
						<path class="st7" d="M1602.3,1712.8L1602.3,1712.8c0,8.9-7.2,16.2-16.1,16.2h-64.6c-8.9,0-16.1-7.2-16.1-16.2l0,0
							c0-8.9,7.2-16.2,16.1-16.2h64.6C1595,1696.6,1602.3,1703.8,1602.3,1712.8z"/>
					</g>
					<g>
						<path class="st7" d="M1746,1300.1h-48.4c-8.9,0-16.1,7.2-16.1,16.1s7.2,16.2,16.1,16.2h48.4V1300.1z"/>
					</g>
					<g>
						<path class="st7" d="M1746,1849.2h-48.4c-8.9,0-16.1,7.2-16.1,16.1c0,8.9,7.2,16.2,16.1,16.2h48.4V1849.2z"/>
					</g>
					<g>
						<path class="st7" d="M1722.6,1601.4L1722.6,1601.4c0,8.9-7.2,16.1-16.2,16.1h-32.3c-8.9,0-16.2-7.2-16.2-16.1l0,0
							c0-8.9,7.2-16.1,16.2-16.1h32.3C1715.3,1585.2,1722.6,1592.4,1722.6,1601.4z"/>
					</g>
				</g>
				<g>
					<g>
						<path class="st8" d="M1326.1,1307.4L1326.1,1307.4c0,8.9-7.2,16.1-16.1,16.1h-64.6c-8.9,0-16.1-7.2-16.1-16.1l0,0
							c0-8.9,7.2-16.1,16.1-16.1h64.6C1318.9,1291.2,1326.1,1298.5,1326.1,1307.4z"/>
					</g>
					<g>
						<path class="st8" d="M1173.5,1883.2L1173.5,1883.2c0,8.9-7.2,16.1-16.2,16.1h-64.6c-8.9,0-16.1-7.2-16.1-16.1l0,0
							c0-8.9,7.2-16.1,16.1-16.1h64.6C1166.3,1867,1173.5,1874.2,1173.5,1883.2z"/>
					</g>
					<g>
						<path class="st8" d="M1469.8,1468.9L1469.8,1468.9c0,8.9-7.2,16.1-16.2,16.1h-32.3c-8.9,0-16.1-7.2-16.1-16.1l0,0
							c0-8.9,7.2-16.1,16.1-16.1h32.3C1462.6,1452.7,1469.8,1460,1469.8,1468.9z"/>
					</g>
					<g>
						<path class="st8" d="M1083.8,1558.5h-48.4v32.3h48.4c8.9,0,16.2-7.2,16.2-16.1C1100,1565.8,1092.8,1558.5,1083.8,1558.5z"/>
					</g>
					<g>
						<path class="st8" d="M1281.6,1610.3L1281.6,1610.3c0,8.9-7.2,16.1-16.1,16.1h-32.3c-8.9,0-16.1-7.2-16.1-16.1l0,0
							c0-8.9,7.2-16.2,16.1-16.2h32.3C1274.4,1594.1,1281.6,1601.3,1281.6,1610.3z"/>
					</g>
					<g>
						<path class="st8" d="M1326.1,1736.2L1326.1,1736.2c0,8.9-7.2,16.2-16.1,16.2h-32.3c-8.9,0-16.1-7.2-16.1-16.2l0,0
							c0-8.9,7.2-16.1,16.1-16.1h32.3C1318.9,1720,1326.1,1727.3,1326.1,1736.2z"/>
					</g>
					<g>
						<path class="st8" d="M1051.5,1364.7h-16.2v32.3h16.2c8.9,0,16.2-7.2,16.2-16.1C1067.7,1372,1060.5,1364.7,1051.5,1364.7z"/>
					</g>
					<g>
						<path class="st8" d="M1455.3,1833.1L1455.3,1833.1c0,8.9-7.2,16.1-16.1,16.1h-32.3c-8.9,0-16.1-7.2-16.1-16.1l0,0
							c0-8.9,7.2-16.1,16.1-16.1h32.3C1448.1,1816.9,1455.3,1824.2,1455.3,1833.1z"/>
					</g>
				</g>
				<g>
					<path class="st8" d="M1455.3,1276.4h-452.2c-3.2,0-6.1-1.8-7.6-4.6c-1.5-2.8-1.2-6.3,0.6-8.9l161.5-226.1
						c1.6-2.2,4.2-3.6,7-3.6h452.2c3.2,0,6.1,1.8,7.6,4.6c1.5,2.8,1.2,6.3-0.6,8.9l-161.5,226.1
						C1460.6,1275,1458,1276.4,1455.3,1276.4z M1019.7,1259.3h431.2l149.3-209H1169L1019.7,1259.3z"/>
				</g>
				<g>
					<path class="st9" d="M1681.4,1397c0-35.7-28.9-64.6-64.6-64.6s-64.6,28.9-64.6,64.6v161.5h129.2V1397z"/>
				</g>
				<g>
					<path class="st9" d="M1681.4,1687.8c0-35.7-28.9-64.6-64.6-64.6c-35.7,0-64.6,28.9-64.6,64.6v161.5h129.2V1687.8z"/>
				</g>
				<g>
					<path class="st9" d="M1229.2,1397c0-35.7-28.9-64.6-64.6-64.6s-64.6,28.9-64.6,64.6v161.5h129.2V1397z"/>
				</g>
				<g>
					<path class="st9" d="M1229.2,1687.7c0-35.7-28.9-64.6-64.6-64.6s-64.6,28.9-64.6,64.6v161.5h129.2V1687.7z"/>
				</g>
				<g>
					<path class="st9" d="M1423,1397c0-35.7-28.9-64.6-64.6-64.6s-64.6,28.9-64.6,64.6v161.5H1423V1397z"/>
				</g>
				<g>
					<path class="st9" d="M1616.8,1156.4c35.7,0,64.6,28.9,64.6,64.6c0,35.7-28.9,64.6-64.6,64.6c-35.7,0-64.6-28.9-64.6-64.6
						C1552.2,1185.3,1581.1,1156.4,1616.8,1156.4z"/>
				</g>
				<g>
					<path class="st7" d="M1681.4,1567.1h-129.2c-4.7,0-8.5-3.8-8.5-8.5V1397c0-40.3,32.8-73.2,73.2-73.2
						c40.3,0,73.2,32.8,73.2,73.2v161.5C1690,1563.2,1686.1,1567.1,1681.4,1567.1z M1560.7,1550h112.1V1397
						c0-30.9-25.2-56.1-56.1-56.1c-30.9,0-56.1,25.2-56.1,56.1V1550z"/>
				</g>
				<g>
					<path class="st7" d="M1681.4,1857.8h-129.2c-4.7,0-8.5-3.8-8.5-8.5v-161.5c0-40.3,32.8-73.2,73.2-73.2s73.2,32.8,73.2,73.2
						v161.5C1689.9,1853.9,1686.1,1857.8,1681.4,1857.8z M1560.7,1840.7h112.2v-152.9c0-30.9-25.2-56.1-56.1-56.1
						s-56.1,25.2-56.1,56.1V1840.7z"/>
				</g>
				<g>
					<path class="st10" d="M1423,1687.7c0-35.7-28.9-64.6-64.6-64.6s-64.6,28.9-64.6,64.6l0,226.1H1423V1687.7z"/>
				</g>
				<g>
					<path class="st8" d="M1293.8,1913.5c-4.7,0-8.5-3.8-8.5-8.5l0-217.2c0-40.3,32.8-73.2,73.2-73.2c40.3,0,73.2,32.8,73.2,73.2
						v217.2c0,4.7-3.8,8.5-8.5,8.5s-8.5-3.8-8.5-8.5v-217.2c0-30.9-25.2-56.1-56.1-56.1c-30.9,0-56.1,25.2-56.1,56.1l0,217.2
						C1302.3,1909.6,1298.5,1913.5,1293.8,1913.5C1293.8,1913.5,1293.8,1913.5,1293.8,1913.5z"/>
				</g>
				<g>
					<path class="st8" d="M1229.2,1567.1H1100c-4.7,0-8.5-3.8-8.5-8.5V1397c0-40.3,32.8-73.2,73.2-73.2c40.3,0,73.2,32.8,73.2,73.2
						v161.5C1237.8,1563.2,1233.9,1567.1,1229.2,1567.1z M1108.5,1550h112.1V1397c0-30.9-25.2-56.1-56.1-56.1
						c-30.9,0-56.1,25.2-56.1,56.1V1550z"/>
				</g>
				<g>
					<path class="st8" d="M1229.2,1857.8h-129.2c-4.7,0-8.5-3.8-8.5-8.5v-161.5c0-40.3,32.8-73.2,73.2-73.2s73.2,32.8,73.2,73.2
						v161.5C1237.7,1853.9,1233.9,1857.8,1229.2,1857.8z M1108.5,1840.7h112.2v-152.9c0-30.9-25.2-56.1-56.1-56.1
						s-56.1,25.2-56.1,56.1V1840.7z"/>
				</g>
				<g>
					<path class="st8" d="M1423,1567.1h-129.2c-4.7,0-8.5-3.8-8.5-8.5V1397c0-40.3,32.8-73.2,73.2-73.2c40.3,0,73.2,32.8,73.2,73.2
						v161.5C1431.6,1563.2,1427.7,1567.1,1423,1567.1z M1302.3,1550h112.1V1397c0-30.9-25.2-56.1-56.1-56.1
						c-30.9,0-56.1,25.2-56.1,56.1V1550z"/>
				</g>
				<g>
					<path class="st7" d="M1616.8,1294.2c-40.3,0-73.1-32.8-73.1-73.1s32.8-73.1,73.1-73.1s73.1,32.8,73.1,73.1
						S1657.1,1294.2,1616.8,1294.2z M1616.8,1165c-30.9,0-56.1,25.1-56.1,56.1s25.1,56.1,56.1,56.1s56.1-25.1,56.1-56.1
						S1647.7,1165,1616.8,1165z"/>
				</g>
			</g>
			<g>
				<g>
					<path class="st4" d="M2017.3,1812.7l-26.1,12.1l-12.1,26.1l-12.1-26.1l-26.1-12.1l26.1-12.1l12.1-26.1l12.1,26.1L2017.3,1812.7
						z"/>
				</g>
				<g>
					<path class="st5" d="M1391.6,2071.8c-5.6,0-10.1-4.5-10.1-10.1c0-10.2-8.4-18.5-18.6-18.5c-10.3,0-18.6,8.3-18.6,18.5
						c0,5.6-4.5,10.1-10.1,10.1s-10.1-4.5-10.1-10.1c0-21.3,17.4-38.7,38.8-38.7c21.4,0,38.8,17.4,38.8,38.7
						C1401.7,2067.2,1397.2,2071.8,1391.6,2071.8z"/>
				</g>
				<g>
					<path class="st2" d="M981.2,1705.7c8,3.8,16.4,4.9,24.5,4.8c6.4-21.6-4.5-46.1-27.8-57.1c-8.1-3.8-16.3-4.9-24.5-4.8
						C947,1670.2,958,1694.7,981.2,1705.7z"/>
				</g>
			</g>
		</g>
		<g>
			<path class="st5" d="M-30,2162h1111.6c0,0-344.8-571.8-727.9-571.8c-184.9,0-298.5,53.3-383.7,108.4V2162z"/>
		</g>
		<g>
			<path class="st6" d="M3057.2,1811v-453.4c0-62.6-50.9-113.5-113.5-113.5c-62.6,0-113.3,50.9-113.3,113.5
				c0,13.6,2.7,26.5,7.1,38.5c-2.4-0.1-4.7-0.8-7.1-0.8c-83.5,0-151.2,67.7-151.2,151.2c0,14.9,2.9,28.9,6.9,42.5
				c-47.4,13.5-82.3,56.9-82.3,108.7c0,62.6,50.7,113.3,113.3,113.3H3057.2z"/>
		</g>
		<g>
			<g>
				<path class="st5" d="M5026.5,3444.1V1740.3h-823.2c-345.9,0-230.7-307.6-499.7-307.6h-576.6c-307.5,0-268.9,422.8-576.4,422.8
					c-153.7,0-269.1,38.4-422.8,461.1c-69.5,191.2-241.2,665.4-408.4,1127.5H5026.5z"/>
			</g>
			<g>
				<path class="st3" d="M5028.8,2098c-439.9,0.1-938.7,0.3-966.2,0.6c-447.4,4-505.6,19.2-505.6-77.1
					c0-188.9-75.8-189.1-264.7-189.1c-166.1,4.7-188.9,0.2-188.9-75.4c0-75.6,0.1-642.5,0.1-642.5l-151.1-0.1c0,0-0.1,718-0.1,793.6
					c0,75.6,37.9,113.5,113.5,113.5h226.6c75.6,0,113.5,37.6,113.5,151c0,75.6,37.7,113.5,113.3,113.5h1509.7V2098z"/>
			</g>
			<g>
				<g>
					<path class="st7" d="M3158.3,1169.3v387.6h452.2v-387.6H3158.3z"/>
				</g>
				<g>
					<path class="st5" d="M2899.9,1169.3v387.6h258.4v-387.6H2899.9z"/>
				</g>
				<g>
					<path class="st7" d="M3190.6,1201.6l-161.5-226.1l-161.5,226.1H3190.6z"/>
				</g>
				<g>
					<path class="st5" d="M3029.1,975.5h452.2l161.5,226.1h-452.2L3029.1,975.5z"/>
				</g>
				<g>
					<path class="st7" d="M3248.1,1120.1c7.7-46.3,45.6-89,136.3-88c64.6,0.7,96.9,51.4,96.9,104.9v64.6l-235,0
						C3246.3,1201.6,3239,1174.7,3248.1,1120.1z"/>
				</g>
				<g>
					<path class="st3" d="M3642.8,1210.1h-452.2c-2.8,0-5.3-1.3-7-3.6l-161.5-226.1c-1.9-2.6-2.1-6-0.6-8.9c1.5-2.8,4.4-4.6,7.6-4.6
						h452.2c2.8,0,5.3,1.3,7,3.6l161.5,226.1c1.9,2.6,2.1,6,0.6,8.9C3648.9,1208.3,3646,1210.1,3642.8,1210.1z M3195,1193h431.2
						l-149.3-209h-431.2L3195,1193z"/>
				</g>
				<g>
					<polygon class="st5" points="2899.7,1202.2 3031,1022.2 3158.2,1201.9 					"/>
				</g>
				<g>
					<path class="st3" d="M3190.6,1210.1c-2.7,0-5.3-1.2-7-3.6l-154.5-216.4l-154.5,216.4c-2.7,3.8-8.1,4.7-11.9,2s-4.7-8.1-2-11.9
						l161.5-226.1c1.6-2.2,4.2-3.6,7-3.6s5.3,1.3,7,3.6l161.5,226.1c2.7,3.8,1.9,9.2-2,11.9
						C3194.1,1209.6,3192.3,1210.1,3190.6,1210.1z"/>
				</g>
				<g>
					<g>
						<path class="st3" d="M3045.1,1540.6L3045.1,1540.6c0,8.9,7.2,16.1,16.1,16.1h64.6c8.9,0,16.2-7.2,16.2-16.1l0,0
							c0-8.9-7.2-16.1-16.2-16.1h-64.6C3052.4,1524.4,3045.1,1531.7,3045.1,1540.6z"/>
					</g>
					<g>
						<path class="st3" d="M3029.1,1319.2L3029.1,1319.2c0,8.9,7.2,16.1,16.2,16.1h64.6c8.9,0,16.1-7.2,16.1-16.1l0,0
							c0-8.9-7.2-16.2-16.1-16.2h-64.6C3036.3,1303,3029.1,1310.2,3029.1,1319.2z"/>
					</g>
					<g>
						<path class="st3" d="M2916.1,1427.7h-16.2v32.3h16.2c8.9,0,16.1-7.2,16.1-16.1C2932.2,1434.9,2925,1427.7,2916.1,1427.7z"/>
					</g>
					<g>
						<path class="st3" d="M2967.3,1197.1L2967.3,1197.1c0,8.9,7.2,16.1,16.2,16.1h32.3c8.9,0,16.1-7.2,16.1-16.1l0,0
							c0-8.9-7.2-16.1-16.1-16.1h-32.3C2974.5,1180.9,2967.3,1188.2,2967.3,1197.1z"/>
					</g>
				</g>
				<g>
					<g>
						<path class="st5" d="M3167.2,1461.6L3167.2,1461.6c0,8.9,7.2,16.1,16.1,16.1h64.6c8.9,0,16.1-7.2,16.1-16.1l0,0
							c0-8.9-7.2-16.2-16.1-16.2h-64.6C3174.4,1445.5,3167.2,1452.7,3167.2,1461.6z"/>
					</g>
					<g>
						<path class="st5" d="M3384.4,1379.2L3384.4,1379.2c0,8.9,7.2,16.1,16.1,16.1h32.3c8.9,0,16.1-7.2,16.1-16.1l0,0
							c0-8.9-7.2-16.2-16.1-16.2h-32.3C3391.6,1363.1,3384.4,1370.3,3384.4,1379.2z"/>
					</g>
					<g>
						<path class="st5" d="M3178,1322.3L3178,1322.3c0,8.9,7.2,16.1,16.1,16.1h32.3c8.9,0,16.1-7.2,16.1-16.1l0,0
							c0-8.9-7.2-16.2-16.1-16.2h-32.3C3185.3,1306.2,3178,1313.4,3178,1322.3z"/>
					</g>
					<g>
						<path class="st5" d="M3492.3,1527.4L3492.3,1527.4c0,8.9,7.2,16.1,16.1,16.1h64.6c8.9,0,16.1-7.2,16.1-16.1l0,0
							c0-8.9-7.2-16.1-16.1-16.1h-64.6C3499.5,1511.2,3492.3,1518.5,3492.3,1527.4z"/>
					</g>
					<g>
						<path class="st5" d="M3287.5,1508.4L3287.5,1508.4c0,8.9,7.2,16.1,16.1,16.1h32.3c8.9,0,16.1-7.2,16.1-16.1l0,0
							c0-8.9-7.2-16.1-16.1-16.1h-32.3C3294.7,1492.3,3287.5,1499.5,3287.5,1508.4z"/>
					</g>
					<g>
						<path class="st5" d="M3352.1,1250L3352.1,1250c0,8.9,7.2,16.1,16.1,16.1h32.3c8.9,0,16.1-7.2,16.1-16.1l0,0
							c0-8.9-7.2-16.1-16.1-16.1h-32.3C3359.3,1233.9,3352.1,1241.1,3352.1,1250z"/>
					</g>
					<g>
						<path class="st5" d="M3610.5,1266.2h-16.1c-8.9,0-16.1,7.2-16.1,16.1c0,8.9,7.2,16.1,16.1,16.1h16.1V1266.2z"/>
					</g>
				</g>
				<g>
					<path class="st7" d="M2964.5,1330.8c0-35.7,28.9-64.6,64.6-64.6s64.6,28.9,64.6,64.6v226.1h-129.2L2964.5,1330.8z"/>
				</g>
				<g>
					<path class="st3" d="M2964.5,1557.4c-4.7,0-8.5-3.8-8.5-8.5l0-218.1c0-40.3,32.8-73.2,73.2-73.2c40.3,0,73.2,32.8,73.2,73.2
						v218.1c0,4.7-3.8,8.5-8.5,8.5s-8.5-3.8-8.5-8.5v-218.1c0-30.9-25.2-56.1-56.1-56.1c-30.9,0-56.1,25.2-56.1,56.1l0,218.1
						C2973.1,1553.6,2969.2,1557.4,2964.5,1557.4C2964.5,1557.4,2964.5,1557.4,2964.5,1557.4z"/>
				</g>
				<g>
					<path class="st9" d="M3222.9,1330.8c0-35.7,28.9-64.6,64.6-64.6s64.6,28.9,64.6,64.6v161.5h-129.2V1330.8z"/>
				</g>
				<g>
					<path class="st9" d="M3416.7,1330.8c0-35.7,28.9-64.6,64.6-64.6s64.6,28.9,64.6,64.6v161.5h-129.2V1330.8z"/>
				</g>
				<g>
					<path class="st3" d="M3352.1,1500.8h-129.2c-4.7,0-8.5-3.8-8.5-8.5v-161.5c0-40.3,32.8-73.2,73.2-73.2s73.2,32.8,73.2,73.2
						v161.5C3360.7,1497,3356.8,1500.8,3352.1,1500.8z M3231.4,1483.7h112.2v-152.9c0-30.9-25.2-56.1-56.1-56.1
						c-30.9,0-56.1,25.2-56.1,56.1V1483.7z"/>
				</g>
				<g>
					<path class="st3" d="M3545.9,1500.8h-129.2c-4.7,0-8.5-3.8-8.5-8.5v-161.5c0,0,0,0,0,0c0-40.3,32.8-73.2,73.2-73.2
						c40.3,0,73.2,32.8,73.2,73.2v161.5C3554.5,1497,3550.6,1500.8,3545.9,1500.8z M3425.2,1483.7h112.2v-152.9
						c0-30.9-25.2-56.1-56.1-56.1c-30.9,0-56.1,25.2-56.1,56.1V1483.7z"/>
				</g>
				<g>
					<path class="st5" d="M3287.5,1137c0-53.5,43.4-96.9,96.9-96.9c53.5,0,96.9,43.4,96.9,96.9l-0.1,64.5h-193.8L3287.5,1137z"/>
				</g>
				<g>
					<path class="st9" d="M3319.8,1137c0-35.7,28.9-64.6,64.6-64.6c35.7,0,64.6,28.9,64.6,64.6l0,32.3h-129.2V1137z"/>
				</g>
				<g>
					<path class="st3" d="M3449,1177.8h-129.2c-4.7,0-8.5-3.8-8.5-8.5V1137c0-40.3,32.8-73.2,73.2-73.2c40.3,0,73.2,32.8,73.2,73.2
						l0,32.3C3457.6,1174,3453.7,1177.8,3449,1177.8z M3328.4,1160.7h112.1l0-23.7c0-30.9-25.2-56.1-56.1-56.1
						c-30.9,0-56.1,25.2-56.1,56.1V1160.7z"/>
				</g>
				<g>
					<path class="st3" d="M3481.3,1210.1h-193.8c-4.7,0-8.5-3.8-8.5-8.5l0-64.5c0,0,0,0,0,0c0-58.2,47.3-105.5,105.5-105.5
						s105.5,47.3,105.5,105.5l-0.1,64.6C3489.9,1206.3,3486,1210.1,3481.3,1210.1z M3296.1,1193h176.7l0-56
						c0-48.7-39.6-88.4-88.4-88.4c-48.7,0-88.4,39.6-88.4,88.4L3296.1,1193z"/>
				</g>
			</g>
			<g>
				<g>
					<path class="st4" d="M4846.8,1815.9l-26.1,12.1l-12.1,26.1l-12.1-26.1l-26.1-12.1l26.1-12.1l12.1-26.1l12.1,26.1L4846.8,1815.9
						z"/>
				</g>
				<g>
					<path class="st4" d="M2913,1861.9l-26.1,12.1l-12.1,26.1l-12.1-26.1l-26.1-12.1l26.1-12.1l12.1-26.1l12.1,26.1L2913,1861.9z"/>
				</g>
				<g>
					<path class="st3" d="M4754.8,2027.3c-3.1-8.3-3.5-16.7-2.8-24.8c22.1-4.7,45.6,8.2,54.7,32.3c3.2,8.3,3.6,16.7,2.8,24.8
						C4787.5,2064.2,4763.9,2051.4,4754.8,2027.3z"/>
				</g>
				<g>
					<path class="st3" d="M2856.6,2203.9c-3.1-8.3-3.5-16.7-2.8-24.8c22.1-4.7,45.6,8.2,54.7,32.3c3.2,8.3,3.6,16.7,2.8,24.8
						C2889.3,2240.8,2865.7,2227.9,2856.6,2203.9z"/>
				</g>
				<g>
					<path class="st3" d="M4919.2,1917.7c8.3-3.1,16.7-3.5,24.8-2.8c4.7,22.1-8.2,45.6-32.3,54.7c-8.3,3.2-16.7,3.6-24.8,2.8
						C4882.3,1950.3,4895.1,1926.8,4919.2,1917.7z"/>
				</g>
				<g>
					<path class="st8" d="M3394.2,1713.2c-5.6,0-10.1-4.5-10.1-10.1c0-10.2-8.4-18.5-18.6-18.5c-10.3,0-18.6,8.3-18.6,18.5
						c0,5.6-4.5,10.1-10.1,10.1s-10.1-4.5-10.1-10.1c0-21.3,17.4-38.7,38.8-38.7c21.4,0,38.8,17.4,38.8,38.7
						C3404.4,1708.7,3399.8,1713.2,3394.2,1713.2z"/>
				</g>
				<g>
					<path class="st8" d="M3211,2157.2c-5.6,0-10.1-4.5-10.1-10.1c0-10.2-8.4-18.5-18.6-18.5c-10.3,0-18.6,8.3-18.6,18.5
						c0,5.6-4.5,10.1-10.1,10.1s-10.1-4.5-10.1-10.1c0-21.3,17.4-38.7,38.8-38.7c21.4,0,38.8,17.4,38.8,38.7
						C3221.1,2152.6,3216.6,2157.2,3211,2157.2z"/>
				</g>
			</g>
		</g>
		<g>
			<g>
				<path class="st8" d="M4475.5,1892.4h152.9l-38.2-420.6h-76.5L4475.5,1892.4z"/>
			</g>
			<g>
				<path class="st7" d="M4551.9,1586.5h-38.1h-10.5l-27.8,306h76.5V1586.5z"/>
			</g>
			<g>
				<path class="st8" d="M4609.4,1738.1c-5.6,0-10.1-4.5-10.1-10.1s4.5-10.1,10.1-10.1c47.1,0,85.5-38.3,85.5-85.5v-53
					c0-5.6,4.5-10.1,10.1-10.1s10.1,4.5,10.1,10.1v53C4715.1,1690.6,4667.7,1738.1,4609.4,1738.1z"/>
			</g>
			<g>
				<path class="st7" d="M4513.3,1623.3c-58.3,0-105.7-47.4-105.7-105.7v-23.6c0-5.6,4.5-10.1,10.1-10.1s10.1,4.5,10.1,10.1v23.6
					c0,47.1,38.3,85.5,85.5,85.5c5.6,0,10.1,4.5,10.1,10.1S4518.9,1623.3,4513.3,1623.3z"/>
			</g>
			<g>
				<path class="st3" d="M4743.2,1171.2V1277v85.4c0,105.6-85.6,191.2-191.2,191.2l0,0c-105.6,0-191.2-85.6-191.2-191.2v-191.2
					c0-105.6,85.6-191.2,191.2-191.2l0,0C4657.6,980.1,4743.2,1065.6,4743.2,1171.2z"/>
			</g>
			<g>
				<path class="st5" d="M4743.3,1171.2c0-43-14.8-82.3-38.8-114.2c-32-24-71.2-38.8-114.2-38.8c-105.6,0-191.1,85.8-191.1,191.4
					v191.1c0,43.2,14.8,82.6,39,114.6c31.9,23.8,71,38.4,113.8,38.4c105.6,0,191.3-85.8,191.3-191.3V1277V1171.2z"/>
			</g>
			<g>
				<path class="st3" d="M4781.4,1498.6v38.2c0,42.2-34.2,76.5-76.5,76.5l0,0c-42.2,0-76.5-34.2-76.5-76.5v-38.2
					c0-42.2,34.2-76.5,76.5-76.5l0,0C4747.2,1422.1,4781.4,1456.4,4781.4,1498.6z"/>
			</g>
			<g>
				<path class="st5" d="M4781.4,1498.6c0-11.2-2.6-21.6-7-31.2c-9.6-4.3-20-7-31.2-7c-42.2,0-76.5,34.3-76.5,76.5v38.1
					c0,11.2,2.6,21.6,7,31.2c9.6,4.3,20,7,31.2,7c42.2,0,76.5-34.1,76.5-76.3V1498.6z"/>
			</g>
			<g>
				<path class="st3" d="M4487.2,1141.4c7.9,4.1,16.2,5.5,24.3,5.7c7.2-21.4-2.8-46.2-25.7-58.1c-7.9-4.1-16.1-5.5-24.3-5.7
					C4454.3,1104.7,4464.4,1129.5,4487.2,1141.4z"/>
			</g>
			<g>
				<path class="st3" d="M4683.3,1261.4c0-8.9-2.6-16.9-6.2-24.2c-22.3,3.5-39.7,23.9-39.7,49.6c0,8.9,2.6,16.9,6.2,24.2
					C4665.8,1307.5,4683.3,1287.1,4683.3,1261.4z"/>
			</g>
			<g>
				<path class="st3" d="M4522.2,1453.9c8,3.8,16.4,4.9,24.5,4.8c6.4-21.6-4.5-46.1-27.8-57.1c-8.1-3.8-16.3-4.9-24.5-4.8
					C4488.1,1418.4,4499,1442.9,4522.2,1453.9z"/>
			</g>
			<g>
				<path class="st7" d="M4762.3,1547c-5.6,0-10.1-4.5-10.1-10.1c0-10.2-8.3-18.6-18.6-18.6c-10.2,0-18.6,8.3-18.6,18.6
					c0,5.6-4.5,10.1-10.1,10.1s-10.1-4.5-10.1-10.1c0-21.4,17.4-38.8,38.8-38.8c21.4,0,38.8,17.4,38.8,38.8
					C4772.4,1542.4,4767.9,1547,4762.3,1547z"/>
			</g>
			<g>
				<path class="st7" d="M4647.6,1095.4c-5.6,0-10.1-4.5-10.1-10.1c0-10.2-8.3-18.6-18.6-18.6c-10.2,0-18.6,8.3-18.6,18.6
					c0,5.6-4.5,10.1-10.1,10.1s-10.1-4.5-10.1-10.1c0-21.4,17.4-38.8,38.8-38.8c21.4,0,38.8,17.4,38.8,38.8
					C4657.7,1090.9,4653.2,1095.4,4647.6,1095.4z"/>
			</g>
			<g>
				<path class="st7" d="M4445.3,1286.6c-5.6,0-10.1-4.5-10.1-10.1c0-10.2-8.3-18.6-18.6-18.6c-10.2,0-18.6,8.3-18.6,18.6
					c0,5.6-4.5,10.1-10.1,10.1s-10.1-4.5-10.1-10.1c0-21.4,17.4-38.8,38.8-38.8c21.4,0,38.8,17.4,38.8,38.8
					C4455.4,1282.1,4450.9,1286.6,4445.3,1286.6z"/>
			</g>
		</g>
		<g>
			<path class="st11" d="M3239.3,2627.9c12.7-30.5,14.1-62.8,6.6-92.5l0.3-0.6l-0.6-0.3c-11.1-43.2-41.2-81.2-85.5-99.7
				c-0.9-0.4-1.9-0.5-2.8-0.8c13.5-67.4-21.8-137.2-87.7-164.7c-66.7-27.9-142.1-2.9-180.2,55.6c-15.5-28.1-39.6-51.6-71.5-64.9
				c-70.1-29.3-149.4-0.1-185.3,64.9c-13.9-14.9-30.7-27.3-50.6-35.6c-75.1-31.4-161.6,4-193,79.1l407.4,170.3l164.7,68.8
				l216.4,90.5l0.6,0.3l0.2-0.6C3204.6,2681.8,3226.6,2658.3,3239.3,2627.9z"/>
		</g>
		<g>
			<g>
				<path class="st11" d="M293.8,1897.2h152.7l-38.2-420H332L293.8,1897.2z"/>
			</g>
			<g>
				<path class="st12" d="M370.1,1591.8H332h-10.5l-27.8,305.5h76.4V1591.8z"/>
			</g>
			<g>
				<path class="st12" d="M312.9,1678.4c-58.2,0-105.5-47.3-105.5-105.5v-52.9c0-5.6,4.5-10.1,10.1-10.1c5.6,0,10.1,4.5,10.1,10.1
					v52.9c0,47.1,38.3,85.3,85.3,85.3c5.6,0,10.1,4.5,10.1,10.1S318.5,1678.4,312.9,1678.4z"/>
			</g>
			<g>
				<path class="st7" d="M675.6,1553.6c0-168.7-136.6-305.3-305.3-305.3S64.8,1384.9,64.8,1553.6H675.6z"/>
			</g>
			<g>
				<path class="st5" d="M675.5,1553.8c0-103.4-51.5-194.3-130-249.6c-31.1-10.7-64.1-17.7-98.9-17.7
					c-155.7,0-282.6,116.7-301.5,267.2H675.5z"/>
			</g>
			<g>
				<path class="st3" d="M572.7,1444.8c7.9-4.1,16.2-5.5,24.3-5.7c7.2,21.3-2.8,46.2-25.6,58c-7.9,4.1-16.1,5.5-24.3,5.6
					C539.9,1481.5,549.9,1456.7,572.7,1444.8z"/>
			</g>
			<g>
				<path class="st3" d="M334.5,1303.7c2.7-8.4,7.6-15.3,13.1-21.2c20.2,10,30.7,34.6,23,59.1c-2.7,8.5-7.5,15.3-13.1,21.2
					C337.3,1352.8,326.8,1328.2,334.5,1303.7z"/>
			</g>
			<g>
				<path class="st3" d="M146.8,1449.5c-4.1-7.9-5.5-16.2-5.7-24.3c21.3-7.2,46.2,2.8,58,25.6c4.1,7.9,5.5,16.1,5.6,24.3
					C183.5,1482.3,158.6,1472.2,146.8,1449.5z"/>
			</g>
			<g>
				<path class="st7" d="M427.4,1477.9c-5.6,0-10.1-4.5-10.1-10.1c0-10.2-8.3-18.5-18.5-18.5c-10.2,0-18.5,8.3-18.5,18.5
					c0,5.6-4.5,10.1-10.1,10.1c-5.6,0-10.1-4.5-10.1-10.1c0-21.4,17.4-38.7,38.7-38.7c21.4,0,38.7,17.4,38.7,38.7
					C437.5,1473.4,433,1477.9,427.4,1477.9z"/>
			</g>
		</g>
		<g>
			<path class="st7" d="M669.7,2009.9c-34.9-18.9-74.5-19.6-108.7-6.2c1-65.1-32.9-128.9-94.4-162.1c-82-44.2-182.1-18.3-233.6,56.2
				c-12.1-46.5-42.2-88.1-88-112.9c-56.9-30.7-122.8-27.9-175,1.5v371.7l502.5,271.1l98.9-183.3c57.6,17.5,121.3-7.1,150.9-61.9
				C756,2121.6,732.5,2043.8,669.7,2009.9z"/>
		</g>
		<g>
			<path class="st3" d="M107.7,2168.7h76.9h76.9c10.6,0,19.2-8.6,19.2-19.1v-121c0-10.6-8.6-19.1-19.2-19.1
				c-10.6,0-19.2,8.6-19.2,19.1v19.6v18.6c0,10.6-8.6,19.1-19.2,19.1c-10.6,0-19.2-8.6-19.2-19.1v-20.3v-132.6
				c0-10.6-8.6-19.1-19.2-19.1c-10.6,0-19.2,8.6-19.2,19.1v97.2v17.9c0,10.6-8.6,19.1-19.2,19.1c-10.6,0-19.2-8.6-19.2-19.1v-19.6
				v-19.1c0-10.6-8.6-19.1-19.2-19.1c-10.6,0-19.2,8.6-19.2,19.1v159.2C88.5,2160.1,97.1,2168.7,107.7,2168.7z"/>
		</g>
		<g>
			<g>
				<path class="st13" d="M3075.5,2422.5v76.5c0,21.1-17.1,38.2-38.2,38.2l0,0c-21.1,0-38.2-17.1-38.2-38.2v-76.5
					c0-21.1,17.1-38.2,38.2-38.2l0,0C3058.4,2384.3,3075.5,2401.4,3075.5,2422.5z"/>
			</g>
			<g>
				<path class="st14" d="M3037.3,2656.1c-2.3,0-4.1-1.8-4.1-4.1v-191.2c0-2.3,1.8-4.1,4.1-4.1s4.1,1.8,4.1,4.1V2652
					C3041.4,2654.2,3039.6,2656.1,3037.3,2656.1z"/>
			</g>
		</g>
		<g>
			<g>
				<path class="st7" d="M3407.7,1975.2l96.5,452c10.2,47.8-10.8,86.6-46.9,86.6h-133.4c-36.1,0-57.3-38.8-47.3-86.7l94.5-451.7
					C3381.1,1927.5,3397.5,1927.4,3407.7,1975.2z"/>
			</g>
			<g>
				<path class="st7" d="M668.6,1669.2l77.4,362.5c8.2,38.3-8.7,69.4-37.6,69.4h-107c-29,0-45.9-31.1-37.9-69.6l75.8-362.3
					C647.2,1630.9,660.4,1630.8,668.6,1669.2z"/>
			</g>
			<g>
				<path class="st7" d="M875.2,1549.8l91.8,429.8c9.7,45.5-10.3,82.3-44.6,82.3H795.5c-34.3,0-54.5-36.9-44.9-82.5l89.9-429.6
					C849.9,1504.4,865.5,1504.4,875.2,1549.8z"/>
			</g>
			<g>
				<g>
					<path class="st8" d="M2523.9,1703.5v678.3h-452.2v-678.3H2523.9z"/>
				</g>
				<g>
					<path class="st7" d="M2782.3,1703.5v678.3h-258.4v-678.3H2782.3z"/>
				</g>
				<g>
					<path class="st7" d="M2491.6,1735.8l161.5-226.1l161.5,226.1H2491.6z"/>
				</g>
				<g>
					<polygon class="st8" points="2523.1,1736.9 2653,1557.2 2781.9,1735.1 2806.9,1735.1 2657.4,1517.1 2646.7,1516.2 
						2491.6,1735.8 					"/>
				</g>
				<g>
					<path class="st15" d="M2814.6,1744.3c-2.7,0-5.3-1.2-7-3.6l-154.5-216.4l-154.5,216.4c-2.7,3.8-8.1,4.7-11.9,2
						c-3.8-2.7-4.7-8.1-2-11.9l161.5-226.1c1.6-2.2,4.2-3.6,7-3.6s5.3,1.3,7,3.6l161.5,226.1c2.7,3.8,1.9,9.2-2,11.9
						C2818.1,1743.8,2816.4,1744.3,2814.6,1744.3z"/>
				</g>
				<g>
					<path class="st12" d="M2653.1,1509.7h-452.2l-161.5,226.1h452.2L2653.1,1509.7z"/>
				</g>
				<g>
					<path class="st15" d="M2491.6,1744.3h-452.2c-3.2,0-6.1-1.8-7.6-4.6c-1.5-2.8-1.2-6.3,0.6-8.9l161.5-226.1
						c1.6-2.2,4.2-3.6,7-3.6h452.2c3.2,0,6.1,1.8,7.6,4.6c1.5,2.8,1.2,6.3-0.6,8.9l-161.5,226.1
						C2497,1743,2494.4,1744.3,2491.6,1744.3z M2056,1727.2h431.2l149.3-209h-431.2L2056,1727.2z"/>
				</g>
				<g>
					<g>
						<path class="st7" d="M2330.1,1784.2L2330.1,1784.2c0,8.9-7.2,16.1-16.2,16.1h-64.6c-8.9,0-16.1-7.2-16.1-16.1l0,0
							c0-8.9,7.2-16.1,16.1-16.1h64.6C2322.9,1768.1,2330.1,1775.3,2330.1,1784.2z"/>
					</g>
					<g>
						<path class="st7" d="M2523.9,1945.7L2523.9,1945.7c0,8.9-7.2,16.2-16.1,16.2h-32.3c-8.9,0-16.1-7.2-16.1-16.2l0,0
							c0-8.9,7.2-16.1,16.1-16.1h32.3C2516.7,1929.6,2523.9,1936.8,2523.9,1945.7z"/>
					</g>
					<g>
						<path class="st7" d="M2120.2,2026.5h-48.4v32.3h48.4c8.9,0,16.1-7.2,16.1-16.1C2136.3,2033.7,2129.1,2026.5,2120.2,2026.5z"/>
					</g>
					<g>
						<path class="st7" d="M2087.9,2317.2h-16.2v32.3h16.2c8.9,0,16.1-7.2,16.1-16.1C2104,2324.4,2096.8,2317.2,2087.9,2317.2z"/>
					</g>
					<g>
						<path class="st7" d="M2362.4,2107.2L2362.4,2107.2c0,8.9-7.2,16.1-16.1,16.1H2314c-8.9,0-16.1-7.2-16.1-16.1l0,0
							c0-8.9,7.2-16.1,16.1-16.1h32.3C2355.2,2091.1,2362.4,2098.3,2362.4,2107.2z"/>
					</g>
					<g>
						<path class="st7" d="M2087.9,1832.7h-16.2v32.3h16.2c8.9,0,16.1-7.2,16.1-16.1C2104,1839.9,2096.8,1832.7,2087.9,1832.7z"/>
					</g>
					<g>
						<path class="st7" d="M2523.9,2236.4L2523.9,2236.4c0,8.9-7.2,16.1-16.1,16.1h-32.3c-8.9,0-16.1-7.2-16.1-16.1l0,0
							c0-8.9,7.2-16.1,16.1-16.1h32.3C2516.7,2220.3,2523.9,2227.5,2523.9,2236.4z"/>
					</g>
				</g>
				<g>
					<g>
						<path class="st8" d="M2644.2,1742.1L2644.2,1742.1c0,8.9-7.2,16.1-16.1,16.1h-64.6c-8.9,0-16.1-7.2-16.1-16.1l0,0
							c0-8.9,7.2-16.2,16.1-16.2h64.6C2637,1725.9,2644.2,1733.1,2644.2,1742.1z"/>
					</g>
					<g>
						<path class="st8" d="M2782.3,1768.1h-48.4c-8.9,0-16.2,7.2-16.2,16.1c0,8.9,7.2,16.1,16.2,16.1h48.4V1768.1z"/>
					</g>
					<g>
						<path class="st8" d="M2644.3,2354.8L2644.3,2354.8c0,8.9-7.2,16.1-16.2,16.1h-64.6c-8.9,0-16.1-7.2-16.1-16.1l0,0
							c0-8.9,7.2-16.2,16.1-16.2h64.6C2637.1,2338.6,2644.3,2345.9,2644.3,2354.8z"/>
					</g>
					<g>
						<path class="st8" d="M2744.4,2066L2744.4,2066c0,8.9-7.2,16.1-16.1,16.1H2696c-8.9,0-16.2-7.2-16.2-16.1l0,0
							c0-8.9,7.2-16.2,16.2-16.2h32.3C2737.2,2049.9,2744.4,2057.1,2744.4,2066z"/>
					</g>
					<g>
						<path class="st8" d="M2782.3,2252.6h-16.2c-8.9,0-16.1,7.2-16.1,16.1c0,8.9,7.2,16.1,16.1,16.1h16.2V2252.6z"/>
					</g>
				</g>
				<g>
					<path class="st9" d="M2717.8,1865c0-35.7-28.9-64.6-64.6-64.6c-35.7,0-64.6,28.9-64.6,64.6v161.5h129.2V1865z"/>
				</g>
				<g>
					<path class="st9" d="M2717.7,2155.7c0-35.7-28.9-64.6-64.6-64.6s-64.6,28.9-64.6,64.6v161.5h129.2V2155.7z"/>
				</g>
				<g>
					<path class="st9" d="M2459.4,1865c0-35.7-28.9-64.6-64.6-64.6c-35.7,0-64.6,28.9-64.6,64.6v161.5h129.2V1865z"/>
				</g>
				<g>
					<path class="st9" d="M2265.6,1865c0-35.7-28.9-64.6-64.6-64.6s-64.6,28.9-64.6,64.6v161.5h129.2V1865z"/>
				</g>
				<g>
					<path class="st9" d="M2265.6,2155.7c0-35.7-28.9-64.6-64.6-64.6s-64.6,28.9-64.6,64.6v161.5h129.2V2155.7z"/>
				</g>
				<g>
					<path class="st8" d="M2717.8,2035h-129.2c-4.7,0-8.5-3.8-8.5-8.5V1865c0-40.3,32.8-73.2,73.2-73.2c40.3,0,73.2,32.8,73.2,73.2
						v161.5C2726.3,2031.2,2722.5,2035,2717.8,2035z M2597.1,2017.9h112.1V1865c0-30.9-25.2-56.1-56.1-56.1
						c-30.9,0-56.1,25.2-56.1,56.1V2017.9z"/>
				</g>
				<g>
					<path class="st8" d="M2717.7,2325.7h-129.2c-4.7,0-8.5-3.8-8.5-8.5v-161.5c0-40.3,32.8-73.2,73.2-73.2s73.2,32.8,73.2,73.2
						v161.5C2726.3,2321.9,2722.5,2325.7,2717.7,2325.7z M2597,2308.6h112.2v-152.9c0-30.9-25.2-56.1-56.1-56.1
						c-30.9,0-56.1,25.2-56.1,56.1V2308.6z"/>
				</g>
				<g>
					<path class="st12" d="M2459.4,2035h-129.2c-4.7,0-8.5-3.8-8.5-8.5V1865c0-40.3,32.8-73.2,73.2-73.2c40.3,0,73.2,32.8,73.2,73.2
						v161.5C2467.9,2031.2,2464.1,2035,2459.4,2035z M2338.7,2017.9h112.1V1865c0-30.9-25.2-56.1-56.1-56.1
						c-30.9,0-56.1,25.2-56.1,56.1V2017.9z"/>
				</g>
				<g>
					<path class="st16" d="M2459.4,2155.7c0-35.7-28.9-64.6-64.6-64.6c-35.7,0-64.6,28.9-64.6,64.6l0,226.1h129.2v-134.9V2155.7z"/>
				</g>
				<g>
					<path class="st12" d="M2459.4,2382.3c-4.7,0-8.5-3.8-8.5-8.5v-218.1c0-30.9-25.2-56.1-56.1-56.1c-30.9,0-56.1,25.2-56.1,56.1
						l0,218.1c0,4.7-3.8,8.5-8.5,8.5s-8.5-3.8-8.5-8.5l0-218.1c0-40.3,32.8-73.2,73.2-73.2c40.3,0,73.2,32.8,73.2,73.2v218.1
						C2467.9,2378.5,2464.1,2382.3,2459.4,2382.3z"/>
				</g>
				<g>
					<path class="st12" d="M2265.6,2035h-129.2c-4.7,0-8.5-3.8-8.5-8.5V1865c0-40.3,32.8-73.2,73.2-73.2c40.3,0,73.2,32.8,73.2,73.2
						v161.5C2274.1,2031.2,2270.3,2035,2265.6,2035z M2144.9,2017.9H2257V1865c0-30.9-25.2-56.1-56.1-56.1
						c-30.9,0-56.1,25.2-56.1,56.1V2017.9z"/>
				</g>
				<g>
					<path class="st12" d="M2265.6,2325.7h-129.2c-4.7,0-8.5-3.8-8.5-8.5v-161.5c0-40.3,32.8-73.2,73.2-73.2
						c40.3,0,73.2,32.8,73.2,73.2v161.5C2274.1,2321.9,2270.3,2325.7,2265.6,2325.7z M2144.9,2308.6H2257v-152.9
						c0-30.9-25.2-56.1-56.1-56.1c-30.9,0-56.1,25.2-56.1,56.1V2308.6z"/>
				</g>
				<g>
					<path class="st9" d="M2717.7,1697.8h-129.2c0-35.7,28.9-64.6,64.6-64.6S2717.7,1662.2,2717.7,1697.8z"/>
				</g>
				<g>
					<path class="st8" d="M2717.7,1706.4h-129.2c-4.7,0-8.5-3.8-8.5-8.5c0-40.3,32.8-73.2,73.2-73.2s73.2,32.8,73.2,73.2
						C2726.3,1702.6,2722.5,1706.4,2717.7,1706.4z M2597.7,1689.3h110.9c-4.1-26.9-27.4-47.5-55.4-47.5S2601.8,1662.4,2597.7,1689.3
						z"/>
				</g>
			</g>
			<g>
				<path class="st8" d="M3219.3,3444.1c-17.4-93.7-33.7-182-47.5-257.9c-147-808.4-307.5-807.1-422.8-807.1h-863.4
					c-4.6-0.2-9.2-0.2-14-0.2c-307.4,0-269-229.4-422.7-229.4H-30v1294.6H3219.3z"/>
			</g>
			<g>
				<g>
					<path class="st12" d="M1673.1,2633.4H1826l-38.2-420.6h-76.5L1673.1,2633.4z"/>
				</g>
				<g>
					<path class="st15" d="M1749.5,2327.5h-38.1h-10.5l-27.8,306h76.5V2327.5z"/>
				</g>
				<g>
					<path class="st12" d="M1806.9,2452.4c-5.6,0-10.1-4.5-10.1-10.1s4.5-10.1,10.1-10.1c47.1,0,85.5-38.3,85.5-85.5v-191.2
						c0-5.6,4.5-10.1,10.1-10.1s10.1,4.5,10.1,10.1v191.2C1912.6,2405,1865.2,2452.4,1806.9,2452.4z"/>
				</g>
				<g>
					<path class="st15" d="M1692.2,2528.8c-58.3,0-105.7-47.4-105.7-105.7v-23.6c0-5.6,4.5-10.1,10.1-10.1s10.1,4.5,10.1,10.1v23.6
						c0,47.1,38.3,85.5,85.5,85.5c5.6,0,10.1,4.5,10.1,10.1S1697.8,2528.8,1692.2,2528.8z"/>
				</g>
				<g>
					<path class="st12" d="M2017.1,2174.5c0-53-35.9-97-84.7-110.2c5.3-13.2,8.4-27.4,8.4-42.6c0-53-36.2-97.2-84.9-110.4
						c5.3-13.2,8.4-27.5,8.4-42.6c0-63.4-51.5-114.9-114.9-114.9c-63.3,0-114.6,51.5-114.6,114.9c0,15.1,3.1,29.4,8.4,42.6
						c-48.8,13.2-84.9,57.5-84.9,110.4c0,15.1,3.1,29.3,8.4,42.6c-48.8,13.2-84.9,57.3-84.9,110.2c0,63.3,51.5,114.9,114.9,114.9
						h305.8C1965.8,2289.4,2017.1,2237.9,2017.1,2174.5z"/>
				</g>
				<g>
					<path class="st11" d="M2017.1,2174.5c0-53-35.9-97-84.7-110.2c5.3-13.2,8.4-27.4,8.4-42.6c0-53-36.2-97.2-84.9-110.4
						c5.3-13.2,8.4-27.5,8.4-42.6c0-16.9-3.9-32.9-10.5-47.4c-17.5-17.7-40.2-29.1-66-29.1c-54.3,0-98.4,47.8-98.4,106.6
						c0,14,2.8,27.4,7.4,39.6c-41.8,12.3-72.9,53.2-72.9,102.4c0,14.1,2.6,27.3,7.2,39.6c-41.8,12.3-72.7,53-72.7,102.2
						c0,58.8,44.1,106.6,98.4,106.6h131.1h114.6C1965.8,2289.4,2017.1,2237.9,2017.1,2174.5z"/>
				</g>
				<g>
					<path class="st12" d="M1646.5,2194.5c7.9,4.1,16.2,5.5,24.3,5.7c7.2-21.4-2.8-46.2-25.7-58.1c-7.9-4.1-16.2-5.5-24.3-5.7
						C1613.6,2157.7,1623.7,2182.6,1646.5,2194.5z"/>
				</g>
				<g>
					<path class="st12" d="M1871.9,2007.6c0-8.9-2.6-16.9-6.2-24.2c-22.3,3.5-39.7,23.9-39.7,49.6c0,8.9,2.6,16.9,6.2,24.2
						C1854.5,2053.7,1871.9,2033.3,1871.9,2007.6z"/>
				</g>
				<g>
					<path class="st15" d="M1806.9,1907.5c-5.6,0-10.1-4.5-10.1-10.1c0-10.2-8.3-18.6-18.6-18.6c-10.2,0-18.6,8.3-18.6,18.6
						c0,5.6-4.5,10.1-10.1,10.1s-10.1-4.5-10.1-10.1c0-21.4,17.4-38.8,38.8-38.8c21.4,0,38.8,17.4,38.8,38.8
						C1817,1903,1812.5,1907.5,1806.9,1907.5z"/>
				</g>
				<g>
					<path class="st15" d="M1921.6,2213.4c-5.6,0-10.1-4.5-10.1-10.1c0-10.2-8.3-18.6-18.6-18.6c-10.2,0-18.6,8.3-18.6,18.6
						c0,5.6-4.5,10.1-10.1,10.1s-10.1-4.5-10.1-10.1c0-21.4,17.4-38.8,38.8-38.8c21.4,0,38.8,17.4,38.8,38.8
						C1931.7,2208.9,1927.2,2213.4,1921.6,2213.4z"/>
				</g>
				<g>
					<path class="st15" d="M1730.4,2060.5c-5.6,0-10.1-4.5-10.1-10.1c0-10.2-8.3-18.6-18.6-18.6c-10.2,0-18.6,8.3-18.6,18.6
						c0,5.6-4.5,10.1-10.1,10.1s-10.1-4.5-10.1-10.1c0-21.4,17.4-38.8,38.8-38.8c21.4,0,38.8,17.4,38.8,38.8
						C1740.5,2055.9,1736,2060.5,1730.4,2060.5z"/>
				</g>
			</g>
			<g>
				<g>
					<path class="st4" d="M1519.8,2513.1l-26.1,12.1l-12.1,26.1l-12.1-26.1l-26.1-12.1l26.1-12.1l12.1-26.1l12.1,26.1L1519.8,2513.1
						z"/>
				</g>
				<g>
					<path class="st5" d="M2096.5,2546.9c-3.1-8.3-3.5-16.7-2.8-24.8c22.1-4.7,45.6,8.2,54.7,32.3c3.2,8.3,3.6,16.7,2.8,24.8
						C2129.2,2583.8,2105.7,2570.9,2096.5,2546.9z"/>
				</g>
				<g>
					<path class="st5" d="M1318.3,2275.5c-3.1-8.3-3.5-16.7-2.8-24.8c22.1-4.7,45.6,8.2,54.7,32.3c3.2,8.3,3.6,16.7,2.8,24.8
						C1350.9,2312.5,1327.4,2299.6,1318.3,2275.5z"/>
				</g>
				<g>
					<path class="st5" d="M2422.9,2449.1c8.3-3.1,16.7-3.5,24.8-2.8c4.7,22.1-8.2,45.6-32.3,54.7c-8.3,3.2-16.7,3.6-24.8,2.8
						C2385.9,2481.7,2398.8,2458.2,2422.9,2449.1z"/>
				</g>
				<g>
					<path class="st5" d="M395.6,2323.6c8.3-3.1,16.7-3.5,24.8-2.8c4.7,22.1-8.2,45.6-32.3,54.7c-8.3,3.2-16.7,3.6-24.8,2.8
						C358.7,2356.3,371.6,2332.8,395.6,2323.6z"/>
				</g>
				<g>
					<path class="st7" d="M2849.8,2527.3c-5.6,0-10.1-4.5-10.1-10.1c0-10.2-8.4-18.5-18.6-18.5c-10.3,0-18.6,8.3-18.6,18.5
						c0,5.6-4.5,10.1-10.1,10.1s-10.1-4.5-10.1-10.1c0-21.3,17.4-38.7,38.8-38.7c21.4,0,38.8,17.4,38.8,38.7
						C2859.9,2522.7,2855.3,2527.3,2849.8,2527.3z"/>
				</g>
				<g>
					<path class="st7" d="M167.8,2328.9c-5.6,0-10.1-4.5-10.1-10.1c0-10.2-8.4-18.5-18.6-18.5c-10.3,0-18.6,8.3-18.6,18.5
						c0,5.6-4.5,10.1-10.1,10.1s-10.1-4.5-10.1-10.1c0-21.3,17.4-38.7,38.8-38.7c21.4,0,38.8,17.4,38.8,38.7
						C177.9,2324.3,173.4,2328.9,167.8,2328.9z"/>
				</g>
			</g>
		</g>
		<g>
			<g>
				<polygon class="st3" points="3354.9,3444.1 3329.2,2633.6 856.1,2633.6 856.1,3444.1 				"/>
			</g>
			<g>
				<polygon class="st6" points="3352.6,3444.1 3329.2,2704.8 856.1,2704.8 856.1,3444.1 				"/>
			</g>
		</g>
		<g>
			<path class="st9" d="M2467.2,456.6c74.3,0,134.5,60.2,134.5,134.5s-60.2,134.5-134.5,134.5c-74.3,0-134.5-60.2-134.5-134.5
				S2392.9,456.6,2467.2,456.6z"/>
		</g>
		<g>
			<path class="st7" d="M5028.8,2292.6c-46.7-57.2-123.1-78.8-191.9-57.9c8.3-34.6,3.3-72.5-17.5-104.9
				c-22.4-35-58.3-55.5-96.4-60.6c7.8-43.2,0.4-89.4-25.2-129.4c-53.7-84-165.1-108.7-248.7-55.3c-14.4,9.2-26.3,20.7-37.1,32.9
				c-58.5-59.4-152.2-72.4-224.9-25.9c-83.6,53.5-107.8,165-54,249l102.7,160.5l793,552.1V2292.6z"/>
		</g>
		<g>
			<g>
				<g>
					<path class="st15" d="M930.9,2158v387.6H478.7V2158H930.9z"/>
				</g>
				<g>
					<path class="st12" d="M1189.3,2158v387.6H930.9V2158H1189.3z"/>
				</g>
				<g>
					<path class="st15" d="M898.6,2190.3l161.5-226.1l161.5,226.1H898.6z"/>
				</g>
				<g>
					<path class="st12" d="M930.7,2190.3l129.5-181.6l129.5,181.6H930.7z"/>
				</g>
				<g>
					<path class="st17" d="M1221.6,2198.8c-2.7,0-5.3-1.2-7-3.6l-154.5-216.4l-154.5,216.4c-2.7,3.8-8.1,4.7-11.9,2
						c-3.8-2.7-4.7-8.1-2-11.9l161.5-226.1c1.6-2.2,4.2-3.6,7-3.6s5.3,1.3,7,3.6l161.5,226.1c2.7,3.8,1.9,9.2-2,11.9
						C1225.1,2198.3,1223.4,2198.8,1221.6,2198.8z"/>
				</g>
				<g>
					<path class="st14" d="M1060.1,1964.2H607.9l-161.5,226.1h452.2L1060.1,1964.2z"/>
				</g>
				<g>
					<g>
						<path class="st12" d="M769.4,2238.7L769.4,2238.7c0,8.9-7.2,16.2-16.2,16.2h-64.6c-8.9,0-16.1-7.2-16.1-16.2l0,0
							c0-8.9,7.2-16.1,16.1-16.1h64.6C762.2,2222.6,769.4,2229.8,769.4,2238.7z"/>
					</g>
					<g>
						<path class="st12" d="M904.2,2400.2L904.2,2400.2c0,8.9-7.2,16.2-16.1,16.2h-32.3c-8.9,0-16.1-7.2-16.1-16.2l0,0
							c0-8.9,7.2-16.1,16.1-16.1h32.3C897,2384.1,904.2,2391.3,904.2,2400.2z"/>
					</g>
					<g>
						<path class="st12" d="M527.2,2498.8h-48.4v32.3h48.4c8.9,0,16.2-7.2,16.2-16.2C543.3,2506,536.1,2498.8,527.2,2498.8z"/>
					</g>
					<g>
						<path class="st12" d="M769.4,2497.1L769.4,2497.1c0,8.9-7.2,16.1-16.2,16.1H721c-8.9,0-16.2-7.2-16.2-16.1l0,0
							c0-8.9,7.2-16.1,16.2-16.1h32.3C762.2,2481,769.4,2488.2,769.4,2497.1z"/>
					</g>
					<g>
						<path class="st12" d="M494.9,2287.2h-16.2v32.3h16.2c8.9,0,16.1-7.2,16.1-16.1C511,2294.4,503.8,2287.2,494.9,2287.2z"/>
					</g>
				</g>
				<g>
					<g>
						<path class="st11" d="M1157,2487.3L1157,2487.3c0,8.9-7.2,16.1-16.2,16.1h-32.3c-8.9,0-16.1-7.2-16.1-16.1l0,0
							c0-8.9,7.2-16.1,16.1-16.1h32.3C1149.8,2471.2,1157,2478.4,1157,2487.3z"/>
					</g>
					<g>
						<path class="st11" d="M1060.1,2303.3L1060.1,2303.3c0,8.9-7.2,16.1-16.1,16.1h-64.6c-8.9,0-16.1-7.2-16.1-16.1l0,0
							c0-8.9,7.2-16.2,16.1-16.2h64.6C1052.9,2287.2,1060.1,2294.4,1060.1,2303.3z"/>
					</g>
					<g>
						<path class="st11" d="M1189.3,2222.6h-48.4c-8.9,0-16.1,7.2-16.1,16.1c0,8.9,7.2,16.2,16.1,16.2h48.4V2222.6z"/>
					</g>
				</g>
				<g>
					<path class="st17" d="M898.6,2198.8H446.4c-3.2,0-6.1-1.8-7.6-4.6c-1.5-2.8-1.2-6.3,0.6-8.9L601,1959.2c1.6-2.2,4.2-3.6,7-3.6
						h452.2c3.2,0,6.1,1.8,7.6,4.6c1.5,2.8,1.2,6.3-0.6,8.9l-161.5,226.1C904,2197.5,901.4,2198.8,898.6,2198.8z M463,2181.7h431.2
						l149.3-209H612.3L463,2181.7z"/>
				</g>
				<g>
					<path class="st9" d="M1124.8,2319.5c0-35.7-28.9-64.6-64.6-64.6s-64.6,28.9-64.6,64.6V2481h129.2V2319.5z"/>
				</g>
				<g>
					<path class="st14" d="M866.3,2319.5c0-35.7-28.9-64.6-64.6-64.6c-35.7,0-64.6,28.9-64.6,64.6l0,226.1h129.2V2319.5z"/>
				</g>
				<g>
					<path class="st17" d="M737.1,2545.2c-4.7,0-8.5-3.8-8.5-8.5l0-217.2c0-40.3,32.8-73.2,73.2-73.2c40.3,0,73.2,32.8,73.2,73.2
						v217.2c0,4.7-3.8,8.5-8.5,8.5c-4.7,0-8.5-3.8-8.5-8.5v-217.2c0-30.9-25.2-56.1-56.1-56.1c-30.9,0-56.1,25.2-56.1,56.1l0,217.2
						C745.7,2541.4,741.9,2545.2,737.1,2545.2C737.1,2545.2,737.1,2545.2,737.1,2545.2z"/>
				</g>
				<g>
					<path class="st9" d="M672.6,2319.5c0-35.7-28.9-64.6-64.6-64.6c-35.7,0-64.6,28.9-64.6,64.6V2481h129.2V2319.5z"/>
				</g>
				<g>
					<path class="st9" d="M1124.7,2161.3H995.5c0-35.7,28.9-64.6,64.6-64.6C1095.8,2096.6,1124.7,2125.6,1124.7,2161.3z"/>
				</g>
				<g>
					<path class="st15" d="M1124.7,2169.8H995.5c-4.7,0-8.5-3.8-8.5-8.5c0-40.3,32.8-73.2,73.2-73.2c40.3,0,73.2,32.8,73.2,73.2
						C1133.3,2166,1129.4,2169.8,1124.7,2169.8z M1004.7,2152.7h110.9c-4.1-26.9-27.4-47.5-55.4-47.5S1008.8,2125.8,1004.7,2152.7z"
						/>
				</g>
				<g>
					<path class="st17" d="M672.6,2489.5H543.3c-4.7,0-8.5-3.8-8.5-8.5v-161.5c0-40.3,32.8-73.2,73.2-73.2
						c40.3,0,73.2,32.8,73.2,73.2V2481C681.1,2485.7,677.3,2489.5,672.6,2489.5z M551.9,2472.4H664v-152.9
						c0-30.9-25.2-56.1-56.1-56.1c-30.9,0-56.1,25.2-56.1,56.1V2472.4z"/>
				</g>
				<g>
					<path class="st15" d="M1124.8,2489.5H995.5c-4.7,0-8.5-3.8-8.5-8.5v-161.5c0-40.3,32.8-73.2,73.2-73.2
						c40.3,0,73.2,32.8,73.2,73.2V2481C1133.3,2485.7,1129.5,2489.5,1124.8,2489.5z M1004.1,2472.4h112.1v-152.9
						c0-30.9-25.2-56.1-56.1-56.1c-30.9,0-56.1,25.2-56.1,56.1V2472.4z"/>
				</g>
			</g>
			<g>
				<path class="st11" d="M2649.5,3444.1c-136.5-192.5-297.8-319.4-485.6-319.4h-484.5c-129.2,0-226.1-64.6-226.1-226.1
					c0-230-96.9-361.9-323-361.9H581.2c-258.4,0-355.3,232.7-355.3,555.7v351.7H2649.5z"/>
			</g>
			<g>
				<g>
					<path class="st4" d="M613.5,2669.5l-26.1,12.1l-12.1,26.1l-12.1-26.1l-26.1-12.1l26.1-12.1l12.1-26.1l12.1,26.1L613.5,2669.5z"
						/>
				</g>
				<g>
					<path class="st12" d="M900.8,2699.8c-5.6,0-10.1-4.5-10.1-10.1c0-10.2-8.4-18.5-18.6-18.5c-10.3,0-18.6,8.3-18.6,18.5
						c0,5.6-4.5,10.1-10.1,10.1c-5.6,0-10.1-4.5-10.1-10.1c0-21.3,17.4-38.7,38.8-38.7c21.4,0,38.8,17.4,38.8,38.7
						C910.9,2695.3,906.4,2699.8,900.8,2699.8z"/>
				</g>
				<g>
					<path class="st12" d="M1283.3,2674c-5.6,0-10.1-4.5-10.1-10.1c0-10.2-8.4-18.5-18.6-18.5c-10.3,0-18.6,8.3-18.6,18.5
						c0,5.6-4.5,10.1-10.1,10.1s-10.1-4.5-10.1-10.1c0-21.3,17.4-38.7,38.8-38.7c21.4,0,38.8,17.4,38.8,38.7
						C1293.4,2669.5,1288.9,2674,1283.3,2674z"/>
				</g>
			</g>
		</g>
		<g>
			<g>
				<path class="st11" d="M3747.6,1448.2l-193.8,226.1h64.6l161.5-161.5L3747.6,1448.2z"/>
			</g>
			<g>
				<path class="st12" d="M4425.9,1642v678.3h-516.8V1642H4425.9z"/>
			</g>
			<g>
				<path class="st11" d="M3909.1,1642v678.3h-323V1642H3909.1z"/>
			</g>
			<g>
				<g>
					<path class="st12" d="M3873.5,1704.9L3873.5,1704.9c0,8.9-7.2,16.1-16.1,16.1h-32.3c-8.9,0-16.1-7.2-16.1-16.1l0,0
						c0-8.9,7.2-16.1,16.1-16.1h32.3C3866.3,1688.8,3873.5,1696,3873.5,1704.9z"/>
				</g>
				<g>
					<path class="st12" d="M3700.8,2013.4L3700.8,2013.4c0,8.9-7.2,16.1-16.2,16.1h-64.6c-8.9,0-16.1-7.2-16.1-16.1l0,0
						c0-8.9,7.2-16.1,16.1-16.1h64.6C3693.6,1997.3,3700.8,2004.5,3700.8,2013.4z"/>
				</g>
				<g>
					<path class="st12" d="M3650.7,2239.5L3650.7,2239.5c0,8.9-7.2,16.1-16.1,16.1h-32.3c-8.9,0-16.1-7.2-16.1-16.1l0,0
						c0-8.9,7.2-16.1,16.1-16.1h32.3C3643.5,2223.4,3650.7,2230.6,3650.7,2239.5z"/>
				</g>
				<g>
					<path class="st12" d="M3894.6,2160.4L3894.6,2160.4c0,8.9-7.2,16.1-16.1,16.1h-32.3c-8.9,0-16.1-7.2-16.1-16.1l0,0
						c0-8.9,7.2-16.1,16.1-16.1h32.3C3887.4,2144.2,3894.6,2151.5,3894.6,2160.4z"/>
				</g>
			</g>
			<g>
				<path class="st15" d="M3812.3,2094.2c0-35.7-28.9-64.6-64.6-64.6s-64.6,28.9-64.6,64.6c0,0,0,258.4,0,226.1h129.2L3812.3,2094.2
					z"/>
			</g>
			<g>
				<path class="st12" d="M3683,2321.9c-2.3,0-8.2-1.6-8.5-8.7h0c0,0,0-0.1,0-0.2c0-0.1,0-0.2,0-0.3l0-2.2c0-0.2,0-0.3,0-0.5
					c0-27.2,0-213.8,0-215.8c0-40.3,32.8-73.2,73.2-73.2c19.5,0,37.9,7.6,51.7,21.4s21.4,32.2,21.4,51.7l0,216.3
					c0,4.7-3.8,8.5-8.5,8.5c0,0,0,0,0,0c-4.7,0-8.5-3.8-8.5-8.5l0-216.3c0-15-5.8-29.1-16.4-39.6s-24.7-16.4-39.6-16.4
					c-30.9,0-56.1,25.2-56.1,56.1l0,184.9l0,33.6c0,0.1,0,0.2,0,0.3c0,0.1,0,0.1,0,0.2h0C3691.3,2319.6,3686.4,2321.9,3683,2321.9
					C3683,2321.9,3683,2321.9,3683,2321.9z"/>
			</g>
			<g>
				<g>
					<path class="st15" d="M4393.6,2142.6L4393.6,2142.6c0,8.9-7.2,16.1-16.1,16.1h-64.6c-8.9,0-16.1-7.2-16.1-16.1l0,0
						c0-8.9,7.2-16.1,16.1-16.1h64.6C4386.4,2126.5,4393.6,2133.7,4393.6,2142.6z"/>
				</g>
				<g>
					<path class="st15" d="M4417,1876.3L4417,1876.3c0,8.9-7.2,16.1-16.1,16.1h-32.3c-8.9,0-16.1-7.2-16.1-16.1l0,0
						c0-8.9,7.2-16.1,16.1-16.1h32.3C4409.8,1860.1,4417,1867.3,4417,1876.3z"/>
				</g>
				<g>
					<path class="st15" d="M4199.8,1722.7L4199.8,1722.7c0,8.9-7.2,16.1-16.1,16.1h-32.3c-8.9,0-16.1-7.2-16.1-16.1l0,0
						c0-8.9,7.2-16.1,16.1-16.1h32.3C4192.6,1706.6,4199.8,1713.8,4199.8,1722.7z"/>
				</g>
				<g>
					<path class="st15" d="M4023.8,2004.5L4023.8,2004.5c0,8.9-7.2,16.1-16.1,16.1h-32.3c-8.9,0-16.1-7.2-16.1-16.1l0,0
						c0-8.9,7.2-16.1,16.1-16.1h32.3C4016.6,1988.4,4023.8,1995.6,4023.8,2004.5z"/>
				</g>
				<g>
					<path class="st15" d="M3982.6,2266.2L3982.6,2266.2c0,8.9-7.2,16.1-16.1,16.1h-32.3c-8.9,0-16.1-7.2-16.1-16.1l0,0
						c0-8.9,7.2-16.1,16.1-16.1h32.3C3975.4,2250,3982.6,2257.3,3982.6,2266.2z"/>
				</g>
			</g>
			<g>
				<path class="st9" d="M4135.3,2094c0-35.7-28.9-64.6-64.6-64.6s-64.6,28.9-64.6,64.6v161.6h129.2V2094z"/>
			</g>
			<g>
				<path class="st9" d="M4135.3,1803.2c0-35.7-28.9-64.6-64.6-64.6c-35.7,0-64.6,28.9-64.6,64.6v161.6h129.2V1803.2z"/>
			</g>
			<g>
				<path class="st9" d="M3812.3,1803.5c0-35.7-28.9-64.6-64.6-64.6s-64.6,28.9-64.6,64.6v161.6h129.2V1803.5z"/>
			</g>
			<g>
				<path class="st9" d="M4329,2094c0-35.7-28.8-64.6-64.4-64.6c-35.7,0-64.6,28.9-64.6,64.6v161.6H4329V2094z"/>
			</g>
			<g>
				<path class="st9" d="M4329,1803.2c0-35.7-28.8-64.6-64.4-64.6c-35.7,0-64.6,28.9-64.6,64.6v161.6H4329V1803.2z"/>
			</g>
			<g>
				<path class="st12" d="M3812.3,1973.7H3683c-4.7,0-8.5-3.8-8.5-8.5v-161.6c0-40.3,32.8-73.2,73.2-73.2c19.5,0,37.9,7.6,51.7,21.4
					c13.8,13.8,21.4,32.2,21.4,51.7v0v161.6C3820.8,1969.8,3817,1973.7,3812.3,1973.7z M3691.6,1956.6h112.1v-153.1v0
					c0-15-5.8-29.1-16.4-39.6c-10.6-10.6-24.7-16.4-39.6-16.4c-30.9,0-56.1,25.2-56.1,56.1V1956.6z"/>
			</g>
			<g>
				<path class="st15" d="M4135.3,2264.2h-129.2c-4.7,0-8.5-3.8-8.5-8.5V2094c0-40.3,32.8-73.2,73.2-73.2
					c40.3,0,73.2,32.8,73.2,73.2v161.6C4143.9,2260.4,4140,2264.2,4135.3,2264.2z M4014.6,2247.1h112.2V2094
					c0-30.9-25.2-56.1-56.1-56.1c-30.9,0-56.1,25.2-56.1,56.1V2247.1z"/>
			</g>
			<g>
				<path class="st15" d="M4135.3,1973.4h-129.2c-4.7,0-8.5-3.8-8.5-8.5v-161.6c0-40.3,32.8-73.2,73.2-73.2
					c40.3,0,73.2,32.8,73.2,73.2v161.6C4143.9,1969.6,4140,1973.4,4135.3,1973.4z M4014.6,1956.3h112.2v-153.1
					c0-30.9-25.2-56.1-56.1-56.1c-30.9,0-56.1,25.2-56.1,56.1V1956.3z"/>
			</g>
			<g>
				<path class="st15" d="M4329,2264.2h-129.1c-4.7,0-8.5-3.8-8.5-8.5V2094c0-40.3,32.8-73.2,73.2-73.2c40.2,0,73,32.8,73,73.2
					v161.6C4337.6,2260.4,4333.7,2264.2,4329,2264.2z M4208.5,2247.1h112V2094c0-30.9-25.1-56.1-55.9-56.1
					c-30.9,0-56.1,25.2-56.1,56.1V2247.1z"/>
			</g>
			<g>
				<path class="st15" d="M4329,1973.4H4200c-4.7,0-8.5-3.8-8.5-8.5v-161.6c0-40.3,32.8-73.2,73.2-73.2c40.2,0,73,32.8,73,73.2
					v161.6C4337.6,1969.6,4333.7,1973.4,4329,1973.4z M4208.5,1956.3h112v-153.1c0-30.9-25.1-56.1-55.9-56.1
					c-30.9,0-56.1,25.2-56.1,56.1V1956.3z"/>
			</g>
			<g>
				<path class="st11" d="M3586.1,1642l162.4-180.5l483.6-13.3l193.8,193.8H3586.1z"/>
			</g>
			<g>
				<path class="st15" d="M3747.6,1448.2l193.8,226.1h516.8l-226.1-226.1H3747.6z"/>
			</g>
			<g>
				<polygon class="st12" points="3586.1,1674.6 3747.1,1489.6 3914.4,1681.7 3954.4,1681.7 3751.6,1448.6 3740.9,1452.2 
					3556.8,1674.6 				"/>
			</g>
			<g>
				<path class="st17" d="M4458.2,1682.8h-516.8c-2.5,0-4.9-1.1-6.5-3l-193.8-226.1c-2.2-2.5-2.7-6.1-1.3-9.1c1.4-3,4.4-5,7.8-5
					h484.5c2.3,0,4.4,0.9,6,2.5l226.1,226.1c2.4,2.4,3.2,6.1,1.9,9.3S4461.7,1682.8,4458.2,1682.8z M3945.3,1665.7h492.2l-209-209
					h-462.4L3945.3,1665.7z"/>
			</g>
			<g>
				<path class="st17" d="M3553.8,1682.8c-2,0-3.9-0.7-5.6-2.1c-3.6-3.1-4-8.5-0.9-12l193.8-226.1c3.1-3.6,8.5-4,12-0.9
					c3.6,3.1,4,8.5,0.9,12l-193.8,226.1C3558.6,1681.8,3556.2,1682.8,3553.8,1682.8z"/>
			</g>
			<g>
				<path class="st9" d="M3747.6,1545.1c35.7,0,64.6,28.9,64.6,64.6c0,35.7-28.9,64.6-64.6,64.6c-35.7,0-64.6-28.9-64.6-64.6
					C3683,1574,3711.9,1545.1,3747.6,1545.1z"/>
			</g>
			<g>
				<path class="st12" d="M3747.6,1682.8c-40.3,0-73.1-32.8-73.1-73.1s32.8-73.1,73.1-73.1s73.1,32.8,73.1,73.1
					S3788,1682.8,3747.6,1682.8z M3747.6,1553.6c-30.9,0-56.1,25.1-56.1,56.1s25.1,56.1,56.1,56.1s56.1-25.1,56.1-56.1
					S3778.5,1553.6,3747.6,1553.6z"/>
			</g>
		</g>
		<g>
			<g>
				<path class="st8" d="M2342.1,3068.6h-614.2c-50.1,0-83.1,0-105.3-13.3c-23-13.8-32.4-40.5-32.4-92.1c0-46.2-7.5-67.1-27.6-77.1
					c-22.4-11.2-63.4-11.2-125.4-11.2h-274.5c-51.4,0-94.1-17.8-123.5-51.4c-30.9-35.3-46.5-86.1-46.5-151v-126.9
					c0-4.7,3.8-8.5,8.5-8.5c4.7,0,8.5,3.8,8.5,8.5v126.9c0,60.6,14.2,107.6,42.3,139.7c26.1,29.8,64.3,45.5,110.7,45.5h274.5
					c66.7,0,107,0,133,13c14.1,7,23.7,18,29.4,33.4c5.3,14.2,7.6,32.4,7.6,59c0,44.7,7,67.2,24.1,77.5
					c18.2,10.9,49.3,10.9,96.5,10.9h614.2c4.7,0,8.5,3.8,8.5,8.5S2346.9,3068.6,2342.1,3068.6z"/>
			</g>
			<g>
				<path class="st5" d="M2343.9,3068.6c-4.7,0-8.5-3.8-8.5-8.5s3.8-8.5,8.5-8.5c12.5,0,22.8-4.2,30-12.3c6.4-7.2,10-17,10-27.6
					c0-19.9-12.3-39.9-39.9-39.9h-616c-37.4,0-57-28.7-57-57c0-28.3,19.6-57,57-57c4.7,0,8.5,3.8,8.5,8.5s-3.8,8.5-8.5,8.5
					c-12.5,0-22.8,4.2-30,12.3c-6.4,7.2-10,17-10,27.6c0,19.9,12.3,39.9,39.9,39.9h616c37.4,0,57,28.7,57,57
					C2400.9,3039.9,2381.3,3068.6,2343.9,3068.6z"/>
			</g>
			<g>
				<path class="st18" d="M2503.1,2874.8h-775.2c-4.7,0-8.5-3.8-8.5-8.5s3.8-8.5,8.5-8.5h775.2c27.6,0,39.9-20,39.9-39.9
					c0-19.9-12.3-39.9-39.9-39.9h-910.5c-4.7,0-8.5-3.8-8.5-8.5s3.8-8.5,8.5-8.5h910.5c37.4,0,57,28.7,57,57
					C2560.1,2846.1,2540.5,2874.8,2503.1,2874.8z"/>
			</g>
			<g>
				<path class="st19" d="M1592.6,2777.9h-365.4c-50.2,0-84-8.3-106.3-26.1c-21.2-16.9-31.5-42.9-31.5-79.3v-126.9
					c0-4.7,3.8-8.5,8.5-8.5s8.5,3.8,8.5,8.5v126.9c0,53,20.5,88.4,120.7,88.4h365.4c4.7,0,8.5,3.8,8.5,8.5
					C1601.1,2774.1,1597.3,2777.9,1592.6,2777.9z"/>
			</g>
		</g>
		<g>
			<path class="st5" d="M2986.2,2757.2c-10.6,0-19.2,8.6-19.2,19.1v19.6v18.6c0,10.6-8.6,19.1-19.2,19.1c-10.6,0-19.2-8.6-19.2-19.1
				v-20.3v-52.6c0-10.6-8.6-19.1-19.2-19.1s-19.2,8.6-19.2,19.1v17.2v17.9c0,10.6-8.6,19.1-19.2,19.1s-19.2-8.6-19.2-19.1v-19.6
				v-19.1c0-0.9-0.1-1.7-0.2-2.6v-64.2c0-10.6-8.6-19.1-19.2-19.1c-10.6,0-19.2,8.6-19.2,19.1v54.7v19.6c0,10.6-8.6,19.1-19.2,19.1
				c-10.6,0-19.2-8.6-19.2-19.1v-17.9v-97.2c0-10.6-8.6-19.1-19.2-19.1s-19.2,8.6-19.2,19.1v132.6v20.3c0,10.6-8.6,19.1-19.2,19.1
				s-19.2-8.6-19.2-19.1v-18.6v-19.6c0-10.6-8.6-19.1-19.2-19.1c-10.6,0-19.2,8.6-19.2,19.1v121c0,10.6,8.6,19.1,19.2,19.1h76.9
				h57.8v12c0,10.6,8.6,19.1,19.2,19.1h76.9h76.9c10.6,0,19.2-8.6,19.2-19.1v-121C3005.4,2765.8,2996.8,2757.2,2986.2,2757.2z"/>
		</g>
		<g>
			<path class="st3" d="M1260.3,3175.3h76.9h76.9c10.6,0,19.2-8.6,19.2-19.1v-121c0-10.6-8.6-19.1-19.2-19.1
				c-10.6,0-19.2,8.6-19.2,19.1v19.6v18.6c0,10.6-8.6,19.1-19.2,19.1c-10.6,0-19.2-8.6-19.2-19.1v-20.3v-132.6
				c0-10.6-8.6-19.1-19.2-19.1c-10.6,0-19.2,8.6-19.2,19.1v97.2v17.9c0,10.6-8.6,19.1-19.2,19.1s-19.2-8.6-19.2-19.1v-19.6V2997
				c0-10.6-8.6-19.1-19.2-19.1c-10.6,0-19.2,8.6-19.2,19.1v159.2C1241.1,3166.7,1249.7,3175.3,1260.3,3175.3z"/>
		</g>
		<g>
			<g>
				<path class="st12" d="M5028.8,2695.4c-248-0.1-372-4-372-193.9c0-163.6-162.1-188.6-387.2-192.6l-0.5-1.1h-710.5
					c-226.1,0-323.1,96.9-323.1,290.7s-129.2,258.3-516.8,258.3c-226.1,0-258.3,161.5-258.3,290.7v296.5h2568.4V2695.4z"/>
			</g>
			<g>
				<path class="st20" d="M5028.8,3444.1v-683.9c-25.4-0.2-52.5-0.2-81.3-0.2c-193.8,0-355.3,0-355.3-226.1
					c0-163.6-158.1-156.5-362.2-160.5l-0.5-1.1h-644.2c-205,0-285.1,64.6-285.1,258.4c0,193.8-125,290.4-476.4,290.6
					c-331.1,0.1-298.8,161.6-298.8,290.8v231.9H5028.8z"/>
			</g>
			<g>
				<path class="st16" d="M4892.8,3444.1c1.2-18.7,1.8-37.5,1.8-56.5c0-483.5-397.3-875.5-887.3-875.5
					c-490.1,0-887.3,392-887.3,875.5c0,19,0.6,37.8,1.8,56.5H4892.8z"/>
			</g>
			<g>
				<path class="st13" d="M4668,3444.1c1.9-20.5,2.9-41.2,2.9-62.1c0-360.4-291.8-652.5-651.8-652.5c-360,0-651.8,292.1-651.8,652.5
					c0,21,1,41.7,2.9,62.1H4668z"/>
			</g>
			<g>
				<g>
					<path class="st19" d="M4181.1,2897.3c-29.1,0-58.6-19.6-58.6-57v-226.1c0-12.5-4.2-22.8-12.3-30c-7.2-6.4-17-10-27.6-10
						c-19.9,0-39.9,12.3-39.9,39.9c0,4.7-3.8,8.5-8.5,8.5c-4.7,0-8.5-3.8-8.5-8.5c0-37.4,28.7-57,57-57c28.3,0,57,19.6,57,57v226.1
						c0,27.4,21.5,39.9,41.5,39.9c20,0,41.5-12.5,41.5-39.9c0-30.2,0-119.4,0-214.4c0-108.1,0-223.6,0-268.2c0-42,0-46.2,0-46.6
						c-0.1-4.6,3.5-8.4,8.1-8.7c4.7-0.3,8.7,3.3,9,8.1c0,0.3,0,0.8,0,47.2c0,44.5,0,160.1,0,268.2c0,95,0,184.2,0,214.4
						C4239.6,2877.7,4210.2,2897.3,4181.1,2897.3z"/>
				</g>
				<g>
					<path class="st18" d="M3985.7,2897.3c-28.3,0-57-19.6-57-57v-226.1c0-27.6-20-39.9-39.9-39.9c-19.9,0-39.9,12.3-39.9,39.9
						c0,4.7-3.8,8.5-8.5,8.5c-4.7,0-8.5-3.8-8.5-8.5c0-37.4,28.7-57,57-57c28.3,0,57,19.6,57,57v226.1c0,27.6,20,39.9,39.9,39.9
						c19.9,0,39.9-12.3,39.9-39.9v-226.1c0-4.7,3.8-8.5,8.5-8.5c4.7,0,8.5,3.8,8.5,8.5v226.1
						C4042.7,2877.7,4014,2897.3,3985.7,2897.3z"/>
				</g>
				<g>
					<path class="st5" d="M3791.9,2897.3c-28.3,0-57-19.6-57-57v-226.1c0-27.6-20-39.9-39.9-39.9c-19.9,0-39.9,12.3-39.9,39.9
						c0,4.7-3.8,8.5-8.5,8.5c-4.7,0-8.5-3.8-8.5-8.5c0-37.4,28.7-57,57-57c28.3,0,57,19.6,57,57v226.1c0,19.9,12.3,39.9,39.9,39.9
						s39.9-20,39.9-39.9v-226.1c0-4.7,3.8-8.5,8.5-8.5c4.7,0,8.5,3.8,8.5,8.5v226.1C3848.9,2877.7,3820.2,2897.3,3791.9,2897.3z"/>
				</g>
				<g>
					<path class="st8" d="M3598.1,2897.3c-28.3,0-57-19.6-57-57v-191.9c0-66.5,0-114.6,12.7-148.3c14-37.3,42.6-54,92.8-54h242.9
						c94.4,0,151.4,0,181.9-15.2c26.7-13.3,35.7-39.9,35.7-105.4V2311c0-4.7,3.8-8.5,8.5-8.5c4.7,0,8.5,3.8,8.5,8.5v14.5
						c0,63.7-7.2,101.7-45.1,120.7c-34.1,17.1-89.3,17.1-189.5,17.1h-242.9c-22.4,0-39.3,3.6-51.7,10.9c-11.5,6.8-19.5,17-25.1,32
						c-11.6,30.8-11.6,80.1-11.6,142.3v191.9c0,27.6,20,39.9,39.9,39.9c19.9,0,39.9-12.3,39.9-39.9v-226.1c0-4.7,3.8-8.5,8.5-8.5
						s8.5,3.8,8.5,8.5v226.1C3655.1,2877.7,3626.4,2897.3,3598.1,2897.3z"/>
				</g>
			</g>
			<g>
				<g>
					<path class="st4" d="M3461,2515.1l-9.9,27l9.9,27l-27-9.9l-27,9.9l9.9-27l-9.9-27l27,9.9L3461,2515.1z"/>
				</g>
				<g>
					<path class="st4" d="M2801.9,2985.2l-9.9,27l9.9,27l-27-9.9l-27,9.9l9.9-27l-9.9-27l27,9.9L2801.9,2985.2z"/>
				</g>
				<g>
					<path class="st21" d="M2986.9,3061.1c8.3-3.1,16.7-3.5,24.8-2.8c4.7,22.1-8.2,45.6-32.3,54.7c-8.3,3.2-16.7,3.6-24.8,2.8
						C2950,3093.7,2962.9,3070.2,2986.9,3061.1z"/>
				</g>
				<g>
					<path class="st21" d="M4427.5,2487.4c2.4,8.5,2,17,0.5,24.9c-22.4,2.6-44.6-12.4-51.5-37.2c-2.4-8.6-2-16.9-0.5-24.9
						C4398.5,2447.6,4420.7,2462.6,4427.5,2487.4z"/>
				</g>
				<g>
					<path class="st10" d="M4483.7,2812.7c-5.6,0-10.1-4.5-10.1-10.1c0-10.2-8.4-18.5-18.6-18.5c-10.3,0-18.6,8.3-18.6,18.5
						c0,5.6-4.5,10.1-10.1,10.1s-10.1-4.5-10.1-10.1c0-21.3,17.4-38.7,38.8-38.7c21.4,0,38.8,17.4,38.8,38.7
						C4493.8,2808.1,4489.3,2812.7,4483.7,2812.7z"/>
				</g>
				<g>
					<path class="st10" d="M3402.2,2891.1c-5.6,0-10.1-4.5-10.1-10.1c0-10.2-8.4-18.5-18.6-18.5c-10.3,0-18.6,8.3-18.6,18.5
						c0,5.6-4.5,10.1-10.1,10.1s-10.1-4.5-10.1-10.1c0-21.3,17.4-38.7,38.8-38.7c21.4,0,38.8,17.4,38.8,38.7
						C3412.4,2886.5,3407.8,2891.1,3402.2,2891.1z"/>
				</g>
			</g>
		</g>
		<g>
			<g>
				<path class="st12" d="M723.9,2592.5l96.5,452c10.2,47.8-10.8,86.6-46.9,86.6H640c-36.1,0-57.3-38.8-47.3-86.7l94.5-451.7
					C697.3,2544.7,713.7,2544.6,723.9,2592.5z"/>
			</g>
			<g>
				<path class="st12" d="M233.5,3444.1c19.7-21.7,27.9-58.5,19-100.4l-134.7-631c-14.3-66.8-37.1-66.7-51.1,0.2L-30,3175.3v268.8
					H233.5z"/>
			</g>
			<g>
				<g>
					<path class="st12" d="M2649.5,3444.1c-136.5-192.4-297.7-319.4-485.4-319.4c-297.9-0.1-595.7,0-893.6,0
						c-153.2,0-229.9-228.7-613-228.7c-305,0-585.8,362.5-687.5,510.2v37.9H2649.5z"/>
				</g>
				<g>
					<path class="st4" d="M69.3,3151l9.9,27l-9.9,27l27-9.9l27,9.9l-9.9-27l9.9-27l-27,9.9L69.3,3151z"/>
				</g>
				<g>
					<path class="st11" d="M512.7,3015.3c-7.9-4.1-16.2-5.5-24.3-5.7c-7.2,21.4,2.8,46.2,25.7,58.1c7.9,4.1,16.1,5.5,24.3,5.7
						C545.5,3052,535.5,3027.1,512.7,3015.3z"/>
				</g>
				<g>
					<path class="st11" d="M1359.6,3305.6c0-8.9,2.6-16.9,6.2-24.2c22.3,3.5,39.7,23.9,39.7,49.6c0,8.9-2.6,16.9-6.2,24.2
						C1377.1,3351.7,1359.6,3331.3,1359.6,3305.6z"/>
				</g>
				<g>
					<path class="st11" d="M1010.8,3109.6c-8,3.8-16.4,4.9-24.5,4.8c-6.4-21.6,4.5-46.1,27.8-57.1c8.1-3.8,16.3-4.9,24.5-4.8
						C1045,3074.1,1034,3098.6,1010.8,3109.6z"/>
				</g>
				<g>
					<path class="st14" d="M1779.8,3210.4c-5.6,0-10.1-4.5-10.1-10.1c0-10.2-8.3-18.6-18.6-18.6c-10.2,0-18.6,8.3-18.6,18.6
						c0,5.6-4.5,10.1-10.1,10.1s-10.1-4.5-10.1-10.1c0-21.4,17.4-38.8,38.8-38.8c21.4,0,38.8,17.4,38.8,38.8
						C1789.9,3205.9,1785.4,3210.4,1779.8,3210.4z"/>
				</g>
			</g>
			<g>
				<g>
					<path class="st14" d="M336.3,3301.7H183.3l38.2-420.6h76.5L336.3,3301.7z"/>
				</g>
				<g>
					<path class="st17" d="M259.9,2995.8H298h10.5l27.8,306h-76.5V2995.8z"/>
				</g>
				<g>
					<path class="st14" d="M202.5,3120.6c-58.3,0-105.7-47.4-105.7-105.7v-191.2c0-5.6,4.5-10.1,10.1-10.1s10.1,4.5,10.1,10.1v191.2
						c0,47.1,38.3,85.5,85.5,85.5c5.6,0,10.1,4.5,10.1,10.1S208,3120.6,202.5,3120.6z"/>
				</g>
				<g>
					<path class="st17" d="M-7.8,2842.8c0-53,35.9-97,84.7-110.2c-5.3-13.2-8.4-27.4-8.4-42.6c0-53,36.2-97.2,84.9-110.4
						c-5.3-13.2-8.4-27.5-8.4-42.6c0-63.4,51.5-114.9,114.9-114.9c63.3,0,114.6,51.5,114.6,114.9c0,15.1-3.1,29.4-8.4,42.6
						c48.8,13.2,84.9,57.5,84.9,110.4c0,15.1-3.1,29.3-8.4,42.6c48.8,13.2,84.9,57.3,84.9,110.2c0,63.3-51.5,114.9-114.9,114.9
						H106.9C43.5,2957.6-7.8,2906.1-7.8,2842.8z"/>
				</g>
				<g>
					<path class="st14" d="M-7.8,2842.8c0-53,35.9-97,84.7-110.2c-5.3-13.2-8.4-27.4-8.4-42.6c0-53,36.2-97.2,84.9-110.4
						c-5.3-13.2-8.4-27.5-8.4-42.6c0-16.9,3.9-32.9,10.5-47.4c17.5-17.7,40.2-29.1,66-29.1c54.3,0,98.4,47.8,98.4,106.6
						c0,14-2.8,27.4-7.4,39.6c41.8,12.3,72.9,53.2,72.9,102.4c0,14.1-2.6,27.3-7.2,39.6c41.8,12.3,72.7,53,72.7,102.2
						c0,58.8-44.1,106.6-98.4,106.6H221.5H106.9C43.5,2957.6-7.8,2906.1-7.8,2842.8z"/>
				</g>
				<g>
					<path class="st12" d="M432,2908.2c-7.9,4.1-16.2,5.5-24.3,5.7c-7.2-21.4,2.8-46.2,25.7-58.1c7.9-4.1,16.2-5.5,24.3-5.7
						C464.9,2871.4,454.8,2896.3,432,2908.2z"/>
				</g>
				<g>
					<path class="st12" d="M137.5,2675.8c0-8.9,2.6-16.9,6.2-24.2c22.3,3.5,39.7,23.9,39.7,49.6c0,8.9-2.6,16.9-6.2,24.2
						C154.9,2721.9,137.5,2701.5,137.5,2675.8z"/>
				</g>
				<g>
					<path class="st12" d="M358.9,2678.3c-6.3,6.3-13.8,10.1-21.5,12.7c-13.3-18.2-11.2-44.9,7-63.1c6.3-6.3,13.7-10.1,21.5-12.7
						C379.2,2633.4,377.1,2660.1,358.9,2678.3z"/>
				</g>
				<g>
					<path class="st15" d="M259.8,2575.8c-5.6,0-10.1-4.5-10.1-10.1c0-10.2-8.3-18.6-18.6-18.6c-10.2,0-18.6,8.3-18.6,18.6
						c0,5.6-4.5,10.1-10.1,10.1c-5.6,0-10.1-4.5-10.1-10.1c0-21.4,17.4-38.8,38.8-38.8c21.4,0,38.8,17.4,38.8,38.8
						C269.9,2571.2,265.4,2575.8,259.8,2575.8z"/>
				</g>
				<g>
					<path class="st15" d="M145.1,2881.6c-5.6,0-10.1-4.5-10.1-10.1c0-10.2-8.3-18.6-18.6-18.6c-10.2,0-18.6,8.3-18.6,18.6
						c0,5.6-4.5,10.1-10.1,10.1c-5.6,0-10.1-4.5-10.1-10.1c0-21.4,17.4-38.8,38.8-38.8c21.4,0,38.8,17.4,38.8,38.8
						C155.2,2877.1,150.7,2881.6,145.1,2881.6z"/>
				</g>
				<g>
					<path class="st15" d="M333.3,2832.6c-5.6,0-10.1-4.5-10.1-10.1c0-10.2-8.3-18.6-18.6-18.6c-10.2,0-18.6,8.3-18.6,18.6
						c0,5.6-4.5,10.1-10.1,10.1c-5.6,0-10.1-4.5-10.1-10.1c0-21.4,17.4-38.8,38.8-38.8c21.4,0,38.8,17.4,38.8,38.8
						C343.4,2828.1,338.9,2832.6,333.3,2832.6z"/>
				</g>
			</g>
			<g>
				<g>
					<path class="st14" d="M1100,3444.1c12.6-25.3,19.9-53.6,19.9-83.8c0-42.8-14.6-82.1-38.4-114v-0.8h-0.8
						c-34.9-46.2-89.8-76.5-152.2-76.5c-1.3,0-2.5,0.4-3.8,0.4c-17.6-87.4-94.7-153.2-187.3-153.2c-93.8,0-171.5,67.5-187.8,156.6
						c-32.6-25.8-73.2-41.9-118-41.9c-98.5,0-178.7,74.6-189.2,170.3c-24-10.9-50.3-17.3-78.4-17.3c-95.1,0-174.1,69.4-188.8,160.2
						H1100z"/>
				</g>
				<g>
					<path class="st4" d="M980.8,3279.4l-9.9,27l9.9,27l-27-9.9l-27,9.9l9.9-27l-9.9-27l27,9.9L980.8,3279.4z"/>
				</g>
				<g>
					<path class="st13" d="M801.6,3160.1c-5.6,0-10.1-4.5-10.1-10.1c0-10.2-8.3-18.6-18.6-18.6c-10.2,0-18.6,8.3-18.6,18.6
						c0,5.6-4.5,10.1-10.1,10.1c-5.6,0-10.1-4.5-10.1-10.1c0-21.4,17.4-38.8,38.8-38.8c21.4,0,38.8,17.4,38.8,38.8
						C811.7,3155.6,807.2,3160.1,801.6,3160.1z"/>
				</g>
				<g>
					<path class="st9" d="M447,3290c-3.1-8.3-3.5-16.7-2.8-24.8c22.1-4.7,45.6,8.2,54.7,32.3c3.2,8.3,3.6,16.7,2.8,24.8
						C479.7,3326.9,456.2,3314,447,3290z"/>
				</g>
			</g>
		</g>
		<g>
			<g>
				<path class="st9" d="M3237.4,2963.6v76.5c0,21.1-17.1,38.2-38.2,38.2l0,0c-21.1,0-38.2-17.1-38.2-38.2v-76.5
					c0-21.1,17.1-38.2,38.2-38.2l0,0C3220.3,2925.3,3237.4,2942.5,3237.4,2963.6z"/>
			</g>
			<g>
				<path class="st14" d="M3199.2,3197.1c-2.3,0-4.1-1.8-4.1-4.1v-191.2c0-2.3,1.8-4.1,4.1-4.1s4.1,1.8,4.1,4.1V3193
					C3203.3,3195.3,3201.4,3197.1,3199.2,3197.1z"/>
			</g>
		</g>
		<g>
			<g>
				<g>
					<path class="st15" d="M2571.7,3291c0-63.3,51.3-114.9,114.6-114.9h497.1c76.5,0,114.6-38.2,114.6-114.6
						c0-63.3,51.3-114.6,114.6-114.6H3948h229.5h267.6c76.5,0,114.6-38.4,114.6-114.9c0-63.3,51.5-114.6,114.9-114.6h235.6
						c63.3,0,114.6,51.3,114.6,114.6v114.9v152.8v306h-847.4H3948h-535.3h-726.4C2623,3405.6,2571.7,3354.4,2571.7,3291z"/>
				</g>
				<g>
					<g>
						<path class="st4" d="M4055.2,3056.5l-26.1,12.1l-12.1,26.1l-12.1-26.1l-26.1-12.1l26.1-12.1l12.1-26.1l12.1,26.1
							L4055.2,3056.5z"/>
					</g>
					<g>
						<path class="st12" d="M4867.2,2912c-3.1-8.3-3.5-16.7-2.8-24.8c22.1-4.7,45.6,8.2,54.7,32.3c3.2,8.3,3.6,16.7,2.8,24.8
							C4899.8,2948.9,4876.3,2936.1,4867.2,2912z"/>
					</g>
					<g>
						<path class="st12" d="M3509,3028.6c8.3-3.1,16.7-3.5,24.8-2.8c4.7,22.1-8.2,45.6-32.3,54.7c-8.3,3.2-16.7,3.6-24.8,2.8
							C3472.1,3061.2,3485,3037.7,3509,3028.6z"/>
					</g>
					<g>
						<path class="st14" d="M3861.3,3275.4c-5.6,0-10.1-4.5-10.1-10.1c0-10.2-8.4-18.5-18.6-18.5c-10.3,0-18.6,8.3-18.6,18.5
							c0,5.6-4.5,10.1-10.1,10.1s-10.1-4.5-10.1-10.1c0-21.3,17.4-38.7,38.8-38.7c21.4,0,38.8,17.4,38.8,38.7
							C3871.4,3270.8,3866.8,3275.4,3861.3,3275.4z"/>
					</g>
				</g>
			</g>
			<g>
				<g>
					<path class="st14" d="M4647.3,3141.1h161.2l-40.3-487.2h-80.6L4647.3,3141.1z"/>
				</g>
				<g>
					<path class="st17" d="M4727.8,2786.8h-40.2h-11.1l-29.3,354.4h80.6V2786.8z"/>
				</g>
				<g>
					<path class="st14" d="M4785.2,2838.2c-5.6,0-10.1-4.5-10.1-10.1s4.5-10.1,10.1-10.1c47.1,0,85.5-38.3,85.5-85.5v-191.2
						c0-5.6,4.5-10.1,10.1-10.1s10.1,4.5,10.1,10.1v191.2C4891,2790.8,4843.5,2838.2,4785.2,2838.2z"/>
				</g>
				<g>
					<path class="st17" d="M4670.5,2838.2c-58.3,0-105.7-47.4-105.7-105.7v-191.2c0-5.6,4.5-10.1,10.1-10.1s10.1,4.5,10.1,10.1
						v191.2c0,47.1,38.3,85.5,85.5,85.5c5.6,0,10.1,4.5,10.1,10.1S4676.1,2838.2,4670.5,2838.2z"/>
				</g>
				<g>
					<path class="st15" d="M4995.5,2598.6c0-53-35.9-97-84.7-110.2c5.3-13.2,8.4-27.4,8.4-42.6c0-53-36.2-97.2-84.9-110.4
						c5.3-13.2,8.4-27.5,8.4-42.6c0-63.4-51.5-114.9-114.9-114.9c-63.4,0-114.6,51.5-114.6,114.9c0,15.1,3.1,29.4,8.4,42.6
						c-48.8,13.2-84.9,57.5-84.9,110.4c0,15.1,3.1,29.3,8.4,42.6c-48.8,13.2-84.9,57.3-84.9,110.2c0,63.3,51.5,114.9,114.9,114.9
						h305.8C4944.2,2713.4,4995.5,2661.9,4995.5,2598.6z"/>
				</g>
				<g>
					<path class="st17" d="M4995.5,2598.6c0-53-35.9-97-84.7-110.2c5.3-13.2,8.4-27.4,8.4-42.6c0-53-36.2-97.2-84.9-110.4
						c5.3-13.2,8.4-27.5,8.4-42.6c0-16.9-3.9-32.9-10.5-47.4c-17.5-17.7-40.2-29.1-66-29.1c-54.3,0-98.4,47.8-98.4,106.6
						c0,14,2.8,27.4,7.4,39.6c-41.8,12.3-72.9,53.2-72.9,102.4c0,14.1,2.6,27.3,7.2,39.6c-41.8,12.3-72.7,53-72.7,102.2
						c0,58.8,44.1,106.6,98.4,106.6h131.1h114.6C4944.2,2713.4,4995.5,2661.9,4995.5,2598.6z"/>
				</g>
				<g>
					<path class="st12" d="M4548.4,2618.5c7.9,4.1,16.2,5.5,24.3,5.7c7.2-21.4-2.8-46.2-25.7-58.1c-7.9-4.1-16.1-5.5-24.3-5.7
						C4515.5,2581.8,4525.5,2606.7,4548.4,2618.5z"/>
				</g>
				<g>
					<path class="st12" d="M4812,2431.6c0-8.9-2.6-16.9-6.2-24.2c-22.3,3.5-39.7,23.9-39.7,49.6c0,8.9,2.6,16.9,6.2,24.2
						C4794.6,2477.7,4812,2457.3,4812,2431.6z"/>
				</g>
				<g>
					<path class="st14" d="M4791.5,2294c-5.6,0-10.1-4.5-10.1-10.1c0-10.2-8.3-18.6-18.6-18.6c-10.2,0-18.6,8.3-18.6,18.6
						c0,5.6-4.5,10.1-10.1,10.1s-10.1-4.5-10.1-10.1c0-21.4,17.4-38.8,38.8-38.8c21.4,0,38.8,17.4,38.8,38.8
						C4801.6,2289.5,4797.1,2294,4791.5,2294z"/>
				</g>
				<g>
					<path class="st14" d="M4910.2,2644.4c-5.6,0-10.1-4.5-10.1-10.1c0-10.2-8.3-18.6-18.6-18.6c-10.2,0-18.6,8.3-18.6,18.6
						c0,5.6-4.5,10.1-10.1,10.1s-10.1-4.5-10.1-10.1c0-21.4,17.4-38.8,38.8-38.8c21.4,0,38.8,17.4,38.8,38.8
						C4920.3,2639.8,4915.8,2644.4,4910.2,2644.4z"/>
				</g>
				<g>
					<path class="st14" d="M4717.7,2579.4c-5.6,0-10.1-4.5-10.1-10.1c0-10.2-8.3-18.6-18.6-18.6c-10.2,0-18.6,8.3-18.6,18.6
						c0,5.6-4.5,10.1-10.1,10.1s-10.1-4.5-10.1-10.1c0-21.4,17.4-38.8,38.8-38.8c21.4,0,38.8,17.4,38.8,38.8
						C4727.8,2574.9,4723.3,2579.4,4717.7,2579.4z"/>
				</g>
			</g>
			<g>
				<g>
					<path class="st14" d="M5028.8,3419v-218.8c-16.9,3.4-33,9-48.3,16.6c-11.2-111.3-97-198.1-202.3-198.1
						c-47.9,0-91.3,18.7-126.1,48.8c-17.4-103.6-100.5-182.1-200.7-182.1c-99,0-181.4,76.5-200.2,178.2c-1.4,0-2.7-0.5-4.1-0.5
						c-66.6,0-125.3,35.3-162.6,89h-0.9v1c-25.4,37.1-41,82.8-41,132.6c0,49.8,15.6,95.3,41,132.4v1H5028.8z"/>
				</g>
				<g>
					<path class="st4" d="M4605.4,3255.9l-9.9,27l9.9,27l-27-9.9l-27,9.9l9.9-27l-9.9-27l27,9.9L4605.4,3255.9z"/>
				</g>
				<g>
					<path class="st22" d="M4874.4,3183.3c7.9-4.1,16.3-5.5,24.4-5.7c7.2,21.4-2.9,46.2-25.8,58.1c-8,4.1-16.2,5.5-24.4,5.7
						C4841.4,3220,4851.5,3195.2,4874.4,3183.3z"/>
				</g>
				<g>
					<path class="st13" d="M4490.1,3065.3c-5.6,0-10.1-4.5-10.1-10.1c0-10.2-8.4-18.5-18.7-18.5s-18.7,8.3-18.7,18.5
						c0,5.6-4.5,10.1-10.1,10.1s-10.1-4.5-10.1-10.1c0-21.4,17.5-38.8,39-38.8s39,17.4,39,38.8
						C4500.2,3060.8,4495.7,3065.3,4490.1,3065.3z"/>
				</g>
				<g>
					<path class="st9" d="M4190.4,3284.8c-4.1-7.9-5.5-16.2-5.7-24.3c21.4-7.2,46.2,2.8,58.1,25.7c4.1,7.9,5.5,16.1,5.7,24.3
						C4227.1,3317.6,4202.2,3307.6,4190.4,3284.8z"/>
				</g>
			</g>
			<g>
				<g>
					<path class="st14" d="M3353.1,3304.5c0-11.5,2.1-22.5,5.3-33c10.5-3.1,21.4-5.3,32.9-5.3c63.5,0,114.9,51.3,114.9,114.5
						c0,11.5-2.1,22.3-5.3,32.8c-10.5,3.1-21.4,5.3-32.9,5.3C3404.5,3418.8,3353.1,3367.7,3353.1,3304.5z"/>
				</g>
				<g>
					<path class="st14" d="M3621.4,3267c11.6,0.1,22.6,2.2,33.1,5.5c3.1,10.5,5.1,21.4,5,32.8c-0.5,63.2-52.4,113.9-115.9,113.5
						c-11.6-0.1-22.4-2.3-32.9-5.5c-3.1-10.4-5.1-21.4-5-32.8C3506.2,3317.3,3558,3266.5,3621.4,3267z"/>
				</g>
			</g>
		</g>
		<g>
			<g>
				<path class="st14" d="M2942.8,3330.1c0-84.5-68.9-153-153.8-153c-29.1,0-56,8.4-79.2,22.3c1.1-7.3,2.3-14.7,2.3-22.3
					c0-84.5-68.9-152.8-153.8-152.8s-153.5,68.3-153.5,152.8c0,7.7,1,15.2,2.1,22.6c-23.2-14-49.9-22.6-79-22.6
					c-84.9,0-153.8,68.5-153.8,153v76.5h768.6V3330.1z"/>
			</g>
			<g>
				<path class="st17" d="M2601.7,3155.3c-5.6,0-10.1-4.5-10.1-10.1c0-10.2-8.4-18.5-18.6-18.5c-10.3,0-18.6,8.3-18.6,18.5
					c0,5.6-4.5,10.1-10.1,10.1s-10.1-4.5-10.1-10.1c0-21.3,17.4-38.7,38.8-38.7c21.4,0,38.8,17.4,38.8,38.7
					C2611.8,3150.8,2607.3,3155.3,2601.7,3155.3z"/>
			</g>
			<g>
				<path class="st22" d="M2339.6,3285.2c-3.1-8.3-3.5-16.7-2.8-24.8c22.1-4.7,45.6,8.2,54.7,32.3c3.2,8.3,3.6,16.7,2.8,24.8
					C2372.2,3322.2,2348.7,3309.3,2339.6,3285.2z"/>
			</g>
			<g>
				<path class="st9" d="M2793.2,3277.7c7.9-4.1,16.2-5.5,24.3-5.7c7.2,21.4-2.8,46.2-25.7,58.1c-7.9,4.1-16.1,5.5-24.3,5.7
					C2760.3,3314.4,2770.4,3289.5,2793.2,3277.7z"/>
			</g>
		</g>
		<g>
			<g>
				<path class="st16" d="M910.3,2839.9v114.7c0,21.1-17.1,38.2-38.2,38.2l0,0c-21.1,0-38.2-17.1-38.2-38.2v-114.7
					c0-21.1,17.1-38.2,38.2-38.2l0,0C893.2,2801.7,910.3,2818.8,910.3,2839.9z"/>
			</g>
			<g>
				<path class="st14" d="M872.1,3132.2c-2.3,0-4.1-1.8-4.1-4.1v-211.6c0-2.3,1.8-4.1,4.1-4.1s4.1,1.8,4.1,4.1v211.6
					C876.2,3130.3,874.3,3132.2,872.1,3132.2z"/>
			</g>
		</g>
	</g>
</g>
</svg>
