<?xml version="1.0" encoding="utf-8"?>
<!-- Generator: Adobe Illustrator 26.3.1, SVG Export Plug-In . SVG Version: 6.00 Build 0)  -->
<!DOCTYPE svg PUBLIC "-//W3C//DTD SVG 1.1//EN" "http://www.w3.org/Graphics/SVG/1.1/DTD/svg11.dtd" [
	<!ENTITY ns_extend "http://ns.adobe.com/Extensibility/1.0/">
	<!ENTITY ns_ai "http://ns.adobe.com/AdobeIllustrator/10.0/">
	<!ENTITY ns_graphs "http://ns.adobe.com/Graphs/1.0/">
	<!ENTITY ns_vars "http://ns.adobe.com/Variables/1.0/">
	<!ENTITY ns_imrep "http://ns.adobe.com/ImageReplacement/1.0/">
	<!ENTITY ns_sfw "http://ns.adobe.com/SaveForWeb/1.0/">
	<!ENTITY ns_custom "http://ns.adobe.com/GenericCustomNamespace/1.0/">
	<!ENTITY ns_adobe_xpath "http://ns.adobe.com/XPath/1.0/">
]>
<svg version="1.1" id="Layer_1" xmlns:x="&ns_extend;" xmlns:i="&ns_ai;" xmlns:graph="&ns_graphs;"
	 xmlns="http://www.w3.org/2000/svg" xmlns:xlink="http://www.w3.org/1999/xlink" x="0px" y="0px" viewBox="0 0 3600 1884"
	 style="enable-background:new 0 0 3600 1884;" xml:space="preserve">
<style type="text/css">
	.Blue_x0020_Neon{fill:none;stroke:#8AACDA;stroke-width:7;stroke-linecap:round;stroke-linejoin:round;}
	.Chrome_x0020_Highlight{fill:url(#SVGID_1_);stroke:#FFFFFF;stroke-width:0.3629;stroke-miterlimit:1;}
	.Jive_GS{fill:#FFDD00;}
	.Alyssa_GS{fill:#A6D0E4;}
	
		.st0{clip-path:url(#SVGID_00000165912780563029757730000008350866519874598537_);fill:none;stroke:#373C54;stroke-width:3;stroke-miterlimit:10;}
	.st1{fill:#606578;}
	.st2{fill:#B8697F;}
	.st3{fill:#CCB8A5;}
	.st4{fill:#353B51;}
	.st5{fill:#BABABA;}
	.st6{fill:#FFF8ED;}
	.st7{fill:#2D334A;}
	.st8{fill:#D5C5B5;}
	.st9{fill:#B5CDD5;}
	.st10{clip-path:url(#SVGID_00000062912920650979754510000015703922323612781195_);}
	.st11{fill:#FEBEB5;}
	.st12{fill:#FA7A81;}
	.st13{opacity:0.55;fill:#FA7A81;}
	.st14{fill:url(#SVGID_00000067920039007314393460000006594846592408943785_);}
	.st15{opacity:0.4;fill:#88AEBC;}
	.st16{opacity:0.4;fill:#FEBEB5;}
	.st17{clip-path:url(#SVGID_00000011750461087001646330000016305944053444666014_);fill:#FA7A81;}
	.st18{fill:#ABC5CF;}
	.st19{opacity:0.4;fill:#CCB8A5;}
	.st20{fill:#97B9C5;}
	.st21{fill:#B9CFD7;}
	.st22{fill:#DB957F;}
	.st23{fill:#727686;}
	.st24{fill:#C68799;}
	.st25{fill:#88AEBC;}
	.st26{fill:#EDE6DF;}
</style>
<metadata>
	<sfw  xmlns="&ns_sfw;">
		<slices></slices>
		<sliceSourceBounds  bottomLeftOrigin="true" height="5729.5" width="5628.5" x="-1001.4" y="-3798.8"></sliceSourceBounds>
		<optimizationSettings>
			<targetSettings  fileFormat="JPEGFormat" targetSettingsID="0">
				
					<JPEGFormat  blurAmount="0" embedICCProfile="false" matteColor="#FFFFFF" noMatteColor="false" optimized="true" progressive="false" quality="100">
					</JPEGFormat>
			</targetSettings>
		</optimizationSettings>
	</sfw>
</metadata>
<linearGradient id="SVGID_1_" gradientUnits="userSpaceOnUse" x1="0" y1="0" x2="6.123234e-17" y2="-1">
	<stop  offset="0" style="stop-color:#656565"/>
	<stop  offset="0.618" style="stop-color:#1B1B1B"/>
	<stop  offset="0.6292" style="stop-color:#545454"/>
	<stop  offset="0.9831" style="stop-color:#3E3E3E"/>
</linearGradient>
<g>
	<g>
		<defs>
			<rect id="SVGID_00000127765355161368263250000014131729417952036241_" width="3600" height="1884"/>
		</defs>
		<use xlink:href="#SVGID_00000127765355161368263250000014131729417952036241_"  style="overflow:visible;fill:#4E5369;"/>
		<clipPath id="SVGID_00000116930427028561871060000008998578148771751594_">
			<use xlink:href="#SVGID_00000127765355161368263250000014131729417952036241_"  style="overflow:visible;"/>
		</clipPath>
		
			<line style="clip-path:url(#SVGID_00000116930427028561871060000008998578148771751594_);fill:none;stroke:#373C54;stroke-width:3;stroke-miterlimit:10;" x1="1973.9" y1="-1929.6" x2="-1000.3" y2="1044.6"/>
		
			<line style="clip-path:url(#SVGID_00000116930427028561871060000008998578148771751594_);fill:none;stroke:#373C54;stroke-width:3;stroke-miterlimit:10;" x1="1997" y1="-1906.5" x2="-977.2" y2="1067.7"/>
		
			<line style="clip-path:url(#SVGID_00000116930427028561871060000008998578148771751594_);fill:none;stroke:#373C54;stroke-width:3;stroke-miterlimit:10;" x1="2020.1" y1="-1883.4" x2="-954.1" y2="1090.8"/>
		
			<line style="clip-path:url(#SVGID_00000116930427028561871060000008998578148771751594_);fill:none;stroke:#373C54;stroke-width:3;stroke-miterlimit:10;" x1="2043.2" y1="-1860.3" x2="-931" y2="1113.9"/>
		
			<line style="clip-path:url(#SVGID_00000116930427028561871060000008998578148771751594_);fill:none;stroke:#373C54;stroke-width:3;stroke-miterlimit:10;" x1="2066.3" y1="-1837.2" x2="-907.9" y2="1137"/>
		
			<line style="clip-path:url(#SVGID_00000116930427028561871060000008998578148771751594_);fill:none;stroke:#373C54;stroke-width:3;stroke-miterlimit:10;" x1="2089.4" y1="-1814.1" x2="-884.8" y2="1160.1"/>
		
			<line style="clip-path:url(#SVGID_00000116930427028561871060000008998578148771751594_);fill:none;stroke:#373C54;stroke-width:3;stroke-miterlimit:10;" x1="2112.5" y1="-1791" x2="-861.7" y2="1183.2"/>
		
			<line style="clip-path:url(#SVGID_00000116930427028561871060000008998578148771751594_);fill:none;stroke:#373C54;stroke-width:3;stroke-miterlimit:10;" x1="2135.6" y1="-1767.9" x2="-838.6" y2="1206.3"/>
		
			<line style="clip-path:url(#SVGID_00000116930427028561871060000008998578148771751594_);fill:none;stroke:#373C54;stroke-width:3;stroke-miterlimit:10;" x1="2158.7" y1="-1744.8" x2="-815.5" y2="1229.4"/>
		
			<line style="clip-path:url(#SVGID_00000116930427028561871060000008998578148771751594_);fill:none;stroke:#373C54;stroke-width:3;stroke-miterlimit:10;" x1="2181.8" y1="-1721.7" x2="-792.4" y2="1252.5"/>
		
			<line style="clip-path:url(#SVGID_00000116930427028561871060000008998578148771751594_);fill:none;stroke:#373C54;stroke-width:3;stroke-miterlimit:10;" x1="2204.9" y1="-1698.6" x2="-769.3" y2="1275.6"/>
		
			<line style="clip-path:url(#SVGID_00000116930427028561871060000008998578148771751594_);fill:none;stroke:#373C54;stroke-width:3;stroke-miterlimit:10;" x1="2228" y1="-1675.5" x2="-746.2" y2="1298.7"/>
		
			<line style="clip-path:url(#SVGID_00000116930427028561871060000008998578148771751594_);fill:none;stroke:#373C54;stroke-width:3;stroke-miterlimit:10;" x1="2251.1" y1="-1652.4" x2="-723.1" y2="1321.8"/>
		
			<line style="clip-path:url(#SVGID_00000116930427028561871060000008998578148771751594_);fill:none;stroke:#373C54;stroke-width:3;stroke-miterlimit:10;" x1="2274.2" y1="-1629.3" x2="-700" y2="1344.9"/>
		
			<line style="clip-path:url(#SVGID_00000116930427028561871060000008998578148771751594_);fill:none;stroke:#373C54;stroke-width:3;stroke-miterlimit:10;" x1="2297.3" y1="-1606.2" x2="-676.9" y2="1368"/>
		
			<line style="clip-path:url(#SVGID_00000116930427028561871060000008998578148771751594_);fill:none;stroke:#373C54;stroke-width:3;stroke-miterlimit:10;" x1="2320.4" y1="-1583.1" x2="-653.8" y2="1391.1"/>
		
			<line style="clip-path:url(#SVGID_00000116930427028561871060000008998578148771751594_);fill:none;stroke:#373C54;stroke-width:3;stroke-miterlimit:10;" x1="2343.5" y1="-1560" x2="-630.7" y2="1414.2"/>
		
			<line style="clip-path:url(#SVGID_00000116930427028561871060000008998578148771751594_);fill:none;stroke:#373C54;stroke-width:3;stroke-miterlimit:10;" x1="2366.6" y1="-1536.9" x2="-607.6" y2="1437.3"/>
		
			<line style="clip-path:url(#SVGID_00000116930427028561871060000008998578148771751594_);fill:none;stroke:#373C54;stroke-width:3;stroke-miterlimit:10;" x1="2389.7" y1="-1513.8" x2="-584.5" y2="1460.4"/>
		
			<line style="clip-path:url(#SVGID_00000116930427028561871060000008998578148771751594_);fill:none;stroke:#373C54;stroke-width:3;stroke-miterlimit:10;" x1="2412.8" y1="-1490.7" x2="-561.4" y2="1483.5"/>
		
			<line style="clip-path:url(#SVGID_00000116930427028561871060000008998578148771751594_);fill:none;stroke:#373C54;stroke-width:3;stroke-miterlimit:10;" x1="2435.9" y1="-1467.6" x2="-538.3" y2="1506.6"/>
		
			<line style="clip-path:url(#SVGID_00000116930427028561871060000008998578148771751594_);fill:none;stroke:#373C54;stroke-width:3;stroke-miterlimit:10;" x1="2459" y1="-1444.5" x2="-515.2" y2="1529.7"/>
		
			<line style="clip-path:url(#SVGID_00000116930427028561871060000008998578148771751594_);fill:none;stroke:#373C54;stroke-width:3;stroke-miterlimit:10;" x1="2482.1" y1="-1421.4" x2="-492.1" y2="1552.8"/>
		
			<line style="clip-path:url(#SVGID_00000116930427028561871060000008998578148771751594_);fill:none;stroke:#373C54;stroke-width:3;stroke-miterlimit:10;" x1="2505.2" y1="-1398.3" x2="-469" y2="1575.9"/>
		
			<line style="clip-path:url(#SVGID_00000116930427028561871060000008998578148771751594_);fill:none;stroke:#373C54;stroke-width:3;stroke-miterlimit:10;" x1="2528.3" y1="-1375.2" x2="-445.9" y2="1599"/>
		
			<line style="clip-path:url(#SVGID_00000116930427028561871060000008998578148771751594_);fill:none;stroke:#373C54;stroke-width:3;stroke-miterlimit:10;" x1="2551.4" y1="-1352.1" x2="-422.8" y2="1622.1"/>
		
			<line style="clip-path:url(#SVGID_00000116930427028561871060000008998578148771751594_);fill:none;stroke:#373C54;stroke-width:3;stroke-miterlimit:10;" x1="2574.5" y1="-1329" x2="-399.7" y2="1645.2"/>
		
			<line style="clip-path:url(#SVGID_00000116930427028561871060000008998578148771751594_);fill:none;stroke:#373C54;stroke-width:3;stroke-miterlimit:10;" x1="2597.6" y1="-1305.9" x2="-376.6" y2="1668.3"/>
		
			<line style="clip-path:url(#SVGID_00000116930427028561871060000008998578148771751594_);fill:none;stroke:#373C54;stroke-width:3;stroke-miterlimit:10;" x1="2620.7" y1="-1282.8" x2="-353.4" y2="1691.4"/>
		
			<line style="clip-path:url(#SVGID_00000116930427028561871060000008998578148771751594_);fill:none;stroke:#373C54;stroke-width:3;stroke-miterlimit:10;" x1="2643.8" y1="-1259.6" x2="-330.3" y2="1714.5"/>
		
			<line style="clip-path:url(#SVGID_00000116930427028561871060000008998578148771751594_);fill:none;stroke:#373C54;stroke-width:3;stroke-miterlimit:10;" x1="2666.9" y1="-1236.5" x2="-307.2" y2="1737.6"/>
		
			<line style="clip-path:url(#SVGID_00000116930427028561871060000008998578148771751594_);fill:none;stroke:#373C54;stroke-width:3;stroke-miterlimit:10;" x1="2690" y1="-1213.4" x2="-284.1" y2="1760.7"/>
		
			<line style="clip-path:url(#SVGID_00000116930427028561871060000008998578148771751594_);fill:none;stroke:#373C54;stroke-width:3;stroke-miterlimit:10;" x1="2713.1" y1="-1190.3" x2="-261" y2="1783.8"/>
		
			<line style="clip-path:url(#SVGID_00000116930427028561871060000008998578148771751594_);fill:none;stroke:#373C54;stroke-width:3;stroke-miterlimit:10;" x1="2736.3" y1="-1167.2" x2="-237.9" y2="1807"/>
		
			<line style="clip-path:url(#SVGID_00000116930427028561871060000008998578148771751594_);fill:none;stroke:#373C54;stroke-width:3;stroke-miterlimit:10;" x1="2759.4" y1="-1144.1" x2="-214.8" y2="1830.1"/>
		
			<line style="clip-path:url(#SVGID_00000116930427028561871060000008998578148771751594_);fill:none;stroke:#373C54;stroke-width:3;stroke-miterlimit:10;" x1="2782.5" y1="-1121" x2="-191.7" y2="1853.2"/>
		
			<line style="clip-path:url(#SVGID_00000116930427028561871060000008998578148771751594_);fill:none;stroke:#373C54;stroke-width:3;stroke-miterlimit:10;" x1="2805.6" y1="-1097.9" x2="-168.6" y2="1876.3"/>
		
			<line style="clip-path:url(#SVGID_00000116930427028561871060000008998578148771751594_);fill:none;stroke:#373C54;stroke-width:3;stroke-miterlimit:10;" x1="2828.7" y1="-1074.8" x2="-145.5" y2="1899.4"/>
		
			<line style="clip-path:url(#SVGID_00000116930427028561871060000008998578148771751594_);fill:none;stroke:#373C54;stroke-width:3;stroke-miterlimit:10;" x1="2851.8" y1="-1051.7" x2="-122.4" y2="1922.5"/>
		
			<line style="clip-path:url(#SVGID_00000116930427028561871060000008998578148771751594_);fill:none;stroke:#373C54;stroke-width:3;stroke-miterlimit:10;" x1="2874.9" y1="-1028.6" x2="-99.3" y2="1945.6"/>
		
			<line style="clip-path:url(#SVGID_00000116930427028561871060000008998578148771751594_);fill:none;stroke:#373C54;stroke-width:3;stroke-miterlimit:10;" x1="2898" y1="-1005.5" x2="-76.2" y2="1968.7"/>
		
			<line style="clip-path:url(#SVGID_00000116930427028561871060000008998578148771751594_);fill:none;stroke:#373C54;stroke-width:3;stroke-miterlimit:10;" x1="2921.1" y1="-982.4" x2="-53.1" y2="1991.8"/>
		
			<line style="clip-path:url(#SVGID_00000116930427028561871060000008998578148771751594_);fill:none;stroke:#373C54;stroke-width:3;stroke-miterlimit:10;" x1="2944.2" y1="-959.3" x2="-30" y2="2014.9"/>
		
			<line style="clip-path:url(#SVGID_00000116930427028561871060000008998578148771751594_);fill:none;stroke:#373C54;stroke-width:3;stroke-miterlimit:10;" x1="2967.3" y1="-936.2" x2="-6.9" y2="2038"/>
		
			<line style="clip-path:url(#SVGID_00000116930427028561871060000008998578148771751594_);fill:none;stroke:#373C54;stroke-width:3;stroke-miterlimit:10;" x1="2990.4" y1="-913.1" x2="16.2" y2="2061.1"/>
		
			<line style="clip-path:url(#SVGID_00000116930427028561871060000008998578148771751594_);fill:none;stroke:#373C54;stroke-width:3;stroke-miterlimit:10;" x1="3013.5" y1="-890" x2="39.3" y2="2084.2"/>
		
			<line style="clip-path:url(#SVGID_00000116930427028561871060000008998578148771751594_);fill:none;stroke:#373C54;stroke-width:3;stroke-miterlimit:10;" x1="3036.6" y1="-866.9" x2="62.4" y2="2107.3"/>
		
			<line style="clip-path:url(#SVGID_00000116930427028561871060000008998578148771751594_);fill:none;stroke:#373C54;stroke-width:3;stroke-miterlimit:10;" x1="3059.7" y1="-843.8" x2="85.5" y2="2130.4"/>
		
			<line style="clip-path:url(#SVGID_00000116930427028561871060000008998578148771751594_);fill:none;stroke:#373C54;stroke-width:3;stroke-miterlimit:10;" x1="3082.8" y1="-820.7" x2="108.6" y2="2153.5"/>
		
			<line style="clip-path:url(#SVGID_00000116930427028561871060000008998578148771751594_);fill:none;stroke:#373C54;stroke-width:3;stroke-miterlimit:10;" x1="3105.9" y1="-797.6" x2="131.7" y2="2176.6"/>
		
			<line style="clip-path:url(#SVGID_00000116930427028561871060000008998578148771751594_);fill:none;stroke:#373C54;stroke-width:3;stroke-miterlimit:10;" x1="3129" y1="-774.5" x2="154.8" y2="2199.7"/>
		
			<line style="clip-path:url(#SVGID_00000116930427028561871060000008998578148771751594_);fill:none;stroke:#373C54;stroke-width:3;stroke-miterlimit:10;" x1="3152.1" y1="-751.4" x2="177.9" y2="2222.8"/>
		
			<line style="clip-path:url(#SVGID_00000116930427028561871060000008998578148771751594_);fill:none;stroke:#373C54;stroke-width:3;stroke-miterlimit:10;" x1="3175.2" y1="-728.3" x2="201" y2="2245.9"/>
		
			<line style="clip-path:url(#SVGID_00000116930427028561871060000008998578148771751594_);fill:none;stroke:#373C54;stroke-width:3;stroke-miterlimit:10;" x1="3198.3" y1="-705.2" x2="224.1" y2="2269"/>
		
			<line style="clip-path:url(#SVGID_00000116930427028561871060000008998578148771751594_);fill:none;stroke:#373C54;stroke-width:3;stroke-miterlimit:10;" x1="3221.4" y1="-682.1" x2="247.2" y2="2292.1"/>
		
			<line style="clip-path:url(#SVGID_00000116930427028561871060000008998578148771751594_);fill:none;stroke:#373C54;stroke-width:3;stroke-miterlimit:10;" x1="3244.5" y1="-659" x2="270.3" y2="2315.2"/>
		
			<line style="clip-path:url(#SVGID_00000116930427028561871060000008998578148771751594_);fill:none;stroke:#373C54;stroke-width:3;stroke-miterlimit:10;" x1="3267.6" y1="-635.9" x2="293.4" y2="2338.3"/>
		
			<line style="clip-path:url(#SVGID_00000116930427028561871060000008998578148771751594_);fill:none;stroke:#373C54;stroke-width:3;stroke-miterlimit:10;" x1="3290.7" y1="-612.8" x2="316.5" y2="2361.4"/>
		
			<line style="clip-path:url(#SVGID_00000116930427028561871060000008998578148771751594_);fill:none;stroke:#373C54;stroke-width:3;stroke-miterlimit:10;" x1="3313.8" y1="-589.7" x2="339.6" y2="2384.5"/>
		
			<line style="clip-path:url(#SVGID_00000116930427028561871060000008998578148771751594_);fill:none;stroke:#373C54;stroke-width:3;stroke-miterlimit:10;" x1="3336.9" y1="-566.6" x2="362.7" y2="2407.6"/>
		
			<line style="clip-path:url(#SVGID_00000116930427028561871060000008998578148771751594_);fill:none;stroke:#373C54;stroke-width:3;stroke-miterlimit:10;" x1="3360" y1="-543.5" x2="385.8" y2="2430.7"/>
		
			<line style="clip-path:url(#SVGID_00000116930427028561871060000008998578148771751594_);fill:none;stroke:#373C54;stroke-width:3;stroke-miterlimit:10;" x1="3383.1" y1="-520.4" x2="408.9" y2="2453.8"/>
		
			<line style="clip-path:url(#SVGID_00000116930427028561871060000008998578148771751594_);fill:none;stroke:#373C54;stroke-width:3;stroke-miterlimit:10;" x1="3406.2" y1="-497.2" x2="432.1" y2="2476.9"/>
		
			<line style="clip-path:url(#SVGID_00000116930427028561871060000008998578148771751594_);fill:none;stroke:#373C54;stroke-width:3;stroke-miterlimit:10;" x1="3429.3" y1="-474.1" x2="455.2" y2="2500"/>
		
			<line style="clip-path:url(#SVGID_00000116930427028561871060000008998578148771751594_);fill:none;stroke:#373C54;stroke-width:3;stroke-miterlimit:10;" x1="3452.4" y1="-451" x2="478.3" y2="2523.1"/>
		
			<line style="clip-path:url(#SVGID_00000116930427028561871060000008998578148771751594_);fill:none;stroke:#373C54;stroke-width:3;stroke-miterlimit:10;" x1="3475.5" y1="-427.9" x2="501.4" y2="2546.2"/>
		
			<line style="clip-path:url(#SVGID_00000116930427028561871060000008998578148771751594_);fill:none;stroke:#373C54;stroke-width:3;stroke-miterlimit:10;" x1="3498.7" y1="-404.8" x2="524.5" y2="2569.4"/>
		
			<line style="clip-path:url(#SVGID_00000116930427028561871060000008998578148771751594_);fill:none;stroke:#373C54;stroke-width:3;stroke-miterlimit:10;" x1="3521.8" y1="-381.7" x2="547.6" y2="2592.5"/>
		
			<line style="clip-path:url(#SVGID_00000116930427028561871060000008998578148771751594_);fill:none;stroke:#373C54;stroke-width:3;stroke-miterlimit:10;" x1="3544.9" y1="-358.6" x2="570.7" y2="2615.6"/>
		
			<line style="clip-path:url(#SVGID_00000116930427028561871060000008998578148771751594_);fill:none;stroke:#373C54;stroke-width:3;stroke-miterlimit:10;" x1="3568" y1="-335.5" x2="593.8" y2="2638.7"/>
		
			<line style="clip-path:url(#SVGID_00000116930427028561871060000008998578148771751594_);fill:none;stroke:#373C54;stroke-width:3;stroke-miterlimit:10;" x1="3591.1" y1="-312.4" x2="616.9" y2="2661.8"/>
		
			<line style="clip-path:url(#SVGID_00000116930427028561871060000008998578148771751594_);fill:none;stroke:#373C54;stroke-width:3;stroke-miterlimit:10;" x1="3614.2" y1="-289.3" x2="640" y2="2684.9"/>
		
			<line style="clip-path:url(#SVGID_00000116930427028561871060000008998578148771751594_);fill:none;stroke:#373C54;stroke-width:3;stroke-miterlimit:10;" x1="3637.3" y1="-266.2" x2="663.1" y2="2708"/>
		
			<line style="clip-path:url(#SVGID_00000116930427028561871060000008998578148771751594_);fill:none;stroke:#373C54;stroke-width:3;stroke-miterlimit:10;" x1="3660.4" y1="-243.1" x2="686.2" y2="2731.1"/>
		
			<line style="clip-path:url(#SVGID_00000116930427028561871060000008998578148771751594_);fill:none;stroke:#373C54;stroke-width:3;stroke-miterlimit:10;" x1="3683.5" y1="-220" x2="709.3" y2="2754.2"/>
		
			<line style="clip-path:url(#SVGID_00000116930427028561871060000008998578148771751594_);fill:none;stroke:#373C54;stroke-width:3;stroke-miterlimit:10;" x1="3706.6" y1="-196.9" x2="732.4" y2="2777.3"/>
		
			<line style="clip-path:url(#SVGID_00000116930427028561871060000008998578148771751594_);fill:none;stroke:#373C54;stroke-width:3;stroke-miterlimit:10;" x1="3729.7" y1="-173.8" x2="755.5" y2="2800.4"/>
		
			<line style="clip-path:url(#SVGID_00000116930427028561871060000008998578148771751594_);fill:none;stroke:#373C54;stroke-width:3;stroke-miterlimit:10;" x1="3752.8" y1="-150.7" x2="778.6" y2="2823.5"/>
		
			<line style="clip-path:url(#SVGID_00000116930427028561871060000008998578148771751594_);fill:none;stroke:#373C54;stroke-width:3;stroke-miterlimit:10;" x1="3775.9" y1="-127.6" x2="801.7" y2="2846.6"/>
		
			<line style="clip-path:url(#SVGID_00000116930427028561871060000008998578148771751594_);fill:none;stroke:#373C54;stroke-width:3;stroke-miterlimit:10;" x1="3799" y1="-104.5" x2="824.8" y2="2869.7"/>
		
			<line style="clip-path:url(#SVGID_00000116930427028561871060000008998578148771751594_);fill:none;stroke:#373C54;stroke-width:3;stroke-miterlimit:10;" x1="3822.1" y1="-81.4" x2="847.9" y2="2892.8"/>
		
			<line style="clip-path:url(#SVGID_00000116930427028561871060000008998578148771751594_);fill:none;stroke:#373C54;stroke-width:3;stroke-miterlimit:10;" x1="3845.2" y1="-58.3" x2="871" y2="2915.9"/>
		
			<line style="clip-path:url(#SVGID_00000116930427028561871060000008998578148771751594_);fill:none;stroke:#373C54;stroke-width:3;stroke-miterlimit:10;" x1="3868.3" y1="-35.2" x2="894.1" y2="2939"/>
		
			<line style="clip-path:url(#SVGID_00000116930427028561871060000008998578148771751594_);fill:none;stroke:#373C54;stroke-width:3;stroke-miterlimit:10;" x1="3891.4" y1="-12.1" x2="917.2" y2="2962.1"/>
		
			<line style="clip-path:url(#SVGID_00000116930427028561871060000008998578148771751594_);fill:none;stroke:#373C54;stroke-width:3;stroke-miterlimit:10;" x1="3914.5" y1="11" x2="940.3" y2="2985.2"/>
		
			<line style="clip-path:url(#SVGID_00000116930427028561871060000008998578148771751594_);fill:none;stroke:#373C54;stroke-width:3;stroke-miterlimit:10;" x1="3937.6" y1="34.1" x2="963.4" y2="3008.3"/>
		
			<line style="clip-path:url(#SVGID_00000116930427028561871060000008998578148771751594_);fill:none;stroke:#373C54;stroke-width:3;stroke-miterlimit:10;" x1="3960.7" y1="57.2" x2="986.5" y2="3031.4"/>
		
			<line style="clip-path:url(#SVGID_00000116930427028561871060000008998578148771751594_);fill:none;stroke:#373C54;stroke-width:3;stroke-miterlimit:10;" x1="3983.8" y1="80.3" x2="1009.6" y2="3054.5"/>
		
			<line style="clip-path:url(#SVGID_00000116930427028561871060000008998578148771751594_);fill:none;stroke:#373C54;stroke-width:3;stroke-miterlimit:10;" x1="4006.9" y1="103.4" x2="1032.7" y2="3077.6"/>
		
			<line style="clip-path:url(#SVGID_00000116930427028561871060000008998578148771751594_);fill:none;stroke:#373C54;stroke-width:3;stroke-miterlimit:10;" x1="4030" y1="126.5" x2="1055.8" y2="3100.7"/>
		
			<line style="clip-path:url(#SVGID_00000116930427028561871060000008998578148771751594_);fill:none;stroke:#373C54;stroke-width:3;stroke-miterlimit:10;" x1="4053.1" y1="149.6" x2="1078.9" y2="3123.8"/>
		
			<line style="clip-path:url(#SVGID_00000116930427028561871060000008998578148771751594_);fill:none;stroke:#373C54;stroke-width:3;stroke-miterlimit:10;" x1="4076.2" y1="172.7" x2="1102" y2="3146.9"/>
		
			<line style="clip-path:url(#SVGID_00000116930427028561871060000008998578148771751594_);fill:none;stroke:#373C54;stroke-width:3;stroke-miterlimit:10;" x1="4099.3" y1="195.8" x2="1125.1" y2="3170"/>
		
			<line style="clip-path:url(#SVGID_00000116930427028561871060000008998578148771751594_);fill:none;stroke:#373C54;stroke-width:3;stroke-miterlimit:10;" x1="4122.4" y1="218.9" x2="1148.2" y2="3193.1"/>
		
			<line style="clip-path:url(#SVGID_00000116930427028561871060000008998578148771751594_);fill:none;stroke:#373C54;stroke-width:3;stroke-miterlimit:10;" x1="4145.5" y1="242" x2="1171.3" y2="3216.2"/>
		
			<line style="clip-path:url(#SVGID_00000116930427028561871060000008998578148771751594_);fill:none;stroke:#373C54;stroke-width:3;stroke-miterlimit:10;" x1="4168.6" y1="265.1" x2="1194.5" y2="3239.3"/>
		
			<line style="clip-path:url(#SVGID_00000116930427028561871060000008998578148771751594_);fill:none;stroke:#373C54;stroke-width:3;stroke-miterlimit:10;" x1="4191.7" y1="288.3" x2="1217.6" y2="3262.4"/>
		
			<line style="clip-path:url(#SVGID_00000116930427028561871060000008998578148771751594_);fill:none;stroke:#373C54;stroke-width:3;stroke-miterlimit:10;" x1="4214.8" y1="311.4" x2="1240.7" y2="3285.5"/>
		
			<line style="clip-path:url(#SVGID_00000116930427028561871060000008998578148771751594_);fill:none;stroke:#373C54;stroke-width:3;stroke-miterlimit:10;" x1="4237.9" y1="334.5" x2="1263.8" y2="3308.6"/>
		
			<line style="clip-path:url(#SVGID_00000116930427028561871060000008998578148771751594_);fill:none;stroke:#373C54;stroke-width:3;stroke-miterlimit:10;" x1="4261.1" y1="357.6" x2="1286.9" y2="3331.7"/>
		
			<line style="clip-path:url(#SVGID_00000116930427028561871060000008998578148771751594_);fill:none;stroke:#373C54;stroke-width:3;stroke-miterlimit:10;" x1="4284.2" y1="380.7" x2="1310" y2="3354.9"/>
		
			<line style="clip-path:url(#SVGID_00000116930427028561871060000008998578148771751594_);fill:none;stroke:#373C54;stroke-width:3;stroke-miterlimit:10;" x1="4307.3" y1="403.8" x2="1333.1" y2="3378"/>
		
			<line style="clip-path:url(#SVGID_00000116930427028561871060000008998578148771751594_);fill:none;stroke:#373C54;stroke-width:3;stroke-miterlimit:10;" x1="4330.4" y1="426.9" x2="1356.2" y2="3401.1"/>
		
			<line style="clip-path:url(#SVGID_00000116930427028561871060000008998578148771751594_);fill:none;stroke:#373C54;stroke-width:3;stroke-miterlimit:10;" x1="4353.5" y1="450" x2="1379.3" y2="3424.2"/>
		
			<line style="clip-path:url(#SVGID_00000116930427028561871060000008998578148771751594_);fill:none;stroke:#373C54;stroke-width:3;stroke-miterlimit:10;" x1="4376.6" y1="473.1" x2="1402.4" y2="3447.3"/>
		
			<line style="clip-path:url(#SVGID_00000116930427028561871060000008998578148771751594_);fill:none;stroke:#373C54;stroke-width:3;stroke-miterlimit:10;" x1="4399.7" y1="496.2" x2="1425.5" y2="3470.4"/>
		
			<line style="clip-path:url(#SVGID_00000116930427028561871060000008998578148771751594_);fill:none;stroke:#373C54;stroke-width:3;stroke-miterlimit:10;" x1="4422.8" y1="519.3" x2="1448.6" y2="3493.5"/>
		
			<line style="clip-path:url(#SVGID_00000116930427028561871060000008998578148771751594_);fill:none;stroke:#373C54;stroke-width:3;stroke-miterlimit:10;" x1="4445.9" y1="542.4" x2="1471.7" y2="3516.6"/>
		
			<line style="clip-path:url(#SVGID_00000116930427028561871060000008998578148771751594_);fill:none;stroke:#373C54;stroke-width:3;stroke-miterlimit:10;" x1="4469" y1="565.5" x2="1494.8" y2="3539.7"/>
		
			<line style="clip-path:url(#SVGID_00000116930427028561871060000008998578148771751594_);fill:none;stroke:#373C54;stroke-width:3;stroke-miterlimit:10;" x1="4492.1" y1="588.6" x2="1517.9" y2="3562.8"/>
		
			<line style="clip-path:url(#SVGID_00000116930427028561871060000008998578148771751594_);fill:none;stroke:#373C54;stroke-width:3;stroke-miterlimit:10;" x1="4515.2" y1="611.7" x2="1541" y2="3585.9"/>
		
			<line style="clip-path:url(#SVGID_00000116930427028561871060000008998578148771751594_);fill:none;stroke:#373C54;stroke-width:3;stroke-miterlimit:10;" x1="4538.3" y1="634.8" x2="1564.1" y2="3609"/>
		
			<line style="clip-path:url(#SVGID_00000116930427028561871060000008998578148771751594_);fill:none;stroke:#373C54;stroke-width:3;stroke-miterlimit:10;" x1="4561.4" y1="657.9" x2="1587.2" y2="3632.1"/>
		
			<line style="clip-path:url(#SVGID_00000116930427028561871060000008998578148771751594_);fill:none;stroke:#373C54;stroke-width:3;stroke-miterlimit:10;" x1="4574.3" y1="691" x2="1600.1" y2="3665.2"/>
		
			<line style="clip-path:url(#SVGID_00000116930427028561871060000008998578148771751594_);fill:none;stroke:#373C54;stroke-width:3;stroke-miterlimit:10;" x1="4587.3" y1="724.2" x2="1613.1" y2="3698.4"/>
		
			<line style="clip-path:url(#SVGID_00000116930427028561871060000008998578148771751594_);fill:none;stroke:#373C54;stroke-width:3;stroke-miterlimit:10;" x1="4600.2" y1="757.3" x2="1626" y2="3731.5"/>
		
			<line style="clip-path:url(#SVGID_00000116930427028561871060000008998578148771751594_);fill:none;stroke:#373C54;stroke-width:3;stroke-miterlimit:10;" x1="4613.1" y1="790.4" x2="1639" y2="3764.6"/>
		
			<line style="clip-path:url(#SVGID_00000116930427028561871060000008998578148771751594_);fill:none;stroke:#373C54;stroke-width:3;stroke-miterlimit:10;" x1="4626.1" y1="823.6" x2="1651.9" y2="3797.8"/>
	</g>
	<path class="st1" d="M2615.9,593.3c-71.6,0-140.8,9.9-206.5,28.4c-168.8-217.3-432.6-357.2-729.1-357.2
		c-439.8,0-807.6,307.7-900.1,719.5c-12.1-2.5-24.6-3.9-37.5-3.9c-100.4,0-181.7,81.4-181.7,181.7c0,12.5,1.3,24.6,3.7,36.4
		C387.9,1243.7,252,1391,223.1,1573.9c-3.8,23.7-5.7,48.1-5.7,72.9c0,86.7,23.8,167.9,65.3,237.3h2872.9
		c84.7-85.9,149.1-191.9,185.4-310.1c21.5-70.3,33.1-145,33.1-222.4C3374.1,932.8,3034.6,593.3,2615.9,593.3z"/>
	<path class="st2" d="M1938.2,1298.3c26.8,8.7,47.6,23.2,57,30.5c0.2-0.8,0.4-1.6,0.6-2.4c5.6-20.5,12.5-43.6,20.8-68.2
		c-10.8-2.4-36.3-9.2-61.1-25c-32.6-20.8-51.6-49.3-51.6-49.3s33.9,5.2,66.5,26.1c24,15.3,40.6,34.8,47.7,44c7-20.4,15-41.9,24.1-64
		c-10.1-5.2-32.6-18.3-52.3-39.6c-26.2-28.5-37.3-60.9-37.3-60.9s31.4,13.7,57.6,42.2c18.3,19.9,29.2,41.7,34.2,53
		c9.2-22,19.6-44.6,31.1-67.3c-9.1-6.6-29.5-23-45.7-47.2c-21.6-32.1-27.6-65.9-27.6-65.9s28.9,18.4,50.5,50.5
		c14.9,22.1,22.3,45,25.6,57.1c7.9-15.2,16.3-30.5,25.3-45.7c-6-9.7-18.5-32.4-24.4-60.8c-7.8-37.9-0.7-71.4-0.7-71.4
		s19.8,27.9,27.7,65.8c4.8,23,4,44.4,2.6,57.7c6.5-10.6,13.2-21,20.2-31.4c3.6-12.8,10.8-33,23.8-52.7
		c21.3-32.3,50.1-50.9,50.1-50.9s-5.7,33.8-27,66.1c-12.8,19.5-28.4,33.9-38.7,42.4c-7.3,10.7-14.2,21.6-20.9,32.5
		c11.7-4.5,34.6-11.8,61.1-12.7c38.7-1.4,70.5,11.3,70.5,11.3s-30.9,14.9-69.5,16.2c-29.4,1-54.8-6-65.3-9.5
		c-9.1,15.2-17.6,30.5-25.6,45.8c11.6-1,37.2-2,64.8,5.3c37.4,9.9,64.2,31.2,64.2,31.2s-33.8,5.3-71.3-4.5
		c-28.4-7.5-50.7-21.6-59.8-28c-11.9,23.3-22.6,46.4-32.1,69c11.6-2,36.8-5.2,64.6-0.4c38.1,6.5,66.7,25.4,66.7,25.4
		s-33.2,8.3-71.4,1.8c-28.7-4.9-52-16.8-61.8-22.4c-9.2,22.3-17.3,44-24.4,64.6c11.7-2.5,36.5-6.4,64.2-2.7
		c38.3,5.1,67.6,23,67.6,23s-32.9,9.5-71.3,4.3c-28.5-3.8-52-14.7-62.2-20c-8.2,24.3-15,47-20.5,67.3c-0.3,1-0.5,2-0.8,3
		c7.7-0.9,37.2-3.7,69.3,4.8c37.4,9.9,64.2,31.2,64.2,31.2s-33.8,5.3-71.3-4.5c-32.1-8.5-56.4-25.4-62.6-30
		c-22.3,83.2-28.7,142.8-28.7,143.4l-9.4-1c0.1-0.6,6.3-59.5,28.2-142c-11.7,0.3-37.2-0.2-64.2-9c-36.8-12-62.3-34.8-62.3-34.8
		S1901.5,1286.3,1938.2,1298.3z"/>
	<g>
		<path class="st2" d="M1841.9,1501.9c-50.5,0-93.2,33.9-106.4,80.2h212.7C1935,1535.8,1892.4,1501.9,1841.9,1501.9z"/>
		<path class="st2" d="M2360.3,1464c-74.4,0-137.2,49.9-156.7,118.1H2517C2497.6,1513.9,2434.8,1464,2360.3,1464z"/>
		<path class="st2" d="M1874.1,1582.1c24-83.1,119.2-145.2,233-145.2c113.8,0,209,62.1,233,145.2H1874.1z"/>
	</g>
	<path class="st3" d="M2638.1,1684.4H961.9c-31,0-56.1-25.1-56.1-56.1v0c0-31,25.1-56.1,56.1-56.1h1676.2c31,0,56.1,25.1,56.1,56.1
		v0C2694.2,1659.3,2669.1,1684.4,2638.1,1684.4z"/>
	<g>
		<path class="st3" d="M1284.7,516.5c64.2,0,118.3,43.1,135.1,101.9h-270.3C1166.3,559.5,1220.5,516.5,1284.7,516.5z"/>
		<path class="st3" d="M626,468.3c94.6,0,174.3,63.4,199.1,150.1H427C451.7,531.7,531.5,468.3,626,468.3z"/>
		<path class="st3" d="M1243.8,618.4c-30.5-105.6-151.5-184.5-296.1-184.5s-265.5,78.9-296.1,184.5H1243.8z"/>
	</g>
	<g>
		<path class="st4" d="M681.7,771.4c15.8,0,29.2,10.6,33.3,25.1h-66.7C652.5,782,665.9,771.4,681.7,771.4z"/>
		<path class="st4" d="M519.3,759.5c23.3,0,43,15.6,49.1,37h-98.2C476.3,775.1,495.9,759.5,519.3,759.5z"/>
		<path class="st4" d="M671.7,796.5c-7.5-26.1-37.4-45.5-73-45.5c-35.7,0-65.5,19.5-73,45.5H671.7z"/>
	</g>
	<g>
		<path class="st5" d="M1890.7,398.5c12.5,0,23,8.4,26.3,19.8h-52.5C1867.7,406.9,1878.3,398.5,1890.7,398.5z"/>
		<path class="st5" d="M1762.7,389.2c18.4,0,33.9,12.3,38.7,29.2H1724C1728.8,401.5,1744.3,389.2,1762.7,389.2z"/>
		<path class="st5" d="M1882.8,418.3c-5.9-20.5-29.4-35.9-57.6-35.9s-51.6,15.3-57.6,35.9H1882.8z"/>
	</g>
	<g>
		<path class="st6" d="M2840,795.2c28.7,0,52.9,19.2,60.4,45.5h-120.7C2787.1,814.4,2811.3,795.2,2840,795.2z"/>
		<path class="st6" d="M2545.7,773.6c42.2,0,77.9,28.3,88.9,67h-177.8C2467.9,802,2503.5,773.6,2545.7,773.6z"/>
		<path class="st6" d="M2821.7,840.7c-13.6-47.2-67.7-82.4-132.3-82.4c-64.6,0-118.6,35.2-132.3,82.4H2821.7z"/>
	</g>
	<g>
		<path class="st7" d="M1079.3,607.1c23.6,0,43.5,15.8,49.6,37.4h-99.2C1035.9,622.9,1055.7,607.1,1079.3,607.1z"/>
		<path class="st7" d="M837.5,589.4c34.7,0,64,23.3,73.1,55.1H764.4C773.5,612.7,802.8,589.4,837.5,589.4z"/>
		<path class="st7" d="M1064.3,644.5c-11.2-38.8-55.6-67.7-108.7-67.7c-53.1,0-97.5,29-108.7,67.7H1064.3z"/>
	</g>
	<g>
		<path class="st8" d="M2973.7,841.6c17,0,31.2,11.4,35.7,26.9H2938C2942.4,853,2956.7,841.6,2973.7,841.6z"/>
		<path class="st8" d="M2799.7,828.9c25,0,46,16.7,52.6,39.6h-105.1C2753.7,845.6,2774.8,828.9,2799.7,828.9z"/>
		<path class="st8" d="M2962.9,868.5c-8.1-27.9-40-48.7-78.2-48.7s-70.1,20.8-78.2,48.7H2962.9z"/>
	</g>
	<g>
		<path class="st6" d="M2773.1,1536.3c38.4,0,70.8,25.8,80.9,61h-161.7C2702.3,1562,2734.7,1536.3,2773.1,1536.3z"/>
		<path class="st6" d="M2867.7,1555.1c26.5,0,48.9,17.8,55.8,42.1h-111.6C2818.8,1572.9,2841.2,1555.1,2867.7,1555.1z"/>
		<path class="st6" d="M2747.4,1597.2c-10.9-37.6-53.9-65.6-105.3-65.6c-51.4,0-94.5,28.1-105.3,65.6H2747.4z"/>
	</g>
	<g>
		<polygon class="st9" points="1874.3,690.3 1875.9,693.5 1879.5,694 1876.9,696.5 1877.5,700.1 1874.3,698.4 1871.2,700.1 
			1871.8,696.5 1869.2,694 1872.8,693.5 		"/>
		<polygon class="st9" points="1912.1,557.4 1913.7,560.6 1917.3,561.1 1914.7,563.6 1915.3,567.1 1912.1,565.5 1908.9,567.1 
			1909.6,563.6 1907,561.1 1910.5,560.6 		"/>
		<polygon class="st9" points="1899.4,753.3 1900.9,756.5 1904.5,757.1 1901.9,759.6 1902.5,763.1 1899.4,761.4 1896.2,763.1 
			1896.8,759.6 1894.2,757.1 1897.8,756.5 		"/>
		<polygon class="st9" points="1736.3,649.6 1737.9,652.8 1741.4,653.3 1738.9,655.9 1739.5,659.4 1736.3,657.7 1733.1,659.4 
			1733.7,655.9 1731.1,653.3 1734.7,652.8 		"/>
		<polygon class="st9" points="2105.1,826.2 2108.9,833.9 2117.3,835.1 2111.2,841.1 2112.6,849.5 2105.1,845.6 2097.5,849.5 
			2098.9,841.1 2092.8,835.1 2101.3,833.9 		"/>
		<polygon class="st9" points="1584.5,851.3 1586.4,855.1 1590.7,855.7 1587.6,858.7 1588.3,862.9 1584.5,861 1580.7,862.9 
			1581.5,858.7 1578.4,855.7 1582.6,855.1 		"/>
		<polygon class="st9" points="1954.9,1142.1 1956.8,1145.9 1961.1,1146.5 1958,1149.5 1958.7,1153.7 1954.9,1151.7 1951.1,1153.7 
			1951.9,1149.5 1948.8,1146.5 1953,1145.9 		"/>
		<polygon class="st9" points="1532.2,616.2 1533.6,618.9 1536.7,619.4 1534.5,621.5 1535,624.6 1532.2,623.2 1529.5,624.6 
			1530,621.5 1527.8,619.4 1530.9,618.9 		"/>
		<polygon class="st9" points="1491,969.1 1494.8,976.8 1503.3,978.1 1497.2,984 1498.6,992.5 1491,988.5 1483.5,992.5 1484.9,984 
			1478.8,978.1 1487.2,976.8 		"/>
		<polygon class="st9" points="1907,715.7 1907.6,716.9 1908.9,717.1 1907.9,718 1908.2,719.3 1907,718.7 1905.9,719.3 1906.1,718 
			1905.1,717.1 1906.4,716.9 		"/>
		<polygon class="st9" points="1989.4,921.3 1990,922.5 1991.3,922.7 1990.4,923.6 1990.6,924.9 1989.4,924.2 1988.3,924.9 
			1988.5,923.6 1987.6,922.7 1988.9,922.5 		"/>
		<polygon class="st9" points="2074.1,794.8 2074.6,795.9 2075.9,796.1 2075,797 2075.2,798.3 2074.1,797.7 2072.9,798.3 
			2073.1,797 2072.2,796.1 2073.5,795.9 		"/>
		<polygon class="st9" points="1560.3,866.8 1560.8,868 1562.1,868.2 1561.2,869.1 1561.4,870.3 1560.3,869.7 1559.1,870.3 
			1559.3,869.1 1558.4,868.2 1559.7,868 		"/>
		<polygon class="st9" points="1717,749.8 1717.6,750.9 1718.8,751.1 1717.9,752 1718.1,753.3 1717,752.7 1715.8,753.3 1716.1,752 
			1715.1,751.1 1716.4,750.9 		"/>
		<polygon class="st9" points="1879.5,623.8 1880.1,625 1881.4,625.2 1880.4,626.1 1880.6,627.3 1879.5,626.7 1878.3,627.3 
			1878.6,626.1 1877.6,625.2 1878.9,625 		"/>
		<polygon class="st9" points="1624.4,664.7 1624.9,665.9 1626.2,666.1 1625.3,667 1625.5,668.3 1624.4,667.7 1623.2,668.3 
			1623.4,667 1622.5,666.1 1623.8,665.9 		"/>
		<polygon class="st9" points="1781.8,579.5 1782.4,580.7 1783.7,580.8 1782.8,581.8 1783,583 1781.8,582.4 1780.7,583 
			1780.9,581.8 1780,580.8 1781.3,580.7 		"/>
		<polygon class="st9" points="1434.7,760.7 1435.3,761.9 1436.6,762.1 1435.6,763 1435.9,764.3 1434.7,763.7 1433.6,764.3 
			1433.8,763 1432.9,762.1 1434.1,761.9 		"/>
		<polygon class="st9" points="1744.3,528 1744.9,529.1 1746.2,529.3 1745.3,530.2 1745.5,531.5 1744.3,530.9 1743.2,531.5 
			1743.4,530.2 1742.5,529.3 1743.8,529.1 		"/>
		<polygon class="st9" points="1464.3,903.6 1464.9,904.8 1466.2,904.9 1465.2,905.9 1465.5,907.1 1464.3,906.5 1463.2,907.1 
			1463.4,905.9 1462.4,904.9 1463.7,904.8 		"/>
		<polygon class="st9" points="1633.9,581.3 1634.5,582.4 1635.8,582.6 1634.8,583.5 1635,584.8 1633.9,584.2 1632.7,584.8 
			1633,583.5 1632,582.6 1633.3,582.4 		"/>
		<polygon class="st9" points="1424.5,1095.6 1425.1,1096.8 1426.4,1097 1425.4,1097.9 1425.6,1099.2 1424.5,1098.5 1423.3,1099.2 
			1423.6,1097.9 1422.6,1097 1423.9,1096.8 		"/>
		<polygon class="st9" points="1715.1,688.5 1715.7,689.7 1717,689.9 1716.1,690.8 1716.3,692.1 1715.1,691.5 1714,692.1 
			1714.2,690.8 1713.3,689.9 1714.5,689.7 		"/>
		<polygon class="st9" points="1976.6,740.5 1977.2,741.7 1978.4,741.9 1977.5,742.8 1977.7,744.1 1976.6,743.5 1975.4,744.1 
			1975.7,742.8 1974.7,741.9 1976,741.7 		"/>
		<polygon class="st9" points="1703.9,999.5 1704.5,1000.7 1705.8,1000.9 1704.9,1001.8 1705.1,1003.1 1703.9,1002.5 1702.8,1003.1 
			1703,1001.8 1702.1,1000.9 1703.4,1000.7 		"/>
		<polygon class="st9" points="1972.6,989.2 1973.2,990.4 1974.4,990.5 1973.5,991.5 1973.7,992.7 1972.6,992.1 1971.4,992.7 
			1971.6,991.5 1970.7,990.5 1972,990.4 		"/>
		<polygon class="st9" points="2015.4,731.2 2016.4,733.2 2018.7,733.6 2017,735.2 2017.4,737.4 2015.4,736.3 2013.4,737.4 
			2013.8,735.2 2012.1,733.6 2014.4,733.2 		"/>
		<polygon class="st9" points="1975.8,1126.5 1976.9,1128.6 1979.1,1128.9 1977.5,1130.5 1977.9,1132.7 1975.8,1131.7 
			1973.8,1132.7 1974.2,1130.5 1972.6,1128.9 1974.8,1128.6 		"/>
		<polygon class="st9" points="1908.9,734.3 1909.9,736.3 1912.1,736.7 1910.5,738.3 1910.9,740.5 1908.9,739.5 1906.8,740.5 
			1907.2,738.3 1905.6,736.7 1907.9,736.3 		"/>
		<polygon class="st9" points="1765,1071.7 1766,1073.8 1768.3,1074.1 1766.7,1075.7 1767,1078 1765,1076.9 1763,1078 
			1763.4,1075.7 1761.8,1074.1 1764,1073.8 		"/>
		<polygon class="st9" points="1730.3,807.2 1731.4,809.2 1733.6,809.5 1732,811.1 1732.4,813.4 1730.3,812.3 1728.3,813.4 
			1728.7,811.1 1727.1,809.5 1729.3,809.2 		"/>
		<polygon class="st9" points="2079.2,1016.1 2080.2,1018.1 2082.5,1018.5 2080.8,1020 2081.2,1022.3 2079.2,1021.2 2077.2,1022.3 
			2077.6,1020 2075.9,1018.5 2078.2,1018.1 		"/>
		<polygon class="st9" points="1678.5,1100.3 1679.1,1101.6 1680.5,1101.8 1679.5,1102.7 1679.8,1104.1 1678.5,1103.5 
			1677.3,1104.1 1677.5,1102.7 1676.6,1101.8 1677.9,1101.6 		"/>
		<polygon class="st9" points="1521.7,999.4 1522.3,1000.6 1523.6,1000.8 1522.6,1001.8 1522.9,1003.2 1521.7,1002.5 1520.4,1003.2 
			1520.7,1001.8 1519.7,1000.8 1521,1000.6 		"/>
		<polygon class="st9" points="1724.1,978.9 1724.7,980.2 1726,980.4 1725.1,981.3 1725.3,982.7 1724.1,982.1 1722.8,982.7 
			1723.1,981.3 1722.1,980.4 1723.4,980.2 		"/>
		<polygon class="st9" points="1880.7,859.6 1881.3,860.8 1882.7,861 1881.7,862 1881.9,863.3 1880.7,862.7 1879.5,863.3 
			1879.7,862 1878.7,861 1880.1,860.8 		"/>
		<polygon class="st9" points="1771.6,1089.4 1772.6,1091.4 1774.8,1091.8 1773.2,1093.4 1773.6,1095.6 1771.6,1094.5 
			1769.5,1095.6 1769.9,1093.4 1768.3,1091.8 1770.6,1091.4 		"/>
		<polygon class="st9" points="1715.1,964 1716.1,966 1718.4,966.4 1716.8,968 1717.1,970.2 1715.1,969.1 1713.1,970.2 1713.5,968 
			1711.9,966.4 1714.1,966 		"/>
		<polygon class="st9" points="1334.7,853.2 1336.3,856.4 1339.8,856.9 1337.2,859.4 1337.8,862.9 1334.7,861.3 1331.5,862.9 
			1332.1,859.4 1329.5,856.9 1333.1,856.4 		"/>
		<polygon class="st9" points="1482.1,821.3 1483.5,824.1 1486.6,824.6 1484.3,826.7 1484.9,829.8 1482.1,828.3 1479.4,829.8 
			1479.9,826.7 1477.7,824.6 1480.8,824.1 		"/>
		<polygon class="st9" points="1513.5,771.2 1514.4,772.9 1516.2,773.1 1514.9,774.4 1515.2,776.3 1513.5,775.4 1511.9,776.3 
			1512.2,774.4 1510.9,773.1 1512.7,772.9 		"/>
		<polygon class="st9" points="1367.3,878.6 1367.9,879.8 1369.2,880 1368.3,880.9 1368.5,882.2 1367.3,881.5 1366.2,882.2 
			1366.4,880.9 1365.5,880 1366.7,879.8 		"/>
		<polygon class="st9" points="1418.5,1009.9 1419.5,1011.9 1421.8,1012.2 1420.1,1013.8 1420.5,1016.1 1418.5,1015 1416.5,1016.1 
			1416.9,1013.8 1415.2,1012.2 1417.5,1011.9 		"/>
		<g>
			<polygon class="st9" points="2048.8,517.3 2049.8,519.3 2052,519.6 2050.4,521.2 2050.8,523.5 2048.8,522.4 2046.7,523.5 
				2047.1,521.2 2045.5,519.6 2047.8,519.3 			"/>
			<polygon class="st9" points="2189.2,475.3 2190.2,477.3 2192.5,477.7 2190.8,479.3 2191.2,481.5 2189.2,480.4 2187.2,481.5 
				2187.6,479.3 2185.9,477.7 2188.2,477.3 			"/>
			<polygon class="st9" points="2149.5,544 2151.1,547.2 2154.7,547.7 2152.1,550.2 2152.7,553.8 2149.5,552.1 2146.4,553.8 
				2147,550.2 2144.4,547.7 2147.9,547.2 			"/>
			<polygon class="st9" points="2189.2,506.6 2190.8,509.9 2194.3,510.4 2191.8,512.9 2192.4,516.4 2189.2,514.8 2186,516.4 
				2186.6,512.9 2184.1,510.4 2187.6,509.9 			"/>
			<polygon class="st9" points="2182.2,569.4 2182.8,570.6 2184.1,570.8 2183.1,571.7 2183.3,573 2182.2,572.4 2181,573 
				2181.3,571.7 2180.3,570.8 2181.6,570.6 			"/>
			<polygon class="st9" points="2172,465.3 2172.5,466.4 2173.8,466.6 2172.9,467.5 2173.1,468.8 2172,468.2 2170.8,468.8 
				2171,467.5 2170.1,466.6 2171.4,466.4 			"/>
			<polygon class="st9" points="2124.5,553.4 2124.9,554.2 2125.9,554.4 2125.2,555.1 2125.4,556 2124.5,555.6 2123.6,556 
				2123.8,555.1 2123.1,554.4 2124.1,554.2 			"/>
			<polygon class="st9" points="2133.9,539.2 2134.3,540.1 2135.3,540.2 2134.6,540.9 2134.7,541.8 2133.9,541.4 2133,541.8 
				2133.2,540.9 2132.5,540.2 2133.4,540.1 			"/>
		</g>
		<g>
			<polygon class="st9" points="1651.5,422.1 1652.2,419.9 1650.7,418.1 1653,418.1 1654.2,416.1 1655,418.3 1657.2,418.8 
				1655.4,420.2 1655.6,422.5 1653.7,421.3 			"/>
			<polygon class="st9" points="1519.3,358.8 1520,356.6 1518.5,354.9 1520.8,354.8 1522,352.9 1522.8,355 1525,355.6 1523.2,357 
				1523.3,359.3 1521.5,358 			"/>
			<polygon class="st9" points="1594.8,334.6 1595.8,331.2 1593.5,328.4 1597.1,328.3 1599.1,325.2 1600.3,328.6 1603.8,329.5 
				1600.9,331.7 1601.2,335.3 1598.2,333.3 			"/>
			<polygon class="st9" points="1540.4,335.6 1541.4,332.1 1539.1,329.4 1542.7,329.2 1544.6,326.2 1545.9,329.6 1549.3,330.5 
				1546.5,332.7 1546.7,336.3 1543.7,334.3 			"/>
			<polygon class="st9" points="1587.8,293.8 1588.1,292.6 1587.3,291.6 1588.6,291.5 1589.3,290.4 1589.7,291.6 1591,292 
				1590,292.8 1590,294.1 1589,293.3 			"/>
			<polygon class="st9" points="1525.4,377.8 1525.7,376.6 1524.9,375.6 1526.2,375.5 1526.9,374.4 1527.3,375.6 1528.6,376 
				1527.6,376.8 1527.7,378.1 1526.6,377.3 			"/>
			<polygon class="st9" points="1619.7,344.5 1620,343.5 1619.4,342.8 1620.3,342.7 1620.9,341.9 1621.2,342.8 1622.1,343.1 
				1621.4,343.7 1621.4,344.6 1620.6,344.1 			"/>
			<polygon class="st9" points="1603.2,348.7 1603.5,347.7 1602.9,347 1603.9,347 1604.4,346.1 1604.7,347.1 1605.6,347.3 
				1604.9,347.9 1604.9,348.9 1604.1,348.3 			"/>
		</g>
		<g>
			<polygon class="st9" points="2374.7,1199.1 2375.3,1196.9 2373.9,1195.1 2376.2,1195.1 2377.4,1193.1 2378.2,1195.3 
				2380.4,1195.8 2378.6,1197.2 2378.7,1199.5 2376.8,1198.3 			"/>
			<polygon class="st9" points="2242.5,1135.8 2243.1,1133.6 2241.7,1131.9 2244,1131.8 2245.2,1129.9 2246,1132 2248.2,1132.6 
				2246.4,1134 2246.5,1136.3 2244.6,1135 			"/>
			<polygon class="st9" points="2318,1111.6 2319,1108.2 2316.7,1105.4 2320.3,1105.3 2322.2,1102.2 2323.5,1105.6 2327,1106.5 
				2324.1,1108.7 2324.3,1112.3 2321.4,1110.3 			"/>
			<polygon class="st9" points="2263.6,1112.6 2264.6,1109.1 2262.3,1106.4 2265.9,1106.2 2267.8,1103.2 2269,1106.6 2272.5,1107.5 
				2269.7,1109.7 2269.9,1113.3 2266.9,1111.3 			"/>
			<polygon class="st9" points="2310.9,1070.8 2311.3,1069.6 2310.5,1068.6 2311.8,1068.5 2312.5,1067.4 2312.9,1068.6 2314.2,1069 
				2313.1,1069.8 2313.2,1071.1 2312.1,1070.3 			"/>
			<polygon class="st9" points="2248.5,1154.8 2248.9,1153.6 2248.1,1152.6 2249.4,1152.5 2250.1,1151.4 2250.5,1152.6 2251.8,1153 
				2250.7,1153.8 2250.8,1155.1 2249.7,1154.3 			"/>
			<polygon class="st9" points="2342.9,1121.5 2343.2,1120.5 2342.5,1119.8 2343.5,1119.7 2344,1118.9 2344.4,1119.8 2345.3,1120.1 
				2344.5,1120.7 2344.6,1121.6 2343.8,1121.1 			"/>
			<polygon class="st9" points="2326.4,1125.7 2326.7,1124.7 2326.1,1124 2327,1124 2327.6,1123.1 2327.9,1124.1 2328.8,1124.3 
				2328.1,1124.9 2328.1,1125.9 2327.3,1125.3 			"/>
		</g>
		<g>
			<polygon class="st9" points="3065.2,1075.5 3065.8,1073.3 3064.3,1071.5 3066.6,1071.5 3067.8,1069.5 3068.6,1071.7 
				3070.8,1072.2 3069,1073.6 3069.2,1075.9 3067.3,1074.6 			"/>
			<polygon class="st9" points="2933,1012.2 2933.6,1010 2932.1,1008.3 2934.4,1008.2 2935.6,1006.3 2936.4,1008.4 2938.6,1009 
				2936.8,1010.4 2937,1012.7 2935.1,1011.4 			"/>
			<polygon class="st9" points="3008.5,988 3009.4,984.6 3007.2,981.8 3010.8,981.7 3012.7,978.6 3013.9,982 3017.4,982.9 
				3014.6,985.1 3014.8,988.7 3011.8,986.7 			"/>
			<polygon class="st9" points="2954,989 2955,985.5 2952.7,982.8 2956.3,982.6 2958.2,979.6 2959.5,983 2962.9,983.9 2960.1,986.1 
				2960.3,989.7 2957.4,987.7 			"/>
			<polygon class="st9" points="3001.4,947.2 3001.7,946 3000.9,945 3002.2,944.9 3002.9,943.8 3003.3,945 3004.6,945.4 
				3003.6,946.2 3003.7,947.5 3002.6,946.7 			"/>
			<polygon class="st9" points="2939,1031.2 2939.3,1030 2938.5,1029 2939.8,1028.9 2940.5,1027.8 2941,1029 2942.2,1029.4 
				2941.2,1030.2 2941.3,1031.5 2940.2,1030.7 			"/>
			<polygon class="st9" points="3033.3,997.9 3033.6,996.9 3033,996.2 3034,996.1 3034.5,995.3 3034.8,996.2 3035.7,996.5 
				3035,997.1 3035,998 3034.2,997.5 			"/>
			<polygon class="st9" points="3016.9,1002.1 3017.1,1001.1 3016.5,1000.4 3017.5,1000.4 3018,999.5 3018.3,1000.5 3019.3,1000.7 
				3018.5,1001.3 3018.6,1002.3 3017.8,1001.7 			"/>
		</g>
		<g>
			<polygon class="st9" points="2272.7,893.8 2274.1,895.7 2276.3,895.6 2275,897.5 2275.7,899.6 2273.6,898.9 2271.7,900.3 
				2271.8,898 2269.9,896.7 2272.1,896 			"/>
			<polygon class="st9" points="2404.8,830.1 2406.1,832 2408.4,832 2407,833.8 2407.7,835.9 2405.6,835.2 2403.8,836.6 
				2403.8,834.3 2401.9,833 2404.1,832.3 			"/>
			<polygon class="st9" points="2376.5,904.2 2378.6,907.1 2382.1,907.1 2380,910 2381.2,913.4 2377.8,912.2 2374.9,914.4 
				2374.9,910.8 2372,908.7 2375.4,907.6 			"/>
			<polygon class="st9" points="2409.7,861.1 2411.8,864 2415.4,864 2413.3,866.8 2414.4,870.2 2411,869.1 2408.1,871.3 
				2408.2,867.7 2405.2,865.6 2408.7,864.5 			"/>
			<polygon class="st9" points="2412.7,924.2 2413.5,925.2 2414.8,925.2 2414,926.3 2414.4,927.5 2413.2,927.1 2412.2,927.8 
				2412.2,926.5 2411.1,925.8 2412.4,925.4 			"/>
			<polygon class="st9" points="2386.2,823 2386.9,824 2388.2,824 2387.4,825 2387.9,826.3 2386.6,825.9 2385.6,826.6 2385.6,825.3 
				2384.5,824.6 2385.8,824.2 			"/>
			<polygon class="st9" points="2353.2,917.5 2353.8,918.3 2354.8,918.2 2354.2,919 2354.5,919.9 2353.6,919.6 2352.8,920.2 
				2352.8,919.2 2352,918.7 2353,918.4 			"/>
			<polygon class="st9" points="2360.2,902 2360.8,902.8 2361.8,902.7 2361.2,903.5 2361.5,904.4 2360.6,904.1 2359.8,904.7 
				2359.8,903.7 2359,903.2 2360,902.9 			"/>
		</g>
		<g>
			<polygon class="st9" points="766.4,1115.8 767.8,1117.6 770,1117.6 768.7,1119.4 769.4,1121.6 767.2,1120.9 765.4,1122.2 
				765.4,1120 763.6,1118.6 765.8,1118 			"/>
			<polygon class="st9" points="898.4,1052.1 899.8,1054 902,1053.9 900.7,1055.8 901.4,1057.9 899.3,1057.2 897.4,1058.6 
				897.5,1056.3 895.6,1055 897.8,1054.3 			"/>
			<polygon class="st9" points="870.2,1126.2 872.2,1129.1 875.8,1129.1 873.7,1131.9 874.8,1135.3 871.4,1134.2 868.6,1136.4 
				868.6,1132.8 865.7,1130.7 869.1,1129.6 			"/>
			<polygon class="st9" points="903.4,1083.1 905.5,1086 909.1,1085.9 906.9,1088.8 908.1,1092.2 904.7,1091.1 901.8,1093.2 
				901.9,1089.6 898.9,1087.6 902.4,1086.5 			"/>
			<polygon class="st9" points="906.4,1146.1 907.2,1147.2 908.5,1147.2 907.7,1148.2 908.1,1149.5 906.9,1149 905.9,1149.8 
				905.9,1148.5 904.8,1147.8 906,1147.4 			"/>
			<polygon class="st9" points="879.9,1044.9 880.6,1046 881.9,1046 881.1,1047 881.5,1048.3 880.3,1047.8 879.3,1048.6 
				879.3,1047.3 878.2,1046.6 879.5,1046.2 			"/>
			<polygon class="st9" points="846.9,1139.4 847.5,1140.2 848.5,1140.2 847.9,1141 848.2,1141.9 847.3,1141.6 846.5,1142.2 
				846.5,1141.2 845.7,1140.7 846.6,1140.4 			"/>
			<polygon class="st9" points="853.9,1123.9 854.5,1124.7 855.5,1124.7 854.9,1125.5 855.2,1126.4 854.3,1126.1 853.5,1126.7 
				853.5,1125.7 852.7,1125.2 853.6,1124.9 			"/>
		</g>
		<g>
			<polygon class="st9" points="2286.5,703.7 2287.2,701.5 2285.7,699.8 2288,699.7 2289.2,697.8 2290,699.9 2292.2,700.5 
				2290.4,701.9 2290.5,704.2 2288.7,702.9 			"/>
			<polygon class="st9" points="2154.3,640.5 2155,638.3 2153.5,636.5 2155.8,636.4 2157,634.5 2157.8,636.6 2160,637.2 
				2158.2,638.6 2158.3,640.9 2156.4,639.6 			"/>
			<polygon class="st9" points="2229.8,616.3 2230.8,612.8 2228.5,610 2232.1,609.9 2234.1,606.9 2235.3,610.2 2238.8,611.1 
				2235.9,613.4 2236.2,616.9 2233.2,614.9 			"/>
			<polygon class="st9" points="2175.4,617.2 2176.4,613.8 2174.1,611 2177.7,610.9 2179.6,607.9 2180.8,611.2 2184.3,612.1 
				2181.5,614.3 2181.7,617.9 2178.7,615.9 			"/>
			<polygon class="st9" points="2222.7,575.5 2223.1,574.2 2222.3,573.2 2223.6,573.2 2224.3,572.1 2224.7,573.3 2226,573.6 
				2225,574.4 2225,575.7 2224,575 			"/>
			<polygon class="st9" points="2160.4,659.5 2160.7,658.2 2159.9,657.2 2161.2,657.2 2161.9,656.1 2162.3,657.3 2163.6,657.6 
				2162.6,658.4 2162.6,659.7 2161.6,659 			"/>
			<polygon class="st9" points="2254.7,626.1 2255,625.2 2254.4,624.4 2255.3,624.4 2255.8,623.6 2256.2,624.5 2257.1,624.7 
				2256.4,625.3 2256.4,626.3 2255.6,625.7 			"/>
			<polygon class="st9" points="2238.2,630.3 2238.5,629.4 2237.9,628.6 2238.8,628.6 2239.4,627.8 2239.7,628.7 2240.6,628.9 
				2239.9,629.5 2239.9,630.5 2239.1,630 			"/>
		</g>
		<g>
			<polygon class="st9" points="1281.1,1148.7 1281.7,1146.5 1280.3,1144.7 1282.6,1144.6 1283.8,1142.7 1284.6,1144.9 
				1286.8,1145.4 1285,1146.8 1285.1,1149.1 1283.2,1147.8 			"/>
			<polygon class="st9" points="1148.9,1085.4 1149.5,1083.2 1148.1,1081.5 1150.4,1081.4 1151.6,1079.4 1152.4,1081.6 
				1154.6,1082.2 1152.8,1083.6 1152.9,1085.8 1151,1084.6 			"/>
			<polygon class="st9" points="1224.4,1061.2 1225.4,1057.7 1223.1,1055 1226.7,1054.8 1228.6,1051.8 1229.9,1055.2 1233.4,1056.1 
				1230.5,1058.3 1230.7,1061.9 1227.8,1059.9 			"/>
			<polygon class="st9" points="1170,1062.2 1171,1058.7 1168.7,1056 1172.3,1055.8 1174.2,1052.8 1175.4,1056.2 1178.9,1057.1 
				1176.1,1059.3 1176.3,1062.9 1173.3,1060.9 			"/>
			<polygon class="st9" points="1217.3,1020.4 1217.7,1019.2 1216.9,1018.1 1218.2,1018.1 1218.9,1017 1219.3,1018.2 1220.6,1018.6 
				1219.5,1019.4 1219.6,1020.7 1218.5,1019.9 			"/>
			<polygon class="st9" points="1154.9,1104.4 1155.3,1103.1 1154.5,1102.1 1155.8,1102.1 1156.5,1101 1156.9,1102.2 1158.2,1102.5 
				1157.1,1103.3 1157.2,1104.6 1156.1,1103.9 			"/>
			<polygon class="st9" points="1249.3,1071 1249.6,1070.1 1248.9,1069.4 1249.9,1069.3 1250.4,1068.5 1250.8,1069.4 1251.7,1069.7 
				1250.9,1070.3 1251,1071.2 1250.2,1070.7 			"/>
			<polygon class="st9" points="1232.8,1075.3 1233.1,1074.3 1232.5,1073.6 1233.4,1073.5 1234,1072.7 1234.3,1073.6 1235.2,1073.9 
				1234.5,1074.5 1234.5,1075.4 1233.7,1074.9 			"/>
		</g>
		<g>
			<polygon class="st9" points="1056.4,999.2 1057.1,997 1055.6,995.2 1057.9,995.1 1059.1,993.2 1059.9,995.4 1062.1,995.9 
				1060.3,997.3 1060.5,999.6 1058.6,998.3 			"/>
			<polygon class="st9" points="924.2,935.9 924.9,933.7 923.4,932 925.7,931.9 926.9,930 927.7,932.1 929.9,932.7 928.1,934.1 
				928.2,936.3 926.4,935.1 			"/>
			<polygon class="st9" points="999.7,911.7 1000.7,908.2 998.4,905.5 1002,905.3 1004,902.3 1005.2,905.7 1008.7,906.6 
				1005.8,908.8 1006.1,912.4 1003.1,910.4 			"/>
			<polygon class="st9" points="945.3,912.7 946.3,909.2 944,906.5 947.6,906.3 949.5,903.3 950.7,906.7 954.2,907.6 951.4,909.8 
				951.6,913.4 948.6,911.4 			"/>
			<polygon class="st9" points="992.7,870.9 993,869.7 992.2,868.7 993.5,868.6 994.2,867.5 994.6,868.7 995.9,869.1 994.9,869.9 
				994.9,871.2 993.9,870.4 			"/>
			<polygon class="st9" points="930.3,954.9 930.6,953.7 929.8,952.7 931.1,952.6 931.8,951.5 932.2,952.7 933.5,953.1 932.5,953.9 
				932.5,955.2 931.5,954.4 			"/>
			<polygon class="st9" points="1024.6,921.6 1024.9,920.6 1024.3,919.9 1025.2,919.8 1025.8,919 1026.1,919.9 1027,920.2 
				1026.3,920.8 1026.3,921.7 1025.5,921.2 			"/>
			<polygon class="st9" points="1008.1,925.8 1008.4,924.8 1007.8,924.1 1008.8,924.1 1009.3,923.2 1009.6,924.1 1010.5,924.4 
				1009.8,925 1009.8,926 1009,925.4 			"/>
		</g>
		<g>
			<polygon class="st9" points="850.9,1288.3 852.9,1292.4 857.4,1293.1 854.1,1296.2 854.9,1300.7 850.9,1298.6 846.8,1300.7 
				847.6,1296.2 844.3,1293.1 848.8,1292.4 			"/>
			<polygon class="st9" points="544.4,1573.4 546.4,1577.5 550.9,1578.2 547.6,1581.3 548.4,1585.8 544.4,1583.7 540.3,1585.8 
				541.1,1581.3 537.8,1578.2 542.4,1577.5 			"/>
			<polygon class="st9" points="2168.2,877.7 2169.8,881 2173.4,881.5 2170.8,884 2171.4,887.5 2168.2,885.9 2165,887.5 2165.6,884 
				2163.1,881.5 2166.6,881 			"/>
			<polygon class="st9" points="2184.8,782.6 2186,785 2188.7,785.4 2186.8,787.3 2187.2,789.9 2184.8,788.7 2182.5,789.9 
				2182.9,787.3 2181,785.4 2183.7,785 			"/>
			<polygon class="st9" points="1073.2,1339.8 1075.4,1344.1 1080.2,1344.8 1076.7,1348.2 1077.5,1353 1073.2,1350.8 1068.9,1353 
				1069.7,1348.2 1066.2,1344.8 1071,1344.1 			"/>
			<polygon class="st9" points="661.8,1164 663.9,1168.4 668.8,1169.1 665.3,1172.5 666.1,1177.3 661.8,1175 657.5,1177.3 
				658.3,1172.5 654.8,1169.1 659.6,1168.4 			"/>
			<polygon class="st9" points="498.2,1415.1 500.3,1419.5 505.1,1420.2 501.6,1423.6 502.5,1428.4 498.2,1426.1 493.9,1428.4 
				494.7,1423.6 491.2,1420.2 496,1419.5 			"/>
			<polygon class="st9" points="756,1684.4 758.2,1688.8 763,1689.5 759.5,1692.9 760.3,1697.7 756,1695.4 751.7,1697.7 
				752.5,1692.9 749,1689.5 753.8,1688.8 			"/>
			<polygon class="st9" points="2936.6,1326.3 2939.4,1331.9 2945.6,1332.8 2941.1,1337.2 2942.2,1343.4 2936.6,1340.5 2931,1343.4 
				2932.1,1337.2 2927.6,1332.8 2933.8,1331.9 			"/>
			<polygon class="st9" points="1485.8,425.7 1487.8,429.9 1492.4,430.5 1489.1,433.8 1489.9,438.4 1485.8,436.2 1481.6,438.4 
				1482.4,433.8 1479.1,430.5 1483.7,429.9 			"/>
			<polygon class="st9" points="2825.9,1020.7 2827.5,1023.9 2831,1024.4 2828.5,1026.9 2829.1,1030.5 2825.9,1028.8 2822.7,1030.5 
				2823.3,1026.9 2820.7,1024.4 2824.3,1023.9 			"/>
			<polygon class="st9" points="1307,1268.9 1309.8,1274.5 1316,1275.4 1311.5,1279.8 1312.6,1286 1307,1283.1 1301.4,1286 
				1302.5,1279.8 1298,1275.4 1304.2,1274.5 			"/>
			<polygon class="st9" points="864,1071.3 866,1075.4 870.5,1076.1 867.2,1079.3 868,1083.8 864,1081.6 859.9,1083.8 860.7,1079.3 
				857.4,1076.1 862,1075.4 			"/>
			<polygon class="st9" points="2189.4,800.6 2190.6,803 2193.3,803.4 2191.4,805.2 2191.8,807.9 2189.4,806.6 2187.1,807.9 
				2187.5,805.2 2185.6,803.4 2188.3,803 			"/>
			<polygon class="st9" points="996.4,744.4 1000.1,751.9 1008.4,753.1 1002.4,759 1003.8,767.2 996.4,763.3 989,767.2 990.4,759 
				984.4,753.1 992.7,751.9 			"/>
			<polygon class="st9" points="864,1316.3 864.7,1317.8 866.3,1318 865.2,1319.2 865.4,1320.8 864,1320 862.5,1320.8 862.8,1319.2 
				861.6,1318 863.2,1317.8 			"/>
			<polygon class="st9" points="2073.1,1014.6 2073.5,1015.4 2074.5,1015.6 2073.8,1016.3 2074,1017.2 2073.1,1016.8 2072.2,1017.2 
				2072.4,1016.3 2071.7,1015.6 2072.7,1015.4 			"/>
			<polygon class="st9" points="876.2,1129.9 877.1,1131.9 879.3,1132.2 877.7,1133.8 878.1,1136 876.2,1134.9 874.2,1136 
				874.6,1133.8 873,1132.2 875.2,1131.9 			"/>
			<polygon class="st9" points="887.8,1147.6 888.7,1149.6 890.9,1149.9 889.4,1151.5 889.7,1153.7 887.8,1152.6 885.8,1153.7 
				886.2,1151.5 884.6,1149.9 886.8,1149.6 			"/>
			<polygon class="st9" points="934.8,870.4 936.5,873.8 940.2,874.3 937.5,876.9 938.1,880.6 934.8,878.8 931.5,880.6 932.1,876.9 
				929.5,874.3 933.2,873.8 			"/>
			<polygon class="st9" points="2993.4,1090.9 2997.2,1098.6 3005.7,1099.8 2999.6,1105.8 3001,1114.2 2993.4,1110.2 2985.9,1114.2 
				2987.3,1105.8 2981.2,1099.8 2989.7,1098.6 			"/>
			<polygon class="st9" points="1339.7,505.2 1340.4,506.6 1342,506.8 1340.8,507.9 1341.1,509.5 1339.7,508.7 1338.3,509.5 
				1338.6,507.9 1337.4,506.8 1339,506.6 			"/>
			<polygon class="st9" points="1243.2,463.1 1243.9,464.5 1245.5,464.8 1244.3,465.9 1244.6,467.4 1243.2,466.7 1241.8,467.4 
				1242.1,465.9 1240.9,464.8 1242.5,464.5 			"/>
			<polygon class="st9" points="1327.2,466.5 1327.9,467.9 1329.5,468.1 1328.3,469.3 1328.6,470.8 1327.2,470.1 1325.8,470.8 
				1326.1,469.3 1324.9,468.1 1326.5,467.9 			"/>
			<polygon class="st9" points="2237.5,900.4 2238.7,903 2241.5,903.4 2239.5,905.3 2240,908.1 2237.5,906.8 2235,908.1 
				2235.5,905.3 2233.5,903.4 2236.3,903 			"/>
			<polygon class="st9" points="2180.2,897.2 2180.8,898.4 2182.1,898.6 2181.1,899.5 2181.3,900.8 2180.2,900.2 2179,900.8 
				2179.3,899.5 2178.3,898.6 2179.6,898.4 			"/>
			<polygon class="st9" points="1060.9,1028.1 1064.7,1035.8 1073.2,1037 1067.1,1043 1068.5,1051.4 1060.9,1047.4 1053.4,1051.4 
				1054.8,1043 1048.7,1037 1057.1,1035.8 			"/>
			<polygon class="st9" points="715.1,1264.7 718.9,1272.4 727.3,1273.6 721.2,1279.6 722.7,1288 715.1,1284 707.5,1288 
				708.9,1279.6 702.8,1273.6 711.3,1272.4 			"/>
			<polygon class="st9" points="616.5,1534.1 620.3,1541.8 628.8,1543 622.6,1549 624.1,1557.4 616.5,1553.4 608.9,1557.4 
				610.4,1549 604.2,1543 612.7,1541.8 			"/>
			<polygon class="st9" points="1376.4,1295.2 1378.3,1299.1 1382.6,1299.7 1379.5,1302.7 1380.2,1306.9 1376.4,1304.9 
				1372.6,1306.9 1373.4,1302.7 1370.3,1299.7 1374.5,1299.1 			"/>
			<polygon class="st9" points="2858.5,1046.1 2859.1,1047.3 2860.4,1047.5 2859.5,1048.4 2859.7,1049.7 2858.5,1049.1 
				2857.4,1049.7 2857.6,1048.4 2856.7,1047.5 2858,1047.3 			"/>
			<polygon class="st9" points="1170.4,1106.3 1171.4,1108.4 1173.8,1108.8 1172.1,1110.4 1172.5,1112.8 1170.4,1111.7 
				1168.3,1112.8 1168.7,1110.4 1167,1108.8 1169.3,1108.4 			"/>
			<polygon class="st9" points="1971.3,475.2 1971.7,476.1 1972.7,476.2 1972,476.9 1972.1,477.8 1971.3,477.4 1970.4,477.8 
				1970.6,476.9 1969.9,476.2 1970.8,476.1 			"/>
			<polygon class="st9" points="1467.5,412 1468.2,413.5 1469.9,413.8 1468.7,415 1469,416.6 1467.5,415.8 1466,416.6 1466.2,415 
				1465,413.8 1466.7,413.5 			"/>
			<polygon class="st9" points="2116.6,583.2 2117,584.1 2117.9,584.2 2117.2,584.9 2117.4,585.9 2116.6,585.4 2115.7,585.9 
				2115.9,584.9 2115.2,584.2 2116.1,584.1 			"/>
			<polygon class="st9" points="2205.6,560.2 2206,561 2207,561.2 2206.3,561.9 2206.4,562.8 2205.6,562.4 2204.7,562.8 
				2204.9,561.9 2204.2,561.2 2205.2,561 			"/>
			<polygon class="st9" points="2448.6,996 2449.6,998.1 2451.9,998.4 2450.2,1000 2450.6,1002.2 2448.6,1001.2 2446.6,1002.2 
				2447,1000 2445.3,998.4 2447.6,998.1 			"/>
			<polygon class="st9" points="1925.2,470.6 1925.9,472.1 1927.6,472.3 1926.4,473.5 1926.7,475.2 1925.2,474.4 1923.7,475.2 
				1924,473.5 1922.8,472.3 1924.4,472.1 			"/>
			<polygon class="st9" points="1561.1,640.1 1561.6,640.9 1562.5,641.1 1561.8,641.8 1562,642.7 1561.1,642.3 1560.3,642.7 
				1560.4,641.8 1559.7,641.1 1560.7,640.9 			"/>
			<polygon class="st9" points="2800.8,1030.1 2801.3,1031 2802.2,1031.1 2801.5,1031.8 2801.7,1032.7 2800.8,1032.3 2800,1032.7 
				2800.2,1031.8 2799.5,1031.1 2800.4,1031 			"/>
			<polygon class="st9" points="1039.6,1310.4 1040.4,1311.9 1042,1312.1 1040.8,1313.2 1041.1,1314.9 1039.6,1314.1 1038.2,1314.9 
				1038.5,1313.2 1037.3,1312.1 1038.9,1311.9 			"/>
			<polygon class="st9" points="1209.4,719.9 1211.8,724.8 1217.2,725.6 1213.3,729.4 1214.2,734.8 1209.4,732.2 1204.5,734.8 
				1205.5,729.4 1201.6,725.6 1207,724.8 			"/>
			<polygon class="st9" points="2459.3,1063.2 2463,1070.9 2471.5,1072.1 2465.4,1078.1 2466.8,1086.5 2459.3,1082.5 2451.7,1086.5 
				2453.1,1078.1 2447,1072.1 2455.5,1070.9 			"/>
			<polygon class="st9" points="2610.1,883.5 2612.5,888.4 2617.9,889.2 2614,893 2614.9,898.4 2610.1,895.9 2605.2,898.4 
				2606.2,893 2602.2,889.2 2607.7,888.4 			"/>
			<polygon class="st9" points="1212.8,1180.4 1213.8,1182.5 1216.1,1182.8 1214.5,1184.5 1214.9,1186.8 1212.8,1185.7 
				1210.7,1186.8 1211.1,1184.5 1209.4,1182.8 1211.7,1182.5 			"/>
			<polygon class="st9" points="1243.2,868.6 1244.8,871.8 1248.3,872.3 1245.8,874.8 1246.4,878.4 1243.2,876.7 1240,878.4 
				1240.6,874.8 1238,872.3 1241.6,871.8 			"/>
			<polygon class="st9" points="2267.4,1372.8 2269,1376 2272.5,1376.5 2270,1379 2270.6,1382.6 2267.4,1380.9 2264.2,1382.6 
				2264.8,1379 2262.2,1376.5 2265.8,1376 			"/>
			<polygon class="st9" points="1100.6,852.8 1101.2,854 1102.5,854.1 1101.6,855 1101.8,856.3 1100.6,855.7 1099.5,856.3 
				1099.7,855 1098.8,854.1 1100.1,854 			"/>
			<polygon class="st9" points="1107.4,863.2 1108,864.3 1109.3,864.5 1108.4,865.4 1108.6,866.7 1107.4,866.1 1106.3,866.7 
				1106.5,865.4 1105.6,864.5 1106.9,864.3 			"/>
			<polygon class="st9" points="1172.9,819.3 1173.5,820.4 1174.8,820.6 1173.9,821.5 1174.1,822.8 1172.9,822.2 1171.8,822.8 
				1172,821.5 1171.1,820.6 1172.4,820.4 			"/>
			<polygon class="st9" points="1255.2,888.1 1255.8,889.2 1257,889.4 1256.1,890.3 1256.3,891.6 1255.2,891 1254,891.6 
				1254.2,890.3 1253.3,889.4 1254.6,889.2 			"/>
			<polygon class="st9" points="1174.8,840 1175.4,841.2 1176.7,841.4 1175.7,842.3 1175.9,843.6 1174.8,843 1173.6,843.6 
				1173.9,842.3 1172.9,841.4 1174.2,841.2 			"/>
			<polygon class="st9" points="2629.3,1241.6 2629.9,1242.7 2631.2,1242.9 2630.3,1243.8 2630.5,1245.1 2629.3,1244.5 
				2628.2,1245.1 2628.4,1243.8 2627.5,1242.9 2628.8,1242.7 			"/>
			<polygon class="st9" points="2685.1,1247.6 2685.7,1248.8 2687,1249 2686,1249.9 2686.3,1251.2 2685.1,1250.6 2683.9,1251.2 
				2684.2,1249.9 2683.2,1249 2684.5,1248.8 			"/>
			<polygon class="st9" points="1183.4,836.7 1183.9,837.9 1185.2,838.1 1184.3,839 1184.5,840.3 1183.4,839.7 1182.2,840.3 
				1182.4,839 1181.5,838.1 1182.8,837.9 			"/>
			<polygon class="st9" points="2757.6,1182.7 2758.1,1183.9 2759.4,1184.1 2758.5,1185 2758.7,1186.3 2757.6,1185.7 2756.4,1186.3 
				2756.6,1185 2755.7,1184.1 2757,1183.9 			"/>
			<polygon class="st9" points="2945.6,1181.4 2946.6,1183.5 2948.9,1183.8 2947.3,1185.4 2947.7,1187.6 2945.6,1186.6 
				2943.6,1187.6 2944,1185.4 2942.4,1183.8 2944.6,1183.5 			"/>
			<polygon class="st9" points="3021.3,1383.3 3022.3,1385.3 3024.5,1385.7 3022.9,1387.3 3023.3,1389.5 3021.3,1388.4 
				3019.2,1389.5 3019.6,1387.3 3018,1385.7 3020.2,1385.3 			"/>
			<polygon class="st9" points="3161.7,1341.3 3162.7,1343.4 3164.9,1343.7 3163.3,1345.3 3163.7,1347.5 3161.7,1346.5 
				3159.7,1347.5 3160.1,1345.3 3158.4,1343.7 3160.7,1343.4 			"/>
			<polygon class="st9" points="2528.4,976.3 2529.4,978.4 2531.6,978.7 2530,980.3 2530.4,982.6 2528.4,981.5 2526.3,982.6 
				2526.7,980.3 2525.1,978.7 2527.3,978.4 			"/>
			<polygon class="st9" points="2586.9,1052.3 2587.4,1053.3 2588.6,1053.5 2587.7,1054.3 2587.9,1055.5 2586.9,1055 2585.8,1055.5 
				2586,1054.3 2585.2,1053.5 2586.3,1053.3 			"/>
			<polygon class="st9" points="2974.6,1499.4 2977.1,1504.6 2982.9,1505.5 2978.7,1509.5 2979.7,1515.2 2974.6,1512.5 
				2969.4,1515.2 2970.4,1509.5 2966.2,1505.5 2972,1504.6 			"/>
			<polygon class="st9" points="2132.8,1285.5 2133.7,1287.3 2135.8,1287.6 2134.3,1289.1 2134.6,1291.2 2132.8,1290.2 
				2130.9,1291.2 2131.3,1289.1 2129.8,1287.6 2131.8,1287.3 			"/>
			<polygon class="st9" points="2788,1377.6 2788.9,1379.5 2791,1379.8 2789.5,1381.2 2789.9,1383.3 2788,1382.3 2786.2,1383.3 
				2786.5,1381.2 2785,1379.8 2787.1,1379.5 			"/>
			<polygon class="st9" points="1026.2,918.4 1027.2,920.3 1029.2,920.6 1027.7,922 1028.1,924.1 1026.2,923.1 1024.4,924.1 
				1024.7,922 1023.2,920.6 1025.3,920.3 			"/>
			<polygon class="st9" points="2936.6,1467.7 2937.5,1469.6 2939.6,1469.9 2938.1,1471.4 2938.5,1473.4 2936.6,1472.5 
				2934.7,1473.4 2935.1,1471.4 2933.6,1469.9 2935.7,1469.6 			"/>
			<polygon class="st9" points="2954.3,1487.5 2955.3,1489.4 2957.3,1489.7 2955.8,1491.2 2956.2,1493.3 2954.3,1492.3 
				2952.5,1493.3 2952.8,1491.2 2951.3,1489.7 2953.4,1489.4 			"/>
			<polygon class="st9" points="2773.4,1104.9 2775.8,1109.8 2781.1,1110.6 2777.2,1114.3 2778.1,1119.7 2773.4,1117.1 
				2768.6,1119.7 2769.5,1114.3 2765.6,1110.6 2771,1109.8 			"/>
			<polygon class="st9" points="2810.2,1015.9 2810.6,1016.8 2811.6,1016.9 2810.9,1017.6 2811.1,1018.5 2810.2,1018.1 
				2809.4,1018.5 2809.5,1017.6 2808.8,1016.9 2809.8,1016.8 			"/>
			<polygon class="st9" points="3122,1410 3123.6,1413.2 3127.2,1413.7 3124.6,1416.2 3125.2,1419.8 3122,1418.1 3118.8,1419.8 
				3119.4,1416.2 3116.9,1413.7 3120.4,1413.2 			"/>
			<polygon class="st9" points="3161.7,1372.7 3163.3,1375.9 3166.8,1376.4 3164.3,1378.9 3164.9,1382.5 3161.7,1380.8 
				3158.5,1382.5 3159.1,1378.9 3156.5,1376.4 3160.1,1375.9 			"/>
			<polygon class="st9" points="3154.7,1435.4 3155.2,1436.6 3156.5,1436.8 3155.6,1437.7 3155.8,1439 3154.7,1438.4 3153.5,1439 
				3153.7,1437.7 3152.8,1436.8 3154.1,1436.6 			"/>
			<polygon class="st9" points="3144.5,1331.3 3145,1332.5 3146.3,1332.7 3145.4,1333.6 3145.6,1334.8 3144.5,1334.2 3143.3,1334.8 
				3143.5,1333.6 3142.6,1332.7 3143.9,1332.5 			"/>
			<polygon class="st9" points="3097,1419.4 3097.4,1420.3 3098.4,1420.4 3097.7,1421.1 3097.8,1422 3097,1421.6 3096.1,1422 
				3096.3,1421.1 3095.6,1420.4 3096.5,1420.3 			"/>
			<polygon class="st9" points="3106.4,1405.2 3106.8,1406.1 3107.7,1406.2 3107,1406.9 3107.2,1407.9 3106.4,1407.4 3105.5,1407.9 
				3105.7,1406.9 3105,1406.2 3105.9,1406.1 			"/>
		</g>
	</g>
	<g>
		<path class="st7" d="M930.8,1229.9c-8.4,24.5-32.9,38.2-32.9,38.2s-10.9-25.9-2.4-50.4s32.9-38.2,32.9-38.2
			S939.2,1205.5,930.8,1229.9z"/>
		<path class="st7" d="M991.5,1329.6c-12.4,22.7-38.8,32.2-38.8,32.2s-6.4-27.4,5.9-50.1c12.4-22.7,38.8-32.2,38.8-32.2
			S1003.9,1306.8,991.5,1329.6z"/>
		<path class="st7" d="M823.1,1166.1c19.2,17.4,22.1,45.3,22.1,45.3s-28.1-0.2-47.3-17.6c-19.2-17.4-22.1-45.3-22.1-45.3
			S803.9,1148.7,823.1,1166.1z"/>
		<path class="st7" d="M851.1,1253.4c25.8-1.5,47.9,15.9,47.9,15.9s-19.8,19.9-45.7,21.4c-25.8,1.5-47.9-15.9-47.9-15.9
			S825.3,1254.9,851.1,1253.4z"/>
		<path class="st7" d="M904.6,1345.3c25.8-1.5,47.9,15.9,47.9,15.9s-19.8,19.9-45.7,21.4c-25.8,1.5-47.9-15.9-47.9-15.9
			S878.8,1346.8,904.6,1345.3z"/>
		<g>
			<path class="st7" d="M1015.2,1562l-5.2,0.6c-0.1-0.6-7.1-61.6-32.9-136.4c-15.1-43.9-33.7-83.9-55.1-118.9
				c-26.7-43.7-58-79.6-93-106.9l3.2-4.2c35.5,27.7,67.3,64.1,94.3,108.4c21.6,35.3,40.3,75.7,55.6,120
				C1008,1499.9,1015.1,1561.4,1015.2,1562z"/>
		</g>
	</g>
	<g>
		<path class="st7" d="M725.8,1356.8c2.2,20.9-11.1,39.5-11.1,39.5s-16.9-15.3-19.2-36.2c-2.2-20.9,11.1-39.5,11.1-39.5
			S723.5,1335.9,725.8,1356.8z"/>
		<path class="st7" d="M804.8,1409.2c-1.3,21-17.5,37.1-17.5,37.1s-14.1-17.9-12.9-38.9c1.3-21,17.5-37.1,17.5-37.1
			S806.1,1388.2,804.8,1409.2z"/>
		<path class="st7" d="M624.5,1346.9c20.1,6.2,31.9,25.7,31.9,25.7s-20.8,9.5-40.9,3.3c-20.1-6.2-31.9-25.7-31.9-25.7
			S604.4,1340.7,624.5,1346.9z"/>
		<path class="st7" d="M675.2,1401.5c18.5-10,40.7-4.8,40.7-4.8s-7.7,21.5-26.2,31.5c-18.5,10-40.7,4.8-40.7,4.8
			S656.7,1411.5,675.2,1401.5z"/>
		<path class="st7" d="M746.2,1450.7c18.5-10,40.7-4.8,40.7-4.8s-7.7,21.5-26.2,31.5c-18.5,10-40.7,4.8-40.7,4.8
			S727.7,1460.7,746.2,1450.7z"/>
		<g>
			<path class="st7" d="M902.3,1572.1l-3.7,2.2c-0.3-0.4-26.4-42.9-71.2-89.1c-26.3-27.1-53.7-50.2-81.5-68.5
				c-34.7-22.9-70.1-38.6-105.3-46.6l0.9-4.2c35.7,8.1,71.6,24,106.8,47.3c28.1,18.6,55.7,41.8,82.2,69.2
				C875.6,1528.9,902,1571.7,902.3,1572.1z"/>
		</g>
	</g>
	<g>
		<path class="st7" d="M773.6,1546.4c-43.5,0-80.2,29.2-91.6,69.1h183.2C853.8,1575.6,817.1,1546.4,773.6,1546.4z"/>
		<path class="st7" d="M1220.1,1513.7c-64.1,0-118.2,43-134.9,101.7H1355C1338.3,1556.7,1284.2,1513.7,1220.1,1513.7z"/>
		<path class="st7" d="M801.3,1615.5c20.7-71.6,102.7-125.1,200.7-125.1s180,53.5,200.7,125.1H801.3z"/>
	</g>
	<g>
		<path class="st2" d="M871.8,1606.4c-20.8,0-38.4,14-43.8,33h87.6C910.1,1620.4,892.6,1606.4,871.8,1606.4z"/>
		<path class="st2" d="M1085.4,1590.8c-30.7,0-56.5,20.6-64.6,48.7h129.1C1141.9,1611.4,1116,1590.8,1085.4,1590.8z"/>
		<path class="st2" d="M885,1639.5c9.9-34.3,49.1-59.8,96-59.8c46.9,0,86.1,25.6,96,59.8H885z"/>
	</g>
	<g>
		<defs>
			<rect id="SVGID_00000139988157803227893190000002839882226453136567_" x="1052.6" y="438.3" width="1905.2" height="1184.7"/>
		</defs>
		<clipPath id="SVGID_00000109725851794081051410000017666557306871278218_">
			<use xlink:href="#SVGID_00000139988157803227893190000002839882226453136567_"  style="overflow:visible;"/>
		</clipPath>
		<g style="clip-path:url(#SVGID_00000109725851794081051410000017666557306871278218_);">
			<path class="st7" d="M2735.7,853.3l0.2-0.2l0.1-0.1c0,0-0.1,0-0.1,0l-0.7,0.1l0.2,0.5C2735.5,853.6,2735.6,853.5,2735.7,853.3z"
				/>
			<path class="st7" d="M2735.3,853.7c-0.2,0.1-0.4,0.3-0.5,0.4c-0.7,0.6-1.6,1.2-2.5,1.8c-1.9,1.3-3.9,2.6-6,3.9
				c-4.2,2.6-8.7,5.3-13.3,8c-9.2,5.3-18.8,10.4-28.5,15.3c-19.3,9.8-39,18.6-58.2,26.1c-19.2,7.5-38,13.8-55.4,18.5
				c-17.4,4.7-33.4,7.7-46.5,9.5c-13.2,1.7-23,2.3-30.4,2.7c-7.5,0.3-13.7,0.7-21.7-3.8c-4-2.2-8.3-5.5-12.4-10.5
				c-0.5-0.6-1.1-1.2-1.6-1.8l-1.5-2.1c-1-1.5-2.2-2.7-3.1-4.3c-1-1.6-2-3.3-3-4.9l-0.8-1.2l-0.7-1.4l-1.4-2.8l-1.4-2.8l-0.7-1.4
				l-0.6-1.5l-2.6-6.2c-1-2-1.6-4.3-2.5-6.6c-0.8-2.3-1.6-4.5-2.4-6.8l-2.1-7.2c-0.7-2.4-1.5-4.8-2-7.4l-1.8-7.7
				c-0.3-1.3-0.6-2.6-0.9-3.9l-0.7-4l-1.5-8.1l-0.4-2c-0.1-0.3-0.1-0.8-0.2-1.3l-0.2-1.6l-0.7-6.2l-1.4-12.4
				c-0.5-4.1-1.2-8.4-1.8-12.5l-1.9-12.5l-2.4-12.6c-1.5-8.3-3.5-16.9-5.5-25.3c-0.9-4.2-2.2-8.5-3.3-12.7
				c-1.2-4.3-2.3-8.4-3.6-12.7c-2.8-8.6-5.3-16.9-8.6-25.5c-6.1-16.9-13.8-33.8-22.8-50.3c-17.8-32.9-42.8-64-72.9-87.8
				c-15-12-31.2-22-47.8-30.1c-16.6-8.1-33.5-14.1-50.4-18.5c-33.7-8.8-66.6-11-97.9-9.8c-31.3,1.2-61.3,6-90.1,12.7
				c-28.8,6.8-56.5,15.5-83.4,25.7c-9.8,3.7-19.6,7.7-29.2,11.8c-55.4-55.1-189.6-104.2-286.2,15.4c-15.3,18.9-25.1,38.2-30.8,57.4
				c-17.1,19.9-31.9,46.6-43.2,80.3c-35.3,105.5-32.8,201.4,31.7,222.9c22.9,7.6,50.5,4.9,78.1-6.5c-2,20.6-3.5,40.5-4.2,57.2
				c-8.1,6-17,12.9-26.2,20.5c-73.1,41.6-281.7,181.9-408.9,294.2l48.7-394.1c2.1-0.2,4.1-0.5,5.5-1.1c9.2-4.2,15.6-13,24.8-20.6
				c6.2-5.2,12.1-10.9,17.6-17c5.8-6.5,13.7-14.8,17.8-17.1c7-4,18.6-15.7,24-16.9c5.4-1.2,16.9-1.6,16.6-5.5
				c-0.3-3.9-4.5-18.3-27.9-11.3c-23.3,7.1-20.8,13.6-30.8,15.8c0,0-0.1,0-0.1,0c-0.5,0.1-0.9,0.1-1.4,0l10.1-19.5
				c0.6-0.8,1.1-1.6,1.5-2.5l1.6-3.4l0.2-0.5l0,0l23.2-51c0-0.1,0.1-0.2,0.1-0.2c0.3-0.5,0.5-1.1,0.7-1.6l14-41.9
				c0.5-1,0.8-2.1,1.1-3.2l5.9-28.7c0.9-4.4-1.6-8.7-5.5-9.2h0c-6.3-0.9-12.4,3.4-14.7,10.3l-6.9,21.3c-0.3,0.6-0.6,1.2-0.8,1.9
				l-13.5,40.3c-0.2,0.3-0.4,0.7-0.5,1.1l-22.8,50.1l-2-1.1l3.3-44.8c0.4-1.7,0.4-3.5-0.1-5.2c-0.5-2.6-2-4.8-4-6.4l-19.4-23.4
				c-1.9-2.2-4.4-3.5-7.1-3.9c-1.2-0.3-2.5-0.4-3.8-0.4l-28.2,1.4c-4.4,0.2-7.7,3.7-7.2,7.6c0.2,2.2,1.1,4.3,2.4,6l-24.7,9.9
				c-4.5,1.8-6.9,6.6-5.8,11.2l-7.8,7.9c-1.9,1.9-3,4.2-3.4,6.5c-0.2,1.1-0.2,2.2,0,3.4l3.4,19.8c0.5,3.1,3.3,5.1,6,4.5
				c4.4-1,7.3-5.4,7-10.3l-0.6-10.5l5.6-4.6l6.3,19c-7.2,11.5-26.2,44-30.4,70.1c-2.2,14,5.3,28.1,9.4,37.4
				c-53.6,146.5-120.4,433.3-120.4,522.1c0,77.7,47.1,76.6,49.1,77.2c11.8,3.5,27.5-1.4,40.7-10.7c7.8-2.3,17-5.9,27.7-11.2
				l221.1-144.2c5.6,60,28.9,138,69.7,227.3c19.8,43.2-3.4,202.4-22.3,329.1c-33.6,28.8-61.5,58.5-63.7,79.1c-2,18.9,19.6,20,51,8.3
				c-3.4,25.4-5.9,46.3-6.5,60.5c62.8,44.7,84.6,39.4,156,33c102.9-9.3,224.1-58.2,329.4-81.4c-27.1-63.4-42.5-119.1-60.7-180.7
				c121.4-25,240.2-55.9,286.8-79.5c69.3-35.1,47-76.7,46.6-78.7c-1.3-7.1-5.8-14.1-12.2-20.2c-0.4-1.3-0.8-2.7-1.2-4
				c-40.5-130.4-310.3-465.5-385.1-543.9c-1.4-1.4-2.7-2.8-4.1-4.1c-9.1-34.8-21.1-60.1-39-75c-0.3-17,2.5-47.7,6.6-80.9
				c27.3-0.2,59.8-9.4,97-34.7c121-82.1,96.4-220.8,58.2-288c5.1-0.4,10.2-0.7,15.3-1c27.1-1.5,54-1.4,80.2,0.7
				c26.2,2.1,51.7,6.1,75.3,12.8c23.6,6.6,45.2,15.8,62.9,27.5c17.7,11.7,31.1,25.5,40.1,40.6c4.5,7.6,8.1,15.5,10.9,23.7
				c2.8,8.3,5,16.8,6.3,26c1.4,9.1,2.3,18.5,2.3,28.5c0.2,4.8-0.1,10.1-0.1,15c-0.1,2.5-0.3,5.2-0.5,7.8c-0.2,2.6-0.2,5.1-0.6,7.8
				c-0.6,5.3-1,10.5-1.8,16l-1.1,8l-1.4,8.2c-0.5,2.7-0.9,5.4-1.5,8.2l-1.7,8.3l-0.9,4.1l-0.2,1c-0.1,0.3-0.1,0.6-0.2,1.2l-0.5,3.1
				l-1.8,12.6c-1.3,8.3-1.9,17.1-2.8,25.7c-0.5,4.3-0.7,8.8-0.9,13.2l-0.7,13.4c-0.1,4.5-0.1,9.2-0.1,13.8c0,4.6-0.1,9.2,0.2,14
				l0.7,14.3l0.2,3.6l0.4,3.7l0.7,7.3l0.8,7.3l0.4,3.7l0.6,3.8l2.4,15.1c0.9,5,2.1,10.2,3.2,15.3l1.8,7.7c0.7,2.6,1.4,5.2,2.2,7.8
				c5.6,20.8,13.9,42.3,24.8,63.3c10.9,21,24.6,41.7,40.8,60.7c16.2,18.9,34.8,36,54.6,50.6c19.7,14.6,40.5,26.8,61.3,36.9
				c20.8,10,41.8,17.9,62.3,24.2c41,12.5,80.4,18.9,118.2,22.4c37.7,3.4,74,3.7,109.2,2.2c35.3-1.5,69.5-4.9,103.4-9.8
				c17-2.5,33.8-5.3,50.8-8.6c8.5-1.7,17.1-3.5,25.8-5.4c4.4-1,8.8-2,13.4-3.2l7.2-1.9l3.9-1.1l1-0.3l0.5-0.2l0.7-0.2l3.1-1
				L2735.3,853.7z M1824.6,1333.5l244.7,293.1l-224.7,81.1C1807.7,1581.2,1819.6,1454.5,1824.6,1333.5z M1267.1,733.2l14.8,17.8
				l-2.6,34.3l-5.7-1.4l-15-51.2L1267.1,733.2z M1240.2,745.9l9.8,33.5l-7.9-0.2l-10-30.2L1240.2,745.9z"/>
		</g>
	</g>
	<g>
		<g>
			<path class="st11" d="M2425.3,1551.7c27,0,49.8,18.1,56.8,42.8h-113.6C2375.6,1569.8,2398.4,1551.7,2425.3,1551.7z"/>
			<path class="st11" d="M2491.8,1565c18.6,0,34.3,12.5,39.2,29.6h-78.4C2457.5,1577.5,2473.2,1565,2491.8,1565z"/>
			<path class="st11" d="M2407.3,1594.5c-7.6-26.4-37.9-46.1-74-46.1c-36.1,0-66.4,19.7-74,46.1H2407.3z"/>
		</g>
		<g>
			<path class="st11" d="M2307.8,1461.7c3.5-1.6,7.7,0,9.2,3.6c0.7,1.6,0.8,3.3,0.3,4.8c6.4,5.1,12.4,10.7,18,16.4
				c-1.6-6.4-3.6-16-3.6-25.7c-1.8-0.6-3.4-1.9-4.2-3.8c-1.6-3.5,0-7.7,3.6-9.2c3.5-1.6,7.7,0,9.2,3.6c1.6,3.5,0,7.7-3.6,9.2
				c-0.4,0.2-0.8,0.3-1.2,0.4c0.1,14.5,4.8,29.2,5.5,31.5c11.9,13.1,21.5,26.4,28.5,37.1c12.5,19.2,19.3,34.2,19.3,34.4l-3.4,1.5
				c-0.1-0.1-6.7-14.9-19-33.9c-3.7-5.7-8.2-12.2-13.4-19c-2.7-0.4-12.8-1.5-26,1.6c0.2,2.8-1.4,5.6-4.1,6.8c-3.5,1.6-7.7,0-9.2-3.6
				c-1.6-3.5,0-7.7,3.6-9.2c3.1-1.4,6.7-0.3,8.5,2.4c10.5-2.5,19.1-2.4,24-2.1c-9.5-11.9-21.1-24.5-34.4-35.2
				c-0.5,0.5-1.1,0.9-1.8,1.2c-3.5,1.6-7.7,0-9.2-3.6C2302.6,1467.3,2304.2,1463.2,2307.8,1461.7z"/>
			<path class="st11" d="M2396.3,1504.4c-2.4-1.3-11.5-5.9-24.9-7.7c-0.8,2.7-3.3,4.7-6.3,4.9c-3.9,0.2-7.1-2.7-7.4-6.6
				c-0.2-3.9,2.7-7.1,6.6-7.4c3.4-0.2,6.4,2.1,7.2,5.3c10.6,1.4,18.7,4.4,23.2,6.5c-4.7-14.5-11.1-30.3-19.8-45.1
				c-0.7,0.3-1.4,0.4-2.1,0.5c-3.9,0.2-7.1-2.7-7.4-6.6s2.7-7.1,6.6-7.4c3.9-0.2,7.1,2.7,7.4,6.6c0.1,1.7-0.4,3.3-1.4,4.6
				c4.2,7.1,7.9,14.4,11.1,21.7c0.7-6.5,2.3-16.2,5.6-25.3c-1.5-1.2-2.5-3-2.6-5c-0.2-3.9,2.7-7.1,6.6-7.4c3.9-0.2,7.1,2.7,7.4,6.6
				s-2.7,7.1-6.6,7.4c-0.4,0-0.9,0-1.3-0.1c-5,13.6-5.8,29-5.9,31.4c6.6,16.4,10.9,32.3,13.6,44.8c4.9,22.4,6,38.8,6,39l-3.8,0.2
				c0-0.2-1-16.3-5.9-38.4C2400.7,1520.2,2398.8,1512.5,2396.3,1504.4z"/>
		</g>
	</g>
	<path class="st2" d="M2183.8,1335.1c18.5,13.3,30.9,29.5,36.4,37.3c0.4-0.6,0.7-1.1,1.1-1.7c9.3-14.4,20.2-30.4,32.7-47.4
		c-7.7-4.5-25.7-15.9-40.9-34.2c-20-24-27.7-50.5-27.7-50.5s24.8,12.3,44.7,36.3c14.7,17.6,22.7,36.7,26,45.5
		c10.4-14,21.8-28.6,34.2-43.3c-6.5-6.5-20.6-22-30.5-43.2c-13.2-28.3-13.8-55.9-13.8-55.9s20.8,18.2,34,46.5
		c9.2,19.8,12.3,39.2,13.3,49.1c12.5-14.7,25.9-29.5,40.4-44.1c-5.4-7.3-17-24.9-23.6-47.4c-8.7-30-5.1-57.4-5.1-57.4
		s17.8,21.2,26.5,51.2c6,20.6,6.2,40.1,5.7,50.2c9.8-9.8,20-19.5,30.6-28.9c-2.2-8.9-6.3-29.5-3.9-52.7c3.2-31,16.9-55.1,16.9-55.1
		s8.4,26.3,5.2,57.4c-2,18.9-7.8,35.1-12.1,45c7.5-6.5,15.3-13,23.2-19.2c5.9-9,16.4-22.7,31.2-34.7c24.3-19.6,50.9-26.9,50.9-26.9
		s-12.7,24.6-36.9,44.2c-14.6,11.8-30.1,19.2-40.1,23.1c-8.2,6.5-16.2,13.1-24,19.9c10.1-0.6,29.5-0.6,50.1,5.2
		c30.1,8.4,51.4,25.9,51.4,25.9s-27.4,3.9-57.4-4.5c-22.8-6.4-40.6-18-47.9-23.3c-10.7,9.5-21,19.2-30.9,29
		c9.2,2,29.1,7.5,48.5,19.9c26.4,16.7,41.8,39.7,41.8,39.7s-27.3-4.2-53.7-20.9c-20-12.7-33.7-29-39.1-36.1
		c-14.9,15-28.7,30.2-41.5,45.2c9.4,1.3,29.6,5,49.8,15.5c27.7,14.3,45.1,35.8,45.1,35.8s-27.6-1.7-55.3-16.1
		c-20.9-10.8-35.9-25.7-42-32.3c-12.6,14.9-24.1,29.6-34.6,43.7c9.6,1,29.7,4,50,13.6c28.2,13.3,46.4,34.2,46.4,34.2
		s-27.6-0.7-55.9-14.1c-21-9.9-36.4-24-42.9-30.5c-12.3,16.7-23,32.5-32.2,46.7c-0.5,0.7-0.9,1.4-1.4,2.1
		c6.2,1.2,29.5,6.3,52.1,20.6c26.4,16.7,41.8,39.7,41.8,39.7s-27.3-4.2-53.7-20.9c-22.6-14.4-37.2-33.3-40.8-38.4
		c-37.5,58.5-56.9,102.8-57.1,103.2l-7-3.1c0.2-0.4,19.4-44.2,56.4-102.3c-9.1-2.6-28.6-9.2-47.2-22.6c-25.4-18.2-39.4-42-39.4-42
		S2158.4,1316.9,2183.8,1335.1z"/>
	<path class="st12" d="M1753.7,872l-3.3,19.8H1709l3.3-19.8h-3.9l-60,365.2h3.9l3.6-22.1h41.4l-3.6,22.1h3.9l60-365.2H1753.7z
		 M1698,1211.3h-41.4l3.1-19.1h41.4L1698,1211.3z M1701.7,1188.5h-41.4l3.1-19.1h41.4L1701.7,1188.5z M1705.5,1165.7h-41.4l3.1-19.1
		h41.4L1705.5,1165.7z M1709.2,1142.8h-41.4l3.1-19.1h41.4L1709.2,1142.8z M1713,1120h-41.4l3.1-19.1h41.4L1713,1120z
		 M1716.7,1097.2h-41.4l3.1-19.1h41.4L1716.7,1097.2z M1720.5,1074.4h-41.4l3.1-19.1h41.4L1720.5,1074.4z M1724.2,1051.6h-41.4
		l3.1-19.1h41.4L1724.2,1051.6z M1728,1028.7h-41.4l3.1-19.1h41.4L1728,1028.7z M1731.7,1005.9h-41.4l3.1-19.1h41.4L1731.7,1005.9z
		 M1735.4,983.1h-41.4l3.1-19.1h41.4L1735.4,983.1z M1739.2,960.3h-41.4l3.1-19.1h41.4L1739.2,960.3z M1742.9,937.5h-41.4l3.1-19.1
		h41.4L1742.9,937.5z M1746.7,914.6h-41.4l3.1-19.1h41.4L1746.7,914.6z"/>
	<rect x="1516.1" y="1235.8" class="st13" width="196.3" height="23.2"/>
	<rect x="1666.8" y="850.2" class="st13" width="131.5" height="23.2"/>
	
		<radialGradient id="SVGID_00000131362599223434602500000007992263089863723948_" cx="1441.2755" cy="1221.2599" r="48.5638" gradientUnits="userSpaceOnUse">
		<stop  offset="0" style="stop-color:#F1DBCD"/>
		<stop  offset="6.146085e-02" style="stop-color:#D4C2BA"/>
		<stop  offset="0.1586" style="stop-color:#ACA1A1"/>
		<stop  offset="0.2624" style="stop-color:#8A848B"/>
		<stop  offset="0.3723" style="stop-color:#6E6D7A"/>
		<stop  offset="0.4905" style="stop-color:#595B6C"/>
		<stop  offset="0.621" style="stop-color:#4A4E62"/>
		<stop  offset="0.7733" style="stop-color:#41465D"/>
		<stop  offset="1" style="stop-color:#3E445B"/>
	</radialGradient>
	<circle style="fill:url(#SVGID_00000131362599223434602500000007992263089863723948_);" cx="1441.3" cy="1221.3" r="34.5"/>
	<path class="st15" d="M1780,850.1h-95.9V741.6c0-26.5,21.5-47.9,47.9-47.9h0c26.5,0,47.9,21.5,47.9,47.9V850.1z"/>
	<path class="st15" d="M1754.8,850.1h-70.7v-80c0-19.5,15.8-35.4,35.4-35.4h0c19.5,0,35.4,15.8,35.4,35.4V850.1z"/>
	<path class="st15" d="M1603,1485.1h-71.3v-80.7c0-19.7,16-35.7,35.7-35.7l0,0c19.7,0,35.7,16,35.7,35.7V1485.1z"/>
	<path class="st15" d="M1586.2,1485.1h-54.5v-61.7c0-15.1,12.2-27.3,27.3-27.3l0,0c15.1,0,27.3,12.2,27.3,27.3V1485.1z"/>
	<g>
		<path class="st16" d="M1761,1378.8h-53.7V1318c0-14.8,12-26.9,26.9-26.9h0c14.8,0,26.9,12,26.9,26.9V1378.8z"/>
		<path class="st16" d="M1761,1378.8h-37.4v-42.3c0-10.3,8.4-18.7,18.7-18.7l0,0c10.3,0,18.7,8.4,18.7,18.7V1378.8z"/>
	</g>
	<g>
		<path class="st16" d="M1867.1,673h-53.7v-60.8c0-14.8,12-26.9,26.9-26.9l0,0c14.8,0,26.9,12,26.9,26.9V673z"/>
		<path class="st16" d="M1867.1,673h-37.4v-42.3c0-10.3,8.4-18.7,18.7-18.7h0c10.3,0,18.7,8.4,18.7,18.7V673z"/>
	</g>
	<rect x="1501.5" y="1485.3" class="st13" width="131.5" height="23.2"/>
	<g>
		<defs>
			<rect id="SVGID_00000016796333134319952690000006941477446650625442_" x="1551" y="1462" width="126.1" height="196.4"/>
		</defs>
		<clipPath id="SVGID_00000000222630767186008770000003591405831974414488_">
			<use xlink:href="#SVGID_00000016796333134319952690000006941477446650625442_"  style="overflow:visible;"/>
		</clipPath>
		<path style="clip-path:url(#SVGID_00000000222630767186008770000003591405831974414488_);fill:#FA7A81;" d="M1567.9,1483.3
			l60,365.2h3.9l-3.6-22.1h41.4l3.6,22.1h3.9l-60-365.2h-3.9l3.3,19.8h-41.4l-3.3-19.8H1567.9z M1624.4,1803.5h41.4l3.1,19.1h-41.4
			L1624.4,1803.5z M1620.7,1780.7h41.4l3.1,19.1h-41.4L1620.7,1780.7z M1616.9,1757.9h41.4l3.1,19.1h-41.4L1616.9,1757.9z
			 M1613.2,1735h41.4l3.1,19.1h-41.4L1613.2,1735z M1609.4,1712.2h41.4l3.1,19.1h-41.4L1609.4,1712.2z M1605.7,1689.4h41.4l3.1,19.1
			h-41.4L1605.7,1689.4z M1601.9,1666.6h41.4l3.1,19.1h-41.4L1601.9,1666.6z M1598.2,1643.8h41.4l3.1,19.1h-41.4L1598.2,1643.8z
			 M1594.4,1620.9h41.4l3.1,19.1h-41.4L1594.4,1620.9z M1590.7,1598.1h41.4l3.1,19.1h-41.4L1590.7,1598.1z M1586.9,1575.3h41.4
			l3.1,19.1h-41.4L1586.9,1575.3z M1583.2,1552.5h41.4l3.1,19.1h-41.4L1583.2,1552.5z M1579.4,1529.6h41.4l3.1,19.1h-41.4
			L1579.4,1529.6z M1575.7,1506.8h41.4l3.1,19.1h-41.4L1575.7,1506.8z"/>
	</g>
	<rect x="1668.4" y="1378.6" class="st13" width="131.5" height="23.2"/>
	<rect x="1639.2" y="1457.5" class="st18" width="50.9" height="9"/>
	<rect x="1658.8" y="1425.1" class="st18" width="50.9" height="9"/>
	<rect x="1805" y="801.6" class="st18" width="50.9" height="9"/>
	<rect x="1824.6" y="769.3" class="st18" width="50.9" height="9"/>
	<rect x="1846.1" y="737" class="st18" width="50.9" height="9"/>
	<rect x="1867.5" y="704.6" class="st18" width="50.9" height="9"/>
	<rect x="1619.8" y="1353.7" class="st18" width="50.9" height="9"/>
	<rect x="1588.3" y="1317.8" class="st18" width="50.9" height="9"/>
	<rect x="1556.8" y="1281.8" class="st18" width="50.9" height="9"/>
	<path class="st19" d="M1660.6,995.3l53.5-164.2c5.8-17.7,21.9-30.3,40.5-30.7c15.6-0.3,40.2,6.9,33.9,42
		c-2.3,12.8-7.9,24.7-15.9,34.8l-98,124L1660.6,995.3z"/>
	<g>
		<path class="st20" d="M1649.2,1043.2l20.5-38.1l-9.8-5.3l-20.5,38.1c-0.5,0.9-0.1,1.9,0.7,2.4l6.6,3.6
			C1647.7,1044.4,1648.8,1044.1,1649.2,1043.2z"/>
		<path class="st20" d="M1676,1004.2l2.1-3.9c0.3-0.6,0.1-1.3-0.5-1.6l-16.6-8.9c-0.6-0.3-1.3-0.1-1.6,0.5l-2.1,3.9L1676,1004.2z"/>
		<g>
			<polygon class="st21" points="1666.4,1011.3 1676,1004.2 1657.3,994.2 1656.7,1006 			"/>
		</g>
		<path class="st12" d="M1656.5,1020.9l4-7.5c0.1-0.2,0-0.4-0.1-0.5l-1.9-1c-0.2-0.1-0.4,0-0.5,0.1l-4,7.5c-0.1,0.2,0,0.4,0.1,0.5
			l1.9,1C1656.2,1021.2,1656.4,1021.1,1656.5,1020.9z"/>
	</g>
	<g>
		<path class="st12" d="M1580.7,1108.1c0,0,5.8-0.7,5.8-1.8l-5.8-25.2l-3.4-20.7l-3,17.3L1580.7,1108.1z"/>
		<path class="st22" d="M1579,1229.6c0,0-1.4,4.7-0.5,4.9c0.8,0.3,20,1.1,21.4,0.3s-2.7-2.2-2.7-2.2s-9-2.5-14.2-3
			C1582.8,1229.6,1579,1229.4,1579,1229.6z"/>
		<path class="st22" d="M1576.3,1166.4c1.1-2.2,2.3-3.3,4.4-3.3c2.2,0,4,1.9,4,4.1l-2.1,62.6c0,1-0.8,1.8-1.8,1.8
			c-1,0-1.8-0.8-1.8-1.8l-0.1-2.7C1575.3,1184.3,1573.1,1174.3,1576.3,1166.4z"/>
		<path class="st22" d="M1569.9,1111.1c1.6-7.3,5.5-8.6,8.2-8.5c0.2,0,0.4-0.1,0.6-0.1c2.2-0.2,4.2,1.6,4.2,3.8l2.2,62.6
			c0,1-0.7,1.8-1.7,1.9c-0.3,0-0.6,0-0.9-0.2c-2.2-0.6-4-2.4-4.5-4.7C1575.1,1153.9,1567.9,1120.6,1569.9,1111.1z"/>
		<path class="st23" d="M1590.4,1230.5c-2,0.9-5.3,1.4-9,1.4c-1.2,0-2.3-0.1-3.4-0.2c-0.2,1.7-0.4,3.7,0.5,3.8
			c1.4,0.2,22.3,0.8,22.4-0.2C1601.1,1233.5,1595.5,1231.7,1590.4,1230.5z"/>
		<path class="st22" d="M1545.9,1229.6c0,0-1.4,4.7-0.5,4.9c0.8,0.3,20,1.1,21.4,0.3s-2.7-2.2-2.7-2.2s-9-2.5-14.2-3
			C1549.7,1229.6,1545.9,1229.4,1545.9,1229.6z"/>
		<path class="st22" d="M1549.4,1166.2c1.3-2.1,2.6-3.1,4.7-2.9c2.2,0.2,3.9,2.2,3.6,4.4l-7.7,62.1c-0.1,1-1,1.7-2,1.6
			s-1.7-0.9-1.7-1.9l0.1-2.7C1546.7,1183.9,1545.4,1173.8,1549.4,1166.2z"/>
		<path class="st22" d="M1555.2,1109.9c3.1-6.8,7.2-7.2,9.8-6.5c0.2,0,0.4,0,0.6,0c2.2,0.3,3.7,2.5,3.3,4.7l-11.6,61.5
			c-0.2,1-1.1,1.6-2.1,1.5c-0.3-0.1-0.6-0.2-0.9-0.4c-2-1.1-3.4-3.2-3.4-5.6C1550.9,1152.8,1551.1,1118.8,1555.2,1109.9z"/>
		<path class="st23" d="M1557.3,1230.5c-2,0.9-5.3,1.4-9,1.4c-1.2,0-2.3-0.1-3.4-0.2c-0.2,1.7-0.4,3.7,0.5,3.8
			c1.4,0.2,22.3,0.8,22.4-0.2C1568,1233.5,1562.4,1231.7,1557.3,1230.5z"/>
		<path class="st24" d="M1554.2,1107.2c0,0-6.5,29.2-4.9,56.5c0,0-1.8,2.4-3.1,7.6c0,0,18.6,6.9,40.1,6.7c0,0,0.3-7.9,0-16
			c-0.3-8.1-3.5-55.7-3.5-55.7L1554.2,1107.2z"/>
		<path class="st22" d="M1637,1028.2c0.9-1.2,2.3-1.8,3.8-1.8c3.8,0,10.9,0.3,12.5,2.1c2.1,2.5-10,4.2-16.8,0.4L1637,1028.2z"/>
		<g>
			<path class="st12" d="M1639.8,1026.6c-8.6,1.7-26.7,8.3-31.4,11.3c-3.9,2.5-2.3,4.8-2.2,5c0.4,1.4,2.9,2.4,4.4,1.8l30.7-14.2
				L1639.8,1026.6z"/>
		</g>
		<path class="st12" d="M1567.4,1037.2c-5.1,0.9-3.8,5.1-3.8,5.2c-0.2,1.5,2.2,3.4,4.1,3.5l42.1-1.1c0.7,0,0.8-1.1,0.9-1.7
			c0-0.2,0-0.4-0.1-0.6c-0.4-1.6-2-2.9-3.5-3.3C1598.7,1036.9,1574,1036,1567.4,1037.2z"/>
		<g>
			<path class="st25" d="M1553.6,1111.4c-0.8,0.3-0.4-15.7,1.4-27.1c-0.4-9.9,2.2-33.5,4.5-40.7c2.8-9,7.3-13.9,14.8-10.3
				c2.4,1.1,4.6,7.7,5.6,14.8c1,7,2.4,5.6-1.5,15.9c-1.4,3.7,2.1,28.5,3.8,35.1c0.5,1.9,1.2,8.3,2.1,10.3c-1.4,1-2.7,1.7-4.2,2.2
				C1569.9,1115.4,1564,1108.1,1553.6,1111.4z"/>
		</g>
		<path class="st7" d="M1569.9,1030c0,0-10.2-0.4-12.8-7c-3.6-8.8,5.4-18.4,12.7-14.6c5,2.5,5.9,5.5,5.7,6.6
			S1569.9,1030,1569.9,1030z"/>
		<path class="st22" d="M1566.4,1021.3l7.6-0.5c0.1,1,0.6,11,0.1,14.7c-0.3,1.1-2.2,1.6-4.3,1.1c-1.8-0.5-3.2-1.7-3.2-2.7l0,0
			C1566.9,1031.5,1566.6,1024.9,1566.4,1021.3z"/>
		<path class="st22" d="M1565.9,1023c3,5.3,9.2,7.5,12.5,5.7s2.4-7.1-0.7-12.4c-3-5.3-7.2-6.5-10.5-4.7
			C1563.9,1013.5,1562.8,1017.7,1565.9,1023z"/>
		<path class="st7" d="M1571.2,1009.6c0,0,1.1,8.1-5.1,13.1c-3.2,2.6-6.3-2.8-6.3-2.8l1.8-6.7c0,0,2.2-3.3,4.5-3.8
			C1566.2,1009.4,1571.2,1009.6,1571.2,1009.6z"/>
		<path class="st7" d="M1575.3,1013.1c0,0-7.1-0.2-8.8-2.1c-1.7-1.9,1.7-2.7,1.7-2.7S1572.9,1008.5,1575.3,1013.1z"/>
		<path class="st7" d="M1557.6,1016.1c0,0,5.6-8.4-1.9-13.8c-7.5-5.4-15.4,0.3-15.6,6.5c-0.2,6.9,4.1,9.6,7.3,10.5
			C1550.5,1020.2,1555.2,1018.9,1557.6,1016.1z"/>
		<path class="st22" d="M1563.8,1026.1c1,1.1,3.4,1.6,4.3,0.8s0.2-1.8-0.8-3c-1-1.1-2.6-1.6-3.5-0.9
			C1562.9,1023.8,1562.7,1025,1563.8,1026.1z"/>
		<path class="st12" d="M1563.7,1034.4c0,0,2.8,4.4,8.8,5.6c0,0-6.5,58.2-4.7,65.2c0,0-12.4,0.2-15.1,1c0,0,1.7-38.6,2.7-45.8
			S1559.1,1039.7,1563.7,1034.4z"/>
		<path class="st12" d="M1559.9,1040.5c3.8-3.2,6.3,0.5,6.4,0.5c1.3,0.9,1.3,3.8,0.1,5.2l-27,30.3c-0.4,0.5-1.3-0.1-1.9-0.5
			c-0.2-0.1-0.3-0.3-0.4-0.5c-1-1.3-1-3.3-0.4-4.7C1540.2,1063.4,1554.9,1044.6,1559.9,1040.5z"/>
		<path class="st22" d="M1563.3,1095.8c-0.9,1.2-1.1,2.7-0.6,4.2c1.1,3.6,3.5,10.4,5.7,11.3c3,1.3,1-10.8-4.6-16.1L1563.3,1095.8z"
			/>
		<g>
			<path class="st12" d="M1562.2,1098.7c-7.4-4.7-21.9-17.4-25.1-21.9c-2.7-3.8-0.4-5.3-0.3-5.4c0.9-1.1,3.5-1.2,4.8-0.1l23.4,24.3
				L1562.2,1098.7z"/>
		</g>
	</g>
	<path class="st26" d="M1720.8,549.3c11.8,7.9,19.6,21.4,19.6,36.6c0,24.3-19.7,44.1-44.1,44.1c-15.3,0-28.7-7.8-36.6-19.6
		c5.7,21.2,25.1,36.7,48.1,36.7c27.5,0,49.8-22.3,49.8-49.8C1757.5,574.4,1742,555,1720.8,549.3z"/>
</g>
</svg>
