<?xml version="1.0" encoding="iso-8859-1"?>
<!-- Generator: Adobe Illustrator 26.2.1, SVG Export Plug-In . SVG Version: 6.00 Build 0)  -->
<!DOCTYPE svg PUBLIC "-//W3C//DTD SVG 1.1//EN" "http://www.w3.org/Graphics/SVG/1.1/DTD/svg11.dtd" [
	<!ENTITY ns_extend "http://ns.adobe.com/Extensibility/1.0/">
	<!ENTITY ns_ai "http://ns.adobe.com/AdobeIllustrator/10.0/">
	<!ENTITY ns_graphs "http://ns.adobe.com/Graphs/1.0/">
	<!ENTITY ns_vars "http://ns.adobe.com/Variables/1.0/">
	<!ENTITY ns_imrep "http://ns.adobe.com/ImageReplacement/1.0/">
	<!ENTITY ns_sfw "http://ns.adobe.com/SaveForWeb/1.0/">
	<!ENTITY ns_custom "http://ns.adobe.com/GenericCustomNamespace/1.0/">
	<!ENTITY ns_adobe_xpath "http://ns.adobe.com/XPath/1.0/">
]>
<svg version="1.1" xmlns:x="&ns_extend;" xmlns:i="&ns_ai;" xmlns:graph="&ns_graphs;"
	 xmlns="http://www.w3.org/2000/svg" xmlns:xlink="http://www.w3.org/1999/xlink" x="0px" y="0px" viewBox="0 0 4637.985 2500"
	 style="enable-background:new 0 0 4637.985 2500;" xml:space="preserve">
<metadata>
	<sfw  xmlns="&ns_sfw;">
		<slices></slices>
		<sliceSourceBounds  bottomLeftOrigin="true" height="2500" width="4637.985" x="6763.148" y="-6350"></sliceSourceBounds>
	</sfw>
</metadata>
<g id="Background">
	<rect x="0" style="fill:#FFFFFF;" width="4637.985" height="2500"/>
</g>
<g id="Illustration">
	<g id="Crypto_trading_bot_1_">
		<circle style="fill:#F2E6DC;" cx="2336.978" cy="1250" r="915"/>
		<g>
			<path style="fill:#F7F1EB;" d="M1728.989,638.005c-25.757-75.26-58.361-141.794-92.553-193.082l-32.149,110.285l1.205-152.01
				c-41.67-49.966-83.368-75.073-115.974-63.914c-67.847,23.22-70.635,194.609-6.226,382.808
				c64.409,188.199,171.623,321.941,239.47,298.721C1790.611,997.592,1793.398,826.204,1728.989,638.005z"/>
			<path style="fill:#E6D0BE;" d="M1899.94,646.886l-84.234,33.592l85.026-70.772c-0.436-151.811-46.037-270.737-109.267-274.438
				c-69.789-4.084-134.625,133.751-144.815,307.865c-10.19,174.113,38.125,318.571,107.914,322.656
				c69.79,4.084,134.625-133.752,144.816-307.865C1899.596,654.23,1899.776,650.553,1899.94,646.886z"/>
			<path style="fill:#E6D0BE;" d="M1447.929,891.42l66.055,8.378l-73.459-34.66c-27.625-107.988-17.094-200.913,27.169-215.178
				c48.855-15.745,120.304,70.299,159.585,192.185c39.281,121.886,31.52,233.457-17.335,249.202
				c-48.855,15.745-120.303-70.299-159.585-192.185C1449.525,896.577,1448.721,893.997,1447.929,891.42z"/>
			<path style="fill:#E6D0BE;" d="M1790.976,1454.151c-1.12,0-2.078-0.849-2.192-1.985
				c-34.436-344.482-108.635-609.26-164.817-770.722c-60.873-174.945-114.29-269.642-114.822-270.579
				c-0.602-1.057-0.232-2.403,0.826-3.006c1.061-0.603,2.405-0.233,3.007,0.827c0.534,0.939,54.104,95.888,115.105,271.167
				c56.278,161.71,130.602,426.891,165.089,771.874c0.121,1.212-0.763,2.293-1.974,2.414
				C1791.123,1454.146,1791.049,1454.151,1790.976,1454.151z"/>
			<path style="fill:#F2E6DC;" d="M1762.732,1337.033c-1.137,0-2.102-0.872-2.195-2.026c-40.565-496.61,8.114-881.417,8.61-885.248
				c0.157-1.208,1.263-2.048,2.47-1.903c1.208,0.157,2.059,1.264,1.903,2.472c-0.496,3.824-49.113,388.201-8.589,884.322
				c0.099,1.212-0.804,2.278-2.017,2.377C1762.852,1337.03,1762.792,1337.033,1762.732,1337.033z"/>
			<path style="fill:#F7F1EB;" d="M1657.188,1481.851c-0.018,0-0.037,0-0.055,0c-1.218-0.03-2.18-1.042-2.15-2.259
				c5.276-214.91-35.378-405.12-70.413-526.844c-38.532-133.872-79.663-218.938-83.794-223.774c-0.853-0.728-1.029-2-0.374-2.939
				c0.698-0.993,2.073-1.238,3.07-0.543c4.049,2.827,45.594,88.882,84.414,222.846c35.559,122.712,76.828,314.508,71.504,531.362
				C1659.361,1480.899,1658.381,1481.851,1657.188,1481.851z M1500.938,729.101c0.003,0,0.005,0.002,0.009,0.004
				C1500.944,729.103,1500.942,729.101,1500.938,729.101z"/>
		</g>
		<g>
			<g>
				<path style="fill:#E6D0BE;" d="M2517.514,523.3h-17.687c-1.584-8.621-3.843-17.005-6.713-25.1l15.306-8.837l-29.928-51.837
					l-15.341,8.857c-5.63-6.591-11.77-12.73-18.36-18.36l8.857-15.341l-51.837-29.928l-8.837,15.306
					c-8.095-2.871-16.479-5.13-25.1-6.714v-17.686h-59.856v17.686c-8.621,1.584-17.005,3.842-25.1,6.714l-8.837-15.306
					l-51.837,29.928l8.857,15.341c-6.591,5.63-12.73,11.769-18.36,18.36l-15.341-8.857l-29.927,51.837l15.306,8.837
					c-2.871,8.095-5.129,16.479-6.713,25.1h-17.686l0,0v59.856h17.687c1.584,8.621,3.843,17.005,6.713,25.1l-15.306,8.837
					l29.927,51.837l15.341-8.857c5.63,6.591,11.77,12.73,18.36,18.36l-8.857,15.341l51.837,29.928v0l8.837-15.306
					c8.095,2.871,16.479,5.13,25.1,6.714v17.686h59.856v-17.686c8.621-1.584,17.005-3.842,25.1-6.714l8.837,15.306l0,0
					l51.837-29.928l-8.857-15.341c6.591-5.63,12.73-11.769,18.36-18.36l15.341,8.857l29.927-51.837l-15.306-8.837
					c2.871-8.095,5.129-16.479,6.713-25.1h17.687V523.3z M2435.824,556.433c-1.636,51.274-43.397,93.036-94.671,94.673
					c-56.619,1.808-102.89-44.463-101.083-101.082c1.636-51.274,43.397-93.036,94.671-94.673
					C2391.36,453.543,2437.632,499.814,2435.824,556.433z"/>
			</g>
			<path style="fill:#F2E6DC;" d="M2337.947,686.368c-73.414,0-133.14-59.726-133.14-133.14c0-32.078,11.568-63.063,32.574-87.254
				c20.796-23.947,49.431-39.717,80.63-44.402c1.19-0.172,2.326,0.648,2.507,1.854c0.181,1.204-0.648,2.328-1.853,2.509
				c-62.396,9.368-109.448,64.093-109.448,127.294c0,70.983,57.748,128.73,128.73,128.73c58.649,0,109.89-39.596,124.609-96.289
				c0.306-1.18,1.505-1.897,2.687-1.58c1.18,0.306,1.886,1.509,1.581,2.687C2451.601,645.415,2398.606,686.368,2337.947,686.368z"/>
		</g>
		<g>
			<g>
				<path style="fill:#363E44;" d="M2944.249,1582.928H1594.024c-1.218,0-2.205-0.986-2.205-2.205V557.308
					c0-1.219,0.987-2.205,2.205-2.205h1350.224c1.219,0,2.205,0.986,2.205,2.205v1023.415
					C2946.454,1581.942,2945.468,1582.928,2944.249,1582.928z M1596.229,1578.518h1345.815V559.513H1596.229V1578.518z"/>
				<g>
					<rect x="1635.258" y="603.527" style="fill:#FFFFFF;" width="1264.632" height="858.971"/>
					<path style="fill:#E6D0BE;" d="M2899.89,1464.703H1635.258c-1.218,0-2.205-0.986-2.205-2.205V603.528
						c0-1.219,0.987-2.205,2.205-2.205H2899.89c1.219,0,2.205,0.986,2.205,2.205v858.971
						C2902.095,1463.717,2901.108,1464.703,2899.89,1464.703z M1637.463,1460.294h1260.222V605.732H1637.463V1460.294z"/>
				</g>
			</g>
			<g>
				<g>
					<path style="fill:#D3BBA3;" d="M2126.38,1424.101h-431.045c-1.218,0-2.205-0.986-2.205-2.205v-325.028
						c0-1.219,0.987-2.205,2.205-2.205s2.205,0.986,2.205,2.205v322.823h428.84c1.218,0,2.205,0.986,2.205,2.205
						C2128.585,1423.115,2127.598,1424.101,2126.38,1424.101z"/>
					<rect x="2771.396" y="1209.507" style="fill:#F2E6DC;" width="63.503" height="174.122"/>
					<rect x="2666.601" y="1174.819" style="fill:#F2E6DC;" width="63.503" height="208.81"/>
					<rect x="2561.805" y="1046.909" style="fill:#F2E6DC;" width="63.503" height="336.72"/>
					<rect x="2457.009" y="1099.709" style="fill:#F2E6DC;" width="63.503" height="283.92"/>
					<rect x="2352.064" y="960.401" style="fill:#F2E6DC;" width="63.503" height="423.23"/>
					<rect x="2247.268" y="1044.039" style="fill:#F2E6DC;" width="63.503" height="339.592"/>
					<rect x="2142.472" y="1058.487" style="fill:#F2E6DC;" width="63.503" height="325.144"/>
					<rect x="2037.677" y="855.628" style="fill:#F2E6DC;" width="63.503" height="528.003"/>
					<rect x="1932.808" y="1134.098" style="fill:#F2E6DC;" width="63.503" height="249.532"/>
					<rect x="1828.012" y="1012.523" style="fill:#F2E6DC;" width="63.503" height="371.108"/>
					<rect x="1723.068" y="658.974" style="fill:#F2E6DC;" width="63.503" height="724.657"/>
				</g>
				<g>
					
						<rect x="2771.718" y="1044.958" transform="matrix(-1 -1.224647e-16 1.224647e-16 -1 5608.561 2327.5867)" style="fill:#E6D0BE;" width="65.124" height="237.67"/>
					
						<rect x="2664.297" y="1061.072" transform="matrix(-1 -1.224647e-16 1.224647e-16 -1 5393.7178 2359.813)" style="fill:#E6D0BE;" width="65.124" height="237.67"/>
					
						<rect x="2562.246" y="979.162" transform="matrix(-1 -1.224647e-16 1.224647e-16 -1 5189.6167 2111.4006)" style="fill:#E6D0BE;" width="65.124" height="153.076"/>
					
						<rect x="2770.711" y="1161.779" transform="matrix(-1 -1.224647e-16 1.224647e-16 -1 5606.8823 2481.6694)" style="fill:#D3BBA3;" width="65.46" height="158.111"/>
					<path style="fill:#D3BBA3;" d="M2803.946,1363.385c-0.002,0-0.007,0-0.011,0c-1.217-0.006-2.201-0.997-2.194-2.216
						l1.128-252.788c0.007-1.214,0.993-2.194,2.205-2.194c0.002,0,0.007,0,0.011,0c1.217,0.006,2.201,0.997,2.194,2.216
						l-1.128,252.788C2806.144,1362.405,2805.158,1363.385,2803.946,1363.385z"/>
					<path style="fill:#E6D0BE;" d="M2805.074,1110.597c-0.004,0-0.009,0-0.013,0c-1.217-0.006-2.198-0.999-2.192-2.218
						l0.885-164.143c0.006-1.212,0.992-2.192,2.205-2.192c0.004,0,0.009,0,0.013,0c1.217,0.006,2.198,0.999,2.192,2.218
						l-0.885,164.143C2807.272,1109.618,2806.286,1110.597,2805.074,1110.597z"/>
					
						<rect x="1931.816" y="873.755" transform="matrix(-1 -1.224647e-16 1.224647e-16 -1 3928.7563 1985.1804)" style="fill:#E6D0BE;" width="65.124" height="237.67"/>
					
						<rect x="1930.809" y="990.576" transform="matrix(-1 -1.224647e-16 1.224647e-16 -1 3927.0779 2139.2632)" style="fill:#D3BBA3;" width="65.46" height="158.111"/>
					<path style="fill:#D3BBA3;" d="M1964.042,1192.182c-0.003,0-0.006,0-0.01,0c-1.218-0.006-2.201-0.997-2.195-2.216
						l1.129-252.788c0.005-1.214,0.992-2.194,2.205-2.194c0.003,0,0.006,0,0.01,0c1.218,0.006,2.201,0.997,2.195,2.216
						l-1.129,252.788C1966.241,1191.202,1965.255,1192.182,1964.042,1192.182z"/>
					<path style="fill:#E6D0BE;" d="M1965.171,939.394c-0.004,0-0.008,0-0.012,0c-1.218-0.006-2.199-0.999-2.193-2.218
						l0.885-164.143c0.007-1.212,0.993-2.192,2.205-2.192c0.004,0,0.008,0,0.012,0c1.218,0.006,2.199,0.999,2.193,2.218
						l-0.885,164.143C1967.37,938.415,1966.384,939.394,1965.171,939.394z"/>
					<path style="fill:#E6D0BE;" d="M2488.85,1285.829c-0.004,0-0.009,0-0.011,0c-1.219-0.006-2.2-0.999-2.194-2.215l0.887-166.156
						c0.006-1.214,0.993-2.194,2.205-2.194c0.004,0,0.009,0,0.011,0c1.219,0.006,2.2,0.999,2.194,2.216l-0.887,166.156
						C2491.049,1284.849,2490.062,1285.829,2488.85,1285.829z"/>
					<path style="fill:#E6D0BE;" d="M2593.588,1211.976c-0.004,0-0.006,0-0.011,0c-1.219-0.006-2.2-0.999-2.194-2.216l0.885-176.898
						c0.006-1.214,0.993-2.194,2.205-2.194c0.004,0,0.006,0,0.011,0c1.219,0.006,2.2,0.999,2.194,2.216l-0.885,176.898
						C2595.786,1210.996,2594.8,1211.976,2593.588,1211.976z"/>
					
						<rect x="2141.288" y="981.512" transform="matrix(-1 -1.224647e-16 1.224647e-16 -1 4347.7007 2087.9023)" style="fill:#E6D0BE;" width="65.124" height="124.878"/>
					<path style="fill:#E6D0BE;" d="M2172.629,1193.849c-0.003,0-0.008,0-0.011,0c-1.218-0.006-2.2-0.999-2.194-2.216l0.886-176.898
						c0.007-1.214,0.993-2.194,2.205-2.194c0.003,0,0.008,0,0.011,0c1.218,0.006,2.2,0.999,2.194,2.216l-0.886,176.898
						C2174.827,1192.869,2173.841,1193.849,2172.629,1193.849z"/>
					
						<rect x="2248.038" y="1124.182" transform="matrix(-1 -1.224647e-16 1.224647e-16 -1 4561.2007 2401.439)" style="fill:#EFBC73;" width="65.124" height="153.076"/>
					<path style="fill:#EFBC73;" d="M2279.379,1356.994c-0.003,0-0.008,0-0.011,0c-1.218-0.006-2.2-0.999-2.194-2.216l0.886-176.898
						c0.006-1.214,0.993-2.194,2.205-2.194c0.003,0,0.007,0,0.011,0c1.218,0.007,2.2,0.999,2.194,2.216l-0.886,176.898
						C2281.577,1356.015,2280.591,1356.994,2279.379,1356.994z"/>
					<path style="fill:#E6D0BE;" d="M2386.128,1038.088c-0.002,0-0.006,0-0.011,0c-1.217-0.006-2.2-0.997-2.194-2.216l0.887-198.382
						c0.006-1.214,0.992-2.194,2.205-2.194c0.002,0,0.006,0,0.011,0c1.217,0.006,2.2,0.997,2.194,2.216l-0.887,198.382
						C2388.327,1037.108,2387.34,1038.088,2386.128,1038.088z"/>
					<path style="fill:#E6D0BE;" d="M2694.295,1350.281c-0.002,0-0.006,0-0.011,0c-1.217-0.006-2.2-0.997-2.194-2.216l0.885-198.382
						c0.007-1.214,0.993-2.194,2.205-2.194c0.002,0,0.007,0,0.011,0c1.217,0.006,2.2,0.997,2.194,2.215l-0.885,198.382
						C2696.493,1349.301,2695.507,1350.281,2694.295,1350.281z"/>
					
						<rect x="2352.774" y="903.296" transform="matrix(-1 -1.224647e-16 1.224647e-16 -1 4770.6729 2044.2622)" style="fill:#E6D0BE;" width="65.124" height="237.67"/>
					
						<rect x="2456.167" y="1140.295" transform="matrix(-1 -1.224647e-16 1.224647e-16 -1 4977.4595 2371.2268)" style="fill:#E6D0BE;" width="65.124" height="90.637"/>
					<path style="fill:#E6D0BE;" d="M2380.086,1191.163c-0.002,0-0.006,0-0.011,0c-1.217-0.006-2.2-0.997-2.194-2.216l0.885-198.382
						c0.007-1.214,0.993-2.194,2.205-2.194c0.002,0,0.006,0,0.011,0c1.217,0.006,2.2,0.997,2.194,2.216l-0.885,198.382
						C2382.285,1190.184,2381.299,1191.163,2380.086,1191.163z"/>
					
						<rect x="2663.962" y="1018.774" transform="matrix(-1 -1.224647e-16 1.224647e-16 -1 5393.3848 2151.0125)" style="fill:#D3BBA3;" width="65.46" height="113.464"/>
					<path style="fill:#D3BBA3;" d="M2695.18,1220.38c-0.002,0-0.006,0-0.011,0c-1.217-0.006-2.201-0.997-2.194-2.216l1.128-252.788
						c0.007-1.214,0.993-2.194,2.205-2.194c0.002,0,0.007,0,0.011,0c1.217,0.007,2.201,0.997,2.194,2.216l-1.128,252.788
						C2697.378,1219.4,2696.392,1220.38,2695.18,1220.38z"/>
					
						<rect x="2770.712" y="940.222" transform="matrix(-1 -1.224647e-16 1.224647e-16 -1 5606.8853 1993.9084)" style="fill:#EFBC73;" width="65.46" height="113.464"/>
					<path style="fill:#EFBC73;" d="M2801.93,1085.431c-0.004,0-0.009,0-0.013,0c-1.217-0.006-2.198-0.999-2.192-2.218l1.128-196.39
						c0.006-1.212,0.992-2.192,2.205-2.192c0.004,0,0.009,0,0.013,0c1.217,0.006,2.198,0.999,2.192,2.218l-1.128,196.39
						C2804.129,1084.452,2803.143,1085.431,2801.93,1085.431z"/>
					
						<rect x="2351.767" y="1105.383" transform="matrix(-1 -1.224647e-16 1.224647e-16 -1 4768.9941 2368.8767)" style="fill:#D3BBA3;" width="65.46" height="158.111"/>
					<path style="fill:#D3BBA3;" d="M2385,1322.43c-0.002,0-0.007,0-0.009,0c-1.219-0.004-2.201-0.997-2.196-2.213l1.128-268.23
						c0.004-1.214,0.99-2.196,2.205-2.196c0.002,0,0.007,0,0.009,0c1.219,0.004,2.201,0.997,2.196,2.213l-1.128,268.23
						C2387.2,1321.448,2386.214,1322.43,2385,1322.43z"/>
					<path style="fill:#E6D0BE;" d="M1860.435,1090.454c-0.004,0-0.008,0-0.012,0c-1.218-0.006-2.199-0.999-2.193-2.218
						l0.886-162.797c0.006-1.212,0.993-2.192,2.205-2.192c0.004,0,0.008,0,0.012,0c1.218,0.006,2.199,0.999,2.193,2.218
						l-0.886,162.797C1862.633,1089.475,1861.647,1090.454,1860.435,1090.454z"/>
					
						<rect x="1827.08" y="1008.703" transform="matrix(-1 -1.224647e-16 1.224647e-16 -1 3719.2844 2202.0376)" style="fill:#E6D0BE;" width="65.124" height="184.631"/>
					
						<rect x="1826.073" y="1191.991" transform="matrix(-1 -1.224647e-16 1.224647e-16 -1 3717.606 2507.8535)" style="fill:#D3BBA3;" width="65.46" height="123.87"/>
					<path style="fill:#D3BBA3;" d="M1859.307,1349.622c-0.003,0-0.008,0-0.011,0c-1.218-0.006-2.201-0.999-2.194-2.216
						l1.128-221.892c0.006-1.219,0.959-2.233,2.216-2.194c1.218,0.007,2.201,0.999,2.194,2.216l-1.128,221.892
						C1861.505,1348.642,1860.519,1349.622,1859.307,1349.622z"/>
					
						<rect x="2456.503" y="1018.774" transform="matrix(-1 -1.224647e-16 1.224647e-16 -1 4978.4663 2195.6594)" style="fill:#D3BBA3;" width="65.46" height="158.111"/>
					<path style="fill:#D3BBA3;" d="M2489.738,1220.38c-0.002,0-0.007,0-0.011,0c-1.216-0.006-2.2-0.997-2.194-2.216l1.128-252.788
						c0.007-1.214,0.993-2.194,2.205-2.194c0.002,0,0.006,0,0.011,0c1.217,0.007,2.2,0.997,2.194,2.216l-1.128,252.788
						C2491.936,1219.4,2490.95,1220.38,2489.738,1220.38z"/>
					
						<rect x="2561.239" y="938.208" transform="matrix(-1 -1.224647e-16 1.224647e-16 -1 5187.9385 1989.8802)" style="fill:#D3BBA3;" width="65.46" height="113.464"/>
					<path style="fill:#D3BBA3;" d="M2172.875,1039.106c-0.003,0-0.007,0-0.01,0c-1.218-0.004-2.2-0.997-2.195-2.214l1.107-251.78
						c0.005-1.214,0.991-2.196,2.205-2.196c0.003,0,0.006,0,0.01,0c1.218,0.004,2.2,0.997,2.195,2.213l-1.107,251.78
						C2175.075,1038.125,2174.089,1039.106,2172.875,1039.106z"/>
					
						<rect x="2141.624" y="852.189" transform="matrix(-1 -1.224647e-16 1.224647e-16 -1 4348.1201 1846.9185)" style="fill:#D3BBA3;" width="64.872" height="142.541"/>
					
						<rect x="2036.552" y="761.634" transform="matrix(-1 -1.224647e-16 1.224647e-16 -1 4138.2285 1676.3435)" style="fill:#E6D0BE;" width="65.124" height="153.076"/>
					<path style="fill:#E6D0BE;" d="M2067.893,994.448c-0.003,0-0.008,0-0.011,0c-1.218-0.006-2.2-0.999-2.194-2.216l0.886-176.898
						c0.006-1.214,0.992-2.194,2.205-2.194c0.003,0,0.007,0,0.011,0c1.218,0.006,2.2,0.999,2.194,2.216l-0.886,176.898
						C2070.091,993.468,2069.105,994.448,2067.893,994.448z"/>
					<path style="fill:#D3BBA3;" d="M2068.139,888.044c-0.002,0-0.004,0-0.006,0c-1.218-0.004-2.202-0.993-2.198-2.211
						l1.107-388.731c0.003-1.214,0.991-2.198,2.205-2.198c0.002,0,0.004,0,0.007,0c1.218,0.004,2.202,0.993,2.198,2.211
						l-1.107,388.731C2070.341,887.06,2069.353,888.044,2068.139,888.044z"/>
					
						<rect x="2036.888" y="619.972" transform="matrix(-1 -1.224647e-16 1.224647e-16 -1 4138.6479 1472.2426)" style="fill:#D3BBA3;" width="64.872" height="232.299"/>
					<path style="fill:#D3BBA3;" d="M2281.02,1188.153c-0.004,0-0.009,0-0.013,0c-1.218-0.006-2.198-0.999-2.192-2.218
						l1.128-200.419c0.006-1.212,0.992-2.192,2.205-2.192c0.004,0,0.009,0,0.013,0c1.218,0.006,2.198,0.999,2.192,2.218
						l-1.128,200.419C2283.219,1187.174,2282.233,1188.153,2281.02,1188.153z"/>
					
						<rect x="2247.786" y="1038.916" transform="matrix(-1 -1.224647e-16 1.224647e-16 -1 4561.0332 2191.2957)" style="fill:#D3BBA3;" width="65.46" height="113.464"/>
					
						<rect x="1724.358" y="731.422" transform="matrix(-1 -1.224647e-16 1.224647e-16 -1 3513.8406 1615.9189)" style="fill:#E6D0BE;" width="65.124" height="153.076"/>
					<path style="fill:#E6D0BE;" d="M1755.699,964.235c-0.003,0-0.007,0-0.011,0c-1.218-0.007-2.201-0.999-2.194-2.216
						l0.885-176.898c0.008-1.219,1.092-2.166,2.216-2.194c1.218,0.006,2.2,0.999,2.194,2.216l-0.885,176.898
						C1757.898,963.255,1756.912,964.235,1755.699,964.235z"/>
					<path style="fill:#D3BBA3;" d="M1757.34,795.394c-0.004,0-0.009,0-0.013,0c-1.218-0.007-2.198-0.999-2.192-2.218l1.128-200.421
						c0.006-1.212,0.993-2.192,2.205-2.192c0.004,0,0.009,0,0.013,0c1.218,0.006,2.198,0.999,2.192,2.218l-1.128,200.421
						C1759.539,794.414,1758.552,795.394,1757.34,795.394z"/>
					
						<rect x="1724.106" y="646.156" transform="matrix(-1 -1.224647e-16 1.224647e-16 -1 3513.6729 1405.7754)" style="fill:#D3BBA3;" width="65.46" height="113.464"/>
					<path style="fill:#D3BBA3;" d="M2594.473,1090.467c-0.004,0-0.009,0-0.013,0c-1.217-0.006-2.198-0.999-2.192-2.218
						l1.128-203.442c0.007-1.212,0.993-2.192,2.205-2.192c0.004,0,0.009,0,0.013,0c1.217,0.006,2.198,0.999,2.192,2.218
						l-1.128,203.442C2596.671,1089.488,2595.685,1090.467,2594.473,1090.467z"/>
					
						<rect x="2351.769" y="1198.679" transform="matrix(-1 -1.224647e-16 1.224647e-16 -1 4768.9971 2527.8894)" style="fill:#EFBC73;" width="65.46" height="130.531"/>
					<path style="fill:#EFBC73;" d="M2382.987,1365.4c-0.004,0-0.007,0-0.011,0c-1.219-0.006-2.201-0.999-2.194-2.216l1.128-225.934
						c0.007-1.214,0.993-2.194,2.205-2.194c0.004,0,0.007,0,0.011,0c1.219,0.006,2.2,0.999,2.194,2.216l-1.128,225.934
						C2385.185,1364.421,2384.199,1365.4,2382.987,1365.4z"/>
					
						<rect x="2035.546" y="1071.787" transform="matrix(-1 -1.224647e-16 1.224647e-16 -1 4136.5527 2274.1057)" style="fill:#EFBC73;" width="65.46" height="130.531"/>
					<path style="fill:#EFBC73;" d="M2066.764,1238.507c-0.003,0-0.008,0-0.011,0c-1.218-0.006-2.2-0.999-2.194-2.216l1.128-225.932
						c0.006-1.219,0.939-2.142,2.215-2.194c1.218,0.006,2.201,0.999,2.194,2.216l-1.128,225.931
						C2068.963,1237.527,2067.977,1238.507,2066.764,1238.507z"/>
					
						<rect x="1930.81" y="741.544" transform="matrix(-1 -1.224647e-16 1.224647e-16 -1 3927.0806 1642.3228)" style="fill:#EFBC73;" width="65.46" height="159.235"/>
					<path style="fill:#EFBC73;" d="M1962.029,944.441c-0.003,0-0.005,0-0.009,0c-1.218-0.004-2.201-0.997-2.196-2.213
						l1.128-275.615c0.005-1.214,0.991-2.196,2.205-2.196c0.003,0,0.005,0,0.009,0c1.218,0.004,2.202,0.997,2.196,2.213
						l-1.128,275.615C1964.228,943.459,1963.242,944.441,1962.029,944.441z"/>
					
						<rect x="1723.352" y="885.428" transform="matrix(-1 -1.224647e-16 1.224647e-16 -1 3512.1648 1919.8047)" style="fill:#EFBC73;" width="65.46" height="148.949"/>
					<path style="fill:#EFBC73;" d="M1754.57,1075.361c-0.003,0-0.006,0-0.01,0c-1.218-0.004-2.2-0.997-2.195-2.213l1.129-257.811
						c0.005-1.214,0.992-2.196,2.205-2.196c0.003,0,0.006,0,0.01,0c1.218,0.004,2.2,0.997,2.195,2.213l-1.129,257.811
						C1756.77,1074.379,1755.783,1075.361,1754.57,1075.361z"/>
					
						<rect x="1826.074" y="913.626" transform="matrix(-1 -1.224647e-16 1.224647e-16 -1 3717.6086 1976.2009)" style="fill:#EFBC73;" width="65.46" height="148.949"/>
					<path style="fill:#EFBC73;" d="M1857.292,1103.559c-0.003,0-0.006,0-0.01,0c-1.218-0.004-2.201-0.997-2.195-2.214
						l1.128-257.811c0.005-1.214,0.992-2.196,2.205-2.196c0.003,0,0.006,0,0.01,0c1.218,0.004,2.201,0.997,2.195,2.214
						l-1.128,257.811C1859.492,1102.577,1858.506,1103.559,1857.292,1103.559z"/>
					
						<rect x="2142.968" y="1195.608" transform="matrix(-1 -1.224647e-16 1.224647e-16 -1 4348.71 2540.1641)" style="fill:#EFBC73;" width="62.775" height="148.949"/>
					<path style="fill:#EFBC73;" d="M2172.906,1385.541c-0.003,0-0.006,0-0.01,0c-1.218-0.004-2.201-0.997-2.195-2.213
						l1.082-257.811c0.005-1.214,0.991-2.196,2.205-2.196c0.003,0,0.006,0,0.01,0c1.218,0.004,2.2,0.997,2.195,2.213l-1.082,257.811
						C2175.105,1384.559,2174.119,1385.541,2172.906,1385.541z"/>
					
						<rect x="2247.704" y="925.711" transform="matrix(-1 -1.224647e-16 1.224647e-16 -1 4560.8677 2000.3708)" style="fill:#E6D0BE;" width="65.46" height="148.949"/>
					<path style="fill:#E6D0BE;" d="M2278.922,1115.644c-0.003,0-0.007,0-0.01,0c-1.218-0.004-2.2-0.997-2.195-2.214l1.128-257.811
						c0.005-1.214,0.992-2.196,2.205-2.196c0.003,0,0.007,0,0.01,0c1.218,0.004,2.2,0.997,2.195,2.214l-1.128,257.811
						C2281.122,1114.662,2280.135,1115.644,2278.922,1115.644z"/>
					
						<rect x="2455.162" y="947.867" transform="matrix(-1 -1.224647e-16 1.224647e-16 -1 4975.7832 2044.6823)" style="fill:#EFBC73;" width="65.46" height="148.949"/>
					<path style="fill:#EFBC73;" d="M2486.381,1137.8c-0.002,0-0.006,0-0.009,0c-1.219-0.004-2.2-0.997-2.196-2.214l1.128-257.811
						c0.004-1.214,0.99-2.196,2.205-2.196c0.002,0,0.006,0,0.009,0c1.219,0.004,2.2,0.997,2.196,2.213l-1.128,257.811
						C2488.581,1136.818,2487.595,1137.8,2486.381,1137.8z"/>
					
						<rect x="2559.898" y="833.06" transform="matrix(-1 -1.224647e-16 1.224647e-16 -1 5185.2554 1815.0687)" style="fill:#EFBC73;" width="65.46" height="148.949"/>
					<path style="fill:#EFBC73;" d="M2591.116,1022.992c-0.002,0-0.006,0-0.009,0c-1.219-0.004-2.2-0.997-2.196-2.213l1.128-257.811
						c0.004-1.214,0.99-2.196,2.205-2.196c0.002,0,0.006,0,0.009,0c1.219,0.004,2.2,0.997,2.196,2.213l-1.128,257.811
						C2593.317,1022.01,2592.331,1022.992,2591.116,1022.992z"/>
					
						<rect x="2664.634" y="1091.928" transform="matrix(-1 -1.224647e-16 1.224647e-16 -1 5394.7275 2320.7798)" style="fill:#EFBC73;" width="65.46" height="136.924"/>
					<path style="fill:#EFBC73;" d="M2695.852,1266.707c-0.004,0-0.007,0-0.011,0c-1.216-0.006-2.2-0.997-2.194-2.216l1.128-236.999
						c0.007-1.214,0.993-2.194,2.205-2.194c0.004,0,0.006,0,0.011,0c1.217,0.006,2.2,0.997,2.194,2.216l-1.128,236.999
						C2698.05,1265.727,2697.064,1266.707,2695.852,1266.707z"/>
				</g>
			</g>
		</g>
		<g>
			<g>
				<path style="fill:#84524D;" d="M2941.834,839.694l-56.057-14.403c9.881-38.298,12.11-77.378,6.625-116.156
					c-4.266-30.157-13.164-59.459-26.448-87.092l52.187-24.986c15.856,32.982,26.478,67.973,31.574,104.003
					C2956.268,747.379,2953.615,794.021,2941.834,839.694z"/>
				<path style="fill:#363E44;" d="M2887.985,689.744c-1.094,0-2.043-0.812-2.185-1.925c-0.155-1.208,0.7-2.312,1.907-2.467
					l57.735-7.39c1.214-0.138,2.312,0.702,2.467,1.908c0.155,1.208-0.7,2.312-1.908,2.468l-57.734,7.39
					C2888.172,689.737,2888.078,689.744,2887.985,689.744z"/>
				<path style="fill:#363E44;" d="M2892.238,713.135c-1.163,0-2.136-0.911-2.198-2.084c-0.067-1.216,0.866-2.257,2.08-2.321
					l57.734-3.135c1.197-0.14,2.257,0.866,2.321,2.08c0.067,1.216-0.866,2.256-2.08,2.321l-57.734,3.135
					C2892.319,713.135,2892.279,713.135,2892.238,713.135z"/>
				<path style="fill:#363E44;" d="M2952.101,735.517c-0.013,0-0.028,0-0.043,0l-57.734-1.115c-1.217-0.024-2.186-1.029-2.162-2.248
					c0.024-1.201,1.006-2.162,2.205-2.162c0.013,0,0.028,0,0.043,0l57.734,1.115c1.217,0.024,2.186,1.029,2.162,2.248
					C2954.282,734.557,2953.301,735.517,2952.101,735.517z"/>
			</g>
			<g>
				<rect x="2805.506" y="748.89" style="fill:#84524D;" width="380.477" height="442.491"/>
				<rect x="2692.479" y="748.89" style="fill:#D87355;" width="380.476" height="442.491"/>
				<path style="fill:#FFFFFF;" d="M2992.184,1191.424h-308.853c-1.219,0-2.205-0.986-2.205-2.205V842.828
					c0-1.219,0.986-2.205,2.205-2.205h308.853c1.219,0,2.205,0.986,2.205,2.205v346.391
					C2994.389,1190.438,2993.403,1191.424,2992.184,1191.424z M2685.536,1187.014h304.444V845.033h-304.444V1187.014z"/>
				<path style="fill:#D87355;" d="M3137.632,919.713L3137.632,919.713c-12.776,0-23.133-10.357-23.133-23.133v-61.372
					c0-12.776,10.357-23.132,23.133-23.132l0,0c12.776,0,23.133,10.357,23.133,23.132v61.372
					C3160.765,909.356,3150.408,919.713,3137.632,919.713z"/>
			</g>
			<g>
				<g>
					
						<rect x="2830.007" y="374.409" transform="matrix(1 -0.0056 0.0056 1 -2.8705 16.7229)" style="fill:#84524D;" width="323.979" height="295.574"/>
					
						<rect x="2668.505" y="375.153" transform="matrix(1 -0.0056 0.0056 1 -2.8763 15.9759)" style="fill:#D87355;" width="380.46" height="295.574"/>
				</g>
				<g>
					<path style="fill:#363E44;" d="M2932.796,554.947l-242.481,1.355c-31.498,0.176-57.18-25.206-57.375-56.704v0
						c-0.195-31.524,25.213-57.232,56.737-57.408l242.481-1.354c31.498-0.176,57.18,25.206,57.375,56.704l0,0
						C2989.728,529.063,2964.321,554.771,2932.796,554.947z"/>
					<path style="fill:#FFFFFF;" d="M2663.277,558.656c-32.506,0.002-59.054-26.35-59.255-58.897
						c-0.097-15.834,5.979-30.76,17.111-42.021c11.132-11.263,25.984-17.516,41.818-17.604l242.481-1.354c0.112,0,0.226,0,0.338,0
						c32.506,0,59.054,26.348,59.255,58.895c0.097,15.834-5.979,30.76-17.111,42.023c-11.132,11.263-25.984,17.516-41.818,17.604
						l0,0l-242.481,1.354C2663.503,558.656,2663.388,558.656,2663.277,558.656z M2906.082,555.097h0.021H2906.082z M2905.77,443.189
						c-0.105,0-0.207,0-0.312,0l-242.48,1.354c-14.659,0.082-28.404,5.869-38.707,16.293
						c-10.305,10.426-15.929,24.238-15.839,38.897c0.185,30.122,24.761,54.513,54.845,54.513c0.105,0,0.207,0,0.312,0l242.48-1.354
						c14.659-0.082,28.404-5.869,38.707-16.295c10.305-10.425,15.929-24.238,15.839-38.896
						C2960.43,467.578,2935.854,443.189,2905.77,443.189z"/>
					<path style="fill:#FFFFFF;" d="M2693.604,534.657c-0.891,0-1.591-0.022-2.287-0.062c-1.214-0.071-2.142-1.115-2.069-2.332
						c0.071-1.219,1.124-2.155,2.332-2.069c0.609,0.037,1.219,0.054,1.837,0.054v0.009c1.352-0.116,2.418,0.906,2.418,2.194
						c0,1.163-0.9,2.114-2.039,2.198C2693.73,534.655,2693.668,534.657,2693.604,534.657z M2704.328,532.836
						c-0.915,0-1.768-0.573-2.084-1.484c-0.398-1.152,0.213-2.407,1.363-2.806c0.648-0.224,1.281-0.467,1.906-0.728
						c1.122-0.476,2.416,0.058,2.885,1.18c0.471,1.124-0.056,2.416-1.18,2.885c-0.71,0.299-1.434,0.577-2.168,0.831
						C2704.811,532.797,2704.567,532.836,2704.328,532.836z M2680.861,532.218c-0.276,0-0.556-0.052-0.827-0.161
						c-0.723-0.293-1.434-0.607-2.134-0.947c-1.096-0.534-1.55-1.854-1.018-2.948c0.536-1.094,1.852-1.55,2.948-1.018
						c0.609,0.297,1.229,0.573,1.858,0.827c1.128,0.456,1.673,1.742,1.217,2.87C2682.558,531.696,2681.733,532.218,2680.861,532.218
						z M2715.544,526.277c-0.609,0-1.214-0.252-1.652-0.743c-0.807-0.913-0.721-2.306,0.19-3.113c0.51-0.45,1.003-0.917,1.481-1.4
						c0.859-0.866,2.254-0.868,3.118-0.013c0.865,0.857,0.87,2.252,0.013,3.118c-0.547,0.551-1.109,1.083-1.688,1.598
						C2716.586,526.094,2716.065,526.277,2715.544,526.277z M2669.994,525.076c-0.558,0-1.117-0.211-1.546-0.633
						c-0.553-0.543-1.087-1.102-1.604-1.682c-0.81-0.909-0.732-2.302,0.177-3.113c0.904-0.81,2.302-0.734,3.113,0.176
						c0.452,0.506,0.922,0.997,1.406,1.475c0.868,0.853,0.881,2.25,0.026,3.118C2671.135,524.856,2670.565,525.076,2669.994,525.076
						z M2723.414,515.931c-0.325,0-0.655-0.071-0.965-0.224c-1.096-0.534-1.548-1.854-1.014-2.948
						c0.297-0.609,0.573-1.229,0.831-1.86c0.461-1.128,1.744-1.675,2.874-1.208c1.126,0.459,1.669,1.746,1.208,2.874
						c-0.293,0.721-0.612,1.432-0.952,2.127C2725.016,515.477,2724.23,515.931,2723.414,515.931z M2662.674,514.338
						c-0.857,0-1.673-0.504-2.03-1.344c-0.299-0.708-0.579-1.43-0.838-2.164c-0.4-1.15,0.205-2.407,1.354-2.81
						c1.152-0.394,2.407,0.207,2.81,1.354c0.224,0.644,0.469,1.275,0.734,1.897c0.476,1.122-0.05,2.416-1.169,2.892
						C2663.253,514.282,2662.962,514.338,2662.674,514.338z M2726.708,503.353c-0.043,0-0.088-0.002-0.134-0.004
						c-1.214-0.071-2.142-1.115-2.069-2.332c0.037-0.609,0.054-1.223,0.054-1.841l-0.004-0.347c0-1.219,0.986-2.205,2.205-2.205
						c1.219,0,2.205,0.986,2.205,2.205h-2.205l2.205,0.05c0,0.015,0.004,0.282,0.004,0.297c0,0.704-0.021,1.404-0.062,2.104
						C2728.838,502.448,2727.867,503.353,2726.708,503.353z M2660.036,501.477c-1.219,0-2.205-0.851-2.205-2.069v-0.067
						c-0.002-0.889,0.017-1.567,0.056-2.239c0.069-1.214,1.059-2.166,2.33-2.071c1.214,0.071,2.142,1.113,2.071,2.33
						c-0.035,0.586-0.05,1.178-0.05,1.774C2662.239,500.353,2661.253,501.477,2660.036,501.477z M2724.886,490.348
						c-0.908,0-1.759-0.566-2.08-1.471c-0.226-0.644-0.471-1.277-0.739-1.899c-0.478-1.12,0.043-2.416,1.163-2.894
						c1.109-0.476,2.416,0.039,2.894,1.163c0.301,0.708,0.581,1.427,0.842,2.162c0.405,1.148-0.198,2.407-1.346,2.814
						C2725.378,490.307,2725.13,490.348,2724.886,490.348z M2662.465,488.842c-0.276,0-0.556-0.052-0.827-0.161
						c-1.128-0.457-1.673-1.742-1.217-2.87c0.291-0.721,0.607-1.432,0.945-2.129c0.53-1.092,1.845-1.55,2.946-1.025
						c1.096,0.53,1.554,1.85,1.025,2.945c-0.295,0.612-0.573,1.232-0.829,1.862C2664.161,488.321,2663.337,488.842,2662.465,488.842
						z M2718.264,479.168c-0.603,0-1.204-0.245-1.639-0.73c-0.456-0.506-0.928-0.997-1.412-1.473
						c-0.872-0.853-0.885-2.248-0.035-3.118c0.855-0.87,2.25-0.885,3.118-0.034c0.553,0.54,1.09,1.1,1.606,1.675
						c0.814,0.904,0.741,2.299-0.164,3.113C2719.316,478.981,2718.789,479.168,2718.264,479.168z M2669.618,477.991
						c-0.56,0-1.12-0.211-1.55-0.635c-0.865-0.857-0.874-2.252-0.019-3.12c0.542-0.549,1.104-1.083,1.681-1.598
						c0.904-0.807,2.302-0.736,3.114,0.177c0.81,0.909,0.732,2.302-0.177,3.113c-0.508,0.454-1.001,0.924-1.479,1.408
						C2670.754,477.771,2670.186,477.991,2669.618,477.991z M2707.87,471.357c-0.319,0-0.644-0.069-0.949-0.215
						c-0.616-0.295-1.24-0.573-1.873-0.829c-1.128-0.457-1.673-1.742-1.217-2.87c0.457-1.128,1.742-1.673,2.87-1.217
						c0.719,0.291,1.425,0.603,2.123,0.937c1.098,0.527,1.563,1.843,1.038,2.941C2709.483,470.896,2708.693,471.357,2707.87,471.357
						z M2680.368,470.689c-0.859,0-1.675-0.506-2.03-1.346c-0.474-1.122,0.049-2.416,1.171-2.889
						c0.711-0.302,1.434-0.579,2.17-0.836c1.141-0.398,2.405,0.205,2.808,1.357c0.4,1.15-0.207,2.407-1.357,2.808
						c-0.646,0.226-1.279,0.469-1.903,0.732C2680.945,470.633,2680.655,470.689,2680.368,470.689z M2695.281,468.116
						c-0.043,0-0.086-0.002-0.131-0.004c-0.583-0.034-1.171-0.049-1.764-0.049l-0.286,0.002c-1.219,0-2.205-0.986-2.205-2.205
						s0.986-2.205,2.205-2.205v2.205l0.015-2.205c0.006,0,0.267-0.002,0.271-0.002c0.678,0,1.352,0.019,2.022,0.058
						c1.214,0.071,2.142,1.113,2.071,2.33C2697.41,467.212,2696.439,468.116,2695.281,468.116z"/>
					<path style="fill:#FFFFFF;" d="M2900.661,533.501h-0.024c-0.891,0-1.593-0.021-2.287-0.062
						c-1.214-0.071-2.142-1.115-2.069-2.332c0.071-1.216,1.111-2.145,2.332-2.069c0.607,0.037,1.219,0.054,1.837,0.054
						c1.219,0,2.31,0.986,2.31,2.205C2902.76,532.515,2901.879,533.501,2900.661,533.501z M2911.36,531.679
						c-0.915,0-1.768-0.573-2.084-1.484c-0.398-1.152,0.213-2.407,1.363-2.805c0.648-0.224,1.281-0.467,1.906-0.728
						c1.122-0.474,2.416,0.06,2.885,1.18c0.471,1.124-0.056,2.416-1.18,2.885c-0.711,0.299-1.434,0.577-2.168,0.831
						C2911.842,531.641,2911.599,531.679,2911.36,531.679z M2887.893,531.061c-0.276,0-0.556-0.052-0.827-0.161
						c-0.723-0.293-1.434-0.607-2.134-0.947c-1.096-0.534-1.55-1.854-1.018-2.948c0.536-1.094,1.854-1.55,2.948-1.018
						c0.609,0.297,1.229,0.573,1.858,0.827c1.128,0.456,1.673,1.742,1.216,2.87C2889.589,530.54,2888.765,531.061,2887.893,531.061z
						 M2922.58,525.119c-0.609,0-1.214-0.252-1.651-0.743c-0.807-0.913-0.721-2.306,0.189-3.113c0.508-0.45,0.999-0.915,1.475-1.397
						c0.859-0.863,2.252-0.874,3.12-0.019c0.866,0.857,0.874,2.252,0.02,3.12c-0.545,0.551-1.109,1.085-1.69,1.6
						C2923.622,524.936,2923.101,525.119,2922.58,525.119z M2877.028,523.919c-0.558,0-1.117-0.211-1.546-0.633
						c-0.553-0.543-1.087-1.102-1.604-1.682c-0.81-0.909-0.732-2.302,0.177-3.113c0.904-0.81,2.304-0.734,3.114,0.177
						c0.452,0.506,0.922,0.997,1.406,1.475c0.868,0.853,0.881,2.25,0.026,3.118C2878.169,523.7,2877.598,523.919,2877.028,523.919z
						 M2930.445,514.775c-0.325,0-0.655-0.071-0.965-0.224c-1.096-0.534-1.548-1.854-1.014-2.948
						c0.297-0.609,0.573-1.229,0.831-1.86c0.461-1.128,1.744-1.675,2.875-1.208c1.126,0.459,1.669,1.746,1.208,2.875
						c-0.293,0.721-0.612,1.432-0.952,2.127C2932.047,514.321,2931.261,514.775,2930.445,514.775z M2869.705,513.182
						c-0.857,0-1.673-0.504-2.03-1.344c-0.299-0.708-0.579-1.43-0.838-2.164c-0.4-1.15,0.205-2.407,1.354-2.81
						c1.156-0.4,2.407,0.204,2.81,1.354c0.224,0.644,0.469,1.275,0.734,1.897c0.476,1.122-0.05,2.416-1.169,2.892
						C2870.284,513.126,2869.993,513.182,2869.705,513.182z M2933.737,502.194c-0.045,0-0.088-0.002-0.134-0.004
						c-1.214-0.071-2.142-1.115-2.069-2.332c0.037-0.607,0.054-1.219,0.054-1.837l-0.004-0.349c0-1.219,0.986-2.205,2.205-2.205
						c1.219,0,2.205,0.986,2.205,2.205h-2.205l2.205,0.047c0,0.013,0.004,0.288,0.004,0.301c0,0.704-0.021,1.406-0.062,2.099
						C2935.867,501.292,2934.896,502.194,2933.737,502.194z M2867.067,500.319c-1.217,0-2.203-0.844-2.203-2.063v-0.073
						c-0.002-0.891,0.017-1.568,0.056-2.237c0.071-1.217,1.066-2.151,2.33-2.071c1.214,0.071,2.142,1.113,2.071,2.33
						c-0.035,0.583-0.05,1.173-0.05,1.768C2869.272,499.19,2868.286,500.319,2867.067,500.319z M2931.918,489.189
						c-0.909,0-1.759-0.566-2.08-1.471c-0.226-0.644-0.471-1.277-0.739-1.899c-0.478-1.12,0.043-2.416,1.163-2.894
						c1.111-0.478,2.414,0.039,2.894,1.163c0.302,0.708,0.582,1.428,0.842,2.162c0.405,1.148-0.198,2.407-1.346,2.814
						C2932.409,489.148,2932.161,489.189,2931.918,489.189z M2869.496,487.688c-0.276,0-0.555-0.052-0.827-0.161
						c-1.128-0.456-1.673-1.742-1.216-2.87c0.291-0.721,0.607-1.432,0.945-2.129c0.532-1.094,1.843-1.552,2.946-1.025
						c1.096,0.53,1.555,1.849,1.025,2.945c-0.295,0.611-0.573,1.232-0.829,1.862
						C2871.193,487.167,2870.368,487.688,2869.496,487.688z M2925.295,478.01c-0.603,0-1.204-0.246-1.638-0.73
						c-0.457-0.506-0.928-0.997-1.412-1.473c-0.872-0.853-0.885-2.248-0.034-3.118c0.855-0.87,2.25-0.885,3.118-0.035
						c0.553,0.54,1.089,1.1,1.606,1.675c0.814,0.904,0.741,2.299-0.164,3.113C2926.348,477.823,2925.82,478.01,2925.295,478.01z
						 M2876.649,476.832c-0.56,0-1.119-0.211-1.55-0.635c-0.866-0.857-0.874-2.252-0.02-3.12c0.543-0.549,1.105-1.083,1.682-1.598
						c0.904-0.807,2.304-0.736,3.114,0.177c0.81,0.909,0.732,2.302-0.177,3.113c-0.508,0.454-1.001,0.924-1.479,1.408
						C2877.786,476.613,2877.217,476.832,2876.649,476.832z M2914.899,470.201c-0.319,0-0.642-0.069-0.949-0.215
						c-0.616-0.295-1.24-0.573-1.873-0.829c-1.128-0.457-1.673-1.742-1.217-2.87c0.457-1.128,1.742-1.673,2.87-1.216
						c0.719,0.291,1.426,0.603,2.123,0.937c1.098,0.527,1.563,1.843,1.038,2.941C2916.512,469.74,2915.722,470.201,2914.899,470.201
						z M2887.402,469.531c-0.859,0-1.675-0.506-2.031-1.346c-0.474-1.122,0.05-2.416,1.171-2.89c0.711-0.301,1.434-0.579,2.17-0.835
						c1.143-0.403,2.405,0.204,2.808,1.356c0.401,1.15-0.207,2.407-1.356,2.808c-0.646,0.226-1.279,0.469-1.903,0.732
						C2887.979,469.475,2887.688,469.531,2887.402,469.531z M2902.31,466.958c-0.043,0-0.086-0.002-0.131-0.004
						c-0.583-0.035-1.174-0.049-1.768-0.049l-0.28,0.002c-1.219,0-2.205-0.986-2.205-2.205c0-1.219,0.986-2.205,2.205-2.205v2.205
						l0.015-2.205c0.007,0,0.26-0.002,0.265-0.002c0.68,0,1.356,0.019,2.026,0.058c1.214,0.071,2.142,1.113,2.071,2.33
						C2904.439,466.054,2903.468,466.958,2902.31,466.958z"/>
				</g>
			</g>
			<g>
				<path style="fill:#363E44;" d="M3061.49,1305.96c-5.284,0-10.619-0.187-16.013-0.56c-44.706-3.09-93.192-18.956-144.11-47.158
					c-86.509-47.914-151.03-115.865-151.672-116.548c-0.835-0.885-0.794-2.28,0.093-3.116c0.881-0.837,2.282-0.794,3.116,0.093
					c0.637,0.676,64.754,68.188,150.683,115.76c78.941,43.704,193.03,79.036,288.261-0.842
					c76.322-64.015,57.181-166.597,27.685-241.383c-32.136-81.473-83.139-148.511-83.652-149.178
					c-0.741-0.967-0.558-2.351,0.409-3.092c0.971-0.736,2.353-0.556,3.092,0.409c0.515,0.674,51.893,68.203,84.252,150.244
					c19.053,48.306,27.901,92.15,26.292,130.315c-2.02,47.961-20.606,87.011-55.245,116.065
					C3155.875,1289.517,3111.133,1305.96,3061.49,1305.96z"/>
				<g>
					<polygon style="fill:#363E44;" points="2571.348,966.692 2722.847,984.336 2735.297,1132.383 2678.279,1023.624 					"/>
					<g>
						<g>
							
								<ellipse transform="matrix(0.7071 -0.7071 0.7071 0.7071 44.178 2020.2488)" style="fill:#E0AA63;" cx="2460.745" cy="956.797" rx="185.182" ry="185.182"/>
							<path style="fill:#FFFFFF;" d="M2543.097,1104.504c-0.769,0-1.514-0.401-1.921-1.117c-0.601-1.059-0.228-2.405,0.831-3.006
								c23.235-13.177,43.153-32.03,57.61-54.524c0.657-1.023,2.018-1.324,3.047-0.661c1.023,0.657,1.32,2.022,0.661,3.047
								c-14.837,23.09-35.29,42.445-59.143,55.975C2543.84,1104.411,2543.465,1104.504,2543.097,1104.504z"/>
							<path style="fill:#FFFFFF;" d="M2627.719,951.125c-1.171,0-2.145-0.922-2.2-2.104
								c-4.089-88.137-76.465-157.18-164.774-157.18c-75.969,0-141.804,51.421-160.095,125.048
								c-0.296,1.182-1.495,1.886-2.672,1.608c-1.182-0.295-1.901-1.49-1.608-2.672c18.782-75.597,86.375-128.394,164.375-128.394
								c90.669,0,164.98,70.89,169.179,161.387c0.056,1.214-0.885,2.248-2.101,2.304
								C2627.789,951.125,2627.754,951.125,2627.719,951.125z"/>
							
								<ellipse transform="matrix(0.7071 -0.7071 0.7071 0.7071 44.178 2020.2488)" style="fill:#EFBC73;" cx="2460.745" cy="956.797" rx="153.787" ry="153.787"/>
							<path style="fill:#FFFFFF;" d="M2460.745,1144.184c-103.325,0-187.387-84.061-187.387-187.388
								c0-103.325,84.062-187.386,187.387-187.386s187.386,84.061,187.386,187.386
								C2648.131,1060.123,2564.071,1144.184,2460.745,1144.184z M2460.745,773.82c-100.894,0-182.977,82.082-182.977,182.976
								c0,100.894,82.083,182.978,182.977,182.978s182.976-82.084,182.976-182.978C2643.722,855.902,2561.64,773.82,2460.745,773.82
								z"/>
							<path style="fill:#FFFFFF;" d="M2460.745,1112.789c-86.014,0-155.992-69.977-155.992-155.993
								c0-86.014,69.978-155.991,155.992-155.991c86.014,0,155.991,69.977,155.991,155.991
								C2616.736,1042.812,2546.759,1112.789,2460.745,1112.789z M2460.745,805.215c-83.583,0-151.582,67.998-151.582,151.581
								s68,151.583,151.582,151.583c83.583,0,151.581-68,151.581-151.583S2544.328,805.215,2460.745,805.215z"/>
						</g>
						<g>
							<g>
								<path style="fill:#FFFFFF;" d="M2398.035,1041.587V867.709h62.458c22.37,0,39.388,4.101,51.053,12.301
									c11.662,8.2,17.494,20.104,17.494,35.705c0,8.999-2.07,16.681-6.21,23.049c-4.14,6.371-10.23,11.067-18.271,14.092
									c9.076,2.389,16.042,6.849,20.899,13.375c4.855,6.53,7.285,14.491,7.285,23.884c0,17.039-5.395,29.838-16.181,38.395
									c-10.79,8.559-26.771,12.917-47.948,13.076H2398.035z M2439.952,940.198h21.854c9.155-0.078,15.684-1.756,19.586-5.031
									c3.9-3.273,5.852-8.104,5.852-14.493c0-7.345-2.111-12.635-6.329-15.87c-4.221-3.233-11.029-4.85-20.421-4.85h-20.541
									V940.198z M2439.952,967.665v41.677h27.467c7.563,0,13.375-1.731,17.435-5.193c4.06-3.465,6.09-8.341,6.09-14.63
									c0-14.489-7.206-21.774-21.615-21.854H2439.952z"/>
							</g>
							<path style="fill:#FFFFFF;" d="M2463.477,1060.663h17.625v-29.521c-5.886-0.248-11.755-0.594-17.625-0.991V1060.663z"/>
							<path style="fill:#FFFFFF;" d="M2463.477,848.39v32.457c5.875,0.168,11.75,0.332,17.625,0.394V848.39H2463.477z"/>
							<path style="fill:#FFFFFF;" d="M2424.516,1061.283h17.625v-32.671c-5.846-0.423-11.716-0.824-17.625-1.154V1061.283z"/>
							<path style="fill:#FFFFFF;" d="M2424.516,849.01v32.013c5.875-0.4,11.75-0.554,17.625-0.561V849.01H2424.516z"/>
						</g>
					</g>
					<polygon style="fill:#363E44;" points="2548.439,1000.606 2584.87,1144.669 2735.329,1132.207 2616.808,1094.571 					"/>
					<path style="fill:#84524D;" d="M2768.487,1117.065l-32.954,44.327c-5.25,7.062-15.231,8.531-22.292,3.281l0,0
						c-7.062-5.25-8.531-15.231-3.281-22.293l32.954-44.327c5.25-7.062,15.231-8.531,22.293-3.281h0
						C2772.269,1100.022,2773.737,1110.003,2768.487,1117.065z"/>
				</g>
			</g>
		</g>
		<g>
			<g>
				<polygon style="fill:#776E42;" points="2217.503,1761.59 2305.21,2076.63 1820.165,2076.63 1879.133,1756.96 				"/>
				<g>
					<polygon style="fill:#E2A18D;" points="1996.985,2031.339 1914.443,2010.026 1879.133,2123.081 2028.133,2155.503 
						2051.715,2038.852 					"/>
					<path style="fill:#D3BBA3;" d="M2346.577,2154.385H2019.4l21.975-121.483c0,0,138.776-59.795,290.466,28.975
						C2331.841,2061.877,2369.23,2107.581,2346.577,2154.385z"/>
					<path style="fill:#363E44;" d="M2114.063,2124.821c-1.218,0-2.205-0.986-2.205-2.205v-74.495c0-1.219,0.987-2.205,2.205-2.205
						c1.218,0,2.205,0.986,2.205,2.205v74.495C2116.268,2123.834,2115.281,2124.821,2114.063,2124.821z"/>
					<path style="fill:#363E44;" d="M2135.206,2124.821c-1.218,0-2.205-0.986-2.205-2.205v-74.495c0-1.219,0.987-2.205,2.205-2.205
						c1.218,0,2.205,0.986,2.205,2.205v74.495C2137.411,2123.834,2136.424,2124.821,2135.206,2124.821z"/>
					<path style="fill:#8B865C;" d="M2010.709,1947.25l-91.909,207.135c0,0-255.594-53.896-433.367-165.11
						c-62.119-38.861-82.163-120.115-45.164-183.36c0.527-0.902,1.06-1.802,1.597-2.699c31.62-52.854,95.641-76.797,154.637-59.109
						C1690.986,1772.433,1867.211,1835.753,2010.709,1947.25z"/>
				</g>
				<g>
					<polygon style="fill:#E2A18D;" points="2003.354,2069.674 2154.871,1973.108 2209.402,2123.081 2060.402,2155.503 					"/>
					<path style="fill:#FFFFFF;" d="M1745.451,2154.385h323.684l-21.975-114.783c0,0-119.693-69.626-262.625-16.027
						C1784.534,2023.576,1765.486,2064.305,1745.451,2154.385z"/>
					<path style="fill:#363E44;" d="M1974.471,2124.821c-1.218,0-2.205-0.986-2.205-2.205v-74.495c0-1.219,0.987-2.205,2.205-2.205
						c1.218,0,2.205,0.986,2.205,2.205v74.495C1976.676,2123.834,1975.688,2124.821,1974.471,2124.821z"/>
					<path style="fill:#363E44;" d="M1953.328,2124.821c-1.218,0-2.205-0.986-2.205-2.205v-74.495c0-1.219,0.987-2.205,2.205-2.205
						c1.218,0,2.205,0.986,2.205,2.205v74.495C1955.533,2123.834,1954.546,2124.821,1953.328,2124.821z"/>
					<path style="fill:#8B865C;" d="M2077.825,1947.25l91.909,207.135c0,0,255.593-53.896,433.367-165.11
						c62.119-38.861,82.163-120.115,45.164-183.36c-0.528-0.902-1.06-1.802-1.597-2.699
						c-31.621-52.854-95.642-76.797-154.637-59.109C2397.549,1772.433,2221.324,1835.753,2077.825,1947.25z"/>
				</g>
			</g>
			<g>
				<g>
					<g>
						<path style="fill:#E2A18D;" d="M2335.776,1509.886c147.156,120.387,211.395,204.348,161.278,256.325
							c-29.073,30.151-137.301-3.513-258.444-92.351C2269.065,1622.067,2297.541,1571.733,2335.776,1509.886z"/>
						<path style="fill:#E2A18D;" d="M2342.876,1671.66c-0.003-0.004-0.004-0.009,0-0.013
							c106.356-135.265,179.22-233.274,202.903-262.646c2.48-3.076,6.833-8.525,14.199-13.809
							c27.291-19.58,52.204-5.523,90.294-13.018c43.219-8.504,62.741-37.761,71.513-30.719c6.102,4.898,1.845,18.008-15.868,39.409
							c0,0,0.001,0.005,0.003,0.003c15.327-14.713,36.985-33.759,45.091-25.265c8.835,10.308-13.982,35.673-28.535,50.343
							c17.615-17.756,32.295-21.928,35.634-16.066c5.256,9.227-5.197,26.178-29.389,48.742c-0.001,0.001,0,0.003,0,0.003
							c21.057-10.915,27.792-10.424,29.48-4.522c3.083,10.775-17.155,28.951-37.509,42.277
							c-22.914,15.002-45.889,18.688-60.431,20.667c-0.003,0.001-0.007,0.003-0.01,0.006
							c-64.667,102.46-106.117,168.434-156.66,252.248c-10.341,17.147-33.155,21.755-49.351,9.981
							C2410.453,1737.448,2386.369,1718.743,2342.876,1671.66z"/>
						<path style="fill:#363E44;" d="M2344.08,1672.318c-0.476,0-0.956-0.153-1.361-0.472c-0.956-0.751-1.124-2.138-0.37-3.096
							c23.51-29.909,46.738-59.715,71.017-91.119c0.745-0.962,2.129-1.143,3.092-0.396c0.965,0.745,1.141,2.13,0.396,3.092
							c-24.285,31.414-47.522,61.229-71.039,91.149C2345.38,1672.029,2344.734,1672.318,2344.08,1672.318z"/>
						<path style="fill:#E2A18D;" d="M2616.938,1397.197c24.694-35.914,25.99-54.101,20.173-57.833
							c-9.781-6.276-43.414,15.756-86.115,63.697C2569.514,1403.075,2598.42,1397.184,2616.938,1397.197z"/>
						<path style="fill:#363E44;" d="M2601.697,1470.387c-0.431,0-0.864-0.125-1.245-0.387c-1.006-0.687-1.26-2.061-0.571-3.064
							c4.55-6.634,12.749-15.673,25.973-21.062c18.715-7.626,35.828-2.931,42.313-0.56c1.143,0.42,1.731,1.686,1.313,2.829
							c-0.42,1.143-1.69,1.722-2.829,1.313c-6.005-2.196-21.837-6.546-39.135,0.5c-12.21,4.978-19.792,13.337-24.001,19.473
							C2603.09,1470.054,2602.399,1470.387,2601.697,1470.387z"/>
						<path style="fill:#363E44;" d="M2580.744,1389.507c-1.018,0-1.936-0.711-2.155-1.748c-0.252-1.191,0.508-2.362,1.701-2.614
							c9.573-2.026,19.35-1.731,29.703-1.413c4.795,0.144,9.752,0.301,14.937,0.23c1.249,0.004,2.218,0.96,2.233,2.177
							c0.015,1.217-0.958,2.218-2.177,2.233c-5.282,0.062-10.286-0.084-15.126-0.232c-10.079-0.312-19.602-0.599-28.656,1.32
							C2581.05,1389.492,2580.895,1389.507,2580.744,1389.507z"/>
						<path style="fill:#363E44;" d="M2670.052,1410.007c-0.997,0-1.901-0.68-2.142-1.693c-0.282-1.184,0.448-2.373,1.632-2.657
							c5.036-1.204,9.971-2.877,14.669-4.972c6.825-3.042,13.24-7.004,19.064-11.773c0.948-0.775,2.332-0.633,3.103,0.308
							c0.773,0.943,0.633,2.332-0.308,3.103c-6.128,5.019-12.878,9.188-20.063,12.389c-4.946,2.207-10.139,3.968-15.44,5.234
							C2670.395,1409.988,2670.223,1410.007,2670.052,1410.007z"/>
						<path style="fill:#363E44;" d="M2688.809,1432.705c-0.997,0-1.901-0.68-2.142-1.693c-0.282-1.184,0.448-2.375,1.632-2.657
							c5.023-1.199,9.96-2.872,14.671-4.972c6.832-3.049,13.246-7.011,19.062-11.776c0.941-0.775,2.332-0.635,3.103,0.308
							c0.773,0.941,0.633,2.332-0.308,3.103c-6.119,5.015-12.869,9.183-20.061,12.391c-4.961,2.211-10.156,3.97-15.442,5.234
							C2689.151,1432.686,2688.979,1432.705,2688.809,1432.705z"/>
						<path style="fill:#363E44;" d="M2693.477,1468.219c-0.997,0-1.901-0.68-2.142-1.693c-0.282-1.184,0.448-2.373,1.632-2.657
							c5.036-1.204,9.971-2.877,14.669-4.972c6.825-3.042,13.24-7.004,19.064-11.773c0.945-0.775,2.332-0.635,3.103,0.308
							c0.773,0.943,0.633,2.332-0.308,3.103c-6.128,5.019-12.878,9.188-20.063,12.389c-4.946,2.207-10.139,3.968-15.44,5.234
							C2693.819,1468.2,2693.647,1468.219,2693.477,1468.219z"/>
					</g>
					<path style="fill:#D87355;" d="M1720.358,1507.984c0,0,123.697-99.569,331.156-99.569c202.348,0,313.883,99.569,313.883,99.569
						l-104.601,175.906l-5.341,146.294h-436.663v-149.537L1720.358,1507.984z"/>
					<g>
						<path style="fill:#E2A18D;" d="M1658.972,1805.612L1658.972,1805.612c27.616,16.318,63.142,8.59,81.483-17.725l79.71-114.367
							l-92.425-152.587l-128.12,169.926C1561.653,1756.96,1621.953,1793.499,1658.972,1805.612z"/>
						<path style="fill:#E2A18D;" d="M1685.603,1814.144c0,0,206.582,34.917,209.931,34.917c3.35,0,107.82,0,107.82,0
							l-227.303-158.203L1685.603,1814.144z"/>
					</g>
				</g>
				<g>
					<rect x="1824.466" y="1594.585" style="fill:#EFBC73;" width="436.823" height="261.892"/>
					<rect x="1824.466" y="1863.614" style="fill:#EFBC73;" width="436.823" height="26.811"/>
					<path style="fill:#E0AA63;" d="M2066.619,1740.547h-47.483c-1.218,0-2.205-0.986-2.205-2.205v-47.483
						c0-1.219,0.987-2.205,2.205-2.205h47.483c1.218,0,2.205,0.986,2.205,2.205v47.483
						C2068.824,1739.561,2067.836,1740.547,2066.619,1740.547z M2021.34,1736.137h43.074v-43.074h-43.074V1736.137z"/>
					<path style="fill:#E0AA63;" d="M2242.386,1617.828h-399.018c-1.218,0-2.205-0.986-2.205-2.205s0.987-2.205,2.205-2.205h399.018
						c1.218,0,2.205,0.986,2.205,2.205S2243.604,1617.828,2242.386,1617.828z"/>
				</g>
			</g>
			<g>
				<path style="fill:#363E44;" d="M1858.262,1369.68c0,0,222.525,105.836,365.498-81.466c0,0-83.59-85.933-151.091-113.399
					C2005.169,1147.349,1941.213,1187.125,1858.262,1369.68z"/>
				<path style="fill:#363E44;" d="M1988.5,1192.24c0,0-19.025-100.848-104.163-65.162c-59.887,25.101-21.444,81.457,13.452,87.532
					C1933.778,1220.875,1988.5,1192.24,1988.5,1192.24z"/>
				<path style="fill:#363E44;" d="M1990.687,1192.516l-4.375-0.551c0.061-0.489,5.876-49.199-17.174-65.598
					c-11.965-8.511-29.908-6.961-53.333,4.61l-1.953-3.953c24.995-12.35,44.458-13.778,57.849-4.244
					C1996.89,1140.709,1990.952,1190.408,1990.687,1192.516z"/>
				<path style="fill:#2D353A;" d="M1906.575,1373.205c-0.063,0-0.128-0.002-0.194-0.009c-1.212-0.105-2.11-1.173-2.005-2.388
					c7.321-84.093,47.994-124.579,48.403-124.979c0.872-0.846,2.266-0.827,3.117,0.041c0.849,0.872,0.832,2.267-0.039,3.118
					c-0.398,0.39-39.919,39.857-47.088,122.204C1908.669,1372.34,1907.706,1373.205,1906.575,1373.205z"/>
				<path style="fill:#2D353A;" d="M1924.968,1204.263c-14.038,0-26.612-4.046-37.581-12.122
					c-16.86-12.413-23.932-30.48-23.903-32.502c0.017-1.219,1.02-2.147,2.237-2.172c1.115,0.017,2.026,0.859,2.156,1.936
					c0.302,0.952,7.399,21.159,27.622,32.777c15.816,9.088,34.928,10.066,56.81,2.92c1.153-0.39,2.402,0.25,2.781,1.41
					c0.378,1.156-0.254,2.403-1.411,2.78C1943.533,1202.608,1933.951,1204.263,1924.968,1204.263z"/>
				<g>
					<path style="fill:#E2A18D;" d="M2130.719,1333.921c-15.465,19.781-82.159-1.524-82.159-1.524l-51.479-56.87
						c-10.091-33.85,9.169-69.472,43.02-79.564s69.472,9.169,79.563,43.02C2119.664,1238.983,2146.47,1313.774,2130.719,1333.921z"
						/>
					<path style="fill:#E2A18D;" d="M2097.688,1424.7l-5.457-143.056l-77.423,3.44l5.457,143.056
						c0.95,21.38,19.052,37.942,40.432,36.992C2082.077,1464.182,2098.639,1446.079,2097.688,1424.7z"/>
					<path style="fill:#E2A18D;" d="M2117.425,1257.2c0,0,22.561,12.887,23.064,17.915c0.6,6.001-17.517,15.173-17.517,15.173
						S2117.895,1257.107,2117.425,1257.2z"/>
					<g>
						<path style="fill:#FFFFFF;" d="M2062.042,1279.295c0,0,5.239-10.972,15.655-18.595c2.216-1.622,11.015,19.171,8.177,19.706
							C2073.393,1282.762,2062.042,1279.295,2062.042,1279.295z"/>
						<path style="fill:#363E44;" d="M2094.444,1277.787c15.3-6.731,23.005-22.868,23.005-22.868s-17.102-5.223-32.402,1.508
							c-2.679,1.179-5.111,2.655-7.324,4.274c-0.922,7.774,2.363,15.133,8.137,19.705
							C2088.703,1279.871,2091.604,1279.036,2094.444,1277.787z"/>
					</g>
					<path style="fill:#363E44;" d="M2108.394,1308c-1.044,0-2.095-0.146-3.125-0.45c-4.049-1.189-7.133-4.657-7.858-8.836
						c-0.208-1.199,0.596-2.341,1.796-2.549c1.194-0.209,2.34,0.597,2.549,1.796c0.439,2.536,2.306,4.64,4.755,5.361
						c2.547,0.743,5.312-0.084,7.053-2.108c0.793-0.922,2.187-1.029,3.109-0.237c0.924,0.795,1.03,2.186,0.237,3.109
						C2114.744,1306.606,2111.609,1308,2108.394,1308z"/>
					<path style="fill:#363E44;" d="M2098.123,1345.387c-0.045,0-0.092-0.002-0.138-0.004c-23.289-1.434-49.518-9.745-49.78-9.829
						c-1.16-0.37-1.8-1.611-1.43-2.771c0.369-1.158,1.608-1.807,2.771-1.428c0.257,0.082,25.979,8.227,48.709,9.627
						c1.216,0.075,2.14,1.12,2.065,2.336C2100.249,1344.487,2099.279,1345.387,2098.123,1345.387z"/>
				</g>
				<g>
					<path style="fill:#363E44;" d="M1993.885,1314.368c-18.263-8.752-23.875-51.807-12.654-79.385
						c14.466-35.555,56.421-56.545,90.32-53.685c8.333,0.703,27.375,4.778,33.701,16.656c4.925,9.248-4.46,28.466-20.358,33.99
						c-22.352,7.767-53.677,2.595-42.099,28.066C2077.878,1337.192,2013.953,1323.985,1993.885,1314.368z"/>
				</g>
				<ellipse style="fill:#E2A18D;" cx="2056.268" cy="1445.214" rx="106.08" ry="37.27"/>
			</g>
		</g>
		<g>
			<g>
				<g>
					<path style="fill:#776E42;" d="M3082.744,1919.498c-46.522,126.485-126.877,221.489-126.877,221.489
						s-4.927-110.068,41.596-236.553s126.877-221.489,126.877-221.489S3129.267,1793.013,3082.744,1919.498z"/>
					<path style="fill:#8B865C;" d="M3005.032,2017.277c-0.252,0-0.506-0.043-0.756-0.133c-1.143-0.418-1.733-1.684-1.315-2.827
						l93.167-255.361c0.418-1.146,1.686-1.731,2.827-1.316c1.143,0.418,1.733,1.684,1.315,2.827l-93.167,255.361
						C3006.776,2016.722,3005.932,2017.277,3005.032,2017.277z"/>
				</g>
				<g>
					<path style="fill:#8B865C;" d="M2963.974,2150.333c9.275-28.245,41.162-133.111,47.912-258.783
						c7.92-147.453-21.773-267.685-21.773-267.685s-42.535,118.837-50.455,266.29c-6.762,125.888,13.889,231.916,20.075,260.243
						L2963.974,2150.333z"/>
					<path style="fill:#776E42;" d="M2969.322,1970.444c-0.043,0-0.088-0.002-0.131-0.004c-1.217-0.071-2.142-1.115-2.071-2.33
						l17.522-297.517c0.071-1.216,1.13-2.138,2.33-2.071c1.216,0.071,2.142,1.115,2.071,2.33l-17.522,297.517
						C2971.452,1969.54,2970.481,1970.444,2969.322,1970.444z"/>
				</g>
				<g>
					<path style="fill:#776E42;" d="M2949.661,2149.681h11.614c3.417-37.958,8.438-138.435-18.69-252.626
						c-34.567-145.499-108.24-258.145-108.24-258.145s-17.629,123.255,16.938,268.753
						C2878.094,2020.517,2928.423,2113.59,2949.661,2149.681z"/>
					<path style="fill:#8B865C;" d="M2925.624,1998.254c-0.98,0-1.875-0.659-2.132-1.654l-75.707-292.881
						c-0.306-1.178,0.403-2.381,1.583-2.685c1.176-0.317,2.382,0.401,2.685,1.583l75.707,292.881
						c0.306,1.178-0.403,2.381-1.583,2.685C2925.992,1998.233,2925.807,1998.254,2925.624,1998.254z"/>
				</g>
			</g>
			<polygon style="fill:#EFBC73;" points="3114.967,1987.265 2823.899,1987.265 2870.886,2157.547 3067.98,2157.547 			"/>
		</g>
	</g>
</g>
</svg>
