<?xml version="1.0" encoding="utf-8"?>
<!-- Generator: Adobe Illustrator 26.2.1, SVG Export Plug-In . SVG Version: 6.00 Build 0)  -->
<!DOCTYPE svg PUBLIC "-//W3C//DTD SVG 1.1//EN" "http://www.w3.org/Graphics/SVG/1.1/DTD/svg11.dtd" [
	<!ENTITY ns_extend "http://ns.adobe.com/Extensibility/1.0/">
	<!ENTITY ns_ai "http://ns.adobe.com/AdobeIllustrator/10.0/">
	<!ENTITY ns_graphs "http://ns.adobe.com/Graphs/1.0/">
	<!ENTITY ns_vars "http://ns.adobe.com/Variables/1.0/">
	<!ENTITY ns_imrep "http://ns.adobe.com/ImageReplacement/1.0/">
	<!ENTITY ns_sfw "http://ns.adobe.com/SaveForWeb/1.0/">
	<!ENTITY ns_custom "http://ns.adobe.com/GenericCustomNamespace/1.0/">
	<!ENTITY ns_adobe_xpath "http://ns.adobe.com/XPath/1.0/">
	<!ENTITY st0 "fill:#FFFFFF;stroke:#000000;stroke-miterlimit:10;">
	<!ENTITY st1 "fill:#757575;">
	<!ENTITY st2 "clip-path:url(#SVGID_00000097477007590063217060000017458574547308959384_);">
	<!ENTITY st3 "fill:#54C5F8;">
	<!ENTITY st4 "clip-path:url(#SVGID_00000110456345764571371110000005375222024637323186_);">
	<!ENTITY st5 "clip-path:url(#SVGID_00000152254874010367844430000013478829868219397304_);">
	<!ENTITY st6 "fill:#01579B;">
	<!ENTITY st7 "clip-path:url(#SVGID_00000003822402391060092630000002419441974289454757_);">
	<!ENTITY st8 "fill:url(#SVGID_00000165934415546405591410000006529959097399425722_);">
	<!ENTITY st9 "clip-path:url(#SVGID_00000118356474046037456410000014394943802660911032_);">
	<!ENTITY st10 "fill:#29B6F6;">
	<!ENTITY st11 "fill:url(#SVGID_00000110446151648346921280000003220776045120206496_);">
]>
<svg version="1.1" id="logo_vector" xmlns:x="&ns_extend;" xmlns:i="&ns_ai;" xmlns:graph="&ns_graphs;"
	 xmlns="http://www.w3.org/2000/svg" xmlns:xlink="http://www.w3.org/1999/xlink" x="0px" y="0px" viewBox="0 0 1103.66 359.65"
	 style="enable-background:new 0 0 1103.66 359.65;" xml:space="preserve">
<metadata>
	<sfw  xmlns="&ns_sfw;">
		<slices></slices>
		<sliceSourceBounds  bottomLeftOrigin="true" height="359.65" width="1103.66" x="-241.72" y="-99.5"></sliceSourceBounds>
	</sfw>
</metadata>
<rect id="background" x="0.5" y="0.5" style="&st0;" width="1102.66" height="358.65"/>
<path style="&st1;" d="M449.01,127.15h57.35v11.24h-45.71v33.95h41.28v11.08h-41.28v43h-11.64V127.15z"/>
<path style="&st1;" d="M518.48,127.15h11.78v99.2h-11.78V127.15z"/>
<path style="&st1;" d="M550.29,221.09c-4.48-4.99-6.72-11.96-6.72-20.93V155.7h11.77v42.67c0,6.75,1.53,11.7,4.58,14.83
	s7.16,4.7,12.32,4.71c3.77,0.06,7.47-1.05,10.59-3.18c3.08-2.1,5.56-4.97,7.2-8.32c1.7-3.35,2.58-7.05,2.57-10.81v-39.9h11.78v70.66
	h-11.23v-10.21h-0.55c-2.21,3.77-5.42,6.84-9.29,8.87c-4.13,2.37-8.82,3.61-13.58,3.6C561.26,228.59,554.78,226.08,550.29,221.09z"
	/>
<path style="&st1;" d="M638.91,227.15c-2.29-0.84-4.39-2.13-6.17-3.8c-1.82-1.74-3.23-3.86-4.15-6.21c-1-2.76-1.47-5.68-1.39-8.61
	v-42.16h-12.33V155.7h12.33v-19.95h11.77v19.95h17.18v10.67h-17.18v39.37c0,4,0.74,6.89,2.22,8.78c1.75,2.08,4.29,3.12,7.62,3.12
	c2.76-0.02,5.45-0.84,7.76-2.36v11.5c-1.35,0.63-2.77,1.1-4.23,1.39c-1.81,0.3-3.64,0.44-5.47,0.41
	C644.15,228.59,641.45,228.11,638.91,227.15z"/>
<path style="&st1;" d="M687.59,227.15c-2.29-0.84-4.38-2.13-6.16-3.8c-1.82-1.74-3.24-3.86-4.16-6.21
	c-0.99-2.76-1.46-5.68-1.38-8.61v-42.16h-12.33V155.7h12.33v-19.95h11.77v19.95h17.18v10.67h-17.18v39.37c0,4,0.74,6.89,2.21,8.78
	c1.76,2.08,4.3,3.12,7.63,3.12c2.76-0.02,5.45-0.84,7.75-2.36v11.5c-1.35,0.63-2.76,1.1-4.22,1.39c-1.81,0.3-3.64,0.44-5.48,0.41
	C692.83,228.59,690.13,228.11,687.59,227.15z"/>
<path style="&st1;" d="M727.42,223.72c-5.33-3.21-9.67-7.84-12.53-13.37c-3.06-5.93-4.61-12.53-4.51-19.2
	c-0.07-6.52,1.38-12.97,4.22-18.84c2.69-5.57,6.83-10.31,12-13.71c5.36-3.46,11.62-5.25,18-5.12c6.31-0.16,12.55,1.44,18,4.63
	c5.06,3.06,9.13,7.52,11.72,12.83c2.81,5.83,4.21,12.24,4.09,18.71c0.02,1.21-0.12,2.42-0.42,3.6h-55.83
	c0.11,4.79,1.45,9.46,3.89,13.58c2.12,3.52,5.16,6.4,8.79,8.31c3.43,1.82,7.26,2.77,11.15,2.77c9.05,0,16.03-4.25,20.92-12.74
	l10,4.85c-2.87,5.54-7.15,10.23-12.4,13.59c-5.22,3.33-11.52,5-18.91,5C739.2,228.69,732.91,227,727.42,223.72z M765.93,183.54
	c-0.23-3.1-1.08-6.11-2.5-8.87c-1.6-3.09-4.03-5.67-7-7.48c-3.62-2.15-7.79-3.21-12-3.05c-5.2-0.13-10.25,1.79-14.06,5.34
	c-3.95,3.76-6.59,8.69-7.55,14.06L765.93,183.54z"/>
<path style="&st1;" d="M786.03,155.7h11.23v11.36h0.55c1.5-4.04,4.32-7.46,8-9.7c3.68-2.5,8.02-3.86,12.47-3.89
	c2.85-0.07,5.68,0.45,8.31,1.53v12.61c-3.11-1.51-6.54-2.27-10-2.21c-3.36-0.01-6.65,1-9.42,2.91c-2.88,2.01-5.22,4.7-6.8,7.84
	c-1.71,3.28-2.59,6.93-2.56,10.63v39.58h-11.77V155.7H786.03z"/>
<g>
	<defs>
		<path id="SVGID_1_" d="M379.03,168.62l-45.76,45.76l45.76,45.77h-52.31l-19.61-19.61l0,0l-26.16-26.16l45.77-45.76H379.03z
			 M326.72,90.15l-85,85l26.16,26.16L379.03,90.15H326.72z"/>
	</defs>
	<clipPath id="SVGID_00000126297935627286207170000006330110269265601706_">
		<use xlink:href="#SVGID_1_"  style="overflow:visible;"/>
	</clipPath>
	<g style="clip-path:url(#SVGID_00000126297935627286207170000006330110269265601706_);">
		
			<image style="overflow:visible;" width="128" height="99" xlink:href="25483549F34CBD6A.png"  transform="matrix(0.96 0 0 0.96 272.6271 161.0286)">
		</image>
		<polygon style="&st3;" points="379.03,168.62 379.03,168.62 379.03,168.62 326.72,168.62 280.96,214.39 307.11,240.54 		"/>
	</g>
</g>
<g>
	<defs>
		<path id="SVGID_00000044162933708900559950000011383723762507932094_" d="M379.03,168.62l-45.76,45.76l45.76,45.77h-52.31
			l-19.61-19.61l0,0l-26.16-26.16l45.77-45.76H379.03z M326.72,90.15l-85,85l26.16,26.16L379.03,90.15H326.72z"/>
	</defs>
	<clipPath id="SVGID_00000029731705109826050740000016226045283415717775_">
		<use xlink:href="#SVGID_00000044162933708900559950000011383723762507932094_"  style="overflow:visible;"/>
	</clipPath>
	<g style="clip-path:url(#SVGID_00000029731705109826050740000016226045283415717775_);">
		<polygon style="&st3;" points="267.88,201.31 241.72,175.15 326.72,90.15 379.03,90.15 		"/>
	</g>
</g>
<g>
	<defs>
		<path id="SVGID_00000158729574425111120600000003846695497733185953_" d="M379.03,168.62l-45.76,45.76l45.76,45.77h-52.31
			l-19.61-19.61l0,0l-26.16-26.16l45.77-45.76H379.03z M326.72,90.15l-85,85l26.16,26.16L379.03,90.15H326.72z"/>
	</defs>
	<clipPath id="SVGID_00000163782521762223537410000006203368984357854371_">
		<use xlink:href="#SVGID_00000158729574425111120600000003846695497733185953_"  style="overflow:visible;"/>
	</clipPath>
	<g style="clip-path:url(#SVGID_00000163782521762223537410000006203368984357854371_);">
		<polygon style="&st6;" points="307.11,240.54 326.72,260.15 379.03,260.15 379.03,260.15 333.25,214.39 		"/>
	</g>
</g>
<g>
	<defs>
		<path id="SVGID_00000019642704554031140340000001167120251928028847_" d="M379.03,168.62l-45.76,45.76l45.76,45.77h-52.31
			l-19.61-19.61l0,0l-26.16-26.16l45.77-45.76H379.03z M326.72,90.15l-85,85l26.16,26.16L379.03,90.15H326.72z"/>
	</defs>
	<clipPath id="SVGID_00000159439380424594047590000015047748333450205859_">
		<use xlink:href="#SVGID_00000019642704554031140340000001167120251928028847_"  style="overflow:visible;"/>
	</clipPath>
	<g style="clip-path:url(#SVGID_00000159439380424594047590000015047748333450205859_);">
		
			<linearGradient id="SVGID_00000134952912428405260110000014716718584929710224_" gradientUnits="userSpaceOnUse" x1="8561.7773" y1="-4780.6113" x2="8639.6973" y2="-4702.6914" gradientTransform="matrix(0.25 0 0 -0.25 -1825.7122 -949.5643)">
			<stop  offset="0" style="stop-color:#1A237E;stop-opacity:0.4"/>
			<stop  offset="1" style="stop-color:#1A237E;stop-opacity:0"/>
		</linearGradient>
		<polygon style="fill:url(#SVGID_00000134952912428405260110000014716718584929710224_);" points="307.11,240.54 345.9,227.11 
			333.25,214.39 		"/>
	</g>
</g>
<g>
	<defs>
		<path id="SVGID_00000109021972523598975960000006659497231130121113_" d="M379.03,168.62l-45.76,45.76l45.76,45.77h-52.31
			l-19.61-19.61l0,0l-26.16-26.16l45.77-45.76H379.03z M326.72,90.15l-85,85l26.16,26.16L379.03,90.15H326.72z"/>
	</defs>
	<clipPath id="SVGID_00000144332898313822955710000002960024748318630063_">
		<use xlink:href="#SVGID_00000109021972523598975960000006659497231130121113_"  style="overflow:visible;"/>
	</clipPath>
	<g style="clip-path:url(#SVGID_00000144332898313822955710000002960024748318630063_);">
		
			<rect x="288.61" y="195.89" transform="matrix(0.7071 -0.7071 0.7071 0.7071 -61.6428 279.9446)" style="&st10;" width="36.98" height="36.98"/>
	</g>
</g>
<radialGradient id="SVGID_00000132788854299105065880000004913617952146677173_" cx="8274.667" cy="-4203.4116" r="837.12" gradientTransform="matrix(0.25 0 0 -0.25 -1813.7622 -944.3143)" gradientUnits="userSpaceOnUse">
	<stop  offset="0" style="stop-color:#FFFFFF;stop-opacity:0.1"/>
	<stop  offset="1" style="stop-color:#FFFFFF;stop-opacity:0"/>
</radialGradient>
<path style="fill:url(#SVGID_00000132788854299105065880000004913617952146677173_);" d="M379.03,168.62l-45.76,45.76l45.76,45.77
	h-52.31l-19.61-19.61l0,0l-26.16-26.16l45.77-45.76H379.03z M326.72,90.15l-85,85l26.16,26.16L379.03,90.15H326.72z"/>
</svg>
