<?xml version="1.0" encoding="utf-8"?>
<!-- Generator: Adobe Illustrator 25.2.3, SVG Export Plug-In . SVG Version: 6.00 Build 0)  -->
<svg version="1.1" xmlns="http://www.w3.org/2000/svg" xmlns:xlink="http://www.w3.org/1999/xlink" x="0px" y="0px"
	 viewBox="0 0 1400 1000" style="enable-background:new 0 0 1400 1000;" xml:space="preserve">
<style type="text/css">
	.st0{fill:#FFFFFF;}
	.st1{fill:#37356C;}
	.st2{opacity:0.4;fill:#A8C4E5;}
	.st3{fill:#B6D1ED;}
	.st4{fill:#9DBEE3;}
	.st5{fill:#27E0C0;}
	.st6{fill:#8DB0DA;}
	.st7{fill:#A8C4E5;}
	.st8{fill:#4AA5FF;}
	.st9{fill:#D1E7FF;}
	.st10{fill:#AED0F5;}
	.st11{fill:#A7D1E8;}
	.st12{fill:#514677;}
	.st13{opacity:0.29;fill:#45446C;}
	.st14{fill:#FFD22D;}
	.st15{fill:#D84177;}
	.st16{fill:#45446C;}
	.st17{opacity:0.45;fill:#45446C;}
	.st18{fill:#F0F0FA;}
	.st19{fill:#5E8BBF;}
	.st20{fill:#93B9E6;}
	.st21{fill:none;stroke:#45446C;stroke-width:15.7539;stroke-miterlimit:10;}
	.st22{fill:#6C99C9;}
	.st23{fill:#B5CFEA;}
	.st24{fill:#7B9FC7;}
	.st25{fill:#E9F5FF;}
	.st26{fill:#FFAA82;}
	.st27{fill:#3F3F9E;}
	.st28{fill:#97CAFF;}
	.st29{fill:#3D82D1;}
	.st30{fill:#5A5AC4;}
	.st31{fill:#E1EAF4;}
	.st32{fill:#5B5B84;}
	.st33{fill:#51517A;}
	.st34{fill:#EF487C;}
	.st35{fill:#EF5D8B;}
	.st36{fill:#492817;}
</style>
<g id="background">
	<rect class="st0" width="1400" height="1000"/>
</g>
<g id="image">
	<path class="st1" d="M914.28,945.89l-150.69-87c-5.37-3.1-5.37-10.84,0-13.94l126.76-73.19c2.49-1.44,5.56-1.44,8.05,0
		l146.64,84.66c5.28,3.05,5.39,10.63,0.19,13.83l-122.71,75.53C920.01,947.33,916.84,947.37,914.28,945.89z"/>
	<g>
		
			<ellipse transform="matrix(5.422329e-03 -1 1 5.422329e-03 42.0747 757.0867)" class="st2" cx="401.64" cy="357.39" rx="47.17" ry="81.71"/>
		<g>
			
				<ellipse transform="matrix(5.423360e-03 -1 1 5.423360e-03 1.1403 710.782)" class="st3" cx="357.89" cy="354.82" rx="34.41" ry="59.6"/>
			<polygon class="st3" points="270.44,271.25 298.48,357.23 417.06,359.18 444.13,276.31 			"/>
			<path class="st4" d="M410.44,274.66l-27.07,82.54h-0.02c-1.53,12.23-7.15,15.45-16.88,21.07c-7.04,4.06-15.42,7.57-24.32,9.09
				c20.03,3.37,42.33-0.42,58.01-9.47c9.73-5.62,15.34-8.46,16.88-20.69h0.02l27.07-82.54H410.44z"/>
			
				<ellipse transform="matrix(5.421888e-03 -1 1 5.421888e-03 90.1742 622.2306)" class="st0" cx="357.89" cy="265.78" rx="50.83" ry="88.05"/>
			
				<ellipse transform="matrix(5.425021e-03 -1 1 5.425021e-03 91.2098 619.9875)" class="st1" cx="357.29" cy="264.14" rx="43.63" ry="75.58"/>
			<g>
				<path class="st5" d="M299.6,246.72L299.6,246.72c-4.48-5.88-8.36-12.68-7.5-20.37c0.38-3.41,1.87-6.69,4.44-8.97
					c6.87-6.09,16.24-2.16,22.03,3.63c4.96,4.96,8.49,11.27,13.84,15.8c-6.85-21.69-13.71-43.38-20.56-65.07
					c-2.63-8.32-5.29-17.2-0.89-25.58c2.42-4.6,7.41-7.49,12.54-6.65c13.1,2.13,11.18,24.31,22.83,30.66
					c-8.49-16.13-14.3-33.66-17.14-51.66c-2.06-13.05-2.39-27.26,6.93-37.88c5.16-5.88,13.16-8.75,20.65-6.5
					c13.43,4.04,15.98,20.77,16.44,34.39c0.57,16.96,1.14,33.92,1.7,50.87c3.05-12.48,7.35-26.37,15.99-35.05
					c4.53-4.55,12.29-1.69,12.8,4.71c1.56,19.67-2.33,39.78-11.26,57.39c1.61-2.83,3.79-5.32,6.33-7.34
					c6.77-5.39,16.75-0.49,16.59,8.16c-0.38,19.38-8.33,38.63-22.12,52.3l6.72-7.48c3.1-3.45,8.86-1.22,8.8,3.42
					c-0.18,12.99-5.83,25.95-15.61,34.56C363.29,296.33,319.86,273.32,299.6,246.72z"/>
			</g>
		</g>
	</g>
	<path class="st2" d="M877.37,726.63L495.55,506.19c-15.63-9.02-14.76-24.09,1.93-33.66l106.75-61.19
		c16.69-9.57,42.89-10.01,58.52-0.99l381.82,220.44c15.63,9.02,14.76,24.09-1.93,33.66l-106.75,61.19
		C919.2,735.21,893,735.65,877.37,726.63z"/>
	<g>
		<path class="st6" d="M1013.32,374.13c0-0.02,0-0.03,0-0.05c0-0.17,0-0.35-0.01-0.52c-0.01-0.17-0.01-0.35-0.02-0.52
			c0-0.02,0-0.05-0.01-0.07c0-0.02,0-0.05-0.01-0.07c-0.01-0.12-0.02-0.24-0.03-0.37c-0.02-0.17-0.04-0.34-0.06-0.51
			c-0.01-0.08-0.02-0.16-0.03-0.24c-0.01-0.04-0.01-0.07-0.02-0.11c-0.01-0.06-0.01-0.11-0.02-0.17c-0.03-0.17-0.06-0.34-0.09-0.52
			c-0.03-0.16-0.06-0.32-0.1-0.49c0-0.01,0-0.01,0-0.02c0,0,0-0.01,0-0.01c-0.04-0.17-0.08-0.35-0.12-0.52
			c-0.04-0.17-0.09-0.34-0.13-0.51c-0.01-0.05-0.03-0.09-0.04-0.14c-0.01-0.03-0.02-0.07-0.03-0.1c-0.03-0.09-0.05-0.18-0.08-0.28
			c-0.05-0.16-0.1-0.33-0.16-0.49c-0.04-0.12-0.08-0.25-0.13-0.37c-0.01-0.02-0.01-0.03-0.02-0.05c-0.01-0.02-0.01-0.04-0.02-0.06
			c-0.06-0.15-0.11-0.31-0.17-0.46c-0.06-0.15-0.12-0.3-0.18-0.44c-0.03-0.06-0.05-0.12-0.08-0.19c-0.01-0.03-0.02-0.05-0.03-0.08
			c-0.02-0.06-0.05-0.12-0.07-0.17c-0.07-0.15-0.14-0.3-0.21-0.46c-0.07-0.15-0.14-0.3-0.22-0.45c-0.01-0.01-0.02-0.03-0.02-0.04
			c-0.01-0.02-0.02-0.05-0.04-0.07c-0.08-0.16-0.16-0.32-0.25-0.47c-0.08-0.15-0.16-0.29-0.25-0.44c-0.05-0.1-0.11-0.19-0.16-0.29
			c-0.03-0.05-0.05-0.09-0.08-0.14c-0.14-0.23-0.29-0.46-0.44-0.69c-0.05-0.07-0.09-0.15-0.14-0.23c-0.01-0.01-0.01-0.02-0.02-0.03
			c-0.19-0.29-0.39-0.57-0.6-0.85c-0.03-0.04-0.06-0.08-0.09-0.12c-0.03-0.04-0.05-0.07-0.08-0.11c-0.07-0.09-0.14-0.19-0.22-0.28
			c-0.12-0.16-0.25-0.31-0.37-0.46c-0.05-0.06-0.1-0.11-0.15-0.17c-0.03-0.03-0.05-0.06-0.08-0.09c-0.05-0.05-0.09-0.11-0.14-0.16
			c-0.12-0.14-0.25-0.28-0.38-0.42c-0.1-0.1-0.19-0.21-0.29-0.31c-0.02-0.02-0.04-0.04-0.05-0.06c-0.02-0.02-0.03-0.03-0.05-0.05
			c-0.14-0.14-0.27-0.28-0.42-0.41c-0.14-0.14-0.29-0.27-0.44-0.41c0,0-0.01-0.01-0.01-0.01c0,0-0.01-0.01-0.01-0.01
			c-0.14-0.13-0.29-0.25-0.43-0.38c-0.15-0.13-0.31-0.26-0.46-0.38c-0.02-0.02-0.04-0.03-0.06-0.04c-0.02-0.02-0.04-0.03-0.07-0.05
			c-0.11-0.09-0.23-0.18-0.34-0.26c-0.16-0.11-0.31-0.23-0.47-0.33c-0.04-0.03-0.09-0.06-0.13-0.09c-0.01-0.01-0.03-0.02-0.04-0.03
			c0,0-0.01,0-0.01-0.01c-0.09-0.06-0.19-0.13-0.28-0.19c-0.16-0.1-0.32-0.2-0.48-0.29c-0.04-0.02-2.55-1.46-2.58-1.49l-14.15,7.66
			c0,0,3.38,1.96,3.54,2.06c0.16,0.1,0.32,0.2,0.47,0.31c0.16,0.11,0.32,0.22,0.47,0.33c0.16,0.12,0.31,0.23,0.47,0.35
			c0.06,0.05,0.13,0.1,0.19,0.16c0.25,0.2,0.49,0.4,0.72,0.62l0,0l0,0c0.24,0.22,0.47,0.44,0.7,0.67c0.03,0.03,0.06,0.06,0.09,0.09
			c0.22,0.22,0.43,0.45,0.64,0.68c0.03,0.04,0.06,0.07,0.1,0.11c0.2,0.23,0.4,0.46,0.59,0.7c0.03,0.04,0.07,0.09,0.1,0.13
			c0.19,0.24,0.38,0.48,0.56,0.73c0.09,0.13,0.18,0.26,0.27,0.39c0.11,0.16,0.22,0.31,0.33,0.47c0.12,0.19,0.24,0.38,0.36,0.56
			c0.08,0.12,0.16,0.24,0.23,0.37c0.06,0.11,0.12,0.22,0.19,0.33c0.11,0.19,0.22,0.39,0.33,0.59c0.03,0.05,0.05,0.11,0.08,0.16
			c0.14,0.27,0.28,0.55,0.41,0.83c0.01,0.02,0.02,0.05,0.03,0.07c0.14,0.29,0.26,0.59,0.39,0.88c0.01,0.03,0.02,0.06,0.04,0.09
			c0.12,0.29,0.23,0.58,0.33,0.87c0.01,0.04,0.03,0.08,0.04,0.11c0.1,0.29,0.19,0.58,0.28,0.87c0.01,0.04,0.03,0.09,0.04,0.13
			c0.08,0.29,0.16,0.58,0.23,0.87c0.01,0.04,0.02,0.09,0.03,0.13c0.07,0.29,0.13,0.58,0.18,0.87c0.01,0.04,0.01,0.08,0.02,0.13
			c0.05,0.29,0.09,0.59,0.13,0.88c0,0.04,0.01,0.08,0.01,0.12c0.03,0.29,0.06,0.59,0.08,0.88c0.01,0.15,0.02,0.29,0.02,0.44
			c0.01,0.17,0.01,0.35,0.01,0.52c0,0.18-0.01,0.36-0.01,0.54c-0.01,0.18-0.02,0.36-0.03,0.54c-0.02,0.19-0.04,0.39-0.06,0.58
			c-0.02,0.15-0.04,0.3-0.06,0.45c0,0-0.05,0.3-0.13,0.81l-48.91,302.27c-0.23,1.44-5.8,10.63-4.54,9.9l13.38-11.34
			c2.83-2.4,4.71-5.73,5.3-9.39l47.99-296.6c0.23-1.44,0.58-3.6,0.58-3.6c0.02-0.15,0.05-0.3,0.06-0.45
			c0.02-0.13,0.03-0.25,0.04-0.38c0-0.01,0-0.01,0-0.02c0-0.02,0-0.03,0-0.05c0-0.04,0.01-0.08,0.01-0.13
			c0.01-0.18,0.03-0.36,0.03-0.54c0.01-0.14,0.01-0.29,0.01-0.43C1013.32,374.18,1013.32,374.16,1013.32,374.13z"/>
		<g>
			<path class="st0" d="M990.11,365.24c6.37,3.68,10.65,12.14,9.56,18.9l-49.62,306.68c-1.09,6.77-7.14,9.26-13.52,5.58
				L466.85,425.22c-6.37-3.68-10.65-12.14-9.56-18.9L506.9,99.64c1.09-6.76,7.14-9.26,13.52-5.58L990.11,365.24z"/>
		</g>
		<path class="st7" d="M1006.39,320.07L540.86,51.3l0,0c0,0-0.02-0.01-0.03-0.02l-0.69-0.4c0,0,0,0-0.01,0
			c-0.53-0.3-1.16-0.66-1.23-0.7c-0.16-0.09-0.32-0.17-0.48-0.25c-0.16-0.08-0.33-0.16-0.49-0.23c-0.16-0.07-0.33-0.14-0.49-0.21
			c-0.17-0.07-0.34-0.13-0.51-0.19c-0.17-0.06-0.34-0.11-0.51-0.17c-0.18-0.05-0.36-0.1-0.54-0.15c-0.01,0-0.02,0-0.03-0.01
			c0,0,0,0,0,0c-0.02,0-0.03-0.01-0.05-0.01c-0.16-0.04-0.31-0.07-0.46-0.1c-0.08-0.02-0.16-0.03-0.24-0.04
			c-0.06-0.01-0.13-0.02-0.19-0.03c-0.05-0.01-0.1-0.02-0.15-0.02c-0.19-0.03-0.38-0.04-0.57-0.06c-0.02,0-0.03,0-0.05,0
			c0,0-0.01,0-0.01,0c-0.23-0.02-0.45-0.02-0.66-0.02c-0.03,0-0.05,0-0.07,0c-0.1,0-0.2,0.01-0.3,0.01
			c-0.12,0.01-0.24,0.01-0.35,0.02c-0.03,0-0.07,0.01-0.1,0.01c-0.16,0.02-0.32,0.04-0.48,0.07c-0.09,0.01-0.17,0.02-0.26,0.04
			c-0.02,0-0.04,0.01-0.06,0.02c-0.31,0.06-0.62,0.15-0.92,0.25c-0.02,0.01-0.04,0.01-0.06,0.02c-0.03,0.01-0.06,0.03-0.1,0.04
			c-0.39,0.14-0.76,0.31-1.12,0.52L516,57.63c0.35-0.2,0.72-0.36,1.09-0.51c0.15-0.05,0.3-0.1,0.44-0.14
			c0.18-0.05,0.36-0.11,0.54-0.15c0.22-0.05,0.44-0.09,0.67-0.12c0.09-0.01,0.17-0.03,0.25-0.04c0.31-0.03,0.63-0.05,0.96-0.04
			c0.06,0,0.12,0,0.18,0.01c0.33,0.01,0.66,0.03,1,0.08c0.02,0,0.05,0.01,0.07,0.01c0.36,0.05,0.72,0.13,1.09,0.22
			c0.03,0.01,0.06,0.02,0.09,0.02c0.36,0.1,0.72,0.21,1.09,0.35c0.04,0.01,0.07,0.03,0.11,0.04c0.39,0.15,0.77,0.31,1.17,0.51
			c0.16,0.08,0.32,0.16,0.48,0.25c0.12,0.07,0.25,0.14,0.37,0.21l2.58,1.49l0,0l466.25,269.19c0.53,0.31,1.19,0.31,1.73,0
			l10.23-5.95C1007.54,322.39,1007.54,320.74,1006.39,320.07z M536.26,52.13L536.26,52.13L536.26,52.13L536.26,52.13z"/>
		<path class="st6" d="M1019,338.4c0-0.02,0-0.03,0-0.05c0-0.17,0-0.35-0.01-0.52c-0.01-0.17-0.01-0.35-0.02-0.52
			c0-0.02,0-0.05-0.01-0.07c0-0.02,0-0.05-0.01-0.07c-0.01-0.12-0.02-0.24-0.03-0.37c-0.02-0.17-0.04-0.34-0.06-0.51
			c-0.01-0.08-0.02-0.16-0.03-0.24c-0.01-0.04-0.01-0.07-0.02-0.11c-0.01-0.06-0.01-0.11-0.02-0.17c-0.03-0.17-0.06-0.34-0.09-0.52
			c-0.03-0.16-0.06-0.32-0.1-0.49c0-0.01,0-0.01,0-0.02c0,0,0-0.01,0-0.01c-0.04-0.17-0.08-0.35-0.12-0.52
			c-0.04-0.17-0.09-0.34-0.13-0.51c-0.01-0.05-0.03-0.09-0.04-0.14c-0.01-0.03-0.02-0.07-0.03-0.1c-0.03-0.09-0.05-0.18-0.08-0.28
			c-0.05-0.16-0.1-0.33-0.16-0.49c-0.04-0.12-0.08-0.25-0.13-0.37c-0.01-0.02-0.01-0.03-0.02-0.05c-0.01-0.02-0.01-0.04-0.02-0.06
			c-0.06-0.15-0.11-0.31-0.17-0.46c-0.06-0.15-0.12-0.3-0.18-0.44c-0.03-0.06-0.05-0.12-0.08-0.19c-0.01-0.03-0.02-0.05-0.03-0.08
			c-0.02-0.06-0.05-0.12-0.07-0.17c-0.07-0.15-0.14-0.3-0.21-0.46s-0.14-0.3-0.22-0.45c-0.01-0.01-0.01-0.03-0.02-0.04
			c-0.01-0.02-0.02-0.05-0.04-0.07c-0.08-0.16-0.16-0.32-0.25-0.47c-0.08-0.15-0.16-0.29-0.25-0.44c-0.05-0.1-0.11-0.19-0.16-0.29
			c-0.03-0.05-0.05-0.09-0.08-0.14c-0.14-0.23-0.29-0.46-0.44-0.69c-0.05-0.07-0.09-0.15-0.14-0.23c-0.01-0.01-0.01-0.02-0.02-0.03
			c-0.19-0.29-0.39-0.57-0.6-0.85c-0.03-0.04-0.06-0.08-0.09-0.12c-0.03-0.04-0.05-0.07-0.08-0.11c-0.07-0.09-0.14-0.19-0.22-0.28
			c-0.12-0.16-0.25-0.31-0.37-0.46c-0.05-0.06-0.1-0.11-0.15-0.17c-0.03-0.03-0.05-0.06-0.08-0.09c-0.05-0.05-0.09-0.11-0.14-0.16
			c-0.12-0.14-0.25-0.28-0.38-0.42c-0.1-0.1-0.19-0.21-0.29-0.31c-0.02-0.02-0.04-0.04-0.05-0.06c-0.02-0.02-0.03-0.03-0.05-0.05
			c-0.14-0.14-0.28-0.28-0.42-0.41c-0.14-0.14-0.29-0.27-0.44-0.41c0,0-0.01-0.01-0.01-0.01c0,0-0.01-0.01-0.01-0.01
			c-0.14-0.13-0.29-0.25-0.43-0.38c-0.15-0.13-0.31-0.26-0.46-0.38c-0.02-0.01-0.04-0.03-0.06-0.04c-0.02-0.02-0.04-0.03-0.07-0.05
			c-0.11-0.09-0.23-0.18-0.34-0.26c-0.16-0.11-0.31-0.23-0.47-0.33c-0.04-0.03-0.09-0.06-0.13-0.09c-0.01-0.01-0.03-0.02-0.04-0.03
			c0,0-0.01,0-0.01-0.01c-0.09-0.06-0.19-0.13-0.28-0.19c-0.16-0.1-0.32-0.2-0.48-0.29c-0.04-0.02-11.34-6.55-11.37-6.57
			l-13.96,8.43c0,0,11.98,6.27,12.14,6.37c0.16,0.1,0.32,0.2,0.47,0.31c0.16,0.11,0.32,0.22,0.47,0.33
			c0.16,0.12,0.31,0.23,0.47,0.35c0.06,0.05,0.13,0.1,0.19,0.16c0.25,0.2,0.49,0.4,0.72,0.62l0,0c0,0,0,0,0,0
			c0.24,0.22,0.47,0.44,0.7,0.67c0.03,0.03,0.06,0.06,0.09,0.09c0.22,0.22,0.43,0.45,0.64,0.68c0.03,0.04,0.06,0.07,0.1,0.11
			c0.2,0.23,0.4,0.46,0.59,0.7c0.03,0.04,0.07,0.09,0.1,0.13c0.19,0.24,0.38,0.48,0.56,0.73c0.09,0.13,0.18,0.26,0.27,0.39
			c0.11,0.16,0.22,0.31,0.33,0.47c0.12,0.19,0.24,0.37,0.36,0.56c0.08,0.12,0.16,0.24,0.23,0.37c0.06,0.11,0.12,0.22,0.19,0.33
			c0.11,0.19,0.22,0.39,0.33,0.59c0.03,0.05,0.05,0.11,0.08,0.16c0.14,0.27,0.28,0.55,0.41,0.83c0.01,0.02,0.02,0.05,0.03,0.07
			c0.14,0.29,0.26,0.59,0.39,0.88c0.01,0.03,0.02,0.06,0.04,0.09c0.12,0.29,0.23,0.58,0.33,0.87c0.01,0.04,0.03,0.08,0.04,0.11
			c0.1,0.29,0.19,0.58,0.28,0.87c0.01,0.04,0.03,0.09,0.04,0.13c0.08,0.29,0.16,0.58,0.23,0.87c0.01,0.04,0.02,0.09,0.03,0.13
			c0.07,0.29,0.13,0.58,0.18,0.87c0.01,0.04,0.01,0.08,0.02,0.13c0.05,0.29,0.09,0.59,0.13,0.88c0,0.04,0.01,0.08,0.01,0.12
			c0.03,0.3,0.06,0.59,0.08,0.88c0.01,0.15,0.02,0.29,0.02,0.44c0.01,0.17,0.01,0.35,0.01,0.52c0,0.18-0.01,0.36-0.01,0.54
			c-0.01,0.18-0.02,0.36-0.03,0.54c-0.02,0.19-0.04,0.39-0.06,0.58c-0.02,0.15-0.04,0.3-0.06,0.45c0,0-0.05,0.3-0.13,0.81
			l-48.91,302.27c-0.23,1.44-5.8,10.63-4.54,9.9l13.38-11.34c2.83-2.4,4.71-5.73,5.3-9.39l47.99-296.6c0.23-1.44,0.58-3.6,0.58-3.6
			c0.02-0.15,0.05-0.3,0.06-0.45c0.02-0.13,0.03-0.25,0.04-0.38c0-0.01,0-0.01,0-0.02c0-0.02,0-0.03,0-0.05
			c0-0.04,0.01-0.08,0.01-0.13c0.01-0.18,0.03-0.36,0.03-0.54c0.01-0.14,0.01-0.29,0.01-0.43C1019,338.44,1019,338.42,1019,338.4z"
			/>
		<g>
			<path class="st1" d="M995.3,329.51c6.37,3.68,10.65,12.14,9.56,18.9l-49.62,306.68c-1.09,6.77-7.14,9.26-13.52,5.58
				L472.03,389.48c-6.37-3.68-10.65-12.14-9.56-18.9L512.09,63.9c1.1-6.76,7.14-9.26,13.52-5.58L995.3,329.51z"/>
		</g>
		<g>
			<path class="st8" d="M978.53,349.24c6.05,3.43,10.14,10.79,9.15,16.47L942.8,622.99c-0.98,5.68-6.69,7.49-12.73,4.07
				l-445.5-252.37c-6.05-3.43-10.14-10.79-9.15-16.47l44.87-257.29c0.99-5.67,6.69-7.49,12.73-4.07L978.53,349.24z"/>
		</g>
		<path class="st0" d="M765.1,214.22c0,2.95-2.09,4.14-4.66,2.66c-2.57-1.49-4.66-5.08-4.66-8.04c0-2.95,2.09-4.14,4.66-2.66
			C763.02,207.66,765.1,211.26,765.1,214.22z"/>
		<path class="st1" d="M942.21,717.11l-0.1-14.26l-18.36,7.1l-3.93-9.06L460.34,435.6c-5.53-3.2-16.68-2.79-23.07,0.9L238.06,550.71
			v-3.18l-30.08,14.69l-4.17-1.72l0.61,13.95c0.46,3.04,1.65,4.3,3.53,5.38L686.1,856.62c5.53,3.2,15.3,3.16,21.69-0.53
			l229.12-132.1c3.49-2.01,5.27-4.51,5.28-6.97L942.21,717.11z"/>
		<path class="st9" d="M685.85,839.23L207.71,563.17c-5.53-3.2-4.83-8.83,1.56-12.52l229.12-132.28c6.39-3.69,16.15-4.09,21.68-0.9
			L938.2,693.53c5.53,3.2,4.83,8.83-1.56,12.52L707.53,838.33C701.14,842.02,691.39,842.42,685.85,839.23z"/>
		<path class="st10" d="M507.67,705.85l-115.72-66.81c-1.34-0.77-1.17-2.14,0.38-3.03L447.78,604c1.55-0.89,3.91-0.99,5.25-0.22
			l115.72,66.81c1.34,0.77,1.17,2.14-0.38,3.03l-55.45,32.01C511.37,706.53,509.01,706.62,507.67,705.85z"/>
	</g>
	<g>
		<g>
			<path class="st1" d="M467.03,468.62c-0.69,0.4-2.11,0.24-3.16-0.37l-29.03-16.75c-1.05-0.6-1.33-1.42-0.64-1.82l19.23-11.11
				c0.7-0.4,2.11-0.24,3.16,0.37l29.03,16.75c1.05,0.6,1.33,1.42,0.64,1.82L467.03,468.62z"/>
			<path class="st1" d="M500.71,518.64c-0.7,0.41-2.11,0.25-3.17-0.37l-29.03-16.75c-1.05-0.6-1.32-1.42-0.62-1.82l19.24-11.11
				c0.68-0.39,2.09-0.24,3.14,0.37l29.03,16.75c1.06,0.61,1.33,1.42,0.65,1.82L500.71,518.64z"/>
			<path class="st1" d="M483.68,539.41c-0.7,0.4-2.11,0.23-3.15-0.37l-29.03-16.75c-1.03-0.59-1.34-1.42-0.64-1.82l19.24-11.11
				c0.68-0.39,2.12-0.22,3.14,0.37l29.03,16.75c1.04,0.6,1.33,1.42,0.65,1.82L483.68,539.41z"/>
			<path class="st1" d="M437.62,543.41c-0.69,0.4-2.1,0.24-3.14-0.36l-29.03-16.75c-1.03-0.6-1.32-1.42-0.63-1.82l19.24-11.11
				c0.69-0.4,2.12-0.23,3.15,0.36l29.03,16.75c1.04,0.6,1.32,1.42,0.63,1.82L437.62,543.41z"/>
			<path class="st1" d="M357.74,531.76c-0.69,0.4-2.11,0.23-3.15-0.37l-29.03-16.75c-1.05-0.6-1.34-1.42-0.64-1.82l22.58-13.05
				c0.68-0.39,2.11-0.23,3.15,0.37l29.03,16.75c1.05,0.6,1.32,1.43,0.64,1.82L357.74,531.76z"/>
			<path class="st1" d="M407.79,560.64c-0.69,0.4-2.37,0.08-3.75-0.71l-38.03-21.95c-1.36-0.79-1.92-1.76-1.23-2.16l22.58-13.05
				c0.68-0.39,2.38-0.08,3.74,0.71l38.03,21.95c1.38,0.8,1.91,1.77,1.24,2.16L407.79,560.64z"/>
			<path class="st1" d="M657.64,705.03c-0.58,0.33-1.9,0.11-2.94-0.49l-29.01-16.74c-1.06-0.61-1.45-1.38-0.87-1.71l8.35-4.82
				c0.57-0.33,1.91-0.11,2.96,0.5l29.01,16.74c1.05,0.6,1.42,1.37,0.85,1.7L657.64,705.03z"/>
			<path class="st1" d="M696.42,728c-0.58,0.33-1.9,0.11-2.94-0.49l-29.01-16.74c-1.06-0.61-1.45-1.38-0.87-1.71l8.35-4.82
				c0.57-0.33,1.91-0.11,2.96,0.5l29.01,16.74c1.05,0.6,1.42,1.37,0.85,1.7L696.42,728z"/>
			<path class="st1" d="M737.54,751.19c-0.56,0.32-1.86,0.09-2.91-0.52l-29.02-16.74c-1.04-0.6-1.46-1.36-0.9-1.68l8.04-4.65
				c0.55-0.32,1.88-0.08,2.92,0.52l29.02,16.74c1.05,0.6,1.44,1.36,0.89,1.68L737.54,751.19z"/>
			<path class="st1" d="M712.25,719.14c-0.56,0.32-1.86,0.09-2.91-0.52l-29.02-16.74c-1.04-0.6-1.46-1.36-0.9-1.68l8.04-4.65
				c0.55-0.32,1.88-0.08,2.92,0.52l29.02,16.74c1.05,0.6,1.44,1.36,0.89,1.68L712.25,719.14z"/>
			<path class="st1" d="M607.47,675.86c-0.69,0.4-2.12,0.23-3.17-0.38L415.4,566.47c-1.03-0.59-1.34-1.42-0.64-1.82l22.58-13.05
				c0.68-0.39,2.13-0.22,3.16,0.37l188.9,109.01c1.05,0.61,1.33,1.44,0.66,1.83L607.47,675.86z"/>
			<path class="st1" d="M588.12,659.33c-0.04,0.02-0.76-0.35-1.6-0.83l-150.34-86.76c-0.82-0.47-1.48-0.89-1.44-0.92l1.4-0.81
				c0.04-0.02,0.77,0.35,1.59,0.83l150.34,86.76c0.84,0.48,1.49,0.9,1.44,0.92L588.12,659.33z"/>
			<path class="st1" d="M402.61,553.44c-0.04,0.02-0.18-0.01-0.3-0.08l-22.19-12.81c-0.12-0.07-0.19-0.15-0.15-0.17l1.4-0.81
				c0.04-0.02,0.18,0.01,0.3,0.08l22.19,12.81c0.12,0.07,0.19,0.15,0.15,0.17L402.61,553.44z"/>
			<path class="st1" d="M345.72,518.16c-0.04,0.02-0.12,0.02-0.17-0.01l-9.42-5.44c-0.05-0.03-0.06-0.07-0.02-0.1l1.4-0.81
				c0.04-0.02,0.12-0.02,0.17,0.01l9.42,5.44c0.05,0.03,0.06,0.08,0.02,0.1L345.72,518.16z"/>
			<path class="st1" d="M477.42,566.36c-0.69,0.4-2.1,0.24-3.16-0.37l-29.03-16.75c-1.03-0.59-1.33-1.43-0.65-1.82l19.24-11.11
				c0.69-0.4,2.13-0.23,3.16,0.37l29.03,16.75c1.05,0.61,1.33,1.43,0.64,1.83L477.42,566.36z"/>
			<path class="st1" d="M517.38,589.42c-0.69,0.4-2.11,0.23-3.14-0.36l-29.02-16.75c-1.04-0.6-1.33-1.43-0.65-1.82l19.24-11.11
				c0.69-0.4,2.12-0.23,3.16,0.37l29.02,16.75c1.03,0.59,1.32,1.42,0.63,1.82L517.38,589.42z"/>
			<path class="st1" d="M557.35,612.49c-0.69,0.4-2.11,0.23-3.14-0.36l-29.03-16.75c-1.04-0.6-1.32-1.42-0.63-1.82l19.23-11.11
				c0.69-0.4,2.11-0.24,3.15,0.36l29.03,16.75c1.04,0.6,1.32,1.42,0.63,1.82L557.35,612.49z"/>
			<path class="st1" d="M597.32,635.55c-0.69,0.4-2.1,0.24-3.15-0.37l-29.03-16.75c-1.05-0.61-1.33-1.43-0.65-1.82l19.23-11.11
				c0.69-0.4,2.11-0.24,3.16,0.37l29.03,16.75c1.04,0.6,1.32,1.42,0.63,1.82L597.32,635.55z"/>
			<path class="st1" d="M637.3,658.62c-0.69,0.4-2.12,0.23-3.17-0.38l-29.02-16.75c-1.04-0.6-1.32-1.42-0.63-1.82l19.23-11.11
				c0.69-0.4,2.11-0.24,3.15,0.36l29.02,16.75c1.05,0.61,1.34,1.43,0.65,1.83L637.3,658.62z"/>
			<path class="st1" d="M677.27,681.67c-0.69,0.4-2.11,0.23-3.15-0.37l-29.02-16.75c-1.05-0.6-1.33-1.43-0.65-1.82l19.24-11.11
				c0.69-0.4,2.12-0.23,3.16,0.37l29.02,16.75c1.04,0.6,1.33,1.42,0.64,1.82L677.27,681.67z"/>
			<path class="st1" d="M767.3,733.63c-0.69,0.4-2.11,0.23-3.15-0.37l-79.08-45.64c-1.05-0.6-1.33-1.42-0.64-1.82l19.24-11.11
				c0.69-0.4,2.11-0.24,3.16,0.37l79.08,45.64c1.05,0.6,1.33,1.42,0.64,1.82L767.3,733.63z"/>
			<path class="st1" d="M523.46,562.34c-0.7,0.4-2.09,0.24-3.14-0.36l-29.03-16.75c-1.04-0.6-1.33-1.41-0.64-1.81l19.24-11.11
				c0.68-0.39,2.1-0.23,3.14,0.37l29.03,16.75c1.05,0.61,1.32,1.41,0.64,1.81L523.46,562.34z"/>
			<path class="st1" d="M563.44,585.41c-0.7,0.4-2.11,0.23-3.14-0.37l-29.04-16.76c-1.03-0.6-1.33-1.41-0.63-1.81l19.24-11.11
				c0.68-0.39,2.1-0.23,3.13,0.36l29.04,16.76c1.03,0.6,1.32,1.42,0.64,1.81L563.44,585.41z"/>
			<path class="st1" d="M603.41,608.48c-0.7,0.4-2.11,0.23-3.15-0.37l-29.03-16.75c-1.03-0.59-1.35-1.42-0.65-1.82l19.24-11.11
				c0.68-0.39,2.12-0.22,3.15,0.38L622,595.55c1.04,0.6,1.33,1.42,0.65,1.82L603.41,608.48z"/>
			<path class="st1" d="M643.37,631.54c-0.7,0.4-2.1,0.23-3.14-0.37l-29.02-16.75c-1.05-0.6-1.34-1.42-0.64-1.82l19.24-11.11
				c0.68-0.39,2.1-0.23,3.14,0.37l29.02,16.75c1.04,0.6,1.33,1.42,0.64,1.81L643.37,631.54z"/>
			<path class="st1" d="M683.36,654.6c-0.7,0.4-2.11,0.23-3.14-0.37l-29.04-16.76c-1.05-0.6-1.33-1.41-0.64-1.81l19.24-11.11
				c0.68-0.39,2.09-0.23,3.14,0.37l29.04,16.76c1.04,0.6,1.33,1.42,0.64,1.81L683.36,654.6z"/>
			<path class="st1" d="M723.32,677.66c-0.7,0.4-2.1,0.23-3.14-0.37l-29.02-16.75c-1.05-0.61-1.35-1.42-0.65-1.82l19.24-11.11
				c0.68-0.39,2.1-0.23,3.15,0.38l29.02,16.75c1.04,0.6,1.32,1.42,0.64,1.81L723.32,677.66z"/>
			<path class="st1" d="M763.29,700.72c-0.7,0.4-2.1,0.23-3.14-0.37l-29.04-16.76c-1.04-0.6-1.32-1.41-0.63-1.81l19.24-11.11
				c0.68-0.39,2.09-0.23,3.13,0.36l29.04,16.76c1.04,0.6,1.32,1.42,0.64,1.81L763.29,700.72z"/>
			<path class="st1" d="M540.49,541.58c-0.7,0.41-2.11,0.24-3.16-0.36l-29.03-16.75c-1.03-0.6-1.32-1.41-0.62-1.82l19.24-11.11
				c0.68-0.39,2.1-0.23,3.13,0.36l29.03,16.75c1.05,0.6,1.33,1.42,0.65,1.82L540.49,541.58z"/>
			<path class="st1" d="M580.45,564.64c-0.7,0.41-2.12,0.24-3.15-0.36l-29.03-16.75c-1.04-0.6-1.33-1.42-0.63-1.83l19.24-11.11
				c0.68-0.39,2.1-0.23,3.15,0.37l29.03,16.75c1.03,0.6,1.32,1.42,0.64,1.81L580.45,564.64z"/>
			<path class="st1" d="M620.43,587.71c-0.7,0.41-2.11,0.24-3.17-0.37l-29.02-16.75c-1.04-0.6-1.32-1.41-0.62-1.82l19.24-11.11
				c0.68-0.39,2.1-0.23,3.14,0.37l29.02,16.75c1.05,0.61,1.33,1.42,0.65,1.82L620.43,587.71z"/>
			<path class="st1" d="M660.39,610.77c-0.7,0.41-2.1,0.25-3.15-0.36l-29.03-16.75c-1.05-0.6-1.33-1.42-0.63-1.83l19.24-11.11
				c0.68-0.39,2.1-0.23,3.15,0.37l29.03,16.75c1.05,0.6,1.32,1.42,0.64,1.81L660.39,610.77z"/>
			<path class="st1" d="M700.37,633.82c-0.7,0.41-2.12,0.24-3.14-0.35l-29.03-16.75c-1.05-0.61-1.33-1.42-0.63-1.82l19.24-11.11
				c0.68-0.39,2.09-0.24,3.14,0.37l29.03,16.75c1.03,0.59,1.31,1.41,0.63,1.81L700.37,633.82z"/>
			<path class="st1" d="M740.35,656.89c-0.7,0.41-2.12,0.24-3.17-0.37l-29.03-16.75c-1.03-0.59-1.32-1.42-0.62-1.82l19.24-11.11
				c0.68-0.39,2.11-0.23,3.14,0.37l29.03,16.75c1.05,0.61,1.34,1.43,0.66,1.82L740.35,656.89z"/>
			<path class="st1" d="M780.31,679.96c-0.7,0.41-2.12,0.24-3.15-0.36l-29.03-16.75c-1.05-0.6-1.33-1.42-0.63-1.82l19.24-11.11
				c0.68-0.39,2.1-0.23,3.14,0.37l29.03,16.75c1.04,0.6,1.32,1.42,0.64,1.81L780.31,679.96z"/>
			<path class="st1" d="M460.74,495.58c-0.7,0.41-2.12,0.24-3.17-0.36l-49.22-28.4c-1.05-0.6-1.33-1.42-0.63-1.83l19.24-11.11
				c0.68-0.39,2.1-0.23,3.15,0.37l49.22,28.4c1.05,0.6,1.33,1.42,0.65,1.82L460.74,495.58z"/>
			<path class="st1" d="M846.76,687.72c-0.69,0.4-2.11,0.24-3.16-0.37l-49.22-28.4c-1.03-0.59-1.33-1.42-0.63-1.82l19.23-11.11
				c0.7-0.4,2.12-0.23,3.15,0.36l49.22,28.4c1.05,0.6,1.33,1.42,0.64,1.82L846.76,687.72z"/>
			<path class="st1" d="M443.71,516.34c-0.7,0.4-2.09,0.24-3.15-0.37l-58.68-33.86c-1.05-0.6-1.34-1.42-0.65-1.82l19.24-11.11
				c0.68-0.39,2.1-0.23,3.15,0.37l58.68,33.86c1.06,0.61,1.33,1.42,0.65,1.82L443.71,516.34z"/>
			<path class="st1" d="M397.67,520.35c-0.69,0.4-2.11,0.23-3.15-0.37l-39.12-22.58c-1.05-0.6-1.33-1.42-0.64-1.82l19.24-11.11
				c0.69-0.4,2.11-0.24,3.16,0.37l39.12,22.58c1.05,0.6,1.33,1.43,0.64,1.82L397.67,520.35z"/>
			<path class="st1" d="M506.99,491.68c-0.69,0.4-2.1,0.24-3.16-0.37l-29.01-16.74c-1.05-0.6-1.33-1.42-0.64-1.82l19.23-11.11
				c0.7-0.4,2.11-0.24,3.16,0.37l29.01,16.74c1.06,0.61,1.34,1.42,0.64,1.83L506.99,491.68z"/>
			<path class="st1" d="M546.79,514.63c-0.69,0.4-2.12,0.23-3.16-0.37l-29.03-16.75c-1.04-0.6-1.33-1.42-0.64-1.82l19.23-11.11
				c0.7-0.4,2.12-0.23,3.16,0.37l29.03,16.75c1.05,0.6,1.34,1.42,0.64,1.83L546.79,514.63z"/>
			<path class="st1" d="M586.74,537.68c-0.69,0.4-2.1,0.25-3.15-0.36l-29.03-16.75c-1.04-0.6-1.32-1.42-0.63-1.82l19.23-11.11
				c0.7-0.4,2.11-0.24,3.15,0.36l29.03,16.75c1.05,0.61,1.32,1.41,0.63,1.82L586.74,537.68z"/>
			<path class="st1" d="M626.72,560.76c-0.69,0.4-2.12,0.23-3.16-0.37l-29.01-16.74c-1.05-0.61-1.34-1.42-0.64-1.82l19.23-11.11
				c0.7-0.4,2.11-0.24,3.16,0.37l29.01,16.74c1.04,0.6,1.34,1.42,0.64,1.82L626.72,560.76z"/>
			<path class="st1" d="M666.68,583.82c-0.69,0.4-2.09,0.25-3.14-0.36l-29.02-16.75c-1.05-0.61-1.34-1.42-0.64-1.82l19.23-11.11
				c0.7-0.4,2.11-0.24,3.16,0.37l29.02,16.75c1.05,0.61,1.32,1.41,0.62,1.81L666.68,583.82z"/>
			<path class="st1" d="M706.67,606.87c-0.69,0.4-2.12,0.23-3.15-0.36l-29.04-16.76c-1.04-0.6-1.32-1.41-0.62-1.81l19.23-11.11
				c0.7-0.4,2.11-0.24,3.14,0.36l29.04,16.76c1.03,0.6,1.33,1.41,0.63,1.82L706.67,606.87z"/>
			<path class="st1" d="M746.64,629.94c-0.69,0.4-2.11,0.24-3.16-0.37l-29.03-16.75c-1.05-0.61-1.34-1.43-0.65-1.83l19.23-11.11
				c0.7-0.4,2.12-0.23,3.17,0.37l29.03,16.75c1.05,0.6,1.33,1.42,0.64,1.82L746.64,629.94z"/>
			<path class="st1" d="M786.59,653c-0.69,0.4-2.1,0.24-3.14-0.36l-29.05-16.76c-1.03-0.6-1.31-1.41-0.62-1.81l19.23-11.11
				c0.7-0.4,2.11-0.24,3.14,0.36l29.05,16.76c1.04,0.6,1.32,1.41,0.62,1.81L786.59,653z"/>
			<path class="st1" d="M809.84,673.34c-0.48-0.28-1.07-0.49-1.7-0.56c-0.61-0.07-1.11,0.01-1.43,0.19l-19.24,11.11
				c-0.32,0.19-0.47,0.48-0.35,0.83c0.14,0.35,0.48,0.7,0.96,0.98l7.58,4.37l-25.22,14.57c-0.33,0.19-0.45,0.49-0.33,0.84
				c0.12,0.36,0.48,0.7,0.97,0.98l19.55,11.28c0.49,0.29,1.09,0.49,1.71,0.57c0.61,0.08,1.12,0,1.45-0.19l45.73-26.42
				c0.32-0.19,0.45-0.48,0.32-0.83c-0.12-0.36-0.48-0.7-0.98-0.99L809.84,673.34z"/>
			<path class="st1" d="M392.47,510.98c-0.04,0.02-0.18-0.01-0.3-0.08l-22.19-12.81c-0.12-0.07-0.19-0.15-0.15-0.17l1.4-0.81
				c0.04-0.02,0.18,0.01,0.3,0.08L393.72,510c0.12,0.07,0.19,0.15,0.15,0.17L392.47,510.98z"/>
		</g>
	</g>
	<polygon class="st11" points="501.26,575.33 470.95,553.73 477.02,545.42 507.33,567.01 	"/>
	<path class="st12" d="M890.53,364.41l-0.44-0.9c-0.25-0.51-0.03-1.13,0.48-1.38l0,0c0.51-0.25,1.14-0.03,1.38,0.48l0.44,0.9
		c0.25,0.51,0.03,1.14-0.48,1.38l0,0C891.4,365.14,890.78,364.93,890.53,364.41z"/>
	<path class="st13" d="M323.06,630.16l247.62,143.38c0,0,264.71-135.61,297.13-425.74c9.48-84.84-50.6-14.51-78.32-22.03
		c-40.91-11.09-68.95-21.3-68.95-21.3L323.06,630.16z"/>
	<path class="st0" d="M866.35,305.74L639.86,178.46c-4.27-2.4-8.59,0.02-9.64,5.41c-39.86,148.6-45.87,256.81-318.52,432.65
		L552.8,757.6c103.63-69.64,293.53-224.5,319.4-437.74C873.24,314.46,870.63,308.15,866.35,305.74z"/>
	<path class="st14" d="M839.05,372.18l-78.57-47.37c-2.46-1.48-3.68-5.26-2.74-8.44l0,0c0.94-3.18,3.69-4.56,6.15-3.07l78.57,47.37
		c2.46,1.48,3.68,5.26,2.74,8.44l0,0C844.26,372.28,841.5,373.66,839.05,372.18z"/>
	<path class="st14" d="M707.9,588.21l-79.03-46.6c-2.47-1.46-3.74-5.22-2.83-8.41l0,0c0.91-3.19,3.65-4.59,6.12-3.13l79.03,46.6
		c2.47,1.46,3.74,5.22,2.83,8.41l0,0C713.11,588.26,710.37,589.67,707.9,588.21z"/>
	<path class="st15" d="M603.99,526.27l-79.03-46.6c-2.47-1.46-3.74-5.22-2.83-8.41l0,0c0.91-3.19,3.65-4.59,6.12-3.14l79.03,46.6
		c2.47,1.46,3.74,5.22,2.83,8.41v0C609.2,526.32,606.46,527.73,603.99,526.27z"/>
	<polygon class="st11" points="835.69,401.24 748.23,348.51 751.63,336.99 839.09,389.73 	"/>
	<polygon class="st11" points="716.17,329.18 628.71,276.44 632.12,264.93 719.58,317.67 	"/>
	<polygon class="st11" points="827.88,427.62 740.42,374.89 743.83,363.38 831.29,416.11 	"/>
	<polygon class="st11" points="708.36,355.56 620.9,302.82 624.31,291.31 711.77,344.05 	"/>
	<polygon class="st11" points="692,401.27 604.54,348.53 607.95,337.02 695.41,389.76 	"/>
	<polygon class="st11" points="649.58,349.51 613.52,327.77 616.93,316.25 652.99,338 	"/>
	<polygon class="st11" points="631.08,392.26 595.02,370.51 598.42,359 634.48,380.75 	"/>
	<polygon class="st11" points="634.95,452.66 578.93,418.88 583.9,408.21 639.93,441.99 	"/>
	<polygon class="st11" points="620.35,478.29 564.33,444.51 569.3,433.84 625.32,467.62 	"/>
	<polygon class="st11" points="699.33,377.24 663.27,355.49 666.68,343.98 702.74,365.73 	"/>
	<polygon class="st11" points="720.54,304.48 684.48,282.73 687.89,271.22 723.95,292.97 	"/>
	<polygon class="st11" points="769.1,421.57 733.04,399.83 736.45,388.32 772.5,410.06 	"/>
	<polygon class="st11" points="584.06,551.08 498.31,497.96 505.04,488.44 590.78,541.56 	"/>
	<polygon class="st11" points="568.64,572.89 482.9,519.77 489.63,510.25 575.37,563.37 	"/>
	<g>
		<path class="st16" d="M687.28,233.95c-0.7,1.46-1.31,3.03-1.85,4.71l-1.7,5.32l-0.36,0.17l-1.66-0.95l-0.2-0.45
			c0.75-2.79,1.15-4.44,1.19-4.97c0.05-0.97-0.36-1.8-1.22-2.47c-0.33-0.26-1.97-1.24-4.92-2.93l-3.53-2.02
			c-0.27,0.73-1.19,3.69-2.79,8.88l-5.59,18.2c-1.56,5.08-2.46,8.46-2.71,10.13c-0.1,0.67,0.07,1.24,0.53,1.7
			c0.24,0.24,1.23,0.93,2.98,2.08l0.17,0.47l-0.66,2.15l-0.36,0.17c-1.7-1.12-4.38-2.73-8.06-4.83c-3.76-2.15-6.48-3.63-8.17-4.45
			l-0.15-0.42l0.67-2.18l0.36-0.17c1.83,0.9,2.89,1.38,3.18,1.44c0.56,0.12,0.98-0.1,1.26-0.67c0.7-1.41,1.83-4.65,3.39-9.74
			l5.59-18.2c1.62-5.28,2.51-8.26,2.66-8.95l-3.77-2.15c-3.14-1.8-5.02-2.73-5.61-2.79c-0.32-0.03-0.56,0.02-0.73,0.15
			c-0.26,0.25-0.6,0.86-1.03,1.83c-0.47,1.06-0.91,2.18-1.31,3.36l-0.36,0.17l-1.66-0.95l-0.19-0.49l1.63-5.51
			c0.45-1.55,0.84-3.2,1.15-4.96l0.34-0.18c0.97,0.81,4.71,3.07,11.23,6.79l10.67,6.1c6.01,3.43,9.82,5.48,11.43,6.15L687.28,233.95
			z"/>
	</g>
	<path class="st17" d="M795.71,481.71l-104.6-63.04c-2.97-1.79-8.79,0.45-10.41,4.01l-33.7,74.14c-1.37,3.02-0.67,5.81,1.85,7.33
		l11.17,6.73l-0.06,0.04l87.5,52.74l0-0.07l6.55,3.95c2.68,1.62,7.94-0.41,9.4-3.62l34.1-75.04
		C798.87,485.92,798.18,483.2,795.71,481.71z"/>
	<g>
		<path class="st18" d="M742.56,569.02L637.4,505.64c-2.52-1.52-3.23-4.3-1.85-7.33l33.7-74.14c1.62-3.56,7.44-5.8,10.41-4.01
			l104.6,63.04c2.47,1.49,3.16,4.21,1.81,7.17l-34.1,75.04C750.5,568.61,745.25,570.64,742.56,569.02z"/>
		<path class="st5" d="M648.51,512.41l25.85-16.03c6.1-3.78,13.34-2.78,13.79,1.92l2.98,31.17l30.32-22.53
			c6.35-4.72,14.91-3.77,14.88,1.66l-0.31,56.54L648.51,512.41z"/>
		<path class="st14" d="M703.09,464.34c-2.38,5.23-7.41,7.6-11.25,5.29c-3.83-2.31-5.02-8.42-2.64-13.65
			c2.38-5.23,7.41-7.6,11.25-5.29C704.28,452.99,705.47,459.11,703.09,464.34z"/>
	</g>
	<g>
		
			<ellipse transform="matrix(0.9893 -0.1457 0.1457 0.9893 -96.0923 174.5261)" class="st2" cx="1143.16" cy="743.13" rx="108.53" ry="64.64"/>
		<g>
			<g>
				<path class="st3" d="M1167.79,316.18c6.72-11.76,21.74-17.47,34.18-11.18c13.64,6.89,17.2,21.81,12.95,35.69
					c-4.19,13.71-14.2,25.25-22.73,36.49c-8.1,10.67-16.3,21.25-24.32,31.97c-4.01,5.36,5.01,10.55,8.98,5.25
					c7.58-10.13,15.32-20.14,22.98-30.21c8.15-10.72,17.08-21.4,22.52-33.83c5.45-12.47,7.12-27.19,0.26-39.48
					c-5.82-10.44-16.84-17.65-28.74-18.76c-14.17-1.32-28.09,6.64-35.06,18.83C1155.49,316.75,1164.46,321.99,1167.79,316.18
					L1167.79,316.18z"/>
			</g>
		</g>
		
			<ellipse transform="matrix(0.029 -0.9996 0.9996 0.029 326.0188 1833.2524)" class="st19" cx="1106.58" cy="748.83" rx="60.14" ry="101.06"/>
		
			<ellipse transform="matrix(0.029 -0.9996 0.9996 0.029 358.6448 1803.3439)" class="st20" cx="1107.5" cy="717.08" rx="60.14" ry="101.06"/>
		<path class="st3" d="M1088.18,669.22l-12.32,30.87c-1.12,2.82-0.06,6.03,2.52,7.62l37.85,23.34c4.11,2.53,9.42-0.36,9.51-5.19
			l0.75-38.01c0.04-2.21-1.08-4.28-2.96-5.44l-26.28-16.21C1093.95,664.18,1089.62,665.62,1088.18,669.22z"/>
		<path class="st3" d="M1098.19,658.56l13.55-7.02l31.49,19.76l4.9,42.35c0.26,2.28-0.63,4.55-2.39,6.03l-5.76,4.87
			c-5.62,4.76-14.23,0.66-14.08-6.7l0.67-33.56l-28.68-17.69C1094.83,664.72,1094.99,660.22,1098.19,658.56z"/>
		<polyline class="st21" points="1115.19,360.52 1207.55,505.43 1112.93,664.72 		"/>
		<g>
			<g>
				<path class="st3" d="M1167.39,400.64c-11.51,18.2-7.33,38.63,5.72,54.74c8.45,10.43,19.69,18.62,31.22,25.34
					c7.06,4.11,14.42,7.7,21.93,10.92c3.43,1.47,8.62,3.33,10.93,4.42c-0.76-0.36,0.44,0.29,0.65,0.45
					c0.47,0.35-0.09-0.17,0.73,0.66c1.82,1.82,2.93,3.87,1.91,6.77c-2.28,6.49-11.26,10.3-16.89,12.92
					c-6.06,2.82-0.79,11.78,5.25,8.98c9.79-4.56,23.38-12.47,22.36-25.17c-0.69-8.58-7.06-12.95-14.33-15.81
					c-15-5.91-29.91-13.34-42.62-23.38c-8.79-6.95-17.36-15.66-21.34-26.36c-3.75-10.1-2.24-20.2,3.46-29.21
					C1179.95,400.22,1170.96,395,1167.39,400.64L1167.39,400.64z"/>
			</g>
		</g>
		<polyline class="st21" points="1139.37,348.31 1234.05,508.37 1132.12,676.87 		"/>
		<path class="st22" d="M1165.35,348.54l-70.3,35.09c-18.94,9.45-42.16,1.69-51.62-17.24l-0.96-1.91
			c-9.45-18.94-1.69-42.16,17.25-51.62l70.3-35.09c18.94-9.45,42.16-1.69,51.62,17.24l0.96,1.91
			C1192.04,315.86,1184.28,339.09,1165.35,348.54z"/>
		<path class="st23" d="M1142.89,290.88l-41.58,19.05c-2.07,0.95-4.54,0.03-5.49-2.04l0,0c-0.95-2.07-0.03-4.54,2.04-5.49
			l41.57-19.05c2.07-0.95,4.54-0.03,5.49,2.04l0,0C1145.88,287.46,1144.96,289.93,1142.89,290.88z"/>
		<path class="st23" d="M1161.88,307.59l-41.58,19.05c-2.07,0.95-4.54,0.03-5.49-2.04l0,0c-0.95-2.07-0.03-4.54,2.04-5.49
			l41.58-19.05c2.07-0.95,4.54-0.03,5.49,2.04l0,0C1164.87,304.17,1163.95,306.64,1161.88,307.59z"/>
		<path class="st23" d="M1167.92,333.22l-41.57,19.05c-2.07,0.95-4.54,0.03-5.49-2.04l0,0c-0.95-2.07-0.03-4.54,2.04-5.49
			l41.58-19.05c2.07-0.95,4.54-0.03,5.49,2.04l0,0C1170.91,329.8,1169.99,332.27,1167.92,333.22z"/>
		
			<ellipse transform="matrix(0.8774 -0.4797 0.4797 0.8774 -65.2472 531.517)" class="st4" cx="1007.4" cy="393.43" rx="28.27" ry="96.48"/>
		<path class="st4" d="M1063.87,471.61l25.55-23.88c31.49-29.43,37.8-77.01,15.09-113.64l0,0c-20.82-33.56-61.01-49.72-99.26-39.89
			l-35.31,9.07L1063.87,471.61z"/>
		<path class="st3" d="M997.88,324.59l24.69-6.34c23.82-6.12,48.7,2.2,64.15,20.66c-1.3-3.16-2.85-6.26-4.71-9.25
			c-14.56-23.47-42.68-34.77-69.43-27.9l-24.69,6.34L997.88,324.59z"/>
		<path class="st24" d="M1098.85,327.23L1098.85,327.23c-1.78-2.87-3.75-5.56-5.81-8.16c17.27,35.33,9.77,78.3-19.47,105.63
			l-24.78,23.17l9.42,16.89l25.55-23.88C1115.26,411.44,1121.57,363.86,1098.85,327.23z"/>
		
			<ellipse transform="matrix(0.8774 -0.4797 0.4797 0.8774 -61.517 535.0728)" class="st1" cx="1016.22" cy="387.91" rx="28.27" ry="96.48"/>
		<path class="st0" d="M989.74,362.45c-1.39,16.16,2.06,40.5,30.92,53.93c12.49,5.82,26.55-4.46,24.37-18.07
			c-2.9-18.15-14.68-39.55-29.15-48.9C1005.15,342.48,990.84,349.71,989.74,362.45z"/>
		<path class="st25" d="M1041.02,374.34c-25.56-46.75-57.39-78.58-71.09-71.09c-2.57,1.4-4.31,4.09-5.29,7.83
			c15.96,5.18,40.87,33.32,61.65,71.32c20.78,38,31.02,74.16,26.77,90.39c3.68,1.19,6.88,1.17,9.44-0.23
			C1076.2,465.07,1066.58,421.09,1041.02,374.34z"/>
		<path class="st3" d="M1201.67,494.79l34.98,16.85c4.17,2.01,5.71,7.17,3.32,11.13l-15.9,26.41c-1.45,2.41-4.52,3.28-7.02,2
			l-35.61-18.26c-2.96-1.52-4.02-5.23-2.31-8.08l17.08-28.42C1197.33,494.55,1199.7,493.85,1201.67,494.79z"/>
		<path class="st4" d="M1234.43,510.58l4.09,2.28c3.03,1.69,4.06,5.56,2.27,8.53l-16.56,27.51c-1.55,2.57-4.82,3.5-7.48,2.13
			l-6.69-3.43L1234.43,510.58z"/>
	</g>
	<g>
		<path class="st2" d="M948.8,867.61l-34.76,20.96c-12.81,7.73-31.4,5.55-41.3-4.84l0,0c-9.91-10.39-7.52-25.22,5.29-32.94
			l34.76-20.96c12.81-7.73,31.4-5.55,41.3,4.84l0,0C963.99,845.06,961.61,859.88,948.8,867.61z"/>
		<path class="st0" d="M940.88,859.42l-34.76,20.96c-12.81,7.73-31.4,5.55-41.3-4.84l0,0c-9.91-10.39-7.52-25.22,5.29-32.94
			l34.76-20.96c12.81-7.73,31.4-5.55,41.3,4.84l0,0C956.08,836.87,953.7,851.69,940.88,859.42z"/>
		<g>
			<g>
				<path class="st7" d="M934.96,823.54c-3.75,0.72-7.31,2.29-10.34,4.61c-1.4,1.07-2.14,2.81-1.17,4.47
					c0.81,1.38,3.06,2.25,4.47,1.17c2.65-2.03,5.5-3.32,8.78-3.95C940.83,829.05,939.08,822.75,934.96,823.54L934.96,823.54z"/>
			</g>
		</g>
	</g>
	<g>
		
			<ellipse transform="matrix(0.7071 -0.7071 0.7071 0.7071 -123.2462 396.5678)" class="st1" cx="417.08" cy="347.06" rx="10.05" ry="10.05"/>
		
			<ellipse transform="matrix(0.7071 -0.7071 0.7071 0.7071 -113.3497 398.3787)" class="st1" cx="424.21" cy="336.01" rx="10.05" ry="10.05"/>
		
			<ellipse transform="matrix(0.9229 -0.385 0.385 0.9229 -93.9741 182.6259)" class="st1" cx="409.03" cy="325.97" rx="10.05" ry="10.05"/>
		<g>
			<g>
				<g>
					<path class="st26" d="M337.15,453.81c7.18,14.44,18.95,22.22,34.83,24.04c8.76,1.01,17.66,0.52,26.44,0
						c13.44-0.8,26.86-1.9,40.3-2.68c11.29-0.65,11.37-18.31,0-17.65c-20.9,1.21-42.41,4.5-63.37,3c-0.85-0.06-1.7-0.14-2.55-0.22
						c-1.79-0.17-0.4-0.03-0.86-0.11c-1.49-0.26-2.96-0.55-4.41-0.95c-0.78-0.21-3.86-1.31-3.24-1.04c0.67,0.29-2.15-1.18-2.8-1.56
						c-0.22-0.13-2.03-1.4-1.01-0.64c1.01,0.76-0.72-0.62-0.91-0.81c-1.02-0.96-1.97-1.95-2.88-3.02c-0.32-0.37,0.6,0.94-0.4-0.56
						c-0.43-0.64-0.87-1.28-1.28-1.94c-0.96-1.54-1.81-3.14-2.62-4.77C347.34,434.73,332.11,443.66,337.15,453.81L337.15,453.81z"/>
				</g>
			</g>
			
				<ellipse transform="matrix(5.422309e-03 -1 1 5.422309e-03 -414.7727 1176.6343)" class="st2" cx="384.13" cy="796.83" rx="42.7" ry="73.96"/>
			<path class="st26" d="M496.1,509.61l-5.09-4.05c-3.92-3.12-4.57-8.87-1.45-12.79l0,0c3.12-3.92,8.87-4.57,12.79-1.45l5.09,4.05
				c3.92,3.12,4.57,8.87,1.45,12.79l0,0C505.77,512.08,500.01,512.73,496.1,509.61z"/>
			<path class="st1" d="M367.36,783.62c-0.54,0.47-8.55,4.49-9.06,4.93c-0.77,0.67-3.07,2.53-4.46,3.53
				c-2.93,2.11-9.11,10.14-19.2,4.49c-14.76-8.27,20.47-31.8,20.47-31.8l15.59-8.13c1.9-0.99,4.19-0.99,6.17,0l0,0
				c3.65,1.83,5.11,6.35,3.13,9.78C376.59,772.3,376.4,775.73,367.36,783.62z"/>
			<path class="st0" d="M365.7,779.2c-0.54,0.47-8.55,4.49-9.06,4.93c-0.77,0.67-3.07,2.53-4.46,3.53
				c-2.93,2.11-9.11,10.14-19.2,4.49c-14.76-8.27,20.47-31.8,20.47-31.8l15.59-8.13c1.9-0.99,4.19-0.99,6.17,0l0,0
				c3.65,1.83,5.11,6.35,3.13,9.78C374.93,767.89,374.74,771.32,365.7,779.2z"/>
			<path class="st1" d="M422.35,817.26c-0.62,0.35-9.28,2.69-9.86,3.02c-0.89,0.5-3.52,1.86-5.08,2.56
				c-3.29,1.48-10.96,8.11-19.71,0.55c-12.81-11.06,26.43-27.06,26.43-27.06l16.9-4.84c2.06-0.59,4.3-0.13,6.04,1.23l0,0
				c3.21,2.52,3.74,7.24,1.11,10.21C433.66,808.02,432.78,811.35,422.35,817.26z"/>
			<path class="st0" d="M421.6,812.6c-0.62,0.35-9.28,2.69-9.86,3.02c-0.89,0.5-3.52,1.86-5.08,2.56
				c-3.29,1.48-10.96,8.11-19.71,0.55c-12.81-11.06,26.43-27.06,26.43-27.06l16.9-4.84c2.06-0.59,4.3-0.13,6.04,1.23l0,0
				c3.21,2.52,3.74,7.24,1.11,10.21C432.91,803.36,432.04,806.69,421.6,812.6z"/>
			<g>
				<g>
					<path class="st27" d="M377.9,608.5c2.26,6.58,4.15,13.29,5.67,20.08c0.78,3.49,1.48,6.99,2.1,10.51
						c0.27,1.56,0.53,3.11,0.78,4.67c0.14,0.9,0.28,1.79,0.41,2.69c0.12,0.83,0.42,3.07,0.16,1.08c1.88,14.55,2.68,29.22,2.86,43.88
						c0.31,26-1.52,51.92-3.39,77.83c-0.66,9.16-1.52,18.4-1.26,27.59c0.2,7.17,6.17,14.06,13.72,13.72
						c7.26-0.33,13.93-6.03,13.72-13.72c-0.55-19.85,2.32-39.93,3.45-59.73c1.64-28.68,2.13-57.6-1.24-86.17
						c-1.99-16.88-4.98-33.63-10.52-49.73c-2.41-7-9.41-11.63-16.87-9.58C380.67,593.49,375.48,601.46,377.9,608.5L377.9,608.5z"/>
				</g>
			</g>
			<g>
				<path class="st27" d="M322.71,577.58c4.87,17.51,7.55,35.43,9.47,52.19c1.03,9.04,1.9,18.11,2.72,27.17
					c0.54,6.01,1.64,12.24,1.48,18.27c-0.2,7.9-1.52,15.88-2.4,23.72c-1.37,12.22-2.76,24.44-4,36.67
					c-1.11,11.01-2.49,22.17-2.38,33.26c0.07,7.17,6.26,14.05,13.72,13.72c7.37-0.33,13.79-6.03,13.72-13.72
					c-0.22-21.98,3.5-44.3,5.95-66.09c0.98-8.76,2.19-17.54,2.75-26.34c0.31-4.74-0.52-9.54-0.94-14.25
					c-0.82-9.24-1.66-18.47-2.66-27.69c-2.33-21.56-5.16-43.27-10.97-64.21c-1.98-7.14-9.72-11.55-16.87-9.58
					C325.14,562.68,320.72,570.42,322.71,577.58L322.71,577.58z"/>
			</g>
			<g>
				<path class="st28" d="M409.41,794.97c-5.82,5.08-17.87,4.37-22.4-2.06c-0.07,3.55-0.09,7.09,0,10.63
					c0.35,14.42,22.79,14.47,22.44,0C409.38,800.68,409.38,797.83,409.41,794.97z"/>
			</g>
			<path class="st27" d="M345.19,613.85L345.19,613.85c2.53,2.84-8.35-10.97-5.09-9c6.78,4.1,44.87,29.98,52.8,30.11
				c9.57,0.16,3.99-9.09,11.12-15.49c6.76-6.07,8.35-15.92,9.01-24.98c0.18-2.5,0.31-5.12-0.69-7.42c-1.08-2.49-3.32-4.25-5.48-5.89
				c-16.92-12.81-50.2-44.5-73.84-34.37C305.71,558.52,333.07,600.26,345.19,613.85z"/>
			<path class="st8" d="M325.34,411.15c-5.01,6.46-4.42,10.45-4.18,19.27c0.23,8.62,6.08,16.08,14.38,18.41l84.81,23.78
				c0,0,4.87-32.63-11.85-42.45c-9.01-5.29-22.99-13.75-33.97-20.44C358.4,399.91,336.91,396.23,325.34,411.15z"/>
			<path class="st26" d="M364.01,410.05l7.18-31.97l19.5,13.12l-5.87,29.11C384.24,425.04,362.6,420.91,364.01,410.05z"/>
			<path class="st26" d="M385.43,331.58c0,0-17.04-16.65-22.68,15.96c-3.92,22.68,6.58,44.66,23.72,56.63
				c10.68,7.45,26.04,2.76,28.56-8.44c5.52-16.03,8.13-31.44,4.94-45.61c3.04-13.5-7.14-10.22-23.2-13.81L385.43,331.58z"/>
			<path class="st1" d="M363.82,393.07c0,0-20.92-12.01-13.56-43.03c7.97-33.57,38.7-25.43,56.34-24.19
				c7.81,0.55,13.34,0.33,20.03,8.67c6.09,7.58-3,20.81-13.42,20.02c-4.13-0.31-6.98,11.02-8.43,14.64
				c-2.58,6.45-8.25,7.75-10.87,13.98c-2.48,5.89-9.31,15.21-15.31,14.91C367.94,397.53,363.82,393.07,363.82,393.07z"/>
			<path class="st8" d="M320.87,564.45c-5.4-2.09-4.11-94.88,0.74-146.13l95.47,45.42c-0.48,43.63-5.99,78.05-0.77,131.22
				L320.87,564.45z"/>
			<path class="st8" d="M384.46,604.45c-23.59-8.6-46.05-18.02-59.25-34.21c-6.48-3.74-5.66-10.34,1.82-14.66h0
				c7.49-4.32,18.92-4.8,25.4-1.05l59.25,34.21c6.48,3.74,5.66,10.34-1.82,14.66l0,0C402.37,607.72,390.94,608.2,384.46,604.45z"/>
			<path class="st29" d="M417.08,463.74l-15.73-7.49c-0.64,42.53-5.86,76.69-0.72,128.9l-0.26-0.08c0.11,2.95-1.99,6.1-6.19,8.52v0
				c-7.49,4.32-18.92,4.8-25.4,1.05c-11.32-4.13-22.38-8.46-32.28-13.62c13.02,9.98,30.18,16.94,47.97,23.43
				c6.48,3.74,17.91,3.27,25.4-1.05v0c4.2-2.43,6.3-5.57,6.19-8.52l0.26,0.08C411.09,541.8,416.6,507.37,417.08,463.74z"/>
			<path class="st30" d="M381.13,790.66l0.25,9.94c0.01,0.43,0.14,0.83,0.4,1.18c1.49,2.03,7.39,8.82,18.13,6.93
				c9.42-1.66,14.48-4.63,16.43-6.01c0.6-0.43,0.92-1.14,0.85-1.88l-0.93-10.12c-0.14-1.51-1.79-2.39-3.1-1.62
				c-4.8,2.83-15.46,7.04-28.93-0.27C382.81,788.03,381.09,789.05,381.13,790.66z"/>
			<g>
				<path class="st28" d="M352.53,765.55c-5.82,5.08-17.87,4.37-22.4-2.06c-0.07,3.55-0.09,7.09,0,10.63
					c0.35,14.42,22.79,14.47,22.44,0C352.51,771.26,352.5,768.41,352.53,765.55z"/>
			</g>
			<path class="st30" d="M324.25,761.24l0.25,9.94c0.01,0.43,0.14,0.83,0.4,1.18c1.49,2.03,7.39,8.82,18.13,6.93
				c9.42-1.66,14.48-4.63,16.43-6.01c0.6-0.43,0.92-1.14,0.85-1.88l-0.93-10.12c-0.14-1.51-1.79-2.39-3.1-1.62
				c-4.8,2.83-15.46,7.04-28.93-0.27C325.93,758.61,324.21,759.63,324.25,761.24z"/>
			<path class="st0" d="M397.46,423.58c-21.9-3.29-36.69,10.48-41.92-21.07l0,0c3.2-1.98,7.32-1.02,9.46,2.07
				c3.76,5.43,11.75,8.86,20.59,7.78c2.64-0.32,5.24,0.89,6.68,3.13L397.46,423.58z"/>
			<path class="st26" d="M399.87,376.07c0.19,4.95-2.53,9.08-6.08,9.21c-0.39,0.01-0.77-0.02-1.14-0.1
				c-3.03-0.63-5.46-4.21-5.63-8.62c-0.19-4.95,2.53-9.08,6.08-9.21C396.65,367.21,399.68,371.12,399.87,376.07z"/>
			<polygon class="st31" points="559.42,631.23 604.97,654.4 592.81,607.8 			"/>
			<path class="st16" d="M591.57,647.59l13.39,6.81l-4.2-16.11C601.37,646.22,598.12,649.07,591.57,647.59z"/>
			
				<ellipse transform="matrix(0.9882 -0.1533 0.1533 0.9882 -87.3533 94.9787)" class="st32" cx="572.17" cy="613.9" rx="21.52" ry="21.52"/>
			<polygon class="st32" points="583.57,595.64 438.19,438.95 411.65,472.77 534.74,604.56 			"/>
			<path class="st33" d="M574.09,617.67c-1.47-1.08-2.74-2.33-3.86-3.68l-0.06,0.07L441.49,474.03l-21.82,7.54l135.9,145.52
				l0.06-0.07c1.11,1.35,2.38,2.6,3.86,3.68c8.2,6.03,19.26,5.39,26.69-0.93L574.09,617.67z"/>
			<path class="st26" d="M467.33,478.39l-2.39,7.84c-1.53,5,1.83,10.98,7.46,13.3l0,0c5.63,2.32,11.49,0.13,13.01-4.86l2.39-7.84
				c1.53-5-1.83-10.98-7.46-13.3l0,0C474.71,471.21,468.86,473.4,467.33,478.39z"/>
			<g>
				<g>
					<path class="st26" d="M401.07,452.12c0.96,12.6,2.18,25.45,6.23,37.5c4.02,11.94,10.08,23.2,15.66,34.45
						c4.05,8.16,9.77,16.81,19.02,19.53c8.96,2.64,17.64-2.21,23.42-8.83c10.36-11.88,15.83-27.83,20.49-42.61
						c3.43-10.86-13.61-15.51-17.02-4.69c-3.9,12.37-8.78,28-17.8,36.81c-0.3,0.29-2.86,2.24-1.29,1.19
						c-0.78,0.52-1.58,1.01-2.44,1.39c2.36-1.03-0.11,0.05-0.31-0.08c1.35-0.13,1.53-0.16,0.55-0.09c-0.4,0.01-0.79,0.01-1.19-0.03
						c3.66,1.26-2.31-1.18,0.94,0.27c-0.81-0.36-1.56-0.83-2.29-1.33c1.75,1.21-0.69-0.76-1.01-1.07c-0.38-0.4-0.74-0.8-1.09-1.22
						c0.39,0.55,0.4,0.57,0.04,0.06c-3.99-5.26-6.49-11.72-9.39-17.6c-2.56-5.18-5.36-10.71-7.42-15.84
						c-4.86-12.13-6.46-24.87-7.45-37.82C417.86,440.86,400.2,440.77,401.07,452.12L401.07,452.12z"/>
				</g>
			</g>
			<path class="st8" d="M392.19,451.9c5.34,45.14,19.57,73.85,39.29,88.45c10.37,5.74,20.07-10.62,16.11-20.5
				c-19.63-17.46-26.53-44.69-28.4-75.77c-2.57-6.31-9.86-9.72-16.87-7.89l0,0C395.01,438.1,390.55,445.03,392.19,451.9z"/>
			<path class="st31" d="M445.25,446.29l0-0.02l-8.7-9.15l-4.61,5.97c-4.83,1.13-9.77,4.21-13.62,8.95
				c-4.17,5.14-6.17,11.14-5.95,16.41l-2.02,2.62l4.33,5.31l0.18-0.08c0.65,0.93,1.41,1.79,2.32,2.52
				c6.85,5.56,18.48,2.58,25.96-6.65C450.24,463.4,451.05,452.16,445.25,446.29z"/>
			<path class="st34" d="M437.93,438.35c-0.16-0.13-0.34-0.24-0.51-0.36l0.02-0.02l-9.36-8.91l-7.1,8.66c-3.25,1.6-6.38,4.05-9,7.28
				c-2.55,3.15-4.27,6.61-5.19,10.03l-5.96,7.27l8.73,8.27c0.39,0.43,0.81,0.83,1.27,1.2c6.85,5.56,18.48,2.58,25.96-6.65
				C444.27,455.9,444.79,443.91,437.93,438.35z"/>
			
				<ellipse transform="matrix(0.63 -0.7766 0.7766 0.63 -192.9229 487.3781)" class="st35" cx="415.02" cy="446.15" rx="21.52" ry="15.97"/>
			<g>
				<path class="st26" d="M424.21,383.4L424.21,383.4c-0.03,0.61-0.56,1.08-1.06,1.42c-1.44,0.99-3.07,1.69-4.77,2.06
					c-0.81,0.18-1.74,0.25-2.41-0.25c-0.7-0.53-0.86-1.52-0.84-2.41c0.05-2.34,1.1-6.35,3.88-6.81c1.14-0.19,0.62-8,0.77-6.9
					C420.41,374.96,422.82,380.69,424.21,383.4z"/>
			</g>
			<path class="st36" d="M413.78,373.22c-0.18,1.61,0.4,3,1.3,3.1c0.9,0.1,1.78-1.12,1.96-2.73c0.18-1.61-0.4-3-1.3-3.1
				C414.85,370.39,413.97,371.61,413.78,373.22z"/>
			<g>
				<path class="st16" d="M412.38,368.93c1.73-1.04,4.29-2.2,6.36-1.66c1.62,0.42,2.31-2.08,0.69-2.5c-2.77-0.73-6,0.5-8.36,1.92
					C409.64,367.55,410.94,369.8,412.38,368.93L412.38,368.93z"/>
			</g>
			<g>
				<path class="st16" d="M413.53,392.97c-2.68,0.09-5.11-1.19-6.49-3.5c-0.86-1.43-3.11-0.13-2.24,1.31
					c1.84,3.07,5.15,4.91,8.73,4.78C415.2,395.51,415.2,392.91,413.53,392.97L413.53,392.97z"/>
			</g>
			<path class="st0" d="M451.32,520.29c-0.41,7.13-2.79,22.47-15.52,24.47c-1.89,0.3-3.82-0.3-5.27-1.56l-2.94-2.54
				c-2.97-2.57-3.08-7.13-0.23-9.83c3.66-3.47,8.34-8.5,11.44-14.05c1.99-3.55,6.58-4.62,9.83-2.18l0.05,0.03
				C450.44,515.97,451.44,518.09,451.32,520.29z"/>
			<path class="st0" d="M433.32,803.24c1.08-1.35,2.85-3.96,4.23-5.52c2.59-2.92,1.83-7.27-1.34-9.75c-1.72-1.34-3.92-1.8-5.95-1.22
				l-8.13,2.33C426.15,791.51,430.42,796.35,433.32,803.24z"/>
			<path class="st0" d="M375.59,767.5c0.79-1.54,1.99-4.44,3.03-6.24c1.95-3.38,0.33-7.48-3.26-9.27c-1.95-0.97-4.2-0.97-6.07,0
				l-7.48,3.9C366.23,757.47,371.37,761.35,375.59,767.5z"/>
		</g>
	</g>
</g>
</svg>
