<?xml version="1.0" encoding="iso-8859-1"?>
<!-- Generator: Adobe Illustrator 26.0.3, SVG Export Plug-In . SVG Version: 6.00 Build 0)  -->
<!DOCTYPE svg PUBLIC "-//W3C//DTD SVG 1.1//EN" "http://www.w3.org/Graphics/SVG/1.1/DTD/svg11.dtd" [
	<!ENTITY ns_extend "http://ns.adobe.com/Extensibility/1.0/">
	<!ENTITY ns_ai "http://ns.adobe.com/AdobeIllustrator/10.0/">
	<!ENTITY ns_graphs "http://ns.adobe.com/Graphs/1.0/">
	<!ENTITY ns_vars "http://ns.adobe.com/Variables/1.0/">
	<!ENTITY ns_imrep "http://ns.adobe.com/ImageReplacement/1.0/">
	<!ENTITY ns_sfw "http://ns.adobe.com/SaveForWeb/1.0/">
	<!ENTITY ns_custom "http://ns.adobe.com/GenericCustomNamespace/1.0/">
	<!ENTITY ns_adobe_xpath "http://ns.adobe.com/XPath/1.0/">
]>
<svg version="1.1" xmlns:x="&ns_extend;" xmlns:i="&ns_ai;" xmlns:graph="&ns_graphs;"
	 xmlns="http://www.w3.org/2000/svg" xmlns:xlink="http://www.w3.org/1999/xlink" x="0px" y="0px" viewBox="0 0 2800 1700"
	 style="enable-background:new 0 0 2800 1700;" xml:space="preserve">
<style type="text/css">
	.st0{clip-path:url(#SVGID_00000107556457940541770300000003591241829850829497_);}
	.st1{fill:#1A94B4;}
	.st2{fill:#002152;}
	.st3{fill:#FFFFFF;}
	.st4{fill:#00132E;}
	.st5{opacity:0.7;fill:#00132E;}
	.st6{filter:url(#Adobe_OpacityMaskFilter);}
	.st7{filter:url(#Adobe_OpacityMaskFilter_00000082327595663571703400000015374081810825686681_);}
	
		.st8{mask:url(#SVGID_00000116930282759374081290000002757091997600525992_);fill:url(#SVGID_00000036956902035797441150000007482224970071236501_);}
	.st9{fill:url(#SVGID_00000036972125662390603260000003140078423461987259_);}
	.st10{fill:#CCE5F3;}
	.st11{fill:#3E5F87;}
	.st12{opacity:0.5;fill:#808080;}
	.st13{fill:#011635;}
	.st14{fill:#00193D;}
	.st15{fill:#F0F0F0;}
	.st16{fill:#E84256;}
	.st17{fill:#FFB693;}
	.st18{filter:url(#Adobe_OpacityMaskFilter_00000158733082365344059990000015159550073425775804_);}
	.st19{filter:url(#Adobe_OpacityMaskFilter_00000040566205094350225110000017238573290687023264_);}
	
		.st20{mask:url(#SVGID_00000093884404069959407160000002830691708944919696_);fill:url(#SVGID_00000176731117684572884140000017982361949588470200_);}
	.st21{fill:url(#SVGID_00000137848595578686464580000007304428262958601915_);}
	.st22{fill:#64BCD4;}
</style>
<metadata>
	<sfw  xmlns="&ns_sfw;">
		<slices></slices>
		<sliceSourceBounds  bottomLeftOrigin="true" height="1939" width="2837.2" x="-37.2" y="-2994.4"></sliceSourceBounds>
	</sfw>
</metadata>
<g id="Layer_1">
</g>
<g id="Layer_2">
	<g>
		<defs>
			<rect id="SVGID_1_" width="2800" height="1700"/>
		</defs>
		<clipPath id="SVGID_00000098181002162946756020000003761764834413482141_">
			<use xlink:href="#SVGID_1_"  style="overflow:visible;"/>
		</clipPath>
		<g style="clip-path:url(#SVGID_00000098181002162946756020000003761764834413482141_);">
			<rect class="st1" width="2800" height="1700"/>
			<polygon class="st2" points="2324.7,254.2 2324.7,1448.4 2286.6,1437.1 1895.7,1313.2 1857.5,1297.9 1857.5,402.4 			"/>
			<polygon class="st3" points="2286.6,319.8 2286.6,1437.1 1895.7,1313.2 1895.7,430.3 			"/>
			<g>
				<g>
					<rect x="1245.4" y="-34.6" class="st4" width="10" height="476.1"/>
				</g>
				<g>
					<rect x="1574.5" y="-34.6" class="st4" width="10" height="476.1"/>
				</g>
			</g>
			<polygon class="st4" points="2324.7,254.2 2360.1,300.5 2360.1,1448.4 2324.7,1448.4 			"/>
			<polygon class="st5" points="1895.7,430.3 2286.6,318.9 2286.6,290.8 1895.7,414.1 			"/>
			<defs>
				<filter id="Adobe_OpacityMaskFilter" filterUnits="userSpaceOnUse" x="-37.2" y="1321.2" width="2323.8" height="229.2">
					<feFlood  style="flood-color:white;flood-opacity:1" result="back"/>
					<feBlend  in="SourceGraphic" in2="back" mode="normal"/>
				</filter>
			</defs>
			
				<mask maskUnits="userSpaceOnUse" x="-37.2" y="1321.2" width="2323.8" height="229.2" id="SVGID_00000129180019464459202480000014181106925805320325_">
				<g class="st6">
					<defs>
						
							<filter id="Adobe_OpacityMaskFilter_00000013894176532787869800000013571895350514616998_" filterUnits="userSpaceOnUse" x="-37.2" y="1321.2" width="2323.8" height="229.2">
							<feFlood  style="flood-color:white;flood-opacity:1" result="back"/>
							<feBlend  in="SourceGraphic" in2="back" mode="normal"/>
						</filter>
					</defs>
					
						<mask maskUnits="userSpaceOnUse" x="-37.2" y="1321.2" width="2323.8" height="229.2" id="SVGID_00000129180019464459202480000014181106925805320325_">
						<g style="filter:url(#Adobe_OpacityMaskFilter_00000013894176532787869800000013571895350514616998_);">
						</g>
					</mask>
					
						<linearGradient id="SVGID_00000055694501001382731100000001377223657573550485_" gradientUnits="userSpaceOnUse" x1="2120.6875" y1="1351.9966" x2="31.6725" y2="1433.1248">
						<stop  offset="0" style="stop-color:#999999"/>
						<stop  offset="0.1976" style="stop-color:#BCBCBC"/>
						<stop  offset="0.4034" style="stop-color:#D9D9D9"/>
						<stop  offset="0.6078" style="stop-color:#EEEEEE"/>
						<stop  offset="0.8082" style="stop-color:#FBFBFB"/>
						<stop  offset="1" style="stop-color:#FFFFFF"/>
					</linearGradient>
					
						<polygon style="mask:url(#SVGID_00000129180019464459202480000014181106925805320325_);fill:url(#SVGID_00000055694501001382731100000001377223657573550485_);" points="
						1921,1321.2 -37.2,1321.2 -37.2,1550.4 2286.6,1437.1 					"/>
				</g>
			</mask>
			
				<linearGradient id="SVGID_00000125565885922663744710000008699855510269391515_" gradientUnits="userSpaceOnUse" x1="2120.6875" y1="1351.9966" x2="31.6725" y2="1433.1248">
				<stop  offset="0" style="stop-color:#FFFFFF"/>
				<stop  offset="1.060325e-02" style="stop-color:#FBFDFE"/>
				<stop  offset="0.1549" style="stop-color:#C5E7EB"/>
				<stop  offset="0.3007" style="stop-color:#97D5DB"/>
				<stop  offset="0.4453" style="stop-color:#71C5CD"/>
				<stop  offset="0.5884" style="stop-color:#54B9C3"/>
				<stop  offset="0.7294" style="stop-color:#3FB1BC"/>
				<stop  offset="0.8677" style="stop-color:#32ACB7"/>
				<stop  offset="1" style="stop-color:#2EAAB6"/>
			</linearGradient>
			<polygon style="fill:url(#SVGID_00000125565885922663744710000008699855510269391515_);" points="1921,1321.2 -37.2,1321.2 
				-37.2,1550.4 2286.6,1437.1 			"/>
			<g>
				<g>
					<path class="st10" d="M654.3,856.6l-0.1,0.1l-48.8,70.9l-20.8,13.1l-64.9,79.9l-1.1,1.4c5.5,16.9-3.3,32.7-6,30.6
						c-1.7-1.4-1.1-7.9-1.9-11.7c-0.1-0.7-0.6-1.1-1.2-1.2c-0.7-0.2-1.5,0.1-1.8,1c-1,2.5-1.7,5.9-2.4,9c-4.1-0.9-18.4-5-19-16.7
						l6.4-11.3c4.9-6.5,10.7-12.2,10.7-12.2l1.3-2.1l54.2-89.3c1.2-1.9,2.8-3.6,4.7-4.8l90.5-56.6L654.3,856.6z"/>
					<g>
						<path class="st2" d="M483.9,1160.2l-99.7-77.3c-4-3.1-4.7-8.8-1.6-12.8l42.2-54.5c3.1-4,8.8-4.7,12.8-1.6l99.7,77.3
							c4,3.1,4.7,8.8,1.6,12.8l-42.2,54.5C493.6,1162.6,487.9,1163.3,483.9,1160.2z"/>
						
							<rect x="464.6" y="1007.7" transform="matrix(0.6127 -0.7903 0.7903 0.6127 -672.8397 786.7875)" class="st10" width="3.4" height="144.4"/>
						<path class="st2" d="M506.9,1075.7l-46.6-36.1l8.6-11.1c4.9-6.3,14-7.5,20.3-2.6l23.6,18.3c6.3,4.9,7.5,14,2.6,20.3
							L506.9,1075.7z M466.2,1038.9l39.9,30.9l6-7.8c3.5-4.5,2.7-11-1.8-14.4l-23.6-18.3c-4.5-3.5-11-2.7-14.4,1.8L466.2,1038.9z"/>
						
							<rect x="451.1" y="1078.6" transform="matrix(0.7903 0.6127 -0.6127 0.7903 761.6313 -55.9739)" class="st10" width="23.1" height="12.2"/>
					</g>
					<path class="st10" d="M509.6,1039.7c-0.5,5.2-3.2,10.2-3.2,10.2s-0.4-0.1-1.1-0.2c-4-0.9-17.7-4.8-19-15.9
						c-0.1-0.5,0.1-1.1,0.3-1.6l0.8-1.4c3-5.3,10-6.9,14.9-3.2c3.5,2.6,6.6,5.6,7.1,8.3C509.6,1037.2,509.7,1038.4,509.6,1039.7z"/>
					<path class="st11" d="M542.7,1055.6c0,0,21.6-11.4,37.3,7.6l19.5-73.2L542.7,1055.6z"/>
					<g>
						<path class="st10" d="M711.7,835.8c-0.3,0.3-0.7,0.7-0.9,1c-1.4,1.7-2.4,3.8-3.3,6.2c-0.1,0.2-0.1,0.4-0.2,0.5
							c-0.2,0.7-0.3,1.5-0.4,2.5c-0.1,1.1-1.9,15-2.3,17.3l-32.8-14.7l3.1-21.2l3.9,0.9l9.4,2.2L711.7,835.8z"/>
						<path class="st12" d="M710.7,836.9c-1.4,1.7-2.4,3.8-3.3,6.2c-0.1,0.2-0.1,0.4-0.2,0.5c-0.2,0.7-0.3,1.5-0.4,2.5
							c-7.6-3.9-12.8-5.4-16.1-8c-1-0.8-4.2-6.7-4.2-6.7L710.7,836.9z"/>
						<path class="st10" d="M721.7,837.9c0,0-2.3,2.4-10.4,1.7c-0.7-0.1-1.4-0.1-2.1-0.2c-4.8-0.7-11.4-2.4-20.2-6.1
							c-3.3-1.4-7-3-11-5c0,0-0.1-0.4-0.2-1.1c-1.5-6.9-9.3-45.3-0.7-48.3c9.4-3.4,35.9-0.3,44.2,5.2
							C721.2,784,730.9,816.5,721.7,837.9z"/>
						<path class="st13" d="M674.4,831.6c0,0,0.8-4.6-8.5-21.4c-5.4-9.8-1.8-20.6,5.6-28.2c2.8-2.9,5.6-6.3,9-8.4
							c5.5-3.4,12.3-4.5,18.6-4.7c9.2-0.3,18.8,0.6,27.3-3c2.8-1.2,5.7-2.9,8.8-2.5c3.4,0.5,5.9,3.7,6.3,7c0.4,3.4-0.9,6.8-2.9,9.5
							c-3.3,4.5-8.6,7.4-14.1,8.1c-5.1,0.7-12.9-4-16.9-0.2c-1.8,1.7-2.9,3.7-1.3,5c3.6,3,0.2,13-0.2,16.1
							c-0.4,3.1-5.4-11.8-9.9-10.1c-4.5,1.7-5.5,3-3.2,15.2C695.5,826.4,674.4,831.6,674.4,831.6z"/>
					</g>
					<path class="st14" d="M661.6,860l-42,69.8l-34.9,10.9l-63.8,79.6l-19.1-13.1l57.1-89.3c1.2-1.9,2.8-3.5,4.8-4.7l90.5-56.6
						l0.1,0L661.6,860z"/>
					<path class="st14" d="M636.5,1074.4l-87.9,160.1c-8.8,16.1-27.4,24.1-45.1,19.5l-141.1-35.3l7.7-21l131.6,9.8l56.7-181.2
						L636.5,1074.4z"/>
					<path class="st3" d="M685.6,850.8c9.8,4.9,18.1,4,23.5,29.5c6,28.4-70.2,182.9-70.2,182.9l-80.3-36.7
						C565.9,1020.4,622.5,819.2,685.6,850.8z"/>
					<polygon class="st15" points="666.4,847.9 671.9,838.8 709,864.4 705.2,882.9 					"/>
					<path class="st2" d="M695.7,868.9c0,0-4.2,44.7-22.6,78.3c-18.8,34.3-111.3,72.4-135.2,116c0,0-19.3-48.6-14.3-49.9
						c8.5-2.1,46.6-28.6,65.6-74.7l24.6-47c11.7-22.5,31.5-39.7,55.4-48.3h0L695.7,868.9z"/>
					<path class="st16" d="M706.6,904.3c-19.3,62.6-66.8,105.9-120.6,122.3c-1.1-0.4-2.2-0.8-3.3-1.3c-1.3-0.5-2.6-1-3.8-1.6
						c-0.8-0.3-1.5-0.6-2.2-1c-3.7-1.6-7.2-3.3-10.7-5.1c6.2-5.3,11.7-10.9,16.6-16.8c3.5-0.7,7-1.5,10.6-2.5
						c48.4-13.1,95.6-52.6,115.2-115.7c1.2,0.1,2.3,0.3,3.5,0.6c-0.2,0.8-0.3,1.7-0.5,2.5c-0.3,1.6-0.7,3.1-1,4.7
						c-0.1,0.6-0.3,1.1-0.4,1.7c-0.2,1-0.5,2-0.7,2.9c-0.2,0.8-0.4,1.5-0.6,2.3c-0.2,0.8-0.4,1.5-0.6,2.3c-0.2,0.7-0.4,1.3-0.6,1.9
						C707.1,902.6,706.8,903.5,706.6,904.3z"/>
					<polygon class="st16" points="708.5,882.9 705.8,879.9 708.1,868.9 713.4,878 711.8,883.5 					"/>
					<path class="st13" d="M768.3,1363.3h22.4c0,0,22.9,19.6,32.7,19.6c9.8,0,9.3,14.2,9.3,14.2h-52.9l-2.1-3
						c-1.7-2.5-5.5-2.1-6.7,0.6l-1,2.4h-7.6l-1.6-6C760.7,1391.1,755.8,1372.6,768.3,1363.3z"/>
					<path class="st13" d="M370.1,1197.8l-7.7,21c0,0-26.3,14.8-29.7,24c-3.4,9.2-16.5,3.8-16.5,3.8l18.2-49.7l3.5-0.9
						c2.9-0.8,3.9-4.4,1.7-6.5l-1.9-1.8l2.6-7.2l6.2,0.5C346.6,1181.1,365.7,1182.8,370.1,1197.8z"/>
					<path class="st2" d="M558.5,1026.4l80.3,36.7l93.6,81.4c15.6,13.5,26,32,29.4,52.3l28.6,166.5h-22.1l-56.6-158.9l-112.1-68.4
						C562.4,1113.3,545.4,1068.1,558.5,1026.4L558.5,1026.4z"/>
					<path class="st10" d="M695.1,949.4c-13-16.6-27.4-36-36-47.9c-10.2-14-2.3-34,14.8-37.1c0.5-0.1,0.9-0.2,1.4-0.2
						c9.5-1.4,18.8,3.2,23.7,11.5l35.7,61.3l91.4-21.9l1.9-0.5c0,0,17.5-19.1,19.1-13.6c1.6,5.5-6.5,12-6.5,12s19.1-1.6,25.1-6.5
						c6-4.9,4.9,9.3,0,17.5c-4.9,8.2-14.2,8.7-14.2,8.7l-15.8,2.2c0,0-0.5,0.2-1.5,0.6"/>
					<path class="st17" d="M764.1,964l-0.2,0.1c-20.5,8.3-38.1,15.3-40.7,16"/>
					<path class="st2" d="M834.5,936.4L764.1,964l-0.2,0.1l-40.7,16c-6.5-2.5-17.7-17.8-28.1-30.7c-13-16.6-27.4-36-36-47.9
						c-10.2-14-2.3-34,14.8-37.1c0.5-0.1,0.9-0.2,1.4-0.2c9.5-1.4,18.8,3.2,23.7,11.5l35.7,61.3l91.4-21.9l8,20.3L834.5,936.4z"/>
				</g>
				<g>
					<defs>
						
							<filter id="Adobe_OpacityMaskFilter_00000100340277088018734140000013759197911109946767_" filterUnits="userSpaceOnUse" x="207.2" y="1396.8" width="671.1" height="507.7">
							<feFlood  style="flood-color:white;flood-opacity:1" result="back"/>
							<feBlend  in="SourceGraphic" in2="back" mode="normal"/>
						</filter>
					</defs>
					
						<mask maskUnits="userSpaceOnUse" x="207.2" y="1396.8" width="671.1" height="507.7" id="SVGID_00000170260498472983025870000007273009983069332120_">
						<g style="filter:url(#Adobe_OpacityMaskFilter_00000100340277088018734140000013759197911109946767_);">
							<defs>
								
									<filter id="Adobe_OpacityMaskFilter_00000036209407261597996410000011782323329559048600_" filterUnits="userSpaceOnUse" x="207.2" y="1396.8" width="671.1" height="507.7">
									<feFlood  style="flood-color:white;flood-opacity:1" result="back"/>
									<feBlend  in="SourceGraphic" in2="back" mode="normal"/>
								</filter>
							</defs>
							
								<mask maskUnits="userSpaceOnUse" x="207.2" y="1396.8" width="671.1" height="507.7" id="SVGID_00000170260498472983025870000007273009983069332120_">
								<g style="filter:url(#Adobe_OpacityMaskFilter_00000036209407261597996410000011782323329559048600_);">
								</g>
							</mask>
							
								<linearGradient id="SVGID_00000124161790404441786640000017089775133895920263_" gradientUnits="userSpaceOnUse" x1="487.8807" y1="1796.0627" x2="693.149" y2="1273.2095">
								<stop  offset="0" style="stop-color:#999999"/>
								<stop  offset="0.1663" style="stop-color:#A2A2A2"/>
								<stop  offset="0.4369" style="stop-color:#BABABA"/>
								<stop  offset="0.7761" style="stop-color:#E1E1E1"/>
								<stop  offset="1" style="stop-color:#FFFFFF"/>
							</linearGradient>
							
								<path style="mask:url(#SVGID_00000170260498472983025870000007273009983069332120_);fill:url(#SVGID_00000124161790404441786640000017089775133895920263_);" d="
								M870.7,1668.6c-8.7-7-24.7-5.7-24.7-5.7l-27.1,1.1c0,0-0.9-0.1-2.5-0.3l0.8-1.1L704,1650.8l-0.3,0c-31-3.5-56.9-6.3-60.7-6.3
								c-10.9,3.4-33.5,19.1-54.7,33c-2.4,1.6-4.8,3.2-7.3,4.9c-12.5-43.6-34.6-87.8-34.6-87.8l146.9-68.3
								c22.2-10.3,38-22.2,45-33.5l47.8-77.6l0.3,0c0,0,25.1-10.5,35.3-11.9c10.3-1.4,10-6.3,10-6.3l-51.9,0.4l-2.3,1.4
								c-1.9,1.1-5.7,0.2-6.8-0.7l-0.9-0.7h-7.6l-5,6.3c0,0-4.9,7.9,7.4,9.5l-86.2,83.8l-153.8,55.1l-29.1-45.2
								c-4.3-6.6-22-7.8-43.4-2.9l-173.2,38.8c0,0-20.6-4-19-8.3c1.6-4.2-15.6,0.4-15.6,0.4l-9.7,24l3.4,0c2.9,0,1.7,1.9-2.1,3.4
								l-3.2,1.3l-1.5,3.7l7.4-1.2c0,0,23.1-3.9,36.9-13l155.7-25.2l-6.5,50l-4.2-4.3l0,0l-1.4-1.4l0,0l-15.9-16.1
								c-1.8-1.9-8.4-1.4-14.7,1l-170.1,65.8c-7.3,2.8-12.5,7.1-11.4,9.4l9.4,21.6l0.4,1l0,0l5.5,12.6c1.2,2.8,8.7,2.4,16.6-0.8
								l51.6-21.1l2.4,4c2.5,4.2,14.5,3.6,26.5-1.4l1.3-0.5l0.7,3.3c2.7,4.5,7.2,8.1,7.2,8.1l0.2,0.5l-3.9,1.6l25.3,73
								c0.6,1.8,2.1,3.2,4.4,4.1l0,0c0,0,0,0,0,0l11,4.4l66.2,26.4c11.3,15.2,32.3,26,61.3,30.6l2.5,5.3l2.9-1.4l-2.6,10.7
								c-0.7,1.6-4.8,9-29.7,31.1c-17.4,15.5-17.7,31.1-8,41.5c3.8,4.1,7.1,8.9,12.9,11.7c9.3,4.4,22.9,4.8,36.3,3.8
								c19.5-1.4,40.7-5,57-0.8c5.5,1.4,10.9,3.7,17.8,2.3c7.6-1.5,14.7-7.5,17.3-13.2c2.5-5.6,1.3-10.9-1.7-14.8
								c-4.9-6.4-14.6-9.8-25.7-9.7c-1.5,0-3.2,0.2-4.9,0.5c9.4-14.9,29-49.7,22.3-70.7c0,0-3.4-2.7-19-0.1
								c-1.3,0.2-2.7,0.5-4.2,0.8c0,0-0.1,0-0.1,0c-0.6-1.4-1.1-2.8-1.4-4.5c-0.1-0.3-0.1-0.5-0.1-0.7c0-0.9,0.1-1.9,0.4-3.1
								c0.3-1.2,2.6-13.7,3.4-19l8.8-4.3l0.3-5.2l13.4-11.8l-0.7-5.9l-1.4,0.3c0.5-0.1,0.9-0.2,1.4-0.4c0-0.9,0.1-1.8,0.1-2.8
								c0-1.7,0.1-3.4,0.1-5c0-0.6,0-1.2,0-1.8c0-0.5,0-0.9-0.1-1.4l57.9-49.7l151.9,3.7l3.3,0.1c0,0,30.1,16.5,33.3,10.3
								c3.1-6.1-11.2-11.2-11.2-11.2s33.9-2.2,44.7,1.6C882,1690.2,879.6,1675.8,870.7,1668.6z M413.1,1706.9l-6-0.5l-40.6-51.7
								C381.7,1662.7,412.8,1692.3,413.1,1706.9z M419,1623.2c-4.7,1.6-9.4,3.1-13.9,4.5c-10.6-5-17.9-10.3-19.7-16.2
								c0,0-7.1,9.1-13.9,18.8c0.7-1.9,0.8-3.5,0.5-4.7c6.2-4.1,9.2-8.5,7-11.3l-2.9-3.6L422,1592c0.4-0.2,0.8-0.3,1.1-0.5
								L419,1623.2z M356.6,1634c0.3-0.4,0.5-0.9,0.7-1.3l3.1-1.3c-0.5,0.5-1,1-1.5,1.5C358.3,1633.4,357.4,1633.8,356.6,1634z
								 M318.4,1646c-8.5,3.5-17,4-18.8,1l-2.4-4l73-29.8l2.9,3.6c1.3,1.7,0,4.1-3.1,6.6c-0.5-0.1-1,0-1.6,0.2
								c-1.4,0.6-2.7,1.8-4,3.2c-0.7,0.3-1.3,0.6-2.1,0.9l-4.1,1.7c0.2-1.7,0-2.8,0-2.8s-0.6,0.1-1.6,0.3c-0.4,0.1-0.8,0.2-1.3,0.3
								c-0.1,0-0.2,0.1-0.4,0.1c-0.1,0-0.3,0.1-0.4,0.1c-0.1,0-0.3,0.1-0.4,0.1c-0.1,0-0.3,0.1-0.5,0.1c-0.1,0-0.3,0.1-0.4,0.1
								c-0.2,0-0.3,0.1-0.5,0.1c-0.1,0-0.3,0.1-0.4,0.1c-0.2,0-0.4,0.1-0.5,0.1c-0.2,0-0.3,0.1-0.5,0.1c-0.2,0.1-0.4,0.1-0.6,0.2
								c-0.2,0-0.3,0.1-0.5,0.1c-0.2,0.1-0.4,0.1-0.6,0.2c-0.2,0-0.3,0.1-0.5,0.1c-0.2,0.1-0.4,0.1-0.6,0.2
								c-0.2,0.1-0.4,0.1-0.5,0.2c-0.2,0.1-0.4,0.1-0.6,0.2c-0.2,0.1-0.4,0.1-0.6,0.2c-0.2,0.1-0.4,0.1-0.7,0.2
								c-0.2,0.1-0.4,0.1-0.6,0.2c-0.2,0.1-0.4,0.1-0.7,0.2c-0.2,0.1-0.4,0.1-0.6,0.2c-0.2,0.1-0.5,0.1-0.7,0.2
								c-0.2,0.1-0.4,0.1-0.6,0.2c-0.2,0.1-0.5,0.2-0.7,0.2c-0.2,0.1-0.4,0.1-0.6,0.2c-0.2,0.1-0.5,0.2-0.7,0.2
								c-0.2,0.1-0.4,0.1-0.6,0.2c-0.2,0.1-0.5,0.2-0.7,0.3c-0.2,0.1-0.4,0.2-0.7,0.2c-0.2,0.1-0.5,0.2-0.7,0.3
								c-0.2,0.1-0.4,0.2-0.7,0.3c-0.2,0.1-0.5,0.2-0.7,0.3c-0.2,0.1-0.4,0.2-0.7,0.3c-0.2,0.1-0.5,0.2-0.7,0.3
								c-0.2,0.1-0.4,0.2-0.7,0.3c-0.2,0.1-0.5,0.2-0.7,0.3c-0.2,0.1-0.4,0.2-0.6,0.3c-0.2,0.1-0.5,0.2-0.7,0.3
								c-0.2,0.1-0.4,0.2-0.6,0.3c-0.2,0.1-0.5,0.2-0.7,0.3c-0.2,0.1-0.4,0.2-0.6,0.3c-0.2,0.1-0.4,0.2-0.7,0.3
								c-0.2,0.1-0.4,0.2-0.6,0.3c-0.2,0.1-0.4,0.2-0.6,0.3c-0.2,0.1-0.4,0.2-0.6,0.3c-0.2,0.1-0.4,0.2-0.6,0.4
								c-0.2,0.1-0.4,0.2-0.6,0.3c-0.2,0.1-0.4,0.2-0.6,0.4c-0.2,0.1-0.4,0.2-0.6,0.3c-0.2,0.1-0.4,0.3-0.6,0.4
								c-0.2,0.1-0.4,0.2-0.5,0.4c-0.2,0.1-0.4,0.3-0.6,0.4c-0.2,0.1-0.3,0.2-0.5,0.4c-0.2,0.1-0.4,0.3-0.5,0.4
								c-0.2,0.1-0.3,0.2-0.5,0.4c-0.2,0.1-0.3,0.3-0.5,0.4c-0.2,0.1-0.3,0.3-0.5,0.4c-0.2,0.1-0.3,0.3-0.5,0.4
								c-0.1,0.1-0.3,0.3-0.4,0.4c0,0-0.1,0.1-0.1,0.1c0,0,0,0.1-0.1,0.1c-0.2,0.2-0.4,0.4-0.6,0.6l0.4,2L318.4,1646z M359.3,1647.1
								l-0.7-0.9c2.4-1.9,4.4-3.7,6-5.5c-1.6,2.5-2.9,4.8-3.8,6.6l-0.2-0.2l-1,0.4L359.3,1647.1z"/>
						</g>
					</mask>
					
						<linearGradient id="SVGID_00000003822112673622054930000004418429325279713411_" gradientUnits="userSpaceOnUse" x1="487.8807" y1="1796.0627" x2="693.149" y2="1273.2095">
						<stop  offset="0" style="stop-color:#FFFFFF"/>
						<stop  offset="9.821837e-02" style="stop-color:#F6FBFC"/>
						<stop  offset="0.2582" style="stop-color:#DEF2F3"/>
						<stop  offset="0.4599" style="stop-color:#B6E1E6"/>
						<stop  offset="0.6955" style="stop-color:#7FCBD2"/>
						<stop  offset="0.9568" style="stop-color:#3AAFBA"/>
						<stop  offset="1" style="stop-color:#2EAAB6"/>
					</linearGradient>
					<path style="fill:url(#SVGID_00000003822112673622054930000004418429325279713411_);" d="M870.7,1668.6
						c-8.7-7-24.7-5.7-24.7-5.7l-27.1,1.1c0,0-0.9-0.1-2.5-0.3l0.8-1.1L704,1650.8l-0.3,0c-31-3.5-56.9-6.3-60.7-6.3
						c-10.9,3.4-33.5,19.1-54.7,33c-2.4,1.6-4.8,3.2-7.3,4.9c-12.5-43.6-34.6-87.8-34.6-87.8l146.9-68.3c22.2-10.3,38-22.2,45-33.5
						l47.8-77.6l0.3,0c0,0,25.1-10.5,35.3-11.9c10.3-1.4,10-6.3,10-6.3l-51.9,0.4l-2.3,1.4c-1.9,1.1-5.7,0.2-6.8-0.7l-0.9-0.7h-7.6
						l-5,6.3c0,0-4.9,7.9,7.4,9.5l-86.2,83.8l-153.8,55.1l-29.1-45.2c-4.3-6.6-22-7.8-43.4-2.9l-173.2,38.8c0,0-20.6-4-19-8.3
						c1.6-4.2-15.6,0.4-15.6,0.4l-9.7,24l3.4,0c2.9,0,1.7,1.9-2.1,3.4l-3.2,1.3l-1.5,3.7l7.4-1.2c0,0,23.1-3.9,36.9-13l155.7-25.2
						l-6.5,50l-4.2-4.3l0,0l-1.4-1.4l0,0l-15.9-16.1c-1.8-1.9-8.4-1.4-14.7,1l-170.1,65.8c-7.3,2.8-12.5,7.1-11.4,9.4l9.4,21.6
						l0.4,1l0,0l5.5,12.6c1.2,2.8,8.7,2.4,16.6-0.8l51.6-21.1l2.4,4c2.5,4.2,14.5,3.6,26.5-1.4l1.3-0.5l0.7,3.3
						c2.7,4.5,7.2,8.1,7.2,8.1l0.2,0.5l-3.9,1.6l25.3,73c0.6,1.8,2.1,3.2,4.4,4.1l0,0c0,0,0,0,0,0l11,4.4l66.2,26.4
						c11.3,15.2,32.3,26,61.3,30.6l2.5,5.3l2.9-1.4l-2.6,10.7c-0.7,1.6-4.8,9-29.7,31.1c-17.4,15.5-17.7,31.1-8,41.5
						c3.8,4.1,7.1,8.9,12.9,11.7c9.3,4.4,22.9,4.8,36.3,3.8c19.5-1.4,40.7-5,57-0.8c5.5,1.4,10.9,3.7,17.8,2.3
						c7.6-1.5,14.7-7.5,17.3-13.2c2.5-5.6,1.3-10.9-1.7-14.8c-4.9-6.4-14.6-9.8-25.7-9.7c-1.5,0-3.2,0.2-4.9,0.5
						c9.4-14.9,29-49.7,22.3-70.7c0,0-3.4-2.7-19-0.1c-1.3,0.2-2.7,0.5-4.2,0.8c0,0-0.1,0-0.1,0c-0.6-1.4-1.1-2.8-1.4-4.5
						c-0.1-0.3-0.1-0.5-0.1-0.7c0-0.9,0.1-1.9,0.4-3.1c0.3-1.2,2.6-13.7,3.4-19l8.8-4.3l0.3-5.2l13.4-11.8l-0.7-5.9l-1.4,0.3
						c0.5-0.1,0.9-0.2,1.4-0.4c0-0.9,0.1-1.8,0.1-2.8c0-1.7,0.1-3.4,0.1-5c0-0.6,0-1.2,0-1.8c0-0.5,0-0.9-0.1-1.4l57.9-49.7
						l151.9,3.7l3.3,0.1c0,0,30.1,16.5,33.3,10.3c3.1-6.1-11.2-11.2-11.2-11.2s33.9-2.2,44.7,1.6
						C882,1690.2,879.6,1675.8,870.7,1668.6z M413.1,1706.9l-6-0.5l-40.6-51.7C381.7,1662.7,412.8,1692.3,413.1,1706.9z M419,1623.2
						c-4.7,1.6-9.4,3.1-13.9,4.5c-10.6-5-17.9-10.3-19.7-16.2c0,0-7.1,9.1-13.9,18.8c0.7-1.9,0.8-3.5,0.5-4.7
						c6.2-4.1,9.2-8.5,7-11.3l-2.9-3.6L422,1592c0.4-0.2,0.8-0.3,1.1-0.5L419,1623.2z M356.6,1634c0.3-0.4,0.5-0.9,0.7-1.3l3.1-1.3
						c-0.5,0.5-1,1-1.5,1.5C358.3,1633.4,357.4,1633.8,356.6,1634z M318.4,1646c-8.5,3.5-17,4-18.8,1l-2.4-4l73-29.8l2.9,3.6
						c1.3,1.7,0,4.1-3.1,6.6c-0.5-0.1-1,0-1.6,0.2c-1.4,0.6-2.7,1.8-4,3.2c-0.7,0.3-1.3,0.6-2.1,0.9l-4.1,1.7c0.2-1.7,0-2.8,0-2.8
						s-0.6,0.1-1.6,0.3c-0.4,0.1-0.8,0.2-1.3,0.3c-0.1,0-0.2,0.1-0.4,0.1c-0.1,0-0.3,0.1-0.4,0.1c-0.1,0-0.3,0.1-0.4,0.1
						c-0.1,0-0.3,0.1-0.5,0.1c-0.1,0-0.3,0.1-0.4,0.1c-0.2,0-0.3,0.1-0.5,0.1c-0.1,0-0.3,0.1-0.4,0.1c-0.2,0-0.4,0.1-0.5,0.1
						c-0.2,0-0.3,0.1-0.5,0.1c-0.2,0.1-0.4,0.1-0.6,0.2c-0.2,0-0.3,0.1-0.5,0.1c-0.2,0.1-0.4,0.1-0.6,0.2c-0.2,0-0.3,0.1-0.5,0.1
						c-0.2,0.1-0.4,0.1-0.6,0.2c-0.2,0.1-0.4,0.1-0.5,0.2c-0.2,0.1-0.4,0.1-0.6,0.2c-0.2,0.1-0.4,0.1-0.6,0.2
						c-0.2,0.1-0.4,0.1-0.7,0.2c-0.2,0.1-0.4,0.1-0.6,0.2c-0.2,0.1-0.4,0.1-0.7,0.2c-0.2,0.1-0.4,0.1-0.6,0.2
						c-0.2,0.1-0.5,0.1-0.7,0.2c-0.2,0.1-0.4,0.1-0.6,0.2c-0.2,0.1-0.5,0.2-0.7,0.2c-0.2,0.1-0.4,0.1-0.6,0.2
						c-0.2,0.1-0.5,0.2-0.7,0.2c-0.2,0.1-0.4,0.1-0.6,0.2c-0.2,0.1-0.5,0.2-0.7,0.3c-0.2,0.1-0.4,0.2-0.7,0.2
						c-0.2,0.1-0.5,0.2-0.7,0.3c-0.2,0.1-0.4,0.2-0.7,0.3c-0.2,0.1-0.5,0.2-0.7,0.3c-0.2,0.1-0.4,0.2-0.7,0.3
						c-0.2,0.1-0.5,0.2-0.7,0.3c-0.2,0.1-0.4,0.2-0.7,0.3c-0.2,0.1-0.5,0.2-0.7,0.3c-0.2,0.1-0.4,0.2-0.6,0.3
						c-0.2,0.1-0.5,0.2-0.7,0.3c-0.2,0.1-0.4,0.2-0.6,0.3c-0.2,0.1-0.5,0.2-0.7,0.3c-0.2,0.1-0.4,0.2-0.6,0.3
						c-0.2,0.1-0.4,0.2-0.7,0.3c-0.2,0.1-0.4,0.2-0.6,0.3c-0.2,0.1-0.4,0.2-0.6,0.3c-0.2,0.1-0.4,0.2-0.6,0.3
						c-0.2,0.1-0.4,0.2-0.6,0.4c-0.2,0.1-0.4,0.2-0.6,0.3c-0.2,0.1-0.4,0.2-0.6,0.4c-0.2,0.1-0.4,0.2-0.6,0.3
						c-0.2,0.1-0.4,0.3-0.6,0.4c-0.2,0.1-0.4,0.2-0.5,0.4c-0.2,0.1-0.4,0.3-0.6,0.4c-0.2,0.1-0.3,0.2-0.5,0.4
						c-0.2,0.1-0.4,0.3-0.5,0.4c-0.2,0.1-0.3,0.2-0.5,0.4c-0.2,0.1-0.3,0.3-0.5,0.4c-0.2,0.1-0.3,0.3-0.5,0.4
						c-0.2,0.1-0.3,0.3-0.5,0.4c-0.1,0.1-0.3,0.3-0.4,0.4c0,0-0.1,0.1-0.1,0.1c0,0,0,0.1-0.1,0.1c-0.2,0.2-0.4,0.4-0.6,0.6l0.4,2
						L318.4,1646z M359.3,1647.1l-0.7-0.9c2.4-1.9,4.4-3.7,6-5.5c-1.6,2.5-2.9,4.8-3.8,6.6l-0.2-0.2l-1,0.4L359.3,1647.1z"/>
				</g>
			</g>
			<polygon class="st22" points="1895.7,1313.2 1921,1321.2 1921,422.8 1895.7,430.3 			"/>
			<g>
				<g>
					<polygon class="st4" points="1698.5,560.1 1154.2,560.1 1154.2,430.3 1698.5,430.3 1768.9,493.2 					"/>
					<polygon class="st2" points="1684.4,560.1 1140.2,560.1 1140.2,430.3 1684.4,430.3 1754.8,493.2 					"/>
				</g>
				<g>
					<path class="st3" d="M1212.1,515.8v-41.6h26.7v6.4h-19.1v10.3h17v6.3h-17v12.2h20.6v6.4H1212.1z"/>
					<path class="st3" d="M1278.2,515.8c-1.4-2.3-2.9-4.7-4.6-7.3c-1.7-2.6-3.4-5.3-5.2-7.9c-1.8-2.7-3.6-5.2-5.5-7.7
						s-3.6-4.8-5.3-6.8v29.8h-7.4v-41.6h6.2c1.6,1.7,3.3,3.7,5.2,6c1.8,2.3,3.7,4.7,5.6,7.2c1.9,2.5,3.7,5,5.4,7.5
						c1.7,2.5,3.3,4.8,4.6,7v-27.6h7.5v41.6H1278.2z"/>
					<path class="st3" d="M1326.6,474.2v6.5h-12.8v35h-7.6v-35h-12.8v-6.5H1326.6z"/>
					<path class="st3" d="M1346.8,473.8c6,0,10.6,1.1,13.8,3.3c3.2,2.2,4.8,5.6,4.8,10.1c0,5.6-2.8,9.5-8.3,11.5
						c0.8,0.9,1.6,2,2.6,3.4c1,1.3,1.9,2.8,2.9,4.3c1,1.5,2,3.1,2.9,4.7c0.9,1.6,1.7,3.2,2.5,4.8h-8.5c-0.8-1.4-1.6-2.9-2.5-4.3
						c-0.9-1.5-1.8-2.9-2.7-4.3c-0.9-1.4-1.8-2.7-2.7-3.9c-0.9-1.2-1.7-2.3-2.5-3.3c-0.6,0-1,0.1-1.4,0.1c-0.4,0-0.8,0-1.1,0h-3.7
						v15.7h-7.6v-41c1.8-0.4,3.8-0.7,5.9-0.8C1343.3,473.9,1345.2,473.8,1346.8,473.8z M1347.4,480.3c-1.6,0-3.1,0.1-4.4,0.2v13.4
						h3.3c1.8,0,3.5-0.1,4.9-0.3c1.4-0.2,2.6-0.6,3.5-1.1c0.9-0.5,1.6-1.2,2.1-2.1c0.5-0.9,0.7-2,0.7-3.4c0-1.3-0.2-2.4-0.7-3.2
						c-0.5-0.9-1.2-1.6-2.1-2.1s-2-0.9-3.2-1.1C1350.2,480.4,1348.8,480.3,1347.4,480.3z"/>
					<path class="st3" d="M1376.8,515.8v-41.6h26.7v6.4h-19.1v10.3h17v6.3h-17v12.2h20.6v6.4H1376.8z"/>
					<path class="st3" d="M1426.7,473.8c6,0,10.7,1.1,13.9,3.3c3.2,2.2,4.8,5.6,4.8,10.3c0,2.4-0.4,4.5-1.3,6.3
						c-0.9,1.7-2.1,3.2-3.8,4.3c-1.6,1.1-3.6,1.9-6,2.4c-2.4,0.5-5.1,0.8-8.1,0.8h-3.8v14.6h-7.6v-41c1.8-0.4,3.7-0.7,5.9-0.8
						C1422.9,473.9,1424.9,473.8,1426.7,473.8z M1427.2,480.3c-1.9,0-3.5,0.1-4.7,0.2v14.2h3.7c3.6,0,6.4-0.5,8.4-1.5
						c2-1,2.9-2.9,2.9-5.8c0-1.4-0.3-2.5-0.8-3.4c-0.5-0.9-1.2-1.6-2.2-2.2c-0.9-0.5-2-0.9-3.3-1.1
						C1430,480.4,1428.7,480.3,1427.2,480.3z"/>
					<path class="st3" d="M1466.8,473.8c6,0,10.6,1.1,13.8,3.3c3.2,2.2,4.8,5.6,4.8,10.1c0,5.6-2.8,9.5-8.3,11.5
						c0.8,0.9,1.6,2,2.6,3.4c1,1.3,1.9,2.8,2.9,4.3c1,1.5,2,3.1,2.9,4.7c0.9,1.6,1.7,3.2,2.5,4.8h-8.5c-0.8-1.4-1.6-2.9-2.5-4.3
						c-0.9-1.5-1.8-2.9-2.7-4.3c-0.9-1.4-1.8-2.7-2.7-3.9c-0.9-1.2-1.7-2.3-2.5-3.3c-0.6,0-1,0.1-1.4,0.1c-0.4,0-0.8,0-1.1,0h-3.7
						v15.7h-7.6v-41c1.8-0.4,3.8-0.7,5.9-0.8C1463.3,473.9,1465.1,473.8,1466.8,473.8z M1467.3,480.3c-1.6,0-3.1,0.1-4.4,0.2v13.4
						h3.3c1.8,0,3.5-0.1,4.9-0.3c1.4-0.2,2.6-0.6,3.5-1.1c0.9-0.5,1.7-1.2,2.1-2.1c0.5-0.9,0.7-2,0.7-3.4c0-1.3-0.2-2.4-0.7-3.2
						c-0.5-0.9-1.2-1.6-2.1-2.1c-0.9-0.5-2-0.9-3.2-1.1C1470.1,480.4,1468.8,480.3,1467.3,480.3z"/>
					<path class="st3" d="M1496.7,515.8v-41.6h26.7v6.4h-19.1v10.3h17v6.3h-17v12.2h20.6v6.4H1496.7z"/>
					<path class="st3" d="M1562.9,515.8c-1.4-2.3-2.9-4.7-4.6-7.3c-1.7-2.6-3.4-5.3-5.2-7.9c-1.8-2.7-3.6-5.2-5.5-7.7
						c-1.9-2.5-3.6-4.8-5.3-6.8v29.8h-7.4v-41.6h6.2c1.6,1.7,3.3,3.7,5.2,6c1.8,2.3,3.7,4.7,5.5,7.2c1.9,2.5,3.7,5,5.4,7.5
						c1.7,2.5,3.3,4.8,4.7,7v-27.6h7.5v41.6H1562.9z"/>
					<path class="st3" d="M1582.3,515.8v-41.6h26.7v6.4h-19.1v10.3h17v6.3h-17v12.2h20.6v6.4H1582.3z"/>
					<path class="st3" d="M1635.3,516.7c-2.8,0-5.3-0.4-7.3-1.2c-2-0.8-3.7-2-5.1-3.5c-1.3-1.5-2.3-3.2-3-5.2c-0.6-2-1-4.2-1-6.6
						v-26h7.6v25.3c0,1.9,0.2,3.5,0.6,4.8c0.4,1.3,1,2.4,1.8,3.3c0.8,0.8,1.7,1.5,2.8,1.9c1.1,0.4,2.2,0.6,3.6,0.6
						c1.3,0,2.5-0.2,3.6-0.6c1.1-0.4,2-1,2.8-1.9c0.8-0.8,1.4-1.9,1.8-3.3c0.4-1.3,0.6-2.9,0.6-4.8v-25.3h7.6v26
						c0,2.4-0.3,4.6-1,6.6c-0.7,2-1.7,3.7-3,5.2c-1.3,1.5-3.1,2.6-5.1,3.5C1640.6,516.3,1638.1,516.7,1635.3,516.7z"/>
					<path class="st3" d="M1675.9,473.8c6,0,10.6,1.1,13.8,3.3c3.2,2.2,4.8,5.6,4.8,10.1c0,5.6-2.8,9.5-8.3,11.5
						c0.8,0.9,1.6,2,2.6,3.4c1,1.3,1.9,2.8,2.9,4.3c1,1.5,2,3.1,2.9,4.7c0.9,1.6,1.7,3.2,2.5,4.8h-8.5c-0.8-1.4-1.6-2.9-2.5-4.3
						c-0.9-1.5-1.8-2.9-2.7-4.3c-0.9-1.4-1.8-2.7-2.7-3.9c-0.9-1.2-1.7-2.3-2.5-3.3c-0.6,0-1,0.1-1.4,0.1c-0.4,0-0.8,0-1.1,0h-3.7
						v15.7h-7.6v-41c1.8-0.4,3.8-0.7,5.9-0.8C1672.4,473.9,1674.3,473.8,1675.9,473.8z M1676.5,480.3c-1.6,0-3.1,0.1-4.4,0.2v13.4
						h3.3c1.8,0,3.5-0.1,4.9-0.3c1.4-0.2,2.6-0.6,3.5-1.1c0.9-0.5,1.7-1.2,2.1-2.1c0.5-0.9,0.7-2,0.7-3.4c0-1.3-0.2-2.4-0.7-3.2
						c-0.5-0.9-1.2-1.6-2.1-2.1c-0.9-0.5-2-0.9-3.2-1.1C1679.3,480.4,1677.9,480.3,1676.5,480.3z"/>
				</g>
			</g>
		</g>
	</g>
</g>
</svg>
