<?xml version="1.0" encoding="utf-8"?>
<!-- Generator: Adobe Illustrator 26.2.1, SVG Export Plug-In . SVG Version: 6.00 Build 0)  -->
<!DOCTYPE svg PUBLIC "-//W3C//DTD SVG 1.1//EN" "http://www.w3.org/Graphics/SVG/1.1/DTD/svg11.dtd" [
	<!ENTITY ns_extend "http://ns.adobe.com/Extensibility/1.0/">
	<!ENTITY ns_ai "http://ns.adobe.com/AdobeIllustrator/10.0/">
	<!ENTITY ns_graphs "http://ns.adobe.com/Graphs/1.0/">
	<!ENTITY ns_vars "http://ns.adobe.com/Variables/1.0/">
	<!ENTITY ns_imrep "http://ns.adobe.com/ImageReplacement/1.0/">
	<!ENTITY ns_sfw "http://ns.adobe.com/SaveForWeb/1.0/">
	<!ENTITY ns_custom "http://ns.adobe.com/GenericCustomNamespace/1.0/">
	<!ENTITY ns_adobe_xpath "http://ns.adobe.com/XPath/1.0/">
]>
<svg version="1.1" id="Layer_1" xmlns:x="&ns_extend;" xmlns:i="&ns_ai;" xmlns:graph="&ns_graphs;"
	 xmlns="http://www.w3.org/2000/svg" xmlns:xlink="http://www.w3.org/1999/xlink" x="0px" y="0px" viewBox="0 0 2540 2000"
	 style="enable-background:new 0 0 2540 2000;" xml:space="preserve">
<style type="text/css">
	.Blue_x0020_Neon{fill:none;stroke:#8AACDA;stroke-width:7;stroke-linecap:round;stroke-linejoin:round;}
	.Chrome_x0020_Highlight{fill:url(#SVGID_1_);stroke:#FFFFFF;stroke-width:0.3629;stroke-miterlimit:1;}
	.Jive_GS{fill:#FFDD00;}
	.Alyssa_GS{fill:#A6D0E4;}
	.st0{fill:#FFFFFF;}
	.st1{fill:#FDF1DE;}
	.st2{fill:none;stroke:#302C25;stroke-miterlimit:10;}
	.st3{fill:#E0D6C6;}
	.st4{opacity:0.3;}
	.st5{fill:#F0E5D3;}
	.st6{fill:#D9CFC0;}
	.st7{fill:#E6DBC5;}
	.st8{fill:#BE9F92;}
	.st9{fill:#665444;}
	.st10{opacity:0.3;fill:#BE9F92;}
	.st11{opacity:0.3;fill:#665444;}
	.st12{fill:#FCB6A1;}
	.st13{fill:#FFEAAD;}
	.st14{opacity:0.3;fill:#FCB6A1;}
	.st15{opacity:0.3;fill:#FFEAAD;}
	.st16{fill:#473526;}
	.st17{opacity:0.65;fill:#FFEAAD;}
	.st18{fill:none;stroke:#473526;stroke-width:2;stroke-linecap:round;stroke-linejoin:round;stroke-miterlimit:10;}
	.st19{opacity:0.3;fill:#C9B29F;}
	.st20{opacity:0.3;fill:#9FC09C;}
	.st21{fill:#C9B29F;}
</style>
<metadata>
	<sfw  xmlns="&ns_sfw;">
		<slices></slices>
		<sliceSourceBounds  bottomLeftOrigin="true" height="2000" width="2540" x="-6970" y="-1900"></sliceSourceBounds>
		<optimizationSettings>
			<targetSettings  fileFormat="JPEGFormat" targetSettingsID="0">
				
					<JPEGFormat  blurAmount="0" embedICCProfile="false" matteColor="#FFFFFF" noMatteColor="false" optimized="true" progressive="false" quality="100">
					</JPEGFormat>
			</targetSettings>
		</optimizationSettings>
	</sfw>
</metadata>
<linearGradient id="SVGID_1_" gradientUnits="userSpaceOnUse" x1="6970" y1="100" x2="6970" y2="99">
	<stop  offset="0" style="stop-color:#656565"/>
	<stop  offset="0.618" style="stop-color:#1B1B1B"/>
	<stop  offset="0.6292" style="stop-color:#545454"/>
	<stop  offset="0.9831" style="stop-color:#3E3E3E"/>
</linearGradient>
<g>
	<g>
		<rect class="st0" width="2540" height="2000"/>
	</g>
</g>
<path class="st1" d="M838.4,517.2l11.4-16.2l-16.6-15.6c4.7-10,7-20.7,7-31.3l21.7-7.3l-3.4-19.5l-22.9,0.5
	c-3.6-10-9.4-19.2-17.2-27l10.3-20.3l-16.2-11.4l-15.6,16.6c-10-4.7-20.7-7-31.3-7l-7.3-21.7l-19.5,3.4l0.5,22.9
	c-9.9,3.6-19.1,9.4-26.9,17.1L692,390.2l-11.4,16.2l16.5,15.8c-4.6,10-6.9,20.7-6.9,31.3l-21.7,7.1l3.4,19.5l22.8-0.7
	c3.6,10,9.4,19.3,17.1,27.1l-10.2,20.5l16.2,11.4l15.8-16.5c10,4.6,20.7,6.9,31.3,6.9l7.1,21.7l19.5-3.4l-0.7-22.8
	c10-3.6,19.3-9.4,27.2-17.3L838.4,517.2z M740.3,489.1c-19.5-13.7-24.3-40.7-10.5-60.3c13.7-19.5,40.7-24.3,60.3-10.5
	c19.5,13.7,24.3,40.7,10.5,60.3C786.9,498.1,759.9,502.8,740.3,489.1z"/>
<path class="st1" d="M1088.5,300.5v-7l-8-1.1c-0.7-3.8-2.2-7.4-4.3-10.5l4.8-6.5l-4.9-4.9l-6.5,4.8c-3.1-2.1-6.6-3.6-10.5-4.3
	l-1.1-8h-7l-1.1,8c-3.8,0.7-7.4,2.2-10.5,4.3l-6.5-4.8l-4.9,4.9l4.8,6.5c-2.1,3.1-3.6,6.6-4.3,10.4l-8,1.2v7l8,1.2
	c0.7,3.8,2.2,7.4,4.3,10.4l-4.8,6.4l4.9,4.9l6.4-4.8c3.1,2.1,6.6,3.7,10.4,4.3l1.2,8h7l1.2-8c3.8-0.7,7.4-2.2,10.4-4.3l6.4,4.8
	l4.9-4.9l-4.8-6.4c2.2-3.1,3.7-6.7,4.4-10.5L1088.5,300.5z M1054.5,317.7c-11.4,0-20.7-9.2-20.7-20.7s9.2-20.7,20.7-20.7
	s20.7,9.2,20.7,20.7S1065.9,317.7,1054.5,317.7z"/>
<path class="st1" d="M1751.8,405.8v-13.9l-15.8-2.3c-1.3-7.6-4.3-14.7-8.6-20.8l9.5-12.9l-9.8-9.8l-12.9,9.5
	c-6.1-4.2-13.2-7.2-20.8-8.6l-2.3-15.8h-13.9l-2.3,15.8c-7.6,1.3-14.7,4.3-20.8,8.6l-12.9-9.5l-9.8,9.8l9.5,12.9
	c-4.2,6.1-7.2,13.1-8.6,20.6l-15.8,2.4v13.9l15.8,2.4c1.4,7.6,4.4,14.7,8.6,20.7l-9.6,12.8l9.8,9.8l12.8-9.6
	c6.1,4.3,13.1,7.3,20.7,8.6l2.4,15.8h13.9l2.4-15.8c7.6-1.4,14.7-4.4,20.7-8.6l12.8,9.6l9.8-9.8l-9.6-12.8
	c4.3-6.1,7.3-13.2,8.7-20.9L1751.8,405.8z M1684.2,429.2c-16.7,0-30.3-13.6-30.3-30.3c0-16.7,13.6-30.3,30.3-30.3
	c16.7,0,30.3,13.6,30.3,30.3C1714.5,415.6,1700.9,429.2,1684.2,429.2z"/>
<g>
	<g>
		<path class="st2" d="M586.1,1214.6c0,0-59.3-1.3-98.4-38.6s-43.3-96.4-43.3-96.4s59.3,1.3,98.4,38.6
			C581.9,1155.5,586.1,1214.6,586.1,1214.6z"/>
	</g>
	<g>
		<path class="st2" d="M803.5,1637.8c0,0-198.8,42.6-359-50.7c-160.2-93.3-221.2-287.3-221.2-287.3s198.8-42.6,359,50.7
			C742.6,1443.9,803.5,1637.8,803.5,1637.8z"/>
	</g>
	<g>
		<path class="st3" d="M888.3,1586.8c0,0-230,24.1-400-100.9S273,1134.2,273,1134.2s230-24.1,400,100.9S888.3,1586.8,888.3,1586.8z"
			/>
		<g class="st4">
			<path class="st3" d="M577.5,1372c-77.4-57-154.3-114.6-230-172.7c-2.2-1.7-2.7-4.9-0.9-7.2c1.7-2.2,4.9-2.7,7.2-0.9
				c75.7,58,152.5,115.7,229.9,172.6c84.9,62.4,170.4,124,256,184.1c0,0,0.1,0,0.1,0.1c2.2,1.6,2.8,4.8,1.2,7.1
				c-1.6,2.3-4.8,2.9-7.1,1.2C748,1496,662.4,1434.5,577.5,1372z"/>
		</g>
		<g class="st4">
			<path class="st3" d="M543.3,1312.8c-0.5-0.4-1-0.9-1.4-1.5c-4.6-7.8-6.8-17.4-6-26.9c0.7-9.5,4.2-18.6,10-25.7
				c1.8-2.2,5-2.5,7.2-0.8c2.2,1.8,2.5,5,0.8,7.2c-9.1,11.3-10.4,28.5-3,40.9c1.4,2.4,0.6,5.6-1.8,7
				C547.1,1314.2,544.9,1314,543.3,1312.8z"/>
		</g>
		<g class="st4">
			<path class="st3" d="M634.2,1390.9c-0.8-0.6-1.4-1.3-1.7-2.2c-6.4-16.3-2.6-35.7,9.5-48.4c2-2,5.2-2.1,7.2-0.2
				c2,2,2.1,5.2,0.2,7.2c-9.3,9.7-12.3,25.1-7.4,37.6c1,2.6-0.3,5.6-2.9,6.6C637.4,1392.2,635.5,1391.9,634.2,1390.9z"/>
		</g>
		<g class="st4">
			<path class="st3" d="M463,1382.7c-1-0.7-1.7-1.8-2-3.1c-0.6-2.8,1.2-5.5,4-6.1c16.9-3.5,34.8-0.1,49.1,9.4c2.4,1.6,3,4.7,1.4,7.1
				s-4.7,3-7.1,1.4c-11.9-7.9-27.4-10.8-41.4-7.9C465.6,1383.9,464.2,1383.6,463,1382.7z"/>
		</g>
		<g class="st4">
			<path class="st3" d="M587.4,1489.6c-0.2-0.2-0.4-0.3-0.6-0.5c-2-2-2-5.2,0-7.2c12.8-12.7,31.1-19.2,49-17.3
				c2.8,0.3,4.9,2.8,4.6,5.6c-0.3,2.8-2.8,4.9-5.6,4.6c-14.7-1.5-30.2,4-40.7,14.4C592.2,1490.9,589.4,1491.1,587.4,1489.6z"/>
		</g>
	</g>
	<g>
		<path class="st5" d="M805.5,1428.2c0,0-150.3-31-232.6-144.2c-82.3-113.2-65.5-265.7-65.5-265.7s150.3,31,232.6,144.2
			C822.4,1275.6,805.5,1428.2,805.5,1428.2z"/>
		<g class="st4">
			<path class="st5" d="M652.2,1229.8c-37.5-51.6-74.5-103.5-110.7-155.5c-1.1-1.5-0.7-3.7,0.8-4.7c1.5-1.1,3.6-0.7,4.7,0.8
				c36.2,51.9,73.2,103.8,110.6,155.4c41.1,56.5,82.8,112.6,124.8,167.9c0,0,0,0,0,0.1c1.1,1.5,0.8,3.6-0.7,4.7
				c-1.5,1.1-3.6,0.8-4.8-0.6C735.1,1342.5,693.3,1286.4,652.2,1229.8z"/>
		</g>
		<g class="st4">
			<path class="st5" d="M642.5,1185.5c-0.3-0.4-0.5-0.8-0.6-1.2c-1.3-5.9-0.8-12.3,1.6-18.2c2.4-5.9,6.4-10.9,11.5-14.2
				c1.6-1,3.7-0.6,4.7,1c1,1.6,0.6,3.7-1,4.7c-8,5.3-12.3,15.9-10.2,25.3c0.4,1.8-0.7,3.7-2.6,4.1
				C644.7,1187.2,643.3,1186.6,642.5,1185.5z"/>
		</g>
		<g class="st4">
			<path class="st5" d="M684.3,1253.2c-0.4-0.5-0.6-1.1-0.6-1.8c-0.8-11.6,5.6-23.1,15.8-28.7c1.6-0.9,3.7-0.3,4.6,1.4
				c0.9,1.6,0.3,3.7-1.4,4.6c-7.8,4.2-12.8,13.4-12.2,22.3c0.1,1.9-1.3,3.5-3.2,3.6C686,1254.7,684.9,1254.1,684.3,1253.2z"/>
		</g>
		<g class="st4">
			<path class="st5" d="M577.7,1213.6c-0.5-0.7-0.7-1.5-0.6-2.3c0.2-1.9,1.9-3.2,3.7-3c11.4,1.2,22,6.9,29.2,15.8
				c1.2,1.5,0.9,3.6-0.5,4.8c-1.5,1.2-3.6,0.9-4.8-0.5c-5.9-7.4-15.1-12.4-24.6-13.3C579.1,1214.9,578.3,1214.3,577.7,1213.6z"/>
		</g>
		<g class="st4">
			<path class="st5" d="M634.9,1306.2c-0.1-0.1-0.2-0.3-0.3-0.4c-0.9-1.7-0.2-3.7,1.5-4.6c10.6-5.5,23.5-5.9,34.4-1.1
				c1.7,0.8,2.5,2.8,1.8,4.5c-0.8,1.7-2.8,2.5-4.5,1.8c-9-3.9-19.9-3.6-28.6,0.9C637.7,1308,635.8,1307.5,634.9,1306.2z"/>
		</g>
	</g>
	<g>
		<path class="st6" d="M807.1,1660.3c0,0-200.5,13.6-352.9-98.6C301.7,1449.5,255,1254.1,255,1254.1s200.5-13.6,352.9,98.6
			S807.1,1660.3,807.1,1660.3z"/>
		<g class="st4">
			<path class="st6" d="M528.6,1466.9c-69.5-51.1-138.5-102.8-206.5-154.8c-2-1.5-2.5-4.3-1.1-6.2c1.4-1.9,4.2-2.1,6.3-0.6
				c68,52,137,103.7,206.4,154.7c76.2,56,152.9,111.3,229.6,165.4c0,0,0.1,0,0.1,0.1c2,1.5,2.6,4.2,1.2,6.1
				c-1.4,1.9-4.1,2.3-6.2,0.8C681.6,1578.3,604.8,1523,528.6,1466.9z"/>
		</g>
		<g class="st4">
			<path class="st6" d="M497,1415.2c-0.5-0.4-0.9-0.8-1.3-1.3c-4.3-6.8-6.4-15.1-6.1-23.2c0.3-8.1,3.1-15.8,7.9-21.7
				c1.5-1.8,4.3-2,6.3-0.4c2,1.6,2.4,4.4,0.9,6.2c-7.6,9.3-8.2,24-1.4,34.9c1.3,2.1,0.7,4.8-1.4,5.9
				C500.3,1416.5,498.4,1416.3,497,1415.2z"/>
		</g>
		<g class="st4">
			<path class="st6" d="M578.8,1484.8c-0.7-0.5-1.2-1.2-1.6-2c-6.1-14.1-3.4-30.7,6.9-41.1c1.6-1.7,4.5-1.7,6.3,0.1
				c1.8,1.7,2,4.5,0.4,6.2c-7.8,8-10,21.1-5.3,31.9c1,2.3-0.1,4.8-2.3,5.6C581.7,1486.1,580.1,1485.8,578.8,1484.8z"/>
		</g>
		<g class="st4">
			<path class="st6" d="M428.9,1472.6c-0.9-0.6-1.5-1.6-1.8-2.7c-0.6-2.4,0.9-4.7,3.3-5.1c14.6-2.5,30.4,1,43.3,9.5
				c2.1,1.4,2.8,4.1,1.5,6.1c-1.3,2-4.1,2.4-6.2,1c-10.7-7.1-24.3-10.1-36.4-8C431.2,1473.7,429.9,1473.3,428.9,1472.6z"/>
		</g>
		<g class="st4">
			<path class="st6" d="M541,1567.9c-0.2-0.1-0.4-0.3-0.5-0.5c-1.8-1.8-1.9-4.6-0.2-6.2c10.8-10.5,26.6-15.5,42.3-13.3
				c2.5,0.3,4.3,2.6,4.2,5c-0.2,2.4-2.3,4.1-4.8,3.7c-12.9-1.8-26.3,2.5-35.1,11.1C545.2,1569.1,542.8,1569.2,541,1567.9z"/>
		</g>
	</g>
</g>
<g>
	<g>
		<path class="st2" d="M1632.8,1561.3c0,0,39.3-239.9,213-377.5S2262,1063,2262,1063s-39.3,239.9-213,377.5
			C1875.2,1578.1,1632.8,1561.3,1632.8,1561.3z"/>
	</g>
	<g>
		<path class="st2" d="M1792.3,1362.6c0,0-13.9-104.8,41.1-184c55-79.2,158.1-102.8,158.1-102.8s13.9,104.8-41.1,184
			C1895.4,1339,1792.3,1362.6,1792.3,1362.6z"/>
	</g>
	<g>
		<path class="st3" d="M1663.2,1648.7c0,0,54.7-236.8,237-362.9s423.2-93.7,423.2-93.7s-54.7,236.8-237,362.9
			C1904,1681.1,1663.2,1648.7,1663.2,1648.7z"/>
		<g class="st4">
			<path class="st3" d="M1982.9,1413.4c83.1-57.4,166.7-114.1,250.3-169.5c2.5-1.6,5.8-1,7.5,1.5c1.6,2.5,1,5.8-1.5,7.5
				c-83.5,55.4-167.1,112-250.1,169.4c-91.1,63-181.4,126.9-270.5,191.4c0,0-0.1,0-0.1,0.1c-2.4,1.7-5.7,1.1-7.4-1.3
				c-1.7-2.4-1.2-5.8,1.2-7.5C1801.3,1540.4,1891.8,1476.4,1982.9,1413.4z"/>
		</g>
		<g class="st4">
			<path class="st3" d="M2053.4,1399.7c0.6-0.4,1.3-0.7,2-0.8c9.3-1.9,19.6-0.8,28.8,3.2c9.2,4,17.1,10.6,22.1,18.7
				c1.6,2.5,0.8,5.9-1.7,7.4c-2.5,1.6-5.8,0.8-7.4-1.7c-8.1-12.9-24.7-20.1-39.6-17c-2.9,0.6-5.8-1.3-6.3-4.2
				C2050.7,1403,2051.7,1400.9,2053.4,1399.7z"/>
		</g>
		<g class="st4">
			<path class="st3" d="M1944.7,1463.2c0.8-0.6,1.8-0.9,2.8-0.9c18.4-0.8,36.4,9.7,44.8,26c1.4,2.6,0.3,5.9-2.3,7.3
				c-2.6,1.4-5.9,0.3-7.3-2.3c-6.4-12.5-20.7-20.8-34.8-20.2c-3,0.1-5.5-2.2-5.6-5.1C1942.3,1466,1943.3,1464.3,1944.7,1463.2z"/>
		</g>
		<g class="st4">
			<path class="st3" d="M2011.4,1296c1.1-0.7,2.4-1.1,3.7-0.9c3,0.4,5,3.1,4.7,6c-2.2,18-11.8,34.6-26.1,45.6
				c-2.4,1.8-5.7,1.4-7.5-1c-1.8-2.4-1.4-5.7,1-7.5c11.9-9.1,20.1-23.5,22-38.4C2009.3,1298.2,2010.1,1296.8,2011.4,1296z"/>
		</g>
		<g class="st4">
			<path class="st3" d="M1862.6,1383c0.2-0.2,0.5-0.3,0.7-0.4c2.7-1.3,5.9-0.2,7.2,2.5c8.3,17,8.4,37.4,0.5,54.6
				c-1.3,2.7-4.5,3.9-7.2,2.6c-2.7-1.3-3.9-4.5-2.6-7.2c6.5-14,6.4-31.4-0.4-45.3C1859.7,1387.4,1860.5,1384.5,1862.6,1383z"/>
		</g>
	</g>
	<g>
		<path class="st5" d="M1732.9,1577.4c0,0-15-182.8,87.1-315.3c102.1-132.5,282.7-164.6,282.7-164.6s15,182.8-87.1,315.3
			C1913.5,1545.3,1732.9,1577.4,1732.9,1577.4z"/>
		<g class="st4">
			<path class="st5" d="M1908.7,1334.8c46.5-60.4,93.6-120.3,141-179.3c1.4-1.8,4-2,5.7-0.6s2,3.9,0.6,5.7
				c-47.3,59-94.4,118.9-140.9,179.2c-51,66.2-101.3,132.9-150.5,199.7c0,0,0,0-0.1,0.1c-1.3,1.7-3.8,2.1-5.6,0.8
				c-1.8-1.3-2.2-3.9-0.9-5.7C1807.4,1467.8,1857.7,1401,1908.7,1334.8z"/>
		</g>
		<g class="st4">
			<path class="st5" d="M1956.3,1308.7c0.3-0.4,0.7-0.8,1.2-1.1c6.3-3.5,13.9-5.1,21.4-4.3c7.5,0.7,14.7,3.7,20.2,8.3
				c1.7,1.5,1.9,4,0.5,5.7c-1.5,1.7-4,1.9-5.7,0.5c-8.8-7.4-22.4-8.7-32.4-3.1c-2,1.1-4.4,0.4-5.5-1.6
				C1955.1,1311.7,1955.3,1310,1956.3,1308.7z"/>
		</g>
		<g class="st4">
			<path class="st5" d="M1892.7,1379.4c0.5-0.6,1.1-1.1,1.8-1.3c13-4.8,28.4-1.4,38.2,8.4c1.6,1.6,1.6,4.2,0,5.7
				c-1.6,1.6-4.2,1.6-5.7,0c-7.5-7.5-19.7-10.2-29.6-6.5c-2.1,0.8-4.4-0.3-5.2-2.4C1891.6,1381.9,1891.9,1380.4,1892.7,1379.4z"/>
		</g>
		<g class="st4">
			<path class="st5" d="M1902.3,1243.9c0.6-0.8,1.4-1.3,2.5-1.5c2.2-0.4,4.3,1,4.7,3.2c2.5,13.4-0.5,27.6-8.3,38.8
				c-1.3,1.8-3.8,2.3-5.7,1s-2.3-3.8-1-5.7c6.5-9.3,9.1-21.5,7-32.6C1901.3,1245.9,1901.6,1244.7,1902.3,1243.9z"/>
		</g>
		<g class="st4">
			<path class="st5" d="M1815.3,1340.6c0.1-0.2,0.3-0.3,0.4-0.5c1.6-1.5,4.2-1.5,5.7,0.1c9.8,10.3,14.7,25,12.9,39.1
				c-0.3,2.2-2.3,3.8-4.5,3.5c-2.2-0.3-3.8-2.3-3.5-4.5c1.5-11.6-2.6-24-10.7-32.5C1814.2,1344.4,1814.1,1342.2,1815.3,1340.6z"/>
		</g>
	</g>
</g>
<ellipse class="st1" cx="1279.6" cy="1104.8" rx="724.2" ry="650.8"/>
<path class="st7" d="M2336,1667.3c0,79.9-485.5,144.7-1084.3,144.7s-1084.3-64.8-1084.3-144.7c0-79.9,489.4-51.6,1088.2-51.6
	S2336,1587.4,2336,1667.3z"/>
<g>
	<path class="st7" d="M301.6,620.5l262.2-50.3c1.8-0.3,3.5,0.8,3.8,2.6l26.2,136.8c0.3,1.8-0.8,3.5-2.6,3.8l-31.2,6
		c-1.8,0.3-2.9,2-2.6,3.8l8,41.5c0.3,1.4-1.3,2.5-2.5,1.7l-53.5-36.3c-0.7-0.5-1.6-0.7-2.4-0.5L329,763.7c-1.8,0.3-3.5-0.8-3.8-2.6
		L299,624.3C298.6,622.5,299.8,620.8,301.6,620.5z"/>
	<path class="st2" d="M310.6,610.5l262.2-50.3c1.8-0.3,3.5,0.8,3.8,2.6l26.2,136.8c0.3,1.8-0.8,3.5-2.6,3.8l-31.2,6
		c-1.8,0.3-2.9,2-2.6,3.8l8,41.5c0.3,1.4-1.3,2.5-2.5,1.7l-53.5-36.3c-0.7-0.5-1.6-0.7-2.4-0.5L338,753.7c-1.8,0.3-3.5-0.8-3.8-2.6
		L308,614.3C307.6,612.5,308.8,610.8,310.6,610.5z"/>
</g>
<g>
	<path class="st7" d="M2021.2,576.9l-266.8-11c-1.8-0.1-3.3,1.3-3.4,3.1l-5.7,139.2c-0.1,1.8,1.3,3.3,3.1,3.4l31.8,1.3
		c1.8,0.1,3.2,1.6,3.1,3.4l-1.7,42.2c-0.1,1.5,1.7,2.3,2.8,1.3L1832,716c0.6-0.6,1.5-0.9,2.3-0.9l180.9,7.5c1.8,0.1,3.3-1.3,3.4-3.1
		l5.7-139.2C2024.4,578.5,2023,577,2021.2,576.9z"/>
	<path class="st2" d="M2010.9,568.3l-266.8-11c-1.8-0.1-3.3,1.3-3.4,3.1l-5.7,139.2c-0.1,1.8,1.3,3.3,3.1,3.4l31.8,1.3
		c1.8,0.1,3.2,1.6,3.1,3.4l-1.7,42.2c-0.1,1.5,1.7,2.3,2.8,1.3l47.6-43.8c0.6-0.6,1.5-0.9,2.3-0.9l180.9,7.5
		c1.8,0.1,3.3-1.3,3.4-3.1l5.7-139.2C2014,569.9,2012.6,568.4,2010.9,568.3z"/>
</g>
<g>
	<g>
		<path class="st8" d="M1281.5,1245.7c15.2-5.3,28.1-11.5,36-16.8c0.1-0.1,0.3-0.2,0.4-0.3c6.6-0.5,10.9,0.3,11.7,2.5
			c0.8,2.3-2.5,5.9-8.6,10c-7.9,5.2-20.6,11.2-35.4,16.4s-28.4,8.5-37.9,9.4c-7.3,0.7-12.1,0-13-2.4c-0.8-2.2,2.1-5.5,7.6-9.2
			c0.2,0,0.4,0,0.5,0C1252.4,1254.3,1266.4,1251,1281.5,1245.7z"/>
		<path class="st9" d="M1312.6,1430.8l69.4-157.6c30-7.3,141.8-34.2,235.5-51.8c35.3-6.6,68-12,92.8-14.5l73.4,208.6l207.7,123.5
			l-18,40.5l-259.9-108.4l-160.8-177.5l-25.1-27.7l25.1,27.7l-177,197.6l-134.6,183.2c-13.3-8.9-30.3-20.2-42.8-28.3L1312.6,1430.8z
			"/>
		<path class="st10" d="M1366.5,1486.3l160.6-220.3l23.3,30.3l-174.7,195l-134.6,183.2c-2.7-1.8-5.7-3.8-8.6-5.8L1366.5,1486.3z"/>
		<path class="st9" d="M1321,1241c4.9,24.8-3.9,48-22.1,54.4c-18.2,6.4-39.6-6.1-51.3-28.6c9.5-0.9,23.1-4.2,37.9-9.4
			S1313.1,1246.2,1321,1241z"/>
		<path class="st9" d="M1160.2,1626.1l25.2,44.4l13-24.4c12.5,8.1,29.6,19.4,42.8,28.3l-40.9,55.6l-92.3-84.5l15.3-21.4
			C1132.6,1611.2,1152.3,1612.2,1160.2,1626.1z"/>
		<path class="st0" d="M1303.9,715.7c1.2,0.8,3.6,3.8,6.8,8.3c0.8,1.1,1.6,2.3,2.5,3.6c2.2,3.3,4.6,7.1,7.3,11.3
			c2,3.2,4.1,6.7,6.3,10.3c1.3,2.2,2.7,4.5,4,6.8c2.9,5,5.9,10.2,8.9,15.5c2.8,5.1,5.7,10.3,8.4,15.5c0.9,1.6,1.7,3.2,2.5,4.8
			c2.8,5.4,5.5,10.8,8,16c3.6,7.5,6.8,14.6,9.2,20.9c2.6,6.6,4.4,12.4,5.1,16.7c0.7,4.3,0.3,7.3-1.5,8.4c-1.8,1.1-2.8,2.6-3.2,4.4
			c-0.3,1.2-0.4,2.5-0.2,3.9c0.2,2.1,0.7,4.3,1.5,6.7c1.3,4,3.2,8.4,5,12.7l0,0c0.5,1.2,1,2.5,1.4,3.7c1.2,3.2,2.2,6.3,2.6,9.2
			c0.7,4.3,1.3,8.6,1.9,12.8c0.9,5.8,1.7,11.5,2.4,17.2c1,7.5,1.9,14.9,2.8,22.3c0.7,5.8,1.3,11.6,1.9,17.3
			c0.7,6.3,1.2,12.6,1.8,18.9c0.1,1.2,0.2,2.4,0.3,3.6c0.5,5.8,0.9,11.7,1.3,17.4c0.5,7.6,0.9,15.1,1.2,22.6
			c0.3,5.9,0.5,11.7,0.6,17.6c0.2,7.6,0.3,15.2,0.3,22.7c0,5.9,0,11.8-0.1,17.7c0,1.4,0,2.9-0.1,4.3l11.7-1.7l-0.2-4.3l-0.7-17.6
			l-0.9-22.7l-0.7-17.6l-0.9-22.7l-0.7-17.5l-0.9-22.7v0l-0.1-2.3c-0.2-5.5,0.8-10.9,2.8-15.8c4.4-10.7,13.7-19,25.5-21.9l11.7-2.9
			l0.3-0.1c14.8-3.6,29.5,3.7,36.1,16.3c1.8,3.5,3,7.4,3.4,11.6c0.2,1.8,0.4,3.7,0.6,5.7c0.7,7,1.5,14.6,2.3,22.6
			c0.6,5.6,1.2,11.5,1.8,17.5c0.8,7.4,1.6,14.9,2.4,22.6c0.6,5.8,1.2,11.6,1.8,17.5c0.8,7.6,1.6,15.2,2.4,22.6
			c0.6,5.9,1.2,11.8,1.9,17.5c0.8,7.9,1.6,15.5,2.4,22.6c0.1,0.7,0.2,1.4,0.2,2.1c0.6,5.4,0.2,10.6-0.9,15.6
			c-2,9.2-6.7,17.5-13.2,24c-8.1,8.1-19.1,13.3-31.5,14l-16.6,0.9h0l-43.7,2.4c-0.3,3.8-0.6,7.6-1,11.4c-0.7,7.6-1.5,15.4-2.3,23.2
			c-0.7,6-1.4,12-2.1,18c-0.9,7.7-2,15.4-3.1,23.3c-0.8,6-1.7,12-2.6,18.1c-1.3,8.6-2.7,17.4-4.2,26.3c0,0,2.7-0.7,7.7-1.9
			c27.4-6.7,123-29.6,210.6-47c8.4-1.7,16.7-3.3,24.8-4.8c34.4-6.5,66.3-11.7,90.8-14.2c0,0,0,0,0,0c0.7-0.1,1.4-0.1,2-0.2
			c19.5-2,34.1-2.1,41.2,0.2c0,0-1.9-3.9-5.3-10.8c-2-4.1-4.6-9.2-7.7-15.2c-3-5.8-6.4-12.4-10.3-19.7c-2.6-4.8-5.3-10-8.2-15.4
			c-3.4-6.3-7.1-13-11-19.9c-2.8-5-5.8-10.2-8.8-15.5c-3.8-6.6-7.7-13.3-11.8-20.2c-3.1-5.2-6.2-10.4-9.5-15.7
			c-4.1-6.7-8.4-13.6-12.7-20.4c-3.4-5.3-6.8-10.6-10.3-15.9c-4.5-6.9-9.2-13.8-13.9-20.6c-3.7-5.4-7.5-10.7-11.3-16
			c-5.1-7.1-10.2-14-15.5-20.8c-4.2-5.5-8.5-10.9-12.8-16.1c-5.9-7.2-11.9-14.2-17.9-20.9c-5.1-5.6-10.2-11-15.3-16.2
			c-7.6-7.6-15.2-14.6-22.8-20.8c-7.3-6-14.7-11.3-22-15.8c-2.9-1.8-5.9-3.5-8.8-5c-11.1-5.8-21.3-10.6-30.5-14.5c0,0,0,0,0,0
			c-16.8-7.1-30.4-11.3-40.4-13.7c-13.6-3.3-20.7-3.5-20.7-3.5l-7.9-15.9l-4.2-8.5c0,0,17.7-4.3,35.5-12.8c13.3-6.4,26.6-15,32.5-26
			c2.8-5.3,4-11,2.6-17.3c0-0.2-0.1-0.4-0.1-0.5c-1.9-8.3-4.6-15.6-8.1-22.1c-3.4-6.3-7.4-11.8-12-16.5
			c-7.1-7.3-15.4-12.9-24.5-17.1c-14.7-6.8-31.4-10.1-47.9-11.2C1346.1,703.6,1303.9,715.7,1303.9,715.7z"/>
		<g>
			<path class="st10" d="M1408.8,921.8l11.6-2.9l0.3-0.1c6.2-1.5,12.4-1.1,18,0.8l-10.7,2.6c-17.2,4.2-29.1,19.9-28.4,37.6
				l4.9,127.3l-11.7,1.7c0.6-35.3-0.6-70.1-3.7-105.9c-1.2-14-2.7-28.2-4.4-42.6C1389.6,931.4,1398.2,924.4,1408.8,921.8z"/>
			<path class="st11" d="M1496.3,885.6c-59.1-31-91.7-31.7-91.7-31.7l-12.1-24.4c0,0,78.7-19.2,70.5-56.1
				c-10.9-48.9-51.8-64.5-91.7-67.3c45.1-0.8,98.3,10.9,110.9,67.8c8.2,36.9-70.5,56.1-70.5,56.1l12.1,24.4c0,0,32.6,0.7,91.7,31.7
				c110.5,57.9,235.9,321.1,235.9,321.1c-4.2-1.4-11-1.9-19.8-1.7C1722.4,1186.3,1602.4,941.2,1496.3,885.6z"/>
			<path class="st10" d="M1598.2,1221c35.3-6.6,68-12,92.8-14.5c15.9-1.6,28.5-2,36.5-0.8c-5.2,0.2-10.9,0.7-17.2,1.3
				c-24.8,2.5-57.5,7.8-92.8,14.5c-93.6,17.6-205.5,44.5-235.5,51.8c-5,1.2-7.7,1.9-7.7,1.9c0.3-1.8,0.6-3.6,0.9-5.4
				C1416.6,1259.8,1514.7,1236.7,1598.2,1221z"/>
		</g>
		<path class="st12" d="M1315.6,751.7c-0.6-7.8-1.4-15.8-2.5-24.1c3.9,5.7,8.5,13.2,13.6,21.6C1323,750.1,1319.1,751.1,1315.6,751.7
			z"/>
		<path class="st8" d="M1277.3,1233.6c14.4-5.1,26.9-10.9,34.8-16.1c0.3-0.2,0.6-0.4,0.9-0.6c7.1-0.6,11.7,0.1,12.5,2.4
			c0.8,2.2-2.1,5.5-7.6,9.2c-0.1,0.1-0.3,0.2-0.4,0.3c-7.9,5.3-20.9,11.5-36,16.8s-29.2,8.6-38.6,9.4c-0.2,0-0.4,0-0.5,0
			c-6.6,0.5-10.9-0.3-11.7-2.5c-0.8-2.3,2.4-5.8,8.3-9.7c0.4,0,0.7-0.1,1.1-0.1C1249.5,1241.9,1262.8,1238.6,1277.3,1233.6z"/>
		<path class="st8" d="M1273.8,1223.9c13.1-4.6,24.5-9.8,32.5-14.6c2.7-1.6,5.1-3.2,6.9-4.7c4.5,0,7.4,0.8,8.1,2.6
			c0.8,2.3-2.4,5.8-8.3,9.7c-0.3,0.2-0.6,0.4-0.9,0.6c-8,5.1-20.4,11-34.8,16.1c-14.4,5.1-27.8,8.3-37.2,9.3c-0.4,0-0.7,0.1-1.1,0.1
			c-7.1,0.6-11.7-0.1-12.5-2.4c-0.6-1.8,1.1-4.2,4.6-7.1c2.4,0,5.2-0.2,8.3-0.7C1248.6,1231.6,1260.8,1228.5,1273.8,1223.9z"/>
		<path class="st9" d="M1326.7,749.2c-3.7,1-7.6,1.9-11.1,2.5c0.9,12.5,0.9,24.6-0.5,36.9c10.1-0.6,24.5-1.4,32.9-1.7
			C1341,773.8,1333.5,760.6,1326.7,749.2z M1328,766.9c3.8,0,6.9,3.1,6.9,6.9c0,3.8-3.1,6.9-6.9,6.9s-6.9-3.1-6.9-6.9
			C1321,770,1324.1,766.9,1328,766.9z"/>
		<path class="st13" d="M1255.5,1162.1l14.5,41.3h0c-0.6,0.2-1.1,0.4-1.4,0.5l-1.7,0.6c-0.3,0.1-0.8,0.3-1.4,0.5l-15-42.6
			L1255.5,1162.1z"/>
		<path class="st8" d="M1193.7,1165.5l56.9-3.1l4.9-0.3l57.9-3.2l76.2-4.2l60.3-3.3c27.7-1.5,48.5-25.9,45.5-53.5
			c-4.8-45.3-11.8-110.6-15.8-150.6c-2-19.4-20.6-32.6-39.6-27.9l-0.3,0.1l-11.7,2.8c-17.2,4.2-29.1,20-28.4,37.6l4.7,122.8l0.2,4.5
			l-4.7,0.7l-7,1l-83.9,12.4l-71.1,10.5l-4.7,0.7l-20.9,3.1l-7.7,1.1l-0.5,2.4l-9.2,41.9L1193.7,1165.5z"/>
		<path class="st10" d="M1196.7,1151.9l44.1-2.4l4.9-0.3l57.9-3.2l76.2-4.2l60.3-3.3c27.7-1.5,48.5-25.9,45.5-53.5
			c-4.8-45.3-11.8-110.6-15.8-150.6c-0.3-3.3-1.1-6.3-2.3-9.2c6.6,5.2,11.2,12.9,12.1,22c4,40,11,105.3,15.8,150.6
			c3,27.6-17.8,52-45.5,53.5l-60.3,3.3l-76.2,4.2l-57.9,3.2l-4.9,0.3l-56.9,3.1l1-4.5L1196.7,1151.9z"/>
		<path class="st13" d="M1313.4,1158.9c1.3,12.9,2.8,25.7,4.4,38.3c-1.3-2.6-8.1-3-18-1.4c-2.2,0.3-4.5,0.8-6.9,1.3
			c-6.2,1.3-13.3,3.2-20.8,5.7c-0.4,0.1-1.2,0.4-2,0.7l0,0l0,0c0,0,0,0,0,0l-14.5-41.3L1313.4,1158.9z"/>
		<path class="st13" d="M1161.5,1078.3l-0.5,1.1c-0.4-0.5-0.8-0.9-1.2-1.4C1160.4,1078.1,1160.9,1078.2,1161.5,1078.3z"/>
		<path class="st12" d="M1371.3,853.7c-1.8,1.1-2.8,2.6-3.2,4.4c-7.6-14.6-18.5-30.8-22-37.7c-4.5-8.7-34.5-11.5-33.3-17.3
			c1-4.9,1.8-9.7,2.4-14.5c10.1-0.6,24.5-1.4,32.9-1.7C1364.7,818.5,1378.1,849.5,1371.3,853.7z"/>
		<path class="st14" d="M1314,734.8c-0.3-2.4-0.6-4.8-0.9-7.2c3.9,5.7,8.5,13.2,13.6,21.6c-1.1,0.3-2.2,0.6-3.2,0.8
			C1320.1,744.4,1316.9,739.3,1314,734.8z"/>
		<path class="st14" d="M1368.7,855.7c6.9-4.2-6.6-35.2-23.3-66.8c-7.8,0.3-20.7,1-30.6,1.6c0.1-0.6,0.2-1.2,0.2-1.9
			c10.1-0.6,24.5-1.4,32.9-1.7c16.7,31.6,30.2,62.6,23.3,66.8c-1.8,1.1-2.8,2.6-3.2,4.4c-0.2-0.4-0.5-0.9-0.7-1.3
			C1367.7,856.4,1368.2,856.1,1368.7,855.7z"/>
		<path class="st9" d="M2046.8,1572l-38.6,116.4l-28.9-17c-12.1-7.1-15.4-23.2-6.9-34.5l26.6-46.7l-25.5-10.6l18-40.5L2046.8,1572z"
			/>
		<path class="st10" d="M1981.9,1554.6l-207.7-123.5l-67.2-190.8c-3.7-10.5-14.2-17-25.3-15.5c-21.5,2.9-46.9,7.2-73.8,12.2
			c-90.8,17.1-192.1,28-226,36.3l0,0c30-7.3,141.8-34.2,235.5-51.8c35.3-6.6,68-12,92.8-14.5l73.4,208.6l207.7,123.5l-18,40.5
			l-2.2-0.9L1981.9,1554.6z"/>
		<path class="st11" d="M1195.1,1717.8l36.5-49.7c3.3,2.2,6.5,4.3,9.5,6.4l-40.9,55.6l-92.3-84.5l3.3-4.5L1195.1,1717.8z"/>
		<polygon class="st11" points="2037.5,1572 1989.5,1543.4 1991.4,1539.1 2046.8,1572 2008.2,1688.4 2000.5,1683.8 		"/>
		<path class="st12" d="M1159.8,1078c0.6,0.1,1.1,0.2,1.7,0.3c20.6,3.6,47.8-3.1,55.5-5.2c1.3-0.4,2.1-0.6,2.1-0.6l-3.3-9.5
			l-57-162.2c0,0-25,2.4-30.8,14.5c-5.8,12,2,23.8,2,23.8s-20.3,3-12.9,24c5.1,14.5,15.7,25.3,15.7,25.3s-15.2,0.8-9.2,17.8
			c3.3,9.3,13.6,19.3,13.6,19.3s-8.1,10.6,1,36.4c0.9,2.6,2.2,4.8,3.9,6.7c0.2-0.2,0.5-0.5,0.8-0.7
			C1146.9,1065.3,1153.3,1070.6,1159.8,1078z M1146.1,1043c-2.5,7,0.3,15.5,6.4,19.6C1146.4,1058.5,1143.6,1050,1146.1,1043z
			 M1138.9,972.6c1.4,1,3.1,1.3,4.8,1.6c1.7,0.3,3.4,0.5,4.9,1.3s2.7,2.3,2.7,4c0.1-1.7-1.2-3.2-2.7-4s-3.2-1-4.9-1.3
			C1141.9,973.9,1140.2,973.6,1138.9,972.6c-2.2-1.6-3.1-4.5-2.8-7.2c0.2-2.7,1.4-5.2,2.5-7.7c-1.1,2.5-2.3,5-2.5,7.7
			C1135.8,968.1,1136.7,971,1138.9,972.6z M1154,953.2c1.8-1.1,2.3-3.7,1.6-5.7c-0.7-2-2.4-3.5-4.2-4.8c-1.8-1.2-3.7-2.2-5.3-3.7
			c-3-2.7-4.7-7-4.2-11.1c0.1-1.2,0.5-2.4,1.4-3.2c0.9-0.8,2.5-0.8,3.1,0.2c-0.7-1-2.2-0.9-3.1-0.2c-0.9,0.8-1.2,2-1.4,3.2
			c-0.5,4.1,1.1,8.3,4.2,11.1c1.6,1.4,3.5,2.4,5.3,3.7c1.8,1.2,3.4,2.7,4.2,4.8C1156.3,949.5,1155.8,952.1,1154,953.2z
			 M1160.3,1017.8c-5.2,0-11-0.3-14.7-4c-1.8-1.8-2.8-4.2-3.4-6.7c-1.2-4.9-0.4-10.7,3.5-13.9c-3.9,3.2-4.7,9-3.5,13.9
			c0.6,2.5,1.6,4.9,3.4,6.7C1149.3,1017.5,1155.1,1017.7,1160.3,1017.8z M1174.5,997.5c-2.6,3-6.8,4.5-10.7,3.7
			C1167.7,1001.9,1171.9,1000.5,1174.5,997.5c2.6-3,3.4-7.4,2.1-11.2c-1.3-3.7-4.7-6.7-8.6-7.4c3.9,0.7,7.3,3.6,8.6,7.4
			C1177.9,990,1177.1,994.4,1174.5,997.5z M1203.1,1057.9c-0.2-3.4-2.5-6.5-5.6-7.7C1200.6,1051.5,1202.9,1054.6,1203.1,1057.9
			c0.1,1.4-0.2,2.8-0.7,4.1c-0.8,1.8-2.1,3.4-3.8,4.3c1.7-1,3.1-2.5,3.8-4.3C1202.9,1060.7,1203.2,1059.3,1203.1,1057.9z
			 M1183.1,1039.9c-1.7,1.2-3.7,2-5.6,2.8C1179.4,1042,1181.4,1041.2,1183.1,1039.9c1.7-1.2,3.2-2.9,3.7-4.9c0.8-2.9-0.4-6-1.7-8.6
			c-0.9-1.8-1.9-3.5-3.6-4.7s-3.9-1.5-5.5-0.4c1.6-1.1,3.9-0.7,5.5,0.4s2.7,2.9,3.6,4.7c1.4,2.7,2.5,5.7,1.7,8.6
			C1186.3,1037,1184.8,1038.7,1183.1,1039.9z M1159.4,1046.9c-1.6-3.9-1.2-8.7,1.5-12C1158.2,1038.2,1157.8,1043,1159.4,1046.9
			c1.6,3.9,4.9,7,8.8,8.7c3.9,1.7,8.2,2.1,12.4,1.7c-4.2,0.4-8.6,0-12.4-1.7C1164.3,1053.9,1160.9,1050.8,1159.4,1046.9z"/>
		<path class="st13" d="M1308.9,1101.3c-0.6-10.5-1-20.9-1.2-31.1c-1-40.9,0.7-78.6,6.2-106.8c2.5-8.4,4.2-17.1,5.2-25.9
			c2.5-22.3,0.2-45.5-7.7-68.1c-28.1-79.9-115.6-121.8-195.4-93.7c-79.9,28.1-121.8,115.6-93.7,195.4c7.9,22.5,20.6,42,36.4,57.8
			c6.4,6.4,13.3,12.1,20.6,17.2c10.7,9.1,21.4,19.5,31.9,30.8c12,7.4,28.9,24.2,38.3,26.9c2.2,0.6,4,0.5,5.2-0.8
			c0.8-0.9-0.1-3.3-1.8-6.4c-4.8-8.6-15.7-22.8-10.9-27.9c-1.6-1.9-2.9-4.2-3.9-6.7c-9.1-25.8-1-36.4-1-36.4s-10.3-10-13.6-19.3
			c-6-17,9.2-17.8,9.2-17.8s-10.6-10.8-15.7-25.3c-7.4-21,12.9-24,12.9-24s-7.8-11.8-2-23.8c5.8-12,30.8-14.5,30.8-14.5l57,162.2
			l3.3,9.5c0,0-0.7,0.2-2.1,0.6c-7.6,2.1-34.8,8.8-55.5,5.2l-0.5,1.1c7.1,8.4,14,19,17.7,24.3c0.7,1,6.3,4.5,13,8.4
			c4,2.3,8.3,4.8,12.3,7l0.5-2.4l7.7-1.1l20.9-3.1l-14-39.9l14,39.9l4.7-0.7l-14.3-40.8l14.3,40.8L1308.9,1101.3z M1236.8,1064.7
			c-5,2.6-9.1,4.4-11.4,5.4c-1.3,0.6-2,0.8-2,0.8l-2.6-7.5l-57.7-164.1c0,0,21-13.8,33-8c12,5.8,13.3,19.8,13.3,19.8
			s17.7-10.3,25.1,10.7c5.1,14.5,3.6,29.6,3.6,29.6s12.3-8.9,18.3,8.1c3.3,9.3,1.5,23.5,1.5,23.5s12.9,3.2,22,29
			C1287.8,1034.5,1255.9,1054.8,1236.8,1064.7z"/>
		<path class="st15" d="M1308.9,1101.3l-3,0.4c-0.3-7.5-0.6-14.9-0.8-22.3c-1-41.8,0.8-80.1,6.3-108.9c2.5-8.6,4.3-17.4,5.4-26.4
			c2.6-22.7,0.2-46.4-7.9-69.4c-28.6-81.4-117.9-124.2-199.3-95.6c-6.5,2.3-12.7,4.9-18.6,7.9c7.8-4.4,16.2-8.3,25-11.4
			c79.9-28.1,167.4,13.9,195.4,93.7c7.9,22.6,10.3,45.8,7.7,68.1c-1,8.8-2.8,17.5-5.2,25.9c-5.5,28.2-7.2,65.9-6.2,106.8
			C1307.9,1080.4,1308.4,1090.8,1308.9,1101.3z"/>
		<g>
			<path class="st15" d="M1147.4,903c7.1-4.5,17.1-6.4,21.5-7c-3.5,1.8-5.8,3.3-5.8,3.3l57.7,164.1l2.2,6.1c-1.4,0.3-3,0.7-4.6,1
				l-2.7-7.6l-57-162.2C1158.6,900.9,1153.5,901.4,1147.4,903z"/>
			<path class="st15" d="M1231.6,1067.3L1231.6,1067.3c0,0.1-0.1,0.1-0.4,0.2C1231.3,1067.4,1231.5,1067.4,1231.6,1067.3z"/>
			<path class="st15" d="M1249.4,1059.5c-5,2.6-9.1,4.4-11.4,5.4c-1.3,0.6-2,0.8-2,0.8l-0.2-0.6c0.3-0.2,0.7-0.3,1-0.5
				c19.1-9.9,51-30.2,43.1-52.6c-9.1-25.8-22-29-22-29s1.8-14.2-1.5-23.5c-6-17-18.3-8.1-18.3-8.1s1.5-15.1-3.6-29.6
				c-7.4-21-25.1-10.7-25.1-10.7s-1.3-14.1-13.3-19.8c-4.4-2.1-10-1.6-15.4-0.1c7-3.7,19.6-9.1,28-5.1c12,5.8,13.3,19.8,13.3,19.8
				s17.7-10.3,25.1,10.7c5.1,14.5,3.6,29.6,3.6,29.6s12.3-8.9,18.3,8.1c3.3,9.3,1.5,23.5,1.5,23.5s12.9,3.2,22,29
				C1300.4,1029.3,1268.5,1049.6,1249.4,1059.5z"/>
			<path class="st15" d="M1114.8,776.1c-70.8,32.8-106.4,114.7-80,189.8c7.9,22.5,20.6,42,36.4,57.8c6.4,6.4,13.3,12.1,20.6,17.2
				c10.7,9.1,21.4,19.5,31.9,30.8c7.7,4.8,17.5,13.4,26,19.7c1.1,1.8,2.2,3.6,3.1,5.1c1.7,3.1,2.7,5.4,1.8,6.4
				c-1.2,1.3-3,1.5-5.2,0.8c-9.3-2.7-26.3-19.5-38.3-26.9c-10.5-11.3-21.2-21.7-31.9-30.8c-7.3-5.1-14.2-10.8-20.6-17.2
				c-15.9-15.8-28.5-35.3-36.4-57.8C994.3,891.6,1035.7,804.6,1114.8,776.1z"/>
			<path class="st15" d="M1161.5,1078.3c5.1,0.9,10.7,1.1,16.2,1c5.6,7.2,10.6,14.9,13.6,19.2c0.7,1,6.3,4.5,13,8.4
				c4,2.3,8.3,4.8,12.3,7l0.5-2.4l7.7-1.1l20.9-3.1l4.7-0.7l58.4-8.6c0.1,1.1,0.1,2.2,0.2,3.3l-71.1,10.5l-4.7,0.7l-20.9,3.1
				l-7.7,1.1l-0.5,2.4c-3.9-2.2-8.3-4.7-12.3-7c-6.7-3.9-12.3-7.4-13-8.4c-3.7-5.3-10.6-15.9-17.7-24.3L1161.5,1078.3z"/>
		</g>
		<path class="st13" d="M1193.7,1165.5l56.9-3.1l15,42.6h0c-0.8,0.3-1.6,0.6-2,0.7c-8,2.9-15.2,6.1-21.4,9.2
			c-2.4,1.2-4.6,2.4-6.6,3.5c-8.5,4.9-13.4,9.4-12.8,12.2c-12.8-21.1-28-44.8-44.6-68.8c5.9-0.3,11.5-0.7,16.4-0.9L1193.7,1165.5z"
			/>
		<path class="st15" d="M1178.3,1161.9c5.9-0.3,11.5-0.7,16.4-0.9l-1,4.5l119.6-6.6l-0.4,4.8l-104.2,4.7c-2.8,0.1-5.8,0.3-8.9,0.5
			c-3.3,0.2-5.1,3.9-3.2,6.6c11.3,16.5,21.8,32.8,31.4,48.1c-3.6,2.9-5.5,5.3-5.1,7.2C1210.1,1209.6,1195,1185.8,1178.3,1161.9z"/>
		<path class="st8" d="M1307.7,1070.2c0.2,10.2,0.7,20.6,1.2,31.1l83.9-12.4c0.6-35.3-0.6-70.1-3.7-105.9l-16.6,88.4l-0.7,3.8
			l-3.3-0.3L1307.7,1070.2z"/>
		<path class="st9" d="M1154.7,1102.9c0.8-0.9-0.1-3.3-1.8-6.4c-4.8-8.6-15.7-22.8-10.9-27.9c0.2-0.2,0.5-0.5,0.8-0.7
			c4.1-2.7,10.6,2.5,17,9.9c0.4,0.4,0.8,0.9,1.2,1.4c7.1,8.4,14,19,17.7,24.3c0.7,1,6.3,4.5,13,8.4c4,2.3,8.3,4.8,12.3,7l-9.2,41.9
			c-4.9,0.2-10.5,0.6-16.4,0.9c-18.5,1.1-38.8,2.4-40.8,1.7c-4.4-1.5-57-30.4-52.1-37.2c2.6-3.5,38.5,19.5,39,16
			c0.5-3.4-55.1-28.4-47.2-40.1c4.2-6.2,49.2,31.3,49.7,26.9c0.5-4.4-53.6-34.8-44.7-45.5c5-6,51.1,35.2,53.1,33.3
			c2-1.9-40.1-36.9-36.4-42c2.1-2.9,6.6-1.5,12.1,1.9c12,7.4,28.9,24.2,38.3,26.9C1151.7,1104.4,1153.5,1104.2,1154.7,1102.9z"/>
		<path class="st11" d="M1131.2,1108.3c-0.5,0.5-3.9-1.8-8.6-5.4c-11.3-11-25.7-24.9-23.5-27.9c0.1-0.1,0.1-0.1,0.2-0.2
			C1109.5,1086.9,1132.7,1106.8,1131.2,1108.3z"/>
		<path class="st11" d="M1081.4,1086c11.4,13.3,41.8,31.2,41.4,34.5c-0.3,2.5-14.8-8.4-28.1-17.2
			C1087,1096.8,1081,1090.4,1081.4,1086z"/>
		<path class="st14" d="M1148.6,1087.9c1.2,2.1,2,3.9,2.1,5.1c-3.2-5.2-7.3-11.4-9-16.5C1144.1,1080.5,1146.8,1084.6,1148.6,1087.9z
			"/>
		<path class="st11" d="M1120.7,1135.6c-0.4,2.5-19-8.7-30.5-13.9c-8.1-5.8-14.1-11.6-13.1-16
			C1089.1,1117.9,1121.1,1133,1120.7,1135.6z"/>
		<path class="st11" d="M1086.4,1125.9c12.8,11.1,43.5,27.8,46.9,28.9c2,0.7,22.3-0.6,40.8-1.7c5.9-0.3,11.5-0.7,16.4-0.9l8-36.3
			c1.9,1.1,3.7,2.1,5.5,3.1l-9.2,41.9c-4.9,0.2-10.5,0.6-16.4,0.9c-18.5,1.1-38.8,2.4-40.8,1.7c-4.4-1.5-57-30.4-52.1-37.2
			C1085.6,1126.1,1085.9,1125.9,1086.4,1125.9z"/>
		<path class="st12" d="M1279.9,1012.1c-9.1-25.8-22-29-22-29s1.8-14.2-1.5-23.5c-6-17-18.3-8.1-18.3-8.1s1.5-15.1-3.6-29.6
			c-7.4-21-25.1-10.7-25.1-10.7s-1.3-14.1-13.3-19.8c-12-5.8-33,8-33,8l57.7,164.1l2.6,7.5c0,0,0.7-0.3,2-0.8
			c2.3-1,6.4-2.9,11.4-5.4C1255.9,1054.8,1287.8,1034.5,1279.9,1012.1z M1191.3,925.2c-0.7,1.6-1.3,3.3-1.1,5.1
			c0.2,1.7,1.2,3.5,2.9,4c-1.7-0.5-2.7-2.3-2.9-4C1190.1,928.5,1190.6,926.8,1191.3,925.2c1.9-4.4,4.9-9,3.8-13.7
			c-0.8-3.3-3.8-6.1-7.2-6.5c-3.4-0.4-7,1.4-8.6,4.5c1.6-3,5.2-4.9,8.6-4.5c3.4,0.4,6.4,3.2,7.2,6.5
			C1196.2,916.2,1193.2,920.7,1191.3,925.2z M1198.7,955.3c-7.3-1.5-13.8-6.7-16.7-13.6c-2.9-6.9-2.2-15.2,1.9-21.4
			c-4.1,6.3-4.8,14.6-1.9,21.4C1184.9,948.6,1191.4,953.9,1198.7,955.3z M1200.8,991.7c1.5-2.3,0.9-5.4-0.2-7.9
			c-1.1-2.5-2.9-4.7-3.8-7.3c-1-2.6-1-5.8,0.9-7.8c-1.9,2-1.9,5.2-0.9,7.8c1,2.6,2.7,4.8,3.8,7.3
			C1201.7,986.3,1202.2,989.4,1200.8,991.7z M1212.3,995.6c1.3-4.7,5.8-8.9,10.7-8.5C1218.1,986.7,1213.6,990.8,1212.3,995.6
			c-1.3,4.7-0.2,9.9,1.8,14.4c1.9,4.5,4.6,8.7,6.5,13.3c0.6,1.4,1.1,3,0.8,4.5c-0.3,1.5-1.6,3-3.1,2.9c1.5,0.1,2.8-1.3,3.1-2.9
			c0.3-1.5-0.2-3.1-0.8-4.5c-1.8-4.6-4.5-8.8-6.5-13.3C1212.1,1005.4,1211,1000.3,1212.3,995.6z M1208.7,950.7
			c0.7-2.3,1.4-4.7,2.1-7C1210.1,946,1209.4,948.3,1208.7,950.7c-1.2,4.1-2.5,8.3-1.6,12.5c0.7,3.5,2.9,6.7,6,8.5
			c3,1.9,6.9,2.4,10.3,1.4c-3.4,1-7.3,0.5-10.3-1.4c-3-1.9-5.3-5-6-8.5C1206.2,959,1207.5,954.7,1208.7,950.7z M1222.3,956.9
			c3.6-5.1,6.5-11.3,5.6-17.5c-0.8-5.3-4.4-10-9.3-12.1c-4.9-2.1-10.9-1.4-15.2,1.8c4.3-3.1,10.3-3.8,15.2-1.8
			c4.9,2.1,8.6,6.8,9.3,12.1C1228.8,945.6,1225.9,951.7,1222.3,956.9z M1232.8,1024.9c1.5,2.4,4,4,6.2,5.8c2.2,1.8,4.1,4.4,3.8,7.3
			c-0.3,2.7-2.6,4.7-4.8,6.2c-2.6,1.8-5.7,3.3-8.8,2.9c3.1,0.4,6.2-1.1,8.8-2.9c2.2-1.5,4.5-3.5,4.8-6.2c0.3-2.8-1.6-5.4-3.8-7.3
			C1236.9,1028.8,1234.3,1027.3,1232.8,1024.9c-1.5-2.4-1.8-5.5-1.3-8.3c0.5-2.8,1.6-5.5,2.7-8.1c-1.1,2.6-2.2,5.3-2.7,8.1
			C1231.1,1019.4,1231.3,1022.4,1232.8,1024.9z M1249.4,984.6c-2.8,4.2-7.3,7.1-12.2,8.7C1242,991.7,1246.5,988.8,1249.4,984.6
			c2.8-4.2,3.8-9.8,1.8-14.5c-1.9-4.7-7-8.1-12.1-7.5c5-0.6,10.1,2.8,12.1,7.5C1253.1,974.8,1252.2,980.4,1249.4,984.6z
			 M1269.4,1019.2c-0.9,1.7-2.6,2.9-4.3,3.9c-3.4,1.9-7.2,3.1-11.1,3.5c3.9-0.4,7.6-1.6,11.1-3.5
			C1266.8,1022.1,1268.5,1020.9,1269.4,1019.2c1.3-2.6,0.5-5.9-0.9-8.4c-1.8-3.3-4.6-6-8-7.7c-2.1-1.1-4.6-1.7-6.8-0.9
			c2.2-0.9,4.7-0.2,6.8,0.9c3.3,1.7,6.1,4.4,8,7.7C1269.9,1013.3,1270.7,1016.5,1269.4,1019.2z"/>
		<g>
			<path class="st14" d="M1135.2,910.2c-5.8,12,2,23.8,2,23.8s-4.3,0.7-8.3,3.4c-1.9-3.7-5.5-12.8-1-22.1c1.8-3.8,5.5-6.6,9.8-8.7
				C1136.7,907.7,1135.8,908.9,1135.2,910.2z"/>
			<path class="st14" d="M1125.8,940.3c-2.9,3.6-4.4,9.2-1.5,17.7c5.1,14.5,15.7,25.3,15.7,25.3s-5.3,0.3-8.4,4
				c-2.8-3.2-10.5-12.4-14.6-24.2C1111.8,948.4,1120.3,942.5,1125.8,940.3z"/>
			<path class="st14" d="M1130.6,988.8c-1.4,2.6-1.8,6.5,0.2,12.2c3.3,9.3,13.6,19.3,13.6,19.3s-8.1,10.6,1,36.4
				c0.9,2.6,2.2,4.8,3.9,6.7c0.2-0.2,0.5-0.5,0.8-0.7c4.1-2.7,10.6,2.5,17,9.9c0.6,0.1,1.1,0.2,1.7,0.3c16.7,2.9,37.7-0.9,49.2-3.6
				l1.1,3c0,0-0.7,0.2-2.1,0.6c-7.6,2.1-34.8,8.8-55.5,5.2c-0.6-0.1-1.1-0.2-1.7-0.3c-6.5-7.4-12.9-12.6-17-9.9
				c-0.3,0.2-0.6,0.4-0.8,0.7c-1.6-1.9-2.9-4.2-3.9-6.7c-9.1-25.8-1-36.4-1-36.4s-10.3-10-13.6-19.3
				C1119,993.3,1126.7,989.8,1130.6,988.8z"/>
		</g>
		<path class="st14" d="M1166.5,897.1l60.3,155.5l2,5.6c0.4,1.1,1.6,1.6,2.6,1.1c0,0,0,0,0,0c2.3-1,6.4-2.9,11.4-5.4
			c11.6-6,28-15.9,37.2-27.8c-5.3,16.6-28.2,30.9-43.2,38.6c-5,2.6-9.1,4.4-11.4,5.4c-1.3,0.6-2,0.8-2,0.8l-2.6-7.5l-57.7-164.1
			C1163.1,899.3,1161.6,899.4,1166.5,897.1z"/>
		<circle class="st12" cx="1328" cy="773.9" r="6.9"/>
		<path class="st8" d="M1222.9,1230.7c0,0.1,0,0.2,0.1,0.2c0.6,1.8,3.5,2.6,8.1,2.6c2.4,0,5.2-0.2,8.3-0.7c9.2-1.3,21.4-4.4,34.5-9
			c13.1-4.6,24.5-9.8,32.5-14.6c2.7-1.6,5.1-3.2,6.9-4.7c3.5-2.8,5.3-5.3,4.6-7.1c0-0.1-0.1-0.2-0.1-0.2c-1.3-2.6-8.1-3-18-1.4
			c-2.2,0.3-4.5,0.8-6.9,1.3c-6.2,1.3-13.3,3.2-20.8,5.7c-0.4,0.1-1.2,0.4-2,0.7c-0.6,0.2-1.1,0.4-1.4,0.5l-1.7,0.6
			c-0.3,0.1-0.8,0.3-1.4,0.5c-0.8,0.3-1.6,0.6-2,0.7c-8,2.9-15.2,6.1-21.4,9.2c-2.4,1.2-4.6,2.4-6.6,3.5
			C1227.2,1223.3,1222.3,1227.8,1222.9,1230.7z"/>
		<g>
			<path class="st10" d="M1242.4,1255.2c0.2,0,0.4,0,0.5,0c0.9-0.1,1.9-0.2,2.9-0.3c-2.4,2.2-3.5,4.2-3,5.6c0.8,2.3,5.6,3.1,13,2.4
				c9.5-0.9,23.1-4.2,37.9-9.4c7-2.5,13.6-5.1,19.4-7.8c-7.5,4-16.9,8.1-27.5,11.8c-14.8,5.2-28.4,8.5-37.9,9.4
				c-7.3,0.7-12.1,0-13-2.4C1234,1262.2,1236.9,1258.9,1242.4,1255.2z"/>
			<path class="st10" d="M1309,1233.9c3.2-1.7,6.1-3.4,8.5-5c0.1-0.1,0.3-0.2,0.4-0.3c0.6,0,1.2-0.1,1.8-0.1
				C1316.6,1230.2,1313,1232.1,1309,1233.9z"/>
		</g>
		<g>
			<path class="st11" d="M1313.1,1245.6c3-1.6,5.7-3.1,7.9-4.6c0,0.2,0.1,0.4,0.1,0.7C1318.7,1243,1316,1244.3,1313.1,1245.6z"/>
			<path class="st11" d="M1257.2,1265.3c11.7,20.5,31.7,31.8,48.9,26.4c-2.2,1.5-4.5,2.8-7.1,3.7c-18.2,6.4-39.6-6.1-51.3-28.6
				C1250.5,1266.5,1253.7,1266,1257.2,1265.3z"/>
		</g>
		<g>
			<path class="st10" d="M1304.7,1221.8c2.7-1.5,5.2-2.9,7.4-4.3c0.3-0.2,0.6-0.4,0.9-0.6c0.6-0.1,1.1-0.1,1.7-0.1
				C1311.7,1218.4,1308.4,1220.1,1304.7,1221.8z"/>
			<path class="st10" d="M1238.9,1243c0.4,0,0.7-0.1,1.1-0.1c0.7-0.1,1.4-0.2,2.2-0.3c-2.8,2.4-4.1,4.6-3.5,6.1
				c0.8,2.2,5.1,3,11.7,2.5c0.2,0,0.4,0,0.5,0c9.5-0.8,23.5-4.1,38.6-9.4c7.1-2.5,13.6-5.2,19.5-7.8c-7.5,4-17,8.1-27.5,11.8
				c-15.2,5.3-29.2,8.6-38.6,9.4c-0.2,0-0.4,0-0.5,0c-6.6,0.5-10.9-0.3-11.7-2.5C1229.8,1250.4,1233,1246.9,1238.9,1243z"/>
		</g>
		<g>
			<path class="st10" d="M1314.4,1205.3c-3.7,2.2-8.1,4.5-13,6.8c1.8-0.9,3.4-1.9,5-2.8c2.7-1.6,5.1-3.2,6.9-4.7
				c0.8,0,1.5,0,2.2,0.1C1315.1,1204.9,1314.8,1205.1,1314.4,1205.3z"/>
			<path class="st10" d="M1231,1233.5c1.3,0,2.7-0.1,4.3-0.2c-0.9,1.3-1.2,2.4-0.9,3.3c0.8,2.3,5.4,3,12.5,2.4
				c0.4,0,0.7-0.1,1.1-0.1c9.4-1,22.8-4.2,37.2-9.3c7-2.5,13.6-5.1,19.4-7.8c-7.5,4-16.9,8.1-27.5,11.8c-14.4,5.1-27.8,8.3-37.2,9.3
				c-0.4,0-0.7,0.1-1.1,0.1c-7.1,0.6-11.7-0.1-12.5-2.4C1225.8,1238.8,1227.5,1236.3,1231,1233.5z"/>
		</g>
		<path class="st10" d="M1235.7,1218.4c2-1.2,4.2-2.3,6.6-3.5c1.7-0.9,3.5-1.7,5.3-2.6c-1.3,0.7-2.6,1.4-3.8,2.1
			c-8.5,4.9-13.4,9.4-12.8,12.2c0,0.1,0,0.2,0.1,0.2c0.6,1.8,3.5,2.6,8.1,2.6c2.4,0,5.2-0.2,8.3-0.7c9.2-1.3,21.4-4.4,34.5-9
			c7.1-2.5,13.6-5.2,19.5-7.8c-7.5,4-17,8.1-27.5,11.8c-13.1,4.6-25.3,7.7-34.5,9c-3.2,0.4-6,0.7-8.3,0.7c-4.5,0-7.4-0.9-8.1-2.6
			c0-0.1,0-0.2-0.1-0.2C1222.3,1227.8,1227.2,1223.3,1235.7,1218.4z"/>
		<polygon class="st16" points="1527.1,1266 1540.2,1307.7 1552.8,1293.7 		"/>
		<polygon class="st16" points="1751.8,1207.7 1715.8,1222.6 1710.3,1207 1715.5,1206.6 1720.3,1206.3 1725.2,1205.6 1729.3,1205.6 
			1734.5,1205.3 1739.7,1205.3 1747,1206.3 		"/>
		<path class="st16" d="M1374,1275.8c0.3,0,6.4,0.7,6.4,0.7l0.9-3.1L1374,1275.8z"/>
		<path class="st16" d="M1399.8,1087.9l10.8,4.6c-0.2-0.3-3.7-6-6.3-9.8l0.2,4.5L1399.8,1087.9z"/>
		<path class="st16" d="M1368.6,1074.9l5.7,4.4c0,0-0.8-3.9-1.7-8l-0.7,3.8L1368.6,1074.9z"/>
		<path class="st16" d="M1457.6,1150.4c-1.1,0.2-69.2,16.8-69.2,16.8l1.1-12.4L1457.6,1150.4z"/>
		<path class="st17" d="M1224.8,789.4c5.5,3.8,11.1,7.6,16.6,11.4c4.3,3,0.2,10.1-4.2,7.1c-5.5-3.8-11.1-7.6-16.6-11.4
			C1216.3,793.6,1220.4,786.4,1224.8,789.4z"/>
		<path class="st17" d="M1254.8,811.9c5.3,0,5.3,8.2,0,8.2C1249.5,820.1,1249.5,811.9,1254.8,811.9z"/>
		<g>
			<path class="st16" d="M1378.5,1248.8c70.6-12.5,142.8-15.1,214.2-22.6c38.9-4.1,77.6-9.6,115.6-19c0,0,0,0,0,0
				c12.7-3.1,25.3-6.7,37.9-10.8c-2-4.1-4.6-9.2-7.7-15.2c-115.7,35.8-238.9,29-357.4,49.5
				C1380.2,1236.7,1379.4,1242.7,1378.5,1248.8z"/>
			<path class="st16" d="M1384.1,1207.4c114.1-19.3,232.4-13.9,344-46c-2.6-4.8-5.3-10-8.2-15.4c-108.6,29.3-223.1,24.9-333.7,43.3
				L1384.1,1207.4z"/>
			<path class="st16" d="M1388.6,1166.2c106.2-17.4,215.9-14.1,320.4-40.1c-2.8-5-5.8-10.2-8.8-15.5
				c-71.6,16.7-145.4,20.3-218.8,26.9c-8.1,8.1-19.1,13.3-31.5,14l-16.6,0.9h0L1388.6,1166.2z"/>
			<path class="st16" d="M1494.5,1113.5c65-5.5,130.2-9.6,193.8-23.1c-3.1-5.2-6.2-10.4-9.5-15.7c-60.4,12-122.1,15.9-183.7,21.1
				L1494.5,1113.5z"/>
			<path class="st16" d="M1655.9,1038.4c-54.4,9-109.8,12.5-165,17.3c0.6,5.9,1.2,11.8,1.9,17.5c58.1-5,116.3-8.7,173.4-18.9
				C1662.8,1049,1659.4,1043.7,1655.9,1038.4z"/>
			<path class="st16" d="M1392.9,1084.6c3.8-0.6,7.6-1.2,11.4-1.7l-0.7-17.6c-3.6,0.5-7.1,1.1-10.7,1.6
				C1393,1072.8,1393,1078.7,1392.9,1084.6z"/>
			<path class="st16" d="M1630.7,1001.8c-47.7,6.5-96,9.7-144.1,13.9c0.6,5.8,1.2,11.6,1.8,17.5c51.3-4.5,102.8-7.8,153.5-15.3
				C1638.3,1012.4,1634.5,1007.1,1630.7,1001.8z"/>
			<path class="st16" d="M1392,1026.6c0.3,5.9,0.5,11.7,0.6,17.6c3.4-0.5,6.8-1.1,10.2-1.6l-0.7-17.6
				C1398.8,1025.6,1395.4,1026.1,1392,1026.6z"/>
			<path class="st16" d="M1602.5,964.8c-39.8,4.5-80,7.2-120,10.7c0.6,5.6,1.2,11.5,1.8,17.5c43.7-3.9,87.6-6.8,131-12.1
				C1611,975.5,1606.8,970.1,1602.5,964.8z"/>
			<path class="st16" d="M1389.5,986.6l1.3,17.4c3.5-0.6,7-1.1,10.5-1.6l-0.7-17.5C1396.9,985.4,1393.2,986,1389.5,986.6z"/>
			<path class="st16" d="M1569.2,927.8c-31,2.9-62.1,5.1-93.1,7.9c1.8,3.5,3,7.4,3.4,11.6c0.2,1.8,0.4,3.7,0.6,5.7
				c34.8-3.1,69.7-5.6,104.4-9C1579.4,938.3,1574.3,932.9,1569.2,927.8z"/>
			<path class="st16" d="M1385.5,946.8c0.7,5.8,1.3,11.6,1.9,17.3c4.1-0.7,8.2-1.3,12.3-1.9v0l-0.1-2.3c-0.2-5.5,0.8-10.9,2.8-15.8
				C1396.8,945,1391.2,945.9,1385.5,946.8z"/>
			<path class="st16" d="M1380.3,907.2c0.9,5.8,1.7,11.5,2.4,17.2c54-9.2,108.9-12.9,163.7-17.5c-7.3-6-14.7-11.3-22-15.8
				C1476.1,895.1,1427.8,899,1380.3,907.2z"/>
			<path class="st16" d="M1375.7,885.3c36.1-6.5,72.7-10.4,109.3-13.6c-16.8-7.1-30.4-11.3-40.4-13.7c-25.3,2.7-50.4,6.2-75.3,10.9
				L1375.7,885.3z"/>
			<path class="st16" d="M1367.7,828.6c2.6,6.6,4.4,12.4,5.1,16.7c14.4-2.7,28.8-4.9,43.3-6.8l-4.2-8.5c0,0,17.7-4.3,35.5-12.8
				C1420.6,820,1394,823.6,1367.7,828.6z"/>
			<path class="st16" d="M1350.5,791.7c2.8,5.4,5.5,10.8,8,16c40-8.2,80.5-12.8,121.3-16.5c2.8-5.3,4-11,2.6-17.3
				c0-0.2-0.1-0.4-0.1-0.5C1437.9,777.3,1393.8,782.2,1350.5,791.7z"/>
			<path class="st16" d="M1330.7,756c2.9,5,5.9,10.2,8.9,15.5c44.2-10.5,89.3-16,134.6-20.2l-12-16.5
				C1417.8,739.1,1373.8,745,1330.7,756z"/>
			<path class="st16" d="M1310.6,724c0.8,1.1,1.6,2.3,2.5,3.6c2.2,3.3,4.6,7.1,7.3,11.3c38.5-10.5,77.7-16.8,117.2-21.2
				c-14.7-6.8-31.4-10.1-47.9-11.2C1363.1,710.8,1336.7,716.4,1310.6,724z"/>
		</g>
	</g>
	<g>
		<path class="st18" d="M1149.5,1103.7c-9.3-2.7-26.3-19.5-38.3-26.9"/>
		<path class="st18" d="M1178.3,1161.9c-18.5,1.1-38.8,2.4-40.8,1.7c-4.4-1.5-57-30.4-52.1-37.2c2.6-3.5,38.5,19.5,39,16
			c0.5-3.4-55.1-28.4-47.2-40.1c4.2-6.2,49.2,31.3,49.7,26.9c0.5-4.4-53.6-34.8-44.7-45.5c5-6,51.1,35.2,53.1,33.3
			c2-1.9-40.1-36.9-36.4-42c2.1-2.9,6.6-1.5,12.1,1.9"/>
		<path class="st18" d="M1204,1119c-3.9-2.2-8.3-4.7-12.3-7"/>
		<path class="st18" d="M1142,1068.7c-4.8,5,6.1,19.3,10.9,27.9"/>
		<path class="st18" d="M1142,1068.7c0.2-0.2,0.5-0.5,0.8-0.7c4.1-2.7,10.6,2.5,17,9.9"/>
		<path class="st18" d="M1178.3,1161.9c5.9-0.3,11.5-0.7,16.4-0.9"/>
		<path class="st18" d="M1159.8,1078c0.4,0.4,0.8,0.9,1.2,1.4"/>
		<path class="st18" d="M1149.5,1103.7c2.2,0.6,4,0.5,5.2-0.8c0.8-0.9-0.1-3.3-1.8-6.4"/>
		<path class="st18" d="M1161,1079.3c7.1,8.4,14,19,17.7,24.3c0.7,1,6.3,4.5,13,8.4"/>
		<path class="st18" d="M1161.5,1078.3c-0.6-0.1-1.1-0.2-1.7-0.3"/>
		<path class="st18" d="M1111.2,1076.9c-10.5-11.3-21.2-21.7-31.9-30.8c-7.3-5.1-14.2-10.8-20.6-17.2
			c-15.9-15.8-28.5-35.3-36.4-57.8c-28.1-79.9,13.9-167.4,93.7-195.4c79.9-28.1,167.4,13.9,195.4,93.7c7.9,22.6,10.3,45.8,7.7,68.1
			c-1,8.8-2.8,17.5-5.2,25.9c-5.5,28.2-7.2,65.9-6.2,106.8"/>
		<path class="st18" d="M1236.8,1064.7c19.1-9.9,51-30.2,43.1-52.6c-9.1-25.8-22-29-22-29s1.8-14.2-1.5-23.5
			c-6-17-18.3-8.1-18.3-8.1s1.5-15.1-3.6-29.6c-7.4-21-25.1-10.7-25.1-10.7s-1.3-14.1-13.3-19.8c-12-5.8-33,8-33,8l57.7,164.1"/>
		<path class="st18" d="M1317.8,1197.2c-1.6-12.6-3.1-25.4-4.4-38.3"/>
		<line class="st18" x1="1270.1" y1="1203.4" x2="1270.1" y2="1203.4"/>
		<path class="st18" d="M1142,1068.7c-1.6-1.9-2.9-4.2-3.9-6.7c-9.1-25.8-1-36.4-1-36.4s-10.3-10-13.6-19.3c-6-17,9.2-17.8,9.2-17.8
			s-10.6-10.8-15.7-25.3c-7.4-21,12.9-24,12.9-24s-7.8-11.8-2-23.8c5.8-12,30.8-14.5,30.8-14.5l57,162.2"/>
		<path class="st18" d="M1222.9,1230.7c0,0.1,0,0.2,0.1,0.2c0.6,1.8,3.5,2.6,8.1,2.6c2.4,0,5.2-0.2,8.3-0.7c9.2-1.3,21.4-4.4,34.5-9
			c13.1-4.6,24.5-9.8,32.5-14.6c2.7-1.6,5.1-3.2,6.9-4.7c3.5-2.8,5.3-5.3,4.6-7.1c0-0.1-0.1-0.2-0.1-0.2c-1.3-2.6-8.1-3-18-1.4
			c-2.2,0.3-4.5,0.8-6.9,1.3c-6.2,1.3-13.3,3.2-20.8,5.7c-0.4,0.1-1.2,0.4-2,0.7c-0.6,0.2-1.1,0.4-1.4,0.5l-1.7,0.6
			c-0.3,0.1-0.8,0.3-1.4,0.5c-0.8,0.3-1.6,0.6-2,0.7c-8,2.9-15.2,6.1-21.4,9.2c-2.4,1.2-4.6,2.4-6.6,3.5
			C1227.2,1223.3,1222.3,1227.8,1222.9,1230.7z"/>
		<path class="st18" d="M1178.3,1161.9c16.6,24,31.8,47.7,44.6,68.8"/>
		<path class="st18" d="M1161.5,1078.3c20.6,3.6,47.8-3.1,55.5-5.2c1.3-0.4,2.1-0.6,2.1-0.6l-3.3-9.5"/>
		<path class="st18" d="M1307.7,1070.2c0.2,10.2,0.7,20.6,1.2,31.1"/>
		<path class="st18" d="M1236.8,1064.7c-5,2.6-9.1,4.4-11.4,5.4c-1.3,0.6-2,0.8-2,0.8l-2.6-7.5"/>
		<path class="st18" d="M1313,1216.9c-0.3,0.2-0.6,0.4-0.9,0.6"/>
		<path class="st18" d="M1313.2,1204.6c4.5,0,7.4,0.8,8.1,2.6c0.8,2.3-2.4,5.8-8.3,9.7"/>
		<path class="st18" d="M1312.1,1217.5c-8,5.1-20.4,11-34.8,16.1c-14.4,5.1-27.8,8.3-37.2,9.3"/>
		<path class="st18" d="M1238.9,1243c-7.1,0.6-11.7-0.1-12.5-2.4c-0.6-1.8,1.1-4.2,4.6-7.1"/>
		<path class="st18" d="M1240,1242.9c-0.4,0-0.7,0.1-1.1,0.1"/>
		<path class="st18" d="M1242.9,1255.1c-0.2,0-0.4,0-0.5,0"/>
		<path class="st18" d="M1242.9,1255.1c9.5-0.8,23.5-4.1,38.6-9.4s28.1-11.5,36-16.8"/>
		<path class="st18" d="M1318,1228.6c-0.1,0.1-0.3,0.2-0.4,0.3"/>
		<path class="st18" d="M1238.9,1243c-5.9,4-9.1,7.4-8.3,9.7c0.8,2.2,5.1,3,11.7,2.5"/>
		<path class="st18" d="M1313,1216.9c7.1-0.6,11.7,0.1,12.5,2.4c0.8,2.2-2.1,5.5-7.6,9.2"/>
		<path class="st18" d="M1247.7,1266.8c9.5-0.9,23.1-4.2,37.9-9.4s27.5-11.2,35.4-16.4"/>
		<path class="st18" d="M1247.7,1266.8c-7.3,0.7-12.1,0-13-2.4c-0.8-2.2,2.1-5.5,7.6-9.2"/>
		<path class="st18" d="M1318,1228.6c6.6-0.5,10.9,0.3,11.7,2.5c0.8,2.3-2.5,5.9-8.6,10"/>
		<path class="st18" d="M1321,1241c4.9,24.8-3.9,48-22.1,54.4c-18.2,6.4-39.6-6.1-51.3-28.6"/>
		<line class="st18" x1="1270.1" y1="1203.5" x2="1273.6" y2="1213.6"/>
		<line class="st18" x1="1270.1" y1="1203.4" x2="1270.1" y2="1203.5"/>
		<line class="st18" x1="1270.1" y1="1203.4" x2="1270.1" y2="1203.4"/>
		<line class="st18" x1="1223.5" y1="1071" x2="1237.8" y2="1111.7"/>
		<line class="st18" x1="1270.1" y1="1203.4" x2="1270.1" y2="1203.4"/>
		<line class="st18" x1="1270.1" y1="1203.4" x2="1255.5" y2="1162.1"/>
		<line class="st18" x1="1265.6" y1="1205" x2="1265.6" y2="1205"/>
		<line class="st18" x1="1233.1" y1="1112.4" x2="1219" y2="1072.5"/>
		<line class="st18" x1="1265.6" y1="1205" x2="1265.6" y2="1205"/>
		<line class="st18" x1="1265.6" y1="1205" x2="1250.6" y2="1162.4"/>
		<line class="st18" x1="1269.1" y1="1214.9" x2="1265.6" y2="1205"/>
		<path class="st18" d="M1154,953.2c1.8-1.1,2.3-3.7,1.6-5.7c-0.7-2-2.4-3.5-4.2-4.8c-1.8-1.2-3.7-2.2-5.3-3.7
			c-3-2.7-4.7-7-4.2-11.1c0.1-1.2,0.5-2.4,1.4-3.2c0.9-0.8,2.5-0.8,3.1,0.2"/>
		<path class="st18" d="M1151.2,979.5c0.1-1.7-1.2-3.2-2.7-4s-3.2-1-4.9-1.3c-1.7-0.3-3.4-0.6-4.8-1.6c-2.2-1.6-3.1-4.5-2.8-7.2
			c0.2-2.7,1.4-5.2,2.5-7.7"/>
		<path class="st18" d="M1168,978.9c3.9,0.7,7.3,3.6,8.6,7.4c1.3,3.7,0.5,8.2-2.1,11.2c-2.6,3-6.8,4.5-10.7,3.7"/>
		<path class="st18" d="M1160.3,1017.8c-5.2,0-11-0.3-14.7-4c-1.8-1.8-2.8-4.2-3.4-6.7c-1.2-4.9-0.4-10.7,3.5-13.9"/>
		<path class="st18" d="M1176,1021.3c1.6-1.1,3.9-0.7,5.5,0.4s2.7,2.9,3.6,4.7c1.4,2.7,2.5,5.7,1.7,8.6c-0.6,2-2,3.7-3.7,4.9
			c-1.7,1.2-3.7,2-5.6,2.8"/>
		<path class="st18" d="M1180.6,1057.3c-4.2,0.4-8.6,0-12.4-1.7c-3.9-1.7-7.2-4.8-8.8-8.7c-1.6-3.9-1.2-8.7,1.5-12"/>
		<path class="st18" d="M1146.1,1043c-2.5,7,0.3,15.5,6.4,19.6"/>
		<path class="st18" d="M1197.4,1050.2c3.1,1.2,5.4,4.4,5.6,7.7c0.1,1.4-0.2,2.8-0.7,4.1"/>
		<path class="st18" d="M1198.6,1066.3c1.7-1,3.1-2.5,3.8-4.3"/>
		<path class="st18" d="M1193.1,934.3c-1.7-0.5-2.7-2.3-2.9-4c-0.2-1.7,0.4-3.5,1.1-5.1c1.9-4.4,4.9-9,3.8-13.7
			c-0.8-3.3-3.8-6.1-7.2-6.5c-3.4-0.4-7,1.4-8.6,4.5"/>
		<path class="st18" d="M1198.7,955.3c-7.3-1.5-13.8-6.7-16.7-13.6c-2.9-6.9-2.2-15.2,1.9-21.4"/>
		<path class="st18" d="M1203.4,929c4.3-3.1,10.3-3.8,15.2-1.8c4.9,2.1,8.6,6.8,9.3,12.1c0.9,6.2-2,12.4-5.6,17.5"/>
		<path class="st18" d="M1210.8,943.6c-0.7,2.3-1.4,4.7-2.1,7c-1.2,4.1-2.5,8.3-1.6,12.5c0.7,3.5,2.9,6.7,6,8.5
			c3,1.9,6.9,2.4,10.3,1.4"/>
		<path class="st18" d="M1239.1,962.6c5-0.6,10.1,2.8,12.1,7.5c1.9,4.7,1,10.3-1.8,14.5c-2.8,4.2-7.3,7.1-12.2,8.7"/>
		<path class="st18" d="M1254.1,1026.5c3.9-0.4,7.6-1.6,11.1-3.5c1.7-0.9,3.4-2.1,4.3-3.9c1.3-2.6,0.5-5.9-0.9-8.4
			c-1.8-3.3-4.6-6-8-7.7c-2.1-1.1-4.6-1.7-6.8-0.9"/>
		<path class="st18" d="M1223,987.1c-4.9-0.4-9.4,3.7-10.7,8.5c-1.3,4.7-0.2,9.9,1.8,14.4c1.9,4.5,4.6,8.7,6.5,13.3
			c0.6,1.4,1.1,3,0.8,4.5c-0.3,1.5-1.6,3-3.1,2.9"/>
		<path class="st18" d="M1234.2,1008.5c-1.1,2.6-2.2,5.3-2.7,8.1c-0.5,2.8-0.2,5.8,1.3,8.3c1.5,2.4,4,4,6.2,5.8
			c2.2,1.8,4.1,4.4,3.8,7.3c-0.3,2.7-2.6,4.7-4.8,6.2c-2.6,1.8-5.7,3.3-8.8,2.9"/>
		<path class="st18" d="M1197.7,968.8c-1.9,2-1.9,5.2-0.9,7.8c1,2.6,2.7,4.8,3.8,7.3c1.1,2.5,1.7,5.6,0.2,7.9"/>
		<path class="st18" d="M1198.3,1646.1l-13,24.4l-25.2-44.4c-7.9-13.9-27.6-15-36.9-1.9l-15.3,21.4l92.3,84.5l40.9-55.6"/>
		<polyline class="st18" points="1198.3,1646.1 1312.6,1430.8 1382,1273.2 		"/>
		<polyline class="st18" points="1241.1,1674.5 1375.7,1491.3 1552.8,1293.7 		"/>
		<polyline class="st18" points="1710.3,1207 1783.7,1415.6 1991.4,1539.1 		"/>
		<polyline class="st18" points="1552.8,1293.7 1713.5,1471.2 1973.4,1579.6 		"/>
		<line class="st18" x1="1552.8" y1="1293.7" x2="1527.7" y2="1266"/>
		<path class="st18" d="M1991.4,1539.1l55.4,32.9l-38.6,116.4l-28.9-17c-12.1-7.1-15.4-23.2-6.9-34.5l26.6-46.7l-25.5-10.6"/>
		<path class="st18" d="M1313.1,727.6c3.9,5.7,8.5,13.2,13.6,21.6"/>
		<path class="st18" d="M1367.8,862.1c0.8,9.1,9,22.4,10.6,32.4c4.8,30.8,8.4,60,10.8,88.6"/>
		<path class="st18" d="M1710.3,1207c-24.8,2.5-57.5,7.8-92.8,14.5"/>
		<path class="st18" d="M1348,786.9c-6.9-13.1-14.4-26.3-21.3-37.7"/>
		<path class="st18" d="M1389.5,1154.8c-3,37.9-8.1,77.4-15.3,120.3c0,0,2.7-0.7,7.7-1.9"/>
		<path class="st18" d="M1617.5,1221.4c-93.6,17.6-205.5,44.5-235.5,51.8"/>
		<path class="st18" d="M1710.3,1207c19.5-2,34.1-2.1,41.2,0.2c0,0-125.4-263.2-235.9-321.1c-59.1-31-91.7-31.7-91.7-31.7
			l-12.1-24.4c0,0,78.7-19.2,70.5-56.1c-22.9-102.9-178.5-58.2-178.5-58.2c1.5,1,4.8,5.4,9.2,11.9"/>
		<path class="st18" d="M1389.2,983c3.1,35.8,4.3,70.6,3.7,105.9"/>
		<path class="st18" d="M1313.1,727.6c1.1,8.3,2,16.3,2.5,24.1"/>
		<path class="st18" d="M1367.8,862.1c-0.1-1.4-0.1-2.7,0.2-3.9"/>
		<path class="st18" d="M1348,786.9c16.7,31.6,30.2,62.6,23.3,66.8c-1.8,1.1-2.8,2.6-3.2,4.4"/>
		<path class="st18" d="M1315.1,788.6c-0.6,4.8-1.3,9.6-2.4,14.5c-1.2,5.8,28.7,8.7,33.3,17.3c3.6,6.9,14.4,23.1,22,37.7"/>
		<path class="st18" d="M1315.1,788.6c1.4-12.3,1.4-24.4,0.5-36.9"/>
		<line class="st18" x1="1237.8" y1="1111.7" x2="1233.1" y2="1112.4"/>
		<line class="st18" x1="1313.4" y1="1158.9" x2="1255.5" y2="1162.1"/>
		<line class="st18" x1="1212.2" y1="1115.5" x2="1233.1" y2="1112.4"/>
		<path class="st18" d="M1479.6,947.3c4,40,11,105.3,15.8,150.6c2.9,27.6-17.8,52-45.5,53.5l-60.3,3.3"/>
		<line class="st18" x1="1389.5" y1="1154.8" x2="1313.4" y2="1158.9"/>
		<line class="st18" x1="1250.6" y1="1162.4" x2="1255.5" y2="1162.1"/>
		<polyline class="st18" points="1212.2,1115.5 1204.5,1116.7 1204,1119 		"/>
		<polyline class="st18" points="1194.7,1161 1193.7,1165.5 1250.6,1162.4 		"/>
		<line class="st18" x1="1204" y1="1119" x2="1194.7" y2="1161"/>
		<line class="st18" x1="1308.9" y1="1101.3" x2="1237.8" y2="1111.7"/>
		<line class="st18" x1="1308.9" y1="1101.3" x2="1392.8" y2="1088.9"/>
		<path class="st18" d="M1439.7,919.4l-11.6,2.9c-17.2,4.2-29.1,19.9-28.4,37.6l4.9,127.3l-11.7,1.7"/>
		<polyline class="st18" points="1307.7,1070.2 1371.9,1075.2 1389.2,983 		"/>
		<line class="st18" x1="1161.5" y1="1078.3" x2="1161" y2="1079.3"/>
		<circle class="st18" cx="1328" cy="773.9" r="6.9"/>
		<path class="st18" d="M1326.7,749.2c-3.7,1-7.6,1.9-11.1,2.5"/>
		<path class="st18" d="M1315.1,788.6c10.1-0.6,24.5-1.4,32.9-1.7"/>
		<path class="st18" d="M1198.3,1646.1c12.5,8.1,29.6,19.4,42.8,28.3"/>
		<line class="st18" x1="1991.4" y1="1539.1" x2="1973.4" y2="1579.6"/>
		<path class="st18" d="M1331.4,801.5c-0.5-3.3,1.7-6.8,4.9-7.7"/>
		<path class="st16" d="M1329,773.9c0,1.5-0.8,2.8-1.7,2.8s-1.7-1.2-1.7-2.8c0-1.5,0.8-2.8,1.7-2.8S1329,772.4,1329,773.9z"/>
	</g>
</g>
<g>
	<g>
		<path class="st12" d="M955.7,778c-0.4-0.1-0.5-0.7-0.2-0.9c4.2-3.4,9.4-9.4,14.4-13.9c3-2.7,5.9-4.9,8.5-5.6
			c8.7-2.4,10.2,5.5,18.9,3.9c7.7-1.4,17.2-13.9,19.2-16.7c0.2-0.3,0.6-0.3,0.9,0c1.7,2.2,8.5,10.5,16.8,14.3
			c0.2,0.1,0.3,0.3,0.3,0.5c-1.5,11.5-3.3,23.8-5,25.5c-1.9,1.9-4.7,1.7-7.6,1.6c-0.9,0-3.6,1.7-3.8,2.1c-0.6,1.6-1.6,2.9-4.3,3.3
			c-3.8,0.5-13.2-4.9-19.7-9.6c-2.9-2.1-5.3-4.1-6.3-5.3c0.9,1.2,3.1,3,5.9,5.1c0.2,0.2,0.3,0.4,0.2,0.7c-1.4,2.9-2.9,6.4-4.3,9.7
			c-0.1,0.3-0.5,0.4-0.7,0.3c-10.5-5.3-19.8-9.8-29.7-13.5L955.7,778z"/>
		<g>
			<path class="st14" d="M994,779.7c0.1,0.1,0.3,0.3,0.4,0.4C994.3,780,994.1,779.9,994,779.7z"/>
			<path class="st14" d="M992.9,778.6c0.1,0.1,0.2,0.3,0.4,0.4C993.2,778.9,993,778.7,992.9,778.6z"/>
			<path class="st14" d="M993.4,779.2c0.1,0.1,0.2,0.2,0.4,0.4C993.7,779.4,993.6,779.3,993.4,779.2z"/>
			<path class="st14" d="M1019.9,748.3c-3.6,4.6-11.2,13.4-17.6,14.5c-3.3,0.6-5.5-0.2-7.5-1.2c0.8,0,1.6,0,2.5-0.2
				c6.4-1.2,14-9.9,17.6-14.5c1.1-1.4,3.1-1.4,4.2-0.1c0.3,0.4,0.7,0.8,1.1,1.2C1020.1,748.1,1020,748.2,1019.9,748.3z"/>
			<path class="st14" d="M995.3,780.9c-0.2-0.2-0.5-0.4-0.7-0.6C994.8,780.5,995,780.7,995.3,780.9z"/>
			<path class="st14" d="M997.4,782.6c-0.1,0-0.1-0.1-0.2-0.1c0.6,0.5,1.3,1,1.9,1.5c4.2,3.1,9.7,6.4,14,8.3
				c-3.3-0.1-9.3-3.3-14.8-6.8C998.6,784.4,998.3,783.3,997.4,782.6z"/>
			<path class="st14" d="M996.9,782.2c-0.2-0.2-0.4-0.3-0.6-0.5C996.5,781.9,996.7,782.1,996.9,782.2z"/>
			<path class="st14" d="M969.9,763.1c3-2.7,5.9-4.9,8.5-5.6c3.6-1,6-0.2,8.2,1c-0.9,0-2,0.1-3.2,0.4c-2.6,0.7-5.5,2.9-8.5,5.6
				c-5.3,4.8-10.9,11.3-15.2,14.5l4.4,1.7c8.4,3.1,16.3,6.8,24.9,11.1c-0.7,0.3-1.6,0.3-2.3-0.1c-9.7-4.9-18.4-9-27.6-12.5
				c-0.3-0.1-2-0.1-3.7-2.2C959.2,773.7,965.9,766.8,969.9,763.1z"/>
			<path class="st14" d="M996.1,781.5c-0.2-0.2-0.4-0.4-0.6-0.5C995.6,781.2,995.8,781.4,996.1,781.5z"/>
		</g>
		<path class="st0" d="M743.8,1070.7c34.2-113.2,79.3-179.5,180.3-268.8c25.9,6.2,44.1,17.3,67.6,32.6l2.5,58.1l-9.8-7.8
			c-14.7-11.6-36.4-6.6-44.4,10.3l-10.6,22.3c-6.2,13-2,28.5,9.9,36.6l59.3,40.4l5.2,119.6c0.8,17.4-9.3,32.2-23.6,38.9
			c-7.3,3.4-15.7,4.7-24.3,3.2l-190-33.3c-3.6-0.6-6.7-1.7-9.4-3.1C740.5,1111.4,737.8,1090.7,743.8,1070.7z"/>
		<g class="st4">
			<path class="st19" d="M743.8,1070.7c34.2-113.2,79.3-179.5,180.3-268.8c1.2,0.3,2.3,0.6,3.4,0.9
				c-86.1,79.9-127.2,144.5-158.8,249.4c-6,20-3.4,40.8,12.5,49.1c2.7,1.4,5.9,2.5,9.4,3.1l190,33.3c6,1,11.8,0.7,17.3-0.7
				c-4.2,7-10.4,12.6-17.8,16c-7.3,3.4-15.7,4.7-24.3,3.2l-190-33.3c-3.6-0.6-6.7-1.7-9.4-3.1
				C740.5,1111.4,737.8,1090.7,743.8,1070.7z"/>
		</g>
		<path class="st0" d="M929.4,917.5l10.6-22.3c8-16.9,29.7-22,44.4-10.3l9.8,7.8l115.4,91.3c8.7,6.9,21.4,5.1,27.8-4l37.7-53.3
			l3.8,2.8l47.9,35.4l2.5,1.8l-89.3,103.8c-6.5,7.2-17.4,8.5-25.4,3l-116.1-79.1l-59.3-40.4C927.4,946,923.2,930.5,929.4,917.5z"/>
		<path class="st20" d="M1107,985.5l-115.4-91.3l-9.8-7.8c-4.9-3.9-10.6-5.9-16.3-6.2c-1-0.1-1-1.6,0-1.6c6.5-0.2,13.2,1.8,18.8,6.3
			l9.8,7.8l115.4,91.3c6.2,4.9,14.4,5.4,21,2C1123.7,991,1114.1,991.1,1107,985.5z"/>
		<path class="st19" d="M929.4,917.5l1.3-2.7c0.5,8.7,5,17.1,12.7,22.3l59.3,40.4l116.1,79.1c8,5.5,18.9,4.2,25.4-3L1223,962l4,2.9
			l2.5,1.8l-89.3,103.8c-6.5,7.2-17.4,8.5-25.4,3l-116.1-79.1l-59.3-40.4C927.4,946,923.2,930.5,929.4,917.5z"/>
		<path class="st21" d="M1017,744.2c0,0-11,15.7-19.7,17.3c-8.7,1.6-10.2-6.3-18.9-3.9c-2.6,0.7-5.5,2.9-8.5,5.6
			c-5.3,4.8-10.9,11.4-15.2,14.6c-1.4,1-2.7,1.7-3.8,1.9c-4.6,0.6-12.4-3.8-20.3-5.4c-3-0.6-6-0.8-8.8-0.1
			c-10.2,2.4-30.7,26-43.3,26c-12.6,0-26.7-14.9-37-18.1c-10.2-3.1-47.2,7.9-51.1-18.9c-3.9-26.7,18.1-30.7,29.1-37
			c11-6.3,25.2-23.6,35.4-27.5c10.2-3.9,18.9,6.3,29.9,5.5c11-0.8,16.5-5.5,24.4-5.5s22,0,33.8,1.6c11.8,1.6,57.4-20.5,89.7-7.1
			c32.3,13.4,27.9,57.2,18.9,64.5c-5.6,4.5-11.6,4.1-17,1.7C1024.8,754.9,1017,744.2,1017,744.2z"/>
		<path class="st19" d="M1031.7,694.9c-32.3-13.4-77.9,8.7-89.7,7.1c-11.8-1.6-26-1.6-33.8-1.6c-7.9,0-13.4,4.7-24.4,5.5
			c-11,0.8-19.7-9.4-29.9-5.5c-10.2,3.9-24.4,21.2-35.4,27.5c-7.5,4.3-20,7.5-26.1,17.4c5.6-11.5,19.2-14.8,27.1-19.3
			c11-6.3,25.2-23.6,35.4-27.5c10.2-3.9,18.9,6.3,29.9,5.5c11-0.8,16.5-5.5,24.4-5.5s22,0,33.8,1.6c11.8,1.6,57.4-20.5,89.7-7.1
			c29.6,12.3,28.4,50.3,21,62C1060.2,741.6,1059.9,706.6,1031.7,694.9z"/>
		<path class="st19" d="M797.1,738.9c-0.7,3.4-0.8,7.4-0.1,12.1c3.9,26.7,40.9,15.7,51.1,18.9c10.2,3.1,24.4,18.1,37,18.1
			s33-23.6,43.3-26c2.8-0.6,5.8-0.5,8.8,0.1c7.9,1.6,15.8,6,20.3,5.4c1.1-0.1,2.4-0.8,3.8-1.9c4.3-3.2,9.9-9.7,15.2-14.6
			c3-2.7,5.9-4.9,8.5-5.6c8.7-2.4,10.2,5.5,18.9,3.9c8.7-1.6,19.7-17.3,19.7-17.3s7.8,10.8,17.6,15.1c5,2.2,10.6,2.7,15.9-0.9
			c-1.2,5.3-3.1,9.4-5.4,11.2c-5.6,4.5-11.6,4.1-17,1.7c-9.8-4.3-17.6-15.1-17.6-15.1s-11,15.7-19.7,17.3s-10.2-6.3-18.9-3.9
			c-2.6,0.7-5.5,2.9-8.5,5.6c-5.3,4.8-10.9,11.4-15.2,14.6c-1.4,1-2.7,1.7-3.8,1.9c-4.6,0.6-12.4-3.8-20.3-5.4c-3-0.6-6-0.8-8.8-0.1
			c-10.2,2.4-30.7,26-43.3,26c-12.6,0-26.7-14.9-37-18.1c-10.2-3.1-47.2,7.9-51.1-18.9C788.8,751.3,792,744,797.1,738.9z"/>
		<path class="st12" d="M892.7,1688.1l-2.1-0.5l-25-5.5l-32.4-151.4l-11.6-54.4l-7.1-33.4c9.3-0.2,18.9-0.3,28.7-0.3
			c0.5,0,1,0,1.6,0c34.4,0,66.2,1.2,92.4,3.1l-3.6,27.9l-27.4,210.2l-5.8,1.8L892.7,1688.1z"/>
		<path class="st16" d="M1006,1459.6c0,5.9-28.8,11-72.5,14.1l3.6-27.9C978.8,1448.8,1006,1453.9,1006,1459.6z"/>
		<path class="st13" d="M869,1697.6l-3.3-15.5l25,5.5l2.1,0.5l7.6-2.4l5.8-1.8l-0.2,1.7l-2.5,19.5l37-1.9l10.2-0.5l26.8-13
			c19.1-9.2,42-4.1,55.3,12.4l0,0c10.1,12.6,1.2,31.3-14.9,31.3h-88.9h-52.2L869,1697.6z"/>
		<path class="st16" d="M722.7,1448.2l5,23.3c-29.3-3.1-47.3-7.3-47.3-11.9C680.4,1455.2,696.4,1451.2,722.7,1448.2z"/>
		<path class="st12" d="M1183.8,910.9c-2.4-14.2-11-55.1,0.8-57.4c11.8-2.4,12.5,37.4,18.1,37.8c14.2,0.8,7.9-69.2,22.8-66.9
			c7,1.1,0.8,62.9,3.9,62.9c3.1,0,7.8-70.1,16.5-69.2c15.7,1.6-3.9,69.2,0,72.4c3.9,3.1,10.6-63,18.9-61.4c15.7,3.1-9.4,67.6-6.3,70
			s14-44.9,18.9-44.1c9.4,1.6-10.2,66.9-12.6,71.6c-1.7,3.5-25.3,26.3-37.9,38.3l-47.9-35.4C1181.5,922.6,1184.3,914.1,1183.8,910.9
			z"/>
		<g>
			<path class="st14" d="M1259,889.2c-2.1-1.6,8.4-30.9,11-51.1c0.9,13-6.3,36.7-9.8,50.4C1259.7,889.2,1259.3,889.5,1259,889.2z"/>
			<path class="st14" d="M1179,862.2c0.4,13.5,3.9,30.6,5.2,38.8c0.2,1.4-0.2,3.9-1,6.9C1181.2,896.3,1177.1,874.4,1179,862.2z"/>
			<path class="st14" d="M1252.1,832.8c0.1,14.1-4.2,35.1-6,47.5C1244.5,876.7,1250.4,852.2,1252.1,832.8z"/>
			<path class="st14" d="M1227.4,955c12.6-12,36.2-34.8,37.9-38.3c1.7-3.3,12-37.1,14.6-57c1.4,15.3-13,62.9-15,66.9
				c-1.7,3.5-25.3,26.3-37.9,38.3l-47.9-35.4c1-2.6-0.8,2.7,0,0L1227.4,955z"/>
		</g>
		<path class="st12" d="M814.5,1442.9l7.1,33.4l11.6,54.4l-20,153.5l-13.4,4.2l-27.1-6l-45.1-211l-5-23.3
			C746.4,1445.5,778.4,1443.6,814.5,1442.9z"/>
		<path class="st13" d="M813.3,1684.3l-2.7,21.1l47.2-2.4l11.2-5.4l7.6,35.7h52.2c-1.2,0.3-2.6,0.4-3.9,0.4H783.8l-11-51.2l27.1,6
			L813.3,1684.3z"/>
		<path class="st14" d="M820.5,1442.8c1.9,0,3.8,0,5.7-0.1c0.1,0,0.1,0,0.2,0h0c5.5-0.1,11.1-0.1,16.8-0.1c0.5,0,1,0,1.6,0
			c34.4,0,66.2,1.2,92.4,3.1l-1.1,8.7c-25.3-1.7-55.4-2.7-87.9-2.8c-0.5,0-1,0-1.6,0c-1.4,0-2.9,0-4.3,0c-7.2,0-12.6,6.7-11.1,13.7
			l0,0l11.6,54.4l35.3,165.1l-12.5-2.8l-32.4-151.4l-11.6-54.4l-7.1-33.4C816.5,1442.9,818.5,1442.9,820.5,1442.8z"/>
		<path class="st15" d="M878.2,1684.9l0.4,1.7l5.1,23.8c1.5,6.9,7.6,11.9,14.7,11.9h40h88.9c3.2,0,6.1-0.7,8.6-2
			c-2.5,7.2-9.2,13-18.2,13h-88.9h-52.2l-7.6-35.7l-3.3-15.5L878.2,1684.9z"/>
		<path class="st14" d="M725.6,1447.9c0.2,0,0.4,0,0.6-0.1c1-0.1,1.9-0.2,2.9-0.3c0,0,0,0,0,0c2.2-0.2,4.5-0.4,6.8-0.7
			c0,0,0,0,0.1,0l0,0c21.8-2,48.7-3.4,78.5-3.9l1.9,9c-27.1,0.5-51.8,1.7-72.3,3.5c-3.3,0.3-5.5,3.3-4.8,6.5h0l47.9,223.7l-14.3-3.1
			l-45.1-211l-5-23.3C723.7,1448.1,724.6,1448,725.6,1447.9z"/>
		<path class="st15" d="M787.1,1685.7l5.5,25.9c1.6,7.3,8.1,12.6,15.6,12.6h66.4l2,9.2h52.2c-1.2,0.2-2.6,0.4-3.9,0.4H783.8
			l-11-51.2L787.1,1685.7z"/>
		<path class="st0" d="M915.5,800l15.1-25.8c7.9,1.6,15.8,6,20.3,5.4c1.1-0.1,2.4-0.8,3.8-1.9c1.5,0.5,3,1.1,4.5,1.6
			c10,3.8,19.5,8.3,30.2,13.8c6.1,3.1,12.5,6.4,19.7,10l-14.2,26l-3.1,5.5c-0.1,0-0.1-0.1-0.2-0.1c-23.4-15.4-41.7-26.4-67.6-32.6
			C921.4,801.2,918.5,800.6,915.5,800z"/>
		<path class="st21" d="M680.8,1458.3c2.8-3.9,18.2-7.4,41.9-10.1c23.7-2.7,55.7-4.6,91.8-5.3c9.3-0.2,18.9-0.3,28.7-0.3h1.6
			c34.4,0,66.2,1.2,92.4,3.1c39.6,2.9,66.1,7.6,68.7,13L980.2,1153c-7.3,3.4-15.7,4.7-24.3,3.2l-190-33.3c-3.6-0.6-6.7-1.7-9.4-3.1
			L680.8,1458.3z"/>
		<g>
			<path class="st19" d="M973.5,1155.4c2.3-0.6,4.5-1.4,6.6-2.4l0.3,3.6L973.5,1155.4z"/>
			<path class="st19" d="M966.2,1447c15.1,1.1,28.3,2.5,39,4l0.6,7.7c-2.6-5.4-29.1-10.1-68.7-13c-6-0.4-12.3-0.8-18.8-1.2
				C935.6,1445.1,951.8,1445.9,966.2,1447z"/>
			<path class="st19" d="M756.3,1119.8c2.8,1.4,5.9,2.5,9.4,3.1l18.5,3.2L736,1446.8c-17.7,2.5-52.8,8.2-55.1,11.5L756.3,1119.8z"/>
		</g>
		<polygon class="st16" points="966,972.3 998.6,1009.5 998.6,994.5 		"/>
		<polygon class="st16" points="987.9,777.2 991.9,787.5 994.2,782.5 		"/>
		<polygon class="st16" points="959.3,1156.8 754.4,1129.1 756.3,1119.8 		"/>
		<polygon class="st16" points="814.5,1442.9 828.8,1560.2 833.3,1530.7 		"/>
	</g>
	<g>
		<line class="st18" x1="821.6" y1="1476.3" x2="833.3" y2="1530.7"/>
		<line class="st18" x1="905.9" y1="1685.5" x2="906.1" y2="1683.9"/>
		<line class="st18" x1="869" y1="1697.6" x2="865.7" y2="1682.1"/>
		<polyline class="st18" points="869,1697.6 876.6,1733.3 928.8,1733.3 		"/>
		<line class="st18" x1="865.7" y1="1682.1" x2="833.3" y2="1530.7"/>
		<line class="st18" x1="937.1" y1="1445.8" x2="933.5" y2="1473.6"/>
		<polyline class="st18" points="940.4,1703.1 903.4,1705 905.9,1685.5 		"/>
		<path class="st18" d="M940.4,1703.1l10.2-0.5l26.8-13c19.1-9.2,42-4.1,55.3,12.4l0,0c10.1,12.6,1.2,31.3-14.9,31.3h-88.9"/>
		<line class="st18" x1="906.1" y1="1683.9" x2="933.5" y2="1473.6"/>
		<line class="st18" x1="814.5" y1="1442.9" x2="821.6" y2="1476.3"/>
		<line class="st18" x1="890.7" y1="1687.6" x2="865.7" y2="1682.1"/>
		<polyline class="st18" points="900.3,1685.7 892.7,1688.1 890.7,1687.6 		"/>
		<line class="st18" x1="906.1" y1="1683.9" x2="900.3" y2="1685.7"/>
		<line class="st18" x1="833.3" y1="1530.7" x2="813.3" y2="1684.3"/>
		<polyline class="st18" points="869,1697.6 857.7,1703 810.5,1705.4 813.3,1684.3 		"/>
		<line class="st18" x1="727.7" y1="1471.5" x2="722.7" y2="1448.2"/>
		<line class="st18" x1="772.8" y1="1682.5" x2="727.7" y2="1471.5"/>
		<path class="st18" d="M928.8,1733.3c-1.2,0.3-2.6,0.4-3.9,0.4H783.8l-11-51.2"/>
		<polyline class="st18" points="813.3,1684.3 799.9,1688.5 772.8,1682.5 		"/>
		<path class="st18" d="M680.8,1458.3c-0.3,0.4-0.5,0.8-0.5,1.3c0,4.7,18.1,8.9,47.3,11.9"/>
		<line class="st18" x1="680.8" y1="1458.3" x2="680.7" y2="1458.8"/>
		<path class="st18" d="M680.8,1458.3c2.8-3.9,18.2-7.4,41.9-10.1c23.7-2.7,55.7-4.6,91.8-5.3c9.3-0.2,18.9-0.3,28.7-0.3h1.6
			c34.4,0,66.2,1.2,92.4,3.1c39.6,2.9,66.1,7.6,68.7,13L980.2,1153c-7.3,3.4-15.7,4.7-24.3,3.2l-190-33.3c-3.6-0.6-6.7-1.7-9.4-3.1
			L680.8,1458.3z"/>
		<path class="st18" d="M1005.8,1458.7c0.1,0.3,0.2,0.6,0.2,0.9c0,5.9-28.8,11-72.5,14.1"/>
		<line class="st18" x1="1005.8" y1="1458.7" x2="1005.8" y2="1459.2"/>
		<path class="st18" d="M980.2,1153c14.4-6.7,24.4-21.6,23.6-38.9l-5.2-119.6"/>
		<path class="st18" d="M924.1,801.9c-101,89.3-146.1,155.6-180.3,268.8c-6,20-3.4,40.8,12.5,49.1"/>
		<line class="st18" x1="1226.9" y1="964.9" x2="1179" y2="929.5"/>
		<path class="st18" d="M1226.9,964.9l2.5,1.8l-89.3,103.8c-6.5,7.2-17.4,8.5-25.4,3l-116.1-79.1"/>
		<path class="st18" d="M1179,929.5l-3.8-2.8l-37.7,53.3c-6.4,9.1-19.1,10.9-27.8,4l-115.4-91.3"/>
		<path class="st18" d="M955.9,880.5c9.2-3.5,20-2.4,28.5,4.4l9.8,7.8"/>
		<path class="st18" d="M967.3,973.2l-28-19.1c-7.4-5.1-11.8-13-12.6-21.4"/>
		<line class="st18" x1="998.6" y1="994.5" x2="967.3" y2="973.2"/>
		<path class="st18" d="M989.4,793.1c-10.7-5.5-20.2-10-30.2-13.8"/>
		<path class="st18" d="M959.2,779.3c-1.5-0.6-3-1.1-4.5-1.6"/>
		<path class="st18" d="M924.1,801.9c-2.7-0.7-5.6-1.3-8.6-1.9l15.1-25.8"/>
		<line class="st18" x1="991.7" y1="834.5" x2="994.2" y2="892.6"/>
		<path class="st18" d="M924.1,801.9c25.9,6.2,44.1,17.3,67.6,32.6"/>
		<path class="st18" d="M989.4,793.1c6.1,3.1,12.5,6.4,19.7,10l-14.2,26l-3.1,5.5c-0.1,0-0.1-0.1-0.2-0.1"/>
		<path class="st18" d="M994.2,782.5c6.5,4.7,15.9,10.2,19.7,9.6c1.5-0.2,2.4-0.8,3.1-1.6c2-2.5,5-4.1,8.2-4.1
			c1.7,0,3.4-0.3,4.5-1.4c1.6-1.6,3.5-14.2,5-25.8"/>
		<path class="st18" d="M994.2,782.5c-2.9-2.1-5.3-4.1-6.3-5.3"/>
		<path class="st18" d="M994.2,782.5c-1.5,3.1-3.2,7-4.7,10.6"/>
		<path class="st18" d="M930.6,774.2c-3-0.6-6-0.8-8.8-0.1c-10.2,2.4-30.7,26-43.3,26c-12.6,0-26.7-14.9-37-18.1
			c-10.2-3.1-47.2,7.9-51.1-18.9c-3.9-26.7,18.1-30.7,29.1-37c11-6.3,25.2-23.6,35.4-27.5c10.2-3.9,18.9,6.3,29.9,5.5
			c11-0.8,16.5-5.5,24.4-5.5s22,0,33.8,1.6c11.8,1.6,57.4-20.5,89.7-7.1c32.3,13.4,27.9,57.2,18.9,64.5c-5.6,4.5-11.6,4.1-17,1.7"/>
		<path class="st18" d="M954.7,777.7c-1.4,1-2.7,1.7-3.8,1.9c-4.6,0.6-12.4-3.8-20.3-5.4"/>
		<path class="st18" d="M969.9,763.1c3-2.7,5.9-4.9,8.5-5.6c8.7-2.4,10.2,5.5,18.9,3.9c8.7-1.6,19.7-17.3,19.7-17.3
			s7.8,10.8,17.6,15.1"/>
		<path class="st18" d="M969.9,763.1c-5.3,4.8-10.9,11.4-15.2,14.6"/>
		<path class="st18" d="M1179,929.5c2.5-6.9,5.3-15.4,4.8-18.6c-2.4-14.2-11-55.1,0.8-57.4c11.8-2.4,12.5,37.4,18.1,37.8
			c14.2,0.8,7.9-69.2,22.8-66.9c7,1.1,0.8,62.9,3.9,62.9c3.1,0,7.8-70.1,16.5-69.2c15.7,1.6-3.9,69.2,0,72.4
			c3.9,3.1,10.6-63,18.9-61.4c15.7,3.1-9.4,67.6-6.3,70s14-44.9,18.9-44.1c9.4,1.6-10.2,66.9-12.6,71.6
			c-1.7,3.5-25.3,26.3-37.9,38.3"/>
		<path class="st16" d="M1020,766.8c-0.7,1.7-0.8,3.2-0.1,3.6c0.7,0.3,1.9-0.8,2.6-2.4c0.7-1.7,0.8-3.2,0.1-3.6
			C1021.9,764.1,1020.8,765.1,1020,766.8z"/>
		<path class="st18" d="M1026.7,761.7c0,0-6.1-3.9-8.1-2.4"/>
		<path class="st18" d="M1014.4,782.5c0,0-3.1-1.1-3.3-4"/>
	</g>
</g>
</svg>
