<?xml version="1.0" encoding="utf-8"?>
<!-- Generator: Adobe Illustrator 26.1.0, SVG Export Plug-In . SVG Version: 6.00 Build 0)  -->
<!DOCTYPE svg PUBLIC "-//W3C//DTD SVG 1.1//EN" "http://www.w3.org/Graphics/SVG/1.1/DTD/svg11.dtd" [
	<!ENTITY ns_extend "http://ns.adobe.com/Extensibility/1.0/">
	<!ENTITY ns_ai "http://ns.adobe.com/AdobeIllustrator/10.0/">
	<!ENTITY ns_graphs "http://ns.adobe.com/Graphs/1.0/">
	<!ENTITY ns_vars "http://ns.adobe.com/Variables/1.0/">
	<!ENTITY ns_imrep "http://ns.adobe.com/ImageReplacement/1.0/">
	<!ENTITY ns_sfw "http://ns.adobe.com/SaveForWeb/1.0/">
	<!ENTITY ns_custom "http://ns.adobe.com/GenericCustomNamespace/1.0/">
	<!ENTITY ns_adobe_xpath "http://ns.adobe.com/XPath/1.0/">
]>
<svg version="1.1" id="Layer_1" xmlns:x="&ns_extend;" xmlns:i="&ns_ai;" xmlns:graph="&ns_graphs;"
	 xmlns="http://www.w3.org/2000/svg" xmlns:xlink="http://www.w3.org/1999/xlink" x="0px" y="0px" viewBox="0 0 60 60"
	 style="enable-background:new 0 0 60 60;" xml:space="preserve">
<style type="text/css">
	.st0{stroke:#000000;stroke-miterlimit:10;}
	.st1{fill:#CD00FF;}
	.st2{fill:#FFFFFF;}
</style>
<metadata>
	<sfw  xmlns="&ns_sfw;">
		<slices></slices>
		<sliceSourceBounds  bottomLeftOrigin="true" height="61" width="61" x="-0.5" y="-0.5"></sliceSourceBounds>
	</sfw>
</metadata>
<rect x="0" class="st0" width="60" height="60"/>
<g>
	<path class="st1" d="M13.49,0.03C6.02,0.13,0.01,6.21,0,13.69v32.63c0,5.54,3.33,10.53,8.44,12.64s11,0.95,14.91-2.97l9.29-9.29
		c0.22,7.47,6.4,13.38,13.87,13.27c7.47-0.11,13.48-6.19,13.49-13.66V13.69c0-5.54-3.33-10.53-8.44-12.64s-11-0.95-14.91,2.97
		l-9.29,9.29C27.13,5.83,20.96-0.08,13.49,0.03z"/>
	<ellipse class="st2" cx="29.75" cy="30.25" rx="13.69" ry="13.69"/>
</g>
</svg>
