<?xml version="1.0" encoding="iso-8859-1"?>
<!-- Generator: Adobe Illustrator 26.0.3, SVG Export Plug-In . SVG Version: 6.00 Build 0)  -->
<!DOCTYPE svg PUBLIC "-//W3C//DTD SVG 1.1//EN" "http://www.w3.org/Graphics/SVG/1.1/DTD/svg11.dtd" [
	<!ENTITY ns_extend "http://ns.adobe.com/Extensibility/1.0/">
	<!ENTITY ns_ai "http://ns.adobe.com/AdobeIllustrator/10.0/">
	<!ENTITY ns_graphs "http://ns.adobe.com/Graphs/1.0/">
	<!ENTITY ns_vars "http://ns.adobe.com/Variables/1.0/">
	<!ENTITY ns_imrep "http://ns.adobe.com/ImageReplacement/1.0/">
	<!ENTITY ns_sfw "http://ns.adobe.com/SaveForWeb/1.0/">
	<!ENTITY ns_custom "http://ns.adobe.com/GenericCustomNamespace/1.0/">
	<!ENTITY ns_adobe_xpath "http://ns.adobe.com/XPath/1.0/">
]>
<svg version="1.1" xmlns:x="&ns_extend;" xmlns:i="&ns_ai;" xmlns:graph="&ns_graphs;"
	 xmlns="http://www.w3.org/2000/svg" xmlns:xlink="http://www.w3.org/1999/xlink" x="0px" y="0px" viewBox="0 0 8000 4000"
	 style="enable-background:new 0 0 8000 4000;" xml:space="preserve">
<style type="text/css">
	.st0{fill:#61CBE8;}
	.st1{opacity:0.15;}
	.st2{fill:url(#SVGID_1_);}
	.st3{fill:url(#SVGID_00000062159179099113023150000005610485820627444889_);}
	.st4{fill:#B2B3B3;}
	.st5{opacity:0.4;fill:url(#SVGID_00000067951050847706296940000017521883849584155781_);}
	.st6{fill:#B4B8BC;}
	.st7{fill:#16191D;}
	.st8{fill:#5D6264;}
	.st9{fill:#BFC2C4;}
	.st10{fill:#232323;}
	.st11{fill:#40B549;}
	.st12{fill:#ED1E2F;}
	.st13{fill:#FFFFFF;}
</style>
<metadata>
	<sfw  xmlns="&ns_sfw;">
		<slices></slices>
		<sliceSourceBounds  bottomLeftOrigin="true" height="4000" width="8000" x="-789.3" y="-3553"></sliceSourceBounds>
		<optimizationSettings>
			<targetSettings  fileFormat="JPEGFormat" targetSettingsID="0">
				
					<JPEGFormat  blurAmount="0" embedICCProfile="false" matteColor="#FFFFFF" noMatteColor="false" optimized="true" progressive="true" quality="100">
					</JPEGFormat>
			</targetSettings>
		</optimizationSettings>
	</sfw>
</metadata>
<g id="Layer_2">
	<rect class="st0" width="8000" height="4000"/>
	<polygon class="st1" points="1948.5,3424.7 5455.1,804.9 8000,2618.9 8000,4000 2850.9,4000 	"/>
</g>
<g id="Layer_1">
	<g>
		<path d="M5492.6,2786.4c0,66-53.5,119.5-119.5,119.5H2589.3c-66,0-119.5-53.5-119.5-119.5V898.2c0-66,53.5-119.5,119.5-119.5
			h2783.8c66,0,119.5,53.5,119.5,119.5V2786.4z"/>
		<linearGradient id="SVGID_1_" gradientUnits="userSpaceOnUse" x1="1505.97" y1="4771.3472" x2="5025.3984" y2="2575.2893">
			<stop  offset="0" style="stop-color:#D6D6D6"/>
			<stop  offset="1" style="stop-color:#FFFFFF"/>
		</linearGradient>
		<polygon class="st2" points="6060.1,3318.3 1939.9,3318.3 2464.5,2784.6 5487,2784.6 		"/>
		
			<linearGradient id="SVGID_00000178187062662685487810000005677090717957869726_" gradientUnits="userSpaceOnUse" x1="6862.4854" y1="4149.1611" x2="2707.9932" y2="2030.9438">
			<stop  offset="0" style="stop-color:#D6D6D6"/>
			<stop  offset="1" style="stop-color:#FFFFFF"/>
		</linearGradient>
		<polygon style="fill:url(#SVGID_00000178187062662685487810000005677090717957869726_);" points="6060.1,3318.3 3932.1,3318.3 
			3932.1,2784.6 5487,2784.6 		"/>
		<path class="st4" d="M5991.3,3318.3H2008.7h-68.7v68.7c0,38,30.8,68.7,68.7,68.7h3982.7c38,0,68.7-30.8,68.7-68.7v-68.7H5991.3z"
			/>
		
			<linearGradient id="SVGID_00000056405879944159514060000008438737219946569913_" gradientUnits="userSpaceOnUse" x1="3757.9219" y1="3387.0786" x2="1018.0772" y2="3387.0786">
			<stop  offset="0" style="stop-color:#FFFFFF"/>
			<stop  offset="1" style="stop-color:#999999"/>
		</linearGradient>
		<path style="opacity:0.4;fill:url(#SVGID_00000056405879944159514060000008438737219946569913_);" d="M5991.3,3318.3H2008.7h-68.7
			v68.7c0,38,30.8,68.7,68.7,68.7h3982.7c38,0,68.7-30.8,68.7-68.7v-68.7H5991.3z"/>
		<polygon class="st6" points="4673.8,3280.8 3339.2,3280.8 3410.7,3085 4596.9,3085 		"/>
		<g>
			<polygon class="st7" points="3011.5,2835.7 2843.5,2849.6 2843.5,2856.4 3007.1,2856.4 3011.5,2844.2 			"/>
			<polygon class="st8" points="3011.5,2835.7 2850.6,2835.7 2843.5,2849.6 3007.1,2849.6 			"/>
			<polygon class="st7" points="2809.2,2835.7 2635.2,2835.7 2621.4,2849.6 2621.4,2856.4 2802,2856.4 2809.2,2842.6 			"/>
			<polygon class="st8" points="2809.2,2835.7 2635.2,2835.7 2621.4,2849.6 2802,2849.6 			"/>
			<polygon class="st7" points="3216.3,2835.7 3047.3,2849.6 3047.3,2856.4 3210.9,2856.4 3216.3,2842.6 			"/>
			<polygon class="st8" points="3216.3,2835.7 3053.1,2835.7 3047.3,2849.6 3210.9,2849.6 			"/>
			<rect x="3251.3" y="2835.7" class="st7" width="163.6" height="20.7"/>
			<rect x="3251.3" y="2835.7" class="st8" width="163.6" height="13.9"/>
			<rect x="3452" y="2835.7" class="st7" width="163.6" height="20.7"/>
			<rect x="3452" y="2835.7" class="st8" width="163.6" height="13.9"/>
			<rect x="3653.6" y="2835.7" class="st7" width="163.6" height="20.7"/>
			<rect x="3653.6" y="2835.7" class="st8" width="163.6" height="13.9"/>
			<rect x="3850.3" y="2835.7" class="st7" width="163.6" height="20.7"/>
			<rect x="3850.3" y="2835.7" class="st8" width="163.6" height="13.9"/>
			<rect x="4051.1" y="2835.7" class="st7" width="163.6" height="20.7"/>
			<rect x="4051.1" y="2835.7" class="st8" width="163.6" height="13.9"/>
			<rect x="4252.6" y="2835.7" class="st7" width="163.6" height="20.7"/>
			<rect x="4252.6" y="2835.7" class="st8" width="163.6" height="13.9"/>
			<rect x="4451.8" y="2835.7" class="st7" width="163.6" height="20.7"/>
			<rect x="4451.8" y="2835.7" class="st8" width="163.6" height="13.9"/>
			<polygon class="st7" points="4816.9,2835.7 4649.1,2835.7 4649.1,2840.7 4653.3,2856.4 4822.7,2856.4 4822.7,2849.6 			"/>
			<polygon class="st8" points="4816.9,2835.7 4649.1,2835.7 4653.3,2849.6 4822.7,2849.6 			"/>
			<polygon class="st7" points="5012.1,2849.6 4839.1,2835.7 4839.1,2842.6 4848.5,2856.4 5012.1,2856.4 			"/>
			<polygon class="st8" points="5000,2835.7 4839.1,2835.7 4848.5,2849.6 5012.1,2849.6 			"/>
			<polygon class="st7" points="5338.7,2835.7 5056.7,2835.7 5056.7,2842.6 5070.4,2856.4 5352.8,2856.4 5352.8,2849.6 			"/>
			<polygon class="st8" points="5338.7,2835.7 5056.7,2835.7 5071.3,2849.6 5352.8,2849.6 			"/>
		</g>
		<g>
			<polygon class="st7" points="2969.7,2859.6 2800.5,2873.5 2800.5,2880.3 2964.1,2880.3 2969.7,2866.5 			"/>
			<polygon class="st8" points="2969.7,2859.6 2809.2,2859.6 2800.5,2873.5 2964.1,2873.5 			"/>
			<polygon class="st7" points="2770.8,2859.6 2614.9,2859.6 2604.6,2873.5 2604.6,2880.3 2764.6,2880.3 2770.8,2867.6 			"/>
			<polygon class="st8" points="2770.8,2859.6 2614.9,2859.6 2604.6,2873.5 2764.6,2873.5 			"/>
			<polygon class="st7" points="3175.6,2859.6 3004.3,2873.5 3004.3,2880.3 3167.9,2880.3 3175.6,2866.5 			"/>
			<polygon class="st8" points="3175.6,2859.6 3012.7,2859.6 3004.3,2873.5 3167.9,2873.5 			"/>
			<polygon class="st7" points="3376.1,2859.6 3208.3,2873.5 3208.3,2880.3 3371.8,2880.3 3376.1,2866.5 			"/>
			<polygon class="st8" points="3376.1,2859.6 3214.6,2859.6 3208.3,2873.5 3371.8,2873.5 			"/>
			<rect x="3409" y="2859.6" class="st7" width="163.6" height="20.7"/>
			<rect x="3409" y="2859.6" class="st8" width="163.6" height="13.9"/>
			<rect x="3610.5" y="2859.6" class="st7" width="163.6" height="20.7"/>
			<rect x="3610.5" y="2859.6" class="st8" width="163.6" height="13.9"/>
			<rect x="3807.3" y="2859.6" class="st7" width="163.6" height="20.7"/>
			<rect x="3807.3" y="2859.6" class="st8" width="163.6" height="13.9"/>
			<rect x="4008.1" y="2859.6" class="st7" width="163.6" height="20.7"/>
			<rect x="4008.1" y="2859.6" class="st8" width="163.6" height="13.9"/>
			<rect x="4209.6" y="2859.6" class="st7" width="163.6" height="20.7"/>
			<rect x="4209.6" y="2859.6" class="st8" width="163.6" height="13.9"/>
			<rect x="4408.8" y="2859.6" class="st7" width="163.6" height="20.7"/>
			<rect x="4408.8" y="2859.6" class="st8" width="163.6" height="13.9"/>
			<polygon class="st7" points="4773.9,2873.5 4605.8,2859.6 4605.8,2866.5 4610.3,2880.3 4773.9,2880.3 			"/>
			<polygon class="st8" points="4766.6,2859.6 4605.8,2859.6 4610.3,2873.5 4773.9,2873.5 			"/>
			<polygon class="st7" points="4969.1,2859.6 4797.3,2859.6 4797.3,2866.5 4805.5,2880.3 5004.3,2880.3 5004.3,2873.5 			"/>
			<polygon class="st8" points="4993.8,2859.6 4797.3,2859.6 4805.5,2873.5 5004.3,2873.5 			"/>
			<polygon class="st7" points="5356.5,2859.6 5023.3,2859.6 5023.3,2866.5 5031.4,2880.3 5369.7,2880.3 5369.7,2873.5 			"/>
			<polygon class="st8" points="5358.9,2859.6 5023.3,2859.6 5033.1,2873.5 5369.7,2873.5 			"/>
		</g>
		<g>
			<polygon class="st7" points="3034.4,2884.9 2872.6,2884.9 2865,2905.9 2865,2916.2 3028.6,2916.2 3034.4,2895.4 			"/>
			<polygon class="st8" points="3034.4,2884.9 2872.6,2884.9 2865,2905.9 3028.6,2905.9 			"/>
			<polygon class="st7" points="2831.7,2884.9 2599.6,2884.9 2581,2905.9 2581,2916.2 2823.5,2916.2 2831.7,2895.4 			"/>
			<polygon class="st8" points="2831.7,2884.9 2595.5,2884.9 2581,2905.9 2823.5,2905.9 			"/>
			<polygon class="st7" points="3239.9,2884.9 3068.8,2905.9 3068.8,2916.2 3232.4,2916.2 3239.9,2895.4 			"/>
			<polygon class="st8" points="3239.9,2884.9 3076.8,2884.9 3068.8,2905.9 3232.4,2905.9 			"/>
			<polygon class="st7" points="3438.7,2884.9 3272.8,2905.9 3272.8,2916.2 3436.4,2916.2 3438.7,2895.4 			"/>
			<polygon class="st8" points="3438.7,2884.9 3277.7,2884.9 3272.8,2905.9 3436.4,2905.9 			"/>
			<rect x="3473.5" y="2884.9" class="st7" width="163.6" height="31.2"/>
			<rect x="3473.5" y="2884.9" class="st8" width="163.6" height="20.9"/>
			<rect x="3675.1" y="2884.9" class="st7" width="163.6" height="31.2"/>
			<rect x="3675.1" y="2884.9" class="st8" width="163.6" height="20.9"/>
			<rect x="3871.8" y="2884.9" class="st7" width="163.6" height="31.2"/>
			<rect x="3871.8" y="2884.9" class="st8" width="163.6" height="20.9"/>
			<rect x="4072.6" y="2884.9" class="st7" width="163.6" height="31.2"/>
			<rect x="4072.6" y="2884.9" class="st8" width="163.6" height="20.9"/>
			<rect x="4274.1" y="2884.9" class="st7" width="163.6" height="31.2"/>
			<rect x="4274.1" y="2884.9" class="st8" width="163.6" height="20.9"/>
			<polygon class="st7" points="4636.9,2905.9 4473.3,2884.9 4473.3,2916.2 4636.9,2916.2 			"/>
			<polygon class="st8" points="4629.1,2884.9 4473.3,2884.9 4473.3,2905.9 4636.9,2905.9 			"/>
			<polygon class="st7" points="4838.4,2884.9 4674.8,2884.9 4674.8,2899 4679.7,2916.2 4846,2916.2 4846,2905.9 			"/>
			<polygon class="st8" points="4838.4,2884.9 4674.8,2884.9 4680.6,2905.9 4846,2905.9 			"/>
			<polygon class="st7" points="5033.6,2884.9 4870,2884.9 4870,2896.3 4879.1,2916.2 5048.7,2916.2 5048.7,2905.9 			"/>
			<polygon class="st8" points="5033.6,2884.9 4870,2884.9 4879.1,2905.9 5048.7,2905.9 			"/>
			<polygon class="st7" points="5379,2884.9 5066.3,2884.9 5066.3,2894.4 5087.8,2916.2 5398.6,2916.2 5398.6,2905.9 			"/>
			<polygon class="st8" points="5379,2884.9 5066.3,2884.9 5087.8,2905.9 5398.6,2905.9 			"/>
		</g>
		<g>
			<polygon class="st7" points="3076.8,2919.7 2912.8,2919.7 2902.2,2940.6 2902.2,2950.9 3069.2,2950.9 3076.8,2930.1 			"/>
			<polygon class="st8" points="3076.8,2919.7 2912.8,2919.7 2902.2,2940.6 3069.2,2940.6 			"/>
			<polygon class="st7" points="2875.9,2919.7 2571.1,2919.7 2556.3,2940.6 2556.3,2950.9 2864.1,2950.9 2875.9,2930.1 			"/>
			<polygon class="st8" points="2875.9,2919.7 2571.1,2919.7 2556.3,2940.6 2864.1,2940.6 			"/>
			<polygon class="st7" points="3277.7,2919.7 3109.5,2940.6 3109.5,2950.9 3273.1,2950.9 3277.7,2930.1 			"/>
			<polygon class="st8" points="3277.7,2919.7 3117.1,2919.7 3109.5,2940.6 3273.1,2940.6 			"/>
			<polygon class="st7" points="3480.3,2919.7 3313.4,2940.6 3313.4,2950.9 3477,2950.9 3480.3,2930.1 			"/>
			<polygon class="st8" points="3480.3,2919.7 3319,2919.7 3313.4,2940.6 3477,2940.6 			"/>
			<polygon class="st7" points="3681.9,2919.7 3514.2,2940.6 3514.2,2950.9 3677.7,2950.9 3681.9,2930.1 			"/>
			<polygon class="st8" points="3681.9,2919.7 3520,2919.7 3514.2,2940.6 3677.7,2940.6 			"/>
			<polygon class="st7" points="3879.3,2919.7 3715.7,2940.6 3715.7,2950.9 3879.3,2950.9 			"/>
			<polygon class="st8" points="3879.3,2919.7 3719,2919.7 3715.7,2940.6 3879.3,2940.6 			"/>
			<rect x="3912.5" y="2919.7" class="st7" width="163.6" height="31.2"/>
			<rect x="3912.5" y="2919.7" class="st8" width="163.6" height="20.9"/>
			<polygon class="st7" points="4274.1,2940.6 4113.2,2940.6 4113.2,2950.9 4276.8,2950.9 4276.8,2939.3 			"/>
			<polygon class="st8" points="4270.4,2919.7 4116.5,2919.7 4113.2,2940.6 4276.8,2940.6 			"/>
			<polygon class="st7" points="4470.5,2919.7 4311.7,2919.7 4311.7,2928.4 4314.8,2950.9 4478.3,2950.9 4478.3,2940.6 			"/>
			<polygon class="st8" points="4473.3,2919.7 4311.7,2919.7 4314.8,2940.6 4478.3,2940.6 			"/>
			<polygon class="st7" points="4668.6,2919.7 4509.5,2919.7 4509.5,2932.1 4513.9,2950.9 4677.5,2950.9 4677.5,2940.6 			"/>
			<polygon class="st8" points="4668.6,2919.7 4509.5,2919.7 4513.9,2940.6 4677.5,2940.6 			"/>
			<polygon class="st7" points="4870,2919.7 4707.8,2919.7 4707.8,2930.1 4715.5,2950.9 4879.1,2950.9 4879.1,2940.6 			"/>
			<polygon class="st8" points="4870,2919.7 4707.8,2919.7 4715.5,2940.6 4879.1,2940.6 			"/>
			<polygon class="st7" points="5070.6,2919.7 4910.6,2919.7 4912.8,2935.3 4921.5,2950.9 5086.8,2950.9 5086.8,2940.6 			"/>
			<polygon class="st8" points="5070.6,2919.7 4910.6,2919.7 4921.5,2940.6 5086.8,2940.6 			"/>
			<polygon class="st7" points="5410,2919.7 5111.4,2919.7 5111.4,2930.1 5128.4,2950.9 5430.8,2950.9 5430.8,2940.6 			"/>
			<polygon class="st8" points="5410,2919.7 5111.4,2919.7 5128.4,2940.6 5430.8,2940.6 			"/>
		</g>
		<g>
			<polygon class="st7" points="5033.1,2950.9 5033.1,2966.5 5049.7,2992.4 5470.1,2992.4 5470.1,2982.1 			"/>
			<polygon class="st8" points="5033.1,2950.9 5054.6,2982.1 5470.1,2982.1 5438.9,2950.9 			"/>
			<polygon class="st7" points="5017.5,2982.1 5017.5,2992.4 4839.7,2992.4 4825.6,2962.7 4825.6,2950.9 			"/>
			<polygon class="st8" points="4825.6,2950.9 4841.1,2982.1 5017.5,2982.1 5000,2950.9 			"/>
			<polygon class="st7" points="4799.2,2992.4 4638,2992.4 4629.1,2961.3 4629.1,2950.9 4799.2,2982.1 			"/>
			<polygon class="st8" points="4786,2950.9 4629.1,2950.9 4638.9,2982.1 4799.2,2982.1 			"/>
			<polygon class="st7" points="4599.3,2992.4 4429.5,2992.4 4423.2,2962.5 4423.2,2950.9 4599.3,2982.1 			"/>
			<polygon class="st8" points="4587.2,2950.9 4423.2,2950.9 4430.4,2982.1 4599.3,2982.1 			"/>
			<polygon class="st7" points="4383,2992.4 4225.5,2992.4 4221.9,2964.5 4221.9,2950.9 4383,2982.1 			"/>
			<polygon class="st8" points="4375.5,2950.9 4383,2982.1 4225.5,2982.1 4221.9,2950.9 			"/>
			<rect x="4018.9" y="2950.9" class="st7" width="160.9" height="41.5"/>
			<rect x="4018.9" y="2950.9" class="st8" width="160.9" height="31.2"/>
			<polygon class="st7" points="3822.5,2992.4 3978.2,2992.4 3978.2,2966.5 3978.2,2950.9 3828.4,2950.1 3822.2,2982.1 			"/>
			<polygon class="st8" points="3828.4,2950.1 3978.2,2950.9 3978.2,2982.1 3822.2,2982.1 			"/>
			<polygon class="st7" points="3782,2950.9 3619.1,2950.9 3614.6,2982.1 3614.6,2992.4 3778.2,2992.4 3782,2964.3 			"/>
			<polygon class="st8" points="3782,2950.9 3619.1,2950.9 3614.6,2982.1 3778.2,2982.1 			"/>
			<polygon class="st7" points="3574.7,2950.9 3413.6,2950.1 3407.5,2982.1 3407.5,2992.4 3571.1,2992.4 3574.7,2959.8 			"/>
			<polygon class="st8" points="3574.7,2950.9 3413.6,2950.1 3407.5,2982.1 3571.1,2982.1 			"/>
			<polygon class="st7" points="3376.1,2950.1 3213.8,2949.1 3204.4,2982.1 3204.4,2992.4 3369.1,2992.4 3376.1,2961.9 			"/>
			<polygon class="st8" points="3376.1,2950.1 3213.2,2951.4 3204.4,2982.1 3368,2982.1 			"/>
			<polygon class="st7" points="3164.6,2950.9 3004.4,2950.9 2991.7,2982.1 2991.7,2992.4 3155.3,2992.4 3164.6,2960.1 			"/>
			<polygon class="st8" points="3164.6,2950.9 3004.4,2950.9 2991.7,2982.1 3155.3,2982.1 			"/>
			<polygon class="st7" points="2961.3,2950.9 2547.1,2950.9 2520,2982.1 2520,2992.4 2948.2,2992.4 2961.3,2964.3 			"/>
			<polygon class="st8" points="2961.3,2950.9 2547.1,2950.9 2520,2982.1 2946.8,2982.1 			"/>
		</g>
		<g>
			<polygon class="st7" points="2469.8,3045.7 2469.8,3057.1 2658,3057.1 2686,3012.5 2686,2998.9 			"/>
			<polygon class="st8" points="2469.8,3045.7 2507.6,2998.9 2686,2998.9 2656.5,3045.7 			"/>
			<polygon class="st7" points="2684.1,3057.1 2684.1,3045.7 2891.2,2998.9 2891.2,3014.4 2868.1,3057.1 			"/>
			<polygon class="st8" points="2684.1,3045.7 2713.7,2998.9 2891.2,2998.9 2864.1,3045.7 			"/>
			<polygon class="st7" points="2897.6,3045.7 2897.6,3057.1 3082.6,3057.1 3096.7,3013.8 3096.7,2998.9 			"/>
			<polygon class="st8" points="2897.6,3045.7 2920.3,2998.9 3096.7,2998.9 3081,3045.7 			"/>
			<polygon class="st7" points="3109.5,3045.7 3109.5,3057.1 3340.7,3057.1 3352.1,3014.3 3352.1,2998.9 			"/>
			<polygon class="st8" points="3125.4,2998.9 3109.5,3045.7 3339.2,3045.7 3352.1,2998.9 			"/>
			<polygon class="st8" points="3385,2998.9 3373.9,3045.7 4419.1,3045.7 4406.4,2998.9 			"/>
			<rect x="3373.9" y="3045.7" class="st7" width="1045.2" height="11.3"/>
			<polygon class="st7" points="4446.5,3057.1 4684.7,3057.1 4684.7,3045.7 4434.3,2998.9 4434.3,3013.8 			"/>
			<polygon class="st8" points="4434.3,2998.9 4448.3,3045.7 4684.7,3045.7 4662.1,2998.9 			"/>
			<polygon class="st7" points="4692.1,2998.9 4692.1,3012.8 4711.8,3057.1 4885.9,3057.1 4885.9,3045.7 			"/>
			<polygon class="st8" points="4692.1,2998.9 4713.6,3045.7 4885.9,3045.7 4862.8,2998.9 			"/>
			<polygon class="st7" points="4917.5,3057.1 5101.5,3057.1 5101.5,3045.7 4898.5,2998.9 4898.5,3016.8 			"/>
			<polygon class="st8" points="4898.5,2998.9 4922,3045.7 5101.5,3045.7 5069,2998.9 			"/>
			<polygon class="st7" points="5129.5,3057.1 5319,3057.1 5319,3045.7 5101.5,2998.9 5101.5,3013.2 			"/>
			<polygon class="st8" points="5101.5,2998.9 5131.3,3045.7 5319,3045.7 5288.3,2998.9 			"/>
			<polygon class="st7" points="5343.3,3057.1 5530.1,3057.1 5530.1,3045.7 5319,2998.9 5319,3016.8 			"/>
			<polygon class="st8" points="5319,2998.9 5348.7,3045.7 5530.1,3045.7 5487.7,2998.9 			"/>
		</g>
		<path class="st9" d="M4311.7,3319.3c0,11.8-9.6,21.4-21.4,21.4H3637c-11.8,0-21.4-9.6-21.4-21.4l0,0c0-11.8,9.6-21.4,21.4-21.4
			h653.2C4302.1,3297.9,4311.7,3307.5,4311.7,3319.3L4311.7,3319.3z"/>
		<rect x="2551.6" y="868" class="st10" width="2852.4" height="1859.6"/>
	</g>
	<g>
		<g>
			<path class="st11" d="M2697.9,1119.3c-15.2,0-27.1-6.5-35.6-19.6c-8.5-13.1-12.8-32-12.8-56.7c0-27.2,4.4-47.7,13.3-61.6
				c8.9-13.9,21.7-20.9,38.5-20.9c32.2,0,48.2,26.3,48.2,78.8c0,26-4.5,45.9-13.6,59.6C2726.9,1112.5,2714.2,1119.3,2697.9,1119.3z
				 M2700.4,975.3c-21.9,0-32.9,22.3-32.9,66.8c0,41.6,10.8,62.4,32.3,62.4c21.2,0,31.8-21.2,31.8-63.5
				C2731.6,997.2,2721.2,975.3,2700.4,975.3z"/>
			<path class="st11" d="M2864.4,1116.7h-86.9v-15.4h34.7V981.9l-35.6,10.6v-16.7l53.2-16.2v141.7h34.6V1116.7z"/>
			<path class="st11" d="M2934.6,1119.3c-15.2,0-27.1-6.5-35.6-19.6c-8.5-13.1-12.8-32-12.8-56.7c0-27.2,4.4-47.7,13.3-61.6
				c8.9-13.9,21.7-20.9,38.5-20.9c32.2,0,48.2,26.3,48.2,78.8c0,26-4.5,45.9-13.6,59.6C2963.6,1112.5,2950.9,1119.3,2934.6,1119.3z
				 M2937.1,975.3c-21.9,0-32.9,22.3-32.9,66.8c0,41.6,10.8,62.4,32.3,62.4c21.2,0,31.8-21.2,31.8-63.5
				C2968.3,997.2,2957.9,975.3,2937.1,975.3z"/>
			<path class="st11" d="M3101.1,1116.7h-86.9v-15.4h34.7V981.9l-35.6,10.6v-16.7l53.2-16.2v141.7h34.6V1116.7z"/>
			<path class="st11" d="M3219.5,1116.7h-86.9v-15.4h34.7V981.9l-35.6,10.6v-16.7l53.2-16.2v141.7h34.6V1116.7z"/>
			<path class="st11" d="M3289.7,1119.3c-15.2,0-27.1-6.5-35.6-19.6c-8.5-13.1-12.8-32-12.8-56.7c0-27.2,4.4-47.7,13.3-61.6
				c8.9-13.9,21.7-20.9,38.5-20.9c32.2,0,48.2,26.3,48.2,78.8c0,26-4.5,45.9-13.6,59.6C3318.7,1112.5,3306,1119.3,3289.7,1119.3z
				 M3292.2,975.3c-21.9,0-32.9,22.3-32.9,66.8c0,41.6,10.8,62.4,32.3,62.4c21.2,0,31.8-21.2,31.8-63.5
				C3323.3,997.2,3312.9,975.3,3292.2,975.3z"/>
			<path class="st11" d="M3456.2,1116.7h-86.9v-15.4h34.7V981.9l-35.6,10.6v-16.7l53.2-16.2v141.7h34.6V1116.7z"/>
			<path class="st11" d="M3526.4,1119.3c-15.2,0-27.1-6.5-35.6-19.6c-8.5-13.1-12.8-32-12.8-56.7c0-27.2,4.4-47.7,13.3-61.6
				c8.9-13.9,21.7-20.9,38.5-20.9c32.2,0,48.2,26.3,48.2,78.8c0,26-4.5,45.9-13.6,59.6C3555.4,1112.5,3542.7,1119.3,3526.4,1119.3z
				 M3528.9,975.3c-21.9,0-32.9,22.3-32.9,66.8c0,41.6,10.8,62.4,32.3,62.4c21.2,0,31.8-21.2,31.8-63.5
				C3560.1,997.2,3549.7,975.3,3528.9,975.3z"/>
			<path class="st11" d="M3644.8,1119.3c-15.2,0-27.1-6.5-35.6-19.6c-8.5-13.1-12.8-32-12.8-56.7c0-27.2,4.4-47.7,13.3-61.6
				c8.9-13.9,21.7-20.9,38.5-20.9c32.2,0,48.2,26.3,48.2,78.8c0,26-4.5,45.9-13.6,59.6C3673.7,1112.5,3661,1119.3,3644.8,1119.3z
				 M3647.2,975.3c-21.9,0-32.9,22.3-32.9,66.8c0,41.6,10.8,62.4,32.3,62.4c21.2,0,31.8-21.2,31.8-63.5
				C3678.4,997.2,3668,975.3,3647.2,975.3z"/>
			<path class="st11" d="M3811.2,1116.7h-86.9v-15.4h34.7V981.9l-35.6,10.6v-16.7l53.2-16.2v141.7h34.6V1116.7z"/>
			<path class="st11" d="M3881.5,1119.3c-15.2,0-27.1-6.5-35.6-19.6c-8.5-13.1-12.8-32-12.8-56.7c0-27.2,4.4-47.7,13.3-61.6
				c8.9-13.9,21.7-20.9,38.5-20.9c32.2,0,48.2,26.3,48.2,78.8c0,26-4.5,45.9-13.6,59.6C3910.4,1112.5,3897.8,1119.3,3881.5,1119.3z
				 M3883.9,975.3c-21.9,0-32.9,22.3-32.9,66.8c0,41.6,10.8,62.4,32.3,62.4c21.2,0,31.8-21.2,31.8-63.5
				C3915.1,997.2,3904.7,975.3,3883.9,975.3z"/>
			<path class="st11" d="M4048,1116.7H3961v-15.4h34.7V981.9l-35.6,10.6v-16.7l53.2-16.2v141.7h34.6V1116.7z"/>
			<path class="st11" d="M4166.3,1116.7h-86.9v-15.4h34.7V981.9l-35.6,10.6v-16.7l53.2-16.2v141.7h34.6V1116.7z"/>
			<path class="st11" d="M4236.5,1119.3c-15.2,0-27.1-6.5-35.6-19.6c-8.5-13.1-12.8-32-12.8-56.7c0-27.2,4.4-47.7,13.3-61.6
				c8.9-13.9,21.7-20.9,38.5-20.9c32.2,0,48.2,26.3,48.2,78.8c0,26-4.5,45.9-13.6,59.6C4265.5,1112.5,4252.8,1119.3,4236.5,1119.3z
				 M4239,975.3c-21.9,0-32.9,22.3-32.9,66.8c0,41.6,10.8,62.4,32.3,62.4c21.2,0,31.8-21.2,31.8-63.5
				C4270.2,997.2,4259.8,975.3,4239,975.3z"/>
			<path class="st11" d="M4403,1116.7h-86.9v-15.4h34.7V981.9l-35.6,10.6v-16.7l53.2-16.2v141.7h34.6V1116.7z"/>
			<path class="st11" d="M4473.2,1119.3c-15.2,0-27.1-6.5-35.6-19.6c-8.5-13.1-12.8-32-12.8-56.7c0-27.2,4.4-47.7,13.3-61.6
				c8.9-13.9,21.7-20.9,38.5-20.9c32.2,0,48.2,26.3,48.2,78.8c0,26-4.5,45.9-13.6,59.6C4502.2,1112.5,4489.5,1119.3,4473.2,1119.3z
				 M4475.7,975.3c-21.9,0-32.9,22.3-32.9,66.8c0,41.6,10.8,62.4,32.3,62.4c21.2,0,31.8-21.2,31.8-63.5
				C4506.9,997.2,4496.5,975.3,4475.7,975.3z"/>
			<path class="st11" d="M4639.7,1116.7h-86.9v-15.4h34.7V981.9l-35.6,10.6v-16.7l53.2-16.2v141.7h34.6V1116.7z"/>
			<path class="st11" d="M4709.9,1119.3c-15.2,0-27.1-6.5-35.6-19.6c-8.5-13.1-12.8-32-12.8-56.7c0-27.2,4.4-47.7,13.3-61.6
				c8.9-13.9,21.7-20.9,38.5-20.9c32.2,0,48.2,26.3,48.2,78.8c0,26-4.5,45.9-13.6,59.6C4738.9,1112.5,4726.2,1119.3,4709.9,1119.3z
				 M4712.4,975.3c-21.9,0-32.9,22.3-32.9,66.8c0,41.6,10.8,62.4,32.3,62.4c21.2,0,31.8-21.2,31.8-63.5
				C4743.6,997.2,4733.2,975.3,4712.4,975.3z"/>
			<path class="st11" d="M4876.4,1116.7h-86.9v-15.4h34.7V981.9l-35.6,10.6v-16.7l53.2-16.2v141.7h34.6V1116.7z"/>
			<path class="st11" d="M4946.7,1119.3c-15.2,0-27.1-6.5-35.6-19.6c-8.5-13.1-12.8-32-12.8-56.7c0-27.2,4.4-47.7,13.3-61.6
				c8.9-13.9,21.7-20.9,38.5-20.9c32.2,0,48.2,26.3,48.2,78.8c0,26-4.5,45.9-13.6,59.6C4975.6,1112.5,4963,1119.3,4946.7,1119.3z
				 M4949.1,975.3c-21.9,0-32.9,22.3-32.9,66.8c0,41.6,10.8,62.4,32.3,62.4c21.2,0,31.8-21.2,31.8-63.5
				C4980.3,997.2,4969.9,975.3,4949.1,975.3z"/>
			<path class="st11" d="M5065,1119.3c-15.2,0-27.1-6.5-35.6-19.6c-8.5-13.1-12.8-32-12.8-56.7c0-27.2,4.4-47.7,13.3-61.6
				c8.9-13.9,21.7-20.9,38.5-20.9c32.2,0,48.2,26.3,48.2,78.8c0,26-4.5,45.9-13.6,59.6C5094,1112.5,5081.3,1119.3,5065,1119.3z
				 M5067.5,975.3c-21.9,0-32.9,22.3-32.9,66.8c0,41.6,10.8,62.4,32.3,62.4c21.2,0,31.8-21.2,31.8-63.5
				C5098.7,997.2,5088.3,975.3,5067.5,975.3z"/>
			<path class="st11" d="M5231.5,1116.7h-86.9v-15.4h34.7V981.9l-35.6,10.6v-16.7l53.2-16.2v141.7h34.6V1116.7z"/>
			<path class="st11" d="M5301.7,1119.3c-15.2,0-27.1-6.5-35.6-19.6c-8.5-13.1-12.8-32-12.8-56.7c0-27.2,4.4-47.7,13.3-61.6
				c8.9-13.9,21.7-20.9,38.5-20.9c32.2,0,48.2,26.3,48.2,78.8c0,26-4.5,45.9-13.6,59.6C5330.7,1112.5,5318,1119.3,5301.7,1119.3z
				 M5304.2,975.3c-21.9,0-32.9,22.3-32.9,66.8c0,41.6,10.8,62.4,32.3,62.4c21.2,0,31.8-21.2,31.8-63.5
				C5335.4,997.2,5325,975.3,5304.2,975.3z"/>
		</g>
		<g>
			<path class="st11" d="M2747,1364h-86.9v-15.4h34.7v-119.4l-35.6,10.6V1223l53.2-16.2v141.7h34.6V1364z"/>
			<path class="st11" d="M2817.2,1366.5c-15.2,0-27.1-6.5-35.6-19.6c-8.5-13.1-12.8-32-12.8-56.7c0-27.2,4.4-47.7,13.3-61.6
				c8.9-13.9,21.7-20.9,38.5-20.9c32.2,0,48.2,26.3,48.2,78.8c0,26-4.5,45.9-13.6,59.6C2846.2,1359.7,2833.5,1366.5,2817.2,1366.5z
				 M2819.7,1222.6c-21.9,0-32.9,22.3-32.9,66.8c0,41.6,10.8,62.4,32.3,62.4c21.2,0,31.8-21.2,31.8-63.5
				C2850.9,1244.5,2840.5,1222.6,2819.7,1222.6z"/>
			<path class="st11" d="M2983.7,1364h-86.9v-15.4h34.7v-119.4l-35.6,10.6V1223l53.2-16.2v141.7h34.6V1364z"/>
			<path class="st11" d="M3102.1,1364h-86.9v-15.4h34.7v-119.4l-35.6,10.6V1223l53.2-16.2v141.7h34.6V1364z"/>
			<path class="st11" d="M3172.3,1366.5c-15.2,0-27.1-6.5-35.6-19.6c-8.5-13.1-12.8-32-12.8-56.7c0-27.2,4.4-47.7,13.3-61.6
				c8.9-13.9,21.7-20.9,38.5-20.9c32.2,0,48.2,26.3,48.2,78.8c0,26-4.5,45.9-13.6,59.6C3201.3,1359.7,3188.6,1366.5,3172.3,1366.5z
				 M3174.7,1222.6c-21.9,0-32.9,22.3-32.9,66.8c0,41.6,10.8,62.4,32.3,62.4c21.2,0,31.8-21.2,31.8-63.5
				C3205.9,1244.5,3195.5,1222.6,3174.7,1222.6z"/>
			<path class="st11" d="M3338.8,1364h-86.9v-15.4h34.7v-119.4l-35.6,10.6V1223l53.2-16.2v141.7h34.6V1364z"/>
			<path class="st11" d="M3409,1366.5c-15.2,0-27.1-6.5-35.6-19.6c-8.5-13.1-12.8-32-12.8-56.7c0-27.2,4.4-47.7,13.3-61.6
				c8.9-13.9,21.7-20.9,38.5-20.9c32.2,0,48.2,26.3,48.2,78.8c0,26-4.5,45.9-13.6,59.6C3438,1359.7,3425.3,1366.5,3409,1366.5z
				 M3411.5,1222.6c-21.9,0-32.9,22.3-32.9,66.8c0,41.6,10.8,62.4,32.3,62.4c21.2,0,31.8-21.2,31.8-63.5
				C3442.7,1244.5,3432.3,1222.6,3411.5,1222.6z"/>
			<path class="st11" d="M3575.5,1364h-86.9v-15.4h34.7v-119.4l-35.6,10.6V1223l53.2-16.2v141.7h34.6V1364z"/>
			<path class="st11" d="M3693.8,1364h-86.9v-15.4h34.7v-119.4l-35.6,10.6V1223l53.2-16.2v141.7h34.6V1364z"/>
			<path class="st11" d="M3812.2,1364h-86.9v-15.4h34.7v-119.4l-35.6,10.6V1223l53.2-16.2v141.7h34.6V1364z"/>
			<path class="st11" d="M3882.4,1366.5c-15.2,0-27.1-6.5-35.6-19.6c-8.5-13.1-12.8-32-12.8-56.7c0-27.2,4.4-47.7,13.3-61.6
				c8.9-13.9,21.7-20.9,38.5-20.9c32.2,0,48.2,26.3,48.2,78.8c0,26-4.5,45.9-13.6,59.6C3911.4,1359.7,3898.7,1366.5,3882.4,1366.5z
				 M3884.9,1222.6c-21.9,0-32.9,22.3-32.9,66.8c0,41.6,10.8,62.4,32.3,62.4c21.2,0,31.8-21.2,31.8-63.5
				C3916.1,1244.5,3905.7,1222.6,3884.9,1222.6z"/>
			<path class="st11" d="M4048.9,1364H3962v-15.4h34.7v-119.4l-35.6,10.6V1223l53.2-16.2v141.7h34.6V1364z"/>
			<path class="st11" d="M4119.1,1366.5c-15.2,0-27.1-6.5-35.6-19.6c-8.5-13.1-12.8-32-12.8-56.7c0-27.2,4.4-47.7,13.3-61.6
				c8.9-13.9,21.7-20.9,38.5-20.9c32.2,0,48.2,26.3,48.2,78.8c0,26-4.5,45.9-13.6,59.6C4148.1,1359.7,4135.4,1366.5,4119.1,1366.5z
				 M4121.6,1222.6c-21.9,0-32.9,22.3-32.9,66.8c0,41.6,10.8,62.4,32.3,62.4c21.2,0,31.8-21.2,31.8-63.5
				C4152.8,1244.5,4142.4,1222.6,4121.6,1222.6z"/>
			<path class="st11" d="M4285.6,1364h-86.9v-15.4h34.7v-119.4l-35.6,10.6V1223l53.2-16.2v141.7h34.6V1364z"/>
			<path class="st11" d="M4355.8,1366.5c-15.2,0-27.1-6.5-35.6-19.6c-8.5-13.1-12.8-32-12.8-56.7c0-27.2,4.4-47.7,13.3-61.6
				c8.9-13.9,21.7-20.9,38.5-20.9c32.2,0,48.2,26.3,48.2,78.8c0,26-4.5,45.9-13.6,59.6C4384.8,1359.7,4372.1,1366.5,4355.8,1366.5z
				 M4358.3,1222.6c-21.9,0-32.9,22.3-32.9,66.8c0,41.6,10.8,62.4,32.3,62.4c21.2,0,31.8-21.2,31.8-63.5
				C4389.5,1244.5,4379.1,1222.6,4358.3,1222.6z"/>
			<path class="st11" d="M4522.3,1364h-86.9v-15.4h34.7v-119.4l-35.6,10.6V1223l53.2-16.2v141.7h34.6V1364z"/>
			<path class="st11" d="M4592.5,1366.5c-15.2,0-27.1-6.5-35.6-19.6c-8.5-13.1-12.8-32-12.8-56.7c0-27.2,4.4-47.7,13.3-61.6
				c8.9-13.9,21.7-20.9,38.5-20.9c32.2,0,48.2,26.3,48.2,78.8c0,26-4.5,45.9-13.6,59.6C4621.5,1359.7,4608.8,1366.5,4592.5,1366.5z
				 M4595,1222.6c-21.9,0-32.9,22.3-32.9,66.8c0,41.6,10.8,62.4,32.3,62.4c21.2,0,31.8-21.2,31.8-63.5
				C4626.2,1244.5,4615.8,1222.6,4595,1222.6z"/>
			<path class="st11" d="M4710.9,1366.5c-15.2,0-27.1-6.5-35.6-19.6c-8.5-13.1-12.8-32-12.8-56.7c0-27.2,4.4-47.7,13.3-61.6
				c8.9-13.9,21.7-20.9,38.5-20.9c32.2,0,48.2,26.3,48.2,78.8c0,26-4.5,45.9-13.6,59.6C4739.9,1359.7,4727.2,1366.5,4710.9,1366.5z
				 M4713.4,1222.6c-21.9,0-32.9,22.3-32.9,66.8c0,41.6,10.8,62.4,32.3,62.4c21.2,0,31.8-21.2,31.8-63.5
				C4744.6,1244.5,4734.2,1222.6,4713.4,1222.6z"/>
			<path class="st11" d="M4877.4,1364h-86.9v-15.4h34.7v-119.4l-35.6,10.6V1223l53.2-16.2v141.7h34.6V1364z"/>
			<path class="st11" d="M4947.6,1366.5c-15.2,0-27.1-6.5-35.6-19.6c-8.5-13.1-12.8-32-12.8-56.7c0-27.2,4.4-47.7,13.3-61.6
				c8.9-13.9,21.7-20.9,38.5-20.9c32.2,0,48.2,26.3,48.2,78.8c0,26-4.5,45.9-13.6,59.6C4976.6,1359.7,4963.9,1366.5,4947.6,1366.5z
				 M4950.1,1222.6c-21.9,0-32.9,22.3-32.9,66.8c0,41.6,10.8,62.4,32.3,62.4c21.2,0,31.8-21.2,31.8-63.5
				C4981.3,1244.5,4970.9,1222.6,4950.1,1222.6z"/>
			<path class="st11" d="M5114.1,1364h-86.9v-15.4h34.7v-119.4l-35.6,10.6V1223l53.2-16.2v141.7h34.6V1364z"/>
			<path class="st11" d="M5184.3,1366.5c-15.2,0-27.1-6.5-35.6-19.6c-8.5-13.1-12.8-32-12.8-56.7c0-27.2,4.4-47.7,13.3-61.6
				c8.9-13.9,21.7-20.9,38.5-20.9c32.2,0,48.2,26.3,48.2,78.8c0,26-4.5,45.9-13.6,59.6C5213.3,1359.7,5200.6,1366.5,5184.3,1366.5z
				 M5186.8,1222.6c-21.9,0-32.9,22.3-32.9,66.8c0,41.6,10.8,62.4,32.3,62.4c21.2,0,31.8-21.2,31.8-63.5
				C5218,1244.5,5207.6,1222.6,5186.8,1222.6z"/>
			<path class="st11" d="M5302.7,1366.5c-15.2,0-27.1-6.5-35.6-19.6c-8.5-13.1-12.8-32-12.8-56.7c0-27.2,4.4-47.7,13.3-61.6
				c8.9-13.9,21.7-20.9,38.5-20.9c32.2,0,48.2,26.3,48.2,78.8c0,26-4.5,45.9-13.6,59.6C5331.7,1359.7,5319,1366.5,5302.7,1366.5z
				 M5305.1,1222.6c-21.9,0-32.9,22.3-32.9,66.8c0,41.6,10.8,62.4,32.3,62.4c21.2,0,31.8-21.2,31.8-63.5
				C5336.3,1244.5,5325.9,1222.6,5305.1,1222.6z"/>
		</g>
		<g>
			<path class="st11" d="M2747,2616.4h-86.9v-15.4h34.7v-119.4l-35.6,10.6v-16.7l53.2-16.2v141.7h34.6V2616.4z"/>
			<path class="st11" d="M2817.2,2618.9c-15.2,0-27.1-6.5-35.6-19.6c-8.5-13.1-12.8-32-12.8-56.7c0-27.2,4.4-47.7,13.3-61.6
				c8.9-13.9,21.7-20.9,38.5-20.9c32.2,0,48.2,26.3,48.2,78.8c0,26-4.5,45.9-13.6,59.6C2846.2,2612.1,2833.5,2618.9,2817.2,2618.9z
				 M2819.7,2475c-21.9,0-32.9,22.3-32.9,66.8c0,41.6,10.8,62.4,32.3,62.4c21.2,0,31.8-21.2,31.8-63.5
				C2850.9,2496.9,2840.5,2475,2819.7,2475z"/>
			<path class="st11" d="M2983.7,2616.4h-86.9v-15.4h34.7v-119.4l-35.6,10.6v-16.7l53.2-16.2v141.7h34.6V2616.4z"/>
			<path class="st11" d="M3102.1,2616.4h-86.9v-15.4h34.7v-119.4l-35.6,10.6v-16.7l53.2-16.2v141.7h34.6V2616.4z"/>
			<path class="st11" d="M3172.3,2618.9c-15.2,0-27.1-6.5-35.6-19.6c-8.5-13.1-12.8-32-12.8-56.7c0-27.2,4.4-47.7,13.3-61.6
				c8.9-13.9,21.7-20.9,38.5-20.9c32.2,0,48.2,26.3,48.2,78.8c0,26-4.5,45.9-13.6,59.6C3201.3,2612.1,3188.6,2618.9,3172.3,2618.9z
				 M3174.7,2475c-21.9,0-32.9,22.3-32.9,66.8c0,41.6,10.8,62.4,32.3,62.4c21.2,0,31.8-21.2,31.8-63.5
				C3205.9,2496.9,3195.5,2475,3174.7,2475z"/>
			<path class="st11" d="M3338.8,2616.4h-86.9v-15.4h34.7v-119.4l-35.6,10.6v-16.7l53.2-16.2v141.7h34.6V2616.4z"/>
			<path class="st11" d="M3409,2618.9c-15.2,0-27.1-6.5-35.6-19.6c-8.5-13.1-12.8-32-12.8-56.7c0-27.2,4.4-47.7,13.3-61.6
				c8.9-13.9,21.7-20.9,38.5-20.9c32.2,0,48.2,26.3,48.2,78.8c0,26-4.5,45.9-13.6,59.6C3438,2612.1,3425.3,2618.9,3409,2618.9z
				 M3411.5,2475c-21.9,0-32.9,22.3-32.9,66.8c0,41.6,10.8,62.4,32.3,62.4c21.2,0,31.8-21.2,31.8-63.5
				C3442.7,2496.9,3432.3,2475,3411.5,2475z"/>
			<path class="st11" d="M3575.5,2616.4h-86.9v-15.4h34.7v-119.4l-35.6,10.6v-16.7l53.2-16.2v141.7h34.6V2616.4z"/>
			<path class="st11" d="M3693.8,2616.4h-86.9v-15.4h34.7v-119.4l-35.6,10.6v-16.7l53.2-16.2v141.7h34.6V2616.4z"/>
			<path class="st11" d="M3812.2,2616.4h-86.9v-15.4h34.7v-119.4l-35.6,10.6v-16.7l53.2-16.2v141.7h34.6V2616.4z"/>
			<path class="st11" d="M3882.4,2618.9c-15.2,0-27.1-6.5-35.6-19.6c-8.5-13.1-12.8-32-12.8-56.7c0-27.2,4.4-47.7,13.3-61.6
				c8.9-13.9,21.7-20.9,38.5-20.9c32.2,0,48.2,26.3,48.2,78.8c0,26-4.5,45.9-13.6,59.6C3911.4,2612.1,3898.7,2618.9,3882.4,2618.9z
				 M3884.9,2475c-21.9,0-32.9,22.3-32.9,66.8c0,41.6,10.8,62.4,32.3,62.4c21.2,0,31.8-21.2,31.8-63.5
				C3916.1,2496.9,3905.7,2475,3884.9,2475z"/>
			<path class="st11" d="M4048.9,2616.4H3962v-15.4h34.7v-119.4l-35.6,10.6v-16.7l53.2-16.2v141.7h34.6V2616.4z"/>
			<path class="st11" d="M4119.1,2618.9c-15.2,0-27.1-6.5-35.6-19.6c-8.5-13.1-12.8-32-12.8-56.7c0-27.2,4.4-47.7,13.3-61.6
				c8.9-13.9,21.7-20.9,38.5-20.9c32.2,0,48.2,26.3,48.2,78.8c0,26-4.5,45.9-13.6,59.6C4148.1,2612.1,4135.4,2618.9,4119.1,2618.9z
				 M4121.6,2475c-21.9,0-32.9,22.3-32.9,66.8c0,41.6,10.8,62.4,32.3,62.4c21.2,0,31.8-21.2,31.8-63.5
				C4152.8,2496.9,4142.4,2475,4121.6,2475z"/>
			<path class="st11" d="M4285.6,2616.4h-86.9v-15.4h34.7v-119.4l-35.6,10.6v-16.7l53.2-16.2v141.7h34.6V2616.4z"/>
			<path class="st11" d="M4355.8,2618.9c-15.2,0-27.1-6.5-35.6-19.6c-8.5-13.1-12.8-32-12.8-56.7c0-27.2,4.4-47.7,13.3-61.6
				c8.9-13.9,21.7-20.9,38.5-20.9c32.2,0,48.2,26.3,48.2,78.8c0,26-4.5,45.9-13.6,59.6C4384.8,2612.1,4372.1,2618.9,4355.8,2618.9z
				 M4358.3,2475c-21.9,0-32.9,22.3-32.9,66.8c0,41.6,10.8,62.4,32.3,62.4c21.2,0,31.8-21.2,31.8-63.5
				C4389.5,2496.9,4379.1,2475,4358.3,2475z"/>
			<path class="st11" d="M4522.3,2616.4h-86.9v-15.4h34.7v-119.4l-35.6,10.6v-16.7l53.2-16.2v141.7h34.6V2616.4z"/>
			<path class="st11" d="M4592.5,2618.9c-15.2,0-27.1-6.5-35.6-19.6c-8.5-13.1-12.8-32-12.8-56.7c0-27.2,4.4-47.7,13.3-61.6
				c8.9-13.9,21.7-20.9,38.5-20.9c32.2,0,48.2,26.3,48.2,78.8c0,26-4.5,45.9-13.6,59.6C4621.5,2612.1,4608.8,2618.9,4592.5,2618.9z
				 M4595,2475c-21.9,0-32.9,22.3-32.9,66.8c0,41.6,10.8,62.4,32.3,62.4c21.2,0,31.8-21.2,31.8-63.5
				C4626.2,2496.9,4615.8,2475,4595,2475z"/>
			<path class="st11" d="M4710.9,2618.9c-15.2,0-27.1-6.5-35.6-19.6c-8.5-13.1-12.8-32-12.8-56.7c0-27.2,4.4-47.7,13.3-61.6
				c8.9-13.9,21.7-20.9,38.5-20.9c32.2,0,48.2,26.3,48.2,78.8c0,26-4.5,45.9-13.6,59.6C4739.9,2612.1,4727.2,2618.9,4710.9,2618.9z
				 M4713.4,2475c-21.9,0-32.9,22.3-32.9,66.8c0,41.6,10.8,62.4,32.3,62.4c21.2,0,31.8-21.2,31.8-63.5
				C4744.6,2496.9,4734.2,2475,4713.4,2475z"/>
			<path class="st11" d="M4877.4,2616.4h-86.9v-15.4h34.7v-119.4l-35.6,10.6v-16.7l53.2-16.2v141.7h34.6V2616.4z"/>
			<path class="st11" d="M4947.6,2618.9c-15.2,0-27.1-6.5-35.6-19.6c-8.5-13.1-12.8-32-12.8-56.7c0-27.2,4.4-47.7,13.3-61.6
				c8.9-13.9,21.7-20.9,38.5-20.9c32.2,0,48.2,26.3,48.2,78.8c0,26-4.5,45.9-13.6,59.6C4976.6,2612.1,4963.9,2618.9,4947.6,2618.9z
				 M4950.1,2475c-21.9,0-32.9,22.3-32.9,66.8c0,41.6,10.8,62.4,32.3,62.4c21.2,0,31.8-21.2,31.8-63.5
				C4981.3,2496.9,4970.9,2475,4950.1,2475z"/>
			<path class="st11" d="M5114.1,2616.4h-86.9v-15.4h34.7v-119.4l-35.6,10.6v-16.7l53.2-16.2v141.7h34.6V2616.4z"/>
			<path class="st11" d="M5184.3,2618.9c-15.2,0-27.1-6.5-35.6-19.6c-8.5-13.1-12.8-32-12.8-56.7c0-27.2,4.4-47.7,13.3-61.6
				c8.9-13.9,21.7-20.9,38.5-20.9c32.2,0,48.2,26.3,48.2,78.8c0,26-4.5,45.9-13.6,59.6C5213.3,2612.1,5200.6,2618.9,5184.3,2618.9z
				 M5186.8,2475c-21.9,0-32.9,22.3-32.9,66.8c0,41.6,10.8,62.4,32.3,62.4c21.2,0,31.8-21.2,31.8-63.5
				C5218,2496.9,5207.6,2475,5186.8,2475z"/>
			<path class="st11" d="M5302.7,2618.9c-15.2,0-27.1-6.5-35.6-19.6c-8.5-13.1-12.8-32-12.8-56.7c0-27.2,4.4-47.7,13.3-61.6
				c8.9-13.9,21.7-20.9,38.5-20.9c32.2,0,48.2,26.3,48.2,78.8c0,26-4.5,45.9-13.6,59.6C5331.7,2612.1,5319,2618.9,5302.7,2618.9z
				 M5305.1,2475c-21.9,0-32.9,22.3-32.9,66.8c0,41.6,10.8,62.4,32.3,62.4c21.2,0,31.8-21.2,31.8-63.5
				C5336.3,2496.9,5325.9,2475,5305.1,2475z"/>
		</g>
		<g>
			<path class="st11" d="M2694.1,1596.2c-15.2,0-27.1-6.5-35.6-19.6c-8.5-13.1-12.8-32-12.8-56.7c0-27.2,4.4-47.7,13.3-61.6
				c8.9-13.9,21.7-20.9,38.5-20.9c32.2,0,48.2,26.3,48.2,78.8c0,26-4.5,45.9-13.6,59.6C2723.1,1589.3,2710.4,1596.2,2694.1,1596.2z
				 M2696.6,1452.2c-21.9,0-32.9,22.3-32.9,66.8c0,41.6,10.8,62.4,32.3,62.4c21.2,0,31.8-21.2,31.8-63.5
				C2727.8,1474.1,2717.4,1452.2,2696.6,1452.2z"/>
			<path class="st11" d="M2860.6,1593.6h-86.9v-15.4h34.7v-119.4l-35.6,10.6v-16.7l53.2-16.2v141.7h34.6V1593.6z"/>
			<path class="st11" d="M2930.8,1596.2c-15.2,0-27.1-6.5-35.6-19.6c-8.5-13.1-12.8-32-12.8-56.7c0-27.2,4.4-47.7,13.3-61.6
				c8.9-13.9,21.7-20.9,38.5-20.9c32.2,0,48.2,26.3,48.2,78.8c0,26-4.5,45.9-13.6,59.6C2959.8,1589.3,2947.1,1596.2,2930.8,1596.2z
				 M2933.3,1452.2c-21.9,0-32.9,22.3-32.9,66.8c0,41.6,10.8,62.4,32.3,62.4c21.2,0,31.8-21.2,31.8-63.5
				C2964.5,1474.1,2954.1,1452.2,2933.3,1452.2z"/>
			<path class="st11" d="M3097.3,1593.6h-86.9v-15.4h34.7v-119.4l-35.6,10.6v-16.7l53.2-16.2v141.7h34.6V1593.6z"/>
			<path class="st11" d="M3215.7,1593.6h-86.9v-15.4h34.7v-119.4l-35.6,10.6v-16.7l53.2-16.2v141.7h34.6V1593.6z"/>
			<path class="st11" d="M3285.9,1596.2c-15.2,0-27.1-6.5-35.6-19.6c-8.5-13.1-12.8-32-12.8-56.7c0-27.2,4.4-47.7,13.3-61.6
				c8.9-13.9,21.7-20.9,38.5-20.9c32.2,0,48.2,26.3,48.2,78.8c0,26-4.5,45.9-13.6,59.6C3314.9,1589.3,3302.2,1596.2,3285.9,1596.2z
				 M3288.3,1452.2c-21.9,0-32.9,22.3-32.9,66.8c0,41.6,10.8,62.4,32.3,62.4c21.2,0,31.8-21.2,31.8-63.5
				C3319.5,1474.1,3309.1,1452.2,3288.3,1452.2z"/>
			<path class="st11" d="M3452.4,1593.6h-86.9v-15.4h34.7v-119.4l-35.6,10.6v-16.7l53.2-16.2v141.7h34.6V1593.6z"/>
			<path class="st11" d="M3522.6,1596.2c-15.2,0-27.1-6.5-35.6-19.6c-8.5-13.1-12.8-32-12.8-56.7c0-27.2,4.4-47.7,13.3-61.6
				c8.9-13.9,21.7-20.9,38.5-20.9c32.2,0,48.2,26.3,48.2,78.8c0,26-4.5,45.9-13.6,59.6C3551.6,1589.3,3538.9,1596.2,3522.6,1596.2z
				 M3525.1,1452.2c-21.9,0-32.9,22.3-32.9,66.8c0,41.6,10.8,62.4,32.3,62.4c21.2,0,31.8-21.2,31.8-63.5
				C3556.3,1474.1,3545.9,1452.2,3525.1,1452.2z"/>
			<path class="st11" d="M3640.9,1596.2c-15.2,0-27.1-6.5-35.6-19.6c-8.5-13.1-12.8-32-12.8-56.7c0-27.2,4.4-47.7,13.3-61.6
				c8.9-13.9,21.7-20.9,38.5-20.9c32.2,0,48.2,26.3,48.2,78.8c0,26-4.5,45.9-13.6,59.6C3669.9,1589.3,3657.2,1596.2,3640.9,1596.2z
				 M3643.4,1452.2c-21.9,0-32.9,22.3-32.9,66.8c0,41.6,10.8,62.4,32.3,62.4c21.2,0,31.8-21.2,31.8-63.5
				C3674.6,1474.1,3664.2,1452.2,3643.4,1452.2z"/>
			<path class="st11" d="M3807.4,1593.6h-86.9v-15.4h34.7v-119.4l-35.6,10.6v-16.7l53.2-16.2v141.7h34.6V1593.6z"/>
			<path class="st11" d="M3877.7,1596.2c-15.2,0-27.1-6.5-35.6-19.6c-8.5-13.1-12.8-32-12.8-56.7c0-27.2,4.4-47.7,13.3-61.6
				c8.9-13.9,21.7-20.9,38.5-20.9c32.2,0,48.2,26.3,48.2,78.8c0,26-4.5,45.9-13.6,59.6C3906.6,1589.3,3894,1596.2,3877.7,1596.2z
				 M3880.1,1452.2c-21.9,0-32.9,22.3-32.9,66.8c0,41.6,10.8,62.4,32.3,62.4c21.2,0,31.8-21.2,31.8-63.5
				C3911.3,1474.1,3900.9,1452.2,3880.1,1452.2z"/>
			<path class="st11" d="M4044.2,1593.6h-86.9v-15.4h34.7v-119.4l-35.6,10.6v-16.7l53.2-16.2v141.7h34.6V1593.6z"/>
			<path class="st11" d="M4162.5,1593.6h-86.9v-15.4h34.7v-119.4l-35.6,10.6v-16.7l53.2-16.2v141.7h34.6V1593.6z"/>
			<path class="st11" d="M4232.7,1596.2c-15.2,0-27.1-6.5-35.6-19.6c-8.5-13.1-12.8-32-12.8-56.7c0-27.2,4.4-47.7,13.3-61.6
				c8.9-13.9,21.7-20.9,38.5-20.9c32.2,0,48.2,26.3,48.2,78.8c0,26-4.5,45.9-13.6,59.6C4261.7,1589.3,4249,1596.2,4232.7,1596.2z
				 M4235.2,1452.2c-21.9,0-32.9,22.3-32.9,66.8c0,41.6,10.8,62.4,32.3,62.4c21.2,0,31.8-21.2,31.8-63.5
				C4266.4,1474.1,4256,1452.2,4235.2,1452.2z"/>
			<path class="st11" d="M4399.2,1593.6h-86.9v-15.4h34.7v-119.4l-35.6,10.6v-16.7l53.2-16.2v141.7h34.6V1593.6z"/>
			<path class="st11" d="M4469.4,1596.2c-15.2,0-27.1-6.5-35.6-19.6c-8.5-13.1-12.8-32-12.8-56.7c0-27.2,4.4-47.7,13.3-61.6
				c8.9-13.9,21.7-20.9,38.5-20.9c32.2,0,48.2,26.3,48.2,78.8c0,26-4.5,45.9-13.6,59.6C4498.4,1589.3,4485.7,1596.2,4469.4,1596.2z
				 M4471.9,1452.2c-21.9,0-32.9,22.3-32.9,66.8c0,41.6,10.8,62.4,32.3,62.4c21.2,0,31.8-21.2,31.8-63.5
				C4503.1,1474.1,4492.7,1452.2,4471.9,1452.2z"/>
			<path class="st11" d="M4635.9,1593.6H4549v-15.4h34.7v-119.4l-35.6,10.6v-16.7l53.2-16.2v141.7h34.6V1593.6z"/>
			<path class="st11" d="M4706.1,1596.2c-15.2,0-27.1-6.5-35.6-19.6c-8.5-13.1-12.8-32-12.8-56.7c0-27.2,4.4-47.7,13.3-61.6
				c8.9-13.9,21.7-20.9,38.5-20.9c32.2,0,48.2,26.3,48.2,78.8c0,26-4.5,45.9-13.6,59.6C4735.1,1589.3,4722.4,1596.2,4706.1,1596.2z
				 M4708.6,1452.2c-21.9,0-32.9,22.3-32.9,66.8c0,41.6,10.8,62.4,32.3,62.4c21.2,0,31.8-21.2,31.8-63.5
				C4739.8,1474.1,4729.4,1452.2,4708.6,1452.2z"/>
			<path class="st11" d="M4872.6,1593.6h-86.9v-15.4h34.7v-119.4l-35.6,10.6v-16.7l53.2-16.2v141.7h34.6V1593.6z"/>
			<path class="st11" d="M4942.9,1596.2c-15.2,0-27.1-6.5-35.6-19.6c-8.5-13.1-12.8-32-12.8-56.7c0-27.2,4.4-47.7,13.3-61.6
				c8.9-13.9,21.7-20.9,38.5-20.9c32.2,0,48.2,26.3,48.2,78.8c0,26-4.5,45.9-13.6,59.6C4971.8,1589.3,4959.2,1596.2,4942.9,1596.2z
				 M4945.3,1452.2c-21.9,0-32.9,22.3-32.9,66.8c0,41.6,10.8,62.4,32.3,62.4c21.2,0,31.8-21.2,31.8-63.5
				C4976.5,1474.1,4966.1,1452.2,4945.3,1452.2z"/>
			<path class="st11" d="M5061.2,1596.2c-15.2,0-27.1-6.5-35.6-19.6c-8.5-13.1-12.8-32-12.8-56.7c0-27.2,4.4-47.7,13.3-61.6
				c8.9-13.9,21.7-20.9,38.5-20.9c32.2,0,48.2,26.3,48.2,78.8c0,26-4.5,45.9-13.6,59.6C5090.2,1589.3,5077.5,1596.2,5061.2,1596.2z
				 M5063.7,1452.2c-21.9,0-32.9,22.3-32.9,66.8c0,41.6,10.8,62.4,32.3,62.4c21.2,0,31.8-21.2,31.8-63.5
				C5094.9,1474.1,5084.5,1452.2,5063.7,1452.2z"/>
			<path class="st11" d="M5227.7,1593.6h-86.9v-15.4h34.7v-119.4l-35.6,10.6v-16.7l53.2-16.2v141.7h34.6V1593.6z"/>
			<path class="st11" d="M5297.9,1596.2c-15.2,0-27.1-6.5-35.6-19.6c-8.5-13.1-12.8-32-12.8-56.7c0-27.2,4.4-47.7,13.3-61.6
				c8.9-13.9,21.7-20.9,38.5-20.9c32.2,0,48.2,26.3,48.2,78.8c0,26-4.5,45.9-13.6,59.6C5326.9,1589.3,5314.2,1596.2,5297.9,1596.2z
				 M5300.4,1452.2c-21.9,0-32.9,22.3-32.9,66.8c0,41.6,10.8,62.4,32.3,62.4c21.2,0,31.8-21.2,31.8-63.5
				C5331.6,1474.1,5321.2,1452.2,5300.4,1452.2z"/>
		</g>
		<g>
			<path class="st11" d="M2694.1,2351.7c-15.2,0-27.1-6.5-35.6-19.6c-8.5-13.1-12.8-32-12.8-56.7c0-27.2,4.4-47.7,13.3-61.6
				c8.9-13.9,21.7-20.9,38.5-20.9c32.2,0,48.2,26.3,48.2,78.8c0,26-4.5,45.9-13.6,59.6C2723.1,2344.9,2710.4,2351.7,2694.1,2351.7z
				 M2696.6,2207.8c-21.9,0-32.9,22.3-32.9,66.8c0,41.6,10.8,62.4,32.3,62.4c21.2,0,31.8-21.2,31.8-63.5
				C2727.8,2229.7,2717.4,2207.8,2696.6,2207.8z"/>
			<path class="st11" d="M2860.6,2349.2h-86.9v-15.4h34.7v-119.4l-35.6,10.6v-16.7l53.2-16.2v141.7h34.6V2349.2z"/>
			<path class="st11" d="M2930.8,2351.7c-15.2,0-27.1-6.5-35.6-19.6c-8.5-13.1-12.8-32-12.8-56.7c0-27.2,4.4-47.7,13.3-61.6
				c8.9-13.9,21.7-20.9,38.5-20.9c32.2,0,48.2,26.3,48.2,78.8c0,26-4.5,45.9-13.6,59.6C2959.8,2344.9,2947.1,2351.7,2930.8,2351.7z
				 M2933.3,2207.8c-21.9,0-32.9,22.3-32.9,66.8c0,41.6,10.8,62.4,32.3,62.4c21.2,0,31.8-21.2,31.8-63.5
				C2964.5,2229.7,2954.1,2207.8,2933.3,2207.8z"/>
			<path class="st11" d="M3097.3,2349.2h-86.9v-15.4h34.7v-119.4l-35.6,10.6v-16.7l53.2-16.2v141.7h34.6V2349.2z"/>
			<path class="st11" d="M3215.7,2349.2h-86.9v-15.4h34.7v-119.4l-35.6,10.6v-16.7l53.2-16.2v141.7h34.6V2349.2z"/>
			<path class="st11" d="M3285.9,2351.7c-15.2,0-27.1-6.5-35.6-19.6c-8.5-13.1-12.8-32-12.8-56.7c0-27.2,4.4-47.7,13.3-61.6
				c8.9-13.9,21.7-20.9,38.5-20.9c32.2,0,48.2,26.3,48.2,78.8c0,26-4.5,45.9-13.6,59.6C3314.9,2344.9,3302.2,2351.7,3285.9,2351.7z
				 M3288.3,2207.8c-21.9,0-32.9,22.3-32.9,66.8c0,41.6,10.8,62.4,32.3,62.4c21.2,0,31.8-21.2,31.8-63.5
				C3319.5,2229.7,3309.1,2207.8,3288.3,2207.8z"/>
			<path class="st11" d="M3452.4,2349.2h-86.9v-15.4h34.7v-119.4l-35.6,10.6v-16.7l53.2-16.2v141.7h34.6V2349.2z"/>
			<path class="st11" d="M3522.6,2351.7c-15.2,0-27.1-6.5-35.6-19.6c-8.5-13.1-12.8-32-12.8-56.7c0-27.2,4.4-47.7,13.3-61.6
				c8.9-13.9,21.7-20.9,38.5-20.9c32.2,0,48.2,26.3,48.2,78.8c0,26-4.5,45.9-13.6,59.6C3551.6,2344.9,3538.9,2351.7,3522.6,2351.7z
				 M3525.1,2207.8c-21.9,0-32.9,22.3-32.9,66.8c0,41.6,10.8,62.4,32.3,62.4c21.2,0,31.8-21.2,31.8-63.5
				C3556.3,2229.7,3545.9,2207.8,3525.1,2207.8z"/>
			<path class="st11" d="M3640.9,2351.7c-15.2,0-27.1-6.5-35.6-19.6c-8.5-13.1-12.8-32-12.8-56.7c0-27.2,4.4-47.7,13.3-61.6
				c8.9-13.9,21.7-20.9,38.5-20.9c32.2,0,48.2,26.3,48.2,78.8c0,26-4.5,45.9-13.6,59.6C3669.9,2344.9,3657.2,2351.7,3640.9,2351.7z
				 M3643.4,2207.8c-21.9,0-32.9,22.3-32.9,66.8c0,41.6,10.8,62.4,32.3,62.4c21.2,0,31.8-21.2,31.8-63.5
				C3674.6,2229.7,3664.2,2207.8,3643.4,2207.8z"/>
			<path class="st11" d="M3807.4,2349.2h-86.9v-15.4h34.7v-119.4l-35.6,10.6v-16.7l53.2-16.2v141.7h34.6V2349.2z"/>
			<path class="st11" d="M3877.7,2351.7c-15.2,0-27.1-6.5-35.6-19.6c-8.5-13.1-12.8-32-12.8-56.7c0-27.2,4.4-47.7,13.3-61.6
				c8.9-13.9,21.7-20.9,38.5-20.9c32.2,0,48.2,26.3,48.2,78.8c0,26-4.5,45.9-13.6,59.6C3906.6,2344.9,3894,2351.7,3877.7,2351.7z
				 M3880.1,2207.8c-21.9,0-32.9,22.3-32.9,66.8c0,41.6,10.8,62.4,32.3,62.4c21.2,0,31.8-21.2,31.8-63.5
				C3911.3,2229.7,3900.9,2207.8,3880.1,2207.8z"/>
			<path class="st11" d="M4044.2,2349.2h-86.9v-15.4h34.7v-119.4l-35.6,10.6v-16.7l53.2-16.2v141.7h34.6V2349.2z"/>
			<path class="st11" d="M4162.5,2349.2h-86.9v-15.4h34.7v-119.4l-35.6,10.6v-16.7l53.2-16.2v141.7h34.6V2349.2z"/>
			<path class="st11" d="M4232.7,2351.7c-15.2,0-27.1-6.5-35.6-19.6c-8.5-13.1-12.8-32-12.8-56.7c0-27.2,4.4-47.7,13.3-61.6
				c8.9-13.9,21.7-20.9,38.5-20.9c32.2,0,48.2,26.3,48.2,78.8c0,26-4.5,45.9-13.6,59.6C4261.7,2344.9,4249,2351.7,4232.7,2351.7z
				 M4235.2,2207.8c-21.9,0-32.9,22.3-32.9,66.8c0,41.6,10.8,62.4,32.3,62.4c21.2,0,31.8-21.2,31.8-63.5
				C4266.4,2229.7,4256,2207.8,4235.2,2207.8z"/>
			<path class="st11" d="M4399.2,2349.2h-86.9v-15.4h34.7v-119.4l-35.6,10.6v-16.7l53.2-16.2v141.7h34.6V2349.2z"/>
			<path class="st11" d="M4469.4,2351.7c-15.2,0-27.1-6.5-35.6-19.6c-8.5-13.1-12.8-32-12.8-56.7c0-27.2,4.4-47.7,13.3-61.6
				c8.9-13.9,21.7-20.9,38.5-20.9c32.2,0,48.2,26.3,48.2,78.8c0,26-4.5,45.9-13.6,59.6C4498.4,2344.9,4485.7,2351.7,4469.4,2351.7z
				 M4471.9,2207.8c-21.9,0-32.9,22.3-32.9,66.8c0,41.6,10.8,62.4,32.3,62.4c21.2,0,31.8-21.2,31.8-63.5
				C4503.1,2229.7,4492.7,2207.8,4471.9,2207.8z"/>
			<path class="st11" d="M4635.9,2349.2H4549v-15.4h34.7v-119.4l-35.6,10.6v-16.7l53.2-16.2v141.7h34.6V2349.2z"/>
			<path class="st11" d="M4706.1,2351.7c-15.2,0-27.1-6.5-35.6-19.6c-8.5-13.1-12.8-32-12.8-56.7c0-27.2,4.4-47.7,13.3-61.6
				c8.9-13.9,21.7-20.9,38.5-20.9c32.2,0,48.2,26.3,48.2,78.8c0,26-4.5,45.9-13.6,59.6C4735.1,2344.9,4722.4,2351.7,4706.1,2351.7z
				 M4708.6,2207.8c-21.9,0-32.9,22.3-32.9,66.8c0,41.6,10.8,62.4,32.3,62.4c21.2,0,31.8-21.2,31.8-63.5
				C4739.8,2229.7,4729.4,2207.8,4708.6,2207.8z"/>
			<path class="st11" d="M4872.6,2349.2h-86.9v-15.4h34.7v-119.4l-35.6,10.6v-16.7l53.2-16.2v141.7h34.6V2349.2z"/>
			<path class="st11" d="M4942.9,2351.7c-15.2,0-27.1-6.5-35.6-19.6c-8.5-13.1-12.8-32-12.8-56.7c0-27.2,4.4-47.7,13.3-61.6
				c8.9-13.9,21.7-20.9,38.5-20.9c32.2,0,48.2,26.3,48.2,78.8c0,26-4.5,45.9-13.6,59.6C4971.8,2344.9,4959.2,2351.7,4942.9,2351.7z
				 M4945.3,2207.8c-21.9,0-32.9,22.3-32.9,66.8c0,41.6,10.8,62.4,32.3,62.4c21.2,0,31.8-21.2,31.8-63.5
				C4976.5,2229.7,4966.1,2207.8,4945.3,2207.8z"/>
			<path class="st11" d="M5061.2,2351.7c-15.2,0-27.1-6.5-35.6-19.6c-8.5-13.1-12.8-32-12.8-56.7c0-27.2,4.4-47.7,13.3-61.6
				c8.9-13.9,21.7-20.9,38.5-20.9c32.2,0,48.2,26.3,48.2,78.8c0,26-4.5,45.9-13.6,59.6C5090.2,2344.9,5077.5,2351.7,5061.2,2351.7z
				 M5063.7,2207.8c-21.9,0-32.9,22.3-32.9,66.8c0,41.6,10.8,62.4,32.3,62.4c21.2,0,31.8-21.2,31.8-63.5
				C5094.9,2229.7,5084.5,2207.8,5063.7,2207.8z"/>
			<path class="st11" d="M5227.7,2349.2h-86.9v-15.4h34.7v-119.4l-35.6,10.6v-16.7l53.2-16.2v141.7h34.6V2349.2z"/>
			<path class="st11" d="M5297.9,2351.7c-15.2,0-27.1-6.5-35.6-19.6c-8.5-13.1-12.8-32-12.8-56.7c0-27.2,4.4-47.7,13.3-61.6
				c8.9-13.9,21.7-20.9,38.5-20.9c32.2,0,48.2,26.3,48.2,78.8c0,26-4.5,45.9-13.6,59.6C5326.9,2344.9,5314.2,2351.7,5297.9,2351.7z
				 M5300.4,2207.8c-21.9,0-32.9,22.3-32.9,66.8c0,41.6,10.8,62.4,32.3,62.4c21.2,0,31.8-21.2,31.8-63.5
				C5331.6,2229.7,5321.2,2207.8,5300.4,2207.8z"/>
		</g>
		<g>
			<path class="st11" d="M2743.2,1840.8h-86.9v-15.4h34.7v-119.4l-35.6,10.6v-16.7l53.2-16.2v141.7h34.6V1840.8z"/>
			<path class="st11" d="M2813.4,1843.4c-15.2,0-27.1-6.5-35.6-19.6c-8.5-13.1-12.8-32-12.8-56.7c0-27.2,4.4-47.7,13.3-61.6
				c8.9-13.9,21.7-20.9,38.5-20.9c32.2,0,48.2,26.3,48.2,78.8c0,26-4.5,45.9-13.6,59.6C2842.4,1836.5,2829.7,1843.4,2813.4,1843.4z
				 M2815.9,1699.4c-21.9,0-32.9,22.3-32.9,66.8c0,41.6,10.8,62.4,32.3,62.4c21.2,0,31.8-21.2,31.8-63.5
				C2847.1,1721.3,2836.7,1699.4,2815.9,1699.4z"/>
			<path class="st11" d="M2979.9,1840.8H2893v-15.4h34.7v-119.4l-35.6,10.6v-16.7l53.2-16.2v141.7h34.6V1840.8z"/>
			<path class="st11" d="M3098.3,1840.8h-86.9v-15.4h34.7v-119.4l-35.6,10.6v-16.7l53.2-16.2v141.7h34.6V1840.8z"/>
			<path class="st11" d="M3168.5,1843.4c-15.2,0-27.1-6.5-35.6-19.6c-8.5-13.1-12.8-32-12.8-56.7c0-27.2,4.4-47.7,13.3-61.6
				c8.9-13.9,21.7-20.9,38.5-20.9c32.2,0,48.2,26.3,48.2,78.8c0,26-4.5,45.9-13.6,59.6C3197.5,1836.5,3184.8,1843.4,3168.5,1843.4z
				 M3170.9,1699.4c-21.9,0-32.9,22.3-32.9,66.8c0,41.6,10.8,62.4,32.3,62.4c21.2,0,31.8-21.2,31.8-63.5
				C3202.1,1721.3,3191.7,1699.4,3170.9,1699.4z"/>
			<path class="st11" d="M3335,1840.8H3248v-15.4h34.7v-119.4l-35.6,10.6v-16.7l53.2-16.2v141.7h34.6V1840.8z"/>
			<path class="st11" d="M3405.2,1843.4c-15.2,0-27.1-6.5-35.6-19.6c-8.5-13.1-12.8-32-12.8-56.7c0-27.2,4.4-47.7,13.3-61.6
				c8.9-13.9,21.7-20.9,38.5-20.9c32.2,0,48.2,26.3,48.2,78.8c0,26-4.5,45.9-13.6,59.6C3434.2,1836.5,3421.5,1843.4,3405.2,1843.4z
				 M3407.7,1699.4c-21.9,0-32.9,22.3-32.9,66.8c0,41.6,10.8,62.4,32.3,62.4c21.2,0,31.8-21.2,31.8-63.5
				C3438.9,1721.3,3428.5,1699.4,3407.7,1699.4z"/>
			<path class="st11" d="M3571.7,1840.8h-86.9v-15.4h34.7v-119.4l-35.6,10.6v-16.7l53.2-16.2v141.7h34.6V1840.8z"/>
			<path class="st11" d="M3690,1840.8h-86.9v-15.4h34.7v-119.4l-35.6,10.6v-16.7l53.2-16.2v141.7h34.6V1840.8z"/>
			<path class="st11" d="M3808.4,1840.8h-86.9v-15.4h34.7v-119.4l-35.6,10.6v-16.7l53.2-16.2v141.7h34.6V1840.8z"/>
			<path class="st11" d="M3878.6,1843.4c-15.2,0-27.1-6.5-35.6-19.6c-8.5-13.1-12.8-32-12.8-56.7c0-27.2,4.4-47.7,13.3-61.6
				c8.9-13.9,21.7-20.9,38.5-20.9c32.2,0,48.2,26.3,48.2,78.8c0,26-4.5,45.9-13.6,59.6C3907.6,1836.5,3894.9,1843.4,3878.6,1843.4z
				 M3881.1,1699.4c-21.9,0-32.9,22.3-32.9,66.8c0,41.6,10.8,62.4,32.3,62.4c21.2,0,31.8-21.2,31.8-63.5
				C3912.3,1721.3,3901.9,1699.4,3881.1,1699.4z"/>
			<path class="st11" d="M4045.1,1840.8h-86.9v-15.4h34.7v-119.4l-35.6,10.6v-16.7l53.2-16.2v141.7h34.6V1840.8z"/>
			<path class="st11" d="M4115.3,1843.4c-15.2,0-27.1-6.5-35.6-19.6c-8.5-13.1-12.8-32-12.8-56.7c0-27.2,4.4-47.7,13.3-61.6
				c8.9-13.9,21.7-20.9,38.5-20.9c32.2,0,48.2,26.3,48.2,78.8c0,26-4.5,45.9-13.6,59.6C4144.3,1836.5,4131.6,1843.4,4115.3,1843.4z
				 M4117.8,1699.4c-21.9,0-32.9,22.3-32.9,66.8c0,41.6,10.8,62.4,32.3,62.4c21.2,0,31.8-21.2,31.8-63.5
				C4149,1721.3,4138.6,1699.4,4117.8,1699.4z"/>
			<path class="st11" d="M4281.8,1840.8h-86.9v-15.4h34.7v-119.4l-35.6,10.6v-16.7l53.2-16.2v141.7h34.6V1840.8z"/>
			<path class="st11" d="M4352,1843.4c-15.2,0-27.1-6.5-35.6-19.6c-8.5-13.1-12.8-32-12.8-56.7c0-27.2,4.4-47.7,13.3-61.6
				c8.9-13.9,21.7-20.9,38.5-20.9c32.2,0,48.2,26.3,48.2,78.8c0,26-4.5,45.9-13.6,59.6C4381,1836.5,4368.3,1843.4,4352,1843.4z
				 M4354.5,1699.4c-21.9,0-32.9,22.3-32.9,66.8c0,41.6,10.8,62.4,32.3,62.4c21.2,0,31.8-21.2,31.8-63.5
				C4385.7,1721.3,4375.3,1699.4,4354.5,1699.4z"/>
			<path class="st11" d="M4518.5,1840.8h-86.9v-15.4h34.7v-119.4l-35.6,10.6v-16.7l53.2-16.2v141.7h34.6V1840.8z"/>
			<path class="st11" d="M4588.7,1843.4c-15.2,0-27.1-6.5-35.6-19.6c-8.5-13.1-12.8-32-12.8-56.7c0-27.2,4.4-47.7,13.3-61.6
				c8.9-13.9,21.7-20.9,38.5-20.9c32.2,0,48.2,26.3,48.2,78.8c0,26-4.5,45.9-13.6,59.6C4617.7,1836.5,4605,1843.4,4588.7,1843.4z
				 M4591.2,1699.4c-21.9,0-32.9,22.3-32.9,66.8c0,41.6,10.8,62.4,32.3,62.4c21.2,0,31.8-21.2,31.8-63.5
				C4622.4,1721.3,4612,1699.4,4591.2,1699.4z"/>
			<path class="st11" d="M4707.1,1843.4c-15.2,0-27.1-6.5-35.6-19.6c-8.5-13.1-12.8-32-12.8-56.7c0-27.2,4.4-47.7,13.3-61.6
				c8.9-13.9,21.7-20.9,38.5-20.9c32.2,0,48.2,26.3,48.2,78.8c0,26-4.5,45.9-13.6,59.6C4736.1,1836.5,4723.4,1843.4,4707.1,1843.4z
				 M4709.6,1699.4c-21.9,0-32.9,22.3-32.9,66.8c0,41.6,10.8,62.4,32.3,62.4c21.2,0,31.8-21.2,31.8-63.5
				C4740.8,1721.3,4730.4,1699.4,4709.6,1699.4z"/>
			<path class="st11" d="M4873.6,1840.8h-86.9v-15.4h34.7v-119.4l-35.6,10.6v-16.7l53.2-16.2v141.7h34.6V1840.8z"/>
			<path class="st11" d="M4943.8,1843.4c-15.2,0-27.1-6.5-35.6-19.6c-8.5-13.1-12.8-32-12.8-56.7c0-27.2,4.4-47.7,13.3-61.6
				c8.9-13.9,21.7-20.9,38.5-20.9c32.2,0,48.2,26.3,48.2,78.8c0,26-4.5,45.9-13.6,59.6C4972.8,1836.5,4960.1,1843.4,4943.8,1843.4z
				 M4946.3,1699.4c-21.9,0-32.9,22.3-32.9,66.8c0,41.6,10.8,62.4,32.3,62.4c21.2,0,31.8-21.2,31.8-63.5
				C4977.5,1721.3,4967.1,1699.4,4946.3,1699.4z"/>
			<path class="st11" d="M5110.3,1840.8h-86.9v-15.4h34.7v-119.4l-35.6,10.6v-16.7l53.2-16.2v141.7h34.6V1840.8z"/>
			<path class="st11" d="M5180.5,1843.4c-15.2,0-27.1-6.5-35.6-19.6c-8.5-13.1-12.8-32-12.8-56.7c0-27.2,4.4-47.7,13.3-61.6
				c8.9-13.9,21.7-20.9,38.5-20.9c32.2,0,48.2,26.3,48.2,78.8c0,26-4.5,45.9-13.6,59.6C5209.5,1836.5,5196.8,1843.4,5180.5,1843.4z
				 M5183,1699.4c-21.9,0-32.9,22.3-32.9,66.8c0,41.6,10.8,62.4,32.3,62.4c21.2,0,31.8-21.2,31.8-63.5
				C5214.2,1721.3,5203.8,1699.4,5183,1699.4z"/>
			<path class="st11" d="M5298.9,1843.4c-15.2,0-27.1-6.5-35.6-19.6c-8.5-13.1-12.8-32-12.8-56.7c0-27.2,4.4-47.7,13.3-61.6
				c8.9-13.9,21.7-20.9,38.5-20.9c32.2,0,48.2,26.3,48.2,78.8c0,26-4.5,45.9-13.6,59.6C5327.9,1836.5,5315.2,1843.4,5298.9,1843.4z
				 M5301.3,1699.4c-21.9,0-32.9,22.3-32.9,66.8c0,41.6,10.8,62.4,32.3,62.4c21.2,0,31.8-21.2,31.8-63.5
				C5332.5,1721.3,5322.1,1699.4,5301.3,1699.4z"/>
		</g>
		<g>
			<path class="st11" d="M2743.2,2100.9h-86.9v-15.4h34.7v-119.4l-35.6,10.6v-16.7l53.2-16.2v141.7h34.6V2100.9z"/>
			<path class="st11" d="M2861.6,2100.9h-86.9v-15.4h34.7v-119.4l-35.6,10.6v-16.7l53.2-16.2v141.7h34.6V2100.9z"/>
			<path class="st11" d="M2931.8,2103.5c-15.2,0-27.1-6.5-35.6-19.6c-8.5-13.1-12.8-32-12.8-56.7c0-27.2,4.4-47.7,13.3-61.6
				c8.9-13.9,21.7-20.9,38.5-20.9c32.2,0,48.2,26.3,48.2,78.8c0,26-4.5,45.9-13.6,59.6C2960.8,2096.6,2948.1,2103.5,2931.8,2103.5z
				 M2934.2,1959.5c-21.9,0-32.9,22.3-32.9,66.8c0,41.6,10.8,62.4,32.3,62.4c21.2,0,31.8-21.2,31.8-63.5
				C2965.4,1981.4,2955,1959.5,2934.2,1959.5z"/>
			<path class="st11" d="M3098.3,2100.9h-86.9v-15.4h34.7v-119.4l-35.6,10.6v-16.7l53.2-16.2v141.7h34.6V2100.9z"/>
			<path class="st11" d="M3168.5,2103.5c-15.2,0-27.1-6.5-35.6-19.6c-8.5-13.1-12.8-32-12.8-56.7c0-27.2,4.4-47.7,13.3-61.6
				c8.9-13.9,21.7-20.9,38.5-20.9c32.2,0,48.2,26.3,48.2,78.8c0,26-4.5,45.9-13.6,59.6C3197.5,2096.6,3184.8,2103.5,3168.5,2103.5z
				 M3170.9,1959.5c-21.9,0-32.9,22.3-32.9,66.8c0,41.6,10.8,62.4,32.3,62.4c21.2,0,31.8-21.2,31.8-63.5
				C3202.1,1981.4,3191.7,1959.5,3170.9,1959.5z"/>
			<path class="st11" d="M3335,2100.9H3248v-15.4h34.7v-119.4l-35.6,10.6v-16.7l53.2-16.2v141.7h34.6V2100.9z"/>
			<path class="st11" d="M3453.3,2100.9h-86.9v-15.4h34.7v-119.4l-35.6,10.6v-16.7l53.2-16.2v141.7h34.6V2100.9z"/>
			<path class="st11" d="M3571.7,2100.9h-86.9v-15.4h34.7v-119.4l-35.6,10.6v-16.7l53.2-16.2v141.7h34.6V2100.9z"/>
			<path class="st11" d="M3641.9,2103.5c-15.2,0-27.1-6.5-35.6-19.6c-8.5-13.1-12.8-32-12.8-56.7c0-27.2,4.4-47.7,13.3-61.6
				c8.9-13.9,21.7-20.9,38.5-20.9c32.2,0,48.2,26.3,48.2,78.8c0,26-4.5,45.9-13.6,59.6C3670.9,2096.6,3658.2,2103.5,3641.9,2103.5z
				 M3644.4,1959.5c-21.9,0-32.9,22.3-32.9,66.8c0,41.6,10.8,62.4,32.3,62.4c21.2,0,31.8-21.2,31.8-63.5
				C3675.6,1981.4,3665.2,1959.5,3644.4,1959.5z"/>
			<path class="st11" d="M3808.4,2100.9h-86.9v-15.4h34.7v-119.4l-35.6,10.6v-16.7l53.2-16.2v141.7h34.6V2100.9z"/>
			<path class="st11" d="M3878.6,2103.5c-15.2,0-27.1-6.5-35.6-19.6c-8.5-13.1-12.8-32-12.8-56.7c0-27.2,4.4-47.7,13.3-61.6
				c8.9-13.9,21.7-20.9,38.5-20.9c32.2,0,48.2,26.3,48.2,78.8c0,26-4.5,45.9-13.6,59.6C3907.6,2096.6,3894.9,2103.5,3878.6,2103.5z
				 M3881.1,1959.5c-21.9,0-32.9,22.3-32.9,66.8c0,41.6,10.8,62.4,32.3,62.4c21.2,0,31.8-21.2,31.8-63.5
				C3912.3,1981.4,3901.9,1959.5,3881.1,1959.5z"/>
			<path class="st11" d="M4045.1,2100.9h-86.9v-15.4h34.7v-119.4l-35.6,10.6v-16.7l53.2-16.2v141.7h34.6V2100.9z"/>
			<path class="st11" d="M4163.5,2100.9h-86.9v-15.4h34.7v-119.4l-35.6,10.6v-16.7l53.2-16.2v141.7h34.6V2100.9z"/>
			<path class="st11" d="M4281.8,2100.9h-86.9v-15.4h34.7v-119.4l-35.6,10.6v-16.7l53.2-16.2v141.7h34.6V2100.9z"/>
			<path class="st11" d="M4352,2103.5c-15.2,0-27.1-6.5-35.6-19.6c-8.5-13.1-12.8-32-12.8-56.7c0-27.2,4.4-47.7,13.3-61.6
				c8.9-13.9,21.7-20.9,38.5-20.9c32.2,0,48.2,26.3,48.2,78.8c0,26-4.5,45.9-13.6,59.6C4381,2096.6,4368.3,2103.5,4352,2103.5z
				 M4354.5,1959.5c-21.9,0-32.9,22.3-32.9,66.8c0,41.6,10.8,62.4,32.3,62.4c21.2,0,31.8-21.2,31.8-63.5
				C4385.7,1981.4,4375.3,1959.5,4354.5,1959.5z"/>
			<path class="st11" d="M4470.4,2103.5c-15.2,0-27.1-6.5-35.6-19.6c-8.5-13.1-12.8-32-12.8-56.7c0-27.2,4.4-47.7,13.3-61.6
				c8.9-13.9,21.7-20.9,38.5-20.9c32.2,0,48.2,26.3,48.2,78.8c0,26-4.5,45.9-13.6,59.6C4499.4,2096.6,4486.7,2103.5,4470.4,2103.5z
				 M4472.9,1959.5c-21.9,0-32.9,22.3-32.9,66.8c0,41.6,10.8,62.4,32.3,62.4c21.2,0,31.8-21.2,31.8-63.5
				C4504,1981.4,4493.7,1959.5,4472.9,1959.5z"/>
			<path class="st11" d="M4636.9,2100.9h-86.9v-15.4h34.7v-119.4l-35.6,10.6v-16.7l53.2-16.2v141.7h34.6V2100.9z"/>
			<path class="st11" d="M4707.1,2103.5c-15.2,0-27.1-6.5-35.6-19.6c-8.5-13.1-12.8-32-12.8-56.7c0-27.2,4.4-47.7,13.3-61.6
				c8.9-13.9,21.7-20.9,38.5-20.9c32.2,0,48.2,26.3,48.2,78.8c0,26-4.5,45.9-13.6,59.6C4736.1,2096.6,4723.4,2103.5,4707.1,2103.5z
				 M4709.6,1959.5c-21.9,0-32.9,22.3-32.9,66.8c0,41.6,10.8,62.4,32.3,62.4c21.2,0,31.8-21.2,31.8-63.5
				C4740.8,1981.4,4730.4,1959.5,4709.6,1959.5z"/>
			<path class="st11" d="M4873.6,2100.9h-86.9v-15.4h34.7v-119.4l-35.6,10.6v-16.7l53.2-16.2v141.7h34.6V2100.9z"/>
			<path class="st11" d="M4991.9,2100.9H4905v-15.4h34.7v-119.4l-35.6,10.6v-16.7l53.2-16.2v141.7h34.6V2100.9z"/>
			<path class="st11" d="M5062.2,2103.5c-15.2,0-27.1-6.5-35.6-19.6c-8.5-13.1-12.8-32-12.8-56.7c0-27.2,4.4-47.7,13.3-61.6
				c8.9-13.9,21.7-20.9,38.5-20.9c32.2,0,48.2,26.3,48.2,78.8c0,26-4.5,45.9-13.6,59.6C5091.1,2096.6,5078.5,2103.5,5062.2,2103.5z
				 M5064.6,1959.5c-21.9,0-32.9,22.3-32.9,66.8c0,41.6,10.8,62.4,32.3,62.4c21.2,0,31.8-21.2,31.8-63.5
				C5095.8,1981.4,5085.4,1959.5,5064.6,1959.5z"/>
			<path class="st11" d="M5228.7,2100.9h-86.9v-15.4h34.7v-119.4l-35.6,10.6v-16.7l53.2-16.2v141.7h34.6V2100.9z"/>
			<path class="st11" d="M5298.9,2103.5c-15.2,0-27.1-6.5-35.6-19.6c-8.5-13.1-12.8-32-12.8-56.7c0-27.2,4.4-47.7,13.3-61.6
				c8.9-13.9,21.7-20.9,38.5-20.9c32.2,0,48.2,26.3,48.2,78.8c0,26-4.5,45.9-13.6,59.6C5327.9,2096.6,5315.2,2103.5,5298.9,2103.5z
				 M5301.3,1959.5c-21.9,0-32.9,22.3-32.9,66.8c0,41.6,10.8,62.4,32.3,62.4c21.2,0,31.8-21.2,31.8-63.5
				C5332.5,1981.4,5322.1,1959.5,5301.3,1959.5z"/>
		</g>
	</g>
	<rect x="2469.8" y="1516.8" class="st12" width="3022.8" height="539.1"/>
	<g>
		<path class="st13" d="M3278.7,1861.5c12.9,7.4,32.3,13.9,52.7,13.9c25.5,0,39.7-12,39.7-29.7c0-16.5-11-26.2-38.8-36.2
			c-35.9-12.9-58.8-32-58.8-63.3c0-35.5,29.7-62.7,76.9-62.7c23.6,0,41,5.2,52.3,11l-9.7,32c-7.8-4.2-22.9-10.3-43.3-10.3
			c-25.2,0-36.2,13.6-36.2,26.2c0,16.8,12.6,24.6,41.7,35.9c37.8,14.2,56.2,33.3,56.2,64.6c0,34.9-26.5,65.3-82.7,65.3
			c-22.9,0-46.8-6.5-58.8-13.6L3278.7,1861.5z"/>
		<path class="st13" d="M3447.4,1690c14.2-2.6,33.9-4.5,60.7-4.5c29.1,0,50.4,6.1,64.3,17.8c12.9,10.7,21.3,27.8,21.3,48.1
			c0,20.7-6.5,37.8-18.7,49.4c-15.8,15.8-40.7,23.3-68.8,23.3c-7.4,0-14.2-0.3-19.4-1.3v82.1h-39.4V1690z M3486.8,1791.4
			c4.8,1.3,11.3,1.6,19.4,1.6c29.7,0,47.8-14.5,47.8-40.1c0-24.2-16.8-37.2-44.3-37.2c-11,0-18.7,1-22.9,1.9V1791.4z"/>
		<path class="st13" d="M3821.2,1793.7c0,73-44.3,114.7-104.4,114.7c-61.4,0-100.2-46.8-100.2-110.8c0-66.9,42-114.1,103.4-114.1
			C3783.7,1683.5,3821.2,1731.7,3821.2,1793.7z M3658.7,1796.9c0,44.3,22.3,79.5,60.4,79.5c38.4,0,60.1-35.5,60.1-81.1
			c0-41-20.4-79.8-60.1-79.8C3679.7,1715.5,3658.7,1752,3658.7,1796.9z"/>
		<path class="st13" d="M4048.6,1793.7c0,73-44.3,114.7-104.4,114.7c-61.4,0-100.2-46.8-100.2-110.8c0-66.9,42-114.1,103.4-114.1
			C4011.1,1683.5,4048.6,1731.7,4048.6,1793.7z M3886.1,1796.9c0,44.3,22.3,79.5,60.4,79.5c38.4,0,60.1-35.5,60.1-81.1
			c0-41-20.4-79.8-60.1-79.8C3907.1,1715.5,3886.1,1752,3886.1,1796.9z"/>
		<path class="st13" d="M4082.9,1687.1h125.7v32.6h-85.9v60.1h80.1v32.6h-80.1v92.4h-39.7V1687.1z"/>
		<path class="st13" d="M4287.1,1687.1v217.8h-39.7v-217.8H4287.1z"/>
		<path class="st13" d="M4332.6,1904.8v-217.8h45.2l56.2,93.4c14.5,24.2,27.1,49.4,37.2,73h0.6c-2.6-29.1-3.6-57.2-3.6-90.5v-75.9
			h36.8v217.8h-41l-56.9-95.6c-13.9-23.9-28.4-50.7-39.1-75.3l-1,0.3c1.6,28.1,1.9,56.9,1.9,92.7v77.9H4332.6z"/>
		<path class="st13" d="M4725.5,1894.8c-13.9,5.2-41,12.3-70.1,12.3c-36.8,0-64.6-9.4-85.3-29.1c-19.4-18.4-30.7-47.2-30.4-80.1
			c0-68.8,49.1-113.1,121.2-113.1c26.8,0,47.8,5.5,57.8,10.3l-8.7,32c-12-5.2-26.5-9.4-49.4-9.4c-46.5,0-79.2,27.5-79.2,78.2
			c0,49.4,30.4,78.8,75.6,78.8c14.2,0,24.9-1.9,30-4.5V1816h-38.4v-31.3h76.9V1894.8z"/>
	</g>
</g>
</svg>
