<?xml version="1.0" encoding="iso-8859-1"?>
<!-- Generator: Adobe Illustrator 26.0.3, SVG Export Plug-In . SVG Version: 6.00 Build 0)  -->
<!DOCTYPE svg PUBLIC "-//W3C//DTD SVG 1.1//EN" "http://www.w3.org/Graphics/SVG/1.1/DTD/svg11.dtd" [
	<!ENTITY ns_extend "http://ns.adobe.com/Extensibility/1.0/">
	<!ENTITY ns_ai "http://ns.adobe.com/AdobeIllustrator/10.0/">
	<!ENTITY ns_graphs "http://ns.adobe.com/Graphs/1.0/">
	<!ENTITY ns_vars "http://ns.adobe.com/Variables/1.0/">
	<!ENTITY ns_imrep "http://ns.adobe.com/ImageReplacement/1.0/">
	<!ENTITY ns_sfw "http://ns.adobe.com/SaveForWeb/1.0/">
	<!ENTITY ns_custom "http://ns.adobe.com/GenericCustomNamespace/1.0/">
	<!ENTITY ns_adobe_xpath "http://ns.adobe.com/XPath/1.0/">
]>
<svg version="1.1" id="Layer_8" xmlns:x="&ns_extend;" xmlns:i="&ns_ai;" xmlns:graph="&ns_graphs;"
	 xmlns="http://www.w3.org/2000/svg" xmlns:xlink="http://www.w3.org/1999/xlink" x="0px" y="0px" viewBox="0 0 1566.8 642.4"
	 style="enable-background:new 0 0 1566.8 642.4;" xml:space="preserve">
<style type="text/css">
	.st0{fill:#F7F3F0;}
	.st1{fill:#EDE2DC;}
	.st2{fill:#EBCDB7;}
	.st3{fill:#E0BA9D;}
	.st4{fill:#FFA173;}
	.st5{fill:#342E38;}
	.st6{fill:#1E1721;}
	.st7{fill:#7A504B;}
	.st8{fill:#FFFFFF;}
	.st9{fill:#FFF0E3;}
	.st10{fill:#64413D;}
	.st11{fill:#F28057;}
	.st12{fill:#4A2B27;}
	.st13{fill:#5C3732;}
	.st14{fill:#A3493E;}
	.st15{fill:#F7E3D2;}
	.st16{fill:#CF685B;}
	.st17{fill:#948E8D;}
	.st18{fill:#B1AAA9;}
	.st19{fill:#35496E;}
	.st20{fill:#B36844;}
	.st21{fill:#4F668E;}
	.st22{fill:#FFE180;}
	.st23{fill:#C25C4F;}
	.st24{fill:#943D32;}
	.st25{fill:#FFF5ED;}
	.st26{fill:#F5DCC9;}
	.st27{fill:#E8CAB3;}
	.st28{fill:#D6B398;}
	.st29{fill:#CF9072;}
	.st30{fill:#B36F4F;}
</style>
<metadata>
	<sfw  xmlns="&ns_sfw;">
		<slices></slices>
		<sliceSourceBounds  bottomLeftOrigin="true" height="550.2" width="898.8" x="585.2" y="-2068.8"></sliceSourceBounds>
	</sfw>
</metadata>
<g id="FAIL">
	<path class="st0" d="M1212.9,525.4c-3.3,11.6-1.1,40.3-1.1,40.3l-892.9-2.8c0,0,6.7-48.9,11.2-77.8c3.2-20.8,0.5-41.7-0.2-62.6
		c-0.2-7.1-0.3-14.1,0.3-21.2c1.4-8.4,3-16.7,5.1-24.9c2.9-10.8,6.6-21.4,11.6-31.4c4.5-9.1,10.3-17.3,16-25.6
		c1-1.4,1.9-2.8,2.8-4.2c20.2-30.2,24.1-61.5,32.9-95.6c1.3-5,2.8-10.1,4.4-15c9.3-28.5,24.1-55.4,44.8-77.2
		c61.7-65,144.8-78.6,230.7-75.8c54.6,1.7,109.2,5.9,163.8,4.3c75.7-2.2,153-9.1,225.3,18.8c17.7,6.8,34.9,15.8,48.8,28.7
		c18.2,16.9,24.4,36.6,28.4,60.3c2.3,13.4,6.5,26,11.7,38.2c15.6,36.4,40.2,69.1,48.6,107.8c1.3,5.8,2.3,11.7,3.2,17.6
		c2.8,18.4,3.9,37,5,55.5c0,1.1-0.1,2.2-0.1,3.4c-0.1,8,0.3,17.3,0.9,27.4C1216.3,450.4,1221,497.1,1212.9,525.4z"/>
	<path class="st1" d="M710,170c-1.6-3-4.3-5.5-7.2-7.4c-14.6-9.7-45.2-8.6-56.4,6.8c-1.5,2-2.4,4.6-1.9,7c1,4.5,6.2,6.5,10.7,7.6
		c14.3,3.3,29.1,4.9,43.6,2.8c3.9-0.5,8-1.5,10.5-4.5c2.5-3,2.7-7.5,1.2-11.1C710.4,170.8,710.2,170.4,710,170z"/>
	<path class="st1" d="M1205.1,309.6c-8.5-38.7-33-71.4-48.6-107.8h-0.9c-7.4-0.1-14.8-0.5-21.8-2.6c-6.4-1.9-12.1-5.4-18-8.5
		c-8.6-4.6-18.2-8-27.6-10.7c-8-2.3-16.8-4.1-25.1-2c-17.4,4.3-24,26.7-21.2,42.6c3.1,17.3,16.6,30.7,30.4,40.4
		c15.9,11.2,34.1,19.4,52.9,24.3c7.2,1.9,14.1,4,20.8,7.2c6.1,2.9,11.8,6.3,17.8,9.4c9.9,5.2,18.7,12.1,28.3,17.9
		c4.9,3,10.5,5.8,16.3,7.4C1207.4,321.3,1206.3,315.5,1205.1,309.6z"/>
	<path class="st1" d="M613.7,138.1c-0.4-1.1-1-2.2-1.6-3.2c-4-6.5-11.4-10.8-19.1-12.1c-52-9-78,57.1-118.2,76.5
		c-15.7,7.6-33.7,9.4-51,7.8c-6.9-0.6-13.9-1.8-20.8-2.6c-1.6,5-3.1,10-4.4,15c-8.8,34.1-12.6,65.4-32.9,95.6
		c-0.9,1.4-1.9,2.8-2.8,4.2c16.2,7.1,34.8,8.3,52.1,4.6c16.6-3.6,33-12.1,41.8-26.7c6.7-11.1,8.4-24.4,12.9-36.6
		c7.5-20.6,22.9-37.6,40.9-50.1c18-12.4,38.7-20.5,59.6-27c11.3-3.5,23.1-6.7,32.4-14.1C611.9,162,618,149.2,613.7,138.1z"/>
	<path class="st1" d="M1214.1,413.6c-3.1-3.2-6.6-6.1-10.6-8.5c-8.4-5.1-17.6-8.5-26.5-12.5c-9.7-4.4-19.2-9.4-29.4-12.8
		c-10.2-3.4-20.9-4.5-31.4-6.5c-10.9-2-20.8-5.4-30.5-10.9c-19.7-11.2-41.1-19.8-59.9-32.5c-8.6-5.8-15.8-13-23.1-20.3
		c-6-6.1-12.5-12.5-20.4-16.1c-8.5-3.9-19-3.3-28.2-3.6c-12.5-0.4-25.1-0.2-37.6,0.2c-25,0.8-50,2.7-75,2.9
		c-22.7,0.2-46.1-0.6-67-10.4c-19.6-9.2-31.7-27.5-48.4-40.5c-15.2-11.9-34-21.9-53.3-24.7c-34.4-5-67,13.2-92.8,34
		c-28.3,22.8-51.9,50.9-73.5,80c-7.1,9.6-14.7,18.1-24,25.6c-9.5,7.7-19.6,14.6-29.7,21.4c-19,12.9-39.2,23.7-61.4,30.1
		c-20.3,5.9-41.6,7.3-61.7,14.1c0.7,20.9,3.5,41.8,0.2,62.6c-4.5,28.9-11.2,77.8-11.2,77.8l892.9,2.8c0,0-2.2-28.7,1.1-40.3
		C1221,497.1,1216.3,450.4,1214.1,413.6z"/>
	<g>
		<g>
			<path class="st2" d="M1153,580.6c-40.1-0.4-80.5,1.4-120,4.7c-35.6,2.9-70.3,7.1-103.4,12c-61.8,9.2-145.4,0.4-218.1-2.4
				c-22.2-0.9-43.4-1.2-62.6-0.2c-82.3,4-162.8,0-220.8-3.3c-58-3.3-104.7-9.4-109.3-25.7c-4.7-16.3,76.6-19.8,159.3-24.9
				c82.8-5.1,573.4,6,573.4,6s139.2,2,151.9,11.3C1216.2,567.3,1229.2,581.3,1153,580.6z"/>
			<path class="st3" d="M417.8,561.3c-4.6-1.8-11.4-1.7-14.7-1.4c-3.8,0.4-7.6,1.3-11.4,1.5c-4.4,0.2-8.9-0.7-13.4-1
				c-7.8-0.7-15.5-0.7-23.3,0.2c-2.9,0.3-7.1,0.4-9.3,2.5c-6.4,6.1,12.4,10.1,15.3,10.3c8.7,0.6,17.6,0.7,26.3,0.6
				c3.7,0,7.5,0,11.2-0.7c4.2-0.7,8.1-1.9,12.5-1.9c3.7,0,14.2,0.5,11-6.6C421.3,563.2,419.8,562.1,417.8,561.3z"/>
			<path class="st3" d="M1196.1,564.6c-1.3-5.6-11.4-4.6-15.6-4.8c-3.3-0.1-6.4-0.1-9.6-1c-2.5-0.7-5-1.6-7.5-2.2
				c-5.9-1.4-11.4-1.7-17.4-1.5c-7.5,0.2-14.1-1.8-21.4-3.1c-6.7-1.2-13.7-1.2-20.6-1.3c-6.6-0.1-13.2,0.2-19.7,0
				c-6.8-0.2-13.5-1.5-20.3-1.8c0-0.5-0.3-1-1-1c-2.5-0.1-6.9-1-8.7,1.5c-1.5,2-0.4,4.6,1.5,5.9c2.4,1.6,6,1.4,8.6,1.3
				c5.9-0.2,11.7-0.2,17.6-0.1c11.2,0.2,25.9-0.2,35.7,6c4,2.6,7.3,4,12.1,4.6c2.7,0.3,5.3,0.2,8,0.3c3.7,0.2,7,1.2,10.6,2.3
				c10.9,3.5,22.6,2.2,33.9,2.4C1186.4,572.2,1197.7,571.5,1196.1,564.6z"/>
			<path class="st3" d="M1033,585.3c-35.6,2.9-70.3,7.1-103.4,12c-61.8,9.2-145.4,0.4-218.1-2.4c-8.8-2.7-16.5-5.1-21.4-6.9
				c-18.7-6.8-45.3-3.3-52.3-6.5c-7-3.2,50.4-4.9,85,0c34.7,4.8,72,5.8,118.7,3.1c46.7-2.7,66,6.7,66.5-3.1c0.3-5.5-9-8.6-17.2-10.2
				c10.9,1.1,30.7,2.3,65.2,2.6C991,574.2,1016.4,580.1,1033,585.3z"/>
			<path class="st3" d="M448.2,564.5c0,0,8.6,14.8,32.8,14.1c24.2-0.7,57.5-7.7,78.2-3.3c20.7,4.3,52,1.3,52,1.3
				c0,0-20.9-3.4-36.6-7.5c-15.7-4.1-31.4-7.4-57.4-5.7C491.2,565,448.2,564.5,448.2,564.5z"/>
		</g>
		<g>
			<g>
				<g>
					<g>
						<polygon class="st4" points="504.1,530.1 504.2,537.6 499.7,541.5 497.3,536.1 495.6,526.9 						"/>
						<path class="st5" d="M514.5,545.7c0,0.1,0,0.2,0,0.4c0,0.5,0,0.9,0,0.9l-16.8-0.2l-0.4-10.7l0.4,0.1l6.3,1.1
							c0,0,0.9,0.5,2.2,1.1c0.1,0.1,0.2,0.1,0.4,0.2c0.1,0.1,0.3,0.2,0.4,0.2c0.1,0.1,0.2,0.1,0.3,0.2c0.3,0.2,0.6,0.3,0.9,0.5l0,0
							c0,0,0.1,0.1,0.2,0.1c0.2,0.1,0.4,0.2,0.6,0.4c0,0,0.1,0,0.1,0.1c2.2,1.2,4.4,2.6,4.7,3.2c0.3,0.4,0.4,1,0.5,1.6
							C514.4,545.1,514.5,545.4,514.5,545.7z"/>
					</g>
					<path class="st6" d="M514.5,546.1c-1.9-2.3-6.2-3-8.9-3.6c-1.8-0.4-3.4-0.8-4.7-2c-0.2-0.1-0.3-0.3-0.5-0.5
						c-1-1.2-1.6-2.7-2.7-3.8l-0.4-0.1l0.4,10.7l16.8,0.2C514.5,547,514.5,546.6,514.5,546.1z"/>
				</g>
				<g>
					<g>
						<polygon class="st4" points="450.1,529.2 449,536.7 444.6,540.7 442.2,535.2 442.2,526.1 						"/>
						<path class="st5" d="M459.4,544.9c0,0.1,0,0.2,0,0.4c0,0.5,0,0.9,0,0.9l-16.8-0.2l-0.4-10.7l0.4,0.1l6.3,1.1
							c0,0,0.9,0.5,2.2,1.1c0.1,0.1,0.2,0.1,0.4,0.2c0.1,0.1,0.3,0.2,0.4,0.2c0.1,0.1,0.2,0.1,0.3,0.2c0.3,0.2,0.6,0.3,0.9,0.5l0,0
							c0,0,0.1,0.1,0.2,0.1c0.2,0.1,0.4,0.2,0.6,0.4c0,0,0.1,0,0.1,0.1c2.2,1.2,4.4,2.6,4.7,3.2c0.3,0.4,0.4,1,0.5,1.6
							C459.3,544.3,459.4,544.6,459.4,544.9z"/>
					</g>
					<path class="st6" d="M459.4,545.2c-1.9-2.3-6.2-3.1-8.9-3.6c-1.8-0.4-3.4-0.8-4.7-2c-0.2-0.1-0.3-0.3-0.5-0.5
						c-1-1.1-1.6-2.7-2.7-3.8l-0.4-0.1l0.4,10.7l16.8,0.2C459.4,546.1,459.4,545.7,459.4,545.2z"/>
				</g>
				<path class="st7" d="M475.6,369.7c0,0-4.8,24-7.4,44.5v0c-0.7,5.5-1.3,10.8-1.5,15.2c-1.3,21-16.2,100.6-16.2,100.6
					c-0.1,0.3-18.8-0.3-20.5-0.1c-0.9,0.1-1.8,0.2-2.7-0.1c-3-1-2.8-6.5-2.4-8.9c0,0,0-0.1,0-0.1c0.9-4.6,2.3-3.4,0.6-9.7
					c-0.6-2.2-0.7-5.2-0.5-8.3c0.4-6,1.8-12.8,2.3-17.2c0.8-6.6,3.9-78.1,3.9-91.9c0-18.1,3-36.1,4.9-44.1c0.4-1.8,0.8-3.2,1-4.1
					c0.2-1,0.4-1.5,0.4-1.5s28.1-14.9,30-15.1c1.3-0.2,2.4,0.6,3.3,5c0.6,2.9,1.2,6.4,1.7,10.2c0.2,1.3,0.4,2.7,0.6,4.1
					C474,355.1,474.8,364.6,475.6,369.7z"/>
				<path class="st4" d="M547.2,261.4c0,0,0,0.5-0.1,1.3c-0.1,0.5-0.1,1.2-0.2,1.9c-1,9.7-4.1,37.9-6.1,43.2
					c-5.6,14.9-17.7,6.2-13.6-6.8c2.6-8.1,9.4-28,12.2-36.4c0.3-1,0.6-1.8,0.8-2.4c0-0.1,0.1-0.2,0.1-0.3c0.2-0.7,0.4-1.1,0.4-1.1
					l1,0.1L547.2,261.4z"/>
				<path class="st8" d="M490.6,253.7c0,0,10.9,1.9,18.4,11.6c6.7,8.7,24.5,33.7,24.5,33.7s-7.7,17.9-10.2,18.5
					c-2.6,0.6-24-9.7-24-9.7L487,264.6L490.6,253.7z"/>
				<path class="st9" d="M500.5,277.5c0,0,9.7,6.5,9.5,8.2c-0.2,1.7-3.1,4.2-3.1,6.4c0,2.1,1.1,3.4-0.6,6.9c-1.7,3.5-3,6.5-3.5,8.1
					c-0.4,1.6-0.6,2.2-0.6,2.2l3.6,1.7c0,0,4.5-12.1,4.4-16.7c-0.1-4.6,1.9-7.1,1.1-9.6C510.5,282.2,500.5,277.5,500.5,277.5z"/>
				<path class="st7" d="M504.1,530.1c0,0-19.9,1.4-22.3-0.9c-2.4-2.3-2.4-2.3-1.7-11.9c0.7-9.6-4.3-8.8-2.5-16.8
					c1.8-8-5.6-36-6.8-49.9c0-0.2,0-0.4,0-0.5c-1-11.8-2-24.4-2.7-35.7c-1.1-16.2-1.7-29.8-1.4-34.3c0.3-4.5,0.3-20.5,0.3-31.6
					c0-1.4,0-2.8,0-4.1c0.1-6.1,0.2-10.6,0.6-10.7c0.2-0.1,1.3,0,3.1,0.3c7.9,1,28.3,4.4,28.3,4.4s0.3,1.8,0.9,4.8
					c0.2,1.2,0.5,2.5,0.7,4.1c1.6,9.8,4,27.8,4.5,40.4C505.9,406.9,504.1,530.1,504.1,530.1z"/>
				<g>
					<path class="st10" d="M472.3,223.6c-0.4-1.5-1.5-2-2-3.3c-0.5-1.1-0.4-2.1-1.2-3.1c-0.6-0.8-1.4-1.4-2.3-1.7
						c-0.4-0.2-0.9-0.2-1.3-0.3c-1-0.2-1.4-0.8-2.2-1.3c-0.6-0.3-1-0.5-1.7-0.4c-1.5,0-2.6,0.7-3.3,1.8c-1.2,0-2.3,0-3.5,0.7
						c-1.7,0.9-1.9,2.8-3.4,4c-1.2,1-2.8,1.6-3.4,3.2c-0.2,0.4-0.3,0.8-0.3,1.2c-1.2,0.8-2,2.3-2.1,3.9c-0.1,1.2,0.1,2.4,0.9,3.4
						c0.3,0.4,0.6,0.6,0.9,1c0.7,0.8,0.9,1.7,1.4,2.6c0.6,1.1,1.6,1.9,2.5,2.6c1.4,1,2.8,2,4.1,3.2c0.8,0.7,1.4,1.6,2.3,2.3
						c0.3,0.3,0.7,0.5,1.1,0.6c0,0,0.1,0,0.1,0c0,0,0.1,0,0.1,0h0c0,0,0.1,0,0.1,0c0.1-0.9,0.2-2.3,0-3.3c-0.1-0.4-0.1-0.8-0.3-1
						c-1.1-1.1-2.3-1.9-2.9-3.1c-0.6-1.4,0.3-3.3,1.8-2.9c0.5-0.5,0.1-1.4-0.2-2c-0.3-0.6-0.7-1.1-0.8-1.8c-0.2-0.8,0-1.5,0.2-2.2
						c0.6,1.2,0.9,2.6,1.4,3.8c0.7,1.7,1.7,3.2,2.2,4.9c0.5,1.5,0.4,3,0,4.5c-0.3,1.1-0.7,2.1-1.2,3.1c0.9,0.1,1.8-0.4,2.5-1
						c0.6-0.4,1.1-1,1.6-1.5c1.1-1.2,1.9-2.7,2.9-4c0,0,0,0,0.1-0.1c1.4-2,3.7-4,4.4-6.5c0.1-0.5,0.1-0.9,0.1-1.4
						c0.1-0.8,0.4-1.5,0.7-2.3c0-0.2,0.1-0.3,0.2-0.5c0.2,0.1,0.5,0,0.6-0.3c0.1-0.4,0.1-0.8,0.2-1.1
						C472.4,224.7,472.4,224.1,472.3,223.6z"/>
					<path class="st4" d="M472.4,225.2c-0.4-0.5-0.7-0.9-1-1.3c-0.9-1.1-1.8-2.1-2.9-3c0,0,0,0,0,0c-2.5-2-5.5-2.9-8.9-1.2
						c-3,1.5-5,4-6.2,6.9c-0.8,1.8-1.4,3.7-1.9,5.6c0,0.2,0,0.3,0.1,0.4c1.7,3.1,3.4,6.3,5.4,9.2c0.4,0.6,1,1.3,1.6,1.8
						c0.1,0.1,0.1,0.1,0.2,0.2h0c0,0,0.1,0.1,0.1,0.1c2.1,1.8,4.6,3.3,4.7,3.3c1.4-0.1,3.1-0.4,4.8-0.8c0,0,0,0,0,0
						c1.5-0.3,3-0.8,4.3-1.4c2.7-1.2,4.8-3,5.3-5.8C478.8,235.1,475.1,229,472.4,225.2z"/>
					<path class="st4" d="M474.1,250.4l-0.4-1.5l-0.9-3.9v0l-0.4-1.8l-9.1-1.8l-2.9-0.6l-1.4-0.3l-0.8-0.2c0,0,0.2,1.3,0.5,3.3
						c0,0,0,0.1,0,0.1c0,0.3,0.1,0.7,0.1,1c0.3,2,0.6,4.3,0.8,6.5c0.2,1.6,0.3,3,0.4,4.1c0,0.4,0,0.7,0.1,1.1
						c0.1,1.2,0.4,2.3,1.8,2.9c0.2,0.1,0.4,0.2,0.7,0.2c1.8,0.4,4-0.4,5.6-1c2.2-0.7,4.3-1.8,6.5-2.3c0.1,0,0.2,0,0.3-0.1
						c0,0,0.3-0.2,0.3-0.2L474.1,250.4z"/>
					<path class="st11" d="M472.9,244.9l0.9,3.9c-0.1,0-0.2,0-0.3,0c-0.7,0.1-0.5-0.5-1.7-0.9c-1.2-0.4-0.9-0.3-1.5-1
						c-0.6-0.7-1.9-0.4-2.7-1.2c-0.8-0.8,0-1.1,0.2-1.1c0.2,0,1,0.3,2.3,0.4C471.2,245.2,472.9,244.9,472.9,244.9z"/>
					<path class="st10" d="M468.5,220.9c0,0-2.2-1-3.3-1.3c-0.5,1-1.7,1.8-2.5,2.2c-0.8,0.4-1.7,0.7-2.3,1.4c-0.6,0.6-1,1.4-1.6,2
						c-0.2,0.2-0.4,0.4-0.7,0.6c-0.2,0.1-0.6,0.2-0.8,0.4c0,0.1-0.1,0.1-0.1,0.2c-0.1,0.4-0.2,0.7-0.4,1.1c-0.2,0.7-0.4,1.4-0.2,2.2
						c0.2,0.7,0.5,1.2,0.8,1.8c0.3,0.6,0.7,1.5,0.2,2c-1.5-0.5-2.4,1.5-1.7,2.9c0.6,1.2,1.8,2.1,2.9,3.1c0.5,1,0.4,3.1,0.3,4.4
						c-0.1,0.6-0.1,1-0.1,1s-0.6-0.7-1.3-1.7c-1.2-1.5-3-3.8-3.7-4.8c-1.2-1.7-2.4-3.5-2.9-5.6c-0.2-0.8-0.2-1.6-0.1-2.4
						c0.3-2.4,1.9-4.7,3.3-6.4c2.3-2.8,6.3-6.8,10-7.3C465.6,216.4,468.5,220.9,468.5,220.9z"/>
					<path class="st12" d="M459,240.5c-0.1-0.4-0.1-0.8-0.3-1c-1.1-1.1-2.3-1.9-2.9-3.1c-0.6-1.4,0.3-3.3,1.8-2.9
						c0.5-0.5,0.1-1.4-0.2-2c-0.3-0.6-0.7-1.1-0.8-1.8c-0.2-0.8,0-1.5,0.2-2.2c-0.1-0.2-0.2-0.3-0.3-0.5c-1-1.4-2.2-1.6-3.3-0.5
						c-0.1,0.1-0.2,0.2-0.3,0.4c-0.9,1.2-0.6,3.1-2.2,3.5c-0.3,0.1-0.6,0.1-1,0.1c-0.9-0.1-0.5-0.3-1.6-0.1
						c-0.4,0.1-0.8,0.2-1.2,0.3c-0.6-0.6-1-1.2-1.3-2c-0.1-0.1-0.1-0.3-0.2-0.5c-0.1,1.2,0.1,2.4,0.9,3.4c0.3,0.4,0.6,0.6,0.9,1
						c0.7,0.8,0.9,1.7,1.4,2.6c0.6,1.1,1.6,1.9,2.5,2.6c1.4,1,2.8,2,4.1,3.2c0.8,0.7,1.4,1.6,2.3,2.3c0.6,0.8,1.1,1.4,1.3,1.6
						c0,0,0,0.1,0,0.1s0-0.4,0.1-0.9c0,0,0,0,0-0.1C459.1,242.9,459.2,241.6,459,240.5z"/>
					<path class="st8" d="M470.4,238.8c0.3,0.1,0.8-0.3,1-0.5c1-0.8,2.1-1.4,3.3-1.8c0.2-0.1,1.2-0.3,1.1-0.7
						c-0.1-0.3-0.4-0.4-0.7-0.5c-2.1-0.3-4.4,0.7-4.9,2.9c0,0.1-0.1,0.3,0,0.4C470.3,238.7,470.4,238.8,470.4,238.8z"/>
				</g>
				<path class="st8" d="M501.9,336.3c-0.3,2.2-1.1,3.3-2.5,3.6c-0.1,0-0.2,0.1-0.3,0.1c0,0-16.9,1.6-26.8,2.2
					c-1.8,0.1-3.3,0.1-4.5,0.1h-0.5c-8.3,0.1-29.7,1.6-29.7,1.6s-5.9-3.4-6.1-10.9c-0.4-21.5-0.7-58.8,4.6-66.4
					c3.3-4.8,21.7-12.1,22.3-12.3l0,0l1.5-3.1l10.8,3.4l3.6-4.3l3.2,2.7l13.4,0.6c0,0,1.3,7.2,2.9,16.3c0.1,0.8,0.3,1.5,0.4,2.3
					c1.5,8.8,3.2,18.8,4.1,25.4c0.1,0.9,0.2,1.7,0.3,2.5c0.3,2.7,0.7,5.3,1,7.6c0.5,3.7,0.9,7,1.3,10c0,0,0,0.1,0,0.1
					C501.8,327.3,502.4,333,501.9,336.3z"/>
				<path class="st8" d="M552.7,291.4c0-4-2.9-7.7-4.8-11c-1.1-2-0.1-3.3,0.3-5c-4.5-4.1-9.5-8.7-9.5-8.7l-12,32.4l-6.1,17.8
					c0,0,9,5.2,15.1,6.2c6.1,1,11.1-8.4,11.2-14.4c0.1-3,1.1-5.9,2.2-8.7c0.5-1.2,1.1-2.5,1.7-3.7c0.7-1.4,1.5-2.6,1.7-4.2
					C552.7,291.9,552.7,291.6,552.7,291.4z"/>
				<path class="st4" d="M554.5,260.4c-3.2,1.6-7.3,1-7.3,1s-1.7,0.6-2.2,0.8c0,0-0.1,0-0.1,0.1c-0.2,0.2-4.2-1.3-4.2-1.3
					s0-0.2,0.1-0.4c0.3-0.9,1-2.7,2.3-3.4c1.7-0.8,4.4-0.4,7.9,0.4c3.5,0.8,5.9-1.9,6.8-2.2C558.7,254.9,557.7,258.8,554.5,260.4z"
					/>
				<path class="st4" d="M495.4,264.6c0,0-0.1,0.4-0.4,1.1c-0.2,0.6-0.5,1.6-0.9,2.7c-2.9,8.3-9.7,28.3-12.2,36.4
					c-4.1,13,8.1,21.7,13.6,6.8c2.4-6.4,6.4-46.4,6.4-46.4L495.4,264.6z"/>
				<path class="st4" d="M495.4,264.6c0,0,0.8-3,2.4-3.8c1.7-0.8,4.4-0.4,7.9,0.4c3.5,0.8,5.9-1.9,6.8-2.2c0.9-0.4-0.1,3.5-3.3,5.1
					c-3.2,1.6-7.4,1-7.4,1s-2.1,0.7-2.3,0.9C499.4,266.1,495.4,264.6,495.4,264.6z"/>
				<path class="st8" d="M458.2,254.3c0,0,2.6,2.2,11.7,15.4c6.2,9,21.4,34.4,21.4,34.4s-7.7,17.9-10.2,18.5
					c-2.6,0.6-22.2-10.2-22.2-10.2l-8.6-43.9L458.2,254.3z"/>
				<path class="st8" d="M508.1,290.2c-1.7,2.3,0.4,4-0.8,6.6c-1,2.3-4,7.3-5,12.4c-0.2,0.9-0.3,1.9-0.3,2.8c0,1.1-0.2,2.4-0.6,3.7
					c0,0,0,0.1-0.1,0.3c-0.2,0.6-0.4,1.3-0.6,1.9c-1.7,4.5-5.1,8.6-9,8.6c-0.3,0-0.6,0-0.9-0.1c-2.4-0.4-5.2-1.4-7.8-2.5
					c-1-0.5-2-0.9-2.9-1.4c-2.6-1.3-4.4-2.3-4.4-2.3l0.2-0.6l5.9-17.1l3-9.5l5.5-17.5l1.5-4.9c0,0,0.5,0.4,1.4,1.1
					c0.3,0.2,0.6,0.4,0.9,0.7c1.7,1.3,4.2,3.2,6.6,5.2c4.2,3.3,8.5,6.7,9.1,7.3C510.7,286.1,509.7,287.9,508.1,290.2z"/>
				<g>
					<path class="st5" d="M500.7,347.1c-4.8,0.1-14.5,0.3-27.6,1c-1.5,0.1-3,0.2-4.6,0.3c-0.5,0-0.9,0.1-1.4,0.1
						c-14.9,0.8-25.8,1.1-31.1,1.2c0.4-1.8,0.8-3.2,1-4.1c5.6-0.1,16.1-0.4,30.1-1.2c0.4,0,0.7,0,1.1-0.1c1.5-0.1,2.9-0.2,4.3-0.2
						c12.8-0.7,22.4-0.9,27.5-1C500.2,344.2,500.4,345.5,500.7,347.1z"/>
				</g>
				<g>
					
						<rect x="494.3" y="342" transform="matrix(0.9868 -0.1622 0.1622 0.9868 -49.4802 84.8344)" class="st7" width="1" height="6.9"/>
				</g>
				<g>
					
						<rect x="444.2" y="346.9" transform="matrix(0.1623 -0.9867 0.9867 0.1623 32.2463 732.7048)" class="st7" width="6.9" height="1"/>
				</g>
				<g>
					<path class="st8" d="M469,349.3c-0.9,0-1.6-0.7-1.7-1.6l-0.1-2c0-0.5,0.1-0.9,0.4-1.2c0.3-0.3,0.7-0.5,1.2-0.6l7.4-0.4
						c0.4,0,0.9,0.1,1.2,0.4s0.5,0.7,0.6,1.2l0.1,2c0,0.5-0.1,0.9-0.4,1.2c-0.3,0.3-0.7,0.5-1.2,0.6l-7.4,0.4
						C469,349.3,469,349.3,469,349.3z M476.2,344.4C476.2,344.4,476.2,344.4,476.2,344.4l-7.4,0.4c-0.2,0-0.4,0.1-0.5,0.2
						c-0.1,0.1-0.2,0.3-0.2,0.5l0.1,2c0,0.4,0.4,0.7,0.7,0.6l7.4-0.4c0.2,0,0.4-0.1,0.5-0.2c0.1-0.1,0.2-0.3,0.2-0.5l-0.1-2
						c0-0.2-0.1-0.4-0.2-0.5C476.5,344.5,476.4,344.4,476.2,344.4z"/>
				</g>
				<path class="st13" d="M481,389.5c-0.2,4.4-5.8,13.3-5.4,19.3c0.3,6,1.4,6.9,0,13c-1.4,6.1,7.3,4.6,3.2,14.6
					c-2.5,6-5.7,10.7-7.9,13.5c-1-11.8-2-24.4-2.7-35.7c0,0,4.9-20,7.4-23.4C478.1,387.5,481.2,385.1,481,389.5z"/>
				<path class="st13" d="M440.2,495.8c-2.3,0.3-4.3,3.8-6,5.2c-2.6,2.2-6.1,1-9.2,1.8c-0.2,3.2-0.2,6.1,0.5,8.3
					c1.8,6.3,0.4,5.1-0.6,9.7c1-0.4,2-0.8,2.7-1.2c1.9-0.8,4.2-2,4.8-4.1c0.4-1.3-0.1-2.6-0.3-3.9c-0.4-1.9-0.2-3.7,1.5-4.9
					c0.8-0.5,1.6-1,2.4-1.5c2.3-1.4,5.4-3,6.2-5.9C442.5,497.9,442.2,495.5,440.2,495.8z"/>
				<path class="st7" d="M547,262.7c-0.1,0.5-0.1,1.2-0.2,1.9c-1.2-0.2-2.3-0.5-3.4-1c-1-0.4-2.2-0.8-3.2-1.4c0-0.1,0.1-0.2,0.1-0.3
					c0.2-0.7,0.4-1.1,0.4-1.1s0-0.2,0.1-0.4c0.2,0.2,0.5,0.4,0.8,0.5c1,0.6,2.3,0.9,3.3,1.2c0.3,0.1,0.6,0.2,0.8,0.2
					C546.2,262.5,546.6,262.7,547,262.7z"/>
			</g>
			<path class="st9" d="M479.6,328.8c3.6,1.4,7.5,2.2,11.2,1.6c5.2-1,7.6-5.1,8.7-9.7c-1.5,2.9-4,5.9-7.8,5.8c-0.3,0-0.6,0-0.9-0.1
				c-2.8-0.5-5.4-1.4-7.8-2.5c-0.8-0.4-1.6-0.8-2.3-1.2c-1.6-0.9-3.2-2-4.8-3.1c-1.8-1.2-7.3-3.4-9.2-4.7
				c-6.8-4.7-5.8-5.4-13.1-10.5c-0.5-0.3-1-0.6-1.5-0.9c-6.6-4.5-12.9-14.4-13.9-13c-0.5,0.7,1,2.6,1.4,3.1c1.3,2,2.8,3.8,4.3,5.7
				c1.8,2.3,3.6,4.6,5.3,7.1c0.7,1,1.3,1.9,1.8,3c0.2,0.4,0.4,0.9,0.6,1.3c1.1,1.4,2.7,2.1,3.7,3.6c0.9,1.3,1.5,2.7,2.7,3.8
				c1.3,1.2,2.9,2.1,4.5,2.8c3.9,1.9,8,3.1,12,4.6C477.2,326.3,478.7,327.5,479.6,328.8z"/>
			<path class="st9" d="M493,271.6l-1.6,3.6c0,0-3.1,1.6-3.7,3.4c-0.7,1.8-5.9,11.8-5.9,11.8s0.2-2-4.8-4.2c-5-2.2-5.5-4.1-7.2-6.2
				c-1.8-2.2-3.7-4.2-1.7-3.2s8.8,7.6,11.2,7.2c2.4-0.3,0.2-1.8,5-5.2C488.9,275.3,493,271.6,493,271.6z"/>
		</g>
		<g>
			<g>
				<path class="st11" d="M412.2,332l5.4,16.2c0,0-3.1,0.6-3.6,0c-0.5-0.6-7.1-11.6-7-13C407.2,333.9,412.2,332,412.2,332z"/>
				<path class="st14" d="M395.4,305.9c0,0,4.9,1.5,8.5,5.9c3.6,4.4,10.2,21.2,10.2,21.2l-10.4,1.3L395.4,305.9z"/>
				<g>
					<polygon class="st4" points="373.6,547.3 371.1,560.9 367.4,564.5 364.3,560.5 364.7,546.2 					"/>
					<g>
						<g>
							<path class="st8" d="M364.3,560.5l-0.2,6.8l0,0.8l0,1.4l12.6,0.9l4.5,0.3c0,0,0.1-0.5,0.1-1.2c0-0.3,0-0.5,0-0.8
								c0-0.6-0.2-1.1-0.4-1.5c-0.3-0.6-2.5-2-4.7-3.3c-0.2-0.1-0.4-0.2-0.6-0.3c-0.1,0-0.1-0.1-0.2-0.1l0,0
								c-0.2-0.1-0.4-0.2-0.5-0.3c-0.2-0.1-0.4-0.3-0.6-0.4c-0.3-0.2-0.5-0.3-0.7-0.4c0,0,0,0-0.1,0c-0.3-0.2-0.5-0.3-0.7-0.4
								c-0.8-0.5-1.4-0.8-1.4-0.8l-4-0.3L364.3,560.5z"/>
						</g>
					</g>
					<path class="st9" d="M364.3,560.5l-0.2,6.8l0,0.8l0,1.4l12.6,0.9l0-0.1c0-1.8-2.1-3.4-3.4-4.2c-2.2-1.5-5.2-2.8-6.1-5.4
						L364.3,560.5z"/>
				</g>
				<g>
					<polygon class="st4" points="397.3,546.1 394.9,559.7 391.2,563.3 388,559.3 388.5,545 					"/>
					<g>
						<g>
							<path class="st8" d="M388,559.3l-0.2,6.8l0,0.8l0,1.4l12.6,0.9l4.5,0.3c0,0,0.1-0.5,0.1-1.2c0-0.3,0-0.5,0-0.8
								c0-0.6-0.2-1.1-0.4-1.5c-0.3-0.6-2.5-2-4.7-3.3c-0.2-0.1-0.4-0.2-0.6-0.3c-0.1,0-0.1-0.1-0.2-0.1l0,0
								c-0.2-0.1-0.4-0.2-0.5-0.3c-0.2-0.1-0.4-0.3-0.6-0.4c-0.3-0.2-0.5-0.3-0.7-0.4c0,0,0,0-0.1,0c-0.3-0.2-0.5-0.3-0.7-0.4
								c-0.8-0.5-1.4-0.8-1.4-0.8l-4-0.3L388,559.3z"/>
						</g>
					</g>
					<path class="st9" d="M388,559.3l-0.2,6.8l0,0.8l0,1.4l12.6,0.9l0-0.1c0-1.8-2.1-3.4-3.4-4.2c-2.2-1.5-5.2-2.8-6.1-5.4
						L388,559.3z"/>
				</g>
				<path class="st6" d="M410,474.7c-1,25-12.9,79.4-12.9,79.4h-22l3.4-73.9c0,0-10.6-58.7-11.6-62.1c-1-3.4,4.1-21.5,5.8-27.1
					c1.7-5.7,25.4-5.5,25.4-5.5s1,4.6,2.1,11.1c0.1,0.8,0.3,1.7,0.4,2.6c0.5,3,1,6.4,1.4,9.7C403.5,420.9,411,449.7,410,474.7z"/>
				<g>
					<path class="st15" d="M394.3,389.4c0,0.1-3.2,13.5-3.2,23.1c0,4.6-0.5,12.8-1,22.4c-0.6,10.5-1.3,22.5-1.4,31.5
						c-0.1,10.1-2.8,39.6-4.9,63.3c-0.9,10.1-1.7,19.3-2.1,24.4h-0.5c0.3-3.9,0.9-11.1,2.1-24.5c2-22.5,4.8-53.2,4.9-63.2
						c0.1-9,0.8-21,1.4-31.5c0.6-9.6,1.1-17.8,1-22.4c-0.1-9.6,3.2-23.1,3.2-23.3L394.3,389.4z"/>
				</g>
				<path class="st5" d="M379.6,433.4c0,0-1.5-14.2,2-17.3c3.4-3.1-0.9-3.8,4.3-9.1c5.1-5.3,12.4-22,12.4-22s-14.5-4.5-16-3.3
					c-1.5,1.2-10.7,3.3-13,8.6c-2.3,5.3-6,5.4-3.6,16.4C368,417.7,379.6,433.4,379.6,433.4z"/>
				<path class="st5" d="M375.1,412.7c6,9.5,7.1,58,5.9,73c-1.5,19.6-7.8,68.4-7.8,68.4l-2.9-0.3l-0.5-0.1l-8.2-0.8l-0.5-0.1
					l-7.6-0.7l-0.5-0.1l-3.6-0.3c0,0-0.8-17.4,1.7-19.6c2.5-2.1,0.4-12.1,0.2-14.8c-0.5-7.4-1.9-14.8-1.7-22.2
					c0-1.4,0.1-2.7,0.2-4.1c0.3-4.8,1.4-10.1,0.7-14.8c-0.7-4.7-3.7-8.5-5.3-12.8c-1.9-5-3.3-10.2-4.5-15.5
					c-1.6-7.1-1.6-14.3-2.1-21.4c-0.6-8.3-1.5-16.7,0.6-24.9c1.6-6.2,3.7-12.3,5.8-18.4c2.8-8.3,5.8-16.6,9-24.7l30.8,20.1
					C384.9,378.8,373.4,410,375.1,412.7z"/>
				<g>
					<g>
						<path class="st8" d="M357,528.2c-0.4,6.3-2.2,17.1-3.5,24l-0.5-0.1c1.2-6.9,3.1-17.7,3.5-24c0.5-7.9-0.5-19.4-1.2-27
							c-0.2-1.7-0.3-3.3-0.4-4.5c-0.3-4.4,0.1-7.3,0.7-11c0.3-1.9,0.6-4,0.9-6.6c0.7-7.3-4.1-19-7.3-26.7l-0.4-1
							c-1.7-4.1-1.6-10.7-1.5-18.2c0.1-6.3,0.1-13.5-0.8-20.7c-2-15.6,7.6-30.8,7.8-30.9l0.4,0.3c-0.1,0.2-9.7,15.2-7.7,30.6
							c0.9,7.2,0.9,14.4,0.8,20.8c-0.1,7.5-0.2,14,1.5,18l0.4,1c3.2,7.8,8.1,19.5,7.3,26.9c-0.3,2.6-0.6,4.8-0.9,6.7
							c-0.6,3.6-1,6.5-0.7,10.9c0.1,1.2,0.2,2.8,0.4,4.5C356.4,508.7,357.5,520.2,357,528.2z"/>
					</g>
					<g>
						<path class="st8" d="M365.3,515.4c-0.2,7.8-0.3,14-0.2,16.6c0.2,4.8-1.9,14.3-3.5,21l-0.5-0.1c1.6-6.7,3.6-16.1,3.5-20.9
							c-0.1-2.6,0.1-8.8,0.2-16.6c0.3-16.3,0.8-38.5-0.2-47.8c-0.7-6.4-2.4-14.4-4-22.2c-1.9-9-3.7-17.5-4-23.4
							c-0.6-11,7.1-42,7.2-42.3l0.5,0.1c-0.1,0.3-7.8,31.3-7.2,42.2c0.3,5.9,2.1,14.3,4,23.3c1.6,7.8,3.3,15.8,4.1,22.3
							C366.2,476.9,365.7,499.2,365.3,515.4z"/>
					</g>
					<g>
						<path class="st8" d="M370.9,431.1c2.8,17.3,3.6,54.8,3.5,64.7c-0.1,7.3-2.7,41.6-4,58l-0.5-0.1c1.3-16.4,3.8-50.7,4-58
							c0.2-9.8-0.7-47.4-3.4-64.6c-2.7-16.9,5.9-49.2,6-49.5l0.5,0.1C376.8,382.1,368.2,414.3,370.9,431.1z"/>
					</g>
				</g>
				<path class="st6" d="M396.6,273.6c0,0,2.6,3.9,2.7,9.3c0.1,5.3,0.6,6.9,1.3,10.1c0.8,3.2,0.8,7.3,0,7.6c-0.8,0.4-1.6-1-4.5,0
					c-1.7,0.6-3.2,0.6-4.9,0.6c-3.8,0-5.5,0.6-6.2,0s-3.3-4.3-3.3-4.5S396.6,273.6,396.6,273.6z"/>
				<g>
					<path class="st5" d="M397,280.6c0.6-2.3,0.8-4.8-0.4-6.9c-0.8-1.5-2.3-2.5-3.9-3.2c-0.9-0.4-1.9-0.7-2.9-1
						c-3.4-0.8-7.8-0.2-11.1,0.8c-2.5,0.7-4.9,2.2-5.7,4.8c-0.7,2.4-0.6,5.7,0,8.4c0,0,0,0,0,0c0.2,0.7,0.3,1.4,0.6,2
						c0.3,1,0.8,2.1,1.3,3.1c0.1,0.1,0.1,0.2,0.2,0.4c0.2,0.4,0.5,0.7,0.7,1c0.2,0.3,0.5,0.5,0.8,0.7c0.6,0.4,1.3,0.7,2.1,0.7
						c0.4,0,0.9-0.1,1.3-0.2c1.1-0.2,2.1-0.6,3.2-1.1c1.4-0.7,2.7-1.5,3.9-2.2c2.4-1.4,4.6-3.1,6.9-4.8c0.7-0.5,1.4-1.1,2.1-1.6
						c0.1,0,0.1-0.1,0.1-0.1c0.2,0.1,0.5,0,0.6-0.3C396.9,280.9,397,280.7,397,280.6z"/>
					<g>
						<path class="st5" d="M395.7,277.8c0.1,1.2-0.1,2.4-0.8,3.6c-0.3,0.5-0.6,1.1-1,1.6c-0.8,1.2-1.7,2.5-2.6,3.5
							c-2,2.1-4,6.6-6.4,9.4c-0.6,0.6-1.1,1.2-1.8,1.6c-0.4,0.3-0.9,0.5-1.3,0.6c0,0-0.1,0-0.1,0c-0.2,0.1-0.5,0.1-0.7,0.1
							c-1.1,0.2-2.2,0.4-3.3,0.7c-0.8,0.2-1.7,0.4-2.5,0.8c-2.1-0.4-4.4-1.2-6.4-2.1c-0.8-0.3-1.6-0.7-2.3-1.2
							c-0.7-0.5-1.3-1.1-1.9-1.6c-1.1-0.9-5.6-3.2-3.5-4.8c1-0.7,1.7-1.7,2.2-2.8c0.4-1.1,0.5-2.2,1-3.2c0.4-0.7,0.9-1.2,1.4-1.7
							c0.4-0.4,0.9-0.8,1.3-1.2c2.8-2.8,3.6-6.8,6.6-9.5c0.6-0.6,1.3-1,2-1.5c0.2-0.1,0.3-0.2,0.5-0.3c0.4-0.2,0.9-0.5,1.3-0.6
							c4.8-2.1,10.9-1.6,15.2,1.3c1,0.7,2,1.5,2.8,2.5c0.2,0.3,0.1,0.5-0.1,0.7c-0.2,0.1-0.3,0.2-0.5,0.1c0.3,0.5,0.6,1.1,0.8,1.6
							c0.1,0.4,0.2,0.8,0.3,1.2c0,0.2,0.1,0.5,0.1,0.7C396.2,277.6,396,277.8,395.7,277.8z"/>
						<path class="st6" d="M386.6,276c-1.6-1.2-4.1-0.6-5.5,0.4c-3.5,2.5-3.4,5.5-9.1,5.8c-0.1,0-1.4-0.2-1.8-0.2
							c-0.4,0-2.6,0.3-4.3,0.2c-0.6,0.5-1.1,1-1.4,1.7c-0.6,1.1-0.6,2.1-1,3.2c-0.4,1.1-1.2,2.1-2.2,2.8c-2.1,1.6,2.5,3.9,3.5,4.8
							c0.6,0.5,1.2,1.1,1.9,1.6c0.7,0.5,1.5,0.9,2.3,1.2c2,0.8,4.3,1.7,6.4,2.1c0.8-0.3,1.7-0.5,2.5-0.8c1.5-2,2.4-4.7,3.1-6.8
							c1.4-4.1,4.3-7.2,6-11.2C387.6,279.3,388.2,277.3,386.6,276z"/>
						<path class="st5" d="M377.6,269.1c0.1-0.6,0-1.3-0.3-2c-0.6-1.4-2-2.6-3.1-2.5c-1.5,0-3.8,1.7-3.5,3.4
							c0.3,1.4,2.4,2.5,3.8,2.8c0.1,0,0.1,0,0.2,0c0.9,0.1,2-0.1,2.6-0.9C377.4,269.7,377.5,269.4,377.6,269.1z"/>
						<g>
							<path class="st4" d="M397.1,282.8c0-0.8,0-1.5-0.1-2.3c-0.1-1.4-0.4-2.8-1-4c-0.2-0.4-0.4-0.7-0.6-1.1
								c-1-1.5-2.5-2.7-4.7-3.2c-5.2-1.2-9.8,1.4-13.8,4.4c-0.1,0.1-0.2,0.3-0.1,0.4c-0.2,1.2-0.5,2.4-0.7,3.6l0,0
								c-0.4,2.2-0.7,4.5-1,6.7c0,0.5-0.1,1-0.1,1.6c0,0.9,0,1.8,0,2.6c0,0.1,0,0.3,0,0.4c0,2.2,0.1,4,0.1,4s0.3,0.2,0.9,0.4
								c1,0.4,2.8,1.2,4.9,1.9c0.4,0.1,0.8,0.2,1.1,0.3c1.3,0.4,2.7,0.7,4.1,0.9c2.6,0.4,4.9,0.2,6.4-1
								C396.2,295.5,397,287,397.1,282.8z"/>
							<path class="st4" d="M387.1,301.9l0.6-3.8l0,0l0.3-1.7l-2.3-1.5l-4.7-3l-1.1-0.7l-2.3-1.5l-1.6-1c0,0-0.2,0.8-0.5,2.1
								c-0.1,0.5-0.3,1.1-0.4,1.8c-0.1,0.2-0.1,0.5-0.2,0.7c-0.6,2.4-1.3,5.3-2,7.6c-0.2,0.8-0.4,1.4-0.6,2l0,0
								c-0.5,1.5-1.2,3,0.3,4.4c1.4,1.4,4.1,1.4,5.9,1.5c2.2,0.1,4.5-0.1,6.7,0.2c0.1,0.1,0.2,0.1,0.3,0c0,0,0.4,0,0.4,0
								L387.1,301.9z"/>
							<path class="st11" d="M387.5,299.7l-0.6,3.9c-0.1,0-0.2-0.1-0.3-0.1c-0.7-0.2-0.3-0.6-1.3-1.4c-1-0.8-0.7-0.6-1-1.4
								c-0.3-0.8-1.6-1-2-2.1c-0.4-1,0.4-1,0.5-1c0.2,0.1,0.8,0.7,2,1.2C385.8,299.3,387.5,299.7,387.5,299.7z"/>
							<path class="st16" d="M392.4,294.9c-0.2,0.3-1.3-0.4-2.5-0.8c-0.9-0.3-1.6-0.3-2.6-0.5c-0.2,0-1-0.2-1-0.5
								c0-0.3,0.6-0.5,0.8-0.6c1.2-0.5,2.7-0.4,3.9,0.2c0.5,0.3,1,0.7,1.2,1.2C392.5,294.5,392.5,294.8,392.4,294.9z"/>
						</g>
						<path class="st5" d="M396.3,275.1c-2.2,1.2-4.4,0.8-6.7,0.6c-1.1-0.1-2,0.1-2.7,0.6c-0.9,0.5-1.6,1.4-2.2,2.3
							c-0.7,1.2-1.8,2.2-2.4,3.4c-1.1-1.3-3.1-0.4-3.7,0.9c-0.5,1.1,0,3.2,0.3,4.3c-0.8,0.7-3.7,5.3-4.1,6.5
							c-0.5,1.7-1.3,2.5-2.1,4.3c0.6-2.4,1.7-7.1,1.8-7.5c0.7-2.8,0.5-5.8,0.6-8.8c0,0,0-0.1,0-0.1c0-1.2,0.1-2.5,0.4-3.7
							c0.6-2.7,2.8-4.1,5.2-5.1c3.1-1.3,6.7-1.9,10.1-1.6c2.4,0.2,4.1,0.9,4.8,3c0.1,0,0.1-0.1,0.2-0.1
							C396.4,273.9,396.8,274.8,396.3,275.1z"/>
						<path class="st8" d="M380.9,287.3c0.2-0.6-0.2-1.4-0.9-1.2c-1.1,0.3-0.2,2,0.6,1.6C380.7,287.7,380.8,287.5,380.9,287.3z"/>
					</g>
				</g>
				<path class="st16" d="M349.3,385.8c10.2,0.1,20.4,1.5,30.6,1.4c8-0.1,15.9-1.3,23.8-2.2c0.5-8.2,2.1-18.3,2.3-28.3
					c0.3-13.4,6-30.3-0.6-42.2c-5-9-13.1-11.4-17.9-12.1c-9.8-1.5-21.3-2.3-30.3,2.5c-11.5,6.2-15,22.2-17.2,34
					c-0.9,4.8-4.7,27.5-7.8,46C337.9,385.1,343.6,385.7,349.3,385.8z"/>
				<path class="st14" d="M367,330.5c0,0-2.1-9.7-3.3-12.7c-1.3-3-2.3-4.1-0.9-4.5c1.4-0.4,2.9,6,4.6,8.2c1.7,2.2,4.3,3,4.8,5.3
					c0.4,2.2,3.9,11.3,3.9,11.3s-6.2,2.5-6.2,2.3C369.7,340.2,367,330.5,367,330.5z"/>
				<path class="st14" d="M353.4,340.1c0,0-3.7,2.7-4.4,2.6s-4-5.7-4.2-5.7s-1.1,6.1,0.9,8.1c2.1,2.1,4-0.9,6.4,1.1
					c2.4,2.1,4.5,2.3,6.7,6.9c2.2,4.5,5.9,6.3,6,6.1c0.1-0.3-4.1-13.4-5-14.4S353.4,340.1,353.4,340.1z"/>
				<path class="st4" d="M403.3,323.2c0,0,10.2,15.2,13.7,23.3c5.6,13.1-5.7,21.8-11.5,9.3c-3-6.5-8.6-31.7-8.6-31.7l2.6-1.2
					L403.3,323.2z"/>
				<path class="st4" d="M392.8,308.7c-0.1,0.8,0.9,2.6,0.9,2.6c-0.2-0.2-0.4-0.5-0.7-0.5c-0.2,0-0.5,0.2-0.5,0.4
					c0,0.5,1.2,3.8,1.7,5.3c0.7,2.4,2.6,7.5,2.7,7.5c2.1-0.3,6.4-0.8,6.4-0.8s-1.3-7.4-1.8-8.9c-0.6-1.8-1.5-3.4-2.3-5
					c-0.5-1-1.4-2.3-1.9-2.7c-0.3-0.2-0.6,0.1-0.6,0.4c0.1,1,2.4,5.4,2.4,5.4s-1.2-1.6-1.7-2.5c-0.5-0.8-2.3-3.1-2.7-3.2
					c-0.8,0-0.2,1.2-0.1,1.6c0.2,0.6,0.7,1.9,0.7,1.9s-1.1-1.5-2-1.8C393,308.3,392.8,308.5,392.8,308.7z"/>
				<path class="st4" d="M391.3,322.3c0,0-0.4,0.9-1,2.5c-0.2,0.6-0.5,1.2-0.8,2c-3.1,7.8-9.5,23.5-11.8,28.2
					c-7.4,15-21.9,3-13.5-8.5c4.8-6.4,15-18.4,19-23.1c0.6-0.7,1.1-1.3,1.4-1.6c0.2-0.2,0.3-0.4,0.3-0.4l5.2-1.7L391.3,322.3z"/>
				<path class="st4" d="M394.9,306.6c-0.9,0.4-2,1.8-2,1.8s0.5-1.3,0.7-1.9c0.1-0.4,0.7-1.6-0.1-1.6c-0.5,0-2.2,2.4-2.7,3.2
					c-0.6,0.8-1.7,2.5-1.7,2.5s2.3-4.4,2.4-5.4c0-0.3-0.3-0.6-0.6-0.4c-0.6,0.4-1.4,1.6-1.9,2.7c-0.9,1.7-1.7,3.3-2.3,5
					c-0.5,1.5-1.8,8.9-1.8,8.9s4.3,0.5,6.4,0.8c0.2,0,2-5,2.7-7.5c0.4-1.6,1.6-4.8,1.7-5.3c0-0.2-0.2-0.4-0.5-0.4
					c-0.3,0-0.5,0.3-0.7,0.5c0,0,1-1.8,0.9-2.6C395.4,306.7,395.2,306.5,394.9,306.6z"/>
				<path class="st4" d="M374.1,343.7l-11.9,13.1l-7-13.3l-1.8-3.4l13.7-9.6c0,0,0,0,0,0c0,0,0,0,0,0L374.1,343.7z"/>
				<g>
					<path class="st15" d="M397.6,500.2c-1.4,14.2-4.9,43.6-6.2,53.9h-0.5c1.2-10.2,4.8-39.7,6.2-53.9c1-10.3,4.2-45.5,3-65.8
						c-0.7-12.4-0.3-28.9,0-37.8c0.1,0.8,0.3,1.7,0.4,2.6c-0.3,9.2-0.6,23.9,0.1,35.2C401.8,454.7,398.6,489.9,397.6,500.2z"/>
				</g>
				<path class="st4" d="M372.9,301.3c0,0,3.2,3.3,6,4.1s3.8,3.8,5.2,3.4c0.7-0.2,1.4-1.9,2.2-3.4c0.7-1.5,0.8-3,0.8-3
					s-6.6-1.5-8-1.5C377.6,300.9,372.9,301.3,372.9,301.3z"/>
				<path class="st11" d="M367,330.5c-0.2,0.3-4.4,5.8-7.9,9.2c-1.3,1.3-2.7,2.6-4,3.9l-1.8-3.4L367,330.5
					C367,330.5,367,330.5,367,330.5z"/>
				<path class="st6" d="M386.6,276c-1.6-1.2-4.1-0.6-5.5,0.4c-2.7,1.9-3.3,4.1-5.9,5.1c0,0,0,0.1,0,0.1c-0.1,2.9,0.1,6-0.6,8.8
					c-0.1,0.4-1.2,5.1-1.8,7.5c0.9-1.7,1.6-2.6,2.1-4.3c0.4-1.2,3.3-5.8,4.1-6.5c-0.3-1.1-0.9-3.2-0.3-4.3c0.6-1.4,2.6-2.2,3.7-0.9
					c0.6-1.2,1.6-2.2,2.4-3.4c0.6-1,1.3-1.8,2.2-2.3C386.8,276.2,386.7,276.1,386.6,276z"/>
			</g>
			<path class="st5" d="M390.3,324.7c-0.2,0.6-0.5,1.2-0.8,2c-0.8-0.5-1.8-1.3-2.5-1.6c-1.2-0.7-2.5-1.2-3.8-1.7
				c0.6-0.7,1.1-1.3,1.4-1.6c1,0.4,2,0.8,3,1.3c0.9,0.4,1.7,0.9,2.5,1.5C390.1,324.6,390.2,324.6,390.3,324.7z"/>
			<path class="st8" d="M386.3,322.2c-0.9,0.2-1.5,1.2-1.3,2.1c0.2,0.9,1.2,1.5,2.1,1.3c0.9-0.2,1.5-1.2,1.3-2.1
				C388.2,322.5,387.3,322,386.3,322.2z"/>
		</g>
		<g>
			<g>
				<polygon class="st4" points="1116.4,553.4 1125,554.4 1129,551 1125.1,547.5 1116.2,545.2 				"/>
				<g>
					<path class="st5" d="M1138,560.9l-5.4-16.4l-1.2,0.3l-0.1,0l-0.8,0.2l-7.2,1.9l1.8,7.4c0,0,5.8,4,6.1,4.3
						c1.4,1.4,2.8,2.5,3.3,2.7c0.5,0.1,1.1,0.1,1.6,0c0.3,0,0.6-0.1,0.8-0.2C1137.5,561.1,1138,560.9,1138,560.9z"/>
					<path class="st8" d="M1138,560.9l-5.4-16.4l-1.2,0.3l3.9,11.7c0,0-0.9,0.4-2.1,1c-0.7,0.3-1.5,0.8-2.1,1.2
						c1.4,1.4,2.8,2.5,3.3,2.7c0.5,0.1,1.1,0.1,1.6,0c0.3,0,0.6-0.1,0.8-0.2C1137.5,561.1,1138,560.9,1138,560.9z"/>
				</g>
			</g>
			<path class="st17" d="M993.4,505.1c0.5-24.9,5.1-62.8,5.1-62.8l35.6,5.7l2.1,27.7c-3.9,6-6.4,12.7-8.1,19.7
				c-1.2,5-1.6,5.1-2.3,10.2c-0.6,4.5-3.2,8.7-3.4,13.2c0,0.3,0.3,0.6,0.6,0.5c2.9-1,5.6,1.7,8.6,1.9c2.8,0.2,5.6-0.1,8.4-0.1
				l1.8,23.1c0,0-33.5,3.5-42.4,0C990.5,540.7,992.9,530,993.4,505.1z"/>
			<path class="st18" d="M1022.3,489c0,0-2.6-7.8-7.1-11.9c-4.5-4.2-4.4-6.9-5.7-9.2c-1.3-2.3-1.9-3.6-5.1-5.2
				c-3.2-1.6-7.2-7.3-7.2-7.3s16.6-4.9,17.2-4.8c0.6,0.2,4.8,2.8,5.6,4.4c0.8,1.6-0.4,1.4,2.3,11C1025,475.5,1022.3,489,1022.3,489z
				"/>
			<path class="st18" d="M1014.4,441.1l1.8,36l13,47.2c0.1,0.9,0.4,1.9,0.5,2.6c0.5,3.1,1,6.1,1.6,9.2c1,5.1,3.5,10.9,6.7,13.7
				c1.3,1.1,3,1.8,5.6,2c23.6,1.5,41.8,2.2,65.4,3c2.7,0.1,5.4,0.2,8.2,0.3l2.6-22.8c0,0-7,0.5-13.6-2c-6.6-2.5-11.2,0-17-2.6
				c-4-1.8-8.7-3.9-13.7-5c-2.4-0.5-4.8-0.8-7.2-0.7c-1.1,0-2.3,0-3.5-0.1c0-0.1,0-0.2,0-0.3c0-0.1,0-0.2,0-0.3c0.1-0.7,0-3-0.2-6.2
				c-0.7-12.6-2.8-39.6-3-43.7c-0.7-11-4.1-22.1-4.1-22.1l-11.6-5.6l-2-1l-2.6-1.3l-8.6,8c0,0-0.5,0.5-0.5,0.5L1014.4,441.1z"/>
			<path class="st8" d="M1059.9,458c0,0-5.5,3.9-9,7.4c-3.5,3.5-4.7,3.8-6.9,6.2c-2.2,2.4-4.1,3.6-5.9,1c-1.8-2.7-4.5-4.5-8.4-7.2
				c-3.9-2.7,2.1-3.4-6.2-5.8s-10.1-8.5-10.1-8.5s23.9-3.9,27.1-2.3C1043.6,450.3,1059.9,458,1059.9,458z"/>
			<path class="st4" d="M992.7,324.6c-0.5-0.2-1.6,0.8-2.4,1.6c-0.7,0.7-3.6,4.5-3.3,6.9c0,0.1,0.1,0.2,0.1,0.2
				c0,0.4,0.1,0.9,0.4,1.1c0.6,0.5,2.2,0.4,2.9,0.3c1.9-0.4,2.3-3.9,2.8-5.6C993.7,327.9,994.1,325.2,992.7,324.6z"/>
			<path class="st4" d="M987.5,331.2c0,0-29.3,12-36.6,15.4c-11.7,5.6-9.8,19.7,4.1,13.9c6-2.5,35.3-25.8,35.3-25.8L987.5,331.2z"/>
			<path class="st19" d="M1000.5,358.9c0,0-10.1-2.1-19.2,0.3c-9.1,2.3-9.7-1.6-14.6-0.7c-4.9,0.9-8.3-1.8-12.1,0.4
				c-3.8,2.2-10.8,14.1-7.7,17c3.1,2.9,18.9,11.1,25.5,13.7c6.6,2.6,18.3,8.1,18.3,8.1L1000.5,358.9z"/>
			<path class="st20" d="M997,340.6c2.6,1.9,5.6,2.9,8.7,3.3c2.1,0.2,7.7-0.8,7.7-0.8s-0.8-10.8-1.5-13.5c-1.5-5.5-8.1-9.3-14-8.3
				c-4.9,0.8-8.2,4.7-9.1,7.9c-1.1,3.8,0.8,6.9,0.8,6.9S993.8,338.4,997,340.6z"/>
			<path class="st4" d="M990.3,339.9c1.1,3.9,3.8,11.7,7.7,13.7c5,2.5,11-2.9,14.2-6.4c0.1-0.1,0.7-5.1-0.4-8.1
				c-1.1-3.2-2.5-6.3-3.9-9.3c0-0.1,0-0.3-0.2-0.3c-4.5-1.9-9.4-3.2-14-0.9C989.3,330.9,989.1,335.5,990.3,339.9z"/>
			<path class="st4" d="M1003.5,351.5l0.8,1.5l0.2,0.3l1.6,3l0.2,0.3l3.2,5.8c0,0,0.3-0.1,0.3-0.1c0.1,0,0.2-0.1,0.3-0.1
				c1.9-1,4.1-1.5,6.1-2.4c1.6-0.7,4.1-1.6,4.9-3.4c0.8-1.8-0.2-2.9-1.2-4.1c-2.6-3.3-8-11.8-8-11.8L1003.5,351.5z"/>
			<path class="st20" d="M1008.5,335.2c-0.4-0.7-1.1-1.2-1.9-1.1c-0.9,0.1-1.4,1.3-2.2,0.3c-1-3.9-4.7-4.6-8.3-3.9
				c-1.6,0.3-3.8,0.9-5.2,1.8c-1.2,0.8-1.2,3.8-1.2,3.8s-1.8-4.7-0.8-5.7c2.5-2.5,7.8-3.3,11.2-3.4c2.2-0.1,4.8,0,6.8,1.1
				c0.7,0.4,1.2,0.8,1.7,1.4c1.2,1.6,1.9,3.5,2.6,5.4c0.4,1.2,1.1,3.7,1.6,5.5c0.3,1.1,0.7,2.8,0.7,2.8s-3.7-3.1-4.2-4
				C1009,337.7,1009.1,336.3,1008.5,335.2z"/>
			<path class="st11" d="M1004.5,353.3l1.6,3l0.2,0.3c0.7-0.4,1.5-1.1,1.9-2.8c0.5-1.8,0.2-1,1.2-3c0.3-0.6,0.5-1.5,0.1-2.1
				c-0.1-0.2-0.5-0.5-0.7-0.5c-0.4,0-0.5,0.4-0.6,0.7c-0.4,0.8-0.8,1.7-1.4,2.4C1006,352.1,1004.6,353.2,1004.5,353.3z"/>
			<g>
				<path class="st16" d="M997.6,348c0.1,0.8,0.6,1.7,1,2.4c0.2,0.4,0.4,0.6,0.5,0.7c0.3,0.2,2.8-1.5,2.8-2c0-0.1-0.1-0.4-0.4-0.7
					c-0.4-0.5-1.2-1.2-2-1.6c-0.5-0.2-1-0.3-1.4-0.2C997.5,346.8,997.5,347.4,997.6,348z"/>
				<path class="st8" d="M997.6,348c0.2-0.1,0.4-0.2,0.6-0.3c0.5-0.2,0.9-0.6,1.3-1c-0.5-0.2-1-0.3-1.4-0.2
					C997.5,346.8,997.5,347.4,997.6,348z"/>
			</g>
			<path class="st21" d="M988.4,401.6c0,1.4,0.1,2.9,0.2,4.3c0.6,11.9,1.8,22,2,24.6c1.3,17.7,6.7,25,6.7,25s10.4,1,34.8,2.9
				c14.5,1.1,27.9-0.3,27.9-0.3c1.1-0.1,2.9-2.7,3.5-3.4c4.3-5.5-1.3-33.7-2.3-40.9c-1.5-10.5-1.6-20.9-3.6-31.3
				c-0.1-0.7-0.3-1.5-0.4-2.2c-0.9-4.1-1.2-8.3-1.9-12.5c-0.4-2.8-1-5.6-2-8.2c-0.3-0.8-0.7-1.5-1.1-2.1c-3.8-5.4-11.8-2.9-15.1-5.9
				c-3-2.7-11-2.4-17.1-1c-1.3,0.3-2.5,0.6-3.7,1c0,0,0,0,0,0c-3.6,1.1-7,2.4-9.5,3.5c-7.5,3.3-15.5,8.5-18.5,16.6
				C984.6,381.3,988.1,391.6,988.4,401.6z"/>
			<path class="st21" d="M1012.5,353.1c0,0,32.8,35.2,33,35.6c2.9,7.9,4.7,0.3,6.5-8.4c1-4.6,2-9.5,3.1-12.5
				c0.3-0.7,0.6-1.4,0.9-1.8c1.6-2.3,3.4-6.9,5.1-11.8c2.5-7,4.7-14.9,5.4-18c0,0,0,0,0,0c0.1-0.2,0.1-0.5,0.1-0.6
				c0.7-3.5-8.2-8.2-13.6-9.3c-1-0.2-1.8-0.3-2.5-0.2c-4.3,0.4-5.6,4.5-10.2,6.6c-0.7,0.3-1.4,0.7-2,1.1c-0.8,0.5-1.5,1.2-2.2,1.9
				c-2,2-4.1,4.7-8.6,8.4c-4.5,3.7-8.7,6.1-11.6,7.6c0,0,0,0,0,0C1013.9,352.6,1012.5,353.1,1012.5,353.1z"/>
			<path class="st4" d="M1008.1,323.7c0,0,30.5-8.3,38.4-10c12.7-2.7,19.8,9.6,5.2,13.5c-6.3,1.7-43.7,1-43.7,1L1008.1,323.7z"/>
			<path class="st21" d="M1016.9,321.3c0,0,6.2,8,8.3,9.3c2.2,1.2,1.4,0.6,5.3,0.7c1.1,0,1.9,0.3,2.8,0.7c1.2,0.5,2.7,1.2,5.2,1.7
				c1,0.2,2.3,0.4,3.8,0.5c1.7,0.1,3.7,0.2,6.2,0.2c13.6-0.2,16.2,6.5,16.2,6.5s0.9-1.9,1.9-4.7c0,0,0,0,0,0
				c1.9-5.3,4.1-13.5,1.6-18c-3.9-6.8-16.9-10.1-20.5-7.9c-3.6,2.2-4.4,1.2-10.4,1.9c-6.1,0.7-6.3,2.7-12,3.8
				C1019.5,317,1016.9,321.3,1016.9,321.3z"/>
			<path class="st21" d="M950.3,378.4c0,0-14-9.2-14.5-17c-0.5-7.8,7.5-17.7,11.8-17.9c4.2-0.2,4.3-1.4,9.8-4.1
				c5.5-2.7,6.7-1.2,12.1-3.5c5.4-2.2,7-0.1,7-0.1s-0.4,11.2-1.6,13.4c-1.1,2.2-1.8,4.6-4.9,6.8c-3.2,2.2,1.7,0.8-9.8,8.1
				C948.7,371.4,950.3,378.4,950.3,378.4z"/>
			<path class="st8" d="M1023.1,368.7c0,0-8.1,1.2-15.2,3.2c-6,1.6-12.2,5.1-12.2,5.1l2.1,14.1c0,0,6.8-3,14.7-5.1
				c6.5-1.8,13.2-2.1,13.2-2.1L1023.1,368.7z"/>
			<path class="st17" d="M1055.1,529.2c0.9,3.9,6.7-0.8,7.9-2c1.6-1.6,2.9-2.4,5.2-2.7c1-0.1,2-0.3,2.9-0.6c1.5-0.6,3-1.1,4.4-1.4
				c-2.4-0.5-4.8-0.8-7.2-0.7c-1.1,0-2.3,0-3.5-0.1c0-0.1,0-0.2,0-0.3c0-0.1,0-0.2,0-0.3c0.1-0.7,0-3-0.2-6.2
				c-0.2,0-0.3,0.1-0.5,0.1c-1.3,0.4-2.1,1-2.6,2.3c-0.7,1.6-0.7,3.3-1.9,4.7c-0.9,1.1-2.1,2-3,3.1
				C1055.9,526,1054.8,527.8,1055.1,529.2z"/>
			<path class="st19" d="M1036.8,360c1.5,1.8,4.2,2.4,6.2,3.7c2.6,1.7,1.3,3.9,2,6.3c0.3,1.1,1,1.7,1.8,2.5c1.5,1.4,2.6,3,3.6,4.8
				c0.5,1,0.9,2.1,1.7,2.9c0.1,0.1,0.3,0.2,0.4,0.3c1,0.8,2.4,0.9,3.6,1.3c0.5,0.2,1,0.3,1.4,0.5c-0.1-0.7-0.3-1.5-0.4-2.2
				c-0.9-4.1-1.2-8.3-1.9-12.5c0.3-0.7,0.6-1.4,0.9-1.8c1.6-2.3,3.4-6.9,5.1-11.8c-1.6,1.6-3.4,2.8-5.9,2.8c-1.1,0-2.2,0.3-3.2,0.5
				c-0.5,0.1-1,0.2-1.5,0.3c-2.4,0.4-4.4-0.3-6.7-0.8c-1.6-0.3-3.2-0.6-4.8-0.8c-0.7-0.1-1.6-0.3-2.2,0.2
				C1035.5,357.1,1036,359,1036.8,360z"/>
			<path class="st19" d="M1038.6,333.6c-0.8,0.5-1.5,1.2-2.2,1.9c1.9-0.4,4.2-0.6,5.9-1.4c0.2-0.1,0.5-0.2,0.7-0.3
				c1.4-0.8,2.2-2.2,3.6-3c1.3-0.8,2.9-1,4.2-1.7c1.2-0.6,2.3-1.6,2.3-2.9c0-0.2,0-0.4-0.1-0.7c-1-4.1-7.5-0.2-9.3,1
				c-1.4,0.9-2.8,2-4.4,2.4c-1.3,0.4-2.5,0.5-3.7,1.2c-0.7,0.5-1.6,1.1-2.2,1.8C1034.6,332.5,1036.1,333.1,1038.6,333.6z"/>
			<path class="st19" d="M1065,444.5C1065,444.5,1064.9,444.5,1065,444.5c-1.8-0.2-3.6,0.1-5.4,0.2c-2.1,0.1-4-0.2-6-0.9
				c-3.4-1.3-6.2-3.5-9.4-5c-1.6-0.8-3.9-1.5-5.5-0.1c-4.2,3.6,8,7.4,9.5,8.2c3.2,1.6,6.6,2.8,9.9,4.2c2.1,0.9,4,1.6,6.1,2.2
				L1065,444.5z"/>
			<path class="st4" d="M997.6,324.1c0.4,0.4,2,0.5,2,0.5c-0.2,0.1-0.5,0.1-0.6,0.3c-0.1,0.1-0.1,0.4,0.1,0.5c0.3,0.2,3.7,1.7,4.8,2
				c2.6,0.7,4,0.9,4.1,0.8c0.6-1.5,2.8-4.8,2.8-4.8s-5.2-2.3-6.3-2.6c-1.3-0.3-2.7-0.5-4.1-0.6c-0.8-0.1-2-0.1-2.4,0.1
				c-0.2,0.1-0.2,0.4,0,0.5c0.7,0.3,4.3,0.7,4.3,0.7s-1.5,0.1-2.2,0.1c-0.7,0-2.9,0.1-3,0.4c-0.3,0.5,0.7,0.7,1,0.7
				c0.5,0.1,1.5,0.3,1.5,0.3s-1.4,0.1-1.9,0.5C997.4,323.7,997.4,324,997.6,324.1z"/>
		</g>
		<g>
			<path class="st16" d="M723.7,366.2c-0.1-0.5-0.8-0.5-1,0c-0.9,3.1-3.6,10-7.6,10.2c-1.6,0.1-3.1-0.4-4.7-0.6
				c-5.9-0.6-8.4,4.4-13,6.9c-1.9,1-4,1.7-6,2.5c-1.1,0.5-2.2,1-3.3,1.6c-0.4,0.3-1.5,1.4-2.1,1.3c-0.8-0.1-1.1-2.4-1.1-3
				c0-1.2,0.5-2.3,1.1-3.4c1.8-3.3,4.9-5.9,7.8-8.4c0.3-0.3,0.1-0.8-0.4-0.9c-15.1-0.6-25.1,9.8-33.6,20.9
				c-4.5,5.9-8.8,12.2-14.1,17.4c-6.7,6.6-16.7,5.6-23.9,11.2c-3.8,3-7.2,6.7-9.9,10.9c-0.3-1.7-0.4-3.4-0.2-5.2
				c0.4-4.2,1.3-8.2-1.6-11.8c-1.3-1.6-2.8-2.6-4.3-3.8c-2.2-1.8-1.9-4.9-1.1-7.4c2.3-6.7,7.5-12.1,12.6-16.9
				c0.2-0.2,0.2-0.8-0.2-0.8c-8.4-1.2-16.5,6.8-21.9,12.1c-3.6,3.5-6.7,7.4-9,11.8c-2.5,4.9-4.2,10.1-5.7,15.4
				c-1.6,5.5-3.9,10.1-7.9,14.2c-3.6,3.7-7.8,6.7-11.4,10.3c-6.5,6.5-9.2,15.2-9.6,24.2c-0.4,6.8,0.4,13.7,2,20.3
				c-1.1,0-2.2,0-3.2,0.1c-0.4,0-0.6,0.4-0.4,0.8c1,2,2.8,2.4,4.7,2.8c0.8,2.6,1.6,5.1,2.6,7.5c0.2,0.6,1.2,0.3,1-0.3
				c-0.9-2.3-1.7-4.6-2.5-7c0.5,0.2,1.1,0.3,1.6,0.6c3.9,2.1,3.4,8.2,5.4,11.7c3.4,5.7,9.6,7.3,15.8,6.4c8.2-1.2,15.9-5.7,22.7-10.3
				c7.5-5.1,14.3-11.1,21.3-16.8c7.9-6.3,16.1-11.5,25.1-16.1c8.8-4.5,17.4-9.1,25.2-15.2c7.7-6,14.6-12.8,21.7-19.5
				c3.6-3.4,7.3-6.9,10.7-10.5c0,0.3-0.1,0.5-0.1,0.8c0,0.6,1,0.6,1,0c0.1-0.7,0.1-1.3,0.2-2c1.8-2,3.6-4,5.2-6.2
				c2.6-3.5,4.9-7.3,6.6-11.4c1.9-4.6,2.6-9.2,3.2-14c0.7-5.2,2.9-10.1,4-15.2C726.6,376.5,724.9,371.3,723.7,366.2z M551.2,496.5
				c0.9,0,1.7-0.1,2.6-0.1c0.1,0.5,0.3,1.1,0.4,1.6C553.1,497.9,552,497.5,551.2,496.5z"/>
			<path class="st22" d="M689.3,398.5c-2.7,3-4.8,6.6-7.5,9.6c-2.6,2.8-5.9,5.1-9,7.2c-5.5,3.7-11.8,5.8-17.1,9.8
				c1.2-2.9,2.5-5.8,4.8-8.1c2-2.1,4.6-3.6,6.9-5.5c0.3-0.3,0.1-0.9-0.4-0.9c-6.1,0.2-10.8,4.1-15.2,7.9c-5.5,4.9-11.3,9.5-16.2,15
				c-2.2,2.5-4,5.4-6.5,7.6c-3.1,2.8-7,2.5-10.7,3.9c-5.7,2.1-9.7,7.3-12.8,12.4c-1,1.6-1.9,3.3-2.8,5c-0.3-1.3-0.7-2.5-1.3-3.7
				c-2.1-3.9-4.7-7.5-3.9-12.2c0.8-4.3,3.7-7.9,6.4-11.3c0.3-0.4,0-1-0.5-0.8c-12.7,3.5-11.1,20.7-13.7,30.7
				c-1.7,6.4-7.8,10.4-9.5,16.8c-1.6,6.3-0.3,13.9,2.7,19.5c0.9,1.6,2.4,4.8,4.4,6.8c-0.7,0.6-1.4,1.3-2.1,2
				c-0.5,0.5,0.2,1.2,0.7,0.7c0.7-0.7,1.5-1.4,2.2-2c1.2,0.9,2.6,1.3,4,0.4c0.6-0.3,0.1-1.2-0.5-0.9c-0.9,0.5-1.9,0.4-2.8-0.2
				c7.2-6.3,15.5-11,23.5-16.1c4.9-3.1,9.2-6.9,13.9-10.1c4.3-2.9,8.2-6.3,12-9.8c7.3-6.7,16.5-10.7,23.9-17.2
				c7.5-6.6,12.3-16,16.5-25c2.5-5.2,5.1-10.4,7.5-15.6c2.3-4.9,4.1-10,3.9-15.4C690.1,398.5,689.6,398.2,689.3,398.5z"/>
			<g>
				<path class="st5" d="M990.1,242.3l-27.4-32.5c-0.4-0.4-1-0.5-1.4-0.1l-12.8,10.8l28.7,34l12.8-10.8
					C990.4,243.3,990.4,242.7,990.1,242.3z"/>
				<path class="st5" d="M983.8,252.4l-32.2-38.1c-3.7-4.4-28.1,2.2-28.1,2.2l53.4,63.2C976.9,279.8,987.5,256.9,983.8,252.4z"/>
				<path class="st16" d="M953.4,189c1.7-1.3,2.7-3.3,2.9-5.4l2.3-26.8c0.2-2.5-2.9-4-4.7-2.2l-0.3,0.3L877,231.3
					c-1.6,1.6-2.4,3.8-2.3,6.1l1,13.9l72.6-58.2L953.4,189z"/>
				<path class="st23" d="M932.1,318l13.6,3.3c2.2,0.5,4.5,0.1,6.4-1.2l88.5-63c2.1-1.5,1.2-4.8-1.4-5l-26.8-2.2
					c-2.1-0.2-4.2,0.5-5.8,1.9L932.1,318z"/>
				<path class="st14" d="M954.2,230.7l-26.4-31.3l-49.2,45.3c-11.3,9.5-12.7,26.4-3.2,37.7l7.3,8.6L954.2,230.7z"/>
				<path class="st24" d="M967.7,246.6l26.4,31.3l-52.9,40.9c-11.3,9.5-28.2,8.1-37.7-3.2l-7.3-8.6L967.7,246.6z"/>
				<path class="st8" d="M940.1,213.9c-49.5,34.1-99.2,69-147.2,105.9c-0.3,0.2-0.5,0.4-0.8,0.6c-21.1,16.2-41.8,32.8-62,50
					c-0.3,0.2-0.5,0.4-0.7,0.6c-10.2,8.6-20.2,17.4-30.1,26.3c-9.8,8.8-19.5,17.8-29.1,26.9c-0.2,0.2-0.5,0.4-0.7,0.7
					c-16.1,15.2-32,30.7-47.7,46.3c-0.1,0.1-0.1,0.1-0.2,0.2c-3.1,3.1-6.1,6.3-9.1,9.4c-0.2,0.2-0.5,0.5-0.7,0.7
					c-3.3,3.5-6.7,6.9-10.3,10.1c-4.2,3.8-7.7,7-10.5,9.6c-6.3,6-17.9,19.3-26.5,29.7c-0.2,0.3-0.4,0.5-0.6,0.8
					c-0.6,0.7-1.1,1.3-1.6,1.9c-1.2,1.5-2.3,2.8-3.4,4.1c4.4,0.7,8.7,1.4,13.1,1.9c13.9,1.4,27.9-0.2,41.8,0.4
					c13.9,0.6,27.7,3.3,41.7,4c1.1,0.1,2.3,0.1,3.4,0.1c1.2-0.8,2.3-1.6,3.5-2.5c0.3-0.2,0.5-0.4,0.8-0.6c3.6-2.5,7.1-5.1,10.6-7.7
					c18-13,35.6-26.5,53.1-40.3c0.3-0.2,0.5-0.4,0.8-0.6c20.9-16.5,41.4-33.3,61.6-50.4c0.2-0.2,0.5-0.4,0.7-0.6
					c19.9-16.8,39.5-33.7,58.9-50.6c0.5-0.4,1-0.8,1.4-1.3c0.2-0.2,0.5-0.4,0.7-0.6c11.7-10.3,23.1-20.8,34.7-31.2
					c11.7-10.8,23.3-21.7,34.8-32.8c3.1-3,6.2-6,9.2-9c22.6-22.2,43.5-43.9,51.9-52.6L940.1,213.9z"/>
				<path class="st25" d="M927.5,313.5c-5.4-5.1-12-8.8-16.1-15.1c3.1-2.7,6.7-5,10.1-6.6c0.6-0.3,0.2-1.2-0.3-0.9
					c-3.3,1.5-6.2,3.6-9,5.9c-0.4,0.3-0.8,0.7-1.2,1c-0.2-0.4-0.5-0.8-0.7-1.2c-0.3-0.6-1.2-0.2-0.9,0.3c0.3,0.5,0.6,1,0.8,1.5
					c-2.1,1.8-4.1,3.7-5.7,5.9c-2.5,3.5-3.9,7.5-5.9,11.2c-2.1,4-4.9,7.2-8.7,9.6c-3.3,2.1-7.1,3.5-11,3.8
					c-3.5,0.3-7.1-0.3-10.6,0.1c-6.7,0.8-13.8,3.2-19.2,7.3c-5.9,4.4-9.9,10.7-13.9,16.7c-2.1,3.2-4.4,6.3-6.7,9.5
					c-2.5,3.4-5,7-8.4,9.7c-6.3,5-14.3,7.1-21.3,11c-14,7.8-23.5,20.9-33.1,33.3c-5,6.6-10.1,13.5-16.6,18.7
					c-6.3,5.1-13.7,8.5-21,11.8c-3.7,1.7-7.4,3.5-11.2,5.1c-3.9,1.6-7.8,3.1-11.6,5.1c-7.6,4-12.6,10.7-18.7,16.5
					c-6.9,6.5-14.1,12.7-21.1,19.1c-6.9,6.4-13.3,13.2-19.6,20.2c-6.4,7-12.9,13.7-20.1,19.8c-2.9,2.4-5.8,4.8-8.7,7.2
					c12.8,0.8,25.5,3.1,38.3,3.8c1.1,0.1,2.3,0.1,3.4,0.1c1.2-0.8,2.3-1.6,3.5-2.5c0.3-0.2,0.5-0.4,0.8-0.6
					c3.6-2.5,7.1-5.1,10.6-7.7c18-13,35.6-26.5,53.1-40.3c0.3-0.2,0.5-0.4,0.8-0.6c20.9-16.5,41.4-33.3,61.6-50.4
					c0.2-0.2,0.5-0.4,0.7-0.6c19.9-16.8,39.5-33.7,58.9-50.6c0.5-0.4,1-0.8,1.4-1.3c0.2-0.2,0.5-0.4,0.7-0.6
					c11.7-10.3,23.1-20.8,34.7-31.2c11.7-10.8,23.3-21.7,34.8-32.8c3.1-3,6.2-6,9.2-9C929.1,315,928.3,314.3,927.5,313.5z"/>
				<path class="st26" d="M655.5,543.8c1.1,0.1,2.3,0.1,3.4,0.1c1.2-0.8,2.3-1.6,3.5-2.5c0.3-0.2,0.5-0.4,0.8-0.6
					c3.6-2.5,7.1-5.1,10.6-7.7l-2.1-2.5l-20.1-23.8l-30.1-35.7c-3.1,3.1-6.1,6.3-9.1,9.4c-0.2,0.2-0.5,0.5-0.7,0.7
					c-3.3,3.5-6.7,6.9-10.3,10.1l43.4,51.4C648.4,543.3,652,543.6,655.5,543.8z"/>
				<path class="st27" d="M634.8,524.5c0,0,28.7,9,28.7,8.9c0-0.1,6-1.5,8.2-2.6l-20.1-23.8c0,0-8,8.3-11.7,12.2
					C636.2,523,634.8,524.5,634.8,524.5z"/>
				<path class="st26" d="M920.7,324.8c1.2-1.2,2.5-2.4,3.7-3.6c0.2-0.2,0.5-0.5,0.7-0.7c21.5-20.9,42.2-42.3,53-53.4
					c0.2-0.2,0.5-0.5,0.7-0.7c1.2-1.2,2.2-2.3,3.1-3.2l-11.9-14.1l-29.8-35.3c-1.2,0.8-2.4,1.7-3.7,2.5c-0.3,0.2-0.5,0.4-0.8,0.5
					c-20.6,14.2-41.4,28.4-61.5,43.3c-0.3,0.2-0.5,0.4-0.8,0.6c-1.4,1-2.7,2.1-4.1,3.1l34.8,41.2c0,0,0,0,0,0L920.7,324.8z"/>
				<path class="st27" d="M920.7,324.8c1.2-1.2,2.5-2.4,3.7-3.6c0.2-0.2,0.5-0.5,0.7-0.7c21.5-20.9,42.2-42.3,53-53.4
					c0.2-0.2,0.5-0.5,0.7-0.7c1.2-1.2,2.2-2.3,3.1-3.2l-11.9-14.1c0,0-16.8,14.1-25.2,20c-8.3,5.8-40,35.3-40.7,35.9c0,0,0,0,0,0
					L920.7,324.8z"/>
				<g>
					<g>
						<path class="st28" d="M924.3,321.3c0.2-0.2,0.5-0.4,0.7-0.7l-51-60.3c-0.3,0.2-0.5,0.4-0.8,0.6L924.3,321.3z"/>
					</g>
				</g>
				<g>
					<g>
						<path class="st28" d="M978,267.1c0.2-0.2,0.5-0.5,0.7-0.7l-42.3-50c-0.3,0.2-0.5,0.4-0.8,0.6L978,267.1z"/>
					</g>
				</g>
				<path class="st14" d="M895.2,294.6L895.2,294.6c2,2.3,5.2,2.8,7.2,1.2l65.1-49.5l-12.7-15l-59.6,55.9
					C893.2,289.1,893.2,292.3,895.2,294.6z"/>
				<path class="st16" d="M912.5,284.2l93.3-78.8c1.4-1.1,1.5-3.2,0.4-4.5c-1.1-1.4-3.2-1.5-4.5-0.4l-93.3,78.8
					c-1.4,1.1-1.5,3.2-0.4,4.6c0.6,0.7,1.4,1.1,2.2,1.1C911,285.1,911.8,284.8,912.5,284.2z"/>
				<path class="st14" d="M566.7,538.8l-4.5-5.3c-1.2,1.5-2.3,2.8-3.4,4.1C561.5,538,564.1,538.4,566.7,538.8z"/>
				<g>
					<path class="st28" d="M662.4,541.4c0.3-0.2,0.5-0.4,0.8-0.6l-50.8-60.2c-0.2,0.2-0.5,0.5-0.7,0.7L662.4,541.4z"/>
				</g>
				<g>
					<path class="st26" d="M726.9,492.9c0.3-0.2,0.5-0.4,0.8-0.6l-57.6-68.1c-0.2,0.2-0.5,0.4-0.7,0.7L726.9,492.9z"/>
				</g>
				<g>
					<path class="st26" d="M789.3,441.9c0.2-0.2,0.5-0.4,0.7-0.6l-60-71c-0.3,0.2-0.5,0.4-0.7,0.6L789.3,441.9z"/>
				</g>
				<g>
					<path class="st26" d="M850.4,389.4c0.2-0.2,0.5-0.4,0.7-0.6l-58.3-69c-0.3,0.2-0.5,0.4-0.8,0.6L850.4,389.4z"/>
				</g>
				<g>
					<path class="st5" d="M917.9,317.7c-0.5,0.5-1.3,0.4-1.8-0.2c-0.5-0.5-0.4-1.3,0.2-1.8c0.5-0.5,1.3-0.4,1.8,0.2
						C918.5,316.4,918.4,317.2,917.9,317.7z"/>
					<path class="st5" d="M907.4,305.2c-0.5,0.5-1.3,0.4-1.8-0.2c-0.5-0.5-0.4-1.3,0.2-1.8c0.5-0.5,1.3-0.4,1.8,0.2
						C908,304,907.9,304.8,907.4,305.2z"/>
					<path class="st5" d="M887.9,282.1c-0.5,0.5-1.3,0.4-1.8-0.2c-0.5-0.5-0.4-1.3,0.2-1.8c0.5-0.5,1.3-0.4,1.8,0.2
						C888.5,280.9,888.4,281.7,887.9,282.1z"/>
					<path class="st5" d="M877.4,269.7c-0.5,0.5-1.3,0.4-1.8-0.2c-0.5-0.5-0.4-1.3,0.2-1.8c0.5-0.5,1.3-0.4,1.8,0.2
						C878,268.5,877.9,269.3,877.4,269.7z"/>
				</g>
				<g>
					<path class="st28" d="M663.9,532.2c-0.5,0.5-1.3,0.4-1.8-0.2c-0.5-0.5-0.4-1.3,0.2-1.8c0.5-0.5,1.3-0.4,1.8,0.2
						C664.5,530.9,664.5,531.7,663.9,532.2z"/>
					<path class="st28" d="M654.3,520.7c-0.5,0.5-1.3,0.4-1.8-0.2c-0.5-0.5-0.4-1.3,0.2-1.8c0.5-0.5,1.3-0.4,1.8,0.2
						C654.9,519.5,654.8,520.3,654.3,520.7z"/>
					<path class="st28" d="M633.9,496.7c-0.5,0.5-1.3,0.4-1.8-0.2c-0.5-0.5-0.4-1.3,0.2-1.8c0.5-0.5,1.3-0.4,1.8,0.2
						C634.5,495.4,634.5,496.2,633.9,496.7z"/>
					<path class="st28" d="M643.9,508.5c-0.5,0.5-1.3,0.4-1.8-0.2c-0.5-0.5-0.4-1.3,0.2-1.8s1.3-0.4,1.8,0.2
						C644.5,507.3,644.5,508.1,643.9,508.5z"/>
					<path class="st28" d="M623.4,484.2c-0.5,0.5-1.3,0.4-1.8-0.2c-0.5-0.5-0.4-1.3,0.2-1.8c0.5-0.5,1.3-0.4,1.8,0.2
						C624,483,624,483.8,623.4,484.2z"/>
				</g>
				<g>
					<path class="st28" d="M788.2,427.2c-0.5,0.5-1.3,0.4-1.8-0.2c-0.5-0.5-0.4-1.3,0.2-1.8c0.5-0.5,1.3-0.4,1.8,0.2
						C788.8,426,788.7,426.8,788.2,427.2z"/>
					<path class="st28" d="M778.5,415.8c-0.5,0.5-1.3,0.4-1.8-0.2c-0.5-0.5-0.4-1.3,0.2-1.8c0.5-0.5,1.3-0.4,1.8,0.2
						C779.1,414.5,779,415.3,778.5,415.8z"/>
					<path class="st28" d="M758.2,391.7c-0.5,0.5-1.3,0.4-1.8-0.2c-0.5-0.5-0.4-1.3,0.2-1.8c0.5-0.5,1.3-0.4,1.8,0.2
						C758.8,390.5,758.7,391.3,758.2,391.7z"/>
					<path class="st28" d="M768.2,403.6c-0.5,0.5-1.3,0.4-1.8-0.2c-0.5-0.5-0.4-1.3,0.2-1.8c0.5-0.5,1.3-0.4,1.8,0.2
						C768.8,402.3,768.7,403.1,768.2,403.6z"/>
					<path class="st28" d="M747.7,379.3c-0.5,0.5-1.3,0.4-1.8-0.2c-0.5-0.5-0.4-1.3,0.2-1.8s1.3-0.4,1.8,0.2
						C748.3,378,748.2,378.8,747.7,379.3z"/>
				</g>
				<g>
					
						<rect x="908.2" y="286.6" transform="matrix(0.7144 -0.6997 0.6997 0.7144 69.2061 743.804)" class="st28" width="75.2" height="1"/>
				</g>
				<g>
					
						<rect x="901.7" y="278.7" transform="matrix(0.7533 -0.6577 0.6577 0.7533 48.047 686.5373)" class="st28" width="75" height="1"/>
				</g>
				<g>
					
						<rect x="873.5" y="245.5" transform="matrix(0.81 -0.5865 0.5865 0.81 28.8708 581.0211)" class="st28" width="75.2" height="1"/>
				</g>
				<g>
					
						<rect x="880.2" y="253.4" transform="matrix(0.7747 -0.6323 0.6323 0.7747 46.212 637.4224)" class="st28" width="75" height="1"/>
				</g>
				<path class="st14" d="M953.4,189c1.7-1.3,2.7-3.3,2.9-5.4l2.3-26.8c0.2-2.5-2.9-4-4.7-2.2l-0.3,0.3l-5.2,38.1L953.4,189z"/>
				<path class="st24" d="M1006.5,251.9c1.6-1.4,3.7-2.1,5.8-1.9l26.9,2.2c2.5,0.2,3.4,3.5,1.4,5l-0.4,0.3l-38.5-1.2L1006.5,251.9z"
					/>
				<path class="st14" d="M981.6,225.8l24.2-20.4c1.4-1.1,1.5-3.2,0.4-4.5c-1.1-1.4-3.2-1.5-4.5-0.4l-24.2,20.4L981.6,225.8z"/>
				<path class="st27" d="M883,347.4l-7.2-8.5c-0.4-0.4-1-0.5-1.4-0.1l-31.3,26.5c-0.4,0.4-0.5,1-0.1,1.4l7.2,8.5
					c0.4,0.4,1,0.5,1.4,0.1l31.3-26.5C883.3,348.5,883.4,347.8,883,347.4z"/>
				<g>
					<path class="st28" d="M851.3,372.5c0,0-0.1,0-0.1,0c-0.4,0-0.8-0.2-1-0.5l-3.9-4.7c-0.3-0.3-0.4-0.7-0.3-1.1
						c0-0.4,0.2-0.8,0.5-1l27.5-23.2c0.3-0.3,0.7-0.4,1.1-0.3c0.4,0,0.8,0.2,1,0.5l3.9,4.7c0.3,0.3,0.4,0.7,0.3,1.1
						c0,0.4-0.2,0.8-0.5,1l-27.5,23.2C851.9,372.4,851.6,372.5,851.3,372.5z M874.8,342.6c-0.1,0-0.2,0-0.3,0.1L847,365.9
						c-0.1,0.1-0.2,0.2-0.2,0.3c0,0.1,0,0.3,0.1,0.4l3.9,4.7c0.2,0.2,0.5,0.2,0.7,0.1l27.5-23.2c0.1-0.1,0.2-0.2,0.2-0.3
						c0-0.1,0-0.3-0.1-0.4l-3.9-4.7C875.1,342.7,874.9,342.6,874.8,342.6C874.8,342.6,874.8,342.6,874.8,342.6z"/>
				</g>
				<g>
					<path class="st14" d="M879.1,234.7c-0.1,0-0.3,0-0.4-0.1c-0.2-0.2-0.2-0.5,0-0.7l66.5-65.2c0.2-0.2,0.5-0.2,0.7,0
						c0.2,0.2,0.2,0.5,0,0.7l-66.5,65.2C879.3,234.7,879.2,234.7,879.1,234.7z"/>
				</g>
				<g>
					<path class="st24" d="M949.7,318.3c-0.2,0-0.3-0.1-0.4-0.2c-0.2-0.2-0.1-0.5,0.1-0.7l75.4-54.6c0.2-0.2,0.5-0.1,0.7,0.1
						c0.2,0.2,0.1,0.5-0.1,0.7L950,318.2C949.9,318.2,949.8,318.3,949.7,318.3z"/>
				</g>
				<path class="st5" d="M973.3,257c-0.5,0.5-1.3,0.4-1.8-0.2c-0.5-0.5-0.4-1.3,0.2-1.8c0.5-0.5,1.3-0.4,1.8,0.2
					C973.9,255.7,973.8,256.5,973.3,257z"/>
				<path class="st5" d="M946.6,225.4c-0.5,0.5-1.3,0.4-1.8-0.2c-0.5-0.5-0.4-1.3,0.2-1.8c0.5-0.5,1.3-0.4,1.8,0.2
					C947.2,224.2,947.1,225,946.6,225.4z"/>
			</g>
			<path class="st16" d="M577.6,407.1c-5.3-0.3-10.2,5.5-13.1,9.2c-3,3.9-4.7,8.4-5.6,13.1c-1.6,3-2.7,6.5-2.2,9.4
				c0.7,3.8,4.5,5.1,7.7,3.4c5.3-2.9,5.8-9.2,5.8-14.6c-0.1-3.7,0.1-7.1,1.6-10.6c1.4-3.4,3.5-6.6,6.2-9.1
				C578.3,407.6,578.1,407.1,577.6,407.1z"/>
			<path class="st16" d="M821.6,492.3c-0.4-4.2-1.6-8.4-3.9-12c-2.3-3.5-5.6-6.1-8.7-8.7c-3.3-2.8-6.8-5.7-8.6-9.7
				c-2.6-5.7,1.8-11.1,4.6-15.8c0.2-0.4-0.1-0.9-0.6-0.7c-7.8,2.5-13.2,7.8-17.4,14.5c0.3-1.8,0.4-3.7,0.5-5.5
				c0.2-4.2,0.1-8.5-0.5-12.7c-0.7-5.1-2.5-13.7-8.4-15.2c1.3,3.6,1.6,7.7,0.9,11.5c-1.8,9.7-13.1,18.4-22.1,20.9
				c-2.8,0.8-5.8,1.5-8,3.6c-1.6,1.6-2.9,3.5-4.3,5.3c-1,1.3-3,4.3-4.7,4.5c-3.1,0.4-1.6-6.7-1.1-8.1c1.3-4,4-7.9,7.5-10.4
				c0.4-0.3,0.3-1-0.3-0.9c-11,1.3-15.2,11.6-19.5,20.3c-2.3,4.7-4.8,9.7-9.1,12.8c-2.4,1.8-5.2,2.9-7.4,5c-1.9,1.8-3.3,3.9-4.2,6.3
				c-2.6,6.5-2,13.7-0.8,20.5c-2.4,1.2-4.7,2.8-6.3,4.6c-1.1,1.2-2,2.8-1.3,4.4c0.9,2.1,3.9,2.8,5.9,3.3c8.1,2.1,16.1,5.7,24.5,6
				c9,0.2,17.8-2.5,26.5-4.3c10.2-2.1,20.6-1.6,30.9-1.6c5.4,0,10.9,0,16.3,0c2.8,0,5.7,0.2,8.5-0.3c6.1-1.1,7-6.8,8.2-12
				C820.5,509.5,822.5,500.9,821.6,492.3z"/>
			<path class="st22" d="M806.3,491.2c-0.4-4.2-2.2-8.1-5.6-10.8c-2.3-1.8-5-2-6.2-5.1c-0.8-2.2-0.9-4.6-1.5-6.9
				c-0.1-0.4-0.7-0.5-0.9-0.1c-1.2,2.5-1,5.8-4.3,6.4c-3,0.5-5.5-0.2-8-1.9c-1.5-1-2.9-2.1-4.8-1.7c-2,0.4-3.5,2-5.1,3.2
				c1.4-4.7,5.1-9.2,8.2-12.8c0.3-0.4,0-1-0.5-0.8c-5.3,1.4-9.3,6.6-12.8,10.4c-5,5.3-10.8,9-17.8,11.1c-5.6,1.6-12,2.7-16.3,6.9
				c-4,3.8-6.5,9.9-7,15.4c-1.2,0.3-2.4,0.8-3.5,1.5c-0.5,0.4,0,1.2,0.5,0.9c0.9-0.6,1.9-1.1,2.9-1.4c0,0.1,0,0.2,0,0.3
				c0,0.6,1,0.6,1,0c0-0.2,0-0.3,0-0.5c1.5-0.3,3-0.3,4.6,0.2c2,0.5,3.7,2,5.8,2.4c2.5,0.5,5.1,0.1,7.6,0.5c2.9,0.5,5.7,1.7,8.4,2.8
				c4.8,1.9,9.6,2.8,14.7,3.4c5.5,0.7,11,1.2,16.6,1.2c5.1,0,10,0.1,14.9,1.4c1.8,0.4,3.5,0.6,4.7-1.1c0.9-1.3,1.2-3.1,1.6-4.7
				c0.5-2.2,1.1-4.3,1.5-6.5C805.9,500.4,806.7,495.8,806.3,491.2z"/>
			<path class="st29" d="M1071.4,553.1H649c-117.2,0-212.9,0-212.9,0c3.4-3.6,7.5-6.6,11.1-9.7c4.9-4.2,9-10,15-12.6
				c3.1-1.4,6.4-1.5,9.7-1.4c5.2,0.2,10.4,0.5,15.6,0.8c3.9,0.2,7.8,0.4,11.8,0.6c2.4-3.1,4.8-6.2,6.9-9.5c1.5-2.2,2.9-4.5,4.4-6.7
				c4.1-6.3,8-12.7,12-19.1c2.5-4,5.1-8.1,8.1-11.9c1.8-2.2,4-4.6,7-5.1c2.5-0.4,4.8,0.8,6.8,2c3.6,2.3,6.8,5.2,10.2,7.7
				c7.6,5.6,15.6,10.6,24.3,14.3c4.1,1.7,8.4,3.1,12.8,3.8c4.2,0.6,8.3-0.3,12.3-1.5c6.9-2.1,14.4-5.4,21.8-3.7
				c6.8,1.5,8.1,7.7,11.6,12.8c2,3,4.5,4.1,8,3.5c3.4-0.6,6.8-2,9.9-3.4c2.9-1.3,5.8-2.6,8.7-3.9c3.5-1.4,7.1-2.3,10.8-3.2
				c20.9-5.6,42-10,63.2-14.4c10.4-2.2,20.8-4.3,31.2-6.6c6.4-1.4,14.4-4.5,20.8-1.4c2.8,1.4,4.9,3.7,6.9,6c0.4,0.5,0.8,0.9,1.1,1.4
				c2.8,3.4,5.4,7,8.7,10c4.5,4.2,10.6,5.2,16.5,5.3c1.9,0,3.8,0,5.7-0.1c7.5-0.3,15.2-1.8,22.7-1.1c7.4,0.7,11.8,7.1,18.5,9.4
				c5.1,1.7,10.5,2,15.8,2.3c4,0.2,8,0.6,12,1.2c2.3-2.3,4.6-4.6,7.2-6.6c6.1-4.6,12.9-7.8,19.4-11.9c2.9-1.8,7.7-5.4,11.2-3.2
				c3.7,2.3,6.1,7.6,8.5,11c3.5,5,8.8,8.3,13.9,11.5c6.1,3.8,12.5,7.3,19.3,9.8c4.4,1.6,9,2.5,13.5,3c10.1,1,20.3-0.2,30.5-0.5
				c6.1-0.2,13.8-1.5,19.6,1c2.8,1.2,3.8,4.3,6.4,5.9c0.8,0.5,8.5,2.5,8.5,2.1C1057,543.7,1068.9,553.1,1071.4,553.1z"/>
			<path class="st30" d="M648.9,553.1c-117.2,0-212.9,0-212.9,0c3.4-3.6,7.5-6.6,11.1-9.7c4.9-4.2,9-10,15-12.6
				c3.1-1.4,6.4-1.5,9.7-1.4c5.2,0.2,27.5-0.5,27.5-0.5s4.7-4.3,6.8-7.5c1.5-2.2,2.9-4.5,4.4-6.7l20.3,13.1c0,0,26.8-7,33.2-7.5
				s14.5,3,14.5,3s-7.8,1-10.5,4.5s10,7.5,27,10s8.7,8.2,25.5,10.2C629.7,549.1,640.6,551.2,648.9,553.1z"/>
			<path class="st30" d="M823.2,507.2L806.7,520c0,0,0,4.2-24.1,2.5s-25.4,3-31.9,4s-38.2,0-38.2,0s18.5-4.2,28-9.9
				c9.5-5.7,16-9.1,23.2-11.1s25.1,1.5,25.6,0.2c0.3-0.8,4.3-8.6,7.7-15.1c0.4,0.5,0.8,0.9,1.1,1.4c2.8,3.4,5.4,7,8.7,10
				C811.2,506.1,817.2,507.1,823.2,507.2z"/>
			<path class="st30" d="M1071.4,553.1H857.1c7.3-3.1,15.5-7.3,20.5-12.3c10.7-10.7,20.3-21.9,20.3-21.9s-0.9,19.7,0.6,19.8
				c1.5,0.1,5.5-4.2,18.5-2.7c4.2,0.5,6.9,2.7,10.9,3.8c6.5,1.9,14.3,1.4,21,0.9c6.6-0.5,13.1-1.5,19.6-2.8c5.3-1,10.6-2.2,15.9-3.6
				c1.7-0.4,4.7-2,6.5-1.8c10.1,1,20.3-0.2,30.5-0.5c6.1-0.2,13.8-1.5,19.6,1c2.8,1.2,3.8,4.3,6.4,5.9c0.8,0.5,3.8-0.2,8.5,2.1
				C1060.6,543.3,1068.9,553.1,1071.4,553.1z"/>
			<path class="st22" d="M583.9,446.9c-4.5,3.5-6.8,8.7-8.1,14.2c-0.6,2.8-0.9,5.6-1.2,8.4c0,0.3-0.3,6.2,0.6,5
				c6.5-7.7,6.4-17.9,9.4-27C584.8,447.1,584.3,446.6,583.9,446.9z"/>
			<path class="st8" d="M838.2,140.6c-2.2-2.6-7.2-2.8-13.8-1.5c-8.1,1.5-15.1,5.7-21.4,10.9c-6,5-14.5,11.6-15.7,19.9
				c-0.3,2-0.2,4.1-0.8,6.1c-0.6,1.8-1.5,2.7-2.6,3.4c-0.5,0.3-1,0.5-1.6,0.7c-0.8,0.3-1.8,0.6-2.7,0.9c-3.3,1.2-5.6,4-7.5,6.8
				c-5,7.6-8.3,16.3-9.7,25.2c-1.6,10,0,20.2-1.8,30.1c-1.1,5.9-4.3,10.5-8.2,14.5c-2.5,2.6-5.2,4.9-7.9,7.3
				c-5.6,5-10.5,10.5-12.6,17.8c-1.9,6.6-1.5,13.6-1.6,20.4c0,4.7,0,9.4-1.4,14c-1.8,5.9-17.2,33.4-17.4,33.9
				c0.4-0.4,14.9-12.9,20-17.6c6.2-5.6,3.3-15.7,10.2-20.6c3.2-2.3,6.7-3.8,9.2-6.9c2.5-3,3.9-6.6,5.7-10
				c4.8-9.1,11.3-17.2,16.8-25.8c5.7-8.9,11.7-17.6,19-25.2c5.5-5.9,12.9-9.3,18.7-14.9c5.9-5.7,6.5-13.8,6.9-21.6
				c0.2-4.9,0.3-9.9,1.3-14.7c1-4.9,2.7-9.6,4.8-14.1c3.3-7.2,6.9-14.3,10.2-21.5c1.2-2.5,2.3-5,3.4-7.5
				C839.9,145.7,839.8,142.5,838.2,140.6z"/>
			<path class="st9" d="M797.2,206.1c7.8-7.6,16.7-12.7,19.6-14.3c-1.6,1.1-5.1,4.3-7.8,13.5c-3.8,12.5-7.8,12.8-21.5,20.3
				c-13.8,7.6-21.3,26.5-21.3,26.5s0.3-3.1,6.3-15.8s9.8-19.5,6.5-33.9c-2.2-9.9,1.1-18.2,3.4-22.4c0.6-0.2,1.1-0.4,1.6-0.7
				c-0.4,4.3-1.1,14.1,1,22.2C787.7,212.4,787.7,215.4,797.2,206.1z"/>
			<path class="st9" d="M759.8,282.2c-3.7,1-7.5,1.9-11.1,3.3c-4.1,1.6-8,4-11.6,6.5c-1.2,0.9-2.4,1.7-3.6,2.6
				c-1.1,1.5-2.2,3-3.2,4.5c0,1.3,0,2.7,0,4c0,4.7,0,9.4-1.4,14c-1.8,6-17.4,33.9-17.4,33.9s14.9-12.9,20.1-17.6
				c6.2-5.6,3.3-15.7,10.2-20.6c3.2-2.3,6.7-3.8,9.2-6.9c2.5-3,3.9-6.6,5.7-9.9c3-5.7,6.6-10.9,10.3-16.2
				C764.7,280.7,762.3,281.5,759.8,282.2z"/>
			<path class="st8" d="M688,249.1c-2-5-4.2-6.9-6.4-7.1c-4.6-0.2-9.1,7.9-11.4,14.4c-3.2,8.9-4.3,18.4-6.4,27.6
				c-1,4.4-2.2,8.7-4,12.8c-2,4.7-5.1,8.5-8,12.8c-2.4,3.6-4.5,7.4-6.2,11.4c-2,4.9-3.3,10-3.2,15.4c0.1,7.7-7.1,41.4-7.3,42.6
				c0.6-1.2,18.3-38.9,21.3-49.2c3.4-11.5,8.5-21.2,16.3-30.2c5-5.8,10-11.5,13-18.4c0.9-2,1.5-4,2-6.2
				C689.5,267,691.1,256.7,688,249.1z"/>
			<path class="st9" d="M680.8,282.9c-7.3,3.5-13,8.6-16.2,16.1c-2.5,5.9-2.3,13.3-8.3,17c-3.3,2-7.2,3-10.7,4.8
				c-2,4.9-3.3,10-3.2,15.4c0.1,7.7-7.1,41.4-7.3,42.6c0.6-1.2,18.3-38.9,21.3-49.2c3.4-11.5,8.5-21.2,16.3-30.2
				c5-5.8,10-11.5,13-18.4C684.2,281.4,682.5,282.1,680.8,282.9z"/>
		</g>
		<g>
			<path class="st4" d="M1111,325.4c-0.8,2.1-3,3.9-6.9,4.7c-0.8,0.2-1.6,0.3-2.5,0.4c-0.3,0-0.6,0-1,0.1c-0.3,0-0.6,0-0.9,0
				c-6.8-0.1-29-3.4-40.7-5.2c-0.2,0-0.4-0.1-0.5-0.1c-0.3,0-0.6-0.1-0.9-0.1c-0.2,0-0.4-0.1-0.5-0.1c-3.3-0.5-5.3-0.8-5.3-0.8
				l2-5.6c0,0,1-0.1,2.8-0.3c0.2,0,0.4-0.1,0.6-0.1c0.7-0.1,1.4-0.2,2.2-0.2c0.2,0,0.4-0.1,0.5-0.1c10.3-1.2,30.6-3.4,37.8-3.4
				c0,0,0,0,0.1,0h0.5c1.4,0,2.8,0.2,4,0.4c1.3,0.3,2.6,0.7,3.6,1.3C1110.1,318.3,1112.2,322.2,1111,325.4z"/>
			<path class="st11" d="M1111,325.4c-0.8,2.1-3,3.9-6.9,4.7c-0.8,0.2-1.6,0.3-2.5,0.4c-0.3,0-0.6,0-1,0.1c-0.3,0-0.6,0-0.9,0
				c-0.2-1.4-0.4-3-0.8-4.6c-1.1-3.9-1.2-10.8-1.3-11.5c0,0,0-0.1,0-0.1s0,0,0.1,0C1098.6,315,1108.3,320.5,1111,325.4z"/>
			<path class="st4" d="M1050.5,316.4c-1-0.3-2-0.5-2.9-0.7c-0.5-0.2-2.2-0.6-2.4,0.2c0,0.2,0,0.3,0.1,0.5c0.3,0.3,1,0.4,1.4,0.6
				c0.4,0.1,1.2,0.4,1.4,0.8c0,0.1-1.1,0.1-1.2,0.1c-0.6,0-1.1,0-1.7-0.1c-1.1-0.1-2.2-0.1-3.3-0.2c-0.4,0-3.2-0.2-3.2,0.5
				c0,0.5,1.8,0.9,2.3,1c2.1,0.3,3.6,0.8,3.8,0.8c-0.3,0-3-0.1-4.3-0.1c-0.8,0-2.5,0-2.4,0.6c0,0.6,1.9,0.7,2.5,0.8
				c1.2,0.1,3.9,0.4,4.1,0.4c-0.2,0-1.6,0.1-2.9,0.2c-0.6,0-1.1,0.1-1.7,0.2c-0.4,0.1-1.2,0.1-1,0.7c0.1,0.3,0.5,0.4,0.8,0.4
				c0.3,0.1,0.7,0.1,1,0.1c0.6,0,1.3,0,1.9,0c0.2,0,0.3,0,0.5,0c-0.2,0-1.6,0.3-2,0.6c-0.2,0.2-0.2,0.6,0.2,0.7
				c0.4,0.1,8.1-0.2,9-0.2c0.6,0,1.5-0.1,1.5-0.1s0.4-0.1,0.5-0.2c0,0,0.1,0,0.1-0.1c0.3-0.2,0.5-0.5,0.6-0.9
				c0.4-1.1,1.1-4.3,1.1-4.3s-0.1-0.1-0.2-0.2C1053.3,318,1051.6,316.8,1050.5,316.4z"/>
			<g>
				<path class="st8" d="M1057.4,325.1c0.4-0.7,0.7-1.7,0.7-3c0-0.5,0-0.9-0.1-1.3c-0.2-1.2-0.7-2.1-1.1-2.7c-0.2,0-0.4,0.1-0.6,0.1
					c0.5,0.6,1.3,1.9,1.3,3.9c0,1.3-0.4,2.2-0.7,2.9C1057,325.1,1057.2,325.1,1057.4,325.1z"/>
			</g>
			<g>
				<path class="st8" d="M1058.9,325.3c0.4-0.7,0.8-1.7,1-3.1c0.2-1.3,0.1-2.7-0.1-3.7c0-0.2-0.1-0.5-0.1-0.7c-0.2,0-0.4,0-0.5,0.1
					c0.2,1,0.4,2.5,0.2,4.2c-0.2,1.4-0.6,2.5-1,3.1C1058.5,325.3,1058.7,325.3,1058.9,325.3z"/>
			</g>
			<g>
				<path class="st8" d="M1058.6,320.9c-0.6,0-1.1-0.4-1.2-1c-0.1-0.3,0-0.6,0.2-0.9c0.2-0.3,0.5-0.4,0.8-0.5c0.3,0,0.6,0,0.9,0.2
					s0.4,0.5,0.5,0.8c0.1,0.6-0.3,1.2-1,1.3h0C1058.7,320.9,1058.6,320.9,1058.6,320.9z M1058.6,319.1c0,0-0.1,0-0.1,0
					c-0.2,0-0.3,0.1-0.4,0.3c-0.1,0.1-0.1,0.3-0.1,0.5c0.1,0.4,0.4,0.6,0.8,0.6c0.4-0.1,0.6-0.4,0.6-0.8c0-0.2-0.1-0.3-0.3-0.4
					C1058.9,319.1,1058.7,319.1,1058.6,319.1z"/>
			</g>
			<g>
				<polygon class="st4" points="1180.4,543.7 1183.1,552.4 1187.1,556 1189.7,552 1188.8,542.3 				"/>
				<path class="st4" d="M1189.6,551.3c0.3,2.6,0.5,9.5,0.1,10.6c-0.2,0.5-4.4-0.8-7.8,1.1c-1.5,0.8-2.5,2.5-3.8,2.7
					c-1.8,0.3-6.5,0.1-6.6-0.1c-0.1-0.2-1-1.4,3.3-4.4c1.7-1.2,8.3-8.8,8.3-8.8s4-1.2,4-1.2C1187,551.3,1189.3,548.7,1189.6,551.3z"
					/>
				<path class="st5" d="M1189.7,561.9c0,0-5.3,0.8-5.4,0.8c0,0,0.1,3.6,0.1,3.6l5.4-0.1L1189.7,561.9z"/>
				<path class="st5" d="M1186,562.4c0,0-2.6,0.4-3.5,0.9c-0.9,0.4-3.1,2.9-4.3,3.1c-0.7,0.1-1.4,0.1-2.1,0.1c-0.9,0-1.9,0-2.8,0
					c-0.3,0-1.7,0.1-1.9-0.1c-0.2-0.2-0.2-0.8,0.1-0.9c0.4,0,6.1,0,6.5-0.4c0.5-0.4,2.8-2.6,3.9-2.9c1-0.3,7.8-1.2,7.8-1.2l-0.1,4.8
					l-4-2.1L1186,562.4z"/>
				<path class="st5" d="M1184.3,562.1c0,0,0.7-2.3,2-3.9c1.3-1.7,3.5-2.7,3.5-2.7s0.3,3.1,0.2,4.3c-0.1,1.2-0.5,2.7-0.5,2.7
					L1184.3,562.1z"/>
				<polygon class="st5" points="1189.9,555.5 1183.1,552.4 1182,553.6 1188.6,556.9 				"/>
				<polygon class="st5" points="1177.6,565.7 1174.3,561.6 1173.2,562.4 1175.7,565.7 				"/>
			</g>
			<g>
				<polygon class="st4" points="1151.4,538 1154.1,546.7 1158.1,550.2 1160.7,546.3 1159.8,536.5 				"/>
				<path class="st4" d="M1160.6,545.5c0.3,2.6,0.5,9.5,0.1,10.6c-0.2,0.5-4.4-0.8-7.8,1.1c-1.5,0.8-2.5,2.5-3.8,2.7
					c-1.8,0.3-6.5,0.1-6.6-0.1c-0.1-0.2-1-1.4,3.3-4.4c1.7-1.2,8.3-8.8,8.3-8.8s4-1.2,4-1.2C1158,545.5,1160.3,542.9,1160.6,545.5z"
					/>
				<path class="st5" d="M1160.7,556.1c0,0-5.3,0.8-5.4,0.8c0,0,0.1,3.6,0.1,3.6l5.4-0.1L1160.7,556.1z"/>
				<path class="st5" d="M1157,556.7c0,0-2.6,0.4-3.5,0.9c-0.9,0.4-3.1,2.9-4.3,3.1c-0.7,0.1-1.4,0.1-2.1,0.1c-0.9,0-1.9,0-2.8,0
					c-0.3,0-1.7,0.1-1.9-0.1c-0.2-0.2-0.2-0.8,0.1-0.9c0.4,0,6.1,0,6.5-0.4s2.8-2.6,3.9-2.9c1-0.3,7.8-1.2,7.8-1.2l-0.1,4.8l-4-2.1
					L1157,556.7z"/>
				<path class="st5" d="M1155.3,556.3c0,0,0.7-2.3,2-3.9c1.3-1.7,3.5-2.7,3.5-2.7s0.3,3.1,0.2,4.3c-0.1,1.2-0.5,2.7-0.5,2.7
					L1155.3,556.3z"/>
				<polygon class="st5" points="1160.9,549.7 1154.1,546.7 1153,547.9 1159.6,551.1 				"/>
				<polygon class="st5" points="1148.6,559.9 1145.3,555.8 1144.2,556.7 1146.7,559.9 				"/>
			</g>
			<path class="st13" d="M1170.8,282.8c2,2.3,3.4,4.9,4.6,7.7c0.9,2.1,1.8,3.6,3.7,4.9c0.5,0.3,1,0.6,1.5,1c0.7,0.5,1.4,1,2,1.9
				c0.9,1.2,1.6,2.5,2.3,3.7c0.6,1.1,1.2,3.2,2.7,3.5c1.9,0.4,4.4-2.1,5.8-3c2.8-1.7,5.7-3.1,8.5-4.8c0.2-0.1,0.3-0.4,0.2-0.6
				c-1.1-2.1-2.5-3.5-4.2-5c-0.8-0.7-1.6-1.4-2.4-2.1c-2.7-2.3-5.6-2.6-8.7-4.1c-3.6-1.7-3.3-5.5-6.1-7.8c-1-0.8-2.2-1.3-3.4-1.6
				c-1.8-0.5-3.8-0.5-5.6-0.3c-0.2,0-0.3,0.1-0.3,0.2c-0.2,0-0.5,0.1-0.7,0.2c-0.6,0.2-1,0.5-1.2,1.2c0,0.1-0.1,0.2-0.1,0.4
				c0,0.1,0,0.2,0,0.3C1169.1,280,1169.9,281.8,1170.8,282.8z"/>
			<path class="st7" d="M1174.9,272.7c-0.6,1.3-1.4,2.4-2.5,3.4c-0.8,0.7-1.5,2.1-2.1,3.4c-0.2,0.5-0.4,0.9-0.5,1.4
				c-0.5,1.5-0.8,2.8-1,3.2c0,0,0,0.1,0,0.1c0,0,0,0.1,0,0.1s-2-2.4-3.7-4.2c-0.3-0.3-0.6-0.6-0.9-0.9c-0.5-0.5-0.9-0.8-1.2-0.9
				c-0.6-0.1-1.3-0.3-1.9-0.5c-2.2-0.7-4.2-1.6-6.1-3c-2-1.5-6.5-4.8-6.5-4.8l0,0c-0.9-0.7-0.6-4.2-0.5-5.1c0.4-3.8,2.6-6.9,5.9-8.8
				c2.9-1.6,6.2-2.3,9.4-2c3.5,0.4,6.8,2,9.2,4.8c0.9,1,1.6,2.2,2.2,3.5c0.1,0.3,0.3,0.7,0.4,1
				C1176.1,266.5,1176.1,269.9,1174.9,272.7z"/>
			<path class="st13" d="M1175.1,263.5c-0.1-0.4-0.2-0.7-0.4-1c-0.4,0.3-0.8,0.8-1.2,1.4c-0.7,1.1-0.6,2.3-1,3.5
				c-0.5,1.6-1.1,2.1-1.9,2.6c-0.5,0.3-1.1,0.6-1.8,1.1c-0.2,0.1-0.8,0.8-1.1,0.9c-0.6,0.3-1.1,0.6-1.5,0.8c-1.6,0.7-3,0.6-5.3-0.3
				c-1.2-0.5-1.7,1.5-0.5,1.9c1.3,0.5,2.7,0.9,4.2,1c0.2,1.5,0.4,3.1,0.6,4.6c1.7,1.8,3.7,4.2,3.7,4.2s0,0,0-0.1c0,0,0-0.1,0-0.1
				c0.1-0.4,0.4-1.7,1-3.2c0.2-0.5,0.3-0.9,0.5-1.4c0.6-1.4,1.3-2.7,2.1-3.4c1.1-1,1.9-2.1,2.5-3.4
				C1176.1,269.9,1176.1,266.5,1175.1,263.5z"/>
			<path class="st4" d="M1157.3,286.4c1.4,0,2.8-0.2,4.2-0.4c0.4-0.1,0.8-0.1,1.2-0.2c1.2-0.2,2.4-0.5,3.4-0.8
				c0.7-0.2,1.3-0.3,1.8-0.5c0.6-0.2,1-0.3,1-0.3s0,0,0-0.1c0,0,0-0.1,0-0.1c0.1-0.5,0.4-2,0.6-3.8c0-0.1,0-0.3,0.1-0.4
				c0.1-0.9,0.2-1.8,0.3-2.6c0.1-0.6,0.1-1.1,0.1-1.6c0.1-2.1,0-4.3-0.1-6.5c0-0.1,0-0.2,0-0.3l0,0c-0.1-1.2-0.2-2.5-0.3-3.7
				c0.1-0.1,0.1-0.3-0.1-0.4c-3.7-3.5-7.9-6.6-13.2-6c-2.2,0.3-3.9,1.2-5,2.6c-0.3,0.3-0.5,0.6-0.7,1c-0.7,1.1-1.1,2.5-1.4,3.9
				c-0.1,0.7-0.3,1.5-0.3,2.2c0,0.5-0.1,1-0.1,1.5l0,0c-0.3,4.5-0.2,11.5,2.6,14.6C1152.3,286.1,1154.7,286.5,1157.3,286.4z"/>
			<path class="st4" d="M1173,290.1L1173,290.1c-0.2-0.6-0.5-1.2-0.8-2c-0.1-0.4-0.3-0.8-0.4-1.2c-0.7-1.9-1.4-4.1-2-6
				c0-0.1-0.1-0.2-0.1-0.3c0,0,0,0,0,0c-0.1-0.2-0.1-0.5-0.2-0.7c-0.2-0.6-0.4-1.2-0.5-1.7c-0.4-1.3-0.7-2.1-0.7-2.1l-1.5,1.1v0
				l-2.2,1.6l-0.4,0.3l-0.6,0.5l-1.6,1.2l-2.9,2.2l-2.2,1.6l0.4,1.7l0,0l0.5,2.3l0.4,1.5l1.7,7c0,0,0.3,0,0.3,0c0.1,0,0.2,0,0.3-0.1
				c2.2-0.4,4.5-0.4,6.7-0.7c1.8-0.2,4.5-0.5,5.8-2C1174.4,293,1173.6,291.6,1173,290.1z"/>
			<path class="st7" d="M1170.7,268.4c0,0.5-0.1,1-0.1,1.6c0,0,0,0.1,0,0.1c-0.2,2.9-0.8,5.9-0.5,8.8c0.1,0.5-0.4,1.8-0.4,1.8
				s-3.3-3.6-4.2-5.1c0.4-0.9,0.7-1.8,0.6-2.7c0-0.1,0-0.1,0-0.2c0-0.2-0.1-0.4-0.1-0.6c-0.5-1.4-1.7-2.4-3-2.3
				c-0.4-1.3-0.8-2.7-1.4-4c-0.8-1.9-2.1-3.4-4.5-3.5c-2.4-0.1-4.6,0.1-6.6-1.3c-0.5-0.4,0-1.3,0.5-0.9c0.1,0,0.1,0.1,0.2,0.1
				c1-2,2.7-2.5,5.2-2.4c3.4,0.1,6.9,1.2,9.8,2.8c2.3,1.3,4.4,3,4.6,5.7C1170.7,267,1170.7,267.7,1170.7,268.4z"/>
			<path class="st13" d="M1170.6,270c-0.5,0.3-1.1,0.6-1.8,1.1c-0.2,0.1-0.8,0.8-1.1,0.9c-0.6,0.3-1.1,0.6-1.5,0.8
				c0.1,1-0.2,1.9-0.6,2.7c0.9,1.5,4.2,5.1,4.2,5.1s0.5-1.2,0.4-1.8c-0.4-2.9,0.2-5.9,0.5-8.8C1170.5,270.1,1170.6,270,1170.6,270z"
				/>
			<path class="st22" d="M1203.5,344c0,0.6,0,1.1-0.1,1.7c-0.1,1.2-0.1,2.5-0.2,3.7c-0.5,8-1.8,15.6-8.2,16.1
				c-6.5,5.1-16.9,15-24.5,19.5c-0.8-0.2-1.5-0.3-2.2-0.5c-3.3-0.7-6.3-1.4-9.2-2c-1.7-0.3-3.4-2.7-5.1-3c-0.1-0.5-0.2-0.9-0.2-1.4
				c-1.3-8-8.6-10.3-8.6-10.3c-0.7-0.4-2.4-1.1-3-2.1c-0.3-0.5-0.6-1.1-0.8-1.7c-1.1-2.6-2-10.4-2.7-14.6c0-0.2-0.1-0.4-0.1-0.6
				c-0.2-1-0.4-2.4-0.7-3.9c-0.6-2.9-1.3-6-2.1-9.3c-0.8-3.6-1.6-7.3-2.1-11.1c-1.1-7.4-1.5-16.6,1.9-23.4c1.1-2.3,3.2-5,6.2-6.9
				c0.5-0.4,1.1-0.7,1.7-1c0.1,0,0.1,0,0.1-0.1c0,0,0,0,0,0c0.3-0.2,0.6-0.3,0.9-0.4c1.5-0.6,3.2-1.1,5-1.3c0.7-0.1,1.4-0.2,2.1-0.2
				c1.5-0.1,2.9-0.2,4.1-0.3c0.4,0,0.8-0.1,1.2-0.1c0.6,0,1.1-0.1,1.6-0.1c1,0,1.9-0.1,2.5-0.1c0,0,0,0,0,0
				c3.8-0.1,8.9-0.5,13.8-0.9c0.8-0.1,1.7-0.1,2.5-0.2c8.4-0.8,15.4,2.4,20,9.7c2.7,4.2,3,8.8,2.9,13.5c0,2.5-0.1,5.1,0,7.6
				c0.1,1.3,0.2,2.6,0.5,4c0.5,2.8,1.2,5.5,1.6,8.3c0.1,0.7,0.2,1.3,0.3,2c0.1,1.1,0.2,2.3,0.3,3.4
				C1203.1,340.1,1203.3,342.1,1203.5,344z"/>
			<path class="st5" d="M1205.4,407.9c4.4-14.1-10.4-42.3-10.4-42.3s-19.2,5.7-29.7,5.9c-10.5,0.1-20.2-3.5-20.2-3.5
				s-7,34.2-7.2,37.4C1136.1,428.9,1201.6,420,1205.4,407.9z"/>
			<path class="st5" d="M1153.4,470.7c-0.5,10.2,5.5,24.1,7.3,36.4c0.6,1.3,1.1,1.6,1.6,2.9c0.1,0.4,0.2,0.7,0.3,1.1
				c0.6,2,1.1,4.2,1.1,6.3c0,3-1.1,6.4,0.5,9.2c1,1.8,3.1,3.1,3.4,5.3c0.1,0.7-0.1,1.4-0.2,2c-0.5,2,2.5,5.4,1.5,7
				c0,0.1-0.1,0.1-0.1,0.2c-0.1,0.1-0.3,0.3-0.5,0.4c-0.7,0.4-2.4,0.2-3.2,0.2c-3.1,0.2-6.2,0.5-9.2,0.7c-4.4,0.3-8.8,0.7-13.1,1
				c-7.1-20.8-22.7-61.8-21-77.6c2.3-21.5,10.7-46,16-66.9c4.3-16.8,6.9-29.1,6.9-29.1s32.4,26,32.6,28.6c0.2,2.6-1.9,19.8-1.9,19.8
				s-8.3,16.3-14.7,30.9c-3.8,8.6-6.9,16.6-7.2,20.4C1153.5,470,1153.4,470.3,1153.4,470.7C1153.4,470.7,1153.4,470.7,1153.4,470.7z
				"/>
			<path class="st5" d="M1204.7,547.8c0.6-1.6-2.4-4.8-1.9-7c0.2-0.7,0.3-1.3,0.2-2c-0.4-2.7-3.2-4.3-4-6.9
				c-0.8-2.9,0.3-5.9,0.1-8.9c-0.2-3.9-2.5-7.2-3.4-10.9c-1-3.9-1.7-7.9-2.7-11.8c-2.1-7.6-5-15.9-4.2-23.9
				c1-10.3,10.7-30.1,16.4-49.9c5.6-19.8-2.2-41.7-3.1-44.2c-1.9-5.2-23.1-5.2-23.1-5.2s-17.7,56.7-21.9,95.6
				c-1.7,15.8,13.9,56.8,21,77.6c4-0.3,7.9-0.6,11.9-0.9c3.5-0.3,6.9,0.1,10.4-0.3c0.9-0.1,3.6-0.1,4.2-1.1
				C1204.6,548,1204.7,547.9,1204.7,547.8z"/>
			<path class="st22" d="M1157,332.2c-5.8,1.2-8,0-16.6,2.7c-1.9,0.6-3.4,0.8-4.8,0.9c-0.6,0-1.1,0-1.6,0c-0.6-0.1-1.2-0.1-1.8-0.2
				c-1.6-0.3-3-0.6-4.5-0.3c-0.7,0.2-1.4,0.5-2.2,1c-0.2,0.1-0.3,0.2-0.5,0.4c-3.4,2.6-11.3,2.4-14.6,1.6
				c-3.3-0.8-12.9-23.8-12.9-23.8s8.8-4,20.8-9.7c7.8-3.7,19.1-8.7,23.5-10.6c0.8-0.4,1.4-0.6,1.6-0.7c0.1,0,0.1,0,0.1-0.1
				c0,0,0,0,0,0s0.5,0.9,1.2,2.5c0,0,0,0,0,0c0.2,0.3,0.3,0.6,0.5,1c0.6,1.2,1.3,2.6,2,4.2C1152.6,312,1161.1,331.3,1157,332.2z"/>
			<path class="st8" d="M1159.1,294.9c0,0.3,0,0.7-0.1,1c-0.1,0.5-0.5,1-0.7,1.5c-0.5,1.3-0.5,2.1-0.5,3.5c0,1.7-0.5,3.2-2.1,4.2
				c-1.2,0.8-2.8,0.8-3.8-0.4c-0.9-1.1-1-2.3-1.9-3.2c-0.3-0.3-0.7-0.9-1.4-0.8c-0.5,0.1-0.9,0.1-1.3,0.1c-1.1,0-2.1-0.3-3.1-0.8
				c-1.6-0.9-3.3-1.9-3.2-3.9c0-0.4,0.3-1.1,0.6-1.9c0-0.1,0.1-0.2,0.1-0.3c0.8-0.4,1.4-0.6,1.6-0.7c0.1,0,0.1,0,0.1-0.1
				c0,0,0,0,0,0c0.3-0.2,0.6-0.3,0.9-0.4c-0.1,1,0,2,0.3,2.9c0,0,0,0,0,0c0.1,0.4,0.3,0.7,0.5,1c0,0,0,0.1,0.1,0.1
				c1,1.5,2.8,0.9,4.2,1.4c0.9,0.3,1.5,1.3,2,2.1c0.6,0.9,1.1,1.7,2,1.7c1.7,0.1,1.4-2.3,1.2-4.2c-0.1-0.9-0.2-1.6-0.1-2
				c0.1-0.5,1.3-3.1,2.2-5c0.6,0,1.1-0.1,1.6-0.1c0,1.4-0.2,3.2,0.3,3.2c0,0,0,0,0.1,0.1C1159,294.4,1159.1,294.6,1159.1,294.9z"/>
			<path class="st4" d="M1173,290.1c0,0-2.9,6.3-5.8,10.2c-0.9,1.2-1.6,2.9-2.2,4.7v0c-0.1,0.3-0.2,0.6-0.3,0.9
				c-0.2,0.6-0.3,1.1-0.5,1.7c-0.1,0.3-0.2,0.6-0.2,0.9c-0.8,3.1-1.4,6.1-2,7.9c-1.3,3.8-2.9,10.2-3.8,10.1
				c-0.8-0.1,0.3-3.9-0.6-8.6c-0.8-4.1,0.1-6.2-0.2-9.8c0-0.4-0.1-0.7-0.1-1.1c0-0.2-0.1-0.5-0.1-0.7c-0.1-0.8-0.2-1.7-0.2-2.6
				c0-0.5,0-0.9,0-1.4c0.1-5.3,1.4-12,1.4-12l8.5-2.2L1173,290.1z"/>
			<g>
				<g>
					<path class="st8" d="M1164.9,305c-0.1,0.3-0.2,0.6-0.3,0.9c-0.8,0.3-1.7,0.5-2.8,0.5c-0.1,0-0.2,0-0.3,0
						c-2.3,0-3.8-1.3-4.8-2.7c0-0.5,0-0.9,0-1.4c0.7,1.5,2.1,3.4,4.8,3.4c0.1,0,0.2,0,0.3,0C1163,305.6,1164,305.4,1164.9,305z"/>
				</g>
				<g>
					<path class="st8" d="M1164.1,307.6c-0.1,0.3-0.2,0.6-0.2,0.9c-0.9,0.3-1.9,0.6-3.1,0.7c-0.1,0-0.2,0-0.3,0
						c-1.3,0-2.3-0.4-3.2-1c0-0.4-0.1-0.7-0.1-1.1c0.8,0.8,2,1.5,3.6,1.4C1162,308.4,1163.2,308.1,1164.1,307.6z"/>
				</g>
			</g>
			<path class="st4" d="M1151.9,345.7c-0.4,0.3-0.8,0.5-1.3,0.8c-0.3,0.2-0.6,0.3-0.9,0.5c-0.3,0.1-0.6,0.3-0.9,0.4
				c-4.9,2.3-28.4,8.1-40.5,11.1c-0.2,0.1-0.4,0.1-0.5,0.1c-0.3,0.1-0.6,0.2-0.9,0.2c-0.2,0-0.4,0.1-0.5,0.1
				c-3.2,0.8-5.2,1.3-5.2,1.3l-0.3-6c0,0,0.9-0.5,2.4-1.4c0.2-0.1,0.3-0.2,0.5-0.3c0.6-0.3,1.3-0.7,2-1.1c0.2-0.1,0.3-0.2,0.5-0.3
				c9.3-5.1,28-15.3,34.2-17.8c0.8-0.3,1.7-0.6,2.5-0.8c0.3-0.1,0.6-0.2,1-0.2c0.1,0,0.3-0.1,0.4-0.1c1.4-0.2,2.7-0.3,3.9-0.2
				c1.9,0.1,3.5,0.6,4.9,1.4c0,0,0,0,0.1,0c0.5,0.3,1,0.6,1.4,1c0.1,0.1,0.1,0.1,0.2,0.1c0.5,0.5,0.9,1,1.2,1.6c0,0,0.1,0.1,0.1,0.1
				C1157.3,339.1,1156.4,342.7,1151.9,345.7z"/>
			<path class="st11" d="M1151.9,345.7c-0.4,0.3-0.8,0.5-1.3,0.8c-0.9-1.1-1.9-2.4-2.7-3.6c-2.3-3.3-4.5-9.1-4.9-10.2
				c0-0.1-0.1-0.2-0.1-0.2s0.4,0,1,0c2.1,0,6.8,0,9.1,1.1c0,0,0,0,0.1,0c0.5,0.2,1,0.6,1.4,1c0.1,0.1,0.1,0.1,0.2,0.1
				c0.4,0.5,0.8,1,1.2,1.6c0,0,0.1,0.1,0.1,0.1C1157.3,339.1,1156.4,342.7,1151.9,345.7z"/>
			<path class="st4" d="M1097.1,353.4c-1,0.1-2,0.3-3,0.4c-0.5,0.1-2.3,0.2-2.1,1.1c0,0.2,0.1,0.3,0.3,0.4c0.4,0.2,1.1,0,1.5,0
				c0.4,0,1.3-0.1,1.6,0.2c0.1,0.1-1,0.5-1.1,0.6c-0.5,0.2-1.1,0.4-1.6,0.6c-1,0.4-2.1,0.7-3.1,1.1c-0.4,0.1-3,1-2.8,1.7
				c0.2,0.5,2,0.1,2.5,0c2-0.5,3.6-0.6,3.8-0.6c-0.3,0.1-2.8,1.1-4,1.6c-0.8,0.3-2.3,0.9-2,1.5c0.2,0.5,2.1,0,2.7-0.2
				c1.2-0.4,3.7-1.1,3.9-1.2c-0.2,0.1-1.4,0.7-2.6,1.3c-0.5,0.3-1,0.5-1.5,0.8c-0.3,0.2-1.1,0.6-0.7,1c0.2,0.3,0.6,0.2,0.9,0.1
				c0.3-0.1,0.7-0.2,1-0.3c0.6-0.2,1.2-0.5,1.8-0.7c0.1-0.1,0.3-0.1,0.4-0.2c-0.1,0.1-1.4,0.8-1.6,1.3c-0.1,0.2,0,0.6,0.4,0.6
				c0.4,0,7.4-3.2,8.2-3.6c0.6-0.2,1.4-0.6,1.4-0.6s0.3-0.2,0.4-0.4c0,0,0.1-0.1,0.1-0.1c0.2-0.3,0.2-0.6,0.2-1.1
				c0-1.1-0.6-4.4-0.6-4.4s-0.1,0-0.3-0.1C1100.3,353.8,1098.3,353.3,1097.1,353.4z"/>
			<path class="st22" d="M1179.8,290.8c0,0-12.2,11.3-18.6,20c-6.5,8.7-18.3,21.7-18.3,21.7s19.3,18,22.7,17.8
				c3.4-0.2,4.6-4.5,9.8-6.6s8.6-2.4,16-7.6c7.4-5.1,1.5-18.5,6.7-21.3C1203.3,311.9,1179.8,290.8,1179.8,290.8z"/>
			<path class="st8" d="M1164.1,280.1c0.5-0.6,0.4-1.1,0.3-1.8c-0.1-0.3-0.2-0.6-0.1-1c0-0.3,0.2-0.5,0.4-0.8
				c0.3-0.6,0.4-1.2,0.2-1.8c-0.2-0.6,0.8-0.9,1-0.2c0.2,0.5,0.4,1,0.3,1.5c-0.1,0.6-0.7,0.9-0.8,1.5c-0.1,0.6,0.4,1.1,0.4,1.7
				c0,0.6-0.4,1-0.7,1.5C1164.6,281.2,1163.7,280.7,1164.1,280.1z"/>
			<g>
				<path class="st8" d="M1178.7,339.7c0.8,0.1,1.6,0,2.3-0.2c1.1-0.3,1.4-1,2.9-0.3c0.5,0.2,0.8,0.8,1.2,1c0.9,0.5,2.5,0.9,3.1-0.2
					c0.3-0.5,0-1.1-0.2-1.6c-1-2.2-2.6-2.5-0.1-4.8c0.7-0.6,1.7-1,0.8-2.1c-0.4-0.5-1.4-0.5-2-0.6c-0.8-0.1-1.5-0.3-2.2-0.7
					c-0.5-0.3-1-1-1.7-1c-0.7,0-1,0.7-1.6,1c-0.5,0.2-0.9,0.2-1.5,0.2c-1,0-2.1-0.4-2.9,0.4c-1.6,1.6-0.1,3.8-0.2,5.7
					C1176.7,338.2,1176.6,339.3,1178.7,339.7z M1180.5,332.3c0.5,0,1,0.1,1.4,0.1c0.5,0,0.8-0.1,1.2-0.3c0.8-0.3,1.8-0.4,2.2,0.6
					c0.2,0.5,0.1,1-0.1,1.4c-0.1,0.2-0.4,0.5-0.4,0.8c0,0.3,0.2,0.7,0.4,1c0.2,0.4-0.1,0.9-0.5,1.1c-0.7,0.3-1.5,0.3-2.2,0.3
					c-0.8,0-1.7,0.1-2.5-0.1C1177.9,336.5,1178.2,332.5,1180.5,332.3z"/>
				<path class="st8" d="M1127,312.5c0.8,0.1,1.6,0,2.3-0.2c1.6-0.5,5.7-0.2,5.7-2.9c0-0.4-0.1-0.8,0-1.3c0.1-0.6,0.7-1,0.9-1.5
					c0.4-1-0.4-2.1-1.3-2.7c-0.7-0.5-2-1.4-2.8-1.7c-1.2-0.4-1.2,0.3-2.2,0.8c-0.5,0.2-0.9,0.2-1.5,0.2c-1,0-2.1-0.4-2.9,0.4
					c-1.6,1.6-0.1,3.8-0.2,5.7C1125,311,1124.9,312.1,1127,312.5z M1128.8,305.1c0.5,0,1,0.1,1.4,0.1c1.1,0.1,2.1-1.1,3.1-0.2
					c0.4,0.4,0.6,0.9,0.4,1.5c-0.1,0.5-0.5,0.9-0.5,1.4c0,0.3,0.3,0.6,0.3,1c0.2,1.3-2,1.2-2.7,1.2c-0.8,0-1.7,0.1-2.5-0.1
					C1126.2,309.3,1126.5,305.3,1128.8,305.1z"/>
				<path class="st8" d="M1174.5,302.9c0.5,0.1,0.9,0,1.4,0c1.2,0.1,2.1,0.4,3.3,0.8c2.1,0.7,4,1,6.1-0.1c1.2-0.7,2.8-1.7,2.4-3.3
					c-0.2-0.8-0.5-0.6-1-1.2c-0.8-1-1.5-1.9-1.6-3.2c-0.2-1.3-0.2-2.1-1.1-3.1c-0.4-0.5-1.1-1-1.7-1.2c-0.6-0.2-1.2,0-1.7-0.2
					c-0.9-0.4-1.5-0.9-2.6-0.8c-2.7,0.4-2.9,2.9-3.4,4.9c-0.4,1.9-3.3,3.7-2.2,5.9C1172.7,302.2,1173.6,302.7,1174.5,302.9z
					 M1175.8,296.2c0.5-1.1,1.5-2.2,2.7-2.6c2.1-1.4,3.6,0.5,4.5,2.3c0.6,1.3,2.3,4.5,1.1,5.7c-0.7,0.8-2.1,0.4-3,0.1
					c-1.3-0.4-2.4-0.7-3.7-0.8C1173.9,300.8,1174.8,298.4,1175.8,296.2z"/>
				<path class="st8" d="M1117.1,315.3c-0.5-0.2-0.9-0.2-1.4-0.3c-1.2-0.3-2-0.8-3-1.4c-1.9-1.1-3.8-1.8-6-1.1
					c-1.3,0.4-3.1,1.1-3,2.8c0.1,0.8,0.4,0.7,0.7,1.4c0.5,1.1,1,2.1,1,3.5c-0.1,1.3-0.2,2.1,0.5,3.3c0.3,0.6,0.8,1.2,1.5,1.5
					c0.5,0.3,1.2,0.2,1.7,0.6c0.8,0.6,1.3,1.2,2.4,1.3c2.7,0.1,3.4-2.2,4.3-4.2c0.8-1.8,4-3,3.3-5.3
					C1118.7,316.4,1117.9,315.7,1117.1,315.3z M1114.4,321.7c-0.7,1-1.9,1.8-3.2,2c-2.3,0.9-3.5-1.2-3.9-3.1c-0.3-1.4-1.4-4.9,0-5.8
					c0.9-0.6,2.2,0.1,3,0.5c1.2,0.6,2.2,1.2,3.5,1.5C1117.1,317.5,1115.9,319.7,1114.4,321.7z"/>
				<path class="st8" d="M1179.3,318c-0.9-1.5-1.8-2.4-1.9-4.3c-0.1-1,0.1-2.1-0.5-3c-0.8-1.4-1.8-1.2-3.2-1
					c-1.7,0.3-3.7,0.3-4.6,2.2c-0.1,0.3-0.1,0.6-0.2,0.9c-0.4,1.1-0.8,2-1.5,3c-0.5,0.7-1.2,1.3-1.2,2.3c0,1.4,1.1,1.9,2.4,2.1
					c1,0.2,1.9-0.2,2.8-0.3c1.6-0.2,2.4,0.9,3.5,1.8C1177.5,323.8,1180.8,320.8,1179.3,318z M1175.2,319c-0.9-0.4-1.5-1.5-2.5-1.8
					c-0.9-0.3-1.6,0.7-2.5,0.4c-0.1,0-0.2-0.1-0.2-0.1c-0.8-0.5-0.7-1.7-0.4-2.5c0.6-1.6,3.8-5.2,5.3-2.7c0.7,1.1-0.1,2.4,0.4,3.4
					c0.3,0.5,0.9,0.8,1.2,1.3C1177.1,318,1176.5,319.5,1175.2,319z"/>
				<path class="st8" d="M1134.7,328.6c-1-0.2-1.9,0.1-2.9,0.1c-1.7,0.1-2.3-1-3.4-2c-2.4-2.1-5.9,0.6-4.5,3.5
					c0.8,1.6,1.6,2.5,1.7,4.4c0,0.5,0,1.1,0,1.6c0.8-0.5,1.5-0.9,2.2-1c0-0.9,0.4-1.7,0-2.5c-0.2-0.5-0.8-0.8-1.1-1.4
					c-0.5-1,0.1-2.5,1.4-1.9c0.9,0.4,1.5,1.6,2.4,1.9c0.9,0.3,1.7-0.6,2.5-0.2c0.1,0,0.2,0.1,0.2,0.1c0.7,0.5,0.6,1.8,0.3,2.5
					c-0.2,0.4-0.6,1.1-1.2,1.6c0.5,0.1,1.1,0.2,1.8,0.2c0.4-1,0.8-1.8,1.6-2.7c0.5-0.7,1.3-1.3,1.3-2.2
					C1137.1,329.4,1136,328.8,1134.7,328.6z"/>
				<path class="st8" d="M1158,336.9c0.3,1,1,1.6,1.5,2.4c0.9,1.4,0.3,2.5,0,3.9c-0.6,3.2,3.6,4.8,5.3,2.1c1-1.5,1.3-2.7,3-3.7
					c0.8-0.5,1.9-0.9,2.5-1.8c0.9-1.3,0.3-2.2-0.6-3.3c-1.1-1.4-2-3.2-4-3.1c-0.3,0-0.6,0.2-0.9,0.2c-1.2,0.2-2.1,0.3-3.4,0
					c-0.8-0.1-1.7-0.4-2.6,0C1157.6,334.4,1157.7,335.7,1158,336.9z M1163.2,335.3c1.7-0.2,6.3,1,4.8,3.5c-0.7,1.1-2.2,1-2.9,2
					c-0.3,0.5-0.3,1.1-0.6,1.6c-0.6,1-2.2,1.1-2.3-0.3c-0.1-1,0.6-2.1,0.4-3c-0.2-0.9-1.4-1.1-1.5-2.1c0-0.1,0-0.2,0-0.3
					C1161.3,335.9,1162.4,335.4,1163.2,335.3z"/>
				<path class="st8" d="M1200.3,312.7c-0.5,0-1,0-1.5-0.2c-0.5-0.3-0.8-0.8-1.2-1c-0.5-0.2-0.8-0.4-1.4-0.3
					c-0.7,0.1-1.1,0.7-1.8,0.9c-1,0.3-1.6-0.2-2.5-0.4c-0.7-0.2-1.3-0.2-2,0c-1.6,0.6-2.9,2.6-2.5,4.3c0.2,0.8,0.8,1.2,1.4,1.8
					c1.1,1,1.3,1.9,1.4,2.9l0,0c0.1,0.7,0,1.4,0.1,2.2c0.2,1.8,1.2,3,3.2,3.1c0.4,0,0.7,0,1-0.1c2.2-0.6,1.8-3.6,4.2-4.6
					c0.6-0.3,1.2-0.6,1.8-0.9C1200.2,317.8,1200.3,315.3,1200.3,312.7z M1200.1,316.3c-0.3,2.2-2.5,1.5-3.5,2.8
					c-0.2,0.2-0.3,0.4-0.4,0.7c-0.3,0.6-0.9,2.2-1.7,3.1c-0.6,0.7-1.3,1.1-2,0.4l0,0c-0.1-0.1-0.3-0.3-0.4-0.5c0,0,0-0.1-0.1-0.1
					l0,0c-0.6-1,0.1-2.6-0.1-3.7c-0.2-1.6-2.3-2.3-2.2-4c0.1-1,0.9-1.5,1.8-1.7c0.7-0.1,1.2,0.2,1.8,0.6c1.6,0.5,3.2-0.2,5,0.1
					C1199.4,314.3,1200.3,315.1,1200.1,316.3z"/>
				<path class="st8" d="M1182,363.8c2.8,1.9,4.1-1.7,6.9-1.2c2,0.3,3.9,0.3,5.6-1.1c1-0.9,2.6-2.8,1.7-4.2c-0.5-0.8-1.8-1.1-2.3-2
					c-0.2-0.5-0.2-1.1-0.5-1.5c-0.3-0.4-0.5-0.7-1-0.9c-0.6-0.3-1.3,0-2-0.2c-1-0.3-1.2-1-1.9-1.7c-0.5-0.5-1-0.9-1.7-1.1
					c-1.7-0.4-3.9,0.6-4.4,2.3c-0.2,0.8,0,1.4,0.2,2.2c0.7,2.3-0.6,3.3-1.5,5.2C1180.2,361.2,1180.5,362.8,1182,363.8z
					 M1182.6,360.4c0-1.3,1.4-2.2,1.9-3.3c0.7-1.5-0.7-3.2,0.3-4.5c0.6-0.8,1.6-0.8,2.4-0.4c0.7,0.2,0.9,0.8,1.2,1.4
					c1.1,1.3,2.8,1.6,4.1,2.8c0.8,0.8,1.1,1.9,0.3,2.8c-1.4,1.7-2.9,0-4.5,0.5c-0.2,0.1-0.5,0.2-0.7,0.4c-0.6,0.4-2,1.4-3.2,1.7
					C1183.5,362.1,1182.6,362,1182.6,360.4z"/>
				<path class="st8" d="M1152.6,313.2c-3.2-0.9-3.3,2.9-6.1,3.4c-2,0.4-3.8,1-4.9,2.8c-0.7,1.2-1.5,3.5-0.2,4.5
					c0.8,0.6,2,0.4,2.8,1.1c0.4,0.4,0.6,0.9,1,1.3c0.4,0.3,0.7,0.5,1.3,0.6c0.7,0,1.2-0.4,1.9-0.4c1,0,1.5,0.6,2.4,1
					c0.6,0.3,1.2,0.5,2,0.4c1.7-0.2,3.5-1.8,3.4-3.6c0-0.8-0.5-1.4-0.9-2c-1.4-2-0.5-3.3-0.2-5.4
					C1155.2,315.1,1154.5,313.7,1152.6,313.2z M1153.2,316.6c0.5,1.2-0.6,2.6-0.8,3.8c-0.2,1.6,1.6,2.8,1.1,4.4
					c-0.3,1-1.3,1.2-2.2,1.2c-0.7,0-1.1-0.5-1.6-1c-1.5-0.9-3.2-0.6-4.8-1.3c-1.1-0.5-1.7-1.4-1.2-2.6c0.8-2,2.7-0.9,4.1-1.9
					c0.2-0.2,0.4-0.4,0.5-0.6c0.4-0.5,1.4-1.9,2.4-2.7C1151.8,315.3,1152.7,315.1,1153.2,316.6z"/>
				<path class="st8" d="M1203.4,345.8c-0.1,1.2-0.1,2.5-0.2,3.7c-0.7,0.2-1.2,0.5-2,0.9c-1.6,0.8-3.1,0.9-4.7,0
					c-1.3-0.8-2-2.2-1.4-3.6c0.8-1.7,2.4-2.2,2.1-4.6c-0.2-1.5-1.1-2.8-1.3-4.3c-0.3-1.9,0.2-3.8,2.1-4.6c0.8-0.3,2.6-0.3,4.5-0.5
					c0.1,0.7,0.2,1.3,0.3,2c-1.4,0.5-2.8,1.4-3.4,2.6c-0.9,1.6,0.4,2.9,0.6,4.4c0.2,1.9-2.3,3.7-1.7,5.4
					C1199.1,348.9,1201.7,346.8,1203.4,345.8z"/>
				<path class="st8" d="M1144.9,364.1c1.6,0.9,3.6,0.6,5.3,1.3c1.5,0.6,2.5,1.9,4,2.6c1.2,0.6,2.5,0.9,3.9,0.9
					c1.1,0,2.3-0.2,3.3-0.7c0.6-0.3,1-0.9,1.6-1.2c1.2-0.7,2.3-0.2,3.5,0c4.3,0.9,5.4-4,2.6-6.5c-0.8-0.7-1.6-1.2-1.9-2.4
					c-0.1-0.7,0.3-1.6,0.1-2.3c-0.2-0.8-0.6-1.2-1.4-1.5c-2.1-0.8-4,1.5-5.6,2.3c-3.1,1.5-5.4-1.7-8.4-2.2c-2.2-0.4-4,0.6-5.5,2.2
					c-1,1-2.5,3.2-2.7,4.6c0,0.4,0,0.8,0.1,1.1C1143.8,363,1144.2,363.7,1144.9,364.1z M1147,359c0.5-1.1,1.4-1.8,2.6-2
					c1.6-0.3,3.5,0.1,5,0.8c0.7,0.3,1.5,0.8,2.3,1c1.6,0.5,2.6,0,4-0.6c2.2-0.9,3.8-1,5.3,1c0.6,0.8,1,1.7,1.4,2.6
					c0.4,0.9,0.5,1.7-0.3,2.4c-1.5,1.2-3.4,0.5-5,0.5c-1.5,0-2.7,0.5-3.9,0.6c-0.3,0.1-0.6,0.2-1,0.2c-2.7,0.1-4.8-2.2-7.3-3
					c-0.9-0.3-1.8-0.5-2.5-0.9C1146.6,361.2,1146.3,360.4,1147,359z"/>
			</g>
			<path class="st6" d="M1166.2,416.5c-0.1,4.8-5.5,32.6-5.5,32.6l0,0.1c-3.8,8.6-6.9,16.6-7.2,20.4c0,0.4-0.1,0.8-0.1,1.1
				c-2.8-4.9-7.8-14.4-8.8-20.9c-1.3-9,1-8.2,6.3-14.2c5.3-6,1.5-8.2,1-15.6c-0.5-7.4,3.5-6.6,3.3-12.4c-0.2-5.8-4.2-8.7-4.3-13.3
				c-0.2-4.7,5.2,2.2,9.8,8.2C1165.4,408.5,1166.3,411.7,1166.2,416.5z"/>
			<path class="st6" d="M1167.4,534c0.2-0.7,0.3-1.3,0.2-2c-0.3-2.2-2.4-3.5-3.4-5.3c-1.6-2.8-0.5-6.2-0.5-9.2
				c0-2.1-0.5-4.2-1.1-6.3c-2.4-1.1-5-1.7-7.3-3.2c-2.2-1.4-4.4-3.2-7.1-3.6c-2.6-0.4-6.9,0.6-5.6,3.9c2.1,5.7,9.6,3.9,10.5,11.5
				c0.3,2.3,0,3.6,1.5,5.6c2.2,2.8,4.6,3.9,5.6,7.5c1.3,4.5,4.6,6.6,8.5,8.3c0-0.1,0.1-0.1,0.1-0.2
				C1169.9,539.4,1166.9,536,1167.4,534z"/>
			<path class="st11" d="M1163.1,285.1c-1,1.1,0.1,2-1.5,2.5c-1.7,0.5-1.8,0.4-2.7,0.9c-0.3,0.1-0.7,0.2-1.1,0.3l-0.5-2.3
				c0,0,2.8-1,4.3-2.1c1.5-1.2,1.4-1.5,2.1-1.5C1164.4,282.7,1164.1,284,1163.1,285.1z"/>
			<path class="st16" d="M1151.3,280.3c0.2,0.3,0.8,0.2,1.1,0.2c1.3-0.1,2.5,0,3.7,0.4c0.2,0.1,1.2,0.4,1.3,0.1
				c0.1-0.3-0.1-0.6-0.3-0.8c-1.5-1.5-4-1.9-5.7-0.5c-0.1,0.1-0.2,0.2-0.2,0.4C1151.2,280.2,1151.2,280.3,1151.3,280.3z"/>
		</g>
		<path class="st29" d="M866.6,569.9c-0.6-2.8-2.1-6.3-5-7.1c-2.1-0.6-4.6-0.1-6.7-0.7c-2.5-0.6-3.6-2.5-5.8-3.5
			c-3.4-1.5-8.1,1.9-10.3,5.6c-4.8,0.6-10.1,2.3-6.4,7.3c2.4,3.3,7.4,1.3,10.6,0.9c7.6-0.9,15.3,0.3,22.9-1.3
			C866.5,571,866.7,570.4,866.6,569.9z"/>
		<path class="st29" d="M820.5,564.2c-2.9-1.2-7.2-0.9-9.9-0.6c-1.3,0.1-3,0.5-3.8,1.7c-0.9,1.2-0.2,2.5,0.9,3.3
			c1.5,1.1,3.5,1.2,5.4,1c2.1-0.1,4.2-0.6,6.3-0.8c2.2-0.2,5.7-1.5,2.5-3.9C821.5,564.6,821,564.4,820.5,564.2z"/>
		<path class="st29" d="M543.8,562.6c-4.7-3.6-9.7-3.5-13.5,0c-3.5-0.9-8.3-1.5-9.1,1.6c-1.5,5.6,11.5,4.8,14.2,4.8
			C538.8,569,550.6,567.7,543.8,562.6z"/>
		<path class="st8" d="M838,483.7c0,0,9.3-14.7,12.6-17.9c3.7-3.6,7.6-6.6,9.8-11.4c1.1-2.4,1.9-4.9,2.8-7.4c0.8-2.4,1.3-4.7,2-7.1
			c0.8-2.6,3-4.1,4.7-6.1c1-1.2,1.8-2.6,2.4-4.1c1.3-2.7,3-6.6,1.9-9.7c-1.1-2.9-4.5-3.3-6.8-1.6c-1.4,1-2.5,2.4-3.5,3.8
			c-1.6,2.3-3.2,4.6-4.6,7.1c-1.3,2.3-2.4,4.6-3.2,7.1c-0.8,2.7-1.3,5.3-2.2,7.9c-1,2.8-2.2,5.6-3.9,8.1c-2.9,4.2-6.2,7.4-7,12.7
			c-0.2,1.2-0.2,2.4-0.6,3.5C841.4,472.1,838,483.7,838,483.7z"/>
	</g>
</g>
</svg>
