<?xml version="1.0" encoding="iso-8859-1"?>
<!-- Generator: Adobe Illustrator 26.0.3, SVG Export Plug-In . SVG Version: 6.00 Build 0)  -->
<!DOCTYPE svg PUBLIC "-//W3C//DTD SVG 1.1//EN" "http://www.w3.org/Graphics/SVG/1.1/DTD/svg11.dtd" [
	<!ENTITY ns_extend "http://ns.adobe.com/Extensibility/1.0/">
	<!ENTITY ns_ai "http://ns.adobe.com/AdobeIllustrator/10.0/">
	<!ENTITY ns_graphs "http://ns.adobe.com/Graphs/1.0/">
	<!ENTITY ns_vars "http://ns.adobe.com/Variables/1.0/">
	<!ENTITY ns_imrep "http://ns.adobe.com/ImageReplacement/1.0/">
	<!ENTITY ns_sfw "http://ns.adobe.com/SaveForWeb/1.0/">
	<!ENTITY ns_custom "http://ns.adobe.com/GenericCustomNamespace/1.0/">
	<!ENTITY ns_adobe_xpath "http://ns.adobe.com/XPath/1.0/">
]>
<svg version="1.1" xmlns:x="&ns_extend;" xmlns:i="&ns_ai;" xmlns:graph="&ns_graphs;"
	 xmlns="http://www.w3.org/2000/svg" xmlns:xlink="http://www.w3.org/1999/xlink" x="0px" y="0px" viewBox="0 0 7000 3000"
	 style="enable-background:new 0 0 7000 3000;" xml:space="preserve">
<style type="text/css">
	.st0{fill:#FFFFFF;}
	.st1{fill:#F7E018;}
	.st2{fill:#5D6CBF;}
	.st3{fill:#293693;}
	.st4{fill:#3949AA;}
	.st5{fill:url(#SVGID_1_);}
	.st6{fill:url(#SVGID_00000121993169111331209880000007115758482656364449_);}
	.st7{fill:#5283A2;}
	.st8{fill:#F89917;}
	.st9{fill:#D6BA32;}
	.st10{fill:#FFDA3E;}
	.st11{fill:#EBEBEB;}
	.st12{fill:#F05138;}
	.st13{fill:url(#SVGID_00000098902156066140948890000015195041054153036958_);}
	.st14{fill:url(#SVGID_00000076593700272820787320000002602342815359843239_);}
	.st15{fill:#646464;}
	.st16{fill:#00589D;}
	.st17{fill:#004283;}
	.st18{fill:#659BD3;}
	.st19{fill:#37008E;}
	.st20{fill:#290070;}
	.st21{fill:#A177DB;}
	.st22{fill:#00AED8;}
	.st23{fill:url(#SVGID_00000025444065134947243950000004042340325790824366_);}
	.st24{fill:#1A60B0;}
	.st25{fill:#539E43;}
	.st26{fill:#333333;}
	.st27{fill:url(#SVGID_00000128469836542940909010000017145190457017287858_);}
	.st28{fill:url(#SVGID_00000011711418456535265470000011669429883561501579_);}
	.st29{fill:url(#SVGID_00000089561593617556529580000002642072459199107004_);}
	.st30{fill:#3C873A;}
	.st31{fill:url(#SVGID_00000049925558996908096760000012102185204931791024_);}
	.st32{fill:url(#SVGID_00000093863448333772665020000016315039773844949931_);}
</style>
<metadata>
	<sfw  xmlns="&ns_sfw;">
		<slices></slices>
		<sliceSourceBounds  bottomLeftOrigin="true" height="3000" width="7000" x="-500" y="-3000"></sliceSourceBounds>
	</sfw>
</metadata>
<g id="_x2014_&#xCE;&#xD3;&#xC8;_x5F_2">
	<rect class="st0" width="7000" height="3000"/>
</g>
<g id="_x2014_&#xCE;&#xD3;&#xC8;_x5F_1">
	<g>
		<g>
			<rect x="150.2" y="272.4" class="st1" width="694" height="694"/>
			<path d="M441.8,912.4c6-0.3,12.9-0.7,19.1-2.1c38.3-8.7,67-42.9,67-83.9V590.6h-67V828c0,0-1.9,26.8-31.6,26.8
				c-29.8,0-44.7-33.5-44.7-33.5l-52.1,31.6C332.5,852.9,354.8,916.2,441.8,912.4z"/>
			<path d="M719.5,672.4l50.2-31.6c0,0-27.6-67-118.9-50.2c0,0-69,11.2-69,87.4c0,41.4,28.9,72.2,64.5,89.2
				c23.8,11.4,85.2,20.2,76.9,59.6c-7.4,35.3-55.8,27.9-55.8,27.9s-33.5-3.7-52.1-39.1l-52.1,29.8c0,0,23.1,67.1,121.3,67.1
				c98.2,0,103.8-76.4,103.8-76.4c1.1-14.8,1.5-28.4-2.8-43c-8.5-28.8-30.8-49.4-57.4-62.1c-13.1-6.2-26.9-11.2-40.1-17.4
				c-10.4-4.9-22.7-8.5-31.2-16.7c-15-14.5-13.9-38.7,5-48.8C689.7,633.4,715.7,661.3,719.5,672.4z"/>
		</g>
		<g>
			<path class="st2" d="M771.5,1401.4L664.2,1463L562.8,1521l-104.9,60.1l-93.9,53.8l-101.3,58.1l-107.5,61.6
				c-3.3-5-5.1-11-5.1-17.2v-314.6c0-11.4,6.2-21.9,16.1-27.5l283.4-158.2c9.5-5.3,21.1-5.3,30.6,0l283.4,158.2
				C766.7,1397,769.3,1399.1,771.5,1401.4z"/>
			<path class="st3" d="M774.9,1754.4c-2.7,4.3-6.6,7.9-11.2,10.5l-283.4,158.2c-9.5,5.3-21.1,5.3-30.6,0l-283.4-158.2
				c-4.5-2.5-8.3-6.1-11-10.2l107.5-61.6l101.3-58.1l93.9-53.8l106.5,58.2l102.5,56L774.9,1754.4z"/>
			<path class="st0" d="M564.4,1639.4c-19.9,34-56.8,56.8-99,56.8c-44,0-82.2-24.8-101.4-61.1c-8.4-16-13.2-34.2-13.2-53.5
				c0-63.3,51.3-114.6,114.6-114.6c41.1,0,77.2,21.6,97.4,54.2l101.3-58.1c-40.4-67.6-114.3-112.8-198.7-112.8
				c-127.8,0-231.3,103.6-231.3,231.3c0,40.4,10.4,78.5,28.6,111.6c39.4,71.4,115.4,119.8,202.7,119.8
				c86.4,0,161.7-47.3,201.4-117.5L564.4,1639.4z"/>
			<path class="st4" d="M779.9,1422.8v314.6c0,6.1-1.8,12-5,16.9l-108-59l-102.5-56l-106.5-58.2l104.9-60.1l101.3-58.1l107.3-61.5
				C776.8,1407.2,779.9,1414.8,779.9,1422.8z"/>
		</g>
		<g>
			<linearGradient id="SVGID_1_" gradientUnits="userSpaceOnUse" x1="5821.8926" y1="213.0535" x2="6454.5977" y2="904.6147">
				<stop  offset="0" style="stop-color:#AFB3D6"/>
				<stop  offset="6.781346e-02" style="stop-color:#A4A8CE"/>
				<stop  offset="0.3537" style="stop-color:#7C80B1"/>
				<stop  offset="0.6141" style="stop-color:#5E639C"/>
				<stop  offset="0.8382" style="stop-color:#4C518F"/>
				<stop  offset="1" style="stop-color:#464B8A"/>
			</linearGradient>
			<path class="st5" d="M6193.7,966.4c-172.3,0-334.8-34.4-457.4-96.8c-61-31.1-109.2-67.6-143.3-108.6
				c-36.8-44.4-55.5-92-55.5-141.6c0-49.6,18.7-97.2,55.5-141.6c34-41,82.2-77.5,143.3-108.6c122.6-62.4,285-96.8,457.4-96.8
				c172.3,0,334.8,34.4,457.4,96.8c61,31.1,109.2,67.6,143.3,108.6c36.8,44.4,55.5,92,55.5,141.6c0,49.6-18.7,97.2-55.5,141.6
				c-34,41-82.2,77.5-143.3,108.6C6528.4,932,6366,966.4,6193.7,966.4z"/>
			
				<linearGradient id="SVGID_00000135660587756043229960000011762156781427190444_" gradientUnits="userSpaceOnUse" x1="5563.5405" y1="619.4102" x2="6823.791" y2="619.4102">
				<stop  offset="0" style="stop-color:#787CB4"/>
				<stop  offset="0.4838" style="stop-color:#787CB4"/>
				<stop  offset="1" style="stop-color:#787CB4"/>
			</linearGradient>
			
				<ellipse style="fill:url(#SVGID_00000135660587756043229960000011762156781427190444_);" cx="6193.7" cy="619.4" rx="630.1" ry="320.9"/>
			<g>
				<g>
					<g>
						<path class="st0" d="M5991.7,563.9c0-24.3-13-44-56.1-44h-62.8l-13.7,73.6l-10.5,56.7l-2.9,15.6h57.7
							c25.8,0,44.1-7.3,57.1-18.1c4.4-3.7,8.2-7.7,11.5-12C5994.9,605.7,5991.7,563.9,5991.7,563.9z M5960.2,626.9
							c-2.7,3.6-5.8,6.8-9.1,9.6c-7.2,5.9-15.9,10.1-26.2,12.4c-6.6,1.5-13.7,2.3-21.5,2.3h-40l0.2-0.9l21.4-115.5h50.5
							c31.5,0,39,11.4,40.8,21.1c0.5,3.1,0.6,6.5,0.6,9.9v8.8C5976.3,587.1,5973.3,609.7,5960.2,626.9z"/>
						<path class="st0" d="M5977,574.5v-8.8c0-3.4-0.1-6.8-0.6-9.9c0.6,3,0.6,5.9,0.6,8.1v0.6l0,0.6
							C5977,565.2,5977.2,568.8,5977,574.5z"/>
					</g>
					<g>
						<path class="st0" d="M5978.6,450.5H5807c-7,0-13,5-14.2,11.8l-64.6,348c-1.6,8.9,5.2,17.1,14.2,17.1h76.3c7,0,13-5,14.2-11.8
							l14.7-79.4h70.3c92,0,166.7-74.6,166.7-166.7v-13C6084.7,498,6037.2,450.5,5978.6,450.5z M5972,635.8
							c-3.3,4.3-7.1,8.3-11.5,12c-13,10.7-31.3,18.1-57.1,18.1h-57.7l2.9-15.6l10.5-56.7l13.7-73.6h62.8c43.1,0,56.1,19.7,56.1,44
							C5991.7,563.9,5994.9,605.7,5972,635.8z"/>
						<g>
							<path d="M5978.6,465.2h-171.3l-47.6,256.2l-16.9,91.2h75.7l16.9-91.2h82.6c83.9,0,151.9-68,151.9-151.9v-13
								C6069.9,506.1,6029,465.2,5978.6,465.2z M5972,635.8c-3.3,4.3-7.1,8.3-11.5,12c-13,10.7-31.3,18.1-57.1,18.1h-57.7l2.9-15.6
								l10.5-56.7l13.7-73.6h62.8c43.1,0,56.1,19.7,56.1,44C5991.7,563.9,5994.9,605.7,5972,635.8z"/>
						</g>
					</g>
				</g>
				<g>
					<g>
						<path class="st0" d="M6580.6,563.9c0-24.3-13-44-56.1-44h-62.8l-13.7,73.6l-10.5,56.7l-2.9,15.6h57.7
							c25.8,0,44.1-7.3,57.1-18.1c4.4-3.7,8.2-7.7,11.5-12C6583.8,605.7,6580.6,563.9,6580.6,563.9z M6549.1,626.9
							c-2.7,3.6-5.8,6.8-9.1,9.6c-7.2,5.9-15.9,10.1-26.2,12.4c-6.6,1.5-13.7,2.3-21.5,2.3h-40l0.2-0.9l21.4-115.5h50.5
							c31.5,0,39,11.4,40.8,21.1c0.5,3.1,0.6,6.5,0.6,9.9v8.8C6565.2,587.1,6562.2,609.7,6549.1,626.9z"/>
						<path class="st0" d="M6565.8,574.5v-8.8c0-3.4-0.1-6.8-0.6-9.9c0.6,3,0.6,5.9,0.6,8.1v0.6l0,0.6
							C6565.9,565.2,6566.1,568.8,6565.8,574.5z"/>
					</g>
					<g>
						<path class="st0" d="M6567.5,450.5h-171.6c-7,0-13,5-14.2,11.8l-64.6,348c-1.6,8.9,5.2,17.1,14.2,17.1h76.3
							c7,0,13-5,14.2-11.8l14.7-79.4h70.3c92,0,166.7-74.6,166.7-166.7v-13C6673.5,498,6626,450.5,6567.5,450.5z M6560.9,635.8
							c-3.3,4.3-7.1,8.3-11.5,12c-13,10.7-31.3,18.1-57.1,18.1h-57.7l2.9-15.6l10.5-56.7l13.7-73.6h62.8c43.1,0,56.1,19.7,56.1,44
							C6580.6,563.9,6583.8,605.7,6560.9,635.8z"/>
						<g>
							<path d="M6567.5,465.2h-171.3l-47.6,256.2l-16.9,91.2h75.7l16.9-91.2h82.6c83.9,0,151.9-68,151.9-151.9v-13
								C6658.8,506.1,6617.9,465.2,6567.5,465.2z M6560.9,635.8c-3.3,4.3-7.1,8.3-11.5,12c-13,10.7-31.3,18.1-57.1,18.1h-57.7
								l2.9-15.6l10.5-56.7l13.7-73.6h62.8c43.1,0,56.1,19.7,56.1,44C6580.6,563.9,6583.8,605.7,6560.9,635.8z"/>
						</g>
					</g>
				</g>
				<g>
					<path class="st0" d="M6246.6,737.1c-8.8,0-15.5-8-13.9-16.7l31.8-171.2c0.7-3.7-1-6.4-2-7.6c-1-1.3-3.4-3.4-7.2-3.4H6189
						l-34.8,187.4c-1.2,6.7-7.1,11.5-13.9,11.5h-77c-8.8,0-15.5-8-13.9-16.7l64.9-349.6c1.2-6.7,7.1-11.5,13.9-11.5h77
						c8.8,0,15.5,8,13.9,16.7l-14,75.4h67.1c48.6,0,73.4,17.6,85.7,32.4c13.8,16.6,19.1,38.4,14.8,61.3l-33.5,180.5
						c-1.2,6.7-7.1,11.5-13.9,11.5H6246.6z"/>
					<path d="M6187.4,466.1l17.1-92.1h-75.7l-64.7,348.3h75.7l36.9-198.9h78.6c15.1,0,26.4,13.7,23.7,28.5l-31.6,170.4h77.4
						l33.4-180c7.4-39.7-19.1-76.3-86-76.3H6187.4z"/>
				</g>
			</g>
		</g>
		<g>
			<g>
				<path class="st7" d="M2672.3,674.9c-12.7,12.6-54,21.8-102.9,21.8c-59,0-106.9-13.4-106.9-30c0-7.8,10.7-15,28.3-20.3
					c-0.5,0.4-12.7,11.1,3.4,15.4c16.4,4.4,109.1,12,142.9-3.3C2637,658.6,2655,669.4,2672.3,674.9z"/>
				<path class="st7" d="M2476.7,577.8c0,0-34.9,9.8-32.7,24c2.2,14.2,44.7,21.8,44.7,21.8s103.6,14.2,194.2-14.2
					c0,0-17.5-5.5-25.1-16.4c-0.7-1-18.4,3.4-19.9,3.6c-16.4,2.7-32.9,4.8-49.4,6.3c-17.3,1.5-35.1,2.1-52.6,1.8
					c-17.4-0.3-36-0.4-53.1-3.7c-4.6-0.9-11.1-2.3-13.6-6.8C2465.8,588.3,2472.7,581.5,2476.7,577.8z"/>
				<path class="st7" d="M2775.9,506.8c-17.5-8.1-39.8-7.3-54.7,5.8l0.3-0.1l2.5-0.5l0.1,0c11.1-2,49.9-6.4,53.6,31
					c0.8,7.6-1,15-4.5,22c-16.5,33.1-70.8,57.7-70.8,57.7c1.6-0.7,4.2-0.6,5.9-0.9c5.4-1,10.8-2.4,16-4.1
					c17.2-5.4,33.2-13.5,47.9-23.8c6.5-4.6,12.7-9.6,18-15.6c8.2-9.3,14-21.4,13.2-34C2802.5,527.6,2790.6,513.5,2775.9,506.8z"/>
				<path class="st7" d="M2503.4,507.5c0,0-64.4,15.3-64.4,27.3c0,12,54.6,10.9,54.6,10.9s102,4.9,212.2-15.8l-27.3,16.3
					c0,0-96.4,20.8-198.2,15.9c-21.6-1-43.8-2.4-64.8-7.9c-6.2-1.6-22.9-4.9-21.6-14.2c0.6-4,5.6-7.1,8.7-9c3.9-2.4,8.1-4.1,12.3-6
					c22-10.1,46.5-14.4,70.5-16.5c3-0.3,6-0.5,9-0.6C2497.2,507.7,2500.6,508.1,2503.4,507.5z"/>
				<path class="st7" d="M2803.9,728.2c0.3,7.4-5.5,14-11.5,18.6c-21.7,16.6-51.2,23.5-77.6,29c-40.6,8.4-82.1,11.4-123.5,11.8
					c-55.4,0.5-108.8-3.3-162.3-18.8c18.8,5.4,41.6,5.1,61.1,6.5c20.8,1.5,41.7,2.4,62.6,2.6c41.8,0.4,83.6-2,125.1-7.1
					c12.3-1.5,24.5-3.3,36.6-5.5c21.2-4.2,42.3-9.9,62-18.8c10.4-4.7,20.7-10.5,27.3-19.7C2803.8,727.3,2803.9,727.7,2803.9,728.2z"
					/>
				<path class="st7" d="M2775.6,708.8c0,24.7-97.6,48-219.3,48c-37.5,0-75-0.4-112.5-2.6c-25.2-1.5-51.3-3.1-75.8-10
					c-12.4-3.5-35.6-13.6-18.8-29.2c12.5-11.7,29.1-17.9,45.7-21.2c8.6-1.7,17.4-2.6,26.2-2.8c3.9-0.1,8.3-0.6,12.1,0
					c2.2,0.3,4.5,1.6,6.8,2.4c0.6,0.2,0.5,1-0.1,1.1c-35.4,6-56.6,14.5-56.6,23.9c0,18.3,81,22.6,189.2,22.6
					c59.5,0,122.4-2.2,179-22c11.8-4.1,17.4-9.6,13.4-22.1C2771.9,700,2775.6,704,2775.6,708.8z"/>
			</g>
			<g>
				<path class="st8" d="M2636.6,166.9c0-0.1-0.1-0.1-0.1-0.2c8.7,24,3,51.4-9.9,73.4c-12.9,22-32.2,39.5-52.1,55.4
					c-21.4,17.2-43.3,33.3-61.3,54.2c-10.9,12.6-23.7,28.6-21.7,46.3c2.2,18.8,13.3,36.4,24.4,51.2c7.1,9.5,15,18.3,23.3,26.8
					c4.9,5.1,10,10,15.3,14.8c4.6,4.2,15.5,10.5,18.1,15.9c0,0-9.8-20.7-31.6-50.2c-14.4-19.4-21.6-46.2-13.6-69.7
					c9.9-28.9,35.4-45.9,58.7-63.5c26.9-20.4,49.5-46.5,61.2-78.6c1.5-4.3,2.9-8.6,4-13C2656.5,208.1,2650.8,184.1,2636.6,166.9z"/>
				<path class="st8" d="M2713.3,293.2c-22.7,6.3-44.9,14.7-66,25.2c-14.8,7.4-29.2,15.8-41.5,26.9c-16.1,14.4-29.4,34-29.8,56.2
					c-0.2,8.8,2.1,18,5.3,26.2c4.7,12.4,12,23.7,20.4,34c7.2,8.9,12.3,16.7,12.1,28.4c-0.2,13.9-7.8,26.5-17.1,36.4
					c0.8-0.8,2.8-1.3,3.7-1.9c3.3-1.7,6.4-3.7,9.5-5.7c9.2-6.2,17.6-13.7,24-22.8c4.9-7,8.5-15.1,9.8-23.6c2-12.4-2.2-23.7-8.7-34.2
					c-3.6-5.8-7.7-11.2-11.5-16.9c-3.4-5.2-7.6-10.5-10.1-16.2c-2.6-6-3.7-12.8-3.1-19.3c1.5-14.3,11.8-24.3,21.4-33.9
					C2655.6,328.3,2683.2,308.3,2713.3,293.2z"/>
			</g>
			<g>
				<polygon class="st7" points="2642.9,880.6 2608.7,994.1 2574.4,880.6 2542.8,880.6 2586.9,1023.6 2608.7,1023.6 2630.5,1023.6 
					2674.5,880.6 				"/>
				<path class="st7" d="M2361,827.7v185.7c0,0,0,27-30.5,41.2l15.3,17.5c0,0,6.8-1.3,15.3-5.7c13.7-7.2,31.6-22.6,31.6-54.3V827.7
					H2361z"/>
				<path class="st7" d="M2497.4,879.2c-7.1-2-16.1-3.3-27.3-3.3c0,0-25.1,0.9-49.1,10.7l4.4,18.5c0,0,36.3-14.3,57.8-5.6
					c8.7,3.5,14.2,12.2,14.2,21.5v14.3c0,0-82.9-8.4-84,46.2c-1.1,54.6,57.8,40.4,57.8,40.4s13-3.7,26.2-13.7
					c1.1-0.8,2.2-1.7,3.3-2.6l3.1,15.3h22V908.3c0,0,0,0,0-0.1C2525.8,906.4,2525.1,887.1,2497.4,879.2z M2497.4,987.3
					c-6.9,7.2-17.7,11.7-23.4,13.7c-4.2,1.5-8.8,2-13.2,1.3c-7.6-1.3-17.3-6.4-18-24c-1.1-29.5,54.6-24.5,54.6-24.5V987.3z"/>
				<path class="st7" d="M2762.5,879.2c-7.1-2-16.1-3.3-27.3-3.3c0,0-25.1,0.9-49.1,10.7l4.4,18.5c0,0,36.3-14.3,57.8-5.6
					c8.7,3.5,14.2,12.2,14.2,21.5v14.3c0,0-82.9-8.4-84,46.2c-1.1,54.6,57.8,40.4,57.8,40.4s13-3.7,26.2-13.7
					c1.1-0.8,2.2-1.7,3.3-2.6l3.1,15.3h22V908.3c0,0,0,0,0-0.1C2790.9,906.4,2790.2,887.1,2762.5,879.2z M2762.5,987.3
					c-6.9,7.2-17.7,11.7-23.4,13.7c-4.2,1.5-8.8,2-13.2,1.3c-7.6-1.3-17.3-6.4-18-24c-1.1-29.5,54.6-24.5,54.6-24.5V987.3z"/>
			</g>
		</g>
		<g>
			<polygon class="st9" points="1895.8,272.4 1836.8,896.2 1587.3,966.4 1337,896.2 1278.8,272.4 			"/>
			<polygon class="st10" points="1792.1,860.9 1587.3,917.2 1587.3,325.2 1836.8,325.2 			"/>
			<polygon class="st11" points="1504.1,406.6 1504.1,727.5 1384.3,692.7 1384.3,766.1 1504.1,800.8 1563.1,817.9 1563.1,744.6 
				1563.1,406.6 			"/>
			<polygon class="st0" points="1801,476.3 1810,406.6 1672.2,406.6 1613.2,406.6 1613.2,476.3 1613.2,645.4 1613.2,672.5 
				1672.2,661.3 1733.1,649.8 1731.8,711.3 1672.2,728 1613.2,744.6 1613.2,817.9 1672.2,801.4 1779.6,771.4 1784.9,696.3 
				1793.9,572.9 1672.2,586.4 1672.2,476.3 			"/>
		</g>
		<g>
			<g>
				<path class="st12" d="M689.2,2833.3H306.5c-86.3,0-156.3-70-156.3-156.3v-381.4c0-86.3,70-156.3,156.3-156.3h382.8
					c86.3,0,156.3,70,156.3,156.3V2677C845.5,2763.3,775.5,2833.3,689.2,2833.3z"/>
				<path class="st0" d="M589.8,2486.3c0,0-227.4-171-249.8-207.4c0,0,53.1,106.1,142.4,184.3c0,0-153.6-103.3-209.4-162
					c0,0,86.6,148,245.7,273.7c0,0-116.6,75.9-294.3-36.1c0,0,87.6,170.1,283.1,164.5c0,0,58.6-2.8,120.1-36.3
					c61.4-33.5,97.7,19.5,97.7,19.5l14,22.3c0,0,16.8-18.9,0-76.5c-16.8-57.6-39.1-66-39.1-66s58.6-189.9-153.6-329.5
					C546.7,2237,627.4,2341.8,589.8,2486.3z"/>
			</g>
			<g>
				<polygon points="1820.1,2382.2 1754.9,2658.6 1680.6,2382.2 1669.6,2382.2 1630,2382.2 1619,2382.2 1544.7,2658.6 
					1479.4,2382.2 1423.6,2382.2 1513.1,2714.6 1529.6,2714.6 1557.9,2714.6 1574.4,2714.6 1649.8,2451.4 1725.2,2714.6 
					1741.7,2714.6 1769.9,2714.6 1786.5,2714.6 1876,2382.2 				"/>
				<path d="M2381.4,2432.5v-50.3h-64.2v-81h-58.6v81h-117.3v-36.9c0-18.2,14.7-32.9,32.9-32.9h34.1v-50.3h-61.7
					c-35.3,0-64,28.6-64,64v56.1h-47.5v50.3h47.5v282.1h58.6v-282.1h117.3v220.7c0,33.9,27.5,61.4,61.4,61.4h61.5v-50.3H2353
					c-19.8,0-35.8-16-35.8-35.8v-196H2381.4z"/>
				<g>
					<rect x="1926.3" y="2382.2" width="58.6" height="332.3"/>
					<circle cx="1954.2" cy="2290.1" r="36.3"/>
				</g>
				<path d="M1322.8,2382.2h61.7c0,0,5.6-136.8-167.6-136.8s-159.2,145.2-159.2,145.2s-5.6,75.4,108.9,108.9
					c114.5,33.5,162,36.3,162,92.2c0,55.9-61.7,77.3-107.6,77.3s-113-15.9-113-82.9h-61.4c0,0-5.6,136.8,175.9,136.8
					c61.5,0,129.2-18.3,157.6-78.2c27.4-57.8,13.6-120.9-40-155.7c-18.1-11.7-38.3-19.9-59-25.8c-125.7-36.3-159.2-41.9-159.2-92.2
					c0-50.3,75.4-81,148-61.4C1270,2309.6,1317,2323.6,1322.8,2382.2z"/>
			</g>
		</g>
		<g>
			<g>
				
					<linearGradient id="SVGID_00000102543188816137254760000014641352113464853398_" gradientUnits="userSpaceOnUse" x1="2872.1287" y1="2118.5681" x2="3209.5845" y2="2564.8811">
					<stop  offset="0" style="stop-color:#4689BB"/>
					<stop  offset="3.774730e-02" style="stop-color:#4487B8"/>
					<stop  offset="0.4371" style="stop-color:#3271A1"/>
					<stop  offset="0.6885" style="stop-color:#2C6999"/>
				</linearGradient>
				<path style="fill:url(#SVGID_00000102543188816137254760000014641352113464853398_);" d="M3306.6,2184.4
					c-36.2-25-83.6-30.4-128.5-29.8c-13.6,0.2-26.9,0.9-39.7,1.8c-36,2.5-77.6,8.2-106.9,31.3c-10.4,8.2-20.2,20.1-21.7,33.8
					c-0.1,0.8-0.1,1.5-0.1,2.3c0,0.1,0,0.2,0,0.2v83.7h167.2v23h-246.5c0,0-96.1,3.2-96.1,156.4c0,84.4,19.3,126.2,39.9,148
					c15.5,16.4,37.2,25.4,59.8,25.4h53.8v-89.2c0-48.1,39-87.2,87.2-87.2h176.5c48.1,0,87.2-39,87.2-87.2v-151.1
					C3338.4,2221.3,3326.7,2198.2,3306.6,2184.4z M3109.7,2238.9c-0.9,14.6-12.8,26.5-27.4,27.4c-17.7,1.1-32.4-13.5-31.2-31.2
					c0.9-14.6,12.8-26.5,27.4-27.4C3096.1,2206.5,3110.8,2221.1,3109.7,2238.9z"/>
				
					<linearGradient id="SVGID_00000075123754290038644610000009355010338365821318_" gradientUnits="userSpaceOnUse" x1="3141.6821" y1="2429.1929" x2="3435.5945" y2="2808.0137">
					<stop  offset="0" style="stop-color:#FFE466"/>
					<stop  offset="4.166079e-02" style="stop-color:#FFE15D"/>
					<stop  offset="0.1501" style="stop-color:#FFDC4C"/>
					<stop  offset="0.285" style="stop-color:#FFD841"/>
					<stop  offset="0.4744" style="stop-color:#FFD63A"/>
					<stop  offset="1" style="stop-color:#FFD538"/>
				</linearGradient>
				<path style="fill:url(#SVGID_00000075123754290038644610000009355010338365821318_);" d="M3042.8,2803.5
					c36.2,25,83.6,30.4,128.5,29.8c13.6-0.2,26.9-0.9,39.7-1.8c36-2.5,77.6-8.2,106.9-31.3c10.4-8.2,20.2-20.1,21.7-33.8
					c0.1-0.8,0.1-1.5,0.1-2.3c0-0.1,0-0.2,0-0.2v-83.7h-167.2v-23h246.5c0,0,96.1-3.2,96.1-156.4c0-84.4-19.3-126.2-39.9-148
					c-15.5-16.4-37.2-25.4-59.8-25.4h-53.8v89.2c0,48.1-39,87.2-87.2,87.2h-176.5c-48.1,0-87.2,39-87.2,87.2v151.1
					C3011,2766.5,3022.7,2789.6,3042.8,2803.5z M3239.7,2748.9c0.9-14.6,12.8-26.5,27.4-27.4c17.7-1.1,32.4,13.5,31.2,31.2
					c-0.9,14.6-12.8,26.5-27.4,27.4C3253.2,2781.3,3238.6,2766.7,3239.7,2748.9z"/>
			</g>
			<g>
				<path class="st15" d="M3881.7,2326.7c-56.5-9.8-99.5,0.2-129.5,14c-36.4,16.7-54,39.2-54,39.2v420.2l54,21.6v-194.1
					c30.8,26.8,77.1,30.7,77.1,30.7s148,15.4,148-151.1C3977.3,2340.5,3881.7,2326.7,3881.7,2326.7z M3908.1,2559.4
					c-3.4,16.5-11.5,31.8-23.8,43.2c-10.7,9.9-25.9,18.5-46.5,18.5c-48.6,0-85.6-26.7-85.6-26.7v-210.9l8.4-4.8
					c16.4-9.3,34.3-15.8,52.9-18.9c32.1-5.2,74.3-1.9,89.8,45.4C3923.2,2466.1,3913.8,2531.4,3908.1,2559.4z"/>
				<path class="st15" d="M4305.8,2677.1v-347.3h-51.7V2594c0,0-37.8,27.2-94.8,27.2c-25.2,0-46.1-14.4-56.6-31
					c-8.6-13.6-12.8-29.5-12.8-45.5V2322l-54,21.6v211c0,19.9,5.1,39.6,15.5,56.6c8.1,13.2,20.2,26.6,38.5,35.8
					c16,8,36.6,12.7,63.2,11.2c47-2.7,79.4-13.3,101-24.4v56.1c0,33.1-19.1,63.3-49.1,77.1c-19.5,9-46.6,15.3-84.3,16.1l9.3,35.5
					c0,0,72.2,2.2,124.1-33.4c28-19.2,50.1-49.5,51.7-97.2C4305.9,2684.5,4305.9,2680.8,4305.8,2677.1z"/>
				<path class="st15" d="M4456.2,2363.7h60.9v-33.9h-60.9v-107.9l-51.7,21.6v86.4H4366v33.9h38.6v219.5c0,6.3,0.6,12.6,2.2,18.7
					c7.2,27.9,27.9,42,49.4,49c29.7,9.6,60.9,5.8,60.9,5.8v-27.8c-56.1,0-60.6-38.3-60.9-46.9V2363.7z"/>
				<path class="st15" d="M4788.5,2337.5c-11.8-5.7-26-9.3-43.2-9.3c-50.4,0-89.6,21.5-112.6,38.4v-227.4l-54,21.3v493h54v-249.4
					c0,0,54-45.1,100.2-39c46.3,6.2,55.5,46.9,55.5,65.1v223.3h54v-224.1c0-22.9-6.9-45.4-20.5-63.8
					C4814,2354.9,4803.2,2344.6,4788.5,2337.5z"/>
				<path class="st15" d="M5497.9,2426.5v224.1h-54v-223.3c0-18.2-18.5-62-64.8-68.2c-46.3-6.2-91,23.5-91,23.5v267.9h-54v-265.8
					c0-5.6,3-10.8,7.9-13.6c21.6-12.5,42.8-26,66.2-34.8c23.6-8.9,49.3-13.8,74.7-13.6c24.6,0.2,52.7,4.5,73.2,18.9
					c8.2,5.8,15.3,13,21.3,21C5491,2381,5497.9,2403.6,5497.9,2426.5z"/>
				<path class="st15" d="M5039.9,2323.6c-109.8,0-148,74.9-148,167.3s53.6,167.3,148,167.3c102.1,0,148-74.9,148-167.3
					S5139.4,2323.6,5039.9,2323.6z M5039.9,2625.8c-57.1,0-89.4-59.4-89.4-132.6s23.1-132.6,89.4-132.6c60.1,0,89.4,59.4,89.4,132.6
					S5101.6,2625.8,5039.9,2625.8z"/>
			</g>
		</g>
		<g>
			<path class="st16" d="M1754.2,1422.8v314.6c0,6.1-1.8,12-5,16.9l-108-59l-102.5-56l-106.5-58.2l104.9-60.1l101.3-58.1l107.3-61.5
				C1751.1,1407.2,1754.2,1414.8,1754.2,1422.8z"/>
			<g>
				<polygon class="st0" points="1633,1565.6 1609.5,1565.6 1609.5,1542.1 1584.9,1542.1 1584.9,1565.6 1561.4,1565.6 
					1561.4,1590.3 1584.9,1590.3 1584.9,1613.7 1609.5,1613.7 1609.5,1590.3 1633,1590.3 				"/>
				<polygon class="st0" points="1720.2,1565.6 1696.7,1565.6 1696.7,1542.1 1672.1,1542.1 1672.1,1565.6 1648.6,1565.6 
					1648.6,1590.3 1672.1,1590.3 1672.1,1613.7 1696.7,1613.7 1696.7,1590.3 1720.2,1590.3 				"/>
			</g>
			<path class="st17" d="M1749.2,1754.4c-2.7,4.3-6.6,7.9-11.2,10.5l-283.4,158.2c-9.5,5.3-21.1,5.3-30.6,0l-283.4-158.2
				c-4.5-2.5-8.3-6.1-11-10.2l107.5-61.6l101.3-58.1l93.9-53.8l106.5,58.2l102.5,56L1749.2,1754.4z"/>
			<path class="st18" d="M1745.8,1401.4l-107.3,61.5l-101.3,58.1l-104.9,60.1l-93.9,53.8l-101.3,58.1l-107.5,61.6
				c-3.3-5-5.1-11-5.1-17.2v-314.6c0-11.4,6.2-21.9,16.1-27.5l283.4-158.2c9.5-5.3,21.1-5.3,30.6,0l283.4,158.2
				C1741,1397,1743.6,1399.1,1745.8,1401.4z"/>
			<path class="st0" d="M1538.7,1639.4c-19.9,34-56.8,56.8-99,56.8c-44,0-82.2-24.8-101.4-61.1c-8.4-16-13.2-34.2-13.2-53.5
				c0-63.3,51.3-114.6,114.6-114.6c41.1,0,77.2,21.6,97.4,54.2l101.3-58.1c-40.4-67.6-114.3-112.8-198.7-112.8
				c-127.8,0-231.3,103.6-231.3,231.3c0,40.4,10.4,78.5,28.6,111.6c39.4,71.4,115.4,119.8,202.7,119.8
				c86.4,0,161.7-47.3,201.4-117.5L1538.7,1639.4z"/>
		</g>
		<g>
			<path class="st19" d="M2728.5,1422.8v314.6c0,6.1-1.8,12-5,16.9l-108-59l-102.5-56l-106.5-58.2l104.9-60.1l101.3-58.1l107.3-61.5
				C2725.4,1407.2,2728.5,1414.8,2728.5,1422.8z"/>
			<path class="st20" d="M2723.6,1754.4c-2.7,4.3-6.6,7.9-11.2,10.5L2429,1923.1c-9.5,5.3-21.1,5.3-30.6,0l-283.4-158.2
				c-4.5-2.5-8.3-6.1-11-10.2l107.5-61.6l101.3-58.1l93.9-53.8l106.5,58.2l102.5,56L2723.6,1754.4z"/>
			<path class="st21" d="M2720.1,1401.4l-107.3,61.5l-101.3,58.1l-104.9,60.1l-93.9,53.8l-101.3,58.1l-107.5,61.6
				c-3.3-5-5.1-11-5.1-17.2v-314.6c0-11.4,6.2-21.9,16.1-27.5l283.4-158.2c9.5-5.3,21.1-5.3,30.6,0l283.4,158.2
				C2715.3,1397,2717.9,1399.1,2720.1,1401.4z"/>
			<path class="st0" d="M2513.1,1639.4c-19.9,34-56.8,56.8-99,56.8c-44,0-82.2-24.8-101.4-61.1c-8.4-16-13.2-34.2-13.2-53.5
				c0-63.3,51.3-114.6,114.6-114.6c41.1,0,77.2,21.6,97.4,54.2l101.3-58.1c-40.4-67.6-114.3-112.8-198.7-112.8
				c-127.8,0-231.3,103.6-231.3,231.3c0,40.4,10.4,78.5,28.6,111.6c39.4,71.4,115.4,119.8,202.7,119.8
				c86.4,0,161.7-47.3,201.4-117.5L2513.1,1639.4z"/>
			<path class="st0" d="M2619.7,1563.6v-19.7H2602l3-30.6h-19.7l-3,30.6h-22.1l3-30.6h-19.7l-3,30.6h-19.7v19.7h17.7l-2.5,25.3h-20
				v19.7h18l-3.4,34.1h19.7l3.4-34.1h22.1l-3.4,34.1h19.7l3.4-34.1h19.3v-19.7h-17.4l2.5-25.3H2619.7z M2577.8,1588.9h-22.1
				l2.5-25.3h22.1L2577.8,1588.9z"/>
		</g>
		<g>
			<polygon class="st22" points="3667.5,652.2 3456.5,652.2 3476,617.9 3669.5,617.9 			"/>
			<polygon class="st22" points="3677.5,569.4 3238.5,569.4 3264.1,535.1 3688.6,535.1 			"/>
			<g>
				<path class="st22" d="M4993.5,353.4c-84.2-69.1-205.1-80.7-308.2-57.1c-115.1,26.3-214.1,105.5-269.3,209.3
					c-8.8,16.7-16.5,33.9-22.8,51.7h-290.4c-9.5,0-18.1,5.4-22.3,13.9l-48,97.4c-7.3,14.7,3.5,32,19.9,32h171.6
					c-4,6.3-8.4,12.5-13.1,18.5c-73,92.5-173.4,90.7-239.4,38c-55.6-44.4-68.7-154.2-5.9-230.7c62.8-76.6,162.2-108.3,240.8-42.9
					c11.4,9.5,20.9,20.6,28.3,32.8l182.8-53.6c-17.2-46-45.8-87.1-85.9-119.3c-153.4-123.1-383.5-80.7-512.7,86.8
					c-99.8,129.5-139.3,322.9,20.2,466.3c130.6,117.4,376.8,83.1,504.6-72.7c18.7-22.8,34.7-46.9,47.8-71.8
					c18.3,51,52.3,100.4,103.6,146.5c130.6,117.4,391,77,518.7-78.7C5141.5,664,5129.3,464.8,4993.5,353.4z M4869.7,724
					c-64.4,78.5-181.6,95.4-247.6,37.1c-68.3-60.3-72.4-159.7-8.1-238.2c64.4-78.5,180.8-98,248.9-42.1
					C4931.1,536.7,4934.1,645.6,4869.7,724z"/>
				<polygon class="st22" points="3439.2,450.3 3402.5,450.3 3372.3,484.6 3429.7,484.6 3712.2,484.6 3742.3,450.3 				"/>
			</g>
		</g>
		<g>
			
				<linearGradient id="SVGID_00000067222418025428670720000012486325443986890167_" gradientUnits="userSpaceOnUse" x1="5937.1929" y1="2291.8306" x2="6903.7676" y2="2600.8857">
				<stop  offset="0" style="stop-color:#BFC2C5"/>
				<stop  offset="0.1489" style="stop-color:#B2B4B8"/>
				<stop  offset="0.4164" style="stop-color:#A1A2A7"/>
				<stop  offset="0.695" style="stop-color:#96979D"/>
				<stop  offset="1" style="stop-color:#93939A"/>
			</linearGradient>
			<path style="fill:url(#SVGID_00000067222418025428670720000012486325443986890167_);" d="M6400.2,2139.3
				c-248.3,0-449.6,134.8-449.6,301.2s201.3,304.4,449.6,301.2c324.9-4.3,449.5-179.2,449.6-301.2
				C6849.9,2323.4,6721.2,2139.3,6400.2,2139.3z M6462.4,2669.2c-185.3,2.2-335.5-92.1-335.5-205.7s150.2-205.7,335.5-205.7
				c239.5,0,335.5,92.1,335.5,205.7S6704.8,2666.3,6462.4,2669.2z"/>
			<g>
				<path class="st24" d="M6803.8,2809.7l-92.7-156.7c0,0-2.8-7.8-14-17.6c-10.9-9.6-29.7-21.2-61.6-29.4c-0.1,0-0.2-0.1-0.3-0.1
					c19-0.7,37-5.1,53.4-12.6c15.1-7,28.8-16.5,40.4-28.2c25.3-25.3,40.9-60.1,40.9-98.7c0-77.1-62.5-139.6-139.6-139.6h-154.3
					h-153.8v506.4h153.8v-197.9h46.9c0,0,16.7,1,49.1,61.7c21.1,39.6,45.6,85.5,60,112.6c7.7,14.4,12.5,23.5,12.5,23.5h173.1
					L6803.8,2809.7z M6600.6,2510.1c-7.8,7.8-18.6,12.6-30.5,12.6h-94v-86.2h94c23.8,0,43.1,19.3,43.1,43.1
					C6613.2,2491.6,6608.4,2502.3,6600.6,2510.1z"/>
			</g>
		</g>
		<g>
			<path d="M5962.5,1462.4V1634c0,1.6-0.8,3-2.1,3.9l0,0c-1.4,0.9-3.2,1-4.7,0.1l-69-37.8c-3.7-2-6-5.9-6-10.1V1507
				c0-2.9-1.6-5.5-4.2-6.8l-32.5-16.5c-2.2-1.1-4.8-1.1-6.9,0l-32.5,16.5c-2.6,1.3-4.2,3.9-4.2,6.8v86.3c0,4.2-2.3,8.1-6,10.1
				l-66.4,36.4c-1.5,0.8-3.3,0.7-4.7-0.1l-2.6-1.7c-1.3-0.8-2.1-2.3-2.1-3.9v-171.6c0-3.2,1.7-6.2,4.5-7.8l113-65.3
				c2.8-1.6,6.2-1.6,9,0l113,65.3C5960.8,1456.2,5962.5,1459.2,5962.5,1462.4z"/>
			<path class="st25" d="M6752.4,1515.8v24.8c0,0.7-0.4,1.4-1,1.8l-21.5,12.4c-0.6,0.4-1.4,0.4-2,0l-21.5-12.4c-0.6-0.4-1-1-1-1.8
				v-24.8c0-0.7,0.4-1.4,1-1.8l21.5-12.4c0.6-0.4,1.4-0.4,2,0l21.5,12.4C6752,1514.4,6752.4,1515.1,6752.4,1515.8z"/>
			<path class="st26" d="M6770,1541.3v-34.8c0-1.3-0.7-2.4-1.8-3.1l-37.6-21.7c-1.1-0.6-2.4-0.6-3.5,0l-37.6,21.7
				c-1.1,0.6-1.8,1.8-1.8,3.1v43.4c0,1.3,0.7,2.4,1.8,3.1l111.4,64.8c3.3,1.9,3.3,6.7,0,8.6l-66.7,38.5c-3.2,1.9-7.2,1.9-10.4,0
				l-110.6-63.9c-3.2-1.9-5.2-5.3-5.2-9v-127.7c0-3.7,2-7.2,5.2-9l110.6-63.9c3.2-1.9,7.2-1.9,10.4,0l110.6,63.9
				c3.2,1.9,5.2,5.3,5.2,9v39.7l-72.3,41.5C6774.2,1547.5,6770,1545.1,6770,1541.3z"/>
			<path class="st25" d="M6752.4,1515.8v24.8c0,0.7-0.4,1.4-1,1.8l-21.5,12.4c-0.6,0.4-1.4,0.4-2,0l-21.5-12.4c-0.6-0.4-1-1-1-1.8
				v-24.8c0-0.7,0.4-1.4,1-1.8l21.5-12.4c0.6-0.4,1.4-0.4,2,0l21.5,12.4C6752,1514.4,6752.4,1515.1,6752.4,1515.8z"/>
			<path class="st25" d="M6752.4,1515.8v24.8c0,0.7-0.4,1.4-1,1.8l-21.5,12.4c-0.6,0.4-1.4,0.4-2,0l-21.5-12.4c-0.6-0.4-1-1-1-1.8
				v-24.8c0-0.7,0.4-1.4,1-1.8l21.5-12.4c0.6-0.4,1.4-0.4,2,0l21.5,12.4C6752,1514.4,6752.4,1515.1,6752.4,1515.8z"/>
			<g>
				<path class="st26" d="M6472.4,1240.7v172l-34.5-19.9c-3.2-1.9-7.2-1.9-10.4,0l-110.6,63.9c-3.2,1.9-5.2,5.3-5.2,9v127.7
					c0,3.7,2,7.2,5.2,9l110.6,63.9c3.2,1.9,7.2,1.9,10.4,0l110.6-63.9c3.2-1.9,5.2-5.3,5.2-9l0.2-313.1c0-4.4-2.4-8.5-6.3-10.7
					l-63.9-35.6C6478.6,1231.3,6472.4,1235,6472.4,1240.7z M6472.6,1550.7c0,1.2-0.7,2.4-1.7,3l-36.5,21.1c-1.1,0.6-2.4,0.6-3.4,0
					l-36.5-21.1c-1.1-0.6-1.7-1.8-1.7-3v-42.2c0-1.2,0.7-2.4,1.7-3l36.5-21.1c1.1-0.6,2.4-0.6,3.4,0l36.5,21.1
					c1.1,0.6,1.7,1.7,1.7,3V1550.7z"/>
			</g>
			<g>
				<path class="st25" d="M6341.1,1810c0-9.1-6.8-13.6-40.7-15.8s-39.6-21.5-39.6-21.5s-11.3-41.9,45.3-41.9
					c46.6,0,51.7,26.1,52,35.3c0.1,1.7-1.3,3.2-3.1,3.2h-13.5c-1.4,0-2.6-1-3-2.3c-0.5-2-1.2-4.6-1.4-5c-0.8-1.9-2-3.7-3.4-5.3
					c-2.1-2.4-4.9-4.4-7.9-5.6c-9.9-4.1-23.6-4.4-33.7-1.2c-5.5,1.8-12.1,6.1-12.1,12.6c0,6.8,1.1,13.6,41.9,15.8
					c7.8,0.4,15.7,1.7,22.8,4.9c15.7,7.1,21.9,24.6,13.3,40.3c-9.3,17.2-32.1,20.4-49.7,20.4c-50.1,0-53.6-28.4-53.4-37.8
					c0-1.7,1.4-3,3.1-3h13.8c1.5,0,2.8,1.1,3,2.6c2.6,15,10,20.4,34.2,20.4C6334.6,1826.1,6341.1,1819,6341.1,1810z"/>
				<path class="st25" d="M6358.1,1823.5c-9.3,17.2-32.1,20.4-49.7,20.4c-50.1,0-53.6-28.4-53.4-37.8c0-1.7,1.4-3,3.1-3h13.8
					c1.5,0,2.8,1.1,3,2.6c2.6,15,10,20.4,34.2,20.4c25.6,0,32.1-7.1,32.1-16.1s-6.8-13.6-40.7-15.8s-39.6-21.5-39.6-21.5
					s-11.3-41.9,45.3-41.9c46.6,0,51.7,26.1,52,35.3c0.1,1.7-1.3,3.2-3.1,3.2h-13.5c-1.4,0-2.6-1-3-2.3c-0.5-2-1.2-4.6-1.4-5
					c-0.8-1.9-2-3.7-3.4-5.3c-2.1-2.4-4.9-4.4-7.9-5.6c-9.9-4.1-23.6-4.4-33.7-1.2c-5.5,1.8-12.1,6.1-12.1,12.6
					c0,6.8,1.1,13.6,41.9,15.8c7.8,0.4,15.7,1.7,22.8,4.9C6360.5,1790.4,6366.6,1807.9,6358.1,1823.5z"/>
				<path class="st25" d="M6402,1721v130.3c0,3.8-2,7.3-5.3,9.2l-112.9,65.2c-3.3,1.9-7.3,1.9-10.6,0l-26-15l-17.1-9.8
					c-1.7-1-1.5-3.6,0.4-4.2l17.3-6.2c0.6-0.2,1.4-0.2,2,0.2l24.2,14c2.8,1.6,6.2,1.6,9,0l95.8-55.3c2.8-1.6,4.5-4.6,4.5-7.8v-110.7
					c0-3.2-1.7-6.2-4.5-7.8l-95.8-55.3c-2.8-1.6-6.2-1.6-9,0l-95.8,55.3c-2.8,1.6-4.5,4.6-4.5,7.8v110.7c0,3.2,1.7,6.2,4.5,7.8
					l28,16.2c9.2,5.3,20.7-1.3,20.7-11.9v-116.9c0-2,1.6-3.7,3.7-3.7h13c2,0,3.7,1.6,3.7,3.7v119.3c0,12.7-7.6,24.1-19.2,29.1l0,0
					c-9.1,3.9-19.6,3.3-28.2-1.7l-39.5-22.8c-3.3-1.9-5.3-5.4-5.3-9.2V1721c0-3.8,2-7.3,5.3-9.2l112.9-65.2c3.3-1.9,7.3-1.9,10.6,0
					l112.9,65.2C6400,1713.7,6402,1717.2,6402,1721z"/>
				<path class="st25" d="M6358.1,1823.5c-9.3,17.2-32.1,20.4-49.7,20.4c-50.1,0-53.6-28.4-53.4-37.8c0-1.7,1.4-3,3.1-3h13.8
					c1.5,0,2.8,1.1,3,2.6c2.6,15,10,20.4,34.2,20.4c25.6,0,32.1-7.1,32.1-16.1s-6.8-13.6-40.7-15.8s-39.6-21.5-39.6-21.5
					s-11.3-41.9,45.3-41.9c46.6,0,51.7,26.1,52,35.3c0.1,1.7-1.3,3.2-3.1,3.2h-13.5c-1.4,0-2.6-1-3-2.3c-0.5-2-1.2-4.6-1.4-5
					c-0.8-1.9-2-3.7-3.4-5.3c-2.1-2.4-4.9-4.4-7.9-5.6c-9.9-4.1-23.6-4.4-33.7-1.2c-5.5,1.8-12.1,6.1-12.1,12.6
					c0,6.8,1.1,13.6,41.9,15.8c7.8,0.4,15.7,1.7,22.8,4.9C6360.5,1790.4,6366.6,1807.9,6358.1,1823.5z"/>
			</g>
			
				<linearGradient id="SVGID_00000075133286746465979280000006996236878658752403_" gradientUnits="userSpaceOnUse" x1="6035.3794" y1="1439.8873" x2="6046.5605" y2="1611.5999">
				<stop  offset="0" style="stop-color:#53944E"/>
				<stop  offset="0.1352" style="stop-color:#54974D"/>
				<stop  offset="0.996" style="stop-color:#58A945"/>
			</linearGradient>
			<path style="fill:url(#SVGID_00000075133286746465979280000006996236878658752403_);" d="M6030.5,1451.3l-9.4,5.4
				c-3.2,1.9-5.2,5.3-5.2,9v127.7c0,3.7,2,7.2,5.2,9l4.1,2.4l45.3-78.4L6030.5,1451.3z"/>
			
				<linearGradient id="SVGID_00000088825287900603568840000010130475721112201113_" gradientUnits="userSpaceOnUse" x1="6259.9819" y1="1444.9515" x2="6223.2432" y2="1597.7622">
				<stop  offset="0" style="stop-color:#3C873A"/>
				<stop  offset="7.553367e-02" style="stop-color:#3E883C"/>
				<stop  offset="0.7648" style="stop-color:#50924B"/>
			</linearGradient>
			<path style="fill:url(#SVGID_00000088825287900603568840000010130475721112201113_);" d="M6252.7,1456.7l-5.3-3.1l-40.2,69.7
				l42.9,80.6l2.7-1.5c3.2-1.9,5.2-5.3,5.2-9v-127.7C6257.9,1462,6255.9,1458.6,6252.7,1456.7z"/>
			
				<linearGradient id="SVGID_00000050646523833960034710000017560054268878367667_" gradientUnits="userSpaceOnUse" x1="6133.0327" y1="1374.7454" x2="6246.4424" y2="1511.5823">
				<stop  offset="0.3642" style="stop-color:#639A57"/>
				<stop  offset="1" style="stop-color:#649C58"/>
			</linearGradient>
			<path style="fill:url(#SVGID_00000050646523833960034710000017560054268878367667_);" d="M6146.3,1395.2l-4.1-2.4
				c-1.6-0.9-3.3-1.4-5.1-1.4l5.5,10.3l64.7,121.6l40.2-69.7L6146.3,1395.2z"/>
			<path class="st30" d="M6135.2,1648.1l-64.7-121.6l-45.3,78.4l101.2,58.4l5.3,3.1c3.2,1.9,7.2,1.9,10.4,0l2.1-1.2L6135.2,1648.1z"
				/>
			
				<linearGradient id="SVGID_00000135650364302611438060000006651093167907893162_" gradientUnits="userSpaceOnUse" x1="6039.9136" y1="1430.9104" x2="6254.7529" y2="1638.5616">
				<stop  offset="0" style="stop-color:#6BC045"/>
				<stop  offset="0.192" style="stop-color:#6EB750"/>
				<stop  offset="0.5567" style="stop-color:#73AA62"/>
				<stop  offset="0.5648" style="stop-color:#71A961"/>
				<stop  offset="0.7397" style="stop-color:#54964C"/>
				<stop  offset="0.8909" style="stop-color:#428B3F"/>
				<stop  offset="1" style="stop-color:#3C873A"/>
			</linearGradient>
			<path style="fill:url(#SVGID_00000135650364302611438060000006651093167907893162_);" d="M6207.2,1523.4l-64.7-121.6l-5.5-10.3
				c-1.8,0-3.7,0.4-5.3,1.4l-101.2,58.4l40,75.2l64.7,121.6l9.1,17l105.8-61.1L6207.2,1523.4z"/>
		</g>
		<g>
			<g>
				<rect x="4748.4" y="1334" width="76.2" height="485"/>
				<g>
					<rect x="4906.9" y="1334" width="76.2" height="76.2"/>
					<rect x="4906.9" y="1477.9" width="76.2" height="341.1"/>
				</g>
				<path d="M5300.6,1478.8c-13.3-5.8-28.8-9.4-46.6-9.4c-71.5,0-104,39.9-113.7,55c-2.3,3.6-3.3,5.7-3.3,5.7v-52.3h-71.1V1819h74.4
					v-192.5c0-20.2,5.6-40.1,16.8-57c12.3-18.6,33-36.5,67-36.5c36.5,0,55.7,17,65.8,33.5c7.2,11.8,10.7,25.4,10.7,39.2V1819h73.2
					c0-71.6-0.5-143.2,0.1-214.7c0.2-26.1-2.5-46.8-15.1-69.8C5345.6,1510.5,5325.9,1489.9,5300.6,1478.8z"/>
				<path d="M4690.3,1540.8v-62.9h-78.6V1392h-75v65.7c0,11.2-9,20.2-20.2,20.2h-42.7v62.9h62.9v190.5c0,47.1,38.2,85.3,85.3,85.3
					h65.9v-62.9h-44.4c-17.6,0-31.8-14.3-31.8-31.8v-181H4690.3z"/>
				<path d="M4279.7,1469.5c-110.6,0-177.2,79.9-177.2,178.4s66.6,178.4,177.2,178.4c110.6,0,177.2-79.9,177.2-178.4
					S4390.3,1469.5,4279.7,1469.5z M4279.7,1759.8c-62.3,0-99.8-50.1-99.8-111.9s37.5-111.9,99.8-111.9s99.8,50.1,99.8,111.9
					S4342,1759.8,4279.7,1759.8z"/>
				<polygon points="4120.4,1819 4023,1819 3817,1592.2 3817,1819 3740.8,1819 3740.8,1352.1 3817,1352.1 3817,1567.2 
					4021.9,1352.1 4115.2,1352.1 3901.1,1577 				"/>
			</g>
			
				<linearGradient id="SVGID_00000011008013131673404180000009478246857524447934_" gradientUnits="userSpaceOnUse" x1="3037.7966" y1="1872.5011" x2="3589.3757" y2="1290.1844">
				<stop  offset="0" style="stop-color:#8051FF"/>
				<stop  offset="0.1668" style="stop-color:#8F42F9"/>
				<stop  offset="0.4569" style="stop-color:#B220EB"/>
				<stop  offset="0.5283" style="stop-color:#B522E2"/>
				<stop  offset="0.6471" style="stop-color:#BE29C8"/>
				<stop  offset="0.7985" style="stop-color:#CD339F"/>
				<stop  offset="0.9751" style="stop-color:#E14166"/>
				<stop  offset="1" style="stop-color:#E4435D"/>
			</linearGradient>
			<polygon style="fill:url(#SVGID_00000011008013131673404180000009478246857524447934_);" points="3073.1,1819 3546.1,1819 
				3304.1,1583.2 3546.1,1352.1 3073.1,1352.1 			"/>
		</g>
	</g>
</g>
</svg>
