<?xml version="1.0" encoding="iso-8859-1"?>
<!-- Generator: Adobe Illustrator 26.0.3, SVG Export Plug-In . SVG Version: 6.00 Build 0)  -->
<!DOCTYPE svg PUBLIC "-//W3C//DTD SVG 1.1//EN" "http://www.w3.org/Graphics/SVG/1.1/DTD/svg11.dtd" [
	<!ENTITY ns_extend "http://ns.adobe.com/Extensibility/1.0/">
	<!ENTITY ns_ai "http://ns.adobe.com/AdobeIllustrator/10.0/">
	<!ENTITY ns_graphs "http://ns.adobe.com/Graphs/1.0/">
	<!ENTITY ns_vars "http://ns.adobe.com/Variables/1.0/">
	<!ENTITY ns_imrep "http://ns.adobe.com/ImageReplacement/1.0/">
	<!ENTITY ns_sfw "http://ns.adobe.com/SaveForWeb/1.0/">
	<!ENTITY ns_custom "http://ns.adobe.com/GenericCustomNamespace/1.0/">
	<!ENTITY ns_adobe_xpath "http://ns.adobe.com/XPath/1.0/">
]>
<svg version="1.1" id="Layer_1" xmlns:x="&ns_extend;" xmlns:i="&ns_ai;" xmlns:graph="&ns_graphs;"
	 xmlns="http://www.w3.org/2000/svg" xmlns:xlink="http://www.w3.org/1999/xlink" x="0px" y="0px" viewBox="0 0 1920 1080"
	 style="enable-background:new 0 0 1920 1080;" xml:space="preserve">
<style type="text/css">
	.st0{fill:#539E43;}
	.st1{fill:#333333;}
	.st2{fill:url(#SVGID_1_);}
	.st3{fill:url(#SVGID_00000037693329708007467350000005510513152599325060_);}
	.st4{fill:url(#SVGID_00000072992070578187513010000002502838013881186997_);}
	.st5{fill:#3C873A;}
	.st6{fill:url(#SVGID_00000151532257531889375960000010651725881161208234_);}
	.st7{fill:url(#SVGID_00000074438342341005394200000010168077433622541986_);}
	.st8{fill:url(#SVGID_00000031176152983364509120000014695499606714189742_);}
	.st9{fill:url(#SVGID_00000094616879333803311450000011241705572131374267_);}
	.st10{fill:url(#SVGID_00000034811017226314215020000012602115607509296263_);}
</style>
<metadata>
	<sfw  xmlns="&ns_sfw;">
		<slices></slices>
		<sliceSourceBounds  bottomLeftOrigin="true" height="1733.4" width="6455.7" x="394.2" y="-1927.1"></sliceSourceBounds>
	</sfw>
</metadata>
<g>
	<path d="M5962.5,1462.4V1634c0,1.6-0.8,3-2.1,3.9l0,0c-1.4,0.9-3.2,1-4.7,0.1l-69-37.8c-3.7-2-6-5.9-6-10.1V1507
		c0-2.9-1.6-5.5-4.2-6.8l-32.5-16.5c-2.2-1.1-4.8-1.1-6.9,0l-32.5,16.5c-2.6,1.3-4.2,3.9-4.2,6.8v86.3c0,4.2-2.3,8.1-6,10.1
		l-66.4,36.4c-1.5,0.8-3.3,0.7-4.7-0.1l-2.6-1.7c-1.3-0.8-2.1-2.3-2.1-3.9v-171.6c0-3.2,1.7-6.2,4.5-7.8l113-65.3
		c2.8-1.6,6.2-1.6,9,0l113,65.3C5960.8,1456.2,5962.5,1459.2,5962.5,1462.4z"/>
	<path class="st0" d="M6752.4,1515.8v24.8c0,0.7-0.4,1.4-1,1.8l-21.5,12.4c-0.6,0.4-1.4,0.4-2,0l-21.5-12.4c-0.6-0.4-1-1-1-1.8
		v-24.8c0-0.7,0.4-1.4,1-1.8l21.5-12.4c0.6-0.4,1.4-0.4,2,0l21.5,12.4C6752,1514.4,6752.4,1515.1,6752.4,1515.8z"/>
	<path class="st1" d="M6770,1541.3v-34.8c0-1.3-0.7-2.4-1.8-3.1l-37.6-21.7c-1.1-0.6-2.4-0.6-3.5,0l-37.6,21.7
		c-1.1,0.6-1.8,1.8-1.8,3.1v43.4c0,1.3,0.7,2.4,1.8,3.1l111.4,64.8c3.3,1.9,3.3,6.7,0,8.6l-66.7,38.5c-3.2,1.9-7.2,1.9-10.4,0
		l-110.6-63.9c-3.2-1.9-5.2-5.3-5.2-9v-127.7c0-3.7,2-7.2,5.2-9l110.6-63.9c3.2-1.9,7.2-1.9,10.4,0l110.6,63.9
		c3.2,1.9,5.2,5.3,5.2,9v39.7l-72.3,41.5C6774.2,1547.5,6770,1545.1,6770,1541.3z"/>
	<path class="st0" d="M6752.4,1515.8v24.8c0,0.7-0.4,1.4-1,1.8l-21.5,12.4c-0.6,0.4-1.4,0.4-2,0l-21.5-12.4c-0.6-0.4-1-1-1-1.8
		v-24.8c0-0.7,0.4-1.4,1-1.8l21.5-12.4c0.6-0.4,1.4-0.4,2,0l21.5,12.4C6752,1514.4,6752.4,1515.1,6752.4,1515.8z"/>
	<path class="st0" d="M6752.4,1515.8v24.8c0,0.7-0.4,1.4-1,1.8l-21.5,12.4c-0.6,0.4-1.4,0.4-2,0l-21.5-12.4c-0.6-0.4-1-1-1-1.8
		v-24.8c0-0.7,0.4-1.4,1-1.8l21.5-12.4c0.6-0.4,1.4-0.4,2,0l21.5,12.4C6752,1514.4,6752.4,1515.1,6752.4,1515.8z"/>
	<g>
		<path class="st1" d="M6472.4,1240.7v172l-34.5-19.9c-3.2-1.9-7.2-1.9-10.4,0l-110.6,63.9c-3.2,1.9-5.2,5.3-5.2,9v127.7
			c0,3.7,2,7.2,5.2,9l110.6,63.9c3.2,1.9,7.2,1.9,10.4,0l110.6-63.9c3.2-1.9,5.2-5.3,5.2-9l0.2-313.1c0-4.4-2.4-8.5-6.3-10.7
			l-63.9-35.6C6478.6,1231.3,6472.4,1235,6472.4,1240.7z M6472.6,1550.7c0,1.2-0.7,2.4-1.7,3l-36.5,21.1c-1.1,0.6-2.4,0.6-3.4,0
			l-36.5-21.1c-1.1-0.6-1.7-1.8-1.7-3v-42.2c0-1.2,0.7-2.4,1.7-3l36.5-21.1c1.1-0.6,2.4-0.6,3.4,0l36.5,21.1c1.1,0.6,1.7,1.7,1.7,3
			V1550.7z"/>
	</g>
	<g>
		<path class="st0" d="M6341.1,1810c0-9.1-6.8-13.6-40.7-15.8s-39.6-21.5-39.6-21.5s-11.3-41.9,45.3-41.9c46.6,0,51.7,26.1,52,35.3
			c0.1,1.7-1.3,3.2-3.1,3.2h-13.5c-1.4,0-2.6-1-3-2.3c-0.5-2-1.2-4.6-1.4-5c-0.8-1.9-2-3.7-3.4-5.3c-2.1-2.4-4.9-4.4-7.9-5.6
			c-9.9-4.1-23.6-4.4-33.7-1.2c-5.5,1.8-12.1,6.1-12.1,12.6c0,6.8,1.1,13.6,41.9,15.8c7.8,0.4,15.7,1.7,22.8,4.9
			c15.7,7.1,21.9,24.6,13.3,40.3c-9.3,17.2-32.1,20.4-49.7,20.4c-50.1,0-53.6-28.4-53.4-37.8c0-1.7,1.4-3,3.1-3h13.8
			c1.5,0,2.8,1.1,3,2.6c2.6,15,10,20.4,34.2,20.4C6334.6,1826.1,6341.1,1819,6341.1,1810z"/>
		<path class="st0" d="M6358.1,1823.5c-9.3,17.2-32.1,20.4-49.7,20.4c-50.1,0-53.6-28.4-53.4-37.8c0-1.7,1.4-3,3.1-3h13.8
			c1.5,0,2.8,1.1,3,2.6c2.6,15,10,20.4,34.2,20.4c25.6,0,32.1-7.1,32.1-16.1s-6.8-13.6-40.7-15.8s-39.6-21.5-39.6-21.5
			s-11.3-41.9,45.3-41.9c46.6,0,51.7,26.1,52,35.3c0.1,1.7-1.3,3.2-3.1,3.2h-13.5c-1.4,0-2.6-1-3-2.3c-0.5-2-1.2-4.6-1.4-5
			c-0.8-1.9-2-3.7-3.4-5.3c-2.1-2.4-4.9-4.4-7.9-5.6c-9.9-4.1-23.6-4.4-33.7-1.2c-5.5,1.8-12.1,6.1-12.1,12.6
			c0,6.8,1.1,13.6,41.9,15.8c7.8,0.4,15.7,1.7,22.8,4.9C6360.5,1790.4,6366.6,1807.9,6358.1,1823.5z"/>
		<path class="st0" d="M6402,1721v130.3c0,3.8-2,7.3-5.3,9.2l-112.9,65.2c-3.3,1.9-7.3,1.9-10.6,0l-26-15l-17.1-9.8
			c-1.7-1-1.5-3.6,0.4-4.2l17.3-6.2c0.6-0.2,1.4-0.2,2,0.2l24.2,14c2.8,1.6,6.2,1.6,9,0l95.8-55.3c2.8-1.6,4.5-4.6,4.5-7.8v-110.7
			c0-3.2-1.7-6.2-4.5-7.8l-95.8-55.3c-2.8-1.6-6.2-1.6-9,0l-95.8,55.3c-2.8,1.6-4.5,4.6-4.5,7.8v110.7c0,3.2,1.7,6.2,4.5,7.8
			l28,16.2c9.2,5.3,20.7-1.3,20.7-11.9v-116.9c0-2,1.6-3.7,3.7-3.7h13c2,0,3.7,1.6,3.7,3.7v119.3c0,12.7-7.6,24.1-19.2,29.1l0,0
			c-9.1,3.9-19.6,3.3-28.2-1.7l-39.5-22.8c-3.3-1.9-5.3-5.4-5.3-9.2V1721c0-3.8,2-7.3,5.3-9.2l112.9-65.2c3.3-1.9,7.3-1.9,10.6,0
			l112.9,65.2C6400,1713.7,6402,1717.2,6402,1721z"/>
		<path class="st0" d="M6358.1,1823.5c-9.3,17.2-32.1,20.4-49.7,20.4c-50.1,0-53.6-28.4-53.4-37.8c0-1.7,1.4-3,3.1-3h13.8
			c1.5,0,2.8,1.1,3,2.6c2.6,15,10,20.4,34.2,20.4c25.6,0,32.1-7.1,32.1-16.1s-6.8-13.6-40.7-15.8s-39.6-21.5-39.6-21.5
			s-11.3-41.9,45.3-41.9c46.6,0,51.7,26.1,52,35.3c0.1,1.7-1.3,3.2-3.1,3.2h-13.5c-1.4,0-2.6-1-3-2.3c-0.5-2-1.2-4.6-1.4-5
			c-0.8-1.9-2-3.7-3.4-5.3c-2.1-2.4-4.9-4.4-7.9-5.6c-9.9-4.1-23.6-4.4-33.7-1.2c-5.5,1.8-12.1,6.1-12.1,12.6
			c0,6.8,1.1,13.6,41.9,15.8c7.8,0.4,15.7,1.7,22.8,4.9C6360.5,1790.4,6366.6,1807.9,6358.1,1823.5z"/>
	</g>
	<linearGradient id="SVGID_1_" gradientUnits="userSpaceOnUse" x1="6035.3794" y1="1439.8873" x2="6046.5605" y2="1611.5999">
		<stop  offset="0" style="stop-color:#53944E"/>
		<stop  offset="0.1352" style="stop-color:#54974D"/>
		<stop  offset="0.996" style="stop-color:#58A945"/>
	</linearGradient>
	<path class="st2" d="M6030.5,1451.3l-9.4,5.4c-3.2,1.9-5.2,5.3-5.2,9v127.7c0,3.7,2,7.2,5.2,9l4.1,2.4l45.3-78.4L6030.5,1451.3z"/>
	
		<linearGradient id="SVGID_00000100379352252524498430000005376495748395918258_" gradientUnits="userSpaceOnUse" x1="6259.9819" y1="1444.9515" x2="6223.2432" y2="1597.7622">
		<stop  offset="0" style="stop-color:#3C873A"/>
		<stop  offset="7.553367e-02" style="stop-color:#3E883C"/>
		<stop  offset="0.7648" style="stop-color:#50924B"/>
	</linearGradient>
	<path style="fill:url(#SVGID_00000100379352252524498430000005376495748395918258_);" d="M6252.7,1456.7l-5.3-3.1l-40.2,69.7
		l42.9,80.6l2.7-1.5c3.2-1.9,5.2-5.3,5.2-9v-127.7C6257.9,1462,6255.9,1458.6,6252.7,1456.7z"/>
	
		<linearGradient id="SVGID_00000105384290245536065830000013351905491000356264_" gradientUnits="userSpaceOnUse" x1="6133.0327" y1="1374.7454" x2="6246.4424" y2="1511.5823">
		<stop  offset="0.3642" style="stop-color:#639A57"/>
		<stop  offset="1" style="stop-color:#649C58"/>
	</linearGradient>
	<path style="fill:url(#SVGID_00000105384290245536065830000013351905491000356264_);" d="M6146.3,1395.2l-4.1-2.4
		c-1.6-0.9-3.3-1.4-5.1-1.4l5.5,10.3l64.7,121.6l40.2-69.7L6146.3,1395.2z"/>
	<path class="st5" d="M6135.2,1648.1l-64.7-121.6l-45.3,78.4l101.2,58.4l5.3,3.1c3.2,1.9,7.2,1.9,10.4,0l2.1-1.2L6135.2,1648.1z"/>
	
		<linearGradient id="SVGID_00000114774205758610868650000017238209123976204206_" gradientUnits="userSpaceOnUse" x1="6039.9136" y1="1430.9104" x2="6254.7529" y2="1638.5616">
		<stop  offset="0" style="stop-color:#6BC045"/>
		<stop  offset="0.192" style="stop-color:#6EB750"/>
		<stop  offset="0.5567" style="stop-color:#73AA62"/>
		<stop  offset="0.5648" style="stop-color:#71A961"/>
		<stop  offset="0.7397" style="stop-color:#54964C"/>
		<stop  offset="0.8909" style="stop-color:#428B3F"/>
		<stop  offset="1" style="stop-color:#3C873A"/>
	</linearGradient>
	<path style="fill:url(#SVGID_00000114774205758610868650000017238209123976204206_);" d="M6207.2,1523.4l-64.7-121.6l-5.5-10.3
		c-1.8,0-3.7,0.4-5.3,1.4l-101.2,58.4l40,75.2l64.7,121.6l9.1,17l105.8-61.1L6207.2,1523.4z"/>
</g>
<g>
	<path d="M638.1,423v171.6c0,1.6-0.8,3-2.1,3.9l0,0c-1.4,0.9-3.2,1-4.7,0.1l-69-37.8c-3.7-2-6-5.9-6-10.1v-83.2
		c0-2.9-1.6-5.5-4.2-6.8l-32.5-16.5c-2.2-1.1-4.8-1.1-6.9,0l-32.5,16.5c-2.6,1.3-4.2,3.9-4.2,6.8v86.3c0,4.2-2.3,8.1-6,10.1
		l-66.4,36.4c-1.5,0.8-3.3,0.7-4.7-0.1l-2.6-1.7c-1.3-0.8-2.1-2.3-2.1-3.9V423c0-3.2,1.7-6.2,4.5-7.8l113-65.3c2.8-1.6,6.2-1.6,9,0
		l113,65.3C636.4,416.8,638.1,419.8,638.1,423z"/>
	<path class="st0" d="M1428,476.3v24.8c0,0.7-0.4,1.4-1,1.8l-21.5,12.4c-0.6,0.4-1.4,0.4-2,0l-21.5-12.4c-0.6-0.4-1-1-1-1.8v-24.8
		c0-0.7,0.4-1.4,1-1.8l21.5-12.4c0.6-0.4,1.4-0.4,2,0l21.5,12.4C1427.7,474.9,1428,475.6,1428,476.3z"/>
	<path class="st1" d="M1445.7,501.8V467c0-1.3-0.7-2.4-1.8-3.1l-37.6-21.7c-1.1-0.6-2.4-0.6-3.5,0l-37.6,21.7
		c-1.1,0.6-1.8,1.8-1.8,3.1v43.4c0,1.3,0.7,2.4,1.8,3.1l111.4,64.8c3.3,1.9,3.3,6.7,0,8.6l-66.7,38.5c-3.2,1.9-7.2,1.9-10.4,0
		l-110.6-63.9c-3.2-1.9-5.2-5.3-5.2-9V424.9c0-3.7,2-7.2,5.2-9l110.6-63.9c3.2-1.9,7.2-1.9,10.4,0l110.6,63.9c3.2,1.9,5.2,5.3,5.2,9
		v39.7l-72.3,41.5C1449.8,508.1,1445.7,505.7,1445.7,501.8z"/>
	<path class="st0" d="M1428,476.3v24.8c0,0.7-0.4,1.4-1,1.8l-21.5,12.4c-0.6,0.4-1.4,0.4-2,0l-21.5-12.4c-0.6-0.4-1-1-1-1.8v-24.8
		c0-0.7,0.4-1.4,1-1.8l21.5-12.4c0.6-0.4,1.4-0.4,2,0l21.5,12.4C1427.7,474.9,1428,475.6,1428,476.3z"/>
	<path class="st0" d="M1428,476.3v24.8c0,0.7-0.4,1.4-1,1.8l-21.5,12.4c-0.6,0.4-1.4,0.4-2,0l-21.5-12.4c-0.6-0.4-1-1-1-1.8v-24.8
		c0-0.7,0.4-1.4,1-1.8l21.5-12.4c0.6-0.4,1.4-0.4,2,0l21.5,12.4C1427.7,474.9,1428,475.6,1428,476.3z"/>
	<g>
		<path class="st1" d="M1148.1,201.3v172l-34.5-19.9c-3.2-1.9-7.2-1.9-10.4,0l-110.6,63.9c-3.2,1.9-5.2,5.3-5.2,9V554
			c0,3.7,2,7.2,5.2,9l110.6,63.9c3.2,1.9,7.2,1.9,10.4,0l110.6-63.9c3.2-1.9,5.2-5.3,5.2-9l0.2-313.1c0-4.4-2.4-8.5-6.3-10.7
			l-63.9-35.6C1154.3,191.9,1148.1,195.5,1148.1,201.3z M1148.3,511.2c0,1.2-0.7,2.4-1.7,3l-36.5,21.1c-1.1,0.6-2.4,0.6-3.4,0
			l-36.5-21.1c-1.1-0.6-1.7-1.8-1.7-3V469c0-1.2,0.7-2.4,1.7-3l36.5-21.1c1.1-0.6,2.4-0.6,3.4,0l36.5,21.1c1.1,0.6,1.7,1.7,1.7,3
			V511.2z"/>
	</g>
	<g>
		<path class="st0" d="M1016.8,770.5c0-9.1-6.8-13.6-40.7-15.8c-33.9-2.3-39.6-21.5-39.6-21.5s-11.3-41.9,45.3-41.9
			c46.6,0,51.7,26.1,52,35.3c0.1,1.7-1.3,3.2-3.1,3.2h-13.5c-1.4,0-2.6-1-3-2.3c-0.5-2-1.2-4.6-1.4-5c-0.8-1.9-2-3.7-3.4-5.3
			c-2.1-2.4-4.9-4.4-7.9-5.6c-9.9-4.1-23.6-4.4-33.7-1.2c-5.5,1.8-12.1,6.1-12.1,12.6c0,6.8,1.1,13.6,41.9,15.8
			c7.8,0.4,15.7,1.7,22.8,4.9c15.7,7.1,21.9,24.6,13.3,40.3c-9.3,17.2-32.1,20.4-49.7,20.4c-50.1,0-53.6-28.4-53.4-37.8
			c0-1.7,1.4-3,3.1-3h13.8c1.5,0,2.8,1.1,3,2.6c2.6,15,10,20.4,34.2,20.4C1010.2,786.6,1016.8,779.6,1016.8,770.5z"/>
		<path class="st0" d="M1033.7,784.1c-9.3,17.2-32.1,20.4-49.7,20.4c-50.1,0-53.6-28.4-53.4-37.8c0-1.7,1.4-3,3.1-3h13.8
			c1.5,0,2.8,1.1,3,2.6c2.6,15,10,20.4,34.2,20.4c25.6,0,32.1-7.1,32.1-16.1s-6.8-13.6-40.7-15.8c-33.9-2.3-39.6-21.5-39.6-21.5
			s-11.3-41.9,45.3-41.9c46.6,0,51.7,26.1,52,35.3c0.1,1.7-1.3,3.2-3.1,3.2h-13.5c-1.4,0-2.6-1-3-2.3c-0.5-2-1.2-4.6-1.4-5
			c-0.8-1.9-2-3.7-3.4-5.3c-2.1-2.4-4.9-4.4-7.9-5.6c-9.9-4.1-23.6-4.4-33.7-1.2c-5.5,1.8-12.1,6.1-12.1,12.6
			c0,6.8,1.1,13.6,41.9,15.8c7.8,0.4,15.7,1.7,22.8,4.9C1036.1,750.9,1042.2,768.4,1033.7,784.1z"/>
		<path class="st0" d="M1077.7,681.6v130.3c0,3.8-2,7.3-5.3,9.2l-112.9,65.2c-3.3,1.9-7.3,1.9-10.6,0l-26-15l-17.1-9.8
			c-1.7-1-1.5-3.6,0.4-4.2l17.3-6.2c0.6-0.2,1.4-0.2,2,0.2l24.2,14c2.8,1.6,6.2,1.6,9,0l95.8-55.3c2.8-1.6,4.5-4.6,4.5-7.8V691.4
			c0-3.2-1.7-6.2-4.5-7.8l-95.8-55.3c-2.8-1.6-6.2-1.6-9,0l-95.8,55.3c-2.8,1.6-4.5,4.6-4.5,7.8v110.7c0,3.2,1.7,6.2,4.5,7.8
			l28,16.2c9.2,5.3,20.7-1.3,20.7-11.9V697.2c0-2,1.6-3.7,3.7-3.7h13c2,0,3.7,1.6,3.7,3.7v119.3c0,12.7-7.6,24.1-19.2,29.1h0
			c-9.1,3.9-19.6,3.3-28.2-1.7L836,821.1c-3.3-1.9-5.3-5.4-5.3-9.2V681.6c0-3.8,2-7.3,5.3-9.2l112.9-65.2c3.3-1.9,7.3-1.9,10.6,0
			l112.9,65.2C1075.6,674.3,1077.7,677.8,1077.7,681.6z"/>
		<path class="st0" d="M1033.7,784.1c-9.3,17.2-32.1,20.4-49.7,20.4c-50.1,0-53.6-28.4-53.4-37.8c0-1.7,1.4-3,3.1-3h13.8
			c1.5,0,2.8,1.1,3,2.6c2.6,15,10,20.4,34.2,20.4c25.6,0,32.1-7.1,32.1-16.1s-6.8-13.6-40.7-15.8c-33.9-2.3-39.6-21.5-39.6-21.5
			s-11.3-41.9,45.3-41.9c46.6,0,51.7,26.1,52,35.3c0.1,1.7-1.3,3.2-3.1,3.2h-13.5c-1.4,0-2.6-1-3-2.3c-0.5-2-1.2-4.6-1.4-5
			c-0.8-1.9-2-3.7-3.4-5.3c-2.1-2.4-4.9-4.4-7.9-5.6c-9.9-4.1-23.6-4.4-33.7-1.2c-5.5,1.8-12.1,6.1-12.1,12.6
			c0,6.8,1.1,13.6,41.9,15.8c7.8,0.4,15.7,1.7,22.8,4.9C1036.1,750.9,1042.2,768.4,1033.7,784.1z"/>
	</g>
	
		<linearGradient id="SVGID_00000173128668050070408500000008694177173551079831_" gradientUnits="userSpaceOnUse" x1="711.0433" y1="400.4439" x2="722.2244" y2="572.1564">
		<stop  offset="0" style="stop-color:#53944E"/>
		<stop  offset="0.1352" style="stop-color:#54974D"/>
		<stop  offset="0.996" style="stop-color:#58A945"/>
	</linearGradient>
	<path style="fill:url(#SVGID_00000173128668050070408500000008694177173551079831_);" d="M706.2,411.8l-9.4,5.4
		c-3.2,1.9-5.2,5.3-5.2,9V554c0,3.7,2,7.2,5.2,9l4.1,2.4l45.3-78.4L706.2,411.8z"/>
	
		<linearGradient id="SVGID_00000124161855432321138430000016066791390145706889_" gradientUnits="userSpaceOnUse" x1="935.6458" y1="405.5082" x2="898.9073" y2="558.3187">
		<stop  offset="0" style="stop-color:#3C873A"/>
		<stop  offset="7.553367e-02" style="stop-color:#3E883C"/>
		<stop  offset="0.7648" style="stop-color:#50924B"/>
	</linearGradient>
	<path style="fill:url(#SVGID_00000124161855432321138430000016066791390145706889_);" d="M928.4,417.3l-5.3-3.1l-40.2,69.7
		l42.9,80.6l2.7-1.5c3.2-1.9,5.2-5.3,5.2-9V426.3C933.6,422.6,931.6,419.1,928.4,417.3z"/>
	
		<linearGradient id="SVGID_00000035519373754190086400000015488627470830195082_" gradientUnits="userSpaceOnUse" x1="808.6967" y1="335.302" x2="922.1062" y2="472.1389">
		<stop  offset="0.3642" style="stop-color:#639A57"/>
		<stop  offset="1" style="stop-color:#649C58"/>
	</linearGradient>
	<path style="fill:url(#SVGID_00000035519373754190086400000015488627470830195082_);" d="M821.9,355.8l-4.1-2.4
		c-1.6-0.9-3.3-1.4-5.1-1.4l5.5,10.3l64.7,121.6l40.2-69.7L821.9,355.8z"/>
	<path class="st5" d="M810.9,608.6L746.2,487l-45.3,78.4l101.2,58.4l5.3,3.1c3.2,1.9,7.2,1.9,10.4,0l2.1-1.2L810.9,608.6z"/>
	
		<linearGradient id="SVGID_00000132788195574070594170000011136523423735407508_" gradientUnits="userSpaceOnUse" x1="715.5778" y1="391.467" x2="930.4169" y2="599.1182">
		<stop  offset="0" style="stop-color:#6BC045"/>
		<stop  offset="0.192" style="stop-color:#6EB750"/>
		<stop  offset="0.5567" style="stop-color:#73AA62"/>
		<stop  offset="0.5648" style="stop-color:#71A961"/>
		<stop  offset="0.7397" style="stop-color:#54964C"/>
		<stop  offset="0.8909" style="stop-color:#428B3F"/>
		<stop  offset="1" style="stop-color:#3C873A"/>
	</linearGradient>
	<path style="fill:url(#SVGID_00000132788195574070594170000011136523423735407508_);" d="M882.9,483.9l-64.7-121.6l-5.5-10.3
		c-1.8,0-3.7,0.4-5.3,1.4l-101.2,58.4l40,75.2l64.7,121.6l9.1,17l105.8-61.1L882.9,483.9z"/>
</g>
</svg>
