<?xml version="1.0" encoding="iso-8859-1"?>
<!-- Generator: Adobe Illustrator 26.0.3, SVG Export Plug-In . SVG Version: 6.00 Build 0)  -->
<!DOCTYPE svg PUBLIC "-//W3C//DTD SVG 1.1//EN" "http://www.w3.org/Graphics/SVG/1.1/DTD/svg11.dtd" [
	<!ENTITY ns_extend "http://ns.adobe.com/Extensibility/1.0/">
	<!ENTITY ns_ai "http://ns.adobe.com/AdobeIllustrator/10.0/">
	<!ENTITY ns_graphs "http://ns.adobe.com/Graphs/1.0/">
	<!ENTITY ns_vars "http://ns.adobe.com/Variables/1.0/">
	<!ENTITY ns_imrep "http://ns.adobe.com/ImageReplacement/1.0/">
	<!ENTITY ns_sfw "http://ns.adobe.com/SaveForWeb/1.0/">
	<!ENTITY ns_custom "http://ns.adobe.com/GenericCustomNamespace/1.0/">
	<!ENTITY ns_adobe_xpath "http://ns.adobe.com/XPath/1.0/">
]>
<svg version="1.1" id="Layer_1" xmlns:x="&ns_extend;" xmlns:i="&ns_ai;" xmlns:graph="&ns_graphs;"
	 xmlns="http://www.w3.org/2000/svg" xmlns:xlink="http://www.w3.org/1999/xlink" x="0px" y="0px" viewBox="0 0 1920 1080"
	 style="enable-background:new 0 0 1920 1080;" xml:space="preserve">
<style type="text/css">
	.st0{fill:#E8F2FB;}
	.st1{fill:#A7BAD6;}
	.st2{fill:#DEDEDE;}
	.st3{fill:#8EA1D9;}
	.st4{fill:#5B78C7;}
	.st5{fill:#B3C3F0;}
	.st6{fill:#CADBEB;}
	.st7{fill:#FFF899;}
	.st8{fill:#FAB77D;}
	.st9{fill:#5380CF;}
	.st10{fill:#3D5F99;}
	.st11{fill:#ADBDEE;}
	.st12{fill:#DCE4FF;}
	.st13{fill:#4275CF;}
	.st14{fill:#314BA2;}
	.st15{fill:#B8AD70;}
	.st16{fill:#FAA45A;}
	.st17{fill:#2B1710;}
	.st18{fill:#FF8762;}
	.st19{fill:#E0B3A8;}
	.st20{fill:#F7D5CD;}
	.st21{fill:#693E2F;}
	.st22{fill:#223263;}
	.st23{fill:#FAE27D;}
	.st24{fill:#D9D9D9;}
	.st25{fill:#BFBFBF;}
	.st26{fill:#FF7E57;}
	.st27{fill:#FFFFFF;}
	.st28{fill:#7D2727;}
	.st29{fill:#1B284F;}
	.st30{fill:#D4D4D4;}
</style>
<metadata>
	<sfw  xmlns="&ns_sfw;">
		<slices></slices>
		<sliceSourceBounds  bottomLeftOrigin="true" height="681.4" width="1082.9" x="433.7" y="-880.9"></sliceSourceBounds>
	</sfw>
</metadata>
<g>
	<g>
		<g>
			<path class="st0" d="M1103.5,202c-247-22.9-265,117.8-297.8,198c-12.3,30.1-33.3,52.3-54.8,68.4c-28,21-61.3,33.8-96,38.4
				c-223.2,29.7-186.8,330.9-102.8,356.2h890C1661.4,445.7,1350.5,224.9,1103.5,202z"/>
		</g>
		<g>
			<path class="st0" d="M676.5,269.1c-128.7,0.8-163,127-93.3,198C679.7,565.2,944.8,267.4,676.5,269.1z"/>
		</g>
	</g>
	<g>
		<g>
			<g>
				<path class="st1" d="M1106,239.8h-8.7c-0.1,0-0.3-0.1-0.3-0.3v-8.7c0-0.1,0.1-0.3,0.3-0.3h8.7c0.1,0,0.3,0.1,0.3,0.3v8.7
					C1106.3,239.7,1106.2,239.8,1106,239.8z M1097.6,239.3h8.1v-8.1h-8.1V239.3z"/>
			</g>
		</g>
		<g>
			<g>
				<path class="st1" d="M1106,261.1h-8.7c-0.1,0-0.3-0.1-0.3-0.3v-8.7c0-0.1,0.1-0.3,0.3-0.3h8.7c0.1,0,0.3,0.1,0.3,0.3v8.7
					C1106.3,260.9,1106.2,261.1,1106,261.1z M1097.6,260.5h8.1v-8.1h-8.1V260.5z"/>
			</g>
		</g>
		<g>
			<g>
				<path class="st1" d="M1089.9,261.1h-8.7c-0.1,0-0.3-0.1-0.3-0.3v-8.7c0-0.1,0.1-0.3,0.3-0.3h8.7c0.1,0,0.3,0.1,0.3,0.3v8.7
					C1090.2,260.9,1090.1,261.1,1089.9,261.1z M1081.5,260.5h8.1v-8.1h-8.1V260.5z"/>
			</g>
		</g>
		<g>
			<g>
				<path class="st1" d="M1122.1,261.1h-8.7c-0.1,0-0.3-0.1-0.3-0.3v-8.7c0-0.1,0.1-0.3,0.3-0.3h8.7c0.1,0,0.3,0.1,0.3,0.3v8.7
					C1122.4,260.9,1122.3,261.1,1122.1,261.1z M1113.7,260.5h8.1v-8.1h-8.1V260.5z"/>
			</g>
		</g>
		<g>
			<g>
				<path class="st1" d="M1101.6,252.4c-0.1,0-0.3-0.1-0.3-0.3v-12.6c0-0.1,0.1-0.3,0.3-0.3s0.3,0.1,0.3,0.3v12.6
					C1101.8,252.3,1101.7,252.4,1101.6,252.4z"/>
			</g>
		</g>
		<g>
			<g>
				<path class="st1" d="M1117.9,252.5c-0.1,0-0.3-0.1-0.3-0.3v-6.5h-31.8v6.4c0,0.1-0.1,0.3-0.3,0.3c-0.1,0-0.3-0.1-0.3-0.3v-6.6
					c0-0.1,0.1-0.3,0.3-0.3h32.3c0.1,0,0.3,0.1,0.3,0.3v6.8C1118.1,252.4,1118,252.5,1117.9,252.5z"/>
			</g>
		</g>
	</g>
	<g>
		<g>
			<g>
				<path class="st1" d="M811,741h-37.3c-0.1,0-0.3-0.1-0.3-0.3v-28.4c0-0.1,0.1-0.3,0.3-0.3H811c0.1,0,0.3,0.1,0.3,0.3v28.4
					C811.3,740.9,811.1,741,811,741z M773.9,740.5h36.8v-27.9h-36.8V740.5z"/>
			</g>
		</g>
		<g>
			<g>
				<path class="st1" d="M812.2,744.2h-39.7c-0.1,0-0.3-0.1-0.3-0.3v-3.2c0-0.1,0.1-0.3,0.3-0.3h39.7c0.1,0,0.3,0.1,0.3,0.3v3.2
					C812.4,744.1,812.3,744.2,812.2,744.2z M772.7,743.7h39.2V741h-39.2V743.7z"/>
			</g>
		</g>
		<g>
			<g>
				<path class="st1" d="M792.3,749.9c-1,0-1.9-0.8-1.9-1.9c0-1,0.8-1.9,1.9-1.9c1,0,1.9,0.8,1.9,1.9
					C794.2,749,793.4,749.9,792.3,749.9z M792.3,746.6c-0.8,0-1.4,0.6-1.4,1.4c0,0.8,0.6,1.4,1.4,1.4c0.8,0,1.4-0.6,1.4-1.4
					C793.7,747.2,793.1,746.6,792.3,746.6z"/>
			</g>
		</g>
		<g>
			<g>
				<path class="st1" d="M792.3,746.5C792.3,746.5,792.3,746.5,792.3,746.5c-0.1,0-0.3-0.1-0.3-0.3l0-2.2c0-0.1,0.1-0.3,0.3-0.3
					c0.1,0,0.3,0.1,0.3,0.3l0,2.2C792.6,746.4,792.5,746.5,792.3,746.5z"/>
			</g>
		</g>
		<g>
			<g>
				<path class="st1" d="M783.3,738.3h-5.5c-0.1,0-0.3-0.1-0.3-0.3v-13.4c0-0.1,0.1-0.3,0.3-0.3h5.5c0.1,0,0.3,0.1,0.3,0.3V738
					C783.5,738.2,783.4,738.3,783.3,738.3z M778,737.8h5v-12.9h-5V737.8z"/>
			</g>
		</g>
		<g>
			<g>
				<path class="st1" d="M794.1,738.3h-5.5c-0.1,0-0.3-0.1-0.3-0.3v-18.8c0-0.1,0.1-0.3,0.3-0.3h5.5c0.1,0,0.3,0.1,0.3,0.3V738
					C794.3,738.2,794.2,738.3,794.1,738.3z M788.9,737.8h5v-18.3h-5V737.8z"/>
			</g>
		</g>
		<g>
			<g>
				<path class="st1" d="M805.5,738.3H800c-0.1,0-0.3-0.1-0.3-0.3v-22.7c0-0.1,0.1-0.3,0.3-0.3h5.5c0.1,0,0.3,0.1,0.3,0.3V738
					C805.8,738.2,805.7,738.3,805.5,738.3z M800.3,737.8h5v-22.2h-5V737.8z"/>
			</g>
		</g>
	</g>
	<g>
		<g>
			<g>
				<path class="st1" d="M829.2,303.6c-6,0-10.9-4.9-10.9-10.9c0-6,4.9-10.9,10.9-10.9c0.1,0,0.1,0,0.2,0.1c0,0,0.1,0.1,0.1,0.2
					l-0.1,10.6h10.6c0.1,0,0.1,0,0.2,0.1c0,0,0.1,0.1,0.1,0.2C840.1,298.7,835.2,303.6,829.2,303.6z M828.9,282.2
					c-5.6,0.2-10.1,4.8-10.1,10.4c0,5.8,4.7,10.4,10.4,10.4c5.6,0,10.2-4.5,10.4-10h-10.6c-0.1,0-0.1,0-0.2-0.1c0,0-0.1-0.1-0.1-0.2
					L828.9,282.2z"/>
			</g>
		</g>
		<g>
			<g>
				<path class="st1" d="M841.9,291.1h-10.8c-0.1,0-0.1,0-0.2-0.1c0,0-0.1-0.1-0.1-0.2L831,280c0-0.1,0.1-0.3,0.3-0.3
					c6.1,0,11,4.9,11,10.9c0,0,0,0.1,0,0.1l0,0.1C842.2,291,842.1,291.1,841.9,291.1z M831.4,290.6h10.3
					c-0.1-5.6-4.6-10.2-10.2-10.3L831.4,290.6z"/>
			</g>
		</g>
	</g>
	<g>
		<g>
			<g>
				<path class="st1" d="M1453.9,552.4c-0.1,0-0.1,0-0.2-0.1l-4.7-5h-16.3c-1.1,0-2-0.9-2-2v-10.5c0-1.1,0.9-2,2-2h19.4
					c1.1,0,2,0.9,2,2v17.4C1454.2,552.3,1454.1,552.4,1453.9,552.4C1454,552.4,1453.9,552.4,1453.9,552.4z M1432.7,533.3
					c-0.8,0-1.5,0.7-1.5,1.5v10.5c0,0.8,0.7,1.5,1.5,1.5h16.4c0.1,0,0.1,0,0.2,0.1l4.3,4.6v-16.7c0-0.8-0.7-1.5-1.5-1.5H1432.7z"/>
			</g>
		</g>
		<g>
			<g>
				<path class="st1" d="M1436.9,541.5c-0.9,0-1.6-0.7-1.6-1.6s0.7-1.6,1.6-1.6c0.9,0,1.6,0.7,1.6,1.6S1437.8,541.5,1436.9,541.5z
					 M1436.9,538.7c-0.6,0-1.1,0.5-1.1,1.1c0,0.6,0.5,1.1,1.1,1.1c0.6,0,1.1-0.5,1.1-1.1C1438,539.2,1437.5,538.7,1436.9,538.7z"/>
			</g>
		</g>
		<g>
			<g>
				<path class="st1" d="M1442.6,541.5c-0.9,0-1.6-0.7-1.6-1.6s0.7-1.6,1.6-1.6c0.9,0,1.6,0.7,1.6,1.6S1443.5,541.5,1442.6,541.5z
					 M1442.6,538.7c-0.6,0-1.1,0.5-1.1,1.1c0,0.6,0.5,1.1,1.1,1.1c0.6,0,1.1-0.5,1.1-1.1C1443.7,539.2,1443.2,538.7,1442.6,538.7z"
					/>
			</g>
		</g>
		<g>
			<g>
				<path class="st1" d="M1448.3,541.5c-0.9,0-1.6-0.7-1.6-1.6s0.7-1.6,1.6-1.6c0.9,0,1.6,0.7,1.6,1.6S1449.2,541.5,1448.3,541.5z
					 M1448.3,538.7c-0.6,0-1.1,0.5-1.1,1.1c0,0.6,0.5,1.1,1.1,1.1s1.1-0.5,1.1-1.1C1449.4,539.2,1448.9,538.7,1448.3,538.7z"/>
			</g>
		</g>
	</g>
	<g>
		<g>
			<g>
				<path class="st1" d="M1370.9,353.2c-7.8,0-14.1-6.3-14.1-14.1c0-7.8,6.3-14.1,14.1-14.1s14.1,6.3,14.1,14.1
					C1384.9,346.9,1378.6,353.2,1370.9,353.2z M1370.9,325.6c-7.5,0-13.5,6.1-13.5,13.5c0,7.5,6.1,13.5,13.5,13.5
					c7.5,0,13.5-6.1,13.5-13.5C1384.4,331.7,1378.3,325.6,1370.9,325.6z"/>
			</g>
		</g>
		<g>
			<g>
				<path class="st1" d="M1370.9,353.2c-3.4,0-6.1-6.2-6.1-14.1c0-7.9,2.7-14.1,6.1-14.1c3.4,0,6.1,6.2,6.1,14.1
					C1376.9,347.1,1374.3,353.2,1370.9,353.2z M1370.9,325.6c-3.1,0-5.6,6.1-5.6,13.5c0,7.5,2.5,13.5,5.6,13.5s5.6-6.1,5.6-13.5
					C1376.4,331.7,1373.9,325.6,1370.9,325.6z"/>
			</g>
		</g>
		<g>
			<g>
				<path class="st1" d="M1370.9,333.3c-4.4,0-8.4-0.8-11.1-2.3c-0.1,0-0.1-0.1-0.1-0.2c0-0.1,0-0.2,0-0.2c2.7-3.5,6.8-5.5,11.2-5.5
					s8.5,2,11.2,5.5c0,0.1,0.1,0.1,0,0.2c0,0.1-0.1,0.1-0.1,0.2C1379.3,332.5,1375.2,333.3,1370.9,333.3z M1360.3,330.7
					c2.6,1.3,6.4,2.1,10.6,2.1s8-0.8,10.6-2.1c-2.6-3.2-6.4-5.1-10.6-5.1S1362.9,327.5,1360.3,330.7z"/>
			</g>
		</g>
		<g>
			<g>
				<path class="st1" d="M1370.9,353.2c-4.2,0-8.2-1.9-10.9-5.1c0-0.1-0.1-0.1-0.1-0.2s0.1-0.1,0.1-0.2c2.7-1.4,6.6-2.2,10.8-2.2
					c4.2,0,8.1,0.8,10.8,2.2c0.1,0,0.1,0.1,0.1,0.2c0,0.1,0,0.2-0.1,0.2C1379,351.4,1375.1,353.2,1370.9,353.2z M1360.6,348
					c2.6,3,6.3,4.7,10.3,4.7c4,0,7.7-1.7,10.3-4.7c-2.6-1.2-6.3-2-10.3-2C1366.9,346.1,1363.2,346.8,1360.6,348z"/>
			</g>
		</g>
		<g>
			<g>
				<path class="st1" d="M1370.9,353.2c-0.1,0-0.3-0.1-0.3-0.3v-27.6c0-0.1,0.1-0.3,0.3-0.3c0.1,0,0.3,0.1,0.3,0.3V353
					C1371.1,353.1,1371,353.2,1370.9,353.2z"/>
			</g>
		</g>
		<g>
			<g>
				<path class="st1" d="M1384.7,339.4h-27.6c-0.1,0-0.3-0.1-0.3-0.3c0-0.1,0.1-0.3,0.3-0.3h27.6c0.1,0,0.3,0.1,0.3,0.3
					C1384.9,339.3,1384.8,339.4,1384.7,339.4z"/>
			</g>
		</g>
	</g>
	<g>
		<g>
			<g>
				<path class="st1" d="M487.6,676.9h-23.7c-0.1,0-0.3-0.1-0.3-0.3v-15c0-0.1,0.1-0.3,0.3-0.3h23.7c0.1,0,0.3,0.1,0.3,0.3v15
					C487.8,676.8,487.7,676.9,487.6,676.9z M464.1,676.4h23.2v-14.5h-23.2V676.4z"/>
			</g>
		</g>
		<g>
			<g>
				<path class="st1" d="M475.7,668.8c0,0-0.1,0-0.1,0l-11.8-7c-0.1-0.1-0.1-0.2-0.1-0.3c0-0.1,0.1-0.2,0.3-0.2h23.7
					c0.1,0,0.2,0.1,0.3,0.2c0,0.1,0,0.2-0.1,0.3l-11.9,7C475.7,668.8,475.7,668.8,475.7,668.8z M464.8,661.9l10.9,6.4l11-6.4H464.8z
					"/>
			</g>
		</g>
	</g>
	<g>
		<g>
			<g>
				<path class="st1" d="M954,302h-23.5c-0.1,0-0.3-0.1-0.3-0.3v-16.5c0-0.1,0.1-0.3,0.3-0.3H954c0.1,0,0.3,0.1,0.3,0.3v16.5
					C954.3,301.9,954.1,302,954,302z M930.7,301.5h23v-16h-23V301.5z"/>
			</g>
		</g>
		<g>
			<g>
				<path class="st1" d="M954,292.6h-9.9c-0.1,0-0.3-0.1-0.3-0.3c0-0.1,0.1-0.3,0.3-0.3h9.7v-6.6h-23v6.6h9.8c0.1,0,0.3,0.1,0.3,0.3
					c0,0.1-0.1,0.3-0.3,0.3h-10.1c-0.1,0-0.3-0.1-0.3-0.3v-7.1c0-0.1,0.1-0.3,0.3-0.3H954c0.1,0,0.3,0.1,0.3,0.3v7.1
					C954.3,292.4,954.1,292.6,954,292.6z"/>
			</g>
		</g>
		<g>
			<g>
				<path class="st1" d="M943.6,295H941c-0.1,0-0.3-0.1-0.3-0.3v-4.4c0-0.1,0.1-0.3,0.3-0.3h2.6c0.1,0,0.3,0.1,0.3,0.3v4.4
					C943.9,294.9,943.7,295,943.6,295z M941.3,294.5h2.1v-3.9h-2.1V294.5z"/>
			</g>
		</g>
		<g>
			<g>
				<path class="st1" d="M936.3,285.4h-3.6c-0.1,0-0.3-0.1-0.3-0.3v-1.3c0-0.1,0.1-0.3,0.3-0.3h3.6c0.1,0,0.3,0.1,0.3,0.3v1.3
					C936.5,285.2,936.4,285.4,936.3,285.4z M932.9,284.8h3.1V284h-3.1V284.8z"/>
			</g>
		</g>
		<g>
			<g>
				<path class="st1" d="M951.8,285.4h-3.6c-0.1,0-0.3-0.1-0.3-0.3v-1.3c0-0.1,0.1-0.3,0.3-0.3h3.6c0.1,0,0.3,0.1,0.3,0.3v1.3
					C952.1,285.2,952,285.4,951.8,285.4z M948.5,284.8h3.1V284h-3.1V284.8z"/>
			</g>
		</g>
		<g>
			<g>
				<path class="st1" d="M949.1,283.4c-0.1,0-0.3-0.1-0.3-0.3v-3.2c0-0.8-0.7-1.5-1.5-1.5h-10.3c-0.8,0-1.5,0.7-1.5,1.5v3.2
					c0,0.1-0.1,0.3-0.3,0.3c-0.1,0-0.3-0.1-0.3-0.3v-3.2c0-1.1,0.9-2,2-2h10.3c1.1,0,2,0.9,2,2v3.2
					C949.4,283.3,949.2,283.4,949.1,283.4z"/>
			</g>
		</g>
	</g>
	<g>
		<g>
			<g>
				<path class="st1" d="M1488.3,676.3h-20.6c-0.1,0-0.3-0.1-0.3-0.3v-26.5c0-0.1,0.1-0.3,0.3-0.3h16.1c0.1,0,0.1,0,0.2,0.1l4.5,4.2
					c0.1,0,0.1,0.1,0.1,0.2v22.4C1488.6,676.2,1488.4,676.3,1488.3,676.3z M1468,675.8h20v-22l-4.3-4H1468V675.8z"/>
			</g>
		</g>
		<g>
			<g>
				<path class="st1" d="M1488.3,654C1488.3,654,1488.3,654,1488.3,654l-4.5-0.1c-0.1,0-0.3-0.1-0.3-0.3l-0.1-4.1
					c0-0.1,0.1-0.3,0.3-0.3c0.2,0,0.3,0.1,0.3,0.3l0,3.9l4.2,0c0.1,0,0.3,0.1,0.3,0.3C1488.6,653.9,1488.4,654,1488.3,654z"/>
			</g>
		</g>
		<g>
			<g>
				<path class="st1" d="M1477.4,653.7h-7.8c-0.1,0-0.3-0.1-0.3-0.3c0-0.1,0.1-0.3,0.3-0.3h7.8c0.1,0,0.3,0.1,0.3,0.3
					C1477.6,653.5,1477.5,653.7,1477.4,653.7z"/>
			</g>
		</g>
		<g>
			<g>
				<path class="st1" d="M1485.7,657.3h-16.1c-0.1,0-0.3-0.1-0.3-0.3s0.1-0.3,0.3-0.3h16.1c0.1,0,0.3,0.1,0.3,0.3
					S1485.8,657.3,1485.7,657.3z"/>
			</g>
		</g>
		<g>
			<g>
				<path class="st1" d="M1485.7,663h-16.1c-0.1,0-0.3-0.1-0.3-0.3c0-0.1,0.1-0.3,0.3-0.3h16.1c0.1,0,0.3,0.1,0.3,0.3
					C1485.9,662.9,1485.8,663,1485.7,663z"/>
			</g>
		</g>
		<g>
			<g>
				<path class="st1" d="M1485.7,668.7h-16.1c-0.1,0-0.3-0.1-0.3-0.3c0-0.1,0.1-0.3,0.3-0.3h16.1c0.1,0,0.3,0.1,0.3,0.3
					C1485.9,668.6,1485.8,668.7,1485.7,668.7z"/>
			</g>
		</g>
	</g>
	<g>
		<g>
			<g>
				<path class="st1" d="M875.4,820.6H872c-0.1,0-0.3-0.1-0.3-0.3v-2c-1.2-0.3-2.3-0.8-3.4-1.5l-1.5,1.5c-0.1,0.1-0.3,0.1-0.4,0
					l-2.4-2.4c-0.1-0.1-0.1-0.3,0-0.4l1.6-1.6c-0.6-1-1.1-2.1-1.3-3.3h-2.3c-0.1,0-0.3-0.1-0.3-0.3V807c0-0.1,0.1-0.3,0.3-0.3h2.3
					c0.2-1.2,0.7-2.2,1.3-3.2l-1.6-1.6c-0.1-0.1-0.1-0.3,0-0.4l2.4-2.4c0.1-0.1,0.3-0.1,0.4,0l1.6,1.6c1-0.7,2.1-1.2,3.3-1.5v-2.1
					c0-0.1,0.1-0.3,0.3-0.3h3.4c0.1,0,0.3,0.1,0.3,0.3v2c1.3,0.2,2.5,0.7,3.6,1.3l1.3-1.3c0.1-0.1,0.3-0.1,0.4,0l2.4,2.4
					c0,0,0.1,0.1,0.1,0.2c0,0.1,0,0.1-0.1,0.2l-1.2,1.2c0.8,1.1,1.3,2.3,1.6,3.6h1.6c0.1,0,0.3,0.1,0.3,0.3v3.4
					c0,0.1-0.1,0.3-0.3,0.3h-1.6c-0.3,1.3-0.8,2.6-1.6,3.7l1.2,1.2c0,0,0.1,0.1,0.1,0.2c0,0.1,0,0.1-0.1,0.2l-2.4,2.4
					c-0.1,0.1-0.3,0.1-0.4,0l-1.2-1.2c-1.1,0.7-2.3,1.2-3.6,1.4v1.8C875.6,820.5,875.5,820.6,875.4,820.6z M872.3,820h2.9v-1.8
					c0-0.1,0.1-0.2,0.2-0.3c1.4-0.2,2.7-0.7,3.8-1.5c0.1-0.1,0.2-0.1,0.3,0l1.2,1.2l2-2l-1.1-1.1c-0.1-0.1-0.1-0.2,0-0.3
					c0.8-1.1,1.4-2.5,1.6-3.9c0-0.1,0.1-0.2,0.3-0.2h1.6v-2.9h-1.6c-0.1,0-0.2-0.1-0.3-0.2c-0.3-1.4-0.8-2.7-1.7-3.8
					c-0.1-0.1-0.1-0.2,0-0.3l1.2-1.2l-2-2l-1.3,1.3c-0.1,0.1-0.2,0.1-0.3,0c-1.1-0.7-2.4-1.2-3.7-1.4c-0.1,0-0.2-0.1-0.2-0.3v-1.9
					h-2.9v2c0,0.1-0.1,0.2-0.2,0.3c-1.3,0.3-2.4,0.8-3.5,1.6c-0.1,0.1-0.2,0.1-0.3,0l-1.5-1.5l-2,2l1.6,1.6c0.1,0.1,0.1,0.2,0,0.3
					c-0.7,1-1.2,2.2-1.4,3.4c0,0.1-0.1,0.2-0.3,0.2h-2.3v2.9h2.3c0.1,0,0.2,0.1,0.3,0.2c0.2,1.2,0.7,2.4,1.4,3.5
					c0.1,0.1,0.1,0.2,0,0.3l-1.5,1.5l2,2l1.5-1.5c0.1-0.1,0.2-0.1,0.3,0c1.1,0.8,2.3,1.3,3.5,1.6c0.1,0,0.2,0.1,0.2,0.3V820z
					 M874,814.7c-3.2,0-5.9-2.6-5.9-5.9c0-3.2,2.6-5.9,5.9-5.9c2.9,0,5.3,2.1,5.8,4.9l0,1.8c-0.2,1.1-0.7,2.1-1.4,3l-0.5,0.5
					c0,0,0,0,0,0C876.8,814.1,875.4,814.7,874,814.7z M874,803.5c-2.9,0-5.3,2.4-5.3,5.3s2.4,5.3,5.3,5.3c1.3,0,2.5-0.5,3.5-1.3
					l0.5-0.5c0.7-0.7,1.1-1.7,1.3-2.7l0-1.7C878.9,805.3,876.7,803.5,874,803.5z M877.7,813L877.7,813L877.7,813z"/>
			</g>
		</g>
		<g>
			<g>
				<path class="st1" d="M857.5,820.6c0,0-0.1,0-0.1,0c-0.1,0-0.1-0.1-0.1-0.2l-0.5-1.6c-0.4,0-0.8,0-1.1-0.1l-0.8,1.6
					c0,0.1-0.1,0.1-0.2,0.1c-0.1,0-0.1,0-0.2,0l-1.6-0.8c-0.1-0.1-0.2-0.2-0.1-0.4l0.9-1.6c-0.3-0.3-0.5-0.5-0.7-0.8l-1.8,0.6
					c-0.1,0-0.1,0-0.2,0c-0.1,0-0.1-0.1-0.1-0.2l-0.5-1.7c0-0.1,0-0.3,0.2-0.3l1.8-0.6c0-0.4,0-0.7,0.1-1l-1.7-0.9
					c-0.1-0.1-0.2-0.2-0.1-0.4l0.8-1.6c0-0.1,0.1-0.1,0.2-0.1c0.1,0,0.1,0,0.2,0l1.6,0.8c0.2-0.3,0.5-0.5,0.8-0.7l-0.5-1.7
					c0-0.1,0-0.1,0-0.2c0-0.1,0.1-0.1,0.2-0.1l1.7-0.5c0.1,0,0.1,0,0.2,0c0.1,0,0.1,0.1,0.1,0.2l0.5,1.6c0.4,0,0.8,0,1.2,0.1
					l0.8-1.5c0-0.1,0.1-0.1,0.2-0.1c0.1,0,0.1,0,0.2,0l1.6,0.8c0.1,0.1,0.2,0.2,0.1,0.4l-0.7,1.4c0.3,0.3,0.6,0.6,0.9,1l1.5-0.5
					c0.1,0,0.1,0,0.2,0c0.1,0,0.1,0.1,0.1,0.2l0.5,1.7c0,0.1,0,0.3-0.2,0.3l-1.4,0.5c0,0.4,0,0.9-0.1,1.3l1.4,0.7
					c0.1,0.1,0.2,0.2,0.1,0.4l-0.8,1.6c-0.1,0.1-0.2,0.2-0.4,0.1l-1.4-0.7c-0.3,0.3-0.6,0.6-1,0.8l0.5,1.6c0,0.1,0,0.3-0.2,0.3
					L857.5,820.6C857.5,820.6,857.5,820.6,857.5,820.6z M856.9,818.2c0.1,0,0.2,0.1,0.2,0.2l0.5,1.6l1.2-0.4l-0.5-1.5
					c0-0.1,0-0.3,0.1-0.3c0.4-0.2,0.8-0.5,1.2-0.9c0.1-0.1,0.2-0.1,0.3-0.1l1.4,0.7l0.6-1.1l-1.3-0.7c-0.1-0.1-0.2-0.2-0.1-0.3
					c0.2-0.5,0.2-1,0.2-1.5c0-0.1,0.1-0.2,0.2-0.3l1.4-0.4l-0.4-1.2l-1.4,0.4c-0.1,0-0.2,0-0.3-0.1c-0.3-0.4-0.6-0.8-1-1.1
					c-0.1-0.1-0.1-0.2-0.1-0.3l0.7-1.3l-1.1-0.6l-0.7,1.4c-0.1,0.1-0.2,0.2-0.3,0.1c-0.5-0.1-1-0.1-1.4-0.1c-0.1,0-0.2-0.1-0.3-0.2
					l-0.5-1.6l-1.2,0.4l0.5,1.6c0,0.1,0,0.2-0.1,0.3c-0.4,0.2-0.7,0.5-1,0.9c-0.1,0.1-0.2,0.1-0.3,0.1l-1.6-0.8l-0.6,1.1l1.6,0.8
					c0.1,0.1,0.2,0.2,0.1,0.3c-0.1,0.4-0.1,0.9-0.1,1.3c0,0.1-0.1,0.2-0.2,0.3l-1.7,0.5l0.4,1.2l1.7-0.5c0.1,0,0.2,0,0.3,0.1
					c0.2,0.4,0.5,0.7,0.8,1c0.1,0.1,0.1,0.2,0.1,0.3l-0.8,1.6l1.1,0.6l0.8-1.5c0.1-0.1,0.2-0.2,0.3-0.1
					C855.9,818.2,856.4,818.2,856.9,818.2C856.9,818.2,856.9,818.2,856.9,818.2z M856.7,816.1c-0.3,0-0.6-0.1-0.8-0.2
					c-0.4-0.2-0.7-0.6-0.9-1.1c-0.1-0.5-0.1-0.9,0.1-1.4c0.2-0.4,0.6-0.7,1.1-0.9c0.9-0.3,1.9,0.2,2.2,1.2c0.1,0.5,0.1,0.9-0.1,1.4
					c-0.2,0.4-0.6,0.7-1.1,0.9l0,0C857,816.1,856.9,816.1,856.7,816.1z M856.7,813c-0.1,0-0.3,0-0.4,0.1c-0.3,0.1-0.6,0.3-0.7,0.6
					c-0.2,0.3-0.2,0.6-0.1,1c0.1,0.3,0.3,0.6,0.6,0.7c0.3,0.2,0.6,0.2,1,0.1l0,0c0.3-0.1,0.6-0.3,0.7-0.6c0.2-0.3,0.2-0.6,0.1-1
					C857.7,813.4,857.2,813,856.7,813z"/>
			</g>
		</g>
	</g>
	<g>
		<g>
			<g>
				<g>
					<path class="st1" d="M1188,336.6h-23.7c-0.1,0-0.3-0.1-0.3-0.3v-15c0-0.1,0.1-0.3,0.3-0.3h23.7c0.1,0,0.3,0.1,0.3,0.3v15
						C1188.2,336.4,1188.1,336.6,1188,336.6z M1164.5,336h23.2v-14.5h-23.2V336z"/>
				</g>
			</g>
			<g>
				<g>
					<path class="st1" d="M1176.1,328.5c0,0-0.1,0-0.1,0l-11.8-7c-0.1-0.1-0.1-0.2-0.1-0.3c0-0.1,0.1-0.2,0.3-0.2h23.7
						c0.1,0,0.2,0.1,0.3,0.2c0,0.1,0,0.2-0.1,0.3l-11.9,7C1176.2,328.5,1176.1,328.5,1176.1,328.5z M1165.2,321.5l10.9,6.4l11-6.4
						H1165.2z"/>
				</g>
			</g>
		</g>
		<g>
			<g>
				<path class="st1" d="M1149.2,407L1149.2,407c-2.2,0-4.3-0.2-6.4-0.5c-0.3,0-0.5-0.3-0.4-0.6c0-0.3,0.3-0.5,0.6-0.4
					c2,0.3,4.1,0.5,6.2,0.5c0.3,0,0.6,0.2,0.6,0.5C1149.8,406.8,1149.5,407,1149.2,407z M1155.6,406.5c-0.3,0-0.5-0.2-0.5-0.5
					c0-0.3,0.2-0.6,0.4-0.6c2.1-0.3,4.1-0.8,6.1-1.5c0.3-0.1,0.6,0.1,0.7,0.3c0.1,0.3-0.1,0.6-0.3,0.7
					C1159.9,405.7,1157.8,406.2,1155.6,406.5C1155.7,406.5,1155.6,406.5,1155.6,406.5z M1136.7,405c-0.1,0-0.1,0-0.2,0
					c-2-0.7-4.1-1.5-6-2.5c-0.3-0.1-0.4-0.5-0.2-0.7c0.1-0.3,0.5-0.4,0.7-0.2c1.9,1,3.8,1.8,5.8,2.4c0.3,0.1,0.4,0.4,0.3,0.7
					C1137.1,404.9,1136.9,405,1136.7,405z M1167.7,402.6c-0.2,0-0.4-0.1-0.5-0.3c-0.1-0.3,0-0.6,0.2-0.7c1.9-1,3.7-2.1,5.4-3.3
					c0.2-0.2,0.6-0.1,0.7,0.1c0.2,0.2,0.1,0.6-0.1,0.7c-1.7,1.3-3.6,2.4-5.5,3.4C1167.9,402.6,1167.8,402.6,1167.7,402.6z
					 M1125.3,399.3c-0.1,0-0.2,0-0.3-0.1c-1.7-1.3-3.4-2.7-4.9-4.2c-0.2-0.2-0.2-0.5,0-0.8c0.2-0.2,0.5-0.2,0.8,0
					c1.5,1.5,3.1,2.9,4.8,4.1c0.2,0.2,0.3,0.5,0.1,0.7C1125.7,399.2,1125.5,399.3,1125.3,399.3z M1178,395.1c-0.1,0-0.3-0.1-0.4-0.2
					c-0.2-0.2-0.2-0.5,0-0.8c1.5-1.5,2.9-3.1,4.1-4.8c0.2-0.2,0.5-0.3,0.7-0.1c0.2,0.2,0.3,0.5,0.1,0.7c-1.3,1.7-2.7,3.4-4.2,4.9
					C1178.2,395,1178.1,395.1,1178,395.1z M1116.3,390.3c-0.2,0-0.3-0.1-0.4-0.2c-1.3-1.7-2.4-3.6-3.4-5.5c-0.1-0.3,0-0.6,0.2-0.7
					c0.3-0.1,0.6,0,0.7,0.2c1,1.9,2.1,3.7,3.3,5.4c0.2,0.2,0.1,0.6-0.1,0.7C1116.6,390.3,1116.4,390.3,1116.3,390.3z M1185.5,384.8
					c-0.1,0-0.2,0-0.2-0.1c-0.3-0.1-0.4-0.5-0.2-0.7c1-1.9,1.8-3.8,2.4-5.8c0.1-0.3,0.4-0.4,0.7-0.3c0.3,0.1,0.4,0.4,0.3,0.7
					c-0.7,2-1.5,4.1-2.5,6C1185.8,384.7,1185.6,384.8,1185.5,384.8z M1110.5,379c-0.2,0-0.4-0.1-0.5-0.4c-0.7-2-1.2-4.2-1.5-6.3
					c0-0.3,0.2-0.6,0.4-0.6c0.3,0,0.6,0.2,0.6,0.4c0.3,2.1,0.8,4.1,1.5,6.1c0.1,0.3-0.1,0.6-0.3,0.7
					C1110.6,379,1110.6,379,1110.5,379z M1189.4,372.7C1189.4,372.7,1189.3,372.7,1189.4,372.7c-0.4-0.1-0.6-0.3-0.5-0.6
					c0.3-2.1,0.5-4.2,0.5-6.3l0-0.2c0-0.3,0.2-0.5,0.5-0.5c0.3,0,0.5,0.2,0.5,0.5l0,0.2c0,2.2-0.2,4.3-0.5,6.4
					C1189.9,372.5,1189.6,372.7,1189.4,372.7z M1108.5,366.4c-0.3,0-0.5-0.2-0.5-0.5h0.5l-0.5-0.1c0-2.1,0.2-4.3,0.5-6.4
					c0-0.3,0.3-0.5,0.6-0.4c0.3,0,0.5,0.3,0.4,0.6c-0.3,2-0.5,4.1-0.5,6.2C1109.1,366.1,1108.8,366.4,1108.5,366.4z M1189.4,359.8
					c-0.3,0-0.5-0.2-0.5-0.4c-0.3-2.1-0.8-4.1-1.5-6.1c-0.1-0.3,0.1-0.6,0.3-0.7c0.3-0.1,0.6,0.1,0.7,0.3c0.7,2,1.2,4.2,1.5,6.3
					C1189.9,359.5,1189.7,359.8,1189.4,359.8C1189.4,359.8,1189.4,359.8,1189.4,359.8z M1110.5,353.9c-0.1,0-0.1,0-0.2,0
					c-0.3-0.1-0.4-0.4-0.3-0.7c0.7-2,1.5-4.1,2.5-6c0.1-0.3,0.5-0.4,0.7-0.2c0.3,0.1,0.4,0.5,0.2,0.7c-0.9,1.9-1.8,3.8-2.4,5.8
					C1110.9,353.7,1110.7,353.9,1110.5,353.9z M1185.4,347.7c-0.2,0-0.4-0.1-0.5-0.3c-1-1.9-2.1-3.7-3.3-5.4
					c-0.2-0.2-0.1-0.6,0.1-0.7c0.2-0.2,0.6-0.1,0.7,0.1c1.3,1.7,2.4,3.6,3.4,5.5c0.1,0.3,0,0.6-0.2,0.7
					C1185.5,347.7,1185.5,347.7,1185.4,347.7z M1116.2,342.5c-0.1,0-0.2,0-0.3-0.1c-0.2-0.2-0.3-0.5-0.1-0.7
					c1.3-1.7,2.7-3.4,4.2-4.9c0.2-0.2,0.5-0.2,0.8,0c0.2,0.2,0.2,0.5,0,0.8c-1.5,1.5-2.9,3.1-4.1,4.8
					C1116.6,342.4,1116.4,342.5,1116.2,342.5z M1125.2,333.5c-0.2,0-0.3-0.1-0.4-0.2c-0.2-0.2-0.1-0.6,0.1-0.7
					c1.7-1.3,3.6-2.4,5.5-3.4c0.3-0.1,0.6,0,0.7,0.2c0.1,0.3,0,0.6-0.2,0.7c-1.9,1-3.7,2.1-5.4,3.3
					C1125.4,333.5,1125.3,333.5,1125.2,333.5z M1136.5,327.7c-0.2,0-0.4-0.1-0.5-0.4c-0.1-0.3,0.1-0.6,0.3-0.7
					c2-0.7,4.2-1.2,6.3-1.5c0.3,0,0.6,0.2,0.6,0.4c0,0.3-0.2,0.6-0.4,0.6c-2.1,0.3-4.1,0.8-6.1,1.5
					C1136.6,327.7,1136.6,327.7,1136.5,327.7z M1155.4,326.1C1155.4,326.1,1155.4,326.1,1155.4,326.1c-2.1-0.3-4.2-0.5-6.2-0.5h-0.1
					c-0.3,0-0.5-0.2-0.5-0.5c0-0.3,0.2-0.5,0.5-0.5h0.1c2.1,0,4.2,0.2,6.3,0.5c0.3,0,0.5,0.3,0.4,0.6
					C1155.9,326,1155.7,326.1,1155.4,326.1z"/>
			</g>
		</g>
	</g>
	<g>
		<g>
			<g>
				<g>
					<path class="st1" d="M600.7,361.9h-3.4c-0.1,0-0.3-0.1-0.3-0.3v-2c-1.2-0.3-2.3-0.8-3.4-1.5l-1.5,1.5c-0.1,0.1-0.3,0.1-0.4,0
						l-2.4-2.4c-0.1-0.1-0.1-0.3,0-0.4l1.6-1.6c-0.6-1-1.1-2.1-1.3-3.3h-2.3c-0.1,0-0.3-0.1-0.3-0.3v-3.4c0-0.1,0.1-0.3,0.3-0.3h2.3
						c0.2-1.2,0.7-2.2,1.3-3.2l-1.6-1.6c-0.1-0.1-0.1-0.3,0-0.4l2.4-2.4c0.1-0.1,0.3-0.1,0.4,0l1.6,1.6c1-0.7,2.1-1.2,3.3-1.5v-2.1
						c0-0.1,0.1-0.3,0.3-0.3h3.4c0.1,0,0.3,0.1,0.3,0.3v2c1.3,0.2,2.5,0.7,3.6,1.3l1.3-1.3c0.1-0.1,0.3-0.1,0.4,0l2.4,2.4
						c0,0,0.1,0.1,0.1,0.2c0,0.1,0,0.1-0.1,0.2l-1.2,1.2c0.8,1.1,1.3,2.3,1.6,3.6h1.6c0.1,0,0.3,0.1,0.3,0.3v3.4
						c0,0.1-0.1,0.3-0.3,0.3h-1.6c-0.3,1.3-0.8,2.6-1.6,3.7l1.2,1.2c0,0,0.1,0.1,0.1,0.2c0,0.1,0,0.1-0.1,0.2l-2.4,2.4
						c-0.1,0.1-0.3,0.1-0.4,0l-1.2-1.2c-1.1,0.7-2.3,1.2-3.6,1.4v1.8C600.9,361.7,600.8,361.9,600.7,361.9z M597.5,361.3h2.9v-1.8
						c0-0.1,0.1-0.2,0.2-0.3c1.4-0.2,2.7-0.7,3.8-1.5c0.1-0.1,0.2-0.1,0.3,0l1.2,1.2l2-2l-1.1-1.1c-0.1-0.1-0.1-0.2,0-0.3
						c0.8-1.1,1.4-2.5,1.6-3.9c0-0.1,0.1-0.2,0.3-0.2h1.6v-2.9h-1.6c-0.1,0-0.2-0.1-0.3-0.2c-0.3-1.4-0.8-2.7-1.7-3.8
						c-0.1-0.1-0.1-0.2,0-0.3l1.2-1.2l-2-2l-1.3,1.3c-0.1,0.1-0.2,0.1-0.3,0c-1.1-0.7-2.4-1.2-3.7-1.4c-0.1,0-0.2-0.1-0.2-0.3v-1.9
						h-2.9v2c0,0.1-0.1,0.2-0.2,0.3c-1.3,0.3-2.4,0.8-3.5,1.6c-0.1,0.1-0.2,0.1-0.3,0L592,341l-2,2l1.6,1.6c0.1,0.1,0.1,0.2,0,0.3
						c-0.7,1-1.2,2.2-1.4,3.4c0,0.1-0.1,0.2-0.3,0.2h-2.3v2.9h2.3c0.1,0,0.2,0.1,0.3,0.2c0.2,1.2,0.7,2.4,1.4,3.5
						c0.1,0.1,0.1,0.2,0,0.3l-1.5,1.5l2,2l1.5-1.5c0.1-0.1,0.2-0.1,0.3,0c1.1,0.8,2.3,1.3,3.5,1.6c0.1,0,0.2,0.1,0.2,0.3V361.3z
						 M599.3,356c-3.2,0-5.9-2.6-5.9-5.9c0-3.2,2.6-5.9,5.9-5.9c2.9,0,5.3,2.1,5.8,4.9l0,1.8c-0.2,1.1-0.7,2.1-1.4,3l-0.5,0.5
						c0,0,0,0,0,0C602.1,355.4,600.7,356,599.3,356z M599.3,344.7c-2.9,0-5.3,2.4-5.3,5.3c0,2.9,2.4,5.3,5.3,5.3
						c1.3,0,2.5-0.5,3.5-1.3l0.5-0.5c0.7-0.7,1.1-1.7,1.3-2.7l0-1.7C604.2,346.6,601.9,344.7,599.3,344.7z M603,354.3L603,354.3
						L603,354.3z"/>
				</g>
			</g>
			<g>
				<g>
					<path class="st1" d="M582.7,361.9c0,0-0.1,0-0.1,0c-0.1,0-0.1-0.1-0.1-0.2L582,360c-0.4,0-0.8,0-1.1-0.1l-0.8,1.6
						c0,0.1-0.1,0.1-0.2,0.1c-0.1,0-0.1,0-0.2,0l-1.6-0.8c-0.1-0.1-0.2-0.2-0.1-0.4l0.9-1.6c-0.3-0.3-0.5-0.5-0.7-0.8l-1.8,0.6
						c-0.1,0-0.1,0-0.2,0c-0.1,0-0.1-0.1-0.1-0.2l-0.5-1.7c0-0.1,0-0.3,0.2-0.3l1.8-0.6c0-0.4,0-0.7,0.1-1l-1.7-0.9
						c-0.1-0.1-0.2-0.2-0.1-0.4l0.8-1.6c0-0.1,0.1-0.1,0.2-0.1c0.1,0,0.1,0,0.2,0l1.6,0.8c0.2-0.3,0.5-0.5,0.8-0.7l-0.5-1.7
						c0-0.1,0-0.1,0-0.2c0-0.1,0.1-0.1,0.2-0.1l1.7-0.5c0.1,0,0.1,0,0.2,0c0.1,0,0.1,0.1,0.1,0.2l0.5,1.6c0.4,0,0.8,0,1.2,0.1
						l0.8-1.5c0-0.1,0.1-0.1,0.2-0.1c0.1,0,0.1,0,0.2,0l1.6,0.8c0.1,0.1,0.2,0.2,0.1,0.4l-0.7,1.4c0.3,0.3,0.6,0.6,0.9,1l1.5-0.5
						c0.1,0,0.1,0,0.2,0c0.1,0,0.1,0.1,0.1,0.2l0.5,1.7c0,0.1,0,0.3-0.2,0.3l-1.4,0.5c0,0.4,0,0.9-0.1,1.3l1.4,0.7
						c0.1,0.1,0.2,0.2,0.1,0.4l-0.8,1.6c-0.1,0.1-0.2,0.2-0.4,0.1l-1.4-0.7c-0.3,0.3-0.6,0.6-1,0.8l0.5,1.6c0,0.1,0,0.3-0.2,0.3
						L582.7,361.9C582.8,361.8,582.8,361.9,582.7,361.9z M582.2,359.5c0.1,0,0.2,0.1,0.2,0.2l0.5,1.6l1.2-0.4l-0.5-1.5
						c0-0.1,0-0.3,0.1-0.3c0.4-0.2,0.8-0.5,1.2-0.9c0.1-0.1,0.2-0.1,0.3-0.1l1.4,0.7l0.6-1.1l-1.3-0.7c-0.1-0.1-0.2-0.2-0.1-0.3
						c0.2-0.5,0.2-1,0.2-1.5c0-0.1,0.1-0.2,0.2-0.3l1.4-0.4l-0.4-1.2l-1.4,0.4c-0.1,0-0.2,0-0.3-0.1c-0.3-0.4-0.6-0.8-1-1.1
						c-0.1-0.1-0.1-0.2-0.1-0.3l0.7-1.3l-1.1-0.6l-0.7,1.4c-0.1,0.1-0.2,0.2-0.3,0.1c-0.5-0.1-1-0.1-1.4-0.1c-0.1,0-0.2-0.1-0.3-0.2
						l-0.5-1.6l-1.2,0.4l0.5,1.6c0,0.1,0,0.2-0.1,0.3c-0.4,0.2-0.7,0.5-1,0.9c-0.1,0.1-0.2,0.1-0.3,0.1l-1.6-0.8l-0.6,1.1l1.6,0.8
						c0.1,0.1,0.2,0.2,0.1,0.3c-0.1,0.4-0.1,0.9-0.1,1.3c0,0.1-0.1,0.2-0.2,0.3l-1.7,0.5l0.4,1.2l1.7-0.5c0.1,0,0.2,0,0.3,0.1
						c0.2,0.4,0.5,0.7,0.8,1c0.1,0.1,0.1,0.2,0.1,0.3l-0.8,1.6l1.1,0.6l0.8-1.5c0.1-0.1,0.2-0.2,0.3-0.1
						C581.2,359.5,581.7,359.5,582.2,359.5C582.1,359.5,582.2,359.5,582.2,359.5z M582,357.4c-0.3,0-0.6-0.1-0.8-0.2
						c-0.4-0.2-0.7-0.6-0.9-1.1c-0.1-0.5-0.1-0.9,0.1-1.4c0.2-0.4,0.6-0.7,1.1-0.9c0.9-0.3,1.9,0.2,2.2,1.2c0.1,0.5,0.1,0.9-0.1,1.4
						c-0.2,0.4-0.6,0.7-1.1,0.9l0,0C582.3,357.3,582.1,357.4,582,357.4z M582,354.3c-0.1,0-0.3,0-0.4,0.1c-0.3,0.1-0.6,0.3-0.7,0.6
						c-0.2,0.3-0.2,0.6-0.1,1c0.1,0.3,0.3,0.6,0.6,0.7c0.3,0.2,0.6,0.2,1,0.1l0,0c0.3-0.1,0.6-0.3,0.7-0.6c0.2-0.3,0.2-0.6,0.1-1
						C583,354.7,582.5,354.3,582,354.3z"/>
				</g>
			</g>
		</g>
		<g>
			<g>
				<path class="st1" d="M623.4,430.5c0-0.3,0.3-0.5,0.6-0.5c2.1,0,4.2-0.2,6.2-0.5c0.3,0,0.6,0.2,0.6,0.4c0,0.3-0.2,0.6-0.4,0.6
					c-2.1,0.3-4.3,0.5-6.4,0.5h0C623.7,431.1,623.4,430.8,623.4,430.5z M617.5,430.6c-2.1-0.3-4.2-0.8-6.3-1.5
					c-0.3-0.1-0.4-0.4-0.3-0.7c0.1-0.3,0.4-0.4,0.7-0.3c2,0.6,4,1.1,6.1,1.5c0.3,0,0.5,0.3,0.4,0.6
					C618.1,430.4,617.9,430.6,617.5,430.6C617.6,430.6,617.5,430.6,617.5,430.6z M636,428.7c-0.1-0.3,0.1-0.6,0.3-0.7
					c2-0.6,4-1.5,5.8-2.4c0.3-0.1,0.6,0,0.7,0.2c0.1,0.3,0,0.6-0.2,0.7c-1.9,1-3.9,1.8-6,2.5c-0.1,0-0.1,0-0.2,0
					C636.3,429.1,636.1,429,636,428.7z M605.3,426.6c-1.9-1-3.8-2.1-5.5-3.4c-0.2-0.2-0.3-0.5-0.1-0.7c0.2-0.2,0.5-0.3,0.7-0.1
					c1.7,1.2,3.5,2.3,5.4,3.3c0.3,0.1,0.4,0.5,0.2,0.7c-0.1,0.2-0.3,0.3-0.5,0.3C605.4,426.6,605.3,426.6,605.3,426.6z M647.4,423.1
					c-0.2-0.2-0.1-0.6,0.1-0.7c1.7-1.2,3.3-2.6,4.8-4.1c0.2-0.2,0.5-0.2,0.8,0c0.2,0.2,0.2,0.5,0,0.8c-1.5,1.5-3.2,2.9-4.9,4.2
					c-0.1,0.1-0.2,0.1-0.3,0.1C647.7,423.3,647.5,423.3,647.4,423.1z M594.8,419c-1.5-1.5-2.9-3.2-4.2-4.9c-0.2-0.2-0.1-0.6,0.1-0.7
					c0.2-0.2,0.6-0.1,0.7,0.1c1.2,1.7,2.6,3.3,4.1,4.8c0.2,0.2,0.2,0.5,0,0.8c-0.1,0.1-0.2,0.2-0.4,0.2
					C595.1,419.1,594.9,419.1,594.8,419z M656.5,414.2c-0.2-0.2-0.3-0.5-0.1-0.7c1.2-1.7,2.3-3.5,3.3-5.4c0.1-0.3,0.5-0.4,0.7-0.2
					c0.3,0.1,0.4,0.5,0.2,0.7c-1,1.9-2.1,3.8-3.4,5.5c-0.1,0.1-0.3,0.2-0.4,0.2C656.8,414.4,656.6,414.3,656.5,414.2z M587.3,408.6
					c-1-1.9-1.8-3.9-2.5-6c-0.1-0.3,0.1-0.6,0.3-0.7c0.3-0.1,0.6,0.1,0.7,0.3c0.6,2,1.5,3.9,2.4,5.8c0.1,0.3,0,0.6-0.2,0.7
					c-0.1,0-0.2,0.1-0.2,0.1C587.5,408.9,587.4,408.7,587.3,408.6z M662.5,403c-0.3-0.1-0.4-0.4-0.3-0.7c0.6-2,1.1-4,1.5-6.1
					c0-0.3,0.3-0.5,0.6-0.4c0.3,0,0.5,0.3,0.4,0.6c-0.3,2.1-0.8,4.2-1.5,6.3c-0.1,0.2-0.3,0.4-0.5,0.4
					C662.6,403,662.6,403,662.5,403z M583.3,396.3c-0.3-2.1-0.5-4.3-0.5-6.4l0-0.2c0-0.3,0.3-0.5,0.5-0.5c0.3,0,0.5,0.2,0.5,0.5
					l0,0.2c0,2.1,0.2,4.2,0.5,6.3c0,0.3-0.2,0.6-0.4,0.6c0,0-0.1,0-0.1,0C583.6,396.8,583.3,396.6,583.3,396.3z M664.1,389.9
					c0-2.1-0.2-4.2-0.5-6.2c0-0.3,0.2-0.6,0.4-0.6c0.3,0,0.6,0.2,0.6,0.4c0.3,2.1,0.5,4.2,0.5,6.4l-0.5,0.1h0.5
					c0,0.3-0.2,0.5-0.5,0.5C664.4,390.4,664.1,390.2,664.1,389.9z M583.8,383.9c-0.3,0-0.5-0.3-0.4-0.6c0.3-2.1,0.9-4.2,1.5-6.3
					c0.1-0.3,0.4-0.4,0.7-0.3c0.3,0.1,0.4,0.4,0.3,0.7c-0.7,2-1.2,4-1.5,6.1C584.3,383.7,584.1,383.9,583.8,383.9
					C583.8,383.9,583.8,383.9,583.8,383.9z M662.2,377.5c-0.6-2-1.4-4-2.4-5.8c-0.1-0.3,0-0.6,0.2-0.7c0.3-0.1,0.6,0,0.7,0.2
					c1,1.9,1.8,3.9,2.5,6c0.1,0.3-0.1,0.6-0.3,0.7c-0.1,0-0.1,0-0.2,0C662.5,377.9,662.3,377.8,662.2,377.5z M587.6,371.7
					c-0.3-0.1-0.4-0.5-0.2-0.7c1-1.9,2.1-3.8,3.4-5.5c0.2-0.2,0.5-0.3,0.7-0.1c0.2,0.2,0.3,0.5,0.1,0.7c-1.2,1.7-2.4,3.5-3.3,5.4
					c-0.1,0.2-0.3,0.3-0.5,0.3C587.7,371.8,587.6,371.8,587.6,371.7z M656.5,366.3c-1.2-1.7-2.6-3.3-4.1-4.8c-0.2-0.2-0.2-0.5,0-0.8
					c0.2-0.2,0.5-0.2,0.8,0c1.5,1.5,2.9,3.2,4.2,4.9c0.2,0.2,0.1,0.6-0.1,0.7c-0.1,0.1-0.2,0.1-0.3,0.1
					C656.8,366.6,656.6,366.5,656.5,366.3z M647.7,357.4c-1.7-1.2-3.5-2.4-5.4-3.3c-0.3-0.1-0.4-0.5-0.2-0.7
					c0.1-0.3,0.5-0.4,0.7-0.2c1.9,1,3.8,2.1,5.5,3.4c0.2,0.2,0.3,0.5,0.1,0.7c-0.1,0.1-0.3,0.2-0.4,0.2
					C647.9,357.5,647.8,357.5,647.7,357.4z M636.5,351.7c-2-0.7-4-1.2-6.1-1.5c-0.3,0-0.5-0.3-0.4-0.6c0-0.3,0.3-0.5,0.6-0.4
					c2.1,0.3,4.2,0.9,6.3,1.5c0.3,0.1,0.4,0.4,0.3,0.7c-0.1,0.2-0.3,0.4-0.5,0.4C636.6,351.7,636.6,351.7,636.5,351.7z M617.2,349.7
					c0-0.3,0.2-0.6,0.4-0.6c2.1-0.3,4.2-0.5,6.3-0.5h0.1c0.3,0,0.5,0.2,0.5,0.5c0,0.3-0.2,0.5-0.5,0.5H624c-2.1,0-4.1,0.2-6.2,0.5
					c0,0-0.1,0-0.1,0C617.5,350.2,617.3,350,617.2,349.7z"/>
			</g>
		</g>
	</g>
	<g>
		
			<image style="overflow:visible;" width="177" height="306" xlink:href="6648EEE389326E69.png"  transform="matrix(1 0 0 1 1139 308)">
		</image>
		<g>
			<g>
				<path class="st2" d="M1183,508.6c0.6-0.2,1.2,0.1,1.5,0.7l8.2,24c1.1-5.3,2.4-10.7,3.8-16.5c6.7-26.7,17.8-61.3,36.2-99.7
					c-0.1-0.1-0.1-0.2-0.2-0.3l-9.6-28.1c-0.2-0.6,0.1-1.2,0.7-1.5c0.6-0.2,1.2,0.1,1.5,0.7l8.9,26.3c13.8-28.5,31.6-59,54.6-89.8
					c0.4-0.5,1.1-0.6,1.6-0.2c0.5,0.4,0.6,1.1,0.2,1.6c-13.5,18.2-25.3,36.3-35.5,53.9l20.4-6.4c0.6-0.2,1.2,0.1,1.4,0.7
					c0.2,0.6-0.1,1.2-0.7,1.4l-22.7,7.2c0,0,0,0,0,0c-21.1,37-35.4,71.9-45,101.4l29.8-7c0.6-0.1,1.2,0.2,1.4,0.9
					c0.1,0.6-0.2,1.2-0.9,1.4l-30.5,7.2c-0.1,0-0.2,0-0.3,0c-0.1,0-0.3,0-0.4-0.1c-3.6,11.2-6.5,21.5-8.8,30.9
					c-1.8,7.1-3.3,13.9-4.6,20.3c0,0.3,0,0.5-0.1,0.7c-7.9,39-7.8,63.8-7.8,64.1c0,0.6-0.5,1.1-1.1,1.2c0,0,0,0,0,0
					c-0.6,0-1.1-0.5-1.1-1.1c0-0.3-0.1-25.4,7.9-64.7l-9.4-27.7C1182.1,509.4,1182.4,508.8,1183,508.6z"/>
			</g>
		</g>
	</g>
	<g>
		
			<image style="overflow:visible;" width="171" height="144" xlink:href="6648EEE389326E6B.png"  transform="matrix(1 0 0 1 1225 481)">
		</image>
		<g>
			<g>
				<path class="st2" d="M1246.7,606.2c0.1-0.2,10-18.2,31.6-41.4c11.3-12.1,27.3-27.1,48.1-41.9c0-0.1,0-0.1,0-0.2l3.2-17.6
					c0.1-0.4,0.4-0.6,0.8-0.6c0.4,0.1,0.6,0.4,0.6,0.8l-2.9,16.4c15.6-11,33.8-21.8,54.9-31.4c0.3-0.2,0.8,0,0.9,0.3
					c0.2,0.3,0,0.8-0.3,0.9c-12.4,5.6-23.9,11.7-34.4,18l12.6,2.5c0.4,0.1,0.6,0.4,0.5,0.8c-0.1,0.4-0.4,0.6-0.8,0.5l-14-2.8
					c0,0,0,0,0,0c-21.9,13.3-39.6,27.5-53.2,40.3l17.7,5c0.4,0.1,0.6,0.5,0.5,0.8c-0.1,0.4-0.5,0.6-0.8,0.5l-18.1-5.1
					c-0.1,0-0.1,0-0.1-0.1c-0.1,0-0.1-0.1-0.2-0.1c-5.1,4.8-9.7,9.4-13.7,13.7c-21.5,23-31.3,40.9-31.4,41.1
					c-0.2,0.3-0.6,0.5-0.9,0.3c0,0,0,0,0,0C1246.6,606.9,1246.5,606.5,1246.7,606.2z"/>
			</g>
		</g>
	</g>
	<g>
		
			<image style="overflow:visible;" width="177" height="305" xlink:href="6648EEE389326E6E.png"  transform="matrix(1 0 0 1 508 564)">
		</image>
		<g>
			<g>
				<path class="st2" d="M641.5,764c-0.6-0.2-1.2,0.1-1.5,0.7l-8.2,24c-1.1-5.3-2.4-10.7-3.8-16.5c-6.7-26.7-17.8-61.3-36.2-99.7
					c0.1-0.1,0.1-0.2,0.2-0.3l9.6-28.1c0.2-0.6-0.1-1.2-0.7-1.5c-0.6-0.2-1.2,0.1-1.5,0.7l-8.9,26.3c-13.8-28.5-31.6-59-54.6-89.8
					c-0.4-0.5-1.1-0.6-1.6-0.2c-0.5,0.4-0.6,1.1-0.2,1.6c13.5,18.2,25.3,36.3,35.5,53.9l-20.4-6.4c-0.6-0.2-1.2,0.1-1.4,0.7
					c-0.2,0.6,0.1,1.2,0.7,1.4l22.7,7.2c0,0,0,0,0,0c21.1,37,35.4,71.9,45,101.4l-29.8-7c-0.6-0.1-1.2,0.2-1.4,0.9
					c-0.1,0.6,0.2,1.2,0.9,1.4l30.5,7.2c0.1,0,0.2,0,0.3,0c0.1,0,0.3,0,0.4-0.1c3.6,11.2,6.5,21.5,8.8,30.9
					c1.8,7.1,3.3,13.9,4.6,20.3c0,0.3,0,0.5,0.1,0.7c7.9,39,7.8,63.8,7.8,64.1c0,0.6,0.5,1.1,1.1,1.2c0,0,0,0,0,0
					c0.6,0,1.1-0.5,1.1-1.1c0-0.3,0.1-25.4-7.9-64.7l9.4-27.7C642.4,764.8,642.1,764.2,641.5,764z"/>
			</g>
		</g>
	</g>
	<g>
		
			<image style="overflow:visible;" width="172" height="144" xlink:href="6648EEE389326E6F.png"  transform="matrix(1 0 0 1 433 732)">
		</image>
		<g>
			<g>
				<path class="st2" d="M583,856.8c-0.1-0.2-10-18.2-31.6-41.4c-11.3-12.1-27.3-27.1-48.1-41.9c0-0.1,0-0.1,0-0.2l-3.2-17.6
					c-0.1-0.4-0.4-0.6-0.8-0.6c-0.4,0.1-0.6,0.4-0.6,0.8l2.9,16.4c-15.6-11-33.8-21.8-54.9-31.4c-0.3-0.2-0.8,0-0.9,0.3
					c-0.2,0.3,0,0.8,0.3,0.9c12.4,5.6,23.9,11.7,34.4,18l-12.6,2.5c-0.4,0.1-0.6,0.4-0.5,0.8c0.1,0.4,0.4,0.6,0.8,0.5l14-2.8
					c0,0,0,0,0,0c21.9,13.3,39.6,27.5,53.2,40.3l-17.7,5c-0.4,0.1-0.6,0.5-0.5,0.8c0.1,0.4,0.5,0.6,0.8,0.5l18.1-5.1
					c0.1,0,0.1,0,0.1-0.1c0.1,0,0.1-0.1,0.2-0.1c5.1,4.8,9.7,9.4,13.7,13.7c21.5,23,31.3,40.9,31.4,41.1c0.2,0.3,0.6,0.5,0.9,0.3
					c0,0,0,0,0,0C583,857.6,583.2,857.2,583,856.8z"/>
			</g>
		</g>
	</g>
	<g>
		<g>
			<path class="st3" d="M735.9,757.8c4.8-1,9.5,2.4,10.1,7.3c1,8.1-3.3,13.2-7.7,17.9c-5.5,5.8-4.9,12.4-4.5,19.2
				c0.4,6.8-7.1,14.5-16.3,18.9c-9.3,4.4-5.8,6.9-7.3,15.2s-6.5,14.4-16.8,18c-10.3,3.6-1.5,9.2-8.8,11.2c-7.3,2-31.6,1.6-31.6,1.6
				c-0.4-20.2-0.9-43,8.9-45c9.8-2,11.1-13.8,14.6-22.4c3.6-8.6,9.9-14.9,16.5-14.6s9.6-13.7,17.3-18.1c7.8-4.4,8.3-2.2,13.9-4.3
				C727.6,761.5,731.6,758.7,735.9,757.8z"/>
		</g>
		<g>
			<g>
				<path class="st2" d="M737.4,763.5c-0.2-0.2-0.4-0.2-0.6-0.1c-12.2,9.1-22.5,18.7-31,28l-0.4-11c0-0.3-0.2-0.4-0.5-0.4
					c-0.3,0-0.4,0.2-0.4,0.5l0.4,11.8c0,0,0,0.1,0,0.1c-11.4,12.5-19.5,24.4-25.1,33.8c-10.7,18-14.5,31-14.6,31.1
					c-0.1,0.2,0.1,0.5,0.3,0.6c0,0,0,0,0,0c0.2,0.1,0.5-0.1,0.6-0.3c0-0.1,3.8-13.1,14.5-31c2-3.3,4.3-6.9,6.9-10.8
					c0,0,0.1,0.1,0.1,0.1c0,0,0.1,0,0.1,0l12.4,0.7c0.3,0,0.5-0.2,0.5-0.4c0-0.3-0.2-0.5-0.4-0.5l-12.2-0.7
					c7-10.1,16.4-21.8,28.7-33.5c0,0,0,0,0,0l9.5-0.1c0.3,0,0.5-0.2,0.4-0.5c0-0.3-0.2-0.5-0.5-0.4l-8.5,0.1
					c5.9-5.5,12.4-11.1,19.6-16.5C737.5,764,737.5,763.7,737.4,763.5z"/>
			</g>
		</g>
	</g>
	<g>
		
			<image style="overflow:visible;" width="365" height="294" xlink:href="6648EEE389326E6A.png"  transform="matrix(1 0 0 1 1079 559)">
		</image>
		<g>
			<rect x="1105.9" y="792.6" class="st4" width="30.7" height="30.7"/>
		</g>
		<g>
			<rect x="1105.9" y="658.4" class="st5" width="30.7" height="121.4"/>
		</g>
		<g>
			<rect x="1163.4" y="792.6" class="st4" width="30.7" height="30.7"/>
		</g>
		<g>
			<rect x="1163.4" y="711.6" class="st5" width="30.7" height="68.2"/>
		</g>
		<g>
			<rect x="1220.9" y="792.6" class="st4" width="30.7" height="30.7"/>
		</g>
		<g>
			<rect x="1220.9" y="684.2" class="st5" width="30.7" height="95.6"/>
		</g>
		<g>
			<rect x="1278.4" y="792.6" class="st4" width="30.7" height="30.7"/>
		</g>
		<g>
			<rect x="1278.4" y="621.1" class="st5" width="30.7" height="158.8"/>
		</g>
		<g>
			<rect x="1335.9" y="792.6" class="st4" width="30.7" height="30.7"/>
		</g>
		<g>
			<rect x="1335.9" y="589.2" class="st5" width="30.7" height="190.6"/>
		</g>
		<g>
			<rect x="1393.5" y="792.6" class="st4" width="30.7" height="30.7"/>
		</g>
		<g>
			<rect x="1393.5" y="601.7" class="st5" width="30.7" height="178.2"/>
		</g>
	</g>
	<g>
		<path class="st6" d="M1466.7,880.9H524.3v-4c0-13.2,10.7-23.8,23.8-23.8h894.6c13.2,0,23.8,10.7,23.8,23.8V880.9z"/>
	</g>
	<g>
		<g>
			<path class="st7" d="M1389.6,512.3c33.2,0,60.1-26.9,60.1-60.1s-26.9-60.1-60.1-60.1h-11v120.2H1389.6z"/>
		</g>
		<g>
			
				<ellipse transform="matrix(0.2298 -0.9732 0.9732 0.2298 621.6942 1690.0537)" class="st8" cx="1378.6" cy="452.3" rx="60.1" ry="60.1"/>
		</g>
		<g>
			<path class="st7" d="M1335.1,452.3c0-25.3,20.1-45.9,45.1-46.8c-0.6,0-1.1,0-1.7,0c-25.9,0-46.8,21-46.8,46.8
				c0,25.9,21,46.8,46.8,46.8c0.6,0,1.1,0,1.7,0C1355.2,498.2,1335.1,477.6,1335.1,452.3z"/>
		</g>
		<g>
			<g>
				<path class="st7" d="M1374.4,441.9c0,10-5.3,15-11.4,15c-5.9,0-11.1-4.8-11.1-14.4c0-9.5,5.2-14.9,11.5-14.9
					C1370,427.7,1374.4,432.8,1374.4,441.9z M1356.9,442.3c-0.1,6.1,2.1,10.7,6.2,10.7c4.2,0,6.2-4.5,6.2-10.8
					c0-5.8-1.7-10.6-6.2-10.6C1359.1,431.5,1356.9,436.3,1356.9,442.3z M1362.5,476.9l28-49.2h4.1l-28,49.2H1362.5z M1405.3,461.6
					c0,10-5.3,15-11.3,15c-5.9,0-11.1-4.8-11.1-14.3c0-9.6,5.2-14.9,11.5-14.9C1401,447.3,1405.3,452.5,1405.3,461.6z M1387.9,462
					c-0.1,6.1,2.3,10.7,6.2,10.7c4.2,0,6.2-4.5,6.2-10.8c0-5.8-1.7-10.6-6.2-10.6C1390.1,451.2,1387.9,456,1387.9,462z"/>
			</g>
		</g>
	</g>
	<g>
		<g>
			<path class="st9" d="M854.1,439.7H568.4l118.7-88.6c14.9-11.1,35.3-11,50.2,0.2L854.1,439.7z"/>
		</g>
		<g>
			<rect x="568.4" y="439.7" class="st10" width="285.7" height="199"/>
		</g>
		<g>
			<g>
				
					<rect x="598.4" y="377.6" transform="matrix(0.5844 -0.8114 0.8114 0.5844 -56.9966 781.887)" class="st11" width="272.9" height="137.9"/>
			</g>
			<g>
				<path class="st12" d="M685.8,565.4l-48.1-34.6c9-12.5,6.2-30-6.4-39.1l113.5-157.6c12.5,9,30,6.2,39.1-6.4l48.1,34.6
					c-9,12.5-6.2,30,6.4,39.1L724.9,559.1C712.3,550,694.8,552.9,685.8,565.4z"/>
			</g>
			<g>
				<path class="st11" d="M770.4,441.1l-29.5,41c-6.4,8.9-18.7,10.9-27.6,4.5l-9.5-6.9c-8.9-6.4-10.9-18.7-4.5-27.6l29.5-41
					c6.4-8.9,18.7-10.9,27.6-4.5l9.5,6.9C774.8,419.9,776.8,432.2,770.4,441.1z"/>
			</g>
			<g>
				
					<ellipse transform="matrix(0.8104 -0.5858 0.5858 0.8104 -75.5808 529.9717)" class="st11" cx="781.1" cy="381.8" rx="16.4" ry="16.4"/>
			</g>
			<g>
				
					<ellipse transform="matrix(0.763 -0.6464 0.6464 0.763 -166.8214 565.9544)" class="st11" cx="688.4" cy="510.5" rx="16.4" ry="16.4"/>
			</g>
		</g>
		<g>
			<polygon class="st13" points="854.1,439.7 568.4,638.7 854.1,638.7 			"/>
		</g>
		<g>
			<polygon class="st9" points="568.4,439.7 568.4,638.7 854.1,638.7 			"/>
		</g>
	</g>
	<g>
		
			<image style="overflow:visible;" width="392" height="446" xlink:href="6648EEE389326E65.png"  transform="matrix(1 0 0 1 800 325)">
		</image>
		<g>
			<path class="st14" d="M1038.5,811.7h-84.2l0,0c0,22.6,18.3,41,41,41h2.2C1020.1,852.7,1038.5,834.4,1038.5,811.7L1038.5,811.7z"
				/>
		</g>
		<g>
			<g>
				<path class="st15" d="M1041.4,402.6c-2,0-4-0.3-5.9-0.9c-11.7-3.7-24-5.7-36.4-5.8c-10.8-0.1-19.5-9-19.4-19.9
					c0.1-10.8,9.1-19.5,19.9-19.4c16.3,0.2,32.3,2.8,47.8,7.7c10.3,3.3,16.1,14.3,12.8,24.6C1057.4,397.3,1049.7,402.6,1041.4,402.6
					z"/>
			</g>
		</g>
		<g>
			<g>
				<path class="st15" d="M1143.2,541.7c-10.8,0-19.6-8.8-19.6-19.6c0-38.8-17.5-74.9-48-99.1c-8.5-6.7-10-19.1-3.2-27.6
					c6.7-8.5,19.1-10,27.6-3.2c40,31.6,62.9,79,62.9,129.9C1162.9,532.9,1154.1,541.7,1143.2,541.7z"/>
			</g>
		</g>
		<g>
			<path class="st8" d="M965.7,758.9c-1.2,0-2.4-0.8-2.7-2.1l-67-254.7c-0.4-1.5,0.5-3,2-3.4c1.5-0.4,3,0.5,3.4,2l67,254.7
				c0.4,1.5-0.5,3-2,3.4C966.1,758.9,965.9,758.9,965.7,758.9z"/>
		</g>
		<g>
			<path class="st8" d="M1026.4,758.9c1.2,0,2.4-0.8,2.7-2.1l67-254.7c0.4-1.5-0.5-3-2-3.4c-1.5-0.4-3,0.5-3.4,2l-67,254.7
				c-0.4,1.5,0.5,3,2,3.4C1025.9,758.9,1026.1,758.9,1026.4,758.9z"/>
		</g>
		<g>
			<rect x="917" y="742.2" class="st9" width="158.8" height="69.5"/>
		</g>
		<g>
			<g>
				<path class="st16" d="M883.9,565.5c-0.5,0-1.1-0.2-1.5-0.6c-0.8-0.8-0.8-2.2,0-3l21.1-21.1c10.5-10.5,27.6-10.5,38.1,0l2.5,2.5
					c4.3,4.3,10,6.7,16.1,6.7c6.1,0,11.8-2.4,16.1-6.7l1.1-1.1c10.5-10.5,27.6-10.5,38.1,0c4.3,4.3,10,6.7,16.1,6.7
					c6.1,0,11.8-2.4,16.1-6.7l0.5-0.5c10.5-10.5,27.6-10.5,38.1,0l20,20c0.8,0.8,0.8,2.2,0,3c-0.8,0.8-2.2,0.8-3,0l-20-20
					c-8.9-8.9-23.3-8.9-32.2,0l-0.5,0.5c-10.5,10.5-27.6,10.5-38.1,0c-4.3-4.3-10-6.7-16.1-6.7s-11.8,2.4-16.1,6.7l-1.1,1.1
					c-10.5,10.5-27.6,10.5-38.1,0l-2.5-2.5c-8.9-8.9-23.3-8.9-32.2,0l-21.1,21.1C885,565.3,884.4,565.5,883.9,565.5z"/>
			</g>
		</g>
	</g>
	<g>
		<g>
			<path class="st17" d="M640.5,583.5c-1.9,0.3-2.2,1.7-2.2,1.7c-2.2-1.6-2.9,0.5-1.7,1.4c-2.3-0.1-0.4,1.6-0.2,1.7
				c-1.7,2,0.4,13.7,0.4,13.7l13.7-0.4c0,0,5.5-6.2,5.6-6.1c2.6-1.6,3.2-5,1.4-7.1c3.4-2.3-0.3-10-7.2-8.2
				C649.9,577.1,640,576.2,640.5,583.5z"/>
		</g>
		<g>
			<path class="st18" d="M643.6,585.4c0,2.3-1.7,2.9-2.6,2.7c2.6,5.2,0.4,8.3-2.2,8.2c-0.2,1.8-1,2.4-1,2.4l0,6.1
				c0.7,5.6-0.2,11.7-0.5,12.1c-0.3,0.4-3.2,0.9-3.3,1c0.1,3.1,13.3,11.2,21,1.6c-2.8-0.5-3.8-1.4-4-2c-0.3-0.6,0.2-4.9,0.2-4.9
				c2.7-1,5.3-2.9,5.6-7.1c0.3-4.2-0.4-16.4-0.4-16.4C650.1,593.6,644.1,590.3,643.6,585.4z"/>
		</g>
		<image style="overflow:visible;" width="3" height="3" xlink:href="6648EEE389326E66.png"  transform="matrix(1 0 0 1 651 601)">
		</image>
		<g>
			<path class="st18" d="M639.3,603.4c-0.3,1.5-1.7,2.4-3.2,2.1c-1.5-0.3-2.4-1.7-2.1-3.2c0.3-1.5,1.7-2.4,3.2-2.1
				C638.7,600.5,639.6,601.9,639.3,603.4z"/>
		</g>
		<g>
			<g>
				<path class="st19" d="M646.2,601c-0.7-0.1-1.3-0.6-1.5-1.4c0-0.1,0-0.1,0.1-0.1c0.1,0,0.1,0,0.1,0.1c0.2,0.9,1.1,1.3,1.8,1.2
					c0.1,0,0.1,0,0.1,0.1c0,0.1,0,0.1-0.1,0.1C646.6,601,646.4,601,646.2,601z"/>
			</g>
		</g>
		<g>
			<g>
				<path class="st17" d="M642,596C642,596,642,596,642,596c-0.1,0-0.1-0.1-0.1-0.2c1-1.9,3.6-2.7,5.3-2.2c0.1,0,0.1,0.1,0.1,0.1
					c0,0.1-0.1,0.1-0.1,0.1c-1.7-0.4-4.1,0.3-5,2.1C642.1,596,642.1,596,642,596z"/>
			</g>
		</g>
		<g>
			<g>
				<path class="st17" d="M656,595.2C655.9,595.2,655.9,595.1,656,595.2c-0.6-1-2.2-1.5-3.3-1c-0.1,0-0.1,0-0.2-0.1
					c0-0.1,0-0.1,0.1-0.2c1.2-0.6,2.9-0.1,3.5,1C656.1,595,656.1,595.1,656,595.2C656,595.2,656,595.2,656,595.2z"/>
			</g>
		</g>
		<g>
			<g>
				<path class="st17" d="M653.2,603.6C653.2,603.6,653.1,603.6,653.2,603.6c-0.1-0.1-0.1-0.2,0-0.2c0.4-0.2,0.6-0.6,0.6-0.9
					c0-0.3-0.1-0.6-0.1-0.6c-0.1-0.1-0.7,0-1.1,0.1c-0.2,0-0.4,0.1-0.6,0.1c-0.1,0-0.3-0.1-0.4-0.3c-0.5-0.8-1-3.9,0.7-6.3
					c0-0.1,0.1-0.1,0.2,0c0.1,0,0.1,0.1,0,0.2c-1.5,2.2-1.2,5.2-0.7,6c0.1,0.1,0.1,0.2,0.2,0.2c0.2,0,0.4-0.1,0.6-0.1
					c0.7-0.1,1.1-0.2,1.3-0.1c0.1,0.1,0.2,0.5,0.2,0.8C654,602.8,653.8,603.3,653.2,603.6C653.3,603.6,653.2,603.6,653.2,603.6z"/>
			</g>
		</g>
		<g>
			<g>
				<path class="st17" d="M646.8,605.3c-0.3-0.1-0.5-0.2-0.8-0.3c-0.1,0-0.1-0.1-0.1-0.2c0-0.1,0.1-0.1,0.2-0.1
					c2.7,1.3,7.1,1.1,8,0.1c0,0,0.1,0,0.2,0c0,0,0,0.1,0,0.2C653.4,605.9,649.6,606.3,646.8,605.3z"/>
			</g>
		</g>
		<g>
			<g>
				<path class="st19" d="M637.6,604.4c-0.9-0.2-1.2-0.6-1.3-0.9c-0.1-0.3,0-0.7,0.3-0.9c0.3-0.2,0.7-0.4,1.3-0.2
					c-0.4-0.8-1.1-1.3-1.7-1.3c-0.6,0-1,0.2-1.3,0.7c0,0.1-0.1,0.1-0.2,0c-0.1,0-0.1-0.1,0-0.2c0.3-0.6,0.9-0.8,1.5-0.8
					c0.9,0.1,1.7,0.8,2,1.7c0,0,0,0.1,0,0.1c0,0-0.1,0-0.1,0c-0.6-0.2-1-0.1-1.3,0.1c-0.2,0.2-0.3,0.4-0.2,0.7
					c0.1,0.4,0.6,0.6,1.3,0.7c0.1,0,0.1,0.1,0.1,0.1c0,0.1-0.1,0.1-0.1,0.1C637.7,604.4,637.7,604.4,637.6,604.4z"/>
			</g>
		</g>
		<g>
			<g>
				<path class="st19" d="M649.3,608.1c-0.1,0-0.2,0-0.2-0.1c-0.1,0-0.1-0.1-0.1-0.1c0-0.1,0.1-0.1,0.1-0.1c1.8,0.5,3.5-0.3,3.5-0.3
					c0.1,0,0.1,0,0.2,0.1c0,0.1,0,0.1-0.1,0.2C652.7,607.8,651.1,608.5,649.3,608.1z"/>
			</g>
		</g>
		<g>
			<g>
				<path class="st19" d="M646.6,612.8c-4.3-0.9-6.5-4.3-7.2-7.6c0-0.1,0-0.1,0.1-0.1c0.1,0,0.1,0,0.1,0.1c0.8,4,4.2,8.4,10.8,7.5
					c0.1,0,0.1,0,0.1,0.1c0,0.1,0,0.1-0.1,0.1C649.1,613.1,647.8,613.1,646.6,612.8z"/>
			</g>
		</g>
		<g>
			<path class="st17" d="M647.2,598.8c0,0.9-0.4,1.6-0.8,1.6c-0.5,0-0.9-0.7-0.9-1.5c0-0.9,0.4-1.6,0.8-1.6
				C646.8,597.2,647.2,597.9,647.2,598.8z"/>
		</g>
		<g>
			<g>
				<path class="st19" d="M653.6,600.8c-0.7-0.1-1.3-0.6-1.5-1.4c0-0.1,0-0.1,0.1-0.1s0.1,0,0.1,0.1c0.2,0.9,1.1,1.3,1.8,1.2
					c0.1,0,0.1,0,0.1,0.1c0,0.1,0,0.1-0.1,0.1C654,600.8,653.8,600.8,653.6,600.8z"/>
			</g>
		</g>
		<g>
			<path class="st17" d="M654.6,598.6c0,0.9-0.4,1.6-0.8,1.6c-0.5,0-0.9-0.7-0.9-1.5c0-0.9,0.4-1.6,0.8-1.6
				C654.2,597,654.6,597.7,654.6,598.6z"/>
		</g>
		<g>
			<g>
				<path class="st20" d="M643.3,602.8c-0.1,0.1-0.5-0.4-1-1.1c-0.4-0.7-0.7-1.2-0.6-1.3c0.1-0.1,0.5,0.4,1,1.1
					C643.1,602.2,643.4,602.8,643.3,602.8z"/>
			</g>
		</g>
		<g>
			<g>
				<path class="st20" d="M644.5,603.3c-0.1,0.1-0.5-0.4-1-1.1c-0.4-0.7-0.7-1.2-0.6-1.3c0.1-0.1,0.5,0.4,1,1.1
					C644.4,602.6,644.6,603.2,644.5,603.3z"/>
			</g>
		</g>
		<g>
			<g>
				<path class="st20" d="M645.9,603.5c-0.1,0.1-0.5-0.4-1-1.1c-0.4-0.7-0.7-1.2-0.6-1.3s0.5,0.4,1,1.1
					C645.7,602.9,646,603.5,645.9,603.5z"/>
			</g>
		</g>
		<g>
			<g>
				<path class="st18" d="M661.3,829.7l1.6,9.7c-2,5.3-1.1,12.1-1.1,12.1l39.7,0c-4.3-8-22.9-8.6-24.8-12.5
					c-2-3.8-2.8-15.2-2.8-15.2L661.3,829.7z"/>
			</g>
			<g>
				<path class="st17" d="M670.2,839.9c-0.1-1.4,1-6.4,4.6-7.9c0.4,2.7,1.1,5.5,1.8,7c2,3.8,20.6,4.5,24.8,12.5l-39.7,0
					c0,0-0.9-6.7,1.1-12.1C662.9,839.4,670.1,842.4,670.2,839.9z"/>
			</g>
			<g>
				<path class="st21" d="M700.4,849.9c0.4,0.5,0.8,1,1.1,1.5l-39.7,0c0,0-0.1-0.6-0.1-1.6L700.4,849.9z"/>
			</g>
			<g>
				<path class="st21" d="M673.7,840.9c0.1,0,0.2-0.1,0.2-0.2c0,0,0.6-1.6,1.8-2.1c0.5-0.2,1-0.2,1.5,0c0.1,0,0.2,0,0.3-0.1
					c0-0.1,0-0.2-0.1-0.3c-0.7-0.3-1.3-0.3-1.9,0c-1.3,0.6-2,2.3-2,2.4C673.4,840.7,673.5,840.8,673.7,840.9
					C673.7,840.9,673.7,840.9,673.7,840.9z"/>
			</g>
			<g>
				<path class="st21" d="M677.5,843.5c0.1,0,0.2-0.1,0.2-0.2c0,0,0.6-1.6,1.8-2.1c0.5-0.2,1-0.2,1.5,0c0.1,0,0.2,0,0.3-0.1
					c0-0.1,0-0.2-0.1-0.3c-0.7-0.3-1.3-0.3-1.9,0c-1.3,0.6-2,2.3-2,2.4C677.2,843.3,677.3,843.5,677.5,843.5
					C677.4,843.5,677.4,843.5,677.5,843.5z"/>
			</g>
			<g>
				<path class="st21" d="M683.6,845.3c0.1,0,0.2-0.1,0.2-0.2c0,0,0.6-1.6,1.8-2.1c0.5-0.2,1-0.2,1.5,0c0.1,0,0.2,0,0.3-0.1
					c0-0.1,0-0.2-0.1-0.3c-0.7-0.3-1.3-0.3-1.9,0c-1.3,0.6-2,2.3-2,2.4C683.3,845.1,683.4,845.2,683.6,845.3
					C683.6,845.3,683.6,845.3,683.6,845.3z"/>
			</g>
		</g>
		<g>
			<g>
				<path class="st18" d="M609.8,829.7l1.6,9.7c-2,5.3-1.1,12.1-1.1,12.1l39.7,0c-4.3-8-22.9-8.6-24.8-12.5
					c-2-3.8-2.8-15.2-2.8-15.2L609.8,829.7z"/>
			</g>
			<g>
				<path class="st17" d="M618.7,839.9c-0.1-1.4,1-6.4,4.6-7.9c0.4,2.7,1.1,5.5,1.8,7c2,3.8,20.6,4.5,24.8,12.5l-39.7,0
					c0,0-0.9-6.7,1.1-12.1C611.4,839.4,618.6,842.4,618.7,839.9z"/>
			</g>
			<g>
				<path class="st21" d="M648.9,849.9c0.4,0.5,0.8,1,1.1,1.5l-39.7,0c0,0-0.1-0.6-0.1-1.6L648.9,849.9z"/>
			</g>
			<g>
				<path class="st21" d="M622.2,840.9c0.1,0,0.2-0.1,0.2-0.2c0,0,0.6-1.6,1.8-2.1c0.5-0.2,1-0.2,1.5,0c0.1,0,0.2,0,0.3-0.1
					c0-0.1,0-0.2-0.1-0.3c-0.7-0.3-1.3-0.3-1.9,0c-1.3,0.6-2,2.3-2,2.4C621.9,840.7,622,840.8,622.2,840.9
					C622.2,840.9,622.2,840.9,622.2,840.9z"/>
			</g>
			<g>
				<path class="st21" d="M626,843.5c0.1,0,0.2-0.1,0.2-0.2c0,0,0.6-1.6,1.8-2.1c0.5-0.2,1-0.2,1.5,0c0.1,0,0.2,0,0.3-0.1
					c0-0.1,0-0.2-0.1-0.3c-0.7-0.3-1.3-0.3-1.9,0c-1.3,0.6-2,2.3-2,2.4C625.7,843.3,625.8,843.5,626,843.5
					C625.9,843.5,625.9,843.5,626,843.5z"/>
			</g>
			<g>
				<path class="st21" d="M632.1,845.3c0.1,0,0.2-0.1,0.2-0.2c0,0,0.6-1.6,1.8-2.1c0.5-0.2,1-0.2,1.5,0c0.1,0,0.2,0,0.3-0.1
					c0-0.1,0-0.2-0.1-0.3c-0.7-0.3-1.3-0.3-1.9,0c-1.3,0.6-2,2.3-2,2.4C631.8,845.1,631.9,845.2,632.1,845.3
					C632,845.3,632.1,845.3,632.1,845.3z"/>
			</g>
		</g>
		<g>
			<path class="st22" d="M679,691.3c10.6,41.8,5.9,132.8,3.5,145.6h-25.1c2.4-29.7-10.5-97.2-10.5-97.2
				c-3.6,53.2-14.6,96.7-14.6,96.7h-28.1l14.6-143.9l29.7-10.1L679,691.3z"/>
		</g>
		<g>
			<path class="st23" d="M622.9,624c-20.6,21-33.9,59.9,1.6,65.9C660,695.9,622.9,624,622.9,624z"/>
		</g>
		<g>
			<path class="st7" d="M654.7,618.1c5.9,1.1,10.5,4.1,10.5,4.1c9.7,15.2,14.3,71.2,14.3,71.2l-60.9,1c-0.2-4.2-0.8-65.7,4.2-70.4
				c5-4.8,12.7-6.5,12.7-6.5S648.1,617.6,654.7,618.1z"/>
		</g>
		<g>
			<path class="st18" d="M720.9,613.7c-0.5-1.2-3.8-9.1-3.9-10.1c-0.1-1,1.9-10.2,2.3-11s4.1-5.8,4.2-5.9c1.7,0.5,1.7,2.1,1.2,3.9
				c-0.6,1.8-1.6,4.1-1.5,4.4c0.1,0.3,0.2,2.3,0.6,2.2c0.4-0.1,4.6,2,5.7,2.9c1.2,0.8,2.2,2.8,2.1,5.1c-0.1,2.3-3.3,12.1-3.3,12.1
				L720.9,613.7z"/>
		</g>
		<g>
			<path class="st23" d="M658.6,620c7-0.8,19.8,6,28.6,9.5c8.8,3.5,28-1.5,31-20.5c0.9,0.1,11,8.1,11,8.1
				c2.7,8.5-3.1,29.2-21.9,39.4c-18.8,10.2-41.8-1.8-46.2-6.9C653.5,640.7,654.7,625.3,658.6,620z"/>
		</g>
		<g>
			<g>
				<path class="st24" d="M699.2,634.6c0.1,0,0.2-0.1,0.2-0.2c0.1-0.7-0.3-1.8-0.5-2.8c-0.1-0.3-0.2-0.8-0.2-1
					c0.4,0.2,1.2,0.9,1.2,1.4c0,0.1,0.1,0.2,0.2,0.2c0.1,0,0.2-0.1,0.2-0.2c0-0.5-0.7-1.2-1.1-1.5c-0.5-0.4-0.6-0.3-0.7-0.3
					c-0.1,0-0.1,0.1-0.1,0.1c-0.1,0.2,0,0.4,0.2,1.4c0.2,0.8,0.6,2,0.5,2.6C699,634.5,699.1,634.6,699.2,634.6
					C699.2,634.6,699.2,634.6,699.2,634.6z"/>
			</g>
		</g>
		<g>
			<g>
				<path class="st25" d="M646.1,736.1C646.2,736.1,646.2,736.1,646.1,736.1c0.2-0.1,0.3-0.2,0.2-0.4c-0.4-1-0.9-3.7-1.5-6.7
					c-1.2-6.4-2.7-14.3-5-15.4c-3.1-1.6-5-12.6-3.1-17.9c0-0.1,0-0.3-0.2-0.3c-0.1,0-0.3,0-0.3,0.2c-2,5.6,0,16.9,3.3,18.5
					c2,1,3.6,9.1,4.7,15c0.6,3.1,1.1,5.7,1.5,6.8C645.9,736,646,736.1,646.1,736.1z"/>
			</g>
		</g>
		<g>
			<g>
				<path class="st25" d="M678.3,829.2c0.1,0,0.2-0.1,0.3-0.2c0.1-0.9,6-90.7-3.7-133.1c0-0.1-0.2-0.2-0.3-0.2
					c-0.1,0-0.2,0.2-0.2,0.3c9.7,42.3,3.8,132.1,3.7,133C678.1,829.1,678.2,829.2,678.3,829.2C678.3,829.2,678.3,829.2,678.3,829.2z
					"/>
			</g>
		</g>
		<g>
			<g>
				<path class="st25" d="M681.8,832.2c0.1,0,0.3-0.1,0.3-0.3c0-0.1-0.1-0.3-0.3-0.3l-21.6-0.3c-0.1,0-0.3,0.1-0.3,0.3
					c0,0.1,0.1,0.3,0.3,0.3L681.8,832.2C681.8,832.2,681.8,832.2,681.8,832.2z"/>
			</g>
		</g>
		<g>
			<g>
				<path class="st25" d="M631.8,831.1c0.1,0,0.3-0.1,0.3-0.2c0-0.1-0.1-0.3-0.2-0.3l-24.5-0.5c-0.1,0-0.3,0.1-0.3,0.2
					s0.1,0.3,0.2,0.3L631.8,831.1C631.8,831.1,631.8,831.1,631.8,831.1z"/>
			</g>
		</g>
	</g>
	<g>
		<g>
			<g>
				<path class="st18" d="M1309.9,653.6c1-2,2-5.7,1.8-11c-0.3-2-0.6-4.5-1-7.4c-0.2-1.4-0.4-3-0.6-4.6l9.6,2.6
					c-0.2,1.7-0.3,3.3-0.5,4.8c-0.3,3.2-0.2,6.3,0.4,9.5c0.2,0.9,0.4,1.7,0.6,2.2c0.8,1.5,6.3,6.9,8.8,11.5c0.2,0.6,5.9,1.5,5.1,2.8
					c-0.5,0.3-10.4,1.1-11.6,0c-1.1-1.1-3.8-3.7-6.7-4.3c-0.2,0-0.2,4.8-0.2,4.8l-4.3,0c0,0-0.5-4.3-0.7-5.5
					C1310.3,657.5,1308.9,655.5,1309.9,653.6z"/>
			</g>
			<g>
				<path class="st17" d="M1328.9,661.1c-1.8,0.2-3.8,0.6-4.5,0.3c-0.9-0.4-7.1-8-13.8-9.9c-0.3,0.8-0.5,1.5-0.8,2.1
					c-1,2,0.5,3.9,0.7,5.2c0.2,1.3,0.7,5.5,0.7,5.5l4.3,0c0,0,0-4.8,0.2-4.8c3,0.6,5.6,3.3,6.7,4.3c1.1,1.1,11,0.3,11.6,0
					C1334.8,662.5,1329.4,661.7,1328.9,661.1z"/>
			</g>
		</g>
		<g>
			<g>
				<path class="st18" d="M1316.6,591.5c1.5-1.6,3.5-4.9,4.8-10.1c0.3-2,0.7-4.5,1.1-7.4c0.2-1.4,0.5-3,0.7-4.6l8.5,5.2
					c-0.6,1.6-1.2,3.1-1.8,4.5c-1.2,2.9-2,6-2.3,9.2c-0.1,1-0.1,1.8-0.1,2.2c0.3,1.7,4.1,8.4,5.2,13.5c0.1,0.6,5.3,3.1,4.1,4.1
					c-0.6,0.1-10.3-1.9-11.1-3.3c-0.8-1.3-2.6-4.6-5.2-6c-0.2,0-1.5,4.6-1.5,4.6l-4.1-1.2c0,0,0.7-4.2,0.9-5.5
					C1315.9,595.4,1315.1,593.1,1316.6,591.5z"/>
			</g>
			<g>
				<path class="st17" d="M1332.8,604.1c-1.8-0.3-3.8-0.5-4.4-1c-0.8-0.7-4.5-9.7-10.5-13.4c-0.5,0.7-0.9,1.3-1.4,1.7
					c-1.5,1.6-0.7,3.9-0.8,5.2c-0.2,1.3-0.9,5.5-0.9,5.5l4.1,1.2c0,0,1.3-4.6,1.5-4.6c2.7,1.4,4.5,4.7,5.2,6
					c0.8,1.3,10.5,3.4,11.1,3.3C1338,607.1,1333.1,604.8,1332.8,604.1z"/>
			</g>
		</g>
		<g>
			<path class="st17" d="M1261.9,456.9c-1.3,3.5-10.5,11.2-17.5,8.5s-14.1,5.4-10.5,10.6c-3.3,4.1-1.1,15.2,11.3,16.7
				s21.1-20.4,21.4-33C1265.3,456.7,1261.9,456.9,1261.9,456.9z"/>
		</g>
		<g>
			<path class="st23" d="M1279.7,478.9c13.5,6.1,11.1,37,49.3,6.6l4.1,5.7c-6.1,11.8-20.4,27.7-37.7,27s-26.2-11.2-26.2-11.2
				L1279.7,478.9z"/>
		</g>
		<g>
			<path class="st7" d="M1273.7,478l6,0.9c0.8,8.2,8.2,17.1,8.6,21.7c0.4,4.6-5.6,11.4-8,15.7c-2.4,4.3-2.4,8.1-2.4,8.1h-25.2
				c0-1.1-6.1-29.4-5.3-36.4c0.8-7,9.7-9.6,9.7-9.6S1266.2,479.2,1273.7,478z"/>
		</g>
		<g>
			<path class="st18" d="M1329.8,486.6c0.5-1.5,1.2-4.9,1.3-6.6c0.1-1.8,1.8-4.6,4.3-4.7c2.5-0.1,5.4-4.2,5.7-4.3
				c1.3,0.7,0.8,3.8-0.5,4.8c-1.4,1-3.1,5-3.2,5.2c-0.1,0.2-4.5,9.9-4.5,9.9L1329.8,486.6z"/>
		</g>
		<g>
			<g>
				<path class="st17" d="M1265.4,469c-6.1,1.1-9.6-4.6-7.8-9c-0.5-9.1,3.4-18.1,17-13.2c6.8,0.8,9.4,9.8,3.8,12.1
					C1271,465.5,1265.4,469,1265.4,469z"/>
			</g>
			<g>
				<path class="st18" d="M1270.8,472.5c-0.4,2.5-0.6,3.1,3,5.5c-0.1,11.4-16.7,2.1-16.6,0.4c0-0.2,3.1-0.9,4.2-2.9
					c1.1-2,1.6-6.9,1.2-13.6c2.6,0.7,3.5-1.4,3.5-4.9c0.1-3.5,1.7-9.2,8.6-8.3c2.6,3.2,4,5.2,3.8,9.3c-0.2,4.1,0.2,7.1-0.2,9
					C1277.8,469,1275.7,472.6,1270.8,472.5z"/>
			</g>
			<g>
				<g>
					<path class="st19" d="M1270.3,466.4c3.1-1.3,6.2-1.3,5.9-0.2C1276.4,468.9,1273,471.8,1270.3,466.4z"/>
				</g>
			</g>
			
				<image style="overflow:visible;" width="3" height="3" xlink:href="6648EEE389326E67.png"  transform="matrix(1 0 0 1 1274 462)">
			</image>
			<g>
				<path class="st18" d="M1259.2,463.3c0,1.2,0.9,2.1,2.1,2.1c1.2,0,2.1-0.9,2.1-2.1s-0.9-2.1-2.1-2.1
					C1260.1,461.2,1259.2,462.2,1259.2,463.3z"/>
			</g>
			<g>
				<g>
					<path class="st19" d="M1261.7,464.4c0.1,0,0.1,0,0.1-0.1c0-0.1,0-0.2-0.1-0.2c-0.2-0.1-0.3-0.2-0.3-0.3c0-0.1,0.1-0.3,0.2-0.4
						c0.2-0.1,0.3-0.1,0.5,0c0,0,0.1,0,0.1,0s0.1-0.1,0.1-0.1c0-0.5-0.4-0.9-0.9-1.1c-0.5-0.2-1.1,0-1.4,0.4c0,0.1,0,0.1,0,0.2
						c0.1,0,0.1,0,0.2,0c0.3-0.4,0.8-0.4,1.1-0.3c0.3,0.1,0.6,0.3,0.7,0.6c-0.2,0-0.4,0-0.5,0.1c-0.2,0.1-0.4,0.4-0.3,0.6
						C1261.2,464,1261.3,464.3,1261.7,464.4C1261.7,464.4,1261.7,464.4,1261.7,464.4z"/>
				</g>
			</g>
			<g>
				<g>
					<path class="st19" d="M1270.4,472.5C1270.4,472.5,1270.4,472.5,1270.4,472.5c-3.5-1-6.3-3.9-7.2-7.5c0-0.1,0-0.1,0.1-0.2
						c0.1,0,0.1,0,0.2,0.1c0.8,3.5,3.6,6.3,7,7.3c0.1,0,0.1,0.1,0.1,0.2C1270.5,472.5,1270.5,472.5,1270.4,472.5z"/>
				</g>
			</g>
			<g>
				<g>
					<path class="st17" d="M1267,457.3c0,0-0.1,0-0.1-0.1c0-0.1,0-0.1,0.1-0.2c1.2-1.7,3.7-3,4.7-0.8c0,0.1,0.1,0.1,0.1,0.2
						c0,0.1-0.1,0.1-0.2,0.1C1270.9,456.3,1268.8,456.3,1267,457.3C1267,457.3,1267,457.3,1267,457.3z"/>
				</g>
			</g>
			<g>
				<g>
					<path class="st17" d="M1278,457.5c0,0-0.1,0-0.1-0.1c0,0-0.6-0.7-2.3-0.5c-0.1,0-0.1,0-0.2-0.1c0-0.1,0.1-0.1,0.1-0.2
						c1-2.1,2.5,0.5,2.6,0.6C1278.2,457.3,1278.2,457.4,1278,457.5C1278.1,457.4,1278.1,457.5,1278,457.5z"/>
				</g>
			</g>
			<g>
				<g>
					<path class="st17" d="M1274.9,464.7c0,0-0.1,0-0.1-0.1c0-0.1,0-0.1,0-0.2c0.7-0.6,1.5-1.2,1.6-1.5c-0.1,0-0.4,0-0.6,0
						c-0.5,0-1,0-1.4-0.2c-0.7-0.4,0-3.5,0.6-4.9c0-0.1,0.1-0.1,0.2-0.1c0.1,0,0.1,0.1,0.1,0.2c-0.7,1.7-1.2,4.3-0.7,4.6
						c0.3,0.2,0.8,0.2,1.2,0.2c0.5,0,0.9,0,0.9,0.3C1276.8,463.2,1275.8,464,1274.9,464.7C1274.9,464.6,1274.9,464.7,1274.9,464.7z"
						/>
				</g>
			</g>
			<g>
				<path class="st17" d="M1270.8,460.1c0,0.8-0.4,1.5-0.8,1.5s-0.8-0.7-0.8-1.5c0-0.8,0.4-1.5,0.8-1.5S1270.8,459.3,1270.8,460.1z"
					/>
			</g>
			<g>
				<g>
					<path class="st19" d="M1269.8,462.1c-0.3,0-0.9-0.1-1.1-1.2c0,0,0-0.1,0.1-0.1s0.1,0,0.1,0.1c0.2,1,0.8,1.1,1,1
						c0,0,0.1,0,0.1,0.1C1269.9,462,1269.9,462.1,1269.8,462.1C1269.8,462.1,1269.8,462.1,1269.8,462.1z"/>
				</g>
			</g>
			<g>
				<path class="st17" d="M1277,460.3c0,0.8-0.4,1.5-0.8,1.5s-0.8-0.7-0.8-1.5c0-0.8,0.4-1.5,0.8-1.5S1277,459.5,1277,460.3z"/>
			</g>
			<g>
				<g>
					<path class="st19" d="M1276,462.2c-0.3,0-0.9-0.1-1.1-1.2c0,0,0-0.1,0.1-0.1s0.1,0,0.1,0.1c0.2,1,0.8,1.1,1,1
						c0,0,0.1,0,0.1,0.1C1276.1,462.2,1276.1,462.2,1276,462.2C1276,462.2,1276,462.2,1276,462.2z"/>
				</g>
			</g>
			<g>
				<path class="st26" d="M1268.8,463.4c-0.3,0.4-0.5,0.8-0.5,0.9c0.1,0,0.4-0.3,0.7-0.7s0.5-0.8,0.5-0.9
					C1269.5,462.6,1269.2,462.9,1268.8,463.4z"/>
			</g>
			<g>
				<path class="st26" d="M1269.7,463.5c-0.3,0.4-0.5,0.8-0.5,0.9c0.1,0,0.4-0.3,0.7-0.7c0.3-0.4,0.5-0.8,0.5-0.9
					C1270.3,462.7,1270,463,1269.7,463.5z"/>
			</g>
			<g>
				<path class="st26" d="M1270.6,463.6c-0.3,0.4-0.5,0.8-0.5,0.9c0.1,0,0.4-0.3,0.7-0.7c0.3-0.4,0.5-0.8,0.5-0.9
					C1271.2,462.8,1270.9,463.1,1270.6,463.6z"/>
			</g>
			<g>
				<circle class="st27" cx="1261.8" cy="466.2" r="1"/>
			</g>
			<g>
				<g>
					<path class="st19" d="M1273.5,470.6c0.3,0,0.7,0,1.2-0.2c0.1,0,0.1-0.1,0.1-0.1c0-0.1-0.1-0.1-0.1-0.1
						c-0.9,0.3-1.7,0.1-1.7,0.1c-0.1,0-0.1,0-0.1,0.1c0,0.1,0,0.1,0.1,0.1C1272.8,470.5,1273.1,470.6,1273.5,470.6z"/>
				</g>
			</g>
			<g>
				<g>
					<path class="st17" d="M1270.3,466.4l5.9-0.2C1276.2,468.9,1272.3,470.1,1270.3,466.4z"/>
				</g>
				<g>
					<path class="st28" d="M1275.1,468.2c-0.8-1.1-1.9-1.6-1.9-1.6l-1.8-0.3l-1.1,0C1271.6,468.9,1273.8,469.1,1275.1,468.2z"/>
				</g>
				<g>
					<path class="st27" d="M1276.2,466.2l-5.9,0.2C1271.7,467.4,1275.3,467.6,1276.2,466.2z"/>
				</g>
			</g>
		</g>
		<g>
			<path class="st29" d="M1278.7,526.3c0,0,7.9,6.9,9.2,6.9c1.4,0,30.8-24,40.9-23c10.1,1,14.2,12.5,11.8,27
				c-2.4,14.5-9.6,52.9-9.6,52.9l-20.4-5.6c0,0,9.5-43.9,7.1-42.6c-2.4,1.4-23,17.6-23,17.6l-29.7-4.1l1.4-27l6.9-3.2L1278.7,526.3z
				"/>
		</g>
		<g>
			<g>
				<path class="st30" d="M1331.2,583.5c0.1,0,0.3-0.1,0.3-0.2c0.1-0.2,0-0.4-0.2-0.4l-15.5-4.6c-0.2-0.1-0.4,0-0.4,0.2
					c-0.1,0.2,0,0.4,0.2,0.4L1331.2,583.5C1331.2,583.5,1331.2,583.5,1331.2,583.5z"/>
			</g>
		</g>
		<g>
			<path class="st22" d="M1253.5,526.1c0,0-11.2,18.9-5.4,32.8c5.7,13.9,41.6,15.5,44.9,23.7c3.4,8.1,13.7,62.9,13.7,62.9h23.5
				c0,0-4.2-58.3-12.8-74c-8.6-15.7-33.5-27.4-37-29.9c-3.5-2.5-7.1-16.2-7.1-16.2L1253.5,526.1z"/>
		</g>
		<g>
			
				<rect x="1252.3" y="523.9" transform="matrix(-1 -1.224647e-16 1.224647e-16 -1 2531.0474 1050.1418)" class="st17" width="26.4" height="2.4"/>
		</g>
		<g>
			<rect x="1264.1" y="523" class="st22" width="1.3" height="3.8"/>
		</g>
		<g>
			<rect x="1255.1" y="523" class="st22" width="1.3" height="3.8"/>
		</g>
		<g>
			<g>
				<path class="st30" d="M1255.7,543.8C1255.7,543.8,1255.7,543.8,1255.7,543.8c5.9-1.4,8.8-7.7,7.4-16.1c0-0.2-0.2-0.3-0.4-0.3
					c-0.2,0-0.3,0.2-0.3,0.4c1.3,8-1.4,14-6.9,15.3c-0.2,0-0.3,0.2-0.2,0.4C1255.4,543.7,1255.6,543.8,1255.7,543.8z"/>
			</g>
		</g>
		<g>
			<g>
				<path class="st30" d="M1313.3,639.3C1313.3,639.3,1313.4,639.3,1313.3,639.3c0.2,0,0.4-0.2,0.3-0.4c-0.4-2.1-9.9-52-14.7-61.8
					c-3.2-6.4-16-9.6-26.2-12.3c-5.9-1.5-11-2.8-13.2-4.4c-6.3-4.5-5.6-19.7-2.7-32.4c0-0.2-0.1-0.3-0.2-0.4c-0.2,0-0.3,0.1-0.4,0.2
					c-2.9,13-3.6,28.5,3,33.1c2.3,1.6,7.5,3,13.5,4.5c10.1,2.6,22.8,5.8,25.8,11.9c4.8,9.6,14.6,61.1,14.7,61.6
					C1313,639.2,1313.2,639.3,1313.3,639.3z"/>
			</g>
		</g>
		<g>
			<g>
				<path class="st30" d="M1328.9,640.5c0.2,0,0.3-0.1,0.3-0.3c0-0.2-0.1-0.3-0.3-0.3l-21.8-0.1c0,0,0,0,0,0c-0.2,0-0.3,0.1-0.3,0.3
					c0,0.2,0.1,0.3,0.3,0.3L1328.9,640.5C1328.9,640.5,1328.9,640.5,1328.9,640.5z"/>
			</g>
		</g>
		<g>
			<g>
				<g>
					<path class="st18" d="M1236.3,508.4c0,0-3.6,11.9-3.4,22.4c0.2,10.5,5,24.9,5,26.5c0.2,4.4,3.8,6.7,6.5,6.3
						c2.6-0.3,4.3-0.7,4.6-0.1c0.3,0.9,2.1,2.4,2.9,2.1c1,0.6,1.6,0.3,1.6,0.3c0.7,0.5,1.4-0.2,1.4-0.2s0-2.2-0.2-2.7
						c-0.2-0.4-0.7-1.9-0.7-1.9s1.1,1,1.2,1.6c0.1,0.5-0.1,2.3,0.7,2.5c0.5-1.6,0.4-3.1,0.3-3.8c-0.1-0.8-1.8-3.5-3.3-3.8
						c-1.5-0.3-7.4-0.2-7.9-0.7c-0.4-0.5,1.4-27,1.9-29.5c0.5-2.5,5.4-16.6,5.4-16.6L1236.3,508.4z"/>
				</g>
				<g>
					<g>
						<path class="st19" d="M1253.7,560.7c0,0-0.1,0-0.1-0.1l-0.9-0.9c-0.1-0.1-0.1-0.2,0-0.2c0.1-0.1,0.2-0.1,0.2,0l0.9,0.9
							c0.1,0.1,0.1,0.2,0,0.2C1253.7,560.6,1253.7,560.7,1253.7,560.7z"/>
					</g>
				</g>
				<g>
					<g>
						<path class="st19" d="M1253.4,565.2c0,0-0.3-2.1-0.4-2.3c0-0.2-0.7-1.1-1.2-1.9c-0.1-0.1,0-0.2,0-0.2s0.2,0,0.2,0
							c0.4,0.5,1.3,1.8,1.3,2c0,0.2,0.4,2.3,0.4,2.3L1253.4,565.2z"/>
					</g>
				</g>
				<g>
					<g>
						<path class="st19" d="M1251.9,565.1c-0.1,0-0.1,0-0.1-0.1c0,0-0.4-1.2-0.5-1.4c-0.1-0.1-0.7-0.9-1.3-1.6c-0.1-0.1,0-0.2,0-0.2
							c0.1-0.1,0.2,0,0.2,0c0.3,0.4,1.3,1.5,1.3,1.7c0.1,0.2,0.5,1.4,0.5,1.4C1252.1,565,1252,565.1,1251.9,565.1
							C1251.9,565.1,1251.9,565.1,1251.9,565.1z"/>
					</g>
				</g>
			</g>
			<g>
				<path class="st23" d="M1251,481.9c8.1,5.8,7.1,18.2,3,28.1c-4.1,9.9-7.4,20-7.4,39.3c-7.9,1.5-10.9,0.5-10.9,0.5
					s-6.1-17.5-2.5-34.7C1236.8,497.9,1244.4,481.9,1251,481.9z"/>
			</g>
		</g>
	</g>
</g>
</svg>
