<?xml version="1.0" encoding="utf-8"?>
<!-- Generator: Adobe Illustrator 25.2.3, SVG Export Plug-In . SVG Version: 6.00 Build 0)  -->
<svg version="1.1" id="Layer_1" xmlns="http://www.w3.org/2000/svg" xmlns:xlink="http://www.w3.org/1999/xlink" x="0px" y="0px"
	 viewBox="0 0 1500 1062" style="enable-background:new 0 0 1500 1062;" xml:space="preserve">
<style type="text/css">
	.st0{fill:#FFFFFF;}
	.st1{fill:#C2D4EA;}
	.st2{fill:#2C4482;}
	.st3{fill:#486ED1;}
	.st4{fill:#3B65C4;}
	.st5{fill:#E2EAF5;}
	.st6{fill:#092140;}
	.st7{fill:#EF487C;}
	.st8{fill:#52517B;}
	.st9{fill:#45446C;}
	.st10{fill:#2C2B57;}
	.st11{fill:#F2F2F2;}
	.st12{opacity:0.5;fill:#60C0FD;}
	.st13{fill:#8DB0DA;}
	.st14{fill:#7374A4;}
	.st15{fill:#FF5C98;}
	.st16{fill:#9E7456;}
	.st17{fill:#BC9371;}
	.st18{fill:#FFAA81;}
	.st19{fill:#CEAB8B;}
	.st20{fill:#915151;}
	.st21{fill:#FFC2B0;}
	.st22{fill:#492817;}
	.st23{fill:#C4DCE8;}
	.st24{fill:#D1E7F4;}
	.st25{fill:#60C0FD;}
	.st26{fill:#82AACE;}
	.st27{fill:#3B3B7A;}
	.st28{fill:#824444;}
	.st29{fill:#465DAF;}
	.st30{fill:#E6E6E6;}
	.st31{fill:#4040A0;}
	.st32{fill:#7A8EFF;}
	.st33{fill:#D64377;}
	.st34{fill:#FF7FAF;}
	.st35{fill:#F0A32F;}
	.st36{fill:#34B2E4;}
	.st37{fill:#FE912A;}
	.st38{fill:#1F4A6F;}
	.st39{fill:#BD0006;}
	.st40{fill:#A7C4E4;}
	.st41{fill:#CCCCCC;}
	.st42{fill:#FCBD24;}
	.st43{fill:#F8C22E;}
	.st44{fill:#230E04;}
	.st45{fill:#808080;}
	.st46{fill:#B3B3B3;}
</style>
<rect x="0" class="st0" width="1500" height="1062"/>
<path class="st1" d="M472.17,733.13V313.34c0-4.07,3.3-7.37,7.37-7.37h620.9c4.07,0,7.37,3.3,7.37,7.37v419.79
	c0,4.07-3.3,7.37-7.37,7.37h-620.9C475.47,740.5,472.17,737.2,472.17,733.13z"/>
<path class="st2" d="M1101.61,689.87H478.36c-3.41,0-6.2-2.79-6.2-6.2V312.17c0-3.41,2.79-6.2,6.2-6.2h623.25
	c3.41,0,6.2,2.79,6.2,6.2v371.5C1107.81,687.09,1105.02,689.87,1101.61,689.87z"/>
<path class="st3" d="M1068.94,660.41H509.32c-8.25,0-14.93-6.7-14.91-14.95l0.82-299.28c0.02-8.22,6.69-14.87,14.91-14.87h559.62
	c8.25,0,14.93,6.7,14.91,14.95l-0.82,299.28C1083.82,653.76,1077.15,660.41,1068.94,660.41z"/>
<path class="st4" d="M1028.36,449.13c-48.97,71.23-109.7,134.32-179.23,185.7c-12.04,8.9-24.34,17.42-36.88,25.58h256.69
	c8.22,0,14.89-6.65,14.91-14.87l0.8-292.29C1068.19,386.49,1049.38,418.55,1028.36,449.13z"/>
<path class="st2" d="M1235.79,857.46h-49.86H370.43h-26.25c0,0,0,0,0,0v8.29c0,4.64,3.89,4.31,3.89,4.31h22.36h815.49h45.97
	c0,0,3.89,0.33,3.89-4.31L1235.79,857.46C1235.79,857.46,1235.79,857.46,1235.79,857.46z"/>
<path class="st5" d="M1233.66,859.88H346.32c-1.95,0-2.88-2.4-1.43-3.71l127.16-114.99c0.39-0.35,0.9-0.55,1.43-0.55h633.02
	c0.53,0,1.04,0.2,1.43,0.55l127.16,114.99C1236.53,857.48,1235.61,859.88,1233.66,859.88z"/>
<path class="st1" d="M915.87,846.99H664.18c-3.29,0-4.59-2.56-2.94-5.61l12.49-23.12c1.31-2.43,4.69-4.38,7.53-4.38h217.52
	c2.84,0,6.22,1.95,7.53,4.38l12.49,23.12C920.46,844.44,919.15,846.99,915.87,846.99z"/>
<g>
	<g>
		<g>
			<path class="st1" d="M532.36,752.12H507.6c-3.45,0-5.55-0.64-4.7-1.43l2.51-2.31c0.83-0.77,4.25-1.39,7.64-1.39h24.28
				c3.39,0,5.54,0.62,4.82,1.39l-2.19,2.31C539.21,751.48,535.81,752.12,532.36,752.12z"/>
		</g>
		<g>
			<path class="st1" d="M574.1,752.12h-24.75c-3.45,0-5.65-0.64-4.92-1.43l2.15-2.31c0.71-0.77,4.04-1.39,7.42-1.39h24.28
				c3.39,0,5.64,0.62,5.03,1.39l-1.83,2.31C580.86,751.48,577.55,752.12,574.1,752.12z"/>
		</g>
		<g>
			<path class="st1" d="M615.84,752.12h-24.75c-3.45,0-5.75-0.64-5.15-1.43l1.79-2.31c0.59-0.77,3.82-1.39,7.2-1.39h24.28
				c3.39,0,5.74,0.62,5.25,1.39l-1.46,2.31C622.5,751.48,619.29,752.12,615.84,752.12z"/>
		</g>
		<g>
			<path class="st1" d="M657.59,752.12h-24.75c-3.45,0-5.85-0.64-5.37-1.43l1.42-2.31c0.47-0.77,3.6-1.39,6.98-1.39h24.28
				c3.39,0,5.83,0.62,5.47,1.39l-1.1,2.31C664.14,751.48,661.04,752.12,657.59,752.12z"/>
		</g>
		<g>
			<path class="st1" d="M699.33,752.12h-24.75c-3.45,0-5.96-0.64-5.59-1.43l1.06-2.31c0.35-0.77,3.38-1.39,6.77-1.39h24.28
				c3.39,0,5.93,0.62,5.69,1.39l-0.74,2.31C705.78,751.48,702.78,752.12,699.33,752.12z"/>
		</g>
		<g>
			<path class="st1" d="M741.07,752.12h-24.75c-3.45,0-6.06-0.64-5.82-1.43l0.7-2.31c0.23-0.77,3.16-1.39,6.55-1.39h24.28
				c3.39,0,6.03,0.62,5.9,1.39l-0.38,2.31C747.43,751.48,744.52,752.12,741.07,752.12z"/>
		</g>
		<g>
			<path class="st1" d="M782.81,752.12h-24.75c-3.45,0-6.16-0.64-6.04-1.43l0.34-2.31c0.11-0.77,2.95-1.39,6.33-1.39h24.28
				c3.39,0,6.13,0.62,6.12,1.39l-0.01,2.31C789.07,751.48,786.27,752.12,782.81,752.12z"/>
		</g>
		<g>
			<path class="st1" d="M824.56,752.12h-24.75c-3.45,0-6.26-0.64-6.27-1.43l-0.03-2.31c-0.01-0.77,2.73-1.39,6.11-1.39h24.28
				c3.39,0,6.22,0.62,6.34,1.39l0.35,2.31C830.71,751.48,828.01,752.12,824.56,752.12z"/>
		</g>
		<g>
			<path class="st1" d="M866.3,752.12h-24.75c-3.45,0-6.36-0.64-6.49-1.43l-0.39-2.31c-0.13-0.77,2.51-1.39,5.9-1.39h24.28
				c3.39,0,6.32,0.62,6.56,1.39l0.71,2.31C872.35,751.48,869.75,752.12,866.3,752.12z"/>
		</g>
		<g>
			<path class="st1" d="M908.04,752.12h-24.75c-3.45,0-6.46-0.64-6.71-1.43l-0.75-2.31c-0.25-0.77,2.29-1.39,5.68-1.39h24.28
				c3.39,0,6.42,0.62,6.77,1.39l1.07,2.31C914,751.48,911.5,752.12,908.04,752.12z"/>
		</g>
		<g>
			<path class="st1" d="M949.79,752.12h-24.75c-3.45,0-6.56-0.64-6.94-1.43l-1.11-2.31c-0.37-0.77,2.08-1.39,5.46-1.39h24.28
				c3.39,0,6.51,0.62,6.99,1.39l1.44,2.31C955.64,751.48,953.24,752.12,949.79,752.12z"/>
		</g>
		<g>
			<path class="st1" d="M991.53,752.12h-24.75c-3.45,0-6.66-0.64-7.16-1.43l-1.48-2.31c-0.49-0.77,1.86-1.39,5.24-1.39h24.28
				c3.39,0,6.61,0.62,7.21,1.39l1.8,2.31C997.28,751.48,994.98,752.12,991.53,752.12z"/>
		</g>
		<g>
			<path class="st1" d="M1033.27,752.12h-24.75c-3.45,0-6.76-0.64-7.39-1.43l-1.84-2.31c-0.61-0.77,1.64-1.39,5.03-1.39h24.28
				c3.39,0,6.71,0.62,7.43,1.39l2.16,2.31C1038.92,751.48,1036.73,752.12,1033.27,752.12z"/>
		</g>
		<g>
			<path class="st1" d="M1075.02,752.12h-24.75c-3.45,0-6.86-0.64-7.61-1.43l-2.2-2.31c-0.73-0.77,1.42-1.39,4.81-1.39h24.28
				c3.39,0,6.81,0.62,7.65,1.39l2.52,2.31C1080.57,751.48,1078.47,752.12,1075.02,752.12z"/>
		</g>
		<g>
			<path class="st1" d="M526.58,760.94h-32.01c-0.8,0-1.28-0.15-1.07-0.34l7.98-7.37c0.19-0.18,0.98-0.32,1.75-0.32h31.07
				c0.77,0,1.26,0.14,1.09,0.32l-7.04,7.37C528.17,760.79,527.38,760.94,526.58,760.94z"/>
		</g>
		<g>
			<path class="st1" d="M582.62,770.87h-33.17c-0.83,0-1.35-0.16-1.18-0.37l6.73-7.9c0.16-0.19,0.94-0.35,1.74-0.35h32.16
				c0.8,0,1.34,0.15,1.2,0.35l-5.73,7.9C584.24,770.7,583.45,770.87,582.62,770.87z"/>
		</g>
		<g>
			<path class="st1" d="M584.85,781.54h-34.41c-0.86,0-1.41-0.18-1.23-0.4l6.95-8.49c0.17-0.21,0.98-0.37,1.81-0.37h33.33
				c0.83,0,1.39,0.17,1.25,0.37l-5.87,8.49C586.52,781.36,585.71,781.54,584.85,781.54z"/>
		</g>
		<g>
			<path class="st1" d="M601.1,793.04h-35.75c-0.89,0-1.47-0.19-1.3-0.43l6.77-9.16c0.16-0.22,0.99-0.4,1.86-0.4h34.58
				c0.86,0,1.45,0.18,1.31,0.4l-5.61,9.16C602.83,792.85,601.99,793.04,601.1,793.04z"/>
		</g>
		<g>
			<path class="st1" d="M482.32,806.9h-37.15c-0.99,0-1.55-0.22-1.25-0.49l12.2-11.27c0.27-0.25,1.27-0.46,2.22-0.46h35.74
				c0.95,0,1.52,0.21,1.28,0.46l-10.77,11.27C484.32,806.68,483.31,806.9,482.32,806.9z"/>
		</g>
		<g>
			<path class="st1" d="M531.94,806.9h-37.15c-0.99,0-1.58-0.22-1.33-0.49l10.46-11.27c0.24-0.25,1.2-0.46,2.15-0.46h35.74
				c0.95,0,1.56,0.21,1.35,0.46l-9.03,11.27C533.9,806.68,532.92,806.9,531.94,806.9z"/>
		</g>
		<g>
			<path class="st1" d="M580.06,806.9H542.9c-0.99,0-1.62-0.22-1.4-0.49l8.77-11.27c0.2-0.25,1.13-0.46,2.08-0.46h35.74
				c0.95,0,1.59,0.21,1.42,0.46l-7.34,11.27C581.99,806.68,581.04,806.9,580.06,806.9z"/>
		</g>
		<g>
			<path class="st1" d="M640.7,806.9h-49.03c-1.13,0-1.88-0.25-1.69-0.56l6.98-11.14c0.18-0.29,1.21-0.52,2.29-0.52h47.16
				c1.09,0,1.86,0.23,1.72,0.52L643,806.34C642.86,806.65,641.83,806.9,640.7,806.9z"/>
		</g>
		<g>
			<path class="st1" d="M942.29,806.9h-49.03c-1.13,0-2.12-0.25-2.22-0.56l-3.49-11.14c-0.09-0.29,0.72-0.52,1.8-0.52h47.16
				c1.09,0,2.08,0.23,2.22,0.52l5.34,11.14C944.21,806.65,943.42,806.9,942.29,806.9z"/>
		</g>
		<g>
			<path class="st1" d="M991.92,806.9h-36.63c-0.98,0-1.89-0.22-2.03-0.49l-5.73-11.28c-0.13-0.25,0.53-0.46,1.48-0.46h35.23
				c0.94,0,1.84,0.2,2,0.46l7.14,11.28C993.56,806.68,992.9,806.9,991.92,806.9z"/>
		</g>
		<g>
			<path class="st1" d="M881.04,806.9H654.82c-2.37,0-4.06-0.53-3.78-1.18l4.34-9.94c0.27-0.61,2.33-1.1,4.61-1.1h217.59
				c2.28,0,4.28,0.49,4.46,1.1l2.93,9.94C885.18,806.37,883.41,806.9,881.04,806.9z"/>
		</g>
		<g>
			<path class="st1" d="M647.52,793.04h-35.75c-0.89,0-1.5-0.19-1.36-0.43l5.38-9.16c0.13-0.22,0.93-0.4,1.79-0.4h34.58
				c0.86,0,1.48,0.18,1.38,0.4l-4.22,9.16C649.22,792.85,648.41,793.04,647.52,793.04z"/>
		</g>
		<g>
			<path class="st1" d="M693.94,793.04h-35.75c-0.89,0-1.53-0.19-1.43-0.43l4-9.16c0.1-0.22,0.87-0.4,1.73-0.4h34.58
				c0.86,0,1.5,0.18,1.44,0.4l-2.84,9.16C695.61,792.85,694.83,793.04,693.94,793.04z"/>
		</g>
		<g>
			<path class="st1" d="M740.36,793.04h-35.75c-0.89,0-1.56-0.19-1.49-0.43l2.61-9.16c0.06-0.22,0.81-0.4,1.67-0.4H742
				c0.86,0,1.53,0.18,1.5,0.4l-1.45,9.16C742.01,792.85,741.25,793.04,740.36,793.04z"/>
		</g>
		<g>
			<path class="st1" d="M786.78,793.04h-35.75c-0.89,0-1.59-0.19-1.55-0.43l1.23-9.16c0.03-0.22,0.75-0.4,1.61-0.4h34.58
				c0.86,0,1.56,0.18,1.56,0.4l-0.07,9.16C788.4,792.85,787.67,793.04,786.78,793.04z"/>
		</g>
		<g>
			<path class="st1" d="M833.21,793.04h-35.75c-0.89,0-1.62-0.19-1.62-0.43l-0.16-9.16c0-0.22,0.69-0.4,1.55-0.4h34.58
				c0.86,0,1.59,0.18,1.62,0.4l1.32,9.16C834.79,792.85,834.1,793.04,833.21,793.04z"/>
		</g>
		<g>
			<path class="st1" d="M879.63,793.04h-35.75c-0.89,0-1.64-0.19-1.68-0.43l-1.54-9.16c-0.04-0.22,0.63-0.4,1.49-0.4h34.58
				c0.86,0,1.61,0.18,1.68,0.4l2.7,9.16C881.18,792.85,880.52,793.04,879.63,793.04z"/>
		</g>
		<g>
			<path class="st1" d="M926.05,793.04H890.3c-0.89,0-1.67-0.19-1.75-0.43l-2.93-9.16c-0.07-0.22,0.57-0.4,1.43-0.4h34.58
				c0.86,0,1.64,0.18,1.74,0.4l4.09,9.16C927.58,792.85,926.94,793.04,926.05,793.04z"/>
		</g>
		<g>
			<path class="st1" d="M972.47,793.04h-35.75c-0.89,0-1.7-0.19-1.81-0.43l-4.31-9.16c-0.1-0.22,0.51-0.4,1.37-0.4h34.58
				c0.86,0,1.67,0.18,1.8,0.4l5.47,9.16C973.97,792.85,973.36,793.04,972.47,793.04z"/>
		</g>
		<g>
			<path class="st1" d="M1035.88,807.1h-28.42c-3.61,0-7.07-0.81-7.72-1.8l-1.88-2.87c-0.63-0.97,1.72-1.75,5.27-1.75h27.85
				c3.54,0,7.02,0.78,7.78,1.75l2.25,2.87C1041.78,806.29,1039.49,807.1,1035.88,807.1z"/>
		</g>
		<g>
			<path class="st1" d="M1084.57,807.1h-28.42c-3.61,0-7.2-0.81-8-1.8l-2.32-2.87c-0.78-0.97,1.46-1.75,5-1.75h27.85
				c3.54,0,7.14,0.78,8.05,1.75l2.69,2.87C1090.36,806.29,1088.19,807.1,1084.57,807.1z"/>
		</g>
		<g>
			<path class="st1" d="M1077.99,799.91h-27.78c-3.53,0-7.02-0.77-7.79-1.72l-2.22-2.75c-0.75-0.93,1.46-1.67,4.92-1.67h27.24
				c3.46,0,6.97,0.75,7.84,1.67l2.57,2.75C1083.67,799.14,1081.53,799.91,1077.99,799.91z"/>
		</g>
		<g>
			<path class="st1" d="M1133.27,807.1h-28.42c-3.61,0-7.32-0.81-8.27-1.8l-2.75-2.87c-0.93-0.97,1.19-1.75,4.73-1.75h27.85
				c3.54,0,7.26,0.78,8.32,1.75l3.13,2.87C1138.93,806.29,1136.88,807.1,1133.27,807.1z"/>
		</g>
		<g>
			<path class="st1" d="M629.94,781.54h-34.41c-0.86,0-1.43-0.18-1.29-0.4l5.65-8.49c0.14-0.21,0.92-0.37,1.75-0.37h33.33
				c0.83,0,1.41,0.17,1.3,0.37l-4.58,8.49C631.59,781.36,630.8,781.54,629.94,781.54z"/>
		</g>
		<g>
			<path class="st1" d="M675.04,781.54h-34.41c-0.86,0-1.46-0.18-1.35-0.4l4.36-8.49c0.11-0.21,0.86-0.37,1.69-0.37h33.33
				c0.83,0,1.44,0.17,1.36,0.37l-3.28,8.49C676.66,781.36,675.9,781.54,675.04,781.54z"/>
		</g>
		<g>
			<path class="st1" d="M720.14,781.54h-34.41c-0.86,0-1.49-0.18-1.41-0.4l3.06-8.49c0.07-0.21,0.81-0.37,1.64-0.37h33.33
				c0.83,0,1.46,0.17,1.42,0.37l-1.98,8.49C721.73,781.36,720.99,781.54,720.14,781.54z"/>
		</g>
		<g>
			<path class="st1" d="M764.95,781.54h-34.41c-0.86,0-1.51-0.18-1.47-0.4l1.77-8.49c0.04-0.21,0.75-0.37,1.58-0.37h33.33
				c0.83,0,1.49,0.17,1.47,0.37l-0.69,8.49C766.52,781.36,765.81,781.54,764.95,781.54z"/>
		</g>
		<g>
			<path class="st1" d="M810.05,781.54h-34.41c-0.86,0-1.54-0.18-1.53-0.4l0.48-8.49c0.01-0.21,0.69-0.37,1.52-0.37h33.33
				c0.83,0,1.51,0.17,1.53,0.37l0.6,8.49C811.59,781.36,810.91,781.54,810.05,781.54z"/>
		</g>
		<g>
			<path class="st1" d="M853.22,781.54h-34.41c-0.86,0-1.57-0.18-1.59-0.4l-0.77-8.49c-0.02-0.21,0.64-0.37,1.47-0.37h33.33
				c0.83,0,1.54,0.17,1.58,0.37l1.84,8.49C854.73,781.36,854.07,781.54,853.22,781.54z"/>
		</g>
		<g>
			<path class="st1" d="M897.9,781.54h-34.41c-0.86,0-1.59-0.18-1.65-0.4l-2.05-8.49c-0.05-0.21,0.58-0.37,1.41-0.37h33.33
				c0.83,0,1.56,0.17,1.64,0.37l3.13,8.49C899.38,781.36,898.75,781.54,897.9,781.54z"/>
		</g>
		<g>
			<path class="st1" d="M942.58,781.54h-34.41c-0.86,0-1.62-0.18-1.71-0.4l-3.34-8.49c-0.08-0.21,0.53-0.37,1.36-0.37h33.33
				c0.83,0,1.59,0.17,1.7,0.37l4.41,8.49C944.04,781.36,943.44,781.54,942.58,781.54z"/>
		</g>
		<g>
			<path class="st1" d="M986.98,781.54h-34.41c-0.86,0-1.65-0.18-1.77-0.4l-4.61-8.49c-0.11-0.21,0.47-0.37,1.3-0.37h33.33
				c0.83,0,1.61,0.17,1.75,0.37l5.69,8.49C988.42,781.36,987.84,781.54,986.98,781.54z"/>
		</g>
		<g>
			<path class="st1" d="M1031.39,781.54h-34.41c-0.86,0-1.67-0.18-1.83-0.4l-5.89-8.49c-0.14-0.21,0.42-0.37,1.25-0.37h33.33
				c0.83,0,1.64,0.17,1.81,0.37l6.97,8.49C1032.8,781.36,1032.25,781.54,1031.39,781.54z"/>
		</g>
		<g>
			<path class="st1" d="M1018.44,793.04h-35.75c-0.89,0-1.73-0.19-1.88-0.43l-5.68-9.16c-0.14-0.22,0.45-0.4,1.31-0.4h34.58
				c0.86,0,1.69,0.18,1.86,0.4l6.85,9.16C1019.91,792.85,1019.33,793.04,1018.44,793.04z"/>
		</g>
		<g>
			<path class="st1" d="M1110.06,781.54h-66.44c-1.18,0-2.34-0.24-2.59-0.54l-6.97-8.21c-0.24-0.28,0.49-0.51,1.63-0.51h64.36
				c1.14,0,2.31,0.23,2.62,0.51l8.94,8.21C1111.93,781.3,1111.24,781.54,1110.06,781.54z"/>
		</g>
		<g>
			<path class="st1" d="M1122.16,793.04h-92.56c-1.41,0-2.78-0.3-3.07-0.67l-6.68-8.68c-0.27-0.35,0.62-0.63,1.98-0.63h89.55
				c1.36,0,2.78,0.28,3.16,0.63l9.44,8.68C1124.39,792.74,1123.57,793.04,1122.16,793.04z"/>
		</g>
		<g>
			<path class="st1" d="M540.13,781.54h-67.15c-1.18,0-1.88-0.24-1.55-0.54l8.88-8.2c0.31-0.28,1.48-0.51,2.63-0.51h65.05
				c1.15,0,1.88,0.23,1.64,0.51l-6.9,8.2C542.48,781.3,541.31,781.54,540.13,781.54z"/>
		</g>
		<g>
			<path class="st1" d="M554.1,793.04h-93.91c-1.42,0-2.24-0.3-1.83-0.68l9.4-8.67c0.38-0.35,1.81-0.64,3.18-0.64h90.86
				c1.37,0,2.27,0.29,2,0.64l-6.61,8.67C556.9,792.74,555.52,793.04,554.1,793.04z"/>
		</g>
		<g>
			<path class="st1" d="M625.87,770.87H592.7c-0.83,0-1.38-0.16-1.24-0.37l5.53-7.9c0.13-0.19,0.89-0.35,1.69-0.35h32.16
				c0.8,0,1.36,0.15,1.25,0.35l-4.53,7.9C627.46,770.7,626.69,770.87,625.87,770.87z"/>
		</g>
		<g>
			<path class="st1" d="M668.85,770.87h-33.16c-0.83,0-1.41-0.16-1.29-0.37l4.34-7.9c0.11-0.19,0.84-0.35,1.64-0.35h32.16
				c0.8,0,1.38,0.15,1.3,0.35l-3.34,7.9C670.41,770.7,669.67,770.87,668.85,770.87z"/>
		</g>
		<g>
			<path class="st1" d="M712.09,770.87h-33.16c-0.83,0-1.43-0.16-1.35-0.37l3.14-7.9c0.08-0.19,0.79-0.35,1.59-0.35h32.16
				c0.8,0,1.41,0.15,1.36,0.35l-2.14,7.9C713.63,770.7,712.92,770.87,712.09,770.87z"/>
		</g>
		<g>
			<path class="st1" d="M755.34,770.87h-33.16c-0.83,0-1.46-0.16-1.41-0.37l1.94-7.9c0.05-0.19,0.73-0.35,1.54-0.35h32.16
				c0.8,0,1.43,0.15,1.41,0.35l-0.94,7.9C756.85,770.7,756.16,770.87,755.34,770.87z"/>
		</g>
		<g>
			<path class="st1" d="M798.32,770.87h-33.16c-0.83,0-1.48-0.16-1.46-0.37l0.75-7.9c0.02-0.19,0.68-0.35,1.48-0.35h32.16
				c0.8,0,1.46,0.15,1.46,0.35l0.26,7.9C799.81,770.7,799.14,770.87,798.32,770.87z"/>
		</g>
		<g>
			<path class="st1" d="M840.32,770.87h-33.16c-0.83,0-1.5-0.16-1.51-0.37l-0.42-7.9c-0.01-0.19,0.63-0.35,1.43-0.35h32.16
				c0.8,0,1.48,0.15,1.51,0.35l1.42,7.9C841.79,770.7,841.15,770.87,840.32,770.87z"/>
		</g>
		<g>
			<path class="st1" d="M883.92,770.87h-33.16c-0.83,0-1.53-0.16-1.57-0.37l-1.63-7.9c-0.04-0.19,0.58-0.35,1.38-0.35h32.16
				c0.8,0,1.5,0.15,1.57,0.35l2.63,7.9C885.36,770.7,884.74,770.87,883.92,770.87z"/>
		</g>
		<g>
			<path class="st1" d="M926.99,770.87h-33.16c-0.83,0-1.55-0.16-1.63-0.37l-2.82-7.9c-0.07-0.19,0.53-0.35,1.33-0.35h32.16
				c0.8,0,1.52,0.15,1.62,0.35l3.83,7.9C928.4,770.7,927.81,770.87,926.99,770.87z"/>
		</g>
		<g>
			<path class="st1" d="M969.35,770.87h-33.16c-0.83,0-1.58-0.16-1.68-0.37l-4-7.9c-0.1-0.19,0.47-0.35,1.28-0.35h32.16
				c0.8,0,1.55,0.15,1.67,0.35l5,7.9C970.74,770.7,970.17,770.87,969.35,770.87z"/>
		</g>
		<g>
			<path class="st1" d="M1013.48,770.87h-33.16c-0.83,0-1.6-0.16-1.74-0.37l-5.22-7.9c-0.13-0.19,0.42-0.35,1.22-0.35h32.16
				c0.8,0,1.57,0.15,1.72,0.35l6.23,7.9C1014.84,770.7,1014.3,770.87,1013.48,770.87z"/>
		</g>
		<g>
			<path class="st1" d="M1055.66,770.87h-33.16c-0.83,0-1.63-0.16-1.79-0.37l-6.39-7.9c-0.15-0.19,0.37-0.35,1.17-0.35h32.16
				c0.8,0,1.6,0.15,1.77,0.35l7.4,7.9C1057,770.7,1056.48,770.87,1055.66,770.87z"/>
		</g>
		<g>
			<path class="st1" d="M1099.08,770.87h-33.17c-0.83,0-1.65-0.16-1.85-0.37l-7.6-7.9c-0.18-0.19,0.32-0.35,1.12-0.35h32.16
				c0.8,0,1.62,0.15,1.83,0.35l8.6,7.9C1100.4,770.7,1099.91,770.87,1099.08,770.87z"/>
		</g>
		<g>
			<path class="st1" d="M568.92,760.94h-32.01c-0.8,0-1.3-0.15-1.13-0.34l6.84-7.37c0.17-0.18,0.93-0.32,1.7-0.32h31.07
				c0.77,0,1.29,0.14,1.14,0.32l-5.9,7.37C570.49,760.79,569.72,760.94,568.92,760.94z"/>
		</g>
		<g>
			<path class="st1" d="M609.97,760.94h-32.01c-0.8,0-1.32-0.15-1.18-0.34l5.74-7.37c0.14-0.18,0.88-0.32,1.65-0.32h31.07
				c0.77,0,1.31,0.14,1.19,0.32l-4.8,7.37C611.52,760.79,610.77,760.94,609.97,760.94z"/>
		</g>
		<g>
			<path class="st1" d="M652.05,760.94h-32.01c-0.8,0-1.35-0.15-1.23-0.34l4.61-7.37c0.11-0.18,0.83-0.32,1.6-0.32h31.07
				c0.77,0,1.33,0.14,1.24,0.32l-3.68,7.37C653.57,760.79,652.85,760.94,652.05,760.94z"/>
		</g>
		<g>
			<path class="st1" d="M693.08,760.94h-32.01c-0.8,0-1.37-0.15-1.28-0.34l3.51-7.37c0.08-0.18,0.78-0.32,1.55-0.32h31.07
				c0.77,0,1.35,0.14,1.29,0.32l-2.58,7.37C694.58,760.79,693.88,760.94,693.08,760.94z"/>
		</g>
		<g>
			<path class="st1" d="M735.4,760.94h-32.01c-0.8,0-1.39-0.15-1.33-0.34l2.38-7.37c0.06-0.18,0.73-0.32,1.51-0.32h31.07
				c0.77,0,1.37,0.14,1.34,0.32l-1.44,7.37C736.87,760.79,736.2,760.94,735.4,760.94z"/>
		</g>
		<g>
			<path class="st1" d="M776.07,760.94h-32.01c-0.8,0-1.42-0.15-1.38-0.34l1.29-7.37c0.03-0.18,0.68-0.32,1.46-0.32h31.07
				c0.77,0,1.39,0.14,1.39,0.32l-0.35,7.37C777.52,760.79,776.86,760.94,776.07,760.94z"/>
		</g>
		<g>
			<path class="st1" d="M818.32,760.94h-32.01c-0.8,0-1.44-0.15-1.44-0.34l0.15-7.37c0-0.18,0.63-0.32,1.41-0.32h31.07
				c0.77,0,1.42,0.14,1.44,0.32l0.78,7.37C819.74,760.79,819.11,760.94,818.32,760.94z"/>
		</g>
		<g>
			<path class="st1" d="M859.37,760.94h-32.01c-0.8,0-1.46-0.15-1.49-0.34l-0.95-7.37c-0.02-0.18,0.59-0.32,1.36-0.32h31.07
				c0.77,0,1.44,0.14,1.48,0.32l1.88,7.37C860.77,760.79,860.17,760.94,859.37,760.94z"/>
		</g>
		<g>
			<path class="st1" d="M901.53,760.94h-32.01c-0.8,0-1.49-0.15-1.54-0.34l-2.08-7.37c-0.05-0.18,0.54-0.32,1.31-0.32h31.07
				c0.77,0,1.46,0.14,1.53,0.32l3.01,7.37C902.92,760.79,902.33,760.94,901.53,760.94z"/>
		</g>
		<g>
			<path class="st1" d="M943.61,760.94h-32.01c-0.8,0-1.51-0.15-1.59-0.34l-3.2-7.37c-0.08-0.18,0.49-0.32,1.26-0.32h31.07
				c0.77,0,1.48,0.14,1.58,0.32l4.14,7.37C944.97,760.79,944.41,760.94,943.61,760.94z"/>
		</g>
		<g>
			<path class="st1" d="M985.27,760.94h-32.01c-0.8,0-1.53-0.15-1.64-0.34l-4.32-7.37c-0.1-0.18,0.44-0.32,1.21-0.32h31.07
				c0.77,0,1.5,0.14,1.63,0.32l5.26,7.37C986.6,760.79,986.06,760.94,985.27,760.94z"/>
		</g>
		<g>
			<path class="st1" d="M1025.29,760.94h-32.01c-0.8,0-1.56-0.15-1.69-0.34l-5.39-7.37c-0.13-0.18,0.39-0.32,1.16-0.32h31.07
				c0.77,0,1.52,0.14,1.68,0.32l6.33,7.37C1026.6,760.79,1026.09,760.94,1025.29,760.94z"/>
		</g>
		<g>
			<path class="st1" d="M1085.29,760.94h-47.87c-2.21,0-4.38-0.42-4.85-0.95l-5.47-6.19c-0.44-0.5,0.95-0.9,3.1-0.9h46.47
				c2.15,0,4.33,0.4,4.87,0.9l6.72,6.19C1088.84,760.51,1087.5,760.94,1085.29,760.94z"/>
		</g>
		<g>
			<path class="st1" d="M536.14,770.87h-49.6c-2.29,0-3.66-0.46-3.05-1.02l7.18-6.63c0.58-0.53,2.85-0.96,5.07-0.96h48.1
				c2.22,0,3.65,0.43,3.18,0.96l-5.83,6.63C540.7,770.41,538.44,770.87,536.14,770.87z"/>
		</g>
	</g>
</g>
<g>
	<polygon class="st0" points="848.74,757.3 819.76,773.39 848.68,789.57 	"/>
	<polygon class="st6" points="826.67,768.82 819.76,773.39 826.66,777.99 	"/>
	<path class="st7" d="M999.58,783.1l0.03-19.06c0.01-3.63,2.98-6.6,6.61-6.59l39.58,0.07c3.63,0.01,6.6,2.98,6.59,6.61l-0.03,19.06
		c-0.01,3.63-2.98,6.6-6.61,6.59l-39.58-0.07C1002.54,789.71,999.58,786.73,999.58,783.1z"/>
	<rect x="848.73" y="757.38" class="st8" width="159.19" height="10.76"/>
	<rect x="848.71" y="768.13" class="st9" width="159.19" height="10.76"/>
	<rect x="848.69" y="778.89" class="st10" width="159.19" height="10.76"/>
	
		<rect x="990.97" y="770.33" transform="matrix(-1.695296e-03 1 -1 -1.695296e-03 1782.3883 -232.2028)" class="st11" width="32.27" height="6.51"/>
</g>
<g>
	<g>
		<ellipse class="st12" cx="493.66" cy="791.67" rx="36.18" ry="19.42"/>
		<g>
			<path class="st8" d="M493.28,821.7c-22.98,0-40.99-11.04-40.99-25.13c0-14.09,18-25.13,40.99-25.13s40.99,11.04,40.99,25.13
				C534.27,810.67,516.27,821.7,493.28,821.7z M493.28,777.86c-18.74,0-34.57,8.57-34.57,18.71c0,10.14,15.83,18.71,34.57,18.71
				c18.74,0,34.57-8.57,34.57-18.71C527.86,786.43,512.03,777.86,493.28,777.86z"/>
			<path class="st13" d="M493.28,816.1c-22.98,0-40.99-11.04-40.99-25.13c0-14.09,18-25.13,40.99-25.13s40.99,11.04,40.99,25.13
				C534.27,805.06,516.27,816.1,493.28,816.1z M493.28,772.26c-18.74,0-34.57,8.57-34.57,18.71c0,10.14,15.83,18.71,34.57,18.71
				c18.74,0,34.57-8.57,34.57-18.71C527.86,780.82,512.03,772.26,493.28,772.26z"/>
			<g>
				<path class="st14" d="M444.44,815.87l14.33-7.9c0,0,1.61-1.24,4.72,2.01c2.13,2.22-0.61,3.45-0.61,3.45l-15.43,8.28
					L444.44,815.87z"/>
				<path class="st13" d="M456.38,824.09c2.29-2.75,0.87-7.7-3.17-11.06c-4.04-3.35-7.85-3.35-11.45-1.09l-33.73,20.22l13.27,13.43
					L456.38,824.09z"/>
				<path class="st8" d="M418.61,834.05c4.04,3.35,5.46,8.3,3.17,11.06c-2.29,2.75-7.41,2.27-11.45-1.09
					c-4.04-3.35-5.46-8.3-3.17-11.06C409.45,830.21,414.58,830.7,418.61,834.05z"/>
			</g>
		</g>
	</g>
	<ellipse class="st0" cx="481.75" cy="784.97" rx="8.06" ry="3.17"/>
	<path class="st0" d="M475.56,789.63c0,1.01-2.08,1.83-4.66,1.83c-2.57,0-4.66-0.82-4.66-1.83c0-1.01,2.08-1.83,4.66-1.83
		C473.47,787.8,475.56,788.62,475.56,789.63z"/>
</g>
<g>
	<g>
		<path class="st9" d="M1123.76,241.47c-2.93-8.98-9.91-19.78-17.14-28.48c-0.02-0.03-0.04-0.05-0.06-0.08
			c-3.75-5.95-7.4-11.84-9.79-15.19c-5.49-7.73-8.57-10.34-11.99-10.31c-2.05-0.01-6.11,0.13-7.56,3.61
			c-2.93,7.05,16.12,31.16,18.96,34.16c0,0,18.39,18.51,14.56,22.27c-1.61,1.58-13.54,6.34-16.41,6.86l0.8,8.68
			C1108.16,260.44,1128.23,255.17,1123.76,241.47z"/>
		<path class="st9" d="M1044.42,271.12c1-2.11,1.8-4.34,2.26-6.72c-5.49-3.78-35.13-11.75-31.46-24.25
			c1.31-4.45,5.68-11.75,11.94-19.61c0,0,0,0,0,0c2.45-3.03,5.05-5.96,5.69-6.57c7.31-7.02,11.33-20.01,7.92-25.08
			c-3.04-4.53-10.33-1.56-18.08,9.58c-2.19,3.15-4.97,8.79-8.05,14.41c-6.16,8.58-11.9,18.82-13.93,26.72
			C995.45,260.1,1042.95,270.6,1044.42,271.12z"/>
		<path class="st15" d="M1093.19,256.48c-1.99-12.95-7.29-51.71-8.88-57.33c0.1-0.12-1.89-6.2,0.47-11.74
			c-3.43-0.25-9.46,1.03-12.89,0.78c-2.58-0.93-5.32-1.52-8.04-1.9c-4.68-0.66-9.73-0.69-14.23,0.57c-5-0.1-10.64-2.07-15.16,0.52
			c0,0.01,0.2,0.13,0.19,0.13c3.91,2.9,0.42,20.14,0.1,22.59c-0.4,3.03-0.8,6.06-1.19,9.09c-5.63,20.65-6.81,71.68-4.97,72.72
			c16.81,9.48,33.48,12.59,52.34,8.48c4.34-0.94,8.85-2.41,11.72-5.79c1.94-2.28,0.8-5.3,1.44-8.22
			C1096.22,276.58,1094.71,266.4,1093.19,256.48z"/>
		<path class="st7" d="M1093.19,256.48c-1.99-12.95-7.29-51.71-8.88-57.33c0.1-0.12-1.89-6.2,0.47-11.74
			c-2.74-0.2-7.11,0.57-10.51,0.77c0.63,9.62-0.22,19.12-1.62,28.83c-1.59,10.97-3.72,22.18-8.18,32.37
			c-7.05,16.12-20.8,26.44-36.68,31.66c0.01,6.37,0.29,10.58,0.81,10.88c16.81,9.48,33.48,12.59,52.34,8.48
			c4.34-0.94,8.85-2.41,11.72-5.79c1.94-2.28,0.8-5.3,1.44-8.22C1096.22,276.58,1094.71,266.4,1093.19,256.48z"/>
		<g>
			<path class="st16" d="M1095.41,267.57c0,0-14.28,17.72-69.74,0.96l0.42,33.65h71.18L1095.41,267.57z"/>
			<path class="st17" d="M1022.63,305.71c-5.57-8.03-8.41-18.2-7.83-28.02c0.12-2.03,0.4-4.14,1.55-5.82
				c1.96-2.85,2.65-4.12,6.1-3.86c4.03,0.31,11.18,2.22,14.5,4.52c7.5,5.19,11.65,14.63,19.87,18.6c6.33,3.06,14.43,2,19.76-2.58
				c7.26-6.23,14.27-21.16,23.38-24.07c6.18-1.97,9.03,5.15,10.74,11.4c1.47,5.37-0.88,10.96-3.18,16.03
				c-1.92,4.24-4.03,9.28-6.76,13.79H1022.63z"/>
			<path class="st18" d="M1083.37,381.31c-0.66,6.58-2.66,17.83-1.38,20.26c3.09,5.86,6.37,3.42,7.99-1.85
				c1.12-3.64,2.26-13,3.33-17.24C1089.49,382.45,1087.33,382.29,1083.37,381.31z"/>
			<path class="st18" d="M1023.99,381.57c0.88,6.23,2.48,20.01,5.04,21.68c3.98,2.6,4.53,2.68,5.73-2.55
				c0.55-2.39-1.16-16.16-1.39-20.82C1029.85,380.71,1027.76,381.39,1023.99,381.57z"/>
			<path class="st19" d="M1106.81,263.13c-11.58-1.83-12.2,13.87-13.92,25.91c-1.74,12.25-3.22,24.56-4.48,36.89
				c-1.49,14.66-3.34,28.07-4.91,44.66c-0.24,2.55-0.88,6.97-1.43,11.73c4.14,1.06,8.18,1.54,12.18,1.5
				c1.69-6.94,3.1-13.32,3.77-16.24c6.7-28.98,17.48-64.83,19.46-85.17C1118.39,273.04,1114.78,264.4,1106.81,263.13z"/>
			<path class="st19" d="M1023.43,383.23c3.89-0.17,7.6-0.66,11.17-1.55c-1.49-23.75-0.83-50.98-1.16-74.74
				c-0.04-2.8-0.03-5.78-0.11-8.81c-0.17-6.92-0.77-14.06-3.28-19.76c-2.75-6.26-6.8-11.55-12.35-7.32
				c-4.24,3.22-5.54,10.19-5.95,16.38c-2.06,31.9,8.84,62.22,11.48,93.87C1023.28,381.82,1023.35,382.48,1023.43,383.23z"/>
			<path class="st20" d="M1076.93,405.4c0.05-4.07,1.58-7.9,3.15-11.52c0.6-1.39,1.25-2.82,2.29-3.73c1.66-1.46,3.85-1.2,5.83-0.89
				c0.62,0.1,1.26,0.21,1.75,0.69c2.89,2.85,3.59,15.64,0.28,18.68C1087.75,410.89,1076.87,409.5,1076.93,405.4z"/>
			<path class="st20" d="M1038.5,404.33c0.22,0.72,0.44,1.48,0.37,2.27c-0.2,2.11-2.13,2.87-3.65,3.12
				c-3.09,0.49-6.18,0.98-9.27,1.47c-0.27,0.04-0.54,0.08-0.8,0c-0.95-0.31-1.15-2.02-1.15-3.39c0-4.41,0.18-8.83,0.54-13.24
				c0.09-1.07,0.21-2.2,0.71-3.05c1.71-2.91,6.48-2.61,8.29-0.57C1035.88,393.58,1037.34,400.55,1038.5,404.33z"/>
		</g>
		<path class="st9" d="M1049.62,186.86c0,0,3.26,6.99,8.04,7.38c4.78,0.39,10.63,1.33,14.23-6.05
			C1071.89,188.19,1061.99,183.09,1049.62,186.86z"/>
		<g>
			<path class="st20" d="M1075,171.33c-0.8,2-1.82,4.04-3.65,5.35c-2.69,1.92-6.44,1.84-9.87,1.66c-3.95-0.2-8.27-0.54-11.13-3.08
				c-1.62-1.43-2.54-3.4-3.18-5.37c-2.19-6.82-1.25-14.42,2.55-20.56c0.69-1.11,1.49-2.21,2.62-2.96c1.48-0.98,3.38-1.29,5.21-1.33
				c4.66-0.1,9.37,1.38,13.01,4.09c3.5,2.61,6.23,6.53,7.06,10.61C1078.39,163.44,1076.36,167.96,1075,171.33z"/>
			<path class="st21" d="M1068.19,188.56c-0.8-4.9-1.74-9.72-1.49-14.21c-4.07,7.27-7.55,2.91-10.85-2.46
				c-0.28,4.95-1.96,10.35-3.34,15.66C1052.51,187.54,1059.9,196.34,1068.19,188.56z"/>
			<path class="st18" d="M1066.45,180.7c-0.36,0.88-0.93,1.72-1.44,2.41c-1.05,1.4-2.57,2.32-4.32,2.69
				c-2.04,0.44-4.01-0.71-5.43-2.1c-0.47-0.46-0.91-0.93-1.34-1.42c0.94-3.56,1.75-7.08,1.94-10.4c3.3,5.37,6.78,9.73,10.85,2.46
				c-0.25,0.46-0.04,1.68-0.03,2.2c0.02,0.81,0.11,1.62,0.14,2.43C1066.82,179.54,1066.68,180.12,1066.45,180.7z"/>
			<path class="st21" d="M1075.4,165.38c-0.83,3.81-2.07,7.63-4.46,10.71c-2.39,3.08-6.09,5.35-9.98,5.22
				c-4.93-0.16-9.12-4.09-11.03-8.64c-1.91-4.55-2-9.63-1.95-14.57c0.04-4.2,0.21-8.62,2.43-12.18c0.81-1.3,1.89-2.44,3.22-3.2
				c0.94-0.53,1.99-0.86,3.05-1.08c4.52-0.98,9.46-0.21,13.3,2.37C1077.51,149.06,1077.11,157.49,1075.4,165.38z"/>
			<path class="st20" d="M1045.15,146.18c-1.14-1.39-1.86-3.11-1.78-4.89c0.03-0.59,0.49-1.37,1.01-1.08
				c0.08,0.38,0.15,0.76,0.23,1.14c0.78,0.28,1.57-0.34,2.17-0.91c0.71-0.68,1.42-1.36,2.1-2.07c0.45-0.58,0.93-1.13,1.44-1.64
				c0.09-0.12,0.19-0.23,0.28-0.35c0.82-1.08,1.53-2.27,2.51-3.21c2.79-2.65,7.11-2.72,10.94-2.32c2.37,0.25,4.77,0.63,6.9,1.68
				c2.14,1.05,4,2.88,4.59,5.18c0.07,0.28,0.12,0.56,0.14,0.83c4.96,3.62,7.43,10.58,5.49,16.47c-0.66,1.99-1.76,3.98-1.48,6.04
				c-0.24,1.17-0.44,2.35-0.62,3.54c-0.92,0.9-2.33,1.3-3.17,0.39c-0.61-0.66-0.6-1.66-0.56-2.56c0.13-2.65,0.26-5.29,0.4-7.94
				c0.02-0.49,0.05-1.01-0.16-1.45c-0.21-0.45-0.62-0.78-1-1.1c-1.55-1.33-2.79-3.03-3.6-4.9c-1.86,1.5-3.96,2.63-5.68,3.15
				c-3.66,1.12-7.61,0.97-11.37,0.28c-1.04-0.19-2.08-0.43-3.1-0.75c-0.46,3.66-0.92,7.31-1.38,10.97c-0.17,1.35-0.59,3-1.92,3.3
				c-0.9,0.2-1.84-0.39-2.31-1.19c-0.47-0.8-0.59-1.75-0.68-2.67c-0.45-4.55-0.55-9.19,0.52-13.63
				C1045.09,146.39,1045.13,146.28,1045.15,146.18z"/>
			<path class="st18" d="M1074.29,166.97c0.29-2.04,0.92-4.17,1.09-6.22c0.36-0.18,0.51-0.18,0.9-0.2c0.34-0.01,0.69,0.03,0.98,0.24
				c0.49,0.35,0.66,1.05,0.75,1.69c0.31,2.08,0.25,4.27-0.49,6.23c-0.73,1.96-2.2,3.64-4.04,4.2c-0.25,0.07-0.39,0.1-0.63,0.02
				C1073.56,170.98,1073.99,169.08,1074.29,166.97z"/>
			<path class="st18" d="M1045.48,160.36c0.18-0.62,0.43-1.3,0.97-1.58c0.31-0.16,0.67-0.17,1-0.11c0.77,0.13,1.44,0.61,1.94,1.27
				c0.08,0.03,0.15,0.08,0.22,0.13c-0.13,1.2-0.19,2.4-0.27,3.63c-0.16,2.38-0.32,3.78-0.14,6.17c0.02,0.24,0.22,1.51,0.29,1.72
				c-0.23,0.02-0.65-0.22-0.86-0.31c-1.75-0.79-2.99-2.65-3.46-4.68C1044.69,164.57,1044.91,162.38,1045.48,160.36z"/>
		</g>
		<path class="st22" d="M1024.09,409.16c0,0,3.6,0.92,6.7,0.16c3.1-0.75,5.82-1.38,6.61-2.41c0.79-1.03,1.69-0.84,1.51-0.03
			c-0.18,0.81-0.46,2.61-4.26,3.21c-3.86,1.43-7.56,1.43-7.56,1.43S1024.13,412.45,1024.09,409.16z"/>
		<path class="st22" d="M1076.99,404.18c0,0,2.59,3.02,6.03,3.54c3.45,0.52,7.11,0.54,8.2-0.51c0,0-0.36,3.54-8.37,2.28
			C1074.83,408.24,1076.99,404.18,1076.99,404.18z"/>
	</g>
	<g>
		<path class="st23" d="M1096.67,273.55h-71.06c-0.76,0-1.38-0.62-1.38-1.38v-44.7c0-0.76,0.62-1.38,1.38-1.38h71.06
			c0.76,0,1.38,0.62,1.38,1.38v44.7C1098.05,272.93,1097.43,273.55,1096.67,273.55z"/>
		<path class="st24" d="M1096,272.02h-69.28c-0.48,0-0.87-0.39-0.87-0.87v-42.66c0-0.48,0.39-0.87,0.87-0.87H1096
			c0.48,0,0.87,0.39,0.87,0.87v42.66C1096.87,271.63,1096.48,272.02,1096,272.02z"/>
		<path class="st23" d="M1061.53,246.91c-6.9,2.02-13.65,4.62-19.94,8.11c-3.16,1.75-6.09,3.77-9.01,5.89
			c-2.61,1.89-5.21,3.92-6.73,6.82v3.4c0,0.49,0.4,0.88,0.88,0.88h69.26c0.49,0,0.88-0.4,0.88-0.88v-30.17
			C1084.92,241.67,1073.03,243.54,1061.53,246.91z"/>
		<path class="st25" d="M1067.22,247.84c0,2.61-3.13,4.73-6.99,4.73c-3.86,0-6.99-2.12-6.99-4.73c0-2.61,3.13-4.73,6.99-4.73
			C1064.1,243.11,1067.22,245.22,1067.22,247.84z"/>
	</g>
</g>
<g>
	<path class="st18" d="M1130.52,717.17c0,0,8.14,21.99,29.48,21.99s51.34-47.95,53.77-51.75c2.43-3.81,7.7-15.46,17.23-4.99
		c12.95,14.24,35.24,45.42,39.67,51.99l10.54-0.29c0,0-27.44-45.51-36.63-59.94c-9.19-14.43-17.93-24.52-29.45-17.67
		c-11.99,7.13-31.47,24.55-35.29,27.08c-4.94,3.26-23.07,12.42-27.67,13.29L1130.52,717.17z"/>
	<path class="st26" d="M1187.49,674.45c-9.8,2.91-26.49,6.59-33.3-0.89c-2.99-3.29-7.49-12.5-10.83-21.5
		c-0.42-1.14-1.19-3.54-2.25-6.47c-0.78-0.43-1.57-0.87-2.37-1.27c-2.09-1.06-4.71-2.32-7.14-1.84c-3.55,0.71-4.95,4.25-5.4,7.68
		c4.34,9.98,13.19,29.48,17.29,33.66c1.33,1.36,2.86,2.53,4.53,3.44c3.53,1.93,7.59,2.59,11.58,2.43c4.14-0.17,8.22-1.17,12.12-2.53
		c3.71-1.29,7.27-2.21,10.76-4.02c1.43-0.74,3.81-1.49,5.21-2.28C1187.92,677.92,1188.1,676.14,1187.49,674.45z"/>
	<path class="st21" d="M1129.07,717.17c0,0,8.87,21.99,32.14,21.99c23.27,0,55.96-47.95,58.61-51.75
		c2.65-3.81,8.39-15.46,18.78-4.99c14.12,14.24,38.25,45.42,43.08,51.99l11.49-0.29c0,0-29.75-45.51-39.76-59.94
		c-10.01-14.43-19.14-23.86-32.1-17.67c-12.96,6.19-31.22,25.92-34.75,29.16c-3.53,3.24-28.86,10.34-33.87,11.21L1129.07,717.17z"/>
	<path class="st10" d="M1210.24,703.04c0,0-10.62-14.45-21.48-19.56c0,0-17.22,9.98-36.1,13.39l-23.59,22.02
		c0,0,15.04,29.44,43.03,18.76C1191.12,730.4,1210.24,703.04,1210.24,703.04z"/>
	<g>
		<g>
			<g>
				<g>
					<path class="st10" d="M1295.13,730.49c-12.2-3.85-20.58-4.67-21-4.7c-4.06,3.06-10.25,2.62-14.33,0
						c-1.19,2.39-0.98,8.15-0.45,9.87c1.5,4.89,7.04,2.91,32.26,3.68C1316.82,740.1,1307.58,734.41,1295.13,730.49z"/>
				</g>
			</g>
		</g>
		<path class="st18" d="M1258.54,717.56l0.96,8.92c0,0,8.06,4.2,19.49,5.57c0,0-3.9-4.65,1.22-5.34c0,0-8.76-0.41-12.98-6.53
			C1264.29,715.91,1258.54,717.56,1258.54,717.56z"/>
	</g>
	<g>
		<g>
			<g>
				<g>
					<path class="st27" d="M1307.41,730.49c-12.2-3.85-20.58-4.67-21-4.7c-4.06,3.06-10.25,2.62-14.33,0
						c-1.19,2.39-1.65,8.46-1.13,10.17c1.5,4.89,7.72,2.61,32.93,3.38C1329.09,740.1,1319.86,734.41,1307.41,730.49z"/>
				</g>
			</g>
		</g>
		<path class="st21" d="M1272.13,719.08l-0.26,7.16c0,0,8.28,4.27,19.71,5.63c0,0-3.81-4.41,1.31-5.09c0,0-14.1-3.78-14.79-8.22
			C1277.42,714.13,1272.13,719.08,1272.13,719.08z"/>
	</g>
	<path class="st15" d="M1150.44,675.1c-0.02-0.48-0.72-4.03-0.74-4.51c2.11-3.55,6.09-11.32,4.07-16.28
		c-1.28-3.16-8.07-10.24-9.95-13.02c0.01-4.58,0.95-13.49-4.67-13.11c-3.37-1.13-6.89-1.86-10.4-2.39
		c-3.43-0.52-6.98-1.31-10.26,0.16c-1.87,0.84-3.51,2.09-5.13,3.34c-2.1,1.61-3.98,3.23-4.73,5.83c-0.87,3-1.47,6.13-1.31,9.26
		c-0.66,12.48,0.48,29.14,4.69,40.11c0.92,2.41,1.86,4.76,2.8,7.05c5.94,14.52,11.8,26.06,12.81,26.82
		c0.99,0.74,14.22,2.52,24.71-10.16c2.01-2.43,3.92-5.38,5.62-8.98C1157.96,695.04,1153.41,682.69,1150.44,675.1z"/>
	<path class="st7" d="M1150.41,674.87c-4.68-2.92-9.09-6.25-13.13-10.03c-10.93-10.23-17.82-23.79-19.71-38.44
		c-1.49,0.8-2.86,1.84-4.2,2.88c-2.1,1.61-3.98,3.23-4.73,5.83c-0.87,3-1.47,6.13-1.31,9.26c-0.66,12.48,0.48,29.14,4.69,40.11
		c0.92,2.41,1.86,4.76,2.8,7.05c5.94,14.52,11.8,26.06,12.81,26.82c0.99,0.74,14.22,2.52,24.71-10.16c2.01-2.43,3.92-5.38,5.62-8.98
		c0-4.17-4.56-16.51-7.52-24.11C1150.44,675.05,1150.43,674.97,1150.41,674.87z"/>
	<g>
		<path class="st21" d="M1133.45,594.64c1.08-1.61,2.59-2.87,4.11-4.07c1.47-1.16,3.01-2.3,4.76-2.96c2.14-0.81,4.49-0.88,6.77-0.78
			c4.57,0.2,9.43,1.22,12.6,4.51c0.74,0.77,1.39,1.68,1.62,2.72c0.17,0.77,0.11,1.57,0.04,2.36c-0.44,4.82-1.2,9.65-2.93,14.16
			c-1.73,4.52-4.48,8.73-8.35,11.63c-1.1,0.82-2.32,1.55-3.68,1.69c-1.08,0.12-2.17-0.14-3.21-0.44c-0.34-0.1-0.67-0.23-1-0.34
			c-5.24,6.61-4.6,10.41-3.26,12.7c0.21,0.37-0.24,0.75-0.56,0.47c-3.44-2.97-7.7-6.37-10.69-8.52c-0.59-0.43-0.81-1.19-0.58-1.88
			c0.43-1.26-0.41-0.65,2.04-0.43c0.53-1.97,1.31-5.45,2.07-8.7c-1.39-1.21-2.69-2.61-3.22-4.07c-0.51-1.42-0.49-2.98-0.37-4.48
			c0.21-2.68,0.74-5.32,1.51-7.9C1131.68,598.36,1132.3,596.34,1133.45,594.64z"/>
		<path class="st28" d="M1165.18,589.27c-3.73-4.72-8.46-8.78-14.09-10.9c-5.62-2.13-12.19-2.14-17.46,0.74
			c-5,2.73-8.53,8.28-8.31,13.94c-0.68-0.34-1.4-0.6-2.12-0.8c-1.91-0.53-3.94-0.73-5.88-0.32c-4.86,1.02-7.68,7.03-6.7,11.91
			c-0.02,0.04-0.04,0.07-0.07,0.11c-2.03,0.14-3.95,1.3-5.27,3.93c-1.39,2.79-0.95,6.5,1.36,8.6c1.5,1.36,3.62,1.91,5.65,1.68
			c-0.24,3.08,1.87,6.01,4.51,7.66c4.28,2.68,10.12,2.62,14.34-0.15c4.22-2.77,6.61-8.1,5.86-13.09c-0.33-2.23-1.23-4.34-1.67-6.55
			c-1.04-5.22,1.2-7.24,4.85-7.53c0.02,0.02,0.04,0.03,0.05,0.06c0.35,0.52,1.41,5.89,1.03,6.06c0.86-0.4,1.22-1.4,1.69-2.24
			c0.85-1.53,2.19-2.62,3.71-3.52c3.19,0.07,5.77-0.5,9.66-1.9C1160.19,595.57,1164.53,593.33,1165.18,589.27z"/>
	</g>
	<g>
		<path class="st26" d="M1192.85,683.58l28.65-33.72c0.27-0.31,0.23-0.78-0.09-1.04l-0.71-0.6c-0.31-0.26-0.78-0.22-1.04,0.09
			l-27.7,32.59L1192.85,683.58z"/>
		<polygon class="st29" points="1154.1,688.55 1192.85,683.58 1192.03,680.91 1153.77,686.16 		"/>
	</g>
	<g>
		<path class="st21" d="M1177.7,687.27c0.03,0.06,0.08,0.12,0.14,0.14c0.06,0.02,0.13-0.01,0.19-0.04c1.45-0.75,2.42-1.76,3.71-2.76
			c0.5-0.39,1.2-0.83,1.73-1.18c0.5-0.32,1.31-0.29,1.84-0.56c1.68-0.84,3.28-1.84,4.77-2.98c0.81-0.62,1.61-1.3,2.08-2.2
			c0.18-0.34,1.38-4.47,1.43-4.61c0.14-0.4,0.21-2.56,0.15-2.72c-0.01-0.04-0.04-0.06-0.06-0.1c6.86,2.94,6.65,0.77,6.65,0.77
			s-8.43-5.52-8.9-5.36c-0.47,0.16-2.8,1.13-2.8,1.13l-4.74,2.96c-0.21,0.09-0.42,0.18-0.59,0.3c-0.11,0.08-0.2,0.17-0.31,0.26
			l-0.06,0.04l0.01,0.01c-1.49,1.3-2.84,3.23-3.55,5.02c-1.43,3.61-3.25,5.09-3.86,7.64c-0.18,0.74,0.35,1.27,0.72,1.87
			C1176.73,685.69,1177.22,686.48,1177.7,687.27z M1191.39,669.23c0,0-0.01,0-0.01,0L1191.39,669.23
			C1191.39,669.22,1191.39,669.23,1191.39,669.23z"/>
		<path class="st30" d="M1117.9,629.5c10.27-1.08,7.95,19.35,10.16,28.77c2.59,11.04,4.11,21.95,8.1,25.37
			c9.07,7.77,29.26,1.42,40.32-3.43c0.96,1.89,2.67,3.29,2.85,6.75c-1.53,1.13-4.21,2.36-5.78,3.44c-3.82,2.63-7.86,4.23-12.02,6.29
			c-4.37,2.16-9.01,3.93-13.84,4.74c-4.65,0.78-9.5,0.59-13.92-1.15c-2.09-0.82-4.05-1.97-5.81-3.37
			c-6.94-5.5-18.16-31.24-19.33-40.85C1106.03,634.85,1111.19,630.2,1117.9,629.5z"/>
	</g>
</g>
<g>
	<rect x="613.23" y="158.64" class="st31" width="376.75" height="380.41"/>
	<rect x="613.23" y="183.11" class="st32" width="376.75" height="380.41"/>
	<rect x="613.23" y="203.49" class="st33" width="376.75" height="380.41"/>
	<rect x="613.23" y="227.96" class="st24" width="376.75" height="355.95"/>
	<rect x="682.96" y="227.96" class="st34" width="244.64" height="104.34"/>
	<path class="st33" d="M645.2,169.99c0,3.04-2.46,5.5-5.5,5.5c-3.04,0-5.5-2.46-5.5-5.5c0-3.04,2.46-5.5,5.5-5.5
		C642.74,164.49,645.2,166.95,645.2,169.99z"/>
	<path class="st25" d="M662.74,169.99c0,3.04-2.46,5.5-5.5,5.5c-3.04,0-5.5-2.46-5.5-5.5c0-3.04,2.46-5.5,5.5-5.5
		C660.27,164.49,662.74,166.95,662.74,169.99z"/>
	<path class="st35" d="M681.09,169.99c0,3.04-2.46,5.5-5.5,5.5c-3.04,0-5.5-2.46-5.5-5.5c0-3.04,2.46-5.5,5.5-5.5
		C678.62,164.49,681.09,166.95,681.09,169.99z"/>
	<g>
		<rect x="692.14" y="267.33" class="st0" width="76.09" height="58.4"/>
		<rect x="698.23" y="272.97" class="st13" width="63.91" height="47.12"/>
		<path class="st0" d="M756.79,315.01C756.79,315.01,756.8,315.01,756.79,315.01c-1.08-2.09-9.94-16.05-11.02-17.81
			s-2.22-3.63-2.99-2.19c-0.77,1.44-0.93,1.92-2.32,0.32c-5.42-9.45-7.59-5.77-13,2.72c-5.42,8.49-7.58,7.85-8.67,6.41
			c-6.43-12.45-14.63,6.73-16.15,10.55H756.79z"/>
		<path class="st0" d="M721.36,289.87c0,3.23-2.62,5.85-5.85,5.85s-5.85-2.62-5.85-5.85c0-3.23,2.62-5.85,5.85-5.85
			S721.36,286.64,721.36,289.87z"/>
	</g>
	<g>
		<path class="st25" d="M878.04,373.22h-13.87c-0.5,0-0.91-0.48-0.91-1.06c0-0.59,0.41-1.06,0.91-1.06h13.87
			c0.5,0,0.91,0.48,0.91,1.06C878.95,372.75,878.55,373.22,878.04,373.22z"/>
		<path class="st36" d="M914.25,373.22h-26.08c-0.5,0-0.91-0.48-0.91-1.06c0-0.59,0.41-1.06,0.91-1.06h26.08
			c0.5,0,0.91,0.48,0.91,1.06C915.16,372.75,914.76,373.22,914.25,373.22z"/>
		<path class="st37" d="M926.25,368.54h-13.87c-0.5,0-0.91-0.48-0.91-1.06c0-0.59,0.41-1.06,0.91-1.06h13.87
			c0.5,0,0.91,0.48,0.91,1.06C927.16,368.07,926.76,368.54,926.25,368.54z"/>
		<path class="st32" d="M926.69,379.11h-26.08c-0.5,0-0.91-0.48-0.91-1.06c0-0.59,0.41-1.06,0.91-1.06h26.08
			c0.5,0,0.91,0.48,0.91,1.06C927.6,378.64,927.19,379.11,926.69,379.11z"/>
		<path class="st38" d="M846.03,403.74h-13.87c-0.5,0-0.91-0.48-0.91-1.06c0-0.59,0.41-1.06,0.91-1.06h13.87
			c0.5,0,0.91,0.48,0.91,1.06C846.94,403.27,846.53,403.74,846.03,403.74z"/>
		<path class="st36" d="M858.24,403.74h-26.08c-0.5,0-0.91-0.48-0.91-1.06c0-0.59,0.41-1.06,0.91-1.06h26.08
			c0.5,0,0.91,0.48,0.91,1.06C859.15,403.27,858.74,403.74,858.24,403.74z"/>
		<path class="st39" d="M858.24,403.74h-26.08c-0.5,0-0.91-0.48-0.91-1.06c0-0.59,0.41-1.06,0.91-1.06h26.08
			c0.5,0,0.91,0.48,0.91,1.06C859.15,403.27,858.74,403.74,858.24,403.74z"/>
		<path class="st25" d="M891.2,351.15h-59.04c-0.5,0-0.91-0.48-0.91-1.06c0-0.59,0.41-1.06,0.91-1.06h59.04
			c0.5,0,0.91,0.48,0.91,1.06C892.11,350.68,891.71,351.15,891.2,351.15z"/>
		<path class="st25" d="M867.16,356.29h-35c-0.5,0-0.91-0.48-0.91-1.06c0-0.59,0.41-1.06,0.91-1.06h35c0.5,0,0.91,0.48,0.91,1.06
			C868.07,355.81,867.66,356.29,867.16,356.29z"/>
		<path class="st25" d="M867.16,380.18h-35c-0.5,0-0.91-0.48-0.91-1.06c0-0.59,0.41-1.06,0.91-1.06h35c0.5,0,0.91,0.48,0.91,1.06
			C868.07,379.7,867.66,380.18,867.16,380.18z"/>
		<path class="st25" d="M906.46,361.88h-74.3c-0.5,0-0.91-0.48-0.91-1.06c0-0.59,0.41-1.06,0.91-1.06h74.3
			c0.5,0,0.91,0.48,0.91,1.06C907.37,361.41,906.97,361.88,906.46,361.88z"/>
		<path class="st25" d="M891.49,390.76h-59.33c-0.5,0-0.91-0.48-0.91-1.06c0-0.59,0.41-1.06,0.91-1.06h59.33
			c0.5,0,0.91,0.48,0.91,1.06C892.4,390.28,891.99,390.76,891.49,390.76z"/>
		<path class="st25" d="M891.49,397.9h-59.33c-0.5,0-0.91-0.48-0.91-1.06c0-0.59,0.41-1.06,0.91-1.06h59.33
			c0.5,0,0.91,0.48,0.91,1.06C892.4,397.43,891.99,397.9,891.49,397.9z"/>
		<path class="st25" d="M895.47,367.48h-63.31c-0.5,0-0.91-0.48-0.91-1.06c0-0.59,0.41-1.06,0.91-1.06h63.31
			c0.5,0,0.91,0.48,0.91,1.06C896.38,367,895.97,367.48,895.47,367.48z"/>
		<path class="st25" d="M859.05,373.37h-26.89c-0.5,0-0.91-0.48-0.91-1.06c0-0.59,0.41-1.06,0.91-1.06h26.89
			c0.5,0,0.91,0.48,0.91,1.06C859.96,372.9,859.55,373.37,859.05,373.37z"/>
		<path class="st32" d="M925.29,356.52h-35.91c-0.5,0-0.91-0.48-0.91-1.06c0-0.59,0.41-1.06,0.91-1.06h35.91
			c0.5,0,0.91,0.48,0.91,1.06C926.2,356.04,925.8,356.52,925.29,356.52z"/>
	</g>
	<g>
		<path class="st25" d="M730.33,464.95h-13.87c-0.5,0-0.91-0.48-0.91-1.06c0-0.59,0.41-1.06,0.91-1.06h13.87
			c0.5,0,0.91,0.48,0.91,1.06C731.24,464.48,730.83,464.95,730.33,464.95z"/>
		<path class="st36" d="M766.54,464.95h-26.08c-0.5,0-0.91-0.48-0.91-1.06c0-0.59,0.41-1.06,0.91-1.06h26.08
			c0.5,0,0.91,0.48,0.91,1.06C767.45,464.48,767.04,464.95,766.54,464.95z"/>
		<path class="st37" d="M778.54,460.27h-13.87c-0.5,0-0.91-0.48-0.91-1.06c0-0.59,0.41-1.06,0.91-1.06h13.87
			c0.5,0,0.91,0.48,0.91,1.06C779.45,459.8,779.04,460.27,778.54,460.27z"/>
		<path class="st32" d="M778.97,470.84h-26.08c-0.5,0-0.91-0.48-0.91-1.06c0-0.59,0.41-1.06,0.91-1.06h26.08
			c0.5,0,0.91,0.48,0.91,1.06C779.88,470.37,779.47,470.84,778.97,470.84z"/>
		<path class="st38" d="M698.32,495.47h-13.87c-0.5,0-0.91-0.48-0.91-1.06c0-0.59,0.41-1.06,0.91-1.06h13.87
			c0.5,0,0.91,0.48,0.91,1.06C699.23,495,698.82,495.47,698.32,495.47z"/>
		<path class="st36" d="M710.52,495.47h-26.08c-0.5,0-0.91-0.48-0.91-1.06c0-0.59,0.41-1.06,0.91-1.06h26.08
			c0.5,0,0.91,0.48,0.91,1.06C711.43,495,711.03,495.47,710.52,495.47z"/>
		<path class="st39" d="M710.52,495.47h-26.08c-0.5,0-0.91-0.48-0.91-1.06c0-0.59,0.41-1.06,0.91-1.06h26.08
			c0.5,0,0.91,0.48,0.91,1.06C711.43,495,711.03,495.47,710.52,495.47z"/>
		<path class="st25" d="M743.49,442.88h-59.04c-0.5,0-0.91-0.48-0.91-1.06s0.41-1.06,0.91-1.06h59.04c0.5,0,0.91,0.48,0.91,1.06
			S743.99,442.88,743.49,442.88z"/>
		<path class="st25" d="M719.44,448.02h-35c-0.5,0-0.91-0.48-0.91-1.06c0-0.59,0.41-1.06,0.91-1.06h35c0.5,0,0.91,0.48,0.91,1.06
			C720.35,447.55,719.95,448.02,719.44,448.02z"/>
		<path class="st25" d="M719.44,471.91h-35c-0.5,0-0.91-0.48-0.91-1.06c0-0.59,0.41-1.06,0.91-1.06h35c0.5,0,0.91,0.48,0.91,1.06
			C720.35,471.43,719.95,471.91,719.44,471.91z"/>
		<path class="st25" d="M758.75,453.62h-74.3c-0.5,0-0.91-0.48-0.91-1.06c0-0.59,0.41-1.06,0.91-1.06h74.3
			c0.5,0,0.91,0.48,0.91,1.06C759.66,453.14,759.25,453.62,758.75,453.62z"/>
		<path class="st25" d="M743.77,482.49h-59.33c-0.5,0-0.91-0.48-0.91-1.06c0-0.59,0.41-1.06,0.91-1.06h59.33
			c0.5,0,0.91,0.48,0.91,1.06C744.68,482.01,744.28,482.49,743.77,482.49z"/>
		<path class="st25" d="M743.77,489.63h-59.33c-0.5,0-0.91-0.48-0.91-1.06c0-0.59,0.41-1.06,0.91-1.06h59.33
			c0.5,0,0.91,0.48,0.91,1.06C744.68,489.16,744.28,489.63,743.77,489.63z"/>
		<path class="st25" d="M747.76,459.21h-63.31c-0.5,0-0.91-0.48-0.91-1.06c0-0.59,0.41-1.06,0.91-1.06h63.31
			c0.5,0,0.91,0.48,0.91,1.06C748.67,458.73,748.26,459.21,747.76,459.21z"/>
		<path class="st25" d="M711.33,465.1h-26.89c-0.5,0-0.91-0.48-0.91-1.06c0-0.59,0.41-1.06,0.91-1.06h26.89
			c0.5,0,0.91,0.48,0.91,1.06C712.24,464.63,711.84,465.1,711.33,465.1z"/>
		<path class="st32" d="M777.58,448.25h-35.91c-0.5,0-0.91-0.48-0.91-1.06c0-0.59,0.41-1.06,0.91-1.06h35.91
			c0.5,0,0.91,0.48,0.91,1.06C778.49,447.77,778.08,448.25,777.58,448.25z"/>
	</g>
	<g>
		<path class="st38" d="M745.92,351.15h-62.38c-0.53,0-0.96-0.48-0.96-1.06c0-0.59,0.43-1.06,0.96-1.06h62.38
			c0.53,0,0.96,0.48,0.96,1.06C746.88,350.68,746.45,351.15,745.92,351.15z"/>
		<path class="st32" d="M782.74,367.48h-17.59c-0.53,0-0.96-0.48-0.96-1.06c0-0.59,0.43-1.06,0.96-1.06h17.59
			c0.53,0,0.96,0.48,0.96,1.06C783.71,367,783.28,367.48,782.74,367.48z"/>
		<path class="st32" d="M720.51,356.29h-36.98c-0.53,0-0.96-0.48-0.96-1.06c0-0.59,0.43-1.06,0.96-1.06h36.98
			c0.53,0,0.96,0.48,0.96,1.06C721.47,355.81,721.04,356.29,720.51,356.29z"/>
		<path class="st32" d="M762.04,361.89h-78.5c-0.53,0-0.96-0.48-0.96-1.06c0-0.59,0.43-1.06,0.96-1.06h78.5
			c0.53,0,0.96,0.48,0.96,1.06C763,361.41,762.57,361.89,762.04,361.89z"/>
		<path class="st32" d="M750.43,367.48h-66.89c-0.53,0-0.96-0.48-0.96-1.06c0-0.59,0.43-1.06,0.96-1.06h66.89
			c0.53,0,0.96,0.48,0.96,1.06C751.39,367,750.96,367.48,750.43,367.48z"/>
		<path class="st32" d="M711.94,373.37h-28.41c-0.53,0-0.96-0.48-0.96-1.06c0-0.59,0.43-1.06,0.96-1.06h28.41
			c0.53,0,0.96,0.48,0.96,1.06C712.91,372.9,712.48,373.37,711.94,373.37z"/>
		<path class="st32" d="M782.74,373.37H744.8c-0.53,0-0.96-0.48-0.96-1.06s0.43-1.06,0.96-1.06h37.94c0.53,0,0.96,0.48,0.96,1.06
			S783.28,373.37,782.74,373.37z"/>
	</g>
	<g>
		<path class="st38" d="M892.96,425.13h-62.38c-0.53,0-0.96-0.48-0.96-1.06c0-0.59,0.43-1.06,0.96-1.06h62.38
			c0.53,0,0.96,0.48,0.96,1.06C893.92,424.65,893.49,425.13,892.96,425.13z"/>
		<path class="st32" d="M929.79,441.45H912.2c-0.53,0-0.96-0.48-0.96-1.06c0-0.59,0.43-1.06,0.96-1.06h17.59
			c0.53,0,0.96,0.48,0.96,1.06C930.75,440.98,930.32,441.45,929.79,441.45z"/>
		<path class="st32" d="M867.56,430.27h-36.98c-0.53,0-0.96-0.48-0.96-1.06c0-0.59,0.43-1.06,0.96-1.06h36.98
			c0.53,0,0.96,0.48,0.96,1.06C868.52,429.79,868.09,430.27,867.56,430.27z"/>
		<path class="st32" d="M845.24,460.5h-14.66c-0.53,0-0.96-0.48-0.96-1.06c0-0.59,0.43-1.06,0.96-1.06h14.66
			c0.53,0,0.96,0.48,0.96,1.06C846.2,460.02,845.77,460.5,845.24,460.5z"/>
		<path class="st39" d="M899.27,460.5h-27.55c-0.53,0-0.96-0.48-0.96-1.06c0-0.59,0.43-1.06,0.96-1.06h27.55
			c0.53,0,0.96,0.48,0.96,1.06C900.24,460.02,899.81,460.5,899.27,460.5z"/>
		<path class="st32" d="M929.79,473.05h-99.21c-0.53,0-0.96-0.48-0.96-1.06c0-0.59,0.43-1.06,0.96-1.06h99.21
			c0.53,0,0.96,0.48,0.96,1.06C930.75,472.57,930.32,473.05,929.79,473.05z"/>
		<path class="st32" d="M909.08,435.86h-78.5c-0.53,0-0.96-0.48-0.96-1.06c0-0.59,0.43-1.06,0.96-1.06h78.5
			c0.53,0,0.96,0.48,0.96,1.06C910.04,435.38,909.61,435.86,909.08,435.86z"/>
		<path class="st32" d="M897.47,441.45h-66.89c-0.53,0-0.96-0.48-0.96-1.06c0-0.59,0.43-1.06,0.96-1.06h66.89
			c0.53,0,0.96,0.48,0.96,1.06C898.43,440.98,898,441.45,897.47,441.45z"/>
		<path class="st32" d="M858.99,447.35h-28.41c-0.53,0-0.96-0.48-0.96-1.06c0-0.59,0.43-1.06,0.96-1.06h28.41
			c0.53,0,0.96,0.48,0.96,1.06C859.95,446.87,859.52,447.35,858.99,447.35z"/>
		<path class="st32" d="M909.08,455.21h-78.5c-0.53,0-0.96-0.48-0.96-1.06c0-0.59,0.43-1.06,0.96-1.06h78.5
			c0.53,0,0.96,0.48,0.96,1.06C910.04,454.73,909.61,455.21,909.08,455.21z"/>
		<path class="st32" d="M929.79,447.35h-37.94c-0.53,0-0.96-0.48-0.96-1.06c0-0.59,0.43-1.06,0.96-1.06h37.94
			c0.53,0,0.96,0.48,0.96,1.06C930.75,446.87,930.32,447.35,929.79,447.35z"/>
		<path class="st37" d="M841.85,466.02h-11.27c-0.53,0-0.96-0.48-0.96-1.06c0-0.59,0.43-1.06,0.96-1.06h11.27
			c0.53,0,0.96,0.48,0.96,1.06C842.82,465.54,842.39,466.02,841.85,466.02z"/>
		<path class="st32" d="M869.27,466.02h-21.19c-0.53,0-0.96-0.48-0.96-1.06c0-0.59,0.43-1.06,0.96-1.06h21.19
			c0.53,0,0.96,0.48,0.96,1.06C870.23,465.54,869.8,466.02,869.27,466.02z"/>
		<path class="st32" d="M898.82,466.02h-24.35c-0.53,0-0.96-0.48-0.96-1.06c0-0.59,0.43-1.06,0.96-1.06h24.35
			c0.53,0,0.96,0.48,0.96,1.06C899.79,465.54,899.35,466.02,898.82,466.02z"/>
		<path class="st32" d="M928.85,466.02H904.5c-0.53,0-0.96-0.48-0.96-1.06c0-0.59,0.43-1.06,0.96-1.06h24.35
			c0.53,0,0.96,0.48,0.96,1.06C929.81,465.54,929.38,466.02,928.85,466.02z"/>
	</g>
	<rect x="683.53" y="420.67" class="st40" width="102.62" height="55.65"/>
	<rect x="827.64" y="488.57" class="st40" width="102.62" height="55.65"/>
	<g>
		<path class="st34" d="M890.02,533.1h-24.86c-5.81,0-10.57-4.75-10.57-10.57v-13.36c0-5.81,4.75-10.57,10.57-10.57h24.86
			c5.81,0,10.57,4.75,10.57,10.57v13.36C900.58,528.34,895.83,533.1,890.02,533.1z"/>
		<polygon class="st11" points="877.04,505.23 891.83,515.44 877.04,526.83 		"/>
		<polygon class="st11" points="869.89,505.23 884.68,515.44 869.89,526.83 		"/>
	</g>
</g>
<g>
	<rect x="519.59" y="386.72" class="st0" width="278.03" height="258.35"/>
	<path class="st30" d="M769.19,416.94h-128.2c-1.2,0-2.17-0.97-2.17-2.17v-3.98c0-1.2,0.97-2.17,2.17-2.17h128.2
		c1.2,0,2.17,0.97,2.17,2.17v3.98C771.37,415.97,770.39,416.94,769.19,416.94z"/>
	<path class="st30" d="M769.19,437.77h-128.2c-1.2,0-2.17-0.97-2.17-2.17v-3.98c0-1.2,0.97-2.17,2.17-2.17h128.2
		c1.2,0,2.17,0.97,2.17,2.17v3.98C771.37,436.79,770.39,437.77,769.19,437.77z"/>
	<path class="st30" d="M769.19,458.59h-128.2c-1.2,0-2.17-0.97-2.17-2.17v-3.98c0-1.2,0.97-2.17,2.17-2.17h128.2
		c1.2,0,2.17,0.97,2.17,2.17v3.98C771.37,457.62,770.39,458.59,769.19,458.59z"/>
	<path class="st30" d="M769.19,479.41h-128.2c-1.2,0-2.17-0.97-2.17-2.17v-3.98c0-1.2,0.97-2.17,2.17-2.17h128.2
		c1.2,0,2.17,0.97,2.17,2.17v3.98C771.37,478.44,770.39,479.41,769.19,479.41z"/>
	<path class="st30" d="M769.19,500.24h-128.2c-1.2,0-2.17-0.97-2.17-2.17v-3.98c0-1.2,0.97-2.17,2.17-2.17h128.2
		c1.2,0,2.17,0.97,2.17,2.17v3.98C771.37,499.26,770.39,500.24,769.19,500.24z"/>
	<path class="st30" d="M769.19,521.06H546.26c-1.2,0-2.17-0.97-2.17-2.17v-3.98c0-1.2,0.97-2.17,2.17-2.17h222.94
		c1.2,0,2.17,0.97,2.17,2.17v3.98C771.37,520.09,770.39,521.06,769.19,521.06z"/>
	<path class="st30" d="M769.19,541.88H546.26c-1.2,0-2.17-0.97-2.17-2.17v-3.98c0-1.2,0.97-2.17,2.17-2.17h222.94
		c1.2,0,2.17,0.97,2.17,2.17v3.98C771.37,540.91,770.39,541.88,769.19,541.88z"/>
	<path class="st30" d="M769.19,562.71H546.26c-1.2,0-2.17-0.97-2.17-2.17v-3.98c0-1.2,0.97-2.17,2.17-2.17h222.94
		c1.2,0,2.17,0.97,2.17,2.17v3.98C771.37,561.73,770.39,562.71,769.19,562.71z"/>
</g>
<g>
	<g>
		<g>
			<path class="st20" d="M618.57,652.07c0.66,2,1.52,4.04,3.21,5.43c2.49,2.04,6.15,2.19,9.49,2.24c3.85,0.05,8.07-0.01,11.01-2.29
				c1.66-1.29,2.69-3.14,3.43-5.02c2.56-6.49,2.13-13.94-1.18-20.14c-0.6-1.13-1.31-2.24-2.36-3.04c-1.38-1.05-3.2-1.46-4.98-1.62
				c-4.53-0.39-9.19,0.75-12.91,3.15c-3.57,2.31-6.47,5.95-7.54,9.87C615.78,644.18,617.47,648.71,618.57,652.07z"/>
			<path class="st21" d="M640.58,678.59c-1.81,1.22-7.13,0.47-8.86,1.47c-1.72,1-7.6,1.3-9.31,0.84c0-8.65,3.96-17.41,4.04-25.37
				c3.49,7.32,7.15,3.3,10.7-1.71C637.08,661.6,640.48,670.77,640.58,678.59z"/>
			<path class="st21" d="M660.97,733.76c1.84-1.31,3.65-2.79,4.91-4.81c2.64-4.23,2.31-10.15,0.34-14.82
				c-1.32-3.13-3.76-9.48-5.91-11.98c2.48-1.21,12.77-5.84,15.83-7.96c1.45,5.12,3.21,11.71,4.05,17.63
				c0.9,6.31,1.43,13.04-0.88,18.87c-1.69,4.27-4.8,7.66-8.33,10.07c-6.75,4.6-14.88,5.74-22.74,5.86c-0.31,0-0.63,0-0.89-0.19
				c-0.3-0.22-0.42-0.64-0.53-1.02c-0.37-1.35-0.75-2.7-1.12-4.05C651.08,739.7,656.25,737.13,660.97,733.76z"/>
			<path class="st18" d="M673.42,699.11c-0.04,0.04-0.1,0.09-0.18,0.17c-2.91,2.67-5.84,4.9-9.18,6.64
				c-0.07,0.05-0.14,0.11-0.21,0.16c-0.01-0.01-0.01-0.02-0.02-0.04c-0.31,0.16-0.64,0.3-0.96,0.45c1.28,3.26,2.72,6.77,4.21,10.12
				c6.48-3.72,10.76-12.17,11.16-14.56c-0.22-0.73-0.89-3.42-1.44-5.55C675.68,697.39,674.55,698.25,673.42,699.11z"/>
			<path class="st18" d="M626.3,661.72c0.29,0.87,0.79,1.73,1.25,2.43c0.93,1.43,2.35,2.42,4.03,2.89c1.95,0.55,3.94-0.44,5.41-1.7
				c0.48-0.41,0.94-0.85,1.4-1.3c-0.68-3.52-1.26-7-1.23-10.23c-3.55,5.01-7.21,9.03-10.7,1.71c0.22,0.46-0.06,1.63-0.11,2.14
				c-0.07,0.79-0.21,1.57-0.28,2.35C626,660.57,626.11,661.15,626.3,661.72z"/>
			<path class="st8" d="M662.57,726.91c-0.95-7.1-1.84-14.33-2.87-21.52c-0.35-2.42-0.71-4.83-1.1-7.23
				c-0.4-2.47-0.78-4.99-1.2-7.54c-1.17-7.12-2.31-15.97-5.31-22.45c-0.09-0.2-0.16-0.4-0.21-0.6c-0.15-0.03-10.4-3.76-13.6-4.01
				c0.09,2.36-1.75,7.92-6.38,7.87c-2.89-0.03-6.37-4.26-6.5-7.87c-4.27,0.39-13.59,4.06-13.62,4.07
				c-2.27,0.48-3.75,13.85-4.02,15.58c-1.17,7.51-2.48,14.87-3.45,22.39c-0.01,0.07-0.02,0.15-0.03,0.22
				c-0.74,5.78-1.43,11.57-2.1,17.36c-1.22,10.45-2.4,20.91-3.56,31.37c-0.06,0.54-0.12,1.09-0.18,1.63l68.07,0.18
				C665.19,746.54,663.89,736.72,662.57,726.91z"/>
			<path class="st9" d="M662.57,726.91c-0.95-7.1-1.84-14.33-2.87-21.52c-0.35-2.42-0.71-4.83-1.1-7.23
				c-0.4-2.47-0.78-4.99-1.2-7.54c-1.17-7.12-2.31-15.97-5.31-22.45c-0.09-0.2-0.16-0.4-0.21-0.6c-0.06-0.01-1.73-0.62-3.93-1.35
				c0.03,0.14,0.05,0.28,0.07,0.43c0.02,0.15-0.02,0.59,0.08,0.73c-0.03-0.04-0.14-0.92-0.03-0.22c0.06,0.35,0.11,0.69,0.17,1.04
				c0.13,0.78,0.29,1.55,0.45,2.32c0.34,1.63,0.73,3.26,1.11,4.89c0.85,3.61,1.72,7.21,2.29,10.87c0.99,6.28,1.55,13.49-1.9,19.18
				c-3.24,5.35-9.72,7.88-15.42,9.63c-2.46,0.76-4.95,1.36-7.43,2.03c-3.93,1.06-7.8,2.35-11.68,3.58
				c-4.53,1.44-9.07,2.82-13.67,3.94c-1.16,9.97-2.29,19.94-3.4,29.91c-0.06,0.54-0.12,1.09-0.18,1.63l68.07,0.18
				C665.19,746.54,663.89,736.72,662.57,726.91z"/>
			<path class="st21" d="M603.6,731.79c-1.84-1.31-3.65-2.79-4.91-4.81c-2.64-4.23-2.31-10.15-0.34-14.82
				c1.32-3.13,4.2-8.97,6.35-11.47c-2.48-1.21-13.21-6.36-16.27-8.47c-2.02,5.64-3.21,11.71-4.05,17.63
				c-0.9,6.31-1.43,13.04,0.88,18.87c1.69,4.27,4.8,7.66,8.33,10.07c6.75,4.6,14.88,5.74,22.74,5.86c0.31,0,0.63,0,0.89-0.19
				c0.3-0.22,0.42-0.64,0.53-1.02c0.37-1.35,0.75-2.7,1.12-4.05C613.49,737.73,608.33,735.16,603.6,731.79z"/>
			<path class="st18" d="M598.89,734.67c-2.58-0.05-5.13,0-7.7,0.11c-0.69,0.03-1.4,0.05-2.11,0.06c1.35,1.52,2.89,2.85,4.52,3.96
				c6.75,4.6,14.88,5.74,22.74,5.86c0.31,0,0.63,0,0.89-0.19c0.3-0.22,0.42-0.64,0.53-1.02c0.37-1.35,0.75-2.7,1.12-4.05
				c-3.56-1.1-7.03-2.59-10.33-4.46C605.33,734.84,602.11,734.73,598.89,734.67z"/>
			<path class="st18" d="M588.89,704.48c0.28,0.42,0.58,0.84,0.88,1.25c0-0.01,0.45,0.56,0.44,0.55c0.16,0.19,0.32,0.38,0.49,0.56
				c0.75,0.84,1.77,1.83,2.39,2.25c0.53,0.36,1.07,0.69,1.63,0.98c0.27,0.14,0.55,0.28,0.83,0.4c0.05,0.02,0.08,0.04,0.09,0.04
				c0.04,0.01,0.11,0.03,0.22,0.07c0.93,0.31,1.87,0.59,2.82,0.83c1.42-3.24,4.04-8.41,6.03-10.73c-2.48-1.21-13.21-6.36-16.27-8.47
				c-0.9,2.5-1.62,5.08-2.23,7.7C587.03,701.48,587.9,703.01,588.89,704.48z"/>
			<path class="st11" d="M658.5,748.32h-53.04c-0.57,0-1.03-0.46-1.03-1.03v-33.37c0-0.57,0.46-1.03,1.03-1.03h53.04
				c0.57,0,1.03,0.46,1.03,1.03v33.37C659.52,747.86,659.06,748.32,658.5,748.32z"/>
			<path class="st11" d="M657.99,748.12h-51.69c-0.36,0-0.66-0.3-0.66-0.66V714.7c0-0.36,0.3-0.66,0.66-0.66h51.69
				c0.36,0,0.66,0.3,0.66,0.66v32.76C658.65,747.82,658.35,748.12,657.99,748.12z"/>
			<path class="st24" d="M632.27,731.5c-5.15,1.51-10.19,3.45-14.89,6.05c-2.36,1.31-4.55,2.82-6.72,4.4
				c-1.95,1.41-3.89,2.93-5.02,5.09v2.54c0,0.36,0.3,0.66,0.66,0.66h51.69c0.36,0,0.66-0.3,0.66-0.66v-22.51
				C649.72,727.59,640.85,728.98,632.27,731.5z"/>
			<path class="st15" d="M611.78,667.63c0.04-0.01,0.08-0.02,0.12-0.02c-2.52,0.78-7.13,3.7-9.59,5.08
				c-4.03,2.27-7.4,5.92-10.01,10.3c-2.35,3.94-4.1,8.33-5.44,12.93c1.3,2.28,3.02,4.18,5.19,5.68c3.06,2.12,9.2,4.36,9.81,4.63
				c1.36-2.6,2.63-4.18,3.16-5.57c0.82-5.48,1.88-11.93,2.74-17.45C608.03,681.48,609.51,668.11,611.78,667.63z"/>
			<path class="st15" d="M671.65,682.4c-2.61-4.44-5.98-8.13-10.01-10.44c-2.69-1.54-9.9-4.43-9.75-4.4
				c0.05,0.2,4.34,15.93,5.52,23.06c0.42,2.54-0.03,3.71,0.36,6.18c0.39,2.4,3.32,8.11,5.35,10.61c2.71-0.76,7.55-3.85,9.4-5.28
				c2.39-1.85,3.5-3.17,4.58-4.63C675.75,692.84,674,686.39,671.65,682.4z"/>
			<g>
				<polygon class="st18" points="677.67,764.68 671.67,763.06 670.29,770.95 676.23,771.75 681.91,770.05 682.33,766.93 				"/>
				<path class="st22" d="M677.67,764.68c0.06,0.44,12.31-1.98,13.51-2.24c0.38-0.08,0.75-0.18,1.13-0.27
					c1.93-0.47,3.88-0.95,5.86-0.94c4.87,0.03,9.14,3.01,13.05,5.93c0.13,0.57,0.21,1.12,0.17,1.7c-0.04,0.68-0.24,1.36-0.53,2.02
					c-4.36,3.7-10.75,4.25-16.5,3.52c-6.07-0.77-12.03-2.7-18.15-2.65C677.48,769.64,677.99,767.11,677.67,764.68z"/>
				<path class="st22" d="M552.76,741.2c1.63-3.61,5.46-6.01,9.61-6.76c9.41-1.7,18.45-0.61,27.8,0.97
					c9.76,1.65,75.48,25.15,85.62,28.33c-0.59,2.89-1.17,5.77-1.76,8.66c-0.28,1.37-34.97-3.04-37.08-3.3
					c-26.18-3.22-52.94-5.71-77.52-15.19C552.67,751.3,552.06,742.77,552.76,741.2z"/>
			</g>
			<g>
				<polygon class="st18" points="586.28,764.74 592.28,763.12 593.66,771.01 587.72,771.82 582.04,770.11 581.62,767 				"/>
				<path class="st22" d="M586.28,764.74c-0.06,0.44-12.31-1.98-13.51-2.24c-0.38-0.08-0.75-0.18-1.13-0.27
					c-1.93-0.47-3.88-0.95-5.86-0.94c-4.87,0.03-9.14,3.01-13.05,5.93c-0.13,0.57-0.21,1.12-0.17,1.7c0.04,0.68,0.24,1.36,0.53,2.02
					c4.36,3.7,10.75,4.25,16.5,3.52c6.07-0.77,12.03-2.7,18.15-2.65C586.47,769.71,585.96,767.17,586.28,764.74z"/>
				<path class="st20" d="M711.19,741.27c-1.63-3.61-5.46-6.01-9.61-6.76c-9.41-1.7-18.45-0.61-27.8,0.97
					c-9.76,1.65-75.48,25.15-85.62,28.33c0.59,2.89,1.17,5.77,1.76,8.66c0.28,1.37,34.97-3.04,37.08-3.3
					c26.18-3.22,52.94-5.71,77.52-15.19C711.28,751.36,711.89,742.83,711.19,741.27z"/>
			</g>
			<ellipse class="st41" cx="631.3" cy="732.06" rx="5.21" ry="3.53"/>
			<path class="st21" d="M618.56,646.27c0.56,3.76,1.53,7.54,3.66,10.69c2.13,3.15,5.58,5.58,9.37,5.71
				c4.81,0.16,9.12-3.4,11.27-7.7c2.15-4.3,2.55-9.24,2.82-14.04c0.23-4.08,0.34-8.39-1.59-12c-0.7-1.31-1.68-2.5-2.92-3.31
				c-0.88-0.58-1.88-0.96-2.9-1.25c-4.33-1.23-9.18-0.8-13.08,1.46C617.54,630.27,617.4,638.48,618.56,646.27z"/>
			<path class="st20" d="M649.48,629.46c-0.27-1.81-0.75-3.53-1.51-5.08c-1.3-2.63-3.71-5.86-5.71-8.03
				c-2.55-2.76-6.74-3.1-10.49-2.95c-2.32,0.09-4.67,0.31-6.82,1.2c-2.14,0.89-4.07,2.55-4.79,4.75c-0.09,0.27-0.15,0.53-0.19,0.8
				c-5.06,3.21-7.89,9.82-6.37,15.66c0.51,1.98,1.46,3.98,1.06,5.97c0.16,1.16,0.28,2.32,0.38,3.48c0.84,0.94,2.18,1.41,3.06,0.58
				c0.63-0.6,0.69-1.58,0.7-2.45c0.04-2.58,0.08-5.16,0.12-7.74c0.01-0.48,0.02-0.98,0.25-1.4c0.23-0.43,0.65-0.71,1.04-1.01
				c1.59-1.2,2.9-2.77,3.81-4.54c1.71,1.58,3.68,2.81,5.32,3.42c3.49,1.32,7.33,1.42,11.04,0.99c1.02-0.12,2.05-0.28,3.06-0.53
				c0.22,3.58,0.43,7.17,0.64,10.75c0.08,1.32,0.39,2.95,1.66,3.33c0.86,0.26,1.81-0.27,2.32-1.01c0.51-0.74,0.68-1.66,0.83-2.55
				C649.55,639.04,650.16,633.99,649.48,629.46z"/>
			<path class="st18" d="M619.53,647.88c-0.16-2-0.63-4.11-0.66-6.12c-0.33-0.2-0.48-0.21-0.86-0.25c-0.33-0.04-0.68-0.01-0.97,0.17
				c-0.5,0.31-0.71,0.98-0.84,1.6c-0.43,2-0.51,4.14,0.08,6.09c0.59,1.95,1.91,3.68,3.66,4.34c0.24,0.09,0.37,0.12,0.61,0.06
				C619.99,651.82,619.7,649.95,619.53,647.88z"/>
			<path class="st18" d="M647.96,643.28c-0.13-0.62-0.34-1.29-0.84-1.6c-0.29-0.18-0.64-0.2-0.97-0.17
				c-0.76,0.08-1.44,0.51-1.96,1.11c-0.08,0.03-0.15,0.07-0.22,0.12c0.05,1.17,0.04,2.35,0.04,3.54c0,2.32,0.08,3.7-0.26,6.01
				c-0.03,0.23-0.31,1.45-0.39,1.65c0.22,0.04,0.64-0.17,0.86-0.25c1.75-0.65,3.08-2.39,3.66-4.34
				C648.47,647.42,648.39,645.28,647.96,643.28z"/>
		</g>
		<path class="st21" d="M623.6,629.21c2.38-1.84,5.41-2.68,8.41-2.96c2.46-0.23,5.05-0.08,7.21,1.12c1.13,0.63,2.09,1.53,2.92,2.52
			c1.8,2.17,2.99,4.9,3.04,7.72c0.05,2.82-1.14,5.7-3.36,7.44c-1.49,1.17-3.33,1.78-5.16,2.28c-2.65,0.74-5.53,1.3-8.1,0.32
			c-2.11-0.81-3.71-2.54-5.23-4.22C619.29,638.98,618.29,633.31,623.6,629.21z"/>
		<path class="st20" d="M631.89,627.79c3.53,0.52,7.18,0.7,10.63-0.22c0.27-0.07,0.56-0.16,0.76-0.36c0.21-0.21,0.29-0.51,0.37-0.8
			c0.3-1.14,0.59-2.41,0.03-3.45c-0.5-0.93-1.55-1.4-2.55-1.75c-3.09-1.12-6.34-1.8-9.63-2.01c-1.06-0.07-2.15-0.08-3.16,0.24
			c-1.58,0.5-2.78,1.75-3.92,2.95c-1.07,1.14-3.56,4.9-0.63,5.55c1.03,0.23,2.53-0.56,3.62-0.6
			C628.91,627.31,630.41,627.57,631.89,627.79z"/>
	</g>
	<path class="st20" d="M628.43,633.92c3.39,2.82,6.74,5.81,10.45,8.09c1.01,0.62,8.89,4.54,10.5,3.19c0.11-0.59,0.2-1.2,0.28-1.85
		c0.02-0.18,0.07-0.35,0.11-0.52c-0.08-0.3-0.15-0.6-0.23-0.9c-0.03-0.11-0.07-0.23-0.11-0.34c1-1.58,1.57-3.5,1.35-5.44
		c-0.07-0.65-0.58-1.47-1.07-1.12c-0.04,0.42-0.09,0.84-0.13,1.26c-0.74,0.35-1.56-0.28-2.18-0.87c-0.74-0.7-1.49-1.41-2.2-2.14
		c-0.48-0.6-0.99-1.18-1.53-1.71c-0.1-0.12-0.2-0.24-0.3-0.37c-0.89-1.14-1.66-2.39-2.7-3.36c-2.92-2.74-7.13-2.58-10.83-1.93
		c-2.29,0.4-4.59,0.95-6.58,2.22c-0.4,0.25-0.78,0.55-1.15,0.87C624.26,630.51,626.35,632.19,628.43,633.92z"/>
</g>
<path class="st24" d="M439.01,188.79c-29.1-6.72-62.35,1.37-83.28,20.27c-11.54,10.42-19.55,24.67-17.48,38.84
	c1.14,7.8,4.65,15.06,9.6,21.51c9.59,12.48,24.6,21.89,38.27,26.23c13.45,4.27,28.47,4.59,42.67,1.39c3.69-0.49,4.92-0.49,5.28,5
	c0.24,3.69-2.71,10.62-4.99,13.46c12.42-11.83,23.25-22.86,33.31-34.46c0.99-0.81,1.97-1.64,2.92-2.5
	c7.11-6.48,11.98-14.54,15.67-22.84c2.82-6.34,5.01-12.98,5.19-19.74C486.72,213.54,464.17,194.61,439.01,188.79z"/>
<g>
	<g>
		<path class="st18" d="M365.04,388.96c-0.27,0.1-0.48,0.35-0.51,0.62c0,0.04,0,0.07,0.01,0.11c0.03,0.07,0.13,0.09,0.21,0.11
			c0.43,0.13,0.64,0.57,0.8,0.97c0.08,0.21,0.17,0.41,0.25,0.62c0.05,0.11,0.09,0.23,0.17,0.32c0.17,0.21,0.47,0.3,0.75,0.36
			c0.23,0.05,0.51,0.09,0.69-0.06c0.24-0.19,0.16-0.55,0.07-0.83c-0.21-0.63-0.45-1.3-0.99-1.72
			C366.16,389.19,365.5,388.8,365.04,388.96z"/>
		<path class="st33" d="M397.87,432.44c-0.56-3.15-2.89-8.49-4.69-12.65c-2.62-6.06-10.48-18.34-14.26-25.25
			c0.27,0.5-6.46,2.72-6.37,2.93c3.13,7.58,10.16,26.6,9.95,32.53c-0.02,0.57-0.53,1-1.06,0.78c-15.07-6.05-29.75-13.12-44.42-20.06
			c-2.15-1.02-4.3-2.04-6.45-3.06c0,0-1.35,4.73,1.13,10.96c2.64,6.62,9.18,13.2,9.18,13.2c4.87,3,10.14,5.74,16.6,8.2
			c3.92,1.49,28.33,8.66,34.6,6.44C399.1,443.97,398.71,437.15,397.87,432.44z"/>
		<path class="st18" d="M378.28,392.84c0-0.3,0.07-0.61,0.1-0.92c0.09-1.06-0.32-2.01-0.74-2.89c-0.64-1.33-1.33-2.58-2.06-3.75
			c-0.33-0.53-0.71-1.03-1.24-1.27c-0.69-0.31-1.3-0.02-1.76,0.59c-0.8-0.81-1.92-0.19-2.37,0.5c-0.31-0.39-0.59-0.49-1.38-0.08
			c-0.16,0.08-0.73,0.62-0.76,0.99c-0.01,0.09-1.01-0.56-1.73,0.53c-0.42,0.64-0.53,1.77-0.47,2.5c0.09,1.02,0.47,1.98,0.79,2.89
			c0.17,0.48,0.37,0.95,0.6,1.39c0.2,0.39,0.4,0.89,0.78,1.06c0.4,0.17,0.89,0.09,1.33,0.22c0.6,0.18,1.24,0.38,1.72,0.89
			c0.48,0.5,1.14,1.04,1.39,1.74c0.09,0.25,0.24,0.83,0.69,0.9c1.82,0.27,5.58-1.75,5.89-2.62c0.14-0.4-0.03-0.73-0.16-1
			C378.63,393.98,378.28,393.46,378.28,392.84z"/>
		<path class="st37" d="M380.08,388.4l-15.15,4.12c-1.55,0.42-3.17-0.46-3.6-1.97l-2.13-7.41c-0.43-1.51,0.48-3.08,2.03-3.5
			l15.15-4.12c1.55-0.42,3.17,0.46,3.6,1.97l2.13,7.41C382.54,386.4,381.63,387.98,380.08,388.4z M361.8,381.63
			c-0.42,0.12-0.67,0.54-0.55,0.96l2.13,7.41c0.12,0.41,0.56,0.65,0.98,0.54l15.15-4.12c0.42-0.12,0.67-0.54,0.55-0.96l-2.13-7.41
			c-0.12-0.41-0.56-0.65-0.98-0.54L361.8,381.63z"/>
		<g>
			<polygon class="st42" points="389.69,349.98 386.19,351.81 394.68,381.39 398.63,381.15 			"/>
			<path class="st43" d="M344.65,383.81c-0.52-1.03-1.11-2.58-1.62-4.34c-0.51-1.76-0.83-3.38-0.93-4.53
				c-0.09-0.98-0.01-1.62,0.24-1.71l-1.33,0.45c-0.54,0.19-0.23,2.94,0.69,6.16c0.92,3.21,2.12,5.72,2.68,5.6l1.37-0.3
				C345.5,385.2,345.1,384.69,344.65,383.81z"/>
			<path class="st37" d="M344.96,378.94c0.95,3.32,1.27,6.11,0.71,6.23c-0.55,0.12-1.75-2.42-2.68-5.68
				c-0.93-3.26-1.26-6.04-0.73-6.22C342.79,373.08,344,375.62,344.96,378.94z"/>
			<g>
				<path class="st37" d="M342.71,374.49l1.35,4.69c-0.56-1.95-0.89-3.73-0.96-4.9L342.71,374.49z"/>
				<path class="st37" d="M345.54,384.35l0.58-0.04c-0.62-0.93-1.41-2.85-2.06-5.13L345.54,384.35z"/>
				<path class="st43" d="M381.21,354.41l-36.73,19.17c0,0.18,0.01,0.37,0.03,0.58c0.1,1.18,0.42,2.84,0.94,4.64
					c0.52,1.8,1.12,3.38,1.66,4.44c0.21,0.41,0.42,0.74,0.6,0.98l6.02-0.36l26.2-1.58l9.08-0.55c-1.82-3.51-3.63-8.11-5.11-13.26
					C382.41,363.27,381.51,358.36,381.21,354.41z"/>
				<path class="st37" d="M354.15,368.55l-0.26,0.14l-6.12,3.19c0,0.2,0.01,0.42,0.03,0.67c0.11,1.34,0.48,3.24,1.07,5.29
					c0.59,2.06,1.28,3.86,1.9,5.06c0.24,0.47,0.47,0.85,0.68,1.11l6.86-0.41C354.44,375.5,354.15,368.55,354.15,368.55z"/>
				<path class="st37" d="M386.19,351.81l-4.98,2.6c0.3,3.95,1.21,8.86,2.7,14.07c1.47,5.14,3.29,9.75,5.11,13.26l5.66-0.34
					L386.19,351.81z"/>
				<path class="st43" d="M345.44,378.8c-0.52-1.8-0.84-3.46-0.94-4.64c-0.02-0.21-0.03-0.4-0.03-0.58l-0.11,0.06l-1.26,0.66
					c0.06,1.17,0.4,2.95,0.96,4.9c0.65,2.27,1.44,4.19,2.06,5.13l1.28-0.08l0.31-0.02c-0.18-0.23-0.39-0.56-0.6-0.98
					C346.57,382.19,345.96,380.61,345.44,378.8z"/>
			</g>
			<polygon class="st43" points="388.42,345.53 389.3,348.62 389.69,349.98 398.63,381.15 399.31,383.51 399.91,385.6 
				407.34,384.56 406.24,380.7 396.42,346.47 395.31,342.61 			"/>
			<path class="st43" d="M399.53,364.08c3.29,11.45,3.41,21.1,0.38,21.52c-2.91,0.41-7.69-7.95-10.76-18.65
				c-3.07-10.7-3.44-20.28-0.74-21.42C391.22,344.34,396.24,352.63,399.53,364.08z"/>
			<path class="st43" d="M407.22,361.95c3.45,12.01,3.45,22.14,0.13,22.61c-3.19,0.45-8.29-8.27-11.5-19.46
				c-3.21-11.19-3.49-21.24-0.53-22.5C398.39,341.3,403.77,349.94,407.22,361.95z"/>
			<path class="st35" d="M405.73,362.13c3.21,11.19,3.86,20.56,1.51,20.91c-2.28,0.34-6.56-8.01-9.61-18.65
				c-3.05-10.64-3.84-19.96-1.72-20.85C398.1,342.63,402.52,350.94,405.73,362.13z"/>
		</g>
		<path class="st18" d="M376.27,387.75c-0.09-0.91-0.43-1.76-0.73-2.58c-0.02-0.07-0.06-0.13-0.09-0.19
			c-2.67,1.51-6.04,2.32-9.32,2.89c0,0.01,0,0.03,0,0.04c0.03,0.35-0.03,0.67-0.16,0.96c0.42,0.77,0.85,1.52,1.31,2.22
			c0.31,0.47,0.65,0.92,1.15,1.13c0.64,0.27,1.21,0.02,1.63-0.52c0.74,0.72,1.78,0.17,2.19-0.44c0.28,0.34,0.54,0.44,1.28,0.07
			c0.15-0.07,0.67-0.55,0.71-0.88c0.01-0.08,0.93,0.5,1.6-0.47C376.22,389.4,376.33,388.4,376.27,387.75z"/>
	</g>
	<path class="st17" d="M356.86,520.24c0,0-4.64,78.13-6.79,96.99c-2.15,18.86-6.2,113.91-6.2,113.91l-6.16,2.12l-5.6-2.12
		c0,0-3.97-69.52-6-84.64s-9.93-100.67-10.49-115.88C315.05,515.41,344.41,469.77,356.86,520.24z"/>
	<path class="st19" d="M326.28,525.48c0,0-8.65,70.39-11.91,89.09c-3.26,18.7-13.9,116.15-13.9,116.15l-4.65,3.11l-4.66-1.53
		c0,0-1.33-77.98-2.46-93.19c-1.13-15.21-1.61-104.62-1.27-119.83C287.77,504.07,316.83,474.37,326.28,525.48z"/>
	<path class="st18" d="M319.39,403.48c-1.94,0.43-3.91,0.49-5.76,0.85c-1.84,0.36-3.68,0.72-5.51,0.55c0-3.09-0.2-6.46-0.12-9.3
		c3.73,2.61,7.64,1.18,11.43-0.61C319.36,397.75,319.29,400.69,319.39,403.48z"/>
	<path class="st7" d="M289.87,497.04c3.82-14.57,5.1-33.84,1.66-44.62c-6.83-21.45-3.35-36.58,7.86-43.12
		c2.07-1.21,4.38-2.3,6.88-3.14c0.2-0.5,0.39-0.99,0.54-1.5c0.4-1.35,0.63-2.74,0.69-4.11c0.03-0.69,1.86-0.04,2.38,0.04
		c0.97,0.13,1.95,0.22,2.93,0.25c2.55,0.09,4.94-0.43,7.3-1.08c0.17,1.68,0.43,3.31,1.2,5.03c0.01,0.03,0.03,0.05,0.04,0.08
		c4.67,0.76,9.63,2.66,14.73,6.19c12.73,11.73,7.91,34.34,14.67,63.91c8.07,35.31,6.11,45.27,6.11,45.27s-46.81,9.55-69.43-0.95
		C287.43,519.29,286.34,510.47,289.87,497.04z"/>
	<path class="st33" d="M315.74,516.52c-11.54-8.79-15.04-21.81-15.1-35.83c-0.02-5.71,0.54-11.4,0.83-17.09
		c0.33-6.56,0.09-7.71-1.42-13.51c-3.19-12.29-7.28-25.04-4.72-37.69c-7.89,7.62-9.73,21.45-3.8,40.04
		c3.43,10.77,2.16,30.05-1.66,44.62c-3.52,13.43-2.43,22.24-2.43,22.24c10.98,5.1,27.66,5.46,41.92,4.5
		C324.55,521.98,319.95,519.72,315.74,516.52z"/>
	<path class="st21" d="M328.52,362.43c0,0-0.16,7.7,0.91,13.85c1.06,6.14,3.72,21.43-6.74,22.11c-10.46,0.68-15.43-0.22-17.79-2.83
		c-2.36-2.61-11.42-18.54-7-26.78C302.33,360.53,321.08,349.29,328.52,362.43z"/>
	<path class="st22" d="M294.38,372.6c-0.01-4.6,1.64-9.99,6.03-11.36c0.96-0.3,3.39-4.79,4.49-5.74c1.97-1.7,4.29-2.95,6.78-3.7
		c3.53-1.05,9.21-1.95,12.86-0.83c3.36,1.04,5.84,4.11,6.28,7.68c0.8,6.45-5.16,7.39-10.2,7.35c-3.04-0.02-6.13,0.13-8.98,1.2
		c-2.84,1.06-5.43,3.17-6.42,6.04c-0.91,2.64-0.38,5.47,0.14,8.26c0.72,2.04,1.51,4.06,2.61,5.89c1.26,1.2,3.26,1.63,5.05,1.39
		c2.62-0.33,11.04-3.27,15.57-2.49c0.45-0.13,0.91-0.25,1.36-0.38c0.38-0.1,0.8-0.2,1.13,0.03c1.02,0.7,1.05,3.86,0.69,5
		c-0.27,0.85-0.97,2.04-1.75,2.93c-1.85,3.08-4.79,4.17-8.37,4.56c-2.24,0.24-6.08,1.26-8.22,0.19c-1.38-0.68-1.87-1.84-2.18-3.12
		c-0.87-0.77-1.75-2.15-2.18-2.68c-1.16-1.42-2.27-2.88-3.32-4.37c-0.79-1.11-1.55-2.26-1.94-3.56c-0.23-0.78-0.33-1.59-0.42-2.4
		c-0.04-0.35-0.08-0.69-0.12-1.04c-0.07-0.26-0.13-0.53-0.16-0.78c-0.16-1.53-0.36-3.45-1.81-3.95c-1.55,2.6-0.64,5.93,0.54,8.72
		c0.13,0.3,0.26,0.61,0.39,0.91c0.24,0.09,0.49,0.23,0.75,0.48c0.43,0.44,0.72,0.99,0.99,1.55c1.22,2.49,2.24,5.1,2.81,7.82
		c0.06,0.29,0.1,0.63-0.1,0.84c-0.33,0.37-0.93,0.05-1.31-0.28c-1.27-1.11-2.56-2.25-3.58-3.57c-0.09-0.1-0.18-0.2-0.26-0.3
		C296.96,387.19,294.4,379.91,294.38,372.6z"/>
	<path class="st18" d="M344.06,726.63c0,1.45-0.15,5.59-0.13,5.95c-2.89,3.72-7.81,2.18-11.72-0.06c-0.02-0.46-0.23-3.54-0.25-4
		C335.92,729.78,340.38,728.88,344.06,726.63z"/>
	<path class="st18" d="M300.85,727.33c0,0.24-0.38,4.31-0.37,4.55c0,0-4.21,3.19-7.78,2.24c-0.51-0.13-1-0.32-1.5-0.49
		c-0.07-0.69-0.03-5.12-0.09-5.84C294.3,728.76,297.95,728.7,300.85,727.33z"/>
	<g>
		<path class="st17" d="M283.2,740.81c1.5-1.22,3.82-1.76,5.35-2.98c0.75-0.6,2.5-1.62,2.57-2.29c0.06-0.63,0.08-1.91,0.05-2.85
			c3.41,0.41,6.23,0.04,9.35-1.29c-0.01,0.92-0.08,1.49-0.08,2.38c0.44,2.06,0.72,2.37,0.96,4.43c0.27,2.38,0.68,5.37-1.13,7.29
			c-1.34,1.43-3.5,1.56-5.46,1.55c-2.18-0.01-8.11,0.31-8.81,0.24C283.87,747.08,276.81,745.99,283.2,740.81z"/>
		<path class="st44" d="M301.24,743.9c-0.21,0.58-0.52,1.12-0.97,1.6c-1.34,1.43-3.5,1.56-5.46,1.55
			c-2.18-0.01-11.19,0.24-11.89,0.18c-1.49-0.15-2.31-0.66-2.32-2.78C288.38,741.46,291.9,745.83,301.24,743.9z"/>
	</g>
	<g>
		<path class="st17" d="M332.16,732.18c0.85,0.23,9.16,0.67,11.8-1.12c-0.02,1.27-0.04,2.87-0.04,2.87s11.53,1.1,23.31,4.91
			c11.78,3.8,12.42,7.92-3.61,7.01c-28.88,0.64-30.89,0.73-30.98-6.43C332.63,738.11,332.42,733.97,332.16,732.18z"/>
		<path class="st44" d="M371.82,742.95c1.09,0,1.93-0.39,2.52-1c3.75,2.58,0.88,4.55-10.72,3.89c-14.34,0.32-24.22,0.65-28.37-0.12
			c-2.9-0.54-1.88-1.7-2.33-3.46C345.89,742.56,358.84,742.94,371.82,742.95z"/>
	</g>
	<path class="st7" d="M301.3,407.86c-7.61-0.16-17.34,11.89-18.69,23.42c-0.12,1.01-1.02,5.37-2.14,9.66
		c-2.97,11.02-8.4,22.03-11.8,26.09c-7.71,9.23-27.1,4.74-38.19,1.27c-0.63,2.04-0.59,4.67-0.18,8.13c1.71,0.87,3.43,1.72,5.17,2.53
		c4.23,1.98,8.58,3.74,13.05,5.09c4.7,1.42,9.6,2.4,14.53,2.4c4.75,0,9.53-1,13.63-3.46c1.94-1.17,3.69-2.64,5.21-4.32
		c6.24-6.92,11.95-18.92,15.71-30.31c3.19-6.52,6.63-12.76,8.06-16.87C310.74,416.97,308.09,408,301.3,407.86z"/>
	<g>
		<polygon class="st24" points="216.51,372.72 232.07,338.94 247.73,372.67 		"/>
		<polygon class="st6" points="227.65,346.99 232.07,338.94 236.51,346.98 		"/>
		<path class="st7" d="M240.94,685.58l-17.2,0.03c-3.86,0.01-7.01,3.17-7,7.02l0.08,47.53c0.01,3.86,3.17,7.01,7.02,7l17.2-0.03
			c3.86-0.01,7.01-3.17,7-7.02l-0.08-47.53C247.96,688.72,244.8,685.57,240.94,685.58z"/>
		<rect x="216.62" y="372.72" class="st8" width="10.41" height="321.26"/>
		<rect x="227.03" y="372.7" class="st9" width="10.41" height="321.26"/>
		<rect x="237.44" y="372.68" class="st10" width="10.41" height="321.26"/>
		
			<rect x="216.74" y="689.22" transform="matrix(1 -1.700836e-03 1.700836e-03 1 -1.1784 0.3962)" class="st11" width="31.22" height="7.59"/>
	</g>
	<path class="st18" d="M211.36,471.73c0.09-0.55,0.13-2.26,0.7-2.75c0.57-0.49,2.5-0.64,3.62-0.58c0.76,0.05,1.75,0.14,2.29,0.3
		c1.23,0.36,2.71,0.56,3.23,1.58c0.28,0.87,0,1.27-0.84,1.46c0.98,0.18,2.12,2.28-0.19,2.85c2.36,0.62,2.14,2.62-0.36,3.26
		c1.3-0.33,0.91,2.25-0.26,2.66c-2.08,0.74-3.74,1-5.18,0.47c-1.38-0.5-1.57-1.79-1.75-2.62
		C211.89,476.49,211.1,473.34,211.36,471.73z"/>
</g>
<g>
	<path class="st45" d="M582.63,490.67v-5.57l7.23-0.93l-4.3-16.29h-24.11l-4.3,16.29l7.13,0.93v5.57H543v-5.57l3.67-1.13
		c1.05-0.31,1.78-0.72,2.2-1.96l19.5-66h11.95l19.5,66.21c0.42,1.24,1.05,1.44,2.1,1.75l3.98,1.13v5.57H582.63z M573.82,424.77
		h-0.31l-9.85,35.58h19.81L573.82,424.77z"/>
</g>
<g>
	<g>
		<path class="st46" d="M614.53,476.29v-3.46l4.5-0.58l-2.67-10.13h-14.99l-2.67,10.13l4.43,0.58v3.46h-13.23v-3.46l2.28-0.71
			c0.65-0.19,1.11-0.45,1.37-1.22l12.12-41.04h7.43l12.12,41.17c0.26,0.77,0.65,0.9,1.3,1.09l2.48,0.71v3.46H614.53z M609.05,435.31
			h-0.2l-6.13,22.12h12.32L609.05,435.31z"/>
	</g>
</g>
</svg>
