<?xml version="1.0" encoding="utf-8"?>
<!-- Generator: Adobe Illustrator 26.3.1, SVG Export Plug-In . SVG Version: 6.00 Build 0)  -->
<!DOCTYPE svg PUBLIC "-//W3C//DTD SVG 1.1//EN" "http://www.w3.org/Graphics/SVG/1.1/DTD/svg11.dtd" [
	<!ENTITY ns_extend "http://ns.adobe.com/Extensibility/1.0/">
	<!ENTITY ns_ai "http://ns.adobe.com/AdobeIllustrator/10.0/">
	<!ENTITY ns_graphs "http://ns.adobe.com/Graphs/1.0/">
	<!ENTITY ns_vars "http://ns.adobe.com/Variables/1.0/">
	<!ENTITY ns_imrep "http://ns.adobe.com/ImageReplacement/1.0/">
	<!ENTITY ns_sfw "http://ns.adobe.com/SaveForWeb/1.0/">
	<!ENTITY ns_custom "http://ns.adobe.com/GenericCustomNamespace/1.0/">
	<!ENTITY ns_adobe_xpath "http://ns.adobe.com/XPath/1.0/">
	<!ENTITY st0 "fill:#D86613;stroke:#FFFFFF;stroke-opacity:0;">
	<!ENTITY st1 "fill:#3A414A;">
	<!ENTITY st2 "fill:#D86613;stroke:#FFFFFF;stroke-width:2;stroke-opacity:0;">
	<!ENTITY st3 "fill:#FFFFFF;stroke:#FFFFFF;stroke-width:2;stroke-opacity:0;">
	<!ENTITY st4 "fill:#9D5025;">
	<!ENTITY st5 "fill:#F58536;">
	<!ENTITY st6 "fill:#6B3A19;">
	<!ENTITY st7 "fill:#FBBF93;">
]>
<svg version="1.1" id="AWS" xmlns:x="&ns_extend;" xmlns:i="&ns_ai;" xmlns:graph="&ns_graphs;" xmlns:lucid="lucid"
	 xmlns="http://www.w3.org/2000/svg" xmlns:xlink="http://www.w3.org/1999/xlink" x="0px" y="0px" viewBox="0 0 504.84 415.67"
	 style="enable-background:new 0 0 504.84 415.67;" xml:space="preserve">
<metadata>
	<sfw  xmlns="&ns_sfw;">
		<slices></slices>
		<sliceSourceBounds  bottomLeftOrigin="true" height="321.43" width="439.66" x="22.36" y="68.25"></sliceSourceBounds>
	</sfw>
</metadata>
<g id="Lambda_function">
	<path style="&st0;" d="M171.52,277.75h-12.95c-0.65,0-1.26-0.38-1.52-0.98l-18.14-38.9h-7.32c-0.9,0-1.7-0.75-1.7-1.68v-11.22
		c0-0.92,0.8-1.68,1.7-1.68h16.15c0.7,0,1.26,0.38,1.52,0.98l18.1,38.9h4.15c0.9,0,1.68,0.75,1.68,1.73v11.17
		c0,0.92-0.78,1.68-1.68,1.68L171.52,277.75z M159.62,274.32h10.16v-7.73h-3.5c-0.64,0-1.25-0.38-1.5-0.98l-18.07-38.96h-13.38v7.8
		H140c0.7,0,1.3,0.37,1.56,0.97L159.62,274.32z"/>
	<path style="&st0;" d="M136.37,277.75h-13.8c-0.9,0-1.68-0.77-1.68-1.7c0-0.28,0.05-0.48,0.17-0.72l14.45-30.26
		c0.3-0.6,0.87-0.97,1.53-0.97c0.67,0,1.24,0.33,1.54,0.94l6.9,14.32c0.23,0.47,0.23,0.97,0,1.45l-7.55,16
		c-0.3,0.6-0.87,0.96-1.54,0.96L136.37,277.75z M125.27,274.35h10.02l6.8-14.27l-5.1-10.37L125.27,274.35z"/>
	<path style="&st0;" d="M147.57,293.72c-22.08,0-40-17.92-40-40s17.92-40,40-40s40,17.92,40,40S169.65,293.72,147.57,293.72z
		 M147.57,217.16c-20.24,0-36.56,16.32-36.56,36.56s16.32,36.56,36.56,36.56s36.56-16.32,36.56-36.56S167.81,217.16,147.57,217.16z"
		/>
	<g>
		<g transform="matrix(1,0,0,1,350,549) translate(33.67283950617284 17.77777777777778)">
			<g id="e">
				<g transform="matrix(0.06172839506172839,0,0,0.06172839506172839,0,0)">
					<path id="j_00000095323969634345778660000003459111667269609872_" style="&st1;" d="M118.09,306.55l-2.22,0.25v12.78
						c2.04-0.06,4.51,0.12,6.23-0.25l0.68-3.02h0.68l-0.19,4.2h-11.42v-0.56l1.91-0.31V306.8l-1.91-0.25v-0.62h6.23V306.55"/>
				</g>
				<g transform="matrix(0.06172839506172839,0,0,0.06172839506172839,13.518518518518517,0)">
					<path id="k_00000030448844587618645290000005458312913596828844_" style="&st1;" d="M126.73,310.44
						c2.53-0.62,6.3-0.86,6.3,2.41v6.91c0.49,0.19,1.48-0.12,1.3,0.74h-2.78l-0.25-1.05c-1.42,1.85-6.36,1.85-5.74-1.79
						c-0.12-3.09,2.78-3.09,5.68-3.15c0.25-2.22-0.31-4.32-2.59-3.46c-0.37,0.12-0.74,0.25-0.99,0.37c-0.25,0.43,0,1.42-0.93,1.23
						V310.44z M127.35,317.6c0,2.53,2.53,2.04,3.89,1.36v-3.64C129.14,315.38,127.35,315.25,127.35,317.6"/>
				</g>
				<g transform="matrix(0.06172839506172839,0,0,0.06172839506172839,23.333333333333332,0)">
					<path id="l_00000160160477651761973730000004634292562008616113_" style="&st1;" d="M142.35,313.22
						c0.25-2.28-2.59-1.98-4.2-1.54v8.09l1.48,0.25v0.49h-4.57c-0.19-0.8,0.8-0.56,1.23-0.74v-8.7c-0.43-0.19-1.42,0.06-1.23-0.74
						h2.96l0.06,0.8c1.36-0.93,4.75-1.85,5.68,0.12c1.98-1.36,6.42-2.22,6.42,1.79v6.73c0.49,0.19,1.48-0.12,1.3,0.74h-4.63v-0.49
						l1.54-0.25v-6.54c0.19-2.41-2.78-1.91-4.44-1.48c0.43,2.28,0.06,5.43,0.19,8.02l1.54,0.25v0.49h-4.81v-0.49l1.48-0.25V313.22"
						/>
				</g>
				<g transform="matrix(0.06172839506172839,0,0,0.06172839506172839,40.61728395061728,0)">
					<path id="m_00000126289041220994711520000002424640340250803859_" style="&st1;" d="M155.13,319.64
						c3.58,0.74,5.06-0.93,5.06-4.51c0-3.21-2.16-4.75-5.06-3.58V319.64z M157.35,320.75c-1.54,0-2.9-0.37-4.01-0.8v-14.14
						l-1.48-0.25v-0.49h3.27l-0.06,5.8c2.96-2.04,7.04-0.25,7.04,4.26C162.1,318.65,160.68,320.75,157.35,320.75"/>
				</g>
				<g transform="matrix(0.06172839506172839,0,0,0.06172839506172839,51.72839506172839,0)">
					<path id="n_00000054237450531265322600000014382003196728476849_" style="&st1;" d="M163.77,315.5c0-4.38,2.84-6.23,7.04-5.25
						l-0.06-4.44l-1.73-0.25v-0.49h3.52v14.69c0.49,0.19,1.48-0.12,1.3,0.74h-2.9l-0.12-0.74
						C167.91,321.92,163.77,320.44,163.77,315.5z M168.52,310.93c-2.28,0.06-2.72,2.04-2.78,4.57c0,2.35,0.56,4.07,2.78,4.07
						c0.86,0,1.67-0.19,2.22-0.43v-8.02C170.13,311.06,169.27,310.93,168.52,310.93"/>
				</g>
				<g transform="matrix(0.06172839506172839,0,0,0.06172839506172839,62.839506172839506,0)">
					<path id="k_00000152972459179602905870000016680379786666295169_" style="&st1;" d="M176.06,310.44
						c2.53-0.62,6.3-0.86,6.3,2.41v6.91c0.49,0.19,1.48-0.12,1.3,0.74h-2.78l-0.25-1.05c-1.42,1.85-6.36,1.85-5.74-1.79
						c-0.12-3.09,2.78-3.09,5.68-3.15c0.25-2.22-0.31-4.32-2.59-3.46c-0.37,0.12-0.74,0.25-0.99,0.37c-0.25,0.43,0,1.42-0.93,1.23
						V310.44z M176.67,317.6c0,2.53,2.53,2.04,3.89,1.36v-3.64C178.46,315.38,176.67,315.25,176.67,317.6"/>
				</g>
			</g>
		</g>
		<g transform="matrix(1,0,0,1,350,549) translate(30.52469135802469 44.44444444444444)">
			<g id="f">
				<g transform="matrix(0.06172839506172839,0,0,0.06172839506172839,0,0)">
					<path id="t" style="&st1;" d="M112.72,340.63v5.68l2.41,0.31v0.56h-6.23v-0.56l1.73-0.31v-12.84l-1.91-0.25v-0.62h10.93v3.52
						h-0.68l-0.37-2.35c-1.73-0.25-3.89-0.19-5.86-0.19v6.05h4.26l0.31-1.73h0.68v4.51h-0.68l-0.31-1.79H112.72"/>
				</g>
				<g transform="matrix(0.06172839506172839,0,0,0.06172839506172839,12.345679012345679,0)">
					<path id="u" style="&st1;" d="M128.09,346.37c-2.16,1.3-6.05,1.73-6.05-1.98v-6.67c-0.49-0.19-1.48,0.12-1.3-0.74h3.09v7.28
						c-0.19,2.28,2.59,1.98,4.26,1.54v-8.09l-1.54-0.25v-0.49h3.33v9.44c0.49,0.19,1.48-0.12,1.3,0.74h-2.96"/>
				</g>
				<g transform="matrix(0.06172839506172839,0,0,0.06172839506172839,23.45679012345679,0)">
					<path id="q_00000070088048105302636390000017416897007847534778_" style="&st1;" d="M139.27,339.88c0.25-2.28-2.53-2.1-4.2-1.6
						v8.15l1.42,0.25v0.49h-4.44c-0.19-0.8,0.8-0.56,1.23-0.74v-8.7c-0.43-0.19-1.42,0.06-1.23-0.74h2.9l0.12,0.8
						c1.91-1.42,6.05-1.79,6.05,1.91v6.73c0.43,0.19,1.42-0.06,1.23,0.74h-4.44v-0.49l1.36-0.25V339.88"/>
				</g>
				<g transform="matrix(0.06172839506172839,0,0,0.06172839506172839,34.5679012345679,0)">
					<path id="v" style="&st1;" d="M145.44,341.98c0,3.95,3.21,4.94,6.42,3.89c0.06,1.54-1.85,1.54-3.4,1.54
						c-3.46,0-4.94-1.98-4.94-5.43c0-4.69,3.83-6.05,8.09-4.94v2.84h-0.62c-0.31-0.93-0.25-1.91-1.42-2.16
						C146.67,337.11,145.44,339.02,145.44,341.98"/>
				</g>
				<g transform="matrix(0.06172839506172839,0,0,0.06172839506172839,44.382716049382715,0)">
					<path id="w" style="&st1;" d="M155.81,344.82c-0.06,1.54,1.48,1.6,2.72,1.23v0.74c-1.67,0.99-4.51,0.93-4.51-1.79v-7.1h-1.3
						c-0.12-0.86,0.86-0.62,1.3-0.93l1.11-2.35h0.68v2.35h2.35v0.93h-2.35V344.82"/>
				</g>
				<g transform="matrix(0.06172839506172839,0,0,0.06172839506172839,50.55555555555556,0)">
					<path id="x" style="&st1;" d="M161.55,334.82c-1.42,0-1.54-2.41,0-2.35c0.8,0,1.11,0.43,1.23,1.17
						C162.72,334.33,162.29,334.82,161.55,334.82z M162.66,346.43l1.73,0.25v0.49h-5.25v-0.49l1.73-0.25v-8.7l-1.48-0.25v-0.49h3.27
						V346.43"/>
				</g>
				<g transform="matrix(0.06172839506172839,0,0,0.06172839506172839,56.7283950617284,0)">
					<path id="p_00000079452448292813304050000010141401921717976226_" style="&st1;" d="M170.38,336.67c3.21,0,4.69,1.98,4.69,5.37
						c0,3.33-1.48,5.37-4.75,5.37c-3.15,0-4.63-2.1-4.63-5.37C165.68,338.71,167.17,336.67,170.38,336.67z M170.31,346.55
						c2.41,0,2.84-2.16,2.84-4.51c0-2.41-0.43-4.51-2.84-4.51c-2.41,0.06-2.72,2.1-2.72,4.51S167.97,346.49,170.31,346.55"/>
				</g>
				<g transform="matrix(0.06172839506172839,0,0,0.06172839506172839,67.8395061728395,0)">
					<path id="q_00000011715355017990366170000013684712855190927001_" style="&st1;" d="M183.65,339.88c0.25-2.28-2.53-2.1-4.2-1.6
						v8.15l1.42,0.25v0.49h-4.44c-0.19-0.8,0.8-0.56,1.23-0.74v-8.7c-0.43-0.19-1.42,0.06-1.23-0.74h2.9l0.12,0.8
						c1.91-1.42,6.05-1.79,6.05,1.91v6.73c0.43,0.19,1.42-0.06,1.23,0.74h-4.44v-0.49l1.36-0.25V339.88"/>
				</g>
			</g>
		</g>
	</g>
</g>
<g id="Amazon_Lambda">
	<path style="&st2;" d="M24.95,27.67h120v120h-120V27.67z"/>
	<path style="&st3;" d="M121.75,127.67h-19.72c-0.64,0-1.15-0.32-1.4-0.88L72.71,68.47H60.93c-0.9,0-1.6-0.72-1.6-1.6v-17.6
		c0-0.88,0.7-1.6,1.6-1.6h24.65c0.64,0,1.15,0.32,1.4,0.88l27.8,58.32h6.97c0.9,0,1.6,0.72,1.6,1.6v17.6
		C123.35,126.95,122.65,127.67,121.75,127.67L121.75,127.67z M103.05,124.47h17.1v-14.4h-6.4c-0.64,0-1.15-0.32-1.4-0.88
		l-27.8-58.32h-22v14.4h11.2c0.65,0,1.16,0.32,1.48,0.88L103.05,124.47z"/>
	<path style="&st3;" d="M68.91,127.67h-20.8c-0.55,0-1.05-0.3-1.37-0.73c-0.33-0.54-0.33-1.12-0.08-1.6l21.78-45.46
		c0.24-0.58,0.8-0.92,1.4-0.92c0.65,0,1.18,0.34,1.46,0.88l10.4,21.43c0.26,0.43,0.26,0.92,0,1.4l-11.33,24
		c-0.2,0.63-0.77,1.02-1.44,1.02L68.91,127.67z M50.67,124.45h17.24l10.6-22.36l-8.6-17.88L50.67,124.45z"/>
	<g transform="matrix(1,0,0,1,330,349) translate(27.160493827160494 17.77777777777778)">
		<g id="a_00000090267837306769157270000005286788994831901062_">
			<g transform="matrix(0.06172839506172839,0,0,0.06172839506172839,0,0)">
				<path id="e_00000165199796198075213830000006127371008256326272_" style="&st1;" d="M27.11,173.9v0.56h-4.75v-0.56l1.6-0.31
					l5-13.83H31l5.12,13.83l1.85,0.31v0.56h-6.11v-0.56l1.91-0.31l-1.42-4.2h-5.74l-1.48,4.2L27.11,173.9z M29.46,161.37l-2.53,7.04
					h5.06"/>
			</g>
			<g transform="matrix(0.06172839506172839,0,0,0.06172839506172839,14.19753086419753,0)">
				<path id="f_00000034068312039706222640000001763223842942554263_" style="&st1;" d="M56,160.75l-4.75,14.01h-0.62l-3.77-10
					l-3.89,10h-0.56l-4.81-14.01l-1.3-0.25v-0.62h5.56v0.62l-2.1,0.25l3.46,10.25l3.89-10.06h0.49l3.77,10.06l3.33-10.25l-2.28-0.25
					v-0.62h4.81v0.62"/>
			</g>
			<g transform="matrix(0.06172839506172839,0,0,0.06172839506172839,35.123456790123456,0)">
				<path id="g_00000057841447007438376620000005342897110967781561_" style="&st1;" d="M68.22,170.25c0,4.88-5.86,5.06-9.51,3.64
					v-3.33h0.74c0.06,2.16,1.36,3.21,3.7,3.21c3.09,0,4.26-3.58,2.04-5.06c-2.41-1.48-6.48-1.3-6.48-5.25
					c0-4.14,5.31-4.07,8.77-3.27v3.02h-0.74l-0.37-1.79c-1.91-1.67-7.47-0.43-5.49,2.59C62.61,166.67,68.22,165.5,68.22,170.25"/>
			</g>
		</g>
	</g>
	<g transform="matrix(1,0,0,1,330,349) translate(80.18518518518519 17.77777777777778)">
		<g id="b_00000021114595420929823420000000035096140788875684_">
			<g transform="matrix(0.06172839506172839,0,0,0.06172839506172839,0,0)">
				<path id="h_00000168076982295310560690000007649408351189191586_" style="&st1;" d="M81.99,160.5l-2.22,0.25v12.78
					c2.04-0.06,4.51,0.12,6.23-0.25l0.68-3.02h0.68l-0.19,4.2H75.75v-0.56l1.91-0.31v-12.84l-1.91-0.25v-0.62h6.23V160.5"/>
			</g>
			<g transform="matrix(0.06172839506172839,0,0,0.06172839506172839,13.518518518518517,0)">
				<path id="i_00000036240780095564514170000014199672919892110754_" style="&st1;" d="M90.63,164.39c2.53-0.62,6.3-0.86,6.3,2.41
					v6.91c0.49,0.19,1.48-0.12,1.3,0.74h-2.78l-0.25-1.05c-1.42,1.85-6.36,1.85-5.74-1.79c-0.12-3.09,2.78-3.09,5.68-3.15
					c0.25-2.22-0.31-4.32-2.59-3.46c-0.37,0.12-0.74,0.25-0.99,0.37c-0.25,0.43,0,1.42-0.93,1.23V164.39z M91.25,171.55
					c0,2.53,2.53,2.04,3.89,1.36v-3.64C93.04,169.33,91.25,169.2,91.25,171.55"/>
			</g>
			<g transform="matrix(0.06172839506172839,0,0,0.06172839506172839,23.333333333333332,0)">
				<path id="j_00000072994001558386795140000008556182238728084130_" style="&st1;" d="M106.25,167.17
					c0.25-2.28-2.59-1.98-4.2-1.54v8.09l1.48,0.25v0.49h-4.57c-0.19-0.8,0.8-0.56,1.23-0.74v-8.7c-0.43-0.19-1.42,0.06-1.23-0.74
					h2.96l0.06,0.8c1.36-0.93,4.75-1.85,5.68,0.12c1.98-1.36,6.42-2.22,6.42,1.79v6.73c0.49,0.19,1.48-0.12,1.3,0.74h-4.63v-0.49
					l1.54-0.25v-6.54c0.19-2.41-2.78-1.91-4.44-1.48c0.43,2.28,0.06,5.43,0.19,8.02l1.54,0.25v0.49h-4.81v-0.49l1.48-0.25V167.17"/>
			</g>
			<g transform="matrix(0.06172839506172839,0,0,0.06172839506172839,40.61728395061728,0)">
				<path id="k_00000047037444232164049970000011576804917424167580_" style="&st1;" d="M119.03,173.59
					c3.58,0.74,5.06-0.93,5.06-4.51c0-3.21-2.16-4.75-5.06-3.58V173.59z M121.25,174.7c-1.54,0-2.9-0.37-4.01-0.8v-14.14l-1.48-0.25
					v-0.49h3.27l-0.06,5.8c2.96-2.04,7.04-0.25,7.04,4.26C126,172.6,124.58,174.7,121.25,174.7"/>
			</g>
			<g transform="matrix(0.06172839506172839,0,0,0.06172839506172839,51.72839506172839,0)">
				<path id="l_00000156574051040791044440000009221118873866272939_" style="&st1;" d="M127.67,169.45c0-4.38,2.84-6.23,7.04-5.25
					l-0.06-4.44l-1.73-0.25v-0.49h3.52v14.69c0.49,0.19,1.48-0.12,1.3,0.74h-2.9l-0.12-0.74
					C131.8,175.87,127.67,174.39,127.67,169.45z M132.42,164.88c-2.28,0.06-2.72,2.04-2.78,4.57c0,2.35,0.56,4.07,2.78,4.07
					c0.86,0,1.67-0.19,2.22-0.43v-8.02C134.03,165.01,133.16,164.88,132.42,164.88"/>
			</g>
			<g transform="matrix(0.06172839506172839,0,0,0.06172839506172839,62.839506172839506,0)">
				<path id="i_00000124132485264905797690000012582684995479452091_" style="&st1;" d="M139.95,164.39c2.53-0.62,6.3-0.86,6.3,2.41
					v6.91c0.49,0.19,1.48-0.12,1.3,0.74h-2.78l-0.25-1.05c-1.42,1.85-6.36,1.85-5.74-1.79c-0.12-3.09,2.78-3.09,5.68-3.15
					c0.25-2.22-0.31-4.32-2.59-3.46c-0.37,0.12-0.74,0.25-0.99,0.37c-0.25,0.43,0,1.42-0.93,1.23V164.39z M140.57,171.55
					c0,2.53,2.53,2.04,3.89,1.36v-3.64C142.36,169.33,140.57,169.2,140.57,171.55"/>
			</g>
		</g>
	</g>
</g>
<g id="Amazon_ECS">
	<path style="&st4;" d="M348.42,33.47l-6.4,3.2v90.63l6.4,3.2l25.33-46.66l-25.32-50.36L348.42,33.47z M367.99,49.82l9.43-13.4
		l42.4,18.85l-9.9,1.58L367.99,49.82L367.99,49.82z M360.64,115.09l10.42,14.33l48.77-21.05l-9.4-1.46l-49.78,8.2L360.64,115.09z"/>
	<path style="&st5;" d="M363.4,126.99l-14.96,3.5v-97l14.96,3.4V126.99z"/>
	<path style="&st4;" d="M355.52,29.91l7.9-3.92l14.8,62.27l-14.8,49.73l-7.9-3.92V29.91z M409.88,106.82l9.95,1.53l9.12-25.37
		l-9.1-27.7l-9.96,1.58v49.95L409.88,106.82z"/>
	<path style="&st5;" d="M378.72,133.62l-15.32,4.37v-112l15.32,4.37V133.62z"/>
	<path style="&st5;" d="M430.27,106.41l-66.87,12.44v19.14l66.87-18.9V106.41z M430.39,57.27l-67-12.73V25.99l67,19V57.27z"/>
	<path style="&st5;" d="M419.84,41.99l10.74,2.97v74.12l-10.74,2.95V41.99z"/>
	<path style="&st6;" d="M462.02,72.19l-28.78,1.36l-10.16-0.7l29.08-23.43L462.02,72.19z"/>
	<path style="&st4;" d="M423.08,72.85l29.08-1.64v-21.8l-29.08,4.72V72.85L423.08,72.85z"/>
	<path style="&st6;" d="M395.72,71.01l29.47-29.7l14.98,28.7l-30.54,1.94L395.72,71.01L395.72,71.01z"/>
	<path style="&st4;" d="M395.72,71.03l29.46-2.5v-27.2l-29.46,6.88V71.03z M423.08,91.49l38.93,0.7l-9.86,22.74l-29.08-4.7V91.49
		H423.08z"/>
	<path style="&st4;" d="M395.72,93.34l44.45,1l-14.98,28.7l-29.47-6.9L395.72,93.34L395.72,93.34z"/>
	<path style="&st7;" d="M395.72,93.33l29.47,2.5l14.98-1.48l-30.54-1.96L395.72,93.33L395.72,93.33z M462.02,92.17l-28.78-1.34
		l-10.16,0.67l29.08,1.67l9.85-1L462.02,92.17z"/>
	<path style="&st5;" d="M452.17,71.19l9.84,1V52.36l-9.85-2.94V71.2L452.17,71.19z M440.16,70.02l-14.98-1.5v-27.2l14.98,4.5V70.02z
		 M452.17,93.15l9.84-0.98v19.82l-9.85,2.94L452.17,93.15L452.17,93.15z M440.16,94.35l-14.98,1.5v27.18l14.98-4.48V94.35
		L440.16,94.35z"/>
	<g transform="matrix(1,0,0,1,700,332) translate(22.438271604938272 17.77777777777778)">
		<g id="c_00000041998658399548641990000011856027158465832123_">
			<g transform="matrix(0.06172839506172839,0,0,0.06172839506172839,0,0)">
				<path id="e_00000062168809132740947370000002832270044251651506_" style="&st1;" d="M369.46,155.21v0.56h-4.75v-0.56l1.6-0.31
					l5-13.83h2.04l5.12,13.83l1.85,0.31v0.56h-6.11v-0.56l1.91-0.31l-1.42-4.2h-5.74l-1.48,4.2L369.46,155.21z M371.8,142.68
					l-2.53,7.04h5.06"/>
			</g>
			<g transform="matrix(0.06172839506172839,0,0,0.06172839506172839,15.987654320987653,0)">
				<path id="j_00000067235703777642501240000014370517718973161641_" style="&st1;" d="M388.22,148.48
					c0.25-2.28-2.59-1.98-4.2-1.54v8.09l1.48,0.25v0.49h-4.57c-0.19-0.8,0.8-0.56,1.23-0.74v-8.7c-0.43-0.19-1.42,0.06-1.23-0.74
					h2.96l0.06,0.8c1.36-0.93,4.75-1.85,5.68,0.12c1.98-1.36,6.42-2.22,6.42,1.79v6.73c0.49,0.19,1.48-0.12,1.3,0.74h-4.63v-0.49
					l1.54-0.25v-6.54c0.19-2.41-2.78-1.91-4.44-1.48c0.43,2.28,0.06,5.43,0.19,8.02l1.54,0.25v0.49h-4.81v-0.49l1.48-0.25V148.48"/>
			</g>
			<g transform="matrix(0.06172839506172839,0,0,0.06172839506172839,33.2716049382716,0)">
				<path id="i_00000097490727776104531730000012536421135001592464_" style="&st1;" d="M399.7,145.7c2.53-0.62,6.3-0.86,6.3,2.41
					v6.91c0.49,0.19,1.48-0.12,1.3,0.74h-2.78l-0.25-1.05c-1.42,1.85-6.36,1.85-5.74-1.79c-0.12-3.09,2.78-3.09,5.68-3.15
					c0.25-2.22-0.31-4.32-2.59-3.46c-0.37,0.12-0.74,0.25-0.99,0.37c-0.25,0.43,0,1.42-0.93,1.23V145.7z M400.32,152.86
					c0,2.53,2.53,2.04,3.89,1.36v-3.64C402.11,150.64,400.32,150.52,400.32,152.86"/>
			</g>
			<g transform="matrix(0.06172839506172839,0,0,0.06172839506172839,43.08641975308642,0)">
				<path id="m_00000017493291014914187310000004823405581731852978_" style="&st1;" d="M408.16,155.77v-0.49l5.56-8.83
					c-1.42,0.12-3.33-0.25-4.32,0.37c-0.31,0.49,0.06,1.6-0.86,1.48v-2.72h7.53v0.49l-5.62,8.83c1.79-0.12,4.01,0.19,5.31-0.49
					l0.56-2.16h0.49l-0.31,3.52H408.16"/>
			</g>
			<g transform="matrix(0.06172839506172839,0,0,0.06172839506172839,52.901234567901234,0)">
				<path id="n_00000018199303975301364140000012701477564019465618_" style="&st1;" d="M422.91,145.27c3.21,0,4.69,1.98,4.69,5.37
					c0,3.33-1.48,5.37-4.75,5.37c-3.15,0-4.63-2.1-4.63-5.37C418.22,147.31,419.7,145.27,422.91,145.27z M422.85,155.15
					c2.41,0,2.84-2.16,2.84-4.51c0-2.41-0.43-4.51-2.84-4.51c-2.41,0.06-2.72,2.1-2.72,4.51
					C420.14,153.05,420.51,155.09,422.85,155.15"/>
			</g>
			<g transform="matrix(0.06172839506172839,0,0,0.06172839506172839,64.01234567901234,0)">
				<path id="o_00000172421616995854393670000009324471061121129609_" style="&st1;" d="M436.19,148.48c0.25-2.28-2.53-2.1-4.2-1.6
					v8.15l1.42,0.25v0.49h-4.44c-0.19-0.8,0.8-0.56,1.23-0.74v-8.7c-0.43-0.19-1.42,0.06-1.23-0.74h2.9l0.12,0.8
					c1.91-1.42,6.05-1.79,6.05,1.91v6.73c0.43,0.19,1.42-0.06,1.23,0.74h-4.44v-0.49l1.36-0.25V148.48"/>
			</g>
		</g>
	</g>
	<g transform="matrix(1,0,0,1,700,332) translate(39.660493827160494 44.44444444444444)">
		<g id="d_00000047055232993748713950000010187571731581237938_">
			<g transform="matrix(0.06172839506172839,0,0,0.06172839506172839,0,0)">
				<path id="p_00000169554547414143255120000000115529206250546607_" style="&st1;" d="M382.3,181.88l1.91-0.31v-12.84l-1.91-0.25
					v-0.62h10.93v3.52h-0.68l-0.37-2.35c-1.73-0.25-3.89-0.19-5.86-0.19v5.68h3.89l0.37-1.73h0.68v4.51h-0.68l-0.37-1.79h-3.89v5.93
					l6.48-0.19l0.62-2.65h0.74l-0.19,3.83H382.3V181.88"/>
			</g>
			<g transform="matrix(0.06172839506172839,0,0,0.06172839506172839,13.518518518518517,0)">
				<path id="q_00000108989271321227028790000013536193551736755390_" style="&st1;" d="M398.41,175.33c0,5.74,4.94,8.02,9.26,5.37
					l0.43-2.16h0.68l-0.06,3.4c-1.42,0.43-3.21,0.74-5.12,0.74c-4.69,0-7.22-2.53-7.47-7.35c-0.31-6.98,5.99-8.7,12.41-7.04
					l0.06,3.15h-0.74l-0.31-1.85c-0.93-0.56-2.41-0.99-3.83-0.99C399.64,168.61,398.41,171.14,398.41,175.33"/>
			</g>
			<g transform="matrix(0.06172839506172839,0,0,0.06172839506172839,28.33333333333333,0)">
				<path id="g_00000013897758205238279430000002706813843290720694_" style="&st1;" d="M421,178.24c0,4.88-5.86,5.06-9.51,3.64
					v-3.33h0.74c0.06,2.16,1.36,3.21,3.7,3.21c3.09,0,4.26-3.58,2.04-5.06c-2.41-1.48-6.48-1.3-6.48-5.25
					c0-4.14,5.31-4.07,8.77-3.27v3.02h-0.74l-0.37-1.79c-1.91-1.67-7.47-0.43-5.49,2.59C415.38,174.65,421,173.48,421,178.24"/>
			</g>
		</g>
	</g>
</g>
</svg>
