<?xml version="1.0" encoding="utf-8"?>
<!-- Generator: Adobe Illustrator 26.3.1, SVG Export Plug-In . SVG Version: 6.00 Build 0)  -->
<!DOCTYPE svg PUBLIC "-//W3C//DTD SVG 1.1//EN" "http://www.w3.org/Graphics/SVG/1.1/DTD/svg11.dtd" [
	<!ENTITY ns_extend "http://ns.adobe.com/Extensibility/1.0/">
	<!ENTITY ns_ai "http://ns.adobe.com/AdobeIllustrator/10.0/">
	<!ENTITY ns_graphs "http://ns.adobe.com/Graphs/1.0/">
	<!ENTITY ns_vars "http://ns.adobe.com/Variables/1.0/">
	<!ENTITY ns_imrep "http://ns.adobe.com/ImageReplacement/1.0/">
	<!ENTITY ns_sfw "http://ns.adobe.com/SaveForWeb/1.0/">
	<!ENTITY ns_custom "http://ns.adobe.com/GenericCustomNamespace/1.0/">
	<!ENTITY ns_adobe_xpath "http://ns.adobe.com/XPath/1.0/">
	<!ENTITY st0 "fill:#D86613;stroke:#FFFFFF;stroke-width:2;stroke-opacity:0;">
	<!ENTITY st1 "fill:#FFFFFF;stroke:#FFFFFF;stroke-width:2;stroke-opacity:0;">
	<!ENTITY st2 "fill:#3A414A;">
	<!ENTITY st3 "fill:#9D5025;">
	<!ENTITY st4 "fill:#F58536;">
	<!ENTITY st5 "fill:#6B3A19;">
	<!ENTITY st6 "fill:#FBBF93;">
]>
<svg version="1.1" id="AWS" xmlns:x="&ns_extend;" xmlns:i="&ns_ai;" xmlns:graph="&ns_graphs;" xmlns:lucid="lucid"
	 xmlns="http://www.w3.org/2000/svg" xmlns:xlink="http://www.w3.org/1999/xlink" x="0px" y="0px" viewBox="0 0 504.84 198.67"
	 style="enable-background:new 0 0 504.84 198.67;" xml:space="preserve">
<metadata>
	<sfw  xmlns="&ns_sfw;">
		<slices></slices>
		<sliceSourceBounds  bottomLeftOrigin="true" height="157.69" width="462.59" x="27.25" y="21.98"></sliceSourceBounds>
	</sfw>
</metadata>
<g id="Amazon_Lambda">
	<path style="&st0;" d="M29.84,20h120v120h-120V20z"/>
	<path style="&st1;" d="M126.64,120h-19.72c-0.64,0-1.15-0.32-1.4-0.88L77.6,60.8H65.82c-0.9,0-1.6-0.72-1.6-1.6V41.6
		c0-0.88,0.7-1.6,1.6-1.6h24.65c0.64,0,1.15,0.32,1.4,0.88l27.8,58.32h6.97c0.9,0,1.6,0.72,1.6,1.6v17.6
		C128.24,119.28,127.54,120,126.64,120L126.64,120z M107.94,116.8h17.1v-14.4h-6.4c-0.64,0-1.15-0.32-1.4-0.88L89.44,43.2h-22v14.4
		h11.2c0.65,0,1.16,0.32,1.48,0.88L107.94,116.8z"/>
	<path style="&st1;" d="M73.8,120H53c-0.55,0-1.05-0.3-1.37-0.73c-0.33-0.54-0.33-1.12-0.08-1.6l21.78-45.46
		c0.24-0.58,0.8-0.92,1.4-0.92c0.65,0,1.18,0.34,1.46,0.88l10.4,21.43c0.26,0.43,0.26,0.92,0,1.4l-11.33,24
		c-0.2,0.63-0.77,1.02-1.44,1.02L73.8,120z M55.56,116.78H72.8l10.6-22.36l-8.6-17.88L55.56,116.78z"/>
	<g transform="matrix(1,0,0,1,330,349) translate(27.160493827160494 17.77777777777778)">
		<g id="a">
			<g transform="matrix(0.06172839506172839,0,0,0.06172839506172839,0,0)">
				<path id="e" style="&st2;" d="M32,166.22v0.56h-4.75v-0.56l1.6-0.31l5-13.83h2.04l5.12,13.83l1.85,0.31v0.56h-6.11v-0.56
					l1.91-0.31l-1.42-4.2h-5.74l-1.48,4.2L32,166.22z M34.35,153.69l-2.53,7.04h5.06"/>
			</g>
			<g transform="matrix(0.06172839506172839,0,0,0.06172839506172839,14.19753086419753,0)">
				<path id="f" style="&st2;" d="M60.89,153.07l-4.75,14.01h-0.62l-3.77-10l-3.89,10h-0.56l-4.81-14.01l-1.3-0.25v-0.62h5.56v0.62
					l-2.1,0.25l3.46,10.25L52,153.26h0.49l3.77,10.06l3.33-10.25l-2.28-0.25v-0.62h4.81v0.62"/>
			</g>
			<g transform="matrix(0.06172839506172839,0,0,0.06172839506172839,35.123456790123456,0)">
				<path id="g" style="&st2;" d="M73.11,162.58c0,4.88-5.86,5.06-9.51,3.64v-3.33h0.74c0.06,2.16,1.36,3.21,3.7,3.21
					c3.09,0,4.26-3.58,2.04-5.06c-2.41-1.48-6.48-1.3-6.48-5.25c0-4.14,5.31-4.07,8.77-3.27v3.02h-0.74l-0.37-1.79
					c-1.91-1.67-7.47-0.43-5.49,2.59C67.49,159,73.11,157.83,73.11,162.58"/>
			</g>
		</g>
	</g>
	<g transform="matrix(1,0,0,1,330,349) translate(80.18518518518519 17.77777777777778)">
		<g id="b">
			<g transform="matrix(0.06172839506172839,0,0,0.06172839506172839,0,0)">
				<path id="h" style="&st2;" d="M86.88,152.83l-2.22,0.25v12.78c2.04-0.06,4.51,0.12,6.23-0.25l0.68-3.02h0.68l-0.19,4.2H80.64
					v-0.56l1.91-0.31v-12.84l-1.91-0.25v-0.62h6.23V152.83"/>
			</g>
			<g transform="matrix(0.06172839506172839,0,0,0.06172839506172839,13.518518518518517,0)">
				<path id="i" style="&st2;" d="M95.52,156.72c2.53-0.62,6.3-0.86,6.3,2.41v6.91c0.49,0.19,1.48-0.12,1.3,0.74h-2.78l-0.25-1.05
					c-1.42,1.85-6.36,1.85-5.74-1.79c-0.12-3.09,2.78-3.09,5.68-3.15c0.25-2.22-0.31-4.32-2.59-3.46c-0.37,0.12-0.74,0.25-0.99,0.37
					c-0.25,0.43,0,1.42-0.93,1.23V156.72z M96.14,163.88c0,2.53,2.53,2.04,3.89,1.36v-3.64C97.93,161.65,96.14,161.53,96.14,163.88"
					/>
			</g>
			<g transform="matrix(0.06172839506172839,0,0,0.06172839506172839,23.333333333333332,0)">
				<path id="j" style="&st2;" d="M111.14,159.49c0.25-2.28-2.59-1.98-4.2-1.54v8.09l1.48,0.25v0.49h-4.57
					c-0.19-0.8,0.8-0.56,1.23-0.74v-8.7c-0.43-0.19-1.42,0.06-1.23-0.74h2.96l0.06,0.8c1.36-0.93,4.75-1.85,5.68,0.12
					c1.98-1.36,6.42-2.22,6.42,1.79v6.73c0.49,0.19,1.48-0.12,1.3,0.74h-4.63v-0.49l1.54-0.25v-6.54c0.19-2.41-2.78-1.91-4.44-1.48
					c0.43,2.28,0.06,5.43,0.19,8.02l1.54,0.25v0.49h-4.81v-0.49l1.48-0.25V159.49"/>
			</g>
			<g transform="matrix(0.06172839506172839,0,0,0.06172839506172839,40.61728395061728,0)">
				<path id="k" style="&st2;" d="M123.91,165.91c3.58,0.74,5.06-0.93,5.06-4.51c0-3.21-2.16-4.75-5.06-3.58V165.91z M126.14,167.02
					c-1.54,0-2.9-0.37-4.01-0.8v-14.14l-1.48-0.25v-0.49h3.27l-0.06,5.8c2.96-2.04,7.04-0.25,7.04,4.26
					C130.89,164.93,129.47,167.02,126.14,167.02"/>
			</g>
			<g transform="matrix(0.06172839506172839,0,0,0.06172839506172839,51.72839506172839,0)">
				<path id="l" style="&st2;" d="M132.56,161.78c0-4.38,2.84-6.23,7.04-5.25l-0.06-4.44l-1.73-0.25v-0.49h3.52v14.69
					c0.49,0.19,1.48-0.12,1.3,0.74h-2.9l-0.12-0.74C136.69,168.2,132.56,166.72,132.56,161.78z M137.31,157.21
					c-2.28,0.06-2.72,2.04-2.78,4.57c0,2.35,0.56,4.07,2.78,4.07c0.86,0,1.67-0.19,2.22-0.43v-8.02
					C138.91,157.33,138.05,157.21,137.31,157.21"/>
			</g>
			<g transform="matrix(0.06172839506172839,0,0,0.06172839506172839,62.839506172839506,0)">
				<path id="i_00000124132485264905797690000012582684995479452091_" style="&st2;" d="M144.84,156.72c2.53-0.62,6.3-0.86,6.3,2.41
					v6.91c0.49,0.19,1.48-0.12,1.3,0.74h-2.78l-0.25-1.05c-1.42,1.85-6.36,1.85-5.74-1.79c-0.12-3.09,2.78-3.09,5.68-3.15
					c0.25-2.22-0.31-4.32-2.59-3.46c-0.37,0.12-0.74,0.25-0.99,0.37c-0.25,0.43,0,1.42-0.93,1.23V156.72z M145.46,163.88
					c0,2.53,2.53,2.04,3.89,1.36v-3.64C147.25,161.65,145.46,161.53,145.46,163.88"/>
			</g>
		</g>
	</g>
</g>
<g id="Amazon_ECS">
	<path style="&st3;" d="M376.24,27.48l-6.4,3.2v90.63l6.4,3.2l25.33-46.66l-25.32-50.36L376.24,27.48z M395.81,43.83l9.43-13.4
		l42.4,18.85l-9.9,1.58L395.81,43.83L395.81,43.83z M388.46,109.1l10.42,14.33l48.77-21.05l-9.4-1.46l-49.78,8.2L388.46,109.1z"/>
	<path style="&st4;" d="M391.22,121l-14.96,3.5v-97l14.96,3.4V121z"/>
	<path style="&st3;" d="M383.34,23.92l7.9-3.92l14.8,62.27L391.24,132l-7.9-3.92V23.92z M437.7,100.83l9.95,1.53l9.12-25.37
		l-9.1-27.7l-9.96,1.58v49.95L437.7,100.83z"/>
	<path style="&st4;" d="M406.54,127.63L391.22,132V20l15.32,4.37V127.63z"/>
	<path style="&st4;" d="M458.09,100.42l-66.87,12.44V132l66.87-18.9V100.42z M458.21,51.28l-67-12.73V20l67,19V51.28z"/>
	<path style="&st4;" d="M447.66,36l10.74,2.97v74.12l-10.74,2.95V36z"/>
	<path style="&st5;" d="M489.84,66.2l-28.78,1.36l-10.16-0.7l29.08-23.43L489.84,66.2z"/>
	<path style="&st3;" d="M450.9,66.86l29.08-1.64v-21.8l-29.08,4.72V66.86L450.9,66.86z"/>
	<path style="&st5;" d="M423.54,65.02l29.47-29.7l14.98,28.7l-30.54,1.94L423.54,65.02L423.54,65.02z"/>
	<path style="&st3;" d="M423.54,65.04l29.46-2.5v-27.2l-29.46,6.88V65.04z M450.9,85.5l38.93,0.7l-9.86,22.74l-29.08-4.7V85.5H450.9
		z"/>
	<path style="&st3;" d="M423.54,87.35l44.45,1l-14.98,28.7l-29.47-6.9L423.54,87.35L423.54,87.35z"/>
	<path style="&st6;" d="M423.54,87.34l29.47,2.5l14.98-1.48l-30.54-1.96L423.54,87.34L423.54,87.34z M489.84,86.18l-28.78-1.34
		l-10.16,0.67l29.08,1.67l9.85-1L489.84,86.18z"/>
	<path style="&st4;" d="M479.99,65.2l9.84,1V46.37l-9.85-2.94v21.78L479.99,65.2z M467.98,64.03L453,62.53v-27.2l14.98,4.5V64.03z
		 M479.99,87.16l9.84-0.98V106l-9.85,2.94L479.99,87.16L479.99,87.16z M467.98,88.36L453,89.86v27.18l14.98-4.48V88.36L467.98,88.36
		z"/>
	<g transform="matrix(1,0,0,1,700,332) translate(22.438271604938272 17.77777777777778)">
		<g id="c">
			<g transform="matrix(0.06172839506172839,0,0,0.06172839506172839,0,0)">
				<path id="e_00000062168809132740947370000002832270044251651506_" style="&st2;" d="M397.28,149.22v0.56h-4.75v-0.56l1.6-0.31
					l5-13.83h2.04l5.12,13.83l1.85,0.31v0.56h-6.11v-0.56l1.91-0.31l-1.42-4.2h-5.74l-1.48,4.2L397.28,149.22z M399.62,136.69
					l-2.53,7.04h5.06"/>
			</g>
			<g transform="matrix(0.06172839506172839,0,0,0.06172839506172839,15.987654320987653,0)">
				<path id="j_00000067235703777642501240000014370517718973161641_" style="&st2;" d="M416.04,142.49
					c0.25-2.28-2.59-1.98-4.2-1.54v8.09l1.48,0.25v0.49h-4.57c-0.19-0.8,0.8-0.56,1.23-0.74v-8.7c-0.43-0.19-1.42,0.06-1.23-0.74
					h2.96l0.06,0.8c1.36-0.93,4.75-1.85,5.68,0.12c1.98-1.36,6.42-2.22,6.42,1.79v6.73c0.49,0.19,1.48-0.12,1.3,0.74h-4.63v-0.49
					l1.54-0.25v-6.54c0.19-2.41-2.78-1.91-4.44-1.48c0.43,2.28,0.06,5.43,0.19,8.02l1.54,0.25v0.49h-4.81v-0.49l1.48-0.25V142.49"/>
			</g>
			<g transform="matrix(0.06172839506172839,0,0,0.06172839506172839,33.2716049382716,0)">
				<path id="i_00000097490727776104531730000012536421135001592464_" style="&st2;" d="M427.52,139.72c2.53-0.62,6.3-0.86,6.3,2.41
					v6.91c0.49,0.19,1.48-0.12,1.3,0.74h-2.78l-0.25-1.05c-1.42,1.85-6.36,1.85-5.74-1.79c-0.12-3.09,2.78-3.09,5.68-3.15
					c0.25-2.22-0.31-4.32-2.59-3.46c-0.37,0.12-0.74,0.25-0.99,0.37c-0.25,0.43,0,1.42-0.93,1.23V139.72z M428.14,146.88
					c0,2.53,2.53,2.04,3.89,1.36v-3.64C429.93,144.65,428.14,144.53,428.14,146.88"/>
			</g>
			<g transform="matrix(0.06172839506172839,0,0,0.06172839506172839,43.08641975308642,0)">
				<path id="m" style="&st2;" d="M435.98,149.78v-0.49l5.56-8.83c-1.42,0.12-3.33-0.25-4.32,0.37c-0.31,0.49,0.06,1.6-0.86,1.48
					v-2.72h7.53v0.49l-5.62,8.83c1.79-0.12,4.01,0.19,5.31-0.49l0.56-2.16h0.49l-0.31,3.52H435.98"/>
			</g>
			<g transform="matrix(0.06172839506172839,0,0,0.06172839506172839,52.901234567901234,0)">
				<path id="n" style="&st2;" d="M450.73,139.28c3.21,0,4.69,1.98,4.69,5.37c0,3.33-1.48,5.37-4.75,5.37
					c-3.15,0-4.63-2.1-4.63-5.37C446.04,141.32,447.52,139.28,450.73,139.28z M450.67,149.16c2.41,0,2.84-2.16,2.84-4.51
					c0-2.41-0.43-4.51-2.84-4.51c-2.41,0.06-2.72,2.1-2.72,4.51S448.33,149.1,450.67,149.16"/>
			</g>
			<g transform="matrix(0.06172839506172839,0,0,0.06172839506172839,64.01234567901234,0)">
				<path id="o" style="&st2;" d="M464.01,142.49c0.25-2.28-2.53-2.1-4.2-1.6v8.15l1.42,0.25v0.49h-4.44
					c-0.19-0.8,0.8-0.56,1.23-0.74v-8.7c-0.43-0.19-1.42,0.06-1.23-0.74h2.9l0.12,0.8c1.91-1.42,6.05-1.79,6.05,1.91v6.73
					c0.43,0.19,1.42-0.06,1.23,0.74h-4.44v-0.49l1.36-0.25V142.49"/>
			</g>
		</g>
	</g>
	<g transform="matrix(1,0,0,1,700,332) translate(39.660493827160494 44.44444444444444)">
		<g id="d">
			<g transform="matrix(0.06172839506172839,0,0,0.06172839506172839,0,0)">
				<path id="p" style="&st2;" d="M410.12,175.89l1.91-0.31v-12.84l-1.91-0.25v-0.62h10.93v3.52h-0.68l-0.37-2.35
					c-1.73-0.25-3.89-0.19-5.86-0.19v5.68h3.89l0.37-1.73h0.68v4.51h-0.68l-0.37-1.79h-3.89v5.93l6.48-0.19l0.62-2.65h0.74
					l-0.19,3.83h-11.67V175.89"/>
			</g>
			<g transform="matrix(0.06172839506172839,0,0,0.06172839506172839,13.518518518518517,0)">
				<path id="q" style="&st2;" d="M426.23,169.35c0,5.74,4.94,8.02,9.26,5.37l0.43-2.16h0.68l-0.06,3.4
					c-1.42,0.43-3.21,0.74-5.12,0.74c-4.69,0-7.22-2.53-7.47-7.35c-0.31-6.98,5.99-8.7,12.41-7.04l0.06,3.15h-0.74l-0.31-1.85
					c-0.93-0.56-2.41-0.99-3.83-0.99C427.46,162.62,426.23,165.15,426.23,169.35"/>
			</g>
			<g transform="matrix(0.06172839506172839,0,0,0.06172839506172839,28.33333333333333,0)">
				<path id="g_00000013897758205238279430000002706813843290720694_" style="&st2;" d="M448.82,172.25c0,4.88-5.86,5.06-9.51,3.64
					v-3.33h0.74c0.06,2.16,1.36,3.21,3.7,3.21c3.09,0,4.26-3.58,2.04-5.06c-2.41-1.48-6.48-1.3-6.48-5.25
					c0-4.14,5.31-4.07,8.77-3.27v3.02h-0.74l-0.37-1.79c-1.91-1.67-7.47-0.43-5.49,2.59C443.2,168.67,448.82,167.49,448.82,172.25"
					/>
			</g>
		</g>
	</g>
</g>
</svg>
