<?xml version="1.0" encoding="utf-8"?>
<!-- Generator: Adobe Illustrator 26.3.1, SVG Export Plug-In . SVG Version: 6.00 Build 0)  -->
<!DOCTYPE svg PUBLIC "-//W3C//DTD SVG 1.1//EN" "http://www.w3.org/Graphics/SVG/1.1/DTD/svg11.dtd" [
	<!ENTITY ns_extend "http://ns.adobe.com/Extensibility/1.0/">
	<!ENTITY ns_ai "http://ns.adobe.com/AdobeIllustrator/10.0/">
	<!ENTITY ns_graphs "http://ns.adobe.com/Graphs/1.0/">
	<!ENTITY ns_vars "http://ns.adobe.com/Variables/1.0/">
	<!ENTITY ns_imrep "http://ns.adobe.com/ImageReplacement/1.0/">
	<!ENTITY ns_sfw "http://ns.adobe.com/SaveForWeb/1.0/">
	<!ENTITY ns_custom "http://ns.adobe.com/GenericCustomNamespace/1.0/">
	<!ENTITY ns_adobe_xpath "http://ns.adobe.com/XPath/1.0/">
	<!ENTITY st0 "fill:#5F6368;">
	<!ENTITY st1 "fill:#EA4335;">
	<!ENTITY st2 "fill:#4285F4;">
	<!ENTITY st3 "fill:#34A853;">
	<!ENTITY st4 "fill:#FBBC05;">
]>
<svg version="1.1" id="Layer_1" xmlns:x="&ns_extend;" xmlns:i="&ns_ai;" xmlns:graph="&ns_graphs;"
	 xmlns="http://www.w3.org/2000/svg" xmlns:xlink="http://www.w3.org/1999/xlink" x="0px" y="0px" viewBox="0 0 181 28"
	 style="enable-background:new 0 0 181 28;" xml:space="preserve">
<metadata>
	<sfw  xmlns="&ns_sfw;">
		<slices></slices>
		<sliceSourceBounds  bottomLeftOrigin="true" height="27.71" width="176.87" x="1.05" y="0.15"></sliceSourceBounds>
	</sfw>
</metadata>
<g id="text">
	<path style="&st0;" d="M130.13,22.51c-4.55,0.08-8.3-3.55-8.38-8.1c0-0.11,0-0.22,0-0.33c-0.11-4.55,3.5-8.32,8.05-8.43
		c0.11,0,0.22,0,0.33,0c2.28-0.07,4.46,0.9,5.93,2.64l-1.44,1.4c-1.08-1.36-2.75-2.12-4.48-2.05c-1.66-0.04-3.27,0.61-4.45,1.78
		c-1.23,1.23-1.88,2.92-1.81,4.66c-0.07,1.74,0.58,3.43,1.81,4.66c1.18,1.17,2.79,1.82,4.45,1.78c1.94,0.02,3.78-0.84,5-2.34
		l1.44,1.44c-0.75,0.9-1.7,1.62-2.77,2.11C132.66,22.26,131.4,22.53,130.13,22.51z"/>
	<path style="&st0;" d="M140.45,22.15h-2.07V6h2.07V22.15z"/>
	<path style="&st0;" d="M143.83,12.43c2.26-2.24,5.9-2.24,8.16,0c1.07,1.13,1.65,2.64,1.6,4.2c0.05,1.56-0.53,3.07-1.6,4.2
		c-2.26,2.24-5.9,2.24-8.16,0c-1.07-1.13-1.65-2.64-1.6-4.2C142.18,15.07,142.76,13.56,143.83,12.43z M145.37,19.53
		c1.32,1.4,3.53,1.46,4.93,0.14c0.05-0.04,0.09-0.09,0.14-0.14c0.73-0.78,1.12-1.83,1.07-2.9c0.05-1.07-0.34-2.12-1.07-2.9
		c-1.32-1.4-3.53-1.46-4.93-0.14c-0.05,0.04-0.09,0.09-0.14,0.14c-0.73,0.78-1.12,1.83-1.07,2.9c-0.04,1.07,0.35,2.11,1.08,2.89
		L145.37,19.53z"/>
	<path style="&st0;" d="M165.06,22.15h-2v-1.53H163c-0.36,0.58-0.86,1.06-1.46,1.38c-0.62,0.36-1.33,0.55-2.05,0.55
		c-1.18,0.08-2.34-0.38-3.14-1.26c-0.76-0.96-1.14-2.16-1.07-3.38v-6.8h2.07v6.42c0,2.06,0.91,3.09,2.73,3.09
		c0.82,0.03,1.6-0.35,2.1-1c0.54-0.68,0.82-1.52,0.81-2.39v-6.12h2.07V22.15z"/>
	<path style="&st0;" d="M172.09,22.51c-1.42,0-2.77-0.61-3.7-1.69c-1.04-1.15-1.59-2.65-1.55-4.19c-0.04-1.54,0.51-3.04,1.55-4.19
		c0.93-1.08,2.28-1.69,3.7-1.69c0.79-0.01,1.56,0.17,2.26,0.54c0.61,0.31,1.13,0.77,1.5,1.35h0.09l-0.09-1.53V6h2.07v16.15h-2v-1.53
		h-0.09c-0.37,0.58-0.89,1.04-1.5,1.35C173.64,22.33,172.87,22.52,172.09,22.51z M172.43,20.62c0.95,0.01,1.85-0.38,2.49-1.08
		c0.7-0.8,1.06-1.85,1-2.91c0.06-1.06-0.3-2.11-1-2.91c-1.26-1.38-3.39-1.48-4.77-0.23c-0.08,0.07-0.15,0.15-0.23,0.23
		c-0.71,0.8-1.07,1.84-1,2.9c-0.07,1.06,0.29,2.1,1,2.9C170.56,20.23,171.47,20.63,172.43,20.62z"/>
	<path style="&st0;" d="M52.79,22.51c-2.48,0.03-4.86-0.95-6.6-2.71c-1.8-1.69-2.8-4.05-2.77-6.52c-0.03-2.47,0.98-4.83,2.77-6.52
		c1.73-1.78,4.12-2.78,6.6-2.76c2.37-0.03,4.65,0.89,6.33,2.55l-1.78,1.81c-1.22-1.18-2.85-1.83-4.55-1.8c-1.78-0.02-3.48,0.7-4.7,2
		c-1.26,1.25-1.96,2.97-1.93,4.75c-0.01,1.76,0.68,3.45,1.93,4.69c2.58,2.57,6.73,2.61,9.36,0.11c0.78-0.86,1.27-1.95,1.37-3.11h-6
		v-2.56h8.49c0.08,0.52,0.12,1.04,0.1,1.56c0.11,2.18-0.68,4.32-2.19,5.9C57.54,21.64,55.21,22.59,52.79,22.51z M72.53,20.81
		c-2.37,2.27-6.1,2.27-8.47,0c-1.15-1.11-1.77-2.65-1.73-4.25c-0.04-1.6,0.58-3.14,1.73-4.25c2.37-2.26,6.1-2.26,8.47,0
		c1.15,1.11,1.77,2.65,1.73,4.25c0.04,1.6-0.59,3.14-1.74,4.25H72.53z M65.93,19.14c1.22,1.31,3.27,1.37,4.58,0.15
		c0.05-0.05,0.1-0.1,0.15-0.15c0.67-0.69,1.03-1.62,1-2.58c0.03-0.96-0.33-1.9-1-2.59c-1.26-1.31-3.34-1.36-4.65-0.1
		c-0.03,0.03-0.07,0.06-0.1,0.1c-0.67,0.69-1.03,1.63-1,2.59c-0.03,0.96,0.34,1.89,1.01,2.58H65.93z M85.55,20.81
		c-2.37,2.27-6.1,2.27-8.47,0c-1.15-1.11-1.77-2.65-1.73-4.25c-0.04-1.6,0.58-3.14,1.73-4.25c2.37-2.27,6.1-2.27,8.47,0
		c1.15,1.11,1.77,2.65,1.73,4.25C87.32,18.16,86.7,19.7,85.55,20.81z M78.95,19.14c1.22,1.31,3.27,1.37,4.58,0.15
		c0.05-0.05,0.1-0.1,0.15-0.15c0.67-0.69,1.03-1.62,1-2.58c0.03-0.96-0.33-1.9-1-2.59c-1.26-1.31-3.34-1.36-4.65-0.1
		c-0.03,0.03-0.07,0.06-0.1,0.1c-0.67,0.69-1.03,1.63-1,2.59c-0.03,0.96,0.34,1.89,1.01,2.58H78.95z M94.11,27.85
		c-1.2,0.04-2.37-0.34-3.33-1.06c-0.85-0.64-1.52-1.49-1.94-2.46l2.28-0.95c0.25,0.58,0.64,1.09,1.13,1.49
		c0.53,0.43,1.19,0.65,1.87,0.63c0.87,0.05,1.72-0.28,2.33-0.9c0.6-0.73,0.9-1.66,0.83-2.6v-0.86h-0.09
		c-0.77,0.92-1.93,1.42-3.13,1.35c-1.52,0-2.97-0.63-4-1.74c-1.12-1.1-1.74-2.62-1.71-4.19c-0.03-1.58,0.59-3.1,1.71-4.22
		c1.03-1.12,2.48-1.75,4-1.75c0.64,0,1.26,0.14,1.84,0.41c0.5,0.22,0.94,0.54,1.3,0.95h0.09V11h2.48v10.65
		c0.13,1.7-0.44,3.38-1.59,4.65C97.09,27.34,95.62,27.9,94.11,27.85z M94.29,20.17c0.86,0.02,1.69-0.35,2.26-1
		c0.62-0.71,0.94-1.62,0.91-2.56c0.04-0.95-0.29-1.89-0.91-2.61c-0.57-0.65-1.4-1.02-2.26-1c-0.89-0.02-1.74,0.35-2.34,1
		c-0.66,0.7-1.02,1.63-1,2.59c-0.02,0.95,0.34,1.87,1,2.56C92.55,19.81,93.4,20.18,94.29,20.17z M104.18,4.67v17.48h-2.61V4.67
		L104.18,4.67z M111.34,22.51c-1.58,0.04-3.11-0.58-4.21-1.71c-1.12-1.12-1.73-2.65-1.69-4.24c-0.06-1.59,0.53-3.13,1.63-4.28
		c1.04-1.1,2.49-1.7,4-1.67c0.69-0.01,1.37,0.13,2,0.39c0.57,0.23,1.09,0.57,1.53,1c0.38,0.36,0.71,0.77,1,1.21
		c0.23,0.37,0.43,0.76,0.59,1.17l0.27,0.68l-8,3.29c0.5,1.14,1.64,1.85,2.88,1.8c1.2,0,2.31-0.62,2.93-1.65l2,1.35
		c-0.51,0.73-1.16,1.35-1.92,1.82C113.45,22.24,112.4,22.53,111.34,22.51z M108,16.38l5.32-2.21c-0.16-0.39-0.46-0.71-0.83-0.91
		c-0.42-0.24-0.89-0.36-1.37-0.35c-0.81,0.02-1.59,0.36-2.15,0.95C108.29,14.51,107.93,15.44,108,16.38z"/>
</g>
<g id="Cloud">
	<path style="&st1;" d="M21.85,7.41h1l2.85-2.85l0.14-1.21c-5.3-4.68-13.4-4.18-18.08,1.13C6.46,5.95,5.51,7.7,5,9.6
		c0.32-0.13,0.67-0.15,1-0.06l5.7-0.94c0,0,0.29-0.48,0.44-0.45c2.54-2.78,6.8-3.11,9.73-0.74L21.85,7.41z"/>
	<path style="&st2;" d="M29.76,9.6c-0.66-2.41-2-4.58-3.87-6.24l-4,4c1.69,1.38,2.65,3.46,2.61,5.64v0.71
		c1.97,0,3.56,1.59,3.56,3.56s-1.59,3.56-3.56,3.56h-7.12l-0.71,0.72v4.27l0.71,0.71h7.12c5.11,0.04,9.29-4.07,9.33-9.19
		C33.86,14.24,32.33,11.34,29.76,9.6z"/>
	<path style="&st3;" d="M10.25,26.49h7.12v-5.7h-7.12c-0.51,0-1.01-0.11-1.47-0.32l-1,0.31l-2.87,2.85l-0.25,1
		C6.27,25.85,8.23,26.5,10.25,26.49z"/>
	<path style="&st4;" d="M10.25,8c-5.11,0.03-9.24,4.2-9.2,9.32c0.02,2.86,1.35,5.54,3.61,7.28l4.13-4.13
		C7,19.66,6.2,17.55,7.01,15.76s2.92-2.59,4.71-1.78c0.79,0.36,1.42,0.99,1.78,1.78l4.13-4.13C15.87,9.33,13.14,7.99,10.25,8z"/>
</g>
</svg>
