<?xml version="1.0" encoding="utf-8"?>
<!-- Generator: Adobe Illustrator 26.4.1, SVG Export Plug-In . SVG Version: 6.00 Build 0)  -->
<!DOCTYPE svg PUBLIC "-//W3C//DTD SVG 1.1//EN" "http://www.w3.org/Graphics/SVG/1.1/DTD/svg11.dtd" [
	<!ENTITY ns_extend "http://ns.adobe.com/Extensibility/1.0/">
	<!ENTITY ns_ai "http://ns.adobe.com/AdobeIllustrator/10.0/">
	<!ENTITY ns_graphs "http://ns.adobe.com/Graphs/1.0/">
	<!ENTITY ns_vars "http://ns.adobe.com/Variables/1.0/">
	<!ENTITY ns_imrep "http://ns.adobe.com/ImageReplacement/1.0/">
	<!ENTITY ns_sfw "http://ns.adobe.com/SaveForWeb/1.0/">
	<!ENTITY ns_custom "http://ns.adobe.com/GenericCustomNamespace/1.0/">
	<!ENTITY ns_adobe_xpath "http://ns.adobe.com/XPath/1.0/">
]>
<svg version="1.1" id="Layer_1" xmlns:x="&ns_extend;" xmlns:i="&ns_ai;" xmlns:graph="&ns_graphs;" xmlns:lucid="lucid"
	 xmlns="http://www.w3.org/2000/svg" xmlns:xlink="http://www.w3.org/1999/xlink" x="0px" y="0px" viewBox="0 0 976 476"
	 style="enable-background:new 0 0 976 476;" xml:space="preserve">
<style type="text/css">
	.st0{fill:#00B7F4;}
	.st1{fill:#3A414A;}
	.st2{fill:#693CC5;stroke:#FFFFFF;stroke-opacity:0;}
	.st3{fill:#FFFFFF;stroke:#FFFFFF;stroke-opacity:0;}
	.st4{fill:#3F8624;stroke:#FFFFFF;stroke-width:2;stroke-opacity:0;}
	.st5{fill:#FFFFFF;stroke:#FFFFFF;stroke-width:2;stroke-opacity:0;}
</style>
<metadata>
	<sfw  xmlns="&ns_sfw;">
		<slices></slices>
		<sliceSourceBounds  bottomLeftOrigin="true" height="148" width="521" x="20" y="22"></sliceSourceBounds>
	</sfw>
</metadata>
<g id="QuickSight">
	<path class="st0" d="M334,203l-51,50.9V212l-51,51v-78.1h102.1V203H334z M228.2,176H228c-2.9,0-5,2.4-5,5.2V291c0,2.9,2.4,5,5.2,5
		H338c2.9,0,5-2.4,5-5.2V181.2V181c0-2.9-2.4-5-5.2-5H228.2z"/>
	<g transform="matrix(1,0,0,1,340,500) translate(9.444444444444443 17.77777777777778)">
		<g id="a">
			<g transform="matrix(0.06172839506172839,0,0,0.06172839506172839,0,0)">
				<path id="d" class="st1" d="M240.5,300c-3.8,0-4.8,2.7-4.8,6.5c0,4,1,6.7,4.8,6.7s4.8-2.7,4.8-6.7
					C245.3,302.6,244.3,300,240.5,300z M241.4,314c-5.2,0.4-8-2.3-8-7.5c0-4.9,2.3-7.4,7.1-7.4c4.8,0,7.1,2.6,7.1,7.4
					c0.1,3.6-1.3,5.9-3.8,6.9c1.2,1.2,1.9,3.3,4.4,2.8v0.7c-1.9,0.7-4.1,0.1-5.2-1.2"/>
			</g>
			<g transform="matrix(0.06172839506172839,0,0,0.06172839506172839,15.987654320987653,0)">
				<path id="e" class="st1" d="M256.1,313c-2.2,1.3-6,1.7-6-2v-6.7c-0.5-0.2-1.5,0.1-1.3-0.7h3.1v7.3c-0.2,2.3,2.6,2,4.3,1.5v-8.1
					l-1.5-0.2v-0.5h3.3v9.4c0.5,0.2,1.5-0.1,1.3,0.7h-3"/>
			</g>
			<g transform="matrix(0.06172839506172839,0,0,0.06172839506172839,27.098765432098766,0)">
				<path id="f" class="st1" d="M262.4,301.4c-1.4,0-1.5-2.4,0-2.3c0.8,0,1.1,0.4,1.2,1.2C263.6,300.9,263.2,301.4,262.4,301.4z
					 M263.6,313l1.7,0.2v0.5H260v-0.5l1.7-0.2v-8.7l-1.5-0.2v-0.5h3.3V313"/>
			</g>
			<g transform="matrix(0.06172839506172839,0,0,0.06172839506172839,33.27160493827161,0)">
				<path id="g" class="st1" d="M268.5,308.6c0,4,3.2,4.9,6.4,3.9c0.1,1.5-1.9,1.5-3.4,1.5c-3.5,0-4.9-2-4.9-5.4
					c0-4.7,3.8-6,8.1-4.9v2.8H274c-0.3-0.9-0.2-1.9-1.4-2.2C269.7,303.7,268.5,305.6,268.5,308.6"/>
			</g>
			<g transform="matrix(0.06172839506172839,0,0,0.06172839506172839,43.086419753086425,0)">
				<path id="h" class="st1" d="M279.2,308.8l4.2-4.5c-0.4-0.2-1.2,0-1-0.7h3.6c0.2,0.8-0.8,0.6-1.2,0.7l-2.9,3l3.7,5.7
					c0.4,0.2,1.3-0.1,1.1,0.7h-4.2c-0.2-0.7,0.6-0.6,0.9-0.7l-2.8-4.4l-1.4,1.4v3c0.4,0.2,1.3-0.1,1.1,0.7h-4.2v-0.5l1.3-0.2v-14
					l-1.5-0.2v-0.5h3.3V308.8"/>
			</g>
			<g transform="matrix(0.06172839506172839,0,0,0.06172839506172839,54.19753086419753,0)">
				<path id="i" class="st1" d="M297.6,309.6c0,4.9-5.9,5.1-9.5,3.6v-3.3h0.7c0.1,2.2,1.4,3.2,3.7,3.2c3.1,0,4.3-3.6,2-5.1
					c-2.4-1.5-6.5-1.3-6.5-5.2c0-4.1,5.3-4.1,8.8-3.3v3h-0.7l-0.4-1.8c-1.9-1.7-7.5-0.4-5.5,2.6C292,306,297.6,304.8,297.6,309.6"/>
			</g>
			<g transform="matrix(0.06172839506172839,0,0,0.06172839506172839,66.54320987654322,0)">
				<path id="f_00000068658960416050719350000008463109984239383173_" class="st1" d="M301.9,301.4c-1.4,0-1.5-2.4,0-2.3
					c0.8,0,1.1,0.4,1.2,1.2C303.1,300.9,302.6,301.4,301.9,301.4z M303,313l1.7,0.2v0.5h-5.2v-0.5l1.7-0.2v-8.7l-1.5-0.2v-0.5h3.3
					V313"/>
			</g>
			<g transform="matrix(0.06172839506172839,0,0,0.06172839506172839,72.71604938271605,0)">
				<path id="j" class="st1" d="M313.9,304.4c1.7,2.4,0.3,6-3.3,6c-0.6,0-1.2-0.1-1.7-0.2l-0.7,1.4c1.8,1.4,8-0.9,7.7,3.2
					c-0.2,2.8-2.3,3.5-5.4,3.8c-4,0.3-5.7-3.2-2.5-4.9c-0.7-0.2-1.4-0.8-1.5-1.8l1.7-1.9c-1.2-0.6-1.7-1.6-1.7-3.1
					c-0.1-3.1,3.3-4,6.2-3.2l2.3-1.2l0.4,0.5L313.9,304.4z M310.4,317.7c2.2,0,3.8-0.7,3.8-2.6c0-2.2-3.5-1-5.5-1.3
					c-0.6,0.5-1,1.2-1,2.1C307.6,317.5,308.8,317.7,310.4,317.7z M308.4,306.8c0.1,1.6,0.4,2.8,2.2,2.7c1.7-0.1,2.1-1,2.2-2.7
					c0-1.6-0.4-2.7-2.1-2.7C308.9,304.1,308.4,305.2,308.4,306.8"/>
			</g>
			<g transform="matrix(0.06172839506172839,0,0,0.06172839506172839,83.82716049382717,0)">
				<path id="k" class="st1" d="M324,306.4c0.2-2.3-2.6-1.9-4.3-1.5v8.1l1.4,0.2v0.5h-4.5v-0.5l1.3-0.2v-14l-1.5-0.2v-0.5h3.3
					l-0.1,6c1.9-1.4,6.1-1.9,6.1,1.9v6.7c0.4,0.2,1.4-0.1,1.2,0.7h-4.4v-0.5l1.4-0.2V306.4"/>
			</g>
			<g transform="matrix(0.06172839506172839,0,0,0.06172839506172839,94.93827160493828,0)">
				<path id="l" class="st1" d="M330.7,311.4c-0.1,1.5,1.5,1.6,2.7,1.2v0.7c-1.7,1-4.5,0.9-4.5-1.8v-7.1h-1.3
					c-0.1-0.9,0.9-0.6,1.3-0.9l1.1-2.3h0.7v2.3h2.3v0.9h-2.3V311.4"/>
			</g>
		</g>
	</g>
</g>
<g id="CloudFront">
	<path class="st2" d="M423,176h120v120H423V176z"/>
	<path class="st3" d="M496.8,273.1l-2.8-1.5c1.6-3,2.7-5.7,3.6-9l3.1,0.9C499.7,267,498.5,269.8,496.8,273.1L496.8,273.1z
		 M499.8,243.8c-0.6-9.4-3.2-17.2-8.4-25.1l2.7-1.7c5.5,8.3,8.4,16.6,9,26.6L499.8,243.8z M478.7,205.2c-2.5-1.8-4.7-3.2-7.4-4.5
		l1.5-2.9c2.9,1.4,5.3,2.9,7.9,4.8L478.7,205.2z M491.8,247.8c-5.3-5.3-10.8-8.7-17.9-11.2l1-3c7.5,2.6,13.4,6.3,19,11.9
		L491.8,247.8z M505,266.9c-0.6-1.6-1.3-3.1-2-4.6l2.9-1.4c0.8,1.6,1.5,3.1,2.1,4.8L505,266.9z"/>
	<path class="st3" d="M495.9,273.8l-1-3c4-1.4,7.2-3.1,10.6-5.7l2,2.5C503.8,270.5,500.3,272.4,495.9,273.8L495.9,273.8z M445,235.2
		l-0.7-3.1c3.8-0.9,7-1.4,10.8-1.4l0.1,3.2C451.6,234,448.6,234.3,445,235.2L445,235.2z M471.3,225l-2.7-1.8c2.5-4,5.1-7.1,8.6-10.2
		l2.1,2.4C476,218.4,473.6,221.3,471.3,225L471.3,225z M495.1,206l-1.1-3c2.5-1,4.8-1.6,7.4-2.1l0.6,3.2
		C499.5,204.6,497.5,205.2,495.1,206L495.1,206z M463.4,270.4c-2.8-6.4-4-12.2-4.1-19.2c0-2.7,0.3-5,1-7.5c0.1-0.6,0.2-1.1,0.3-1.7
		l3.2,0.6c-0.1,0.6-0.2,1.2-0.3,1.8c-0.6,2.4-0.9,4.5-0.9,6.9c0.1,6.5,1.2,12,3.8,18.1L463.4,270.4z"/>
	<path class="st3" d="M483,276c-22.1,0-40-17.9-40-40c0-0.9,0-1.6,0.1-2.5c1-17,12.1-31,28.5-35.9c10.8-3.2,21.2-2.1,31,3.4
		c19.3,10.8,26.2,35.2,15.4,54.5c-2.7,4.9-5.9,8.6-10.4,12.1C500.1,273.3,492.3,276,483,276z M483,199.2c-3.8,0-7,0.5-10.5,1.6
		c-15.1,4.6-25.3,17.3-26.2,33c0,0.8-0.1,1.5-0.1,2.2c0,20.3,16.5,36.8,36.8,36.8c4.2,0,7.8-0.6,11.8-2c4.1-1.4,7.3-3,10.6-5.7
		c9.4-7.2,14.3-17.3,14.3-29.1C519.8,215.7,503.3,199.2,483,199.2L483,199.2z"/>
	<path class="st3" d="M486.9,217.5c-3.9,0-7.1-3.2-7.1-7.1s3.2-7.1,7.1-7.1c3.9,0,7.1,3.2,7.1,7.1
		C494,214.3,490.8,217.5,486.9,217.5z M486.9,206.5c-2.2,0-3.9,1.7-3.9,3.9c0,2.2,1.8,3.9,3.9,3.9c2.1,0,3.9-1.7,3.9-3.9
		C490.8,208.3,489,206.5,486.9,206.5L486.9,206.5z M465.1,239.8c-3.9,0-7.1-3.2-7.1-7.1c0-3.9,3.2-7.1,7.1-7.1
		c3.9,0,7.1,3.2,7.1,7.1C472.1,236.6,469,239.8,465.1,239.8L465.1,239.8z M465.1,228.8c-2.1,0-3.9,1.7-3.9,3.9s1.7,3.9,3.9,3.9
		s3.9-1.7,3.9-3.9v0C469,230.5,467.2,228.8,465.1,228.8L465.1,228.8z M500.2,260.3c-3.9,0-7.1-3.2-7.1-7.1c0-3.9,3.2-7.1,7.1-7.1
		c3.9,0,7.1,3.2,7.1,7.1v0C507.3,257.1,504.2,260.3,500.2,260.3z M500.2,249.4L500.2,249.4c-2.2,0-3.9,1.8-3.9,3.9
		c0,2.1,1.7,3.9,3.9,3.9s3.9-1.7,3.9-3.9C504.1,251.1,502.4,249.4,500.2,249.4L500.2,249.4z"/>
	<g transform="matrix(1,0,0,1,510,509) translate(38.79629629629629 17.77777777777778)">
		<g id="b">
			<g transform="matrix(0.06172839506172839,0,0,0.06172839506172839,0,0)">
				<path id="m" class="st1" d="M435,315.7c0,5.7,4.9,8,9.3,5.4l0.4-2.2h0.7l-0.1,3.4c-1.4,0.4-3.2,0.7-5.1,0.7
					c-4.7,0-7.2-2.5-7.5-7.3c-0.3-7,6-8.7,12.4-7l0.1,3.1h-0.7l-0.3-1.9c-0.9-0.6-2.4-1-3.8-1C436.2,309,435,311.5,435,315.7"/>
			</g>
			<g transform="matrix(0.06172839506172839,0,0,0.06172839506172839,14.814814814814813,0)">
				<path id="n" class="st1" d="M450.6,322l1.7,0.2v0.5H447v-0.5l1.7-0.2v-14l-1.7-0.2v-0.5h3.6V322"/>
			</g>
			<g transform="matrix(0.06172839506172839,0,0,0.06172839506172839,20.98765432098765,0)">
				<path id="o" class="st1" d="M458.3,312.3c3.2,0,4.7,2,4.7,5.4c0,3.3-1.5,5.4-4.8,5.4c-3.1,0-4.6-2.1-4.6-5.4
					C453.6,314.3,455.1,312.3,458.3,312.3z M458.3,322.2c2.4,0,2.8-2.2,2.8-4.5c0-2.4-0.4-4.5-2.8-4.5c-2.4,0.1-2.7,2.1-2.7,4.5
					C455.6,320.1,455.9,322.1,458.3,322.2"/>
			</g>
			<g transform="matrix(0.06172839506172839,0,0,0.06172839506172839,32.09876543209876,0)">
				<path id="e_00000015315055059014223200000012545805051163776640_" class="st1" d="M471.5,322c-2.2,1.3-6,1.7-6-2v-6.7
					c-0.5-0.2-1.5,0.1-1.3-0.7h3.1v7.3c-0.2,2.3,2.6,2,4.3,1.5v-8.1l-1.5-0.2v-0.5h3.3v9.4c0.5,0.2,1.5-0.1,1.3,0.7h-3"/>
			</g>
			<g transform="matrix(0.06172839506172839,0,0,0.06172839506172839,43.20987654320987,0)">
				<path id="p" class="st1" d="M475.8,317.8c0-4.4,2.8-6.2,7-5.2l-0.1-4.4l-1.7-0.2v-0.5h3.5V322c0.5,0.2,1.5-0.1,1.3,0.7H483
					l-0.1-0.7C479.9,324.2,475.8,322.7,475.8,317.8z M480.6,313.2c-2.3,0.1-2.7,2-2.8,4.6c0,2.3,0.6,4.1,2.8,4.1
					c0.9,0,1.7-0.2,2.2-0.4v-8C482.2,313.3,481.3,313.2,480.6,313.2"/>
			</g>
			<g transform="matrix(0.06172839506172839,0,0,0.06172839506172839,54.32098765432099,0)">
				<path id="q" class="st1" d="M490.7,316.2v5.7l2.4,0.3v0.6h-6.2v-0.6l1.7-0.3v-12.8l-1.9-0.2v-0.6h10.9v3.5H497l-0.4-2.3
					c-1.7-0.2-3.9-0.2-5.9-0.2v6h4.3l0.3-1.7h0.7v4.5h-0.7l-0.3-1.8H490.7"/>
			</g>
			<g transform="matrix(0.06172839506172839,0,0,0.06172839506172839,66.66666666666667,0)">
				<path id="r" class="st1" d="M502,313.8c1-0.6,2.2-1.5,3.7-1.5v2.8c-1.2,0.1-0.5-1.9-2.5-1l-1.2,0.4v7.7l1.8,0.2v0.5h-4.9v-0.5
					l1.3-0.2v-8.7c-0.5-0.2-1.5,0.1-1.3-0.7h3"/>
			</g>
			<g transform="matrix(0.06172839506172839,0,0,0.06172839506172839,74.01234567901236,0)">
				<path id="o_00000140012947165590659680000006137716390125315200_" class="st1" d="M511.4,312.3c3.2,0,4.7,2,4.7,5.4
					c0,3.3-1.5,5.4-4.8,5.4c-3.1,0-4.6-2.1-4.6-5.4C506.7,314.3,508.2,312.3,511.4,312.3z M511.3,322.2c2.4,0,2.8-2.2,2.8-4.5
					c0-2.4-0.4-4.5-2.8-4.5c-2.4,0.1-2.7,2.1-2.7,4.5C508.6,320.1,509,322.1,511.3,322.2"/>
			</g>
			<g transform="matrix(0.06172839506172839,0,0,0.06172839506172839,85.12345679012347,0)">
				<path id="s" class="st1" d="M524.6,315.5c0.2-2.3-2.5-2.1-4.2-1.6v8.1l1.4,0.2v0.5h-4.4c-0.2-0.8,0.8-0.6,1.2-0.7v-8.7
					c-0.4-0.2-1.4,0.1-1.2-0.7h2.9l0.1,0.8c1.9-1.4,6-1.8,6,1.9v6.7c0.4,0.2,1.4-0.1,1.2,0.7h-4.4v-0.5l1.4-0.2V315.5"/>
			</g>
			<g transform="matrix(0.06172839506172839,0,0,0.06172839506172839,96.23456790123458,0)">
				<path id="l_00000137815747504204077570000008716478466709587336_" class="st1" d="M531.4,320.4c-0.1,1.5,1.5,1.6,2.7,1.2v0.7
					c-1.7,1-4.5,0.9-4.5-1.8v-7.1h-1.3c-0.1-0.9,0.9-0.6,1.3-0.9l1.1-2.3h0.7v2.3h2.3v0.9h-2.3V320.4"/>
			</g>
		</g>
	</g>
</g>
<g id="S3">
	<path class="st4" d="M623,176h120v120H623V176z"/>
	<path class="st5" d="M721.3,240.1c-0.5-2.5-3.3-4.2-5.3-5.5c-0.6-0.4-2.3-1-2.5-1.6c0-0.4,0-0.8,0.2-1.2l1.6-11.5l1.4-10.2
		c0.4-3-1.1-5.1-3.6-6.9c-5.1-3.6-11.9-5-17.9-6c-8-1.3-15-1.5-23-0.7c-7.3,0.5-13.3,1.9-20.1,4.8c-3.4,1.6-7.9,4.1-7.3,8.4
		c1.5,13,3.5,26,5.2,38.9c0.8,5.9,1.6,11.9,2.4,17.8c0.3,2.5,1.7,4.4,4,5.4c4.9,2.6,11,3.5,16.6,3.9c7.7,0.7,14.3,0.5,22-1
		c4.6-0.8,13.2-2.2,13.9-8c0.9-7.1,1.9-14.3,2.8-21.4l0.4-2.2C714.7,243.8,722.2,245.2,721.3,240.1L721.3,240.1z M680.6,199.2
		c9.7,0,20.6,1.1,29.2,5.9c1.4,0.7,4.5,2.3,3.5,4.3c-0.9,1.9-3.8,2.9-5.6,3.6c-2.6,1-5,1.6-7.8,2.2c-12,2.4-22.5,2.6-34.7,0.7
		c-5.5-0.6-10-1.9-14.9-4.3c-1.2-0.7-3.1-1.8-2.5-3.5c0.4-0.9,1-1.5,1.8-2c3.8-2.4,7.2-3.9,11.6-4.7
		C668,199.8,673.8,199.1,680.6,199.2L680.6,199.2z M705.8,266.7c-0.3,1.8-3.4,2.8-4.8,3.3c-3.2,1.1-6.1,1.8-9.4,2.2
		c-7.4,1-13.9,1-21.4,0c-4.7-0.4-8.6-1.4-12.8-3.5c-1.1-0.5-1.8-1.5-1.9-2.7c-1.6-12.7-3.4-25.4-5.2-38.1l-1.8-13.8
		c3.8,2.1,7.4,3.4,11.7,4.1c4.7,1,8.6,1.4,13.3,1.8c9.2,0.6,17.1,0.2,26.2-1.4c4.8-0.7,8.8-2.1,13.1-4.4l-3.4,25.1
		c-8.6-2.8-15.6-5.6-23.7-9.5c-0.4-0.2-0.7-0.3-1-0.5c-0.5-0.3-0.3-0.2-0.5-0.6c-0.4-1-0.5-1.6-1.3-2.4c-0.8-0.6-1.6-0.8-2.5-0.7
		c-2,0.1-3.5,1.8-3.4,3.8c0.2,1.9,1.9,3.5,3.9,3.3c0.5-0.1,1-0.2,1.6-0.5c0.6-0.1,0.6-0.1,1.2,0.2c8.2,4,15.3,7,24,9.9
		c1.2,0.4,1.2,0,1.2,1c-0.1,0.8-0.2,1.5-0.3,2.3l-1,7.6L705.8,266.7z M681.1,228.8c0,0.5-0.6,0.4-0.8,0.2
		C680.1,228.6,681.1,228.2,681.1,228.8L681.1,228.8z M712.6,240l0.5-3.5c1.6,1,4.3,2.3,5.1,4.1C716.5,241.2,714.1,240.4,712.6,240z"
		/>
	<g transform="matrix(1,0,0,1,710,509) translate(78.27160493827161 17.77777777777778)">
		<g id="c">
			<g transform="matrix(0.06172839506172839,0,0,0.06172839506172839,0,0)">
				<path id="i_00000096053336253610255010000000906906638071608706_" class="st1" d="M682.3,318.6c0,4.9-5.9,5.1-9.5,3.6v-3.3h0.7
					c0.1,2.2,1.4,3.2,3.7,3.2c3.1,0,4.3-3.6,2-5.1c-2.4-1.5-6.5-1.3-6.5-5.2c0-4.1,5.3-4.1,8.8-3.3v3h-0.7l-0.4-1.8
					c-1.9-1.7-7.5-0.4-5.5,2.6C676.6,315,682.3,313.8,682.3,318.6"/>
			</g>
			<g transform="matrix(0.06172839506172839,0,0,0.06172839506172839,12.345679012345679,0)">
				<path id="t" class="st1" d="M690,315.2c2.4,0.2,3.8,1.3,3.8,3.6c0.1,4.4-5.1,4.7-9.1,3.7l-0.1-3.1h0.7c0.1,1.8,1,2.7,3.1,2.7
					c2.3,0,3.3-1.2,3.3-3.4c0.1-2.7-2.1-3-4.6-3.1v-0.9c2.3,0,4-0.4,4-3c0-2.9-2.9-3.5-5-2.2l-0.4,1.8h-0.7v-2.8
					c3.1-0.8,8.3-0.8,8.1,3.1C693.1,313.8,692,314.9,690,315.2"/>
			</g>
		</g>
	</g>
</g>
</svg>
