<?xml version="1.0" encoding="utf-8"?>
<!-- Generator: Adobe Illustrator 26.0.3, SVG Export Plug-In . SVG Version: 6.00 Build 0)  -->
<!DOCTYPE svg PUBLIC "-//W3C//DTD SVG 1.1//EN" "http://www.w3.org/Graphics/SVG/1.1/DTD/svg11.dtd" [
	<!ENTITY ns_extend "http://ns.adobe.com/Extensibility/1.0/">
	<!ENTITY ns_ai "http://ns.adobe.com/AdobeIllustrator/10.0/">
	<!ENTITY ns_graphs "http://ns.adobe.com/Graphs/1.0/">
	<!ENTITY ns_vars "http://ns.adobe.com/Variables/1.0/">
	<!ENTITY ns_imrep "http://ns.adobe.com/ImageReplacement/1.0/">
	<!ENTITY ns_sfw "http://ns.adobe.com/SaveForWeb/1.0/">
	<!ENTITY ns_custom "http://ns.adobe.com/GenericCustomNamespace/1.0/">
	<!ENTITY ns_adobe_xpath "http://ns.adobe.com/XPath/1.0/">
]>
<svg version="1.1" id="Layer_1" xmlns:x="&ns_extend;" xmlns:i="&ns_ai;" xmlns:graph="&ns_graphs;"
	 xmlns="http://www.w3.org/2000/svg" xmlns:xlink="http://www.w3.org/1999/xlink" x="0px" y="0px" viewBox="0 0 1920 1080"
	 style="enable-background:new 0 0 1920 1080;" xml:space="preserve">
<style type="text/css">
	.st0{fill-rule:evenodd;clip-rule:evenodd;fill:#D6D0C5;}
	.st1{fill-rule:evenodd;clip-rule:evenodd;fill:#938E86;}
	.st2{fill-rule:evenodd;clip-rule:evenodd;fill:#B5AFA5;}
	.st3{fill-rule:evenodd;clip-rule:evenodd;fill:#C9C2B7;}
	.st4{fill-rule:evenodd;clip-rule:evenodd;fill:#595650;}
	.st5{fill-rule:evenodd;clip-rule:evenodd;fill:#EBE5DA;}
	.st6{fill-rule:evenodd;clip-rule:evenodd;fill:#E07B07;}
	.st7{fill-rule:evenodd;clip-rule:evenodd;fill:#FFCC00;}
	.st8{fill-rule:evenodd;clip-rule:evenodd;fill:#FFA200;}
	.st9{fill-rule:evenodd;clip-rule:evenodd;fill:#FFFF00;}
</style>
<metadata>
	<sfw  xmlns="&ns_sfw;">
		<slices></slices>
		<sliceSourceBounds  bottomLeftOrigin="true" height="944.2" width="674.7" x="622.8" y="-1026.8"></sliceSourceBounds>
	</sfw>
</metadata>
<g id="RIP_x5F_BTC">
	<g id="Tombstone">
		<g>
			<polygon class="st0" points="842,922.2 622.8,795.6 1078.4,532.6 1297.5,659.2 			"/>
			<polygon class="st1" points="842,1026.8 622.8,900.2 622.8,795.6 842,922.2 			"/>
			<polygon class="st2" points="842,922.2 1297.5,659.2 1297.5,763.8 842,1026.8 			"/>
		</g>
		<path class="st1" d="M825.9,381.3l-84.3-48.7c13,192,10.4,290.3-20.3,481.3l84.3,48.7C836.3,671.6,838.9,573.3,825.9,381.3z"/>
		<polygon class="st3" points="1161.7,187.4 1077.4,138.8 1039.4,160.7 1123.7,209.4 		"/>
		<path class="st0" d="M1082.7,136.5l-84.3-48.7c-4.2-1.9-13.1-4.1-17.8-4.7c-20.7-2.5-44.2,4.7-62.5,13.9
			c-51.2,25.7-93.7,78-116.3,129.9c-8.7,20-16.1,44.5-19.8,66l-2.5,17.8l84.3,48.7c1.7-12.3,3.1-22.9,6-35.1
			c15.2-64.2,55.5-128.1,110.5-165.5c21-14.3,49.1-27.3,74.9-27.4c5.3,0,13.7,0.9,18.8,2.2L1082.7,136.5z"/>
		<polygon class="st3" points="863.9,359.4 779.6,310.7 741.6,332.6 825.9,381.3 		"/>
		<path class="st2" d="M825.9,381.3C838.6,564,837,670.6,805.6,862.6l376.6-217.4c-24.6-124.8-31.4-233.6-24.5-386.4l4-71.3l-38,22
			l-1.8-15.1c-24.5-141.1-237.4-27.6-258,165.1L825.9,381.3z"/>
		<g>
			<path class="st1" d="M1148.2,664.8c-6.2-50.8-11.1-112.9-14.2-154.2c-5.7-75.1-5.4-153.2-1.9-233.8l2.2-40.2l-10.7,6.2
				c-12.9,7.5-23.7,2.5-25.4-11.8l-1.7-14.8c-1.7-9.9-5.4-20.9-9.8-28.2c-11.6-19.3-32.2-26.1-55.6-21.8
				c-29.3,5.4-64.6,28.6-91.9,61.7c-19.2,23.3-34.4,51.5-42.6,80.3c-2.3,8.2-4.5,18.5-5.7,26.6l-1.7,16.8
				c-1.7,16.2-12.5,33.6-25.4,41.1l-10.4,6c4.7,76.5,7.5,154.2,3.5,235.9c-2.7,56.5-8.8,138.4-16.9,208l-8.7,5
				c2.4-20.3,4.6-41.6,6.5-63c4.9-52.4,8.5-105.5,10.4-145.6c2-40.7,2.3-80.3,1.5-119.1c-0.8-38.7-2.7-77.2-5-115.5l-0.6-10.2
				l19.6-11.3c4.3-2.5,8.2-6.6,11.2-11.4c3-4.9,5.2-10.6,5.7-16.1l1.7-16.8l0.1-0.6c0.7-4.5,1.6-9.5,2.6-14.5
				c1-4.9,2.2-9.8,3.5-14.2c4.4-15.5,10.7-31,18.6-45.7c7.9-15,17.4-29.1,27.9-41.9c14.6-17.7,31.3-32.8,48.2-44.1
				c17.2-11.5,34.7-19.3,50.6-22.2c13-2.4,25.1-1.7,35.6,2.4c10.1,4,18.6,11,24.9,21.4c2.3,3.9,4.5,8.7,6.3,13.9
				c1.9,5.3,3.4,11.1,4.3,16.6l0.1,0.5l1.7,14.8c0.6,4.8,2.7,8.1,5.7,9.5c3,1.4,6.9,1,11.2-1.5l19.8-11.4l-2.8,51.1
				c-1.8,40.2-2.7,79.7-2.5,118.3c0.2,38.5,1.6,76.5,4.4,114.1c2.2,28.6,5.1,66.8,8.7,103.3c1.7,17.7,3.6,35.3,5.6,51.7
				L1148.2,664.8z"/>
			<path class="st4" d="M1148.2,664.8c-6.2-50.8-11.1-112.9-14.2-154.2c-5.7-75.1-5.4-153.2-1.9-233.8l2.1-38.1l1.9-1.1l-2.2,40.2
				c-3.6,80.5-3.8,158.7,1.9,233.8c3.1,40.8,7.9,101.9,13.9,152.3L1148.2,664.8L1148.2,664.8z M833.5,846.5
				c2.3-19.6,4.4-40.2,6.3-60.8c4.9-52.4,8.5-105.5,10.4-145.6c2-40.7,2.3-80.3,1.5-119.1c-0.8-38.7-2.7-77.2-5-115.5l-0.6-10.2
				l19.6-11.3c4.3-2.5,8.2-6.6,11.2-11.4c3-4.9,5.2-10.6,5.7-16.1l1.7-16.8l0.1-0.6c0.7-4.5,1.6-9.5,2.6-14.5
				c1-4.9,2.2-9.8,3.5-14.2c4.4-15.5,10.7-31,18.6-45.7c7.9-15,17.4-29.1,27.9-41.9c14.6-17.7,31.3-32.8,48.2-44.1
				c17.2-11.5,34.7-19.3,50.6-22.2c13-2.4,25.1-1.7,35.6,2.4c2,0.8,3.9,1.7,5.8,2.7c-2.4-1.5-4.9-2.7-7.6-3.7
				c-10.5-4.1-22.6-4.9-35.6-2.4c-15.9,2.9-33.4,10.7-50.6,22.2c-16.9,11.4-33.6,26.4-48.2,44.1c-10.5,12.8-20,26.9-27.9,41.9
				c-7.8,14.7-14.1,30.2-18.6,45.7c-1.3,4.4-2.5,9.3-3.5,14.2c-1,4.9-2,9.9-2.6,14.5l-0.1,0.6l-1.7,16.8c-0.6,5.5-2.7,11.2-5.7,16.1
				c-3,4.8-6.9,8.9-11.2,11.4l-19.6,11.3l0.6,10.2c2.4,38.4,4.2,76.9,5,115.5c0.8,38.9,0.5,78.5-1.5,119.1
				c-2,40.1-5.6,93.2-10.4,145.6c-2,21.4-4.2,42.8-6.5,63L833.5,846.5L833.5,846.5z M1106.7,245c-4.5-2.1-7.6-6.9-8.4-14l-1.7-14.8
				c-1.7-9.9-5.4-20.9-9.8-28.2c-4.2-6.9-9.5-12.3-15.7-16c6.9,3.8,12.9,9.5,17.5,17.1c4.4,7.2,8.1,18.2,9.8,28.2l1.7,14.8
				C1100.8,238.1,1103.2,242.5,1106.7,245L1106.7,245z M1112.8,234.4c2.9,1.2,6.7,0.8,10.9-1.6l19.8-11.4l-0.1,2.1l-17.9,10.4
				c-4.3,2.5-8.2,2.9-11.2,1.5C1113.8,235.1,1113.3,234.8,1112.8,234.4z"/>
			<path class="st5" d="M1132.5,237.6l-8.8,5.1c-7.5,4.3-14.2,4.5-18.9,1.1c4.6,2.3,10.6,1.7,17.2-2.1l10.7-6.2L1132.5,237.6
				L1132.5,237.6z M840.1,842.6c8.1-69.7,14.1-151.5,16.9-208c4-81.7,1.2-159.4-3.5-235.9l10.4-6c12.9-7.5,23.7-24.9,25.4-41.1
				l1.7-16.8c1.2-8.1,3.3-18.4,5.7-26.6c8.2-28.8,23.4-57,42.6-80.3c27.3-33.1,62.6-56.3,91.9-61.7c14.6-2.7,28-1.1,38.9,5.2
				c-11.2-7.1-25.3-9.1-40.6-6.2c-29.3,5.4-64.6,28.6-91.9,61.7c-19.2,23.3-34.4,51.5-42.6,80.3c-2.3,8.2-4.5,18.5-5.7,26.6
				l-1.7,16.8c-1.7,16.2-12.5,33.6-25.4,41.1l-10.4,6c4.7,76.5,7.5,154.2,3.5,235.9c-2.8,57.1-8.9,140.1-17.1,210.2L840.1,842.6
				L840.1,842.6z M1156.8,659.8c-2-16.4-3.9-34-5.6-51.7c-3.5-36.5-6.5-74.7-8.7-103.3c-2.8-37.6-4.2-75.6-4.4-114.1
				c-0.2-38.6,0.7-78.1,2.5-118.3l2.8-51.1l-1.8,1.1l-2.7,49c-1.8,40.2-2.7,79.7-2.5,118.3c0.2,38.5,1.6,76.5,4.4,114.1
				c2.2,28.6,5.1,66.8,8.7,103.3c1.8,18.4,3.7,36.7,5.8,53.6L1156.8,659.8L1156.8,659.8z M1076.2,160.9c7.2,4.2,13.4,10.2,18.2,18.2
				c2.3,3.9,4.5,8.7,6.3,13.9c1.9,5.3,3.4,11.1,4.3,16.6l0.1,0.5l1.7,14.8c0.5,3.9,1.9,6.8,4.1,8.5l-0.1,0c-3-1.4-5.1-4.7-5.7-9.5
				l-1.7-14.8l-0.1-0.5c-1-5.5-2.5-11.2-4.3-16.6c-1.8-5.2-4-10-6.3-13.9C1088.2,170.7,1082.6,165,1076.2,160.9z"/>
			<g>
				<polygon class="st1" points="1009.7,349.3 1010.5,348.7 981.6,367.6 980.2,362.8 984.1,363.6 989.3,356.3 993.5,345.8 
					993.8,295.4 988.8,291.5 988.3,289.3 984.1,291.7 981.4,291.4 981.6,286.3 1010.5,272.5 1011.7,275.3 1008.1,273.9 
					1003.2,282.1 1001.8,290.8 1003.2,340.2 1003.9,346.5 1003.8,349.7 1008.6,346.9 				"/>
				<path class="st4" d="M1010.5,348.7L1010.5,348.7L1010.5,348.7L1010.5,348.7L1010.5,348.7z M982.6,367l-0.9,0.6l-1.4-4.8l3.9,0.8
					l5.2-7.3l4.2-10.5l0.3-50.4l-5-4l-0.3-1.3l1-0.6l0.5,2.2l5,4l-0.3,50.4l-4.2,10.5l-5.2,7.3l-3.9-0.8L982.6,367L982.6,367z
					 M982.6,291.5l0.1-4.9l24.7-11.8l0.6-1l0.8,0.3l1.9-0.9l-0.3-0.8l-28.9,13.8l-0.2,5.1L982.6,291.5L982.6,291.5z M1011.6,275.2
					l0.1,0.1l-2.5-1l0.1-0.1L1011.6,275.2L1011.6,275.2z M1005,349l3.6-2.1l0.4,0.8l-4,2.4L1005,349z"/>
				<path class="st5" d="M1009.7,349.3l0.8-0.6l-28.8,18.9l-0.4-1.2l27.9-18.3l-0.6-1.3l-0.4,0.3l0.6,1.3l0.4-0.3L1009.7,349.3
					L1009.7,349.3z M992.8,294.7l-4.1-3.2l0-0.1L992.8,294.7L992.8,294.7L992.8,294.7z M987.6,289.7l-3.5,2l-2.7-0.2l0-0.7l1.7,0.2
					l4.2-2.4L987.6,289.7L987.6,289.7z M1006.3,274.5l-4,6.8l-1.4,8.7l1.5,49.4l0.7,6.3l-0.1,3.2l1-0.6l0.1-1.9l-0.7-6.3l-1.5-49.4
					l1.4-8.7l4.9-8.3l3.6,1.4l-1.2-2.8l-0.5,0.2l0.7,1.8l-2.4-1L1006.3,274.5z"/>
				<path class="st1" d="M1036.7,297.7l0.5,22.4l3.1,6.5l4.9-2.3l2.2,2.2l0.5,2.5l-28.7,12.8l1.3,1.8l1.1-5.3l5.4-4.4l-0.2-7.8
					l1.4-51l-2.5-5.9l-4.1-2.2l-3.6,4.3l1.2-2.9l24.5-17.4l14.5-5.7l10.3,0.5l4.3,11.3l-7.7,20.2l-15.6,16.5l-5.5,3.7l-5.7-1.6
					L1036.7,297.7L1036.7,297.7z M1036.7,294.5l5.9-1.7l3.5-4l7-9.3l6.2-13.6l-3.5-6.8l-3-7.4l-8.5,2.1l-4.4,6.7L1036.7,294.5z"/>
				<path class="st4" d="M1041.1,326.2l4-1.9l0.6,0.6l-4.3,2L1041.1,326.2L1041.1,326.2z M1022.3,340.4l-3.2,1.4l1.3,1.8l0.2-1
					l-0.3-0.4l0.4-0.2l0.7-3.6l5.4-4.4l-0.2-7.8l1.4-51l-2.5-5.9l-3.1-1.7l0.2-0.2l4.1,2.2l2.5,5.9l-1.4,51l0.2,7.8l-5.4,4.4
					L1022.3,340.4L1022.3,340.4z M1022.1,267.4l22.6-16l14.5-5.7l9.2,0.5l-0.1-0.3l-10.3-0.5l-14.5,5.7l-24.5,17.4l-1.2,2.9l3.6-4.3
					L1022.1,267.4L1022.1,267.4z M1038,294.2l4.6-1.3l3.5-4l7-9.3l6.2-13.6l-3.5-6.8l-2.7-6.8l1-0.2l3,7.4l3.5,6.8l-6.2,13.5l-7,9.3
					l-3.5,4l-5.9,1.7L1038,294.2z"/>
				<path class="st5" d="M1036.7,297.7l0.5,22.4l2.6,5.5l-0.5,0.2l-3-6.5l-0.5-22.4l1.5-1.8l5.7,1.6l5.5-3.7l15.6-16.5l7.7-20.2
					l-4-10.5l0.6,0l4.3,11.3l-7.7,20.2l-15.6,16.5l-5.5,3.7l-5.7-1.6L1036.7,297.7L1036.7,297.7z M1045,324.3l1.3,1.4l0.5,2.5
					l-25.7,11.5l-0.8,4l-0.9-1.2l0.2-0.9l28.1-12.6l-0.5-2.5l-2.2-2.2L1045,324.3L1045,324.3z M1024.8,268.8l-3.4-1.8l-3.6,4.3
					l1.2-2.9l2.4-1.7l3.2,1.7L1024.8,268.8L1024.8,268.8z M1052.4,251.9l-0.4-0.9l-8.5,2.1l-4.4,6.7l-3.4,34l1-0.3l3.3-32.9l4.4-6.7
					L1052.4,251.9z"/>
				<path class="st1" d="M973.9,368.3l-17.3,10.8l-24.2-20.7l-3.2,4l-1.3-2.8l-0.4,0.9l-3.2,24.4l1.7,9.9l7.5-6l3.1-0.2l-0.4,5.4
					l-29,15.1l-1.2-4l3.8,0.2l4.4-7.4l4.1-9.6l-2.8-48.6l-0.7-8l-5.1,2.4l-4,2l1.4-5.7l24.5-15.6l16.5-8.5l7.3,5.7l3.6,8.8
					l-1.5,15.3l-12.4,11.6l10.3,18.5l10.5,1.3l8.6-2.5L973.9,368.3L973.9,368.3z M925,358.2l3-0.8l1.1-2.8l12.7-13.1l7.1-14.2
					l-5.4-7.8l-9.5-2.5L924,326L925,358.2z"/>
				<path class="st4" d="M957,378.8l-0.5,0.3l-23.3-20l0.3-0.4L957,378.8L957,378.8z M929.8,361.5l-0.6,0.8l-0.6-1.3l0-0.3l0.4-0.9
					L929.8,361.5L929.8,361.5z M926.9,394l6.5-5.2l3.1-0.2l0,0.4l-1.9,0.1l-7.5,6L926.9,394L926.9,394z M908.1,408.5l-0.9,0.5
					l-1.2-4l3.8,0.2l4.4-7.4l4.1-9.6l-2.8-48.6l-0.6-7.1l1.1-0.5l0.7,8l2.8,48.6l-4.1,9.6l-4.4,7.4l-3.8-0.2L908.1,408.5
					L908.1,408.5z M907.2,335.4l1.2-4.6l24.5-15.6l16.1-8.3l-0.7-0.6l-16.5,8.5l-24.5,15.6l-1.4,5.7L907.2,335.4L907.2,335.4z
					 M956.4,366.5l0.1,0.2l10.5,1.3l7.2-2.1l0.1-0.7l-8.6,2.5L956.4,366.5L956.4,366.5z M926.2,358l1.8-0.5l1.1-2.8l12.7-13.1
					l7.1-14.2l-5.3-7.8l1.2,0.3l5.4,7.8l-7.1,14.2L930.3,355l-1.1,2.8l-3,0.8L926.2,358z"/>
				<path class="st5" d="M973.9,368.3l-17.3,10.8l-0.9-0.8l17.3-10.8l0.4-2l1.2-0.3L973.9,368.3L973.9,368.3z M932.4,358.3l-3.2,4
					l-0.6-1.2l2.8-3.6L932.4,358.3L932.4,358.3z M927.6,360.1l-0.1,0.3l-3.2,24.4l1.5,8.6L925,394l-1.7-9.9l3.2-24.4l0.4-0.9
					L927.6,360.1L927.6,360.1z M935.5,388.6l-0.3,4.5l-28.4,14.8l0.3,1.1l29-15.1l0.4-5.4L935.5,388.6L935.5,388.6z M914,332.1
					l-4.2,2l-4,2l0.4-1.4l2.7-1.4l5.1-2.4L914,332.1L914,332.1z M954.5,311.3l3.6,8.7l-1.5,15.3L944.2,347l10.3,18.5l0.5,0.1
					l-9.9-17.8l12.4-11.6l1.5-15.3l-3.6-8.8L954.5,311.3L954.5,311.3z M943.1,319.4l-9.1-2.3L924,326l1,31.2l-0.9,0.2l-1-32.2
					l10.1-8.9l9.5,2.5L943.1,319.4z"/>
			</g>
		</g>
	</g>
	<g id="Bitcoin">
		<path class="st6" d="M1066.9,402.8l-15.7-9c-1.3-0.6-6.4-2-8-2.3c-25.9-5.3-53.8,8.4-73.9,23.6c-48.6,36.6-88.1,108.1-88.1,169.4
			c0,21,5,44.7,20.6,59.9l3.1,2.8l15.7,9c-2.2-1.9-4-3.5-6-5.8c-17.5-19.8-19.6-50.8-16.5-75.8c7.4-60.4,49.6-130.4,102.7-161
			c18.2-10.5,41.2-18.1,62.2-12.1L1066.9,402.8z"/>
		<ellipse transform="matrix(0.5 -0.866 0.866 0.5 38.3605 1133.4902)" class="st7" cx="1000.8" cy="533.5" rx="146.9" ry="84.8"/>
		<ellipse transform="matrix(0.5 -0.866 0.866 0.5 38.3607 1133.4906)" class="st8" cx="1000.8" cy="533.5" rx="131.5" ry="75.9"/>
		<path class="st6" d="M907.8,587.2c0,59.3,41.6,83.3,93,53.7c51.4-29.6,93-101.8,93-161c0-2.4-0.1-4.7-0.2-6.9
			c-3.1,57.8-43.5,125.4-92.8,153.9c-49.3,28.5-89.6,7.4-92.8-46.8C907.9,582.5,907.8,584.8,907.8,587.2z"/>
		<g>
			<polygon class="st6" points="977,506.6 962.7,498.4 966.5,496.2 980.8,504.5 			"/>
			<polygon class="st7" points="980.8,504.5 966.5,496.2 966.5,478.8 980.8,487 			"/>
			<polygon class="st7" points="1008.8,488.3 994.5,480 994.5,462.6 1008.8,470.9 			"/>
			<polygon class="st6" points="999.5,493.6 985.2,485.4 994.5,480 1008.8,488.3 			"/>
			<polygon class="st6" points="980.8,487 966.5,478.8 985.2,468 999.5,476.2 			"/>
			<polygon class="st6" points="1008.8,470.9 994.5,462.6 1013.2,451.8 1027.5,460.1 			"/>
			<path class="st6" d="M1027.5,477.5l-14.3-8.3c4.4-2.5,9.8-5.4,14.4-7.3l14.3,8.3C1037.2,472.2,1031.9,475.1,1027.5,477.5z"/>
			<path class="st6" d="M1041.9,470.2l-14.3-8.3c4.9-2,11.5-3.6,16.5-1.1l14.3,8.3C1052.9,466.7,1047.2,468.1,1041.9,470.2z"/>
			<path class="st6" d="M1050,515.1l-14.3-8.3c4.5-1.3,10.3-2.2,14.7,0.1l14.3,8.3C1060,512.9,1054.8,513.7,1050,515.1z"/>
			<polygon class="st7" points="1008.8,614.1 994.5,605.8 994.5,588.3 1008.8,596.6 			"/>
			<polygon class="st7" points="980.8,630.2 966.5,622 966.5,604.5 980.8,612.7 			"/>
			<polygon class="st7" points="964.7,622 950.4,613.7 950.4,595.7 964.7,604 			"/>
			<polygon class="st6" points="964.7,604 950.4,595.7 962.7,588.6 977,596.9 			"/>
			<polygon class="st7" points="977,596.9 962.7,588.6 962.7,516.4 977,524.7 			"/>
			<polygon class="st7" points="964.7,531.8 950.4,523.5 950.4,505.5 964.7,513.7 			"/>
			<polygon class="st6" points="964.7,513.7 950.4,505.5 962.7,498.4 977,506.6 			"/>
			<path class="st6" d="M999.8,536.4l-14.3-8.3c9.3-5.4,20-11.3,29-17c7.4-4.6,15.2-12.1,14.8-21.6c-0.1-2.4-0.7-4.7-3-5.9l15.3,8.9
				c3.2,2.7,1.9,9.3,0.6,12.6c-2.7,6.6-8.3,11.1-14.1,14.7C1019,525.5,1009,531.1,999.8,536.4z"/>
			<path class="st6" d="M999.8,583.5l-14.3-8.3c9.2-5.3,19.1-10.9,28.4-16.5c2.4-1.5,6-3.6,8.2-5.3l14.3,8.3
				c-3.5,2.7-11.6,7.4-15.6,9.6L999.8,583.5z"/>
			<path class="st6" d="M1036.4,561.7l-14.3-8.3c3.4-2.6,6-5.4,8.2-9.1l14.3,8.3C1042.4,556.3,1039.8,559,1036.4,561.7z"/>
			<path class="st6" d="M1044.6,552.6l-14.3-8.3c2.5-4.2,4.1-10,2.7-14.8c-0.5-1.6-1.2-2.7-2.6-3.6l14.9,8.7
				c3.9,3.2,2.4,11.3,0.5,15.6L1044.6,552.6z"/>
			<path class="st9" d="M977,506.6l3.8-2.2V487l18.7-10.8v17.4l9.3-5.4v-17.4l18.7-10.8v17.5c6.2-3.5,11-5.9,14.4-7.3
				c8.8-3.6,15.8-3.1,20.4,1.7c2.3,2.4,3.5,6,3.5,10.7c0,10.2-6.1,22.7-15.8,32.5c6.8-2,12.1-1.7,15.8,0.8c6.9,4.8,7,16.8,1.9,29.6
				c-5,12.6-13.5,22.9-25,30.8c-2.6,1.7-7.6,4.9-15.2,9.4v17.7l-18.7,10.8v-17.5l-9.3,5.4v17.5l-18.7,10.8v-17.5l-16,9.3v-18
				l12.3-7.1v-72.2l-12.3,7.1v-18L977,506.6L977,506.6z M1004.1,509l-4.4,2.5v24.9c7.6-4.4,26.9-15.4,31.3-18.5
				c7.4-5.1,12.5-12.2,12.5-19.5c0-6.9-4.1-8.7-11.4-5.3C1028.6,494.8,1012.7,504,1004.1,509L1004.1,509L1004.1,509z M999.8,554.4
				v29l21-12.1c8.2-4.7,13.4-7.9,15.6-9.6c3.4-2.6,6.1-5.6,8.2-9.1c2.1-3.5,3.2-7.2,3.2-11.1c0-6.4-3.3-9.3-9.6-7.7
				c-3.1,0.7-9.8,4.1-20.1,10.1L999.8,554.4z"/>
		</g>
	</g>
</g>
</svg>
