<?xml version="1.0" encoding="utf-8"?>
<!-- Generator: Adobe Illustrator 25.3.1, SVG Export Plug-In . SVG Version: 6.00 Build 0)  -->
<svg version="1.1" id="group" xmlns="http://www.w3.org/2000/svg" xmlns:xlink="http://www.w3.org/1999/xlink" x="0px" y="0px"
	 viewBox="0 0 768 315.29" enable-background="new 0 0 768 315.29" xml:space="preserve">
<linearGradient id="bg_1_" gradientUnits="userSpaceOnUse" x1="654.8218" y1="428.4655" x2="113.1781" y2="-113.1781">
	<stop  offset="0" style="stop-color:#E6E7E8"/>
	<stop  offset="0.553" style="stop-color:#FFFFFF"/>
	<stop  offset="1" style="stop-color:#E6E7E8"/>
</linearGradient>
<rect id="bg" fill="url(#bg_1_)" width="768" height="315.29"/>
<g id="floorplan">
	<polygon fill="#00A79D" points="482.59,168.44 378.8,228.37 275,168.44 378.79,108.52 	"/>
	<g>
		<path fill="#DEE5E9" d="M281.18,168.44l97.61,56.36l63.54-36.69l34.07-19.67l-3.39-1.96l-0.42-0.24l-3.39-1.95l-90.42-52.2
			L281.18,168.44z M475.56,168.44l-33.23,19.18l-2.96-1.71l15.4-8.89l17.82-10.29L475.56,168.44z M438.95,185.67l-2.96-1.71
			l15.4-8.89l2.96,1.71L438.95,185.67z M454.77,176.54l-2.96-1.71l17.4-10.05l2.96,1.71L454.77,176.54z M450.96,174.83l-15.82,9.14
			l3.39,1.96l3.39,1.96l-63.12,36.44l-96.77-55.87l96.77-55.87l89.99,51.96L450.96,174.83z"/>
		<g>
			<path fill="#DEE5E9" d="M364.09,143.1l-6.21-3.59l-27.24,15.73l6.21,3.59l-22.49,12.98l39.79,22.97l22.49-12.98l6.52,3.77
				l0.53-0.31l6.01,3.47l2.91-1.68l5.24,3.02l6.52-3.76l-5.24-3.02l17.12-9.88l-6.01-3.47l0.16-0.09l-6.52-3.77l22.49-12.98
				l-39.79-22.97L364.09,143.1z M371.54,138.79l7.1-4.1l1.27,0.73l-7.1,4.1L371.54,138.79z M327.15,164.43l7.1-4.1l1.27,0.73
				l-7.1,4.1L327.15,164.43z M318,169.71l7.1-4.1l1.27,0.73l-7.1,4.1L318,169.71z M316.91,171.81l21.22-12.25l1.97,1.14l1.27-0.73
				l-8.18-4.73l3.45-1.99l-1.27-0.73l4.35-2.51l1.27,0.73l8.51-4.91l-1.27-0.73l4.35-2.51l1.27,0.73l4.03-2.33l27.83,16.07l-7,4.04
				l-4.58-2.64l0,0l-0.11-0.06c-2.25,1.3-2.55,3.31-0.88,4.8c-2.57-0.96-6.05-0.79-8.31,0.51l0.11,0.06l0,0l4.58,2.65l-8.71,5.03
				l-9.53-5.5l-0.85,0.49l9.53,5.5l-2,1.16l-4.58-2.64l0,0l-0.11-0.06c-2.59,1.49-2.59,3.92-0.01,5.42l-14.72,8.5L316.91,171.81z
				 M349.93,190.88l-1.27,0.73l-7.1-4.1l1.27-0.73L349.93,190.88z M331.44,180.2l-1.27,0.73l-7.1-4.1l1.27-0.73L331.44,180.2z
				 M375.36,181.06l-8.59,4.96l-6.07-3.5l2.2-1.27l-0.74-0.43l0.11-0.06c-2.33-1.35-2.47-3.49-0.4-4.93l4.47,2.58l0.08-0.05
				l0.74,0.43l2.13-1.23L375.36,181.06z M403.94,186.3l-6.1,3.52l-1.51-0.87l3.02-1.74l1.13,0.66l0.21-0.12l-1.13-0.66l2.86-1.65
				L403.94,186.3z M396.12,188.83l-1.45-0.84l3.03-1.75l1.45,0.84L396.12,188.83z M402.21,185.3l-2.86,1.65l-1.45-0.84l2.86-1.65
				L402.21,185.3z M400.55,184.34l-2.85,1.65l-1.05-0.61h0.68v-0.17h-1.19v0.73h0.3l0-0.43l1.05,0.61l-3.03,1.75l-1.63-0.94
				l6.1-3.52L400.55,184.34z M418.24,157.77l-7.1,4.1l-1.27-0.73l7.1-4.1L418.24,157.77z M423.82,153.09l-21.22,12.25l-7.34-4.24
				l0.71-0.41l4.52,2.61l0,0l0.11,0.06c2.59-1.5,2.59-3.93,0-5.43l-0.21,0.12c2.33,1.35,2.46,3.49,0.4,4.93l-4.47-2.58l-0.42,0.24
				l-0.77-0.44l-1.96,1.13l0.19,0.11l-0.03,0.02l1.4,0.81l-11.92,6.88l-0.32-0.18l-4.97,2.87l0.85,0.49l4.12-2.38l12.59,7.27
				l-3.76,2.17l1.27,0.73l17.43-10.06l5.79,3.35l-16.91,9.76l-6.52,3.77l-2.7,1.56l-5.79-3.35l3.73-2.16l4.57,2.64l0,0l0.11,0.06
				c2.59-1.5,2.59-3.93,0-5.43l-0.21,0.12c2.33,1.35,2.46,3.49,0.4,4.93l-4.47-2.58l-0.42,0.24l-1.25-0.72l-3.21,1.85l-12.59-7.27
				l2.92-1.68l-0.85-0.49l-5.98,3.45l-4.49-2.59l0,0l-0.11-0.06c-2.56,1.48-2.59,3.86-0.1,5.37l-2.1,1.21l-1.62-0.94l-0.85,0.49
				l8.54,4.93l-11.78,6.8l-14.78-8.53l11.85-6.84l1.77,1.02l0.85-0.49l-1.77-1.02l2.13-1.23l-0.83-0.48l0.11-0.06
				c-2.33-1.35-2.46-3.49-0.4-4.93l4.47,2.58l0.21-0.12l0.83,0.48l11.99-6.92l-0.83-0.48l0.21-0.12l-4.47-2.58
				c2.49-1.19,6.2-1.12,8.54,0.23l0.21-0.12c-2.33-1.35-2.46-3.49-0.4-4.93l4.47,2.58l0.23-0.13l0.83,0.48l9.63-5.56l-0.83-0.48
				l0.42-0.24l-4.47-2.58c2.49-1.19,6.2-1.12,8.53,0.23l0.11-0.06l0.83,0.48l0.77-0.44l6.59,3.8l-1.03,0.6l0.85,0.49l1.88-1.09
				l-7.44-4.29l13.84-7.99L423.82,153.09z M396.99,166.85l1.42,0.82l-2.9,1.68l-1.41-0.82L396.99,166.85z M393.88,168.4l-1.41-0.82
				l2.89-1.67l1.42,0.82L393.88,168.4z M398.62,167.79l1.42,0.82l-2.91,1.68l-1.41-0.82L398.62,167.79z M400.25,168.73l1.6,0.92
				l-0.75,0.43l-3.58,0.22L400.25,168.73z M400.77,170.28l-1.83,1.06l-1.47-0.85L400.77,170.28z M401.24,170.25l6.59-0.41
				l-5.75,3.32l-2.93-1.71L401.24,170.25z M401.58,170.06l0.7-0.4l-1.81-1.05l2.63-1.52l4.5,2.6L401.58,170.06z M400.25,168.49
				l-1.42-0.82l2.63-1.52l1.42,0.82L400.25,168.49z M398.62,167.54l-1.42-0.82l2.63-1.52l1.42,0.82L398.62,167.54z M396.99,166.6
				l-1.42-0.82l2.63-1.52l1.42,0.82L396.99,166.6z M395.36,165.66l-0.74-0.43l-0.21,0.12l0.74,0.43l-2.89,1.67l-1.41-0.82l5.73-3.31
				l1.42,0.82L395.36,165.66z M390.63,166.51l-1.41-0.82l5.72-3.3l1.42,0.82L390.63,166.51z M388.25,168.99l0-0.41l1.03,0.6
				l-3.22,1.86l-1.42-0.82l3.3-1.91l0,0.69H388.25z M389.5,169.29l1.42,0.82l-3.22,1.86l-1.42-0.82L389.5,169.29z M391.13,170.23
				l1.42,0.82l-3.22,1.86l-1.42-0.82L391.13,170.23z M392.76,171.18l1.42,0.82l-3.22,1.86l-1.42-0.82L392.76,171.18z M394.39,172.12
				l1.81,1.05l0.29-0.17l-0.68,3.66l-4.64-2.68L394.39,172.12z M396.2,172.92l-1.6-0.92l2.32-1.34l-0.38,2.07L396.2,172.92z
				 M396.83,172.8l2.11-1.22l2.93,1.71l-5.75,3.32L396.83,172.8z M396.88,172.53l0.36-1.94l1.49,0.87L396.88,172.53z M394.39,171.87
				l-1.42-0.82l2.54-1.46l1.41,0.82L394.39,171.87z M392.76,170.93l-1.42-0.82l2.54-1.47l1.41,0.82L392.76,170.93z M391.13,169.99
				l-1.42-0.82l2.55-1.47l1.41,0.82L391.13,169.99z M389.5,169.05l-1.07-0.62h0.71l0-0.17h-1.12l2.61-1.51l1.41,0.82L389.5,169.05z
				 M384.44,170.09l-1.42-0.82l5.99-3.46l1.41,0.82L384.44,170.09z M408.19,144.06l-15.35,8.86c-2.59-1.49-6.8-1.48-9.39,0.01
				l0.11,0.06l0,0l4.58,2.64l-1.16,0.67l-21.61-12.48l21.22-12.25L408.19,144.06z M420.87,149.92l-1.27,0.73l-7.1-4.1l1.27-0.73
				L420.87,149.92z M401.82,138.91l-1.27,0.73l-7.1-4.1l1.27-0.73L401.82,138.91z"/>
			<g>
				<polygon fill="#DEE5E9" points="349.5,145.76 348.33,145.09 352.58,142.64 353.74,143.31 				"/>
				<polygon fill="#DEE5E9" points="336.63,153.19 335.47,152.51 339.72,150.06 340.88,150.73 				"/>
				<polygon fill="#DEE5E9" points="328.42,165.1 327.25,164.43 334.25,160.39 335.41,161.06 				"/>
				<polygon fill="#DEE5E9" points="319.27,170.38 318.11,169.71 325.1,165.67 326.26,166.34 				"/>
				<polygon fill="#DEE5E9" points="330.17,180.87 323.18,176.84 324.35,176.16 331.34,180.2 				"/>
				<polygon fill="#DEE5E9" points="348.66,191.55 341.67,187.51 342.83,186.84 349.82,190.88 				"/>
				<polygon fill="#DEE5E9" points="419.6,150.59 412.61,146.55 413.77,145.88 420.76,149.92 				"/>
				<polygon fill="#DEE5E9" points="400.55,139.59 393.55,135.55 394.72,134.88 401.71,138.91 				"/>
				<polygon fill="#DEE5E9" points="372.81,139.47 371.65,138.79 378.64,134.76 379.81,135.43 				"/>
				<polygon fill="#DEE5E9" points="411.15,161.81 409.98,161.14 416.97,157.1 418.14,157.77 				"/>
				<g>
					<path fill="#DEE5E9" d="M349.5,145.82l4.35-2.51l-1.27-0.73l-4.35,2.51L349.5,145.82z M352.58,142.7l1.06,0.61l-4.14,2.39
						l-0.42-0.24l4.13-2.38l-0.21-0.12l-4.13,2.38l-0.42-0.24L352.58,142.7z"/>
					<path fill="#DEE5E9" d="M336.63,153.25l4.35-2.51l-1.27-0.73l-4.35,2.51L336.63,153.25z M339.71,150.12l1.06,0.61l-4.14,2.39
						l-0.42-0.24l4.13-2.38l-0.21-0.12l-4.13,2.38l-0.42-0.24L339.71,150.12z"/>
					<path fill="#DEE5E9" d="M328.42,165.16l7.1-4.1l-1.27-0.73l-7.1,4.1L328.42,165.16z M328.42,165.04l-0.42-0.24l6.89-3.98
						l0.42,0.24L328.42,165.04z M334.25,160.45l0.42,0.24l-6.89,3.98l-0.42-0.25L334.25,160.45z"/>
					<path fill="#DEE5E9" d="M319.27,170.44l7.1-4.1l-1.27-0.73l-7.1,4.1L319.27,170.44z M319.27,170.32l-0.42-0.25l6.89-3.97
						l0.42,0.24L319.27,170.32z M325.1,165.73l0.42,0.25l-6.89,3.97l-0.42-0.25L325.1,165.73z"/>
					<path fill="#DEE5E9" d="M330.17,180.94l1.27-0.73l-7.1-4.1l-1.27,0.73L330.17,180.94z M331.23,180.2l-0.42,0.24l-6.89-3.97
						l0.42-0.25L331.23,180.2z M323.29,176.84l0.42-0.24l6.89,3.97l-0.42,0.25L323.29,176.84z"/>
					<path fill="#DEE5E9" d="M348.66,191.61l1.27-0.73l-7.1-4.1l-1.27,0.73L348.66,191.61z M349.72,190.88l-0.42,0.24l-6.89-3.98
						l0.42-0.24L349.72,190.88z M341.77,187.51l0.42-0.24l6.88,3.97l-0.42,0.24L341.77,187.51z"/>
					<path fill="#DEE5E9" d="M419.6,150.65l1.27-0.73l-7.1-4.1l-1.27,0.73L419.6,150.65z M420.66,149.92l-0.42,0.24l-6.89-3.98
						l0.42-0.24L420.66,149.92z M412.71,146.55l0.42-0.24l6.89,3.98l-0.42,0.24L412.71,146.55z"/>
					<path fill="#DEE5E9" d="M393.45,135.55l7.1,4.1l1.27-0.73l-7.1-4.1L393.45,135.55z M393.66,135.55l0.42-0.24l6.89,3.98
						l-0.42,0.24L393.66,135.55z M401.6,138.91l-0.42,0.24l-6.89-3.98l0.42-0.24L401.6,138.91z"/>
					<path fill="#DEE5E9" d="M372.81,139.53l7.1-4.1l-1.27-0.73l-7.1,4.1L372.81,139.53z M372.81,139.41l-0.42-0.24l6.89-3.98
						l0.42,0.24L372.81,139.41z M378.64,134.82l0.42,0.24l-6.89,3.97l-0.42-0.24L378.64,134.82z"/>
					<path fill="#DEE5E9" d="M411.15,161.87l7.1-4.1l-1.27-0.73l-7.1,4.1L411.15,161.87z M411.15,161.75l-0.42-0.24l6.89-3.98
						l0.42,0.24L411.15,161.75z M416.97,157.16l0.42,0.24l-6.88,3.98l-0.42-0.24L416.97,157.16z"/>
				</g>
			</g>
			<g>
				<path fill="#DEE5E9" d="M393.68,126.12l-8.28,4.78l0.11,0.06l5.94-3.43l0.59,0.81l0.16-0.35l21.59,12.46l-0.61,0.17
					c0.41,0.02,0.93,0.11,1.34,0.21l-1.8,1.04l0.11,0.06l1.8-1.04l0.59,0.81l0.16-0.35l14.9,8.6l-0.61,0.17
					c0.41,0.02,0.93,0.11,1.34,0.21l-5.94,3.43l0.11,0.06l8.28-4.78l-0.11-0.06l-2.3,1.33c-0.18-0.23-0.34-0.54-0.37-0.77
					l-0.29,0.35l-14.9-8.6l0.6-0.09l-1.41-0.34l2.3-1.33l-0.11-0.06l-2.3,1.33c-0.18-0.23-0.34-0.54-0.37-0.77l-0.29,0.36
					l-21.59-12.46l0.6-0.09l-1.41-0.34l2.3-1.33L393.68,126.12z"/>
				<path fill="#DEE5E9" d="M447.08,165.85c-0.4,0.1-0.93,0.2-1.34,0.21l0.61,0.17l-20.54,11.86l-0.16-0.35l-0.59,0.82l-2.3-1.33
					l-0.11,0.06l4.63,2.68l0.11-0.06l-2.3-1.33l1.41-0.34l-0.6-0.09l20.54-11.86l0.29,0.36c0.03-0.24,0.19-0.54,0.37-0.77l5.63,3.25
					c-0.4,0.1-0.93,0.2-1.34,0.21l0.61,0.17l-69.83,40.32l-0.16-0.35l-0.51,0.7l-5.52-3.19l1.22-0.3l-0.6-0.09l11.73-6.77l0.29,0.35
					c0.03-0.23,0.19-0.54,0.37-0.77l2.3,1.33l0.11-0.06l-2.29-1.33l1.41-0.34l-0.6-0.09l8.07-4.66l0.29,0.35
					c0.03-0.24,0.19-0.54,0.37-0.77l2.3,1.33l0.11-0.06l-2.3-1.33l1.41-0.34l-0.6-0.09l11.15-6.44l0.29,0.35
					c0.03-0.25,0.21-0.58,0.4-0.81c-0.41,0.11-0.98,0.21-1.41,0.23l0.61,0.17l-11.15,6.44l-0.16-0.34l-0.59,0.81l-2.3-1.32
					l-0.11,0.06l2.3,1.33c-0.4,0.1-0.93,0.2-1.34,0.21l0.61,0.17l-8.07,4.66l-0.16-0.35l-0.59,0.82l-2.3-1.33l-0.11,0.06l2.3,1.33
					c-0.4,0.1-0.93,0.2-1.34,0.21l0.61,0.17l-11.73,6.77l-0.16-0.34l-0.51,0.7l-8.88-5.13l8.05-4.65l-0.11-0.06l-8.05,4.65
					l-2.07-1.2l-0.11,0.06l2.07,1.2l-4.87,2.81c-0.18-0.23-0.34-0.53-0.37-0.77l-0.29,0.35l-4.35-2.51l0.6-0.09l-1.41-0.34l3.5-2.02
					l-0.11-0.06l-5.89,3.4l0.11,0.06l2.35-1.35l0.59,0.82l0.16-0.35l4.35,2.51l-0.61,0.17c0.41,0.02,0.93,0.11,1.34,0.21l-4.16,2.4
					c-0.15-0.22-0.28-0.47-0.3-0.67l-0.29,0.35l-63.35-36.58l0.6-0.09l-1.41-0.34l4.21-2.43l0.59,0.81l0.16-0.35l5.45,3.14
					l-0.61,0.17c0.41,0.02,0.93,0.11,1.34,0.21l-2.35,1.36l0.11,0.06l2.35-1.35l0.59,0.81l0.16-0.34l4.14,2.39l-0.61,0.17
					c0.41,0.02,0.93,0.11,1.34,0.21l-2.35,1.36l0.11,0.06l2.35-1.35l0.59,0.81l0.16-0.35l38.06,21.98l-0.61,0.17
					c0.41,0.02,0.93,0.11,1.34,0.21l-2.35,1.36l0.11,0.06l8.28-4.78l-0.11-0.06l-5.89,3.4c-0.18-0.23-0.34-0.54-0.37-0.77
					l-0.29,0.35l-38.06-21.98l0.6-0.09l-1.41-0.34l5.89-3.4l-0.11-0.06l-5.89,3.4c-0.18-0.23-0.34-0.54-0.37-0.77l-0.29,0.35
					l-4.14-2.39l0.6-0.09l-1.41-0.34l3.5-2.02l-0.11-0.06l-3.5,2.02c-0.18-0.23-0.34-0.54-0.37-0.77l-0.29,0.35l-5.45-3.14l0.6-0.09
					l-1.41-0.34l13.03-7.52l-0.11-0.06l-19.06,11l0.11,0.06l1.73-1l0.59,0.81l0.16-0.34L357,206.76l-0.61,0.17
					c0.35,0.01,0.79,0.09,1.17,0.17l-1.68,0.97l0.11,0.06l1.73-1c0.03,0.01,0.06,0.01,0.09,0.02c-0.01-0.02-0.03-0.04-0.04-0.05
					l9.12-5.26l8.92,5.15l-0.05,0.07l0.12-0.03l5.61,3.24l-0.05,0.07l0.12-0.03l2.21,1.28l0.11-0.06l-2.17-1.25l1.22-0.3l-0.6-0.09
					l69.83-40.32l0.29,0.35c0.03-0.24,0.19-0.54,0.37-0.77l2.22,1.28l0.11-0.06l-19.06-11l-0.11,0.06L447.08,165.85z"/>
				<path fill="#DEE5E9" d="M411.76,186.29l1.41-0.34l-0.6-0.09l11.61-6.7l0.29,0.35c0.03-0.25,0.21-0.58,0.4-0.81
					c-0.41,0.11-0.98,0.22-1.41,0.23l0.61,0.17l-11.61,6.7l-0.16-0.34l-0.59,0.81l-2.3-1.33l-0.11,0.06l4.63,2.68l0.11-0.06
					L411.76,186.29z"/>
			</g>
		</g>
	</g>
</g>
<g id="builder">
	<g>
		<path fill="#D88F69" d="M383.28,67.66c0,0-0.28,1.38-0.28,2.01c0,0.63,3.49,5.84,6.19,5.42c2.7-0.43,3.28-4.24,3.28-4.24
			l-1.29-3.22L383.28,67.66z"/>
		<path fill="#F2A983" d="M370.96,118.48c0,0-0.33,2.59-0.31,3.35c0.02,0.76,1.32,2.79,1.82,3.59c0.5,0.8,1.49,1.23,2.01,1.51
			c0.52,0.28,2.62,0.92,2.81,0.66c0.19-0.26,0.21-0.76-0.12-0.97c-0.33-0.21-1.44-0.83-1.87-1.25c-0.43-0.43-1.13-2.72-0.83-3.33
			c0.31-0.61,0.57-1.18,1.3-0.52c0.73,0.66,1.77,3.07,2.51,3.03c0.73-0.05,0.61-1.35,0.31-1.94c-0.31-0.59-1.75-2.94-2.44-3.92
			c-0.69-0.98-3.22-2.67-3.22-2.67L370.96,118.48z"/>
		<path fill="#D88F69" d="M376.01,127.47c-0.06-0.06-0.13-0.12-0.23-0.18c-1.21-0.78-1.8-1.98-2.91-3.26
			c-1.11-1.28-0.99-0.99-1.66-1.06c-0.07-0.01-0.14-0.04-0.21-0.08c0.43,0.89,1.13,1.99,1.46,2.54c0.5,0.8,1.49,1.23,2.01,1.51
			C374.74,127.08,375.39,127.31,376.01,127.47z"/>
		<path fill="#F2A983" d="M425.33,79.96l0.56,0.2c0,0,0.63-0.73,1.13-0.66c0.5,0.07,1.27,0.66,1.27,0.66s2.1-0.04,2.94,0.38
			c0.84,0.41,1.68,0.73,1.81,1.29c0.13,0.56-0.2,1.34-0.2,1.34s0.88,0.41,0.79,1.27c-0.09,0.86-0.47,1.24-0.47,1.24
			s0.29,0.3,0.14,0.88c-0.14,0.57-1.27,1.9-1.27,1.9s-1.08,1.35-1.4,1.3c-0.79-0.13-0.44-0.92-0.44-0.92l0.48-0.8v-0.47
			c0,0-1.56-0.48-2.63-1.27c-1.07-0.79-1.52-1.72-1.7-1.92c-0.18-0.2-0.73-0.3-0.73-0.3l-2.49-0.18L425.33,79.96z"/>
		<path fill="#D88F69" d="M432.78,84.74c0.17-0.33,0.37-0.83,0.51-1.23c-0.22-0.23-0.45-0.34-0.45-0.34
			c-0.13,0.39-0.77,0.84-1.34,0.59c-0.57-0.25-0.3-1.11-0.3-1.33c0-0.22-0.3-0.47-1.04-0.73c-0.73-0.27-1.31-0.5-1.31-0.5
			s-0.09,0.59-1.02,0.82c-0.93,0.23-1.59-0.66-1.59-0.66s-0.21,0.95-0.56,1.18c-0.23,0.16-1.23,0.15-1.88,0.13l-0.69,1.21l2.49,0.18
			c0,0,0.56,0.11,0.73,0.3c0.18,0.2,0.63,1.13,1.7,1.92c1.07,0.79,2.63,1.27,2.63,1.27v0.47l-0.1,0.17c0.71-0.15,1.79-0.87,2.11-1.2
			c0.21-0.22,0.47-0.65,0.65-0.94c-0.05-0.24-0.16-0.37-0.16-0.37l-0.75,0.88c0,0-0.57,0.25-1.06,0.11
			c-0.48-0.14-0.11-0.7,0.11-0.95C431.67,85.46,432.46,85.35,432.78,84.74z"/>
		<polygon fill="#ECF3F7" points="425.89,79.93 425.14,84.62 422.66,84.22 424.56,79.33 		"/>
		<path fill="#192426" d="M424.56,84.78l1-5.19c0,0-3.92-1.67-5.7-2.72c-1.77-1.06-6.7-2.54-6.7-2.54s-6.77-2.6-7.5-3.12
			c-0.73-0.52-7.12-3.89-10.45-3.55l0.6,3.67l2.63,5.93c0,0,2.24,0.04,2.87,0.22c0.63,0.18,8.04,2.76,9.49,3.42
			C412.26,81.56,421,84.03,424.56,84.78z"/>
		<g>
			<path d="M392.25,162.18c1.67,0.97,2.79,2.72,6.13,4.41c1.94,0.98,6.63,1.76,6.45-0.39c-0.01-0.12-0.03-0.24-0.07-0.36
				c0.15,0.33,0.26,0.64,0.28,0.93c0.18,2.15-4.51,1.37-6.45,0.39c-3.34-1.69-4.47-3.44-6.13-4.41c-0.21-0.12-0.45-0.25-0.72-0.38
				l-0.18,0.44l-3.15-1.48c0,0-0.21-0.56-0.19-1.19C388.65,160.5,391.07,161.49,392.25,162.18z"/>
			<path fill="#313131" d="M394.78,157.98c0.83-0.17,0.03-1.97,3.46,1.61c0.26,0.18,0.53,0.34,0.81,0.46
				c1.93,0.87,5.61,4.17,5.78,6.15c0.18,2.15-4.51,1.37-6.45,0.39c-3.34-1.69-4.47-3.44-6.13-4.41c-1.27-0.73-3.97-1.83-4.09-2.12
				c-0.06-0.16-0.13-0.44-0.18-0.79C391.77,155.83,393.13,158.33,394.78,157.98z"/>
		</g>
		<g>
			<path fill="#313131" d="M391.46,163.71c0.14,0.26,0.28,0.48,0.38,0.61c0.63,0.81,5.21,6.65,2.58,8.01
				c-2.63,1.36-7.04-0.97-7.97-2.94c-0.93-1.97-0.77-3.3-1.95-4.48c-0.7-0.7-1.54-1.62-1.8-2.78c1.07-1.11,2.31-0.35,4.46-0.04
				C388.4,162.26,389.29,161.6,391.46,163.71z"/>
			<path d="M382.7,162.12c0.26,1.16,1.11,2.09,1.81,2.79c1.18,1.18,1.02,2.51,1.95,4.48c0.93,1.97,5.34,4.3,7.97,2.94
				c0.49-0.25,0.73-0.66,0.79-1.16c0.08,0.77-0.12,1.4-0.79,1.75c-2.63,1.36-7.04-0.97-7.97-2.94c-0.9-1.92-0.78-3.23-1.86-4.39
				l-0.03,0.37c0,0-1.25-1.03-2.03-2.49l0.07-1.42C382.64,162.07,382.67,162.1,382.7,162.12z"/>
		</g>
		<path fill="#192426" d="M389.47,158.93c0,0,6.96,1.94,8.37,2.05c1.41,0.11,0.65-2.92,0.65-2.92s0.49-16.18,1.52-21.21
			c1.03-5.03,2-17.43,2-23c0-5.57-1.3-10.17-1.3-10.17L390.27,108L389.47,158.93z"/>
		<path fill="#263133" d="M380.77,105.98c0,0-1.02,4.27-0.76,7.07c0.25,2.8,1.27,13.56,1.72,17.51c0.45,3.95,0.45,7.26,0.45,8.59
			s-1.15,5.09-0.64,8.72c0.51,3.63,1.21,14.3,1.21,14.3s6.09,4.87,8.57,3.53c0.32-0.17,0.76-0.79,0.7-1.63
			c-0.21-2.67-0.99-8.23-0.9-13.5c0.07-4.13,0.7-7.2,0.94-8.81c0.64-4.33,1.39-19.48,1.39-19.48l1.21-15.22L380.77,105.98z"/>
		<path fill="#ECF3F7" d="M388.98,107.23c0,0,1.07,1.66,5.58,0.83c4.5-0.83,5.02-3.32,5.02-3.32l-1.98-22.87l-1.87-10.39l-3.18-0.95
			c0,0-1.01,3.11-3.37,3.5c-2.36,0.39-6.42-3.04-6.42-3.04l1.36,9.65L388.98,107.23z"/>
		<path fill="#ECF3F7" d="M369.85,116.81v1.67c0,0,0.54,0.52,2.1,0.43c1.56-0.09,3.52-1.21,3.52-1.21v-1.85L369.85,116.81z"/>
		<path fill="#1872B8" d="M388.12,76.54c0,0,1.16,1.99,2.17,1.91c1-0.08,1.1-3.34,1.1-3.34s-0.97-1.31-2.19-1.08
			C387.97,74.26,388.12,76.54,388.12,76.54z"/>
		<path fill="#FFFFFF" d="M392.36,69.42l-0.82-0.32c0,0,0,4.54-2.63,4.62c-2.63,0.08-5.91-4.62-5.91-4.62l-1.25,1.7
			c1.06,2.47,6.49,7.32,6.49,7.32l0.96-3.92l3.42,3.32C393.06,74.93,392.36,69.42,392.36,69.42z"/>
		<path fill="#263133" d="M401.44,102.37c-0.46-5.76-1.23-15.22-1.18-17.79c0.05-2.57-1.13-12.29-5.04-16.92l-3.67,0.94
			c0,0,3.21,7.75,4.75,14.74c1.54,6.99,1.85,16.18,2.06,20.33c0.21,4.15,0.97,13.44,5.03,13.18
			C403.39,116.85,401.9,108.13,401.44,102.37z"/>
		<path fill="#333E40" d="M382.58,69.67c0,0,0.85,3.64,2.73,7.6c1.89,3.96,3.3,11.36,4.16,18.72c0.86,7.35,0.96,17.95,0.65,21.03
			c-0.31,3.09-2.82,4.82-11.01,3.85c0,0-0.12-9.27,0-12.44c0.1-2.7,0.35-9.15-0.28-12.03c-0.66-3-4.49-20-4.49-20L382.58,69.67z"/>
		<path fill="#404B4D" d="M374.6,76.18c0,0,5.37,4.71,4.39,12.77c0,0-1.48,7.66-1.65,10.81c-0.17,3.15-1.82,17.25-1.82,17.25
			s-0.54,1.02-2.88,1.4c-2.34,0.38-3.16-1.14-3.16-1.14s0.26-15.55,0.56-17.86c0.29-2.31,1.14-10.49,1.11-12.63
			C371.13,84.67,371.35,77.85,374.6,76.18z"/>
		<path fill="#404B4D" d="M382.24,69.34l-1.4,1.22l1.25,9.48l2.92,0.37l-3.09,2.15c0,0,6.41,10.39,7.79,16.3
			c0,0-0.73-11.13-3.52-20.18C383.4,69.64,382.24,69.34,382.24,69.34z"/>
		<path fill="#404B4D" d="M391.3,68.65c0,0,6.08,14.15,6.71,28.3c0,0,2.02-12,0.36-19.7l-2.62-0.11l1.62-2.16l-4.79-6.59
			L391.3,68.65z"/>
		<path fill="#1872B8" d="M390.71,77.58c0,0,2.36,5.86,3.62,10.59c1.26,4.73,2.01,15.9,2.01,15.9l-1.31,2.89l-2.1-2.1
			c0,0-1.09-12.92-1.39-16.26c-0.3-3.35-1.83-10.74-1.83-10.74L390.71,77.58z"/>
	</g>
	<g>
		<g>
			<path fill="#F2A983" d="M381.25,62.8c0,0-0.14-0.48-0.63-0.42c-0.5,0.06,0.14,1.94,0.42,2.8c0.28,0.85,0.85,1.27,1.07,0.97
				c0,0,0.77,2.8,1.19,3.37c0.42,0.57,2.82,3.29,4.82,3.11c2-0.18,3.23-2.99,3.67-4.22c0.44-1.23,0.44-3.15,0.44-3.15
				s0.56-2.34,0.65-3.29c0.1-0.95-0.42-1.03-0.57-0.69c0,0-0.3-2.99-0.81-4.12c-0.52-1.13-2.5-2.72-5.27-2.74
				c-2.78-0.02-5.06,2.68-5.39,4.6C380.48,60.94,381.25,62.8,381.25,62.8z"/>
			<path fill="#563317" d="M391.48,57.15c-0.52-1.13-2.5-2.72-5.27-2.74c-2.78-0.02-5.06,2.68-5.39,4.6
				c-0.3,1.72,0.28,3.39,0.41,3.73c-0.03-0.08-0.11-0.2-0.24-0.28l0.27,0.35l0.67,1.21c0,0-0.32-1.88,0.14-2.18
				c0.46-0.3,0.28,0.2,0.7-0.05c0.43-0.25-0.62-1.75,0.74-1.2c1.37,0.56,1.86,1.53,3.99,1.17c1.04-0.18,2.6-1.63,3.13-1.74
				c0.54-0.12,1.31,1.61,1.39,2.12c0.08,0.52,0.28-0.69,0.28-0.69l0.03-0.21c-0.01,0.02-0.02,0.03-0.03,0.05
				C392.3,61.28,392,58.28,391.48,57.15z"/>
			<path fill="#D88F69" d="M388.15,69.03c-0.08,0-0.46,0-0.61-0.69c-0.16-0.69,0.06-1.57,0-2.42c-0.06-0.85-2.38-1.05-3.39-0.97
				c-1.01,0.08,0.06,1.03,0.08,1.15c0.02,0.12,0.57,1.13-0.35,1.16c-0.92,0.03-1.16-1.16-1.38-1.54c-0.22-0.38-0.4,0.44-0.4,0.44
				s0.77,2.8,1.19,3.37c0.42,0.57,2.82,3.29,4.82,3.11c0.17-0.01,0.33-0.05,0.49-0.1C388.86,71.38,388.22,69.03,388.15,69.03z"/>
		</g>
		<g>
			<path fill="#DF9400" d="M381.69,65.54c0.17,0.3,0.57,1,1.86,1.19c1.28,0.19,2.42,0.24,3.85,0.18c1.43-0.07,4.03-0.61,4.38-0.81
				c0.35-0.2,0.82-0.77,0.99-1.2c0.16-0.43,1.1-3.88,1.18-5.3c0.08-1.42-1.22-3.27-1.95-3.62c-0.73-0.35-11.4,0.43-11.4,0.43
				s-1.51,0.47-1.49,3.1C379.14,62.12,381.69,65.54,381.69,65.54z"/>
			<path fill="#F6C100" d="M381.69,65.41c0.17,0.3,0.57,1,1.86,1.19c1.28,0.19,2.42,0.24,3.85,0.18c1.43-0.07,4.03-0.61,4.38-0.81
				c0.35-0.2,0.82-0.77,0.99-1.2c0.16-0.43,1.1-3.88,1.18-5.3c0.08-1.42-1.22-3.27-1.95-3.62c-0.73-0.35-11.4,0.43-11.4,0.43
				s-1.51,0.47-1.49,3.1C379.14,61.99,381.69,65.41,381.69,65.41z"/>
			<radialGradient id="SVGID_1_" cx="390.0549" cy="52.8142" r="12.9402" gradientUnits="userSpaceOnUse">
				<stop  offset="0" style="stop-color:#F6C100"/>
				<stop  offset="0.6979" style="stop-color:#F6B000"/>
				<stop  offset="1" style="stop-color:#DF9400"/>
			</radialGradient>
			<path fill="url(#SVGID_1_)" d="M386.33,51.18c1.16,0,3.58,0.54,4.74,2.15c1.16,1.6,1.88,3.79,2.02,5.49
				c0.13,1.7-0.13,2.97-0.69,3.56c-0.56,0.6-2.74,1.27-4.24,1.55c-1.49,0.28-4.52-0.17-5.92-0.84c-1.4-0.67-2.17-2.2-2.35-3.68
				c-0.19-1.47,0.19-2.48,0.39-3.14C380.49,55.62,381.69,51.18,386.33,51.18z"/>
			<linearGradient id="SVGID_2_" gradientUnits="userSpaceOnUse" x1="387.0634" y1="64.2804" x2="386.538" y2="48.9654">
				<stop  offset="0" style="stop-color:#F6B000"/>
				<stop  offset="0.5775" style="stop-color:#FFC800"/>
				<stop  offset="1" style="stop-color:#F6B000"/>
			</linearGradient>
			<path fill="url(#SVGID_2_)" d="M385.18,64.13c0,0,1.94,0.31,3.9-0.12l-0.15-4.17c0,0-0.93-1.18-1.12-2.24
				c-0.19-1.06-0.39-4.01-0.5-5.07c-0.11-1.06-0.48-1.66-1.04-1.69c-0.56-0.03-0.75,0.39-0.75,0.39s0.34,2.41,0.43,3.19
				c0.09,0.78,0.3,3.1,0.22,3.66c-0.07,0.57-0.84,1.63-0.99,1.82c-0.15,0.19-0.15,3.94-0.15,3.94L385.18,64.13z"/>
			<path fill="#DF9400" d="M382.46,62.29c0,0-0.94-0.37-1.35-0.88c0,0-0.25,0.1-0.27,0.27c-0.02,0.17-0.06,1.18-0.06,1.18
				s1.07,0.79,1.31,0.79c0.24,0,0.47-0.21,0.49-0.36C382.61,63.14,382.61,62.35,382.46,62.29z"/>
			<path fill="#DF9400" d="M380.27,56.34l0.2-0.62c0,0-0.43,0.22-0.48,0.39c-0.05,0.17-0.14,1.25-0.1,1.33
				c0.05,0.08,0.06,0.21,0.2,0C380.22,57.22,380.27,56.34,380.27,56.34z"/>
			<path fill="#F6C100" d="M392.69,60.91c0,0-0.56,0.69-1.14,0.98c0,0-0.14,0.01-0.15,0.3c-0.01,0.29,0,0.79,0,0.79
				s0.33,0.28,0.47,0.28c0.14-0.01,0.86-0.61,1-0.76c0.13-0.15,0.17-0.75,0.16-0.93S393.06,60.91,392.69,60.91z"/>
			<path fill="#F6C100" d="M382.47,62.29C382.46,62.29,382.46,62.29,382.47,62.29c-0.01,0-0.95-0.37-1.35-0.88
				c0,0-0.25,0.1-0.27,0.27c0.11,0.11,1.07,0.82,1.25,0.85C382.19,62.55,382.35,62.41,382.47,62.29z"/>
			<path fill="#F6B000" d="M392.95,61.05c-0.32,0.56-1.05,1.09-1.18,1.1c-0.08,0.01-0.21-0.08-0.32-0.17
				c-0.02,0.04-0.04,0.11-0.04,0.2c-0.01,0.29,0,0.79,0,0.79s0.33,0.28,0.47,0.28c0.14-0.01,0.86-0.61,1-0.76
				c0.13-0.15,0.17-0.75,0.16-0.93C393.02,61.44,393.04,61.2,392.95,61.05z"/>
			<linearGradient id="SVGID_3_" gradientUnits="userSpaceOnUse" x1="383.2379" y1="55.1845" x2="384.8768" y2="54.8013">
				<stop  offset="0" style="stop-color:#F6B000"/>
				<stop  offset="1" style="stop-color:#FFC800"/>
			</linearGradient>
			<path fill="url(#SVGID_3_)" d="M384.32,58.38c0.36,0,0.45-1.37,0.45-1.96c0-0.59-0.2-3.49-0.36-4.11
				c-0.16-0.62-0.57-0.74-0.96-0.62c-0.39,0.12-0.61,0.58-0.5,1.46c0.11,0.88,0.47,3.62,0.64,4.16
				C383.74,57.85,383.79,58.38,384.32,58.38z"/>
			<linearGradient id="SVGID_4_" gradientUnits="userSpaceOnUse" x1="388.466" y1="54.8597" x2="390.2654" y2="54.8597">
				<stop  offset="0" style="stop-color:#F6B000"/>
				<stop  offset="1" style="stop-color:#FFC800"/>
			</linearGradient>
			<path fill="url(#SVGID_4_)" d="M389.71,58.22c0.34,0.03,0.54-1.69,0.55-2.28c0.01-0.59-0.36-3.25-0.55-3.81
				c-0.19-0.56-0.94-0.74-1.25-0.56c0,0,0.08,1.68,0.23,2.68C388.85,55.24,389.04,58.16,389.71,58.22z"/>
			<path fill="#F6C100" d="M379.98,56.1c0.05,0.14,0.12,0.3,0.27,0.4c0.01-0.1,0.01-0.16,0.01-0.16l0.2-0.62
				C380.47,55.72,380.05,55.93,379.98,56.1z"/>
			<path fill="#F6B000" d="M382.47,62.29c-0.09,0.09-0.21,0.2-0.31,0.23v1.13c0.22-0.03,0.41-0.21,0.43-0.35
				C382.61,63.14,382.61,62.38,382.47,62.29z"/>
			<path fill="#DF9400" d="M391.77,62.15c-0.08,0.01-0.21-0.08-0.32-0.17c-0.02,0.04-0.04,0.11-0.04,0.2c-0.01,0.29,0,0.79,0,0.79
				s0.33,0.28,0.46,0.28l-0.05-1.11C391.8,62.14,391.78,62.15,391.77,62.15z"/>
			<path opacity="0.5" fill="#DF9400" d="M385.18,59.9c-0.01,0.01-0.02,0.03-0.02,0.06l0.3,0.3c0,0,0.94-1.58,1.08-2.31
				c0.14-0.73-0.21-3.51-0.36-4.43c-0.12-0.77-0.11-1.83-0.47-2.51c-0.13,0.11-0.19,0.22-0.19,0.22s0.34,2.41,0.43,3.19
				c0.09,0.78,0.3,3.1,0.22,3.66C386.1,58.64,385.32,59.71,385.18,59.9z"/>
			<path opacity="0.5" fill="#FFC800" d="M387.3,52.52c-0.08-0.78-0.3-1.31-0.64-1.55c0.4,0.77,0.53,2.09,0.54,2.73
				c0.01,0.76,0.16,3.3,0.38,4.16c0.22,0.86,1.15,2.27,1.15,2.27l0.19-0.3c0,0-0.93-1.18-1.12-2.24
				C387.62,56.54,387.42,53.59,387.3,52.52z"/>
			<path opacity="0.3" fill="#DF9400" d="M385.45,60.26l-0.33-0.09c-0.09,0.9-0.09,3.67-0.09,3.67l0.15,0.29c0,0,1.94,0.31,3.9-0.12
				l-0.14-3.93l-0.2,0.05L385.45,60.26z"/>
			<path fill="#DF9400" d="M385.15,59.96c-0.13,0.51-0.13,3.88-0.13,3.88l0.15,0.29l0.28-3.87L385.15,59.96z"/>
			<polygon fill="#DF9400" points="388.74,60.14 389.08,64.01 388.93,59.84 			"/>
			<path opacity="0.5" fill="#DF9400" d="M384.31,58.38c-0.75-1.03-1.08-5.05-1.08-5.55c0-0.29,0-0.7,0-1.04
				c-0.26,0.2-0.39,0.64-0.3,1.36c0.11,0.88,0.47,3.62,0.64,4.16C383.74,57.85,383.79,58.38,384.31,58.38z"/>
			<path opacity="0.5" fill="#DF9400" d="M389.71,58.22c0.03,0,0.06-0.01,0.09-0.03c-0.54-0.85-0.76-3.04-0.87-4.16
				c-0.1-1-0.15-2.02-0.18-2.52c-0.11,0-0.21,0.02-0.28,0.06c0,0,0.08,1.68,0.23,2.68C388.85,55.24,389.04,58.16,389.71,58.22z"/>
		</g>
	</g>
</g>
<g id="Architect">
	<g>
		<path fill="#D88F69" d="M351.92,84.46l-0.15-0.63c0,0,0.64-2.37,0.49-4.59c-0.16-2.22,6.72,0.16,6.72,0.16l1.82,4.84
			c0,0,0.07,2.6,0.29,3.63s0.74,2.94-1.59,3.16S353.08,88.56,351.92,84.46z"/>
		<g>
			<path d="M360.48,176.89c1.67,0.97,2.79,2.72,6.13,4.41c1.94,0.98,6.63,1.76,6.45-0.39c-0.01-0.12-0.03-0.24-0.07-0.36
				c0.15,0.33,0.26,0.64,0.28,0.93c0.18,2.15-4.51,1.37-6.45,0.39c-3.34-1.69-4.47-3.44-6.13-4.41c-0.21-0.12-0.45-0.25-0.72-0.38
				l-0.18,0.44l-3.15-1.48c0,0-0.21-0.56-0.19-1.19C356.88,175.21,359.3,176.2,360.48,176.89z"/>
			<path fill="#313131" d="M363.01,172.69c0.83-0.17,0.03-1.97,3.46,1.61c0.26,0.18,0.53,0.34,0.81,0.46
				c1.93,0.87,5.61,4.17,5.78,6.15c0.18,2.15-4.51,1.37-6.45,0.39c-3.34-1.69-4.47-3.44-6.13-4.41c-1.27-0.73-3.97-1.83-4.09-2.12
				c-0.06-0.16-0.13-0.44-0.18-0.79C360,170.54,361.36,173.03,363.01,172.69z"/>
		</g>
		<g>
			<path fill="#313131" d="M359.69,178.41c0.14,0.26,0.28,0.48,0.38,0.61c0.63,0.81,5.21,6.65,2.58,8.01
				c-2.62,1.36-7.04-0.97-7.97-2.94c-0.93-1.97-0.77-3.3-1.95-4.48c-0.7-0.7-1.54-1.62-1.8-2.78c1.07-1.11,2.31-0.35,4.46-0.04
				C356.63,176.97,357.52,176.31,359.69,178.41z"/>
			<path d="M350.94,176.83c0.26,1.16,1.11,2.09,1.8,2.79c1.18,1.18,1.02,2.51,1.95,4.48c0.93,1.97,5.34,4.3,7.97,2.94
				c0.49-0.25,0.73-0.66,0.79-1.16c0.08,0.77-0.12,1.4-0.79,1.75c-2.62,1.36-7.04-0.97-7.97-2.94c-0.9-1.92-0.78-3.24-1.86-4.39
				l-0.03,0.37c0,0-1.25-1.03-2.03-2.49l0.07-1.42C350.87,176.78,350.9,176.8,350.94,176.83z"/>
		</g>
		<path fill="#607076" d="M357.7,173.64c0,0,6.96,1.94,8.37,2.05c1.41,0.11,0.65-2.92,0.65-2.92s0.49-16.18,1.52-21.21
			c1.03-5.03,2-17.43,2-23c0-5.57-1.3-10.17-1.3-10.17l-10.45,4.33L357.7,173.64z"/>
		<path fill="#79898F" d="M349,120.69c0,0-1.02,4.26-0.76,7.07c0.25,2.8,0.35,13.19,0.79,17.14c0.45,3.95,0.77,7.63,0.77,8.96
			c0,1.34-0.54,5.09-0.04,8.72c0.51,3.63,0.67,14.3,0.67,14.3s6.63,4.87,9.1,3.53c0.32-0.17,0.76-0.8,0.7-1.63
			c-0.21-2.67-0.99-8.23-0.9-13.5c0.07-4.13,0.7-7.2,0.94-8.81c0.64-4.33,1.39-19.48,1.39-19.48l0.82-13.24L349,120.69z"/>
		<path fill="#ECF3F7" d="M357.9,123.13c0,0,1.32,0.98,2.61,1.02c1.29,0.04,1.9,0.14,2.57-0.14c0.67-0.28,4.16-1,4.75-2.42
			c0.59-1.42-0.55-7.06-0.55-7.06l-0.46-18.22l-1.32-8.9l-3.55-2.15c0,0-0.28,2.96-2.17,3.21c-1.89,0.26-8.02-2.77-8.02-2.77
			s0.9,17.45,1.01,17.49C352.9,103.24,357.9,123.13,357.9,123.13z"/>
		<path fill="#444443" d="M358.64,91.4l1.15-2.92l1.93,2.24l-0.46,2.07c0,0,4.12,12.54,4.5,22.99l-1.55,3.47l-1.72-2.27
			c0,0-1.34-14.19-1.66-16.91c-0.32-2.72-0.82-7.11-0.82-7.11L358.64,91.4z"/>
		<path fill="#FFFFFF" d="M358.96,93.17c-3.02-2.3-7.45-6.22-8.37-8.06c0.86-0.81,1.07-1.74,1.07-1.74s3.83,4.4,7.74,4.83
			c0,0,2.18-0.18,0.97-4.96c0,0,0.65,0.09,1.48,0.27c1.87,4.78,0.46,8.8,0.46,8.8l-2.45-3.57L358.96,93.17z"/>
		<path fill="#607076" d="M384.43,100.6c0,0-0.52,1.13-0.3,2.71c0.22,1.58,0.64,2.46,1.26,2.51c0,0-4.39,0.91-6.21,1.18
			c-1.82,0.27-7.47,0.05-8.48-0.69c-1.01-0.74-4.71-10.23-4.71-10.23l-0.03-12.85c0,0,1.56-0.07,3.31,3.09
			c1.75,3.15,3.16,8.9,4.31,11.07c1.16,2.17,1.6,3.23,1.6,3.23L384.43,100.6z"/>
		<path fill="#6D7D83" d="M351.1,83.93c0,0,5.14,7.18,6.53,12.25c2.77,10.08,2.63,29.29,2.25,33.42c-0.38,4.13,0.13,6.59-4.41,6.09
			c-4.54-0.5-10.05-3.09-10.05-3.09s1.86-15.07,2.31-17.23c0.45-2.16-2.62-20.02-2.62-20.02l-1.43-4.25L351.1,83.93z"/>
		<path fill="#6D7D83" d="M360.51,82.98c0,0,3.59,4.48,4.35,11.72c0.75,7.24,1.93,26.54,2.3,30.43c0.52,5.47,1.79,8.16,4.89,6.53
			c0,0-1.78-10.71-2.34-14.28c-0.55-3.57-1.36-12.38-1.16-15.1c0.2-2.71-0.5-12.07-0.85-14.58c-0.35-2.52-1.74-4.46-1.74-4.46
			L360.51,82.98z"/>
		<path fill="#86969C" d="M365.23,90.24l1.11-1.11c-0.62-1.73-2.64-4.56-3.76-6.05l-2.06-0.1c0,0,3.59,4.48,4.35,11.72
			c0.37,3.56,0.9,9.44,1.39,14.96l0,0c0,0,0.15-4.73,0.35-9.54c0.2-4.81,0.83-10.29,0.83-10.29L365.23,90.24z"/>
		<path fill="#86969C" d="M359.75,112.09c0,0-4.86-14.91-7.34-17.56l2.38-1.78l-2.6,0.43l-2.96-7.85l1.87-1.38
			c0,0,3.99,4.54,5.92,9.24C359.84,100.01,359.75,112.09,359.75,112.09z"/>
		<g>
			<g>
				<linearGradient id="SVGID_5_" gradientUnits="userSpaceOnUse" x1="359.8909" y1="109.5706" x2="393.1303" y2="112.3734">
					<stop  offset="0" style="stop-color:#BEC3C7"/>
					<stop  offset="0.1321" style="stop-color:#DEE5E9"/>
				</linearGradient>
				<path fill="url(#SVGID_5_)" d="M389.86,88.78L389.86,88.78c0,0-6.8,4.9-12.53,7.93c-4.6,2.43-11.32,6-11.32,6
					c-1.16,0.67-3.04,0.67-4.2,0c-0.58-0.33-0.87-0.77-0.87-1.21c0,0-0.75,11.69-1.22,15.57c-0.41,3.4-2.1,12.8-2.45,14.72
					c-0.19,0.55,0.07,1.14,0.81,1.56c1.16,0.67,3.04,0.67,4.2,0c0.13-0.08,0.25-0.16,0.35-0.25c1.81-1.26,10.04-7.01,13.2-8.81
					c2.54-1.45,10.65-5.03,10.73-5.07c0.16-0.06,0.31-0.13,0.44-0.21c0.58-0.33,0.87-0.77,0.87-1.21c0,0,0.48-11.31,0.82-15.07
					c0.31-3.46,1.64-13.19,1.86-14.83C390.49,88.21,390.26,88.52,389.86,88.78z"/>
				<path fill="#C5CCD0" d="M390.6,87.65L390.6,87.65c0-0.44-0.29-0.88-0.87-1.21c-0.98-0.56-2.46-0.65-3.6-0.27
					c0.66,1.33,0.87,3.34,0.93,4.55c1.69-1.15,2.8-1.94,2.8-1.94l0,0c0.4-0.26,0.63-0.57,0.71-0.89c0,0.01,0,0.02,0,0.03
					c0.01-0.02,0.01-0.04,0.02-0.06C390.6,87.79,390.6,87.73,390.6,87.65c0,0.01,0,0.02,0,0.04C390.6,87.68,390.6,87.66,390.6,87.65
					z"/>
				<path fill="#C5CCD0" d="M364.91,103.11c0.18-1.49,0.48-2.43,0.75-3c-1.16-0.49-2.8-0.43-3.84,0.17c-1.16,0.67-1.16,1.76,0,2.43
					C362.65,103.19,363.86,103.32,364.91,103.11z"/>
			</g>
			<path fill="#F2A983" d="M389.09,99.26c0,0-1.69,0.84-1.91,1.49c-0.22,0.65,0.53,0.84,0.53,0.84s-0.62,0.37-0.58,0.9
				c0.04,0.53,0.66,0.53,0.66,0.53s-0.9,0.51-0.66,1.13c0.24,0.62,0.61,0.62,0.61,0.62s-0.62,0.68-0.31,1.29
				c0.31,0.62,0.46,0.67,0.99,0.81c0.53,0.14,1.6-1.41,1.85-2.11c0.25-0.7,0.03-1.22,0.14-1.7c0.11-0.47,0.31-1.71,0.42-2.3
				c0.11-0.59-0.08-2.39-0.23-2.62c-0.16-0.23-1.23-1.21-1.23-1.21L389.09,99.26z"/>
			<path fill="#D88F69" d="M390.28,104.77c0.25-0.7,0.03-1.22,0.14-1.7c0.11-0.47,0.31-1.71,0.42-2.3c0.02-0.13,0.03-0.31,0.03-0.53
				c-0.66,0.72-2.69,1.34-3.16,1.34c0,0-0.62,0.37-0.58,0.9c0.04,0.53,0.66,0.53,0.66,0.53s-0.9,0.51-0.66,1.13
				c0.24,0.62,0.61,0.62,0.61,0.62s-0.62,0.68-0.31,1.29c0.31,0.62,0.46,0.67,0.99,0.81C388.95,107.02,390.02,105.47,390.28,104.77z
				"/>
			<path fill="#F2A983" d="M366.52,113.34c-0.55-0.55-2.92,0.45-3.47,0.45c-0.56,0-2.41-0.3-2.62-0.65
				c-0.2-0.35-0.21-2.27-0.21-2.27s-1.67,0.31-2.27,1.05c-0.6,0.74-1.35,2.58-2.29,2.86c-0.94,0.28-3.58,0.09-3.58,0.09l0.75,4.61
				c0,0,3.75-0.49,4.26-0.38c0.51,0.1,1.16,0.14,1.77,0.29c0.61,0.15,2.48,0.58,3.17,0.43c0.68-0.15,1.82,0,2.32-0.51
				c0.51-0.51,1-0.55,1.65-1.83c0.54-1.08,0.8-1.43,0.87-1.96C367.05,114.24,366.95,113.78,366.52,113.34z"/>
			<path fill="#D88F69" d="M366,117.48c0.54-1.08,0.8-1.43,0.87-1.96c0.12-0.83,0.12-1.31-0.01-1.67c-0.15,0.26-0.46,0.74-0.83,0.96
				c-0.53,0.31-3.12,0.45-3.2,0.45c-0.09,0-0.87,1.08-1.19,1.6c-0.32,0.52-1.45,1.58-1.8,1.71c-0.35,0.13-4.95-0.61-5.19-0.58
				c-0.13,0.01-1.13,0.14-2.02,0.25l0.2,1.24c0,0,3.75-0.49,4.26-0.38c0.51,0.1,1.16,0.14,1.77,0.29c0.61,0.15,2.48,0.58,3.17,0.43
				c0.68-0.15,1.82,0,2.32-0.51C364.86,118.81,365.35,118.77,366,117.48z"/>
			<path fill="#FFFFFF" d="M355.64,114.4l0.82-0.18c0,0,0.23,1.78,0.39,2.91c0.16,1.13,0.4,2.22,0.95,2.25l-1.78,0.1
				C356.02,119.48,355.1,116.94,355.64,114.4z"/>
			<path fill="#86969C" d="M355.96,114.22c0,0-0.23,1.62,0.06,3.54c0.29,1.92,0.83,2.29,1.2,2.29c0,0-4.16,0.4-6.96,0.64
				c-2.8,0.24-6.12,0.2-6.78-2.64c-0.66-2.84-1.7-12.76-1.66-14.86c0.04-2.1-1.22-8.52,1.88-12.09c0,0,6.49,1.7,6.6,8.74
				l-0.85,14.49L355.96,114.22z"/>
			<path opacity="0.3" fill="#6D7D83" d="M349.44,114.32c0,0-0.8-0.19-1.87,0.34c-1.07,0.53-1.74,1.25-0.93,1.25
				s1.56-0.22,1.56-0.22s-1.49,1.45-0.31,1.16c0.91-0.23,5.2-0.66,7.98-0.91c-0.01-1.02,0.09-1.72,0.09-1.72L349.44,114.32z"/>
		</g>
	</g>
	<g>
		<g>
			<g>
				<path fill="#F2A983" d="M352.64,80.84c0.72,1.19,2.83,3.48,5.27,4.1c2.44,0.62,3.97,0.23,4.16-0.68
					c0.19-0.91,0.13-1.72,0.3-2.21c0.17-0.49,0.36-1.25,0.53-2.19c0.17-0.93,0.3-1.78,0.19-2.12c-0.11-0.34-0.32-0.81-0.11-1.38
					c0.21-0.57-0.28-3.82-1.17-5.16c-0.89-1.34-2.74-3.53-6.92-3.59c-4.18-0.06-5.52,4.16-5.69,6.52c-0.17,2.36,2.08,6.31,2.08,6.31
					L352.64,80.84z"/>
				<path fill="#D88F69" d="M362.48,81.08c-0.38,0.16-0.82,0.18-0.84,0.62c-0.02,0.34,0.04,1.99-0.14,3.25
					c0.31-0.17,0.51-0.4,0.57-0.69c0.19-0.91,0.13-1.72,0.3-2.21c0.17-0.49,0.36-1.25,0.53-2.19c0.17-0.93,0.3-1.78,0.19-2.12
					c-0.11-0.34-0.32-0.81-0.11-1.38c0.03-0.09,0.05-0.26,0.05-0.48c-0.48,0.43-1.37,1.26-1.39,1.61
					C361.62,77.95,362.86,80.93,362.48,81.08z"/>
				<path fill="#D88F69" d="M362.98,76.36c0.21-0.57-0.28-3.82-1.17-5.16c-0.89-1.34-2.74-3.53-6.92-3.59
					c-4.18-0.06-5.52,4.16-5.69,6.52c-0.05,0.69,0.11,1.51,0.35,2.33c1.71,1.38,3.91,2.22,4.86,2.58c1.34,0.51,2.98,1.42,4.34,1.38
					c1.36-0.04,2.78-0.51,4.17-1.34c0.04-0.02,0.08-0.05,0.12-0.07c0.08-0.57,0.12-1.03,0.05-1.26
					C362.98,77.4,362.77,76.93,362.98,76.36z"/>
			</g>
			<path opacity="0.3" fill="#563317" d="M349.31,75.53c0.19,0.94,0.56,1.95,0.93,2.81c1.03-0.19,2.43-0.05,2.73,0.03
				c0.42,0.12,0.99,0.19,1.06-0.56c0.04-0.38,0.32-1.03,0.73-1.69C353.53,76.04,351.14,75.86,349.31,75.53z"/>
			<path fill="#563317" d="M361.81,71.2c-0.89-1.34-2.74-3.53-6.92-3.59c-4.18-0.06-5.52,4.16-5.69,6.52
				c-0.09,1.23,0.48,2.9,1.05,4.21c1.03-0.19,2.43-0.05,2.73,0.03c0.42,0.12,0.99,0.19,1.06-0.56c0.07-0.74,1.11-2.52,2.12-3.45
				c1.01-0.93,4.18-0.21,4.99-0.46c0.54-0.17,0.92-1.15,1.12-1.8C362.13,71.76,361.98,71.44,361.81,71.2z"/>
			<path fill="#F2A983" d="M352.17,77.85c0,0-0.62-0.74-1.08-0.79c-0.47-0.04-1.53,0.4-1.06,1.53c0.47,1.13,1.92,2.47,2.68,2.36
				C353.46,80.84,352.4,78.29,352.17,77.85z"/>
		</g>
		<g>
			<path fill="#DF9400" d="M363.81,71.68l-0.13-0.72c0,0-0.57-2.14-1.81-3.64c-1.24-1.5-2.68-2.09-2.68-2.09s-1.21-1.09-2.49-1.26
				c-1.28-0.16-1.68,0.23-1.68,0.23L354,64.33c0,0-0.69-0.12-1.27,0.14c-0.59,0.25-1.24,1.21-1.24,1.21s-0.77,0.54-1.35,1.6
				c-0.58,1.06-0.83,1.89-0.83,1.89s-2.13,1.68-0.71,4.3c1.42,2.61,5.27,4.07,6.61,4.58c1.34,0.51,2.98,1.42,4.34,1.38
				c1.36-0.04,2.78-0.51,4.17-1.34c1.4-0.83,2.65-1.97,2.62-2.82C366.3,74.42,363.81,71.68,363.81,71.68z"/>
			<path fill="#F6C100" d="M363.81,71.48l-0.13-0.72c0,0-0.57-2.14-1.81-3.64c-1.24-1.5-2.68-2.09-2.68-2.09s-1.21-1.09-2.49-1.26
				c-1.28-0.16-1.68,0.23-1.68,0.23L354,64.14c0,0-0.69-0.12-1.27,0.14c-0.59,0.25-1.24,1.21-1.24,1.21s-0.77,0.54-1.35,1.6
				c-0.58,1.06-0.83,1.89-0.83,1.89s-2.13,1.68-0.71,4.3c1.42,2.61,5.27,4.07,6.61,4.58c1.34,0.51,2.98,1.42,4.34,1.38
				c1.36-0.04,2.78-0.51,4.17-1.34c1.4-0.83,2.65-1.97,2.62-2.82C366.3,74.22,363.81,71.48,363.81,71.48z"/>
			<radialGradient id="SVGID_6_" cx="360.612" cy="64.7105" r="13.6422" gradientUnits="userSpaceOnUse">
				<stop  offset="0" style="stop-color:#F6C100"/>
				<stop  offset="0.6979" style="stop-color:#F6B000"/>
				<stop  offset="1" style="stop-color:#DF9400"/>
			</radialGradient>
			<path fill="url(#SVGID_6_)" d="M361.87,67.12c-1.24-1.5-2.68-2.09-2.68-2.09s-1.21-1.09-2.49-1.26
				c-1.28-0.16-1.68,0.23-1.68,0.23L354,64.14c0,0-0.69-0.12-1.27,0.14c-0.59,0.25-1.24,1.21-1.24,1.21s-0.77,0.54-1.35,1.6
				c-0.58,1.06-0.83,1.89-0.83,1.89s-0.41,0.62-0.43,2.4c-0.02,1.79,1.07,3.06,2.84,4.05c1.78,0.99,3.38,1.52,5.25,1.42
				c1.87-0.1,2.91-0.64,2.91-0.64c0.27,0.29,0.93,0,1.74-0.48c0.81-0.48,1.35-0.93,1.35-0.93l0.04-0.35
				c0.98-1.6,0.79-2.96,0.79-2.96l-0.13-0.72C363.67,70.76,363.1,68.62,361.87,67.12z"/>
			<linearGradient id="SVGID_7_" gradientUnits="userSpaceOnUse" x1="354.2699" y1="63.3955" x2="360.0098" y2="72.5316">
				<stop  offset="0" style="stop-color:#F6B000"/>
				<stop  offset="0.5775" style="stop-color:#FFC800"/>
				<stop  offset="1" style="stop-color:#F6B000"/>
			</linearGradient>
			<path fill="url(#SVGID_7_)" d="M361.62,75.73c0.81-0.48,1.35-0.93,1.35-0.93l0.04-0.35c0,0-0.17-1.9-0.19-2.54
				c-0.02-0.64-0.18-0.99-0.38-1.15c-0.2-0.16-0.33-0.24-1-0.81c-0.67-0.57-1.7-2.39-3.48-3.86c-1.78-1.47-3.97-1.94-3.97-1.94
				s-0.69-0.12-1.27,0.14c-0.35,0.15-0.72,0.55-0.96,0.84c1.43-0.65,3.17,0.35,4.76,1.38c1.67,1.09,3.09,3.11,3.3,3.8
				c0.2,0.69,0.1,1.66,0.04,1.72c-0.06,0.06-0.2,0.2-0.2,0.2s0.33,1.45,0.32,2.13c-0.01,0.68-0.09,1.86-0.09,1.86
				C360.15,76.5,360.81,76.21,361.62,75.73z"/>
			<path opacity="0.5" fill="#DF9400" d="M360.3,76.32l0.09-3.95c0,0,0.02-1.22-0.19-2.23c-0.21-1.01-1.9-3.04-3.57-4.21
				c-1.42-1-3.03-1.61-4.32-1.37c-0.21,0.18-0.4,0.39-0.55,0.57c1.43-0.65,3.17,0.35,4.76,1.38c1.67,1.09,3.09,3.11,3.3,3.8
				c0.2,0.69,0.1,1.66,0.04,1.72c-0.06,0.06-0.2,0.2-0.2,0.2s0.33,1.45,0.32,2.13c-0.01,0.68-0.09,1.86-0.09,1.86
				C359.97,76.31,360.12,76.34,360.3,76.32z"/>
			<path fill="#F6B000" d="M363.01,74.44c0,0-0.17-1.9-0.19-2.54c-0.01-0.45-0.1-0.76-0.21-0.96c-0.78,0.62-1.78,1.09-2.22,1.29
				c0,0.08,0,0.13,0,0.13l-0.09,3.95c0.33-0.05,0.79-0.28,1.32-0.59c0.81-0.48,1.35-0.93,1.35-0.93L363.01,74.44z"/>
			<path opacity="0.3" fill="#DF9400" d="M363.01,74.44c0,0-0.17-1.9-0.19-2.54c-0.01-0.45-0.1-0.76-0.21-0.96
				c-0.78,0.62-1.78,1.09-2.22,1.29c0,0.08,0,0.13,0,0.13l-0.09,3.95c0.33-0.05,0.79-0.28,1.32-0.59c0.81-0.48,1.35-0.93,1.35-0.93
				L363.01,74.44z"/>
			<path fill="#F6C100" d="M361.51,67.32c0.63,0.85,0.82,1.66,0.63,1.66c-0.4,0-0.79-0.67-0.79-0.67c-0.72-0.9-1.37-1.69-2.8-2.78
				c-1.44-1.09-3.54-1.51-3.54-1.51s0.4-0.41,1.68-0.23C357.5,63.9,359.55,64.69,361.51,67.32z"/>
			<path fill="#F6B000" d="M355.03,75.59c0,0,0.68,0.12,1.2,0.17c0.52,0.05,0.95-0.03,0.98,0.25c0.03,0.29-0.04,0.96-0.04,0.96
				s0.04,0.37-0.84,0.39c-0.88,0.02-1.53-0.16-1.57-0.44C354.73,76.64,354.73,75.54,355.03,75.59z"/>
			<path fill="#F6C100" d="M356.23,75.76c-0.52-0.05-1.2-0.17-1.2-0.17c-0.06-0.01-0.11,0.03-0.14,0.09c0.05,0.19,0.2,0.3,0.36,0.31
				c0.22,0.02,1.65,0.21,1.74,0.18c0.04-0.02,0.12-0.13,0.19-0.26C357.05,75.75,356.68,75.8,356.23,75.76z"/>
			<path fill="#DF9400" d="M355.13,75.96c-0.11-0.04-0.21-0.14-0.25-0.28c-0.15,0.26-0.14,1.02-0.11,1.24
				c0.01,0.09,0.1,0.18,0.24,0.24C355,76.54,355.13,75.96,355.13,75.96z"/>
			<path fill="#DF9400" d="M348.92,70.48c0,0,0.02,0.71,0.17,0.93c0.15,0.22,0.3,0.4,0.27,0.69c-0.03,0.29-0.11,0.99-0.11,0.99
				s-0.37,0.09-0.43-0.06c-0.06-0.14-0.46-1.21-0.42-1.43c0.03-0.22,0.2-1.08,0.2-1.08L348.92,70.48z"/>
			<path fill="#F6C100" d="M349.36,71.95c-0.02-0.21-0.15-0.36-0.27-0.54c-0.15-0.22-0.17-0.93-0.17-0.93l-0.32,0.04
				c0,0,0.16,0.96,0.27,1.19C348.96,71.91,349.14,71.95,349.36,71.95z"/>
			<path fill="#F6B000" d="M348.95,71.83l-0.07,1.26c0.12,0.05,0.37,0,0.37,0s0.08-0.7,0.11-0.99c0.01-0.05,0.01-0.1,0-0.15
				C349.19,71.95,349.05,71.92,348.95,71.83z"/>
			<path fill="#DF9400" d="M363.65,72.02c0,0,0.18-0.63,0.05-1.12h0.15c0,0,0.2,0.6,0.23,0.89c0.03,0.3-0.04,1.39-0.04,1.39h-0.45
				L363.65,72.02z"/>
			<path fill="#F6C100" d="M364.08,71.79c-0.03-0.3-0.23-0.89-0.23-0.89h-0.15c0.13,0.49-0.05,1.12-0.05,1.12s0.26,0.04,0.44-0.08
				C364.09,71.88,364.09,71.83,364.08,71.79z"/>
			<radialGradient id="SVGID_8_" cx="347.4635" cy="77.793" r="13.5065" gradientUnits="userSpaceOnUse">
				<stop  offset="0.9228" style="stop-color:#F6B000"/>
				<stop  offset="1" style="stop-color:#FFC800"/>
			</radialGradient>
			<path fill="url(#SVGID_8_)" d="M358.36,71.32c-0.17,0.13-1.01-0.31-1.73-1.1c-0.72-0.79-2.79-2.4-3.26-2.66
				c-1.04-0.56-1.45-0.69-1.69-0.77c-0.25-0.08-1.09-0.2-0.84-0.48c0.25-0.28,1.5-0.93,3.33-0.06c1.83,0.87,2.56,1.72,3.33,2.76
				C358.26,70.04,358.62,71.12,358.36,71.32z"/>
			<path opacity="0.5" fill="#DF9400" d="M357.92,70.95c-0.43-0.28-1.61-2.14-3.69-3.46c-1.78-1.13-2.6-1.3-3.08-1.39
				c-0.15,0.08-0.26,0.16-0.32,0.22c-0.25,0.27,0.59,0.4,0.84,0.48c0.25,0.08,0.66,0.21,1.69,0.77c0.47,0.26,2.55,1.87,3.26,2.66
				c0.72,0.79,1.56,1.23,1.73,1.1c0.04-0.03,0.06-0.08,0.07-0.14C358.29,71.14,358.11,71.07,357.92,70.95z"/>
			<path opacity="0.5" fill="#DF9400" d="M362.14,68.98c0.06,0,0.08-0.06,0.07-0.18c-0.14-0.05-0.38-0.15-0.49-0.29
				c-0.16-0.21-1.09-1.94-2.96-3.23c-1.19-0.82-2.53-1.26-3.34-1.47c-0.3,0.08-0.42,0.2-0.42,0.2s2.11,0.42,3.54,1.51
				c1.44,1.09,2.08,1.88,2.8,2.78C361.35,68.3,361.74,68.98,362.14,68.98z"/>
		</g>
	</g>
</g>
</svg>
