<?xml version="1.0" encoding="iso-8859-1"?>
<!-- Generator: Adobe Illustrator 26.0.3, SVG Export Plug-In . SVG Version: 6.00 Build 0)  -->
<!DOCTYPE svg PUBLIC "-//W3C//DTD SVG 1.1//EN" "http://www.w3.org/Graphics/SVG/1.1/DTD/svg11.dtd" [
	<!ENTITY ns_extend "http://ns.adobe.com/Extensibility/1.0/">
	<!ENTITY ns_ai "http://ns.adobe.com/AdobeIllustrator/10.0/">
	<!ENTITY ns_graphs "http://ns.adobe.com/Graphs/1.0/">
	<!ENTITY ns_vars "http://ns.adobe.com/Variables/1.0/">
	<!ENTITY ns_imrep "http://ns.adobe.com/ImageReplacement/1.0/">
	<!ENTITY ns_sfw "http://ns.adobe.com/SaveForWeb/1.0/">
	<!ENTITY ns_custom "http://ns.adobe.com/GenericCustomNamespace/1.0/">
	<!ENTITY ns_adobe_xpath "http://ns.adobe.com/XPath/1.0/">
]>
<svg version="1.1" id="Layer_1" xmlns:x="&ns_extend;" xmlns:i="&ns_ai;" xmlns:graph="&ns_graphs;"
	 xmlns="http://www.w3.org/2000/svg" xmlns:xlink="http://www.w3.org/1999/xlink" x="0px" y="0px" viewBox="0 0 3000 2000"
	 style="enable-background:new 0 0 3000 2000;" xml:space="preserve">
<style type="text/css">
	.st0{clip-path:url(#SVGID_00000057112738583906611840000011735185992744433292_);fill:#EDDCC3;}
	.st1{opacity:8.000000e-02;clip-path:url(#SVGID_00000057112738583906611840000011735185992744433292_);fill:#32323F;}
	.st2{clip-path:url(#SVGID_00000057112738583906611840000011735185992744433292_);}
	.st3{fill:#DB9507;}
	.st4{fill:#F4AD00;}
	.st5{fill:none;stroke:#DB9507;stroke-width:3.123;stroke-miterlimit:10;}
	.st6{fill:#E58B0A;}
	.st7{fill:none;stroke:#DB9507;stroke-width:2.8454;stroke-miterlimit:10;}
	.st8{fill:none;stroke:#DB9507;stroke-width:3.096;stroke-miterlimit:10;}
	.st9{fill:none;stroke:#DB9507;stroke-width:3.2774;stroke-miterlimit:10;}
	.st10{fill:none;stroke:#DB9507;stroke-width:3.0439;stroke-miterlimit:10;}
	
		.st11{clip-path:url(#SVGID_00000057112738583906611840000011735185992744433292_);fill:url(#SVGID_00000029736977449053316040000008119060044883262127_);}
	
		.st12{opacity:0.64;clip-path:url(#SVGID_00000057112738583906611840000011735185992744433292_);fill:#EA7D8C;enable-background:new    ;}
	.st13{clip-path:url(#SVGID_00000057112738583906611840000011735185992744433292_);fill:#D86477;}
	.st14{opacity:0.67;fill:#D1596F;}
	.st15{fill:#E8778A;enable-background:new    ;}
	.st16{fill:#D1596F;}
	.st17{opacity:0.42;clip-path:url(#SVGID_00000057112738583906611840000011735185992744433292_);}
	.st18{fill:none;stroke:#FFFFFF;stroke-width:39.2436;stroke-linecap:round;stroke-miterlimit:10;}
	.st19{fill:#97979E;}
	.st20{fill:#7C7C89;}
	.st21{fill:#595966;}
	.st22{fill:#3B3B4C;}
	.st23{opacity:0.7;fill:#FFFFFF;}
	.st24{opacity:0.57;fill:#FFFFFF;}
	.st25{fill:#474756;}
	.st26{fill:none;stroke:#DB9507;stroke-width:3.0602;stroke-miterlimit:10;}
	.st27{fill:none;stroke:#DB9507;stroke-width:3.4258;stroke-miterlimit:10;}
	.st28{clip-path:url(#SVGID_00000057112738583906611840000011735185992744433292_);fill:#FFFFFF;}
	.st29{fill:#EFAEA6;}
	.st30{opacity:0.14;fill:#1F1F3B;}
	.st31{fill:#1F1F3B;}
	.st32{fill:#FFFFFF;}
	.st33{fill:#3B3B4D;}
	.st34{opacity:0.46;fill:#1F1F3B;}
	.st35{opacity:0.54;fill:#1F1F3B;}
	.st36{opacity:0.35;fill:#1F1F3B;}
	.st37{fill:#0069A8;}
	.st38{fill:#E79E9C;}
	.st39{opacity:0.18;fill:#1F1F3B;}
	.st40{opacity:0.18;fill:#1F1F39;}
	.st41{opacity:0.28;fill:#1F1F39;}
	.st42{opacity:0.57;fill:none;stroke:#FFFFFF;stroke-width:14;stroke-linecap:round;stroke-linejoin:round;stroke-miterlimit:10;}
	.st43{clip-path:url(#SVGID_00000057112738583906611840000011735185992744433292_);fill:#7C7C89;}
	.st44{clip-path:url(#SVGID_00000057112738583906611840000011735185992744433292_);fill:#595966;}
	.st45{clip-path:url(#SVGID_00000057112738583906611840000011735185992744433292_);fill:#3B3B4C;}
	.st46{opacity:0.7;clip-path:url(#SVGID_00000057112738583906611840000011735185992744433292_);fill:#FFFFFF;}
	.st47{clip-path:url(#SVGID_00000057112738583906611840000011735185992744433292_);fill:#97979E;}
	.st48{opacity:0.28;clip-path:url(#SVGID_00000057112738583906611840000011735185992744433292_);fill:#1F1F39;}
	.st49{opacity:0.18;clip-path:url(#SVGID_00000057112738583906611840000011735185992744433292_);fill:#1F1F3B;}
	
		.st50{opacity:0.57;clip-path:url(#SVGID_00000057112738583906611840000011735185992744433292_);fill:none;stroke:#FFFFFF;stroke-width:14;stroke-linecap:round;stroke-linejoin:round;stroke-miterlimit:10;}
	.st51{clip-path:url(#SVGID_00000057112738583906611840000011735185992744433292_);fill:none;}
	.st52{opacity:0.57;clip-path:url(#SVGID_00000057112738583906611840000011735185992744433292_);fill:#FFFFFF;}
</style>
<metadata>
	<sfw  xmlns="&ns_sfw;">
		<slices></slices>
		<sliceSourceBounds  bottomLeftOrigin="true" height="2916.1" width="3234" x="-155.5" y="-2000"></sliceSourceBounds>
	</sfw>
</metadata>
<g>
	<defs>
		<rect id="SVGID_1_" x="0" width="3000" height="2000"/>
	</defs>
	<clipPath id="SVGID_00000000189571039176328980000002904828379944718227_">
		<use xlink:href="#SVGID_1_"  style="overflow:visible;"/>
	</clipPath>
	
		<rect x="0" style="clip-path:url(#SVGID_00000000189571039176328980000002904828379944718227_);fill:#EDDCC3;" width="3000" height="2000"/>
	<path style="opacity:8.000000e-02;clip-path:url(#SVGID_00000000189571039176328980000002904828379944718227_);fill:#32323F;" d="
		M1007.3,1870c0,9.1,283.2,19.6,609.6,19.6s590.9-7.4,590.9-16.5c0-9.1-264.5-16.5-590.9-16.5S1007.3,1860.9,1007.3,1870z"/>
	<g style="clip-path:url(#SVGID_00000000189571039176328980000002904828379944718227_);">
		<g>
			<path class="st3" d="M1528.8,918.2c23.7-29,45.4-51.7,6.7-80.3c-20.3-15-55.4-4.4-79.1,24.5c-23.7,29-25.8,63.9-6.7,80.3
				C1483,971.3,1505.1,947.2,1528.8,918.2z"/>
			
				<ellipse transform="matrix(0.6512 -0.7589 0.7589 0.6512 -157.0473 1452.0745)" class="st4" cx="1501.2" cy="896.9" rx="67.8" ry="45.6"/>
			
				<ellipse transform="matrix(0.6512 -0.7589 0.7589 0.6512 -157.0459 1452.0786)" class="st5" cx="1501.2" cy="896.9" rx="55.5" ry="37.4"/>
		</g>
		<g>
			<g transform="matrix(0.913873,-0.406001,0.406001,0.913873,-1092.67,477.809)">
				<path class="st6" d="M2197.7,1458.3c-3.9,2.1-7.8,3.3-11.8,3.5c-4,0.3-7.7-0.4-11.2-2.1c-3.5-1.7-6.4-4.4-8.7-8
					c-2.8-4.4-3.9-8.6-3.3-12.7c0.4-2.9,1.7-5.8,3.7-8.6c2.1-2.8,4.5-4.9,7.2-6.4c1.6-0.8,3.2-1.2,4.8-1c1.6,0.2,2.8,0.8,3.5,2
					c0.6,0.9,0.7,2,0.2,3.1c-0.5,1.1-1.4,2.4-2.8,3.8c-1.7,1.7-3,3.2-4,4.6c-1,1.4-1.5,2.9-1.6,4.6c-0.1,1.7,0.4,3.5,1.7,5.4
					c1.7,2.7,4,4.3,6.8,5c2.9,0.7,5.6,0.3,8.3-1.1c2.1-1.1,3.6-2.5,4.3-4.1c0.8-1.6,1-3.3,0.8-5.1c-0.2-1.8-0.7-4.1-1.4-6.9
					c-1-3.8-1.4-7.1-1.3-10s0.9-5.7,2.6-8.3c1.7-2.6,4.4-4.9,8.1-6.9c3.5-1.9,7.1-2.9,10.7-3.1c3.6-0.1,6.9,0.6,10,2.4
					c3.1,1.7,5.7,4.3,7.9,7.7c1.7,2.7,2.8,5.3,3.1,7.8c0.3,2.5,0.1,4.8-0.7,7c-0.8,2.2-1.9,4-3.3,5.6c-1.4,1.6-2.9,2.8-4.6,3.7
					c-1.5,0.8-3.2,1.2-4.9,1.1s-3-0.7-3.7-1.8c-0.7-1-0.8-2-0.4-2.9c0.4-0.9,1.2-2.2,2.5-3.7c1.9-2.1,3.2-4.1,3.8-5.9
					c0.6-1.8,0.1-4-1.5-6.5c-1.5-2.3-3.4-3.8-5.8-4.4c-2.4-0.6-4.6-0.4-6.7,0.7c-1.3,0.7-2.2,1.5-2.9,2.5c-0.6,1-1,2.1-1.1,3.3
					c-0.1,1.2-0.1,2.3,0.1,3.4c0.2,1.1,0.5,2.8,1.1,5.2c0.8,2.9,1.3,5.7,1.5,8.3c0.3,2.6,0.1,4.9-0.4,7.1c-0.5,2.2-1.7,4.3-3.4,6.3
					C2203.4,1454.7,2200.9,1456.6,2197.7,1458.3z"/>
			</g>
			<g transform="matrix(0.913873,-0.406001,0.406001,0.913873,-1092.67,477.809)">
				<path class="st6" d="M2159.5,1457.8l-3-4.7c-0.5-0.8,0-2,1.2-2.7l79.6-42.6c1.2-0.6,2.6-0.5,3.1,0.3l3,4.7c0.5,0.8,0,2-1.2,2.7
					l-79.6,42.6C2161.4,1458.8,2160,1458.7,2159.5,1457.8z"/>
			</g>
		</g>
	</g>
	<g style="clip-path:url(#SVGID_00000000189571039176328980000002904828379944718227_);">
		<g>
			<path class="st3" d="M1379.2,823.4c-13-35.1-21.7-65.3-66-46.4c-23.2,9.9-31.8,45.6-18.7,80.6c13,35.1,42.1,54.6,66,46.4
				C1401.8,889.7,1392.2,858.4,1379.2,823.4z"/>
			
				<ellipse transform="matrix(0.9452 -0.3265 0.3265 0.9452 -199.287 485.5231)" class="st4" cx="1346.8" cy="836.5" rx="45.6" ry="67.8"/>
			
				<ellipse transform="matrix(0.9452 -0.3265 0.3265 0.9452 -199.2873 485.5243)" class="st5" cx="1346.8" cy="836.5" rx="37.4" ry="55.5"/>
		</g>
		<g>
			<g transform="matrix(0.913873,-0.406001,0.406001,0.913873,-1092.67,477.809)">
				<path class="st6" d="M2101.6,1331.7c-0.2,4.4-1.1,8.4-2.9,12c-1.8,3.6-4.3,6.4-7.5,8.5c-3.2,2.1-7,3.3-11.3,3.5
					c-5.2,0.2-9.4-0.9-12.7-3.5c-2.3-1.8-4.2-4.4-5.5-7.6c-1.4-3.2-2-6.3-1.9-9.4c0.1-1.8,0.6-3.3,1.5-4.7c0.9-1.3,2.1-2,3.5-2.1
					c1.1,0,2.1,0.4,2.8,1.4c0.7,1,1.3,2.4,1.8,4.3c0.6,2.3,1.2,4.2,1.9,5.7c0.7,1.5,1.8,2.8,3.1,3.7c1.4,1,3.2,1.4,5.5,1.3
					c3.1-0.1,5.7-1.3,7.8-3.4c2-2.1,3.1-4.7,3.2-7.7c0.1-2.4-0.4-4.4-1.4-5.8c-1-1.5-2.3-2.6-4-3.3c-1.7-0.7-3.9-1.5-6.6-2.2
					c-3.7-1.1-6.8-2.4-9.3-3.9s-4.4-3.7-5.8-6.4c-1.4-2.8-2-6.2-1.8-10.5c0.1-4,1.1-7.6,2.8-10.8c1.7-3.2,4.1-5.7,7.1-7.5
					c3-1.8,6.6-2.8,10.6-3c3.2-0.1,6,0.3,8.3,1.3c2.3,1,4.2,2.4,5.7,4.2c1.5,1.8,2.5,3.6,3.2,5.6c0.6,2,0.9,3.9,0.9,5.9
					c-0.1,1.8-0.6,3.4-1.5,4.8c-0.9,1.4-2.1,2.2-3.4,2.3c-1.2,0.1-2.1-0.3-2.7-1.1c-0.6-0.8-1.2-2.2-1.9-4.1
					c-0.9-2.7-1.9-4.8-3.2-6.3c-1.3-1.5-3.4-2.2-6.4-2c-2.7,0.1-5,1-6.7,2.8c-1.7,1.7-2.7,3.8-2.7,6.1c-0.1,1.5,0.2,2.7,0.7,3.7
					c0.5,1,1.3,1.9,2.3,2.6c1,0.7,2,1.3,3,1.7c1,0.4,2.7,0.9,5,1.7c2.9,0.8,5.6,1.8,7.9,2.8c2.4,1.1,4.3,2.4,6,4
					c1.6,1.6,2.9,3.6,3.7,6.1C2101.4,1324.9,2101.8,1328,2101.6,1331.7z"/>
			</g>
			<g transform="matrix(0.913873,-0.406001,0.406001,0.913873,-1092.67,477.809)">
				<path class="st6" d="M2081.9,1364.4l-5.6,0.2c-1,0-1.7-1-1.7-2.4l3.4-90.2c0-1.4,0.9-2.5,1.9-2.5l5.6-0.2c1,0,1.7,1,1.7,2.4
					l-3.4,90.2C2083.7,1363.2,2082.9,1364.3,2081.9,1364.4z"/>
			</g>
		</g>
	</g>
	<g style="clip-path:url(#SVGID_00000000189571039176328980000002904828379944718227_);">
		<g>
			<path class="st3" d="M1472.4,785.8c-11.9-32-19.7-59.5-60.1-42.2c-21.1,9-28.9,41.5-17.1,73.5c11.9,32,38.4,49.7,60.1,42.2
				C1493.1,846.3,1484.3,817.8,1472.4,785.8z"/>
			
				<ellipse transform="matrix(0.9452 -0.3265 0.3265 0.9452 -181.3917 514.7976)" class="st4" cx="1442.9" cy="797.8" rx="41.6" ry="61.7"/>
			
				<ellipse transform="matrix(0.9452 -0.3265 0.3265 0.9452 -181.391 514.7936)" class="st7" cx="1442.9" cy="797.8" rx="34" ry="50.5"/>
		</g>
		<g>
			<g transform="matrix(0.913873,-0.406001,0.406001,0.913873,-1092.67,477.809)">
				<path class="st6" d="M2203.6,1334.2c-0.1,4-1,7.6-2.6,10.9c-1.6,3.3-3.9,5.9-6.8,7.8c-2.9,1.9-6.4,3-10.3,3.2
					c-4.7,0.2-8.6-0.9-11.5-3.2c-2.1-1.7-3.8-4-5-6.9c-1.2-2.9-1.8-5.8-1.7-8.6c0.1-1.6,0.5-3,1.4-4.2c0.9-1.2,1.9-1.8,3.2-1.9
					c1,0,1.9,0.4,2.5,1.2c0.7,0.9,1.2,2.2,1.7,3.9c0.5,2.1,1.1,3.8,1.8,5.2c0.7,1.4,1.6,2.5,2.9,3.4c1.2,0.9,2.9,1.3,5,1.2
					c2.9-0.1,5.2-1.2,7.1-3.1c1.9-1.9,2.8-4.3,2.9-7.1c0.1-2.2-0.3-4-1.2-5.3c-0.9-1.3-2.1-2.3-3.6-3c-1.5-0.7-3.5-1.3-6.1-2
					c-3.4-1-6.2-2.1-8.5-3.5c-2.3-1.4-4-3.3-5.3-5.9c-1.3-2.5-1.8-5.7-1.7-9.5c0.1-3.6,1-6.9,2.5-9.8c1.5-2.9,3.7-5.2,6.5-6.8
					c2.8-1.6,6-2.5,9.7-2.7c2.9-0.1,5.4,0.3,7.6,1.2c2.1,0.9,3.8,2.2,5.2,3.8c1.4,1.6,2.3,3.3,2.9,5.1c0.6,1.8,0.8,3.6,0.8,5.3
					c-0.1,1.6-0.5,3.1-1.4,4.4c-0.9,1.3-1.9,2-3.1,2.1c-1.1,0-1.9-0.3-2.5-1c-0.5-0.7-1.1-2-1.7-3.7c-0.8-2.5-1.7-4.4-2.9-5.7
					c-1.2-1.3-3.1-2-5.8-1.8c-2.5,0.1-4.5,1-6.1,2.5s-2.4,3.5-2.5,5.6c0,1.3,0.2,2.5,0.7,3.4c0.5,0.9,1.2,1.7,2.1,2.4
					c0.9,0.7,1.8,1.2,2.7,1.5c0.9,0.4,2.4,0.9,4.6,1.5c2.7,0.8,5.1,1.6,7.2,2.6c2.1,1,4,2.2,5.4,3.6c1.5,1.4,2.6,3.3,3.4,5.6
					C2203.4,1328,2203.7,1330.8,2203.6,1334.2z"/>
			</g>
			<g transform="matrix(0.913873,-0.406001,0.406001,0.913873,-1092.67,477.809)">
				<path class="st6" d="M2185.7,1364l-5.1,0.2c-0.9,0-1.6-0.9-1.5-2.2l3.1-82.2c0-1.2,0.8-2.3,1.7-2.3l5.1-0.2
					c0.9,0,1.6,0.9,1.5,2.2l-3.1,82.2C2187.3,1362.9,2186.6,1363.9,2185.7,1364z"/>
			</g>
		</g>
	</g>
	<g style="clip-path:url(#SVGID_00000000189571039176328980000002904828379944718227_);">
		<g>
			<path class="st3" d="M1504.3,679.6c0,37,2.4,67.9-45.4,66.9c-25.1-0.5-45.4-30-45.4-66.9c0-37,20.4-65.6,45.4-66.9
				C1502.4,610.5,1504.3,642.7,1504.3,679.6z"/>
			<ellipse class="st4" cx="1469.6" cy="679.6" rx="45.4" ry="66.9"/>
			<ellipse class="st8" cx="1469.6" cy="679.6" rx="37.2" ry="54.8"/>
		</g>
		<g>
			<g transform="matrix(0.913873,-0.406001,0.406001,0.913873,-1092.67,477.809)">
				<path class="st6" d="M2273.1,1245.3c-1.8,4-4.2,7.3-7.2,9.9c-3,2.6-6.4,4.4-10.2,5.1c-3.8,0.8-7.7,0.5-11.8-0.8
					c-4.9-1.6-8.4-4.2-10.5-7.7c-1.5-2.5-2.2-5.5-2.3-8.9c-0.1-3.4,0.5-6.5,1.8-9.2c0.7-1.6,1.8-2.8,3.2-3.7c1.4-0.9,2.7-1.1,4-0.6
					c1.1,0.4,1.8,1.1,2.1,2.2c0.3,1.1,0.3,2.7,0.1,4.6c-0.3,2.3-0.4,4.3-0.3,5.9c0.1,1.6,0.6,3.1,1.5,4.5c0.9,1.4,2.5,2.4,4.6,3.1
					c3,1,5.8,0.9,8.5-0.3c2.7-1.2,4.7-3.2,5.9-5.9c1-2.2,1.3-4.1,0.9-5.8c-0.4-1.7-1.2-3.2-2.5-4.4c-1.3-1.2-3-2.7-5.3-4.4
					c-3.1-2.3-5.5-4.6-7.2-6.8s-2.7-4.9-3-7.9c-0.2-3,0.5-6.4,2.2-10.2c1.6-3.6,3.9-6.6,6.6-8.9c2.8-2.3,5.9-3.7,9.4-4.3
					c3.5-0.6,7.2-0.2,11,1.1c3,1,5.5,2.4,7.2,4.1s3,3.7,3.7,5.8c0.7,2.1,1,4.2,0.8,6.3c-0.2,2-0.6,3.9-1.4,5.7
					c-0.7,1.6-1.8,2.9-3.2,3.8c-1.4,1-2.8,1.3-4,0.8c-1.2-0.4-1.9-1.1-2.1-2c-0.3-1-0.3-2.4-0.2-4.4c0.2-2.8,0-5.1-0.6-6.9
					c-0.6-1.8-2.4-3.2-5.2-4.1c-2.6-0.9-5-0.8-7.3,0.2c-2.3,1-3.9,2.5-4.9,4.6c-0.6,1.3-0.8,2.5-0.7,3.7c0.1,1.1,0.5,2.2,1.1,3.2
					c0.6,1,1.3,1.9,2.1,2.6c0.8,0.7,2.1,1.8,4,3.3c2.4,1.8,4.5,3.6,6.3,5.4c1.8,1.8,3.1,3.7,4.1,5.7c0.9,2,1.3,4.3,1.1,6.9
					C2275.4,1239.1,2274.6,1242,2273.1,1245.3z"/>
			</g>
			<g transform="matrix(0.913873,-0.406001,0.406001,0.913873,-1092.67,477.809)">
				<path class="st6" d="M2242.4,1268.2l-5.3-1.8c-0.9-0.3-1.2-1.5-0.7-2.8l37.1-81.1c0.6-1.2,1.8-2,2.7-1.7l5.3,1.8
					c0.9,0.3,1.2,1.5,0.7,2.8l-37.1,81.1C2244.5,1267.7,2243.3,1268.5,2242.4,1268.2z"/>
			</g>
		</g>
	</g>
	<g style="clip-path:url(#SVGID_00000000189571039176328980000002904828379944718227_);">
		<g>
			<path class="st3" d="M1368.2,927c23.9-31.2,41.9-58.8,80.4-26.2c20.2,17.1,17.8,55.5-6.1,86.7c-23.9,31.2-59.1,41.8-80.4,26.2
				C1325,986.6,1344.3,958.2,1368.2,927z"/>
			
				<ellipse transform="matrix(0.5895 -0.8078 0.8078 0.5895 -194.1877 1518.208)" class="st4" cx="1396.6" cy="950.2" rx="71.1" ry="47.9"/>
			
				<ellipse transform="matrix(0.5895 -0.8078 0.8078 0.5895 -194.1885 1518.2058)" class="st9" cx="1396.6" cy="950.2" rx="58.2" ry="39.2"/>
		</g>
		<g>
			<g transform="matrix(0.913873,-0.406001,0.406001,0.913873,-1092.67,477.809)">
				<path class="st6" d="M2085.7,1416.1c4.1-2.2,8.2-3.4,12.4-3.7c4.2-0.3,8.1,0.5,11.7,2.3c3.6,1.8,6.7,4.6,9.1,8.4
					c2.9,4.6,4.1,9,3.5,13.3c-0.5,3.1-1.8,6.1-4,9c-2.2,2.9-4.7,5.1-7.6,6.7c-1.7,0.9-3.3,1.2-5,1.1c-1.7-0.2-2.9-0.9-3.7-2.1
					c-0.6-1-0.7-2.1-0.2-3.3c0.5-1.2,1.5-2.5,3-3.9c1.8-1.7,3.2-3.3,4.2-4.8c1-1.5,1.6-3,1.7-4.8c0.1-1.7-0.4-3.6-1.7-5.7
					c-1.8-2.8-4.2-4.5-7.2-5.3c-3-0.7-5.9-0.4-8.7,1.1c-2.2,1.2-3.8,2.6-4.6,4.3c-0.8,1.7-1.1,3.5-0.9,5.3c0.2,1.9,0.7,4.3,1.5,7.2
					c1,3.9,1.4,7.4,1.4,10.5c-0.1,3.1-1,5.9-2.8,8.7c-1.8,2.7-4.6,5.1-8.5,7.2c-3.7,2-7.5,3-11.2,3.2c-3.8,0.1-7.3-0.7-10.5-2.5
					c-3.2-1.8-6-4.5-8.3-8.1c-1.8-2.9-2.9-5.6-3.2-8.2c-0.3-2.6,0-5.1,0.8-7.4c0.8-2.3,2-4.2,3.4-5.9c1.5-1.6,3.1-2.9,4.9-3.9
					c1.6-0.9,3.3-1.2,5.2-1.1c1.8,0.1,3.1,0.7,3.8,1.9c0.7,1.1,0.8,2.1,0.4,3.1c-0.4,1-1.3,2.3-2.7,3.9c-2,2.2-3.3,4.3-4,6.2
					c-0.7,1.9-0.2,4.2,1.5,6.8c1.6,2.4,3.6,4,6.1,4.6c2.5,0.7,4.8,0.4,7-0.7c1.4-0.7,2.4-1.6,3-2.6c0.7-1,1.1-2.2,1.2-3.4
					c0.1-1.3,0.1-2.5-0.1-3.6c-0.2-1.1-0.6-2.9-1.1-5.4c-0.8-3.1-1.3-6-1.6-8.7c-0.3-2.7-0.1-5.2,0.5-7.5c0.6-2.3,1.8-4.5,3.6-6.6
					C2079.7,1419.9,2082.3,1417.9,2085.7,1416.1z"/>
			</g>
			<g transform="matrix(0.913873,-0.406001,0.406001,0.913873,-1092.67,477.809)">
				<path class="st6" d="M2125.8,1416.8l3.2,5c0.6,0.9,0,2.1-1.3,2.8l-83.7,44.4c-1.3,0.7-2.7,0.5-3.3-0.4l-3.2-5
					c-0.6-0.9,0-2.1,1.3-2.8l83.7-44.4C2123.8,1415.8,2125.2,1415.9,2125.8,1416.8z"/>
			</g>
		</g>
	</g>
	<g style="clip-path:url(#SVGID_00000000189571039176328980000002904828379944718227_);">
		<g>
			<path class="st3" d="M1542.9,817.7c0,40.3-2.2,74,40.3,72.9c22.2-0.5,40.3-32.7,40.3-72.9c0-40.3-18.1-71.5-40.3-72.9
				C1544.6,742.3,1542.9,777.4,1542.9,817.7z"/>
			<ellipse class="st4" cx="1573.7" cy="817.7" rx="40.3" ry="72.9"/>
			<ellipse class="st10" cx="1573.7" cy="817.7" rx="33" ry="59.7"/>
		</g>
		<g>
			<g transform="matrix(0.913873,-0.406001,0.406001,0.913873,-1092.67,477.809)">
				<path class="st6" d="M2309.7,1414c-2,4.3-4.4,8-7.4,11c-3,3-6.2,5.1-9.8,6.2c-3.6,1.1-7.2,1.1-10.8,0c-4.4-1.4-7.4-3.8-9-7.3
					c-1.2-2.5-1.6-5.6-1.4-9.2c0.2-3.6,1-6.9,2.3-9.9c0.8-1.8,1.9-3.1,3.2-4.2c1.3-1,2.6-1.3,3.7-1c0.9,0.3,1.5,1,1.7,2.2
					c0.2,1.2,0.1,2.8-0.3,4.9c-0.5,2.5-0.7,4.5-0.8,6.3c0,1.7,0.3,3.3,1.1,4.6c0.7,1.4,2.1,2.3,4,2.9c2.7,0.8,5.3,0.5,7.9-1
					c2.6-1.5,4.5-3.7,5.9-6.7c1.1-2.4,1.5-4.4,1.3-6.2c-0.2-1.8-0.9-3.2-1.9-4.5c-1.1-1.2-2.6-2.6-4.6-4.2c-2.7-2.2-4.7-4.4-6.1-6.7
					c-1.4-2.3-2.1-5-2.1-8.2c0-3.2,0.9-6.8,2.8-10.9c1.8-3.9,4-7.2,6.8-9.9c2.7-2.6,5.7-4.4,9-5.3c3.3-0.9,6.6-0.8,10,0.3
					c2.7,0.8,4.8,2.1,6.3,3.8c1.5,1.7,2.5,3.7,3,5.9c0.5,2.2,0.6,4.4,0.3,6.6c-0.3,2.2-0.9,4.2-1.7,6.1c-0.8,1.7-1.9,3.2-3.3,4.3
					s-2.6,1.5-3.8,1.2c-1-0.3-1.6-1-1.8-2c-0.2-1-0.1-2.5,0.1-4.6c0.4-2.9,0.4-5.3,0-7.2c-0.4-1.9-1.9-3.2-4.4-3.9
					c-2.3-0.7-4.6-0.5-6.7,0.7c-2.2,1.2-3.8,3-4.8,5.3c-0.6,1.4-1,2.7-1,3.9c0,1.2,0.3,2.3,0.8,3.3c0.5,1,1.1,1.9,1.8,2.5
					c0.7,0.7,1.8,1.8,3.5,3.2c2.1,1.7,3.9,3.5,5.4,5.2c1.5,1.8,2.6,3.7,3.3,5.7c0.7,2.1,0.9,4.5,0.5,7.2
					C2312.3,1407.2,2311.3,1410.4,2309.7,1414z"/>
			</g>
			<g transform="matrix(0.913873,-0.406001,0.406001,0.913873,-1092.67,477.809)">
				<path class="st6" d="M2279.8,1440.4l-4.8-1.5c-0.8-0.3-1-1.5-0.4-2.9l40.3-88.5c0.6-1.3,1.8-2.2,2.6-1.9l4.8,1.5
					c0.8,0.3,1,1.5,0.4,2.9l-40.3,88.5C2281.8,1439.8,2280.6,1440.7,2279.8,1440.4z"/>
			</g>
		</g>
	</g>
	
		<linearGradient id="SVGID_00000068639277271650094180000009006107017901733292_" gradientUnits="userSpaceOnUse" x1="1454.448" y1="1943.7957" x2="1474.3838" y2="1005.9888">
		<stop  offset="0.2986" style="stop-color:#EF8C95"/>
		<stop  offset="0.2995" style="stop-color:#EF8C95"/>
		<stop  offset="0.6718" style="stop-color:#F5B6B3"/>
		<stop  offset="0.9078" style="stop-color:#F7C6BE"/>
	</linearGradient>
	
		<path style="clip-path:url(#SVGID_00000000189571039176328980000002904828379944718227_);fill:url(#SVGID_00000068639277271650094180000009006107017901733292_);" d="
		M1865.5,1443.7c-0.3,18.4-1.3,36.8-3.4,54.9c-10.7,91.7-47.8,176-139.8,218.4c-0.7,0.3-1.4,0.7-2.1,1c0,0,0,0,0,0.1l0.2,2.5
		c0,0.6,0.1,1.2,0.1,1.9c0,0.7,0.1,1.5,0.2,2.4l0.1,1.4c0.1,1.2,0.2,2.5,0.3,3.8l0.1,1.7l0.1,1.8l0.1,1.9l0.3,3.9l0.1,2.1
		c0.1,1.7,0.2,3.5,0.4,5.4l0.1,1.1l0.2,3.4l0.5,7.2l0.2,2.3l0.7,9.8l0.3,4.9l0.5,7.3c0,0.7,0.1,1.4,0.1,2.1l0.2,2.7
		c0.1,1.1,0.2,2.3,0.2,3.4l0.2,2.3c0.1,0.8,0.1,1.5,0.2,2.2l0.2,3.2c0.1,0.7,0.1,1.4,0.1,2.1c0,0.7,0.1,1.4,0.1,2l0.1,2
		c0,0.6,0.1,1.3,0.1,1.9c0.1,1.2,0.2,2.4,0.2,3.5c0,0.6,0.1,1.1,0.1,1.7l0.1,0.8c0.1,1.6,0.2,3,0.3,4.2l0.1,1.2c0,0.4,0,0.7,0.1,1.1
		l0.2,2.2c0,0.2,0,0.4,0,0.6v0.1c0,0.2,0,0.3,0,0.5l0.1,0.7c0.1,1.4,0.1,2.9,0.1,4.3c0,0.5,0,0.9-0.1,1.4c0,0.1,0,0.2,0,0.2
		c0,0.4,0,0.7-0.1,1.1c0,0.1,0,0.1,0,0.2c0,0.3,0,0.5-0.1,0.8c0,0.1,0,0.1,0,0.2c0,0.3-0.1,0.5-0.1,0.8c-0.1,0.5-0.1,1-0.2,1.6
		c-0.1,0.4-0.1,0.8-0.2,1.2c0,0.1,0,0.2-0.1,0.3c-0.1,0.5-0.2,1-0.3,1.5c-0.1,0.5-0.2,1-0.4,1.5c-1.2,4.5-3.1,8.9-5.7,13
		c-0.1,0.2-0.2,0.3-0.3,0.5c-3.1,5.1-7.2,9.4-12,12.8c0,0,0,0-0.1,0.1c-7.7,5.4-17.1,8.7-26.9,10.1c-4.1,0.6-8.3,0.8-12.4,0.8
		c-0.3,0-0.5,0-0.8,0c-20.6,1.3-39.1-9.2-48.4-25.4c-0.1-0.2-0.3-0.5-0.4-0.7c-0.2-0.3-0.3-0.6-0.5-0.9c-0.1-0.2-0.2-0.5-0.4-0.7
		c-0.2-0.4-0.4-0.7-0.5-1.1c-0.2-0.5-0.5-1-0.7-1.5v0c-0.4-1.8-1.7-6.3-3.3-12.3c-3-10.9-7.6-26.8-11.9-41.6l0-0.1
		c-5-17.4-9.7-33.3-11.3-37.8h0c-11,2-22.1,3.7-33.3,5.2c-0.1,0-0.2,0-0.3,0c-24.3,3.3-48.9,5.3-73.4,6.3h-0.1
		c-20.3,0.8-40.6,0.8-60.7,0c-30-1.1-59.7-4-88.5-8.5h0c-2.7-0.4-5.5-0.8-8.3-1.3c-0.3-0.1-0.7-0.1-1-0.2c-4,11.5-7,25.6-10.6,40.1
		c-2.4,9.6-5,19.4-8.3,28.6c-5.9,16.4-13.9,31-26.7,40c-8.7,6.2-19.7,9.7-33.6,9.4l-0.7,0c-1.3,0-2.7-0.1-4-0.1
		c-3.6-0.1-7.3-0.4-11-0.8c-7.3-0.8-14.5-2.4-20.9-5.3c-0.1,0-0.2-0.1-0.2-0.1c-4-1.8-7.6-4.1-10.8-7.1c-0.1-0.1-0.2-0.1-0.2-0.2
		c0,0,0,0,0,0c-0.3-0.3-0.6-0.5-0.9-0.8c-3.5-3.1-6.4-6.7-8.7-10.6c0,0,0,0,0,0c-0.1-0.2-0.2-0.3-0.3-0.5c-4-6.8-6.3-14.6-6.6-22.4
		c0-0.3,0-0.5,0-0.8v0c-0.1-2.8,0.1-5.6,0.5-8.3l0.6-6.8c1.8-22,4-48.9,6-74.1l0.2-2c0.1-1.3,0.2-2.6,0.3-3.9l0.7-8.7l0.6-7.2
		l0.3-3.1l0.4-5.4l0.3-3.3l0.3-3.6l0.3-3.2v-0.1c-1.5-1-3.1-2-4.6-3.1c-15.1-10.2-28.6-21.7-40.7-34.3
		c-23.4-24.3-41.4-52.7-54.3-83.3c-0.1-0.3-0.3-0.7-0.4-1c-0.4-1-0.8-2-1.2-3c-0.2-0.5-0.4-0.9-0.6-1.4c0-0.1-0.1-0.3-0.1-0.4
		c0-0.1-0.1-0.2-0.1-0.3c-7.3-18.5-12.8-37.8-16.5-57.4h0c-24.4-116.4,5.9-246.5,87.5-333c24.8-25.5,22.6-59.8,13.5-91
		c-7.5-53.1,23.2-100.8,68.6-106.6c8.8-0.7,16.5-0.3,23.4,0.8c18.1,2.9,30.3,11,39.7,21c13.3,14.1,20.9,31.8,31.2,43.2
		c5.2,5.8,11.2,10,18.9,11.3c4,0.7,8.4,0.6,13.5-0.5c5.5-1.3,11.1-2.5,16.7-3.5c13.3-2.5,26.7-4.4,40.3-5.6c0.9-0.1,1.8-0.2,2.7-0.2
		c1-0.1,1.9-0.2,2.9-0.2c1-0.1,1.9-0.1,2.9-0.2c0.9-0.1,1.8-0.1,2.8-0.2c0.1,0,0.2,0,0.3,0c1.1-0.1,2.1-0.1,3.2-0.2
		c13.1-0.7,26.2-0.8,39.3-0.4c12,0.4,24,1.3,35.8,2.7c11.9,1.4,23.7,3.3,35.3,5.7c9.6,2,19.2,4.3,28.5,7c9.4,2.6,19.5-1.1,24.4-9.1
		c6.2-12.1,13.2-22.5,20.8-31.1c14.7-16.7,31.6-27,48.4-31.5c58-15.6,114.7,37.4,77.7,129.5c-14,26.4,14.9,53.2,47.2,97.8
		C1833.3,1264.5,1872,1333,1865.5,1443.7z"/>
	
		<path style="opacity:0.64;clip-path:url(#SVGID_00000000189571039176328980000002904828379944718227_);fill:#EA7D8C;enable-background:new    ;" d="
		M1727.3,1823.4c0.1,1.4,0.1,2.9,0.1,4.3c0,0.5,0,0.9-0.1,1.4c0,0.3,0,0.6-0.1,0.9c0,0.3,0,0.6-0.1,0.8c0,0.4-0.1,0.7-0.1,1.1
		c0,0.4-0.1,0.7-0.1,1.1c-0.1,0.7-0.2,1.4-0.4,2.1c-0.1,0.4-0.1,0.7-0.2,1c-4.4,21-23.2,37.3-46.8,38.8l-12,0.7
		c-22,1.4-41.7-10.7-50.1-28.8c-0.2-0.5-0.5-1-0.7-1.5c-0.4-1-0.8-2.1-1.2-3.2c-0.1-0.4-0.3-0.9-0.4-1.3c0-0.1-0.1-0.2-0.1-0.3
		c0-0.1-0.1-0.2-0.1-0.4c-0.1-0.4-0.2-0.7-0.3-1.1c-0.1-0.5-0.2-0.9-0.4-1.4c0,0,0,0,0,0c-0.1-0.2-0.1-0.5-0.2-0.7
		c0-0.2-0.1-0.5-0.1-0.7c-0.1-0.3-0.1-0.7-0.2-1c0-0.2-0.1-0.3-0.1-0.5c-0.1-0.4-0.1-0.8-0.2-1.2c0-0.1,0-0.2,0-0.3
		c0-0.2-0.1-0.4-0.1-0.7c0,0,0-0.1,0-0.1c0-0.3-0.1-0.7-0.1-1c0-0.2,0-0.3,0-0.5c0-0.1,0-0.2,0-0.3c0-0.1,0-0.2,0-0.3l-22.9-76.8
		l0,0c-0.9,0.2-1.9,0.3-2.8,0.5c-1.6,0.3-3.2,0.5-4.8,0.8c-0.3,0-0.6,0.1-0.9,0.1c-0.5,0.1-1,0.2-1.4,0.2c-1.4,0.2-2.8,0.4-4.2,0.7
		c-1.5,0.2-3.1,0.5-4.6,0.7c-1.2,0.2-2.4,0.4-3.6,0.6c-1.2,0.2-2.4,0.4-3.6,0.6c-0.2,0-0.4,0.1-0.6,0.1c-2,0.3-4.1,0.6-6.1,0.9
		c-6.1,0.9-12.2,1.7-18.5,2.5c-2.1,0.3-4.2,0.5-6.3,0.7c-0.8,0.1-1.6,0.2-2.3,0.3c-0.9,0.1-1.7,0.2-2.6,0.3c-2.3,0.2-4.6,0.5-7,0.7
		c-0.8,0.1-1.5,0.1-2.3,0.2c-0.1,0-0.1,0-0.2,0c-0.8,0.1-1.6,0.1-2.5,0.2c-0.2,0-0.5,0-0.8,0.1c-0.8,0.1-1.7,0.1-2.5,0.2l0,0
		c-1.2,0.1-2.4,0.2-3.6,0.2c-0.1,0-0.3,0-0.4,0c-1.4,0.1-2.7,0.2-4.1,0.2c-4.9,0.3-10,0.5-15.3,0.7c-1,0-2,0.1-3,0.1
		c-0.2,0-0.3,0-0.5,0c-0.9,0-1.8,0-2.6,0.1c-0.9,0-1.9,0-2.8,0.1c-1.6,0-3.2,0-4.8,0.1c-0.8,0-1.7,0-2.5,0c-2.4,0-4.9,0-7.4,0
		c-0.4,0-0.9,0-1.3,0c-0.4,0-0.9,0-1.3,0c-1.4,0-2.7,0-4.1,0c-0.8,0-1.5,0-2.3,0c-53.6-0.2-82.7,0.7-122.8-8.6c0,0,0,0,0,0
		c-2.6-0.6-5.3-1.3-8.1-2l-0.2,0.7l-21.6,74.3l0,0c-1.2,14.9-12.2,27.3-26.5,35c0,0-0.1,0.1-0.1,0.1c-9.9,5.3-21.4,8.4-32.4,8.5
		c-1.6,0-3.3,0-4.9-0.1l-12-0.9c-13.6-1-25.5-6.9-33.9-15.8c0,0-0.1-0.1-0.1-0.1c-0.6-0.7-1.2-1.3-1.8-2c-0.3-0.3-0.6-0.7-0.9-1
		c-0.3-0.4-0.6-0.7-0.8-1.1c-0.3-0.4-0.6-0.8-0.9-1.2c-0.1-0.2-0.3-0.4-0.4-0.6c-0.2-0.2-0.3-0.5-0.5-0.7c-0.3-0.5-0.6-1-0.9-1.4
		c-0.9-1.4-1.6-2.8-2.3-4.3c-0.1-0.2-0.2-0.3-0.2-0.5c-0.2-0.4-0.4-0.9-0.6-1.3c-0.2-0.5-0.4-0.9-0.6-1.4c-0.2-0.5-0.4-1.1-0.6-1.6
		c0-0.1-0.1-0.2-0.1-0.3c-0.1-0.4-0.3-0.8-0.4-1.2c0-0.1,0-0.1-0.1-0.2c0-0.1,0-0.1-0.1-0.2c-0.1-0.4-0.2-0.8-0.3-1.1
		c-0.1-0.2-0.1-0.3-0.1-0.5c0-0.1,0-0.2-0.1-0.2c-0.1-0.5-0.3-1.1-0.4-1.6c0-0.1-0.1-0.2-0.1-0.3c0-0.2-0.1-0.3-0.1-0.5
		c-0.3-1.3-0.5-2.6-0.6-3.9c0-0.1,0-0.3-0.1-0.4c0-0.1,0-0.1,0-0.2c-0.1-1.3-0.2-2.6-0.2-3.9c0-0.6,0-1.2,0-1.7
		c0-0.9,0.1-1.8,0.1-2.7l0.3-3.9l7.8-95.5l2.1-25.9l0,0l0,0c-34.7-22.9-61.7-51.3-81.6-84.7c-0.7-1.2-1.4-2.4-2.1-3.6
		c-1.4-2.4-2.7-4.8-4.1-7.3c-0.7-1.2-1.3-2.5-2-3.7c-0.7-1.3-1.4-2.7-2-4c-0.7-1.3-1.3-2.7-2-4c-0.4-0.9-0.8-1.8-1.3-2.7
		c-0.3-0.7-0.6-1.4-1-2.1c-0.9-1.9-1.7-3.8-2.5-5.7c-0.1-0.2-0.2-0.4-0.3-0.6c0,0,0-0.1-0.1-0.2c-0.8-2-1.6-3.9-2.4-5.9
		c-0.2-0.5-0.4-0.9-0.6-1.4c0-0.1-0.1-0.3-0.1-0.4c-0.5-1.2-1-2.5-1.4-3.7c-0.4-1-0.8-2.1-1.1-3.1c-0.1-0.3-0.3-0.7-0.4-1
		c-0.1-0.2-0.2-0.4-0.2-0.7c-0.2-0.6-0.4-1.2-0.7-1.8c-0.4-1-0.7-2.1-1-3.1c-0.6-1.6-1.1-3.3-1.6-5l-0.2-0.6
		c-0.2-0.8-0.5-1.6-0.7-2.3c-0.2-0.5-0.3-1-0.5-1.5c-0.2-0.5-0.3-1-0.5-1.5l0,0c-0.1-0.4-0.3-0.9-0.4-1.3c-0.1-0.5-0.3-0.9-0.4-1.4
		c-0.5-1.6-0.9-3.2-1.4-4.9c0,0,0-0.1,0-0.1c-0.3-1-0.5-1.9-0.8-2.9c-0.1-0.4-0.2-0.9-0.3-1.3c-0.2-1-0.5-1.9-0.7-2.9
		c0-0.1-0.1-0.2-0.1-0.3c-0.3-1.1-0.6-2.3-0.8-3.4c-0.1-0.3-0.1-0.6-0.2-0.9c-0.1-0.4-0.2-0.8-0.3-1.2c-0.2-0.6-0.3-1.2-0.4-1.8
		c0-0.1,0-0.1,0-0.2c-0.6-2.5-1.1-5-1.6-7.5c-0.1-0.6-0.2-1.2-0.4-1.8c-0.1-0.5-0.2-1-0.3-1.4c-0.4-2-0.8-3.9-1.1-5.9
		c-0.3-1.4-0.5-2.9-0.7-4.3c-0.2-1.1-0.4-2.1-0.5-3.2c-0.2-1.3-0.4-2.6-0.6-3.9c-0.1-0.3-0.1-0.7-0.1-1c-0.3-2.1-0.6-4.2-0.9-6.3
		c-0.1-1-0.3-1.9-0.4-2.9c-0.1-0.5-0.1-1-0.2-1.6c-0.1-0.9-0.2-1.7-0.3-2.6c-0.2-1.3-0.3-2.7-0.4-4c-0.1-0.9-0.2-1.9-0.3-2.8
		c0-0.1,0-0.1,0-0.2c-0.4-4.4-0.8-8.9-1.1-13.4l0,0c-0.1-1.8-0.2-3.6-0.3-5.4c0-0.8-0.1-1.7-0.1-2.5c-0.1-0.9-0.1-1.8-0.1-2.7
		c-0.1-1.3-0.1-2.6-0.2-3.9c0-0.6,0-1.3-0.1-1.9c0-0.7-0.1-1.4-0.1-2.2c0-0.8-0.1-1.6-0.1-2.4c0-0.2,0-0.4,0-0.6c0-0.6,0-1.2,0-1.8
		c-0.1-1.8-0.1-3.6-0.1-5.5c0-1.2,0-2.4,0-3.6c0-0.3,0-0.7,0-1c0-0.7,0-1.4,0-2.2c0-1.1,0-2.1,0-3.2l0-0.9c0-0.1,0-0.2,0-0.2l0-0.2
		c0.4-8.6,3.1-50,3.1-32.4c8.9,14.5,17.6,28.9,26.3,43c3.8,6.2,7.6,12.4,11.5,18.5c23.7,37.7,48.4,73.5,79.2,105.6c0,0,0,0,0,0
		c2.3,2.4,4.7,4.8,7.1,7.2c3.9,3.8,7.8,7.6,11.9,11.3c49.1,44.8,113.6,80.8,209.9,102.2c0,0,0,0,0,0c86.8,19.3,199.4,26.7,349.8,18
		c0,0,0.1,0,0.1,0c-13.1,9.6-27.6,18.3-44,26L1727.3,1823.4z"/>
	<path style="clip-path:url(#SVGID_00000000189571039176328980000002904828379944718227_);fill:#D86477;" d="M1551.6,1054
		c-6.4,23.7-22.9,60.2-57.7,75.1c-3.6,1.6-7.4,2.9-11.5,3.9c-1.3,0.4-2.7,0.7-4.1,1c-6.1,1.3-12.7,1.9-19.8,1.8
		c-2.1,0-4.2-0.2-6.3-0.4c-3.7-0.5-7.3-1.3-10.8-2.5c-0.5-0.2-1.1-0.4-1.6-0.6c-3.7-1.4-7.2-3.1-10.6-5.2
		c-9.6-5.8-18.1-14.2-25-24.2c-3.9-5.7-7.3-11.9-10-18.4c-1.7-4-3.2-8.2-4.4-12.5c-1.8-6.3-3.1-12.8-3.8-19.4
		c4.3-0.8,8.6-1.6,12.9-2.2c2.4-0.4,4.8-0.7,7.2-1.1c5.2-0.7,10.5-1.4,15.7-1.9c1.5-0.1,3-0.3,4.5-0.4c0.9-0.1,1.8-0.2,2.7-0.2
		c1-0.1,1.9-0.2,2.9-0.2c1-0.1,1.9-0.2,2.9-0.2c0.9-0.1,1.8-0.1,2.8-0.2c0.1,0,0.2,0,0.3,0c1.1-0.1,2.1-0.1,3.2-0.2
		c0.7,0,1.3-0.1,2-0.1c3.3-0.2,6.7-0.3,10-0.4c6.1-0.2,12.2-0.2,18.2-0.1c2,0,4.1,0.1,6.1,0.1c1,0,2,0.1,2.9,0.1
		c2.2,0.1,4.5,0.2,6.7,0.3c9.8,0.5,19.5,1.3,29.1,2.4C1528.2,1049.7,1540,1051.6,1551.6,1054z"/>
	<g style="clip-path:url(#SVGID_00000000189571039176328980000002904828379944718227_);">
		<path class="st14" d="M1638.1,1478.6c-16.4,63.9-96.1,98-198,89.1c-111.2-9.8-171.7-59.3-169.1-121.9
			c2.7-62.6,84.6-110.4,196.2-106.1C1578.8,1343.9,1653.7,1417.7,1638.1,1478.6z"/>
		<g>
			<path class="st15" d="M1640.2,1463.4c-2.7,62.6-68.9,92.1-180.5,87.8c-111.6-4.3-189.3-58.1-186.6-120.7
				c2.7-62.6,84.6-110.4,196.2-106.1C1580.9,1328.7,1642.8,1400.8,1640.2,1463.4z"/>
			
				<ellipse transform="matrix(4.772636e-02 -0.9989 0.9989 4.772636e-02 -4.8475 2889.759)" class="st16" cx="1513.1" cy="1447.4" rx="38.3" ry="28.7"/>
			
				<ellipse transform="matrix(4.772415e-02 -0.9989 0.9989 4.772415e-02 -92.966 2789.9771)" class="st16" cx="1416.7" cy="1443.7" rx="38.3" ry="28.7"/>
		</g>
	</g>
	<g style="opacity:0.42;clip-path:url(#SVGID_00000000189571039176328980000002904828379944718227_);">
		<path class="st18" d="M1651.3,1220.7c-9.3-5.2-18.8-9.7-28.6-13.4"/>
		<path class="st18" d="M1779.7,1398.4c1-39.7-24.5-102.9-79.9-142.2"/>
	</g>
	<g style="clip-path:url(#SVGID_00000000189571039176328980000002904828379944718227_);">
		<path class="st19" d="M1663.7-916c-0.8,0-1.6,0-2.4,0c-7.8,0.1-15.4,0.5-22.7,1.1c-78.1,6.4-128.3,37.4-157.4,64.4
			c-48.9,45.4-61.1,121.5-63.1,176.3c-0.2,6.3-0.3,12.2-0.3,17.8c-2.7,75.9,1.2,993.2,2.2,1220.9c0,8.1,0.1,15.4,0.1,21.7
			c0.1,18.9,0.1,29.2,0.1,29.2l93.8-3.7v-853.8l3.4-382.9c0-16.8-0.6-33-0.7-48.4c0-3.1,0-6.2,0-9.2c0-0.1,0-0.3,0-0.4v-0.1
			c0-0.1,0-0.1,0-0.2c0.6-36.6,5.9-68.7,32.7-95.5c26.4-26.4,53.2-32.4,97.1-35.4c4.7-0.3,9.6-0.6,14.7-0.8c2.3-0.1,4.6-0.2,6.9-0.3
			v-100.8C1666.7-916.1,1665.2-916.1,1663.7-916z"/>
		<g>
			<path class="st20" d="M1279.4,307.3h100.5c5.3,0,9.7-4.3,9.7-9.7v-6.4c0-5.3-4.3-9.7-9.7-9.7h-100.5c-5.3,0-9.7,4.3-9.7,9.7v6.4
				C1269.8,303,1274.1,307.3,1279.4,307.3z"/>
			<path class="st21" d="M1268.2,456.1L1268.2,456.1c10.1,0,18.2-8.2,18.2-18.2l-7.2-144l7.2-138c0-10.1-8.2-18.2-18.2-18.2l0,0
				c-10.1,0-18.2,8.2-18.2,18.2l8.1,139.6l-8.1,142.4C1250,448,1258.1,456.1,1268.2,456.1z"/>
			<ellipse class="st22" cx="1269" cy="294.6" rx="22.4" ry="25.8"/>
			<path class="st23" d="M1257.4,294.8c3.4,1.7,7.9-0.5,10-4.9s1-9.2-2.4-10.9c-3.4-1.7-7.9,0.5-10,4.9
				C1252.9,288.2,1254,293.1,1257.4,294.8z"/>
			<path class="st20" d="M1434.4,394.3h63.6c3.5,0,7-0.3,10.4-0.7c34.6-5,61.3-34.8,61.3-70.9v-53.9c0-35.8-26.3-65.5-60.6-70.8
				c-0.4-0.1-0.8-0.1-1.2-0.2c-3.2-0.4-6.5-0.7-9.9-0.7h-63.6c-0.6,0-1.3,0-1.9,0c-38.7,1-67.3,18.2-69.7,71.6v53.9
				c0.2,51.9,30.9,70.4,69.4,71.6C1433,394.2,1433.7,394.3,1434.4,394.3z"/>
			<path class="st21" d="M1379.1,358.6V236.2c0-4.5-3.6-8.1-8.1-8.1h-5.6c-4.5,0-8.1,3.6-8.1,8.1v122.4c0,4.5,3.6,8.1,8.1,8.1h5.6
				C1375.4,366.7,1379.1,363.1,1379.1,358.6z"/>
			<path class="st21" d="M1370.3,342.3V251c0-3.9-3.2-7-7-7h-7.7c-3.9,0-7,3.2-7,7v91.3c0,3.9,3.2,7,7,7h7.7
				C1367.1,349.4,1370.3,346.2,1370.3,342.3z"/>
		</g>
		<path class="st24" d="M1514,557.4v25.2l-12.3,1.9l-81.6,1.7c0-6.3-0.1-13.6-0.1-21.7C1440.8,563.5,1496.7,560.6,1514,557.4z"/>
		<path class="st25" d="M1527,615.4V594c0-7.6-6.2-13.8-13.8-13.8h-100.4c-7.6,0-13.8,6.2-13.8,13.8v21.4c0,7.6,6.2,13.8,13.8,13.8
			h100.4C1520.8,629.2,1527,623.1,1527,615.4z"/>
	</g>
	<g style="clip-path:url(#SVGID_00000000189571039176328980000002904828379944718227_);">
		<g>
			<path class="st3" d="M1549.2,985.5c0,40.1,2.2,73.6-40.9,72.6c-22.6-0.5-40.9-32.5-40.9-72.6c0-40.1,18.3-71.2,40.9-72.6
				C1547.5,910.4,1549.2,945.4,1549.2,985.5z"/>
			<ellipse class="st4" cx="1518" cy="985.5" rx="40.9" ry="72.6"/>
			<ellipse class="st26" cx="1518" cy="985.5" rx="33.5" ry="59.5"/>
		</g>
		<g>
			<g transform="matrix(0.913873,-0.406001,0.406001,0.913873,-1092.67,477.809)">
				<path class="st6" d="M2190.7,1544.7c-2,4.3-4.4,7.9-7.4,10.9c-3,3-6.2,5-9.8,6.1c-3.6,1.1-7.2,1.1-11-0.1
					c-4.4-1.4-7.5-3.8-9.2-7.4c-1.2-2.5-1.7-5.6-1.5-9.2c0.2-3.6,0.9-6.9,2.3-9.9c0.8-1.7,1.9-3.1,3.2-4.1c1.3-1,2.6-1.3,3.8-1
					c1,0.3,1.6,1,1.8,2.2c0.2,1.2,0.1,2.8-0.3,4.8c-0.5,2.4-0.7,4.5-0.7,6.3c0,1.7,0.3,3.3,1.1,4.6c0.8,1.4,2.1,2.4,4.1,3
					c2.7,0.8,5.4,0.5,8-0.9c2.6-1.5,4.6-3.7,5.9-6.7c1.1-2.4,1.5-4.4,1.2-6.2c-0.2-1.8-0.9-3.2-2-4.5c-1.1-1.2-2.6-2.7-4.7-4.3
					c-2.7-2.2-4.8-4.4-6.2-6.7s-2.2-5-2.2-8.2c0-3.2,0.9-6.8,2.8-10.9c1.8-3.9,4-7.2,6.8-9.8c2.7-2.6,5.8-4.3,9.1-5.2
					c3.3-0.8,6.7-0.7,10.2,0.4c2.8,0.9,4.9,2.1,6.4,3.9c1.5,1.7,2.5,3.7,3.1,5.9c0.5,2.2,0.6,4.4,0.4,6.6c-0.3,2.2-0.9,4.2-1.7,6.1
					c-0.8,1.7-1.9,3.1-3.3,4.3s-2.7,1.5-3.8,1.2c-1-0.3-1.7-1-1.8-2c-0.2-1-0.1-2.5,0.1-4.6c0.4-2.9,0.4-5.3-0.1-7.2
					c-0.5-1.9-2-3.2-4.5-4c-2.4-0.7-4.6-0.5-6.8,0.7s-3.8,2.9-4.8,5.2c-0.6,1.4-1,2.7-0.9,3.9c0,1.2,0.3,2.3,0.8,3.3
					c0.5,1,1.1,1.9,1.8,2.6c0.7,0.7,1.9,1.8,3.5,3.2c2.1,1.7,3.9,3.5,5.5,5.2c1.5,1.8,2.7,3.7,3.4,5.8c0.7,2.1,0.9,4.5,0.6,7.2
					C2193.4,1537.9,2192.4,1541.1,2190.7,1544.7z"/>
			</g>
			<g transform="matrix(0.913873,-0.406001,0.406001,0.913873,-1092.67,477.809)">
				<path class="st6" d="M2160.7,1570.9l-4.8-1.5c-0.8-0.3-1-1.5-0.4-2.9l40.1-88.1c0.6-1.3,1.8-2.2,2.6-1.9l4.8,1.5
					c0.8,0.3,1,1.5,0.4,2.9l-40.1,88.1C2162.7,1570.3,2161.5,1571.1,2160.7,1570.9z"/>
			</g>
		</g>
	</g>
	<g style="clip-path:url(#SVGID_00000000189571039176328980000002904828379944718227_);">
		<g>
			<path class="st3" d="M1489.1,1093.1c0,10-0.9,19.5-2.9,28.1c0,0,0,0,0,0c-1,4.2-2.2,8.1-3.7,11.8c-1.3,0.4-2.7,0.7-4.1,1
				c-6.1,1.3-12.7,1.9-19.8,1.8c-2.1,0-4.2-0.2-6.3-0.4c-3.7-0.5-7.3-1.3-10.8-2.5c-0.5-0.2-1.1-0.4-1.6-0.6
				c-2.8-0.4-5.4-1.3-7.5-2.7c-1.1-0.7-2.2-1.5-3.1-2.5c-9.6-5.8-18.1-14.2-25-24.2c-3.9-5.7-7.3-11.9-10-18.4
				c-1.7-4-3.2-8.2-4.4-12.5c2-7.9,5.1-15.2,9.1-21.6c9.8-15.9,24.9-26.3,41.8-26.3c1.2,0,2.4,0,3.6,0.1c14.5,1.1,25.6,9,33.1,21.2
				c3.1,5,5.6,10.7,7.5,17C1487.7,1071.7,1489.1,1082.1,1489.1,1093.1z"/>
			<path class="st4" d="M1501.8,1093.1c0,13.2-2.9,25.5-7.9,36c-3.6,1.6-7.4,2.9-11.5,3.9c-1.3,0.4-2.7,0.7-4.1,1
				c-6.1,1.3-12.7,1.9-19.8,1.8c-2.1,0-4.2-0.2-6.3-0.4c-3.7-0.5-7.3-1.3-10.8-2.5c-0.5-0.2-1.1-0.4-1.6-0.6
				c-2.8-0.4-5.4-1.3-7.5-2.7c-1.1-0.7-2.2-1.5-3.1-2.5c-9.6-5.8-18.1-14.2-25-24.2c-3.9-5.7-7.3-11.9-10-18.4
				c1.3-13.2,5.5-25.3,11.8-35.1c9.2-14.3,22.9-23.8,38.3-25c1.1-0.1,2.3-0.1,3.5-0.1c15.5,0,29.5,8.3,39.3,21.7
				C1496.2,1058.2,1501.8,1074.8,1501.8,1093.1z"/>
			<path class="st27" d="M1492,1093.1c0,10.2-2.1,19.8-5.9,28.1c0,0,0,0,0,0c-2.1,4.7-4.8,9-7.8,12.8c-6.1,1.3-12.7,1.9-19.8,1.8
				c-2.1,0-4.2-0.2-6.3-0.4c-3.7-0.5-7.3-1.3-10.8-2.5c-0.5-0.2-1.1-0.4-1.6-0.6c-2.8-0.4-5.4-1.3-7.5-2.7c-1.1-0.7-2.2-1.5-3.1-2.5
				c-9.6-5.8-18.1-14.2-25-24.2c-0.4-3.2-0.7-6.5-0.7-9.8c0-18.8,7.2-35.4,18.2-45.6c7.3-6.8,16.3-10.8,26-10.8
				c8.7,0,16.7,3.2,23.6,8.7c5.4,4.4,10.1,10.2,13.6,17.1C1489.4,1071.3,1492,1081.8,1492,1093.1z"/>
		</g>
		<g>
			<g transform="matrix(0.913873,-0.406001,0.406001,0.913873,-1092.67,477.809)">
				<path class="st6" d="M2088.7,1616.3c-1.9,4.1-4.5,7.4-7.8,10c-3.3,2.6-7.2,4.2-11.5,4.8c-2.9,0.4-5.9,0.3-9.1-0.3
					c-1.6-0.3-3.1-0.7-4.7-1.3c-2-0.7-3.8-1.5-5.4-2.4c-0.5-0.3-0.9-0.5-1.4-0.8c-2.4-1.6-4.4-3.4-5.8-5.5c-0.7-1.1-1.4-2.3-1.8-3.5
					c-0.7-1.8-1.2-3.8-1.3-6c-0.3-3.6,0.2-6.8,1.5-9.7c0.8-1.7,1.9-2.9,3.5-3.7c1.6-0.8,3.1-1,4.6-0.4c1.3,0.4,2.1,1.3,2.5,2.5
					c0.5,1.2,0.6,2.8,0.3,4.9c-0.2,2.4-0.2,4.5,0,6.2c0.2,1.7,0.9,3.3,2,4.8c0.2,0.3,0.4,0.5,0.7,0.8c1.1,1.1,2.8,2.1,4.9,2.8
					c1.8,0.6,3.6,1,5.3,1c1.6,0,3.1-0.3,4.6-0.8c3.1-1.1,5.3-3.1,6.6-5.9c1-2.2,1.3-4.3,0.7-6.1c-0.6-1.8-1.6-3.4-3.1-4.8
					c-0.2-0.1-0.3-0.3-0.5-0.4c-1.5-1.3-3.5-2.8-6-4.5c-1-0.7-2-1.4-2.8-2.1c-2.4-1.9-4.4-3.7-5.9-5.5c-2.1-2.5-3.4-5.3-3.9-8.5
					c-0.5-3.2,0.2-6.7,2-10.6c1.7-3.7,4.1-6.7,7.2-9c3.1-2.3,6.7-3.6,10.7-4c2.3-0.2,4.7-0.1,7.1,0.3c1.9,0.3,3.8,0.8,5.7,1.5
					c1.7,0.6,3.2,1.2,4.6,2c1.6,0.8,2.9,1.8,4.1,2.8c2.2,1.9,3.7,4.1,4.7,6.4c1,2.3,1.4,4.5,1.3,6.7c-0.1,2.2-0.5,4.1-1.3,5.9
					c-0.8,1.6-1.9,2.9-3.5,3.9c-1.6,1-3.1,1.2-4.6,0.7c-1.4-0.5-2.2-1.2-2.6-2.2c-0.3-1-0.5-2.6-0.5-4.6c0.1-2.9-0.3-5.3-1.1-7.3
					c-0.3-0.6-0.6-1.2-1.2-1.7c-1.1-1.2-2.8-2.2-5.1-2.9c-1.8-0.6-3.4-0.9-5-0.9c-1.2,0-2.3,0.2-3.5,0.6c-2.6,0.9-4.4,2.4-5.4,4.6
					c-0.6,1.3-0.8,2.6-0.6,3.8c0.2,1.2,0.7,2.3,1.5,3.4c0.5,0.6,0.9,1.2,1.5,1.7c0.4,0.4,0.8,0.8,1.2,1.1c1,0.8,2.6,2,4.9,3.7
					c0.9,0.7,1.8,1.3,2.7,2c1.8,1.4,3.5,2.7,4.9,4.1c2.2,2,3.9,4.1,5.1,6.3c1.2,2.2,1.8,4.6,1.7,7.3
					C2091.1,1609.8,2090.3,1612.9,2088.7,1616.3z"/>
			</g>
			<g transform="matrix(0.913873,-0.406001,0.406001,0.913873,-1092.67,477.809)">
				<path class="st6" d="M2095.8,1553.5l-3.8,8.3l-4.8,10.4l-7.9,17.2l-6,13l-8.3,18l-4.8,10.5l-1.5,3.3c-3.2-1.9-6.1-4.2-8.8-6.7
					l0.2-0.3l4.8-10.5l9.6-20.9l6-13.1l6.5-14.2l4.6-10l3.9-8.4c0.3-0.6,0.7-1,1.2-1.3c0.6-0.4,1.3-0.5,1.8-0.3l6.3,2.2
					c0.8,0.3,1.2,1,1.2,1.8C2096.1,1552.7,2096,1553.1,2095.8,1553.5z"/>
			</g>
		</g>
	</g>
	<path style="clip-path:url(#SVGID_00000000189571039176328980000002904828379944718227_);fill:#FFFFFF;" d="M1594.6,949.9
		c-20.4-3.2-23.4-12.5-27.1-41.3c-2.6,27.3-6,37.7-26.8,40.8c18.1,7.8,24.5,10.6,27.7,42.2C1572.9,959.6,1576.8,956.8,1594.6,949.9z
		"/>
	<path style="clip-path:url(#SVGID_00000000189571039176328980000002904828379944718227_);fill:#FFFFFF;" d="M1369,931.3
		c-20.4-3.2-23.4-12.5-27.1-41.3c-2.6,27.3-6,37.7-26.8,40.8c18.1,7.8,24.5,10.6,27.7,42.2C1347.2,941,1351.2,938.2,1369,931.3z"/>
	<path style="clip-path:url(#SVGID_00000000189571039176328980000002904828379944718227_);fill:#FFFFFF;" d="M1380.6,1083.7
		c-29.6-4.4-33.8-16.9-39.3-55.8c-3.8,36.9-8.7,50.9-38.8,55.1c26.2,10.5,35.5,14.3,40.1,57
		C1349.1,1096.8,1354.8,1093,1380.6,1083.7z"/>
	<path style="clip-path:url(#SVGID_00000000189571039176328980000002904828379944718227_);fill:#FFFFFF;" d="M1509,752.4
		c-23.2-3.4-26.5-13.3-30.8-43.8c-3,29-6.8,39.9-30.5,43.2c20.6,8.3,27.8,11.3,31.5,44.7C1484.3,762.7,1488.8,759.7,1509,752.4z"/>
	<g style="clip-path:url(#SVGID_00000000189571039176328980000002904828379944718227_);">
		<path class="st29" d="M1834.6,1219.6c0,0-10.9,20-14.9,18.9c-4-1.1-12.9-6.5-18.8-13.9c-1.8-2.3-4.6-3.6-7.7-4.4
			c-4.8-1.2-10.5-1.2-15.2-1.5c-5.5-0.3-9.6-1.1-9-4.9c0.8-5.3,9.9-9.5-11.3-23.6c-4-2.7,4.7-9,13.3-10.7c0.7-0.1,1.4-0.2,2.1-0.3
			c4.7-0.5,9.8,1.8,14.3,4.9c5.3,3.7,9.8,8.6,11.9,11.6c4.3,6.3,10,7.6,18.1,11.9C1825.7,1212.2,1828.9,1215.4,1834.6,1219.6z"/>
		<path class="st29" d="M2023.8,1202.9l25.7-7.2c0.2-11.7-12.3-36.3-14.2-46.8c-2-11.5-16.2-22.1-16.2-22.1l-8.6,24.2l0.5,2
			c0,0,2,20.2-1.6,29.4c-2,5.3-0.8,13.1-6.4,21.1C1998.8,1209.6,2023.8,1202.9,2023.8,1202.9z"/>
		<path class="st30" d="M2011.2,1157.3c0,0,1.1,13-0.6,20.7c16,7.3,24.4-10.8,20.4-15.3c-2.5-2.8-11.7-9.4-11.7-9.4L2011.2,1157.3z"
			/>
		<g>
			<path class="st29" d="M2005.3,1115.9c-9.6,20.4-18.8,20.8-11.9,24.2c5.3,2.6-8.7,17.1-2.9,19.7c14,6.2,32.2,2.6,36.8-3.8
				c4.7-6.4,11.6-26.8,11.6-26.8L2005.3,1115.9z"/>
			<path class="st31" d="M2018.7,1131c-4.7-1.2-5.3-0.2-7.8-3c-2.5-2.8,4.7-5.2-0.7-8.5c-5.4-3.4-11.7-6.3-9.5-13.5
				c3.1-10.5,11.1-5.4,15.9-2.1c3.1,2.1,7-5.3,13.7-2.2c5.2,2.4,3.3,5.4,7.9,7.8c2.8,1.4,10.3-1.3,13.4,4.2
				c5.6,10.1-4.6,15.5-0.5,25.4c4.7,11.6-21,21.9-22.4,18.9c-1.5-3.5,5.6-10.7,3.9-13.7c-2.6-4.6-4.5-1.4-9,0.5
				c-4.8,2-11.3-0.3-4.6-5.3C2025.8,1134.3,2022.9,1132.1,2018.7,1131z"/>
		</g>
		<path class="st32" d="M1955.3,1847.6c-1.2-11.4-0.3-40.3-0.3-40.3l31.5-1.1l-1.7,43.4l-20.8,13.8L1955.3,1847.6z"/>
		<path class="st31" d="M1952.7,1838.2c-2.7-2-8.6,5.1-9.8,9.9c-2.8,11-38,12.4-44.2,13.4c-3.2,0.5-8.4,16.6,7.6,16.6
			c13.9-0.1,58.5-0.1,73.7-0.3c3.2,0,6-2.1,6.7-5.1c2.7-10.6,3.1-35.4-1.2-35.8C1979.9,1838.2,1962.8,1846,1952.7,1838.2z"/>
		<path class="st32" d="M2076.3,1847.8c-1.2-11.4-0.5-40.3-0.5-40.3l31.5-1.3l-1.4,43.4l-20.8,13.9L2076.3,1847.8z"/>
		<path class="st31" d="M2072.9,1834.8c-3.4,0.2-2.8,3.4-4,8.2c-2.7,11-42.7,18.1-49,19.2c-3.2,0.5-8.3,16.7,7.8,16.5
			c13.9-0.2,58.5-0.6,73.7-0.9c3.2-0.1,5.9-2.2,6.7-5.1c2.6-10.6,3.6-39.7-0.6-40.1C2101.8,1833.9,2088.3,1833.8,2072.9,1834.8z"/>
		<path class="st33" d="M2121.4,1470.7c-0.4,5.2-0.9,10.8-1.7,16.9c-2.7,23-8.4,100.8-7,150.2c1.4,49.1-3,164.1-3,181.7
			c-14.9,6.5-24.2,4.5-45.5,0c0,0-3.8-94.8-8-177.9c-3.4-67.4-4.4-60.7-16.8-146.5l0,0c-0.1,0.4-3.2,8.8-7.6,21.6
			c-9.4,27.5-25.1,75.5-32.6,110.2c-11.7,54.2-5.6,195.5-10.5,200.4c-14.6,8.6-39.4,9.5-46-2.5c0,0-2.8-174.7,2.4-202.1
			c3.5-18.6,33.3-201,40-249.9c0,0,131.3-28.6,135.3,16.2c0.5,6.1,0.7,11.5,0.6,16.7c-0.1,7,0.3,13.4,0.7,20.5
			C2122.4,1437.7,2123,1450.9,2121.4,1470.7z"/>
		<path class="st34" d="M2051.1,1470.4C2051.1,1470.4,2051.1,1470.4,2051.1,1470.4c-0.3-0.1-0.4-0.1-0.4-0.2
			C2050.8,1470.2,2051.1,1470.4,2051.1,1470.4z"/>
		<path class="st35" d="M2039.5,1495L2039.5,1495c-0.1,0.4-5.9,16.7-10.3,29.5l5.2-51.9C2034.4,1472.7,2034.2,1475.8,2039.5,1495z"
			/>
		<path class="st36" d="M2122.2,1457.2c-1.1-0.2-51.7-11-58.5-36.4c0,0,44,3.8,58.1,5.3C2122.4,1437.7,2122.6,1450.6,2122.2,1457.2z
			"/>
		<path class="st32" d="M2043.4,1172.7c-11.4-3.1-12.5,15.7-23.9,16.6c-6.1,0.5-4.7-2.2-7.6-4.9c-1.8-1.7-3.4-3.6-6.2-0.8
			c-56.6,58.1,2.3,204.4-4.9,214.6c-5.9,8.4,42,26.6,72.1,19.3c41.2-10.1,38.7-54.8,37.5-63.4c-1.2-8.6-27.8-153.9-27.8-153.9
			S2061.8,1189.1,2043.4,1172.7z"/>
		<path class="st37" d="M1809.1,1196.5c4.4-6.9,94,79.5,106.8,70.8c22.6-15.3,44-70.2,89.7-83.8c0,0,1.4,9.7-1.9,35.1
			c-4.3,33.5,14.5,57.3,10.7,97.8c-4.9,52.4,8,105.9-4.9,117.7c-7.5,6.9-17.9,8.2-30.5-4.9c-19.8-20.6-6.8-88-5-104
			c0.7-6.2,2.2-14.6,3.6-23.4c1.6-10.8,4.8-23.7-0.7-27.7c-1.6-1.1-33.6,37.6-59.2,37.2c-19-0.3-106.1-69.9-108.9-73
			C1801.1,1229.8,1809.1,1196.5,1809.1,1196.5z"/>
		<path class="st38" d="M2090.1,1444.5c-1.1,2-4.5,2-2.8,3.4c1.7,1.4,22.4,10.5,22.4,10.5s2,2.2,4.4-1.4s2.4-7.2,2.4-7.2
			L2090.1,1444.5z"/>
		<path class="st37" d="M2126.3,1433.5c-18,11.3-42,11.6-57.9-5.1c-13.2-13.9,0.2-31.8-9.6-64.1c-5.4-17.9-13.8-50.1-15.6-72.4
			c-3.8-47.5-0.9-105.7,0.2-119.1c0,0,28.6,0.7,52.2,25.2c9.9,10.3,16.1,40.1,17.2,61.9c0.3,7.1,0.5,12.9,0.6,17.7
			c0.2,9.9,0,16.1-0.4,22.9c-0.1,2.7-0.3,5.5-0.4,8.7c0,0,0,0,0,0c-0.1,3.6-0.3,7.6-0.4,12.5c-0.1,8,2.6,21.1,5.9,35.6l0,0
			C2125.5,1389,2135.9,1427.4,2126.3,1433.5z"/>
		<path class="st37" d="M2061.9,1229.5c63.2,103.7,66.7,89.9,68.3,106.9c1.6,17-41.8,108.8-41.8,108.8s26,14.5,28.9,10.1
			c2.9-4.5,58.7-107.1,56.5-129.2c-2.4-24.3-70.4-118.7-78.4-128c-8-9.3-42.6-13.3-42.2,3.3
			C2053.5,1217.9,2061.9,1229.5,2061.9,1229.5z"/>
		<path class="st39" d="M2118.1,1357.2c-23.7-21.2-25.4-75-25.4-75l19.9,26.9c0,0,0,0,0,0c-0.1,3.6-0.3,7.6-0.4,12.5
			C2112.1,1329.6,2114.8,1342.7,2118.1,1357.2z"/>
		<path class="st39" d="M2121.9,1373.4c-1.6,7.5-31.1,66.7-31.1,66.7l28.6-77.1L2121.9,1373.4z"/>
		<g>
			<path class="st40" d="M2023.1,1195.9c1.3-0.6,9.2,24.2,23.7,34.4c4,2.8,8.4,5,13.3,6.1c14.1,3.1,47.2,2.9,65.5,3.6
				c-3.7-7-7.5-8.4-14.2-19.2c-13.7,2-40,3.5-47.3,1.5c-5.4-1.5-10.4-3.9-14.9-6.8c-8.5-5.4-15.2-12.6-20.3-18.6
				c-2.6-3.1-2.4-7.1-5.9-7.9C2018.3,1187.9,2021.5,1196.6,2023.1,1195.9z"/>
			<path class="st4" d="M2017,1188.4c0.5-2.2,2.7-5.6,7.4-4.6c3.6,0.7,3.6,2.2,6.2,5.3c7.7,9.3,19.5,21.1,35.1,25.5
				s55.3-10.5,78-1.5c22.7,9,26.4,31.3,59.4,42.3c33.1,11,72,2.7,81.7,6.1c9.7,3.4,15.4,6.6,14.5,10.5c-0.9,3.9-7,9.7-14.5,11.3
				c-7.5,1.7-70.2-4.4-86.2-9.3c-26.1-8-45.1-35.9-62.1-40.3c-17-4.4-54.8-0.5-74.8-5c-22.3-5-36.3-34.2-37.9-33.5
				c-1.6,0.7-3.2,1.5-5.9,0.3C2016,1194.7,2016.5,1190.6,2017,1188.4z"/>
		</g>
	</g>
	<g style="clip-path:url(#SVGID_00000000189571039176328980000002904828379944718227_);">
		<g>
			<path class="st20" d="M1953.8,312.2v131.5c0,7-5.7,12.7-12.7,12.7h-8.4c-7,0-12.7-5.7-12.7-12.7V312.2c0-7,5.7-12.7,12.7-12.7
				h8.4C1948.2,299.5,1953.8,305.2,1953.8,312.2z"/>
			<path class="st21" d="M2148.6,297.5L2148.6,297.5c0,13.2-10.7,23.8-23.8,23.8l-188.4-9.4l-180.6,9.4c-13.2,0-23.8-10.7-23.8-23.8
				l0,0c0-13.2,10.7-23.8,23.8-23.8l182.6,10.7l186.4-10.7C2137.9,273.6,2148.6,284.3,2148.6,297.5z"/>
			<ellipse class="st22" cx="1937.2" cy="298.6" rx="33.7" ry="29.3"/>
			<path class="st23" d="M1936.7,283c-2.2,4.5,0.7,10.4,6.4,13.1c5.7,2.8,12.1,1.3,14.3-3.2s-0.7-10.4-6.4-13.1
				S1938.8,278.5,1936.7,283z"/>
			<path class="st19" d="M1806.8,497.7c-5.6,0-11.6,0.1-17.8,0.3c-54.8,2-131,14.2-176.3,63.1c-27,29.1-58,79.3-64.4,157.4
				c-0.6,7.3-1,14.9-1.1,22.7c0,0.8,0,1.6,0,2.4c0,1.5,0,3,0,4.5h100.8c0.1-2.3,0.2-4.6,0.3-6.9c0.3-5.1,0.5-10,0.8-14.7
				c2.9-43.9,9-70.7,35.4-97.1c26.8-26.8,58.9-32.1,95.5-32.7c0.1,0,0.1,0,0.2,0h0.1c0.1,0,0.3,0,0.4,0c3,0,6.1-0.1,9.2,0
				c15.4,0.1,31.5,0.7,48.3,0.7l382.9-3.4h853.8l3.7-93.8C3078.5,500.1,1893.5,494.5,1806.8,497.7L1806.8,497.7z"/>
			<path class="st20" d="M1809.6,515v83.2c0,4.4,0.3,8.7,0.9,12.9c0.1,0.5,0.2,1,0.2,1.6c7,44.9,45.8,79.2,92.6,79.2h70.6
				c27.4,0,52.1-11.8,69.2-30.5c12.3-13.5,20.8-30.6,23.5-49.6c0.6-4.4,1-9,1-13.6V515c0-1,0-1.9-0.1-2.9
				c-1.5-50.4-25.7-90.5-93.7-90.9h-70.6c-22.2,1-39.5,5.4-53,12.6c-12.9,6.9-22.2,16.4-28.6,27.8c-8,14.3-11.6,31.6-12.1,50.8
				C1809.6,513.3,1809.6,514.2,1809.6,515z"/>
			<path class="st41" d="M1801.9,582.9c0.1,0,0.2,0,0.3,0C1802.1,582.9,1802,582.9,1801.9,582.9L1801.9,582.9z"/>
			<path class="st21" d="M2021,442.5h-160.1c-5.8,0-10.6-4.7-10.6-10.6v-7.4c0-5.8,4.7-10.6,10.6-10.6H2021
				c5.8,0,10.6,4.7,10.6,10.6v7.4C2031.5,437.8,2026.8,442.5,2021,442.5z"/>
			<path class="st21" d="M1999.7,431h-119.5c-5.1,0-9.2-4.1-9.2-9.2v-10.1c0-5.1,4.1-9.2,9.2-9.2h119.5c5.1,0,9.2,4.1,9.2,9.2v10.1
				C2008.9,426.9,2004.8,431,1999.7,431z"/>
			<path class="st24" d="M1649.1,726.5c-0.3,4.7-0.6,9.6-0.8,14.7c-0.1,2.3-0.2,4.5-0.3,6.9l-85.6-2.1l-15.2-2.4c0-0.8,0-1.6,0-2.4
				c0.1-7.8,0.5-15.4,1.1-22.7C1564.6,722.1,1633.9,725.7,1649.1,726.5z"/>
			<path class="st21" d="M1519.5,776.9v-25.1c0-8.9,7.2-16.1,16.1-16.1h117.6c8.9,0,16.1,7.2,16.1,16.1v25.1
				c0,8.9-7.2,16.1-16.1,16.1h-117.6C1526.7,793.1,1519.5,785.8,1519.5,776.9z"/>
		</g>
		<path class="st39" d="M1809.6,515v83.2c0,4.4,0.3,8.7,0.9,12.9c0.1,0.5,0.2,1,0.2,1.6c7,44.9,45.8,79.2,92.6,79.2h70.6
			c27.4,0,52.1-11.8,69.2-30.5c-192.9-28.5-215-70-221.3-199.7c-8,14.3-11.6,31.6-12.1,50.8C1809.6,513.3,1809.6,514.2,1809.6,515z"
			/>
		<path class="st42" d="M2005.3,475.5c-9-10.6-24.6-10.3-24.6-10.3"/>
		<path class="st42" d="M2023.9,565.1c0.8-11.7,3.1-45.3-4.4-67.7"/>
	</g>
	<path style="clip-path:url(#SVGID_00000000189571039176328980000002904828379944718227_);fill:#7C7C89;" d="M996.5,316.2v131.5
		c0,7-5.7,12.7-12.7,12.7h-8.4c-7,0-12.7-5.7-12.7-12.7V316.2c0-7,5.7-12.7,12.7-12.7h8.4C990.8,303.5,996.5,309.2,996.5,316.2z"/>
	<path style="clip-path:url(#SVGID_00000000189571039176328980000002904828379944718227_);fill:#595966;" d="M1191.2,301.5
		L1191.2,301.5c0,13.2-10.7,23.8-23.8,23.8l-188.4-9.4l-180.6,9.4c-13.2,0-23.8-10.7-23.8-23.8l0,0c0-13.2,10.7-23.8,23.8-23.8
		L981,288.3l186.4-10.7C1180.5,277.6,1191.2,288.3,1191.2,301.5z"/>
	
		<ellipse style="clip-path:url(#SVGID_00000000189571039176328980000002904828379944718227_);fill:#3B3B4C;" cx="979.9" cy="302.5" rx="33.7" ry="29.3"/>
	<path style="opacity:0.7;clip-path:url(#SVGID_00000000189571039176328980000002904828379944718227_);fill:#FFFFFF;" d="M979.3,287
		c-2.2,4.5,0.7,10.4,6.4,13.1c5.7,2.8,12.1,1.3,14.3-3.2c2.2-4.5-0.7-10.4-6.4-13.1C987.8,281.1,981.5,282.5,979.3,287z"/>
	<path style="clip-path:url(#SVGID_00000000189571039176328980000002904828379944718227_);fill:#97979E;" d="M1116.3,501.6
		c5.6,0,11.6,0.1,17.8,0.3c54.8,2,131,14.2,176.3,63.1c27,29.1,58,79.3,64.4,157.4c0.6,7.3,1,14.9,1.1,22.7c0,0.8,0,1.6,0,2.4
		c0,1.5,0,3,0,4.5h-100.8c-0.1-2.3-0.2-4.6-0.3-6.9c-0.3-5.1-0.5-10-0.8-14.7c-2.9-43.9-9-70.7-35.4-97.1
		c-26.8-26.8-58.9-32.1-95.5-32.7c-0.1,0-0.1,0-0.2,0h-0.1c-0.1,0-0.3,0-0.4,0c-3,0-6.1-0.1-9.2,0c-15.4,0.1-31.5,0.7-48.3,0.7
		L702,597.9h-853.8l-3.7-93.8C-155.5,504,1029.6,498.5,1116.3,501.6L1116.3,501.6z"/>
	<path style="clip-path:url(#SVGID_00000000189571039176328980000002904828379944718227_);fill:#7C7C89;" d="M852.3,519v83.2
		c0,4.4,0.3,8.7,0.9,12.9c0.1,0.5,0.2,1,0.2,1.6c7,44.9,45.8,79.2,92.6,79.2h70.6c27.4,0,52.1-11.8,69.2-30.5
		c12.3-13.5,20.8-30.6,23.5-49.6c0.6-4.4,1-9,1-13.6V519c0-1,0-1.9-0.1-2.8c-1.5-50.4-25.7-90.5-93.7-90.9H946
		c-22.2,1-39.6,5.4-53,12.6c-12.9,6.9-22.2,16.4-28.6,27.8c-8,14.3-11.6,31.6-12.1,50.8C852.3,517.3,852.3,518.1,852.3,519z"/>
	<path style="opacity:0.28;clip-path:url(#SVGID_00000000189571039176328980000002904828379944718227_);fill:#1F1F39;" d="
		M844.6,586.9c0.1,0,0.2,0,0.3,0C844.8,586.9,844.7,586.9,844.6,586.9L844.6,586.9z"/>
	<path style="clip-path:url(#SVGID_00000000189571039176328980000002904828379944718227_);fill:#595966;" d="M1063.6,446.5H903.5
		c-5.8,0-10.6-4.7-10.6-10.6v-7.4c0-5.8,4.7-10.6,10.6-10.6h160.1c5.8,0,10.6,4.7,10.6,10.6v7.4
		C1074.2,441.8,1069.4,446.5,1063.6,446.5z"/>
	<path style="clip-path:url(#SVGID_00000000189571039176328980000002904828379944718227_);fill:#595966;" d="M1042.3,435H922.8
		c-5.1,0-9.2-4.1-9.2-9.2v-10.1c0-5.1,4.1-9.2,9.2-9.2h119.5c5.1,0,9.2,4.1,9.2,9.2v10.1C1051.5,430.9,1047.4,435,1042.3,435z"/>
	<path style="opacity:0.18;clip-path:url(#SVGID_00000000189571039176328980000002904828379944718227_);fill:#1F1F3B;" d="
		M852.3,519v83.2c0,4.4,0.3,8.7,0.9,12.9c0.1,0.5,0.2,1,0.2,1.6c7,44.9,45.8,79.2,92.6,79.2h70.6c27.4,0,52.1-11.8,69.2-30.5
		c-192.9-28.5-215-70-221.3-199.7c-8,14.3-11.6,31.6-12.1,50.8C852.3,517.3,852.3,518.1,852.3,519z"/>
	
		<path style="opacity:0.57;clip-path:url(#SVGID_00000000189571039176328980000002904828379944718227_);fill:none;stroke:#FFFFFF;stroke-width:14;stroke-linecap:round;stroke-linejoin:round;stroke-miterlimit:10;" d="
		M1048,479.5c-9-10.6-24.6-10.3-24.6-10.3"/>
	
		<path style="opacity:0.57;clip-path:url(#SVGID_00000000189571039176328980000002904828379944718227_);fill:none;stroke:#FFFFFF;stroke-width:14;stroke-linecap:round;stroke-linejoin:round;stroke-miterlimit:10;" d="
		M1066.6,569.1c0.8-11.7,3.1-45.3-4.4-67.7"/>
	
		<rect x="0" style="clip-path:url(#SVGID_00000000189571039176328980000002904828379944718227_);fill:none;" width="3000" height="2000"/>
	<path style="opacity:0.57;clip-path:url(#SVGID_00000000189571039176328980000002904828379944718227_);fill:#FFFFFF;" d="
		M1374.3,730.5c-0.3,4.7-0.6,9.6-0.8,14.7c-0.1,2.3-0.2,4.5-0.3,6.9l-85.6-2.1l-15.2-2.4c0-0.8,0-1.6,0-2.4
		c0.1-7.8,0.5-15.4,1.1-22.7C1289.9,726.1,1359.2,729.7,1374.3,730.5z"/>
	<path style="clip-path:url(#SVGID_00000000189571039176328980000002904828379944718227_);fill:#595966;" d="M1403.6,780.9v-25.1
		c0-8.9-7.2-16.1-16.1-16.1h-117.6c-8.9,0-16.1,7.2-16.1,16.1v25.1c0,8.9,7.2,16.1,16.1,16.1h117.6
		C1396.4,797,1403.6,789.8,1403.6,780.9z"/>
</g>
</svg>
