<?xml version="1.0" encoding="utf-8"?>
<!-- Generator: Adobe Illustrator 26.3.1, SVG Export Plug-In . SVG Version: 6.00 Build 0)  -->
<!DOCTYPE svg PUBLIC "-//W3C//DTD SVG 1.1//EN" "http://www.w3.org/Graphics/SVG/1.1/DTD/svg11.dtd" [
	<!ENTITY ns_extend "http://ns.adobe.com/Extensibility/1.0/">
	<!ENTITY ns_ai "http://ns.adobe.com/AdobeIllustrator/10.0/">
	<!ENTITY ns_graphs "http://ns.adobe.com/Graphs/1.0/">
	<!ENTITY ns_vars "http://ns.adobe.com/Variables/1.0/">
	<!ENTITY ns_imrep "http://ns.adobe.com/ImageReplacement/1.0/">
	<!ENTITY ns_sfw "http://ns.adobe.com/SaveForWeb/1.0/">
	<!ENTITY ns_custom "http://ns.adobe.com/GenericCustomNamespace/1.0/">
	<!ENTITY ns_adobe_xpath "http://ns.adobe.com/XPath/1.0/">
	<!ENTITY Drop_x0020_Shadow "fill:none;">
	<!ENTITY Outer_x0020_Glow_x0020_5_x0020_pt "fill:none;">
	<!ENTITY Blue_x0020_Neon "fill:none;stroke:#8AACDA;stroke-width:7;stroke-linecap:round;stroke-linejoin:round;">
	<!ENTITY Chrome_x0020_Highlight "fill:url(#SVGID_1_);stroke:#FFFFFF;stroke-width:0.3629;stroke-miterlimit:1;">
	<!ENTITY Jive_GS "fill:#FFDD00;">
	<!ENTITY Alyssa_GS "fill:#A6D0E4;">
	<!ENTITY st0 "fill:#FFFFFF;">
	<!ENTITY st1 "opacity:0.2;fill:url(#SVGID_00000085945894818049075600000005539026263124911531_);">
	<!ENTITY st2 "fill:#FB741A;">
	<!ENTITY st3 "fill:#03092D;">
	<!ENTITY st4 "fill:#FED501;">
	<!ENTITY st5 "fill:#1B2C5A;">
	<!ENTITY st6 "fill:#EFBBD9;">
	<!ENTITY st7 "fill:#4486F7;">
	<!ENTITY st8 "fill:url(#SVGID_00000036956291831689064860000016689144226890010265_);">
	<!ENTITY st9 "opacity:0.3;fill:#03092D;">
	<!ENTITY st10 "opacity:0.3;fill:#FFFFFF;">
	<!ENTITY st11 "opacity:0.3;">
]>
<svg version="1.1" id="Layer_1" xmlns:x="&ns_extend;" xmlns:i="&ns_ai;" xmlns:graph="&ns_graphs;"
	 xmlns="http://www.w3.org/2000/svg" xmlns:xlink="http://www.w3.org/1999/xlink" x="0px" y="0px" viewBox="0 0 436 244"
	 style="enable-background:new 0 0 436 244;" xml:space="preserve">
<metadata><?xpacket begin="﻿" id="W5M0MpCehiHzreSzNTczkc9d"?>
<x:xmpmeta xmlns:x="adobe:ns:meta/" x:xmptk="Adobe XMP Core 7.1-c000 79.cb7c5a1, 2022/04/14-05:22:35        ">
   <rdf:RDF xmlns:rdf="http://www.w3.org/1999/02/22-rdf-syntax-ns#">
      <rdf:Description rdf:about=""
            xmlns:dc="http://purl.org/dc/elements/1.1/"
            xmlns:xmp="http://ns.adobe.com/xap/1.0/"
            xmlns:xmpGImg="http://ns.adobe.com/xap/1.0/g/img/"
            xmlns:xmpMM="http://ns.adobe.com/xap/1.0/mm/"
            xmlns:stRef="http://ns.adobe.com/xap/1.0/sType/ResourceRef#"
            xmlns:stEvt="http://ns.adobe.com/xap/1.0/sType/ResourceEvent#"
            xmlns:illustrator="http://ns.adobe.com/illustrator/1.0/"
            xmlns:xmpTPg="http://ns.adobe.com/xap/1.0/t/pg/"
            xmlns:stDim="http://ns.adobe.com/xap/1.0/sType/Dimensions#"
            xmlns:xmpG="http://ns.adobe.com/xap/1.0/g/"
            xmlns:pdf="http://ns.adobe.com/pdf/1.3/"
            xmlns:pdfx="http://ns.adobe.com/pdfx/1.3/">
         <dc:format>image/svg+xml</dc:format>
         <dc:title>
            <rdf:Alt>
               <rdf:li xml:lang="x-default">Web</rdf:li>
            </rdf:Alt>
         </dc:title>
         <xmp:CreatorTool>Adobe Illustrator 26.3 (Macintosh)</xmp:CreatorTool>
         <xmp:CreateDate>2022-06-02T23:54:51+09:00</xmp:CreateDate>
         <xmp:ModifyDate>2022-06-02T23:54:51+09:00</xmp:ModifyDate>
         <xmp:MetadataDate>2022-06-02T23:54:51+09:00</xmp:MetadataDate>
         <xmp:Thumbnails>
            <rdf:Alt>
               <rdf:li rdf:parseType="Resource">
                  <xmpGImg:width>256</xmpGImg:width>
                  <xmpGImg:height>144</xmpGImg:height>
                  <xmpGImg:format>JPEG</xmpGImg:format>
                  <xmpGImg:image>/9j/4AAQSkZJRgABAgEASABIAAD/7QAsUGhvdG9zaG9wIDMuMAA4QklNA+0AAAAAABAASAAAAAEA&#xA;AQBIAAAAAQAB/+4ADkFkb2JlAGTAAAAAAf/bAIQABgQEBAUEBgUFBgkGBQYJCwgGBggLDAoKCwoK&#xA;DBAMDAwMDAwQDA4PEA8ODBMTFBQTExwbGxscHx8fHx8fHx8fHwEHBwcNDA0YEBAYGhURFRofHx8f&#xA;Hx8fHx8fHx8fHx8fHx8fHx8fHx8fHx8fHx8fHx8fHx8fHx8fHx8fHx8fHx8f/8AAEQgAkAEAAwER&#xA;AAIRAQMRAf/EAaIAAAAHAQEBAQEAAAAAAAAAAAQFAwIGAQAHCAkKCwEAAgIDAQEBAQEAAAAAAAAA&#xA;AQACAwQFBgcICQoLEAACAQMDAgQCBgcDBAIGAnMBAgMRBAAFIRIxQVEGE2EicYEUMpGhBxWxQiPB&#xA;UtHhMxZi8CRygvElQzRTkqKyY3PCNUQnk6OzNhdUZHTD0uIIJoMJChgZhJRFRqS0VtNVKBry4/PE&#xA;1OT0ZXWFlaW1xdXl9WZ2hpamtsbW5vY3R1dnd4eXp7fH1+f3OEhYaHiImKi4yNjo+Ck5SVlpeYmZ&#xA;qbnJ2en5KjpKWmp6ipqqusra6voRAAICAQIDBQUEBQYECAMDbQEAAhEDBCESMUEFURNhIgZxgZEy&#xA;obHwFMHR4SNCFVJicvEzJDRDghaSUyWiY7LCB3PSNeJEgxdUkwgJChgZJjZFGidkdFU38qOzwygp&#xA;0+PzhJSktMTU5PRldYWVpbXF1eX1RlZmdoaWprbG1ub2R1dnd4eXp7fH1+f3OEhYaHiImKi4yNjo&#xA;+DlJWWl5iZmpucnZ6fkqOkpaanqKmqq6ytrq+v/aAAwDAQACEQMRAD8A9U4q7FXYq7FXYq7FXYq7&#xA;FXYq7FXYq7FXYq7FXYq7FXYq7FXYq7FXYq7FXYq7FXYq7FXYq7FXYq7FXYq7FXYq7FXYq7FXYq7F&#xA;XYq7FXYq7FXYq7FXYq7FXYq7FXYq7FXYq7FXYq7FXYq7FXYq7FXYq7FXYq7FXYq7FXYq7FXYq7FX&#xA;Yq7FXYq7FXYq7FXYqpTXVtD/AHsqp7MQD92KqB1nTK09dfuP9MVVY9QsZDRJ0J8OQB+44qr4q7FX&#xA;Yq7FXYq7FXYq7FXYq7FXYq7FXYq7FXYq7FXYq7FXYq7FXYq7FXYq7FXYq7FXYq4kAEk0A3JOKsc1&#xA;PXpZGMVoSkY2Mn7TfLwGKpOSSSSak9ScUuxV2Kq0F7d25/cysg/lrt9x2xVNrTzKwot1HUfzpsfp&#xA;BxQnVtd21ynKGQOO47j5jFVXFXYq7FXYq7FXYq7FXYq7FXYq7FXYq7FXYq7FXYq7FXYq7FXYq7FX&#xA;Yq7FXYqknmK/KKLSM0LjlKR4dh9OKsfxS7FXYqo3t3FZ2c93NX0reN5ZOIqeKKWNB8hhAs0gsTh/&#xA;M7TpkV49Lvyrbg/6IP8AsYza/wAjZvL5uJ+ex+auPzBtyaDSL+vzs/8AsoyP8kZvL8fBfzsPNVi/&#xA;MH0nDx6TqKOOjA2YP/UTg/knL3x/HwT+ch5pxZfnHHxC3GiX8lNvUjNlX6R9Zpj/ACVl74/j4L+c&#xA;h5sl0Dz9o2s2c1ykVxaGCVoZYLhF9QMqq3+6WlUijjo2YWfBLFLhlzb8cxMWGtB8+6TrNi13FDcQ&#xA;KsjR+nKgDVWh7ErtWjCvwsGU7qcpZo4+ZrLtHIfoUfxxVHWGoQXsbPFUFTRkalR4dMVROKuxV2Ku&#xA;xV2KuxV2KuxV2KuxV2KuxV2KuxV2KuxV2KuxV3TFWFXtwbi6lmP7bEj5dB+GKXm/5m61PYXtpAda&#xA;bTbKeCRpI4mEcgkjYcW5r+9+NWbiAaVXo3TMLWnMIg4xe7sOz4YZSIyGtnmuk68/NH0vW5NOZaSz&#xA;JNdtHFM7yEpH8bM7emoKtUb0965h+JqMZsiUvgenf03dh4OnyCgYx+I693XZ7f5M8wPrmiJeSzW8&#xA;tyJJY5Ran4B6crIpoWkI5KvLc9822MyMQSKJdHnhGMzGJsDqivM3/KN6r/zB3H/Jpsth9QajyeP6&#xA;a3KxhPsf1nPQcf0h5uXNWWWJneNXDPHT1FBBK1FRUdqjCJAkgHcIIKM0mHTZ9a0+DUyv1GWYpMkt&#xA;PScmN/TSSu3FpOIodiaL3zmfa/JnjoJHDYNi658PV2PZMYHOOL8FP/P2naLZ3OmPZwRW2pPKUlSF&#xA;VRmtlibeRVpVVkVArHpWg6nOH9hM+oOrMbkcXCeLuvo7ntqEPCB24r2T3yN/vPqn/Me//JmLOq7U&#xA;/vvgPucHSf3fzZLmvcp2KonTr17O5WUbp0kXxU4oZjG6SIroeSMAVPiDireKuxV2KuxV2KuxV2Ku&#xA;xV2KuxV2KuxV2KuxV2KuxV2KrJ0Z4JEX7TKQPmRirByCCQRQjYjFLxz8yL9P8X3rSm2BtreCCOKZ&#xA;gHdVVpuShiB8TTlf9jnTdjgRxE7bl1WtszA3SfSGgvdPiunto42k5VQKppRyv8M3WKpRunAnYNWz&#xA;j8qo4477XlRQq1tfhUUG6P4ZzHbYrKPc7bQH0Mx1DSdY1LyPqGqLe20EUtjcubT6u8rpwjcNGZfW&#xA;jHIcaH4Nj45qogCQcw8njOkevJp9rFAnrXU7elbxdOcjMQor2Hdj2FTnY6zXw0umOafKI+fk6LFg&#xA;OXIIR6s413yNDY+XobmxX1dQ09S99Iq/HdRt8Ux4ip5I3xxjegqo655V2D7UZIa6WTMfRmO/l3fJ&#xA;6bW9mxOERiN48mM6fpd7rd19Q070yzR+pNcSgvDHGa8S4HX1COKj5noDnoXtD7QYtBiGwnOfKPl1&#xA;PudDoNBLNLuA6qENstpPLA9sLS6gfhd24ADK60NDTrsaqehBBGxzZ9mZ8GbCMmEARl3bb+bj6mE4&#xA;T4Z3Yeofl7oGq39lqtxbX8FtF+kZF9OS2eZqrDFvyWeL/iOc52pXjfAfc7XSfR80z026lubQSyhR&#xA;IHkjJjJKN6UjRiRK0PF+PIV7HNcRTkpb5s1aSx08QW0jR3t2HWOVFMjQxRrznuOChi3pRgkCh5Nx&#xA;X9rK5HoGyA6noxc+YfIZHxeYNTP03n/VLKuGP9L/AGTfc+6H+xRNpr/5dSQzW8vmbWLd2RhbzxG/&#xA;Yo5GxEYiYMQTUCmERj/S/wBkpM+6P+xemfl55ivdT0ubTtW+DzDokgs9Vj3+JgKxTjl8XCZPiUkC&#xA;vhlsT0LjzAuxyLKskwdirsVdirsVdirsVdirsVdirsVdirsVdirsVdirsVY35g0/0ZvrMY/dyn4x&#xA;4P8A24q888zeR7nWdYGpQaitp/o8du0TQerX0nkcNy9SP/fvSmbDR9oywRIAu3Hz6YZDZSv/AJVh&#xA;qf8A1e4/+kP/AK/5mfy7k/mho/k+PeU98oeUZPL730kt6LyS9MZJEXohRECAKc5K/azXazVnPLiI&#xA;pysOEYxQZFZy08hearKlBZDUFDfzfWIPrhP0G5K/RlEfqDYeTwzyZ5gttHnW7uII7iSKMx2itKYz&#xA;GXJMjkem45MKKPAV/mOZvtF2Nqe0IxhCcIY49De5+AcPQavHgJJiTIsuk/NpRGxhsofVAPp8rlgv&#xA;LtWkJ2zlY/8AA/1F75cf+y/U7I9uY/5svsS/y35207RdPFrbWEBkkYy3Ei3HDnI3WiiL4VUfCi/s&#xA;qAMydV7E6zPPilmgaAAsyOw5dGvH2xigKEJfYhvMfmBNbu7W7t7WK3uo6RTuJ+fqQbniQI1PJCao&#xA;a+I71G/9nOwNZ2fM3khLFLmN/mNnB7Q12HPH6ZCQ9z1L8ttTFh5I8waoQHFpdXVyV7H07aJ6fhln&#xA;ao/fkeQ+5noz+7+appdm1pp1nZFubW8McJfxKKFr9NM1kj1csBgHmTzTfabbxebIHiEN9KILFZlL&#xA;L9RBHDcFShuZCJGbei8QRVcx5zMQDVkn7Ny5ePFGZMSaER9uwQt7+ZOtTQX11ps0EdqlxbrAZoWL&#xA;RxvDcNKkvFieSPbgNQbbihyM9TV13x+2t/tZQ0lkA3dSP+ltr/Gfnj9Cy63a6npl1ZW0xhke3hnE&#xA;iyBFcDjKsX8w+/JTyyEeIV9vfSIYYGfCeIfLutl8935k0CSz8+6xLbS3EEi6f5ljslZUewmdVgn4&#xA;tQmSKU9lqwoOgyw2Nz8WkUfSOXR6/ljQ7FXYq7FXYq7FXYq7FXYq7FXYq7FXYq7FXYq7FXYqoX8S&#xA;S2UyP0KE18CBUHFWA6lqMGnWcl5cK7QRbymNS7KvduK/EQO9BXCBZpSUq/xx5fJpFJJMWhW6hEcT&#xA;t6tuePKWLb4wnL4gPiFOnSs/CKOIJtp2o2WpWMN9Yyie0uF5wyrUBl+RocgQQaKQUFL5v0jy3qt7&#xA;BqltcXlrq1rEPq1vEJhWJpUlMisyijpIi+9MhPNCAHFIR97bjwTyfSDL3MEuPPH/ADj1bTyW8nlf&#xA;Uw8TFGASTYjb/lpzPhqcsgCJ7HzcaWnETRjv7lMfmF/zjwOnlnVB/sH/AOyrJeNm/n/ax8GP837G&#xA;/wDlYf8Azjz/ANS1qn/Ayf8AZVj4+b+f9q+DH+b9jv8AlYf/ADjz/wBS1qn/AAMn/ZVj4+b+f9q+&#xA;DH+b9jK7bz75Gn8vQeX/AC7pl5p1vqc9vw+sQ8I2WWaNpQ8hkkYl4gVH0DpmBLVRnMgzEp+/fZyv&#xA;ys4w4uEiPuZTiwYPrGgWzaxa6fc3AtdMS6GsWBZQY+UMgmurUksAo5D1V/yWcAUTKhHcDu3+8fpb&#xA;+M0SOoo/f+hJ4tJ8gwEpbea9OitxdQXEUXrW5KxwetSLl6o5bXFAx7AVqanIjSgE1e8gWctXIgWO&#xA;UTH5sg8z6v5M1/SZNMHmXToGlZSJBcwSdD04+ota/PLcmPiFH8dWnFMwlY/HRVupE8w+cbfSmHq6&#xA;Fockd1q6D7E9z9qGBhsGVB8bDdT0NCMB3NKPTG+peyxukiK6HkjAFT4g5NqbxV2KuxV2KuxV2Kux&#xA;V2KuxV2KuxV2KuxV2KuxV2KpNr+piOM2kRrI4/eHwU9vmcVYxc2trdR+lcwpPFyVvTkUOvJDyU0Y&#xA;EVBFRiDSqUulaXL6/q2cEn1ko1zyjQ+o0VPTL1HxFOI416Uw8RWkSAAAAKAdBgSxHzAEPnLTg/Hg&#xA;bc8uVKf3neoIznvaD6A7zsi+GddyMuI9OhBDyW4LJMV3i61BA+z1pnJx4zyB6d7sRkl58x3/AK1Z&#xA;ItOZ2Ia3KlxQ1ipT0wdvgyJMvP7WPFOuvLz7/epmGw+rE1gr6b/77rXt+xhuV9WQlO+vPz/WvaHT&#xA;/WXeCnq/8VdPTP8AkeODilXX7UCU668vPv8Aex7zAkC6r5f9LhveW3Lhx6+oOvEDN52ET4+/n9zV&#xA;rSfy877wz/OzeYSvzHo/6V0uS3TgLlCJbR5ByQSrWnMd0YEo6/tISvfISFs8cqO/JjraNqI6eSdD&#xA;b5XK/wAbEYKHd9zPiP8AO+9Qn0nWTE6xeRtFWRlISQ3EUiqxGzFPqsfIDw5CviMaH837lEv6X3sn&#xA;8r6EmiaRHaFvVuXLTXtwdzLPIeUjk0Fanvkoig1zlZZj5e1Hi31OU/C28JPY91+nJMGQYq7FXYq7&#xA;FXYq7FXYq7FXYq7FXYq7FXYq7FXYqpXc4t7aSY/sKSB4nt+OKsLkd5HZ3PJ2NWJ7k4pee6y03mXV&#xA;rl0tEv8ARtJZraO2e7a0WWcf39wWUElYiPSXaleRrkDZ5NooDfmg28uacpKt5ZtAw2IOsy1B/wCB&#xA;x9Xd9qbj3/YyDyTf3Fu03l2+cNcWaLPYyCT1g9nIaBfU25tA9YmNBtxNN8I22LCYB3Cn5jmSDzdY&#xA;TO/BI7VnZ9hQB6k7g5oe34kwiA7jsn6MnuYdc21vbJcXl7H9YvXhMk1zMqzOJ3i05AwEnKpR7yVo&#xA;0+yCdhsM6KOIYsXDiAFDYfj7XB2u5fjkyTy5bWtjrBt3niivrS1htvSEsauDx9R40Djk8cSNEqt/&#xA;rE/EWzku38fBGOOIsC5SNc5S7z3mjt+hztNRJtFa7r17p8c0MSiYizkljb1I6FiwT4gE2RWZAxrt&#xA;yrsASNdoOzRniZ39BFit+HvH6m/Ll4JcvvQA836tDPFNcxJNZyFbgvA3CSOF4Jm5MjowLILaXmtQ&#xA;RxoAxObbN7NR8PixSs116/G3Hjq6NGI+1V8xvy1Xy98fOl3ajqpp+8H8oGYPYI/f/P7nM1grTz94&#xA;R+sfmboGm6nd6csF3fzafH62oyWcSvHboCATIzOmy8hXjWnzBp3cNPIgHYW8qcgDJtPv7PULKC+s&#xA;5RNa3CCSGQVFVPsaEHxB3HfKZRINHmzBtEYEuxVB6pq1lpluJ7tmCM3BEjR5ZGbiXISOMM7URWY0&#xA;HQE9shkyRgLkaCQCeSKt545Y47i3kDxuFkilQ1BUiqspHj1ByaGe4odirsVdirsVdirsVdirsVdi&#xA;rsVdirsVdirsVQGvV/RctPFa/LkMVYVqMFzcafdQWs31e5lhkSCcdY3ZSFf/AGJ3wFI5vJj5b1rV&#xA;ra2k0W2+rnTLKPStRtOUNXnhncXMLVZeocSgseJB5btQZi5ccpDbupz8OWMT6v51/j7k3s/y4mfT&#xA;tZuL6zja+mF99RtmWEuZJGLQTCcMeJ8ASOu+TGI3K+rWc49IHSu9MLfS7eHWPLelafbLa6hpyG/1&#xA;WZAD6ccsXpSRNT4Ga4k99gvIZKEaAHUMMk7Mj0J2U/P8Uc+vWFrKQIruOK2lqaVSe6SJwD4lXNMx&#xA;tRASz4ge8n5C3O0EuHFk9wHzNMwNlZtIZWgjaRmDlyoJ5DhQ1P8AxiT/AIEeGbZjT54/Naax0y+v&#xA;dJtZ1udQvdQm1LUrhdzECWW2tg9eX7tHZmHSrZlYYXueTrNTLh2HO7UvyuS6t9Rs9VLC9sLy7/Qu&#xA;q2J3KRXqgRO9ago71r/q035bOUAbAUumvY8+hexWHkS4toorWS6E1tHGYWkJPqMhF8tSKU5cb1K7&#xA;9QfauMKAoOfwHqfxuxyzeZ7rRfXXjcLf2yToeqypLxkX6GBGcno8Xh6sx7rd52hk49Jxd9MN80/l&#xA;vrvmDz75g/QUf1qCG6rdTOyRhJJx6rLRyteJYjbegr3Fe4hliIR4jWzxJiSTT3TyZ5fby95YsNHe&#xA;UTSWqESSDoXd2kanTYFqAnNflnxyJciEaFJ1lbJ2KqF7Y2d9bm3vIEuIGILRSKGUlTUVBwEA81RV&#xA;unKeJAPtMqgfM0wqzjFDsVdirsVdirsVdirsVdirsVdirsVdirsVdiqhfwGezmiG5ZTx+Y3H44qw&#xA;vFLEPMflW5l1n9I2VqLy3u0C6jZfWZLPlNEKQzq8e5IRmRgdqU8MrnFthPaigf8ADNz/ANS2f+4z&#xA;c5DhPd9rZxj+d/sQn/lDy/LpFjI92RJqd44kvJAzPQKOEMKu9XZYowFHInep75bEU0zlZQnmvSHu&#xA;Nb0O7jkAb6wsUkJUnksZ+tBgwPw8fQI3G9fHqPAEpxl/Nv7RTkabMYgw6Sr7Dar5kfVbr09H0iRI&#xA;ru5R5biZneMx26FVbg6K7K7s4CmnTkRuMvyXwmjRbZ5RAixbze//ACBury9muvXiiMzFyizsQCet&#xA;K25OQw5s0IiPFE11MT/xTi5fBnIy4ZC/6Q/4lNfKP5VeYvKeoNfafcQXCSKFuLOadvTlVTyXpbji&#xA;6sKq3b5ZPx5yPqqvIH/iiiEoQ+kS+JH6g9F07UIr639VFeJ0Yxz28opJFIv2kcAkVHiCQRQgkEHJ&#xA;udCQkLDFdH8q3t5qv1+eSGOxg1K7uFjjLNK7R3MvAGoVU+KjNu1eneua06IDUHLfPp8Fza8nD4Nd&#xA;efxtnmZbrHYqgtYivpbMLZFhP6sJqkixHgsql/iZJRTgDUcdxtUdcMavdBQWnW+tpqKvdNIbYfWw&#xA;Q08br8c6tD8Cwxn+7rx+L4RseR3yRIpAtOsgyR2iQGbUY9vhj+Nv9j0/HFDLcVdirsVdirsVdirs&#xA;VdirsVdirsVdirsVdirsVdirGdd01oJjcRj9zIatT9lj/XFUqxS7FXYqkVq/6Q1u5v8Ara2Iexsz&#xA;/NJyBun9wHRYh4FG8cuiKDl6aHVW0Mevc6jqJ/3dObWE9xFZlouJH/Gf1T8jkJno05pXJN8g1OxV&#xA;JbkfUvMMUo2h1VDC47fWYFMiEDxeHnyP+Qoy2B2cjTyo03prm11u+sW/u7sC+tT22CxToNv2WCP8&#xA;3wTHVGojUr705ytodirsVdiraqzMFUFmJoANyTirKtG042cBL/30lC/sOy4oTDFXYq7FXYq7FXYq&#xA;7FXYq7FXYq7FXYq7FXYq7FXYq06I6lHAZWFCp3BGKpFfeXDUvaMKf76Y/qP9cVSmaxvITSWF196V&#xA;H3jbFKHYEqQCVJGxFKj78VQtjpX1KwitrOKSWG2jCqFBd24jqaD4mbqfE5aJ25mPPGqOyL8r+WdW&#xA;TQ7CK4h+rzCCM3AkO/qsoaUkdalycrkbLhkshg8swDeaVnPgoCj8a4EIoaDpYFPSJPiWav68VY/5&#xA;18vWsWgz6hb8lk01kvqE1/d27h5gO9TCHX6clDmyhKiCx7Vra5eGO6s42mvrJ/Xt4UFWkoCJIgPG&#xA;SMso8Goe2WufmjcU7e0u0ALwyKCK/ErD9Yyh16nxatKGvhiqpHaXUh/dwu3yU4qj7by9fSEGWkK9&#xA;6mp+4YoTux0q1sxVByl7yN1+jwxVGYq7FXYq7FXYq7FXYq7FXYq7FXYq7FXYq7FXYq7FXYq7FXYq&#xA;7FXEAmpG46HFXYq7FXYq7FVC/sre+sbixuV5W91E8Ey9KpIpVh9xxBVZYabaWMSpAm4ABkbd2p3L&#xA;YSbZymZc0VgYOxV2KuxV2KuxV2KuxV2KuxV2KuxV2KuxV2KuxV2KuxV2KuxV2KuxV2KuxV2KuxV2&#xA;KuxV2KuxV2KuxV2KuxV2KuxV2KuxV2KuxV2KuxV2KuxV2KuxV2KuxV2KuxV2KuxV2KuxV2KuxV2K&#xA;uxV2KuxV2KuxV2KuxV2KuxV2KuxV2KuxV2KuxV2KuxV2KuxV2Kv/2Q==</xmpGImg:image>
               </rdf:li>
            </rdf:Alt>
         </xmp:Thumbnails>
         <xmpMM:RenditionClass>default</xmpMM:RenditionClass>
         <xmpMM:OriginalDocumentID>uuid:65E6390686CF11DBA6E2D887CEACB407</xmpMM:OriginalDocumentID>
         <xmpMM:DocumentID>xmp.did:1f956da8-5fc0-46fa-976d-d57a381948e1</xmpMM:DocumentID>
         <xmpMM:InstanceID>xmp.iid:1f956da8-5fc0-46fa-976d-d57a381948e1</xmpMM:InstanceID>
         <xmpMM:DerivedFrom rdf:parseType="Resource">
            <stRef:instanceID>xmp.iid:9c6daf17-db6d-4ff3-9851-40550a47bf5f</stRef:instanceID>
            <stRef:documentID>xmp.did:9c6daf17-db6d-4ff3-9851-40550a47bf5f</stRef:documentID>
            <stRef:originalDocumentID>uuid:65E6390686CF11DBA6E2D887CEACB407</stRef:originalDocumentID>
            <stRef:renditionClass>default</stRef:renditionClass>
         </xmpMM:DerivedFrom>
         <xmpMM:History>
            <rdf:Seq>
               <rdf:li rdf:parseType="Resource">
                  <stEvt:action>saved</stEvt:action>
                  <stEvt:instanceID>xmp.iid:9c6daf17-db6d-4ff3-9851-40550a47bf5f</stEvt:instanceID>
                  <stEvt:when>2022-06-02T23:54:39+09:00</stEvt:when>
                  <stEvt:softwareAgent>Adobe Illustrator 26.3 (Macintosh)</stEvt:softwareAgent>
                  <stEvt:changed>/</stEvt:changed>
               </rdf:li>
               <rdf:li rdf:parseType="Resource">
                  <stEvt:action>saved</stEvt:action>
                  <stEvt:instanceID>xmp.iid:1f956da8-5fc0-46fa-976d-d57a381948e1</stEvt:instanceID>
                  <stEvt:when>2022-06-02T23:54:51+09:00</stEvt:when>
                  <stEvt:softwareAgent>Adobe Illustrator 26.3 (Macintosh)</stEvt:softwareAgent>
                  <stEvt:changed>/</stEvt:changed>
               </rdf:li>
            </rdf:Seq>
         </xmpMM:History>
         <illustrator:StartupProfile>Web</illustrator:StartupProfile>
         <illustrator:CreatorSubTool>Adobe Illustrator</illustrator:CreatorSubTool>
         <xmpTPg:NPages>1</xmpTPg:NPages>
         <xmpTPg:HasVisibleTransparency>True</xmpTPg:HasVisibleTransparency>
         <xmpTPg:HasVisibleOverprint>False</xmpTPg:HasVisibleOverprint>
         <xmpTPg:MaxPageSize rdf:parseType="Resource">
            <stDim:w>436.000000</stDim:w>
            <stDim:h>244.000000</stDim:h>
            <stDim:unit>Pixels</stDim:unit>
         </xmpTPg:MaxPageSize>
         <xmpTPg:PlateNames>
            <rdf:Seq>
               <rdf:li>Cyan</rdf:li>
               <rdf:li>Magenta</rdf:li>
               <rdf:li>Yellow</rdf:li>
               <rdf:li>Black</rdf:li>
            </rdf:Seq>
         </xmpTPg:PlateNames>
         <xmpTPg:SwatchGroups>
            <rdf:Seq>
               <rdf:li rdf:parseType="Resource">
                  <xmpG:groupName>Default Swatch Group</xmpG:groupName>
                  <xmpG:groupType>0</xmpG:groupType>
                  <xmpG:Colorants>
                     <rdf:Seq>
                        <rdf:li rdf:parseType="Resource">
                           <xmpG:swatchName>White</xmpG:swatchName>
                           <xmpG:mode>RGB</xmpG:mode>
                           <xmpG:type>PROCESS</xmpG:type>
                           <xmpG:red>255</xmpG:red>
                           <xmpG:green>255</xmpG:green>
                           <xmpG:blue>255</xmpG:blue>
                        </rdf:li>
                        <rdf:li rdf:parseType="Resource">
                           <xmpG:swatchName>Black</xmpG:swatchName>
                           <xmpG:mode>RGB</xmpG:mode>
                           <xmpG:type>PROCESS</xmpG:type>
                           <xmpG:red>0</xmpG:red>
                           <xmpG:green>0</xmpG:green>
                           <xmpG:blue>0</xmpG:blue>
                        </rdf:li>
                        <rdf:li rdf:parseType="Resource">
                           <xmpG:swatchName>RGB Red</xmpG:swatchName>
                           <xmpG:mode>RGB</xmpG:mode>
                           <xmpG:type>PROCESS</xmpG:type>
                           <xmpG:red>255</xmpG:red>
                           <xmpG:green>0</xmpG:green>
                           <xmpG:blue>0</xmpG:blue>
                        </rdf:li>
                        <rdf:li rdf:parseType="Resource">
                           <xmpG:swatchName>RGB Yellow</xmpG:swatchName>
                           <xmpG:mode>RGB</xmpG:mode>
                           <xmpG:type>PROCESS</xmpG:type>
                           <xmpG:red>255</xmpG:red>
                           <xmpG:green>255</xmpG:green>
                           <xmpG:blue>0</xmpG:blue>
                        </rdf:li>
                        <rdf:li rdf:parseType="Resource">
                           <xmpG:swatchName>RGB Green</xmpG:swatchName>
                           <xmpG:mode>RGB</xmpG:mode>
                           <xmpG:type>PROCESS</xmpG:type>
                           <xmpG:red>0</xmpG:red>
                           <xmpG:green>255</xmpG:green>
                           <xmpG:blue>0</xmpG:blue>
                        </rdf:li>
                        <rdf:li rdf:parseType="Resource">
                           <xmpG:swatchName>RGB Cyan</xmpG:swatchName>
                           <xmpG:mode>RGB</xmpG:mode>
                           <xmpG:type>PROCESS</xmpG:type>
                           <xmpG:red>0</xmpG:red>
                           <xmpG:green>255</xmpG:green>
                           <xmpG:blue>255</xmpG:blue>
                        </rdf:li>
                        <rdf:li rdf:parseType="Resource">
                           <xmpG:swatchName>RGB Blue</xmpG:swatchName>
                           <xmpG:mode>RGB</xmpG:mode>
                           <xmpG:type>PROCESS</xmpG:type>
                           <xmpG:red>0</xmpG:red>
                           <xmpG:green>0</xmpG:green>
                           <xmpG:blue>255</xmpG:blue>
                        </rdf:li>
                        <rdf:li rdf:parseType="Resource">
                           <xmpG:swatchName>RGB Magenta</xmpG:swatchName>
                           <xmpG:mode>RGB</xmpG:mode>
                           <xmpG:type>PROCESS</xmpG:type>
                           <xmpG:red>255</xmpG:red>
                           <xmpG:green>0</xmpG:green>
                           <xmpG:blue>255</xmpG:blue>
                        </rdf:li>
                        <rdf:li rdf:parseType="Resource">
                           <xmpG:swatchName>R=193 G=39 B=45</xmpG:swatchName>
                           <xmpG:mode>RGB</xmpG:mode>
                           <xmpG:type>PROCESS</xmpG:type>
                           <xmpG:red>193</xmpG:red>
                           <xmpG:green>39</xmpG:green>
                           <xmpG:blue>45</xmpG:blue>
                        </rdf:li>
                        <rdf:li rdf:parseType="Resource">
                           <xmpG:swatchName>R=237 G=28 B=36</xmpG:swatchName>
                           <xmpG:mode>RGB</xmpG:mode>
                           <xmpG:type>PROCESS</xmpG:type>
                           <xmpG:red>237</xmpG:red>
                           <xmpG:green>28</xmpG:green>
                           <xmpG:blue>36</xmpG:blue>
                        </rdf:li>
                        <rdf:li rdf:parseType="Resource">
                           <xmpG:swatchName>R=241 G=90 B=36</xmpG:swatchName>
                           <xmpG:mode>RGB</xmpG:mode>
                           <xmpG:type>PROCESS</xmpG:type>
                           <xmpG:red>241</xmpG:red>
                           <xmpG:green>90</xmpG:green>
                           <xmpG:blue>36</xmpG:blue>
                        </rdf:li>
                        <rdf:li rdf:parseType="Resource">
                           <xmpG:swatchName>R=247 G=147 B=30</xmpG:swatchName>
                           <xmpG:mode>RGB</xmpG:mode>
                           <xmpG:type>PROCESS</xmpG:type>
                           <xmpG:red>247</xmpG:red>
                           <xmpG:green>147</xmpG:green>
                           <xmpG:blue>30</xmpG:blue>
                        </rdf:li>
                        <rdf:li rdf:parseType="Resource">
                           <xmpG:swatchName>R=251 G=176 B=59</xmpG:swatchName>
                           <xmpG:mode>RGB</xmpG:mode>
                           <xmpG:type>PROCESS</xmpG:type>
                           <xmpG:red>251</xmpG:red>
                           <xmpG:green>176</xmpG:green>
                           <xmpG:blue>59</xmpG:blue>
                        </rdf:li>
                        <rdf:li rdf:parseType="Resource">
                           <xmpG:swatchName>R=252 G=238 B=33</xmpG:swatchName>
                           <xmpG:mode>RGB</xmpG:mode>
                           <xmpG:type>PROCESS</xmpG:type>
                           <xmpG:red>252</xmpG:red>
                           <xmpG:green>238</xmpG:green>
                           <xmpG:blue>33</xmpG:blue>
                        </rdf:li>
                        <rdf:li rdf:parseType="Resource">
                           <xmpG:swatchName>R=217 G=224 B=33</xmpG:swatchName>
                           <xmpG:mode>RGB</xmpG:mode>
                           <xmpG:type>PROCESS</xmpG:type>
                           <xmpG:red>217</xmpG:red>
                           <xmpG:green>224</xmpG:green>
                           <xmpG:blue>33</xmpG:blue>
                        </rdf:li>
                        <rdf:li rdf:parseType="Resource">
                           <xmpG:swatchName>R=140 G=198 B=63</xmpG:swatchName>
                           <xmpG:mode>RGB</xmpG:mode>
                           <xmpG:type>PROCESS</xmpG:type>
                           <xmpG:red>140</xmpG:red>
                           <xmpG:green>198</xmpG:green>
                           <xmpG:blue>63</xmpG:blue>
                        </rdf:li>
                        <rdf:li rdf:parseType="Resource">
                           <xmpG:swatchName>R=57 G=181 B=74</xmpG:swatchName>
                           <xmpG:mode>RGB</xmpG:mode>
                           <xmpG:type>PROCESS</xmpG:type>
                           <xmpG:red>57</xmpG:red>
                           <xmpG:green>181</xmpG:green>
                           <xmpG:blue>74</xmpG:blue>
                        </rdf:li>
                        <rdf:li rdf:parseType="Resource">
                           <xmpG:swatchName>R=0 G=146 B=69</xmpG:swatchName>
                           <xmpG:mode>RGB</xmpG:mode>
                           <xmpG:type>PROCESS</xmpG:type>
                           <xmpG:red>0</xmpG:red>
                           <xmpG:green>146</xmpG:green>
                           <xmpG:blue>69</xmpG:blue>
                        </rdf:li>
                        <rdf:li rdf:parseType="Resource">
                           <xmpG:swatchName>R=0 G=104 B=55</xmpG:swatchName>
                           <xmpG:mode>RGB</xmpG:mode>
                           <xmpG:type>PROCESS</xmpG:type>
                           <xmpG:red>0</xmpG:red>
                           <xmpG:green>104</xmpG:green>
                           <xmpG:blue>55</xmpG:blue>
                        </rdf:li>
                        <rdf:li rdf:parseType="Resource">
                           <xmpG:swatchName>R=34 G=181 B=115</xmpG:swatchName>
                           <xmpG:mode>RGB</xmpG:mode>
                           <xmpG:type>PROCESS</xmpG:type>
                           <xmpG:red>34</xmpG:red>
                           <xmpG:green>181</xmpG:green>
                           <xmpG:blue>115</xmpG:blue>
                        </rdf:li>
                        <rdf:li rdf:parseType="Resource">
                           <xmpG:swatchName>R=0 G=169 B=157</xmpG:swatchName>
                           <xmpG:mode>RGB</xmpG:mode>
                           <xmpG:type>PROCESS</xmpG:type>
                           <xmpG:red>0</xmpG:red>
                           <xmpG:green>169</xmpG:green>
                           <xmpG:blue>157</xmpG:blue>
                        </rdf:li>
                        <rdf:li rdf:parseType="Resource">
                           <xmpG:swatchName>R=41 G=171 B=226</xmpG:swatchName>
                           <xmpG:mode>RGB</xmpG:mode>
                           <xmpG:type>PROCESS</xmpG:type>
                           <xmpG:red>41</xmpG:red>
                           <xmpG:green>171</xmpG:green>
                           <xmpG:blue>226</xmpG:blue>
                        </rdf:li>
                        <rdf:li rdf:parseType="Resource">
                           <xmpG:swatchName>R=0 G=113 B=188</xmpG:swatchName>
                           <xmpG:mode>RGB</xmpG:mode>
                           <xmpG:type>PROCESS</xmpG:type>
                           <xmpG:red>0</xmpG:red>
                           <xmpG:green>113</xmpG:green>
                           <xmpG:blue>188</xmpG:blue>
                        </rdf:li>
                        <rdf:li rdf:parseType="Resource">
                           <xmpG:swatchName>R=46 G=49 B=146</xmpG:swatchName>
                           <xmpG:mode>RGB</xmpG:mode>
                           <xmpG:type>PROCESS</xmpG:type>
                           <xmpG:red>46</xmpG:red>
                           <xmpG:green>49</xmpG:green>
                           <xmpG:blue>146</xmpG:blue>
                        </rdf:li>
                        <rdf:li rdf:parseType="Resource">
                           <xmpG:swatchName>R=27 G=20 B=100</xmpG:swatchName>
                           <xmpG:mode>RGB</xmpG:mode>
                           <xmpG:type>PROCESS</xmpG:type>
                           <xmpG:red>27</xmpG:red>
                           <xmpG:green>20</xmpG:green>
                           <xmpG:blue>100</xmpG:blue>
                        </rdf:li>
                        <rdf:li rdf:parseType="Resource">
                           <xmpG:swatchName>R=102 G=45 B=145</xmpG:swatchName>
                           <xmpG:mode>RGB</xmpG:mode>
                           <xmpG:type>PROCESS</xmpG:type>
                           <xmpG:red>102</xmpG:red>
                           <xmpG:green>45</xmpG:green>
                           <xmpG:blue>145</xmpG:blue>
                        </rdf:li>
                        <rdf:li rdf:parseType="Resource">
                           <xmpG:swatchName>R=147 G=39 B=143</xmpG:swatchName>
                           <xmpG:mode>RGB</xmpG:mode>
                           <xmpG:type>PROCESS</xmpG:type>
                           <xmpG:red>147</xmpG:red>
                           <xmpG:green>39</xmpG:green>
                           <xmpG:blue>143</xmpG:blue>
                        </rdf:li>
                        <rdf:li rdf:parseType="Resource">
                           <xmpG:swatchName>R=158 G=0 B=93</xmpG:swatchName>
                           <xmpG:mode>RGB</xmpG:mode>
                           <xmpG:type>PROCESS</xmpG:type>
                           <xmpG:red>158</xmpG:red>
                           <xmpG:green>0</xmpG:green>
                           <xmpG:blue>93</xmpG:blue>
                        </rdf:li>
                        <rdf:li rdf:parseType="Resource">
                           <xmpG:swatchName>R=212 G=20 B=90</xmpG:swatchName>
                           <xmpG:mode>RGB</xmpG:mode>
                           <xmpG:type>PROCESS</xmpG:type>
                           <xmpG:red>212</xmpG:red>
                           <xmpG:green>20</xmpG:green>
                           <xmpG:blue>90</xmpG:blue>
                        </rdf:li>
                        <rdf:li rdf:parseType="Resource">
                           <xmpG:swatchName>R=237 G=30 B=121</xmpG:swatchName>
                           <xmpG:mode>RGB</xmpG:mode>
                           <xmpG:type>PROCESS</xmpG:type>
                           <xmpG:red>237</xmpG:red>
                           <xmpG:green>30</xmpG:green>
                           <xmpG:blue>121</xmpG:blue>
                        </rdf:li>
                        <rdf:li rdf:parseType="Resource">
                           <xmpG:swatchName>R=199 G=178 B=153</xmpG:swatchName>
                           <xmpG:mode>RGB</xmpG:mode>
                           <xmpG:type>PROCESS</xmpG:type>
                           <xmpG:red>199</xmpG:red>
                           <xmpG:green>178</xmpG:green>
                           <xmpG:blue>153</xmpG:blue>
                        </rdf:li>
                        <rdf:li rdf:parseType="Resource">
                           <xmpG:swatchName>R=153 G=134 B=117</xmpG:swatchName>
                           <xmpG:mode>RGB</xmpG:mode>
                           <xmpG:type>PROCESS</xmpG:type>
                           <xmpG:red>153</xmpG:red>
                           <xmpG:green>134</xmpG:green>
                           <xmpG:blue>117</xmpG:blue>
                        </rdf:li>
                        <rdf:li rdf:parseType="Resource">
                           <xmpG:swatchName>R=115 G=99 B=87</xmpG:swatchName>
                           <xmpG:mode>RGB</xmpG:mode>
                           <xmpG:type>PROCESS</xmpG:type>
                           <xmpG:red>115</xmpG:red>
                           <xmpG:green>99</xmpG:green>
                           <xmpG:blue>87</xmpG:blue>
                        </rdf:li>
                        <rdf:li rdf:parseType="Resource">
                           <xmpG:swatchName>R=83 G=71 B=65</xmpG:swatchName>
                           <xmpG:mode>RGB</xmpG:mode>
                           <xmpG:type>PROCESS</xmpG:type>
                           <xmpG:red>83</xmpG:red>
                           <xmpG:green>71</xmpG:green>
                           <xmpG:blue>65</xmpG:blue>
                        </rdf:li>
                        <rdf:li rdf:parseType="Resource">
                           <xmpG:swatchName>R=198 G=156 B=109</xmpG:swatchName>
                           <xmpG:mode>RGB</xmpG:mode>
                           <xmpG:type>PROCESS</xmpG:type>
                           <xmpG:red>198</xmpG:red>
                           <xmpG:green>156</xmpG:green>
                           <xmpG:blue>109</xmpG:blue>
                        </rdf:li>
                        <rdf:li rdf:parseType="Resource">
                           <xmpG:swatchName>R=166 G=124 B=82</xmpG:swatchName>
                           <xmpG:mode>RGB</xmpG:mode>
                           <xmpG:type>PROCESS</xmpG:type>
                           <xmpG:red>166</xmpG:red>
                           <xmpG:green>124</xmpG:green>
                           <xmpG:blue>82</xmpG:blue>
                        </rdf:li>
                        <rdf:li rdf:parseType="Resource">
                           <xmpG:swatchName>R=140 G=98 B=57</xmpG:swatchName>
                           <xmpG:mode>RGB</xmpG:mode>
                           <xmpG:type>PROCESS</xmpG:type>
                           <xmpG:red>140</xmpG:red>
                           <xmpG:green>98</xmpG:green>
                           <xmpG:blue>57</xmpG:blue>
                        </rdf:li>
                        <rdf:li rdf:parseType="Resource">
                           <xmpG:swatchName>R=117 G=76 B=36</xmpG:swatchName>
                           <xmpG:mode>RGB</xmpG:mode>
                           <xmpG:type>PROCESS</xmpG:type>
                           <xmpG:red>117</xmpG:red>
                           <xmpG:green>76</xmpG:green>
                           <xmpG:blue>36</xmpG:blue>
                        </rdf:li>
                        <rdf:li rdf:parseType="Resource">
                           <xmpG:swatchName>R=96 G=56 B=19</xmpG:swatchName>
                           <xmpG:mode>RGB</xmpG:mode>
                           <xmpG:type>PROCESS</xmpG:type>
                           <xmpG:red>96</xmpG:red>
                           <xmpG:green>56</xmpG:green>
                           <xmpG:blue>19</xmpG:blue>
                        </rdf:li>
                        <rdf:li rdf:parseType="Resource">
                           <xmpG:swatchName>R=66 G=33 B=11</xmpG:swatchName>
                           <xmpG:mode>RGB</xmpG:mode>
                           <xmpG:type>PROCESS</xmpG:type>
                           <xmpG:red>66</xmpG:red>
                           <xmpG:green>33</xmpG:green>
                           <xmpG:blue>11</xmpG:blue>
                        </rdf:li>
                     </rdf:Seq>
                  </xmpG:Colorants>
               </rdf:li>
               <rdf:li rdf:parseType="Resource">
                  <xmpG:groupName>Grays</xmpG:groupName>
                  <xmpG:groupType>1</xmpG:groupType>
                  <xmpG:Colorants>
                     <rdf:Seq>
                        <rdf:li rdf:parseType="Resource">
                           <xmpG:swatchName>R=0 G=0 B=0</xmpG:swatchName>
                           <xmpG:mode>RGB</xmpG:mode>
                           <xmpG:type>PROCESS</xmpG:type>
                           <xmpG:red>0</xmpG:red>
                           <xmpG:green>0</xmpG:green>
                           <xmpG:blue>0</xmpG:blue>
                        </rdf:li>
                        <rdf:li rdf:parseType="Resource">
                           <xmpG:swatchName>R=26 G=26 B=26</xmpG:swatchName>
                           <xmpG:mode>RGB</xmpG:mode>
                           <xmpG:type>PROCESS</xmpG:type>
                           <xmpG:red>26</xmpG:red>
                           <xmpG:green>26</xmpG:green>
                           <xmpG:blue>26</xmpG:blue>
                        </rdf:li>
                        <rdf:li rdf:parseType="Resource">
                           <xmpG:swatchName>R=51 G=51 B=51</xmpG:swatchName>
                           <xmpG:mode>RGB</xmpG:mode>
                           <xmpG:type>PROCESS</xmpG:type>
                           <xmpG:red>51</xmpG:red>
                           <xmpG:green>51</xmpG:green>
                           <xmpG:blue>51</xmpG:blue>
                        </rdf:li>
                        <rdf:li rdf:parseType="Resource">
                           <xmpG:swatchName>R=77 G=77 B=77</xmpG:swatchName>
                           <xmpG:mode>RGB</xmpG:mode>
                           <xmpG:type>PROCESS</xmpG:type>
                           <xmpG:red>77</xmpG:red>
                           <xmpG:green>77</xmpG:green>
                           <xmpG:blue>77</xmpG:blue>
                        </rdf:li>
                        <rdf:li rdf:parseType="Resource">
                           <xmpG:swatchName>R=102 G=102 B=102</xmpG:swatchName>
                           <xmpG:mode>RGB</xmpG:mode>
                           <xmpG:type>PROCESS</xmpG:type>
                           <xmpG:red>102</xmpG:red>
                           <xmpG:green>102</xmpG:green>
                           <xmpG:blue>102</xmpG:blue>
                        </rdf:li>
                        <rdf:li rdf:parseType="Resource">
                           <xmpG:swatchName>R=128 G=128 B=128</xmpG:swatchName>
                           <xmpG:mode>RGB</xmpG:mode>
                           <xmpG:type>PROCESS</xmpG:type>
                           <xmpG:red>128</xmpG:red>
                           <xmpG:green>128</xmpG:green>
                           <xmpG:blue>128</xmpG:blue>
                        </rdf:li>
                        <rdf:li rdf:parseType="Resource">
                           <xmpG:swatchName>R=153 G=153 B=153</xmpG:swatchName>
                           <xmpG:mode>RGB</xmpG:mode>
                           <xmpG:type>PROCESS</xmpG:type>
                           <xmpG:red>153</xmpG:red>
                           <xmpG:green>153</xmpG:green>
                           <xmpG:blue>153</xmpG:blue>
                        </rdf:li>
                        <rdf:li rdf:parseType="Resource">
                           <xmpG:swatchName>R=179 G=179 B=179</xmpG:swatchName>
                           <xmpG:mode>RGB</xmpG:mode>
                           <xmpG:type>PROCESS</xmpG:type>
                           <xmpG:red>179</xmpG:red>
                           <xmpG:green>179</xmpG:green>
                           <xmpG:blue>179</xmpG:blue>
                        </rdf:li>
                        <rdf:li rdf:parseType="Resource">
                           <xmpG:swatchName>R=204 G=204 B=204</xmpG:swatchName>
                           <xmpG:mode>RGB</xmpG:mode>
                           <xmpG:type>PROCESS</xmpG:type>
                           <xmpG:red>204</xmpG:red>
                           <xmpG:green>204</xmpG:green>
                           <xmpG:blue>204</xmpG:blue>
                        </rdf:li>
                        <rdf:li rdf:parseType="Resource">
                           <xmpG:swatchName>R=230 G=230 B=230</xmpG:swatchName>
                           <xmpG:mode>RGB</xmpG:mode>
                           <xmpG:type>PROCESS</xmpG:type>
                           <xmpG:red>230</xmpG:red>
                           <xmpG:green>230</xmpG:green>
                           <xmpG:blue>230</xmpG:blue>
                        </rdf:li>
                        <rdf:li rdf:parseType="Resource">
                           <xmpG:swatchName>R=242 G=242 B=242</xmpG:swatchName>
                           <xmpG:mode>RGB</xmpG:mode>
                           <xmpG:type>PROCESS</xmpG:type>
                           <xmpG:red>242</xmpG:red>
                           <xmpG:green>242</xmpG:green>
                           <xmpG:blue>242</xmpG:blue>
                        </rdf:li>
                     </rdf:Seq>
                  </xmpG:Colorants>
               </rdf:li>
               <rdf:li rdf:parseType="Resource">
                  <xmpG:groupName>Web Color Group</xmpG:groupName>
                  <xmpG:groupType>1</xmpG:groupType>
                  <xmpG:Colorants>
                     <rdf:Seq>
                        <rdf:li rdf:parseType="Resource">
                           <xmpG:swatchName>R=63 G=169 B=245</xmpG:swatchName>
                           <xmpG:mode>RGB</xmpG:mode>
                           <xmpG:type>PROCESS</xmpG:type>
                           <xmpG:red>63</xmpG:red>
                           <xmpG:green>169</xmpG:green>
                           <xmpG:blue>245</xmpG:blue>
                        </rdf:li>
                        <rdf:li rdf:parseType="Resource">
                           <xmpG:swatchName>R=122 G=201 B=67</xmpG:swatchName>
                           <xmpG:mode>RGB</xmpG:mode>
                           <xmpG:type>PROCESS</xmpG:type>
                           <xmpG:red>122</xmpG:red>
                           <xmpG:green>201</xmpG:green>
                           <xmpG:blue>67</xmpG:blue>
                        </rdf:li>
                        <rdf:li rdf:parseType="Resource">
                           <xmpG:swatchName>R=255 G=147 B=30</xmpG:swatchName>
                           <xmpG:mode>RGB</xmpG:mode>
                           <xmpG:type>PROCESS</xmpG:type>
                           <xmpG:red>255</xmpG:red>
                           <xmpG:green>147</xmpG:green>
                           <xmpG:blue>30</xmpG:blue>
                        </rdf:li>
                        <rdf:li rdf:parseType="Resource">
                           <xmpG:swatchName>R=255 G=29 B=37</xmpG:swatchName>
                           <xmpG:mode>RGB</xmpG:mode>
                           <xmpG:type>PROCESS</xmpG:type>
                           <xmpG:red>255</xmpG:red>
                           <xmpG:green>29</xmpG:green>
                           <xmpG:blue>37</xmpG:blue>
                        </rdf:li>
                        <rdf:li rdf:parseType="Resource">
                           <xmpG:swatchName>R=255 G=123 B=172</xmpG:swatchName>
                           <xmpG:mode>RGB</xmpG:mode>
                           <xmpG:type>PROCESS</xmpG:type>
                           <xmpG:red>255</xmpG:red>
                           <xmpG:green>123</xmpG:green>
                           <xmpG:blue>172</xmpG:blue>
                        </rdf:li>
                        <rdf:li rdf:parseType="Resource">
                           <xmpG:swatchName>R=189 G=204 B=212</xmpG:swatchName>
                           <xmpG:mode>RGB</xmpG:mode>
                           <xmpG:type>PROCESS</xmpG:type>
                           <xmpG:red>189</xmpG:red>
                           <xmpG:green>204</xmpG:green>
                           <xmpG:blue>212</xmpG:blue>
                        </rdf:li>
                     </rdf:Seq>
                  </xmpG:Colorants>
               </rdf:li>
            </rdf:Seq>
         </xmpTPg:SwatchGroups>
         <pdf:Producer>Adobe PDF library 15.00</pdf:Producer>
         <pdfx:CreatorVersion>21.0.0</pdfx:CreatorVersion>
      </rdf:Description>
   </rdf:RDF>
</x:xmpmeta>
                                                                                                    
                                                                                                    
                                                                                                    
                                                                                                    
                                                                                                    
                                                                                                    
                                                                                                    
                                                                                                    
                                                                                                    
                                                                                                    
                                                                                                    
                                                                                                    
                                                                                                    
                                                                                                    
                                                                                                    
                                                                                                    
                                                                                                    
                                                                                                    
                                                                                                    
                                                                                                    
                           
<?xpacket end="w"?>
	</metadata>
<linearGradient id="SVGID_1_" gradientUnits="userSpaceOnUse" x1="-732" y1="-433" x2="-732" y2="-434">
	<stop  offset="0" style="stop-color:#656565"/>
	<stop  offset="0.618" style="stop-color:#1B1B1B"/>
	<stop  offset="0.6292" style="stop-color:#545454"/>
	<stop  offset="0.9831" style="stop-color:#3E3E3E"/>
</linearGradient>
<rect style="&st0;" width="436" height="244"/>
<g>
	
		<linearGradient id="SVGID_00000095314011674033473220000012099417907316438716_" gradientUnits="userSpaceOnUse" x1="298.5169" y1="75.2695" x2="297.6996" y2="75.8144">
		<stop  offset="0" style="stop-color:#FFFFFF"/>
		<stop  offset="1" style="stop-color:#000000"/>
	</linearGradient>
	<path style="opacity:0.2;fill:url(#SVGID_00000095314011674033473220000012099417907316438716_);" d="M125.49,136.5
		c-12.11,16.66-6.02,42.69,9.53,55.63c15.54,12.95,37.46,14.63,56.84,9.79c11.65-2.91,23.04-7.96,35-7.88
		c12,0.08,23.32,5.32,35.03,7.97c15.07,3.4,31.03,2.44,45.67-2.75c9.73-3.45,19.23-9.07,24.89-18.09
		c4.61-7.34,6.28-16.26,7.22-24.99c3.79-35.2-1.57-84.13-42.67-92.42c-20.64-4.16-43.86,6.58-62.19-4.15
		c-14.93-8.74-94.47-55.05-112.89,23.48c-3.33,14.19,17.9,26.5,12.93,40.16C132.97,128.42,128.68,132.11,125.49,136.5z"/>
	<g>
		<g>
			<path style="&st2;" d="M187.86,170.66h63.85c2.18,0,3.95-1.77,3.95-3.95v-46.59h-71.74v46.59
				C183.92,168.89,185.68,170.66,187.86,170.66z"/>
			<path style="&st3;" d="M187.86,170.91h63.85c2.31,0,4.2-1.88,4.2-4.2v-46.84h-72.24v46.84
				C183.67,169.03,185.55,170.91,187.86,170.91z M184.17,120.37h71.24v46.34c0,2.04-1.66,3.7-3.7,3.7h-63.85
				c-2.04,0-3.7-1.66-3.7-3.7V120.37z"/>
		</g>
		<g>
			<g>
				<rect x="188.44" y="124.08" style="&st4;" width="4.23" height="2.11"/>
			</g>
			<g>
				<rect x="193.75" y="124.08" style="&st4;" width="4.23" height="2.11"/>
			</g>
			<g>
				<rect x="199.07" y="124.08" style="&st4;" width="4.23" height="2.11"/>
			</g>
			<g>
				<rect x="204.38" y="124.08" style="&st4;" width="4.23" height="2.11"/>
			</g>
			<g>
				<rect x="209.7" y="124.08" style="&st4;" width="4.23" height="2.11"/>
			</g>
			<g>
				<rect x="215.02" y="124.08" style="&st4;" width="4.23" height="2.11"/>
			</g>
			<g>
				<rect x="220.33" y="124.08" style="&st4;" width="4.23" height="2.11"/>
			</g>
			<g>
				<rect x="225.65" y="124.08" style="&st4;" width="4.23" height="2.11"/>
			</g>
			<g>
				<rect x="230.97" y="124.08" style="&st4;" width="4.23" height="2.11"/>
			</g>
			<g>
				<rect x="236.28" y="124.08" style="&st4;" width="4.23" height="2.11"/>
			</g>
			<g>
				<rect x="241.6" y="124.08" style="&st4;" width="4.23" height="2.11"/>
			</g>
			<g>
				<rect x="246.91" y="124.08" style="&st4;" width="4.23" height="2.11"/>
			</g>
			<g>
				<rect x="188.44" y="127.25" style="&st4;" width="4.23" height="3.23"/>
			</g>
			<g>
				<rect x="193.75" y="127.25" style="&st4;" width="4.23" height="3.23"/>
			</g>
			<g>
				<rect x="199.07" y="127.25" style="&st4;" width="4.23" height="3.23"/>
			</g>
			<g>
				<rect x="204.38" y="127.25" style="&st4;" width="4.23" height="3.23"/>
			</g>
			<g>
				<rect x="209.7" y="127.25" style="&st4;" width="4.23" height="3.23"/>
			</g>
			<g>
				<rect x="215.02" y="127.25" style="&st4;" width="4.23" height="3.23"/>
			</g>
			<g>
				<rect x="220.33" y="127.25" style="&st4;" width="4.23" height="3.23"/>
			</g>
			<g>
				<rect x="225.65" y="127.25" style="&st4;" width="4.23" height="3.23"/>
			</g>
			<g>
				<rect x="230.97" y="127.25" style="&st4;" width="4.23" height="3.23"/>
			</g>
			<g>
				<rect x="236.28" y="127.25" style="&st4;" width="4.23" height="3.23"/>
			</g>
			<g>
				<rect x="241.6" y="127.25" style="&st4;" width="4.23" height="3.23"/>
			</g>
			<g>
				<rect x="246.91" y="127.25" style="&st4;" width="4.23" height="3.23"/>
			</g>
			<g>
				<rect x="188.44" y="131.55" style="&st4;" width="9.25" height="3.23"/>
			</g>
			<g>
				<rect x="199.07" y="136.17" style="&st4;" width="4.23" height="3.23"/>
			</g>
			<g>
				<rect x="204.38" y="131.55" style="&st4;" width="4.23" height="3.23"/>
			</g>
			<g>
				<rect x="199.07" y="131.55" style="&st4;" width="4.23" height="3.23"/>
			</g>
			<g>
				<rect x="209.7" y="131.55" style="&st4;" width="4.23" height="3.23"/>
			</g>
			<g>
				<rect x="215.02" y="131.55" style="&st4;" width="4.23" height="3.23"/>
			</g>
			<g>
				<rect x="220.33" y="131.55" style="&st4;" width="4.23" height="3.23"/>
			</g>
			<g>
				<rect x="225.65" y="131.55" style="&st4;" width="4.23" height="3.23"/>
			</g>
			<g>
				<rect x="230.97" y="131.55" style="&st4;" width="4.23" height="3.23"/>
			</g>
			<g>
				<rect x="236.28" y="131.55" style="&st4;" width="4.23" height="3.23"/>
			</g>
			<g>
				<rect x="241.6" y="131.55" style="&st4;" width="4.23" height="3.23"/>
			</g>
			<g>
				<rect x="246.91" y="131.55" style="&st4;" width="4.23" height="3.23"/>
			</g>
			<g>
				<rect x="188.44" y="136.17" style="&st4;" width="9.25" height="3.23"/>
			</g>
			<g>
				<rect x="204.38" y="136.17" style="&st4;" width="4.23" height="3.23"/>
			</g>
			<g>
				<rect x="209.7" y="136.17" style="&st4;" width="4.23" height="3.23"/>
			</g>
			<g>
				<rect x="215.02" y="136.17" style="&st4;" width="4.23" height="3.23"/>
			</g>
			<g>
				<rect x="220.33" y="136.17" style="&st4;" width="4.23" height="3.23"/>
			</g>
			<g>
				<rect x="225.65" y="136.17" style="&st4;" width="4.23" height="3.23"/>
			</g>
			<g>
				<rect x="230.97" y="136.17" style="&st4;" width="4.23" height="3.23"/>
			</g>
			<g>
				<rect x="236.28" y="136.17" style="&st4;" width="4.23" height="3.23"/>
			</g>
			<g>
				<rect x="241.6" y="136.17" style="&st4;" width="4.23" height="3.23"/>
			</g>
			<g>
				<rect x="246.91" y="136.17" style="&st4;" width="4.23" height="3.23"/>
			</g>
			<g>
				<rect x="199.07" y="140.79" style="&st4;" width="4.23" height="3.23"/>
			</g>
			<g>
				<rect x="188.44" y="140.79" style="&st4;" width="9.25" height="3.23"/>
			</g>
			<g>
				<rect x="204.38" y="140.79" style="&st4;" width="4.23" height="3.23"/>
			</g>
			<g>
				<rect x="209.7" y="140.79" style="&st4;" width="4.23" height="3.23"/>
			</g>
			<g>
				<rect x="215.02" y="140.79" style="&st4;" width="4.23" height="3.23"/>
			</g>
			<g>
				<rect x="220.33" y="140.79" style="&st4;" width="4.23" height="3.23"/>
			</g>
			<g>
				<rect x="225.65" y="140.79" style="&st4;" width="4.23" height="3.23"/>
			</g>
			<g>
				<rect x="230.97" y="140.79" style="&st4;" width="4.23" height="3.23"/>
			</g>
			<g>
				<rect x="236.28" y="140.79" style="&st4;" width="4.23" height="3.23"/>
			</g>
			<g>
				<rect x="241.6" y="140.79" style="&st4;" width="4.23" height="3.23"/>
			</g>
			<g>
				<rect x="246.91" y="140.79" style="&st4;" width="4.23" height="3.23"/>
			</g>
			<g>
				<rect x="199.07" y="145.39" style="&st4;" width="30.81" height="3.23"/>
			</g>
			<g>
				<rect x="193.75" y="145.39" style="&st4;" width="4.23" height="3.23"/>
			</g>
			<g>
				<rect x="188.44" y="145.39" style="&st4;" width="4.23" height="3.23"/>
			</g>
			<g>
				<rect x="230.97" y="145.39" style="&st4;" width="4.23" height="3.23"/>
			</g>
			<g>
				<rect x="236.28" y="145.39" style="&st4;" width="4.23" height="3.23"/>
			</g>
			<g>
				<rect x="241.6" y="145.39" style="&st4;" width="4.23" height="3.23"/>
			</g>
			<g>
				<rect x="246.91" y="145.39" style="&st4;" width="4.23" height="3.23"/>
			</g>
		</g>
		<path style="&st5;" d="M208.29,150.63c-0.87,0-1.57,0.71-1.57,1.57v15.01c0,0.87,0.71,1.57,1.57,1.57h23
			c0.87,0,1.57-0.71,1.57-1.57V152.2c0-0.87-0.71-1.57-1.57-1.57H208.29z"/>
		<rect x="192.9" y="117.04" style="&st5;" width="53.77" height="4.75"/>
		<g>
			<path style="&st0;" d="M178.36,90.75l5.56,27.52h71.74l5.56-27.52c0.26-1.27-0.72-2.47-2.02-2.47h-78.82
				C179.08,88.29,178.1,89.48,178.36,90.75z"/>
			<path style="&st3;" d="M178.12,90.8l5.6,27.72h72.15l5.6-27.72c0.14-0.68-0.04-1.38-0.48-1.92c-0.44-0.54-1.09-0.85-1.79-0.85
				h-78.82c-0.7,0-1.35,0.31-1.79,0.85C178.15,89.42,177.98,90.12,178.12,90.8z M180.38,88.54h78.82c0.54,0,1.05,0.24,1.4,0.66
				c0.34,0.42,0.48,0.97,0.37,1.5l-5.52,27.32h-71.33l-5.52-27.32c-0.11-0.53,0.03-1.08,0.37-1.5
				C179.33,88.78,179.84,88.54,180.38,88.54z"/>
		</g>
		<g>
			<g>
				<path style="&st6;" d="M176.99,195.64l13.64,6.71c2.93-17.09,4.62-20.62,9.34-31.9c1.33-1.25,2.6-2.77,3.7-4.41c0,0,0,0,0,0
					c4.47-2.26,6.56-6.13,8.01-8.77c1.45-2.64,2.83-8.37,0.79-8.32c-2.91,0.07-1.91,2.71-3.63,5.48c-0.35,0.56-0.96,1.47-1.66,2.54
					c0.11-1.49-0.08-2.89-0.65-4.11c1.4-2.61,2.83-5.94,3.17-8.07c0.4-2.51,2.84-7.07,1.52-7.99c-1.32-0.92-3.57,2.51-4.69,4.49
					c-0.8,1.41-3,5.27-3.91,8.08c-1.24-0.49-2.75-0.8-4.59-0.89c-1.26-0.1-2.35-0.04-3.31,0.15c0.02-0.93,0.02-2.17-0.08-3.5
					c-0.2-2.77,0.66-4.89,1.85-5.81c1.19-0.92,0.46-1.67,0-2.09c-0.46-0.42-5.38,1.23-5.32,6.25c0.07,5.02-1.61,9.23-1.61,9.23
					l0.01-0.01c-2.74,5.91-0.54,16.51-3.22,22.31C183.92,182.55,180.24,188.06,176.99,195.64z"/>
				<path style="&st3;" d="M211.41,157.26c-1.47,2.68-3.49,6.34-7.79,8.54h-0.08l-0.07,0.11c-1.08,1.62-2.35,3.13-3.66,4.37
					l-0.7,1.61c-4.31,10.26-5.92,14.1-8.72,30.43l0.49,0.08c2.79-16.27,4.4-20.1,8.69-30.32l0.62-1.47
					c1.31-1.24,2.58-2.74,3.66-4.36c4.44-2.27,6.58-6.16,8-8.74l0.06-0.11c1.24-2.26,2.43-6.67,1.54-8.15
					c-0.22-0.36-0.55-0.54-0.97-0.54c-2.02,0.05-2.36,1.31-2.74,2.78c-0.23,0.86-0.48,1.83-1.1,2.82c-0.26,0.43-0.68,1.05-1.17,1.79
					c-0.01-1.19-0.23-2.27-0.65-3.23c1.29-2.44,2.78-5.8,3.14-8.04c0.13-0.85,0.52-1.99,0.9-3.08c0.79-2.28,1.53-4.44,0.51-5.15
					c-0.27-0.19-0.58-0.25-0.92-0.17c-1.44,0.33-3.21,3.11-4.13,4.74l-0.05,0.09c-0.79,1.39-2.85,5.03-3.8,7.78
					c-1.26-0.46-2.74-0.73-4.41-0.82c-1.1-0.09-2.14-0.06-3.07,0.1c0.02-1.11-0.01-2.19-0.08-3.22c-0.17-2.44,0.51-4.63,1.75-5.6
					c0.48-0.37,0.73-0.77,0.74-1.18c0.02-0.62-0.48-1.08-0.73-1.3c-0.4-0.36-1.58,0.15-1.82,0.25c-0.93,0.42-3.97,2.11-3.92,6.19
					c0.06,4.91-1.58,9.09-1.6,9.14l-0.05,0.13c-1.34,3.01-1.47,7.18-1.59,11.22c-0.12,3.98-0.25,8.11-1.57,10.97
					c-1.47,4.54-3.38,8.32-5.4,12.32c-1.31,2.6-2.67,5.29-3.96,8.3l0.46,0.2c1.28-2.99,2.63-5.67,3.94-8.27
					c2.03-4.02,3.95-7.81,5.41-12.36c1.35-2.93,1.48-7.1,1.61-11.13c0.12-4.05,0.25-8.25,1.61-11.17l0.27-0.61l-0.08,0.04
					c0.45-1.33,1.48-4.82,1.43-8.76c-0.04-2.92,1.68-4.52,2.7-5.21c1.07-0.72,2.04-0.91,2.2-0.85c0.29,0.26,0.58,0.57,0.56,0.91
					c-0.01,0.26-0.19,0.53-0.55,0.8c-1.39,1.08-2.13,3.39-1.95,6.03c0.08,1.1,0.1,2.27,0.08,3.48l-0.01,0.31l0.31-0.06
					c0.97-0.19,2.06-0.24,3.25-0.14c1.74,0.09,3.25,0.38,4.51,0.88l0.25,0.1l0.08-0.25c0.89-2.73,3.03-6.51,3.84-7.94l0.05-0.09
					c1.48-2.61,2.9-4.29,3.81-4.5c0.2-0.04,0.37-0.02,0.52,0.09c0.71,0.5-0.04,2.67-0.7,4.58c-0.38,1.12-0.78,2.27-0.92,3.17
					c-0.35,2.21-1.85,5.58-3.14,7.99l-0.06,0.11l0.05,0.11c0.53,1.14,0.74,2.48,0.63,3.99l-0.07,0.96l0.9-1.37
					c0.55-0.83,1.01-1.52,1.29-1.98c0.65-1.05,0.92-2.07,1.16-2.96c0.39-1.47,0.62-2.37,2.27-2.4c0.22-0.02,0.4,0.09,0.53,0.3
					c0.72,1.18-0.26,5.31-1.55,7.65L211.41,157.26z"/>
			</g>
			<g>
				<path style="&st6;" d="M201.09,138.49c1.58-1.05,0.63-1.93,0.03-2.42c-0.6-0.49-6.52,0.23-6.5,6.04
					c0.02,5.81,0.06,9.61,0.06,9.61l3.82-0.57c0,0,0.29-2.75,0.07-5.96C198.35,141.97,199.51,139.54,201.09,138.49z"/>
				<path style="&st3;" d="M201.23,138.7c0.63-0.42,0.96-0.87,0.98-1.34c0.03-0.7-0.62-1.23-0.93-1.49
					c-0.42-0.34-2.02-0.21-3.44,0.47c-1.3,0.62-3.48,2.2-3.46,5.77c0.02,5.81,0.06,9.61,0.06,9.61l0.5-0.01c0,0-0.04-3.8-0.06-9.61
					c-0.01-3.03,1.63-4.52,3-5.23c1.48-0.77,2.89-0.76,3.09-0.62c0.38,0.31,0.77,0.68,0.75,1.07c-0.01,0.3-0.27,0.62-0.76,0.95
					c-1.84,1.22-2.84,3.87-2.63,6.93c0.22,3.15-0.07,5.89-0.07,5.92l0.5,0.05c0-0.03,0.29-2.81,0.07-6.01
					C198.63,142.34,199.57,139.8,201.23,138.7z"/>
			</g>
			<g>
				<path style="&st6;" d="M205.07,138.7c1.64-0.96,0.74-1.89,0.17-2.42c-0.58-0.53-6.52-0.14-6.83,5.66
					c-0.31,5.8-0.49,9.6-0.49,9.6l3.84-0.35c0,0,0.45-2.73,0.41-5.95C202.13,142.02,203.43,139.66,205.07,138.7z"/>
				<path style="&st3;" d="M205.2,138.92c0.65-0.38,1-0.81,1.05-1.28c0.07-0.7-0.55-1.27-0.84-1.54c-0.4-0.37-2-0.33-3.46,0.27
					c-1.33,0.55-3.6,1.99-3.79,5.56c-0.31,5.8-0.49,9.6-0.49,9.6l0.5,0.02c0,0,0.18-3.8,0.49-9.6c0.16-3.03,1.88-4.42,3.3-5.05
					c1.52-0.68,2.93-0.59,3.12-0.44c0.36,0.33,0.73,0.72,0.68,1.12c-0.03,0.3-0.3,0.61-0.81,0.9c-1.9,1.11-3.06,3.71-3.03,6.76
					c0.04,3.16-0.4,5.88-0.41,5.91l0.49,0.08c0-0.03,0.45-2.79,0.42-5.99C202.38,141.8,203.83,139.72,205.2,138.92z"/>
			</g>
		</g>
		<g>
			<g>
				<path style="&st6;" d="M223.48,155.42c-2.04-0.05-0.66,5.68,0.79,8.32c1.45,2.64,3.54,6.51,8.01,8.77c0,0,0,0,0,0
					c1.1,1.64,2.37,3.16,3.7,4.41c4.72,11.28,6.41,14.8,9.34,31.9l13.64-6.71c-3.24-7.58-6.92-13.09-9.36-20.64
					c-2.68-5.79-0.48-16.4-3.22-22.31l0.01,0.01c0,0-1.68-4.21-1.61-9.23c0.07-5.02-4.85-6.67-5.32-6.25s-1.19,1.17,0,2.09
					c1.19,0.92,2.05,3.04,1.85,5.81c-0.1,1.33-0.1,2.57-0.08,3.5c-0.96-0.19-2.05-0.25-3.31-0.15c-1.84,0.09-3.35,0.41-4.59,0.89
					c-0.92-2.81-3.12-6.67-3.91-8.08c-1.12-1.98-3.37-5.42-4.69-4.49c-1.32,0.92,1.12,5.48,1.52,7.99c0.34,2.13,1.77,5.46,3.17,8.07
					c-0.57,1.22-0.76,2.62-0.65,4.11c-0.7-1.07-1.31-1.98-1.66-2.54C225.39,158.12,226.38,155.48,223.48,155.42z"/>
				<path style="&st3;" d="M246.15,159.27c1.36,2.93,1.49,7.12,1.61,11.17c0.12,4.04,0.25,8.21,1.6,11.11
					c1.48,4.58,3.4,8.37,5.42,12.39c1.31,2.59,2.66,5.27,3.94,8.27l0.46-0.2c-1.29-3.01-2.64-5.7-3.96-8.3
					c-2.02-4-3.93-7.78-5.41-12.35c-1.31-2.84-1.44-6.96-1.56-10.94c-0.12-4.02-0.25-8.17-1.57-11.17l-0.07-0.18
					c-0.02-0.04-1.66-4.23-1.6-9.14c0.05-4.07-2.98-5.77-3.92-6.19c-0.23-0.11-1.42-0.61-1.82-0.25c-0.37,0.34-0.75,0.75-0.73,1.3
					c0.02,0.41,0.27,0.81,0.74,1.18c1.24,0.96,1.93,3.16,1.75,5.6c-0.07,1.03-0.1,2.11-0.08,3.22c-0.94-0.15-1.97-0.18-3.07-0.1
					c-1.68,0.08-3.17,0.36-4.42,0.82c-0.95-2.76-3.01-6.4-3.81-7.8l-0.04-0.08c-0.92-1.63-2.69-4.41-4.13-4.74
					c-0.34-0.08-0.65-0.02-0.92,0.17c-1.02,0.71-0.27,2.87,0.51,5.15c0.38,1.1,0.77,2.23,0.9,3.08c0.35,2.24,1.84,5.6,3.14,8.04
					c-0.42,0.96-0.64,2.04-0.65,3.23c-0.49-0.74-0.9-1.37-1.17-1.79c-0.61-0.99-0.87-1.96-1.1-2.82c-0.39-1.46-0.72-2.73-2.74-2.78
					c-0.44,0-0.75,0.18-0.97,0.54c-0.9,1.48,0.3,5.9,1.54,8.15l0.06,0.11c1.42,2.58,3.55,6.46,7.98,8.73l0.03,0.06h0.02
					c1.08,1.6,2.33,3.08,3.62,4.31l0.62,1.47c4.29,10.22,5.89,14.05,8.69,30.32l0.49-0.08c-2.8-16.33-4.41-20.17-8.72-30.43
					l-0.64-1.52l-0.06-0.09c-1.31-1.23-2.58-2.74-3.66-4.36l-0.08-0.12h-0.07c-4.31-2.2-6.32-5.86-7.79-8.53l-0.06-0.11
					c-1.29-2.34-2.27-6.47-1.55-7.65c0.13-0.21,0.31-0.3,0.53-0.3c1.65,0.04,1.88,0.93,2.27,2.4c0.24,0.89,0.5,1.91,1.16,2.96
					c0.29,0.46,0.75,1.16,1.29,1.98l0.9,1.37l-0.07-0.96c-0.11-1.51,0.1-2.85,0.63-3.99l0.05-0.11l-0.06-0.11
					c-1.29-2.41-2.79-5.78-3.14-7.99c-0.14-0.9-0.54-2.05-0.92-3.17c-0.66-1.91-1.41-4.08-0.7-4.58c0.15-0.11,0.32-0.13,0.52-0.09
					c0.9,0.2,2.33,1.88,3.81,4.5l0.04,0.08c0.81,1.43,2.96,5.22,3.85,7.95l0.08,0.25l0.25-0.1c1.25-0.49,2.77-0.79,4.52-0.88
					c1.17-0.09,2.27-0.05,3.24,0.14l0.3,0.06l-0.01-0.31c-0.03-1.2,0-2.37,0.08-3.48c0.19-2.64-0.56-4.95-1.95-6.03
					c-0.35-0.28-0.54-0.55-0.55-0.8c-0.01-0.34,0.28-0.65,0.54-0.89c0.18-0.07,1.15,0.12,2.22,0.84c1.03,0.69,2.74,2.29,2.7,5.21
					c-0.05,3.89,0.95,7.34,1.41,8.71l-0.1-0.05L246.15,159.27z"/>
			</g>
			<g>
				<path style="&st6;" d="M237.44,157.62l3.82,0.57c0,0,0.04-3.8,0.06-9.61c0.02-5.81-5.89-6.53-6.5-6.04
					c-0.6,0.49-1.55,1.37,0.03,2.42c1.58,1.05,2.74,3.49,2.52,6.7C237.15,154.87,237.44,157.62,237.44,157.62z"/>
				<path style="&st3;" d="M241.51,158.19c0,0,0.04-3.8,0.06-9.61c0.01-3.57-2.16-5.15-3.46-5.77c-1.42-0.68-3.02-0.81-3.44-0.47
					c-0.31,0.25-0.96,0.78-0.93,1.49c0.02,0.47,0.35,0.92,0.98,1.34c1.32,0.88,2.65,3.04,2.41,6.48c-0.22,3.2,0.07,5.98,0.07,6.01
					l0.5-0.05c0-0.03-0.29-2.77-0.07-5.92c0.21-3.05-0.79-5.71-2.63-6.93c-0.49-0.32-0.74-0.64-0.76-0.95
					c-0.02-0.4,0.37-0.76,0.75-1.07c0.2-0.14,1.61-0.15,3.09,0.62c1.38,0.71,3.01,2.2,3,5.23c-0.02,5.81-0.06,9.61-0.06,9.61
					L241.51,158.19z"/>
			</g>
			<g>
				<path style="&st6;" d="M234.19,157.66l3.84,0.35c0,0-0.18-3.79-0.49-9.6c-0.31-5.8-6.26-6.18-6.83-5.66
					c-0.58,0.53-1.47,1.46,0.17,2.42c1.64,0.96,2.94,3.32,2.9,6.54C233.74,154.93,234.19,157.66,234.19,157.66z"/>
				<path style="&st3;" d="M230.88,142.93c0.19-0.15,1.6-0.24,3.12,0.44c1.41,0.63,3.13,2.02,3.3,5.05c0.31,5.8,0.49,9.6,0.49,9.6
					l0.5-0.02c0,0-0.18-3.8-0.49-9.6c-0.19-3.57-2.46-5.01-3.79-5.56c-1.46-0.6-3.06-0.64-3.46-0.27c-0.3,0.27-0.92,0.84-0.84,1.54
					c0.05,0.47,0.4,0.9,1.05,1.28c1.72,1.01,2.81,3.49,2.78,6.33c-0.04,3.21,0.41,5.97,0.42,5.99l0.49-0.08
					c0-0.03-0.45-2.75-0.41-5.91c0.04-3.06-1.12-5.65-3.03-6.76c-0.5-0.29-0.78-0.6-0.81-0.9
					C230.15,143.65,230.52,143.26,230.88,142.93z"/>
			</g>
		</g>
		<g>
			<path style="&st7;" d="M275.19,152.35c0-3.85-3.12-6.97-6.97-6.97c-3.85,0-6.97,3.12-6.97,6.97c0,3.85,3.12,6.97,6.97,6.97
				C272.07,159.32,275.19,156.2,275.19,152.35z"/>
			<path style="&st3;" d="M275.44,152.35c0-3.98-3.24-7.22-7.22-7.22c-3.98,0-7.22,3.24-7.22,7.22c0,3.98,3.24,7.22,7.22,7.22
				C272.2,159.57,275.44,156.33,275.44,152.35z M261.51,152.35c0-3.7,3.01-6.72,6.72-6.72c3.7,0,6.72,3.01,6.72,6.72
				s-3.01,6.72-6.72,6.72C264.52,159.07,261.51,156.06,261.51,152.35z"/>
		</g>
		<path style="&st5;" d="M273.97,152.35c0-3.17-2.57-5.75-5.75-5.75c-3.17,0-5.75,2.57-5.75,5.75c0,3.17,2.57,5.75,5.75,5.75
			C271.4,158.1,273.97,155.53,273.97,152.35z"/>
		<g>
			<path style="&st0;" d="M270.51,148.62c0-0.52-0.83-0.95-1.86-0.95c-1.03,0-1.86,0.43-1.86,0.95s0.83,0.95,1.86,0.95
				C269.67,149.57,270.51,149.15,270.51,148.62z"/>
		</g>
		<g>
			<path style="&st7;" d="M264.11,162.31l1.7-3.58c0.27-0.56,0.03-1.23-0.53-1.5c-0.56-0.27-1.23-0.03-1.5,0.53l-1.7,3.58
				c-0.27,0.56-0.03,1.23,0.53,1.5C263.18,163.11,263.85,162.87,264.11,162.31z"/>
			<path style="&st3;" d="M262.51,163.07c0.19,0.09,0.39,0.13,0.59,0.13c0.15,0,0.31-0.03,0.46-0.08c0.35-0.12,0.62-0.37,0.78-0.7
				l1.7-3.58c0.16-0.33,0.18-0.7,0.05-1.05c-0.12-0.35-0.37-0.62-0.7-0.78c-0.33-0.16-0.7-0.18-1.05-0.05
				c-0.35,0.12-0.62,0.37-0.78,0.7l-1.7,3.58c-0.16,0.33-0.18,0.71-0.05,1.05C261.93,162.63,262.18,162.91,262.51,163.07z
				 M262.31,161.45l1.7-3.58c0.1-0.21,0.28-0.37,0.5-0.45c0.1-0.03,0.19-0.05,0.29-0.05c0.13,0,0.26,0.03,0.37,0.08
				c0.21,0.1,0.37,0.28,0.45,0.5c0.08,0.22,0.07,0.46-0.03,0.67l-1.7,3.58c-0.1,0.21-0.28,0.37-0.5,0.45
				c-0.22,0.08-0.46,0.07-0.67-0.03c-0.21-0.1-0.37-0.28-0.45-0.5C262.2,161.9,262.21,161.66,262.31,161.45z"/>
		</g>
	</g>
	<g>
		<path d="M263.89,65.15c0-1.43-1.16-2.6-2.6-2.6c-1.43,0-2.6,1.16-2.6,2.6c0,1.43,1.16,2.6,2.6,2.6
			C262.73,67.75,263.89,66.58,263.89,65.15z M259.07,65.15c0-1.23,1-2.22,2.22-2.22c1.23,0,2.22,1,2.22,2.22
			c0,1.23-1,2.22-2.22,2.22C260.07,67.37,259.07,66.38,259.07,65.15z"/>
	</g>
	<g>
		<g>
			<g>
				<polygon style="&st2;" points="143.82,149.89 141.86,149.89 141.86,159.84 143.73,159.84 143.73,153.35 147.74,159.84 
					149.76,159.84 149.76,149.89 147.89,149.89 147.89,156.53 				"/>
				<path style="&st3;" d="M143.89,149.76h-2.15v10.2h2.12v-6.17l3.78,6.11l0.04,0.06h2.21v-10.2h-2.12v6.33L143.89,149.76z
					 M148.01,156.98v-6.96h1.62v9.7h-1.82l-4.21-6.8v6.8h-1.62v-9.7h1.76L148.01,156.98z"/>
			</g>
			<g>
				<polygon style="&st2;" points="158.71,151.57 158.71,149.89 151.89,149.89 151.89,159.84 153.9,159.84 153.9,155.61 
					158.06,155.61 158.06,153.93 153.9,153.93 153.9,151.57 				"/>
				<path style="&st3;" d="M158.84,151.7v-1.93h-7.07v10.2h2.26v-4.23h4.15v-1.93h-4.15v-2.11H158.84z M157.93,154.05v1.43h-4.15
					v4.23h-1.76v-9.7h6.57v1.43h-4.81v2.61H157.93z"/>
			</g>
			<g>
				<polygon style="&st2;" points="164.62,159.84 164.62,151.57 167.56,151.57 167.56,149.89 159.66,149.89 159.66,151.57 
					162.61,151.57 162.61,159.84 				"/>
				<path style="&st3;" d="M164.74,159.96v-8.27h2.95v-1.93h-8.16v1.93h2.95v8.27H164.74z M159.78,151.45v-1.43h7.66v1.43h-2.95
					v8.27h-1.76v-8.27H159.78z"/>
			</g>
		</g>
		<g>
			<g>
				<path style="&st2;" d="M164.33,137.62h-19.24c-0.21,0-0.4,0.11-0.5,0.29l-9.62,16.66c-0.1,0.18-0.1,0.4,0,0.58l9.62,16.66
					c0.1,0.18,0.29,0.29,0.5,0.29h19.24c0.21,0,0.4-0.11,0.5-0.29l9.62-16.66c0.1-0.18,0.1-0.4,0-0.58l-9.62-16.66
					C164.73,137.73,164.54,137.62,164.33,137.62z M164,170.95h-18.57l-9.28-16.08l9.28-16.08H164l9.28,16.08L164,170.95z"/>
				<path style="&st3;" d="M164.33,137.5h-19.24c-0.25,0-0.48,0.13-0.61,0.35l-9.62,16.66c-0.13,0.22-0.13,0.49,0,0.7l9.62,16.66
					c0.13,0.22,0.36,0.35,0.61,0.35h19.24c0.25,0,0.48-0.13,0.61-0.35l9.62-16.66c0.13-0.22,0.13-0.49,0-0.7l-9.62-16.66
					C164.82,137.63,164.58,137.5,164.33,137.5z M174.34,155.09l-9.62,16.66c-0.08,0.14-0.23,0.23-0.39,0.23h-19.24
					c-0.16,0-0.31-0.09-0.39-0.23l-9.62-16.66c-0.08-0.14-0.08-0.31,0-0.45l9.62-16.66c0.08-0.14,0.23-0.23,0.39-0.23h19.24
					c0.16,0,0.31,0.09,0.39,0.23l9.62,16.66C174.43,154.78,174.43,154.95,174.34,155.09z"/>
				<path style="&st3;" d="M145.36,138.66L136,154.86l9.36,16.21h18.71l9.36-16.21l-9.36-16.21H145.36z M163.93,170.82H145.5
					l-9.21-15.96l9.21-15.96h18.43l9.21,15.96L163.93,170.82z"/>
			</g>
		</g>
		<g>
			<g>
				<path style="&st2;" d="M145.14,143.91c-0.32,0-0.58,0.26-0.58,0.58c0,0.32,0.26,0.58,0.58,0.58h19.14
					c0.32,0,0.58-0.26,0.58-0.58c0-0.32-0.26-0.58-0.58-0.58H145.14z"/>
				<path style="&st3;" d="M145.14,143.78c-0.39,0-0.7,0.32-0.7,0.7c0,0.39,0.32,0.7,0.7,0.7h19.14c0.39,0,0.7-0.32,0.7-0.7
					c0-0.39-0.32-0.7-0.7-0.7H145.14z M164.74,144.49c0,0.25-0.2,0.45-0.45,0.45h-19.14c-0.25,0-0.45-0.2-0.45-0.45
					s0.2-0.45,0.45-0.45h19.14C164.53,144.03,164.74,144.24,164.74,144.49z"/>
			</g>
		</g>
		<g>
			<g>
				<path style="&st2;" d="M145.14,165.13c-0.32,0-0.58,0.26-0.58,0.58c0,0.32,0.26,0.58,0.58,0.58h19.14
					c0.32,0,0.58-0.26,0.58-0.58c0-0.32-0.26-0.58-0.58-0.58H145.14z"/>
				<path style="&st3;" d="M145.14,165.01c-0.39,0-0.7,0.32-0.7,0.7c0,0.39,0.32,0.7,0.7,0.7h19.14c0.39,0,0.7-0.32,0.7-0.7
					c0-0.39-0.32-0.7-0.7-0.7H145.14z M164.74,165.71c0,0.25-0.2,0.45-0.45,0.45h-19.14c-0.25,0-0.45-0.2-0.45-0.45
					s0.2-0.45,0.45-0.45h19.14C164.53,165.26,164.74,165.46,164.74,165.71z"/>
			</g>
		</g>
	</g>
	<g>
		<g>
			<g>
				<polygon style="&st2;" points="289.39,114.59 292.2,114.59 292.2,100.71 289.6,100.71 289.6,109.98 283.91,100.71 
					281.19,100.71 281.19,114.59 283.79,114.59 283.79,105.54 				"/>
				<path style="&st3;" d="M289.17,114.72l0.07,0.12h3.2v-14.38h-3.1v8.63l-5.29-8.63h-3.12v14.38h3.1v-8.42L289.17,114.72z
					 M283.54,104.66v9.68h-2.1v-13.38h2.34l6.07,9.91v-9.91h2.1v13.38h-2.42L283.54,104.66z"/>
			</g>
			<g>
				<polygon style="&st2;" points="304.7,103.06 304.7,100.71 295.18,100.71 295.18,114.59 297.99,114.59 297.99,108.69 
					303.78,108.69 303.78,106.34 297.99,106.34 297.99,103.06 				"/>
				<path style="&st3;" d="M304.95,103.31v-2.85h-10.02v14.38h3.3v-5.9h5.8v-2.85h-5.8v-2.79H304.95z M303.53,106.59v1.85h-5.8v5.9
					h-2.3v-13.38h9.02v1.85h-6.71v3.79H303.53z"/>
			</g>
			<g>
				<polygon style="&st2;" points="312.94,114.59 312.94,103.06 317.05,103.06 317.05,100.71 306.01,100.71 306.01,103.06 
					310.13,103.06 310.13,114.59 				"/>
				<path style="&st3;" d="M313.19,114.84v-11.53h4.11v-2.85h-11.53v2.85h4.12v11.53H313.19z M306.26,102.81v-1.85h10.53v1.85h-4.11
					v11.53h-2.3v-11.53H306.26z"/>
			</g>
		</g>
		<g>
			<g>
				<path style="&st2;" d="M285.69,131.7h26.84c0.29,0,0.56-0.15,0.7-0.4l13.42-23.25c0.14-0.25,0.14-0.56,0-0.81L313.24,84
					c-0.14-0.25-0.41-0.4-0.7-0.4h-26.84c-0.29,0-0.56,0.15-0.7,0.4l-13.42,23.25c-0.14,0.25-0.14,0.56,0,0.81l13.42,23.25
					C285.14,131.55,285.41,131.7,285.69,131.7z M286.16,85.21h25.91l12.96,22.44l-12.96,22.44h-25.91l-12.96-22.44L286.16,85.21z"/>
				
					<linearGradient id="SVGID_00000043435418400140518230000011920820280246776459_" gradientUnits="userSpaceOnUse" x1="271.2151" y1="107.6478" x2="327.0182" y2="107.6478">
					<stop  offset="0" style="stop-color:#FFFFFF"/>
					<stop  offset="1" style="stop-color:#000000"/>
				</linearGradient>
				<path style="fill:url(#SVGID_00000043435418400140518230000011920820280246776459_);" d="M285.69,131.95h26.84
					c0.38,0,0.73-0.2,0.92-0.53l13.42-23.25c0.19-0.33,0.19-0.73,0-1.06l-13.42-23.25c-0.19-0.33-0.54-0.53-0.92-0.53h-26.84
					c-0.38,0-0.73,0.2-0.92,0.53l-13.42,23.25c-0.19,0.33-0.19,0.73,0,1.06l13.42,23.25C284.97,131.75,285.32,131.95,285.69,131.95z
					 M271.79,107.37l13.42-23.25c0.1-0.17,0.28-0.28,0.48-0.28h26.84c0.2,0,0.38,0.11,0.48,0.28l13.42,23.25
					c0.1,0.17,0.1,0.39,0,0.56l-13.42,23.25c-0.1,0.17-0.28,0.28-0.48,0.28h-26.84c-0.2,0-0.38-0.11-0.48-0.28l-13.42-23.25
					C271.69,107.76,271.69,107.54,271.79,107.37z"/>
				<path style="&st3;" d="M286.02,130.34h26.2l13.1-22.69l-13.03-22.56l-0.07-0.12h-26.2l-13.1,22.69l13.03,22.57L286.02,130.34z
					 M286.31,85.46h25.62l12.81,22.19l-12.81,22.19h-25.62l-12.81-22.19L286.31,85.46z"/>
			</g>
		</g>
		<g>
			<g>
				<path style="&st2;" d="M312.47,93.98c0.45,0,0.81-0.36,0.81-0.81c0-0.45-0.36-0.81-0.81-0.81h-26.7c-0.45,0-0.81,0.36-0.81,0.81
					c0,0.45,0.36,0.81,0.81,0.81H312.47z"/>
				<path style="&st3;" d="M312.47,94.23c0.58,0,1.06-0.47,1.06-1.06c0-0.58-0.47-1.06-1.06-1.06h-26.7c-0.58,0-1.06,0.47-1.06,1.06
					c0,0.58,0.47,1.06,1.06,1.06H312.47z M285.21,93.17c0-0.31,0.25-0.56,0.56-0.56h26.7c0.31,0,0.56,0.25,0.56,0.56
					s-0.25,0.56-0.56,0.56h-26.7C285.46,93.73,285.21,93.48,285.21,93.17z"/>
			</g>
		</g>
		<g>
			<g>
				<path style="&st2;" d="M312.47,123.59c0.45,0,0.81-0.36,0.81-0.81c0-0.45-0.36-0.81-0.81-0.81h-26.7
					c-0.45,0-0.81,0.36-0.81,0.81c0,0.45,0.36,0.81,0.81,0.81H312.47z"/>
				<path style="&st3;" d="M312.47,123.84c0.58,0,1.06-0.47,1.06-1.06c0-0.58-0.47-1.06-1.06-1.06h-26.7
					c-0.58,0-1.06,0.47-1.06,1.06c0,0.58,0.47,1.06,1.06,1.06H312.47z M285.21,122.79c0-0.31,0.25-0.56,0.56-0.56h26.7
					c0.31,0,0.56,0.25,0.56,0.56c0,0.31-0.25,0.56-0.56,0.56h-26.7C285.46,123.34,285.21,123.09,285.21,122.79z"/>
			</g>
		</g>
	</g>
	<g>
		<g>
			<path style="&st7;" d="M191.1,63.35c-0.32,0-0.58,0.26-0.58,0.58v46.38c0,0.32,0.26,0.58,0.58,0.58h57.38
				c0.32,0,0.58-0.26,0.58-0.58V63.93c0-0.32-0.26-0.58-0.58-0.58H191.1z"/>
			<path style="&st3;" d="M191.1,63.1c-0.46,0-0.83,0.37-0.83,0.83v46.38c0,0.46,0.37,0.83,0.83,0.83h57.38
				c0.46,0,0.83-0.37,0.83-0.83V63.93c0-0.46-0.37-0.83-0.83-0.83H191.1z M248.81,63.93v46.38c0,0.18-0.15,0.33-0.33,0.33H191.1
				c-0.18,0-0.33-0.15-0.33-0.33V63.93c0-0.18,0.15-0.33,0.33-0.33h57.38C248.66,63.6,248.81,63.75,248.81,63.93z"/>
		</g>
		<g>
			<path style="&st4;" d="M226.77,75.5c0,4.02,3.26,7.28,7.28,7.28c4.02,0,7.28-3.26,7.28-7.28c0-4.02-3.26-7.28-7.28-7.28
				C230.03,68.21,226.77,71.47,226.77,75.5z"/>
			<path style="&st3;" d="M226.52,75.5c0,4.15,3.38,7.53,7.53,7.53s7.53-3.38,7.53-7.53c0-4.15-3.38-7.53-7.53-7.53
				S226.52,71.34,226.52,75.5z M241.09,75.5c0,3.88-3.16,7.03-7.03,7.03s-7.03-3.16-7.03-7.03c0-3.88,3.16-7.03,7.03-7.03
				S241.09,71.62,241.09,75.5z"/>
		</g>
		<g>
			<polygon style="&st4;" points="223.6,103.51 209.35,80.46 195.09,103.51 			"/>
			<path style="&st3;" d="M224.05,103.76l-14.7-23.78l-14.7,23.78H224.05z M223.15,103.26h-27.61l13.81-22.32L223.15,103.26z"/>
		</g>
		<g>
			<polygon style="&st4;" points="242.94,103.51 229.85,87.12 216.76,103.51 			"/>
			<path style="&st3;" d="M243.46,103.76l-13.61-17.04l-13.61,17.04H243.46z M242.42,103.26h-25.14l12.57-15.74L242.42,103.26z"/>
		</g>
		<path style="&st9;" d="M194.08,105.41c-0.09-12.89-0.36-25.78-1.2-38.64c-0.89,13.67-1.15,27.37-1.21,41.06
			c0,0.67,0.53,1.21,1.2,1.21h0.02c16.69,0.05,33.4-0.14,50.06-1.21c-15.86-1.02-31.76-1.24-47.66-1.22
			C194.62,106.61,194.08,106.08,194.08,105.41z"/>
		<path style="&st10;" d="M246.05,65.16c-16.69-0.05-33.4,0.14-50.06,1.21c15.87,1.02,31.76,1.24,47.66,1.22
			c0.66,0,1.2,0.53,1.21,1.2c0.09,12.89,0.36,25.78,1.2,38.64c0.89-13.67,1.15-27.37,1.21-41.06c0-0.67-0.53-1.21-1.2-1.21H246.05z"
			/>
		<g style="&st11;">
			<path style="&st0;" d="M234.96,81.43c-3.21-1.14-5.47-3.41-6.62-6.62C226.88,78.5,231.27,82.88,234.96,81.43z"/>
		</g>
		<path style="&st10;" d="M209.35,83.97c1.94,5.47,4.94,10.55,8.83,14.86C216.25,93.35,213.23,88.28,209.35,83.97z"/>
		<path style="&st10;" d="M239.16,101.71c-2.16-4.55-5.37-8.57-9.31-11.71C232.02,94.55,235.21,98.58,239.16,101.71z"/>
	</g>
	<g>
		<path style="&st5;" d="M298.72,167.41c0-0.69-0.56-1.24-1.24-1.24c-0.69,0-1.24,0.56-1.24,1.24c0,0.69,0.56,1.24,1.24,1.24
			C298.16,168.66,298.72,168.1,298.72,167.41z"/>
		<path style="&st5;" d="M303.6,167.41c0-0.69-0.56-1.24-1.24-1.24c-0.69,0-1.24,0.56-1.24,1.24c0,0.69,0.56,1.24,1.24,1.24
			C303.05,168.66,303.6,168.1,303.6,167.41z"/>
		<path style="&st5;" d="M308.48,167.41c0-0.69-0.56-1.24-1.24-1.24c-0.69,0-1.24,0.56-1.24,1.24c0,0.69,0.56,1.24,1.24,1.24
			C307.93,168.66,308.48,168.1,308.48,167.41z"/>
		<path style="&st5;" d="M298.72,171.59c0-0.69-0.56-1.24-1.24-1.24c-0.69,0-1.24,0.56-1.24,1.24c0,0.69,0.56,1.24,1.24,1.24
			C298.16,172.83,298.72,172.27,298.72,171.59z"/>
		<path style="&st5;" d="M303.6,171.59c0-0.69-0.56-1.24-1.24-1.24c-0.69,0-1.24,0.56-1.24,1.24c0,0.69,0.56,1.24,1.24,1.24
			C303.05,172.83,303.6,172.27,303.6,171.59z"/>
		<path style="&st5;" d="M308.48,171.59c0-0.69-0.56-1.24-1.24-1.24c-0.69,0-1.24,0.56-1.24,1.24c0,0.69,0.56,1.24,1.24,1.24
			C307.93,172.83,308.48,172.27,308.48,171.59z"/>
	</g>
	<g>
		<polygon style="&st5;" points="146.31,124.21 152.06,121.75 152.06,120.75 146.31,118.33 146.31,119.39 150.86,121.26 
			146.31,123.15 		"/>
		<polygon style="&st5;" points="153.39,124.21 159.14,121.75 159.14,120.75 153.39,118.33 153.39,119.39 157.95,121.26 
			153.39,123.15 		"/>
		<polygon style="&st5;" points="160.47,124.21 166.22,121.75 166.22,120.75 160.47,118.33 160.47,119.39 165.03,121.26 
			160.47,123.15 		"/>
	</g>
	<g>
		<path style="&st4;" d="M327.7,149.12c0-1.48-1.2-2.67-2.67-2.67c-1.48,0-2.67,1.2-2.67,2.67c0,1.48,1.2,2.67,2.67,2.67
			C326.5,151.79,327.7,150.6,327.7,149.12z"/>
		<path style="&st3;" d="M327.95,149.12c0-1.61-1.31-2.92-2.92-2.92c-1.61,0-2.92,1.31-2.92,2.92c0,1.61,1.31,2.92,2.92,2.92
			C326.64,152.04,327.95,150.73,327.95,149.12z M322.6,149.12c0-1.34,1.09-2.42,2.42-2.42s2.42,1.09,2.42,2.42
			c0,1.34-1.09,2.42-2.42,2.42S322.6,150.46,322.6,149.12z"/>
	</g>
	<g>
		<g>
			<g>
				
					<rect x="145.41" y="70.51" transform="matrix(0.9496 -0.3133 0.3133 0.9496 -17.891 51.1694)" style="&st2;" width="9.68" height="21.47"/>
				<path style="&st3;" d="M142.14,72.49L148.9,93l0.04,0.12l9.31-3.07l0.12-0.04l-6.81-20.63l-9.31,3.07L142.14,72.49z
					 M151.41,69.69l6.65,20.15l-8.96,2.95l-6.65-20.15L151.41,69.69z"/>
			</g>
			<g>
				<path style="&st2;" d="M147.77,73.71c-1.24,0.41-2.56-0.1-3.23-1.15l-1.73,0.57l6.3,19.09l1.73-0.57
					c-0.09-1.25,0.67-2.44,1.91-2.85c1.24-0.41,2.56,0.1,3.24,1.15l1.73-0.57l-6.3-19.09l-1.73,0.57
					C149.77,72.1,149.01,73.3,147.77,73.71z"/>
				<path style="&st3;" d="M152.78,88.91c1.16-0.38,2.43,0.07,3.09,1.1l0.05,0.08l1.94-0.64l-6.38-19.33l-1.94,0.64l0.01,0.1
					c0.09,1.22-0.67,2.34-1.83,2.73c-1.16,0.39-2.43-0.07-3.09-1.1l-0.05-0.08l-1.94,0.64l6.34,19.21l0.04,0.12l1.94-0.64l-0.01-0.1
					C150.87,90.41,151.62,89.29,152.78,88.91z M150.7,91.55l-1.52,0.5l-6.22-18.85l1.52-0.5c0.73,1.07,2.09,1.53,3.33,1.12
					c1.24-0.41,2.06-1.59,2.01-2.88l1.52-0.5l6.22,18.85l-1.52,0.5c-0.74-1.07-2.09-1.53-3.33-1.12
					C151.46,89.08,150.65,90.26,150.7,91.55z"/>
			</g>
			<g>
				<path style="&st2;" d="M149.38,78.59c-1.47,0.48-2.26,2.06-1.78,3.53c0.48,1.47,2.06,2.26,3.53,1.78
					c1.47-0.48,2.26-2.06,1.78-3.53C152.43,78.91,150.85,78.11,149.38,78.59z"/>
				<path style="&st3;" d="M151.57,78.64c-0.7-0.35-1.49-0.41-2.23-0.17c-1.53,0.51-2.36,2.16-1.86,3.69
					c0.4,1.23,1.55,2.01,2.78,2.01c0.3,0,0.61-0.05,0.91-0.15c1.53-0.51,2.36-2.16,1.86-3.69
					C152.78,79.59,152.27,78.99,151.57,78.64z M151.09,83.78c-1.4,0.46-2.91-0.3-3.37-1.7c-0.46-1.4,0.3-2.91,1.7-3.37
					c0.27-0.09,0.56-0.14,0.84-0.14c0.41,0,0.82,0.1,1.2,0.29c0.64,0.32,1.11,0.87,1.33,1.55
					C153.25,81.81,152.49,83.32,151.09,83.78z"/>
			</g>
			<g>
				<path style="&st2;" d="M149.38,78.59c-1.47,0.48-2.26,2.06-1.78,3.53c0.48,1.47,2.06,2.26,3.53,1.78
					c1.47-0.48,2.26-2.06,1.78-3.53C152.43,78.91,150.85,78.11,149.38,78.59z"/>
				<path style="&st3;" d="M151.57,78.64c-0.7-0.35-1.49-0.41-2.23-0.17c-1.53,0.51-2.36,2.16-1.86,3.69
					c0.4,1.23,1.55,2.01,2.78,2.01c0.3,0,0.61-0.05,0.91-0.15c1.53-0.51,2.36-2.16,1.86-3.69
					C152.78,79.59,152.27,78.99,151.57,78.64z M151.09,83.78c-1.4,0.46-2.91-0.3-3.37-1.7c-0.46-1.4,0.3-2.91,1.7-3.37
					c0.27-0.09,0.56-0.14,0.84-0.14c0.41,0,0.82,0.1,1.2,0.29c0.64,0.32,1.11,0.87,1.33,1.55
					C153.25,81.81,152.49,83.32,151.09,83.78z"/>
			</g>
			<g>
				<path style="&st2;" d="M149.38,78.59c-1.47,0.48-2.26,2.06-1.78,3.53c0.48,1.47,2.06,2.26,3.53,1.78
					c1.47-0.48,2.26-2.06,1.78-3.53C152.43,78.91,150.85,78.11,149.38,78.59z"/>
				<path style="&st3;" d="M151.57,78.64c-0.7-0.35-1.49-0.41-2.23-0.17c-1.53,0.51-2.36,2.16-1.86,3.69
					c0.4,1.23,1.55,2.01,2.78,2.01c0.3,0,0.61-0.05,0.91-0.15c1.53-0.51,2.36-2.16,1.86-3.69
					C152.78,79.59,152.27,78.99,151.57,78.64z M151.09,83.78c-1.4,0.46-2.91-0.3-3.37-1.7c-0.46-1.4,0.3-2.91,1.7-3.37
					c0.27-0.09,0.56-0.14,0.84-0.14c0.41,0,0.82,0.1,1.2,0.29c0.64,0.32,1.11,0.87,1.33,1.55
					C153.25,81.81,152.49,83.32,151.09,83.78z"/>
			</g>
		</g>
		<g>
			<g>
				
					<rect x="144.51" y="75.87" transform="matrix(0.2049 -0.9788 0.9788 0.2049 44.4348 216.1239)" style="&st2;" width="21.47" height="9.68"/>
				<path style="&st3;" d="M148.16,90.32l9.6,2.01l0.12,0.03l4.43-21.14l0.03-0.12l-9.72-2.04l-4.43,21.14L148.16,90.32z
					 M152.81,69.36l9.23,1.93l-4.35,20.77l-9.23-1.93L152.81,69.36z"/>
			</g>
			<g>
				<path style="&st2;" d="M156.87,72.94c-1.28-0.27-2.17-1.37-2.22-2.62l-1.78-0.37l-4.12,19.67l1.78,0.37
					c0.55-1.12,1.8-1.78,3.08-1.51c1.28,0.27,2.17,1.37,2.22,2.62l1.78,0.37l4.12-19.67l-1.78-0.37
					C159.41,72.55,158.15,73.21,156.87,72.94z"/>
				<path style="&st3;" d="M156.9,72.82c-1.2-0.25-2.07-1.28-2.12-2.5l0-0.1l-2-0.42l-4.15,19.8l-0.03,0.12l2,0.42l0.04-0.09
					c0.54-1.1,1.75-1.69,2.95-1.44c1.2,0.25,2.07,1.28,2.12,2.5l0,0.1l2,0.42l4.15-19.8l0.03-0.12l-2-0.42l-0.04,0.09
					C159.31,72.47,158.1,73.06,156.9,72.82z M160.03,71.57l1.57,0.33l-4.07,19.43L155.96,91c-0.1-1.29-1.04-2.37-2.32-2.64h0
					c-1.28-0.27-2.57,0.34-3.18,1.49l-1.57-0.33l4.07-19.43l1.57,0.33c0.1,1.29,1.03,2.37,2.31,2.64
					C158.13,73.33,159.42,72.72,160.03,71.57z"/>
			</g>
			<g>
				<path style="&st2;" d="M152.51,80.14c-0.32,1.51,0.65,2.99,2.16,3.31c1.51,0.32,2.99-0.65,3.31-2.16
					c0.32-1.51-0.65-2.99-2.16-3.31C154.31,77.66,152.83,78.63,152.51,80.14z"/>
				<path style="&st3;" d="M155.85,77.85c-0.76-0.16-1.54-0.01-2.2,0.41c-0.65,0.43-1.1,1.08-1.26,1.85
					c-0.16,0.76-0.01,1.54,0.41,2.2c0.43,0.65,1.08,1.1,1.85,1.26c0.2,0.04,0.4,0.06,0.6,0.06c0.56,0,1.11-0.16,1.59-0.48
					c0.65-0.43,1.1-1.08,1.26-1.85c0.16-0.76,0.01-1.54-0.41-2.2C157.27,78.46,156.61,78.01,155.85,77.85z M157.86,81.26
					c-0.15,0.7-0.56,1.3-1.15,1.69c-0.6,0.39-1.31,0.52-2.01,0.38c-0.7-0.15-1.3-0.56-1.69-1.15c-0.39-0.6-0.52-1.31-0.38-2.01
					c0.15-0.7,0.56-1.3,1.15-1.69c0.44-0.29,0.94-0.44,1.46-0.44c0.18,0,0.37,0.02,0.55,0.06c0.7,0.15,1.3,0.56,1.69,1.15
					C157.87,79.85,158.01,80.56,157.86,81.26z"/>
			</g>
			<g>
				<path style="&st2;" d="M152.51,80.14c-0.32,1.51,0.65,2.99,2.16,3.31c1.51,0.32,2.99-0.65,3.31-2.16
					c0.32-1.51-0.65-2.99-2.16-3.31C154.31,77.66,152.83,78.63,152.51,80.14z"/>
				<path style="&st3;" d="M155.85,77.85c-0.76-0.16-1.54-0.01-2.2,0.41c-0.65,0.43-1.1,1.08-1.26,1.85
					c-0.16,0.76-0.01,1.54,0.41,2.2c0.43,0.65,1.08,1.1,1.85,1.26c0.2,0.04,0.4,0.06,0.6,0.06c0.56,0,1.11-0.16,1.59-0.48
					c0.65-0.43,1.1-1.08,1.26-1.85c0.16-0.76,0.01-1.54-0.41-2.2C157.27,78.46,156.61,78.01,155.85,77.85z M157.86,81.26
					c-0.15,0.7-0.56,1.3-1.15,1.69c-0.6,0.39-1.31,0.52-2.01,0.38c-0.7-0.15-1.3-0.56-1.69-1.15c-0.39-0.6-0.52-1.31-0.38-2.01
					c0.15-0.7,0.56-1.3,1.15-1.69c0.44-0.29,0.94-0.44,1.46-0.44c0.18,0,0.37,0.02,0.55,0.06c0.7,0.15,1.3,0.56,1.69,1.15
					C157.87,79.85,158.01,80.56,157.86,81.26z"/>
			</g>
			<g>
				<path style="&st2;" d="M152.51,80.14c-0.32,1.51,0.65,2.99,2.16,3.31c1.51,0.32,2.99-0.65,3.31-2.16
					c0.32-1.51-0.65-2.99-2.16-3.31C154.31,77.66,152.83,78.63,152.51,80.14z"/>
				<path style="&st3;" d="M155.85,77.85c-0.76-0.16-1.54-0.01-2.2,0.41c-0.65,0.43-1.1,1.08-1.26,1.85
					c-0.16,0.76-0.01,1.54,0.41,2.2c0.43,0.65,1.08,1.1,1.85,1.26c0.2,0.04,0.4,0.06,0.6,0.06c0.56,0,1.11-0.16,1.59-0.48
					c0.65-0.43,1.1-1.08,1.26-1.85c0.16-0.76,0.01-1.54-0.41-2.2C157.27,78.46,156.61,78.01,155.85,77.85z M157.86,81.26
					c-0.15,0.7-0.56,1.3-1.15,1.69c-0.6,0.39-1.31,0.52-2.01,0.38c-0.7-0.15-1.3-0.56-1.69-1.15c-0.39-0.6-0.52-1.31-0.38-2.01
					c0.15-0.7,0.56-1.3,1.15-1.69c0.44-0.29,0.94-0.44,1.46-0.44c0.18,0,0.37,0.02,0.55,0.06c0.7,0.15,1.3,0.56,1.69,1.15
					C157.87,79.85,158.01,80.56,157.86,81.26z"/>
			</g>
		</g>
		<g>
			<g>
				
					<rect x="149.24" y="79.03" transform="matrix(0.2049 -0.9788 0.9788 0.2049 45.1055 223.2667)" style="&st2;" width="21.47" height="9.68"/>
				<path style="&st3;" d="M152.92,93.36l-0.03,0.12l9.6,2.01l0.12,0.03l4.43-21.14l0.03-0.12l-9.6-2.01l-0.12-0.03L152.92,93.36z
					 M157.54,72.52l9.23,1.93l-4.35,20.77l-9.23-1.93L157.54,72.52z"/>
			</g>
			<g>
				<path style="&st2;" d="M161.61,76.1c-1.28-0.27-2.17-1.37-2.22-2.62l-1.78-0.37l-4.12,19.67l1.78,0.37
					c0.55-1.12,1.8-1.78,3.08-1.51c1.28,0.27,2.17,1.37,2.22,2.62l1.78,0.37l4.12-19.67l-1.78-0.37
					C164.15,75.71,162.89,76.36,161.61,76.1z"/>
				<path style="&st3;" d="M161.63,75.97c-1.2-0.25-2.07-1.28-2.12-2.5l0-0.1l-2-0.42l-4.15,19.8l-0.03,0.12l2,0.42l0.04-0.09
					c0.54-1.1,1.75-1.69,2.95-1.44c1.2,0.25,2.07,1.28,2.12,2.51l0,0.1l2,0.42l4.14-19.8l0.03-0.12l-2-0.42l-0.04,0.09
					C164.04,75.63,162.83,76.22,161.63,75.97z M164.76,74.73l1.57,0.33l-4.07,19.43l-1.57-0.33c-0.1-1.29-1.04-2.37-2.32-2.64h0
					c-1.28-0.27-2.57,0.34-3.18,1.49l-1.57-0.33l4.07-19.43l1.57,0.33c0.1,1.3,1.03,2.37,2.31,2.64
					C162.86,76.49,164.15,75.88,164.76,74.73z"/>
			</g>
			<g>
				<path style="&st2;" d="M157.24,83.3c-0.32,1.51,0.65,2.99,2.16,3.31c1.51,0.32,2.99-0.65,3.31-2.16
					c0.32-1.51-0.65-2.99-2.16-3.31C159.04,80.82,157.56,81.79,157.24,83.3z"/>
				<path style="&st3;" d="M160.58,81.01c-0.76-0.16-1.54-0.01-2.2,0.41c-0.65,0.43-1.1,1.08-1.26,1.85
					c-0.16,0.76-0.01,1.54,0.41,2.2c0.43,0.65,1.08,1.1,1.85,1.26c0.2,0.04,0.4,0.06,0.6,0.06c0.56,0,1.11-0.16,1.59-0.48
					c0.65-0.43,1.1-1.08,1.26-1.85c0.16-0.76,0.01-1.54-0.41-2.2C162,81.62,161.34,81.17,160.58,81.01z M162.59,84.42
					c-0.15,0.7-0.56,1.3-1.15,1.69c-0.6,0.39-1.31,0.52-2.01,0.38c-0.7-0.15-1.3-0.56-1.69-1.15c-0.39-0.6-0.52-1.31-0.38-2.01
					c0.15-0.7,0.56-1.3,1.15-1.69c0.44-0.29,0.94-0.44,1.46-0.44c0.18,0,0.37,0.02,0.55,0.06c0.7,0.15,1.3,0.56,1.69,1.15
					C162.61,83.01,162.74,83.72,162.59,84.42z"/>
			</g>
			<g>
				<path style="&st2;" d="M157.24,83.3c-0.32,1.51,0.65,2.99,2.16,3.31c1.51,0.32,2.99-0.65,3.31-2.16
					c0.32-1.51-0.65-2.99-2.16-3.31C159.04,80.82,157.56,81.79,157.24,83.3z"/>
				<path style="&st3;" d="M160.58,81.01c-0.76-0.16-1.54-0.01-2.2,0.41c-0.65,0.43-1.1,1.08-1.26,1.85
					c-0.16,0.76-0.01,1.54,0.41,2.2c0.43,0.65,1.08,1.1,1.85,1.26c0.2,0.04,0.4,0.06,0.6,0.06c0.56,0,1.11-0.16,1.59-0.48
					c0.65-0.43,1.1-1.08,1.26-1.85c0.16-0.76,0.01-1.54-0.41-2.2C162,81.62,161.34,81.17,160.58,81.01z M162.59,84.42
					c-0.15,0.7-0.56,1.3-1.15,1.69c-0.6,0.39-1.31,0.52-2.01,0.38c-0.7-0.15-1.3-0.56-1.69-1.15c-0.39-0.6-0.52-1.31-0.38-2.01
					c0.15-0.7,0.56-1.3,1.15-1.69c0.44-0.29,0.94-0.44,1.46-0.44c0.18,0,0.37,0.02,0.55,0.06c0.7,0.15,1.3,0.56,1.69,1.15
					C162.61,83.01,162.74,83.72,162.59,84.42z"/>
			</g>
			<g>
				<path style="&st2;" d="M157.24,83.3c-0.32,1.51,0.65,2.99,2.16,3.31c1.51,0.32,2.99-0.65,3.31-2.16
					c0.32-1.51-0.65-2.99-2.16-3.31C159.04,80.82,157.56,81.79,157.24,83.3z"/>
				<path style="&st3;" d="M160.58,81.01c-0.76-0.16-1.54-0.01-2.2,0.41c-0.65,0.43-1.1,1.08-1.26,1.85
					c-0.16,0.76-0.01,1.54,0.41,2.2c0.43,0.65,1.08,1.1,1.85,1.26c0.2,0.04,0.4,0.06,0.6,0.06c0.56,0,1.11-0.16,1.59-0.48
					c0.65-0.43,1.1-1.08,1.26-1.85c0.16-0.76,0.01-1.54-0.41-2.2C162,81.62,161.34,81.17,160.58,81.01z M162.59,84.42
					c-0.15,0.7-0.56,1.3-1.15,1.69c-0.6,0.39-1.31,0.52-2.01,0.38c-0.7-0.15-1.3-0.56-1.69-1.15c-0.39-0.6-0.52-1.31-0.38-2.01
					c0.15-0.7,0.56-1.3,1.15-1.69c0.44-0.29,0.94-0.44,1.46-0.44c0.18,0,0.37,0.02,0.55,0.06c0.7,0.15,1.3,0.56,1.69,1.15
					C162.61,83.01,162.74,83.72,162.59,84.42z"/>
			</g>
		</g>
		<g>
			<g>
				<rect x="141.7" y="81.47" style="&st7;" width="27.11" height="19.73"/>
				<path style="&st3;" d="M141.45,101.46h27.61V81.22h-27.61V101.46z M141.95,81.72h26.61v19.23h-26.61V81.72z"/>
			</g>
			<g>
				<g>
					<path style="&st5;" d="M167.91,99.94v0.37h-0.37c-0.07,0-0.12,0.05-0.12,0.12c0,0.07,0.06,0.12,0.12,0.12h0.61v-0.61
						c0-0.07-0.06-0.12-0.12-0.12C167.97,99.81,167.91,99.87,167.91,99.94z"/>
				</g>
				<g>
					<path style="&st5;" d="M157.81,100.3c-0.07,0-0.12,0.05-0.12,0.12c0,0.07,0.06,0.12,0.12,0.12h0.97c0.07,0,0.12-0.05,0.12-0.12
						c0-0.07-0.06-0.12-0.12-0.12H157.81z"/>
					<path style="&st5;" d="M159.76,100.3c-0.07,0-0.12,0.05-0.12,0.12c0,0.07,0.06,0.12,0.12,0.12h0.97c0.07,0,0.12-0.05,0.12-0.12
						c0-0.07-0.05-0.12-0.12-0.12H159.76z"/>
					<path style="&st5;" d="M161.71,100.3c-0.07,0-0.12,0.05-0.12,0.12c0,0.07,0.06,0.12,0.12,0.12h0.97c0.07,0,0.12-0.05,0.12-0.12
						c0-0.07-0.05-0.12-0.12-0.12H161.71z"/>
					<path style="&st5;" d="M165.6,100.3c-0.07,0-0.12,0.05-0.12,0.12c0,0.07,0.06,0.12,0.12,0.12h0.97c0.07,0,0.12-0.05,0.12-0.12
						c0-0.07-0.06-0.12-0.12-0.12H165.6z"/>
					<path style="&st5;" d="M163.65,100.3c-0.07,0-0.12,0.05-0.12,0.12c0,0.07,0.06,0.12,0.12,0.12h0.97c0.07,0,0.12-0.05,0.12-0.12
						c0-0.07-0.06-0.12-0.12-0.12H163.65z"/>
					<path style="&st5;" d="M155.87,100.3c-0.07,0-0.12,0.05-0.12,0.12c0,0.07,0.05,0.12,0.12,0.12h0.97c0.07,0,0.12-0.05,0.12-0.12
						c0-0.07-0.06-0.12-0.12-0.12H155.87z"/>
					<path style="&st5;" d="M146.14,100.3c-0.07,0-0.12,0.05-0.12,0.12c0,0.07,0.06,0.12,0.12,0.12h0.97c0.07,0,0.12-0.05,0.12-0.12
						c0-0.07-0.06-0.12-0.12-0.12H146.14z"/>
					<path style="&st5;" d="M148.08,100.3c-0.07,0-0.12,0.05-0.12,0.12c0,0.07,0.06,0.12,0.12,0.12h0.97c0.07,0,0.12-0.05,0.12-0.12
						c0-0.07-0.06-0.12-0.12-0.12H148.08z"/>
					<path style="&st5;" d="M144.19,100.3c-0.07,0-0.12,0.05-0.12,0.12c0,0.07,0.06,0.12,0.12,0.12h0.97c0.07,0,0.12-0.05,0.12-0.12
						c0-0.07-0.06-0.12-0.12-0.12H144.19z"/>
					<path style="&st5;" d="M150.03,100.3c-0.07,0-0.12,0.05-0.12,0.12c0,0.07,0.06,0.12,0.12,0.12H151c0.07,0,0.12-0.05,0.12-0.12
						c0-0.07-0.06-0.12-0.12-0.12H150.03z"/>
					<path style="&st5;" d="M153.92,100.3c-0.07,0-0.12,0.05-0.12,0.12c0,0.07,0.05,0.12,0.12,0.12h0.97c0.07,0,0.12-0.05,0.12-0.12
						c0-0.07-0.06-0.12-0.12-0.12H153.92z"/>
					<path style="&st5;" d="M151.98,100.3c-0.07,0-0.12,0.05-0.12,0.12c0,0.07,0.05,0.12,0.12,0.12h0.97c0.07,0,0.12-0.05,0.12-0.12
						c0-0.07-0.06-0.12-0.12-0.12H151.98z"/>
				</g>
				<g>
					<path style="&st5;" d="M142.73,99.81c-0.07,0-0.12,0.05-0.12,0.12v0.61h0.61c0.07,0,0.12-0.05,0.12-0.12
						c0-0.07-0.06-0.12-0.12-0.12h-0.37v-0.37C142.85,99.87,142.8,99.81,142.73,99.81z"/>
				</g>
				<g>
					<path style="&st5;" d="M142.85,91.96c0-0.07-0.06-0.12-0.12-0.12c-0.07,0-0.12,0.06-0.12,0.12v1c0,0.07,0.06,0.12,0.12,0.12
						c0.07,0,0.12-0.05,0.12-0.12V91.96z"/>
					<path style="&st5;" d="M142.85,93.96c0-0.07-0.06-0.12-0.12-0.12c-0.07,0-0.12,0.05-0.12,0.12v1c0,0.07,0.06,0.12,0.12,0.12
						c0.07,0,0.12-0.05,0.12-0.12V93.96z"/>
					<path style="&st5;" d="M142.85,95.95c0-0.07-0.06-0.12-0.12-0.12c-0.07,0-0.12,0.05-0.12,0.12v1c0,0.07,0.06,0.12,0.12,0.12
						c0.07,0,0.12-0.05,0.12-0.12V95.95z"/>
					<path style="&st5;" d="M142.73,97.82c-0.07,0-0.12,0.05-0.12,0.12v1c0,0.07,0.06,0.12,0.12,0.12c0.07,0,0.12-0.05,0.12-0.12v-1
						C142.85,97.88,142.8,97.82,142.73,97.82z"/>
					<path style="&st5;" d="M142.85,89.97c0-0.07-0.06-0.12-0.12-0.12c-0.07,0-0.12,0.05-0.12,0.12v1c0,0.07,0.06,0.12,0.12,0.12
						c0.07,0,0.12-0.05,0.12-0.12V89.97z"/>
					<path style="&st5;" d="M142.85,85.98c0-0.07-0.06-0.12-0.12-0.12c-0.07,0-0.12,0.05-0.12,0.12v1c0,0.07,0.06,0.12,0.12,0.12
						c0.07,0,0.12-0.05,0.12-0.12V85.98z"/>
					<path style="&st5;" d="M142.85,83.99c0-0.07-0.06-0.12-0.12-0.12c-0.07,0-0.12,0.05-0.12,0.12v1c0,0.07,0.06,0.12,0.12,0.12
						c0.07,0,0.12-0.05,0.12-0.12V83.99z"/>
					<path style="&st5;" d="M142.85,87.98c0-0.07-0.06-0.12-0.12-0.12c-0.07,0-0.12,0.05-0.12,0.12v1c0,0.07,0.06,0.12,0.12,0.12
						c0.07,0,0.12-0.05,0.12-0.12V87.98z"/>
				</g>
				<g>
					<path style="&st5;" d="M142.61,82.38V83c0,0.07,0.06,0.12,0.12,0.12c0.07,0,0.12-0.06,0.12-0.12v-0.37h0.37
						c0.07,0,0.12-0.06,0.12-0.12s-0.06-0.12-0.12-0.12H142.61z"/>
				</g>
				<g>
					<path style="&st5;" d="M159.76,82.38c-0.07,0-0.12,0.06-0.12,0.12s0.06,0.12,0.12,0.12h0.97c0.07,0,0.12-0.06,0.12-0.12
						s-0.05-0.12-0.12-0.12H159.76z"/>
					<path style="&st5;" d="M157.81,82.38c-0.07,0-0.12,0.06-0.12,0.12s0.05,0.12,0.12,0.12h0.97c0.07,0,0.12-0.06,0.12-0.12
						s-0.06-0.12-0.12-0.12H157.81z"/>
					<path style="&st5;" d="M161.71,82.38c-0.07,0-0.12,0.06-0.12,0.12s0.06,0.12,0.12,0.12h0.97c0.07,0,0.12-0.06,0.12-0.12
						s-0.05-0.12-0.12-0.12H161.71z"/>
					<path style="&st5;" d="M165.6,82.38c-0.07,0-0.12,0.06-0.12,0.12s0.06,0.12,0.12,0.12h0.97c0.07,0,0.12-0.06,0.12-0.12
						s-0.06-0.12-0.12-0.12H165.6z"/>
					<path style="&st5;" d="M163.65,82.38c-0.07,0-0.12,0.06-0.12,0.12s0.06,0.12,0.12,0.12h0.97c0.07,0,0.12-0.06,0.12-0.12
						s-0.06-0.12-0.12-0.12H163.65z"/>
					<path style="&st5;" d="M155.87,82.38c-0.07,0-0.12,0.06-0.12,0.12s0.05,0.12,0.12,0.12h0.97c0.07,0,0.12-0.06,0.12-0.12
						s-0.06-0.12-0.12-0.12H155.87z"/>
					<path style="&st5;" d="M151.98,82.38c-0.07,0-0.12,0.06-0.12,0.12s0.05,0.12,0.12,0.12h0.97c0.07,0,0.12-0.06,0.12-0.12
						s-0.06-0.12-0.12-0.12H151.98z"/>
					<path style="&st5;" d="M153.92,82.38c-0.07,0-0.12,0.06-0.12,0.12s0.05,0.12,0.12,0.12h0.97c0.07,0,0.12-0.06,0.12-0.12
						s-0.06-0.12-0.12-0.12H153.92z"/>
					<path style="&st5;" d="M146.14,82.38c-0.07,0-0.12,0.06-0.12,0.12s0.06,0.12,0.12,0.12h0.97c0.07,0,0.12-0.06,0.12-0.12
						s-0.06-0.12-0.12-0.12H146.14z"/>
					<path style="&st5;" d="M144.19,82.38c-0.07,0-0.12,0.06-0.12,0.12s0.06,0.12,0.12,0.12h0.97c0.07,0,0.12-0.06,0.12-0.12
						s-0.05-0.12-0.12-0.12H144.19z"/>
					<path style="&st5;" d="M150.03,82.38c-0.07,0-0.12,0.06-0.12,0.12s0.06,0.12,0.12,0.12H151c0.07,0,0.12-0.06,0.12-0.12
						s-0.06-0.12-0.12-0.12H150.03z"/>
					<path style="&st5;" d="M148.08,82.38c-0.07,0-0.12,0.06-0.12,0.12s0.06,0.12,0.12,0.12h0.97c0.07,0,0.12-0.06,0.12-0.12
						s-0.06-0.12-0.12-0.12H148.08z"/>
				</g>
				<g>
					<path style="&st5;" d="M168.03,83.12c0.07,0,0.12-0.06,0.12-0.12v-0.61h-0.61c-0.07,0-0.12,0.06-0.12,0.12s0.06,0.12,0.12,0.12
						h0.37V83C167.91,83.06,167.97,83.12,168.03,83.12z"/>
				</g>
				<g>
					<path style="&st5;" d="M168.03,97.82c-0.07,0-0.12,0.05-0.12,0.12v1c0,0.07,0.06,0.12,0.12,0.12c0.07,0,0.12-0.05,0.12-0.12v-1
						C168.16,97.88,168.1,97.82,168.03,97.82z"/>
					<path style="&st5;" d="M168.16,91.96c0-0.07-0.06-0.12-0.12-0.12c-0.07,0-0.12,0.06-0.12,0.12v1c0,0.07,0.06,0.12,0.12,0.12
						c0.07,0,0.12-0.05,0.12-0.12V91.96z"/>
					<path style="&st5;" d="M168.16,93.96c0-0.07-0.06-0.12-0.12-0.12c-0.07,0-0.12,0.05-0.12,0.12v1c0,0.07,0.06,0.12,0.12,0.12
						c0.07,0,0.12-0.05,0.12-0.12V93.96z"/>
					<path style="&st5;" d="M168.16,95.95c0-0.07-0.06-0.12-0.12-0.12c-0.07,0-0.12,0.05-0.12,0.12v1c0,0.07,0.06,0.12,0.12,0.12
						c0.07,0,0.12-0.06,0.12-0.12V95.95z"/>
					<path style="&st5;" d="M168.16,85.98c0-0.07-0.06-0.12-0.12-0.12c-0.07,0-0.12,0.05-0.12,0.12v1c0,0.07,0.06,0.12,0.12,0.12
						c0.07,0,0.12-0.05,0.12-0.12V85.98z"/>
					<path style="&st5;" d="M168.16,83.99c0-0.07-0.06-0.12-0.12-0.12c-0.07,0-0.12,0.05-0.12,0.12v1c0,0.07,0.06,0.12,0.12,0.12
						c0.07,0,0.12-0.05,0.12-0.12V83.99z"/>
					<path style="&st5;" d="M168.16,87.98c0-0.07-0.06-0.12-0.12-0.12c-0.07,0-0.12,0.05-0.12,0.12v1c0,0.07,0.06,0.12,0.12,0.12
						c0.07,0,0.12-0.05,0.12-0.12V87.98z"/>
					<path style="&st5;" d="M168.16,89.97c0-0.07-0.06-0.12-0.12-0.12c-0.07,0-0.12,0.06-0.12,0.12v1c0,0.07,0.06,0.12,0.12,0.12
						c0.07,0,0.12-0.05,0.12-0.12V89.97z"/>
				</g>
			</g>
			<g>
				<rect x="140.63" y="88.41" style="&st7;" width="12.2" height="5.85"/>
				<path style="&st3;" d="M140.38,94.51h12.7v-6.35h-12.7V94.51z M140.88,88.66h11.7v5.35h-11.7V88.66z"/>
			</g>
			<circle style="&st5;" cx="150.26" cy="91.34" r="1.71"/>
		</g>
	</g>
</g>
</svg>
