<?xml version="1.0" encoding="iso-8859-1"?>
<!-- Generator: Adobe Illustrator 26.0.3, SVG Export Plug-In . SVG Version: 6.00 Build 0)  -->
<!DOCTYPE svg PUBLIC "-//W3C//DTD SVG 1.1//EN" "http://www.w3.org/Graphics/SVG/1.1/DTD/svg11.dtd" [
	<!ENTITY ns_extend "http://ns.adobe.com/Extensibility/1.0/">
	<!ENTITY ns_ai "http://ns.adobe.com/AdobeIllustrator/10.0/">
	<!ENTITY ns_graphs "http://ns.adobe.com/Graphs/1.0/">
	<!ENTITY ns_vars "http://ns.adobe.com/Variables/1.0/">
	<!ENTITY ns_imrep "http://ns.adobe.com/ImageReplacement/1.0/">
	<!ENTITY ns_sfw "http://ns.adobe.com/SaveForWeb/1.0/">
	<!ENTITY ns_custom "http://ns.adobe.com/GenericCustomNamespace/1.0/">
	<!ENTITY ns_adobe_xpath "http://ns.adobe.com/XPath/1.0/">
]>
<svg version="1.1" id="Layer_1" xmlns:x="&ns_extend;" xmlns:i="&ns_ai;" xmlns:graph="&ns_graphs;"
	 xmlns="http://www.w3.org/2000/svg" xmlns:xlink="http://www.w3.org/1999/xlink" x="0px" y="0px" viewBox="0 0 1274 717"
	 style="enable-background:new 0 0 1274 717;" xml:space="preserve">
<style type="text/css">
	.st0{fill:#D96249;}
	.st1{fill:#BF4636;}
	.st2{fill:#C48769;}
	.st3{fill:#EADCC7;}
	.st4{fill:#F7EADC;}
	.st5{fill:#A55852;}
	.st6{fill:#FFA18A;}
	.st7{opacity:0.5;}
	.st8{fill:#FF7A5A;}
	.st9{opacity:0.4;fill:#FF7A5A;}
	.st10{fill:#393146;}
	.st11{fill:#9B4D49;}
	.st12{fill:#DEA379;}
	.st13{fill:#2E283A;}
	.st14{fill:#DADEE7;}
	.st15{fill:#F2F2F2;}
	.st16{fill:#A5B0C6;}
</style>
<metadata>
	<sfw  xmlns="&ns_sfw;">
		<slices></slices>
		<sliceSourceBounds  bottomLeftOrigin="true" height="493.2" width="561.4" x="679.1" y="-788"></sliceSourceBounds>
	</sfw>
</metadata>
<g>
	<g>
		<path class="st0" d="M783.9,449.4h-121l6.5-248h131.9c23.6,0,42.1,20.4,39.7,43.9l-15.7,159.1
			C823.3,424.8,804.4,449.4,783.9,449.4z"/>
		<g>
			<path class="st1" d="M798.6,205.9c8.8,37,2.9,75.9-1.2,113.2c-4.1,37.4-9.5,74.8-22.1,110.4c-0.3,0.8,1,1.2,1.3,0.4
				c12.5-35.7,18-73.3,22.1-110.8c4.1-37.4,10-76.3,1.1-113.5C799.7,204.7,798.4,205,798.6,205.9L798.6,205.9z"/>
		</g>
	</g>
	<path class="st2" d="M378.7,579H901c10.8,0,19.6-8.8,19.6-19.6v-90.8c0-10.8-8.8-19.6-19.6-19.6H378.7c-10.8,0-19.6,8.8-19.6,19.6
		v90.8C359.1,570.2,367.9,579,378.7,579z"/>
	<g>
		<polygon class="st3" points="780.9,542.8 748.6,484 619.9,486.7 601.2,544.1 		"/>
		<polygon class="st3" points="765.7,532.1 733.5,473.3 592.8,475.5 574.1,532.9 		"/>
		<polygon class="st4" points="769.7,535.2 737.5,476.4 608.8,479.1 590,536.6 		"/>
	</g>
	<g>
		<path class="st5" d="M574.1,194.2c1.7,4,3.7,8,4.8,12.2c0.6,2.1,0.5,2.8,0.8,4.9c0.3,1.8,2.4,2,3.5,1.6c2.2-0.8,2.3-2.8,3.9-4
			c1.8-1.4,6.4-1.6,8.5-2.2c2.4-0.8,3.5,4.7,5.9,3.9c1.9-0.6,4.3-1,5.7-2.6c1.5-1.7,0.9-4.1,0.7-6.1c-0.3-2.4-0.7-4.7-1.1-7.1
			c-0.9-4.7-2.1-9.3-3.2-14c-1.2-4.8-2.3-9.5-3.2-14.4c-0.8-4.8-1.1-9.5-1.2-14.3c-0.1-3-0.4-5.9-1.5-8.7c-0.8-2-1.8-4-2.8-6
			c-2.6-5.3-5.3-10.5-7.7-15.7c-1.1-2.3-2.1-4.6-3.1-7c-0.6-1.6-1.2-3-1.2-4.6c0-0.8-0.5-1.2-1.1-1.3c-0.5-0.2-0.9-0.2-1.4,0.4
			c-1.2,1.6-2.6,3.4-3.6,5.3c-1.9,3.7-3.2,7.8-3.8,12c-0.6,4.7-0.1,9.3,0.5,14c0.6,4.7,0.9,9.4,0.4,14.1c-0.5,4.6-1.4,9.1-2,13.6
			c-0.7,4.4-1.2,8.8-0.9,13.2C571.1,185.8,572.3,190.1,574.1,194.2z"/>
		<path class="st6" d="M676.8,199.9c0,0-4-38-4.8-45.5c-3.4-30.9-24.3-47.7-49.6-44.6c-25.8,3.1-40.7,29-36.1,59.8
			c1,6.7,3.3,16.8,3.8,18.7c4.5,19.6,7.9,22.3,13.8,28.8c3.3,3.6,6.9,6.1,11,7.4l-5.7,15.3l-5.7,12.4c16.2,1.7,47.2,3.3,77.1-4.9
			c1.4-0.4,8.2-4.4,8.2-4.4c-0.4-0.6-5.5-4.3-7.9-13.7C679.1,222,675.5,207.1,676.8,199.9z"/>
		<path class="st5" d="M622.3,162.5c-0.9-1.4-0.2-3.8,3.1-3.9c2.9-0.1,8.4,1.1,11.4,1.9c11.7,3.1,8.6,6.9,7.1,6.6
			c-3.1-0.6-6.3-1.6-13.2-2.7C626.9,163.7,622.9,163.5,622.3,162.5z"/>
		<g class="st7">
			<path class="st8" d="M615.2,177.6c-0.3,1.7-0.8,3.4-1.2,5.1c-0.3,1.2-0.7,2.4-0.8,3.6c-0.1,0.8,0,1.6,0.6,2.2
				c0.7,0.7,1.9,0.9,2.8,0.7c1.5-0.2,2.7-1.2,3.5-2.5c0.3-0.5-0.5-0.9-0.8-0.4c-0.7,1.3-2,2.2-3.6,2.1c-0.9-0.1-1.7-0.5-1.8-1.4
				c-0.1-1.2,0.4-2.5,0.7-3.6c0.5-1.8,1-3.7,1.4-5.5C616.1,177.3,615.3,177.1,615.2,177.6L615.2,177.6z"/>
		</g>
		<path class="st9" d="M612.1,231.8l2.8-7.4c36.3,2.4,40.7-27,40.7-27C654.5,222.8,633.4,233.3,612.1,231.8z"/>
		<path class="st5" d="M574.4,134.2c8.5,18.4,13.6,9.8,13.6,9.8c9.2-7.1,19.9-24.7,21.7-24.8c1.8-0.1,25.9,16.8,36.2,18.9
			c0,0,15.9,3.1,10.8,18.9c-3.4,10.6,3.2,16.1,0.9,21.8c-1.9,4.6-7.4,10.1-9,14.9c-1.5,4.3-3.6,13,1.9,13.9c3.4,0.6,5.1-0.5,8.3-1.4
			c4.7-1.3,6.5,0.6,11.1,0.3c1.9-0.1,3.7-0.8,5.5-1.4c3.2-0.9,5.9-0.9,9.2-0.5c3.2,0.4,6.1,0.5,9.1-0.8
			c12.8-5.6,17.1-22.1,12.2-34.1c-3.1-7.5-7-14.7-7.1-23.2c0-5.4-1-10.4-0.8-15.8c0.1-3.1-0.8-6.6-1.5-9.6
			c-1.8-8.1-23.1-31.9-41.3-34.9c-20.7-3.3-48,9.3-48,9.3c-14.2,2.5-27.7,9.4-30.4,20.9C573.7,130,574.4,134.2,574.4,134.2z"/>
		<g>
			<path class="st8" d="M624,203.5c-2.5-1.7-5.6-2.1-8.5-2.2c-1.7-0.1-3.4-0.1-5-0.3c-1.5-0.2-3.1-0.7-4.6-0.5
				c-0.5,0.1-0.4,0.8,0.1,0.7c1.5-0.2,3.1,0.4,4.6,0.5c1.5,0.2,3.1,0.2,4.6,0.3c2.9,0.1,6,0.4,8.5,2
				C623.9,204.4,624.4,203.8,624,203.5L624,203.5z"/>
		</g>
		<path class="st10" d="M601.5,173.4c0.4,1.2,1.6,1.8,2.7,1.4c1.1-0.5,1.6-1.8,1.1-3.1c-0.4-1.2-1.6-1.8-2.7-1.4
			C601.6,170.8,601.1,172.1,601.5,173.4z"/>
		<path class="st10" d="M625.6,172.4c0.4,1.2,1.6,1.8,2.7,1.4c1.1-0.5,1.6-1.8,1.1-3.1c-0.4-1.2-1.6-1.8-2.7-1.4
			C625.7,169.8,625.2,171.2,625.6,172.4z"/>
		<g>
			<path class="st11" d="M606.5,96.4c-1.5,7.5-2.5,16,2.4,22.6c0.3,0.4,0.9,0,0.6-0.5c-4.8-6.4-3.7-14.7-2.3-22
				C607.3,96.1,606.6,95.9,606.5,96.4L606.5,96.4z"/>
		</g>
		<g>
			<path class="st11" d="M679.2,203.2c-1.3-2.4-2.7-4.9-3.4-7.6c-0.7-2.7-0.7-5.6-0.3-8.3c0.7-5.2,2.9-10.1,4.8-15
				c1.7-4.5,3.3-9.1,3.5-13.9c0.2-4.2-0.5-8.5-1.9-12.5c-1.7-4.6-4.4-8.7-7.9-12.1c-0.4-0.3-0.9,0.3-0.5,0.6
				c6.6,6.4,10.2,15.7,9.5,24.8c-0.8,10.2-7.2,18.8-8.3,28.9c-0.3,2.6-0.2,5.3,0.4,7.9c0.7,2.8,2.1,5.3,3.5,7.8
				C678.8,204.1,679.5,203.6,679.2,203.2L679.2,203.2z"/>
		</g>
		<g>
			<path class="st11" d="M585.6,144.9c-1.8,1.5-2.6,3.7-3.3,6c-0.9,2.9-1.5,5.9-1.7,9c-0.5,5.8,0,11.6,1.7,17.2
				c0.1,0.5,0.9,0.2,0.7-0.3c-1.5-5.3-2.1-10.9-1.7-16.4c0.2-2.6,0.7-5.2,1.3-7.7c0.7-2.5,1.4-5.4,3.4-7.1
				C586.4,145.3,586,144.6,585.6,144.9L585.6,144.9z"/>
		</g>
		<g>
			<path class="st11" d="M588.3,206.6c-3.1-6.1-3.7-13-4.3-19.8c0-0.5-0.8-0.4-0.8,0.1c0.6,6.8,1.2,13.8,4.3,20
				C587.7,207.3,588.5,207.1,588.3,206.6L588.3,206.6z"/>
		</g>
		<g>
			<path class="st11" d="M688.8,203.7c2.3-7,6.4-13.3,8.5-20.4c1.1-3.6,1.5-7.3,1.1-11c-0.4-3.9-1.5-7.7-2.6-11.5
				c-1.2-4-2.5-8-3-12.2c-0.6-4.1-0.2-8.3-0.5-12.5c-0.4-6.6-2.2-13.2-5.2-19.1c-3.3-6.4-8.2-11.9-14.6-15.5
				c-0.4-0.2-0.8,0.5-0.3,0.7c11.6,6.5,18,19.6,19.2,32.6c0.4,3.9,0.1,7.8,0.4,11.7c0.3,3.8,1.2,7.6,2.3,11.2
				c2.2,7.5,4.8,15.1,3.1,23c-1.7,8-6.5,14.9-9.1,22.6C688,203.9,688.7,204.2,688.8,203.7L688.8,203.7z"/>
		</g>
		<path class="st5" d="M609.8,164.3c0.8-1.4,0.2-3.8-2.8-4c-2.6-0.2-7.6,0.8-10.3,1.5c-10,2.4-7.9,6.5-6.5,6.2
			c2.8-0.5,5.7-1.3,12-2.2C605.6,165.4,609.2,165.3,609.8,164.3z"/>
	</g>
	<path class="st12" d="M681.1,229.7c33.2-4.1,66.9,0.3,83.5,13.6c20.9,16.8,43.5,63.7,43.5,63.7c-24.8,29.1-60.3,26.6-60.3,26.6
		c-0.6,9.1,1.3,13.3,4.2,45.8c3.1,35.5,8.6,61.8,5.4,69.8H553.8c-18.1-36.8,11.5-74.2,7.4-115.1c0,0-39.1-0.7-52.4-11.1
		c0,0,12.5-61.7,46-81.4c14.3-8.4,36.1-12,57.4-9.8c0,0,9,16.6,25,17.1C660.1,249.5,681.1,229.7,681.1,229.7z"/>
	<path class="st6" d="M802.9,312.5c14.9,28.3,31.8,81.2,25.5,97.1c-7.1,17.9-44.1,56.8-48.5,62.5c-0.4,0.5-1,3.9-3.8,6.8
		c-1.5,1.5-2.9,2.2-3.3,2.4c-7.8,4.3-11.5,22.1-16.1,21.1c-3.4-0.7-2.7-5.2-2.7-5.2c-2.1,3.5-6.7,8.5-9.6,7.9
		c-2-0.5-2.7-5.1-2.7-5.1c-1.6,3.1-3.3,5.8-6,5.4c-3.2-0.4-4.2-6.1-4.3-6.5c-0.5-1.8-1.6-6.9,2.6-19c2.3-6.9,4.2-10.5,3.6-10.9
		c-0.6-0.4-5.4,2.9-6.6,8.2c-2.7,12-0.8,21.5-5.1,22.3c-4.6,0.9-6.1-5.9-6.7-12.7c-0.8-8.2,1.2-15.3,3.1-20.2
		c1.2-3,7.4-17.9,15-17.7c2.3,0.1,4.6,0.2,7.6,1.4c0,0,3.1-1.7,7-1.8c0,0,21.4-14,26-30.9c3.6-13-17.7-34-27.1-84.1
		c0,0,14.6-0.4,27.2-5.2C790.7,323.3,802.9,312.5,802.9,312.5z"/>
	<path class="st6" d="M509.1,453.5c20.2,5.4,42-22.1,53.4-55.4c14.5-42.5,20-89.2,27.8-103.1c4.5-8.1,2.1-6.1,17.5-19.9
		c18.6-16.7,32-31.3,29.5-35.2c-0.9-1.4-4.1-0.3-4.1-0.3c3.9-4.1,12.2-14,9-17.2c-1.8-1.7-6.5,0.8-6.5,0.8c2.6-2.7,4.4-8.3,3-9.7
		c-2.2-2.1-10.8,2.2-10.8,2.2c1-1.5,1.3-4.4,0.1-5.7c-2.1-2.2-13.9,3.4-25.9,12.7c-14.5,11.2-20.8,20.1-24.4,18.2
		c-2.8-1.5,0-7.7-4.7-17c-2-3.9-4.7-8.2-7.3-7.4c-1.6,0.5-1.3,3.7-1.6,8.6c-0.6,10.4-3.4,13.2-5.4,23c-2.1,10.1-0.5,15.8-0.9,24.3
		c-0.6,14.8-21.7,59.5-21.7,59.5c-6.4-1.1-16.7-3.7-16.7-3.7C498.2,374.5,482.7,446.5,509.1,453.5z"/>
	<g>
		<path class="st8" d="M663,171.6C663,171.6,663,171.6,663,171.6L663,171.6z"/>
	</g>
	<g>
		<path class="st8" d="M802,400.8c-4.5-0.9-9.3-0.3-13.4,1.6c-4.9,2.3-8.4,6.4-10,11.5c-0.1,0.4-0.7,0.2-0.6-0.2
			c1.6-5.3,5.2-9.6,10.2-11.9c4.3-2,9.2-2.6,13.9-1.7C802.6,400.3,802.4,400.9,802,400.8L802,400.8z"/>
	</g>
	<g>
		<path class="st8" d="M536.1,332.8c-7,16.8-13,34-17.9,51.5c-0.1,0.4-0.7,0.2-0.6-0.2c4.9-17.5,10.9-34.7,17.9-51.5
			C535.6,332.3,536.2,332.4,536.1,332.8L536.1,332.8z"/>
	</g>
	<g>
		<path class="st8" d="M643.3,223.7c0.6,3.1-1.4,5.6-3.2,7.9c-2,2.7-4.2,5.4-6.3,8c-0.2,0.3-0.7-0.1-0.4-0.4c2-2.4,4-4.9,5.9-7.4
			c1.7-2.2,4.1-4.9,3.5-7.9C642.6,223.5,643.2,223.3,643.3,223.7L643.3,223.7z"/>
	</g>
	<g>
		<path class="st8" d="M633.3,239.1c2-1,5.1-0.2,4.8,2.5c-0.1,1.3-0.9,2.4-1.6,3.5c-0.7,1.2-1.6,2.2-2.4,3.3c-0.2,0.3-0.7,0-0.5-0.3
			c1.3-1.7,2.7-3.5,3.6-5.5c0.4-1,0.6-2.3-0.5-2.9c-0.9-0.6-2.2-0.5-3.1-0.1C633.3,239.8,633,239.3,633.3,239.1L633.3,239.1z"/>
	</g>
	<g>
		<path class="st8" d="M637.6,220.2c0.7-1.2,1.4-2.5,1.5-4c0.1-0.7,0-1.5-0.4-2.1c-0.4-0.6-1.5-0.7-2.1-0.8
			c-1.4-0.1-2.8,0.4-4.1,0.9c-1.4,0.5-2.8,1-4.1,1.8c-0.3,0.2-0.6-0.3-0.3-0.5c1.5-0.8,3.1-1.4,4.7-2c1.6-0.5,3.2-1,4.9-0.6
			c0.6,0.2,1.3,0.4,1.6,1c0.3,0.6,0.5,1.4,0.4,2.2c-0.1,1.6-0.9,3.1-1.6,4.5C637.9,220.8,637.4,220.5,637.6,220.2L637.6,220.2z"/>
	</g>
	<g>
		<path class="st8" d="M627.9,215.6c0.7-1.1,1-2.4,0.8-3.7c-0.2-1.6-1.4-2.1-2.9-1.9c-2.4,0.2-4.5,1.2-6.6,2.3
			c-1.9,1-3.8,1.8-5.7,2.9c-2.2,1.3-4.4,2.7-6.6,4.1c-0.3,0.2-0.6-0.3-0.3-0.5c2.7-1.7,5.3-3.4,8.1-5c1.2-0.7,2.6-1.2,3.8-1.9
			c1.1-0.6,2.2-1.2,3.4-1.7c1.7-0.6,5-1.7,6.5-0.3c1.6,1.5,0.9,4.4-0.1,6C628.2,216.2,627.7,215.9,627.9,215.6L627.9,215.6z"/>
	</g>
	<g>
		<path class="st8" d="M633.8,239.5c-7.8,5.9-15,12.4-21.6,19.5c-0.3,0.3-0.7-0.1-0.4-0.4c6.7-7.2,13.9-13.7,21.7-19.6
			C633.8,238.7,634.1,239.2,633.8,239.5L633.8,239.5z"/>
	</g>
	<g>
		<path class="st8" d="M635.1,223.5c-4.9,4.5-10.2,8.6-15.8,12.3c-1.4,0.9-3,1.8-4.3,2.9c-1.3,1.1-2.4,2.4-3.3,3.8c-2,2.9-4,6-6,9
			c-0.2,0.3-0.7,0-0.5-0.3c2-3,3.9-6,6-9c1.8-2.6,4-4.5,6.7-6.2c6-3.8,11.6-8.1,16.9-12.9C634.9,222.9,635.3,223.3,635.1,223.5
			L635.1,223.5z"/>
	</g>
	<g>
		<path class="st8" d="M628.4,215.8c-2.8,2.2-5.7,4.4-8.5,6.6c-2.7,2.1-5.2,4.3-8.1,6.1c-3,1.9-5.9,3.6-8,6.5
			c-2,2.7-3.2,5.8-4.5,8.9c-0.1,0.3-0.7,0.2-0.6-0.2c1.2-2.9,2.4-5.9,4.2-8.5c1.9-2.7,4.3-4.6,7.1-6.3c3.1-2,6-4.2,8.8-6.4
			c3-2.4,6.1-4.6,9-7C628.3,215.1,628.7,215.6,628.4,215.8L628.4,215.8z"/>
	</g>
	<g>
		<path class="st8" d="M593.7,288.5c-2,1.5-4,3-6.4,3.8c-1.2,0.4-2.4,0.5-3.6,0.6c-1.5,0.1-2.9,0.2-4.4,0.3c-0.4,0-0.4-0.6,0-0.6
			c1.4-0.1,2.7-0.2,4.1-0.3c1.3-0.1,2.5-0.2,3.7-0.6c2.3-0.8,4.3-2.3,6.3-3.7C593.7,287.8,594,288.3,593.7,288.5L593.7,288.5z"/>
	</g>
	<g>
		<path class="st2" d="M747,332c0.7-13.1-3-25.7-6-38.3c-1.5-6.3-2.8-12.6-3.5-19.1c-0.7-6.6-0.8-13.2-0.4-19.8
			c0.5-6.9,1.5-14,4.4-20.3c0.2-0.3,0.7,0,0.5,0.3c-2.7,6-3.7,12.6-4.3,19.1c-0.5,6.6-0.5,13.2,0.2,19.8c1.3,12.8,5.3,25,7.8,37.6
			c1.4,6.8,2.2,13.8,1.9,20.7C747.6,332.4,747,332.4,747,332L747,332z"/>
	</g>
	<g>
		<path class="st2" d="M800.8,294.8c-5.9,4.8-11.9,9.6-18.4,13.5c-6.9,4.1-14.3,6.7-22,8.9c-4.5,1.2-9,2.2-13.7,2.6
			c-0.4,0-0.4-0.6,0-0.6c8-0.7,16-3,23.6-5.7c7.2-2.6,13.7-6.6,19.8-11.1c3.5-2.6,6.8-5.3,10.2-8
			C800.7,294.1,801.1,294.5,800.8,294.8L800.8,294.8z"/>
	</g>
	<path class="st2" d="M696.7,233.7c-12,15.8-31.6,23.1-50.9,24.8c-6.2,0.6-12.5,0.6-18.7,0.3c-0.4,0-0.4-0.6,0-0.6
		c20,0.9,41.1-1.6,57.7-13.7c4.3-3.1,8.2-6.9,11.4-11.1C696.4,233.1,697,233.4,696.7,233.7L696.7,233.7z"/>
	<g>
		<path class="st2" d="M542.1,317c-10.1-0.9-19.9-3.6-29-8.1c-0.3-0.2,0-0.7,0.3-0.5c9,4.4,18.7,7.1,28.7,8
			C542.5,316.4,542.5,317,542.1,317L542.1,317z"/>
	</g>
	<g>
		<path class="st8" d="M764.6,471.3c-5,7.8-7.7,16.7-10.4,25.5c-0.1,0.4-0.7,0.2-0.6-0.2c2.7-8.8,5.4-17.8,10.4-25.6
			C764.2,470.6,764.8,470.9,764.6,471.3L764.6,471.3z"/>
	</g>
	<g>
		<path class="st8" d="M752.6,466.5c-0.9,2.8-2.2,5.4-3.3,8.1c-1.1,2.7-2,5.4-2.9,8.2c-1.8,5.5-3.3,11.1-4.4,16.8
			c-0.1,0.4-0.6,0.2-0.6-0.2c1.1-5.7,2.6-11.3,4.4-16.8c0.9-2.7,1.8-5.3,2.9-7.9c1.1-2.8,2.5-5.5,3.4-8.3
			C752.1,466,752.7,466.1,752.6,466.5L752.6,466.5z"/>
	</g>
	<g>
		<path class="st8" d="M740.6,463.4c-0.2,0.9-0.9,1.7-1.4,2.5c-0.5,0.9-0.9,1.8-1.2,2.8c-0.1,0.4-0.7,0.2-0.6-0.2
			c0.3-1,0.7-1.9,1.2-2.8c0.2-0.4,0.5-0.8,0.8-1.3c0.3-0.4,0.5-0.8,0.6-1.3C740.1,462.9,740.7,463.1,740.6,463.4L740.6,463.4z"/>
	</g>
	<g>
		<path class="st8" d="M777.9,470.2c-1.1-2.8-2.7-5.5-5.5-6.8c-2.7-1.2-4.2-4.1-6.6-5.9c-1.4-1-2.9-1.7-4.6-1.9
			c-1-0.1-1.6,0.1-2.2-0.8c-1.7-2.6-3.9-4.5-7-5.3c-0.4-0.1-0.2-0.7,0.2-0.6c2.6,0.7,4.9,2.1,6.5,4.3c0.6,0.8,0.8,1.5,1.9,1.7
			c0.6,0.1,1.3,0.1,1.9,0.2c1.5,0.3,2.8,1.1,4,2c1.3,1,2.4,2.3,3.5,3.5c0.6,0.7,1.1,1.3,1.9,1.7c0.7,0.4,1.4,0.6,2,1
			c2.3,1.5,3.6,4,4.5,6.5C778.6,470.4,778.1,470.6,777.9,470.2L777.9,470.2z"/>
	</g>
	<path class="st10" d="M718.1,448.9c1.2-0.8,2.8-0.2,3.6,1.2l23.1,41.5c0.1,0.2,0.2,0.4,0.2,0.7l0.5,5.3l-0.4,0.3l-4.1-2.9
		c-0.2-0.1-0.3-0.3-0.4-0.5l-23.2-41.7C716.6,451.3,716.9,449.6,718.1,448.9L718.1,448.9z"/>
	<path class="st6" d="M722.2,466.6c1.2-3,7.4-17.9,15-17.7c1.2,0,2.4,0.1,3.6,0.3c0,0.2,0.1,0.3,0.1,0.5c0.2,1,0.2,2,0.1,2.9
		c-0.2,1.9-0.8,3.8-1.3,5.6c-1,3.6-2.3,7.2-2.9,10.9c-1.5,0.7-5,3.7-6,8.1c-2.7,12-0.8,21.5-5.1,22.3c-4.6,0.9-6.1-5.9-6.7-12.7
		C718.2,478.6,720.2,471.4,722.2,466.6z"/>
	<g>
		<path class="st13" d="M812.5,334.3c-13.6,7.7-28.4,13.4-43.6,16.8c-4.4,1-8.8,1.8-13.3,2.4c-0.4,0.1-0.6-0.6-0.2-0.6
			c15.5-2.1,30.7-6.5,44.9-13.1c4-1.8,8-3.9,11.8-6C812.6,333.5,812.9,334.1,812.5,334.3L812.5,334.3z"/>
	</g>
	<g>
		<path class="st13" d="M817.8,348.5c-6.6,4.1-13.7,7.2-21,9.8c-7.7,2.7-15.6,4.9-23.6,6.4c-4.5,0.8-9,1.4-13.6,1.4
			c-0.4,0-0.4-0.7,0-0.7c8.2,0,16.3-1.7,24.2-3.9c7.5-2,15-4.4,22.1-7.5c4-1.8,7.9-3.8,11.6-6.1
			C817.9,347.7,818.2,348.3,817.8,348.5L817.8,348.5z"/>
	</g>
	<path class="st13" d="M810.1,329.1c-3.3-1-6.6-1.9-9.9-2.7c0.1-0.1,0.3-0.2,0.4-0.2c-0.9,2.8-1.6,5.7-2.1,8.6
		c0,0.2-0.2,0.3-0.4,0.2c-1.8-0.7-3.5-1.4-5.3-2c-1.7-0.6-3.6-1.4-5.4-1.7c-1.4-0.2-1.6,1.1-2,2.2c-0.3,0.9-0.6,1.8-0.9,2.7
		c-0.6,1.8-1.2,3.7-1.9,5.5c-0.1,0.2-0.3,0.3-0.5,0.2c-3.9-1.9-7.9-3.8-11.8-5.7c0.1,0,0.3-0.1,0.4-0.1c-2.1,3.5-4,7.1-5.6,10.9
		c-0.1,0.2-0.3,0.2-0.4,0.1c-2-1.1-3.9-2.2-5.9-3.3c-0.9-0.5-1.9-1-2.8-1.6c-0.4-0.2-0.9-0.5-1.3-0.7c-0.8-0.5-1.2-0.9-1.6,0.3
		c-0.1,0.4-0.8,0.2-0.6-0.2c0.2-0.6,0.5-1,0.9-1.4c0.1-0.1,0.3-0.1,0.4-0.1c3.8,2.1,7.6,4.2,11.4,6.3c-0.1,0-0.3,0.1-0.4,0.1
		c1.6-3.7,3.5-7.4,5.6-10.9c0.1-0.2,0.3-0.2,0.4-0.1c3.9,1.9,7.9,3.8,11.8,5.7c-0.2,0.1-0.3,0.1-0.5,0.2c0.8-2.3,1.6-4.6,2.3-6.9
		c0.4-1.1,0.7-2.2,1.1-3.2c0.2-0.4,0.3-0.8,0.8-1c0.7-0.3,1.7,0.2,2.3,0.4c1.1,0.3,2.1,0.6,3.2,1c2.3,0.7,4.5,1.6,6.7,2.5
		c-0.1,0.1-0.3,0.2-0.4,0.2c0.5-2.9,1.2-5.8,2.1-8.6c0.1-0.2,0.2-0.3,0.4-0.2c3.3,0.8,6.7,1.7,9.9,2.7
		C810.6,328.6,810.5,329.3,810.1,329.1L810.1,329.1z"/>
	<circle class="st13" cx="804" cy="331.8" r="1.3"/>
	<path class="st13" d="M788.1,337.8c0,0.7,0.6,1.3,1.3,1.3c0.7,0,1.3-0.6,1.3-1.3c0-0.7-0.6-1.3-1.3-1.3
		C788.6,336.5,788.1,337.1,788.1,337.8z"/>
	<path class="st13" d="M771.5,343.2c0,0.7,0.6,1.3,1.3,1.3c0.7,0,1.3-0.6,1.3-1.3c0-0.7-0.6-1.3-1.3-1.3
		C772.1,341.9,771.5,342.5,771.5,343.2z"/>
	<path class="st13" d="M753.8,347.4c0,0.7,0.6,1.3,1.3,1.3s1.3-0.6,1.3-1.3c0-0.7-0.6-1.3-1.3-1.3S753.8,346.7,753.8,347.4z"/>
	<g>
		<path class="st2" d="M644.8,357.2c0.1,7.9-1.4,14-4.4,18.2c-3,4.2-7.5,6.4-13.3,6.5c-5.8,0.1-10.3-1.9-13.4-6
			c-3.1-4.1-4.8-10-4.9-17.7l-0.1-10.6c-0.1-8,1.4-14.1,4.4-18.3c3-4.2,7.5-6.3,13.3-6.4c5.8-0.1,10.3,1.9,13.4,6
			c3.1,4.1,4.8,10,4.9,17.6L644.8,357.2z M634.1,345.7c-0.1-4.8-0.7-8.2-1.9-10.4c-1.2-2.2-3.1-3.2-5.7-3.2c-2.5,0-4.3,1.1-5.5,3.2
			c-1.2,2.1-1.8,5.3-1.8,9.7l0.2,14c0.1,4.7,0.7,8.1,1.9,10.4c1.2,2.3,3.1,3.4,5.7,3.3c2.6,0,4.4-1.1,5.6-3.3
			c1.1-2.2,1.7-5.5,1.7-10L634.1,345.7z"/>
		<path class="st2" d="M687.9,329.4l-20,51.2l-11.2,0.1l20.1-48.4l-26.5,0.3l-0.1-9.2l37.7-0.4L687.9,329.4z"/>
	</g>
	<g>
		<path class="st2" d="M637.4,249.4c-0.3,3-0.6,6.1-0.7,9.1c0,0.4-0.6,0.4-0.6,0c0.2-3,0.4-6.1,0.7-9.1
			C636.8,249.1,637.4,249.1,637.4,249.4L637.4,249.4z"/>
	</g>
	<g>
		<path class="st2" d="M647.1,248.5c0.8,3,1.4,6.1,1.7,9.2c0,0.4-0.5,0.4-0.6,0c-0.3-3-0.9-6.1-1.7-9
			C646.5,248.3,647,248.2,647.1,248.5L647.1,248.5z"/>
	</g>
	<g>
		<path class="st2" d="M660.5,244.4c1.9,3.1,3.3,6.4,4.2,10c0.1,0.4-0.5,0.5-0.6,0.2c-0.9-3.5-2.3-6.8-4.1-9.8
			C659.8,244.4,660.3,244.1,660.5,244.4L660.5,244.4z"/>
	</g>
	<g>
		<path class="st2" d="M673.6,236.9c3.1,2.8,5.6,6.3,7.3,10.1c0.1,0.3-0.2,0.6-0.5,0.4c0,0-0.1-0.1-0.1-0.1
			c-0.3-0.3,0.1-0.7,0.4-0.4c0,0,0.1,0.1,0.1,0.1c-0.2,0.1-0.3,0.2-0.5,0.4c-1.7-3.8-4.2-7.2-7.2-10
			C672.9,237.1,673.3,236.7,673.6,236.9L673.6,236.9z"/>
	</g>
	<g>
		<path class="st2" d="M520.2,311.8c-1.6,4.8-2.9,9.7-3.7,14.7c-0.1,0.4-0.6,0.2-0.6-0.2c0.9-5,2.1-9.9,3.7-14.7
			C519.7,311.2,520.3,311.4,520.2,311.8L520.2,311.8z"/>
	</g>
	<g>
		<path class="st2" d="M533.6,315.8c-1.9,4.6-3.2,9.4-3.8,14.4c0,0.4-0.6,0.4-0.6,0c0.6-5,1.9-9.9,3.8-14.5
			C533.2,315.3,533.8,315.4,533.6,315.8L533.6,315.8z"/>
	</g>
	<g>
		<path class="st2" d="M758.4,317.8c1.5,4.5,2.6,9.2,3.1,13.9c0,0.4-0.5,0.4-0.6,0c-0.6-4.7-1.6-9.3-3.1-13.7
			C757.7,317.6,758.3,317.4,758.4,317.8L758.4,317.8z"/>
	</g>
	<g>
		<path class="st2" d="M770.6,313.7c1.2,2.4,2.4,4.8,3.5,7.2c1,2.3,2.1,4.7,2.6,7.2c0.1,0.4-0.5,0.5-0.6,0.2
			c-0.5-2.6-1.6-4.9-2.6-7.3c-1-2.3-2.2-4.7-3.3-7C769.9,313.7,770.4,313.4,770.6,313.7L770.6,313.7z"/>
	</g>
	<g>
		<path class="st2" d="M784.7,306.7c1.5,2.2,2.8,4.4,4,6.7c1.1,2.2,2.5,4.5,2.7,7c0,0.4-0.6,0.4-0.6,0c-0.1-1.4-0.7-2.6-1.2-3.9
			c-0.5-1.1-1-2.2-1.6-3.2c-1.1-2.2-2.4-4.3-3.8-6.3C784,306.6,784.5,306.3,784.7,306.7L784.7,306.7z"/>
	</g>
	<g>
		<path class="st2" d="M795.7,298.6c3.2,4,5.4,8.6,6.6,13.6c0.1,0.4-0.5,0.5-0.6,0.2c-1.2-4.8-3.4-9.4-6.5-13.3
			C795,298.7,795.4,298.3,795.7,298.6L795.7,298.6z"/>
	</g>
	<g>
		<path class="st2" d="M711.7,448.2c3.1-13.6,5.2-27.5,6.3-41.4c0-0.4,0.6-0.4,0.6,0c-1.1,14-3.2,27.9-6.3,41.5
			C712.1,448.7,711.6,448.5,711.7,448.2L711.7,448.2z"/>
	</g>
	<g>
		<path class="st2" d="M681.5,448c-1.8-6.4-2.6-13.1-2.4-19.8c0-0.4,0.6-0.4,0.6,0c-0.2,6.6,0.6,13.2,2.4,19.6
			C682.2,448.2,681.6,448.4,681.5,448L681.5,448z"/>
	</g>
	<g>
		<path class="st8" d="M618,207.8c-0.8-1.2-2.1-1.9-3.5-2.2c-0.8-0.2-1.6-0.3-2.4-0.3c-0.7,0-1.6-0.1-2.2,0.4
			c-0.3,0.2-0.6-0.2-0.3-0.5c0.6-0.5,1.5-0.5,2.3-0.5c0.9,0,1.9,0.1,2.8,0.3c1.5,0.4,3,1.1,3.8,2.4
			C618.7,207.8,618.2,208.1,618,207.8L618,207.8z"/>
	</g>
	<g>
		<path class="st8" d="M618.9,153.4c-1.6,0.2-3.2,0.4-4.8,0.6c-1.6,0.2-3.2,0.3-4.8,0.2c-0.4,0-0.4-0.6,0-0.6c1.6,0.2,3.2,0,4.8-0.2
			c1.6-0.2,3.2-0.4,4.8-0.6C619.3,152.7,619.3,153.3,618.9,153.4L618.9,153.4z"/>
	</g>
	<g>
		<path class="st14" d="M586.9,549.7l-27.2-123.9c-0.6-2.6-2.9-4.5-5.6-4.5H374c-2.5,0-4.4,2.3-4,4.7l20.7,119.5l2.4,9.4
			c0.7,2.5,2.9,4.3,5.5,4.3h303.9c2.6,0,4.7-1.8,4.7-4.4l0,0c0-2.6-2.1-4.7-4.7-4.7L586.9,549.7z"/>
		
			<ellipse transform="matrix(0.2309 -0.973 0.973 0.2309 -114.114 835.718)" class="st15" cx="471.6" cy="490" rx="11.6" ry="11.6"/>
	</g>
	<g>
		<path class="st16" d="M839.5,431.4h56.2l-9.3,71.3c-0.2,1.8-1.7,3.2-3.3,3.2h-30.8c-1.7,0-3.1-1.3-3.3-3.2L839.5,431.4z"/>
		<path class="st10" d="M845.4,420.3h44.6c0.6,0,1.2,0.5,1.3,1.2l2,10.8H842l2-10.8C844.2,420.8,844.7,420.3,845.4,420.3z"/>
		<path class="st10" d="M837.9,438.2h59.6c1.1,0,2-1,2-2.1v-5.7c0-1.2-0.9-2.1-2-2.1h-59.6c-1.1,0-2,1-2,2.1v5.7
			C835.9,437.3,836.8,438.2,837.9,438.2z"/>
		<path class="st4" d="M889.3,493.8l5.9-44.7c0.1-1-0.6-2-1.6-2h-52c-1,0-1.7,0.9-1.6,2l5.9,44.7c0.1,0.9,0.8,1.5,1.6,1.5h40.2
			C888.6,495.3,889.2,494.6,889.3,493.8z"/>
	</g>
</g>
</svg>
