<?xml version="1.0" encoding="iso-8859-1"?>
<!-- Generator: Adobe Illustrator 26.0.3, SVG Export Plug-In . SVG Version: 6.00 Build 0)  -->
<!DOCTYPE svg PUBLIC "-//W3C//DTD SVG 1.1//EN" "http://www.w3.org/Graphics/SVG/1.1/DTD/svg11.dtd" [
	<!ENTITY ns_extend "http://ns.adobe.com/Extensibility/1.0/">
	<!ENTITY ns_ai "http://ns.adobe.com/AdobeIllustrator/10.0/">
	<!ENTITY ns_graphs "http://ns.adobe.com/Graphs/1.0/">
	<!ENTITY ns_vars "http://ns.adobe.com/Variables/1.0/">
	<!ENTITY ns_imrep "http://ns.adobe.com/ImageReplacement/1.0/">
	<!ENTITY ns_sfw "http://ns.adobe.com/SaveForWeb/1.0/">
	<!ENTITY ns_custom "http://ns.adobe.com/GenericCustomNamespace/1.0/">
	<!ENTITY ns_adobe_xpath "http://ns.adobe.com/XPath/1.0/">
]>
<svg version="1.1" id="Layer_1" xmlns:x="&ns_extend;" xmlns:i="&ns_ai;" xmlns:graph="&ns_graphs;"
	 xmlns="http://www.w3.org/2000/svg" xmlns:xlink="http://www.w3.org/1999/xlink" x="0px" y="0px" viewBox="0 0 500 386.4"
	 style="enable-background:new 0 0 500 386.4;" xml:space="preserve">
<style type="text/css">
	.st0{fill:#7BEBF2;}
	.st1{fill:#6DD0D6;}
	.st2{fill:#58C3C9;}
	.st3{opacity:0.5;fill:#7BEBF2;}
	.st4{opacity:0.5;fill:#58C3C9;}
	.st5{opacity:0.5;fill:#BDFBFF;}
	.st6{opacity:0.5;fill:#FFFFFF;}
	.st7{fill:#51851C;}
	.st8{opacity:0.4;}
	.st9{opacity:0.4;fill:#FFFFFF;}
	.st10{fill:#407B35;}
	.st11{opacity:0.2;fill:#FFFFFF;}
	.st12{opacity:0.2;fill:#414042;}
	.st13{fill:#F9E232;}
	.st14{opacity:0.2;}
	.st15{fill:#FFFFFF;}
	.st16{opacity:0.1;}
	.st17{fill:#414042;}
	.st18{opacity:0.9;fill:#FFFFFF;}
	.st19{fill:#E1303F;}
	.st20{opacity:0.1;fill:#414042;}
	.st21{opacity:0.7;}
	.st22{fill:#3C2415;}
	.st23{fill:#DA1C3C;}
	.st24{fill:#D91F00;}
	.st25{opacity:0.1;fill:#FFFFFF;}
	.st26{fill:#8CC543;}
	.st27{fill:#6F9D36;}
	.st28{fill:#F7941D;}
	.st29{opacity:0.8;fill:#FFFFFF;}
	.st30{fill:#45AFB5;}
	.st31{opacity:0.5;fill:#414042;}
	.st32{opacity:0.3;fill:#414042;}
	.st33{fill:#F9C400;}
	.st34{opacity:0.3;fill:#FFFFFF;}
	.st35{opacity:0.5;}
	.st36{fill:#FEC18A;}
	.st37{opacity:0.3;}
	.st38{opacity:0.7;fill:#E0AB7A;}
	.st39{fill:#E0AB7A;}
	.st40{opacity:0.6;fill:#FFFFFF;}
	.st41{fill:#E8444B;}
	.st42{fill:#CF3D43;}
	.st43{fill:#AD3338;}
	.st44{opacity:0;fill:#231F20;}
	.st45{opacity:4.761900e-02;fill:#231F20;}
	.st46{opacity:9.523800e-02;fill:#231F20;}
	.st47{opacity:0.1429;fill:#231F20;}
	.st48{opacity:0.1905;fill:#231F20;}
	.st49{opacity:0.2381;fill:#231F20;}
	.st50{opacity:0.2857;fill:#231F20;}
	.st51{opacity:0.3333;fill:#231F20;}
	.st52{opacity:0.381;fill:#231F20;}
	.st53{opacity:0.4286;fill:#231F20;}
	.st54{opacity:0.4762;fill:#231F20;}
	.st55{opacity:0.5238;fill:#231F20;}
	.st56{opacity:0.5714;fill:#231F20;}
	.st57{opacity:0.619;fill:#231F20;}
	.st58{opacity:0.6667;fill:#231F20;}
	.st59{opacity:0.7143;fill:#231F20;}
	.st60{opacity:0.7619;fill:#231F20;}
	.st61{opacity:0.8095;fill:#231F20;}
	.st62{opacity:0.8571;fill:#231F20;}
	.st63{opacity:0.9048;fill:#231F20;}
	.st64{opacity:0.9524;fill:#231F20;}
	.st65{fill:#231F20;}
	.st66{opacity:0.2;fill:url(#SVGID_1_);}
	.st67{fill:#C4C4C4;}
	.st68{fill:#ECECEC;}
</style>
<metadata>
	<sfw  xmlns="&ns_sfw;">
		<slices></slices>
		<sliceSourceBounds  bottomLeftOrigin="true" height="386.4" width="500" x="0" y="-443.2"></sliceSourceBounds>
		<optimizationSettings>
			<targetSettings  fileFormat="JPEGFormat" targetSettingsID="0">
				
					<JPEGFormat  blurAmount="0" embedICCProfile="false" matteColor="#FFFFFF" noMatteColor="false" optimized="true" progressive="true" quality="100">
					</JPEGFormat>
			</targetSettings>
		</optimizationSettings>
	</sfw>
</metadata>
<g>
	<g>
		<path class="st0" d="M338.1,270.3c-3.3-3.3-6.9-6.4-10.7-9.3c-20.4,6.8-44.4,10.7-70,10.7c-26.7,0-51.5-4.2-72.4-11.5
			c-4.3,3.1-8.3,6.5-11.9,10.2c-5.7,5.8-15.2,11.4-15.2,18.9c0,5.7,22.1,27,97.7,26.8v0c0,0,0,0,0.1,0c0,0,0,0,0.1,0v0
			c75.6,0.3,97.7-21.1,97.7-26.8C353.3,281.7,343.8,276,338.1,270.3z"/>
		<path class="st1" d="M324.5,259.5c0,2.1-33.1,10.4-71.1,10.4s-68.6-7.6-68.6-9.8c0-2.1,33-3.2,71-3.2
			C293.8,256.9,324.5,257.3,324.5,259.5z"/>
		<path class="st2" d="M327.9,262.2c-45.7,15.4-97.8,14.8-144.7,0c-1.1-0.4,1.5-2.7,2.6-2.4c45.1,12,92,11.1,138.7-0.4
			C325.6,259.2,329,261.9,327.9,262.2z"/>
		<path class="st3" d="M349,135.4c-24.8-5.3-57.9-8.2-93.1-8.2c-35.2,0-68.2,2.9-93.1,8.2c-28.5,6.1-36.1,13.3-36.1,16.6
			c0,3.3,7.6,10.5,36.1,16.6c24.8,5.3,57.9,8.2,93.1,8.2c35.2,0,68.2-2.9,93.1-8.2c28.5-6.1,36.1-13.3,36.1-16.6
			C385,148.7,377.4,141.5,349,135.4z"/>
		<path class="st4" d="M255.5,124.6c-73.3,0-132.7,12.7-132.7,28.4s59.4,28.4,132.7,28.4s132.7-12.7,132.7-28.4
			S328.8,124.6,255.5,124.6z M349,168.6c-24.8,5.3-57.9,8.2-93.1,8.2s-68.2-2.9-93.1-8.2c-28.5-6.1-36.1-13.3-36.1-16.6
			c0-3.3,7.6-10.5,36.1-16.6c24.8-5.3,57.9-8.2,93.1-8.2s68.2,2.9,93.1,8.2c28.5,6.1,36.1,13.3,36.1,16.6
			C385,155.3,377.4,162.5,349,168.6z"/>
		<path class="st5" d="M255.5,123.4c-73.3,0-132.7,12.7-132.7,28.4c0,15.7,59.4,28.4,132.7,28.4s132.7-12.7,132.7-28.4
			C388.2,136.1,328.8,123.4,255.5,123.4z M348.6,168.4c-24.8,5.3-57.9,8.2-93.1,8.2s-68.2-2.9-93.1-8.2
			c-28.5-6.1-36.1-13.3-36.1-16.6c0-3.3,7.6-10.5,36.1-16.6c24.8-5.3,57.9-8.2,93.1-8.2s68.2,2.9,93.1,8.2
			c28.5,6.1,36.1,13.3,36.1,16.6C384.6,155.1,377,162.3,348.6,168.4z"/>
		<path class="st6" d="M162.5,136c24.8-5.3,57.9-8.2,93.1-8.2s68.2,2.9,93.1,8.2c27.4,5.9,35.4,12.8,36,16.2c0-0.1,0-0.3,0-0.4
			c0-3.3-7.6-10.5-36.1-16.6c-24.8-5.3-57.9-8.2-93.1-8.2s-68.2,2.9-93.1,8.2c-28.5,6.1-36.1,13.3-36.1,16.6c0,0.1,0,0.3,0,0.4
			C127,148.7,135.1,141.8,162.5,136z"/>
		<g>
			<path class="st7" d="M230.8,155.8c-0.1,0-0.1,0-0.2,0c-1,0-1.7-1.1-1.3-1.9c1.4-2.8,0.1-5.4-0.8-6.7c-0.4-0.5-1.1-0.8-1.7-0.7
				c-1.8,0.4-3,1.7-3.8,2.9c-0.4,0.6-1.5,0.6-2.1-0.1c0-0.1-0.1-0.1-0.1-0.2c-0.6-0.7-1.7-0.7-2.1-0.1c-1.8,2.5-0.9,5.3-0.4,8.5
				c0.4,2.1-1.1,3.3-1.6,3.1c-2.1-0.6-3.1-6.5-1.7-8.7c3.2-4.9,1.6-11.1,0.3-12.4c-0.4-0.5-1.1-0.7-1.7-0.6c-2.8,0.5-4.4,3.1-5,4.2
				c1.7-3.8-1.2-7-2.9-8.1c-0.7-0.5-1.6-0.5-2.1-0.1c-2,2-0.7,5.1-0.5,5.6c-1-2.7-6.1-7.9-9.7-7c-4.1,1,1.5,6.6,4,8.9
				c0,0-3.9-3.1-8.2-3.3c-0.8,0-1.3,0.4-1.1,1c0.6,1.5,3.2,4.9,8.4,6.6c-2-0.5-6.1-1.4-8.5-0.5c-0.5,0.2-0.7,0.7-0.4,1.2
				c0.8,1.5,3.8,5.6,10.9,6.7c8.9,1.4,8.8,6.6,8,7.4c-0.2,0.2-0.8,1.3-1.7,0.2c-2.4-2.7-4.4-5.2-8.1-6.1c-0.8-0.2-1.5,0.3-1.3,1
				c0.1,0.3,0.2,0.7,0.4,1.1c0.2,0.4-0.2,0.8-0.7,0.7c-1.7-0.5-4.5-1.2-6.6-0.4c-0.5,0.2-0.7,0.7-0.5,1.2c0.6,1.4,2.3,4.4,6.7,5.7
				c0.6,0.2,0.7,0.9,0.2,1.1c-0.4,0.2-0.8,0.4-1.2,0.7c-0.5,0.4-0.5,1.1-0.1,1.6c1.3,1.4,4.3,3.9,8.9,2.9c6.2-1.3,7.5-2.2,10.2,2
				c1.4,2.3,2.5,3.5,3.3,4c4.5,16,5.4,33.1,2.1,49.9c-0.2,0.8,0.3,1.3,1.1,1.1c0.8-0.2,1.5-1,1.7-1.8c3.2-16.7,2.4-33.8-2.1-49.8
				c0.5-0.9,0.9-2.4,0.7-5.4c-0.4-4.9,1.8-5.5,7.8-7.6c4.3-1.5,5-4.9,4.9-6.7C232.2,156.4,231.5,155.8,230.8,155.8z"/>
			<g class="st8">
				<path class="st9" d="M202.5,171.3c6.2-1.3,7.5-2.2,10.2,2c1.4,2.2,2.4,3.4,3.2,4c-3-6.1-5.3-13.2-6.6-21c-1-6.1-1.2-12-0.7-17.5
					c-0.7-1.7-2-3-3-3.7c-0.7-0.5-1.6-0.5-2.1-0.1c-2,2-0.7,5.1-0.5,5.6c-1-2.7-6.1-7.9-9.7-7c-4.1,1,1.5,6.6,4,8.9
					c0,0-3.9-3.1-8.2-3.3c-0.8,0-1.3,0.4-1.1,1c0.6,1.5,3.2,4.9,8.4,6.6c-2-0.5-6.1-1.4-8.5-0.5c-0.5,0.2-0.7,0.7-0.4,1.2
					c0.8,1.5,3.8,5.6,10.9,6.7c8.9,1.4,8.8,6.6,8,7.4c-0.2,0.2-0.8,1.3-1.7,0.2c-2.4-2.7-4.4-5.2-8.1-6.1c-0.8-0.2-1.5,0.3-1.3,1
					c0.1,0.3,0.2,0.7,0.4,1.1c0.2,0.4-0.2,0.8-0.7,0.7c-1.7-0.5-4.5-1.2-6.6-0.4c-0.5,0.2-0.7,0.7-0.5,1.2c0.6,1.4,2.3,4.4,6.7,5.7
					c0.6,0.2,0.7,0.9,0.2,1.1c-0.4,0.2-0.8,0.4-1.2,0.7c-0.5,0.4-0.5,1.1-0.1,1.6C194.9,169.7,197.9,172.3,202.5,171.3z"/>
				<path class="st9" d="M216.1,177.5c4.5,16,5.3,33,2,49.7c-0.2,0.8,0.3,1.3,1.1,1.1c0.8-0.2,1.5-1,1.7-1.8
					c2.7-13.8,2.6-27.8-0.1-41.3C219.1,183,217.5,180.4,216.1,177.5z"/>
			</g>
		</g>
		<g>
			<path class="st10" d="M230.1,181.5c44.3,31.5,77.9,59.8,65.7,74.5c-12.6,15.2-50.4-8-94.8-39.5C156.8,185,124,155.7,135.3,142
				C148,126.8,185.8,150,230.1,181.5z"/>
			<path class="st11" d="M223.2,216.1c-44.3-31.5-77.1-60.8-65.7-74.5c0.6-0.8,1.3-1.4,2.1-2c-11-3.6-19.4-3.4-24.2,2.4
				c-11.4,13.7,21.4,43,65.7,74.5c42.1,29.9,78.4,52.4,92.7,41.5C275.7,252,250.7,235.7,223.2,216.1z"/>
			<path class="st12" d="M154.6,159.6c1.4,1,1.5,3.1,0.1,4.8c-1.4,1.6-3.6,2.1-5,1.1c-1.4-1-1.5-3.1-0.1-4.8
				C151,159.1,153.2,158.6,154.6,159.6z"/>
			<path class="st12" d="M148.8,141.9c1.4,1,1.5,3.1,0.2,4.7c-1.3,1.6-3.5,2-4.9,1c-1.4-1-1.5-3.1-0.2-4.7
				C145.2,141.3,147.4,140.9,148.8,141.9z"/>
			<path class="st12" d="M173.6,151.6c1.4,1,1.4,3.2,0,4.9c-1.4,1.7-3.7,2.2-5.1,1.2c-1.4-1-1.4-3.2,0-4.9
				C169.9,151.1,172.1,150.6,173.6,151.6z"/>
			<path class="st12" d="M177.7,173.3c1.4,1,1.4,3.2,0,4.9c-1.4,1.7-3.7,2.2-5.1,1.2c-1.4-1-1.4-3.2,0-4.9
				C174,172.9,176.3,172.3,177.7,173.3z"/>
			<path class="st12" d="M203.1,174.1c1.4,1,1.4,3.2,0,4.9c-1.4,1.7-3.7,2.2-5.1,1.2c-1.4-1-1.4-3.2,0-4.9
				C199.4,173.7,201.7,173.1,203.1,174.1z"/>
			<path class="st12" d="M205.6,200.4c1.4,1,1.4,3.2,0,4.9c-1.4,1.7-3.7,2.2-5.1,1.2c-1.4-1-1.4-3.2,0-4.9
				C201.9,199.9,204.2,199.3,205.6,200.4z"/>
			<path class="st12" d="M233,187.8c1.4,1,1.4,3.2,0,4.9c-1.4,1.7-3.7,2.2-5.1,1.2c-1.4-1-1.4-3.2,0-4.9
				C229.3,187.3,231.5,186.8,233,187.8z"/>
			<path class="st12" d="M241.6,213c1.4,1,1.4,3.2,0,4.9c-1.4,1.7-3.7,2.2-5.1,1.2c-1.4-1-1.4-3.2,0-4.9
				C237.9,212.5,240.2,211.9,241.6,213z"/>
			<path class="st12" d="M252,230.6c1.4,1,1.4,3.2,0,4.9c-1.4,1.7-3.7,2.2-5.1,1.2c-1.4-1-1.4-3.2,0-4.9
				C248.3,230.1,250.6,229.5,252,230.6z"/>
			<path class="st12" d="M281.4,236.1c1.4,1,1.4,3.2,0,4.9c-1.4,1.7-3.7,2.2-5.1,1.2c-1.4-1-1.4-3.2,0-4.9
				C277.7,235.6,280,235.1,281.4,236.1z"/>
			<path class="st12" d="M138.7,139.7c0.4,0.3-0.4,1.7-1.7,3.3c-1.3,1.5-2.6,2.6-3,2.3c-0.4-0.3,0.4-1.7,1.7-3.3
				C137,140.5,138.3,139.5,138.7,139.7z"/>
			<g>
				<path class="st13" d="M133.1,134.6c-1-1.1-2.1-1.8-2.1-1.8s-1.9,1.7-1.3,4c0.1,0.4,0.3,0.8,0.5,1.2c-2.3-1-5.1-0.2-5.1-0.2
					s0.9,2.3,2.8,3.6c-1.9,1.2-2.8,3.2-2.8,3.2s3.6,1.9,6.7,1.2c1.6-0.4,2.7-1.4,3.4-2.2c0.4-0.3,2.8-1.9,3-4.7
					c0.1-3.1-2.6-6.5-2.6-6.5S134,133.1,133.1,134.6z M133.4,140.9C133.4,140.9,133.5,140.9,133.4,140.9c0.1,0,0.1,0,0.1,0
					C133.5,140.9,133.5,140.9,133.4,140.9z"/>
				<g class="st14">
					<path class="st15" d="M134.3,140.6c0,0,0.1,0,0.1,0C134.4,140.6,134.3,140.5,134.3,140.6C134.3,140.5,134.3,140.5,134.3,140.6z
						"/>
					<path class="st15" d="M133.9,134.3c0.5-0.9,1.2-1.5,1.7-1.8c0-0.1-0.1-0.1-0.1-0.1s-1.1,0.5-2,1.6
						C133.7,134,133.8,134.2,133.9,134.3z"/>
					<path class="st15" d="M132.6,145.4c-3,0.7-6.7-1.2-6.7-1.2s0.9-2,2.8-3.2c-1.6-1.1-2.5-2.9-2.7-3.5c-0.6,0.1-0.9,0.2-0.9,0.2
						s0.9,2.3,2.8,3.6c-1.9,1.2-2.8,3.2-2.8,3.2s3.6,1.9,6.7,1.2c0.5-0.1,0.9-0.3,1.3-0.5C132.9,145.3,132.8,145.4,132.6,145.4z"/>
					<path class="st15" d="M131.1,137.7c-0.2-0.4-0.4-0.8-0.5-1.2c-0.4-1.5,0.3-2.7,0.8-3.4c-0.2-0.2-0.3-0.2-0.3-0.2
						s-1.9,1.7-1.3,4c0,0.2,0.1,0.3,0.2,0.5C130.3,137.4,130.7,137.5,131.1,137.7z"/>
				</g>
				<g class="st16">
					<path class="st17" d="M128.8,137.8c0-0.1-0.1-0.1-0.1-0.2c-0.2,0-0.5-0.1-0.7-0.1C128.2,137.6,128.5,137.7,128.8,137.8z"/>
					<path class="st17" d="M131.6,134.4c0.2-0.3,0.3-0.5,0.5-0.7c-0.6-0.5-1.1-0.9-1.1-0.9s-0.2,0.2-0.5,0.6
						C130.9,133.7,131.2,134,131.6,134.4z"/>
					<path class="st17" d="M132,140.6C132,140.6,131.9,140.7,132,140.6C132,140.7,132,140.7,132,140.6
						C132,140.7,132,140.6,132,140.6z"/>
					<path class="st17" d="M134.7,132.9c0.8,1.2,2.1,3.5,2,5.7c-0.1,2.8-2.5,4.5-3,4.7c-0.7,0.9-1.8,1.9-3.4,2.2
						c-0.7,0.2-1.4,0.2-2.1,0.1c1.1,0.2,2.4,0.4,3.6,0.1c1.6-0.4,2.7-1.4,3.4-2.2c0.4-0.3,2.8-1.9,3-4.7c0.1-3.1-2.6-6.5-2.6-6.5
						S135.2,132.5,134.7,132.9z"/>
				</g>
			</g>
			<g>
				<path class="st13" d="M305.4,253c0,0-4.2-1.5-7.4-0.6c-2.9,0.8-4,3.4-4.2,3.9c-0.7,0.9-1.5,2.1-1.4,3.6c0,2.9,2.9,5.7,2.9,5.7
					s1.8-1.4,2.6-3.4c1.9,1.4,4.5,1.6,4.5,1.6s0.1-2.7-1.5-4.5c0.5,0.1,0.9,0.2,1.4,0.2c2.5,0,3.8-2.2,3.8-2.2s-1.1-0.8-2.4-1.4
					C305,254.6,305.4,253,305.4,253z M296.9,257c0,0,0.1,0,0.1,0c0,0,0,0.1-0.1,0.1C297,257.1,296.9,257.1,296.9,257z"/>
				<g class="st14">
					<path class="st15" d="M297.1,256.3c0,0,0-0.1-0.1-0.1C297.1,256.2,297.1,256.2,297.1,256.3
						C297.2,256.3,297.1,256.3,297.1,256.3z"/>
					<path class="st15" d="M303.8,255c0.8-0.7,1.2-1.5,1.5-2c0.1,0,0.1,0,0.1,0s-0.2,1.1-1.2,2.2C304.1,255.1,303.9,255,303.8,255z"
						/>
					<path class="st15" d="M292.5,259c0,2.9,2.9,5.7,2.9,5.7s1.8-1.4,2.6-3.4c1.6,1.2,3.7,1.5,4.3,1.6c0.1,0.5,0,0.9,0,0.9
						s-2.6-0.2-4.5-1.6c-0.7,2-2.6,3.4-2.6,3.4s-2.9-2.7-2.9-5.7c0-0.4,0.1-0.9,0.2-1.3C292.5,258.7,292.5,258.9,292.5,259z"/>
					<path class="st15" d="M301,258.4c0.5,0.1,0.9,0.2,1.4,0.2c1.6,0,2.8-0.9,3.4-1.6c0.2,0.1,0.3,0.2,0.3,0.2s-1.3,2.2-3.8,2.2
						c-0.2,0-0.4,0-0.5,0C301.5,259,301.2,258.7,301,258.4z"/>
				</g>
				<g class="st16">
					<path class="st17" d="M301.4,260.5c0.1,0,0.2,0,0.3,0c0.1,0.2,0.2,0.4,0.2,0.6C301.8,260.9,301.6,260.7,301.4,260.5z"/>
					<path class="st17" d="M304.2,257.1c0.2-0.2,0.4-0.4,0.6-0.6c0.7,0.4,1.2,0.7,1.2,0.7s-0.2,0.3-0.5,0.6
						C305.2,257.6,304.7,257.3,304.2,257.1z"/>
					<path class="st17" d="M297.7,258.4C297.6,258.4,297.6,258.4,297.7,258.4c-0.1,0-0.1,0-0.1,0
						C297.6,258.3,297.6,258.3,297.7,258.4z"/>
					<path class="st17" d="M305,254c-1.4-0.4-4.2-1-6.4-0.3c-2.9,0.8-4,3.4-4.2,3.9c-0.7,0.9-1.5,2.1-1.4,3.6c0,0.7,0.2,1.3,0.4,1.9
						c-0.6-0.9-1-2.1-1-3.2c0-1.5,0.7-2.8,1.4-3.6c0.2-0.4,1.2-3,4.2-3.9c3.2-0.9,7.4,0.6,7.4,0.6S305.3,253.4,305,254z"/>
				</g>
			</g>
			<path class="st18" d="M139.2,144.8c1.6,0.4-1.2,2.7,0.8,9.3c1.6,5.3,5.7,8.3,4.7,9.5c-0.9,1.3-5.5-2.1-7.4-8.1
				C135.4,149.5,137.7,144.3,139.2,144.8z"/>
		</g>
		<g>
			<path class="st19" d="M341.1,211.4c-1.6,33.2-33.9,58.7-72.1,56.9c-38.2-1.8-68-30.3-66.4-63.5c1.6-33.2,33.9-58.7,72.1-56.9
				C313,149.7,342.7,178.1,341.1,211.4z"/>
			<path class="st20" d="M311,224.6c-10.7,15.7-28,27-66.2,25.1c-13.5-0.6-24.2-8.7-34.6-15.1c11,18.9,33,32.3,58.9,33.5
				c38.2,1.8,70.5-23.6,72.1-56.9C342.2,189.9,317,215.7,311,224.6z"/>
			<path class="st11" d="M324.2,222.6c25.4,0.9-14.3,46.5-60.9,38.5c-32.1-5.5-58-23.4-56.7-48.9c1.2-25.4,13.6-52.3,46.1-50.8
				C285.2,163.1,186.5,217.6,324.2,222.6z"/>
			<path class="st18" d="M248.7,166.4c2.2,5-10.7,0.9-23.9,21.6c-10.6,16.7-5.3,33.9-10.8,34.2c-5.3,0.7-10.5-18.7,1.4-37.8
				C227.3,165.3,246.9,161.3,248.7,166.4z"/>
			<path class="st12" d="M293.6,160.7c-0.2,4.6-8.4,8-18.2,7.5c-9.8-0.5-17.6-4.6-17.4-9.2c0.2-4.6,8.4-8,18.2-7.5
				C286,151.9,293.8,156,293.6,160.7z"/>
			<path class="st10" d="M295.6,141.7c0.8-4.3,0.5-8.2,0.5-8.2s-9.9-0.9-15.3,4.9c-1,1-1.7,2.2-2.3,3.5
				c-2.5-7.2-11.7-11.8-11.7-11.8s-4.8,6.5-4.2,13.3c-8.2-1.9-16.5-0.2-16.5-0.2s3.1,11.7,12.6,17.1c5,2.8,10.7,3.4,15,3.3
				c1.8,0.4,12.6,2.7,21.5-2.6c9.7-5.8,13.5-18.3,13.5-18.3S302.6,140.7,295.6,141.7z M277.3,154.6c0.1,0,0.2,0,0.4,0
				c-0.1,0.1-0.1,0.2-0.2,0.3C277.5,154.8,277.4,154.7,277.3,154.6z"/>
			<g class="st14">
				<path class="st15" d="M280.4,155.8c0.1,0.1,0.1,0.2,0.2,0.3c0.1-0.1,0.1-0.2,0.2-0.3C280.7,155.8,280.5,155.8,280.4,155.8z"/>
				<path class="st15" d="M298.7,142.9c3.9-0.6,7.4-0.2,9.8,0.3c0.1-0.2,0.1-0.4,0.1-0.4s-4.2-1.5-9.7-1.4
					C298.9,141.9,298.8,142.4,298.7,142.9z"/>
				<path class="st15" d="M261.7,161.6c-9.5-5.4-12.6-17.1-12.6-17.1s8.3-1.8,16.5,0.2c-0.5-5.8,2.8-11.3,3.9-12.9
					c-1.6-1.1-2.8-1.7-2.8-1.7s-4.8,6.5-4.2,13.3c-8.2-1.9-16.5-0.2-16.5-0.2s3.1,11.7,12.6,17.1c1.5,0.8,3,1.5,4.6,1.9
					C262.7,162.2,262.2,161.9,261.7,161.6z"/>
				<path class="st15" d="M281.6,143.1c0.6-1.3,1.3-2.4,2.3-3.5c3.5-3.8,8.9-4.7,12.3-4.9c0-0.7-0.1-1.2-0.1-1.2s-9.9-0.9-15.3,4.9
					c-0.4,0.4-0.7,0.8-1,1.3C280.5,140.8,281.2,141.9,281.6,143.1z"/>
			</g>
			<g class="st16">
				<path class="st17" d="M275.5,138.1c0.1-0.2,0.3-0.4,0.4-0.7c-0.5-0.6-1-1.1-1.5-1.7C274.9,136.5,275.2,137.3,275.5,138.1z"/>
				<path class="st17" d="M292.7,137.9c1.2-0.2,2.3-0.2,3.5-0.3c0.1-2.4,0-4.1,0-4.1s-1.2-0.1-2.9,0
					C293.1,134.8,293,136.3,292.7,137.9z"/>
				<path class="st17" d="M274.7,150.8c-0.1,0-0.3,0-0.4,0c0.1,0.1,0.1,0.2,0.2,0.3C274.6,151,274.7,150.9,274.7,150.8z"/>
				<path class="st17" d="M304.6,141.8c-1.7,4.1-5.6,11.4-12.4,15.5c-8.9,5.3-19.8,3-21.5,2.6c-4.4,0.1-10.1-0.5-15-3.3
					c-2.2-1.2-4-2.8-5.5-4.5c2,3,4.7,6.1,8.5,8.3c5,2.8,10.7,3.4,15,3.3c1.8,0.4,12.6,2.7,21.5-2.6c9.7-5.8,13.5-18.3,13.5-18.3
					S307.1,142.3,304.6,141.8z"/>
			</g>
		</g>
		<g class="st21">
			<path class="st15" d="M176.9,173.4c-2.1-0.3-51.8-7.5-51.8-21.6c0-14,49.3-21.4,51.4-21.8l0.1,0.9c-0.5,0.1-50.6,7.6-50.6,20.8
				c0,13.4,50.5,20.7,51,20.7L176.9,173.4z"/>
		</g>
		<g>
			<path class="st7" d="M342.6,224.2c0-0.1,0-0.1,0-0.2c0.1-1,1.3-1.6,2-1.1c2.6,1.7,5.3,0.8,6.7,0.1c0.6-0.3,1-1,0.9-1.6
				c-0.2-1.8-1.4-3.2-2.4-4.1c-0.6-0.5-0.4-1.6,0.4-2.1c0.1,0,0.1-0.1,0.2-0.1c0.7-0.5,1-1.6,0.4-2.1c-2.2-2.1-5.1-1.6-8.4-1.4
				c-2.1,0.1-3.1-1.5-2.9-2c0.9-2,6.8-2.3,8.8-0.6c4.5,3.8,10.8,3,12.3,1.8c0.5-0.4,0.8-1,0.8-1.6c-0.2-2.9-2.5-4.8-3.6-5.5
				c3.5,2.2,7.1-0.3,8.4-1.8c0.6-0.6,0.7-1.6,0.4-2c-1.7-2.3-5-1.3-5.5-1.2c2.8-0.7,8.6-5,8.1-8.7c-0.5-4.1-6.8,0.7-9.3,2.9
				c0,0,3.6-3.5,4.3-7.7c0.1-0.8-0.3-1.4-0.9-1.2c-1.5,0.4-5.3,2.6-7.6,7.5c0.8-1.9,2.2-5.9,1.5-8.4c-0.1-0.5-0.6-0.8-1.1-0.6
				c-1.6,0.6-6,3.1-8,10c-2.5,8.7-7.7,7.9-8.4,7c-0.2-0.2-1.1-1,0-1.8c3-2,5.7-3.7,7.1-7.3c0.3-0.8-0.2-1.5-0.9-1.4
				c-0.3,0-0.7,0.1-1.1,0.2c-0.5,0.1-0.8-0.3-0.6-0.8c0.7-1.6,1.7-4.3,1.2-6.5c-0.1-0.5-0.6-0.8-1.1-0.7c-1.5,0.4-4.7,1.8-6.5,5.9
				c-0.2,0.6-1,0.6-1.1,0.1c-0.1-0.4-0.3-0.9-0.5-1.3c-0.3-0.5-1-0.7-1.5-0.3c-1.5,1.1-4.4,3.8-4,8.5c0.5,6.4,1.2,7.7-3.3,9.9
				c-2.4,1.1-3.7,2-4.4,2.8c-16.5,2.5-33.5,1.2-49.8-4.2c-0.8-0.3-1.3,0.2-1.2,0.9c0.1,0.8,0.8,1.6,1.6,1.9
				c16.2,5.3,33.2,6.6,49.6,4.2c0.8,0.6,2.3,1.2,5.3,1.4c4.9,0.2,5.2,2.5,6.5,8.7c0.9,4.5,4.3,5.5,6,5.7
				C341.8,225.5,342.5,224.9,342.6,224.2z"/>
			<g class="st8">
				<path class="st9" d="M330.8,194.2c0.5,6.4,1.2,7.7-3.3,9.9c-2.4,1.1-3.6,2-4.3,2.7c6.4-2.2,13.8-3.6,21.7-3.9
					c6.1-0.2,12,0.3,17.4,1.5c1.8-0.5,3.3-1.6,4.1-2.5c0.6-0.6,0.7-1.6,0.4-2c-1.7-2.3-5-1.3-5.5-1.2c2.8-0.7,8.6-5,8.1-8.7
					c-0.5-4.1-6.8,0.7-9.3,2.9c0,0,3.6-3.5,4.3-7.7c0.1-0.8-0.3-1.4-0.9-1.2c-1.5,0.4-5.3,2.6-7.6,7.5c0.8-1.9,2.2-5.9,1.5-8.4
					c-0.1-0.5-0.6-0.8-1.1-0.6c-1.6,0.6-6,3.1-8,10c-2.5,8.7-7.7,7.9-8.4,7c-0.2-0.2-1.1-1,0-1.8c3-2,5.7-3.7,7.1-7.3
					c0.3-0.8-0.2-1.5-0.9-1.4c-0.3,0-0.7,0.1-1.1,0.2c-0.5,0.1-0.8-0.3-0.6-0.8c0.7-1.6,1.7-4.3,1.2-6.5c-0.1-0.5-0.6-0.8-1.1-0.7
					c-1.5,0.4-4.7,1.8-6.5,5.9c-0.2,0.6-1,0.6-1.1,0.1c-0.1-0.4-0.3-0.9-0.5-1.3c-0.3-0.5-1-0.7-1.5-0.3
					C333.3,186.9,330.4,189.5,330.8,194.2z"/>
				<path class="st9" d="M322.9,206.9c-16.4,2.4-33.4,1.1-49.6-4.2c-0.8-0.3-1.3,0.2-1.2,0.9c0.1,0.8,0.8,1.6,1.6,1.9
					c13.4,4.4,27.3,6,41,5.1C317.2,209.2,319.9,207.9,322.9,206.9z"/>
			</g>
		</g>
		<g>
			<g>
				<path class="st22" d="M209,257.3c0.6-0.1,1.2-0.6,1.5-1.1c0.6-0.9-0.8-1.9-1.4-1c-0.1,0.2-0.2,0.4-0.4,0.4
					C207.6,255.8,207.9,257.4,209,257.3L209,257.3z"/>
			</g>
			<path class="st23" d="M197,227.8c8.8-1.1,16.8,5.2,17.8,14c1.1,8.8-5.2,16.8-14,17.8c-8.8,1.1-16.8-5.2-17.8-14
				C182,236.9,188.2,228.9,197,227.8z"/>
			<path class="st24" d="M197,227.8c0.2,0,0.4,0,0.5-0.1c8.6-0.9,16.3,5.4,17.3,14c0.6,5.1-1.2,9.9-4.5,13.2
				c-2.4,2.5,4.7-8.2,1.3-16.7c-3.2-7.9-8.4-9.7-12-10.1C197.3,228,194.8,228.1,197,227.8z"/>
			<path class="st9" d="M196.1,245.1c-2.5-2.8-4.6-4.3-7.6-2c-3,2.3-2.2,6.1,0.3,8.9c2.5,2.8,5.6,3.6,8.6,1.3
				C200.4,251,198.6,247.9,196.1,245.1z"/>
			<path class="st24" d="M191.3,231.7c1.2-0.7,2.6-0.7,3,0.1c0.5,0.8-0.1,2-1.3,2.7c-1.2,0.7-2.6,0.7-3-0.1
				C189.5,233.7,190.1,232.5,191.3,231.7z"/>
			<g>
				<path class="st22" d="M193,232c-1-2.1-2.4-3.7-4.1-5.4c-1.1-1.1-2.7,0.6-1.6,1.7c1.5,1.5,2.7,2.9,3.7,4.9
					C191.6,234.5,193.7,233.3,193,232L193,232z"/>
			</g>
			<path class="st25" d="M191,243.8c-3.3-9.5-3.9-11.4-5.8-8.3c-1.8,3-2.6,6.5-2.2,10.2c1.1,8.8,9.1,15,17.8,14
				c2.3-0.3,4.4-1,6.3-2.2C210.2,255.7,198,263.9,191,243.8z"/>
		</g>
		<g>
			<g>
				<path class="st26" d="M434.2,68.5c1.5,1.5,1.4,4.1-0.2,5.7L340,166c-1.7,1.6-4.3,1.7-5.8,0.2l0,0c-1.5-1.5-1.4-4.1,0.2-5.7
					l93.9-91.8C430,67,432.6,66.9,434.2,68.5z"/>
				<path class="st11" d="M333.5,163.8c1.5,1.5,4.1,1.5,5.8-0.2l93.9-91.8c0.8-0.8,1.3-1.9,1.3-2.9c1.1,1.6,0.9,3.8-0.6,5.3L340,166
					c-1.7,1.6-4.3,1.7-5.8,0.2l0,0c-0.8-0.8-1.1-1.8-1.1-2.8C333.2,163.5,333.4,163.7,333.5,163.8z"/>
				<path class="st27" d="M446.5,68c1.8-1.5,4.1-1.5,5.1-0.2c1,1.4,0.4,3.6-1.4,5.1l-102.4,82.2c-1.8,1.5-4.1,1.5-5.1,0.2
					c-1-1.4-0.4-3.6,1.4-5.1L446.5,68z"/>
				<path class="st11" d="M347,153.2L449.4,71c1.2-0.9,1.9-2.2,1.9-3.4c0.1,0.1,0.2,0.2,0.2,0.3c1,1.4,0.4,3.6-1.4,5.1l-102.4,82.2
					c-1.8,1.5-4.1,1.5-5.1,0.2c-0.4-0.5-0.5-1.1-0.5-1.7C343.3,154.7,345.4,154.5,347,153.2z"/>
				<path class="st26" d="M401.7,75.2c1.6,1.1,2.2,3.1,1.3,4.5L352,157.2c-0.9,1.4-2.9,1.6-4.5,0.5l0,0c-1.6-1.1-2.2-3.1-1.3-4.5
					l50.9-77.6C398,74.3,400.1,74.1,401.7,75.2z"/>
				<path class="st11" d="M346.4,156c1.6,1.1,3.6,0.9,4.5-0.5l50.9-77.6c0.5-0.7,0.5-1.6,0.3-2.4c1.3,1.1,1.7,2.9,0.8,4.1L352,157.2
					c-0.9,1.4-2.9,1.6-4.5,0.5l0,0c-0.8-0.5-1.3-1.3-1.6-2.1C346.1,155.7,346.2,155.8,346.4,156z"/>
				<path class="st26" d="M425.6,101.7c1,1.7,0.6,3.7-0.8,4.6l-79,48.6c-1.4,0.9-3.3,0.2-4.3-1.5l0,0c-1-1.7-0.6-3.7,0.8-4.6
					l79-48.6C422.7,99.4,424.6,100,425.6,101.7z"/>
				<path class="st11" d="M341.2,151.3c1,1.7,2.9,2.3,4.3,1.5l79-48.6c0.7-0.4,1.1-1.2,1.3-2c0.7,1.6,0.3,3.3-1,4.1l-79,48.6
					c-1.4,0.9-3.3,0.2-4.3-1.5l0,0c-0.5-0.8-0.6-1.7-0.5-2.6C341.1,151,341.1,151.2,341.2,151.3z"/>
				<path class="st27" d="M395,65.7L395,65.7c1.6,0.8,2.3,2.7,1.6,4.2l-40.5,83.8c-0.7,1.5-2.6,2-4.2,1.2l0,0
					c-1.6-0.8-2.3-2.7-1.6-4.2l40.5-83.8C391.5,65.4,393.4,64.9,395,65.7z"/>
				<path class="st11" d="M354.2,152.4l40.5-83.8c0.5-1.1,0.3-2.3-0.4-3.2c0.2,0.1,0.5,0.2,0.7,0.3l0,0c1.6,0.8,2.3,2.7,1.6,4.2
					l-40.5,83.8c-0.7,1.5-2.6,2-4.2,1.2l0,0c-0.5-0.2-0.9-0.6-1.2-1C352.2,154.3,353.6,153.7,354.2,152.4z"/>
				<path class="st27" d="M412.1,74.7c1.1-1.3,2.8-1.5,3.9-0.5c1.1,1,1.1,2.7,0.1,4l-59.9,70.7c-1.1,1.3-2.8,1.5-3.9,0.5
					c-1.1-1-1.1-2.7-0.1-4L412.1,74.7z"/>
				<path class="st11" d="M355.3,147.4l59.9-70.7c0.7-0.8,0.9-1.8,0.7-2.7c0.1,0.1,0.2,0.1,0.2,0.2c1.1,1,1.1,2.7,0.1,4l-59.9,70.7
					c-1.1,1.3-2.8,1.5-3.9,0.5c-0.4-0.3-0.6-0.8-0.8-1.3C352.7,148.8,354.3,148.6,355.3,147.4z"/>
			</g>
			<path class="st28" d="M234.6,261.1c10.2,10.5,128.9-88.8,128.9-88.8c10.8-10.6,11.3-27.7,1.1-38.2c-10.2-10.5-27.3-10.4-38.2,0.2
				C326.5,134.4,224.4,250.6,234.6,261.1z"/>
			<path class="st18" d="M356.3,135.1c-2.3,1.8,4.7,3.1,5.7,16c0.8,10.4-6,17-3.5,18.5c2.3,1.6,9.5-6,8.8-17.8
				C366.4,140,358.3,133.2,356.3,135.1z"/>
			<path class="st12" d="M307.6,177.6l10.8,11.1c1.1,1.1,1.1,2.9,0,3.9l-0.5,0.5c-1.1,1.1-2.9,1.1-3.9,0L303.1,182
				c-1.1-1.1-1.1-2.9,0-3.9l0.5-0.5C304.7,176.5,306.5,176.5,307.6,177.6z"/>
			<g>
				<path class="st12" d="M336,172.9l0.5-0.5c1.1-1.1,2.9-1.1,3.9,0l10.2,10.5c-1.5,1.2-3.1,2.5-4.8,3.9l-9.8-10.1
					C334.9,175.7,334.9,174,336,172.9z"/>
				<path class="st12" d="M317.2,167.6c1.1,1.1,1.1,2.9,0,3.9l-0.5,0.5c-1.1,1.1-2.9,1.1-3.9,0l-9.9-10.1c1.4-1.6,2.7-3.2,4-4.8
					L317.2,167.6z"/>
				<path class="st12" d="M298.8,202.1l0.5-0.5c1.1-1.1,2.9-1.1,3.9,0l10.4,10.7c-1.6,1.3-3.3,2.5-5,3.8l-9.9-10.2
					C297.7,205,297.7,203.2,298.8,202.1z"/>
				<path class="st12" d="M284.9,208.6c1.1,1.1,1.1,2.9,0,3.9l-0.5,0.5c-1.1,1.1-2.9,1.1-3.9,0L270,202.3c1.3-1.6,2.6-3.3,3.8-4.9
					c0.1,0.1,0.2,0.1,0.2,0.2L284.9,208.6z"/>
				<path class="st12" d="M270.4,221.9l0.5-0.5c1.1-1.1,2.9-1.1,3.9,0l10.8,11.1c0.2,0.2,0.3,0.5,0.4,0.7c-1.7,1.2-3.3,2.4-5,3.6
					l-10.7-11C269.2,224.7,269.2,223,270.4,221.9z"/>
				<path class="st12" d="M264.9,237.1c1.1,1.1,1.1,2.9,0,3.9l-0.5,0.5c-1.1,1.1-2.9,1.1-3.9,0l-10.8-11.1c-0.1-0.1-0.2-0.3-0.3-0.4
					c1.1-1.5,2.1-3.1,3.3-4.6c0.5,0.1,1,0.3,1.5,0.7L264.9,237.1z"/>
				<path class="st12" d="M242.8,245l0.5-0.5c1.1-1.1,2.9-1.1,3.9,0l8.8,9c-1.9,1.2-3.8,2.3-5.6,3.2l-7.7-7.8
					C241.7,247.8,241.7,246.1,242.8,245z"/>
			</g>
			<path class="st12" d="M330.5,143.9l10.8,11.1c1.1,1.1,1.1,2.9,0,3.9l-0.5,0.5c-1.1,1.1-2.9,1.1-3.9,0L326,148.2
				c-1.1-1.1-1.1-2.9,0-3.9l0.5-0.5C327.7,142.8,329.4,142.8,330.5,143.9z"/>
		</g>
		<g>
			<path class="st27" d="M181.4,210.6c0.5,5.1-3.3,9.7-8.4,10.2c-5.1,0.5-9.7-3.3-10.2-8.4c-0.5-5.1,3.3-9.7,8.4-10.2
				C176.3,201.7,180.9,205.4,181.4,210.6z"/>
			<path class="st12" d="M181.4,210.6c0,0.1,0,0.2,0,0.3c0.4,5-3.4,9.4-8.4,9.9c-3,0.3-5.7-0.8-7.6-2.8c-1.4-1.5,4.7,2.9,9.7,1
				c4.7-1.8,5.8-4.8,6.1-6.8C181.3,210.7,181.2,209.3,181.4,210.6z"/>
			<path class="st29" d="M171.3,209.8c1.7-1.4,2.6-2.6,1.3-4.4c-1.3-1.8-3.5-1.4-5.2,0c-1.7,1.4-2.2,3.2-0.9,5
				C167.8,212.2,169.7,211.2,171.3,209.8z"/>
			<path class="st25" d="M172.2,206.8c5.6-1.8,6.7-2.1,4.9-3.2c-1.7-1.1-3.7-1.6-5.9-1.4c-5.1,0.5-8.9,5.1-8.4,10.2
				c0.1,1.4,0.5,2.6,1.2,3.7C164.9,217.8,160.3,210.6,172.2,206.8z"/>
		</g>
		<path class="st30" d="M280.3,280.3c-16.4,2-33.1,2-49.5,0c-3.8-0.5-7.4,2.1-8,5.9c-0.4,2.8-0.9,5.5-1.3,8.3
			c-0.6,3.8,2.3,7.4,6.6,8c18.3,2.2,36.7,2.2,55,0c4.3-0.5,7.2-4.2,6.6-8c-0.4-2.8-0.9-5.5-1.3-8.3
			C287.7,282.4,284.1,279.8,280.3,280.3z"/>
		<path class="st31" d="M221.8,295.1c0.4-2.8,0.9-5.5,1.3-8.3c0.6-3.8,4.2-6.4,8-5.9c16.4,2,33.1,2,49.5,0c2.7-0.3,5.2,0.8,6.7,2.9
			c-1.4-2.4-4.2-3.8-7.1-3.5c-16.4,2-33.1,2-49.5,0c-3.8-0.5-7.4,2.1-8,5.9c-0.4,2.8-0.9,5.5-1.3,8.3c-0.3,1.8,0.2,3.5,1.2,4.9
			C221.9,298.2,221.6,296.6,221.8,295.1z"/>
		<path class="st31" d="M289.6,294.5c-0.4-2.8-0.9-5.5-1.3-8.3c-0.3-2-1.5-3.7-3.1-4.7c1.2,1,2,2.5,2.3,4.2c0.4,2.8,0.9,5.5,1.3,8.3
			c0.6,3.8-2.3,7.4-6.6,8c-18.3,2.2-36.7,2.2-55,0c-1.3-0.2-2.5-0.6-3.5-1.3c1.1,1,2.6,1.6,4.2,1.8c18.3,2.2,36.7,2.2,55,0
			C287.3,302,290.2,298.3,289.6,294.5z"/>
		<path class="st3" d="M255.1,178.7c-91.2-0.5-128.3-21.8-128.3-21c0,27.8,13.3,53.8,29.1,74.7c21.3,28.1,37,38.7,99.6,38.7
			c60.2,0,78.3-10.6,99.6-38.7c15.9-20.9,29.1-46.9,29.1-74.7C384.2,156.9,346.3,178.2,255.1,178.7z"/>
		<path class="st4" d="M382.4,155.5c-3.9,3.7-13.6,8.6-33.8,12.9c-24.8,5.3-57.9,8.2-93.1,8.2s-68.2-2.9-93.1-8.2
			c-20.3-4.3-30-9.3-33.8-12.9h-5.2c6,14.5,62.8,25.9,132.1,25.9s126.2-11.4,132.1-25.9H382.4z"/>
		<path class="st5" d="M382.4,155.5c-3.9,3.7-13.6,8.6-33.8,12.9c-24.8,5.3-57.9,8.2-93.1,8.2s-68.2-2.9-93.1-8.2
			c-20.3-4.3-30-9.3-33.8-12.9H124c8.5,13.9,64.1,24.7,131.5,24.7s123.1-10.8,131.5-24.7H382.4z"/>
		<g>
			<path class="st32" d="M215.9,286.5c0,3.3-2.9,5.9-6.5,5.9s-6.5-2.6-6.5-5.9c0-3.3,2.9-5.9,6.5-5.9S215.9,283.3,215.9,286.5z"/>
			<path class="st33" d="M215.6,286c0,3.3-2.9,5.9-6.5,5.9c-3.6,0-6.5-2.6-6.5-5.9c0-3.3,2.9-5.9,6.5-5.9
				C212.7,280.1,215.6,282.8,215.6,286z"/>
			<path class="st32" d="M214.5,282.7c0.5,0.8,0.8,1.8,0.8,2.8c0,3.3-2.9,5.9-6.5,5.9c-2.2,0-4.2-1-5.3-2.6c1.1,1.9,3.3,3.1,5.7,3.1
				c3.6,0,6.5-2.6,6.5-5.9C215.6,284.8,215.2,283.6,214.5,282.7z"/>
			<path class="st34" d="M205,287.6c0-3.3,2.9-5.9,6.5-5.9c0.9,0,1.8,0.2,2.5,0.5c-1.2-1.3-2.9-2-4.9-2c-3.6,0-6.5,2.6-6.5,5.9
				c0,2.4,1.6,4.5,3.9,5.4C205.6,290.4,205,289.1,205,287.6z"/>
			<path class="st34" d="M208.6,285c-1,1-2.4,1.4-3,0.8s-0.3-2,0.8-3c1-1,2.4-1.4,3-0.8S209.6,284,208.6,285z"/>
		</g>
		<g>
			<path class="st32" d="M309,285.5c0,3.3-2.9,5.9-6.5,5.9s-6.5-2.6-6.5-5.9c0-3.3,2.9-5.9,6.5-5.9S309,282.3,309,285.5z"/>
			<ellipse class="st33" cx="302.2" cy="285" rx="6.5" ry="5.9"/>
			<path class="st32" d="M307.6,281.7c0.5,0.8,0.8,1.8,0.8,2.8c0,3.3-2.9,5.9-6.5,5.9c-2.2,0-4.2-1-5.3-2.6c1.1,1.9,3.3,3.1,5.7,3.1
				c3.6,0,6.5-2.6,6.5-5.9C308.7,283.8,308.3,282.6,307.6,281.7z"/>
			<path class="st34" d="M298.1,286.6c0-3.3,2.9-5.9,6.5-5.9c0.9,0,1.8,0.2,2.5,0.5c-1.2-1.3-2.9-2-4.9-2c-3.6,0-6.5,2.6-6.5,5.9
				c0,2.4,1.6,4.5,3.9,5.4C298.7,289.4,298.1,288.1,298.1,286.6z"/>
			<path class="st34" d="M301.7,284c-1,1-2.4,1.4-3,0.8s-0.3-2,0.8-3c1-1,2.4-1.4,3-0.8S302.7,283,301.7,284z"/>
		</g>
		<path class="st34" d="M242.7,178.5c-82.2-2.3-115.9-21.6-115.9-20.8c0,27.8,13.3,53.8,29.1,74.7c9.9,13.1,29.8,28,28.9,27.7
			c-4.3,3.1-8.3,6.5-11.9,10.2c-5.7,5.8-15.2,11.4-15.2,18.9c0,2.6,4.6,8.5,16.9,14.1c3.4-14.6,26.8-38.3,26-38.5
			c-1.2-5.2-1.8-10.5-1.8-15.9C198.8,220.4,216,195,242.7,178.5z"/>
		<g class="st35">
			<path class="st17" d="M244.8,298.8v-1.7l2.7-4.2c0-0.1,0.1-0.2,0.3-0.4c0.1-0.2,0.2-0.3,0.3-0.4c0.1-0.1,0.1-0.2,0.2-0.4
				c0.1-0.2,0.2-0.3,0.2-0.5c0.1-0.1,0.1-0.3,0.1-0.5c0-0.2,0.1-0.3,0.1-0.5c0-0.4-0.1-0.6-0.2-0.8c-0.1-0.1-0.3-0.2-0.5-0.2
				c-0.1,0-0.1,0-0.2,0c-0.3,0-0.5,0.2-0.6,0.4c-0.1,0.3-0.2,0.6-0.2,1.1v0.6h-2.3v-0.6c0-0.5,0.1-1,0.2-1.4
				c0.1-0.4,0.3-0.8,0.6-1.1c0.2-0.3,0.6-0.6,1-0.8c0.4-0.2,0.9-0.3,1.5-0.3c1,0,1.8,0.3,2.3,0.8s0.8,1.3,0.8,2.2c0,0.1,0,0.3,0,0.4
				c0,0.1,0,0.3-0.1,0.4c0,0.1-0.1,0.3-0.1,0.4c-0.1,0.1-0.1,0.3-0.1,0.4c0,0.1-0.1,0.2-0.2,0.4c-0.1,0.2-0.1,0.3-0.2,0.3
				c0,0.1-0.1,0.2-0.2,0.3c-0.1,0.2-0.2,0.3-0.2,0.3c0,0-0.1,0.2-0.2,0.3c-0.1,0.2-0.2,0.3-0.2,0.3l-2.1,3.1h3.3v1.9H244.8z"/>
			<path class="st17" d="M255.3,299c-1,0-1.8-0.3-2.3-0.9c-0.5-0.6-0.8-1.4-0.8-2.4v-5.2c0-1,0.3-1.9,0.8-2.5
				c0.5-0.6,1.3-0.9,2.3-0.9c1,0,1.8,0.3,2.3,0.9c0.5,0.6,0.8,1.4,0.8,2.5v5.2c0,1-0.3,1.8-0.8,2.4S256.3,299,255.3,299z
				 M255.3,296.9c0.5,0,0.7-0.4,0.7-1.2v-5.1c0-0.1,0-0.2,0-0.3c0-0.1,0-0.2,0-0.3c0-0.1,0-0.2-0.1-0.3c0-0.1-0.1-0.2-0.1-0.2
				c0-0.1-0.1-0.1-0.2-0.2c-0.1,0-0.2-0.1-0.3-0.1c-0.1,0-0.2,0-0.2,0c-0.1,0-0.1,0.1-0.2,0.1c0,0.1-0.1,0.1-0.1,0.1
				c0,0-0.1,0.1-0.1,0.2c0,0.1,0,0.2,0,0.2c0,0,0,0.1,0,0.2c0,0.1,0,0.2,0,0.2s0,0.1,0,0.2v5.1C254.6,296.5,254.8,296.9,255.3,296.9
				z"/>
			<path class="st17" d="M262.9,299c-1,0-1.8-0.3-2.3-0.9s-0.8-1.4-0.8-2.4v-5.2c0-1,0.3-1.9,0.8-2.5c0.5-0.6,1.3-0.9,2.3-0.9
				c1,0,1.8,0.3,2.3,0.9c0.5,0.6,0.8,1.4,0.8,2.5v5.2c0,1-0.3,1.8-0.8,2.4C264.6,298.7,263.9,299,262.9,299z M262.9,296.9
				c0.5,0,0.7-0.4,0.7-1.2v-5.1c0-0.1,0-0.2,0-0.3c0-0.1,0-0.2,0-0.3c0-0.1,0-0.2-0.1-0.3c0-0.1-0.1-0.2-0.1-0.2
				c0-0.1-0.1-0.1-0.2-0.2c-0.1,0-0.2-0.1-0.3-0.1c-0.1,0-0.2,0-0.2,0c-0.1,0-0.1,0.1-0.2,0.1c0,0.1-0.1,0.1-0.1,0.1
				c0,0-0.1,0.1-0.1,0.2c0,0.1,0,0.2,0,0.2c0,0,0,0.1,0,0.2c0,0.1,0,0.2,0,0.2s0,0.1,0,0.2v5.1C262.2,296.5,262.4,296.9,262.9,296.9
				z"/>
		</g>
	</g>
	<g>
		<path class="st32" d="M500,331.9l-13-6.2l0,0l7-16.8l-27.8,6.9l-1.7,3.5l-10.4-6.4c-23.8-23.5-34.2-26.2-50-33.5
			c-9.7-4.5-15.5-5.8-18.1-1.5c-2,3.4-1.1,5.5,2.6,9.1c0,0-9.9-5.8-14.8,1.1c-2.5,3.6-0.7,7,3.9,10.7c-6-2.9-11.7-2.9-14.1,1.2
			c-2.5,4.2,0.7,9.1,6.6,12.7c0,0-41.1-18.3-50.3-22.7c-5.7-2.7-8.6-4.1-10.8-2.9c-1.8-0.1-3.5,0.7-4.1,2.2
			c-0.2,0.4-0.3,0.8-0.3,1.1c0,0,0,0,0,0.1c0,0.2,0,0.5,0,0.7c0,0,0,0.1,0,0.1c0,0.2,0.1,0.5,0.2,0.7c0,0,0,0.1,0,0.1
			c0.1,0.2,0.2,0.5,0.3,0.7c0,0,0,0.1,0.1,0.1c0.1,0.2,0.3,0.4,0.5,0.6c0,0,0.1,0.1,0.1,0.1c0.1,0.2,0.3,0.3,0.4,0.5
			c1,1.8,3.6,3.6,8.4,6.1c10.9,5.9,33.1,17.1,51.5,26.2c16.1,8,16,14.8,16,14.8c-8.5,3.5-19.2,2.3-29,4.9c-4.4,1.2-10,5.1-9.7,9.7
			c-0.1,0.1-0.2,0.3-0.3,0.5c0,0.1-0.1,0.2-0.1,0.2c-1.2,2.8,5.1,2,9,2.1c1.5,0,2.8-0.1,4.3-0.2c0.7,0,1.2-0.1,1.5-0.1
			c2.2-0.2,4.4-0.3,6.6-0.5l0.2,0v0c0.7,0,1.4-0.1,2.1-0.1l0,0l0,0c8.9-0.5,16.7-0.6,22.8,0.4c16.3,2.8,24.9-1.4,46.4-5.5l10.8,4.2
			l-1.4,2.8l-1.6,3.5l18.9,9l1.6-3.5l1.8,0.9l0,0l33.9,17V331.9z"/>
		<path class="st36" d="M469.6,363.6l16-33l-32.5-20.1c-23.8-23.5-34.2-26.2-50-33.5c-9.7-4.5-15.5-5.8-18.1-1.5
			c-2,3.4-1.1,5.5,2.6,9.1c0,0-9.9-5.8-14.8,1.1c-2.5,3.6-0.7,7,3.9,10.7c-6-2.9-11.7-2.9-14.1,1.2c-2.5,4.2,0.7,9.1,6.6,12.7
			c0,0-41.1-18.3-50.3-22.7c-7.7-3.7-10.3-5-12.9-0.6c-2.6,4.3-0.7,6.3,7.7,10.8c10.9,5.9,33.1,17.1,51.5,26.2
			c16.1,8,16,14.7,16,14.7c-8.5,3.5-19.2,2.3-29,4.9c-4.7,1.3-11,5.8-9.5,10.9c0.5,1.8,12.6,1.4,14.2,1.3c12.5-1,23.7-1.6,31.7-0.2
			c16.3,2.8,24.9-1.4,46.4-5.5L469.6,363.6z"/>
		<path class="st19" d="M314.1,286.9c2.7,1.2,4.2,3.7,3.1,5.9c-1,2.1-3.9,2.8-6.6,1.6l-3.3-1.5c-2.7-1.2-4.1-3.9-3.2-6l0,0
			c1-2.1,3.9-2.8,6.6-1.6L314.1,286.9z"/>
		<path class="st32" d="M315.9,288.1c1.1,1.3,1.5,2.8,0.8,4.3c-1,2.1-3.9,2.8-6.6,1.6l-3.3-1.5c-0.6-0.3-1.2-0.6-1.6-1.1
			c0.6,0.6,1.3,1.2,2.1,1.6l3.3,1.5c2.7,1.2,5.6,0.5,6.6-1.6C318,291.2,317.4,289.4,315.9,288.1z"/>
		<path class="st19" d="M355.7,354.1c-0.5-3.4-7.6-3.1-7.6-3.1c-2.9,0.3-4.9,1-5.9,2.8c-1.6,3.1,4.9,2.2,8.9,2.3
			c1.7,0,3-0.1,4.6-0.2C355.9,355.2,355.8,354.8,355.7,354.1z"/>
		<g class="st37">
			<path class="st17" d="M346.4,356.2c1.2,0,2.5,0,3.7-0.1C349,356.1,347.6,356.2,346.4,356.2z"/>
			<path class="st17" d="M355.7,354.1c-0.5-3.4-7.3-3.2-7.6-3.1c1.8,0,6.4,0.4,6.8,3.1c0.1,0.6,0.2,1.1,0,1.8
				c-1.4,0.1-2.6,0.2-4,0.2c0,0,0.1,0,0.1,0c1.7,0,3-0.1,4.6-0.2C355.9,355.2,355.8,354.8,355.7,354.1z"/>
		</g>
		<path class="st38" d="M396.5,351.9c0.2-1.5-1.7-2.9-4.3-3.2c-2.5-0.3-4.7,0.7-4.9,2.2c-0.2,1.5,1.7,2.9,4.3,3.2
			C394.1,354.4,396.3,353.4,396.5,351.9z"/>
		<g class="st21">
			<path class="st39" d="M363.5,353.3c-0.2,0.5,0.1,2.1,0.1,2.1l-1,0.1c0,0-0.3-1.8,0-2.5L363.5,353.3z"/>
		</g>
		<g class="st21">
			<path class="st39" d="M366.9,353.4c-0.3,0.5-0.2,1.7-0.2,1.7l-1,0.1c0,0-0.1-1.5,0.3-2.3L366.9,353.4z"/>
		</g>
		<path class="st38" d="M367.4,317.5c0.9-1.7-0.3-4-2.6-5.2c-2.3-1.1-4.8-0.6-5.7,1.1c-0.9,1.7,0.3,4,2.6,5.2
			C364,319.7,366.6,319.2,367.4,317.5z"/>
		<path class="st38" d="M374.2,303.5c0.9-1.7-0.3-4-2.6-5.2c-2.3-1.1-4.8-0.6-5.7,1.1c-0.9,1.7,0.3,4,2.6,5.2
			C370.8,305.7,373.3,305.2,374.2,303.5z"/>
		<path class="st38" d="M383,290.7c0.8-1.7-0.3-3.9-2.5-5c-2.2-1.1-4.7-0.6-5.5,1c-0.8,1.7,0.3,3.9,2.5,5
			C379.7,292.9,382.2,292.4,383,290.7z"/>
		<path class="st38" d="M394.7,280.3c0.8-1.5-0.3-3.6-2.3-4.6c-2-1-4.3-0.6-5.1,1c-0.8,1.5,0.3,3.6,2.3,4.6
			C391.6,282.2,393.9,281.8,394.7,280.3z"/>
		<g class="st21">
			<path class="st39" d="M336.5,299.5c-0.9,0.5-1.5,2.4-1.8,3.7c-0.1,0.3-0.2,0.6-0.3,0.9l-0.9-0.3c0.1-0.2,0.2-0.5,0.3-0.9
				c0.4-1.5,1-3.5,2.3-4.2L336.5,299.5z"/>
		</g>
		<g class="st21">
			<path class="st39" d="M338.4,301.9c-0.7,0.4-1.3,1.1-1.1,1.9c0,0,0,0,0,0l-0.9,0.2c0,0,0,0,0,0c-0.3-1.2,0.3-2.4,1.6-3
				L338.4,301.9z"/>
		</g>
		<path class="st40" d="M313.9,289.5c0.3,0.1,0.6,0,0.7-0.3l0,0c0.1-0.3,0-0.6-0.3-0.7l-5.1-2.3c-0.3-0.1-0.6,0-0.7,0.3
			c0,0-0.2,0.5,0.3,0.7L313.9,289.5z"/>
		<path class="st40" d="M350.8,355.8c0.2,0,0.3-0.2,0.3-0.4l0,0c0-0.2-0.2-0.3-0.4-0.3l-3.7,0.1c-0.2,0-0.3,0.2-0.3,0.4
			c0,0,0,0.4,0.4,0.3L350.8,355.8z"/>
		<polygon class="st41" points="500,330 465.2,313.4 444.4,357.2 500,384.5 		"/>
		<polygon class="st32" points="467,367.5 487.7,324.5 484.2,322.9 463.5,365.9 		"/>
		<polygon class="st42" points="463.2,370.3 492.9,308.1 467.1,309.5 442.7,360.6 		"/>
	</g>
	<g>
		<path class="st12" d="M202.1,62.1c-0.4-2.5-2.9-7.9-10-19.3c-7.1-11.4-11.1-10.8-21-16.4c-11.2-6.3-18.3-4.9-24-6.5
			c-7.2-2.1-11.1-1-15.9,5.1c-8.4,10.7-12.2,14.5-20.4,21.9c-7,6.4-12.7,6.5-12.7,6.5l-13.9-0.8L84,36.9L56.1,22.3L56.4,38l-3.1,0
			L0,38v61.1l57.5,0.1l0.1,6.9l27.6-0.5l-0.3-16.2l15.2-0.4c0,0,5.5,0.1,19.8,3.6c15.8,3.9,32.7-9.3,41.3-14.1
			c7.3-4.1,11.7-5,15.1-7.1C182,68,189.6,64,189.9,60c4.3,3.9,8.5,4.9,9.5,4.7c1.1-0.3,2.4-0.2,2.8-1.4
			C202.3,63.1,202.3,62.7,202.1,62.1z M166.7,60c-5.8,4.2-13.4,5.4-18.9,5.4c0.4-5.3,2.5-12.6,8-25.6c3-0.3,6.8,0.7,11.4,0.1
			c1.9-0.2,14.9,7.6,15.7,9.7c0.9,2.3,1.9,4.2,3.1,5.9C181.9,53.9,174.9,54.1,166.7,60z"/>
		<path class="st39" d="M134.9,46c-5.9,18.6-10.2,28.3,3.4,32.6c13.6,4.3,12.7,0.2,11.3-4.6c-2.3-8.3-3.3-13.4,7.8-39.1
			C160.4,28,140,29.8,134.9,46z"/>
		<path class="st36" d="M199.7,62.9c2.9-0.7,7,0.9-7.2-21.9c-7.1-11.4-11.1-10.8-21-16.4c-11.2-6.3-18.3-4.9-24-6.5
			c-7.2-2.1-11.1-1-15.9,5.1c-8.4,10.7-12.2,14.5-20.4,21.9c-7,6.4-12.7,6.5-12.7,6.5l-50.5-3.1l3.8,40l48.6-1.4
			c0,0,5.5,0.1,19.8,3.6c15,3.7,26.6-15.1,34.8-19.7c7-3.9-10.3-3.9-13.1-9.8c-1.9-3.9,2.3-8.7,9-19.9c3.3-5.6,8.6-2.2,16.6-3.2
			c1.9-0.2,14.9,7.6,15.7,9.7C188.3,60.5,198.2,63.2,199.7,62.9z"/>
		<path class="st42" d="M202.3,61.6c-0.9,0.1-2.1-0.7-2.8-2.2c-0.5-1.2-2.2-3.8-1.8-5c0.2-0.5,1.9-1.1,1.9-1.1
			S203.7,61.5,202.3,61.6z"/>
		<path class="st43" d="M200.1,59.5c-0.5-1.2-2.2-3.8-1.8-5c0.1-0.4,1-0.7,1.5-0.9c-0.1-0.2-0.1-0.3-0.1-0.3s-1.7,0.6-1.9,1.1
			c-0.5,1.2,1.3,3.8,1.8,5c0.5,1.3,1.6,2.1,2.4,2.2C201.3,61.3,200.5,60.6,200.1,59.5z"/>
		<path class="st40" d="M199.9,54.2c-0.1-0.2-0.4-0.3-0.6-0.2l0,0c-0.2,0.1-0.3,0.4-0.2,0.6l1.9,4.3c0.1,0.2,0.4,0.3,0.6,0.2
			c0,0,0.4-0.2,0.2-0.6L199.9,54.2z"/>
		<g class="st21">
			<path class="st39" d="M193.4,44.1c-0.5,0.4-0.9,0.9-1.5,1.1c-0.9,0.3-0.5,1.7,0.4,1.4c0.7-0.2,1.3-0.7,1.8-1.2
				c0.3-0.2,0.5-0.6,0.2-1C194.2,44.1,193.7,43.9,193.4,44.1L193.4,44.1z"/>
		</g>
		<g class="st21">
			<path class="st39" d="M184.2,33c-0.1,0.4-0.7,1-1.1,1.1c-0.9,0.2-0.5,1.6,0.4,1.4c1-0.3,2-1.4,2.1-2.4c0-0.4-0.4-0.7-0.7-0.7
				C184.5,32.3,184.3,32.7,184.2,33L184.2,33z"/>
		</g>
		<g class="st21">
			<path class="st39" d="M182.5,31.6c-0.2,0.6-0.6,1.1-1.1,1.4c-0.8,0.5-0.1,1.7,0.7,1.2c0.9-0.5,1.5-1.3,1.8-2.3
				C184.1,31.1,182.7,30.7,182.5,31.6L182.5,31.6z"/>
		</g>
		<g>
			<g class="st37">
				<path class="st44" d="M120.9,1.4l0.5-0.6l0.5,0.4c3.5-1.9,7.3-0.9,10,0.1c9,3.4,15.5,10,21.7,16.4c4.2,4.3,8.3,8.8,12.2,13.1
					c5.7,6.3,11.6,12.7,17.8,18.6c6,5.7,14.4,13,25.8,22.4c1.4-0.2,2.8,0.1,3.9,1.1c1.2,1,1.8,2.5,1.8,3.9c1.5,0.8,3.2,1,5,0.7
					c6.5-1,12.8,1,19.1,6.1c7.1,5.8,13.7,12.2,20.1,18.4c3.4,3.3,6.9,6.7,10.5,10c1.1,1,4.4,4.1,1.7,7.5c0,0,0,0,0,0
					c-1.1,1.3-2.2,1.7-3,1.8c0.1,1.2-0.2,2.3-1.1,3.4c-1,1.2-2.2,1.7-3.2,1.8c0.1,1.1-0.2,2.2-1.2,3.4c-1,1.1-2,1.7-3.2,1.7
					c0,0.8-0.1,2-1.2,3.2c-3,3.4-6.5,0.6-7.7-0.3c-3.8-3-7.8-5.9-11.6-8.7c-7.2-5.3-14.6-10.8-21.4-16.9c-6.1-5.4-9.1-11.3-9.1-17.9
					c0-1.9-0.5-3.5-1.5-4.8c-1.4,0.3-2.9-0.1-4-1.1c-1.2-1-1.8-2.4-1.8-3.8c-11.1-9.7-19.8-16.9-26.3-21.9
					c-6.8-5.2-14.2-10-21.3-14.6c-4.9-3.2-9.9-6.5-14.8-9.9c-7.4-5.2-14.9-10.4-19.8-18.8c-1.4-2.4-3-5.9-1.8-9.7l-0.5-0.4l0.6-0.8
					l-0.1-0.1c0,0,1.6-1.9,1.6-1.9l1.7-2.1L120.9,1.4z"/>
				<path class="st45" d="M119.3,3.4c0,0,1.7-2,1.7-2c0,0,0.1,0.1,0.1,0.1c0,0,0.5-0.6,0.5-0.6c0,0,0.4,0.3,0.5,0.3
					c1.4-0.7,2.9-1,4.3-1c2.1,0,4,0.6,5.7,1.2c6.8,2.6,12.1,7.1,17,11.8c1.6,1.5,3.1,3.1,4.6,4.6c2.8,2.8,5.5,5.7,8.1,8.6
					c1.4,1.5,2.7,3,4.1,4.4c4.7,5.1,9.4,10.3,14.4,15.3c1.1,1.1,2.2,2.2,3.4,3.3C189.4,55,197.5,62,208.2,71
					c0.2,0.2,0.5,0.4,0.8,0.7c0.1,0.1,0.3,0.2,0.4,0.3c0.2,0,0.4-0.1,0.5-0.1c0.4,0,0.9,0,1.3,0.1c0.5,0.1,1,0.3,1.4,0.6
					c0.2,0.1,0.4,0.3,0.6,0.5c0.1,0.1,0.2,0.2,0.3,0.3c0.3,0.3,0.6,0.7,0.8,1c0.4,0.8,0.7,1.6,0.7,2.4c1.5,0.8,3.2,1,5,0.7
					c0.9-0.1,1.7-0.2,2.6-0.2c5.6-0.2,11,1.9,16.5,6.3c2.4,2,4.8,4,7.1,6.1c1.3,1.1,2.5,2.3,3.8,3.4c0.3,0.3,0.5,0.4,0.7,0.6
					c0,0,0,0,0,0c0,0,0.1,0.1,0.1,0.1c0.1,0.1,0.2,0.2,0.4,0.4c0,0,0.1,0.1,0.1,0.1c0.8,0.7,1.5,1.5,2.3,2.2
					c1.2,1.2,2.7,2.5,4.2,4.2c0.1,0.1,0.2,0.2,0.3,0.3c0.1,0.1,0.2,0.3,0.4,0.5c0.4,0.5,0.9,0.9,1.4,1.4c0.8,0.8,1.7,1.6,2.5,2.4
					c0.2,0.2,0.5,0.5,0.7,0.7c1.4,1.3,2.7,2.6,4.1,3.9c0.4,0.3,0.6,0.6,0.9,0.9l0,0c0.2,0.3,0.4,0.5,0.6,0.6c0,0,0,0,0.1,0.1
					c0.2,0.2,0.4,0.4,0.7,0.6c0.3,0.3,0.9,0.8,1.3,1.5c0.7,1.1,1.4,3.1-0.7,4.8c0,0,0,0,0,0c-0.4,0.3-0.8,0.6-1.2,0.9
					c-0.1,0.1-0.3,0.2-0.4,0.2c0,0-0.1,0.1-0.1,0.1c-0.1,0.1-0.3,0.2-0.4,0.2c-0.4,0.2-0.7,0.3-0.9,0.4c0.2,1.2,0,2.4-0.7,3.6
					c-0.6,0.9-1.2,1.5-1.9,1.8c-0.3,0.1-0.5,0.2-0.8,0.2c0.2,0.8,0.2,1.7-0.2,2.6c0,0,0,0.1,0,0.1c-0.1,0.3-0.3,0.6-0.5,0.9
					c-0.4,0.4-0.8,0.7-1.2,0.9c-0.7,0.3-1.4,0.5-2.2,0.5c-0.1,0.7-0.3,1.7-1.4,2.8c-0.2,0.2-0.4,0.3-0.6,0.5c-0.3,0.3-0.7,0.4-1,0.5
					c-1.5,0.6-3,0.2-4.2-0.4c-1-0.5-1.8-1.1-2.3-1.4c-0.2-0.1-0.3-0.2-0.5-0.3c-0.2-0.1-0.3-0.2-0.5-0.3c-2.5-1.7-4.6-3.4-6.5-4.8
					c-0.8-0.6-1.7-1.2-2.5-1.9c-0.3-0.2-0.5-0.4-0.8-0.6c-0.1,0-0.1-0.1-0.2-0.1c-0.2-0.1-0.3-0.2-0.5-0.4c-0.1,0-0.1-0.1-0.2-0.1
					c-0.3-0.2-0.6-0.4-0.9-0.6c-1.7-1.2-3.4-2.5-5-3.8c-3.1-2.3-6.2-4.7-9.2-7.2c-2-1.6-3.8-3.4-5.5-5.1c-3-3-5.4-6-7-9.1
					c-0.2-0.4-0.4-0.9-0.6-1.3c-0.2-0.4-0.4-0.8-0.5-1.2c-0.2-0.5-0.3-1-0.5-1.5c-0.1-0.5-0.2-1-0.3-1.5c-0.1-0.4-0.1-0.8-0.1-1.1
					c-0.1-0.6-0.1-1.2-0.1-1.8c-0.1-1.8-0.6-3.4-1.6-4.7c-1.4,0.2-2.8-0.2-4-1.1c-1.2-1-1.8-2.3-1.8-3.7
					c-8.4-7.4-15.4-13.2-21.2-17.8c-1.8-1.4-3.4-2.7-5-3.9c-6.3-4.8-13-9.2-19.5-13.4c-0.5-0.3-1.1-0.7-1.6-1
					c-4.9-3.2-9.9-6.4-14.7-9.8c-0.2-0.1-0.4-0.3-0.6-0.4c-7.1-5-14.4-10.2-19.1-18.2c-0.5-0.8-1-1.8-1.4-2.8
					c-0.8-2-1.2-4.4-0.4-6.8c0,0-0.4-0.4-0.4-0.4c0,0,0.6-0.7,0.6-0.8c0,0-0.1-0.1-0.1-0.1c0,0,0.2-0.3,0.5-0.7c0,0,0,0,0.1-0.1
					C118.7,4.1,119.3,3.5,119.3,3.4z"/>
				<path class="st46" d="M119.4,3.5c0.1-0.1,1.7-2,1.7-2c0,0,0.1,0.1,0.1,0.1c0,0,0.5-0.6,0.5-0.6c0,0,0.4,0.3,0.5,0.3
					c1.4-0.7,2.9-1,4.3-0.9c2.1,0.1,4,0.7,5.6,1.3c6.7,2.7,12,7.1,16.9,11.9c1.6,1.5,3.1,3.1,4.6,4.6c2.8,2.8,5.5,5.7,8.1,8.6
					c1.4,1.5,2.7,3,4,4.4c4.7,5.1,9.4,10.3,14.4,15.3c1.1,1.1,2.2,2.2,3.4,3.3c5.8,5.5,13.9,12.5,24.6,21.4c0.2,0.2,0.5,0.5,0.8,0.7
					c0.1,0.1,0.3,0.2,0.4,0.3c0.2,0,0.4-0.1,0.5-0.1c0.4,0,0.9,0,1.3,0.1c0.5,0.1,0.9,0.4,1.3,0.6c0.2,0.1,0.4,0.3,0.6,0.5
					c0.1,0.1,0.2,0.2,0.3,0.3c0.3,0.3,0.6,0.7,0.8,1c0.5,0.7,0.7,1.6,0.8,2.4c1.5,0.8,3.2,1,5,0.7c0.9-0.1,1.7-0.2,2.6-0.2
					c5.6-0.2,11,1.8,16.5,6.3c2.6,2.1,5.2,4.4,7.7,6.7c1.4,1.2,2.7,2.5,4.1,3.8c0.3,0.3,0.5,0.5,0.7,0.7c0,0,0,0,0,0
					c0,0.1,0,0.1,0.1,0.1c0.1,0.1,0.2,0.2,0.3,0.3c0,0,0,0,0.1,0.1c0.6,0.6,1.2,1.1,1.7,1.6c0.6,0.6,1.9,1.6,3.1,3.3
					c0.1,0.1,0.1,0.2,0.2,0.3c0.1,0.2,0.2,0.3,0.3,0.5c0.4,0.5,1,1,1.6,1.6c0.9,0.9,1.9,1.8,2.8,2.7c0.2,0.2,0.6,0.6,0.8,0.7
					c1.5,1.4,3,2.8,4.5,4.2c0.5,0.4,0.7,0.7,0.9,1l0,0c0.2,0.3,0.4,0.5,0.4,0.5c0,0,0,0,0,0c0.2,0.2,0.3,0.3,0.5,0.5
					c0.2,0.2,0.7,0.6,0.9,1.1c0.3,0.7,0.5,2.1-1.4,3.9c0,0,0,0,0,0c-0.5,0.2-1,0.5-1.4,0.7c-0.2,0.1-0.3,0.2-0.4,0.3
					c0,0-0.1,0.1-0.2,0.1c-0.2,0.1-0.3,0.2-0.4,0.3c-0.3,0.2-0.6,0.4-0.8,0.5c0.3,1.2,0.3,2.5-0.2,3.8c-0.4,1-0.9,1.6-1.4,2
					c-0.2,0.2-0.4,0.3-0.6,0.3c0.3,0.9,0.4,1.8,0.1,2.8c0,0,0,0.1,0,0.1c0,0.4-0.1,0.7-0.4,1c-0.4,0.4-0.8,0.7-1.3,0.8
					c-0.8,0.2-1.5,0.4-2.3,0.3c-0.2,0.6-0.5,1.5-1.7,2.4c-0.2,0.2-0.4,0.3-0.6,0.4c-0.3,0.3-0.8,0.3-1.1,0.4
					c-1.5,0.4-3.1-0.1-4.4-0.7c-1.1-0.6-1.9-1.2-2.4-1.5c-0.2-0.1-0.4-0.2-0.5-0.3c-0.2-0.1-0.3-0.1-0.5-0.2
					c-2.4-1.3-4.1-2.9-5.3-3.7c-0.7-0.5-1.3-1-2-1.5c-0.2-0.1-0.4-0.3-0.6-0.4c-0.1,0-0.1,0-0.1-0.1c-0.1-0.1-0.3-0.2-0.4-0.3
					c0,0-0.1,0-0.2-0.1c-0.3-0.1-0.6-0.3-1-0.6c-1.8-1.3-3.6-2.7-5.4-4c-3.3-2.5-6.6-5-9.8-7.7c-2.2-1.8-3.9-3.7-5.6-5.6
					c-2.8-3.1-5.2-6-6.8-9.1c-0.2-0.4-0.4-0.9-0.6-1.3c-0.2-0.4-0.4-0.7-0.5-1.1c-0.2-0.4-0.4-0.9-0.5-1.4c-0.1-0.5-0.2-1-0.3-1.5
					c-0.1-0.3-0.1-0.8-0.1-1.1c-0.1-0.5-0.2-1.2-0.2-1.7c-0.1-1.8-0.7-3.3-1.7-4.6c-1.4,0.2-2.8-0.2-3.9-1.2c-1.1-1-1.8-2.3-1.9-3.7
					c-8.4-7.3-15.3-13.1-21-17.7c-1.8-1.4-3.4-2.7-5-3.9c-6.2-4.7-12.9-9.1-19.4-13.3c-0.5-0.3-1.1-0.7-1.6-1
					c-4.8-3.1-9.8-6.4-14.6-9.7c-0.2-0.1-0.4-0.3-0.6-0.4c-7.1-5-14.3-10.1-19-18.1c-0.5-0.8-1-1.8-1.4-2.8c-0.8-2-1.3-4.4-0.5-6.7
					c0,0-0.4-0.4-0.4-0.4c0,0,0.6-0.7,0.6-0.8c0,0-0.1,0-0.1-0.1c0,0,0.2-0.3,0.5-0.7c0,0,0,0,0.1-0.1
					C118.8,4.2,119.4,3.5,119.4,3.5z"/>
				<path class="st47" d="M119.6,3.6c0.1-0.1,1.6-1.9,1.8-2c0,0,0.1,0.1,0.1,0.1c0,0,0.5-0.5,0.5-0.5c0,0,0.4,0.3,0.5,0.3
					c1.4-0.7,2.8-0.9,4.3-0.8c2,0.1,4,0.7,5.6,1.4c6.7,2.7,12,7.2,16.8,12c1.6,1.5,3.1,3.1,4.6,4.6c2.7,2.8,5.4,5.7,8.1,8.6
					c1.4,1.5,2.7,3,4,4.4c4.6,5.1,9.4,10.3,14.4,15.2c1.1,1.1,2.2,2.2,3.4,3.2c5.8,5.5,13.9,12.4,24.6,21.3c0.2,0.2,0.6,0.5,0.8,0.7
					c0.1,0.1,0.3,0.1,0.4,0.2c0.2,0,0.4-0.1,0.5-0.1c0.4,0,0.8,0,1.3,0.1c0.5,0.1,0.9,0.4,1.3,0.7c0.2,0.1,0.3,0.3,0.5,0.5
					c0.1,0.1,0.2,0.2,0.3,0.4c0.3,0.3,0.6,0.7,0.8,1c0.5,0.7,0.8,1.5,0.9,2.3c1.5,0.8,3.1,1,5,0.8c0.9-0.1,1.7-0.2,2.6-0.2
					c5.6-0.3,11,1.8,16.5,6.2c2.9,2.3,5.7,4.8,8.4,7.3c1.5,1.4,3,2.7,4.4,4.1c0.4,0.4,0.6,0.6,0.7,0.8l0,0c0,0.1,0,0.1,0.1,0.2
					c0.1,0.1,0.1,0.1,0.2,0.2c0,0,0,0,0.1,0.1c0.5,0.5,0.8,0.8,1.1,1.1c0,0,0.8,0.9,1.9,2.4c0,0.1,0.1,0.2,0.1,0.4
					c0.1,0.2,0.2,0.4,0.3,0.6c0.4,0.5,1,1.1,1.7,1.7c1,0.9,2.1,1.9,3.1,2.9c0.2,0.2,0.7,0.6,0.9,0.8c1.6,1.5,3.3,3,4.9,4.5
					c0.6,0.5,0.8,0.8,1,1.1l0,0c0.2,0.3,0.3,0.5,0.3,0.5c0,0,0,0,0,0c0.1,0.1,0.2,0.2,0.3,0.3c0.1,0.1,0.4,0.4,0.6,0.8
					c-0.2,0.3-0.2,1.5-2.1,3c0,0,0,0,0,0c-0.6,0.2-1.1,0.4-1.5,0.6c-0.2,0.1-0.3,0.2-0.5,0.3c0,0-0.1,0.1-0.2,0.1
					c-0.2,0.1-0.3,0.2-0.4,0.3c-0.3,0.3-0.6,0.4-0.6,0.6c0.3,1.3,0.6,2.6,0.3,4c-0.2,1-0.6,1.7-1,2.2c-0.1,0.2-0.3,0.3-0.5,0.4
					c0.4,1,0.6,2,0.5,2.9c0,0,0,0.1,0,0.1c0.1,0.5,0,0.8-0.3,1.1c-0.4,0.4-0.8,0.6-1.4,0.7c-0.8,0.1-1.6,0.2-2.4,0.1
					c-0.3,0.4-0.7,1.2-2,2c-0.2,0.1-0.5,0.2-0.7,0.3c-0.3,0.2-0.9,0.2-1.1,0.3c-1.6,0.3-3.2-0.3-4.6-1.1c-1.2-0.7-2.1-1.3-2.6-1.6
					c-0.2-0.1-0.4-0.2-0.6-0.2c-0.2,0-0.3-0.1-0.5-0.1c-2.3-1-3.6-2.4-4.1-2.7c-0.5-0.3-1-0.7-1.6-1.1c-0.2-0.1-0.3-0.2-0.5-0.3
					c-0.1,0,0,0-0.1-0.1c-0.1-0.1-0.2-0.1-0.4-0.2c0,0-0.1,0-0.2,0c-0.3-0.1-0.6-0.3-1-0.7c-1.9-1.4-3.8-2.8-5.7-4.3
					c-3.5-2.6-7-5.3-10.4-8.1c-2.3-2-4.1-4.1-5.7-6.1c-2.6-3.2-5-6-6.7-9.1c-0.2-0.4-0.5-0.9-0.6-1.2c-0.1-0.4-0.4-0.6-0.5-1
					c-0.2-0.4-0.4-0.8-0.5-1.3c-0.2-0.5-0.2-1-0.3-1.5c0-0.3,0-0.8-0.1-1.1c0-0.5-0.2-1.1-0.2-1.7c-0.2-1.8-0.8-3.3-1.8-4.6
					c-1.3,0.1-2.7-0.3-3.9-1.3c-1.1-1-1.8-2.3-1.9-3.6c-8.4-7.3-15.3-13.1-20.9-17.5c-1.7-1.4-3.4-2.7-4.9-3.8
					c-6.2-4.7-12.8-9-19.3-13.2c-0.5-0.3-1.1-0.7-1.6-1c-4.8-3.1-9.7-6.3-14.5-9.7c-0.2-0.1-0.4-0.3-0.6-0.4
					c-7-4.9-14.2-10.1-18.9-17.9c-0.5-0.8-1-1.7-1.4-2.7c-0.9-2.1-1.3-4.3-0.5-6.7c0,0-0.4-0.4-0.4-0.4c0,0,0.6-0.7,0.6-0.8
					c0,0,0,0,0-0.1c0,0,0.2-0.3,0.5-0.6c0,0,0,0,0.1-0.1C119,4.4,119.6,3.6,119.6,3.6z"/>
				<path class="st48" d="M119.8,3.7c0.1-0.1,1.6-1.9,1.8-1.9c0,0,0.1,0.1,0.1,0.1c0,0,0.5-0.5,0.6-0.5c0,0,0.4,0.3,0.5,0.3
					c1.4-0.6,2.8-0.8,4.3-0.7c2,0.1,4,0.8,5.6,1.4c6.6,2.8,11.9,7.3,16.8,12c1.6,1.5,3.1,3.1,4.6,4.6c2.7,2.8,5.4,5.7,8,8.6
					c1.4,1.5,2.7,2.9,4,4.4c4.6,5.1,9.4,10.3,14.4,15.2c1.1,1.1,2.2,2.2,3.4,3.2c5.8,5.5,13.9,12.4,24.5,21.3
					c0.2,0.2,0.6,0.5,0.8,0.7c0.1,0.1,0.3,0.1,0.4,0.2c0.1,0,0.4-0.1,0.5-0.1c0.4-0.1,0.8,0,1.3,0.1c0.5,0.2,0.9,0.4,1.2,0.7
					c0.2,0.1,0.3,0.4,0.5,0.5c0.1,0.1,0.2,0.3,0.3,0.4c0.3,0.3,0.6,0.7,0.8,1c0.5,0.7,0.8,1.5,0.9,2.3c1.5,0.8,3.1,1,5,0.8
					c0.9-0.1,1.7-0.2,2.6-0.2c5.6-0.3,11,1.7,16.4,6.2c3.1,2.5,6.1,5.2,9,7.9c1.6,1.5,3.2,3,4.8,4.4c0.5,0.4,0.7,0.6,0.7,0.9
					c0,0,0,0,0,0c0,0.1,0,0.1,0,0.2c0.1,0.1,0,0.1,0.1,0.1c0,0,0,0,0,0c0.3,0.3,0.4,0.5,0.5,0.6c-0.6-0.5-0.2,0,0.8,1.4
					c0,0.1,0,0.2,0,0.4c0,0.2,0.1,0.4,0.3,0.6c0.4,0.6,1,1.2,1.8,1.9c1.1,1,2.2,2.1,3.3,3.1c0.2,0.2,0.8,0.7,0.9,0.9
					c1.8,1.6,3.5,3.3,5.3,4.9c0.6,0.6,0.8,0.9,1,1.2v0c0.1,0.3,0.2,0.5,0.1,0.4c0,0,0,0,0,0c0.1,0.1,0.1,0.1,0.2,0.2
					c0,0,0.2,0.2,0.2,0.5c-0.6-0.1-0.8,0.8-2.8,2.2c0,0,0,0,0,0c-0.7,0.1-1.2,0.2-1.7,0.4c-0.2,0.1-0.4,0.2-0.5,0.3
					c0,0-0.1,0.1-0.2,0.1c-0.2,0.1-0.3,0.3-0.4,0.4c-0.3,0.3-0.5,0.5-0.5,0.8c0.4,1.3,0.9,2.7,0.8,4.2c-0.1,1-0.3,1.8-0.5,2.4
					c-0.1,0.2-0.2,0.4-0.3,0.5c0.6,1,0.9,2.1,0.8,3c0,0,0,0.1,0,0.1c0.2,0.5,0.1,0.8-0.2,1.2c-0.4,0.4-0.8,0.6-1.5,0.6
					c-0.8,0-1.6,0.1-2.5-0.1c-0.4,0.3-0.9,1-2.2,1.5c-0.2,0.1-0.5,0.2-0.7,0.2c-0.3,0.2-0.9,0.1-1.2,0.2c-1.6,0.2-3.3-0.5-4.8-1.4
					c-1.3-0.7-2.2-1.4-2.8-1.7c-0.2-0.1-0.4-0.1-0.6-0.2c-0.2,0-0.3,0-0.5,0c-2-1.1-3.1-1.9-2.9-1.6c-0.3-0.2-0.6-0.4-1.1-0.7
					c-0.1-0.1-0.2-0.1-0.3-0.2c0,0,0,0-0.1,0c-0.1,0-0.1,0-0.3-0.1c0,0-0.1,0-0.2,0c-0.3-0.1-0.6-0.3-1.1-0.7c-2-1.5-4-3-6-4.5
					c-3.7-2.8-7.4-5.6-11-8.6c-2.5-2.1-4.2-4.4-5.9-6.6c-2.4-3.2-4.8-6.1-6.5-9.1c-0.2-0.4-0.5-0.9-0.6-1.2
					c-0.1-0.4-0.4-0.6-0.6-0.9c-0.2-0.3-0.4-0.8-0.6-1.2c-0.2-0.5-0.3-1-0.3-1.5c0-0.3,0-0.8,0-1.1c0-0.5-0.2-1.1-0.2-1.6
					c-0.2-1.7-0.8-3.2-1.9-4.5c-1.3,0.1-2.7-0.4-3.8-1.3c-1.1-1-1.8-2.2-2-3.5c-8.3-7.2-15.2-13-20.8-17.4c-1.7-1.4-3.4-2.6-4.9-3.8
					c-6.2-4.6-12.7-9-19.1-13.1c-0.5-0.3-1.1-0.7-1.6-1c-4.8-3.1-9.7-6.3-14.4-9.6c-0.2-0.1-0.4-0.3-0.6-0.4
					c-7-4.9-14.1-10-18.8-17.8c-0.5-0.8-1-1.7-1.4-2.7c-0.9-2.1-1.3-4.3-0.6-6.6c0,0-0.4-0.4-0.4-0.4c0-0.1,0.5-0.7,0.6-0.8
					c0,0,0,0,0-0.1c0,0,0.2-0.3,0.5-0.6c0,0,0,0,0.1-0.1C119.1,4.5,119.8,3.7,119.8,3.7z"/>
				<path class="st49" d="M119.9,3.8c0.2-0.1,1.6-1.8,1.8-1.9c0,0,0.1,0.1,0.1,0.1c0.1,0,0.5-0.5,0.6-0.5c0,0,0.4,0.3,0.5,0.3
					c1.4-0.6,2.8-0.7,4.3-0.6c2,0.2,3.9,0.8,5.5,1.5c6.6,2.8,11.8,7.3,16.7,12.1c1.5,1.5,3.1,3.1,4.6,4.6c2.7,2.8,5.4,5.7,8,8.6
					c1.4,1.5,2.7,2.9,4,4.4c4.6,5.1,9.4,10.3,14.4,15.2c1.1,1.1,2.2,2.2,3.4,3.2c5.8,5.5,13.8,12.4,24.5,21.2
					c0.2,0.2,0.6,0.5,0.8,0.6c0.1,0.1,0.3,0.1,0.4,0.2c0.1,0,0.4-0.1,0.5-0.1c0.4-0.1,0.8-0.1,1.2,0.1c0.5,0.2,0.9,0.4,1.1,0.7
					c0.2,0.1,0.2,0.4,0.4,0.5c0.1,0.1,0.1,0.3,0.2,0.4c0.2,0.2,0.7,0.7,0.8,1c0.5,0.7,0.8,1.5,1,2.2c1.5,0.8,3.1,1,5,0.8
					c0.9-0.1,1.7-0.2,2.6-0.2c5.6-0.3,10.9,1.7,16.4,6.1c3.3,2.7,6.5,5.6,9.6,8.5c1.7,1.6,3.4,3.2,5.1,4.8c0.5,0.5,0.7,0.7,0.8,0.9
					c0,0,0,0,0,0c0,0.1,0,0.1,0,0.2c0,0.1,0,0.1,0,0.1c0,0,0,0,0,0c0.1,0.2,0.1,0.2,0,0.1c-1.3-1-1.1-0.8-0.3,0.5
					c0,0.1-0.1,0.2-0.1,0.4c0,0.2,0.1,0.4,0.2,0.7c0.4,0.6,1.1,1.2,1.9,2c1.1,1.1,2.4,2.2,3.6,3.3c0.2,0.2,0.8,0.8,1,0.9
					c1.9,1.7,3.8,3.5,5.7,5.2c0.7,0.7,0.9,1,1,1.3v0c0.1,0.3,0.2,0.5-0.1,0.3c0,0,0,0,0,0c0,0,0,0,0,0c-0.1-0.1-0.1,0-0.1,0.1
					c-1-0.5-1.5,0.1-3.6,1.3c0,0,0,0,0,0c-0.8,0-1.3,0.1-1.8,0.3c-0.2,0.1-0.4,0.2-0.6,0.3c0,0-0.1,0.1-0.2,0.1
					c-0.2,0.1-0.3,0.3-0.4,0.5c-0.2,0.3-0.4,0.6-0.4,0.9c0.5,1.3,1.1,2.7,1.2,4.5c0.1,1.1,0,1.9-0.1,2.6c0,0.2-0.1,0.4-0.1,0.6
					c0.7,1.1,1.1,2.2,1.1,3.2c0,0,0,0.1,0,0.1c0.3,0.6,0.2,0.9-0.1,1.2c-0.4,0.4-0.8,0.6-1.6,0.5c-0.8-0.1-1.7,0-2.6-0.3
					c-0.5,0.2-1.1,0.7-2.5,1.1c-0.3,0.1-0.5,0.1-0.8,0.1c-0.2,0.2-1-0.1-1.3,0.1c-1.7,0.1-3.5-0.8-4.9-1.7c-1.3-0.8-2.3-1.5-2.9-1.8
					c-0.2-0.1-0.4-0.1-0.6-0.1c-0.2,0-0.3,0-0.5,0c-1.9-0.9-2.6-1.4-1.7-0.6c-0.1-0.1-0.3-0.2-0.6-0.3c0,0-0.1,0-0.2-0.1
					c0,0,0,0,0,0c0,0,0,0-0.2,0c0,0-0.1,0-0.2,0c-0.3-0.1-0.6-0.2-1.2-0.7c-2.1-1.6-4.3-3.2-6.4-4.8c-3.9-2.9-7.8-5.9-11.6-9.1
					c-2.6-2.3-4.4-4.7-6-7.1c-2.2-3.3-4.6-6.1-6.4-9.1c-0.2-0.3-0.5-0.9-0.6-1.2c-0.1-0.3-0.5-0.5-0.6-0.8c-0.2-0.3-0.4-0.7-0.6-1.2
					c-0.2-0.5-0.3-1-0.3-1.5c0-0.3,0-0.8,0-1.1c0-0.5-0.2-1.1-0.3-1.6c-0.3-1.7-0.9-3.1-1.9-4.4c-1.3,0-2.7-0.5-3.7-1.4
					c-1.1-1-1.8-2.2-2-3.5c-8.3-7.2-15.1-12.9-20.6-17.3c-1.7-1.4-3.3-2.6-4.9-3.8c-6.1-4.6-12.7-8.9-19-13c-0.5-0.3-1-0.7-1.6-1
					c-4.7-3.1-9.6-6.3-14.3-9.5c-0.2-0.1-0.4-0.3-0.6-0.4c-7-4.9-14-9.9-18.7-17.6c-0.5-0.8-1-1.7-1.4-2.7c-0.9-2.1-1.4-4.3-0.7-6.6
					c0,0-0.3-0.4-0.3-0.4c0-0.1,0.5-0.7,0.6-0.8c0,0,0,0,0-0.1c0,0,0.2-0.3,0.5-0.6c0,0,0,0,0.1-0.1C119.3,4.6,119.9,3.8,119.9,3.8z
					"/>
				<path class="st50" d="M120.1,3.9c0.2-0.2,1.6-1.8,1.8-1.8c0,0,0.1,0.1,0.1,0.1c0.1,0,0.5-0.5,0.6-0.5c0.1,0,0.4,0.2,0.5,0.2
					c1.4-0.6,2.8-0.7,4.3-0.5c2,0.2,3.9,0.8,5.5,1.5c6.5,2.8,11.7,7.4,16.6,12.2c1.5,1.5,3,3.1,4.5,4.6c2.7,2.8,5.4,5.7,8,8.5
					c1.3,1.5,2.7,2.9,4,4.4c4.6,5.1,9.4,10.2,14.4,15.1c1.1,1.1,2.2,2.1,3.4,3.2c5.8,5.5,13.8,12.4,24.4,21.2
					c0.2,0.2,0.6,0.5,0.8,0.6c0.1,0.1,0.3,0.1,0.4,0.1c0.1,0,0.4-0.1,0.5-0.1c0.4-0.1,0.8-0.1,1.2,0.1c0.5,0.2,0.9,0.5,1.1,0.8
					c0.2,0.1,0.2,0.4,0.4,0.5c0.1,0.1,0.1,0.3,0.2,0.4c0.2,0.2,0.7,0.7,0.8,1c0.5,0.7,0.9,1.4,1.1,2.2c1.5,0.7,3.1,1,4.9,0.8
					c0.9-0.1,1.7-0.2,2.6-0.2c5.6-0.4,10.9,1.6,16.4,6.1c3.6,2.9,7,6,10.3,9.1c1.8,1.7,3.6,3.4,5.5,5.1c0.6,0.6,0.8,0.8,0.8,1
					c0,0,0,0,0,0c0,0.1,0,0.2,0,0.2c0,0.1-0.1,0-0.1,0c0,0-0.1,0,0,0c0,0-0.3-0.2-0.6-0.4c-1.9-1.6-2.1-1.7-1.5-0.4
					c-0.1,0.1-0.1,0.2-0.1,0.4c0,0.2,0,0.5,0.2,0.8c0.4,0.6,1.1,1.3,2,2.2c1.2,1.1,2.6,2.4,3.8,3.5c0.2,0.1,0.9,0.8,1.1,1
					c2,1.8,4.1,3.7,6.1,5.5c0.8,0.7,1,1.1,1.1,1.4v0c0.1,0.3,0.1,0.5-0.2,0.2c0,0,0,0,0,0c0,0-0.1-0.1-0.2-0.1
					c-0.2-0.2-0.3-0.2-0.5-0.2c-1.4-0.9-2.2-0.5-4.3,0.4c0,0,0,0,0,0c-0.8-0.1-1.4,0-1.9,0.2c-0.2,0.1-0.4,0.2-0.6,0.3
					c0,0-0.1,0.1-0.2,0.1c-0.2,0.1-0.3,0.3-0.4,0.5c-0.2,0.3-0.4,0.6-0.2,1c0.6,1.3,1.4,2.8,1.7,4.7c0.2,1.1,0.2,2,0.4,2.8
					c0,0.3,0,0.5,0,0.7c0.8,1.1,1.3,2.3,1.5,3.3c0,0,0,0.1,0,0.1c0.4,0.7,0.3,1,0,1.3c-0.4,0.4-0.7,0.6-1.7,0.4
					c-0.9-0.2-1.8-0.2-2.7-0.5c-0.6,0.1-1.4,0.4-2.7,0.7c-0.3,0-0.5,0-0.8,0c-0.2,0.2-1.1-0.2-1.3-0.1c-1.7-0.1-3.6-1-5.1-2
					c-1.4-0.9-2.4-1.6-3.1-1.9c-0.2-0.1-0.5-0.1-0.7-0.1c-0.2,0-0.4,0.1-0.4,0.1c-1.8-0.7-2.1-0.9-0.6,0.4c0,0.1,0,0.1-0.1,0.1
					c0,0,0,0,0,0c0,0,0,0,0,0c0,0,0.1,0.1-0.1,0.1c0,0-0.1,0-0.2,0c-0.3-0.1-0.6-0.2-1.2-0.7c-2.2-1.7-4.5-3.4-6.7-5
					c-4.1-3.1-8.2-6.2-12.2-9.6c-2.8-2.4-4.5-5-6.1-7.6c-2-3.3-4.4-6.1-6.2-9.1c-0.1-0.3-0.5-0.9-0.7-1.2c-0.1-0.3-0.5-0.4-0.6-0.7
					c-0.2-0.3-0.5-0.6-0.7-1.1c-0.2-0.5-0.3-1-0.3-1.4c0-0.3,0-0.8,0-1.1c0-0.4-0.3-1.1-0.3-1.5c-0.3-1.6-1-3-2-4.3
					c-1.3-0.1-2.6-0.5-3.7-1.5c-1.1-0.9-1.8-2.2-2.1-3.4c-8.2-7.1-15-12.8-20.5-17.1c-1.7-1.3-3.3-2.6-4.9-3.7
					c-6.1-4.6-12.6-8.8-18.9-12.9c-0.5-0.3-1-0.7-1.6-1c-4.7-3.1-9.6-6.2-14.2-9.5c-0.2-0.1-0.4-0.3-0.6-0.4
					c-6.9-4.8-14-9.9-18.6-17.5c-0.5-0.8-1-1.7-1.4-2.7c-0.9-2.1-1.4-4.3-0.7-6.5c0,0-0.3-0.4-0.3-0.4c0-0.1,0.5-0.7,0.5-0.8
					c0,0,0,0,0-0.1c0-0.1,0.2-0.3,0.5-0.6c0,0,0,0,0.1-0.1C119.5,4.7,120.1,3.9,120.1,3.9z"/>
				<path class="st51" d="M120.3,4c0.2-0.2,1.6-1.7,1.9-1.8c0,0,0.1,0.1,0.1,0.1c0.1,0,0.5-0.4,0.6-0.4c0.1,0,0.4,0.2,0.5,0.2
					c1.3-0.5,2.8-0.6,4.3-0.4c2,0.2,3.9,0.9,5.5,1.6c6.5,2.9,11.7,7.4,16.5,12.2c1.5,1.5,3,3.1,4.5,4.6c2.7,2.8,5.4,5.7,8,8.5
					c1.3,1.5,2.7,2.9,4,4.4c4.6,5.1,9.4,10.2,14.3,15.1c1.1,1.1,2.2,2.1,3.3,3.2c5.8,5.5,13.8,12.4,24.4,21.1
					c0.2,0.1,0.6,0.5,0.8,0.6c0.1,0.1,0.3,0.1,0.4,0.1c0.1,0,0.4-0.1,0.5-0.1c0.4-0.1,0.8-0.1,1.2,0.1c0.5,0.2,0.8,0.5,1,0.8
					c0.2,0.1,0.2,0.4,0.3,0.5c0.1,0.1,0.1,0.3,0.2,0.4c0.2,0.2,0.7,0.7,0.8,0.9c0.5,0.7,0.9,1.4,1.1,2.1c1.5,0.7,3.1,1,4.9,0.9
					c0.8-0.1,1.7-0.2,2.6-0.2c5.6-0.4,10.9,1.6,16.4,6c3.8,3.1,7.4,6.4,10.9,9.7c1.9,1.8,3.8,3.6,5.8,5.4c0.7,0.6,0.8,0.8,0.8,1.1
					c0,0,0,0,0,0c0,0.1-0.1,0.2-0.1,0.2c0,0.1-0.2,0-0.2-0.1c0,0-0.1-0.1-0.1,0c-0.2-0.1-0.7-0.5-1.2-0.9c-2.5-2.2-3-2.6-2.6-1.4
					c-0.1,0.1-0.2,0.2-0.2,0.4c0,0.3,0,0.5,0.2,0.8c0.4,0.7,1.1,1.4,2.2,2.4c1.3,1.2,2.8,2.6,4.1,3.7c0.1,0.1,1,0.9,1.2,1
					c2.2,1.9,4.4,3.9,6.5,5.9c0.9,0.8,1.1,1.2,1.1,1.5v0c0,0.3,0.1,0.5-0.4,0.1c0,0-0.1,0,0,0c-0.1-0.1-0.2-0.1-0.4-0.3
					c-0.3-0.3-0.6-0.4-0.8-0.5c-2-0.9-2.8-1.2-5-0.5c0,0,0,0,0,0c-0.9-0.2-1.6-0.2-2.1,0c-0.2,0.1-0.5,0.2-0.6,0.3
					c0,0-0.2,0.1-0.2,0.2c-0.2,0.2-0.3,0.4-0.4,0.6c-0.2,0.4-0.3,0.7-0.1,1.1c0.6,1.4,1.6,2.8,2.2,4.9c0.3,1.1,0.5,2.1,0.8,3
					c0.1,0.3,0.1,0.5,0.2,0.8c0.9,1.2,1.6,2.4,1.8,3.5c0,0,0.1,0.1,0.1,0.1c0.5,0.7,0.4,1.1,0.1,1.4c-0.4,0.4-0.7,0.6-1.8,0.3
					c-0.9-0.2-1.9-0.3-2.9-0.7c-0.7-0.1-1.6,0.2-3,0.3c-0.3,0-0.6,0-0.9,0c-0.2,0.2-1.2-0.3-1.4-0.2c-1.7-0.2-3.7-1.3-5.3-2.3
					c-1.5-0.9-2.5-1.7-3.2-1.9c-0.3-0.1-0.5-0.1-0.7,0c-0.2,0-0.4,0.1-0.4,0.2c-1.6-0.5-1.5-0.5,0.6,1.5c0.2,0.2,0.4,0.4,0.4,0.5
					c0.1,0.1,0.1,0.1,0.1,0.2c0,0,0.1,0.1,0,0c0,0,0.1,0.1,0,0.2c0,0-0.1,0-0.2,0.1c-0.3,0-0.6-0.1-1.3-0.7c-2.3-1.8-4.7-3.5-7-5.3
					c-4.3-3.2-8.7-6.5-12.8-10c-3-2.6-4.7-5.3-6.2-8.1c-1.8-3.4-4.2-6.2-6.1-9.1c-0.1-0.3-0.6-0.9-0.7-1.2c-0.1-0.3-0.5-0.3-0.6-0.6
					c-0.2-0.2-0.5-0.6-0.7-1c-0.2-0.5-0.3-1-0.3-1.4c0-0.3,0.1-0.8,0-1.1c0-0.4-0.3-1-0.3-1.4c-0.4-1.6-1.1-3-2.1-4.2
					c-1.3-0.1-2.6-0.6-3.6-1.5c-1.1-0.9-1.8-2.1-2.1-3.3c-8.2-7.1-14.9-12.7-20.4-17c-1.7-1.3-3.3-2.6-4.8-3.7
					c-6.1-4.5-12.5-8.7-18.8-12.8c-0.5-0.3-1-0.7-1.5-1c-4.7-3-9.5-6.2-14.1-9.4c-0.2-0.1-0.4-0.3-0.6-0.4
					c-6.9-4.8-13.9-9.8-18.5-17.3c-0.5-0.8-1-1.7-1.4-2.7c-1-2.1-1.4-4.3-0.8-6.5c0-0.1-0.3-0.4-0.3-0.4c0-0.1,0.5-0.7,0.5-0.8
					c0,0,0,0,0-0.1c0-0.1,0.2-0.3,0.5-0.6c0,0,0,0,0.1-0.1C119.6,4.8,120.3,4,120.3,4z"/>
				<path class="st52" d="M120.4,4.1c0.3-0.2,1.6-1.7,1.9-1.8c0,0,0.1,0.1,0.1,0c0.1,0,0.5-0.4,0.6-0.4c0.1,0,0.4,0.2,0.5,0.2
					c1.3-0.5,2.8-0.5,4.3-0.3c2,0.3,3.8,0.9,5.4,1.7c6.4,2.9,11.6,7.5,16.4,12.3c1.5,1.5,3,3.1,4.5,4.6c2.7,2.8,5.4,5.7,8,8.5
					c1.3,1.5,2.7,2.9,4,4.4c4.6,5,9.4,10.2,14.3,15c1.1,1.1,2.2,2.1,3.3,3.2c5.8,5.5,13.8,12.4,24.4,21.1c0.2,0.1,0.6,0.5,0.8,0.6
					c0.1,0.1,0.3,0,0.4,0.1c0.1,0,0.4-0.1,0.5-0.2c0.4-0.1,0.8-0.1,1.2,0.1c0.5,0.2,0.8,0.5,1,0.9c0.1,0.1,0.1,0.4,0.2,0.5
					c0.1,0.1,0.1,0.3,0.1,0.4c0.2,0.2,0.7,0.7,0.9,0.9c0.5,0.7,0.9,1.4,1.2,2.1c1.5,0.7,3.1,1,4.9,0.9c0.8-0.1,1.7-0.1,2.6-0.2
					c5.5-0.4,10.9,1.5,16.4,6c4,3.2,7.8,6.8,11.6,10.3c2,1.9,4.1,3.9,6.1,5.8c0.7,0.7,0.9,0.9,0.9,1.2c0,0,0,0,0,0
					c0,0.1-0.1,0.2-0.1,0.2c0,0.1-0.2-0.1-0.3-0.1c0,0-0.1-0.1-0.1-0.1c-0.4-0.2-1-0.8-1.7-1.5c-3.1-2.8-3.9-3.4-3.7-2.3
					c-0.1,0.1-0.2,0.2-0.3,0.4c-0.1,0.3,0,0.6,0.1,0.9c0.4,0.7,1.2,1.5,2.3,2.5c1.3,1.3,3,2.7,4.4,3.9c0.1,0.1,1.1,1,1.2,1.1
					c2.3,2,4.6,4.1,6.9,6.2c1,0.9,1.1,1.3,1.1,1.6l0,0c0,0.3,0,0.5-0.6,0c0,0-0.1-0.1,0,0c-0.1-0.1-0.3-0.2-0.5-0.4
					c-0.4-0.4-0.8-0.6-1.2-0.9c-2.3-1.4-3.5-1.9-5.7-1.4c0,0,0,0,0,0c-1-0.3-1.7-0.3-2.2-0.1c-0.3,0.1-0.5,0.2-0.7,0.4
					c0,0-0.2,0.2-0.2,0.2c-0.2,0.2-0.3,0.4-0.4,0.6c-0.2,0.4-0.2,0.8,0,1.3c0.7,1.4,1.8,2.9,2.7,5.1c0.4,1.1,0.8,2.2,1.3,3.2
					c0.1,0.3,0.2,0.6,0.3,0.8c1,1.3,1.8,2.5,2.1,3.6c0,0,0.1,0.1,0.1,0.1c0.6,0.8,0.5,1.1,0.2,1.5c-0.4,0.4-0.7,0.6-1.9,0.2
					c-0.9-0.3-1.9-0.5-3-0.9c-0.8-0.2-1.8-0.1-3.3-0.1c-0.3,0-0.6-0.1-0.9-0.1c-0.2,0.2-1.2-0.4-1.4-0.3c-1.8-0.3-3.8-1.5-5.5-2.6
					c-1.6-1-2.7-1.8-3.4-2c-0.3-0.1-0.5-0.1-0.7,0c-0.2,0.1-0.4,0.2-0.4,0.3c-1.5-0.3-1.1,0.1,1.8,2.5c0.4,0.3,0.7,0.6,0.9,0.8
					c0.1,0.1,0.2,0.2,0.3,0.3c0,0,0.1,0.1,0.1,0.1c0.1,0.1,0.2,0.2,0.1,0.3c0,0-0.1,0.1-0.2,0.1c-0.3,0-0.6-0.1-1.4-0.7
					c-2.4-1.9-4.9-3.7-7.4-5.5c-4.5-3.3-9.1-6.8-13.4-10.5c-3.1-2.7-4.9-5.6-6.3-8.6c-1.7-3.4-4-6.2-5.9-9.1
					c-0.1-0.3-0.6-0.9-0.7-1.1c-0.1-0.3-0.5-0.2-0.6-0.5c-0.2-0.2-0.5-0.5-0.7-0.9c-0.2-0.5-0.3-1-0.3-1.4c0-0.2,0.1-0.8,0.1-1
					c0-0.4-0.3-1-0.3-1.4c-0.5-1.5-1.2-2.9-2.2-4.1c-1.2-0.2-2.5-0.7-3.6-1.6c-1.1-0.9-1.8-2.1-2.2-3.3c-8.1-7-14.8-12.6-20.3-16.9
					c-1.7-1.3-3.3-2.5-4.8-3.7c-6-4.5-12.4-8.7-18.7-12.7c-0.5-0.3-1-0.7-1.5-1c-4.6-3-9.4-6.1-14-9.4c-0.2-0.1-0.4-0.3-0.6-0.4
					c-6.8-4.8-13.8-9.7-18.4-17.2c-0.5-0.8-1-1.7-1.4-2.6c-1-2.1-1.4-4.3-0.8-6.4c0-0.1-0.3-0.4-0.3-0.4c0-0.1,0.5-0.7,0.5-0.8
					c0,0,0,0,0-0.1c0-0.1,0.2-0.3,0.5-0.6c0,0,0,0,0.1-0.1C119.8,4.9,120.4,4.1,120.4,4.1z"/>
				<path class="st53" d="M120.6,4.2c0.3-0.3,1.6-1.6,1.9-1.7c0,0,0.1,0,0.1,0c0.1,0,0.5-0.4,0.6-0.4c0.1,0,0.4,0.2,0.5,0.2
					c1.3-0.5,2.7-0.5,4.2-0.2c2,0.3,3.8,1,5.4,1.7c6.4,3,11.5,7.6,16.3,12.3c1.5,1.5,3,3.1,4.5,4.6c2.7,2.8,5.4,5.7,8,8.5
					c1.3,1.5,2.7,2.9,4,4.4c4.6,5,9.4,10.2,14.3,15c1.1,1,2.2,2.1,3.3,3.2c5.9,5.5,13.8,12.4,24.3,21c0.1,0.1,0.6,0.5,0.8,0.6
					c0.1,0.1,0.3,0,0.4,0.1c0.1,0,0.4-0.2,0.5-0.2c0.4-0.1,0.8-0.1,1.2,0.1c0.5,0.2,0.8,0.6,0.9,0.9c0.1,0.1,0.1,0.4,0.2,0.5
					c0.1,0.1,0,0.3,0.1,0.4c0.2,0.2,0.7,0.7,0.9,0.9c0.5,0.7,1,1.4,1.3,2c1.5,0.7,3.1,1,4.9,0.9c0.8-0.1,1.7-0.1,2.6-0.2
					c5.5-0.5,10.8,1.5,16.3,5.9c4.2,3.4,8.3,7.2,12.2,10.9c2.1,2,4.3,4.1,6.5,6.1c0.8,0.8,0.9,1,0.9,1.2c0,0,0,0,0,0
					c-0.1,0.1-0.1,0.2-0.1,0.2c-0.1,0.1-0.3-0.1-0.4-0.2c0,0-0.1-0.1-0.1-0.1c-0.5-0.4-1.4-1.1-2.3-2c-3.7-3.3-4.9-4.3-4.9-3.2
					c-0.2,0.1-0.3,0.2-0.4,0.4c-0.1,0.3-0.1,0.6,0.1,0.9c0.4,0.7,1.2,1.6,2.4,2.7c1.4,1.3,3.1,2.9,4.6,4.2c0.1,0.1,1.2,1,1.3,1.1
					c2.4,2.2,4.9,4.4,7.4,6.6c1.1,1,1.2,1.4,1.2,1.7l0,0c0,0.4-0.1,0.5-0.8,0c0,0-0.1-0.1-0.1-0.1c-0.2-0.1-0.4-0.3-0.7-0.6
					c-0.5-0.4-1-0.8-1.6-1.2c-2.7-1.9-4.1-2.6-6.4-2.2c0,0,0,0,0,0c-1.1-0.4-1.8-0.4-2.4-0.3c-0.3,0.1-0.5,0.2-0.7,0.4
					c0,0-0.2,0.2-0.2,0.2c-0.3,0.2-0.3,0.4-0.4,0.7c-0.1,0.4-0.2,0.8,0.2,1.4c0.8,1.4,2,3,3.1,5.3c0.6,1.2,1.1,2.3,1.7,3.4
					c0.2,0.3,0.3,0.6,0.5,0.9c1.1,1.3,2,2.6,2.5,3.7c0,0,0.1,0.1,0.1,0.1c0.7,0.9,0.6,1.2,0.3,1.6c-0.4,0.4-0.8,0.6-2,0.1
					c-1-0.4-2-0.6-3.1-1.1c-0.9-0.3-2-0.4-3.5-0.6c-0.3,0-0.6-0.1-0.9-0.2c-0.2,0.2-1.3-0.5-1.5-0.4c-1.8-0.5-3.9-1.7-5.7-2.9
					c-1.7-1.1-2.8-1.9-3.5-2.1c-0.3-0.1-0.5,0-0.8,0.1c-0.2,0.1-0.4,0.2-0.4,0.4c-1.4-0.1-0.6,0.6,3,3.5c0.6,0.5,1.1,0.9,1.4,1.2
					c0.2,0.2,0.3,0.3,0.4,0.4c0,0,0.1,0.1,0.1,0.1c0.1,0.1,0.3,0.3,0.2,0.3c0,0-0.1,0.1-0.2,0.1c-0.3,0-0.6,0-1.4-0.7
					c-2.6-2-5.2-3.9-7.7-5.8c-4.7-3.5-9.5-7.1-14-11c-3.3-2.9-5-5.9-6.4-9.1c-1.5-3.4-3.8-6.2-5.7-9.1c-0.1-0.2-0.6-0.9-0.7-1.1
					c-0.1-0.3-0.6-0.2-0.7-0.4c-0.3-0.1-0.6-0.4-0.8-0.9c-0.3-0.5-0.3-1-0.3-1.4c0-0.2,0.1-0.8,0.1-1c0-0.3-0.4-1-0.4-1.3
					c-0.5-1.5-1.3-2.8-2.3-4c-1.2-0.2-2.5-0.8-3.5-1.7c-1.1-0.9-1.8-2.1-2.2-3.2c-8.1-7-14.7-12.5-20.1-16.8
					c-1.7-1.3-3.2-2.5-4.8-3.6c-6-4.5-12.3-8.6-18.5-12.6c-0.5-0.3-1-0.7-1.5-1c-4.6-3-9.4-6.1-13.9-9.3c-0.2-0.1-0.4-0.3-0.6-0.4
					c-6.8-4.8-13.7-9.7-18.3-17c-0.5-0.8-1-1.7-1.4-2.6c-1-2.1-1.5-4.3-0.9-6.4c0-0.1-0.2-0.4-0.2-0.4c0-0.1,0.4-0.7,0.5-0.8
					c0,0,0,0,0-0.1c0-0.1,0.2-0.3,0.5-0.6c0,0,0-0.1,0-0.1C119.9,5,120.6,4.2,120.6,4.2z"/>
				<path class="st54" d="M120.8,4.3c0.3-0.3,1.6-1.6,1.9-1.7c0,0,0.1,0,0.1,0c0.1,0,0.5-0.4,0.6-0.4c0.1,0,0.4,0.2,0.5,0.2
					c1.3-0.4,2.7-0.4,4.2-0.1c1.9,0.3,3.8,1,5.4,1.8c6.3,3,11.4,7.6,16.2,12.4c1.5,1.5,3,3.1,4.5,4.6c2.7,2.8,5.3,5.7,7.9,8.5
					c1.3,1.5,2.7,2.9,4,4.4c4.6,5,9.3,10.1,14.3,15c1.1,1,2.2,2.1,3.3,3.2c5.9,5.5,13.8,12.3,24.3,21c0.1,0.1,0.6,0.5,0.8,0.6
					c0.1,0.1,0.3,0,0.4,0c0.1,0,0.4-0.2,0.5-0.2c0.4-0.1,0.8-0.1,1.2,0.1c0.5,0.2,0.8,0.6,0.9,0.9c0.1,0.1,0,0.5,0.1,0.5
					c0.1,0.1,0,0.3,0.1,0.4c0.2,0.2,0.8,0.7,0.9,0.9c0.6,0.7,1,1.3,1.4,1.9c1.5,0.7,3.1,1.1,4.9,0.9c0.8-0.1,1.7-0.1,2.5-0.2
					c5.5-0.5,10.8,1.4,16.3,5.9c4.5,3.6,8.7,7.6,12.8,11.5c2.2,2.1,4.5,4.3,6.8,6.4c0.9,0.8,1,1,0.9,1.3c0,0,0,0,0,0
					c-0.1,0.1-0.1,0.2-0.1,0.2c-0.1,0.1-0.4-0.2-0.5-0.3c0,0-0.2-0.1-0.1-0.1c-0.7-0.5-1.7-1.5-2.9-2.5c-4.3-3.9-5.8-5.1-6-4.2
					c-0.2,0.1-0.3,0.2-0.4,0.5c-0.1,0.3-0.1,0.6,0.1,1c0.4,0.8,1.3,1.6,2.5,2.8c1.5,1.4,3.3,3,4.9,4.4c0.1,0.1,1.3,1.1,1.4,1.2
					c2.6,2.3,5.2,4.6,7.8,6.9c1.2,1.1,1.3,1.5,1.2,1.8l0,0c-0.1,0.4-0.1,0.5-0.9-0.1c0,0-0.1-0.1-0.1-0.1c-0.2-0.2-0.5-0.4-0.9-0.7
					c-0.6-0.5-1.3-1-1.9-1.5c-3.1-2.3-4.8-3.2-7.1-3.1c0,0,0,0,0,0c-1.1-0.5-1.9-0.6-2.5-0.4c-0.3,0.1-0.5,0.2-0.7,0.4
					c0,0-0.2,0.2-0.2,0.2c-0.3,0.2-0.3,0.5-0.4,0.7c-0.1,0.4-0.1,0.9,0.3,1.5c0.8,1.5,2.2,3.1,3.6,5.5c0.7,1.2,1.3,2.4,2.1,3.6
					c0.2,0.3,0.4,0.7,0.6,1c1.2,1.4,2.3,2.7,2.8,3.9c0,0,0.1,0.1,0.1,0.1c0.8,0.9,0.7,1.3,0.4,1.7c-0.4,0.4-0.8,0.6-2.1,0
					c-1-0.4-2.1-0.8-3.2-1.3c-1-0.5-2.2-0.6-3.8-1c-0.3-0.1-0.7-0.2-1-0.3c-0.2,0.1-1.4-0.6-1.5-0.5c-1.9-0.6-4.1-2-5.9-3.2
					c-1.7-1.2-2.9-2-3.7-2.2c-0.3-0.1-0.6,0-0.8,0.1c-0.2,0.1-0.4,0.3-0.4,0.5c-1.2,0.1-0.1,1.1,4.2,4.6c0.7,0.6,1.4,1.2,1.9,1.6
					c0.2,0.2,0.4,0.4,0.6,0.5c0,0,0.1,0.1,0.1,0.1c0.1,0.1,0.4,0.3,0.3,0.4c0,0-0.1,0.1-0.2,0.2c-0.3,0.1-0.6,0-1.5-0.7
					c-2.7-2.1-5.4-4.1-8-6c-4.9-3.6-9.9-7.4-14.6-11.4c-3.5-3-5.2-6.2-6.6-9.5c-1.4-3.4-3.6-6.2-5.6-9c-0.1-0.2-0.6-0.9-0.7-1.1
					c-0.1-0.2-0.6-0.1-0.7-0.3c-0.3-0.1-0.6-0.4-0.8-0.8c-0.3-0.5-0.3-1-0.3-1.4c0-0.2,0.1-0.8,0.1-1c0-0.3-0.4-0.9-0.4-1.3
					c-0.6-1.5-1.4-2.8-2.4-3.9c-1.2-0.3-2.4-0.8-3.5-1.7c-1.1-0.9-1.8-2-2.3-3.1c-8-6.9-14.6-12.4-20-16.6c-1.6-1.3-3.2-2.5-4.7-3.6
					c-6-4.4-12.3-8.5-18.4-12.5c-0.5-0.3-1-0.7-1.5-1c-4.6-3-9.3-6-13.8-9.2c-0.2-0.1-0.4-0.3-0.6-0.4c-6.8-4.7-13.6-9.6-18.2-16.9
					c-0.5-0.8-1-1.7-1.4-2.6c-1-2.2-1.5-4.3-1-6.3c0-0.1-0.2-0.4-0.2-0.5c0-0.1,0.4-0.6,0.5-0.8c0,0,0,0,0-0.1
					c0-0.1,0.2-0.4,0.4-0.6c0,0,0-0.1,0-0.1C120.1,5.2,120.8,4.3,120.8,4.3z"/>
				<path class="st55" d="M121,4.4c0.4-0.3,1.5-1.5,2-1.6c0,0,0.1,0,0.1,0c0.1,0,0.5-0.3,0.6-0.3c0.1,0,0.4,0.2,0.5,0.2
					c1.3-0.4,2.7-0.3,4.2,0c1.9,0.4,3.7,1.1,5.4,1.8c6.3,3,11.4,7.7,16.1,12.5c1.5,1.5,3,3.1,4.5,4.6c2.7,2.8,5.3,5.7,7.9,8.5
					c1.3,1.5,2.7,2.9,4,4.4c4.6,5,9.3,10.1,14.3,14.9c1.1,1,2.2,2.1,3.3,3.2c5.9,5.5,13.8,12.3,24.3,20.9c0.1,0.1,0.7,0.5,0.8,0.6
					c0.1,0,0.3,0,0.4,0c0.1,0,0.4-0.2,0.5-0.2c0.4-0.1,0.8-0.1,1.2,0.1c0.5,0.3,0.7,0.6,0.8,1c0.1,0.1,0,0.5,0.1,0.6
					c0.1,0.1,0,0.3,0,0.4c0.1,0.2,0.8,0.7,0.9,0.9c0.6,0.6,1,1.3,1.4,1.9c1.5,0.7,3.1,1.1,4.9,1c0.8,0,1.7-0.1,2.5-0.2
					c5.5-0.5,10.8,1.4,16.3,5.8c4.7,3.8,9.1,8,13.5,12.1c2.3,2.2,4.7,4.5,7.2,6.8c1,0.9,1,1.1,1,1.4c0,0,0,0,0,0
					c-0.1,0.1-0.1,0.2-0.2,0.2c-0.1,0.1-0.5-0.2-0.6-0.4c0,0-0.2-0.2-0.2-0.1c-0.8-0.7-2.1-1.8-3.5-3c-5-4.5-6.8-6-7.2-5.1
					c-0.2,0.1-0.4,0.2-0.5,0.5c-0.2,0.3-0.1,0.7,0,1.1c0.4,0.8,1.3,1.7,2.6,3c1.6,1.5,3.5,3.2,5.1,4.6c0.1,0.1,1.3,1.2,1.4,1.3
					c2.7,2.4,5.5,4.8,8.2,7.2c1.3,1.1,1.3,1.5,1.3,1.9l0,0c-0.1,0.4-0.2,0.5-1.1-0.2c0,0-0.1-0.1-0.1-0.1c-0.3-0.2-0.7-0.5-1-0.9
					c-0.7-0.6-1.5-1.3-2.3-1.9c-3.5-2.7-5.5-3.9-7.8-4c0,0,0,0,0,0c-1.2-0.6-2-0.7-2.7-0.6c-0.3,0.1-0.6,0.2-0.8,0.4
					c0,0-0.2,0.2-0.2,0.2c-0.3,0.2-0.4,0.5-0.4,0.8c-0.1,0.5,0,0.9,0.4,1.6c0.9,1.5,2.4,3.2,4.1,5.7c0.8,1.2,1.6,2.5,2.6,3.8
					c0.3,0.4,0.5,0.7,0.8,1.1c1.4,1.4,2.5,2.8,3.1,4c0,0,0.1,0.1,0.1,0.2c0.9,1,0.8,1.3,0.5,1.7c-0.4,0.5-0.8,0.6-2.2-0.1
					c-1-0.5-2.2-0.9-3.3-1.5c-1.2-0.6-2.4-0.9-4.1-1.4c-0.3-0.1-0.7-0.2-1-0.4c-0.2,0.1-1.4-0.7-1.6-0.7c-1.9-0.7-4.2-2.2-6-3.5
					c-1.8-1.2-3-2.1-3.9-2.3c-0.3-0.1-0.6,0-0.8,0.1c-0.2,0.1-0.4,0.3-0.4,0.5c-1.1,0.3,0.4,1.6,5.4,5.6c0.9,0.7,1.8,1.4,2.4,2
					c0.3,0.2,0.5,0.5,0.7,0.7c0,0,0.2,0.1,0.1,0.1c0.2,0.1,0.5,0.4,0.4,0.5c0,0-0.1,0.1-0.2,0.2c-0.3,0.1-0.6,0-1.6-0.7
					c-2.8-2.1-5.6-4.2-8.4-6.3c-5.1-3.8-10.3-7.7-15.2-11.9c-3.6-3.2-5.4-6.5-6.7-10c-1.2-3.4-3.4-6.3-5.4-9
					c-0.1-0.2-0.7-0.9-0.7-1.1c-0.1-0.2-0.6,0-0.7-0.2c-0.3-0.1-0.6-0.3-0.9-0.7c-0.3-0.5-0.3-0.9-0.3-1.4c0-0.2,0.2-0.8,0.2-1
					c0-0.3-0.4-0.9-0.4-1.2c-0.6-1.4-1.4-2.7-2.5-3.8c-1.2-0.3-2.4-0.9-3.4-1.8c-1.1-0.9-1.8-2-2.3-3.1c-8-6.9-14.5-12.3-19.9-16.5
					c-1.6-1.3-3.2-2.5-4.7-3.6c-5.9-4.4-12.2-8.5-18.3-12.4c-0.5-0.3-1-0.6-1.5-1c-4.5-3-9.2-6-13.7-9.2c-0.2-0.1-0.4-0.3-0.6-0.4
					c-6.7-4.7-13.5-9.5-18.1-16.7c-0.5-0.8-1-1.6-1.4-2.6c-1.1-2.2-1.5-4.2-1-6.3c0-0.1-0.2-0.4-0.2-0.5c0-0.1,0.4-0.6,0.5-0.8
					c0,0,0,0,0-0.1c0.1-0.1,0.2-0.4,0.4-0.6c0,0,0-0.1,0-0.1C120.2,5.3,121,4.4,121,4.4z"/>
				<path class="st56" d="M121.1,4.5c0.4-0.3,1.5-1.5,2-1.6c0,0,0.1,0,0.1,0c0.1,0,0.5-0.3,0.6-0.3c0.1,0,0.4,0.1,0.5,0.1
					c1.3-0.3,2.7-0.3,4.2,0.1c1.9,0.4,3.7,1.1,5.3,1.9c6.2,3.1,11.3,7.7,16,12.5c1.5,1.5,3,3.1,4.5,4.6c2.7,2.8,5.3,5.7,7.9,8.5
					c1.3,1.4,2.6,2.9,4,4.3c4.6,5,9.3,10.1,14.3,14.9c1.1,1,2.2,2.1,3.3,3.2c5.9,5.5,13.8,12.3,24.2,20.9c0.1,0.1,0.7,0.5,0.8,0.6
					c0.1,0,0.3-0.1,0.4,0c0.1,0,0.4-0.2,0.5-0.2c0.4-0.1,0.8-0.2,1.2,0.1c0.5,0.3,0.7,0.7,0.8,1c0.1,0.1,0,0.5,0,0.6
					c0.1,0,0,0.3,0,0.4c0.1,0.1,0.8,0.7,0.9,0.9c0.6,0.6,1.1,1.3,1.5,1.8c1.5,0.7,3.1,1.1,4.9,1c0.8,0,1.7-0.1,2.5-0.2
					c5.5-0.6,10.8,1.3,16.3,5.8c4.9,4,9.6,8.4,14.1,12.7c2.5,2.3,5,4.8,7.5,7.1c1,0.9,1.1,1.2,1,1.4c0,0,0,0,0,0
					c-0.1,0.2-0.2,0.2-0.2,0.2c-0.1,0.1-0.5-0.3-0.7-0.4c0,0-0.2-0.2-0.2-0.2c-1-0.8-2.5-2.1-4-3.5c-5.6-5.1-7.7-6.8-8.3-6
					c-0.2,0.1-0.5,0.2-0.6,0.5c-0.2,0.3-0.2,0.7,0,1.1c0.4,0.8,1.3,1.8,2.8,3.1c1.6,1.5,3.7,3.3,5.4,4.8c0.1,0.1,1.4,1.2,1.5,1.3
					c2.8,2.5,5.7,5,8.6,7.6c1.4,1.2,1.4,1.6,1.3,2l0,0c-0.1,0.4-0.3,0.5-1.3-0.3c0,0-0.1-0.1-0.1-0.1c-0.3-0.3-0.8-0.6-1.2-1
					c-0.8-0.7-1.7-1.5-2.6-2.2c-3.9-3.1-6.1-4.6-8.6-4.9c0,0,0,0,0,0c-1.3-0.6-2.2-0.8-2.8-0.7c-0.3,0.1-0.6,0.2-0.8,0.4
					c0,0-0.2,0.2-0.2,0.2c-0.3,0.2-0.4,0.5-0.4,0.8c-0.1,0.5,0,1,0.6,1.8c1,1.5,2.6,3.3,4.5,5.9c0.9,1.3,1.9,2.6,3,4
					c0.3,0.4,0.7,0.8,1,1.2c1.5,1.5,2.7,2.9,3.5,4.1c0,0,0.1,0.1,0.1,0.2c1,1.1,0.9,1.4,0.6,1.8c-0.4,0.5-0.8,0.6-2.3-0.2
					c-1.1-0.6-2.2-1.1-3.4-1.7c-1.3-0.7-2.6-1.2-4.3-1.8c-0.4-0.1-0.7-0.3-1.1-0.5c-0.1,0.1-1.5-0.8-1.7-0.8c-2-0.9-4.3-2.4-6.2-3.8
					c-1.9-1.3-3.2-2.2-4-2.3c-0.3-0.1-0.6,0-0.9,0.2c-0.2,0.2-0.4,0.4-0.4,0.6c-1,0.5,0.9,2.1,6.6,6.6c1.1,0.9,2.1,1.7,2.9,2.4
					c0.3,0.3,0.6,0.6,0.9,0.8c0,0,0.2,0.2,0.2,0.2c0.2,0.2,0.6,0.5,0.5,0.6c0,0-0.1,0.1-0.2,0.2c-0.3,0.2-0.6,0.1-1.6-0.8
					c-2.9-2.2-5.8-4.4-8.7-6.5c-5.3-3.9-10.7-8-15.8-12.4c-3.8-3.3-5.6-6.8-6.8-10.5c-1.1-3.4-3.2-6.3-5.3-9c-0.1-0.2-0.7-0.9-0.8-1
					c-0.1-0.2-0.7,0.1-0.7-0.1c-0.3,0-0.6-0.2-0.9-0.6c-0.3-0.4-0.4-0.9-0.3-1.4c0-0.2,0.2-0.8,0.2-1c0-0.3-0.5-0.9-0.5-1.2
					c-0.7-1.4-1.5-2.6-2.6-3.7c-1.2-0.4-2.3-1-3.3-1.9c-1.1-0.9-1.9-2-2.4-3c-7.9-6.8-14.4-12.2-19.8-16.4c-1.6-1.2-3.2-2.4-4.7-3.6
					c-5.9-4.4-12.1-8.4-18.2-12.3c-0.5-0.3-1-0.6-1.5-1c-4.5-2.9-9.2-6-13.6-9.1c-0.2-0.1-0.4-0.3-0.6-0.4
					c-6.7-4.7-13.5-9.5-18-16.6c-0.5-0.8-1-1.6-1.4-2.5c-1.1-2.2-1.6-4.2-1.1-6.2c0-0.1-0.2-0.4-0.1-0.5c0-0.2,0.4-0.6,0.4-0.8
					c0,0,0,0,0-0.1c0.1-0.1,0.2-0.4,0.4-0.6c0,0,0-0.1,0-0.1C120.4,5.4,121.1,4.5,121.1,4.5z"/>
				<path class="st57" d="M121.3,4.6c0.4-0.4,1.5-1.4,2-1.6c0,0,0.1,0,0.1,0c0.1,0,0.5-0.3,0.6-0.3c0.1,0,0.4,0.1,0.5,0.1
					c1.3-0.3,2.7-0.2,4.2,0.1c1.9,0.4,3.7,1.2,5.3,2c6.2,3.1,11.2,7.8,16,12.6c1.5,1.5,3,3.1,4.5,4.6c2.7,2.8,5.3,5.7,7.9,8.5
					c1.3,1.4,2.6,2.9,4,4.3c4.6,5,9.3,10.1,14.3,14.9c1.1,1,2.2,2.1,3.3,3.1c5.9,5.4,13.8,12.3,24.2,20.8c0.1,0.1,0.7,0.6,0.8,0.6
					c0,0,0.3-0.1,0.4,0c0.1,0,0.4-0.2,0.5-0.2c0.4-0.1,0.8-0.2,1.2,0.1c0.5,0.3,0.7,0.7,0.7,1c0.1,0.1-0.1,0.5,0,0.6
					c0,0-0.1,0.3,0,0.4c0.1,0.1,0.8,0.7,0.9,0.9c0.6,0.6,1.1,1.2,1.6,1.8c1.5,0.7,3.1,1.1,4.9,1c0.8,0,1.7-0.1,2.5-0.2
					c5.5-0.6,10.7,1.3,16.2,5.7c5.2,4.2,10,8.8,14.7,13.3c2.6,2.5,5.2,5,7.8,7.4c1.1,1,1.1,1.2,1,1.5c0,0,0,0,0,0
					c-0.1,0.2-0.2,0.2-0.2,0.3c-0.2,0.1-0.6-0.3-0.8-0.5c0,0-0.2-0.2-0.2-0.2c-1.2-0.9-2.8-2.4-4.6-4.1c-6.2-5.6-8.7-7.7-9.4-7
					c-0.3,0.1-0.5,0.2-0.7,0.5c-0.2,0.4-0.2,0.7,0,1.2c0.4,0.8,1.4,1.9,2.9,3.3c1.7,1.6,3.9,3.5,5.6,5c0.1,0.1,1.5,1.3,1.6,1.4
					c3,2.6,6,5.2,9,7.9c1.5,1.3,1.5,1.7,1.3,2.1l0,0c-0.2,0.4-0.3,0.5-1.4-0.4c0,0-0.1-0.1-0.1-0.1c-0.4-0.3-0.9-0.7-1.4-1.2
					c-0.9-0.8-1.9-1.7-3-2.5c-4.3-3.5-6.9-4.8-9.3-5.7c0,0,0,0,0,0c-1.4-0.7-2.3-1-2.9-0.8c-0.3,0.1-0.6,0.2-0.9,0.4
					c0,0-0.2,0.2-0.2,0.2c-0.3,0.2-0.4,0.6-0.4,0.9c-0.1,0.5,0.1,1.1,0.7,1.9c1,1.5,2.8,3.3,5,6.1c1,1.3,2.1,2.7,3.5,4.2
					c0.4,0.4,0.8,0.9,1.1,1.3c1.6,1.6,2.9,3,3.8,4.3c0,0,0.1,0.2,0.1,0.2c1.1,1.1,1.1,1.5,0.7,1.9c-0.4,0.5-0.8,0.6-2.4-0.3
					c-1.1-0.6-2.3-1.2-3.5-1.9c-1.4-0.8-2.8-1.5-4.6-2.2c-0.4-0.2-0.7-0.4-1.1-0.5c-0.1,0.1-1.6-1-1.7-0.9c-2-1-4.4-2.7-6.4-4.1
					c-2-1.4-3.3-2.3-4.2-2.4c-0.4,0-0.7,0-0.9,0.2c-0.2,0.2-0.4,0.4-0.4,0.7c-0.8,0.7,1.4,2.6,7.7,7.7c1.3,1,2.4,2,3.4,2.8
					c0.4,0.3,0.7,0.6,1,0.9c0,0,0.2,0.2,0.2,0.2c0.2,0.2,0.6,0.5,0.6,0.7c0,0-0.1,0.2-0.2,0.2c-0.3,0.2-0.6,0.1-1.7-0.8
					c-3-2.3-6.1-4.6-9-6.8c-5.5-4.1-11.1-8.3-16.4-12.9c-4-3.5-5.8-7.1-6.9-11c-0.9-3.4-3-6.3-5.1-9c-0.1-0.2-0.7-0.8-0.8-1
					c-0.1-0.2-0.7,0.2-0.7,0c-0.3,0-0.7-0.2-0.9-0.6c-0.3-0.4-0.4-0.9-0.3-1.3c0-0.1,0.2-0.8,0.2-1c0-0.2-0.5-0.9-0.5-1.1
					c-0.7-1.3-1.6-2.5-2.7-3.7c-1.1-0.4-2.3-1.1-3.3-1.9c-1-0.9-1.9-1.9-2.4-2.9c-7.9-6.8-14.3-12.1-19.6-16.2
					c-1.6-1.2-3.1-2.4-4.7-3.5c-5.9-4.3-12-8.3-18-12.2c-0.5-0.3-1-0.6-1.5-1c-4.5-2.9-9.1-5.9-13.6-9c-0.2-0.1-0.4-0.3-0.6-0.4
					c-6.6-4.6-13.4-9.4-17.9-16.4c-0.5-0.8-1-1.6-1.4-2.5c-1.1-2.2-1.6-4.2-1.1-6.1c0-0.1-0.1-0.4-0.1-0.5c0-0.2,0.3-0.6,0.4-0.8
					c0,0,0,0,0-0.1c0.1-0.1,0.2-0.4,0.4-0.6c0,0,0-0.1,0-0.1C120.5,5.5,121.3,4.6,121.3,4.6z"/>
				<path class="st58" d="M121.5,4.7c0.4-0.4,1.5-1.4,2-1.5c0,0,0.1,0,0.1,0c0.2,0,0.5-0.3,0.7-0.3c0.1,0,0.4,0.1,0.5,0.1
					c1.3-0.3,2.7-0.1,4.2,0.2c1.9,0.5,3.7,1.2,5.3,2c6.1,3.2,11.1,7.9,15.9,12.6c1.5,1.5,3,3.1,4.5,4.6c2.7,2.8,5.3,5.7,7.9,8.5
					c1.3,1.4,2.6,2.9,4,4.3c4.6,5,9.3,10.1,14.2,14.8c1.1,1,2.2,2.1,3.3,3.1c5.9,5.4,13.8,12.3,24.1,20.8c0.1,0.1,0.7,0.6,0.8,0.6
					c0,0,0.3-0.1,0.4-0.1c0.1,0,0.4-0.2,0.5-0.2c0.4-0.2,0.8-0.2,1.2,0c0.5,0.3,0.7,0.7,0.6,1.1c0.1,0-0.1,0.5-0.1,0.6
					c0,0-0.1,0.3,0,0.4c0.1,0.1,0.8,0.7,0.9,0.8c0.6,0.6,1.1,1.2,1.6,1.7c1.5,0.7,3.1,1.1,4.9,1c0.8,0,1.7-0.1,2.5-0.2
					c5.5-0.6,10.7,1.2,16.2,5.6c5.4,4.4,10.5,9.2,15.4,13.9c2.7,2.6,5.4,5.2,8.2,7.8c1.2,1.1,1.2,1.3,1.1,1.6c0,0,0,0,0,0
					c-0.1,0.2-0.2,0.3-0.2,0.3c-0.2,0.1-0.7-0.3-0.9-0.6c0,0-0.3-0.2-0.2-0.2c-1.3-1.1-3.2-2.8-5.2-4.6c-6.8-6.2-9.6-8.6-10.6-7.9
					c-0.3,0.1-0.6,0.2-0.7,0.5c-0.2,0.4-0.3,0.8-0.1,1.2c0.4,0.9,1.4,1.9,3,3.4c1.8,1.7,4,3.6,5.9,5.2c0.1,0.1,1.6,1.4,1.7,1.4
					c3.1,2.7,6.3,5.5,9.4,8.2c1.5,1.4,1.5,1.8,1.4,2.2l0,0c-0.2,0.4-0.4,0.5-1.6-0.5c0,0-0.2-0.1-0.1-0.1c-0.5-0.4-1-0.8-1.6-1.3
					c-1-0.9-2.2-1.9-3.4-2.9c-4.7-3.9-7.6-5.6-10-6.6c0,0,0,0,0,0c-1.5-0.8-2.4-1.1-3.1-1c-0.4,0.1-0.7,0.2-0.9,0.5
					c0,0-0.2,0.2-0.2,0.2c-0.3,0.3-0.4,0.6-0.4,0.9c-0.1,0.5,0.2,1.1,0.9,2c1.1,1.6,3,3.5,5.5,6.4c1.2,1.3,2.4,2.8,3.9,4.4
					c0.4,0.5,0.9,0.9,1.3,1.3c1.7,1.6,3.2,3.1,4.1,4.4c0,0,0.2,0.2,0.1,0.2c1.2,1.2,1.2,1.5,0.8,2c-0.4,0.5-0.8,0.6-2.5-0.4
					c-1.1-0.7-2.4-1.4-3.6-2.1c-1.5-1-3.1-1.8-4.8-2.7c-0.4-0.2-0.8-0.4-1.2-0.6c-0.1,0.1-1.7-1.1-1.8-1c-2.1-1.1-4.6-2.9-6.6-4.4
					c-2-1.5-3.4-2.4-4.3-2.5c-0.4,0-0.7,0.1-1,0.3c-0.3,0.2-0.4,0.5-0.4,0.8c-0.7,0.9,1.9,3.1,8.9,8.7c1.4,1.1,2.8,2.2,3.9,3.1
					c0.4,0.4,0.8,0.7,1.2,1c0,0,0.3,0.2,0.2,0.2c0.2,0.2,0.7,0.6,0.7,0.8c0,0.1-0.1,0.2-0.2,0.3c-0.3,0.2-0.6,0.2-1.8-0.8
					c-3.1-2.4-6.3-4.8-9.4-7c-5.7-4.2-11.6-8.6-17-13.3c-4.1-3.6-6-7.4-7-11.5c-0.8-3.4-2.8-6.4-5-9c-0.1-0.1-0.7-0.8-0.8-1
					c-0.1-0.1-0.7,0.3-0.8,0.1c-0.3,0.1-0.7-0.1-1-0.5c-0.3-0.4-0.4-0.9-0.3-1.3c0-0.1,0.2-0.8,0.2-1c0-0.2-0.5-0.8-0.5-1
					c-0.8-1.3-1.7-2.5-2.7-3.6c-1.1-0.5-2.2-1.1-3.2-2c-1-0.9-1.9-1.9-2.5-2.9c-7.8-6.7-14.3-12-19.5-16.1c-1.6-1.2-3.1-2.4-4.6-3.5
					c-5.8-4.3-12-8.3-17.9-12.1c-0.5-0.3-1-0.6-1.5-0.9c-4.5-2.9-9-5.9-13.5-9c-0.2-0.1-0.4-0.3-0.6-0.4
					c-6.6-4.6-13.3-9.4-17.8-16.3c-0.5-0.8-1-1.6-1.4-2.5c-1.1-2.2-1.6-4.2-1.2-6.1c0-0.1-0.1-0.4-0.1-0.5c0-0.2,0.3-0.6,0.4-0.8
					c0,0,0,0,0-0.1c0.1-0.1,0.2-0.4,0.4-0.6c0,0,0-0.1,0-0.1C120.7,5.6,121.5,4.7,121.5,4.7z"/>
				<path class="st59" d="M121.6,4.8c0.5-0.4,1.5-1.3,2.1-1.5c0,0,0.1,0,0.1,0c0.2,0,0.5-0.2,0.7-0.3c0.1,0,0.4,0.1,0.5,0.1
					c1.3-0.2,2.6-0.1,4.2,0.3c1.9,0.5,3.6,1.2,5.2,2.1c6.1,3.2,11,7.9,15.8,12.7c1.5,1.5,3,3.1,4.4,4.6c2.7,2.8,5.3,5.7,7.8,8.4
					c1.3,1.4,2.6,2.9,3.9,4.3c4.6,5,9.3,10,14.2,14.8c1.1,1,2.2,2.1,3.3,3.1c5.9,5.4,13.8,12.3,24.1,20.7c0.1,0.1,0.7,0.6,0.8,0.6
					c0,0,0.3-0.1,0.4-0.1c0.1,0,0.4-0.2,0.5-0.2c0.3-0.2,0.8-0.2,1.2,0c0.5,0.3,0.7,0.7,0.6,1.1c0.1,0-0.2,0.5-0.1,0.6
					c0,0-0.1,0.3-0.1,0.4c0.1,0.1,0.9,0.7,0.9,0.8c0.6,0.6,1.2,1.2,1.7,1.7c1.5,0.7,3.1,1.1,4.8,1c0.8,0,1.7-0.1,2.5-0.2
					c5.5-0.6,10.7,1.2,16.2,5.6c5.6,4.5,10.9,9.6,16,14.5c2.8,2.7,5.6,5.4,8.5,8.1c1.2,1.1,1.2,1.4,1.1,1.7c0,0,0,0,0,0
					c-0.1,0.2-0.2,0.3-0.3,0.3c-0.2,0.1-0.7-0.4-1-0.6c0,0-0.3-0.2-0.3-0.2c-1.5-1.2-3.5-3.1-5.7-5.1c-7.4-6.8-10.5-9.2-11.7-8.8
					c-0.3,0.1-0.6,0.2-0.8,0.5c-0.3,0.4-0.3,0.8-0.1,1.3c0.4,0.9,1.5,2,3.1,3.6c1.9,1.7,4.2,3.8,6.2,5.4c0.1,0.1,1.7,1.4,1.7,1.5
					c3.2,2.8,6.6,5.7,9.8,8.6c1.6,1.4,1.6,1.9,1.4,2.3l0,0c-0.2,0.4-0.5,0.6-1.8-0.5c0,0-0.2-0.1-0.2-0.1c-0.5-0.4-1.1-0.9-1.7-1.5
					c-1.1-1-2.4-2.1-3.7-3.2c-5-4.3-8.2-6.3-10.7-7.5c0,0,0,0,0,0c-1.5-0.9-2.5-1.2-3.2-1.1c-0.4,0.1-0.7,0.2-0.9,0.5
					c0,0-0.2,0.2-0.2,0.3c-0.3,0.3-0.4,0.6-0.4,1c0,0.5,0.2,1.2,1,2.1c1.2,1.6,3.2,3.6,6,6.6c1.3,1.4,2.7,2.9,4.4,4.6
					c0.5,0.5,1,1,1.4,1.4c1.8,1.7,3.4,3.2,4.5,4.5c0,0,0.2,0.2,0.2,0.2c1.3,1.3,1.3,1.6,0.9,2.1c-0.4,0.5-0.8,0.6-2.6-0.5
					c-1.2-0.8-2.5-1.5-3.7-2.3c-1.6-1.1-3.3-2.1-5.1-3.1c-0.4-0.2-0.8-0.5-1.2-0.7c-0.1,0.1-1.7-1.2-1.8-1.1
					c-2.1-1.3-4.7-3.2-6.8-4.7c-2.1-1.5-3.5-2.5-4.5-2.6c-0.4,0-0.7,0.1-1,0.3c-0.3,0.2-0.4,0.5-0.4,0.9c-0.6,1.1,2.4,3.6,10.1,9.7
					c1.6,1.3,3.1,2.5,4.4,3.5c0.5,0.4,1,0.8,1.3,1.2c0,0,0.3,0.2,0.3,0.2c0.3,0.2,0.8,0.7,0.8,0.9c0,0.1-0.1,0.2-0.2,0.3
					c-0.3,0.2-0.6,0.2-1.8-0.8c-3.2-2.5-6.5-4.9-9.7-7.3c-5.9-4.4-12-8.9-17.6-13.8c-4.3-3.8-6.3-7.7-7.1-12c-0.7-3.4-2.6-6.4-4.8-9
					c-0.1-0.1-0.8-0.8-0.8-1c0-0.1-0.7,0.3-0.8,0.2c-0.3,0.1-0.7,0-1-0.4c-0.4-0.4-0.4-0.9-0.3-1.3c0-0.1,0.3-0.9,0.3-1
					c0-0.2-0.6-0.8-0.6-1c-0.8-1.3-1.8-2.4-2.8-3.5c-1.1-0.5-2.2-1.2-3.2-2.1c-1-0.9-1.9-1.9-2.5-2.8c-7.8-6.7-14.2-12-19.4-16
					c-1.6-1.2-3.1-2.4-4.6-3.5c-5.8-4.2-11.9-8.2-17.8-12c-0.5-0.3-1-0.6-1.4-0.9c-4.4-2.9-9-5.8-13.4-8.9c-0.2-0.1-0.4-0.3-0.6-0.4
					c-6.5-4.6-13.2-9.3-17.7-16.1c-0.5-0.8-1-1.6-1.5-2.5c-1.2-2.2-1.7-4.2-1.2-6c0-0.1-0.1-0.4-0.1-0.5c0.1-0.2,0.3-0.6,0.4-0.8
					c0,0,0,0,0-0.1c0.1-0.1,0.2-0.4,0.4-0.6c0,0,0-0.1,0-0.1C120.8,5.7,121.6,4.8,121.6,4.8z"/>
				<path class="st60" d="M121.8,4.9c0.5-0.5,1.5-1.3,2.1-1.4c0,0,0.1,0,0.1,0c0.2,0,0.5-0.2,0.7-0.2c0.1,0,0.4,0.1,0.5,0.1
					c1.2-0.2,2.6,0,4.2,0.4c1.8,0.5,3.6,1.3,5.2,2.1c6,3.2,11,8,15.7,12.8c1.5,1.5,3,3.1,4.4,4.6c2.7,2.8,5.3,5.6,7.8,8.4
					c1.3,1.4,2.6,2.9,3.9,4.3c4.6,5,9.3,10,14.2,14.7c1,1,2.2,2,3.3,3.1c5.9,5.4,13.8,12.3,24.1,20.7c0.1,0.1,0.7,0.6,0.8,0.6
					c0,0,0.3-0.1,0.4-0.1c0,0,0.4-0.2,0.5-0.2c0.3-0.2,0.8-0.2,1.2,0c0.5,0.3,0.6,0.8,0.5,1.2c0.1,0-0.2,0.6-0.2,0.6
					c0,0-0.1,0.3-0.1,0.4c0.1,0.1,0.9,0.7,0.9,0.8c0.6,0.6,1.2,1.1,1.8,1.6c1.5,0.7,3.1,1.1,4.8,1.1c0.8,0,1.7-0.1,2.5-0.2
					c5.5-0.7,10.7,1.1,16.2,5.5c5.8,4.7,11.3,10,16.7,15.2c2.9,2.8,5.9,5.7,8.8,8.4c1.3,1.2,1.3,1.4,1.1,1.7c0,0,0,0,0,0
					c-0.1,0.2-0.2,0.3-0.3,0.3c-0.2,0.1-0.8-0.4-1.1-0.7c0,0-0.3-0.3-0.3-0.3c-1.7-1.4-3.9-3.4-6.3-5.6c-8-7.3-11.4-10.1-12.9-9.8
					c-0.4,0.1-0.7,0.2-0.9,0.5c-0.3,0.4-0.3,0.8-0.1,1.4c0.4,0.9,1.5,2.1,3.2,3.7c1.9,1.8,4.4,3.9,6.4,5.7c0.1,0,1.8,1.5,1.8,1.6
					c3.4,2.9,6.8,5.9,10.2,8.9c1.7,1.5,1.7,2,1.4,2.4l0,0c-0.3,0.5-0.5,0.6-1.9-0.6c0,0-0.2-0.2-0.2-0.1c-0.6-0.5-1.2-1-1.9-1.6
					c-1.3-1.1-2.6-2.3-4.1-3.5c-5.4-4.7-8.9-7-11.4-8.4c0,0,0,0,0,0c-1.6-1-2.7-1.4-3.4-1.3c-0.4,0.1-0.7,0.2-1,0.5
					c0,0-0.2,0.3-0.2,0.3c-0.3,0.3-0.4,0.7-0.4,1c0,0.6,0.3,1.3,1.1,2.3c1.3,1.6,3.4,3.7,6.4,6.8c1.4,1.4,3,3,4.8,4.7
					c0.5,0.5,1.1,1,1.6,1.5c1.9,1.7,3.6,3.4,4.8,4.7c0,0,0.2,0.2,0.2,0.2c1.4,1.3,1.4,1.7,1,2.1c-0.4,0.5-0.8,0.7-2.7-0.6
					c-1.2-0.8-2.5-1.6-3.8-2.5c-1.7-1.2-3.5-2.3-5.4-3.5c-0.4-0.3-0.8-0.5-1.2-0.8c-0.1,0.1-1.8-1.3-1.9-1.2c-2.2-1.4-4.8-3.4-7-5
					c-2.2-1.6-3.7-2.6-4.6-2.7c-0.4,0-0.7,0.1-1,0.4c-0.3,0.3-0.4,0.6-0.4,0.9c-0.2,1.4,2.9,4.1,11.3,10.8c1.8,1.4,3.5,2.8,4.9,3.9
					c0.6,0.5,1.1,0.9,1.5,1.3c0,0,0.3,0.3,0.3,0.2c0.3,0.3,0.9,0.7,0.9,1c0,0.1-0.1,0.2-0.2,0.3c-0.3,0.2-0.6,0.3-1.9-0.8
					c-3.3-2.6-6.7-5.1-10-7.5c-6.1-4.5-12.4-9.2-18.2-14.3c-4.5-3.9-6.5-8-7.2-12.5c-0.6-3.5-2.4-6.4-4.7-9c0-0.1-0.8-0.8-0.8-0.9
					c0-0.1-0.8,0.4-0.8,0.3c-0.3,0.1-0.8,0-1.1-0.3c-0.4-0.4-0.4-0.9-0.3-1.3c0-0.1,0.3-0.9,0.3-1c0-0.1-0.6-0.8-0.6-0.9
					c-0.9-1.2-1.9-2.3-2.9-3.4c-1.1-0.6-2.1-1.3-3.1-2.1c-1-0.9-1.9-1.8-2.6-2.8c-7.7-6.6-14.1-11.9-19.2-15.8
					c-1.5-1.2-3.1-2.3-4.6-3.4c-5.8-4.2-11.8-8.1-17.7-11.9c-0.5-0.3-1-0.6-1.4-0.9c-4.4-2.9-8.9-5.8-13.3-8.8
					c-0.2-0.1-0.4-0.3-0.6-0.4c-6.5-4.5-13.1-9.2-17.6-16c-0.5-0.8-1-1.6-1.5-2.4c-1.2-2.2-1.7-4.2-1.3-6c0-0.1-0.1-0.4,0-0.5
					c0.1-0.2,0.3-0.6,0.4-0.8c0,0,0,0,0-0.1c0.1-0.2,0.2-0.4,0.4-0.6c0,0,0-0.1,0-0.1C121,5.8,121.8,4.9,121.8,4.9z"/>
				<path class="st61" d="M122,5c0.5-0.5,1.5-1.2,2.1-1.4c0,0,0.1,0,0.1,0c0.2,0,0.5-0.2,0.7-0.2c0.1,0,0.4,0,0.5,0
					c1.2-0.2,2.6,0,4.2,0.5c1.8,0.6,3.6,1.3,5.2,2.2c6,3.3,10.9,8,15.6,12.8c1.5,1.5,3,3,4.4,4.6c2.7,2.8,5.3,5.6,7.8,8.4
					c1.3,1.4,2.6,2.9,3.9,4.3c4.6,5,9.3,10,14.2,14.7c1,1,2.1,2,3.3,3.1c5.9,5.4,13.8,12.2,24,20.7c0,0,0.7,0.6,0.8,0.6
					c0,0,0.3-0.2,0.4-0.1c0,0,0.4-0.3,0.5-0.3c0.3-0.2,0.8-0.2,1.2,0c0.5,0.3,0.6,0.8,0.5,1.2c0,0-0.3,0.6-0.2,0.6
					c0,0-0.2,0.4-0.1,0.4c0.1,0.1,0.9,0.7,0.9,0.8c0.6,0.6,1.3,1.1,1.9,1.6c1.5,0.7,3.1,1.1,4.8,1.1c0.8,0,1.7-0.1,2.5-0.2
					c5.5-0.7,10.6,1,16.2,5.5c6.1,4.9,11.8,10.4,17.3,15.8c3,2.9,6.1,5.9,9.2,8.8c1.4,1.3,1.3,1.5,1.2,1.8c0,0,0,0,0,0
					c-0.1,0.2-0.3,0.3-0.3,0.3c-0.3,0.1-0.9-0.5-1.2-0.8c0,0-0.3-0.3-0.3-0.3c-1.8-1.5-4.3-3.7-6.9-6.1c-8.6-7.9-12.4-11-14-10.7
					c-0.4,0.1-0.7,0.2-1,0.6c-0.3,0.4-0.4,0.9-0.2,1.4c0.4,1,1.5,2.2,3.4,3.9c2,1.9,4.6,4.1,6.7,5.9c0,0,1.8,1.6,1.9,1.6
					c3.5,3,7.1,6.1,10.6,9.3c1.8,1.6,1.7,2.1,1.5,2.5l0,0c-0.3,0.5-0.6,0.6-2.1-0.7c0,0-0.2-0.2-0.2-0.2c-0.6-0.5-1.3-1.1-2.1-1.8
					c-1.4-1.2-2.9-2.5-4.4-3.9c-5.8-5.1-9.5-7.8-12.1-9.3c0,0,0,0,0,0c-1.7-1.1-2.8-1.5-3.5-1.4c-0.4,0-0.8,0.2-1,0.5
					c0,0-0.2,0.3-0.2,0.3c-0.3,0.3-0.4,0.7-0.4,1.1c0,0.6,0.4,1.3,1.3,2.4c1.3,1.6,3.6,3.8,6.9,7c1.5,1.5,3.2,3.1,5.3,4.9
					c0.6,0.5,1.2,1.1,1.8,1.6c2,1.8,3.9,3.5,5.1,4.8c0,0,0.2,0.2,0.2,0.2c1.5,1.4,1.5,1.8,1.1,2.2c-0.4,0.5-0.9,0.7-2.8-0.7
					c-1.3-0.9-2.6-1.8-3.9-2.7c-1.8-1.4-3.7-2.6-5.6-3.9c-0.4-0.3-0.9-0.6-1.3-0.9c-0.1,0.1-1.9-1.4-1.9-1.4
					c-2.2-1.5-4.9-3.6-7.1-5.3c-2.3-1.7-3.8-2.7-4.8-2.8c-0.4,0-0.8,0.1-1.1,0.4c-0.3,0.3-0.4,0.6-0.4,1c-0.1,1.5,3.4,4.6,12.5,11.8
					c2,1.5,3.8,3,5.3,4.3c0.6,0.5,1.2,1,1.7,1.4c0,0,0.3,0.3,0.3,0.3c0.3,0.3,1,0.8,0.9,1.1c0,0.1-0.1,0.2-0.2,0.3
					c-0.3,0.3-0.6,0.3-2-0.8c-3.4-2.7-7-5.3-10.4-7.8c-6.3-4.7-12.8-9.5-18.8-14.7c-4.6-4.1-6.7-8.3-7.4-13c-0.5-3.5-2.2-6.4-4.5-9
					c0-0.1-0.8-0.8-0.8-0.9c0-0.1-0.8,0.5-0.8,0.4c-0.3,0.2-0.8,0.1-1.1-0.2c-0.4-0.4-0.4-0.9-0.3-1.3c0-0.1,0.3-0.9,0.3-0.9
					c0-0.1-0.6-0.8-0.6-0.9c-0.9-1.2-1.9-2.3-3-3.3c-1-0.6-2.1-1.4-3.1-2.2c-1-0.9-1.9-1.8-2.6-2.7c-7.7-6.6-14-11.8-19.1-15.7
					c-1.5-1.2-3-2.3-4.6-3.4c-5.7-4.2-11.7-8.1-17.5-11.8c-0.5-0.3-1-0.6-1.4-0.9c-4.4-2.8-8.8-5.8-13.2-8.8
					c-0.2-0.1-0.4-0.3-0.5-0.4c-6.5-4.5-13-9.2-17.6-15.8c-0.5-0.8-1-1.6-1.5-2.4c-1.2-2.3-1.7-4.2-1.4-5.9c0-0.1,0-0.4,0-0.5
					c0.1-0.2,0.3-0.6,0.4-0.8c0,0,0,0,0-0.1c0.1-0.2,0.2-0.4,0.4-0.6c0,0,0-0.1,0-0.1C121.1,6,122,5,122,5z"/>
				<path class="st62" d="M122.1,5.1c0.6-0.5,1.4-1.2,2.1-1.4c0,0,0.1,0,0.1,0c0.2,0,0.5-0.2,0.7-0.2c0.1,0,0.4,0,0.5,0
					c1.2-0.1,2.6,0.1,4.2,0.6c1.8,0.6,3.5,1.4,5.1,2.3c6,3.3,10.8,8.1,15.5,12.9c1.5,1.5,3,3,4.4,4.6c2.6,2.8,5.2,5.6,7.8,8.4
					c1.3,1.4,2.6,2.9,3.9,4.3c4.6,5,9.2,10,14.2,14.7c1,1,2.1,2,3.3,3.1c5.9,5.4,13.8,12.2,24,20.6c0,0,0.7,0.6,0.8,0.6
					c0,0,0.4-0.2,0.4-0.2c0,0,0.4-0.3,0.5-0.3c0.3-0.2,0.8-0.2,1.2,0c0.5,0.3,0.6,0.8,0.4,1.2c0,0-0.3,0.6-0.3,0.6
					c0,0-0.2,0.4-0.2,0.4c0,0,0.9,0.7,0.9,0.8c0.6,0.6,1.3,1.1,1.9,1.5c1.5,0.7,3.1,1.1,4.8,1.1c0.8,0,1.7-0.1,2.5-0.2
					c5.5-0.7,10.6,1,16.1,5.4c6.3,5.1,12.2,10.8,17.9,16.4c3.1,3,6.3,6.1,9.5,9.1c1.4,1.3,1.4,1.6,1.2,1.9c0,0,0,0,0,0
					c-0.1,0.2-0.3,0.3-0.4,0.3c-0.3,0-0.9-0.5-1.3-0.9c0,0-0.4-0.3-0.4-0.3c-2-1.6-4.6-4.1-7.5-6.6c-9.3-8.4-13.4-11.9-15.1-11.6
					c-0.4,0.1-0.8,0.2-1,0.6c-0.3,0.4-0.4,0.9-0.2,1.5c0.4,1,1.6,2.2,3.5,4c2.1,1.9,4.8,4.2,6.9,6.1c0,0,1.9,1.6,2,1.7
					c3.6,3.1,7.4,6.4,11,9.6c1.9,1.7,1.8,2.2,1.5,2.6l0,0c-0.4,0.5-0.6,0.6-2.3-0.8c0,0-0.2-0.2-0.2-0.2c-0.7-0.5-1.4-1.2-2.2-1.9
					c-1.5-1.3-3.1-2.7-4.8-4.2c-6.2-5.5-10.1-8.5-12.9-10.1c0,0,0,0,0,0c-1.8-1.2-2.9-1.6-3.7-1.5c-0.4,0-0.8,0.2-1.1,0.5
					c0,0-0.2,0.3-0.3,0.3c-0.4,0.3-0.4,0.7-0.4,1.2c0,0.6,0.4,1.4,1.4,2.5c1.4,1.7,3.8,3.9,7.4,7.2c1.6,1.5,3.5,3.2,5.7,5.1
					c0.7,0.6,1.3,1.1,1.9,1.7c2.2,1.9,4.1,3.6,5.5,5c0,0,0.2,0.2,0.2,0.2c1.6,1.4,1.6,1.8,1.2,2.3c-0.4,0.5-0.9,0.7-2.9-0.8
					c-1.3-1-2.7-1.9-4-2.9c-1.9-1.5-3.9-2.9-5.9-4.3c-0.4-0.3-0.9-0.6-1.3-1c0,0-2-1.5-2-1.5c-2.3-1.6-5-3.9-7.3-5.6
					c-2.4-1.8-3.9-2.8-5-2.8c-0.4,0-0.8,0.1-1.1,0.5c-0.3,0.3-0.4,0.7-0.4,1.1c0,1.7,3.9,5.2,13.7,12.9c2.1,1.7,4.2,3.3,5.8,4.7
					c0.7,0.5,1.3,1.1,1.8,1.5c0,0,0.4,0.3,0.3,0.3c0.4,0.3,1,0.9,1,1.2c0,0.1-0.1,0.2-0.2,0.4c-0.3,0.3-0.6,0.3-2-0.8
					c-3.6-2.8-7.2-5.4-10.7-8c-6.5-4.8-13.2-9.8-19.4-15.2c-4.8-4.3-7-8.6-7.5-13.5c-0.4-3.5-2-6.5-4.3-8.9c0-0.1-0.8-0.8-0.8-0.9
					c0-0.1-0.8,0.6-0.8,0.5c-0.3,0.2-0.8,0.2-1.1-0.2c-0.4-0.4-0.4-0.9-0.3-1.3c0-0.1,0.3-0.9,0.3-0.9c0-0.1-0.7-0.7-0.7-0.8
					c-1-1.1-2-2.2-3.1-3.2c-1-0.7-2-1.4-3-2.3c-1-0.9-1.9-1.7-2.7-2.6c-7.6-6.5-13.9-11.7-19-15.6c-1.5-1.2-3-2.3-4.5-3.4
					c-5.7-4.1-11.6-8-17.4-11.8c-0.5-0.3-0.9-0.6-1.4-0.9c-4.3-2.8-8.8-5.7-13.1-8.7c-0.2-0.1-0.4-0.3-0.5-0.4
					c-6.4-4.5-13-9.1-17.5-15.7c-0.5-0.8-1-1.6-1.5-2.4c-1.2-2.3-1.8-4.2-1.4-5.9c0-0.1,0-0.4,0-0.5c0.1-0.2,0.2-0.6,0.3-0.8
					c0,0,0,0,0-0.1c0.1-0.2,0.2-0.4,0.4-0.6c0,0,0-0.1,0-0.1C121.3,6.1,122.1,5.1,122.1,5.1z"/>
				<path class="st63" d="M122.3,5.2c0.6-0.6,1.4-1.1,2.2-1.3c0,0,0.1,0,0.1,0c0.2,0,0.5-0.1,0.7-0.2c0.2,0,0.4,0,0.5,0
					c1.2-0.1,2.6,0.2,4.2,0.7c1.8,0.6,3.5,1.4,5.1,2.3c5.9,3.3,10.7,8.2,15.4,12.9c1.5,1.5,2.9,3,4.4,4.6c2.6,2.8,5.2,5.6,7.8,8.4
					c1.3,1.4,2.6,2.9,3.9,4.3c4.5,5,9.2,9.9,14.2,14.6c1,1,2.1,2,3.3,3.1c5.9,5.4,13.8,12.2,24,20.6c0,0,0.7,0.6,0.8,0.6
					c0,0,0.4-0.2,0.4-0.2c0,0,0.4-0.3,0.5-0.3c0.3-0.2,0.8-0.3,1.2,0c0.5,0.4,0.6,0.9,0.4,1.3c0,0-0.3,0.6-0.3,0.6
					c0,0-0.2,0.4-0.2,0.4c0,0,0.9,0.7,0.9,0.8c0.7,0.6,1.3,1,2,1.5c1.5,0.7,3.1,1.1,4.8,1.1c0.8,0,1.7,0,2.5-0.2
					c5.5-0.8,10.6,0.9,16.1,5.4c6.5,5.3,12.6,11.2,18.6,17c3.2,3.1,6.5,6.3,9.9,9.4c1.5,1.4,1.4,1.6,1.2,1.9c0,0,0,0,0,0
					c-0.2,0.2-0.3,0.3-0.4,0.3c-0.3,0-1-0.6-1.4-0.9c0,0-0.4-0.3-0.4-0.3c-2.1-1.8-5-4.4-8-7.2c-9.9-9-14.3-12.8-16.3-12.6
					c-0.4,0.1-0.8,0.2-1.1,0.6c-0.4,0.5-0.4,1-0.2,1.5c0.4,1,1.6,2.3,3.6,4.2c2.1,2,4.9,4.4,7.2,6.3c0,0,2,1.7,2,1.7
					c3.8,3.2,7.7,6.6,11.4,9.9c2,1.8,1.9,2.3,1.6,2.7l0,0c-0.4,0.5-0.7,0.6-2.4-0.9c0,0-0.2-0.2-0.2-0.2c-0.7-0.6-1.5-1.3-2.4-2.1
					c-1.6-1.4-3.3-2.9-5.1-4.5c-6.6-5.8-10.8-9.2-13.6-11c0,0,0,0,0,0c-1.9-1.3-3-1.8-3.8-1.7c-0.4,0-0.8,0.2-1.1,0.5
					c0,0-0.3,0.3-0.3,0.3c-0.4,0.3-0.4,0.8-0.4,1.2c0,0.6,0.5,1.5,1.5,2.6c1.5,1.7,4,4,7.9,7.4c1.8,1.6,3.8,3.3,6.1,5.3
					c0.7,0.6,1.4,1.2,2.1,1.8c2.3,1.9,4.3,3.7,5.8,5.1c0,0,0.2,0.2,0.2,0.2c1.7,1.5,1.7,1.9,1.3,2.4c-0.4,0.5-0.9,0.7-3-0.9
					c-1.4-1-2.7-2.1-4.1-3.2c-2-1.6-4.1-3.2-6.1-4.7c-0.5-0.3-0.9-0.7-1.4-1.1c0,0-2-1.6-2.1-1.6c-2.3-1.8-5.2-4.1-7.5-5.9
					c-2.4-1.8-4-2.9-5.1-2.9c-0.4,0-0.8,0.2-1.1,0.5c-0.3,0.3-0.4,0.7-0.4,1.2c0.1,1.9,4.4,5.7,14.9,13.9c2.3,1.8,4.5,3.6,6.3,5.1
					c0.7,0.6,1.4,1.1,2,1.7c0,0,0.4,0.3,0.4,0.3c0.4,0.3,1.1,0.9,1.1,1.2c0,0.1-0.1,0.2-0.2,0.4c-0.3,0.3-0.6,0.4-2.1-0.8
					c-3.7-2.9-7.4-5.6-11-8.3c-6.7-5-13.6-10.1-20-15.7c-5-4.4-7.2-8.9-7.6-14c-0.2-3.5-1.8-6.5-4.2-8.9c0,0-0.8-0.8-0.9-0.9
					c0,0-0.8,0.7-0.9,0.6c-0.3,0.3-0.8,0.2-1.2-0.1c-0.4-0.4-0.4-0.9-0.3-1.2c0,0,0.4-0.9,0.4-0.9c0-0.1-0.7-0.7-0.7-0.8
					c-1-1.1-2.1-2.1-3.2-3.1c-1-0.7-2-1.5-2.9-2.3c-1-0.8-1.9-1.7-2.7-2.6c-7.6-6.5-13.8-11.6-18.9-15.4c-1.5-1.1-3-2.3-4.5-3.3
					c-5.7-4.1-11.6-7.9-17.3-11.7c-0.5-0.3-0.9-0.6-1.4-0.9c-4.3-2.8-8.7-5.7-13-8.6c-0.2-0.1-0.4-0.3-0.5-0.4
					c-6.4-4.5-12.9-9-17.4-15.5c-0.5-0.8-1-1.5-1.5-2.4c-1.3-2.3-1.8-4.1-1.5-5.8c0-0.2,0-0.3,0.1-0.5c0.1-0.2,0.2-0.6,0.3-0.8
					c0,0,0,0,0-0.1c0.1-0.2,0.2-0.4,0.4-0.6c0,0,0-0.1,0-0.1C121.4,6.2,122.3,5.2,122.3,5.2z"/>
				<path class="st64" d="M122.5,5.3c0.6-0.6,1.4-1.1,2.2-1.3c0,0,0.1,0,0.1,0c0.2-0.1,0.5-0.1,0.7-0.1c0.2,0,0.4,0,0.5,0
					c1.2,0,2.6,0.2,4.2,0.8c1.8,0.6,3.5,1.5,5.1,2.4c5.9,3.4,10.7,8.2,15.3,13c1.5,1.5,2.9,3,4.4,4.6c2.6,2.8,5.2,5.6,7.7,8.4
					c1.3,1.4,2.6,2.8,3.9,4.3c4.5,4.9,9.2,9.9,14.1,14.6c1,1,2.1,2,3.3,3.1c5.9,5.4,13.8,12.2,23.9,20.5c0,0,0.8,0.6,0.8,0.6
					c0,0,0.4-0.2,0.4-0.2c0,0,0.4-0.3,0.4-0.3c0.3-0.2,0.8-0.3,1.2,0c0.5,0.4,0.5,0.9,0.3,1.3c0,0-0.4,0.6-0.4,0.6
					c0,0-0.2,0.4-0.2,0.4c0,0,0.9,0.7,1,0.8c0.7,0.5,1.4,1,2.1,1.4c1.5,0.7,3.1,1.1,4.8,1.2c0.8,0,1.7,0,2.5-0.2
					c5.5-0.8,10.6,0.9,16.1,5.3c6.8,5.5,13.1,11.6,19.2,17.6c3.3,3.2,6.7,6.6,10.2,9.8c1.6,1.4,1.5,1.7,1.3,2c0,0,0,0,0,0
					c-0.2,0.2-0.3,0.3-0.4,0.3c-0.3,0-1.1-0.6-1.5-1c0,0-0.4-0.3-0.4-0.3c-2.3-1.9-5.4-4.7-8.6-7.7c-10.5-9.6-15.3-13.7-17.4-13.5
					c-0.5,0-0.9,0.2-1.2,0.6c-0.4,0.5-0.5,1-0.3,1.6c0.4,1.1,1.7,2.4,3.7,4.3c2.2,2.1,5.1,4.5,7.4,6.5c0,0,2.1,1.8,2.1,1.8
					c3.9,3.3,7.9,6.8,11.8,10.3c2.1,1.8,2,2.4,1.6,2.8l0,0c-0.4,0.5-0.8,0.6-2.6-0.9c0,0-0.2-0.2-0.2-0.2c-0.8-0.6-1.6-1.4-2.6-2.2
					c-1.7-1.5-3.5-3.1-5.5-4.9c-7-6.2-11.4-9.9-14.3-11.9c0,0,0,0,0,0c-1.9-1.4-3.1-1.9-3.9-1.8c-0.5,0-0.9,0.2-1.1,0.6
					c0,0-0.3,0.3-0.3,0.3c-0.4,0.4-0.5,0.8-0.4,1.3c0,0.7,0.5,1.5,1.7,2.8c1.5,1.7,4.2,4.1,8.3,7.6c1.9,1.6,4.1,3.4,6.6,5.5
					c0.8,0.6,1.5,1.2,2.2,1.8c2.4,2,4.6,3.8,6.1,5.2c0,0,0.2,0.2,0.2,0.2c1.8,1.6,1.8,2,1.4,2.5c-0.4,0.5-0.9,0.7-3.1-1
					c-1.4-1.1-2.8-2.2-4.2-3.4c-2.1-1.7-4.3-3.5-6.4-5.2c-0.5-0.4-0.9-0.8-1.4-1.1c0,0-2.1-1.7-2.1-1.7c-2.4-1.9-5.3-4.3-7.7-6.2
					c-2.5-1.9-4.1-3-5.3-3c-0.5,0-0.8,0.2-1.2,0.5c-0.3,0.3-0.4,0.8-0.4,1.3c0.1,2.1,4.9,6.2,16.1,14.9c2.5,2,4.9,3.8,6.8,5.4
					c0.8,0.6,1.5,1.2,2.1,1.8c0,0,0.4,0.3,0.4,0.3c0.4,0.4,1.2,1,1.2,1.3c0,0.1-0.1,0.3-0.2,0.4c-0.3,0.3-0.6,0.4-2.2-0.8
					c-3.8-2.9-7.6-5.8-11.4-8.5c-6.9-5.1-14-10.4-20.6-16.2c-5.1-4.6-7.5-9.2-7.7-14.5c-0.1-3.5-1.5-6.5-4-8.9c0,0-0.9-0.8-0.9-0.9
					c0,0-0.9,0.8-0.9,0.7c-0.4,0.3-0.9,0.3-1.2,0c-0.4-0.4-0.5-0.9-0.3-1.2c0,0,0.4-0.9,0.4-0.9c0,0-0.7-0.7-0.7-0.7
					c-1.1-1-2.2-2.1-3.3-3c-1-0.8-2-1.6-2.9-2.4c-1-0.8-1.9-1.7-2.8-2.5c-7.5-6.4-13.7-11.5-18.7-15.3c-1.5-1.1-3-2.2-4.5-3.3
					c-5.6-4.1-11.5-7.9-17.2-11.6c-0.5-0.3-0.9-0.6-1.4-0.9c-4.3-2.8-8.6-5.6-12.9-8.6c-0.2-0.1-0.4-0.2-0.5-0.4
					c-6.3-4.4-12.8-9-17.3-15.4c-0.5-0.7-1-1.5-1.5-2.3c-1.3-2.3-1.8-4.1-1.5-5.8c0-0.2,0-0.3,0.1-0.5c0.1-0.3,0.2-0.5,0.3-0.8
					c0,0,0,0,0-0.1c0.1-0.2,0.2-0.4,0.4-0.6c0,0,0-0.1,0-0.1C121.6,6.3,122.5,5.3,122.5,5.3z"/>
				<path class="st65" d="M122.7,5.3c1.9-1.7,4.2-1.8,7.8-0.5c8.2,3.1,14.4,9.4,20.3,15.5c4.2,4.3,8.2,8.7,12.1,13
					c5.8,6.3,11.7,12.8,18,18.8C187.1,58,196,65.7,208,75.7l0.8,0.6l0.8-0.6c0.3-0.2,0.8-0.3,1.2,0c0.5,0.4,0.5,0.9,0.2,1.3l-0.7,1
					l1,0.7c2.7,2.1,5.9,2.9,9.4,2.4c5.5-0.8,10.6,0.8,16.1,5.3c7,5.6,13.5,12,19.8,18.2c3.4,3.3,7,6.8,10.5,10.1
					c1.6,1.5,1.5,1.8,1.3,2.1c0,0,0,0,0,0c-0.2,0.2-0.3,0.3-0.4,0.3c-0.4,0-1.1-0.7-1.6-1.1l-0.4-0.4c-2.5-2.1-5.7-5-9.2-8.2
					c-11.1-10.1-16.2-14.6-18.5-14.4c-0.5,0-1,0.3-1.3,0.6c-1.1,1.3,0.2,3,3.5,6.1c2.3,2.1,5.3,4.7,7.7,6.7l2.2,1.8
					c4,3.5,8.2,7,12.3,10.6c2.2,1.9,2,2.5,1.6,2.9l0,0c-0.5,0.5-0.8,0.6-2.8-1l-0.3-0.2c-2.3-1.9-5.4-4.6-8.6-7.6
					c-12.5-11.2-17-14.9-19.1-14.7c-0.5,0-0.9,0.2-1.2,0.6c0,0-0.3,0.3-0.3,0.3c-0.3,0.4-0.5,0.8-0.4,1.3c0.2,2.1,4.6,5.9,17.7,16.5
					c3.4,2.8,6.6,5.4,8.9,7.3l0.2,0.2c1.9,1.6,1.9,2,1.5,2.5c-0.4,0.5-0.9,0.7-3.2-1.1c-4.2-3.4-8.4-6.9-12.5-10.4l-2.2-1.8
					c-2.4-2-5.4-4.6-7.9-6.5c-3.7-2.8-5.5-3.8-6.6-2.5c-0.3,0.4-0.5,0.8-0.4,1.4c0.2,2.3,5.4,6.7,17.2,16c3.7,2.9,7.2,5.6,9.6,7.7
					l0.4,0.4c0.5,0.4,1.3,1.1,1.3,1.4c0,0.1-0.1,0.3-0.2,0.5c-0.3,0.3-0.6,0.5-2.2-0.9c-3.9-3-7.9-6-11.7-8.8
					c-7.1-5.2-14.5-10.7-21.2-16.6c-5.3-4.7-7.8-9.5-7.8-15c0-3.6-1.3-6.6-3.9-8.9l-0.9-0.8l-0.9,0.8c-0.4,0.3-0.9,0.4-1.3,0.1
					c-0.5-0.4-0.5-0.9-0.3-1.2l0.4-0.9l-0.7-0.7c-11.7-10.3-20.8-17.8-27.6-23c-6.9-5.3-14.3-10.1-21.5-14.7
					c-4.9-3.2-9.9-6.4-14.7-9.8c-7-4.9-14.2-10-18.6-17.6c-1.9-3.3-2.2-5.6-0.8-7.7l0-0.1L122.7,5.3z"/>
			</g>
			<g>
				
					<radialGradient id="SVGID_1_" cx="-166.5081" cy="262.925" r="66.5725" gradientTransform="matrix(-0.6471 0.7624 -0.7624 -0.6471 283.2641 361.7074)" gradientUnits="userSpaceOnUse">
					<stop  offset="0.5744" style="stop-color:#130C0E"/>
					<stop  offset="0.7977" style="stop-color:#130C0E"/>
					<stop  offset="1" style="stop-color:#130C0E"/>
				</radialGradient>
				<path class="st66" d="M218,106.2c10.4,9.2,21.9,16.9,32.9,25.5c1.2,1,2.8,2.2,4.1,0.8c1.6-1.8-0.4-3.1-1.6-4.1
					c-8.1-7-28-21.2-26.3-23.2c0.9-1.1,10,6.9,14.5,10.7c4.2,3.6,8.5,7.2,12.8,10.7c1.5,1.2,3.5,2.7,5,1c1.6-1.8-0.5-3.4-1.8-4.6
					c-7.7-6.7-27.5-21.5-26-23.2c0.1-0.1,0.3-0.3,0.3-0.4c1.4-1.7,19.2,15.4,27.1,21.9c1.4,1.2,3.3,3,4.9,1.1
					c1.4-1.8-0.4-3.5-1.8-4.8c-4.2-3.7-8.4-7.3-12.6-10.9c-4.5-3.9-13.9-11.5-12.9-12.6c1.7-2,18.9,15.3,27.2,22.2
					c1.2,1,2.8,2.8,4.3,0.9c1.2-1.5-0.3-2.8-1.4-3.9c-10.2-9.4-19.6-19.6-30.5-28.3c-5.1-4.1-10.6-6.6-17.1-5.6
					c-3.1,0.5-6-0.2-8.4-2.1c0.6-1,0.5-2.2-0.4-3l-0.1-0.1c-0.8-0.7-1.9-0.7-2.8-0.1c-8.8-7.2-19.4-16.2-27.1-23.5
					c-10.6-10-19.9-21.3-30-31.7c-6.1-6.2-12.3-12.6-20.8-15.9c-3.4-1.3-6.5-1.6-9.1,0.7l0,0l-0.1,0.1c-0.2,0.2-0.4,0.3-0.5,0.5
					l0.1,0.1l0,0l-0.1-0.1c-0.2,0.2-0.3,0.4-0.4,0.6L119,5.2l0,0c-1.9,2.9-1,6,0.8,9c4.6,7.9,11.9,13,19,18
					c11.9,8.3,24.5,15.7,36.1,24.5c8.5,6.4,19,15.5,27.6,22.9c-0.4,0.9-0.3,2,0.5,2.7l0.1,0.1c0.9,0.8,2.2,0.7,3-0.1
					c2.3,2.1,3.4,4.8,3.4,8C209.8,96.8,213.1,101.9,218,106.2z"/>
				<path class="st67" d="M219.7,106.3c10.4,9.2,22,16.9,32.9,25.5c1.2,1,2.8,2.2,4.1,0.8c1.6-1.8-0.4-3.1-1.6-4.1
					c-8.1-7-28-21.2-26.3-23.2c0.9-1.1,10,6.9,14.5,10.7c4.2,3.6,8.5,7.2,12.8,10.7c1.5,1.2,3.5,2.7,5,1c1.6-1.8-0.5-3.4-1.8-4.6
					c-7.7-6.7-27.5-21.5-26-23.2c0.1-0.1,0.3-0.3,0.3-0.4c1.4-1.7,19.2,15.4,27.1,21.9c1.4,1.2,3.3,3,4.9,1.1
					c1.4-1.8-0.4-3.5-1.8-4.8c-4.2-3.7-8.4-7.3-12.6-10.9c-4.5-3.9-13.9-11.5-12.9-12.6c1.7-2,18.9,15.3,27.2,22.2
					c1.2,1,2.8,2.8,4.3,0.9c1.2-1.5-0.3-2.8-1.4-3.9c-10.2-9.4-19.6-19.6-30.5-28.3c-5.1-4.1-10.6-6.6-17.1-5.6
					c-3.1,0.5-6-0.2-8.4-2.1c0.6-1,0.5-2.2-0.4-3l-0.1-0.1c-0.8-0.7-1.9-0.7-2.8-0.1c-8.8-7.2-19.4-16.2-27.1-23.5
					c-10.6-10-19.9-21.3-30-31.7c-6.1-6.2-12.3-12.6-20.8-15.9c-3.4-1.3-6.5-1.6-9.1,0.7l0,0l-0.1,0.1c-0.2,0.2-0.4,0.3-0.5,0.5
					l0.1,0.1l0,0l-0.1-0.1c-0.2,0.2-0.3,0.4-0.4,0.6l-0.1,0.1l0,0c-1.9,2.9-1,6,0.8,9c4.6,7.9,11.9,13,19,18
					c11.9,8.3,24.5,15.7,36.1,24.5c8.5,6.4,19,15.5,27.6,22.9c-0.4,0.9-0.3,2,0.5,2.7l0.1,0.1c0.9,0.8,2.2,0.7,3-0.1
					c2.3,2.1,3.4,4.8,3.5,8C211.5,96.9,214.9,101.9,219.7,106.3z"/>
				<path class="st68" d="M220.7,106.4c10.4,9.2,22,16.9,32.9,25.5c1.2,1,2.8,2.2,4.1,0.8c1.6-1.8-0.4-3.1-1.6-4.1
					c-8.1-7-28-21.2-26.3-23.2c0.9-1.1,10,6.9,14.5,10.7c4.2,3.6,8.5,7.2,12.8,10.7c1.5,1.2,3.5,2.7,5,1c1.6-1.8-0.5-3.4-1.8-4.6
					c-7.7-6.7-27.5-21.5-26-23.2c0.1-0.1,0.3-0.3,0.3-0.4c1.4-1.7,19.2,15.4,27.1,21.9c1.4,1.2,3.3,3,4.9,1.1
					c1.4-1.8-0.4-3.5-1.8-4.8c-4.2-3.7-8.4-7.3-12.6-10.9c-4.5-3.9-13.9-11.5-12.9-12.6c1.7-2,18.9,15.3,27.2,22.2
					c1.2,1,2.8,2.8,4.3,0.9c1.2-1.5-0.3-2.8-1.4-3.9c-10.2-9.4-19.6-19.6-30.5-28.3c-5.1-4.1-10.6-6.6-17.1-5.6
					c-3.1,0.5-6-0.2-8.4-2.1c0.6-1,0.5-2.2-0.4-3l-0.1-0.1c-0.8-0.7-1.9-0.7-2.8-0.1c-8.8-7.2-19.4-16.2-27.1-23.5
					c-10.6-10-19.9-21.3-30-31.7c-6.1-6.2-12.3-12.6-20.8-15.9c-3.4-1.3-6.5-1.6-9.1,0.7l0,0L122.9,4c-0.2,0.2-0.4,0.3-0.5,0.5
					l0.1,0.1l0,0l-0.1-0.1c-0.2,0.2-0.3,0.4-0.4,0.6l-0.1,0.1l0,0c-1.9,2.9-1,6,0.8,9c4.6,7.9,11.9,13,19,18
					c11.9,8.3,24.5,15.7,36.1,24.5c8.5,6.4,19,15.5,27.6,22.9c-0.4,0.9-0.3,2,0.5,2.7l0.1,0.1c0.9,0.8,2.2,0.7,3-0.1
					c2.3,2.1,3.4,4.8,3.5,8C212.5,97,215.8,102.1,220.7,106.4z"/>
				<g>
					<path class="st15" d="M237.4,104.1c7.1,7.6,13,14.7,17.5,20.8c0.7,0.6,1.4,1.2,2.1,1.8c1.5,1.2,3.5,2.7,5,1
						c1.6-1.8-0.5-3.4-1.8-4.6C254.7,118.2,243.1,109.4,237.4,104.1z"/>
					<path class="st15" d="M208.6,75.5c0.1,0.5-0.8,1.8-1.2,2.3c-0.5,0.6-0.1,1.5,0.5,2l0.3,0.3c0.6,0.5,1.8,1.1,2.4,0.2
						c0.3-0.4,1.1-1.4,1.6-1.4c3.4,0.1,15.5,15,22.2,22.1c-0.4-0.5-0.5-0.9-0.3-1.1c0.1-0.1,0.3-0.3,0.3-0.4
						c1.4-1.7,19.2,15.4,27.1,21.9c1.4,1.2,3.3,3,4.9,1.1c1.4-1.8-0.4-3.5-1.8-4.8c-4.2-3.7-8.4-7.3-12.6-10.9
						c-4.5-3.9-13.9-11.5-12.9-12.6c1.7-2,18.9,15.3,27.2,22.2c1.2,1,2.8,2.8,4.3,0.9c1.2-1.5-0.3-2.8-1.4-3.9
						c-10.2-9.4-19.6-19.6-30.5-28.3c-5.1-4.1-10.6-6.6-17.1-5.6c-3.1,0.5-6-0.2-8.4-2.1c0.6-1,0.5-2.2-0.4-3l-0.1-0.1
						c-0.8-0.7-1.9-0.7-2.8-0.1c-8.8-7.2-19.4-16.2-27.1-23.5c-10.6-10-19.9-21.3-30-31.7c-6.1-6.2-12.3-12.6-20.8-15.9
						c-3.4-1.3-6.5-1.6-9.1,0.7l0,0L122.9,4c-0.2,0.2-0.4,0.3-0.5,0.5l0.1,0.1l0,0l-0.1-0.1c-0.2,0.2-0.3,0.4-0.4,0.6l-0.1,0.1l0,0
						c-0.9,1.5-1.2,3-1,4.6c18.5,10,44,28,70.5,50.5C197.5,65.7,207.9,72.8,208.6,75.5z"/>
				</g>
			</g>
		</g>
		<g>
			<path class="st36" d="M161.6,76.6c7.3-4.1,11.7-5,15.1-7.1c6.5-3.9,15.7-8.6,13-13.3c-2-3.4-11.2-6.4-22.7,1.9
				c-9.6,7-24.5,5.8-26,4c-0.2-0.2-0.6-6.9-0.8-7.3c-5.4,2.9-23.5,34.9-20,35.7C136.1,94.5,153,81.4,161.6,76.6z"/>
			<path class="st42" d="M188.5,57.1c-1.8-4.9-10.8-0.3-11,0.7c-0.2,1,0.4,3.1,0.9,4.1c0.4,0.7,1.4,2.2,2.2,2.4
				C181.4,64.6,190,61.3,188.5,57.1z"/>
			<path class="st43" d="M188.2,59.8c-2,2.5-6.5,4.1-7.1,3.9c-0.8-0.2-1.9-1.7-2.2-2.4c-0.5-0.9-1-2.9-0.9-4
				c-0.2,0.2-0.4,0.4-0.4,0.5c-0.2,1,0.4,3.1,0.9,4.1c0.4,0.7,1.4,2.2,2.2,2.4C181.2,64.5,186.5,62.6,188.2,59.8z"/>
			<path class="st38" d="M143.2,78.9c0.8,1.7,3.2,2.3,5.5,1.3c2.3-1,3.5-3.2,2.7-4.9c-0.8-1.7-3.2-2.3-5.5-1.3
				S142.4,77.2,143.2,78.9z"/>
			<path class="st40" d="M179,57.8c-0.2,0.1-0.4,0.4-0.3,0.6l0,0c0.1,0.2,0.4,0.4,0.6,0.3l4.9-2c0.2-0.1,0.4-0.4,0.3-0.6
				c0,0-0.2-0.5-0.6-0.3L179,57.8z"/>
			<g class="st21">
				<path class="st39" d="M169.3,63.1c1.6,1.3,2.1,2.7,2.4,4.7c0.1,0.9,1.5,0.5,1.4-0.4c-0.3-2.2-1-3.9-2.8-5.4
					C169.5,61.5,168.6,62.5,169.3,63.1L169.3,63.1z"/>
			</g>
			<g class="st21">
				<path class="st39" d="M166.7,66.3c0.4,0.8,0.8,1.6,1,2.5c0.2,0.9,1.6,0.5,1.4-0.4c-0.3-1-0.7-1.9-1.1-2.8
					C167.5,64.8,166.3,65.5,166.7,66.3L166.7,66.3z"/>
			</g>
		</g>
		<polygon class="st41" points="0,36.1 0,97.3 80.8,97.4 80.9,36.2 		"/>
		
			<rect x="53.6" y="36.2" transform="matrix(1 1.281364e-03 -1.281364e-03 1 8.544314e-02 -7.259706e-02)" class="st12" width="6.2" height="60.9"/>
		<polygon class="st42" points="58,104.3 56.5,20.4 84.4,35 85.6,103.8 		"/>
	</g>
</g>
</svg>
